G75*
%MOIN*%
%OFA0B0*%
%FSLAX25Y25*%
%IPPOS*%
%LPD*%
%AMOC8*
5,1,8,0,0,1.08239X$1,22.5*
%
%ADD10C,0.00600*%
%ADD11C,0.00800*%
%ADD12C,0.00400*%
%ADD13C,0.00300*%
%ADD14C,0.01000*%
%ADD15C,0.00000*%
%ADD16C,0.00500*%
D10*
X0108441Y0114102D02*
X0108367Y0114104D01*
X0108292Y0114110D01*
X0108219Y0114120D01*
X0108145Y0114133D01*
X0108073Y0114150D01*
X0108002Y0114172D01*
X0107931Y0114196D01*
X0107863Y0114225D01*
X0107795Y0114257D01*
X0107730Y0114293D01*
X0107667Y0114331D01*
X0107605Y0114374D01*
X0107546Y0114419D01*
X0107489Y0114467D01*
X0107435Y0114518D01*
X0107384Y0114572D01*
X0107336Y0114629D01*
X0107291Y0114688D01*
X0107248Y0114750D01*
X0107210Y0114813D01*
X0107174Y0114878D01*
X0107142Y0114946D01*
X0107113Y0115014D01*
X0107089Y0115085D01*
X0107067Y0115156D01*
X0107050Y0115228D01*
X0107037Y0115302D01*
X0107027Y0115375D01*
X0107021Y0115450D01*
X0107019Y0115524D01*
X0107730Y0116768D02*
X0109686Y0117835D01*
X0108975Y0120502D02*
X0108874Y0120500D01*
X0108773Y0120494D01*
X0108673Y0120485D01*
X0108573Y0120471D01*
X0108473Y0120454D01*
X0108374Y0120434D01*
X0108277Y0120409D01*
X0108180Y0120381D01*
X0108084Y0120349D01*
X0107989Y0120313D01*
X0107896Y0120274D01*
X0107805Y0120232D01*
X0107715Y0120186D01*
X0107627Y0120136D01*
X0107541Y0120084D01*
X0107457Y0120028D01*
X0107375Y0119969D01*
X0109685Y0117835D02*
X0109749Y0117875D01*
X0109810Y0117918D01*
X0109869Y0117964D01*
X0109926Y0118013D01*
X0109980Y0118065D01*
X0110031Y0118119D01*
X0110079Y0118177D01*
X0110125Y0118236D01*
X0110167Y0118298D01*
X0110206Y0118363D01*
X0110241Y0118429D01*
X0110273Y0118496D01*
X0110302Y0118566D01*
X0110327Y0118636D01*
X0110348Y0118708D01*
X0110365Y0118781D01*
X0110379Y0118855D01*
X0110388Y0118929D01*
X0110394Y0119004D01*
X0110396Y0119079D01*
X0110397Y0119079D02*
X0110395Y0119153D01*
X0110389Y0119228D01*
X0110379Y0119301D01*
X0110366Y0119375D01*
X0110349Y0119447D01*
X0110327Y0119518D01*
X0110303Y0119589D01*
X0110274Y0119657D01*
X0110242Y0119725D01*
X0110206Y0119790D01*
X0110168Y0119853D01*
X0110125Y0119915D01*
X0110080Y0119974D01*
X0110032Y0120031D01*
X0109981Y0120085D01*
X0109927Y0120136D01*
X0109870Y0120184D01*
X0109811Y0120229D01*
X0109749Y0120272D01*
X0109686Y0120310D01*
X0109621Y0120346D01*
X0109553Y0120378D01*
X0109485Y0120407D01*
X0109414Y0120431D01*
X0109343Y0120453D01*
X0109271Y0120470D01*
X0109197Y0120483D01*
X0109124Y0120493D01*
X0109049Y0120499D01*
X0108975Y0120501D01*
X0110574Y0114991D02*
X0110497Y0114916D01*
X0110417Y0114843D01*
X0110334Y0114774D01*
X0110249Y0114707D01*
X0110162Y0114644D01*
X0110073Y0114584D01*
X0109981Y0114527D01*
X0109888Y0114473D01*
X0109792Y0114423D01*
X0109695Y0114376D01*
X0109596Y0114333D01*
X0109496Y0114293D01*
X0109395Y0114257D01*
X0109292Y0114225D01*
X0109188Y0114196D01*
X0109083Y0114171D01*
X0108977Y0114150D01*
X0108871Y0114133D01*
X0108764Y0114119D01*
X0108656Y0114110D01*
X0108549Y0114104D01*
X0108441Y0114102D01*
X0107019Y0115524D02*
X0107021Y0115599D01*
X0107027Y0115674D01*
X0107036Y0115748D01*
X0107050Y0115822D01*
X0107067Y0115895D01*
X0107088Y0115967D01*
X0107113Y0116037D01*
X0107142Y0116107D01*
X0107174Y0116174D01*
X0107209Y0116240D01*
X0107248Y0116305D01*
X0107290Y0116367D01*
X0107336Y0116426D01*
X0107384Y0116484D01*
X0107435Y0116538D01*
X0107489Y0116590D01*
X0107546Y0116639D01*
X0107605Y0116685D01*
X0107666Y0116728D01*
X0107730Y0116768D01*
X0112932Y0114102D02*
X0114354Y0116946D01*
X0114710Y0116946D02*
X0116487Y0116946D01*
X0114710Y0116946D02*
X0114627Y0116948D01*
X0114544Y0116954D01*
X0114461Y0116964D01*
X0114378Y0116977D01*
X0114297Y0116995D01*
X0114216Y0117016D01*
X0114137Y0117041D01*
X0114059Y0117070D01*
X0113982Y0117102D01*
X0113907Y0117138D01*
X0113833Y0117177D01*
X0113762Y0117220D01*
X0113692Y0117266D01*
X0113625Y0117316D01*
X0113560Y0117368D01*
X0113498Y0117423D01*
X0113438Y0117482D01*
X0113381Y0117543D01*
X0113327Y0117606D01*
X0113276Y0117672D01*
X0113229Y0117741D01*
X0113184Y0117811D01*
X0113143Y0117884D01*
X0113106Y0117958D01*
X0113071Y0118034D01*
X0113041Y0118112D01*
X0113014Y0118190D01*
X0112991Y0118271D01*
X0112971Y0118352D01*
X0112956Y0118434D01*
X0112944Y0118516D01*
X0112936Y0118599D01*
X0112932Y0118682D01*
X0112932Y0118766D01*
X0112936Y0118849D01*
X0112944Y0118932D01*
X0112956Y0119014D01*
X0112971Y0119096D01*
X0112991Y0119177D01*
X0113014Y0119258D01*
X0113041Y0119336D01*
X0113071Y0119414D01*
X0113106Y0119490D01*
X0113143Y0119564D01*
X0113184Y0119637D01*
X0113229Y0119707D01*
X0113276Y0119776D01*
X0113327Y0119842D01*
X0113381Y0119905D01*
X0113438Y0119966D01*
X0113498Y0120025D01*
X0113560Y0120080D01*
X0113625Y0120132D01*
X0113692Y0120182D01*
X0113762Y0120228D01*
X0113833Y0120271D01*
X0113907Y0120310D01*
X0113982Y0120346D01*
X0114059Y0120378D01*
X0114137Y0120407D01*
X0114216Y0120432D01*
X0114297Y0120453D01*
X0114378Y0120471D01*
X0114461Y0120484D01*
X0114544Y0120494D01*
X0114627Y0120500D01*
X0114710Y0120502D01*
X0116487Y0120502D01*
X0116487Y0114102D01*
X0119001Y0114102D02*
X0121845Y0114102D01*
X0121845Y0120502D01*
X0119001Y0120502D01*
X0119712Y0117657D02*
X0121845Y0117657D01*
X0124334Y0117657D02*
X0127179Y0117657D01*
X0129668Y0117657D02*
X0132512Y0117657D01*
X0132512Y0120502D02*
X0132512Y0114102D01*
X0135163Y0114102D02*
X0136586Y0114102D01*
X0135874Y0114102D02*
X0135874Y0120502D01*
X0135163Y0120502D02*
X0136586Y0120502D01*
X0139225Y0120502D02*
X0139225Y0114102D01*
X0142781Y0120502D01*
X0142781Y0114102D01*
X0146090Y0116768D02*
X0148046Y0117835D01*
X0147335Y0120502D02*
X0147234Y0120500D01*
X0147133Y0120494D01*
X0147033Y0120485D01*
X0146933Y0120471D01*
X0146833Y0120454D01*
X0146734Y0120434D01*
X0146637Y0120409D01*
X0146540Y0120381D01*
X0146444Y0120349D01*
X0146349Y0120313D01*
X0146256Y0120274D01*
X0146165Y0120232D01*
X0146075Y0120186D01*
X0145987Y0120136D01*
X0145901Y0120084D01*
X0145817Y0120028D01*
X0145735Y0119969D01*
X0148045Y0117835D02*
X0148109Y0117875D01*
X0148170Y0117918D01*
X0148229Y0117964D01*
X0148286Y0118013D01*
X0148340Y0118065D01*
X0148391Y0118119D01*
X0148439Y0118177D01*
X0148485Y0118236D01*
X0148527Y0118298D01*
X0148566Y0118363D01*
X0148601Y0118429D01*
X0148633Y0118496D01*
X0148662Y0118566D01*
X0148687Y0118636D01*
X0148708Y0118708D01*
X0148725Y0118781D01*
X0148739Y0118855D01*
X0148748Y0118929D01*
X0148754Y0119004D01*
X0148756Y0119079D01*
X0148757Y0119079D02*
X0148755Y0119153D01*
X0148749Y0119228D01*
X0148739Y0119301D01*
X0148726Y0119375D01*
X0148709Y0119447D01*
X0148687Y0119518D01*
X0148663Y0119589D01*
X0148634Y0119657D01*
X0148602Y0119725D01*
X0148566Y0119790D01*
X0148528Y0119853D01*
X0148485Y0119915D01*
X0148440Y0119974D01*
X0148392Y0120031D01*
X0148341Y0120085D01*
X0148287Y0120136D01*
X0148230Y0120184D01*
X0148171Y0120229D01*
X0148109Y0120272D01*
X0148046Y0120310D01*
X0147981Y0120346D01*
X0147913Y0120378D01*
X0147845Y0120407D01*
X0147774Y0120431D01*
X0147703Y0120453D01*
X0147631Y0120470D01*
X0147557Y0120483D01*
X0147484Y0120493D01*
X0147409Y0120499D01*
X0147335Y0120501D01*
X0148934Y0114991D02*
X0148857Y0114916D01*
X0148777Y0114843D01*
X0148694Y0114774D01*
X0148609Y0114707D01*
X0148522Y0114644D01*
X0148433Y0114584D01*
X0148341Y0114527D01*
X0148248Y0114473D01*
X0148152Y0114423D01*
X0148055Y0114376D01*
X0147956Y0114333D01*
X0147856Y0114293D01*
X0147755Y0114257D01*
X0147652Y0114225D01*
X0147548Y0114196D01*
X0147443Y0114171D01*
X0147337Y0114150D01*
X0147231Y0114133D01*
X0147124Y0114119D01*
X0147016Y0114110D01*
X0146909Y0114104D01*
X0146801Y0114102D01*
X0146727Y0114104D01*
X0146652Y0114110D01*
X0146579Y0114120D01*
X0146505Y0114133D01*
X0146433Y0114150D01*
X0146362Y0114172D01*
X0146291Y0114196D01*
X0146223Y0114225D01*
X0146155Y0114257D01*
X0146090Y0114293D01*
X0146027Y0114331D01*
X0145965Y0114374D01*
X0145906Y0114419D01*
X0145849Y0114467D01*
X0145795Y0114518D01*
X0145744Y0114572D01*
X0145696Y0114629D01*
X0145651Y0114688D01*
X0145608Y0114750D01*
X0145570Y0114813D01*
X0145534Y0114878D01*
X0145502Y0114946D01*
X0145473Y0115014D01*
X0145449Y0115085D01*
X0145427Y0115156D01*
X0145410Y0115228D01*
X0145397Y0115302D01*
X0145387Y0115375D01*
X0145381Y0115450D01*
X0145379Y0115524D01*
X0145380Y0115524D02*
X0145382Y0115599D01*
X0145388Y0115674D01*
X0145397Y0115748D01*
X0145411Y0115822D01*
X0145428Y0115895D01*
X0145449Y0115967D01*
X0145474Y0116037D01*
X0145503Y0116107D01*
X0145535Y0116174D01*
X0145570Y0116240D01*
X0145609Y0116305D01*
X0145651Y0116367D01*
X0145697Y0116426D01*
X0145745Y0116484D01*
X0145796Y0116538D01*
X0145850Y0116590D01*
X0145907Y0116639D01*
X0145966Y0116685D01*
X0146027Y0116728D01*
X0146091Y0116768D01*
X0132512Y0120502D02*
X0129668Y0120502D01*
X0127179Y0120502D02*
X0124334Y0120502D01*
X0127179Y0120502D02*
X0127179Y0114102D01*
X0189203Y0115873D02*
X0191337Y0122273D01*
X0193470Y0115873D01*
X0192937Y0117473D02*
X0189737Y0117473D01*
X0195918Y0117651D02*
X0195918Y0120495D01*
X0195920Y0120577D01*
X0195926Y0120659D01*
X0195935Y0120741D01*
X0195948Y0120822D01*
X0195965Y0120902D01*
X0195986Y0120982D01*
X0196010Y0121060D01*
X0196038Y0121137D01*
X0196069Y0121213D01*
X0196104Y0121288D01*
X0196143Y0121360D01*
X0196184Y0121431D01*
X0196229Y0121500D01*
X0196277Y0121566D01*
X0196328Y0121631D01*
X0196382Y0121693D01*
X0196439Y0121752D01*
X0196498Y0121809D01*
X0196560Y0121863D01*
X0196625Y0121914D01*
X0196691Y0121962D01*
X0196760Y0122007D01*
X0196831Y0122048D01*
X0196903Y0122087D01*
X0196978Y0122122D01*
X0197054Y0122153D01*
X0197131Y0122181D01*
X0197209Y0122205D01*
X0197289Y0122226D01*
X0197369Y0122243D01*
X0197450Y0122256D01*
X0197532Y0122265D01*
X0197614Y0122271D01*
X0197696Y0122273D01*
X0199474Y0122273D01*
X0199474Y0115873D01*
X0197696Y0115873D01*
X0197614Y0115875D01*
X0197532Y0115881D01*
X0197450Y0115890D01*
X0197369Y0115903D01*
X0197289Y0115920D01*
X0197209Y0115941D01*
X0197131Y0115965D01*
X0197054Y0115993D01*
X0196978Y0116024D01*
X0196903Y0116059D01*
X0196831Y0116098D01*
X0196760Y0116139D01*
X0196691Y0116184D01*
X0196625Y0116232D01*
X0196560Y0116283D01*
X0196498Y0116337D01*
X0196439Y0116394D01*
X0196382Y0116453D01*
X0196328Y0116515D01*
X0196277Y0116580D01*
X0196229Y0116646D01*
X0196184Y0116715D01*
X0196143Y0116786D01*
X0196104Y0116858D01*
X0196069Y0116933D01*
X0196038Y0117009D01*
X0196010Y0117086D01*
X0195986Y0117164D01*
X0195965Y0117244D01*
X0195948Y0117324D01*
X0195935Y0117405D01*
X0195926Y0117487D01*
X0195920Y0117569D01*
X0195918Y0117651D01*
X0196303Y0111840D02*
X0194881Y0111840D01*
X0196303Y0111840D02*
X0196377Y0111838D01*
X0196452Y0111832D01*
X0196525Y0111822D01*
X0196599Y0111809D01*
X0196671Y0111792D01*
X0196742Y0111770D01*
X0196813Y0111746D01*
X0196881Y0111717D01*
X0196949Y0111685D01*
X0197014Y0111649D01*
X0197077Y0111611D01*
X0197139Y0111568D01*
X0197198Y0111523D01*
X0197255Y0111475D01*
X0197309Y0111424D01*
X0197360Y0111370D01*
X0197408Y0111313D01*
X0197453Y0111254D01*
X0197496Y0111192D01*
X0197534Y0111129D01*
X0197570Y0111064D01*
X0197602Y0110996D01*
X0197631Y0110928D01*
X0197655Y0110857D01*
X0197677Y0110786D01*
X0197694Y0110714D01*
X0197707Y0110640D01*
X0197717Y0110567D01*
X0197723Y0110492D01*
X0197725Y0110418D01*
X0197726Y0110418D02*
X0197726Y0106862D01*
X0197725Y0106862D02*
X0197723Y0106788D01*
X0197717Y0106713D01*
X0197707Y0106640D01*
X0197694Y0106566D01*
X0197677Y0106494D01*
X0197655Y0106423D01*
X0197631Y0106352D01*
X0197602Y0106284D01*
X0197570Y0106216D01*
X0197534Y0106151D01*
X0197496Y0106088D01*
X0197453Y0106026D01*
X0197408Y0105967D01*
X0197360Y0105910D01*
X0197309Y0105856D01*
X0197255Y0105805D01*
X0197198Y0105757D01*
X0197139Y0105712D01*
X0197077Y0105669D01*
X0197014Y0105631D01*
X0196949Y0105595D01*
X0196881Y0105563D01*
X0196813Y0105534D01*
X0196742Y0105510D01*
X0196671Y0105488D01*
X0196599Y0105471D01*
X0196525Y0105458D01*
X0196452Y0105448D01*
X0196377Y0105442D01*
X0196303Y0105440D01*
X0194881Y0105440D01*
X0192365Y0105440D02*
X0192365Y0111840D01*
X0192365Y0105440D02*
X0189521Y0105440D01*
X0200815Y0108107D02*
X0202770Y0109173D01*
X0202059Y0111841D02*
X0201958Y0111839D01*
X0201857Y0111833D01*
X0201757Y0111824D01*
X0201657Y0111810D01*
X0201557Y0111793D01*
X0201458Y0111773D01*
X0201361Y0111748D01*
X0201264Y0111720D01*
X0201168Y0111688D01*
X0201073Y0111652D01*
X0200980Y0111613D01*
X0200889Y0111571D01*
X0200799Y0111525D01*
X0200711Y0111475D01*
X0200625Y0111423D01*
X0200541Y0111367D01*
X0200459Y0111308D01*
X0202770Y0109174D02*
X0202834Y0109214D01*
X0202895Y0109257D01*
X0202954Y0109303D01*
X0203011Y0109352D01*
X0203065Y0109404D01*
X0203116Y0109458D01*
X0203164Y0109516D01*
X0203210Y0109575D01*
X0203252Y0109637D01*
X0203291Y0109702D01*
X0203326Y0109768D01*
X0203358Y0109835D01*
X0203387Y0109905D01*
X0203412Y0109975D01*
X0203433Y0110047D01*
X0203450Y0110120D01*
X0203464Y0110194D01*
X0203473Y0110268D01*
X0203479Y0110343D01*
X0203481Y0110418D01*
X0203479Y0110492D01*
X0203473Y0110567D01*
X0203463Y0110640D01*
X0203450Y0110714D01*
X0203433Y0110786D01*
X0203411Y0110857D01*
X0203387Y0110928D01*
X0203358Y0110996D01*
X0203326Y0111064D01*
X0203290Y0111129D01*
X0203252Y0111192D01*
X0203209Y0111254D01*
X0203164Y0111313D01*
X0203116Y0111370D01*
X0203065Y0111424D01*
X0203011Y0111475D01*
X0202954Y0111523D01*
X0202895Y0111568D01*
X0202833Y0111611D01*
X0202770Y0111649D01*
X0202705Y0111685D01*
X0202637Y0111717D01*
X0202569Y0111746D01*
X0202498Y0111770D01*
X0202427Y0111792D01*
X0202355Y0111809D01*
X0202281Y0111822D01*
X0202208Y0111832D01*
X0202133Y0111838D01*
X0202059Y0111840D01*
X0203659Y0106330D02*
X0203582Y0106255D01*
X0203502Y0106182D01*
X0203419Y0106113D01*
X0203334Y0106046D01*
X0203247Y0105983D01*
X0203158Y0105923D01*
X0203066Y0105866D01*
X0202973Y0105812D01*
X0202877Y0105762D01*
X0202780Y0105715D01*
X0202681Y0105672D01*
X0202581Y0105632D01*
X0202480Y0105596D01*
X0202377Y0105564D01*
X0202273Y0105535D01*
X0202168Y0105510D01*
X0202062Y0105489D01*
X0201956Y0105472D01*
X0201849Y0105458D01*
X0201741Y0105449D01*
X0201634Y0105443D01*
X0201526Y0105441D01*
X0201526Y0105440D02*
X0201452Y0105442D01*
X0201377Y0105448D01*
X0201304Y0105458D01*
X0201230Y0105471D01*
X0201158Y0105488D01*
X0201087Y0105510D01*
X0201016Y0105534D01*
X0200948Y0105563D01*
X0200880Y0105595D01*
X0200815Y0105631D01*
X0200752Y0105669D01*
X0200690Y0105712D01*
X0200631Y0105757D01*
X0200574Y0105805D01*
X0200520Y0105856D01*
X0200469Y0105910D01*
X0200421Y0105967D01*
X0200376Y0106026D01*
X0200333Y0106088D01*
X0200295Y0106151D01*
X0200259Y0106216D01*
X0200227Y0106284D01*
X0200198Y0106352D01*
X0200174Y0106423D01*
X0200152Y0106494D01*
X0200135Y0106566D01*
X0200122Y0106640D01*
X0200112Y0106713D01*
X0200106Y0106788D01*
X0200104Y0106862D01*
X0200106Y0106937D01*
X0200112Y0107012D01*
X0200121Y0107086D01*
X0200135Y0107160D01*
X0200152Y0107233D01*
X0200173Y0107305D01*
X0200198Y0107375D01*
X0200227Y0107445D01*
X0200259Y0107512D01*
X0200294Y0107578D01*
X0200333Y0107643D01*
X0200375Y0107705D01*
X0200421Y0107764D01*
X0200469Y0107822D01*
X0200520Y0107876D01*
X0200574Y0107928D01*
X0200631Y0107977D01*
X0200690Y0108023D01*
X0200751Y0108066D01*
X0200815Y0108106D01*
X0203494Y0115873D02*
X0203420Y0115875D01*
X0203345Y0115881D01*
X0203272Y0115891D01*
X0203198Y0115904D01*
X0203126Y0115921D01*
X0203055Y0115943D01*
X0202984Y0115967D01*
X0202916Y0115996D01*
X0202848Y0116028D01*
X0202783Y0116064D01*
X0202720Y0116102D01*
X0202658Y0116145D01*
X0202599Y0116190D01*
X0202542Y0116238D01*
X0202488Y0116289D01*
X0202437Y0116343D01*
X0202389Y0116400D01*
X0202344Y0116459D01*
X0202301Y0116521D01*
X0202263Y0116584D01*
X0202227Y0116649D01*
X0202195Y0116717D01*
X0202166Y0116785D01*
X0202142Y0116856D01*
X0202120Y0116927D01*
X0202103Y0116999D01*
X0202090Y0117073D01*
X0202080Y0117146D01*
X0202074Y0117221D01*
X0202072Y0117295D01*
X0202783Y0118540D02*
X0204739Y0119607D01*
X0204028Y0122274D02*
X0203927Y0122272D01*
X0203826Y0122266D01*
X0203726Y0122257D01*
X0203626Y0122243D01*
X0203526Y0122226D01*
X0203427Y0122206D01*
X0203330Y0122181D01*
X0203233Y0122153D01*
X0203137Y0122121D01*
X0203042Y0122085D01*
X0202949Y0122046D01*
X0202858Y0122004D01*
X0202768Y0121958D01*
X0202680Y0121908D01*
X0202594Y0121856D01*
X0202510Y0121800D01*
X0202428Y0121741D01*
X0204738Y0119607D02*
X0204802Y0119647D01*
X0204863Y0119690D01*
X0204922Y0119736D01*
X0204979Y0119785D01*
X0205033Y0119837D01*
X0205084Y0119891D01*
X0205132Y0119949D01*
X0205178Y0120008D01*
X0205220Y0120070D01*
X0205259Y0120135D01*
X0205294Y0120201D01*
X0205326Y0120268D01*
X0205355Y0120338D01*
X0205380Y0120408D01*
X0205401Y0120480D01*
X0205418Y0120553D01*
X0205432Y0120627D01*
X0205441Y0120701D01*
X0205447Y0120776D01*
X0205449Y0120851D01*
X0205450Y0120851D02*
X0205448Y0120925D01*
X0205442Y0121000D01*
X0205432Y0121073D01*
X0205419Y0121147D01*
X0205402Y0121219D01*
X0205380Y0121290D01*
X0205356Y0121361D01*
X0205327Y0121429D01*
X0205295Y0121497D01*
X0205259Y0121562D01*
X0205221Y0121625D01*
X0205178Y0121687D01*
X0205133Y0121746D01*
X0205085Y0121803D01*
X0205034Y0121857D01*
X0204980Y0121908D01*
X0204923Y0121956D01*
X0204864Y0122001D01*
X0204802Y0122044D01*
X0204739Y0122082D01*
X0204674Y0122118D01*
X0204606Y0122150D01*
X0204538Y0122179D01*
X0204467Y0122203D01*
X0204396Y0122225D01*
X0204324Y0122242D01*
X0204250Y0122255D01*
X0204177Y0122265D01*
X0204102Y0122271D01*
X0204028Y0122273D01*
X0205627Y0116763D02*
X0205550Y0116688D01*
X0205470Y0116615D01*
X0205387Y0116546D01*
X0205302Y0116479D01*
X0205215Y0116416D01*
X0205126Y0116356D01*
X0205034Y0116299D01*
X0204941Y0116245D01*
X0204845Y0116195D01*
X0204748Y0116148D01*
X0204649Y0116105D01*
X0204549Y0116065D01*
X0204448Y0116029D01*
X0204345Y0115997D01*
X0204241Y0115968D01*
X0204136Y0115943D01*
X0204030Y0115922D01*
X0203924Y0115905D01*
X0203817Y0115891D01*
X0203709Y0115882D01*
X0203602Y0115876D01*
X0203494Y0115874D01*
X0202072Y0117295D02*
X0202074Y0117370D01*
X0202080Y0117445D01*
X0202089Y0117519D01*
X0202103Y0117593D01*
X0202120Y0117666D01*
X0202141Y0117738D01*
X0202166Y0117808D01*
X0202195Y0117878D01*
X0202227Y0117945D01*
X0202262Y0118011D01*
X0202301Y0118076D01*
X0202343Y0118138D01*
X0202389Y0118197D01*
X0202437Y0118255D01*
X0202488Y0118309D01*
X0202542Y0118361D01*
X0202599Y0118410D01*
X0202658Y0118456D01*
X0202719Y0118499D01*
X0202783Y0118539D01*
X0254187Y0161060D02*
X0256142Y0162126D01*
X0255431Y0164793D02*
X0255330Y0164791D01*
X0255229Y0164785D01*
X0255129Y0164776D01*
X0255029Y0164762D01*
X0254929Y0164745D01*
X0254830Y0164725D01*
X0254733Y0164700D01*
X0254636Y0164672D01*
X0254540Y0164640D01*
X0254445Y0164604D01*
X0254352Y0164565D01*
X0254261Y0164523D01*
X0254171Y0164477D01*
X0254083Y0164427D01*
X0253997Y0164375D01*
X0253913Y0164319D01*
X0253831Y0164260D01*
X0256142Y0162127D02*
X0256206Y0162167D01*
X0256267Y0162210D01*
X0256326Y0162256D01*
X0256383Y0162305D01*
X0256437Y0162357D01*
X0256488Y0162411D01*
X0256536Y0162469D01*
X0256582Y0162528D01*
X0256624Y0162590D01*
X0256663Y0162655D01*
X0256698Y0162721D01*
X0256730Y0162788D01*
X0256759Y0162858D01*
X0256784Y0162928D01*
X0256805Y0163000D01*
X0256822Y0163073D01*
X0256836Y0163147D01*
X0256845Y0163221D01*
X0256851Y0163296D01*
X0256853Y0163371D01*
X0256851Y0163445D01*
X0256845Y0163520D01*
X0256835Y0163593D01*
X0256822Y0163667D01*
X0256805Y0163739D01*
X0256783Y0163810D01*
X0256759Y0163881D01*
X0256730Y0163949D01*
X0256698Y0164017D01*
X0256662Y0164082D01*
X0256624Y0164145D01*
X0256581Y0164207D01*
X0256536Y0164266D01*
X0256488Y0164323D01*
X0256437Y0164377D01*
X0256383Y0164428D01*
X0256326Y0164476D01*
X0256267Y0164521D01*
X0256205Y0164564D01*
X0256142Y0164602D01*
X0256077Y0164638D01*
X0256009Y0164670D01*
X0255941Y0164699D01*
X0255870Y0164723D01*
X0255799Y0164745D01*
X0255727Y0164762D01*
X0255653Y0164775D01*
X0255580Y0164785D01*
X0255505Y0164791D01*
X0255431Y0164793D01*
X0257031Y0159282D02*
X0256954Y0159207D01*
X0256874Y0159134D01*
X0256791Y0159065D01*
X0256706Y0158998D01*
X0256619Y0158935D01*
X0256530Y0158875D01*
X0256438Y0158818D01*
X0256345Y0158764D01*
X0256249Y0158714D01*
X0256152Y0158667D01*
X0256053Y0158624D01*
X0255953Y0158584D01*
X0255852Y0158548D01*
X0255749Y0158516D01*
X0255645Y0158487D01*
X0255540Y0158462D01*
X0255434Y0158441D01*
X0255328Y0158424D01*
X0255221Y0158410D01*
X0255113Y0158401D01*
X0255006Y0158395D01*
X0254898Y0158393D01*
X0254824Y0158395D01*
X0254749Y0158401D01*
X0254676Y0158411D01*
X0254602Y0158424D01*
X0254530Y0158441D01*
X0254459Y0158463D01*
X0254388Y0158487D01*
X0254320Y0158516D01*
X0254252Y0158548D01*
X0254187Y0158584D01*
X0254124Y0158622D01*
X0254062Y0158665D01*
X0254003Y0158710D01*
X0253946Y0158758D01*
X0253892Y0158809D01*
X0253841Y0158863D01*
X0253793Y0158920D01*
X0253748Y0158979D01*
X0253705Y0159041D01*
X0253667Y0159104D01*
X0253631Y0159169D01*
X0253599Y0159237D01*
X0253570Y0159305D01*
X0253546Y0159376D01*
X0253524Y0159447D01*
X0253507Y0159519D01*
X0253494Y0159593D01*
X0253484Y0159666D01*
X0253478Y0159741D01*
X0253476Y0159815D01*
X0253478Y0159890D01*
X0253484Y0159965D01*
X0253493Y0160039D01*
X0253507Y0160113D01*
X0253524Y0160186D01*
X0253545Y0160258D01*
X0253570Y0160328D01*
X0253599Y0160398D01*
X0253631Y0160465D01*
X0253666Y0160531D01*
X0253705Y0160596D01*
X0253747Y0160658D01*
X0253793Y0160717D01*
X0253841Y0160775D01*
X0253892Y0160829D01*
X0253946Y0160881D01*
X0254003Y0160930D01*
X0254062Y0160976D01*
X0254123Y0161019D01*
X0254187Y0161059D01*
X0259389Y0158393D02*
X0260811Y0161237D01*
X0261166Y0161237D02*
X0262944Y0161237D01*
X0261166Y0161237D02*
X0261083Y0161239D01*
X0261000Y0161245D01*
X0260917Y0161255D01*
X0260834Y0161268D01*
X0260753Y0161286D01*
X0260672Y0161307D01*
X0260593Y0161332D01*
X0260515Y0161361D01*
X0260438Y0161393D01*
X0260363Y0161429D01*
X0260289Y0161468D01*
X0260218Y0161511D01*
X0260148Y0161557D01*
X0260081Y0161607D01*
X0260016Y0161659D01*
X0259954Y0161714D01*
X0259894Y0161773D01*
X0259837Y0161834D01*
X0259783Y0161897D01*
X0259732Y0161963D01*
X0259685Y0162032D01*
X0259640Y0162102D01*
X0259599Y0162175D01*
X0259562Y0162249D01*
X0259527Y0162325D01*
X0259497Y0162403D01*
X0259470Y0162481D01*
X0259447Y0162562D01*
X0259427Y0162643D01*
X0259412Y0162725D01*
X0259400Y0162807D01*
X0259392Y0162890D01*
X0259388Y0162973D01*
X0259388Y0163057D01*
X0259392Y0163140D01*
X0259400Y0163223D01*
X0259412Y0163305D01*
X0259427Y0163387D01*
X0259447Y0163468D01*
X0259470Y0163549D01*
X0259497Y0163627D01*
X0259527Y0163705D01*
X0259562Y0163781D01*
X0259599Y0163855D01*
X0259640Y0163928D01*
X0259685Y0163998D01*
X0259732Y0164067D01*
X0259783Y0164133D01*
X0259837Y0164196D01*
X0259894Y0164257D01*
X0259954Y0164316D01*
X0260016Y0164371D01*
X0260081Y0164423D01*
X0260148Y0164473D01*
X0260218Y0164519D01*
X0260289Y0164562D01*
X0260363Y0164601D01*
X0260438Y0164637D01*
X0260515Y0164669D01*
X0260593Y0164698D01*
X0260672Y0164723D01*
X0260753Y0164744D01*
X0260834Y0164762D01*
X0260917Y0164775D01*
X0261000Y0164785D01*
X0261083Y0164791D01*
X0261166Y0164793D01*
X0262944Y0164793D01*
X0262944Y0158393D01*
X0265457Y0158393D02*
X0268302Y0158393D01*
X0268302Y0164793D01*
X0265457Y0164793D01*
X0266169Y0161948D02*
X0268302Y0161948D01*
X0270791Y0161948D02*
X0273635Y0161948D01*
X0276124Y0161948D02*
X0278969Y0161948D01*
X0278969Y0164793D02*
X0276124Y0164793D01*
X0273635Y0164793D02*
X0270791Y0164793D01*
X0273635Y0164793D02*
X0273635Y0158393D01*
X0278969Y0158393D02*
X0278969Y0164793D01*
X0281620Y0164793D02*
X0283042Y0164793D01*
X0282331Y0164793D02*
X0282331Y0158393D01*
X0283042Y0158393D02*
X0281620Y0158393D01*
X0285682Y0158393D02*
X0285682Y0164793D01*
X0289237Y0164793D02*
X0285682Y0158393D01*
X0289237Y0158393D02*
X0289237Y0164793D01*
X0294502Y0162127D02*
X0294566Y0162167D01*
X0294627Y0162210D01*
X0294686Y0162256D01*
X0294743Y0162305D01*
X0294797Y0162357D01*
X0294848Y0162411D01*
X0294896Y0162469D01*
X0294942Y0162528D01*
X0294984Y0162590D01*
X0295023Y0162655D01*
X0295058Y0162721D01*
X0295090Y0162788D01*
X0295119Y0162858D01*
X0295144Y0162928D01*
X0295165Y0163000D01*
X0295182Y0163073D01*
X0295196Y0163147D01*
X0295205Y0163221D01*
X0295211Y0163296D01*
X0295213Y0163371D01*
X0295211Y0163445D01*
X0295205Y0163520D01*
X0295195Y0163593D01*
X0295182Y0163667D01*
X0295165Y0163739D01*
X0295143Y0163810D01*
X0295119Y0163881D01*
X0295090Y0163949D01*
X0295058Y0164017D01*
X0295022Y0164082D01*
X0294984Y0164145D01*
X0294941Y0164207D01*
X0294896Y0164266D01*
X0294848Y0164323D01*
X0294797Y0164377D01*
X0294743Y0164428D01*
X0294686Y0164476D01*
X0294627Y0164521D01*
X0294565Y0164564D01*
X0294502Y0164602D01*
X0294437Y0164638D01*
X0294369Y0164670D01*
X0294301Y0164699D01*
X0294230Y0164723D01*
X0294159Y0164745D01*
X0294087Y0164762D01*
X0294013Y0164775D01*
X0293940Y0164785D01*
X0293865Y0164791D01*
X0293791Y0164793D01*
X0293690Y0164791D01*
X0293589Y0164785D01*
X0293489Y0164776D01*
X0293389Y0164762D01*
X0293289Y0164745D01*
X0293190Y0164725D01*
X0293093Y0164700D01*
X0292996Y0164672D01*
X0292900Y0164640D01*
X0292805Y0164604D01*
X0292712Y0164565D01*
X0292621Y0164523D01*
X0292531Y0164477D01*
X0292443Y0164427D01*
X0292357Y0164375D01*
X0292273Y0164319D01*
X0292191Y0164260D01*
X0295391Y0159282D02*
X0295314Y0159207D01*
X0295234Y0159134D01*
X0295151Y0159065D01*
X0295066Y0158998D01*
X0294979Y0158935D01*
X0294890Y0158875D01*
X0294798Y0158818D01*
X0294705Y0158764D01*
X0294609Y0158714D01*
X0294512Y0158667D01*
X0294413Y0158624D01*
X0294313Y0158584D01*
X0294212Y0158548D01*
X0294109Y0158516D01*
X0294005Y0158487D01*
X0293900Y0158462D01*
X0293794Y0158441D01*
X0293688Y0158424D01*
X0293581Y0158410D01*
X0293473Y0158401D01*
X0293366Y0158395D01*
X0293258Y0158393D01*
X0293184Y0158395D01*
X0293109Y0158401D01*
X0293036Y0158411D01*
X0292962Y0158424D01*
X0292890Y0158441D01*
X0292819Y0158463D01*
X0292748Y0158487D01*
X0292680Y0158516D01*
X0292612Y0158548D01*
X0292547Y0158584D01*
X0292484Y0158622D01*
X0292422Y0158665D01*
X0292363Y0158710D01*
X0292306Y0158758D01*
X0292252Y0158809D01*
X0292201Y0158863D01*
X0292153Y0158920D01*
X0292108Y0158979D01*
X0292065Y0159041D01*
X0292027Y0159104D01*
X0291991Y0159169D01*
X0291959Y0159237D01*
X0291930Y0159305D01*
X0291906Y0159376D01*
X0291884Y0159447D01*
X0291867Y0159519D01*
X0291854Y0159593D01*
X0291844Y0159666D01*
X0291838Y0159741D01*
X0291836Y0159815D01*
X0292547Y0161060D02*
X0294502Y0162126D01*
X0292547Y0161059D02*
X0292483Y0161019D01*
X0292422Y0160976D01*
X0292363Y0160930D01*
X0292306Y0160881D01*
X0292252Y0160829D01*
X0292201Y0160775D01*
X0292153Y0160717D01*
X0292107Y0160658D01*
X0292065Y0160596D01*
X0292026Y0160531D01*
X0291991Y0160465D01*
X0291959Y0160398D01*
X0291930Y0160328D01*
X0291905Y0160258D01*
X0291884Y0160186D01*
X0291867Y0160113D01*
X0291853Y0160039D01*
X0291844Y0159965D01*
X0291838Y0159890D01*
X0291836Y0159815D01*
X0291651Y0153572D02*
X0290229Y0153572D01*
X0290940Y0153572D02*
X0290940Y0147172D01*
X0291651Y0147172D02*
X0290229Y0147172D01*
X0287589Y0147172D02*
X0287589Y0153572D01*
X0284034Y0147172D01*
X0284034Y0153572D01*
X0281053Y0148772D02*
X0277853Y0148772D01*
X0277319Y0147172D02*
X0279453Y0153572D01*
X0281586Y0147172D01*
X0275076Y0147172D02*
X0271521Y0147172D01*
X0268922Y0147172D02*
X0265367Y0147172D01*
X0267145Y0147172D02*
X0267145Y0153572D01*
X0268922Y0152150D01*
X0272054Y0150728D02*
X0275076Y0147172D01*
X0275077Y0152150D02*
X0275048Y0152235D01*
X0275015Y0152317D01*
X0274978Y0152399D01*
X0274938Y0152479D01*
X0274895Y0152556D01*
X0274848Y0152632D01*
X0274798Y0152706D01*
X0274745Y0152778D01*
X0274689Y0152847D01*
X0274630Y0152914D01*
X0274568Y0152978D01*
X0274503Y0153039D01*
X0274436Y0153098D01*
X0274366Y0153153D01*
X0274294Y0153206D01*
X0274220Y0153255D01*
X0274143Y0153301D01*
X0274065Y0153343D01*
X0273985Y0153383D01*
X0273903Y0153418D01*
X0273820Y0153451D01*
X0273736Y0153479D01*
X0273650Y0153504D01*
X0273563Y0153525D01*
X0273476Y0153542D01*
X0273388Y0153556D01*
X0273299Y0153565D01*
X0273210Y0153571D01*
X0273121Y0153573D01*
X0273121Y0153572D02*
X0273042Y0153570D01*
X0272964Y0153564D01*
X0272886Y0153555D01*
X0272809Y0153541D01*
X0272732Y0153524D01*
X0272657Y0153503D01*
X0272582Y0153478D01*
X0272509Y0153450D01*
X0272437Y0153418D01*
X0272367Y0153383D01*
X0272298Y0153344D01*
X0272232Y0153302D01*
X0272168Y0153257D01*
X0272106Y0153209D01*
X0272047Y0153158D01*
X0271990Y0153103D01*
X0271935Y0153046D01*
X0271884Y0152987D01*
X0271836Y0152925D01*
X0271791Y0152861D01*
X0271749Y0152795D01*
X0271710Y0152726D01*
X0271675Y0152656D01*
X0271643Y0152584D01*
X0271615Y0152511D01*
X0271590Y0152436D01*
X0271569Y0152361D01*
X0271552Y0152284D01*
X0271538Y0152207D01*
X0271529Y0152129D01*
X0271523Y0152051D01*
X0271521Y0151972D01*
X0271520Y0151972D02*
X0271522Y0151890D01*
X0271528Y0151808D01*
X0271538Y0151727D01*
X0271551Y0151646D01*
X0271569Y0151566D01*
X0271590Y0151487D01*
X0271615Y0151409D01*
X0271643Y0151333D01*
X0271676Y0151257D01*
X0271711Y0151184D01*
X0271751Y0151112D01*
X0271793Y0151042D01*
X0271839Y0150974D01*
X0271888Y0150909D01*
X0271940Y0150846D01*
X0271996Y0150785D01*
X0272053Y0150727D01*
X0262768Y0151439D02*
X0262768Y0151795D01*
X0262768Y0151439D02*
X0262766Y0151365D01*
X0262760Y0151290D01*
X0262750Y0151217D01*
X0262737Y0151143D01*
X0262720Y0151071D01*
X0262698Y0151000D01*
X0262674Y0150929D01*
X0262645Y0150861D01*
X0262613Y0150793D01*
X0262577Y0150728D01*
X0262539Y0150665D01*
X0262496Y0150603D01*
X0262451Y0150544D01*
X0262403Y0150487D01*
X0262352Y0150433D01*
X0262298Y0150382D01*
X0262241Y0150334D01*
X0262182Y0150289D01*
X0262120Y0150246D01*
X0262057Y0150208D01*
X0261992Y0150172D01*
X0261924Y0150140D01*
X0261856Y0150111D01*
X0261785Y0150087D01*
X0261714Y0150065D01*
X0261642Y0150048D01*
X0261568Y0150035D01*
X0261495Y0150025D01*
X0261420Y0150019D01*
X0261346Y0150017D01*
X0259213Y0150017D01*
X0259213Y0151795D01*
X0259212Y0151795D02*
X0259214Y0151878D01*
X0259220Y0151961D01*
X0259230Y0152044D01*
X0259243Y0152127D01*
X0259261Y0152208D01*
X0259282Y0152289D01*
X0259307Y0152368D01*
X0259336Y0152446D01*
X0259368Y0152523D01*
X0259404Y0152598D01*
X0259443Y0152672D01*
X0259486Y0152743D01*
X0259532Y0152813D01*
X0259582Y0152880D01*
X0259634Y0152945D01*
X0259689Y0153007D01*
X0259748Y0153067D01*
X0259809Y0153124D01*
X0259872Y0153178D01*
X0259938Y0153229D01*
X0260007Y0153276D01*
X0260077Y0153321D01*
X0260150Y0153362D01*
X0260224Y0153399D01*
X0260300Y0153434D01*
X0260378Y0153464D01*
X0260456Y0153491D01*
X0260537Y0153514D01*
X0260618Y0153534D01*
X0260700Y0153549D01*
X0260782Y0153561D01*
X0260865Y0153569D01*
X0260948Y0153573D01*
X0261032Y0153573D01*
X0261115Y0153569D01*
X0261198Y0153561D01*
X0261280Y0153549D01*
X0261362Y0153534D01*
X0261443Y0153514D01*
X0261524Y0153491D01*
X0261602Y0153464D01*
X0261680Y0153434D01*
X0261756Y0153399D01*
X0261830Y0153362D01*
X0261903Y0153321D01*
X0261973Y0153276D01*
X0262042Y0153229D01*
X0262108Y0153178D01*
X0262171Y0153124D01*
X0262232Y0153067D01*
X0262291Y0153007D01*
X0262346Y0152945D01*
X0262398Y0152880D01*
X0262448Y0152813D01*
X0262494Y0152743D01*
X0262537Y0152672D01*
X0262576Y0152598D01*
X0262612Y0152523D01*
X0262644Y0152446D01*
X0262673Y0152368D01*
X0262698Y0152289D01*
X0262719Y0152208D01*
X0262737Y0152127D01*
X0262750Y0152044D01*
X0262760Y0151961D01*
X0262766Y0151878D01*
X0262768Y0151795D01*
X0259213Y0150017D02*
X0259215Y0149913D01*
X0259221Y0149809D01*
X0259230Y0149706D01*
X0259243Y0149603D01*
X0259260Y0149500D01*
X0259281Y0149399D01*
X0259305Y0149298D01*
X0259334Y0149198D01*
X0259365Y0149099D01*
X0259401Y0149001D01*
X0259440Y0148905D01*
X0259482Y0148810D01*
X0259528Y0148717D01*
X0259577Y0148625D01*
X0259629Y0148535D01*
X0259685Y0148448D01*
X0259744Y0148362D01*
X0259806Y0148279D01*
X0259871Y0148198D01*
X0259939Y0148119D01*
X0260010Y0148043D01*
X0260083Y0147970D01*
X0260159Y0147899D01*
X0260238Y0147831D01*
X0260319Y0147766D01*
X0260402Y0147704D01*
X0260488Y0147645D01*
X0260575Y0147589D01*
X0260665Y0147537D01*
X0260757Y0147488D01*
X0260850Y0147442D01*
X0260945Y0147400D01*
X0261041Y0147361D01*
X0261139Y0147325D01*
X0261238Y0147294D01*
X0261338Y0147265D01*
X0261439Y0147241D01*
X0261540Y0147220D01*
X0261643Y0147203D01*
X0261746Y0147190D01*
X0261849Y0147181D01*
X0261953Y0147175D01*
X0262057Y0147173D01*
X0261459Y0198550D02*
X0258615Y0198550D01*
X0261459Y0198550D02*
X0261459Y0204950D01*
X0263976Y0204950D02*
X0265398Y0204950D01*
X0265472Y0204948D01*
X0265547Y0204942D01*
X0265620Y0204932D01*
X0265694Y0204919D01*
X0265766Y0204902D01*
X0265837Y0204880D01*
X0265908Y0204856D01*
X0265976Y0204827D01*
X0266044Y0204795D01*
X0266109Y0204759D01*
X0266172Y0204721D01*
X0266234Y0204678D01*
X0266293Y0204633D01*
X0266350Y0204585D01*
X0266404Y0204534D01*
X0266455Y0204480D01*
X0266503Y0204423D01*
X0266548Y0204364D01*
X0266591Y0204302D01*
X0266629Y0204239D01*
X0266665Y0204174D01*
X0266697Y0204106D01*
X0266726Y0204038D01*
X0266750Y0203967D01*
X0266772Y0203896D01*
X0266789Y0203824D01*
X0266802Y0203750D01*
X0266812Y0203677D01*
X0266818Y0203602D01*
X0266820Y0203528D01*
X0266820Y0199973D01*
X0266818Y0199899D01*
X0266812Y0199824D01*
X0266802Y0199751D01*
X0266789Y0199677D01*
X0266772Y0199605D01*
X0266750Y0199534D01*
X0266726Y0199463D01*
X0266697Y0199395D01*
X0266665Y0199327D01*
X0266629Y0199262D01*
X0266591Y0199199D01*
X0266548Y0199137D01*
X0266503Y0199078D01*
X0266455Y0199021D01*
X0266404Y0198967D01*
X0266350Y0198916D01*
X0266293Y0198868D01*
X0266234Y0198823D01*
X0266172Y0198780D01*
X0266109Y0198742D01*
X0266044Y0198706D01*
X0265976Y0198674D01*
X0265908Y0198645D01*
X0265837Y0198621D01*
X0265766Y0198599D01*
X0265694Y0198582D01*
X0265620Y0198569D01*
X0265547Y0198559D01*
X0265472Y0198553D01*
X0265398Y0198551D01*
X0265398Y0198550D02*
X0263976Y0198550D01*
X0269909Y0201217D02*
X0271865Y0202284D01*
X0271154Y0204951D02*
X0271053Y0204949D01*
X0270952Y0204943D01*
X0270852Y0204934D01*
X0270752Y0204920D01*
X0270652Y0204903D01*
X0270553Y0204883D01*
X0270456Y0204858D01*
X0270359Y0204830D01*
X0270263Y0204798D01*
X0270168Y0204762D01*
X0270075Y0204723D01*
X0269984Y0204681D01*
X0269894Y0204635D01*
X0269806Y0204585D01*
X0269720Y0204533D01*
X0269636Y0204477D01*
X0269554Y0204418D01*
X0271864Y0202284D02*
X0271928Y0202324D01*
X0271989Y0202367D01*
X0272048Y0202413D01*
X0272105Y0202462D01*
X0272159Y0202514D01*
X0272210Y0202568D01*
X0272258Y0202626D01*
X0272304Y0202685D01*
X0272346Y0202747D01*
X0272385Y0202812D01*
X0272420Y0202878D01*
X0272452Y0202945D01*
X0272481Y0203015D01*
X0272506Y0203085D01*
X0272527Y0203157D01*
X0272544Y0203230D01*
X0272558Y0203304D01*
X0272567Y0203378D01*
X0272573Y0203453D01*
X0272575Y0203528D01*
X0272576Y0203528D02*
X0272574Y0203602D01*
X0272568Y0203677D01*
X0272558Y0203750D01*
X0272545Y0203824D01*
X0272528Y0203896D01*
X0272506Y0203967D01*
X0272482Y0204038D01*
X0272453Y0204106D01*
X0272421Y0204174D01*
X0272385Y0204239D01*
X0272347Y0204302D01*
X0272304Y0204364D01*
X0272259Y0204423D01*
X0272211Y0204480D01*
X0272160Y0204534D01*
X0272106Y0204585D01*
X0272049Y0204633D01*
X0271990Y0204678D01*
X0271928Y0204721D01*
X0271865Y0204759D01*
X0271800Y0204795D01*
X0271732Y0204827D01*
X0271664Y0204856D01*
X0271593Y0204880D01*
X0271522Y0204902D01*
X0271450Y0204919D01*
X0271376Y0204932D01*
X0271303Y0204942D01*
X0271228Y0204948D01*
X0271154Y0204950D01*
X0272753Y0199440D02*
X0272676Y0199365D01*
X0272596Y0199292D01*
X0272513Y0199223D01*
X0272428Y0199156D01*
X0272341Y0199093D01*
X0272252Y0199033D01*
X0272160Y0198976D01*
X0272067Y0198922D01*
X0271971Y0198872D01*
X0271874Y0198825D01*
X0271775Y0198782D01*
X0271675Y0198742D01*
X0271574Y0198706D01*
X0271471Y0198674D01*
X0271367Y0198645D01*
X0271262Y0198620D01*
X0271156Y0198599D01*
X0271050Y0198582D01*
X0270943Y0198568D01*
X0270835Y0198559D01*
X0270728Y0198553D01*
X0270620Y0198551D01*
X0270546Y0198553D01*
X0270471Y0198559D01*
X0270398Y0198569D01*
X0270324Y0198582D01*
X0270252Y0198599D01*
X0270181Y0198621D01*
X0270110Y0198645D01*
X0270042Y0198674D01*
X0269974Y0198706D01*
X0269909Y0198742D01*
X0269846Y0198780D01*
X0269784Y0198823D01*
X0269725Y0198868D01*
X0269668Y0198916D01*
X0269614Y0198967D01*
X0269563Y0199021D01*
X0269515Y0199078D01*
X0269470Y0199137D01*
X0269427Y0199199D01*
X0269389Y0199262D01*
X0269353Y0199327D01*
X0269321Y0199395D01*
X0269292Y0199463D01*
X0269268Y0199534D01*
X0269246Y0199605D01*
X0269229Y0199677D01*
X0269216Y0199751D01*
X0269206Y0199824D01*
X0269200Y0199899D01*
X0269198Y0199973D01*
X0269200Y0200048D01*
X0269206Y0200123D01*
X0269215Y0200197D01*
X0269229Y0200271D01*
X0269246Y0200344D01*
X0269267Y0200416D01*
X0269292Y0200486D01*
X0269321Y0200556D01*
X0269353Y0200623D01*
X0269388Y0200689D01*
X0269427Y0200754D01*
X0269469Y0200816D01*
X0269515Y0200875D01*
X0269563Y0200933D01*
X0269614Y0200987D01*
X0269668Y0201039D01*
X0269725Y0201088D01*
X0269784Y0201134D01*
X0269845Y0201177D01*
X0269909Y0201217D01*
X0279361Y0199141D02*
X0281494Y0205541D01*
X0283627Y0199141D01*
X0283094Y0200741D02*
X0279894Y0200741D01*
X0286075Y0200919D02*
X0286075Y0203763D01*
X0286077Y0203845D01*
X0286083Y0203927D01*
X0286092Y0204009D01*
X0286105Y0204090D01*
X0286122Y0204170D01*
X0286143Y0204250D01*
X0286167Y0204328D01*
X0286195Y0204405D01*
X0286226Y0204481D01*
X0286261Y0204556D01*
X0286300Y0204628D01*
X0286341Y0204699D01*
X0286386Y0204768D01*
X0286434Y0204834D01*
X0286485Y0204899D01*
X0286539Y0204961D01*
X0286596Y0205020D01*
X0286655Y0205077D01*
X0286717Y0205131D01*
X0286782Y0205182D01*
X0286848Y0205230D01*
X0286917Y0205275D01*
X0286988Y0205316D01*
X0287060Y0205355D01*
X0287135Y0205390D01*
X0287211Y0205421D01*
X0287288Y0205449D01*
X0287366Y0205473D01*
X0287446Y0205494D01*
X0287526Y0205511D01*
X0287607Y0205524D01*
X0287689Y0205533D01*
X0287771Y0205539D01*
X0287853Y0205541D01*
X0289631Y0205541D01*
X0289631Y0199141D01*
X0287853Y0199141D01*
X0287771Y0199143D01*
X0287689Y0199149D01*
X0287607Y0199158D01*
X0287526Y0199171D01*
X0287446Y0199188D01*
X0287366Y0199209D01*
X0287288Y0199233D01*
X0287211Y0199261D01*
X0287135Y0199292D01*
X0287060Y0199327D01*
X0286988Y0199366D01*
X0286917Y0199407D01*
X0286848Y0199452D01*
X0286782Y0199500D01*
X0286717Y0199551D01*
X0286655Y0199605D01*
X0286596Y0199662D01*
X0286539Y0199721D01*
X0286485Y0199783D01*
X0286434Y0199848D01*
X0286386Y0199914D01*
X0286341Y0199983D01*
X0286300Y0200054D01*
X0286261Y0200126D01*
X0286226Y0200201D01*
X0286195Y0200277D01*
X0286167Y0200354D01*
X0286143Y0200432D01*
X0286122Y0200512D01*
X0286105Y0200592D01*
X0286092Y0200673D01*
X0286083Y0200755D01*
X0286077Y0200837D01*
X0286075Y0200919D01*
X0292941Y0201808D02*
X0294896Y0202874D01*
X0294185Y0205541D02*
X0294084Y0205539D01*
X0293983Y0205533D01*
X0293883Y0205524D01*
X0293783Y0205510D01*
X0293683Y0205493D01*
X0293584Y0205473D01*
X0293487Y0205448D01*
X0293390Y0205420D01*
X0293294Y0205388D01*
X0293199Y0205352D01*
X0293106Y0205313D01*
X0293015Y0205271D01*
X0292925Y0205225D01*
X0292837Y0205175D01*
X0292751Y0205123D01*
X0292667Y0205067D01*
X0292585Y0205008D01*
X0294896Y0202875D02*
X0294960Y0202915D01*
X0295021Y0202958D01*
X0295080Y0203004D01*
X0295137Y0203053D01*
X0295191Y0203105D01*
X0295242Y0203159D01*
X0295290Y0203217D01*
X0295336Y0203276D01*
X0295378Y0203338D01*
X0295417Y0203403D01*
X0295452Y0203469D01*
X0295484Y0203536D01*
X0295513Y0203606D01*
X0295538Y0203676D01*
X0295559Y0203748D01*
X0295576Y0203821D01*
X0295590Y0203895D01*
X0295599Y0203969D01*
X0295605Y0204044D01*
X0295607Y0204119D01*
X0295605Y0204193D01*
X0295599Y0204268D01*
X0295589Y0204341D01*
X0295576Y0204415D01*
X0295559Y0204487D01*
X0295537Y0204558D01*
X0295513Y0204629D01*
X0295484Y0204697D01*
X0295452Y0204765D01*
X0295416Y0204830D01*
X0295378Y0204893D01*
X0295335Y0204955D01*
X0295290Y0205014D01*
X0295242Y0205071D01*
X0295191Y0205125D01*
X0295137Y0205176D01*
X0295080Y0205224D01*
X0295021Y0205269D01*
X0294959Y0205312D01*
X0294896Y0205350D01*
X0294831Y0205386D01*
X0294763Y0205418D01*
X0294695Y0205447D01*
X0294624Y0205471D01*
X0294553Y0205493D01*
X0294481Y0205510D01*
X0294407Y0205523D01*
X0294334Y0205533D01*
X0294259Y0205539D01*
X0294185Y0205541D01*
X0295785Y0200030D02*
X0295708Y0199955D01*
X0295628Y0199882D01*
X0295545Y0199813D01*
X0295460Y0199746D01*
X0295373Y0199683D01*
X0295284Y0199623D01*
X0295192Y0199566D01*
X0295099Y0199512D01*
X0295003Y0199462D01*
X0294906Y0199415D01*
X0294807Y0199372D01*
X0294707Y0199332D01*
X0294606Y0199296D01*
X0294503Y0199264D01*
X0294399Y0199235D01*
X0294294Y0199210D01*
X0294188Y0199189D01*
X0294082Y0199172D01*
X0293975Y0199158D01*
X0293867Y0199149D01*
X0293760Y0199143D01*
X0293652Y0199141D01*
X0293578Y0199143D01*
X0293503Y0199149D01*
X0293430Y0199159D01*
X0293356Y0199172D01*
X0293284Y0199189D01*
X0293213Y0199211D01*
X0293142Y0199235D01*
X0293074Y0199264D01*
X0293006Y0199296D01*
X0292941Y0199332D01*
X0292878Y0199370D01*
X0292816Y0199413D01*
X0292757Y0199458D01*
X0292700Y0199506D01*
X0292646Y0199557D01*
X0292595Y0199611D01*
X0292547Y0199668D01*
X0292502Y0199727D01*
X0292459Y0199789D01*
X0292421Y0199852D01*
X0292385Y0199917D01*
X0292353Y0199985D01*
X0292324Y0200053D01*
X0292300Y0200124D01*
X0292278Y0200195D01*
X0292261Y0200267D01*
X0292248Y0200341D01*
X0292238Y0200414D01*
X0292232Y0200489D01*
X0292230Y0200563D01*
X0292232Y0200638D01*
X0292238Y0200713D01*
X0292247Y0200787D01*
X0292261Y0200861D01*
X0292278Y0200934D01*
X0292299Y0201006D01*
X0292324Y0201076D01*
X0292353Y0201146D01*
X0292385Y0201213D01*
X0292420Y0201279D01*
X0292459Y0201344D01*
X0292501Y0201406D01*
X0292547Y0201465D01*
X0292595Y0201523D01*
X0292646Y0201577D01*
X0292700Y0201629D01*
X0292757Y0201678D01*
X0292816Y0201724D01*
X0292877Y0201767D01*
X0292941Y0201807D01*
X0125293Y0206031D02*
X0125293Y0207808D01*
X0125293Y0206031D02*
X0118893Y0206031D01*
X0121737Y0206031D02*
X0121737Y0207808D01*
X0121737Y0208164D02*
X0118893Y0209586D01*
X0118893Y0212366D02*
X0125293Y0212366D01*
X0125293Y0215210D01*
X0125293Y0217742D02*
X0121737Y0219875D01*
X0125293Y0222009D01*
X0118893Y0222009D01*
X0120671Y0224867D02*
X0123515Y0224867D01*
X0123598Y0224869D01*
X0123681Y0224875D01*
X0123764Y0224885D01*
X0123847Y0224898D01*
X0123928Y0224916D01*
X0124009Y0224937D01*
X0124088Y0224962D01*
X0124166Y0224991D01*
X0124243Y0225023D01*
X0124318Y0225059D01*
X0124392Y0225098D01*
X0124463Y0225141D01*
X0124533Y0225187D01*
X0124600Y0225237D01*
X0124665Y0225289D01*
X0124727Y0225344D01*
X0124787Y0225403D01*
X0124844Y0225464D01*
X0124898Y0225527D01*
X0124949Y0225593D01*
X0124996Y0225662D01*
X0125041Y0225732D01*
X0125082Y0225805D01*
X0125119Y0225879D01*
X0125154Y0225955D01*
X0125184Y0226033D01*
X0125211Y0226111D01*
X0125234Y0226192D01*
X0125254Y0226273D01*
X0125269Y0226355D01*
X0125281Y0226437D01*
X0125289Y0226520D01*
X0125293Y0226603D01*
X0125293Y0226687D01*
X0125289Y0226770D01*
X0125281Y0226853D01*
X0125269Y0226935D01*
X0125254Y0227017D01*
X0125234Y0227098D01*
X0125211Y0227179D01*
X0125184Y0227257D01*
X0125154Y0227335D01*
X0125119Y0227411D01*
X0125082Y0227485D01*
X0125041Y0227558D01*
X0124996Y0227628D01*
X0124949Y0227697D01*
X0124898Y0227763D01*
X0124844Y0227826D01*
X0124787Y0227887D01*
X0124727Y0227946D01*
X0124665Y0228001D01*
X0124600Y0228053D01*
X0124533Y0228103D01*
X0124463Y0228149D01*
X0124392Y0228192D01*
X0124318Y0228231D01*
X0124243Y0228267D01*
X0124166Y0228299D01*
X0124088Y0228328D01*
X0124009Y0228353D01*
X0123928Y0228374D01*
X0123847Y0228392D01*
X0123764Y0228405D01*
X0123681Y0228415D01*
X0123598Y0228421D01*
X0123515Y0228423D01*
X0120671Y0228423D01*
X0120588Y0228421D01*
X0120505Y0228415D01*
X0120422Y0228405D01*
X0120339Y0228392D01*
X0120258Y0228374D01*
X0120177Y0228353D01*
X0120098Y0228328D01*
X0120020Y0228299D01*
X0119943Y0228267D01*
X0119868Y0228231D01*
X0119794Y0228192D01*
X0119723Y0228149D01*
X0119653Y0228103D01*
X0119586Y0228053D01*
X0119521Y0228001D01*
X0119459Y0227946D01*
X0119399Y0227887D01*
X0119342Y0227826D01*
X0119288Y0227763D01*
X0119237Y0227697D01*
X0119190Y0227628D01*
X0119145Y0227558D01*
X0119104Y0227485D01*
X0119067Y0227411D01*
X0119032Y0227335D01*
X0119002Y0227257D01*
X0118975Y0227179D01*
X0118952Y0227098D01*
X0118932Y0227017D01*
X0118917Y0226935D01*
X0118905Y0226853D01*
X0118897Y0226770D01*
X0118893Y0226687D01*
X0118893Y0226603D01*
X0118897Y0226520D01*
X0118905Y0226437D01*
X0118917Y0226355D01*
X0118932Y0226273D01*
X0118952Y0226192D01*
X0118975Y0226111D01*
X0119002Y0226033D01*
X0119032Y0225955D01*
X0119067Y0225879D01*
X0119104Y0225805D01*
X0119145Y0225732D01*
X0119190Y0225662D01*
X0119237Y0225593D01*
X0119288Y0225527D01*
X0119342Y0225464D01*
X0119399Y0225403D01*
X0119459Y0225344D01*
X0119521Y0225289D01*
X0119586Y0225237D01*
X0119653Y0225187D01*
X0119723Y0225141D01*
X0119794Y0225098D01*
X0119868Y0225059D01*
X0119943Y0225023D01*
X0120020Y0224991D01*
X0120098Y0224962D01*
X0120177Y0224937D01*
X0120258Y0224916D01*
X0120339Y0224898D01*
X0120422Y0224885D01*
X0120505Y0224875D01*
X0120588Y0224869D01*
X0120671Y0224867D01*
X0125293Y0230665D02*
X0118893Y0232799D01*
X0125293Y0234932D01*
X0125293Y0237392D02*
X0118893Y0237392D01*
X0118893Y0240236D01*
X0122448Y0239525D02*
X0122448Y0237392D01*
X0125293Y0237392D02*
X0125293Y0240236D01*
X0125293Y0246079D02*
X0118893Y0246079D01*
X0118893Y0247857D01*
X0118895Y0247940D01*
X0118901Y0248023D01*
X0118911Y0248106D01*
X0118924Y0248189D01*
X0118942Y0248270D01*
X0118963Y0248351D01*
X0118988Y0248430D01*
X0119017Y0248508D01*
X0119049Y0248585D01*
X0119085Y0248660D01*
X0119124Y0248734D01*
X0119167Y0248805D01*
X0119213Y0248875D01*
X0119263Y0248942D01*
X0119315Y0249007D01*
X0119370Y0249069D01*
X0119429Y0249129D01*
X0119490Y0249186D01*
X0119553Y0249240D01*
X0119619Y0249291D01*
X0119688Y0249338D01*
X0119758Y0249383D01*
X0119831Y0249424D01*
X0119905Y0249461D01*
X0119981Y0249496D01*
X0120059Y0249526D01*
X0120137Y0249553D01*
X0120218Y0249576D01*
X0120299Y0249596D01*
X0120381Y0249611D01*
X0120463Y0249623D01*
X0120546Y0249631D01*
X0120629Y0249635D01*
X0120713Y0249635D01*
X0120796Y0249631D01*
X0120879Y0249623D01*
X0120961Y0249611D01*
X0121043Y0249596D01*
X0121124Y0249576D01*
X0121205Y0249553D01*
X0121283Y0249526D01*
X0121361Y0249496D01*
X0121437Y0249461D01*
X0121511Y0249424D01*
X0121584Y0249383D01*
X0121654Y0249338D01*
X0121723Y0249291D01*
X0121789Y0249240D01*
X0121852Y0249186D01*
X0121913Y0249129D01*
X0121972Y0249069D01*
X0122027Y0249007D01*
X0122079Y0248942D01*
X0122129Y0248875D01*
X0122175Y0248805D01*
X0122218Y0248734D01*
X0122257Y0248660D01*
X0122293Y0248585D01*
X0122325Y0248508D01*
X0122354Y0248430D01*
X0122379Y0248351D01*
X0122400Y0248270D01*
X0122418Y0248189D01*
X0122431Y0248106D01*
X0122441Y0248023D01*
X0122447Y0247940D01*
X0122449Y0247857D01*
X0122448Y0247857D02*
X0122448Y0246079D01*
X0122449Y0247857D02*
X0122451Y0247931D01*
X0122457Y0248006D01*
X0122467Y0248079D01*
X0122480Y0248153D01*
X0122497Y0248225D01*
X0122519Y0248296D01*
X0122543Y0248367D01*
X0122572Y0248435D01*
X0122604Y0248503D01*
X0122640Y0248568D01*
X0122678Y0248631D01*
X0122721Y0248693D01*
X0122766Y0248752D01*
X0122814Y0248809D01*
X0122865Y0248863D01*
X0122919Y0248914D01*
X0122976Y0248962D01*
X0123035Y0249007D01*
X0123097Y0249050D01*
X0123160Y0249088D01*
X0123225Y0249124D01*
X0123293Y0249156D01*
X0123361Y0249185D01*
X0123432Y0249209D01*
X0123503Y0249231D01*
X0123575Y0249248D01*
X0123649Y0249261D01*
X0123722Y0249271D01*
X0123797Y0249277D01*
X0123871Y0249279D01*
X0123945Y0249277D01*
X0124020Y0249271D01*
X0124093Y0249261D01*
X0124167Y0249248D01*
X0124239Y0249231D01*
X0124310Y0249209D01*
X0124381Y0249185D01*
X0124449Y0249156D01*
X0124517Y0249124D01*
X0124582Y0249088D01*
X0124645Y0249050D01*
X0124707Y0249007D01*
X0124766Y0248962D01*
X0124823Y0248914D01*
X0124877Y0248863D01*
X0124928Y0248809D01*
X0124976Y0248752D01*
X0125021Y0248693D01*
X0125064Y0248631D01*
X0125102Y0248568D01*
X0125138Y0248503D01*
X0125170Y0248435D01*
X0125199Y0248367D01*
X0125223Y0248296D01*
X0125245Y0248225D01*
X0125262Y0248153D01*
X0125275Y0248079D01*
X0125285Y0248006D01*
X0125291Y0247931D01*
X0125293Y0247857D01*
X0125293Y0246079D01*
X0125293Y0252162D02*
X0118893Y0252162D01*
X0118893Y0255006D01*
X0118893Y0257495D02*
X0125293Y0257495D01*
X0125293Y0260340D01*
X0122448Y0260340D02*
X0122448Y0257495D01*
X0122448Y0254295D02*
X0122448Y0252162D01*
X0125293Y0252162D02*
X0125293Y0255006D01*
X0123515Y0262612D02*
X0120671Y0262612D01*
X0120671Y0262611D02*
X0120588Y0262613D01*
X0120505Y0262619D01*
X0120422Y0262629D01*
X0120339Y0262642D01*
X0120258Y0262660D01*
X0120177Y0262681D01*
X0120098Y0262706D01*
X0120020Y0262735D01*
X0119943Y0262767D01*
X0119868Y0262803D01*
X0119794Y0262842D01*
X0119723Y0262885D01*
X0119653Y0262931D01*
X0119586Y0262981D01*
X0119521Y0263033D01*
X0119459Y0263088D01*
X0119399Y0263147D01*
X0119342Y0263208D01*
X0119288Y0263271D01*
X0119237Y0263337D01*
X0119190Y0263406D01*
X0119145Y0263476D01*
X0119104Y0263549D01*
X0119067Y0263623D01*
X0119032Y0263699D01*
X0119002Y0263777D01*
X0118975Y0263855D01*
X0118952Y0263936D01*
X0118932Y0264017D01*
X0118917Y0264099D01*
X0118905Y0264181D01*
X0118897Y0264264D01*
X0118893Y0264347D01*
X0118893Y0264431D01*
X0118897Y0264514D01*
X0118905Y0264597D01*
X0118917Y0264679D01*
X0118932Y0264761D01*
X0118952Y0264842D01*
X0118975Y0264923D01*
X0119002Y0265001D01*
X0119032Y0265079D01*
X0119067Y0265155D01*
X0119104Y0265229D01*
X0119145Y0265302D01*
X0119190Y0265372D01*
X0119237Y0265441D01*
X0119288Y0265507D01*
X0119342Y0265570D01*
X0119399Y0265631D01*
X0119459Y0265690D01*
X0119521Y0265745D01*
X0119586Y0265797D01*
X0119653Y0265847D01*
X0119723Y0265893D01*
X0119794Y0265936D01*
X0119868Y0265975D01*
X0119943Y0266011D01*
X0120020Y0266043D01*
X0120098Y0266072D01*
X0120177Y0266097D01*
X0120258Y0266118D01*
X0120339Y0266136D01*
X0120422Y0266149D01*
X0120505Y0266159D01*
X0120588Y0266165D01*
X0120671Y0266167D01*
X0123515Y0266167D01*
X0123598Y0266165D01*
X0123681Y0266159D01*
X0123764Y0266149D01*
X0123847Y0266136D01*
X0123928Y0266118D01*
X0124009Y0266097D01*
X0124088Y0266072D01*
X0124166Y0266043D01*
X0124243Y0266011D01*
X0124318Y0265975D01*
X0124392Y0265936D01*
X0124463Y0265893D01*
X0124533Y0265847D01*
X0124600Y0265797D01*
X0124665Y0265745D01*
X0124727Y0265690D01*
X0124787Y0265631D01*
X0124844Y0265570D01*
X0124898Y0265507D01*
X0124949Y0265441D01*
X0124996Y0265372D01*
X0125041Y0265302D01*
X0125082Y0265229D01*
X0125119Y0265155D01*
X0125154Y0265079D01*
X0125184Y0265001D01*
X0125211Y0264923D01*
X0125234Y0264842D01*
X0125254Y0264761D01*
X0125269Y0264679D01*
X0125281Y0264597D01*
X0125289Y0264514D01*
X0125293Y0264431D01*
X0125293Y0264347D01*
X0125289Y0264264D01*
X0125281Y0264181D01*
X0125269Y0264099D01*
X0125254Y0264017D01*
X0125234Y0263936D01*
X0125211Y0263855D01*
X0125184Y0263777D01*
X0125154Y0263699D01*
X0125119Y0263623D01*
X0125082Y0263549D01*
X0125041Y0263476D01*
X0124996Y0263406D01*
X0124949Y0263337D01*
X0124898Y0263271D01*
X0124844Y0263208D01*
X0124787Y0263147D01*
X0124727Y0263088D01*
X0124665Y0263033D01*
X0124600Y0262981D01*
X0124533Y0262931D01*
X0124463Y0262885D01*
X0124392Y0262842D01*
X0124318Y0262803D01*
X0124243Y0262767D01*
X0124166Y0262735D01*
X0124088Y0262706D01*
X0124009Y0262681D01*
X0123928Y0262660D01*
X0123847Y0262642D01*
X0123764Y0262629D01*
X0123681Y0262619D01*
X0123598Y0262613D01*
X0123515Y0262611D01*
X0121737Y0269007D02*
X0121737Y0270785D01*
X0121737Y0271140D02*
X0118893Y0272562D01*
X0118893Y0275342D02*
X0125293Y0275342D01*
X0125293Y0278186D01*
X0122448Y0277475D02*
X0122448Y0275342D01*
X0118893Y0275342D02*
X0118893Y0278186D01*
X0121737Y0270785D02*
X0121739Y0270868D01*
X0121745Y0270951D01*
X0121755Y0271034D01*
X0121768Y0271117D01*
X0121786Y0271198D01*
X0121807Y0271279D01*
X0121832Y0271358D01*
X0121861Y0271436D01*
X0121893Y0271513D01*
X0121929Y0271588D01*
X0121968Y0271662D01*
X0122011Y0271733D01*
X0122057Y0271803D01*
X0122107Y0271870D01*
X0122159Y0271935D01*
X0122214Y0271997D01*
X0122273Y0272057D01*
X0122334Y0272114D01*
X0122397Y0272168D01*
X0122463Y0272219D01*
X0122532Y0272266D01*
X0122602Y0272311D01*
X0122675Y0272352D01*
X0122749Y0272389D01*
X0122825Y0272424D01*
X0122903Y0272454D01*
X0122981Y0272481D01*
X0123062Y0272504D01*
X0123143Y0272524D01*
X0123225Y0272539D01*
X0123307Y0272551D01*
X0123390Y0272559D01*
X0123473Y0272563D01*
X0123557Y0272563D01*
X0123640Y0272559D01*
X0123723Y0272551D01*
X0123805Y0272539D01*
X0123887Y0272524D01*
X0123968Y0272504D01*
X0124049Y0272481D01*
X0124127Y0272454D01*
X0124205Y0272424D01*
X0124281Y0272389D01*
X0124355Y0272352D01*
X0124428Y0272311D01*
X0124498Y0272266D01*
X0124567Y0272219D01*
X0124633Y0272168D01*
X0124696Y0272114D01*
X0124757Y0272057D01*
X0124816Y0271997D01*
X0124871Y0271935D01*
X0124923Y0271870D01*
X0124973Y0271803D01*
X0125019Y0271733D01*
X0125062Y0271662D01*
X0125101Y0271588D01*
X0125137Y0271513D01*
X0125169Y0271436D01*
X0125198Y0271358D01*
X0125223Y0271279D01*
X0125244Y0271198D01*
X0125262Y0271117D01*
X0125275Y0271034D01*
X0125285Y0270951D01*
X0125291Y0270868D01*
X0125293Y0270785D01*
X0125293Y0269007D01*
X0118893Y0269007D01*
X0114793Y0257437D02*
X0114793Y0253882D01*
X0114793Y0255659D02*
X0108393Y0255659D01*
X0108393Y0251488D02*
X0114793Y0251488D01*
X0111948Y0251488D02*
X0111948Y0247933D01*
X0114793Y0247933D02*
X0108393Y0247933D01*
X0108393Y0244924D02*
X0108393Y0242791D01*
X0108395Y0242717D01*
X0108401Y0242642D01*
X0108411Y0242569D01*
X0108424Y0242495D01*
X0108441Y0242423D01*
X0108463Y0242352D01*
X0108487Y0242281D01*
X0108516Y0242213D01*
X0108548Y0242145D01*
X0108584Y0242080D01*
X0108622Y0242017D01*
X0108665Y0241955D01*
X0108710Y0241896D01*
X0108758Y0241839D01*
X0108809Y0241785D01*
X0108863Y0241734D01*
X0108920Y0241686D01*
X0108979Y0241641D01*
X0109041Y0241598D01*
X0109104Y0241560D01*
X0109169Y0241524D01*
X0109237Y0241492D01*
X0109305Y0241463D01*
X0109376Y0241439D01*
X0109447Y0241417D01*
X0109519Y0241400D01*
X0109593Y0241387D01*
X0109666Y0241377D01*
X0109741Y0241371D01*
X0109815Y0241369D01*
X0109815Y0241368D02*
X0113371Y0241368D01*
X0113371Y0241369D02*
X0113445Y0241371D01*
X0113520Y0241377D01*
X0113593Y0241387D01*
X0113667Y0241400D01*
X0113739Y0241417D01*
X0113810Y0241439D01*
X0113881Y0241463D01*
X0113949Y0241492D01*
X0114017Y0241524D01*
X0114082Y0241560D01*
X0114145Y0241598D01*
X0114207Y0241641D01*
X0114266Y0241686D01*
X0114322Y0241734D01*
X0114377Y0241785D01*
X0114428Y0241839D01*
X0114476Y0241896D01*
X0114521Y0241955D01*
X0114564Y0242017D01*
X0114602Y0242080D01*
X0114638Y0242145D01*
X0114670Y0242213D01*
X0114699Y0242281D01*
X0114723Y0242352D01*
X0114745Y0242423D01*
X0114762Y0242495D01*
X0114775Y0242569D01*
X0114785Y0242642D01*
X0114791Y0242717D01*
X0114793Y0242791D01*
X0114793Y0244924D01*
X0111948Y0244924D02*
X0108393Y0244924D01*
X0111948Y0244924D02*
X0111948Y0243857D01*
X0114793Y0238729D02*
X0114793Y0237307D01*
X0114793Y0238018D02*
X0108393Y0238018D01*
X0108393Y0237307D02*
X0108393Y0238729D01*
X0108393Y0235199D02*
X0108393Y0232354D01*
X0114793Y0232354D01*
X0114793Y0229865D02*
X0114793Y0227021D01*
X0108393Y0227021D01*
X0111948Y0227021D02*
X0111948Y0229865D01*
X0118893Y0217742D02*
X0125293Y0217742D01*
X0122448Y0214499D02*
X0122448Y0212366D01*
X0118893Y0212366D02*
X0118893Y0215210D01*
X0121737Y0207808D02*
X0121739Y0207891D01*
X0121745Y0207974D01*
X0121755Y0208057D01*
X0121768Y0208140D01*
X0121786Y0208221D01*
X0121807Y0208302D01*
X0121832Y0208381D01*
X0121861Y0208459D01*
X0121893Y0208536D01*
X0121929Y0208611D01*
X0121968Y0208685D01*
X0122011Y0208756D01*
X0122057Y0208826D01*
X0122107Y0208893D01*
X0122159Y0208958D01*
X0122214Y0209020D01*
X0122273Y0209080D01*
X0122334Y0209137D01*
X0122397Y0209191D01*
X0122463Y0209242D01*
X0122532Y0209289D01*
X0122602Y0209334D01*
X0122675Y0209375D01*
X0122749Y0209412D01*
X0122825Y0209447D01*
X0122903Y0209477D01*
X0122981Y0209504D01*
X0123062Y0209527D01*
X0123143Y0209547D01*
X0123225Y0209562D01*
X0123307Y0209574D01*
X0123390Y0209582D01*
X0123473Y0209586D01*
X0123557Y0209586D01*
X0123640Y0209582D01*
X0123723Y0209574D01*
X0123805Y0209562D01*
X0123887Y0209547D01*
X0123968Y0209527D01*
X0124049Y0209504D01*
X0124127Y0209477D01*
X0124205Y0209447D01*
X0124281Y0209412D01*
X0124355Y0209375D01*
X0124428Y0209334D01*
X0124498Y0209289D01*
X0124567Y0209242D01*
X0124633Y0209191D01*
X0124696Y0209137D01*
X0124757Y0209080D01*
X0124816Y0209020D01*
X0124871Y0208958D01*
X0124923Y0208893D01*
X0124973Y0208826D01*
X0125019Y0208756D01*
X0125062Y0208685D01*
X0125101Y0208611D01*
X0125137Y0208536D01*
X0125169Y0208459D01*
X0125198Y0208381D01*
X0125223Y0208302D01*
X0125244Y0208221D01*
X0125262Y0208140D01*
X0125275Y0208057D01*
X0125285Y0207974D01*
X0125291Y0207891D01*
X0125293Y0207808D01*
D11*
X0171479Y0209077D02*
X0171479Y0165967D01*
X0248644Y0165967D01*
X0248644Y0209077D01*
X0248447Y0209077D02*
X0171479Y0209077D01*
X0203565Y0195101D02*
X0206124Y0192542D01*
X0206321Y0192542D01*
X0206518Y0192542D01*
X0208683Y0194707D01*
X0206321Y0192542D02*
X0206321Y0201006D01*
X0213802Y0195101D02*
X0216361Y0192542D01*
X0216557Y0192542D01*
X0216754Y0192542D01*
X0226006Y0219904D01*
X0228369Y0213605D02*
X0216557Y0192542D01*
X0221872Y0190573D02*
X0211243Y0190573D01*
X0211243Y0169510D01*
X0201203Y0169510D01*
X0201203Y0190573D01*
X0211243Y0190573D01*
X0221872Y0190573D02*
X0221872Y0179943D01*
X0232699Y0179943D01*
X0232699Y0179746D02*
X0232699Y0169313D01*
X0211439Y0169313D01*
X0211243Y0169313D01*
X0211243Y0169510D01*
X0211439Y0169510D01*
X0211439Y0179550D01*
X0211439Y0169510D02*
X0211439Y0169313D01*
X0206912Y0139589D02*
X0206912Y0101203D01*
X0105534Y0101203D01*
X0105534Y0139589D01*
X0206912Y0139589D01*
X0186046Y0124825D02*
X0165770Y0124825D01*
X0165770Y0113802D01*
X0165967Y0113802D01*
X0186046Y0113802D01*
X0186046Y0103172D01*
X0165967Y0103172D01*
X0165967Y0113802D01*
X0186046Y0113802D02*
X0186046Y0124628D01*
X0251991Y0155928D02*
X0299628Y0155928D01*
X0299628Y0209077D01*
X0251991Y0209077D01*
X0251991Y0155928D01*
X0264195Y0177384D02*
X0274628Y0177384D01*
X0274628Y0197266D01*
X0264195Y0197266D01*
X0264195Y0177384D01*
X0274628Y0177384D02*
X0274628Y0177187D01*
X0285455Y0177187D01*
X0285455Y0197266D01*
X0274628Y0197266D01*
X0275731Y0275573D02*
X0255849Y0275573D01*
X0255849Y0286006D01*
X0275731Y0286006D01*
X0275731Y0275573D01*
X0275731Y0286046D02*
X0275731Y0296479D01*
X0255849Y0296479D01*
X0255849Y0286046D01*
X0275731Y0286046D01*
D12*
X0248247Y0207381D02*
X0246714Y0204826D01*
X0245181Y0207381D01*
X0245181Y0202781D01*
X0248247Y0202781D02*
X0248247Y0207381D01*
X0242553Y0205464D02*
X0241147Y0204698D01*
X0241658Y0202782D02*
X0241748Y0202784D01*
X0241837Y0202789D01*
X0241926Y0202799D01*
X0242015Y0202812D01*
X0242103Y0202828D01*
X0242191Y0202849D01*
X0242277Y0202873D01*
X0242363Y0202900D01*
X0242447Y0202931D01*
X0242530Y0202966D01*
X0242611Y0203004D01*
X0242691Y0203045D01*
X0242768Y0203089D01*
X0242844Y0203137D01*
X0242918Y0203188D01*
X0242990Y0203242D01*
X0243060Y0203299D01*
X0243127Y0203358D01*
X0243191Y0203421D01*
X0241147Y0204697D02*
X0241093Y0204663D01*
X0241042Y0204626D01*
X0240993Y0204586D01*
X0240946Y0204543D01*
X0240903Y0204497D01*
X0240862Y0204449D01*
X0240824Y0204398D01*
X0240789Y0204345D01*
X0240757Y0204290D01*
X0240729Y0204233D01*
X0240705Y0204175D01*
X0240684Y0204115D01*
X0240667Y0204054D01*
X0240653Y0203992D01*
X0240644Y0203929D01*
X0240638Y0203866D01*
X0240636Y0203803D01*
X0240638Y0203741D01*
X0240643Y0203680D01*
X0240653Y0203619D01*
X0240666Y0203558D01*
X0240682Y0203499D01*
X0240702Y0203441D01*
X0240726Y0203384D01*
X0240753Y0203328D01*
X0240783Y0203274D01*
X0240817Y0203222D01*
X0240853Y0203173D01*
X0240893Y0203125D01*
X0240935Y0203080D01*
X0240980Y0203038D01*
X0241028Y0202998D01*
X0241077Y0202962D01*
X0241129Y0202928D01*
X0241183Y0202898D01*
X0241239Y0202871D01*
X0241296Y0202847D01*
X0241354Y0202827D01*
X0241413Y0202811D01*
X0241474Y0202798D01*
X0241535Y0202788D01*
X0241596Y0202783D01*
X0241658Y0202781D01*
X0240892Y0206998D02*
X0240959Y0207046D01*
X0241027Y0207091D01*
X0241098Y0207133D01*
X0241171Y0207171D01*
X0241245Y0207207D01*
X0241320Y0207240D01*
X0241397Y0207269D01*
X0241475Y0207295D01*
X0241554Y0207318D01*
X0241634Y0207337D01*
X0241715Y0207353D01*
X0241796Y0207365D01*
X0241878Y0207374D01*
X0241960Y0207379D01*
X0242042Y0207381D01*
X0242104Y0207379D01*
X0242165Y0207374D01*
X0242226Y0207364D01*
X0242287Y0207351D01*
X0242346Y0207335D01*
X0242404Y0207315D01*
X0242461Y0207291D01*
X0242517Y0207264D01*
X0242571Y0207234D01*
X0242623Y0207200D01*
X0242672Y0207164D01*
X0242720Y0207124D01*
X0242765Y0207082D01*
X0242807Y0207037D01*
X0242847Y0206989D01*
X0242883Y0206940D01*
X0242917Y0206888D01*
X0242947Y0206834D01*
X0242974Y0206778D01*
X0242998Y0206721D01*
X0243018Y0206663D01*
X0243034Y0206604D01*
X0243047Y0206543D01*
X0243057Y0206482D01*
X0243062Y0206421D01*
X0243064Y0206359D01*
X0243062Y0206296D01*
X0243056Y0206233D01*
X0243047Y0206170D01*
X0243033Y0206108D01*
X0243016Y0206047D01*
X0242995Y0205987D01*
X0242971Y0205929D01*
X0242943Y0205872D01*
X0242911Y0205817D01*
X0242876Y0205764D01*
X0242838Y0205713D01*
X0242797Y0205665D01*
X0242754Y0205619D01*
X0242707Y0205576D01*
X0242658Y0205536D01*
X0242607Y0205499D01*
X0242553Y0205465D01*
X0238625Y0204826D02*
X0237347Y0204826D01*
X0237347Y0204825D02*
X0237277Y0204827D01*
X0237206Y0204833D01*
X0237137Y0204842D01*
X0237068Y0204856D01*
X0236999Y0204873D01*
X0236932Y0204894D01*
X0236866Y0204919D01*
X0236802Y0204947D01*
X0236739Y0204979D01*
X0236678Y0205014D01*
X0236619Y0205053D01*
X0236562Y0205094D01*
X0236508Y0205139D01*
X0236456Y0205187D01*
X0236407Y0205237D01*
X0236360Y0205291D01*
X0236317Y0205346D01*
X0236277Y0205404D01*
X0236240Y0205464D01*
X0236207Y0205526D01*
X0236177Y0205590D01*
X0236150Y0205655D01*
X0236127Y0205721D01*
X0236108Y0205789D01*
X0236093Y0205858D01*
X0236081Y0205927D01*
X0236073Y0205997D01*
X0236069Y0206068D01*
X0236069Y0206138D01*
X0236073Y0206209D01*
X0236081Y0206279D01*
X0236093Y0206348D01*
X0236108Y0206417D01*
X0236127Y0206485D01*
X0236150Y0206551D01*
X0236177Y0206616D01*
X0236207Y0206680D01*
X0236240Y0206742D01*
X0236277Y0206802D01*
X0236317Y0206860D01*
X0236360Y0206915D01*
X0236407Y0206969D01*
X0236456Y0207019D01*
X0236508Y0207067D01*
X0236562Y0207112D01*
X0236619Y0207153D01*
X0236678Y0207192D01*
X0236739Y0207227D01*
X0236802Y0207259D01*
X0236866Y0207287D01*
X0236932Y0207312D01*
X0236999Y0207333D01*
X0237068Y0207350D01*
X0237137Y0207364D01*
X0237206Y0207373D01*
X0237277Y0207379D01*
X0237347Y0207381D01*
X0238625Y0207381D01*
X0238625Y0202781D01*
X0231955Y0203803D02*
X0231955Y0206359D01*
X0231953Y0206421D01*
X0231948Y0206482D01*
X0231938Y0206543D01*
X0231925Y0206604D01*
X0231909Y0206663D01*
X0231889Y0206721D01*
X0231865Y0206778D01*
X0231838Y0206834D01*
X0231808Y0206888D01*
X0231774Y0206940D01*
X0231738Y0206989D01*
X0231698Y0207037D01*
X0231656Y0207082D01*
X0231611Y0207124D01*
X0231563Y0207164D01*
X0231514Y0207200D01*
X0231462Y0207234D01*
X0231408Y0207264D01*
X0231352Y0207291D01*
X0231295Y0207315D01*
X0231237Y0207335D01*
X0231178Y0207351D01*
X0231117Y0207364D01*
X0231056Y0207374D01*
X0230995Y0207379D01*
X0230933Y0207381D01*
X0229910Y0207381D01*
X0228236Y0204826D02*
X0228236Y0203803D01*
X0228234Y0203740D01*
X0228228Y0203677D01*
X0228219Y0203615D01*
X0228205Y0203554D01*
X0228188Y0203493D01*
X0228167Y0203434D01*
X0228142Y0203376D01*
X0228114Y0203319D01*
X0228083Y0203265D01*
X0228048Y0203213D01*
X0228010Y0203162D01*
X0227969Y0203114D01*
X0227925Y0203069D01*
X0227879Y0203027D01*
X0227830Y0202987D01*
X0227779Y0202951D01*
X0227725Y0202918D01*
X0227670Y0202888D01*
X0227612Y0202862D01*
X0227554Y0202839D01*
X0227494Y0202820D01*
X0227433Y0202805D01*
X0227371Y0202793D01*
X0227308Y0202785D01*
X0227245Y0202781D01*
X0227183Y0202781D01*
X0227120Y0202785D01*
X0227057Y0202793D01*
X0226995Y0202805D01*
X0226934Y0202820D01*
X0226874Y0202839D01*
X0226816Y0202862D01*
X0226758Y0202888D01*
X0226703Y0202918D01*
X0226649Y0202951D01*
X0226598Y0202987D01*
X0226549Y0203027D01*
X0226503Y0203069D01*
X0226459Y0203114D01*
X0226418Y0203162D01*
X0226380Y0203213D01*
X0226345Y0203265D01*
X0226314Y0203319D01*
X0226286Y0203376D01*
X0226261Y0203434D01*
X0226240Y0203493D01*
X0226223Y0203554D01*
X0226209Y0203615D01*
X0226200Y0203677D01*
X0226194Y0203740D01*
X0226192Y0203803D01*
X0226192Y0204826D01*
X0226194Y0204889D01*
X0226200Y0204952D01*
X0226209Y0205014D01*
X0226223Y0205075D01*
X0226240Y0205136D01*
X0226261Y0205195D01*
X0226286Y0205253D01*
X0226314Y0205310D01*
X0226345Y0205364D01*
X0226380Y0205416D01*
X0226418Y0205467D01*
X0226459Y0205515D01*
X0226503Y0205560D01*
X0226549Y0205602D01*
X0226598Y0205642D01*
X0226649Y0205678D01*
X0226703Y0205711D01*
X0226758Y0205741D01*
X0226816Y0205767D01*
X0226874Y0205790D01*
X0226934Y0205809D01*
X0226995Y0205824D01*
X0227057Y0205836D01*
X0227120Y0205844D01*
X0227183Y0205848D01*
X0227245Y0205848D01*
X0227308Y0205844D01*
X0227371Y0205836D01*
X0227433Y0205824D01*
X0227494Y0205809D01*
X0227554Y0205790D01*
X0227612Y0205767D01*
X0227670Y0205741D01*
X0227725Y0205711D01*
X0227779Y0205678D01*
X0227830Y0205642D01*
X0227879Y0205602D01*
X0227925Y0205560D01*
X0227969Y0205515D01*
X0228010Y0205467D01*
X0228048Y0205416D01*
X0228083Y0205364D01*
X0228114Y0205310D01*
X0228142Y0205253D01*
X0228167Y0205195D01*
X0228188Y0205136D01*
X0228205Y0205075D01*
X0228219Y0205014D01*
X0228228Y0204952D01*
X0228234Y0204889D01*
X0228236Y0204826D01*
X0229910Y0202781D02*
X0230933Y0202781D01*
X0230995Y0202783D01*
X0231056Y0202788D01*
X0231117Y0202798D01*
X0231178Y0202811D01*
X0231237Y0202827D01*
X0231295Y0202847D01*
X0231352Y0202871D01*
X0231408Y0202898D01*
X0231462Y0202928D01*
X0231514Y0202962D01*
X0231563Y0202998D01*
X0231611Y0203038D01*
X0231656Y0203080D01*
X0231698Y0203125D01*
X0231738Y0203173D01*
X0231774Y0203222D01*
X0231808Y0203274D01*
X0231838Y0203328D01*
X0231865Y0203384D01*
X0231889Y0203441D01*
X0231909Y0203499D01*
X0231925Y0203558D01*
X0231938Y0203619D01*
X0231948Y0203680D01*
X0231953Y0203741D01*
X0231955Y0203803D01*
X0224186Y0202781D02*
X0224186Y0205848D01*
X0222908Y0205848D01*
X0222853Y0205846D01*
X0222799Y0205840D01*
X0222745Y0205830D01*
X0222692Y0205817D01*
X0222640Y0205800D01*
X0222589Y0205779D01*
X0222540Y0205754D01*
X0222493Y0205726D01*
X0222448Y0205695D01*
X0222406Y0205661D01*
X0222366Y0205623D01*
X0222328Y0205583D01*
X0222294Y0205541D01*
X0222263Y0205496D01*
X0222235Y0205449D01*
X0222210Y0205400D01*
X0222189Y0205349D01*
X0222172Y0205297D01*
X0222159Y0205244D01*
X0222149Y0205190D01*
X0222143Y0205136D01*
X0222141Y0205081D01*
X0222142Y0205081D02*
X0222142Y0202781D01*
X0220006Y0203548D02*
X0220006Y0207381D01*
X0220517Y0205848D02*
X0218984Y0205848D01*
X0217110Y0205848D02*
X0217110Y0202781D01*
X0218984Y0202781D02*
X0219239Y0202781D01*
X0219294Y0202783D01*
X0219348Y0202789D01*
X0219402Y0202799D01*
X0219455Y0202812D01*
X0219507Y0202829D01*
X0219558Y0202850D01*
X0219607Y0202875D01*
X0219654Y0202903D01*
X0219699Y0202934D01*
X0219741Y0202968D01*
X0219781Y0203006D01*
X0219819Y0203046D01*
X0219853Y0203088D01*
X0219884Y0203133D01*
X0219912Y0203180D01*
X0219937Y0203229D01*
X0219958Y0203280D01*
X0219975Y0203332D01*
X0219988Y0203385D01*
X0219998Y0203439D01*
X0220004Y0203493D01*
X0220006Y0203548D01*
X0217110Y0205848D02*
X0215577Y0205848D01*
X0215577Y0205337D01*
X0214136Y0204826D02*
X0214136Y0203803D01*
X0214134Y0203740D01*
X0214128Y0203677D01*
X0214119Y0203615D01*
X0214105Y0203554D01*
X0214088Y0203493D01*
X0214067Y0203434D01*
X0214042Y0203376D01*
X0214014Y0203319D01*
X0213983Y0203265D01*
X0213948Y0203213D01*
X0213910Y0203162D01*
X0213869Y0203114D01*
X0213825Y0203069D01*
X0213779Y0203027D01*
X0213730Y0202987D01*
X0213679Y0202951D01*
X0213625Y0202918D01*
X0213570Y0202888D01*
X0213512Y0202862D01*
X0213454Y0202839D01*
X0213394Y0202820D01*
X0213333Y0202805D01*
X0213271Y0202793D01*
X0213208Y0202785D01*
X0213145Y0202781D01*
X0213083Y0202781D01*
X0213020Y0202785D01*
X0212957Y0202793D01*
X0212895Y0202805D01*
X0212834Y0202820D01*
X0212774Y0202839D01*
X0212716Y0202862D01*
X0212658Y0202888D01*
X0212603Y0202918D01*
X0212549Y0202951D01*
X0212498Y0202987D01*
X0212449Y0203027D01*
X0212403Y0203069D01*
X0212359Y0203114D01*
X0212318Y0203162D01*
X0212280Y0203213D01*
X0212245Y0203265D01*
X0212214Y0203319D01*
X0212186Y0203376D01*
X0212161Y0203434D01*
X0212140Y0203493D01*
X0212123Y0203554D01*
X0212109Y0203615D01*
X0212100Y0203677D01*
X0212094Y0203740D01*
X0212092Y0203803D01*
X0212092Y0204826D01*
X0212094Y0204889D01*
X0212100Y0204952D01*
X0212109Y0205014D01*
X0212123Y0205075D01*
X0212140Y0205136D01*
X0212161Y0205195D01*
X0212186Y0205253D01*
X0212214Y0205310D01*
X0212245Y0205364D01*
X0212280Y0205416D01*
X0212318Y0205467D01*
X0212359Y0205515D01*
X0212403Y0205560D01*
X0212449Y0205602D01*
X0212498Y0205642D01*
X0212549Y0205678D01*
X0212603Y0205711D01*
X0212658Y0205741D01*
X0212716Y0205767D01*
X0212774Y0205790D01*
X0212834Y0205809D01*
X0212895Y0205824D01*
X0212957Y0205836D01*
X0213020Y0205844D01*
X0213083Y0205848D01*
X0213145Y0205848D01*
X0213208Y0205844D01*
X0213271Y0205836D01*
X0213333Y0205824D01*
X0213394Y0205809D01*
X0213454Y0205790D01*
X0213512Y0205767D01*
X0213570Y0205741D01*
X0213625Y0205711D01*
X0213679Y0205678D01*
X0213730Y0205642D01*
X0213779Y0205602D01*
X0213825Y0205560D01*
X0213869Y0205515D01*
X0213910Y0205467D01*
X0213948Y0205416D01*
X0213983Y0205364D01*
X0214014Y0205310D01*
X0214042Y0205253D01*
X0214067Y0205195D01*
X0214088Y0205136D01*
X0214105Y0205075D01*
X0214119Y0205014D01*
X0214128Y0204952D01*
X0214134Y0204889D01*
X0214136Y0204826D01*
X0210177Y0203548D02*
X0210177Y0207381D01*
X0207106Y0207578D02*
X0207106Y0202978D01*
X0205828Y0202978D01*
X0205759Y0202980D01*
X0205690Y0202985D01*
X0205621Y0202995D01*
X0205553Y0203008D01*
X0205486Y0203025D01*
X0205420Y0203045D01*
X0205355Y0203069D01*
X0205291Y0203096D01*
X0205229Y0203127D01*
X0205169Y0203161D01*
X0205111Y0203198D01*
X0205055Y0203239D01*
X0205001Y0203282D01*
X0204949Y0203328D01*
X0204900Y0203377D01*
X0204854Y0203429D01*
X0204811Y0203483D01*
X0204770Y0203539D01*
X0204733Y0203597D01*
X0204699Y0203657D01*
X0204668Y0203719D01*
X0204641Y0203783D01*
X0204617Y0203848D01*
X0204597Y0203914D01*
X0204580Y0203981D01*
X0204567Y0204049D01*
X0204557Y0204118D01*
X0204552Y0204187D01*
X0204550Y0204256D01*
X0204550Y0206300D01*
X0204552Y0206369D01*
X0204557Y0206438D01*
X0204567Y0206507D01*
X0204580Y0206575D01*
X0204597Y0206642D01*
X0204617Y0206708D01*
X0204641Y0206773D01*
X0204668Y0206837D01*
X0204699Y0206899D01*
X0204733Y0206959D01*
X0204770Y0207017D01*
X0204811Y0207073D01*
X0204854Y0207127D01*
X0204900Y0207179D01*
X0204949Y0207228D01*
X0205001Y0207274D01*
X0205055Y0207317D01*
X0205111Y0207358D01*
X0205169Y0207395D01*
X0205229Y0207429D01*
X0205291Y0207460D01*
X0205355Y0207487D01*
X0205420Y0207511D01*
X0205486Y0207531D01*
X0205553Y0207548D01*
X0205621Y0207561D01*
X0205690Y0207571D01*
X0205759Y0207576D01*
X0205828Y0207578D01*
X0207106Y0207578D01*
X0202656Y0207578D02*
X0202400Y0207578D01*
X0202400Y0207322D01*
X0202656Y0207322D01*
X0202656Y0207578D01*
X0202528Y0206045D02*
X0202528Y0202978D01*
X0200062Y0206045D02*
X0199963Y0206042D01*
X0199864Y0206035D01*
X0199766Y0206025D01*
X0199668Y0206012D01*
X0199570Y0205996D01*
X0199473Y0205976D01*
X0199377Y0205953D01*
X0199282Y0205926D01*
X0199188Y0205897D01*
X0199095Y0205864D01*
X0199002Y0205828D01*
X0198912Y0205789D01*
X0200062Y0206045D02*
X0200113Y0206044D01*
X0200163Y0206039D01*
X0200214Y0206029D01*
X0200263Y0206017D01*
X0200311Y0206000D01*
X0200358Y0205979D01*
X0200404Y0205956D01*
X0200447Y0205928D01*
X0200488Y0205898D01*
X0200526Y0205864D01*
X0200562Y0205828D01*
X0200595Y0205788D01*
X0200625Y0205747D01*
X0200651Y0205703D01*
X0200674Y0205658D01*
X0200693Y0205610D01*
X0200709Y0205562D01*
X0200721Y0205512D01*
X0200729Y0205462D01*
X0200733Y0205411D01*
X0200734Y0205360D01*
X0200730Y0205309D01*
X0200722Y0205258D01*
X0200711Y0205208D01*
X0200696Y0205159D01*
X0200677Y0205112D01*
X0200654Y0205066D01*
X0200628Y0205022D01*
X0200599Y0204980D01*
X0200566Y0204941D01*
X0200531Y0204904D01*
X0200492Y0204870D01*
X0200452Y0204839D01*
X0200409Y0204812D01*
X0200364Y0204787D01*
X0200317Y0204766D01*
X0200317Y0204767D02*
X0199039Y0204256D01*
X0198992Y0204235D01*
X0198947Y0204210D01*
X0198904Y0204183D01*
X0198864Y0204152D01*
X0198825Y0204118D01*
X0198790Y0204081D01*
X0198757Y0204042D01*
X0198728Y0204000D01*
X0198702Y0203956D01*
X0198679Y0203910D01*
X0198660Y0203863D01*
X0198645Y0203814D01*
X0198634Y0203764D01*
X0198626Y0203713D01*
X0198622Y0203662D01*
X0198623Y0203611D01*
X0198627Y0203560D01*
X0198635Y0203510D01*
X0198647Y0203460D01*
X0198663Y0203412D01*
X0198682Y0203364D01*
X0198705Y0203319D01*
X0198731Y0203275D01*
X0198761Y0203234D01*
X0198794Y0203194D01*
X0198830Y0203158D01*
X0198868Y0203124D01*
X0198909Y0203094D01*
X0198952Y0203066D01*
X0198998Y0203043D01*
X0199045Y0203022D01*
X0199093Y0203005D01*
X0199142Y0202993D01*
X0199193Y0202983D01*
X0199243Y0202978D01*
X0199294Y0202977D01*
X0196795Y0203745D02*
X0196795Y0205278D01*
X0196793Y0205333D01*
X0196787Y0205387D01*
X0196777Y0205441D01*
X0196764Y0205494D01*
X0196747Y0205546D01*
X0196726Y0205597D01*
X0196701Y0205646D01*
X0196673Y0205693D01*
X0196642Y0205738D01*
X0196608Y0205780D01*
X0196570Y0205820D01*
X0196530Y0205858D01*
X0196488Y0205892D01*
X0196443Y0205923D01*
X0196396Y0205951D01*
X0196347Y0205976D01*
X0196296Y0205997D01*
X0196244Y0206014D01*
X0196191Y0206027D01*
X0196137Y0206037D01*
X0196083Y0206043D01*
X0196028Y0206045D01*
X0195006Y0206045D01*
X0193350Y0205022D02*
X0193350Y0204000D01*
X0193348Y0203937D01*
X0193342Y0203874D01*
X0193333Y0203812D01*
X0193319Y0203751D01*
X0193302Y0203690D01*
X0193281Y0203631D01*
X0193256Y0203573D01*
X0193228Y0203516D01*
X0193197Y0203462D01*
X0193162Y0203410D01*
X0193124Y0203359D01*
X0193083Y0203311D01*
X0193039Y0203266D01*
X0192993Y0203224D01*
X0192944Y0203184D01*
X0192893Y0203148D01*
X0192839Y0203115D01*
X0192784Y0203085D01*
X0192726Y0203059D01*
X0192668Y0203036D01*
X0192608Y0203017D01*
X0192547Y0203002D01*
X0192485Y0202990D01*
X0192422Y0202982D01*
X0192359Y0202978D01*
X0192297Y0202978D01*
X0192234Y0202982D01*
X0192171Y0202990D01*
X0192109Y0203002D01*
X0192048Y0203017D01*
X0191988Y0203036D01*
X0191930Y0203059D01*
X0191872Y0203085D01*
X0191817Y0203115D01*
X0191763Y0203148D01*
X0191712Y0203184D01*
X0191663Y0203224D01*
X0191617Y0203266D01*
X0191573Y0203311D01*
X0191532Y0203359D01*
X0191494Y0203410D01*
X0191459Y0203462D01*
X0191428Y0203516D01*
X0191400Y0203573D01*
X0191375Y0203631D01*
X0191354Y0203690D01*
X0191337Y0203751D01*
X0191323Y0203812D01*
X0191314Y0203874D01*
X0191308Y0203937D01*
X0191306Y0204000D01*
X0191306Y0205022D01*
X0191308Y0205085D01*
X0191314Y0205148D01*
X0191323Y0205210D01*
X0191337Y0205271D01*
X0191354Y0205332D01*
X0191375Y0205391D01*
X0191400Y0205449D01*
X0191428Y0205506D01*
X0191459Y0205560D01*
X0191494Y0205612D01*
X0191532Y0205663D01*
X0191573Y0205711D01*
X0191617Y0205756D01*
X0191663Y0205798D01*
X0191712Y0205838D01*
X0191763Y0205874D01*
X0191817Y0205907D01*
X0191872Y0205937D01*
X0191930Y0205963D01*
X0191988Y0205986D01*
X0192048Y0206005D01*
X0192109Y0206020D01*
X0192171Y0206032D01*
X0192234Y0206040D01*
X0192297Y0206044D01*
X0192359Y0206044D01*
X0192422Y0206040D01*
X0192485Y0206032D01*
X0192547Y0206020D01*
X0192608Y0206005D01*
X0192668Y0205986D01*
X0192726Y0205963D01*
X0192784Y0205937D01*
X0192839Y0205907D01*
X0192893Y0205874D01*
X0192944Y0205838D01*
X0192993Y0205798D01*
X0193039Y0205756D01*
X0193083Y0205711D01*
X0193124Y0205663D01*
X0193162Y0205612D01*
X0193197Y0205560D01*
X0193228Y0205506D01*
X0193256Y0205449D01*
X0193281Y0205391D01*
X0193302Y0205332D01*
X0193319Y0205271D01*
X0193333Y0205210D01*
X0193342Y0205148D01*
X0193348Y0205085D01*
X0193350Y0205022D01*
X0195006Y0202978D02*
X0196028Y0202978D01*
X0196083Y0202980D01*
X0196137Y0202986D01*
X0196191Y0202996D01*
X0196244Y0203009D01*
X0196296Y0203026D01*
X0196347Y0203047D01*
X0196396Y0203072D01*
X0196443Y0203100D01*
X0196488Y0203131D01*
X0196530Y0203165D01*
X0196570Y0203203D01*
X0196608Y0203243D01*
X0196642Y0203285D01*
X0196673Y0203330D01*
X0196701Y0203377D01*
X0196726Y0203426D01*
X0196747Y0203477D01*
X0196764Y0203529D01*
X0196777Y0203582D01*
X0196787Y0203636D01*
X0196793Y0203690D01*
X0196795Y0203745D01*
X0199295Y0202978D02*
X0199425Y0202982D01*
X0199556Y0202990D01*
X0199685Y0203002D01*
X0199815Y0203017D01*
X0199944Y0203037D01*
X0200072Y0203060D01*
X0200200Y0203087D01*
X0200327Y0203118D01*
X0200452Y0203153D01*
X0200577Y0203192D01*
X0200700Y0203234D01*
X0209411Y0202781D02*
X0209466Y0202783D01*
X0209520Y0202789D01*
X0209574Y0202799D01*
X0209627Y0202812D01*
X0209679Y0202829D01*
X0209730Y0202850D01*
X0209779Y0202875D01*
X0209826Y0202903D01*
X0209871Y0202934D01*
X0209913Y0202968D01*
X0209953Y0203006D01*
X0209991Y0203046D01*
X0210025Y0203088D01*
X0210056Y0203133D01*
X0210084Y0203180D01*
X0210109Y0203229D01*
X0210130Y0203280D01*
X0210147Y0203332D01*
X0210160Y0203385D01*
X0210170Y0203439D01*
X0210176Y0203493D01*
X0210178Y0203548D01*
X0189300Y0202978D02*
X0189300Y0206045D01*
X0188022Y0206045D01*
X0187967Y0206043D01*
X0187913Y0206037D01*
X0187859Y0206027D01*
X0187806Y0206014D01*
X0187754Y0205997D01*
X0187703Y0205976D01*
X0187654Y0205951D01*
X0187607Y0205923D01*
X0187562Y0205892D01*
X0187520Y0205858D01*
X0187480Y0205820D01*
X0187442Y0205780D01*
X0187408Y0205738D01*
X0187377Y0205693D01*
X0187349Y0205646D01*
X0187324Y0205597D01*
X0187303Y0205546D01*
X0187286Y0205494D01*
X0187273Y0205441D01*
X0187263Y0205387D01*
X0187257Y0205333D01*
X0187255Y0205278D01*
X0187256Y0205278D02*
X0187256Y0202978D01*
X0185100Y0202978D02*
X0185100Y0206045D01*
X0183822Y0206045D01*
X0183767Y0206043D01*
X0183713Y0206037D01*
X0183659Y0206027D01*
X0183606Y0206014D01*
X0183554Y0205997D01*
X0183503Y0205976D01*
X0183454Y0205951D01*
X0183407Y0205923D01*
X0183362Y0205892D01*
X0183320Y0205858D01*
X0183280Y0205820D01*
X0183242Y0205780D01*
X0183208Y0205738D01*
X0183177Y0205693D01*
X0183149Y0205646D01*
X0183124Y0205597D01*
X0183103Y0205546D01*
X0183086Y0205494D01*
X0183073Y0205441D01*
X0183063Y0205387D01*
X0183057Y0205333D01*
X0183055Y0205278D01*
X0183056Y0205278D02*
X0183056Y0202978D01*
X0181050Y0203745D02*
X0181050Y0205022D01*
X0181050Y0204511D02*
X0179006Y0204511D01*
X0179006Y0205022D01*
X0179008Y0205085D01*
X0179014Y0205148D01*
X0179023Y0205210D01*
X0179037Y0205271D01*
X0179054Y0205332D01*
X0179075Y0205391D01*
X0179100Y0205449D01*
X0179128Y0205506D01*
X0179159Y0205560D01*
X0179194Y0205612D01*
X0179232Y0205663D01*
X0179273Y0205711D01*
X0179317Y0205756D01*
X0179363Y0205798D01*
X0179412Y0205838D01*
X0179463Y0205874D01*
X0179517Y0205907D01*
X0179572Y0205937D01*
X0179630Y0205963D01*
X0179688Y0205986D01*
X0179748Y0206005D01*
X0179809Y0206020D01*
X0179871Y0206032D01*
X0179934Y0206040D01*
X0179997Y0206044D01*
X0180059Y0206044D01*
X0180122Y0206040D01*
X0180185Y0206032D01*
X0180247Y0206020D01*
X0180308Y0206005D01*
X0180368Y0205986D01*
X0180426Y0205963D01*
X0180484Y0205937D01*
X0180539Y0205907D01*
X0180593Y0205874D01*
X0180644Y0205838D01*
X0180693Y0205798D01*
X0180739Y0205756D01*
X0180783Y0205711D01*
X0180824Y0205663D01*
X0180862Y0205612D01*
X0180897Y0205560D01*
X0180928Y0205506D01*
X0180956Y0205449D01*
X0180981Y0205391D01*
X0181002Y0205332D01*
X0181019Y0205271D01*
X0181033Y0205210D01*
X0181042Y0205148D01*
X0181048Y0205085D01*
X0181050Y0205022D01*
X0181050Y0203745D02*
X0181048Y0203690D01*
X0181042Y0203636D01*
X0181032Y0203582D01*
X0181019Y0203529D01*
X0181002Y0203477D01*
X0180981Y0203426D01*
X0180956Y0203377D01*
X0180928Y0203330D01*
X0180897Y0203285D01*
X0180863Y0203243D01*
X0180825Y0203203D01*
X0180785Y0203165D01*
X0180743Y0203131D01*
X0180698Y0203100D01*
X0180651Y0203072D01*
X0180602Y0203047D01*
X0180551Y0203026D01*
X0180499Y0203009D01*
X0180446Y0202996D01*
X0180392Y0202986D01*
X0180338Y0202980D01*
X0180283Y0202978D01*
X0179006Y0202978D01*
X0177145Y0203745D02*
X0177145Y0205278D01*
X0177143Y0205333D01*
X0177137Y0205387D01*
X0177127Y0205441D01*
X0177114Y0205494D01*
X0177097Y0205546D01*
X0177076Y0205597D01*
X0177051Y0205646D01*
X0177023Y0205693D01*
X0176992Y0205738D01*
X0176958Y0205780D01*
X0176920Y0205820D01*
X0176880Y0205858D01*
X0176838Y0205892D01*
X0176793Y0205923D01*
X0176746Y0205951D01*
X0176697Y0205976D01*
X0176646Y0205997D01*
X0176594Y0206014D01*
X0176541Y0206027D01*
X0176487Y0206037D01*
X0176433Y0206043D01*
X0176378Y0206045D01*
X0175356Y0206045D01*
X0174081Y0206045D02*
X0172547Y0206045D01*
X0173570Y0207578D02*
X0173570Y0203745D01*
X0173568Y0203690D01*
X0173562Y0203636D01*
X0173552Y0203582D01*
X0173539Y0203529D01*
X0173522Y0203477D01*
X0173501Y0203426D01*
X0173476Y0203377D01*
X0173448Y0203330D01*
X0173417Y0203285D01*
X0173383Y0203243D01*
X0173345Y0203203D01*
X0173305Y0203165D01*
X0173263Y0203131D01*
X0173218Y0203100D01*
X0173171Y0203072D01*
X0173122Y0203047D01*
X0173071Y0203026D01*
X0173019Y0203009D01*
X0172966Y0202996D01*
X0172912Y0202986D01*
X0172858Y0202980D01*
X0172803Y0202978D01*
X0172547Y0202978D01*
X0175356Y0202978D02*
X0176378Y0202978D01*
X0176433Y0202980D01*
X0176487Y0202986D01*
X0176541Y0202996D01*
X0176594Y0203009D01*
X0176646Y0203026D01*
X0176697Y0203047D01*
X0176746Y0203072D01*
X0176793Y0203100D01*
X0176838Y0203131D01*
X0176880Y0203165D01*
X0176920Y0203203D01*
X0176958Y0203243D01*
X0176992Y0203285D01*
X0177023Y0203330D01*
X0177051Y0203377D01*
X0177076Y0203426D01*
X0177097Y0203477D01*
X0177114Y0203529D01*
X0177127Y0203582D01*
X0177137Y0203636D01*
X0177143Y0203690D01*
X0177145Y0203745D01*
X0187511Y0165068D02*
X0187511Y0160734D01*
X0187512Y0160734D02*
X0187510Y0160677D01*
X0187505Y0160621D01*
X0187495Y0160565D01*
X0187482Y0160510D01*
X0187466Y0160455D01*
X0187446Y0160402D01*
X0187423Y0160351D01*
X0187396Y0160301D01*
X0187366Y0160252D01*
X0187333Y0160206D01*
X0187297Y0160162D01*
X0187258Y0160121D01*
X0187217Y0160082D01*
X0187173Y0160046D01*
X0187127Y0160013D01*
X0187079Y0159983D01*
X0187028Y0159956D01*
X0186977Y0159933D01*
X0186924Y0159913D01*
X0186869Y0159897D01*
X0186814Y0159884D01*
X0186758Y0159874D01*
X0186702Y0159869D01*
X0186645Y0159867D01*
X0183908Y0159868D02*
X0182608Y0159868D01*
X0182608Y0162468D01*
X0182608Y0161890D02*
X0183908Y0161890D01*
X0182608Y0162468D02*
X0182610Y0162525D01*
X0182615Y0162581D01*
X0182625Y0162637D01*
X0182638Y0162692D01*
X0182654Y0162747D01*
X0182674Y0162800D01*
X0182697Y0162851D01*
X0182724Y0162902D01*
X0182754Y0162950D01*
X0182787Y0162996D01*
X0182823Y0163040D01*
X0182862Y0163081D01*
X0182903Y0163120D01*
X0182947Y0163156D01*
X0182993Y0163189D01*
X0183042Y0163219D01*
X0183092Y0163246D01*
X0183143Y0163269D01*
X0183196Y0163289D01*
X0183251Y0163305D01*
X0183306Y0163318D01*
X0183362Y0163328D01*
X0183418Y0163333D01*
X0183475Y0163335D01*
X0183475Y0163334D02*
X0184631Y0163334D01*
X0183908Y0161890D02*
X0183970Y0161888D01*
X0184032Y0161882D01*
X0184094Y0161873D01*
X0184155Y0161859D01*
X0184214Y0161842D01*
X0184273Y0161822D01*
X0184331Y0161797D01*
X0184386Y0161770D01*
X0184440Y0161739D01*
X0184492Y0161704D01*
X0184542Y0161667D01*
X0184589Y0161626D01*
X0184634Y0161583D01*
X0184676Y0161537D01*
X0184715Y0161488D01*
X0184751Y0161437D01*
X0184784Y0161385D01*
X0184813Y0161330D01*
X0184839Y0161273D01*
X0184862Y0161215D01*
X0184880Y0161156D01*
X0184896Y0161095D01*
X0184907Y0161034D01*
X0184915Y0160972D01*
X0184919Y0160910D01*
X0184919Y0160848D01*
X0184915Y0160786D01*
X0184907Y0160724D01*
X0184896Y0160663D01*
X0184880Y0160602D01*
X0184862Y0160543D01*
X0184839Y0160485D01*
X0184813Y0160428D01*
X0184784Y0160374D01*
X0184751Y0160321D01*
X0184715Y0160270D01*
X0184676Y0160221D01*
X0184634Y0160175D01*
X0184589Y0160132D01*
X0184542Y0160091D01*
X0184492Y0160054D01*
X0184440Y0160019D01*
X0184386Y0159988D01*
X0184331Y0159961D01*
X0184273Y0159936D01*
X0184214Y0159916D01*
X0184155Y0159899D01*
X0184094Y0159885D01*
X0184032Y0159876D01*
X0183970Y0159870D01*
X0183908Y0159868D01*
X0180191Y0159868D02*
X0180191Y0163334D01*
X0178746Y0163334D01*
X0178746Y0163335D02*
X0178689Y0163333D01*
X0178633Y0163328D01*
X0178577Y0163318D01*
X0178522Y0163305D01*
X0178467Y0163289D01*
X0178414Y0163269D01*
X0178363Y0163246D01*
X0178313Y0163219D01*
X0178264Y0163189D01*
X0178218Y0163156D01*
X0178174Y0163120D01*
X0178133Y0163081D01*
X0178094Y0163040D01*
X0178058Y0162996D01*
X0178025Y0162950D01*
X0177995Y0162902D01*
X0177968Y0162851D01*
X0177945Y0162800D01*
X0177925Y0162747D01*
X0177909Y0162692D01*
X0177896Y0162637D01*
X0177886Y0162581D01*
X0177881Y0162525D01*
X0177879Y0162468D01*
X0177880Y0162468D02*
X0177880Y0159868D01*
X0175649Y0160734D02*
X0175649Y0162468D01*
X0175650Y0162468D02*
X0175648Y0162525D01*
X0175643Y0162581D01*
X0175633Y0162637D01*
X0175620Y0162692D01*
X0175604Y0162747D01*
X0175584Y0162800D01*
X0175561Y0162851D01*
X0175534Y0162902D01*
X0175504Y0162950D01*
X0175471Y0162996D01*
X0175435Y0163040D01*
X0175396Y0163081D01*
X0175355Y0163120D01*
X0175311Y0163156D01*
X0175265Y0163189D01*
X0175217Y0163219D01*
X0175166Y0163246D01*
X0175115Y0163269D01*
X0175062Y0163289D01*
X0175007Y0163305D01*
X0174952Y0163318D01*
X0174896Y0163328D01*
X0174840Y0163333D01*
X0174783Y0163335D01*
X0174783Y0163334D02*
X0173627Y0163334D01*
X0171791Y0162179D02*
X0171791Y0160734D01*
X0171789Y0160677D01*
X0171784Y0160621D01*
X0171774Y0160565D01*
X0171761Y0160510D01*
X0171745Y0160455D01*
X0171725Y0160402D01*
X0171702Y0160351D01*
X0171675Y0160301D01*
X0171645Y0160252D01*
X0171612Y0160206D01*
X0171576Y0160162D01*
X0171537Y0160121D01*
X0171496Y0160082D01*
X0171452Y0160046D01*
X0171406Y0160013D01*
X0171358Y0159983D01*
X0171307Y0159956D01*
X0171256Y0159933D01*
X0171203Y0159913D01*
X0171148Y0159897D01*
X0171093Y0159884D01*
X0171037Y0159874D01*
X0170981Y0159869D01*
X0170924Y0159867D01*
X0170924Y0159868D02*
X0169480Y0159868D01*
X0169480Y0161601D02*
X0171791Y0161601D01*
X0171791Y0162179D02*
X0171789Y0162246D01*
X0171783Y0162313D01*
X0171773Y0162380D01*
X0171760Y0162446D01*
X0171742Y0162511D01*
X0171721Y0162574D01*
X0171696Y0162637D01*
X0171668Y0162698D01*
X0171636Y0162757D01*
X0171601Y0162814D01*
X0171562Y0162869D01*
X0171521Y0162922D01*
X0171476Y0162972D01*
X0171428Y0163020D01*
X0171378Y0163065D01*
X0171325Y0163106D01*
X0171270Y0163145D01*
X0171213Y0163180D01*
X0171154Y0163212D01*
X0171093Y0163240D01*
X0171030Y0163265D01*
X0170967Y0163286D01*
X0170902Y0163304D01*
X0170836Y0163317D01*
X0170769Y0163327D01*
X0170702Y0163333D01*
X0170635Y0163335D01*
X0170568Y0163333D01*
X0170501Y0163327D01*
X0170434Y0163317D01*
X0170368Y0163304D01*
X0170303Y0163286D01*
X0170240Y0163265D01*
X0170177Y0163240D01*
X0170116Y0163212D01*
X0170057Y0163180D01*
X0170000Y0163145D01*
X0169945Y0163106D01*
X0169892Y0163065D01*
X0169842Y0163020D01*
X0169794Y0162972D01*
X0169749Y0162922D01*
X0169708Y0162869D01*
X0169669Y0162814D01*
X0169634Y0162757D01*
X0169602Y0162698D01*
X0169574Y0162637D01*
X0169549Y0162574D01*
X0169528Y0162511D01*
X0169510Y0162446D01*
X0169497Y0162380D01*
X0169487Y0162313D01*
X0169481Y0162246D01*
X0169479Y0162179D01*
X0169480Y0162179D02*
X0169480Y0161601D01*
X0167227Y0159868D02*
X0167227Y0163334D01*
X0165494Y0163334D01*
X0165494Y0162757D01*
X0173627Y0159868D02*
X0174783Y0159868D01*
X0174783Y0159867D02*
X0174840Y0159869D01*
X0174896Y0159874D01*
X0174952Y0159884D01*
X0175007Y0159897D01*
X0175062Y0159913D01*
X0175115Y0159933D01*
X0175166Y0159956D01*
X0175217Y0159983D01*
X0175265Y0160013D01*
X0175311Y0160046D01*
X0175355Y0160082D01*
X0175396Y0160121D01*
X0175435Y0160162D01*
X0175471Y0160206D01*
X0175504Y0160252D01*
X0175534Y0160301D01*
X0175561Y0160351D01*
X0175584Y0160402D01*
X0175604Y0160455D01*
X0175620Y0160510D01*
X0175633Y0160565D01*
X0175643Y0160621D01*
X0175648Y0160677D01*
X0175650Y0160734D01*
X0189333Y0159867D02*
X0189390Y0159869D01*
X0189446Y0159874D01*
X0189502Y0159884D01*
X0189557Y0159897D01*
X0189612Y0159913D01*
X0189665Y0159933D01*
X0189716Y0159956D01*
X0189767Y0159983D01*
X0189815Y0160013D01*
X0189861Y0160046D01*
X0189905Y0160082D01*
X0189946Y0160121D01*
X0189985Y0160162D01*
X0190021Y0160206D01*
X0190054Y0160252D01*
X0190084Y0160301D01*
X0190111Y0160351D01*
X0190134Y0160402D01*
X0190154Y0160455D01*
X0190170Y0160510D01*
X0190183Y0160565D01*
X0190193Y0160621D01*
X0190198Y0160677D01*
X0190200Y0160734D01*
X0190199Y0160734D02*
X0190199Y0165068D01*
X0192520Y0162468D02*
X0192520Y0159868D01*
X0193820Y0159868D01*
X0193882Y0159870D01*
X0193944Y0159876D01*
X0194006Y0159885D01*
X0194067Y0159899D01*
X0194126Y0159916D01*
X0194185Y0159936D01*
X0194243Y0159961D01*
X0194298Y0159988D01*
X0194352Y0160019D01*
X0194404Y0160054D01*
X0194454Y0160091D01*
X0194501Y0160132D01*
X0194546Y0160175D01*
X0194588Y0160221D01*
X0194627Y0160270D01*
X0194663Y0160321D01*
X0194696Y0160374D01*
X0194725Y0160428D01*
X0194751Y0160485D01*
X0194774Y0160543D01*
X0194792Y0160602D01*
X0194808Y0160663D01*
X0194819Y0160724D01*
X0194827Y0160786D01*
X0194831Y0160848D01*
X0194831Y0160910D01*
X0194827Y0160972D01*
X0194819Y0161034D01*
X0194808Y0161095D01*
X0194792Y0161156D01*
X0194774Y0161215D01*
X0194751Y0161273D01*
X0194725Y0161330D01*
X0194696Y0161385D01*
X0194663Y0161437D01*
X0194627Y0161488D01*
X0194588Y0161537D01*
X0194546Y0161583D01*
X0194501Y0161626D01*
X0194454Y0161667D01*
X0194404Y0161704D01*
X0194352Y0161739D01*
X0194298Y0161770D01*
X0194243Y0161797D01*
X0194185Y0161822D01*
X0194126Y0161842D01*
X0194067Y0161859D01*
X0194006Y0161873D01*
X0193944Y0161882D01*
X0193882Y0161888D01*
X0193820Y0161890D01*
X0192520Y0161890D01*
X0192520Y0162468D02*
X0192522Y0162525D01*
X0192527Y0162581D01*
X0192537Y0162637D01*
X0192550Y0162692D01*
X0192566Y0162747D01*
X0192586Y0162800D01*
X0192609Y0162851D01*
X0192636Y0162902D01*
X0192666Y0162950D01*
X0192699Y0162996D01*
X0192735Y0163040D01*
X0192774Y0163081D01*
X0192815Y0163120D01*
X0192859Y0163156D01*
X0192905Y0163189D01*
X0192954Y0163219D01*
X0193004Y0163246D01*
X0193055Y0163269D01*
X0193108Y0163289D01*
X0193163Y0163305D01*
X0193218Y0163318D01*
X0193274Y0163328D01*
X0193330Y0163333D01*
X0193387Y0163335D01*
X0193387Y0163334D02*
X0194543Y0163334D01*
X0198117Y0162757D02*
X0199561Y0162757D01*
X0198117Y0162756D02*
X0198050Y0162758D01*
X0197983Y0162764D01*
X0197916Y0162774D01*
X0197850Y0162787D01*
X0197785Y0162805D01*
X0197722Y0162826D01*
X0197659Y0162851D01*
X0197598Y0162879D01*
X0197539Y0162911D01*
X0197482Y0162946D01*
X0197427Y0162985D01*
X0197374Y0163026D01*
X0197324Y0163071D01*
X0197276Y0163119D01*
X0197231Y0163169D01*
X0197190Y0163222D01*
X0197151Y0163277D01*
X0197116Y0163334D01*
X0197084Y0163393D01*
X0197056Y0163454D01*
X0197031Y0163517D01*
X0197010Y0163580D01*
X0196992Y0163645D01*
X0196979Y0163711D01*
X0196969Y0163778D01*
X0196963Y0163845D01*
X0196961Y0163912D01*
X0196963Y0163979D01*
X0196969Y0164046D01*
X0196979Y0164113D01*
X0196992Y0164179D01*
X0197010Y0164244D01*
X0197031Y0164307D01*
X0197056Y0164370D01*
X0197084Y0164431D01*
X0197116Y0164490D01*
X0197151Y0164547D01*
X0197190Y0164602D01*
X0197231Y0164655D01*
X0197276Y0164705D01*
X0197324Y0164753D01*
X0197374Y0164798D01*
X0197427Y0164839D01*
X0197482Y0164878D01*
X0197539Y0164913D01*
X0197598Y0164945D01*
X0197659Y0164973D01*
X0197722Y0164998D01*
X0197785Y0165019D01*
X0197850Y0165037D01*
X0197916Y0165050D01*
X0197983Y0165060D01*
X0198050Y0165066D01*
X0198117Y0165068D01*
X0199561Y0165068D01*
X0199561Y0159868D01*
X0198117Y0159868D01*
X0198041Y0159870D01*
X0197966Y0159876D01*
X0197891Y0159886D01*
X0197817Y0159900D01*
X0197743Y0159917D01*
X0197671Y0159939D01*
X0197600Y0159964D01*
X0197530Y0159993D01*
X0197461Y0160025D01*
X0197395Y0160061D01*
X0197331Y0160101D01*
X0197268Y0160144D01*
X0197208Y0160190D01*
X0197151Y0160239D01*
X0197096Y0160291D01*
X0197044Y0160346D01*
X0196995Y0160403D01*
X0196949Y0160463D01*
X0196906Y0160526D01*
X0196866Y0160590D01*
X0196830Y0160656D01*
X0196798Y0160725D01*
X0196769Y0160795D01*
X0196744Y0160866D01*
X0196722Y0160938D01*
X0196705Y0161012D01*
X0196691Y0161086D01*
X0196681Y0161161D01*
X0196675Y0161236D01*
X0196673Y0161312D01*
X0196675Y0161388D01*
X0196681Y0161463D01*
X0196691Y0161538D01*
X0196705Y0161612D01*
X0196722Y0161686D01*
X0196744Y0161758D01*
X0196769Y0161829D01*
X0196798Y0161899D01*
X0196830Y0161968D01*
X0196866Y0162034D01*
X0196906Y0162098D01*
X0196949Y0162161D01*
X0196995Y0162221D01*
X0197044Y0162278D01*
X0197096Y0162333D01*
X0197151Y0162385D01*
X0197208Y0162434D01*
X0197268Y0162480D01*
X0197331Y0162523D01*
X0197395Y0162563D01*
X0197461Y0162599D01*
X0197530Y0162631D01*
X0197600Y0162660D01*
X0197671Y0162685D01*
X0197743Y0162707D01*
X0197817Y0162724D01*
X0197891Y0162738D01*
X0197966Y0162748D01*
X0198041Y0162754D01*
X0198117Y0162756D01*
X0204424Y0163334D02*
X0206157Y0158134D01*
X0206735Y0158134D01*
X0205579Y0159868D02*
X0206735Y0163334D01*
X0208166Y0163334D02*
X0208166Y0162757D01*
X0208166Y0163334D02*
X0209899Y0163334D01*
X0209899Y0159868D01*
X0212152Y0159868D02*
X0213596Y0159868D01*
X0213596Y0159867D02*
X0213653Y0159869D01*
X0213709Y0159874D01*
X0213765Y0159884D01*
X0213820Y0159897D01*
X0213875Y0159913D01*
X0213928Y0159933D01*
X0213979Y0159956D01*
X0214030Y0159983D01*
X0214078Y0160013D01*
X0214124Y0160046D01*
X0214168Y0160082D01*
X0214209Y0160121D01*
X0214248Y0160162D01*
X0214284Y0160206D01*
X0214317Y0160252D01*
X0214347Y0160301D01*
X0214374Y0160351D01*
X0214397Y0160402D01*
X0214417Y0160455D01*
X0214433Y0160510D01*
X0214446Y0160565D01*
X0214456Y0160621D01*
X0214461Y0160677D01*
X0214463Y0160734D01*
X0214463Y0162179D01*
X0214463Y0161601D02*
X0212152Y0161601D01*
X0212152Y0162179D01*
X0212151Y0162179D02*
X0212153Y0162246D01*
X0212159Y0162313D01*
X0212169Y0162380D01*
X0212182Y0162446D01*
X0212200Y0162511D01*
X0212221Y0162574D01*
X0212246Y0162637D01*
X0212274Y0162698D01*
X0212306Y0162757D01*
X0212341Y0162814D01*
X0212380Y0162869D01*
X0212421Y0162922D01*
X0212466Y0162972D01*
X0212514Y0163020D01*
X0212564Y0163065D01*
X0212617Y0163106D01*
X0212672Y0163145D01*
X0212729Y0163180D01*
X0212788Y0163212D01*
X0212849Y0163240D01*
X0212912Y0163265D01*
X0212975Y0163286D01*
X0213040Y0163304D01*
X0213106Y0163317D01*
X0213173Y0163327D01*
X0213240Y0163333D01*
X0213307Y0163335D01*
X0213374Y0163333D01*
X0213441Y0163327D01*
X0213508Y0163317D01*
X0213574Y0163304D01*
X0213639Y0163286D01*
X0213702Y0163265D01*
X0213765Y0163240D01*
X0213826Y0163212D01*
X0213885Y0163180D01*
X0213942Y0163145D01*
X0213997Y0163106D01*
X0214050Y0163065D01*
X0214100Y0163020D01*
X0214148Y0162972D01*
X0214193Y0162922D01*
X0214234Y0162869D01*
X0214273Y0162814D01*
X0214308Y0162757D01*
X0214340Y0162698D01*
X0214368Y0162637D01*
X0214393Y0162574D01*
X0214414Y0162511D01*
X0214432Y0162446D01*
X0214445Y0162380D01*
X0214455Y0162313D01*
X0214461Y0162246D01*
X0214463Y0162179D01*
X0216343Y0163334D02*
X0218076Y0163334D01*
X0219535Y0163334D02*
X0221268Y0163334D01*
X0220691Y0165068D02*
X0220691Y0160734D01*
X0220689Y0160677D01*
X0220684Y0160621D01*
X0220674Y0160565D01*
X0220661Y0160510D01*
X0220645Y0160455D01*
X0220625Y0160402D01*
X0220602Y0160351D01*
X0220575Y0160301D01*
X0220545Y0160252D01*
X0220512Y0160206D01*
X0220476Y0160162D01*
X0220437Y0160121D01*
X0220396Y0160082D01*
X0220352Y0160046D01*
X0220306Y0160013D01*
X0220258Y0159983D01*
X0220207Y0159956D01*
X0220156Y0159933D01*
X0220103Y0159913D01*
X0220048Y0159897D01*
X0219993Y0159884D01*
X0219937Y0159874D01*
X0219881Y0159869D01*
X0219824Y0159867D01*
X0219824Y0159868D02*
X0219535Y0159868D01*
X0217499Y0160734D02*
X0217499Y0165068D01*
X0217499Y0160734D02*
X0217497Y0160677D01*
X0217492Y0160621D01*
X0217482Y0160565D01*
X0217469Y0160510D01*
X0217453Y0160455D01*
X0217433Y0160402D01*
X0217410Y0160351D01*
X0217383Y0160301D01*
X0217353Y0160252D01*
X0217320Y0160206D01*
X0217284Y0160162D01*
X0217245Y0160121D01*
X0217204Y0160082D01*
X0217160Y0160046D01*
X0217114Y0160013D01*
X0217066Y0159983D01*
X0217015Y0159956D01*
X0216964Y0159933D01*
X0216911Y0159913D01*
X0216856Y0159897D01*
X0216801Y0159884D01*
X0216745Y0159874D01*
X0216689Y0159869D01*
X0216632Y0159867D01*
X0216632Y0159868D02*
X0216343Y0159868D01*
X0223096Y0159868D02*
X0223096Y0162468D01*
X0223096Y0161890D02*
X0224396Y0161890D01*
X0223096Y0162468D02*
X0223098Y0162525D01*
X0223103Y0162581D01*
X0223113Y0162637D01*
X0223126Y0162692D01*
X0223142Y0162747D01*
X0223162Y0162800D01*
X0223185Y0162851D01*
X0223212Y0162902D01*
X0223242Y0162950D01*
X0223275Y0162996D01*
X0223311Y0163040D01*
X0223350Y0163081D01*
X0223391Y0163120D01*
X0223435Y0163156D01*
X0223481Y0163189D01*
X0223530Y0163219D01*
X0223580Y0163246D01*
X0223631Y0163269D01*
X0223684Y0163289D01*
X0223739Y0163305D01*
X0223794Y0163318D01*
X0223850Y0163328D01*
X0223906Y0163333D01*
X0223963Y0163335D01*
X0223963Y0163334D02*
X0225119Y0163334D01*
X0224396Y0161890D02*
X0224458Y0161888D01*
X0224520Y0161882D01*
X0224582Y0161873D01*
X0224643Y0161859D01*
X0224702Y0161842D01*
X0224761Y0161822D01*
X0224819Y0161797D01*
X0224874Y0161770D01*
X0224928Y0161739D01*
X0224980Y0161704D01*
X0225030Y0161667D01*
X0225077Y0161626D01*
X0225122Y0161583D01*
X0225164Y0161537D01*
X0225203Y0161488D01*
X0225239Y0161437D01*
X0225272Y0161385D01*
X0225301Y0161330D01*
X0225327Y0161273D01*
X0225350Y0161215D01*
X0225368Y0161156D01*
X0225384Y0161095D01*
X0225395Y0161034D01*
X0225403Y0160972D01*
X0225407Y0160910D01*
X0225407Y0160848D01*
X0225403Y0160786D01*
X0225395Y0160724D01*
X0225384Y0160663D01*
X0225368Y0160602D01*
X0225350Y0160543D01*
X0225327Y0160485D01*
X0225301Y0160428D01*
X0225272Y0160374D01*
X0225239Y0160321D01*
X0225203Y0160270D01*
X0225164Y0160221D01*
X0225122Y0160175D01*
X0225077Y0160132D01*
X0225030Y0160091D01*
X0224980Y0160054D01*
X0224928Y0160019D01*
X0224874Y0159988D01*
X0224819Y0159961D01*
X0224761Y0159936D01*
X0224702Y0159916D01*
X0224643Y0159899D01*
X0224582Y0159885D01*
X0224520Y0159876D01*
X0224458Y0159870D01*
X0224396Y0159868D01*
X0223096Y0159868D01*
X0228693Y0159868D02*
X0230137Y0159868D01*
X0230137Y0165068D01*
X0228693Y0165068D01*
X0228626Y0165066D01*
X0228559Y0165060D01*
X0228492Y0165050D01*
X0228426Y0165037D01*
X0228361Y0165019D01*
X0228298Y0164998D01*
X0228235Y0164973D01*
X0228174Y0164945D01*
X0228115Y0164913D01*
X0228058Y0164878D01*
X0228003Y0164839D01*
X0227950Y0164798D01*
X0227900Y0164753D01*
X0227852Y0164705D01*
X0227807Y0164655D01*
X0227766Y0164602D01*
X0227727Y0164547D01*
X0227692Y0164490D01*
X0227660Y0164431D01*
X0227632Y0164370D01*
X0227607Y0164307D01*
X0227586Y0164244D01*
X0227568Y0164179D01*
X0227555Y0164113D01*
X0227545Y0164046D01*
X0227539Y0163979D01*
X0227537Y0163912D01*
X0227539Y0163845D01*
X0227545Y0163778D01*
X0227555Y0163711D01*
X0227568Y0163645D01*
X0227586Y0163580D01*
X0227607Y0163517D01*
X0227632Y0163454D01*
X0227660Y0163393D01*
X0227692Y0163334D01*
X0227727Y0163277D01*
X0227766Y0163222D01*
X0227807Y0163169D01*
X0227852Y0163119D01*
X0227900Y0163071D01*
X0227950Y0163026D01*
X0228003Y0162985D01*
X0228058Y0162946D01*
X0228115Y0162911D01*
X0228174Y0162879D01*
X0228235Y0162851D01*
X0228298Y0162826D01*
X0228361Y0162805D01*
X0228426Y0162787D01*
X0228492Y0162774D01*
X0228559Y0162764D01*
X0228626Y0162758D01*
X0228693Y0162756D01*
X0228693Y0162757D02*
X0230137Y0162757D01*
X0228693Y0162756D02*
X0228617Y0162754D01*
X0228542Y0162748D01*
X0228467Y0162738D01*
X0228393Y0162724D01*
X0228319Y0162707D01*
X0228247Y0162685D01*
X0228176Y0162660D01*
X0228106Y0162631D01*
X0228037Y0162599D01*
X0227971Y0162563D01*
X0227907Y0162523D01*
X0227844Y0162480D01*
X0227784Y0162434D01*
X0227727Y0162385D01*
X0227672Y0162333D01*
X0227620Y0162278D01*
X0227571Y0162221D01*
X0227525Y0162161D01*
X0227482Y0162098D01*
X0227442Y0162034D01*
X0227406Y0161968D01*
X0227374Y0161899D01*
X0227345Y0161829D01*
X0227320Y0161758D01*
X0227298Y0161686D01*
X0227281Y0161612D01*
X0227267Y0161538D01*
X0227257Y0161463D01*
X0227251Y0161388D01*
X0227249Y0161312D01*
X0227251Y0161236D01*
X0227257Y0161161D01*
X0227267Y0161086D01*
X0227281Y0161012D01*
X0227298Y0160938D01*
X0227320Y0160866D01*
X0227345Y0160795D01*
X0227374Y0160725D01*
X0227406Y0160656D01*
X0227442Y0160590D01*
X0227482Y0160526D01*
X0227525Y0160463D01*
X0227571Y0160403D01*
X0227620Y0160346D01*
X0227672Y0160291D01*
X0227727Y0160239D01*
X0227784Y0160190D01*
X0227844Y0160144D01*
X0227907Y0160101D01*
X0227971Y0160061D01*
X0228037Y0160025D01*
X0228106Y0159993D01*
X0228176Y0159964D01*
X0228247Y0159939D01*
X0228319Y0159917D01*
X0228393Y0159900D01*
X0228467Y0159886D01*
X0228542Y0159876D01*
X0228617Y0159870D01*
X0228693Y0159868D01*
X0230310Y0181718D02*
X0230565Y0181718D01*
X0230620Y0181720D01*
X0230674Y0181726D01*
X0230728Y0181736D01*
X0230781Y0181749D01*
X0230833Y0181766D01*
X0230884Y0181787D01*
X0230933Y0181812D01*
X0230980Y0181840D01*
X0231025Y0181871D01*
X0231067Y0181905D01*
X0231107Y0181943D01*
X0231145Y0181983D01*
X0231179Y0182025D01*
X0231210Y0182070D01*
X0231238Y0182117D01*
X0231263Y0182166D01*
X0231284Y0182217D01*
X0231301Y0182269D01*
X0231314Y0182322D01*
X0231324Y0182376D01*
X0231330Y0182430D01*
X0231332Y0182485D01*
X0231332Y0186318D01*
X0231843Y0184785D02*
X0230310Y0184785D01*
X0228612Y0183763D02*
X0228612Y0182740D01*
X0228610Y0182677D01*
X0228604Y0182614D01*
X0228595Y0182552D01*
X0228581Y0182491D01*
X0228564Y0182430D01*
X0228543Y0182371D01*
X0228518Y0182313D01*
X0228490Y0182256D01*
X0228459Y0182202D01*
X0228424Y0182150D01*
X0228386Y0182099D01*
X0228345Y0182051D01*
X0228301Y0182006D01*
X0228255Y0181964D01*
X0228206Y0181924D01*
X0228155Y0181888D01*
X0228101Y0181855D01*
X0228046Y0181825D01*
X0227988Y0181799D01*
X0227930Y0181776D01*
X0227870Y0181757D01*
X0227809Y0181742D01*
X0227747Y0181730D01*
X0227684Y0181722D01*
X0227621Y0181718D01*
X0227559Y0181718D01*
X0227496Y0181722D01*
X0227433Y0181730D01*
X0227371Y0181742D01*
X0227310Y0181757D01*
X0227250Y0181776D01*
X0227192Y0181799D01*
X0227134Y0181825D01*
X0227079Y0181855D01*
X0227025Y0181888D01*
X0226974Y0181924D01*
X0226925Y0181964D01*
X0226879Y0182006D01*
X0226835Y0182051D01*
X0226794Y0182099D01*
X0226756Y0182150D01*
X0226721Y0182202D01*
X0226690Y0182256D01*
X0226662Y0182313D01*
X0226637Y0182371D01*
X0226616Y0182430D01*
X0226599Y0182491D01*
X0226585Y0182552D01*
X0226576Y0182614D01*
X0226570Y0182677D01*
X0226568Y0182740D01*
X0226568Y0183763D01*
X0226570Y0183826D01*
X0226576Y0183889D01*
X0226585Y0183951D01*
X0226599Y0184012D01*
X0226616Y0184073D01*
X0226637Y0184132D01*
X0226662Y0184190D01*
X0226690Y0184247D01*
X0226721Y0184301D01*
X0226756Y0184353D01*
X0226794Y0184404D01*
X0226835Y0184452D01*
X0226879Y0184497D01*
X0226925Y0184539D01*
X0226974Y0184579D01*
X0227025Y0184615D01*
X0227079Y0184648D01*
X0227134Y0184678D01*
X0227192Y0184704D01*
X0227250Y0184727D01*
X0227310Y0184746D01*
X0227371Y0184761D01*
X0227433Y0184773D01*
X0227496Y0184781D01*
X0227559Y0184785D01*
X0227621Y0184785D01*
X0227684Y0184781D01*
X0227747Y0184773D01*
X0227809Y0184761D01*
X0227870Y0184746D01*
X0227930Y0184727D01*
X0227988Y0184704D01*
X0228046Y0184678D01*
X0228101Y0184648D01*
X0228155Y0184615D01*
X0228206Y0184579D01*
X0228255Y0184539D01*
X0228301Y0184497D01*
X0228345Y0184452D01*
X0228386Y0184404D01*
X0228424Y0184353D01*
X0228459Y0184301D01*
X0228490Y0184247D01*
X0228518Y0184190D01*
X0228543Y0184132D01*
X0228564Y0184073D01*
X0228581Y0184012D01*
X0228595Y0183951D01*
X0228604Y0183889D01*
X0228610Y0183826D01*
X0228612Y0183763D01*
X0233468Y0184785D02*
X0233468Y0181718D01*
X0234745Y0181718D01*
X0234800Y0181720D01*
X0234854Y0181726D01*
X0234908Y0181736D01*
X0234961Y0181749D01*
X0235013Y0181766D01*
X0235064Y0181787D01*
X0235113Y0181812D01*
X0235160Y0181840D01*
X0235205Y0181871D01*
X0235247Y0181905D01*
X0235287Y0181943D01*
X0235325Y0181983D01*
X0235359Y0182025D01*
X0235390Y0182070D01*
X0235418Y0182117D01*
X0235443Y0182166D01*
X0235464Y0182217D01*
X0235481Y0182269D01*
X0235494Y0182322D01*
X0235504Y0182376D01*
X0235510Y0182430D01*
X0235512Y0182485D01*
X0235512Y0184785D01*
X0237690Y0182868D02*
X0239990Y0182868D01*
X0240373Y0181718D02*
X0238840Y0186318D01*
X0237307Y0181718D01*
X0203194Y0146367D02*
X0202038Y0146367D01*
X0203194Y0146367D02*
X0203261Y0146365D01*
X0203328Y0146359D01*
X0203395Y0146349D01*
X0203461Y0146336D01*
X0203526Y0146318D01*
X0203589Y0146297D01*
X0203652Y0146272D01*
X0203713Y0146244D01*
X0203772Y0146212D01*
X0203829Y0146177D01*
X0203884Y0146138D01*
X0203937Y0146097D01*
X0203987Y0146052D01*
X0204035Y0146004D01*
X0204080Y0145954D01*
X0204121Y0145901D01*
X0204160Y0145846D01*
X0204195Y0145789D01*
X0204227Y0145730D01*
X0204255Y0145669D01*
X0204280Y0145606D01*
X0204301Y0145543D01*
X0204319Y0145478D01*
X0204332Y0145412D01*
X0204342Y0145345D01*
X0204348Y0145278D01*
X0204350Y0145211D01*
X0204350Y0142322D01*
X0204348Y0142255D01*
X0204342Y0142188D01*
X0204332Y0142121D01*
X0204319Y0142055D01*
X0204301Y0141990D01*
X0204280Y0141927D01*
X0204255Y0141864D01*
X0204227Y0141803D01*
X0204195Y0141744D01*
X0204160Y0141687D01*
X0204121Y0141632D01*
X0204080Y0141579D01*
X0204035Y0141529D01*
X0203987Y0141481D01*
X0203937Y0141436D01*
X0203884Y0141395D01*
X0203829Y0141356D01*
X0203772Y0141321D01*
X0203713Y0141289D01*
X0203652Y0141261D01*
X0203589Y0141236D01*
X0203526Y0141215D01*
X0203461Y0141197D01*
X0203395Y0141184D01*
X0203328Y0141174D01*
X0203261Y0141168D01*
X0203194Y0141166D01*
X0203194Y0141167D02*
X0202038Y0141167D01*
X0200183Y0142322D02*
X0200183Y0143478D01*
X0200181Y0143545D01*
X0200175Y0143612D01*
X0200165Y0143679D01*
X0200152Y0143745D01*
X0200134Y0143810D01*
X0200113Y0143873D01*
X0200088Y0143936D01*
X0200060Y0143997D01*
X0200028Y0144056D01*
X0199993Y0144113D01*
X0199954Y0144168D01*
X0199913Y0144221D01*
X0199868Y0144271D01*
X0199820Y0144319D01*
X0199770Y0144364D01*
X0199717Y0144405D01*
X0199662Y0144444D01*
X0199605Y0144479D01*
X0199546Y0144511D01*
X0199485Y0144539D01*
X0199422Y0144564D01*
X0199359Y0144585D01*
X0199294Y0144603D01*
X0199228Y0144616D01*
X0199161Y0144626D01*
X0199094Y0144632D01*
X0199027Y0144634D01*
X0198960Y0144632D01*
X0198893Y0144626D01*
X0198826Y0144616D01*
X0198760Y0144603D01*
X0198695Y0144585D01*
X0198632Y0144564D01*
X0198569Y0144539D01*
X0198508Y0144511D01*
X0198449Y0144479D01*
X0198392Y0144444D01*
X0198337Y0144405D01*
X0198284Y0144364D01*
X0198234Y0144319D01*
X0198186Y0144271D01*
X0198141Y0144221D01*
X0198100Y0144168D01*
X0198061Y0144113D01*
X0198026Y0144056D01*
X0197994Y0143997D01*
X0197966Y0143936D01*
X0197941Y0143873D01*
X0197920Y0143810D01*
X0197902Y0143745D01*
X0197889Y0143679D01*
X0197879Y0143612D01*
X0197873Y0143545D01*
X0197871Y0143478D01*
X0197872Y0143478D02*
X0197872Y0142322D01*
X0197871Y0142322D02*
X0197873Y0142255D01*
X0197879Y0142188D01*
X0197889Y0142121D01*
X0197902Y0142055D01*
X0197920Y0141990D01*
X0197941Y0141927D01*
X0197966Y0141864D01*
X0197994Y0141803D01*
X0198026Y0141744D01*
X0198061Y0141687D01*
X0198100Y0141632D01*
X0198141Y0141579D01*
X0198186Y0141529D01*
X0198234Y0141481D01*
X0198284Y0141436D01*
X0198337Y0141395D01*
X0198392Y0141356D01*
X0198449Y0141321D01*
X0198508Y0141289D01*
X0198569Y0141261D01*
X0198632Y0141236D01*
X0198695Y0141215D01*
X0198760Y0141197D01*
X0198826Y0141184D01*
X0198893Y0141174D01*
X0198960Y0141168D01*
X0199027Y0141166D01*
X0199094Y0141168D01*
X0199161Y0141174D01*
X0199228Y0141184D01*
X0199294Y0141197D01*
X0199359Y0141215D01*
X0199422Y0141236D01*
X0199485Y0141261D01*
X0199546Y0141289D01*
X0199605Y0141321D01*
X0199662Y0141356D01*
X0199717Y0141395D01*
X0199770Y0141436D01*
X0199820Y0141481D01*
X0199868Y0141529D01*
X0199913Y0141579D01*
X0199954Y0141632D01*
X0199993Y0141687D01*
X0200028Y0141744D01*
X0200060Y0141803D01*
X0200088Y0141864D01*
X0200113Y0141927D01*
X0200134Y0141990D01*
X0200152Y0142055D01*
X0200165Y0142121D01*
X0200175Y0142188D01*
X0200181Y0142255D01*
X0200183Y0142322D01*
X0195647Y0142034D02*
X0195647Y0144634D01*
X0193336Y0144634D02*
X0193336Y0141167D01*
X0194780Y0141167D01*
X0194837Y0141169D01*
X0194893Y0141174D01*
X0194949Y0141184D01*
X0195004Y0141197D01*
X0195059Y0141213D01*
X0195112Y0141233D01*
X0195163Y0141256D01*
X0195214Y0141283D01*
X0195262Y0141313D01*
X0195308Y0141346D01*
X0195352Y0141382D01*
X0195393Y0141421D01*
X0195432Y0141462D01*
X0195468Y0141506D01*
X0195501Y0141552D01*
X0195531Y0141601D01*
X0195558Y0141651D01*
X0195581Y0141702D01*
X0195601Y0141755D01*
X0195617Y0141810D01*
X0195630Y0141865D01*
X0195640Y0141921D01*
X0195645Y0141977D01*
X0195647Y0142034D01*
X0191039Y0142034D02*
X0191039Y0146367D01*
X0188423Y0143478D02*
X0188423Y0142322D01*
X0188421Y0142255D01*
X0188415Y0142188D01*
X0188405Y0142121D01*
X0188392Y0142055D01*
X0188374Y0141990D01*
X0188353Y0141927D01*
X0188328Y0141864D01*
X0188300Y0141803D01*
X0188268Y0141744D01*
X0188233Y0141687D01*
X0188194Y0141632D01*
X0188153Y0141579D01*
X0188108Y0141529D01*
X0188060Y0141481D01*
X0188010Y0141436D01*
X0187957Y0141395D01*
X0187902Y0141356D01*
X0187845Y0141321D01*
X0187786Y0141289D01*
X0187725Y0141261D01*
X0187662Y0141236D01*
X0187599Y0141215D01*
X0187534Y0141197D01*
X0187468Y0141184D01*
X0187401Y0141174D01*
X0187334Y0141168D01*
X0187267Y0141166D01*
X0187200Y0141168D01*
X0187133Y0141174D01*
X0187066Y0141184D01*
X0187000Y0141197D01*
X0186935Y0141215D01*
X0186872Y0141236D01*
X0186809Y0141261D01*
X0186748Y0141289D01*
X0186689Y0141321D01*
X0186632Y0141356D01*
X0186577Y0141395D01*
X0186524Y0141436D01*
X0186474Y0141481D01*
X0186426Y0141529D01*
X0186381Y0141579D01*
X0186340Y0141632D01*
X0186301Y0141687D01*
X0186266Y0141744D01*
X0186234Y0141803D01*
X0186206Y0141864D01*
X0186181Y0141927D01*
X0186160Y0141990D01*
X0186142Y0142055D01*
X0186129Y0142121D01*
X0186119Y0142188D01*
X0186113Y0142255D01*
X0186111Y0142322D01*
X0186112Y0142322D02*
X0186112Y0143478D01*
X0186111Y0143478D02*
X0186113Y0143545D01*
X0186119Y0143612D01*
X0186129Y0143679D01*
X0186142Y0143745D01*
X0186160Y0143810D01*
X0186181Y0143873D01*
X0186206Y0143936D01*
X0186234Y0143997D01*
X0186266Y0144056D01*
X0186301Y0144113D01*
X0186340Y0144168D01*
X0186381Y0144221D01*
X0186426Y0144271D01*
X0186474Y0144319D01*
X0186524Y0144364D01*
X0186577Y0144405D01*
X0186632Y0144444D01*
X0186689Y0144479D01*
X0186748Y0144511D01*
X0186809Y0144539D01*
X0186872Y0144564D01*
X0186935Y0144585D01*
X0187000Y0144603D01*
X0187066Y0144616D01*
X0187133Y0144626D01*
X0187200Y0144632D01*
X0187267Y0144634D01*
X0187334Y0144632D01*
X0187401Y0144626D01*
X0187468Y0144616D01*
X0187534Y0144603D01*
X0187599Y0144585D01*
X0187662Y0144564D01*
X0187725Y0144539D01*
X0187786Y0144511D01*
X0187845Y0144479D01*
X0187902Y0144444D01*
X0187957Y0144405D01*
X0188010Y0144364D01*
X0188060Y0144319D01*
X0188108Y0144271D01*
X0188153Y0144221D01*
X0188194Y0144168D01*
X0188233Y0144113D01*
X0188268Y0144056D01*
X0188300Y0143997D01*
X0188328Y0143936D01*
X0188353Y0143873D01*
X0188374Y0143810D01*
X0188392Y0143745D01*
X0188405Y0143679D01*
X0188415Y0143612D01*
X0188421Y0143545D01*
X0188423Y0143478D01*
X0190173Y0141167D02*
X0190230Y0141169D01*
X0190286Y0141174D01*
X0190342Y0141184D01*
X0190397Y0141197D01*
X0190452Y0141213D01*
X0190505Y0141233D01*
X0190556Y0141256D01*
X0190607Y0141283D01*
X0190655Y0141313D01*
X0190701Y0141346D01*
X0190745Y0141382D01*
X0190786Y0141421D01*
X0190825Y0141462D01*
X0190861Y0141506D01*
X0190894Y0141552D01*
X0190924Y0141601D01*
X0190951Y0141651D01*
X0190974Y0141702D01*
X0190994Y0141755D01*
X0191010Y0141810D01*
X0191023Y0141865D01*
X0191033Y0141921D01*
X0191038Y0141977D01*
X0191040Y0142034D01*
X0183793Y0141167D02*
X0183793Y0144634D01*
X0181193Y0144634D01*
X0182059Y0144634D02*
X0182059Y0141167D01*
X0180326Y0141167D02*
X0180326Y0143767D01*
X0180328Y0143824D01*
X0180333Y0143880D01*
X0180343Y0143936D01*
X0180356Y0143991D01*
X0180372Y0144046D01*
X0180392Y0144099D01*
X0180415Y0144150D01*
X0180442Y0144201D01*
X0180472Y0144249D01*
X0180505Y0144295D01*
X0180541Y0144339D01*
X0180580Y0144380D01*
X0180621Y0144419D01*
X0180665Y0144455D01*
X0180711Y0144488D01*
X0180760Y0144518D01*
X0180810Y0144545D01*
X0180861Y0144568D01*
X0180914Y0144588D01*
X0180969Y0144604D01*
X0181024Y0144617D01*
X0181080Y0144627D01*
X0181136Y0144632D01*
X0181193Y0144634D01*
X0177814Y0144634D02*
X0176370Y0144634D01*
X0176313Y0144632D01*
X0176257Y0144627D01*
X0176201Y0144617D01*
X0176146Y0144604D01*
X0176091Y0144588D01*
X0176038Y0144568D01*
X0175987Y0144545D01*
X0175937Y0144518D01*
X0175888Y0144488D01*
X0175842Y0144455D01*
X0175798Y0144419D01*
X0175757Y0144380D01*
X0175718Y0144339D01*
X0175682Y0144295D01*
X0175649Y0144249D01*
X0175619Y0144201D01*
X0175592Y0144150D01*
X0175569Y0144099D01*
X0175549Y0144046D01*
X0175533Y0143991D01*
X0175520Y0143936D01*
X0175510Y0143880D01*
X0175505Y0143824D01*
X0175503Y0143767D01*
X0175503Y0142034D01*
X0175505Y0141977D01*
X0175510Y0141921D01*
X0175520Y0141865D01*
X0175533Y0141810D01*
X0175549Y0141755D01*
X0175569Y0141702D01*
X0175592Y0141651D01*
X0175619Y0141600D01*
X0175649Y0141552D01*
X0175682Y0141506D01*
X0175718Y0141462D01*
X0175757Y0141421D01*
X0175798Y0141382D01*
X0175842Y0141346D01*
X0175888Y0141313D01*
X0175937Y0141283D01*
X0175987Y0141256D01*
X0176038Y0141233D01*
X0176091Y0141213D01*
X0176146Y0141197D01*
X0176201Y0141184D01*
X0176257Y0141174D01*
X0176313Y0141169D01*
X0176370Y0141167D01*
X0177814Y0141167D01*
X0177814Y0146367D01*
X0170750Y0145211D02*
X0170750Y0142322D01*
X0170748Y0142255D01*
X0170742Y0142188D01*
X0170732Y0142121D01*
X0170719Y0142055D01*
X0170701Y0141990D01*
X0170680Y0141927D01*
X0170655Y0141864D01*
X0170627Y0141803D01*
X0170595Y0141744D01*
X0170560Y0141687D01*
X0170521Y0141632D01*
X0170480Y0141579D01*
X0170435Y0141529D01*
X0170387Y0141481D01*
X0170337Y0141436D01*
X0170284Y0141395D01*
X0170229Y0141356D01*
X0170172Y0141321D01*
X0170113Y0141289D01*
X0170052Y0141261D01*
X0169989Y0141236D01*
X0169926Y0141215D01*
X0169861Y0141197D01*
X0169795Y0141184D01*
X0169728Y0141174D01*
X0169661Y0141168D01*
X0169594Y0141166D01*
X0169594Y0141167D02*
X0168439Y0141167D01*
X0166583Y0142322D02*
X0166583Y0143478D01*
X0166581Y0143545D01*
X0166575Y0143612D01*
X0166565Y0143679D01*
X0166552Y0143745D01*
X0166534Y0143810D01*
X0166513Y0143873D01*
X0166488Y0143936D01*
X0166460Y0143997D01*
X0166428Y0144056D01*
X0166393Y0144113D01*
X0166354Y0144168D01*
X0166313Y0144221D01*
X0166268Y0144271D01*
X0166220Y0144319D01*
X0166170Y0144364D01*
X0166117Y0144405D01*
X0166062Y0144444D01*
X0166005Y0144479D01*
X0165946Y0144511D01*
X0165885Y0144539D01*
X0165822Y0144564D01*
X0165759Y0144585D01*
X0165694Y0144603D01*
X0165628Y0144616D01*
X0165561Y0144626D01*
X0165494Y0144632D01*
X0165427Y0144634D01*
X0165360Y0144632D01*
X0165293Y0144626D01*
X0165226Y0144616D01*
X0165160Y0144603D01*
X0165095Y0144585D01*
X0165032Y0144564D01*
X0164969Y0144539D01*
X0164908Y0144511D01*
X0164849Y0144479D01*
X0164792Y0144444D01*
X0164737Y0144405D01*
X0164684Y0144364D01*
X0164634Y0144319D01*
X0164586Y0144271D01*
X0164541Y0144221D01*
X0164500Y0144168D01*
X0164461Y0144113D01*
X0164426Y0144056D01*
X0164394Y0143997D01*
X0164366Y0143936D01*
X0164341Y0143873D01*
X0164320Y0143810D01*
X0164302Y0143745D01*
X0164289Y0143679D01*
X0164279Y0143612D01*
X0164273Y0143545D01*
X0164271Y0143478D01*
X0164272Y0143478D02*
X0164272Y0142322D01*
X0164271Y0142322D02*
X0164273Y0142255D01*
X0164279Y0142188D01*
X0164289Y0142121D01*
X0164302Y0142055D01*
X0164320Y0141990D01*
X0164341Y0141927D01*
X0164366Y0141864D01*
X0164394Y0141803D01*
X0164426Y0141744D01*
X0164461Y0141687D01*
X0164500Y0141632D01*
X0164541Y0141579D01*
X0164586Y0141529D01*
X0164634Y0141481D01*
X0164684Y0141436D01*
X0164737Y0141395D01*
X0164792Y0141356D01*
X0164849Y0141321D01*
X0164908Y0141289D01*
X0164969Y0141261D01*
X0165032Y0141236D01*
X0165095Y0141215D01*
X0165160Y0141197D01*
X0165226Y0141184D01*
X0165293Y0141174D01*
X0165360Y0141168D01*
X0165427Y0141166D01*
X0165494Y0141168D01*
X0165561Y0141174D01*
X0165628Y0141184D01*
X0165694Y0141197D01*
X0165759Y0141215D01*
X0165822Y0141236D01*
X0165885Y0141261D01*
X0165946Y0141289D01*
X0166005Y0141321D01*
X0166062Y0141356D01*
X0166117Y0141395D01*
X0166170Y0141436D01*
X0166220Y0141481D01*
X0166268Y0141529D01*
X0166313Y0141579D01*
X0166354Y0141632D01*
X0166393Y0141687D01*
X0166428Y0141744D01*
X0166460Y0141803D01*
X0166488Y0141864D01*
X0166513Y0141927D01*
X0166534Y0141990D01*
X0166552Y0142055D01*
X0166565Y0142121D01*
X0166575Y0142188D01*
X0166581Y0142255D01*
X0166583Y0142322D01*
X0169594Y0146367D02*
X0169661Y0146365D01*
X0169728Y0146359D01*
X0169795Y0146349D01*
X0169861Y0146336D01*
X0169926Y0146318D01*
X0169989Y0146297D01*
X0170052Y0146272D01*
X0170113Y0146244D01*
X0170172Y0146212D01*
X0170229Y0146177D01*
X0170284Y0146138D01*
X0170337Y0146097D01*
X0170387Y0146052D01*
X0170435Y0146004D01*
X0170480Y0145954D01*
X0170521Y0145901D01*
X0170560Y0145846D01*
X0170595Y0145789D01*
X0170627Y0145730D01*
X0170655Y0145669D01*
X0170680Y0145606D01*
X0170701Y0145543D01*
X0170719Y0145478D01*
X0170732Y0145412D01*
X0170742Y0145345D01*
X0170748Y0145278D01*
X0170750Y0145211D01*
X0169594Y0146367D02*
X0168439Y0146367D01*
X0162047Y0144634D02*
X0162047Y0142034D01*
X0162045Y0141977D01*
X0162040Y0141921D01*
X0162030Y0141865D01*
X0162017Y0141810D01*
X0162001Y0141755D01*
X0161981Y0141702D01*
X0161958Y0141651D01*
X0161931Y0141601D01*
X0161901Y0141552D01*
X0161868Y0141506D01*
X0161832Y0141462D01*
X0161793Y0141421D01*
X0161752Y0141382D01*
X0161708Y0141346D01*
X0161662Y0141313D01*
X0161614Y0141283D01*
X0161563Y0141256D01*
X0161512Y0141233D01*
X0161459Y0141213D01*
X0161404Y0141197D01*
X0161349Y0141184D01*
X0161293Y0141174D01*
X0161237Y0141169D01*
X0161180Y0141167D01*
X0159736Y0141167D01*
X0159736Y0144634D01*
X0157343Y0144634D02*
X0157343Y0141167D01*
X0155032Y0141167D02*
X0155032Y0143767D01*
X0155031Y0143767D02*
X0155033Y0143824D01*
X0155038Y0143880D01*
X0155048Y0143936D01*
X0155061Y0143991D01*
X0155077Y0144046D01*
X0155097Y0144099D01*
X0155120Y0144150D01*
X0155147Y0144201D01*
X0155177Y0144249D01*
X0155210Y0144295D01*
X0155246Y0144339D01*
X0155285Y0144380D01*
X0155326Y0144419D01*
X0155370Y0144455D01*
X0155416Y0144488D01*
X0155465Y0144518D01*
X0155515Y0144545D01*
X0155566Y0144568D01*
X0155619Y0144588D01*
X0155674Y0144604D01*
X0155729Y0144617D01*
X0155785Y0144627D01*
X0155841Y0144632D01*
X0155898Y0144634D01*
X0157343Y0144634D01*
X0153229Y0144634D02*
X0151495Y0144634D01*
X0152651Y0146367D02*
X0152651Y0142034D01*
X0152649Y0141977D01*
X0152644Y0141921D01*
X0152634Y0141865D01*
X0152621Y0141810D01*
X0152605Y0141755D01*
X0152585Y0141702D01*
X0152562Y0141651D01*
X0152535Y0141601D01*
X0152505Y0141552D01*
X0152472Y0141506D01*
X0152436Y0141462D01*
X0152397Y0141421D01*
X0152356Y0141382D01*
X0152312Y0141346D01*
X0152266Y0141313D01*
X0152218Y0141283D01*
X0152167Y0141256D01*
X0152116Y0141233D01*
X0152063Y0141213D01*
X0152008Y0141197D01*
X0151953Y0141184D01*
X0151897Y0141174D01*
X0151841Y0141169D01*
X0151784Y0141167D01*
X0151495Y0141167D01*
X0149615Y0142034D02*
X0149615Y0143478D01*
X0149615Y0142900D02*
X0147304Y0142900D01*
X0147304Y0143478D01*
X0147303Y0143478D02*
X0147305Y0143545D01*
X0147311Y0143612D01*
X0147321Y0143679D01*
X0147334Y0143745D01*
X0147352Y0143810D01*
X0147373Y0143873D01*
X0147398Y0143936D01*
X0147426Y0143997D01*
X0147458Y0144056D01*
X0147493Y0144113D01*
X0147532Y0144168D01*
X0147573Y0144221D01*
X0147618Y0144271D01*
X0147666Y0144319D01*
X0147716Y0144364D01*
X0147769Y0144405D01*
X0147824Y0144444D01*
X0147881Y0144479D01*
X0147940Y0144511D01*
X0148001Y0144539D01*
X0148064Y0144564D01*
X0148127Y0144585D01*
X0148192Y0144603D01*
X0148258Y0144616D01*
X0148325Y0144626D01*
X0148392Y0144632D01*
X0148459Y0144634D01*
X0148526Y0144632D01*
X0148593Y0144626D01*
X0148660Y0144616D01*
X0148726Y0144603D01*
X0148791Y0144585D01*
X0148854Y0144564D01*
X0148917Y0144539D01*
X0148978Y0144511D01*
X0149037Y0144479D01*
X0149094Y0144444D01*
X0149149Y0144405D01*
X0149202Y0144364D01*
X0149252Y0144319D01*
X0149300Y0144271D01*
X0149345Y0144221D01*
X0149386Y0144168D01*
X0149425Y0144113D01*
X0149460Y0144056D01*
X0149492Y0143997D01*
X0149520Y0143936D01*
X0149545Y0143873D01*
X0149566Y0143810D01*
X0149584Y0143745D01*
X0149597Y0143679D01*
X0149607Y0143612D01*
X0149613Y0143545D01*
X0149615Y0143478D01*
X0149615Y0142034D02*
X0149613Y0141977D01*
X0149608Y0141921D01*
X0149598Y0141865D01*
X0149585Y0141810D01*
X0149569Y0141755D01*
X0149549Y0141702D01*
X0149526Y0141651D01*
X0149499Y0141601D01*
X0149469Y0141552D01*
X0149436Y0141506D01*
X0149400Y0141462D01*
X0149361Y0141421D01*
X0149320Y0141382D01*
X0149276Y0141346D01*
X0149230Y0141313D01*
X0149182Y0141283D01*
X0149131Y0141256D01*
X0149080Y0141233D01*
X0149027Y0141213D01*
X0148972Y0141197D01*
X0148917Y0141184D01*
X0148861Y0141174D01*
X0148805Y0141169D01*
X0148748Y0141167D01*
X0147304Y0141167D01*
X0145051Y0141167D02*
X0145051Y0144634D01*
X0143318Y0144634D01*
X0143318Y0144056D01*
D13*
X0226022Y0276747D02*
X0227050Y0276747D01*
X0227098Y0276749D01*
X0227147Y0276755D01*
X0227194Y0276764D01*
X0227241Y0276777D01*
X0227286Y0276794D01*
X0227330Y0276814D01*
X0227372Y0276838D01*
X0227413Y0276865D01*
X0227451Y0276895D01*
X0227486Y0276928D01*
X0227519Y0276963D01*
X0227549Y0277001D01*
X0227576Y0277042D01*
X0227600Y0277084D01*
X0227620Y0277128D01*
X0227637Y0277173D01*
X0227650Y0277220D01*
X0227659Y0277267D01*
X0227665Y0277316D01*
X0227667Y0277364D01*
X0227666Y0277364D02*
X0227666Y0278391D01*
X0227666Y0277980D02*
X0226022Y0277980D01*
X0226022Y0278391D01*
X0226024Y0278447D01*
X0226030Y0278503D01*
X0226039Y0278558D01*
X0226052Y0278613D01*
X0226069Y0278666D01*
X0226090Y0278718D01*
X0226114Y0278769D01*
X0226142Y0278818D01*
X0226172Y0278865D01*
X0226206Y0278910D01*
X0226243Y0278952D01*
X0226283Y0278992D01*
X0226325Y0279029D01*
X0226370Y0279063D01*
X0226417Y0279093D01*
X0226466Y0279121D01*
X0226517Y0279145D01*
X0226569Y0279166D01*
X0226622Y0279183D01*
X0226677Y0279196D01*
X0226732Y0279205D01*
X0226788Y0279211D01*
X0226844Y0279213D01*
X0226900Y0279211D01*
X0226956Y0279205D01*
X0227011Y0279196D01*
X0227066Y0279183D01*
X0227119Y0279166D01*
X0227171Y0279145D01*
X0227222Y0279121D01*
X0227271Y0279093D01*
X0227318Y0279063D01*
X0227363Y0279029D01*
X0227405Y0278992D01*
X0227445Y0278952D01*
X0227482Y0278910D01*
X0227516Y0278865D01*
X0227546Y0278818D01*
X0227574Y0278769D01*
X0227598Y0278718D01*
X0227619Y0278666D01*
X0227636Y0278613D01*
X0227649Y0278558D01*
X0227658Y0278503D01*
X0227664Y0278447D01*
X0227666Y0278391D01*
X0228920Y0276747D02*
X0228968Y0276749D01*
X0229017Y0276755D01*
X0229064Y0276764D01*
X0229111Y0276777D01*
X0229156Y0276794D01*
X0229200Y0276814D01*
X0229242Y0276838D01*
X0229283Y0276865D01*
X0229321Y0276895D01*
X0229356Y0276928D01*
X0229389Y0276963D01*
X0229419Y0277001D01*
X0229446Y0277042D01*
X0229470Y0277084D01*
X0229490Y0277128D01*
X0229507Y0277173D01*
X0229520Y0277220D01*
X0229529Y0277267D01*
X0229535Y0277316D01*
X0229537Y0277364D01*
X0229537Y0280447D01*
X0229878Y0282747D02*
X0230906Y0282747D01*
X0230906Y0286447D01*
X0229878Y0286447D01*
X0229822Y0286445D01*
X0229766Y0286439D01*
X0229711Y0286430D01*
X0229656Y0286417D01*
X0229603Y0286400D01*
X0229551Y0286379D01*
X0229500Y0286355D01*
X0229451Y0286327D01*
X0229404Y0286297D01*
X0229359Y0286263D01*
X0229317Y0286226D01*
X0229277Y0286186D01*
X0229240Y0286144D01*
X0229206Y0286099D01*
X0229176Y0286052D01*
X0229148Y0286003D01*
X0229124Y0285952D01*
X0229103Y0285900D01*
X0229086Y0285847D01*
X0229073Y0285792D01*
X0229064Y0285737D01*
X0229058Y0285681D01*
X0229056Y0285625D01*
X0229058Y0285569D01*
X0229064Y0285513D01*
X0229073Y0285458D01*
X0229086Y0285403D01*
X0229103Y0285350D01*
X0229124Y0285298D01*
X0229148Y0285247D01*
X0229176Y0285198D01*
X0229206Y0285151D01*
X0229240Y0285106D01*
X0229277Y0285064D01*
X0229317Y0285024D01*
X0229359Y0284987D01*
X0229404Y0284953D01*
X0229451Y0284923D01*
X0229500Y0284895D01*
X0229551Y0284871D01*
X0229603Y0284850D01*
X0229656Y0284833D01*
X0229711Y0284820D01*
X0229766Y0284811D01*
X0229822Y0284805D01*
X0229878Y0284803D01*
X0229878Y0284802D02*
X0230906Y0284802D01*
X0229878Y0284803D02*
X0229815Y0284801D01*
X0229752Y0284795D01*
X0229689Y0284785D01*
X0229627Y0284772D01*
X0229566Y0284755D01*
X0229507Y0284734D01*
X0229448Y0284709D01*
X0229392Y0284681D01*
X0229337Y0284649D01*
X0229284Y0284614D01*
X0229234Y0284576D01*
X0229185Y0284535D01*
X0229140Y0284491D01*
X0229097Y0284444D01*
X0229058Y0284395D01*
X0229021Y0284343D01*
X0228988Y0284289D01*
X0228958Y0284233D01*
X0228931Y0284176D01*
X0228908Y0284117D01*
X0228889Y0284056D01*
X0228874Y0283995D01*
X0228862Y0283933D01*
X0228854Y0283870D01*
X0228850Y0283807D01*
X0228850Y0283743D01*
X0228854Y0283680D01*
X0228862Y0283617D01*
X0228874Y0283555D01*
X0228889Y0283494D01*
X0228908Y0283433D01*
X0228931Y0283374D01*
X0228958Y0283317D01*
X0228988Y0283261D01*
X0229021Y0283207D01*
X0229058Y0283155D01*
X0229097Y0283106D01*
X0229140Y0283059D01*
X0229185Y0283015D01*
X0229234Y0282974D01*
X0229284Y0282936D01*
X0229337Y0282901D01*
X0229392Y0282869D01*
X0229448Y0282841D01*
X0229507Y0282816D01*
X0229566Y0282795D01*
X0229627Y0282778D01*
X0229689Y0282765D01*
X0229752Y0282755D01*
X0229815Y0282749D01*
X0229878Y0282747D01*
X0226811Y0282747D02*
X0225886Y0282747D01*
X0225886Y0284597D01*
X0225886Y0284186D02*
X0226811Y0284186D01*
X0225886Y0284597D02*
X0225888Y0284645D01*
X0225894Y0284694D01*
X0225903Y0284741D01*
X0225916Y0284788D01*
X0225933Y0284833D01*
X0225953Y0284877D01*
X0225977Y0284919D01*
X0226004Y0284960D01*
X0226034Y0284998D01*
X0226067Y0285033D01*
X0226102Y0285066D01*
X0226140Y0285096D01*
X0226181Y0285123D01*
X0226223Y0285147D01*
X0226267Y0285167D01*
X0226312Y0285184D01*
X0226359Y0285197D01*
X0226406Y0285206D01*
X0226455Y0285212D01*
X0226503Y0285214D01*
X0227325Y0285214D01*
X0226811Y0284185D02*
X0226863Y0284183D01*
X0226916Y0284177D01*
X0226967Y0284168D01*
X0227018Y0284155D01*
X0227068Y0284138D01*
X0227116Y0284117D01*
X0227163Y0284093D01*
X0227208Y0284066D01*
X0227250Y0284035D01*
X0227291Y0284001D01*
X0227329Y0283965D01*
X0227364Y0283926D01*
X0227396Y0283884D01*
X0227425Y0283841D01*
X0227450Y0283795D01*
X0227473Y0283747D01*
X0227491Y0283698D01*
X0227507Y0283648D01*
X0227518Y0283597D01*
X0227526Y0283545D01*
X0227530Y0283492D01*
X0227530Y0283440D01*
X0227526Y0283387D01*
X0227518Y0283335D01*
X0227507Y0283284D01*
X0227491Y0283234D01*
X0227473Y0283185D01*
X0227450Y0283137D01*
X0227425Y0283091D01*
X0227396Y0283048D01*
X0227364Y0283006D01*
X0227329Y0282967D01*
X0227291Y0282931D01*
X0227250Y0282897D01*
X0227208Y0282866D01*
X0227163Y0282839D01*
X0227116Y0282815D01*
X0227068Y0282794D01*
X0227018Y0282777D01*
X0226967Y0282764D01*
X0226916Y0282755D01*
X0226863Y0282749D01*
X0226811Y0282747D01*
X0224223Y0283364D02*
X0224223Y0286447D01*
X0222303Y0286447D02*
X0222303Y0283364D01*
X0222301Y0283316D01*
X0222295Y0283267D01*
X0222286Y0283220D01*
X0222273Y0283173D01*
X0222256Y0283128D01*
X0222236Y0283084D01*
X0222212Y0283042D01*
X0222185Y0283001D01*
X0222155Y0282963D01*
X0222122Y0282928D01*
X0222087Y0282895D01*
X0222049Y0282865D01*
X0222008Y0282838D01*
X0221966Y0282814D01*
X0221922Y0282794D01*
X0221877Y0282777D01*
X0221830Y0282764D01*
X0221783Y0282755D01*
X0221734Y0282749D01*
X0221686Y0282747D01*
X0219731Y0282747D02*
X0218806Y0282747D01*
X0218806Y0284597D01*
X0218806Y0284186D02*
X0219731Y0284186D01*
X0218806Y0284597D02*
X0218808Y0284645D01*
X0218814Y0284694D01*
X0218823Y0284741D01*
X0218836Y0284788D01*
X0218853Y0284833D01*
X0218873Y0284877D01*
X0218897Y0284919D01*
X0218924Y0284960D01*
X0218954Y0284998D01*
X0218987Y0285033D01*
X0219022Y0285066D01*
X0219060Y0285096D01*
X0219101Y0285123D01*
X0219143Y0285147D01*
X0219187Y0285167D01*
X0219232Y0285184D01*
X0219279Y0285197D01*
X0219326Y0285206D01*
X0219375Y0285212D01*
X0219423Y0285214D01*
X0220245Y0285214D01*
X0219731Y0284185D02*
X0219783Y0284183D01*
X0219836Y0284177D01*
X0219887Y0284168D01*
X0219938Y0284155D01*
X0219988Y0284138D01*
X0220036Y0284117D01*
X0220083Y0284093D01*
X0220128Y0284066D01*
X0220170Y0284035D01*
X0220211Y0284001D01*
X0220249Y0283965D01*
X0220284Y0283926D01*
X0220316Y0283884D01*
X0220345Y0283841D01*
X0220370Y0283795D01*
X0220393Y0283747D01*
X0220411Y0283698D01*
X0220427Y0283648D01*
X0220438Y0283597D01*
X0220446Y0283545D01*
X0220450Y0283492D01*
X0220450Y0283440D01*
X0220446Y0283387D01*
X0220438Y0283335D01*
X0220427Y0283284D01*
X0220411Y0283234D01*
X0220393Y0283185D01*
X0220370Y0283137D01*
X0220345Y0283091D01*
X0220316Y0283048D01*
X0220284Y0283006D01*
X0220249Y0282967D01*
X0220211Y0282931D01*
X0220170Y0282897D01*
X0220128Y0282866D01*
X0220083Y0282839D01*
X0220036Y0282815D01*
X0219988Y0282794D01*
X0219938Y0282777D01*
X0219887Y0282764D01*
X0219836Y0282755D01*
X0219783Y0282749D01*
X0219731Y0282747D01*
X0217072Y0282747D02*
X0217072Y0285214D01*
X0216045Y0285214D01*
X0215997Y0285212D01*
X0215948Y0285206D01*
X0215901Y0285197D01*
X0215854Y0285184D01*
X0215809Y0285167D01*
X0215765Y0285147D01*
X0215723Y0285123D01*
X0215682Y0285096D01*
X0215644Y0285066D01*
X0215609Y0285033D01*
X0215576Y0284998D01*
X0215546Y0284960D01*
X0215519Y0284919D01*
X0215495Y0284877D01*
X0215475Y0284833D01*
X0215458Y0284788D01*
X0215445Y0284741D01*
X0215436Y0284694D01*
X0215430Y0284645D01*
X0215428Y0284597D01*
X0215428Y0282747D01*
X0213828Y0283364D02*
X0213828Y0284597D01*
X0213829Y0284597D02*
X0213827Y0284645D01*
X0213821Y0284694D01*
X0213812Y0284741D01*
X0213799Y0284788D01*
X0213782Y0284833D01*
X0213762Y0284877D01*
X0213738Y0284919D01*
X0213711Y0284960D01*
X0213681Y0284998D01*
X0213648Y0285033D01*
X0213613Y0285066D01*
X0213575Y0285096D01*
X0213534Y0285123D01*
X0213492Y0285147D01*
X0213448Y0285167D01*
X0213403Y0285184D01*
X0213356Y0285197D01*
X0213309Y0285206D01*
X0213260Y0285212D01*
X0213212Y0285214D01*
X0212390Y0285214D01*
X0211072Y0284391D02*
X0211072Y0283364D01*
X0211072Y0283980D02*
X0209428Y0283980D01*
X0209428Y0284391D01*
X0209430Y0284447D01*
X0209436Y0284503D01*
X0209445Y0284558D01*
X0209458Y0284613D01*
X0209475Y0284666D01*
X0209496Y0284718D01*
X0209520Y0284769D01*
X0209548Y0284818D01*
X0209578Y0284865D01*
X0209612Y0284910D01*
X0209649Y0284952D01*
X0209689Y0284992D01*
X0209731Y0285029D01*
X0209776Y0285063D01*
X0209823Y0285093D01*
X0209872Y0285121D01*
X0209923Y0285145D01*
X0209975Y0285166D01*
X0210028Y0285183D01*
X0210083Y0285196D01*
X0210138Y0285205D01*
X0210194Y0285211D01*
X0210250Y0285213D01*
X0210306Y0285211D01*
X0210362Y0285205D01*
X0210417Y0285196D01*
X0210472Y0285183D01*
X0210525Y0285166D01*
X0210577Y0285145D01*
X0210628Y0285121D01*
X0210677Y0285093D01*
X0210724Y0285063D01*
X0210769Y0285029D01*
X0210811Y0284992D01*
X0210851Y0284952D01*
X0210888Y0284910D01*
X0210922Y0284865D01*
X0210952Y0284818D01*
X0210980Y0284769D01*
X0211004Y0284718D01*
X0211025Y0284666D01*
X0211042Y0284613D01*
X0211055Y0284558D01*
X0211064Y0284503D01*
X0211070Y0284447D01*
X0211072Y0284391D01*
X0211073Y0283364D02*
X0211071Y0283316D01*
X0211065Y0283267D01*
X0211056Y0283220D01*
X0211043Y0283173D01*
X0211026Y0283128D01*
X0211006Y0283084D01*
X0210982Y0283042D01*
X0210955Y0283001D01*
X0210925Y0282963D01*
X0210892Y0282928D01*
X0210857Y0282895D01*
X0210819Y0282865D01*
X0210778Y0282838D01*
X0210736Y0282814D01*
X0210692Y0282794D01*
X0210647Y0282777D01*
X0210600Y0282764D01*
X0210553Y0282755D01*
X0210504Y0282749D01*
X0210456Y0282747D01*
X0209428Y0282747D01*
X0207812Y0282747D02*
X0207812Y0285214D01*
X0206579Y0285214D01*
X0206579Y0284802D01*
X0212390Y0282747D02*
X0213212Y0282747D01*
X0213260Y0282749D01*
X0213309Y0282755D01*
X0213356Y0282764D01*
X0213403Y0282777D01*
X0213448Y0282794D01*
X0213492Y0282814D01*
X0213534Y0282838D01*
X0213575Y0282865D01*
X0213613Y0282895D01*
X0213648Y0282928D01*
X0213681Y0282963D01*
X0213711Y0283001D01*
X0213738Y0283042D01*
X0213762Y0283084D01*
X0213782Y0283128D01*
X0213799Y0283173D01*
X0213812Y0283220D01*
X0213821Y0283267D01*
X0213827Y0283316D01*
X0213829Y0283364D01*
X0223606Y0282747D02*
X0223654Y0282749D01*
X0223703Y0282755D01*
X0223750Y0282764D01*
X0223797Y0282777D01*
X0223842Y0282794D01*
X0223886Y0282814D01*
X0223928Y0282838D01*
X0223969Y0282865D01*
X0224007Y0282895D01*
X0224042Y0282928D01*
X0224075Y0282963D01*
X0224105Y0283001D01*
X0224132Y0283042D01*
X0224156Y0283084D01*
X0224176Y0283128D01*
X0224193Y0283173D01*
X0224206Y0283220D01*
X0224215Y0283267D01*
X0224221Y0283316D01*
X0224223Y0283364D01*
X0231044Y0278597D02*
X0231044Y0277364D01*
X0231043Y0277364D02*
X0231045Y0277316D01*
X0231051Y0277267D01*
X0231060Y0277220D01*
X0231073Y0277173D01*
X0231090Y0277128D01*
X0231110Y0277084D01*
X0231134Y0277042D01*
X0231161Y0277001D01*
X0231191Y0276963D01*
X0231224Y0276928D01*
X0231259Y0276895D01*
X0231297Y0276865D01*
X0231338Y0276838D01*
X0231380Y0276814D01*
X0231424Y0276794D01*
X0231469Y0276777D01*
X0231516Y0276764D01*
X0231563Y0276755D01*
X0231612Y0276749D01*
X0231660Y0276747D01*
X0232688Y0276747D01*
X0232688Y0280447D01*
X0232688Y0279214D02*
X0231660Y0279214D01*
X0231612Y0279212D01*
X0231563Y0279206D01*
X0231516Y0279197D01*
X0231469Y0279184D01*
X0231424Y0279167D01*
X0231380Y0279147D01*
X0231338Y0279123D01*
X0231297Y0279096D01*
X0231259Y0279066D01*
X0231224Y0279033D01*
X0231191Y0278998D01*
X0231161Y0278960D01*
X0231134Y0278919D01*
X0231110Y0278877D01*
X0231090Y0278833D01*
X0231073Y0278788D01*
X0231060Y0278741D01*
X0231051Y0278694D01*
X0231045Y0278645D01*
X0231043Y0278597D01*
X0234440Y0278597D02*
X0234440Y0276747D01*
X0235365Y0276747D01*
X0235417Y0276749D01*
X0235470Y0276755D01*
X0235521Y0276764D01*
X0235572Y0276777D01*
X0235622Y0276794D01*
X0235670Y0276815D01*
X0235717Y0276839D01*
X0235762Y0276866D01*
X0235804Y0276897D01*
X0235845Y0276931D01*
X0235883Y0276967D01*
X0235918Y0277006D01*
X0235950Y0277048D01*
X0235979Y0277091D01*
X0236004Y0277137D01*
X0236027Y0277185D01*
X0236045Y0277234D01*
X0236061Y0277284D01*
X0236072Y0277335D01*
X0236080Y0277387D01*
X0236084Y0277440D01*
X0236084Y0277492D01*
X0236080Y0277545D01*
X0236072Y0277597D01*
X0236061Y0277648D01*
X0236045Y0277698D01*
X0236027Y0277747D01*
X0236004Y0277795D01*
X0235979Y0277841D01*
X0235950Y0277884D01*
X0235918Y0277926D01*
X0235883Y0277965D01*
X0235845Y0278001D01*
X0235804Y0278035D01*
X0235762Y0278066D01*
X0235717Y0278093D01*
X0235670Y0278117D01*
X0235622Y0278138D01*
X0235572Y0278155D01*
X0235521Y0278168D01*
X0235470Y0278177D01*
X0235417Y0278183D01*
X0235365Y0278185D01*
X0235365Y0278186D02*
X0234440Y0278186D01*
X0234439Y0278597D02*
X0234441Y0278645D01*
X0234447Y0278694D01*
X0234456Y0278741D01*
X0234469Y0278788D01*
X0234486Y0278833D01*
X0234506Y0278877D01*
X0234530Y0278919D01*
X0234557Y0278960D01*
X0234587Y0278998D01*
X0234620Y0279033D01*
X0234655Y0279066D01*
X0234693Y0279096D01*
X0234734Y0279123D01*
X0234776Y0279147D01*
X0234820Y0279167D01*
X0234865Y0279184D01*
X0234912Y0279197D01*
X0234959Y0279206D01*
X0235008Y0279212D01*
X0235056Y0279214D01*
X0235879Y0279214D01*
X0237662Y0278597D02*
X0237662Y0276747D01*
X0239306Y0276747D02*
X0239306Y0279214D01*
X0238278Y0279214D01*
X0238230Y0279212D01*
X0238181Y0279206D01*
X0238134Y0279197D01*
X0238087Y0279184D01*
X0238042Y0279167D01*
X0237998Y0279147D01*
X0237956Y0279123D01*
X0237915Y0279096D01*
X0237877Y0279066D01*
X0237842Y0279033D01*
X0237809Y0278998D01*
X0237779Y0278960D01*
X0237752Y0278919D01*
X0237728Y0278877D01*
X0237708Y0278833D01*
X0237691Y0278788D01*
X0237678Y0278741D01*
X0237669Y0278694D01*
X0237663Y0278645D01*
X0237661Y0278597D01*
X0236032Y0281514D02*
X0235621Y0281514D01*
X0234388Y0285214D01*
X0236032Y0285214D02*
X0235210Y0282747D01*
X0237059Y0284802D02*
X0237059Y0285214D01*
X0238292Y0285214D01*
X0238292Y0282747D01*
X0239908Y0282747D02*
X0240936Y0282747D01*
X0240984Y0282749D01*
X0241033Y0282755D01*
X0241080Y0282764D01*
X0241127Y0282777D01*
X0241172Y0282794D01*
X0241216Y0282814D01*
X0241258Y0282838D01*
X0241299Y0282865D01*
X0241337Y0282895D01*
X0241372Y0282928D01*
X0241405Y0282963D01*
X0241435Y0283001D01*
X0241462Y0283042D01*
X0241486Y0283084D01*
X0241506Y0283128D01*
X0241523Y0283173D01*
X0241536Y0283220D01*
X0241545Y0283267D01*
X0241551Y0283316D01*
X0241553Y0283364D01*
X0241552Y0283364D02*
X0241552Y0284391D01*
X0241552Y0283980D02*
X0239908Y0283980D01*
X0239908Y0284391D01*
X0239910Y0284447D01*
X0239916Y0284503D01*
X0239925Y0284558D01*
X0239938Y0284613D01*
X0239955Y0284666D01*
X0239976Y0284718D01*
X0240000Y0284769D01*
X0240028Y0284818D01*
X0240058Y0284865D01*
X0240092Y0284910D01*
X0240129Y0284952D01*
X0240169Y0284992D01*
X0240211Y0285029D01*
X0240256Y0285063D01*
X0240303Y0285093D01*
X0240352Y0285121D01*
X0240403Y0285145D01*
X0240455Y0285166D01*
X0240508Y0285183D01*
X0240563Y0285196D01*
X0240618Y0285205D01*
X0240674Y0285211D01*
X0240730Y0285213D01*
X0240786Y0285211D01*
X0240842Y0285205D01*
X0240897Y0285196D01*
X0240952Y0285183D01*
X0241005Y0285166D01*
X0241057Y0285145D01*
X0241108Y0285121D01*
X0241157Y0285093D01*
X0241204Y0285063D01*
X0241249Y0285029D01*
X0241291Y0284992D01*
X0241331Y0284952D01*
X0241368Y0284910D01*
X0241402Y0284865D01*
X0241432Y0284818D01*
X0241460Y0284769D01*
X0241484Y0284718D01*
X0241505Y0284666D01*
X0241522Y0284613D01*
X0241535Y0284558D01*
X0241544Y0284503D01*
X0241550Y0284447D01*
X0241552Y0284391D01*
X0242902Y0285214D02*
X0244135Y0285214D01*
X0245182Y0285214D02*
X0246415Y0285214D01*
X0246004Y0286447D02*
X0246004Y0283364D01*
X0246002Y0283316D01*
X0245996Y0283267D01*
X0245987Y0283220D01*
X0245974Y0283173D01*
X0245957Y0283128D01*
X0245937Y0283084D01*
X0245913Y0283042D01*
X0245886Y0283001D01*
X0245856Y0282963D01*
X0245823Y0282928D01*
X0245788Y0282895D01*
X0245750Y0282865D01*
X0245709Y0282838D01*
X0245667Y0282814D01*
X0245623Y0282794D01*
X0245578Y0282777D01*
X0245531Y0282764D01*
X0245484Y0282755D01*
X0245435Y0282749D01*
X0245387Y0282747D01*
X0245182Y0282747D01*
X0243724Y0283364D02*
X0243724Y0286447D01*
X0243724Y0283364D02*
X0243722Y0283316D01*
X0243716Y0283267D01*
X0243707Y0283220D01*
X0243694Y0283173D01*
X0243677Y0283128D01*
X0243657Y0283084D01*
X0243633Y0283042D01*
X0243606Y0283001D01*
X0243576Y0282963D01*
X0243543Y0282928D01*
X0243508Y0282895D01*
X0243470Y0282865D01*
X0243429Y0282838D01*
X0243387Y0282814D01*
X0243343Y0282794D01*
X0243298Y0282777D01*
X0243251Y0282764D01*
X0243204Y0282755D01*
X0243155Y0282749D01*
X0243107Y0282747D01*
X0242902Y0282747D01*
X0242385Y0280447D02*
X0240740Y0280447D01*
X0242385Y0280447D02*
X0242385Y0276747D01*
X0240740Y0276747D01*
X0241152Y0278802D02*
X0242385Y0278802D01*
X0247726Y0282747D02*
X0247726Y0284597D01*
X0247726Y0284186D02*
X0248651Y0284186D01*
X0247725Y0284597D02*
X0247727Y0284645D01*
X0247733Y0284694D01*
X0247742Y0284741D01*
X0247755Y0284788D01*
X0247772Y0284833D01*
X0247792Y0284877D01*
X0247816Y0284919D01*
X0247843Y0284960D01*
X0247873Y0284998D01*
X0247906Y0285033D01*
X0247941Y0285066D01*
X0247979Y0285096D01*
X0248020Y0285123D01*
X0248062Y0285147D01*
X0248106Y0285167D01*
X0248151Y0285184D01*
X0248198Y0285197D01*
X0248245Y0285206D01*
X0248294Y0285212D01*
X0248342Y0285214D01*
X0249165Y0285214D01*
X0248651Y0284185D02*
X0248703Y0284183D01*
X0248756Y0284177D01*
X0248807Y0284168D01*
X0248858Y0284155D01*
X0248908Y0284138D01*
X0248956Y0284117D01*
X0249003Y0284093D01*
X0249048Y0284066D01*
X0249090Y0284035D01*
X0249131Y0284001D01*
X0249169Y0283965D01*
X0249204Y0283926D01*
X0249236Y0283884D01*
X0249265Y0283841D01*
X0249290Y0283795D01*
X0249313Y0283747D01*
X0249331Y0283698D01*
X0249347Y0283648D01*
X0249358Y0283597D01*
X0249366Y0283545D01*
X0249370Y0283492D01*
X0249370Y0283440D01*
X0249366Y0283387D01*
X0249358Y0283335D01*
X0249347Y0283284D01*
X0249331Y0283234D01*
X0249313Y0283185D01*
X0249290Y0283137D01*
X0249265Y0283091D01*
X0249236Y0283048D01*
X0249204Y0283006D01*
X0249169Y0282967D01*
X0249131Y0282931D01*
X0249090Y0282897D01*
X0249048Y0282866D01*
X0249003Y0282839D01*
X0248956Y0282815D01*
X0248908Y0282794D01*
X0248858Y0282777D01*
X0248807Y0282764D01*
X0248756Y0282755D01*
X0248703Y0282749D01*
X0248651Y0282747D01*
X0247726Y0282747D01*
X0251718Y0282747D02*
X0252746Y0282747D01*
X0252746Y0286447D01*
X0251718Y0286447D01*
X0251662Y0286445D01*
X0251606Y0286439D01*
X0251551Y0286430D01*
X0251496Y0286417D01*
X0251443Y0286400D01*
X0251391Y0286379D01*
X0251340Y0286355D01*
X0251291Y0286327D01*
X0251244Y0286297D01*
X0251199Y0286263D01*
X0251157Y0286226D01*
X0251117Y0286186D01*
X0251080Y0286144D01*
X0251046Y0286099D01*
X0251016Y0286052D01*
X0250988Y0286003D01*
X0250964Y0285952D01*
X0250943Y0285900D01*
X0250926Y0285847D01*
X0250913Y0285792D01*
X0250904Y0285737D01*
X0250898Y0285681D01*
X0250896Y0285625D01*
X0250898Y0285569D01*
X0250904Y0285513D01*
X0250913Y0285458D01*
X0250926Y0285403D01*
X0250943Y0285350D01*
X0250964Y0285298D01*
X0250988Y0285247D01*
X0251016Y0285198D01*
X0251046Y0285151D01*
X0251080Y0285106D01*
X0251117Y0285064D01*
X0251157Y0285024D01*
X0251199Y0284987D01*
X0251244Y0284953D01*
X0251291Y0284923D01*
X0251340Y0284895D01*
X0251391Y0284871D01*
X0251443Y0284850D01*
X0251496Y0284833D01*
X0251551Y0284820D01*
X0251606Y0284811D01*
X0251662Y0284805D01*
X0251718Y0284803D01*
X0251718Y0284802D02*
X0252746Y0284802D01*
X0251718Y0284803D02*
X0251655Y0284801D01*
X0251592Y0284795D01*
X0251529Y0284785D01*
X0251467Y0284772D01*
X0251406Y0284755D01*
X0251347Y0284734D01*
X0251288Y0284709D01*
X0251232Y0284681D01*
X0251177Y0284649D01*
X0251124Y0284614D01*
X0251074Y0284576D01*
X0251025Y0284535D01*
X0250980Y0284491D01*
X0250937Y0284444D01*
X0250898Y0284395D01*
X0250861Y0284343D01*
X0250828Y0284289D01*
X0250798Y0284233D01*
X0250771Y0284176D01*
X0250748Y0284117D01*
X0250729Y0284056D01*
X0250714Y0283995D01*
X0250702Y0283933D01*
X0250694Y0283870D01*
X0250690Y0283807D01*
X0250690Y0283743D01*
X0250694Y0283680D01*
X0250702Y0283617D01*
X0250714Y0283555D01*
X0250729Y0283494D01*
X0250748Y0283433D01*
X0250771Y0283374D01*
X0250798Y0283317D01*
X0250828Y0283261D01*
X0250861Y0283207D01*
X0250898Y0283155D01*
X0250937Y0283106D01*
X0250980Y0283059D01*
X0251025Y0283015D01*
X0251074Y0282974D01*
X0251124Y0282936D01*
X0251177Y0282901D01*
X0251232Y0282869D01*
X0251288Y0282841D01*
X0251347Y0282816D01*
X0251406Y0282795D01*
X0251467Y0282778D01*
X0251529Y0282765D01*
X0251592Y0282755D01*
X0251655Y0282749D01*
X0251718Y0282747D01*
X0276589Y0293495D02*
X0276589Y0295345D01*
X0276591Y0295393D01*
X0276597Y0295442D01*
X0276606Y0295489D01*
X0276619Y0295536D01*
X0276636Y0295581D01*
X0276656Y0295625D01*
X0276680Y0295667D01*
X0276707Y0295708D01*
X0276737Y0295746D01*
X0276770Y0295781D01*
X0276805Y0295814D01*
X0276843Y0295844D01*
X0276884Y0295871D01*
X0276926Y0295895D01*
X0276970Y0295915D01*
X0277015Y0295932D01*
X0277062Y0295945D01*
X0277109Y0295954D01*
X0277158Y0295960D01*
X0277206Y0295962D01*
X0278234Y0295962D01*
X0278234Y0297195D02*
X0278234Y0293495D01*
X0279671Y0293495D02*
X0280493Y0293495D01*
X0280541Y0293497D01*
X0280590Y0293503D01*
X0280637Y0293512D01*
X0280684Y0293525D01*
X0280729Y0293542D01*
X0280773Y0293562D01*
X0280815Y0293586D01*
X0280856Y0293613D01*
X0280894Y0293643D01*
X0280929Y0293676D01*
X0280962Y0293711D01*
X0280992Y0293749D01*
X0281019Y0293790D01*
X0281043Y0293832D01*
X0281063Y0293876D01*
X0281080Y0293921D01*
X0281093Y0293968D01*
X0281102Y0294015D01*
X0281108Y0294064D01*
X0281110Y0294112D01*
X0281110Y0295345D01*
X0281108Y0295393D01*
X0281102Y0295442D01*
X0281093Y0295489D01*
X0281080Y0295536D01*
X0281063Y0295581D01*
X0281043Y0295625D01*
X0281019Y0295667D01*
X0280992Y0295708D01*
X0280962Y0295746D01*
X0280929Y0295781D01*
X0280894Y0295814D01*
X0280856Y0295844D01*
X0280815Y0295871D01*
X0280773Y0295895D01*
X0280729Y0295915D01*
X0280684Y0295932D01*
X0280637Y0295945D01*
X0280590Y0295954D01*
X0280541Y0295960D01*
X0280493Y0295962D01*
X0279671Y0295962D01*
X0282463Y0295962D02*
X0283697Y0295962D01*
X0284852Y0295962D02*
X0284852Y0293495D01*
X0283285Y0294112D02*
X0283285Y0297195D01*
X0284749Y0297195D02*
X0284749Y0296989D01*
X0284954Y0296989D01*
X0284954Y0297195D01*
X0284749Y0297195D01*
X0286258Y0295962D02*
X0286875Y0293495D01*
X0287492Y0295139D01*
X0288108Y0293495D01*
X0288725Y0295962D01*
X0290475Y0295037D02*
X0291606Y0295653D01*
X0291194Y0297195D02*
X0291118Y0297193D01*
X0291042Y0297187D01*
X0290966Y0297178D01*
X0290891Y0297165D01*
X0290816Y0297148D01*
X0290743Y0297127D01*
X0290670Y0297103D01*
X0290599Y0297076D01*
X0290530Y0297044D01*
X0290461Y0297010D01*
X0290395Y0296972D01*
X0290331Y0296931D01*
X0290269Y0296887D01*
X0291606Y0295654D02*
X0291652Y0295683D01*
X0291695Y0295715D01*
X0291737Y0295749D01*
X0291776Y0295787D01*
X0291813Y0295826D01*
X0291847Y0295868D01*
X0291879Y0295913D01*
X0291907Y0295959D01*
X0291932Y0296007D01*
X0291955Y0296056D01*
X0291973Y0296107D01*
X0291989Y0296159D01*
X0292001Y0296211D01*
X0292010Y0296265D01*
X0292015Y0296319D01*
X0292017Y0296373D01*
X0292016Y0296373D02*
X0292014Y0296429D01*
X0292008Y0296485D01*
X0291999Y0296540D01*
X0291986Y0296595D01*
X0291969Y0296648D01*
X0291948Y0296700D01*
X0291924Y0296751D01*
X0291896Y0296800D01*
X0291866Y0296847D01*
X0291832Y0296892D01*
X0291795Y0296934D01*
X0291755Y0296974D01*
X0291713Y0297011D01*
X0291668Y0297045D01*
X0291621Y0297075D01*
X0291572Y0297103D01*
X0291521Y0297127D01*
X0291469Y0297148D01*
X0291416Y0297165D01*
X0291361Y0297178D01*
X0291306Y0297187D01*
X0291250Y0297193D01*
X0291194Y0297195D01*
X0292119Y0294009D02*
X0292061Y0293953D01*
X0292001Y0293900D01*
X0291938Y0293849D01*
X0291872Y0293802D01*
X0291805Y0293758D01*
X0291735Y0293717D01*
X0291664Y0293679D01*
X0291591Y0293645D01*
X0291517Y0293614D01*
X0291441Y0293586D01*
X0291364Y0293562D01*
X0291286Y0293542D01*
X0291207Y0293525D01*
X0291127Y0293512D01*
X0291047Y0293502D01*
X0290967Y0293497D01*
X0290886Y0293495D01*
X0290830Y0293497D01*
X0290774Y0293503D01*
X0290719Y0293512D01*
X0290664Y0293525D01*
X0290611Y0293542D01*
X0290559Y0293563D01*
X0290508Y0293587D01*
X0290459Y0293615D01*
X0290412Y0293645D01*
X0290367Y0293679D01*
X0290325Y0293716D01*
X0290285Y0293756D01*
X0290248Y0293798D01*
X0290214Y0293843D01*
X0290184Y0293890D01*
X0290156Y0293939D01*
X0290132Y0293990D01*
X0290111Y0294042D01*
X0290094Y0294095D01*
X0290081Y0294150D01*
X0290072Y0294205D01*
X0290066Y0294261D01*
X0290064Y0294317D01*
X0290066Y0294371D01*
X0290071Y0294425D01*
X0290080Y0294479D01*
X0290092Y0294531D01*
X0290108Y0294583D01*
X0290126Y0294634D01*
X0290149Y0294683D01*
X0290174Y0294731D01*
X0290202Y0294777D01*
X0290234Y0294822D01*
X0290268Y0294864D01*
X0290305Y0294903D01*
X0290344Y0294941D01*
X0290386Y0294975D01*
X0290429Y0295007D01*
X0290475Y0295036D01*
X0290630Y0291195D02*
X0290630Y0288112D01*
X0290628Y0288064D01*
X0290622Y0288015D01*
X0290613Y0287968D01*
X0290600Y0287921D01*
X0290583Y0287876D01*
X0290563Y0287832D01*
X0290539Y0287790D01*
X0290512Y0287749D01*
X0290482Y0287711D01*
X0290449Y0287676D01*
X0290414Y0287643D01*
X0290376Y0287613D01*
X0290335Y0287586D01*
X0290293Y0287562D01*
X0290249Y0287542D01*
X0290204Y0287525D01*
X0290157Y0287512D01*
X0290110Y0287503D01*
X0290061Y0287497D01*
X0290013Y0287495D01*
X0288759Y0288112D02*
X0288759Y0289139D01*
X0288759Y0288728D02*
X0287115Y0288728D01*
X0287115Y0289139D01*
X0287117Y0289195D01*
X0287123Y0289251D01*
X0287132Y0289306D01*
X0287145Y0289361D01*
X0287162Y0289414D01*
X0287183Y0289466D01*
X0287207Y0289517D01*
X0287235Y0289566D01*
X0287265Y0289613D01*
X0287299Y0289658D01*
X0287336Y0289700D01*
X0287376Y0289740D01*
X0287418Y0289777D01*
X0287463Y0289811D01*
X0287510Y0289841D01*
X0287559Y0289869D01*
X0287610Y0289893D01*
X0287662Y0289914D01*
X0287715Y0289931D01*
X0287770Y0289944D01*
X0287825Y0289953D01*
X0287881Y0289959D01*
X0287937Y0289961D01*
X0287993Y0289959D01*
X0288049Y0289953D01*
X0288104Y0289944D01*
X0288159Y0289931D01*
X0288212Y0289914D01*
X0288264Y0289893D01*
X0288315Y0289869D01*
X0288364Y0289841D01*
X0288411Y0289811D01*
X0288456Y0289777D01*
X0288498Y0289740D01*
X0288538Y0289700D01*
X0288575Y0289658D01*
X0288609Y0289613D01*
X0288639Y0289566D01*
X0288667Y0289517D01*
X0288691Y0289466D01*
X0288712Y0289414D01*
X0288729Y0289361D01*
X0288742Y0289306D01*
X0288751Y0289251D01*
X0288757Y0289195D01*
X0288759Y0289139D01*
X0288760Y0288112D02*
X0288758Y0288064D01*
X0288752Y0288015D01*
X0288743Y0287968D01*
X0288730Y0287921D01*
X0288713Y0287876D01*
X0288693Y0287832D01*
X0288669Y0287790D01*
X0288642Y0287749D01*
X0288612Y0287711D01*
X0288579Y0287676D01*
X0288544Y0287643D01*
X0288506Y0287613D01*
X0288465Y0287586D01*
X0288423Y0287562D01*
X0288379Y0287542D01*
X0288334Y0287525D01*
X0288287Y0287512D01*
X0288240Y0287503D01*
X0288191Y0287497D01*
X0288143Y0287495D01*
X0287115Y0287495D01*
X0292137Y0288112D02*
X0292137Y0289345D01*
X0292139Y0289393D01*
X0292145Y0289442D01*
X0292154Y0289489D01*
X0292167Y0289536D01*
X0292184Y0289581D01*
X0292204Y0289625D01*
X0292228Y0289667D01*
X0292255Y0289708D01*
X0292285Y0289746D01*
X0292318Y0289781D01*
X0292353Y0289814D01*
X0292391Y0289844D01*
X0292432Y0289871D01*
X0292474Y0289895D01*
X0292518Y0289915D01*
X0292563Y0289932D01*
X0292610Y0289945D01*
X0292657Y0289954D01*
X0292706Y0289960D01*
X0292754Y0289962D01*
X0293781Y0289962D01*
X0293781Y0291195D02*
X0293781Y0287495D01*
X0292754Y0287495D01*
X0292706Y0287497D01*
X0292657Y0287503D01*
X0292610Y0287512D01*
X0292563Y0287525D01*
X0292518Y0287542D01*
X0292474Y0287562D01*
X0292432Y0287586D01*
X0292391Y0287613D01*
X0292353Y0287643D01*
X0292318Y0287676D01*
X0292285Y0287711D01*
X0292255Y0287749D01*
X0292228Y0287790D01*
X0292204Y0287832D01*
X0292184Y0287876D01*
X0292167Y0287921D01*
X0292154Y0287968D01*
X0292145Y0288015D01*
X0292139Y0288064D01*
X0292137Y0288112D01*
X0295533Y0287495D02*
X0295533Y0289345D01*
X0295533Y0288934D02*
X0296458Y0288934D01*
X0295533Y0289345D02*
X0295535Y0289393D01*
X0295541Y0289442D01*
X0295550Y0289489D01*
X0295563Y0289536D01*
X0295580Y0289581D01*
X0295600Y0289625D01*
X0295624Y0289667D01*
X0295651Y0289708D01*
X0295681Y0289746D01*
X0295714Y0289781D01*
X0295749Y0289814D01*
X0295787Y0289844D01*
X0295828Y0289871D01*
X0295870Y0289895D01*
X0295914Y0289915D01*
X0295959Y0289932D01*
X0296006Y0289945D01*
X0296053Y0289954D01*
X0296102Y0289960D01*
X0296150Y0289962D01*
X0296972Y0289962D01*
X0296458Y0288933D02*
X0296510Y0288931D01*
X0296563Y0288925D01*
X0296614Y0288916D01*
X0296665Y0288903D01*
X0296715Y0288886D01*
X0296763Y0288865D01*
X0296810Y0288841D01*
X0296855Y0288814D01*
X0296897Y0288783D01*
X0296938Y0288749D01*
X0296976Y0288713D01*
X0297011Y0288674D01*
X0297043Y0288632D01*
X0297072Y0288589D01*
X0297097Y0288543D01*
X0297120Y0288495D01*
X0297138Y0288446D01*
X0297154Y0288396D01*
X0297165Y0288345D01*
X0297173Y0288293D01*
X0297177Y0288240D01*
X0297177Y0288188D01*
X0297173Y0288135D01*
X0297165Y0288083D01*
X0297154Y0288032D01*
X0297138Y0287982D01*
X0297120Y0287933D01*
X0297097Y0287885D01*
X0297072Y0287839D01*
X0297043Y0287796D01*
X0297011Y0287754D01*
X0296976Y0287715D01*
X0296938Y0287679D01*
X0296897Y0287645D01*
X0296855Y0287614D01*
X0296810Y0287587D01*
X0296763Y0287563D01*
X0296715Y0287542D01*
X0296665Y0287525D01*
X0296614Y0287512D01*
X0296563Y0287503D01*
X0296510Y0287497D01*
X0296458Y0287495D01*
X0295533Y0287495D01*
X0298755Y0287495D02*
X0298755Y0289345D01*
X0298757Y0289393D01*
X0298763Y0289442D01*
X0298772Y0289489D01*
X0298785Y0289536D01*
X0298802Y0289581D01*
X0298822Y0289625D01*
X0298846Y0289667D01*
X0298873Y0289708D01*
X0298903Y0289746D01*
X0298936Y0289781D01*
X0298971Y0289814D01*
X0299009Y0289844D01*
X0299050Y0289871D01*
X0299092Y0289895D01*
X0299136Y0289915D01*
X0299181Y0289932D01*
X0299228Y0289945D01*
X0299275Y0289954D01*
X0299324Y0289960D01*
X0299372Y0289962D01*
X0300399Y0289962D01*
X0300399Y0287495D01*
X0301834Y0287495D02*
X0303478Y0287495D01*
X0303478Y0291195D01*
X0301834Y0291195D01*
X0302245Y0289550D02*
X0303478Y0289550D01*
X0303487Y0293495D02*
X0303487Y0295345D01*
X0303487Y0294934D02*
X0304412Y0294934D01*
X0303487Y0295345D02*
X0303489Y0295393D01*
X0303495Y0295442D01*
X0303504Y0295489D01*
X0303517Y0295536D01*
X0303534Y0295581D01*
X0303554Y0295625D01*
X0303578Y0295667D01*
X0303605Y0295708D01*
X0303635Y0295746D01*
X0303668Y0295781D01*
X0303703Y0295814D01*
X0303741Y0295844D01*
X0303782Y0295871D01*
X0303824Y0295895D01*
X0303868Y0295915D01*
X0303913Y0295932D01*
X0303960Y0295945D01*
X0304007Y0295954D01*
X0304056Y0295960D01*
X0304104Y0295962D01*
X0304926Y0295962D01*
X0304412Y0294933D02*
X0304464Y0294931D01*
X0304517Y0294925D01*
X0304568Y0294916D01*
X0304619Y0294903D01*
X0304669Y0294886D01*
X0304717Y0294865D01*
X0304764Y0294841D01*
X0304809Y0294814D01*
X0304851Y0294783D01*
X0304892Y0294749D01*
X0304930Y0294713D01*
X0304965Y0294674D01*
X0304997Y0294632D01*
X0305026Y0294589D01*
X0305051Y0294543D01*
X0305074Y0294495D01*
X0305092Y0294446D01*
X0305108Y0294396D01*
X0305119Y0294345D01*
X0305127Y0294293D01*
X0305131Y0294240D01*
X0305131Y0294188D01*
X0305127Y0294135D01*
X0305119Y0294083D01*
X0305108Y0294032D01*
X0305092Y0293982D01*
X0305074Y0293933D01*
X0305051Y0293885D01*
X0305026Y0293839D01*
X0304997Y0293796D01*
X0304965Y0293754D01*
X0304930Y0293715D01*
X0304892Y0293679D01*
X0304851Y0293645D01*
X0304809Y0293614D01*
X0304764Y0293587D01*
X0304717Y0293563D01*
X0304669Y0293542D01*
X0304619Y0293525D01*
X0304568Y0293512D01*
X0304517Y0293503D01*
X0304464Y0293497D01*
X0304412Y0293495D01*
X0303487Y0293495D01*
X0301765Y0294112D02*
X0301765Y0297195D01*
X0302176Y0295962D02*
X0300943Y0295962D01*
X0299594Y0295139D02*
X0299594Y0294112D01*
X0299594Y0294728D02*
X0297949Y0294728D01*
X0297949Y0295139D01*
X0297950Y0295139D02*
X0297952Y0295195D01*
X0297958Y0295251D01*
X0297967Y0295306D01*
X0297980Y0295361D01*
X0297997Y0295414D01*
X0298018Y0295466D01*
X0298042Y0295517D01*
X0298070Y0295566D01*
X0298100Y0295613D01*
X0298134Y0295658D01*
X0298171Y0295700D01*
X0298211Y0295740D01*
X0298253Y0295777D01*
X0298298Y0295811D01*
X0298345Y0295841D01*
X0298394Y0295869D01*
X0298445Y0295893D01*
X0298497Y0295914D01*
X0298550Y0295931D01*
X0298605Y0295944D01*
X0298660Y0295953D01*
X0298716Y0295959D01*
X0298772Y0295961D01*
X0298828Y0295959D01*
X0298884Y0295953D01*
X0298939Y0295944D01*
X0298994Y0295931D01*
X0299047Y0295914D01*
X0299099Y0295893D01*
X0299150Y0295869D01*
X0299199Y0295841D01*
X0299246Y0295811D01*
X0299291Y0295777D01*
X0299333Y0295740D01*
X0299373Y0295700D01*
X0299410Y0295658D01*
X0299444Y0295613D01*
X0299474Y0295566D01*
X0299502Y0295517D01*
X0299526Y0295466D01*
X0299547Y0295414D01*
X0299564Y0295361D01*
X0299577Y0295306D01*
X0299586Y0295251D01*
X0299592Y0295195D01*
X0299594Y0295139D01*
X0299594Y0294112D02*
X0299592Y0294064D01*
X0299586Y0294015D01*
X0299577Y0293968D01*
X0299564Y0293921D01*
X0299547Y0293876D01*
X0299527Y0293832D01*
X0299503Y0293790D01*
X0299476Y0293749D01*
X0299446Y0293711D01*
X0299413Y0293676D01*
X0299378Y0293643D01*
X0299340Y0293613D01*
X0299299Y0293586D01*
X0299257Y0293562D01*
X0299213Y0293542D01*
X0299168Y0293525D01*
X0299121Y0293512D01*
X0299074Y0293503D01*
X0299025Y0293497D01*
X0298977Y0293495D01*
X0297949Y0293495D01*
X0296334Y0293495D02*
X0296334Y0295962D01*
X0295100Y0295962D01*
X0295100Y0295550D01*
X0300943Y0293495D02*
X0301149Y0293495D01*
X0301197Y0293497D01*
X0301246Y0293503D01*
X0301293Y0293512D01*
X0301340Y0293525D01*
X0301385Y0293542D01*
X0301429Y0293562D01*
X0301471Y0293586D01*
X0301512Y0293613D01*
X0301550Y0293643D01*
X0301585Y0293676D01*
X0301618Y0293711D01*
X0301648Y0293749D01*
X0301675Y0293790D01*
X0301699Y0293832D01*
X0301719Y0293876D01*
X0301736Y0293921D01*
X0301749Y0293968D01*
X0301758Y0294015D01*
X0301764Y0294064D01*
X0301766Y0294112D01*
X0306589Y0294728D02*
X0308234Y0294728D01*
X0308234Y0295139D02*
X0308234Y0294112D01*
X0308232Y0294064D01*
X0308226Y0294015D01*
X0308217Y0293968D01*
X0308204Y0293921D01*
X0308187Y0293876D01*
X0308167Y0293832D01*
X0308143Y0293790D01*
X0308116Y0293749D01*
X0308086Y0293711D01*
X0308053Y0293676D01*
X0308018Y0293643D01*
X0307980Y0293613D01*
X0307939Y0293586D01*
X0307897Y0293562D01*
X0307853Y0293542D01*
X0307808Y0293525D01*
X0307761Y0293512D01*
X0307714Y0293503D01*
X0307665Y0293497D01*
X0307617Y0293495D01*
X0306589Y0293495D01*
X0306589Y0294728D02*
X0306589Y0295139D01*
X0306590Y0295139D02*
X0306592Y0295195D01*
X0306598Y0295251D01*
X0306607Y0295306D01*
X0306620Y0295361D01*
X0306637Y0295414D01*
X0306658Y0295466D01*
X0306682Y0295517D01*
X0306710Y0295566D01*
X0306740Y0295613D01*
X0306774Y0295658D01*
X0306811Y0295700D01*
X0306851Y0295740D01*
X0306893Y0295777D01*
X0306938Y0295811D01*
X0306985Y0295841D01*
X0307034Y0295869D01*
X0307085Y0295893D01*
X0307137Y0295914D01*
X0307190Y0295931D01*
X0307245Y0295944D01*
X0307300Y0295953D01*
X0307356Y0295959D01*
X0307412Y0295961D01*
X0307468Y0295959D01*
X0307524Y0295953D01*
X0307579Y0295944D01*
X0307634Y0295931D01*
X0307687Y0295914D01*
X0307739Y0295893D01*
X0307790Y0295869D01*
X0307839Y0295841D01*
X0307886Y0295811D01*
X0307931Y0295777D01*
X0307973Y0295740D01*
X0308013Y0295700D01*
X0308050Y0295658D01*
X0308084Y0295613D01*
X0308114Y0295566D01*
X0308142Y0295517D01*
X0308166Y0295466D01*
X0308187Y0295414D01*
X0308204Y0295361D01*
X0308217Y0295306D01*
X0308226Y0295251D01*
X0308232Y0295195D01*
X0308234Y0295139D01*
X0309864Y0295550D02*
X0311919Y0295550D01*
X0311919Y0297195D02*
X0311919Y0293495D01*
X0309864Y0293495D02*
X0309864Y0297195D01*
X0283286Y0294112D02*
X0283284Y0294064D01*
X0283278Y0294015D01*
X0283269Y0293968D01*
X0283256Y0293921D01*
X0283239Y0293876D01*
X0283219Y0293832D01*
X0283195Y0293790D01*
X0283168Y0293749D01*
X0283138Y0293711D01*
X0283105Y0293676D01*
X0283070Y0293643D01*
X0283032Y0293613D01*
X0282991Y0293586D01*
X0282949Y0293562D01*
X0282905Y0293542D01*
X0282860Y0293525D01*
X0282813Y0293512D01*
X0282766Y0293503D01*
X0282717Y0293497D01*
X0282669Y0293495D01*
X0282463Y0293495D01*
D14*
X0279865Y0291361D02*
X0277739Y0289235D01*
X0277620Y0289235D01*
X0279431Y0287424D01*
X0279510Y0287424D01*
X0277817Y0289195D02*
X0279865Y0291243D01*
X0279865Y0291361D01*
X0277817Y0289195D02*
X0286912Y0289195D01*
X0254195Y0279471D02*
X0252384Y0281282D01*
X0253998Y0279510D02*
X0251951Y0277463D01*
X0253998Y0279510D02*
X0244904Y0279510D01*
D15*
X0003172Y0335849D02*
X0003172Y0020888D01*
X0022857Y0001203D01*
X0337817Y0001203D01*
X0357502Y0020888D01*
X0357502Y0335849D01*
X0337817Y0355534D01*
X0022857Y0355534D01*
X0003172Y0335849D01*
X0092738Y0279746D02*
X0092740Y0279915D01*
X0092746Y0280084D01*
X0092757Y0280253D01*
X0092771Y0280421D01*
X0092790Y0280589D01*
X0092813Y0280757D01*
X0092839Y0280924D01*
X0092870Y0281090D01*
X0092905Y0281256D01*
X0092944Y0281420D01*
X0092988Y0281584D01*
X0093035Y0281746D01*
X0093086Y0281907D01*
X0093141Y0282067D01*
X0093200Y0282226D01*
X0093262Y0282383D01*
X0093329Y0282538D01*
X0093400Y0282692D01*
X0093474Y0282844D01*
X0093552Y0282994D01*
X0093633Y0283142D01*
X0093718Y0283288D01*
X0093807Y0283432D01*
X0093899Y0283574D01*
X0093995Y0283713D01*
X0094094Y0283850D01*
X0094196Y0283985D01*
X0094302Y0284117D01*
X0094411Y0284246D01*
X0094523Y0284373D01*
X0094638Y0284497D01*
X0094756Y0284618D01*
X0094877Y0284736D01*
X0095001Y0284851D01*
X0095128Y0284963D01*
X0095257Y0285072D01*
X0095389Y0285178D01*
X0095524Y0285280D01*
X0095661Y0285379D01*
X0095800Y0285475D01*
X0095942Y0285567D01*
X0096086Y0285656D01*
X0096232Y0285741D01*
X0096380Y0285822D01*
X0096530Y0285900D01*
X0096682Y0285974D01*
X0096836Y0286045D01*
X0096991Y0286112D01*
X0097148Y0286174D01*
X0097307Y0286233D01*
X0097467Y0286288D01*
X0097628Y0286339D01*
X0097790Y0286386D01*
X0097954Y0286430D01*
X0098118Y0286469D01*
X0098284Y0286504D01*
X0098450Y0286535D01*
X0098617Y0286561D01*
X0098785Y0286584D01*
X0098953Y0286603D01*
X0099121Y0286617D01*
X0099290Y0286628D01*
X0099459Y0286634D01*
X0099628Y0286636D01*
X0099797Y0286634D01*
X0099966Y0286628D01*
X0100135Y0286617D01*
X0100303Y0286603D01*
X0100471Y0286584D01*
X0100639Y0286561D01*
X0100806Y0286535D01*
X0100972Y0286504D01*
X0101138Y0286469D01*
X0101302Y0286430D01*
X0101466Y0286386D01*
X0101628Y0286339D01*
X0101789Y0286288D01*
X0101949Y0286233D01*
X0102108Y0286174D01*
X0102265Y0286112D01*
X0102420Y0286045D01*
X0102574Y0285974D01*
X0102726Y0285900D01*
X0102876Y0285822D01*
X0103024Y0285741D01*
X0103170Y0285656D01*
X0103314Y0285567D01*
X0103456Y0285475D01*
X0103595Y0285379D01*
X0103732Y0285280D01*
X0103867Y0285178D01*
X0103999Y0285072D01*
X0104128Y0284963D01*
X0104255Y0284851D01*
X0104379Y0284736D01*
X0104500Y0284618D01*
X0104618Y0284497D01*
X0104733Y0284373D01*
X0104845Y0284246D01*
X0104954Y0284117D01*
X0105060Y0283985D01*
X0105162Y0283850D01*
X0105261Y0283713D01*
X0105357Y0283574D01*
X0105449Y0283432D01*
X0105538Y0283288D01*
X0105623Y0283142D01*
X0105704Y0282994D01*
X0105782Y0282844D01*
X0105856Y0282692D01*
X0105927Y0282538D01*
X0105994Y0282383D01*
X0106056Y0282226D01*
X0106115Y0282067D01*
X0106170Y0281907D01*
X0106221Y0281746D01*
X0106268Y0281584D01*
X0106312Y0281420D01*
X0106351Y0281256D01*
X0106386Y0281090D01*
X0106417Y0280924D01*
X0106443Y0280757D01*
X0106466Y0280589D01*
X0106485Y0280421D01*
X0106499Y0280253D01*
X0106510Y0280084D01*
X0106516Y0279915D01*
X0106518Y0279746D01*
X0106516Y0279577D01*
X0106510Y0279408D01*
X0106499Y0279239D01*
X0106485Y0279071D01*
X0106466Y0278903D01*
X0106443Y0278735D01*
X0106417Y0278568D01*
X0106386Y0278402D01*
X0106351Y0278236D01*
X0106312Y0278072D01*
X0106268Y0277908D01*
X0106221Y0277746D01*
X0106170Y0277585D01*
X0106115Y0277425D01*
X0106056Y0277266D01*
X0105994Y0277109D01*
X0105927Y0276954D01*
X0105856Y0276800D01*
X0105782Y0276648D01*
X0105704Y0276498D01*
X0105623Y0276350D01*
X0105538Y0276204D01*
X0105449Y0276060D01*
X0105357Y0275918D01*
X0105261Y0275779D01*
X0105162Y0275642D01*
X0105060Y0275507D01*
X0104954Y0275375D01*
X0104845Y0275246D01*
X0104733Y0275119D01*
X0104618Y0274995D01*
X0104500Y0274874D01*
X0104379Y0274756D01*
X0104255Y0274641D01*
X0104128Y0274529D01*
X0103999Y0274420D01*
X0103867Y0274314D01*
X0103732Y0274212D01*
X0103595Y0274113D01*
X0103456Y0274017D01*
X0103314Y0273925D01*
X0103170Y0273836D01*
X0103024Y0273751D01*
X0102876Y0273670D01*
X0102726Y0273592D01*
X0102574Y0273518D01*
X0102420Y0273447D01*
X0102265Y0273380D01*
X0102108Y0273318D01*
X0101949Y0273259D01*
X0101789Y0273204D01*
X0101628Y0273153D01*
X0101466Y0273106D01*
X0101302Y0273062D01*
X0101138Y0273023D01*
X0100972Y0272988D01*
X0100806Y0272957D01*
X0100639Y0272931D01*
X0100471Y0272908D01*
X0100303Y0272889D01*
X0100135Y0272875D01*
X0099966Y0272864D01*
X0099797Y0272858D01*
X0099628Y0272856D01*
X0099459Y0272858D01*
X0099290Y0272864D01*
X0099121Y0272875D01*
X0098953Y0272889D01*
X0098785Y0272908D01*
X0098617Y0272931D01*
X0098450Y0272957D01*
X0098284Y0272988D01*
X0098118Y0273023D01*
X0097954Y0273062D01*
X0097790Y0273106D01*
X0097628Y0273153D01*
X0097467Y0273204D01*
X0097307Y0273259D01*
X0097148Y0273318D01*
X0096991Y0273380D01*
X0096836Y0273447D01*
X0096682Y0273518D01*
X0096530Y0273592D01*
X0096380Y0273670D01*
X0096232Y0273751D01*
X0096086Y0273836D01*
X0095942Y0273925D01*
X0095800Y0274017D01*
X0095661Y0274113D01*
X0095524Y0274212D01*
X0095389Y0274314D01*
X0095257Y0274420D01*
X0095128Y0274529D01*
X0095001Y0274641D01*
X0094877Y0274756D01*
X0094756Y0274874D01*
X0094638Y0274995D01*
X0094523Y0275119D01*
X0094411Y0275246D01*
X0094302Y0275375D01*
X0094196Y0275507D01*
X0094094Y0275642D01*
X0093995Y0275779D01*
X0093899Y0275918D01*
X0093807Y0276060D01*
X0093718Y0276204D01*
X0093633Y0276350D01*
X0093552Y0276498D01*
X0093474Y0276648D01*
X0093400Y0276800D01*
X0093329Y0276954D01*
X0093262Y0277109D01*
X0093200Y0277266D01*
X0093141Y0277425D01*
X0093086Y0277585D01*
X0093035Y0277746D01*
X0092988Y0277908D01*
X0092944Y0278072D01*
X0092905Y0278236D01*
X0092870Y0278402D01*
X0092839Y0278568D01*
X0092813Y0278735D01*
X0092790Y0278903D01*
X0092771Y0279071D01*
X0092757Y0279239D01*
X0092746Y0279408D01*
X0092740Y0279577D01*
X0092738Y0279746D01*
X0092738Y0143920D02*
X0092740Y0144089D01*
X0092746Y0144258D01*
X0092757Y0144427D01*
X0092771Y0144595D01*
X0092790Y0144763D01*
X0092813Y0144931D01*
X0092839Y0145098D01*
X0092870Y0145264D01*
X0092905Y0145430D01*
X0092944Y0145594D01*
X0092988Y0145758D01*
X0093035Y0145920D01*
X0093086Y0146081D01*
X0093141Y0146241D01*
X0093200Y0146400D01*
X0093262Y0146557D01*
X0093329Y0146712D01*
X0093400Y0146866D01*
X0093474Y0147018D01*
X0093552Y0147168D01*
X0093633Y0147316D01*
X0093718Y0147462D01*
X0093807Y0147606D01*
X0093899Y0147748D01*
X0093995Y0147887D01*
X0094094Y0148024D01*
X0094196Y0148159D01*
X0094302Y0148291D01*
X0094411Y0148420D01*
X0094523Y0148547D01*
X0094638Y0148671D01*
X0094756Y0148792D01*
X0094877Y0148910D01*
X0095001Y0149025D01*
X0095128Y0149137D01*
X0095257Y0149246D01*
X0095389Y0149352D01*
X0095524Y0149454D01*
X0095661Y0149553D01*
X0095800Y0149649D01*
X0095942Y0149741D01*
X0096086Y0149830D01*
X0096232Y0149915D01*
X0096380Y0149996D01*
X0096530Y0150074D01*
X0096682Y0150148D01*
X0096836Y0150219D01*
X0096991Y0150286D01*
X0097148Y0150348D01*
X0097307Y0150407D01*
X0097467Y0150462D01*
X0097628Y0150513D01*
X0097790Y0150560D01*
X0097954Y0150604D01*
X0098118Y0150643D01*
X0098284Y0150678D01*
X0098450Y0150709D01*
X0098617Y0150735D01*
X0098785Y0150758D01*
X0098953Y0150777D01*
X0099121Y0150791D01*
X0099290Y0150802D01*
X0099459Y0150808D01*
X0099628Y0150810D01*
X0099797Y0150808D01*
X0099966Y0150802D01*
X0100135Y0150791D01*
X0100303Y0150777D01*
X0100471Y0150758D01*
X0100639Y0150735D01*
X0100806Y0150709D01*
X0100972Y0150678D01*
X0101138Y0150643D01*
X0101302Y0150604D01*
X0101466Y0150560D01*
X0101628Y0150513D01*
X0101789Y0150462D01*
X0101949Y0150407D01*
X0102108Y0150348D01*
X0102265Y0150286D01*
X0102420Y0150219D01*
X0102574Y0150148D01*
X0102726Y0150074D01*
X0102876Y0149996D01*
X0103024Y0149915D01*
X0103170Y0149830D01*
X0103314Y0149741D01*
X0103456Y0149649D01*
X0103595Y0149553D01*
X0103732Y0149454D01*
X0103867Y0149352D01*
X0103999Y0149246D01*
X0104128Y0149137D01*
X0104255Y0149025D01*
X0104379Y0148910D01*
X0104500Y0148792D01*
X0104618Y0148671D01*
X0104733Y0148547D01*
X0104845Y0148420D01*
X0104954Y0148291D01*
X0105060Y0148159D01*
X0105162Y0148024D01*
X0105261Y0147887D01*
X0105357Y0147748D01*
X0105449Y0147606D01*
X0105538Y0147462D01*
X0105623Y0147316D01*
X0105704Y0147168D01*
X0105782Y0147018D01*
X0105856Y0146866D01*
X0105927Y0146712D01*
X0105994Y0146557D01*
X0106056Y0146400D01*
X0106115Y0146241D01*
X0106170Y0146081D01*
X0106221Y0145920D01*
X0106268Y0145758D01*
X0106312Y0145594D01*
X0106351Y0145430D01*
X0106386Y0145264D01*
X0106417Y0145098D01*
X0106443Y0144931D01*
X0106466Y0144763D01*
X0106485Y0144595D01*
X0106499Y0144427D01*
X0106510Y0144258D01*
X0106516Y0144089D01*
X0106518Y0143920D01*
X0106516Y0143751D01*
X0106510Y0143582D01*
X0106499Y0143413D01*
X0106485Y0143245D01*
X0106466Y0143077D01*
X0106443Y0142909D01*
X0106417Y0142742D01*
X0106386Y0142576D01*
X0106351Y0142410D01*
X0106312Y0142246D01*
X0106268Y0142082D01*
X0106221Y0141920D01*
X0106170Y0141759D01*
X0106115Y0141599D01*
X0106056Y0141440D01*
X0105994Y0141283D01*
X0105927Y0141128D01*
X0105856Y0140974D01*
X0105782Y0140822D01*
X0105704Y0140672D01*
X0105623Y0140524D01*
X0105538Y0140378D01*
X0105449Y0140234D01*
X0105357Y0140092D01*
X0105261Y0139953D01*
X0105162Y0139816D01*
X0105060Y0139681D01*
X0104954Y0139549D01*
X0104845Y0139420D01*
X0104733Y0139293D01*
X0104618Y0139169D01*
X0104500Y0139048D01*
X0104379Y0138930D01*
X0104255Y0138815D01*
X0104128Y0138703D01*
X0103999Y0138594D01*
X0103867Y0138488D01*
X0103732Y0138386D01*
X0103595Y0138287D01*
X0103456Y0138191D01*
X0103314Y0138099D01*
X0103170Y0138010D01*
X0103024Y0137925D01*
X0102876Y0137844D01*
X0102726Y0137766D01*
X0102574Y0137692D01*
X0102420Y0137621D01*
X0102265Y0137554D01*
X0102108Y0137492D01*
X0101949Y0137433D01*
X0101789Y0137378D01*
X0101628Y0137327D01*
X0101466Y0137280D01*
X0101302Y0137236D01*
X0101138Y0137197D01*
X0100972Y0137162D01*
X0100806Y0137131D01*
X0100639Y0137105D01*
X0100471Y0137082D01*
X0100303Y0137063D01*
X0100135Y0137049D01*
X0099966Y0137038D01*
X0099797Y0137032D01*
X0099628Y0137030D01*
X0099459Y0137032D01*
X0099290Y0137038D01*
X0099121Y0137049D01*
X0098953Y0137063D01*
X0098785Y0137082D01*
X0098617Y0137105D01*
X0098450Y0137131D01*
X0098284Y0137162D01*
X0098118Y0137197D01*
X0097954Y0137236D01*
X0097790Y0137280D01*
X0097628Y0137327D01*
X0097467Y0137378D01*
X0097307Y0137433D01*
X0097148Y0137492D01*
X0096991Y0137554D01*
X0096836Y0137621D01*
X0096682Y0137692D01*
X0096530Y0137766D01*
X0096380Y0137844D01*
X0096232Y0137925D01*
X0096086Y0138010D01*
X0095942Y0138099D01*
X0095800Y0138191D01*
X0095661Y0138287D01*
X0095524Y0138386D01*
X0095389Y0138488D01*
X0095257Y0138594D01*
X0095128Y0138703D01*
X0095001Y0138815D01*
X0094877Y0138930D01*
X0094756Y0139048D01*
X0094638Y0139169D01*
X0094523Y0139293D01*
X0094411Y0139420D01*
X0094302Y0139549D01*
X0094196Y0139681D01*
X0094094Y0139816D01*
X0093995Y0139953D01*
X0093899Y0140092D01*
X0093807Y0140234D01*
X0093718Y0140378D01*
X0093633Y0140524D01*
X0093552Y0140672D01*
X0093474Y0140822D01*
X0093400Y0140974D01*
X0093329Y0141128D01*
X0093262Y0141283D01*
X0093200Y0141440D01*
X0093141Y0141599D01*
X0093086Y0141759D01*
X0093035Y0141920D01*
X0092988Y0142082D01*
X0092944Y0142246D01*
X0092905Y0142410D01*
X0092870Y0142576D01*
X0092839Y0142742D01*
X0092813Y0142909D01*
X0092790Y0143077D01*
X0092771Y0143245D01*
X0092757Y0143413D01*
X0092746Y0143582D01*
X0092740Y0143751D01*
X0092738Y0143920D01*
X0317148Y0143920D02*
X0317150Y0144089D01*
X0317156Y0144258D01*
X0317167Y0144427D01*
X0317181Y0144595D01*
X0317200Y0144763D01*
X0317223Y0144931D01*
X0317249Y0145098D01*
X0317280Y0145264D01*
X0317315Y0145430D01*
X0317354Y0145594D01*
X0317398Y0145758D01*
X0317445Y0145920D01*
X0317496Y0146081D01*
X0317551Y0146241D01*
X0317610Y0146400D01*
X0317672Y0146557D01*
X0317739Y0146712D01*
X0317810Y0146866D01*
X0317884Y0147018D01*
X0317962Y0147168D01*
X0318043Y0147316D01*
X0318128Y0147462D01*
X0318217Y0147606D01*
X0318309Y0147748D01*
X0318405Y0147887D01*
X0318504Y0148024D01*
X0318606Y0148159D01*
X0318712Y0148291D01*
X0318821Y0148420D01*
X0318933Y0148547D01*
X0319048Y0148671D01*
X0319166Y0148792D01*
X0319287Y0148910D01*
X0319411Y0149025D01*
X0319538Y0149137D01*
X0319667Y0149246D01*
X0319799Y0149352D01*
X0319934Y0149454D01*
X0320071Y0149553D01*
X0320210Y0149649D01*
X0320352Y0149741D01*
X0320496Y0149830D01*
X0320642Y0149915D01*
X0320790Y0149996D01*
X0320940Y0150074D01*
X0321092Y0150148D01*
X0321246Y0150219D01*
X0321401Y0150286D01*
X0321558Y0150348D01*
X0321717Y0150407D01*
X0321877Y0150462D01*
X0322038Y0150513D01*
X0322200Y0150560D01*
X0322364Y0150604D01*
X0322528Y0150643D01*
X0322694Y0150678D01*
X0322860Y0150709D01*
X0323027Y0150735D01*
X0323195Y0150758D01*
X0323363Y0150777D01*
X0323531Y0150791D01*
X0323700Y0150802D01*
X0323869Y0150808D01*
X0324038Y0150810D01*
X0324207Y0150808D01*
X0324376Y0150802D01*
X0324545Y0150791D01*
X0324713Y0150777D01*
X0324881Y0150758D01*
X0325049Y0150735D01*
X0325216Y0150709D01*
X0325382Y0150678D01*
X0325548Y0150643D01*
X0325712Y0150604D01*
X0325876Y0150560D01*
X0326038Y0150513D01*
X0326199Y0150462D01*
X0326359Y0150407D01*
X0326518Y0150348D01*
X0326675Y0150286D01*
X0326830Y0150219D01*
X0326984Y0150148D01*
X0327136Y0150074D01*
X0327286Y0149996D01*
X0327434Y0149915D01*
X0327580Y0149830D01*
X0327724Y0149741D01*
X0327866Y0149649D01*
X0328005Y0149553D01*
X0328142Y0149454D01*
X0328277Y0149352D01*
X0328409Y0149246D01*
X0328538Y0149137D01*
X0328665Y0149025D01*
X0328789Y0148910D01*
X0328910Y0148792D01*
X0329028Y0148671D01*
X0329143Y0148547D01*
X0329255Y0148420D01*
X0329364Y0148291D01*
X0329470Y0148159D01*
X0329572Y0148024D01*
X0329671Y0147887D01*
X0329767Y0147748D01*
X0329859Y0147606D01*
X0329948Y0147462D01*
X0330033Y0147316D01*
X0330114Y0147168D01*
X0330192Y0147018D01*
X0330266Y0146866D01*
X0330337Y0146712D01*
X0330404Y0146557D01*
X0330466Y0146400D01*
X0330525Y0146241D01*
X0330580Y0146081D01*
X0330631Y0145920D01*
X0330678Y0145758D01*
X0330722Y0145594D01*
X0330761Y0145430D01*
X0330796Y0145264D01*
X0330827Y0145098D01*
X0330853Y0144931D01*
X0330876Y0144763D01*
X0330895Y0144595D01*
X0330909Y0144427D01*
X0330920Y0144258D01*
X0330926Y0144089D01*
X0330928Y0143920D01*
X0330926Y0143751D01*
X0330920Y0143582D01*
X0330909Y0143413D01*
X0330895Y0143245D01*
X0330876Y0143077D01*
X0330853Y0142909D01*
X0330827Y0142742D01*
X0330796Y0142576D01*
X0330761Y0142410D01*
X0330722Y0142246D01*
X0330678Y0142082D01*
X0330631Y0141920D01*
X0330580Y0141759D01*
X0330525Y0141599D01*
X0330466Y0141440D01*
X0330404Y0141283D01*
X0330337Y0141128D01*
X0330266Y0140974D01*
X0330192Y0140822D01*
X0330114Y0140672D01*
X0330033Y0140524D01*
X0329948Y0140378D01*
X0329859Y0140234D01*
X0329767Y0140092D01*
X0329671Y0139953D01*
X0329572Y0139816D01*
X0329470Y0139681D01*
X0329364Y0139549D01*
X0329255Y0139420D01*
X0329143Y0139293D01*
X0329028Y0139169D01*
X0328910Y0139048D01*
X0328789Y0138930D01*
X0328665Y0138815D01*
X0328538Y0138703D01*
X0328409Y0138594D01*
X0328277Y0138488D01*
X0328142Y0138386D01*
X0328005Y0138287D01*
X0327866Y0138191D01*
X0327724Y0138099D01*
X0327580Y0138010D01*
X0327434Y0137925D01*
X0327286Y0137844D01*
X0327136Y0137766D01*
X0326984Y0137692D01*
X0326830Y0137621D01*
X0326675Y0137554D01*
X0326518Y0137492D01*
X0326359Y0137433D01*
X0326199Y0137378D01*
X0326038Y0137327D01*
X0325876Y0137280D01*
X0325712Y0137236D01*
X0325548Y0137197D01*
X0325382Y0137162D01*
X0325216Y0137131D01*
X0325049Y0137105D01*
X0324881Y0137082D01*
X0324713Y0137063D01*
X0324545Y0137049D01*
X0324376Y0137038D01*
X0324207Y0137032D01*
X0324038Y0137030D01*
X0323869Y0137032D01*
X0323700Y0137038D01*
X0323531Y0137049D01*
X0323363Y0137063D01*
X0323195Y0137082D01*
X0323027Y0137105D01*
X0322860Y0137131D01*
X0322694Y0137162D01*
X0322528Y0137197D01*
X0322364Y0137236D01*
X0322200Y0137280D01*
X0322038Y0137327D01*
X0321877Y0137378D01*
X0321717Y0137433D01*
X0321558Y0137492D01*
X0321401Y0137554D01*
X0321246Y0137621D01*
X0321092Y0137692D01*
X0320940Y0137766D01*
X0320790Y0137844D01*
X0320642Y0137925D01*
X0320496Y0138010D01*
X0320352Y0138099D01*
X0320210Y0138191D01*
X0320071Y0138287D01*
X0319934Y0138386D01*
X0319799Y0138488D01*
X0319667Y0138594D01*
X0319538Y0138703D01*
X0319411Y0138815D01*
X0319287Y0138930D01*
X0319166Y0139048D01*
X0319048Y0139169D01*
X0318933Y0139293D01*
X0318821Y0139420D01*
X0318712Y0139549D01*
X0318606Y0139681D01*
X0318504Y0139816D01*
X0318405Y0139953D01*
X0318309Y0140092D01*
X0318217Y0140234D01*
X0318128Y0140378D01*
X0318043Y0140524D01*
X0317962Y0140672D01*
X0317884Y0140822D01*
X0317810Y0140974D01*
X0317739Y0141128D01*
X0317672Y0141283D01*
X0317610Y0141440D01*
X0317551Y0141599D01*
X0317496Y0141759D01*
X0317445Y0141920D01*
X0317398Y0142082D01*
X0317354Y0142246D01*
X0317315Y0142410D01*
X0317280Y0142576D01*
X0317249Y0142742D01*
X0317223Y0142909D01*
X0317200Y0143077D01*
X0317181Y0143245D01*
X0317167Y0143413D01*
X0317156Y0143582D01*
X0317150Y0143751D01*
X0317148Y0143920D01*
X0317148Y0279746D02*
X0317150Y0279915D01*
X0317156Y0280084D01*
X0317167Y0280253D01*
X0317181Y0280421D01*
X0317200Y0280589D01*
X0317223Y0280757D01*
X0317249Y0280924D01*
X0317280Y0281090D01*
X0317315Y0281256D01*
X0317354Y0281420D01*
X0317398Y0281584D01*
X0317445Y0281746D01*
X0317496Y0281907D01*
X0317551Y0282067D01*
X0317610Y0282226D01*
X0317672Y0282383D01*
X0317739Y0282538D01*
X0317810Y0282692D01*
X0317884Y0282844D01*
X0317962Y0282994D01*
X0318043Y0283142D01*
X0318128Y0283288D01*
X0318217Y0283432D01*
X0318309Y0283574D01*
X0318405Y0283713D01*
X0318504Y0283850D01*
X0318606Y0283985D01*
X0318712Y0284117D01*
X0318821Y0284246D01*
X0318933Y0284373D01*
X0319048Y0284497D01*
X0319166Y0284618D01*
X0319287Y0284736D01*
X0319411Y0284851D01*
X0319538Y0284963D01*
X0319667Y0285072D01*
X0319799Y0285178D01*
X0319934Y0285280D01*
X0320071Y0285379D01*
X0320210Y0285475D01*
X0320352Y0285567D01*
X0320496Y0285656D01*
X0320642Y0285741D01*
X0320790Y0285822D01*
X0320940Y0285900D01*
X0321092Y0285974D01*
X0321246Y0286045D01*
X0321401Y0286112D01*
X0321558Y0286174D01*
X0321717Y0286233D01*
X0321877Y0286288D01*
X0322038Y0286339D01*
X0322200Y0286386D01*
X0322364Y0286430D01*
X0322528Y0286469D01*
X0322694Y0286504D01*
X0322860Y0286535D01*
X0323027Y0286561D01*
X0323195Y0286584D01*
X0323363Y0286603D01*
X0323531Y0286617D01*
X0323700Y0286628D01*
X0323869Y0286634D01*
X0324038Y0286636D01*
X0324207Y0286634D01*
X0324376Y0286628D01*
X0324545Y0286617D01*
X0324713Y0286603D01*
X0324881Y0286584D01*
X0325049Y0286561D01*
X0325216Y0286535D01*
X0325382Y0286504D01*
X0325548Y0286469D01*
X0325712Y0286430D01*
X0325876Y0286386D01*
X0326038Y0286339D01*
X0326199Y0286288D01*
X0326359Y0286233D01*
X0326518Y0286174D01*
X0326675Y0286112D01*
X0326830Y0286045D01*
X0326984Y0285974D01*
X0327136Y0285900D01*
X0327286Y0285822D01*
X0327434Y0285741D01*
X0327580Y0285656D01*
X0327724Y0285567D01*
X0327866Y0285475D01*
X0328005Y0285379D01*
X0328142Y0285280D01*
X0328277Y0285178D01*
X0328409Y0285072D01*
X0328538Y0284963D01*
X0328665Y0284851D01*
X0328789Y0284736D01*
X0328910Y0284618D01*
X0329028Y0284497D01*
X0329143Y0284373D01*
X0329255Y0284246D01*
X0329364Y0284117D01*
X0329470Y0283985D01*
X0329572Y0283850D01*
X0329671Y0283713D01*
X0329767Y0283574D01*
X0329859Y0283432D01*
X0329948Y0283288D01*
X0330033Y0283142D01*
X0330114Y0282994D01*
X0330192Y0282844D01*
X0330266Y0282692D01*
X0330337Y0282538D01*
X0330404Y0282383D01*
X0330466Y0282226D01*
X0330525Y0282067D01*
X0330580Y0281907D01*
X0330631Y0281746D01*
X0330678Y0281584D01*
X0330722Y0281420D01*
X0330761Y0281256D01*
X0330796Y0281090D01*
X0330827Y0280924D01*
X0330853Y0280757D01*
X0330876Y0280589D01*
X0330895Y0280421D01*
X0330909Y0280253D01*
X0330920Y0280084D01*
X0330926Y0279915D01*
X0330928Y0279746D01*
X0330926Y0279577D01*
X0330920Y0279408D01*
X0330909Y0279239D01*
X0330895Y0279071D01*
X0330876Y0278903D01*
X0330853Y0278735D01*
X0330827Y0278568D01*
X0330796Y0278402D01*
X0330761Y0278236D01*
X0330722Y0278072D01*
X0330678Y0277908D01*
X0330631Y0277746D01*
X0330580Y0277585D01*
X0330525Y0277425D01*
X0330466Y0277266D01*
X0330404Y0277109D01*
X0330337Y0276954D01*
X0330266Y0276800D01*
X0330192Y0276648D01*
X0330114Y0276498D01*
X0330033Y0276350D01*
X0329948Y0276204D01*
X0329859Y0276060D01*
X0329767Y0275918D01*
X0329671Y0275779D01*
X0329572Y0275642D01*
X0329470Y0275507D01*
X0329364Y0275375D01*
X0329255Y0275246D01*
X0329143Y0275119D01*
X0329028Y0274995D01*
X0328910Y0274874D01*
X0328789Y0274756D01*
X0328665Y0274641D01*
X0328538Y0274529D01*
X0328409Y0274420D01*
X0328277Y0274314D01*
X0328142Y0274212D01*
X0328005Y0274113D01*
X0327866Y0274017D01*
X0327724Y0273925D01*
X0327580Y0273836D01*
X0327434Y0273751D01*
X0327286Y0273670D01*
X0327136Y0273592D01*
X0326984Y0273518D01*
X0326830Y0273447D01*
X0326675Y0273380D01*
X0326518Y0273318D01*
X0326359Y0273259D01*
X0326199Y0273204D01*
X0326038Y0273153D01*
X0325876Y0273106D01*
X0325712Y0273062D01*
X0325548Y0273023D01*
X0325382Y0272988D01*
X0325216Y0272957D01*
X0325049Y0272931D01*
X0324881Y0272908D01*
X0324713Y0272889D01*
X0324545Y0272875D01*
X0324376Y0272864D01*
X0324207Y0272858D01*
X0324038Y0272856D01*
X0323869Y0272858D01*
X0323700Y0272864D01*
X0323531Y0272875D01*
X0323363Y0272889D01*
X0323195Y0272908D01*
X0323027Y0272931D01*
X0322860Y0272957D01*
X0322694Y0272988D01*
X0322528Y0273023D01*
X0322364Y0273062D01*
X0322200Y0273106D01*
X0322038Y0273153D01*
X0321877Y0273204D01*
X0321717Y0273259D01*
X0321558Y0273318D01*
X0321401Y0273380D01*
X0321246Y0273447D01*
X0321092Y0273518D01*
X0320940Y0273592D01*
X0320790Y0273670D01*
X0320642Y0273751D01*
X0320496Y0273836D01*
X0320352Y0273925D01*
X0320210Y0274017D01*
X0320071Y0274113D01*
X0319934Y0274212D01*
X0319799Y0274314D01*
X0319667Y0274420D01*
X0319538Y0274529D01*
X0319411Y0274641D01*
X0319287Y0274756D01*
X0319166Y0274874D01*
X0319048Y0274995D01*
X0318933Y0275119D01*
X0318821Y0275246D01*
X0318712Y0275375D01*
X0318606Y0275507D01*
X0318504Y0275642D01*
X0318405Y0275779D01*
X0318309Y0275918D01*
X0318217Y0276060D01*
X0318128Y0276204D01*
X0318043Y0276350D01*
X0317962Y0276498D01*
X0317884Y0276648D01*
X0317810Y0276800D01*
X0317739Y0276954D01*
X0317672Y0277109D01*
X0317610Y0277266D01*
X0317551Y0277425D01*
X0317496Y0277585D01*
X0317445Y0277746D01*
X0317398Y0277908D01*
X0317354Y0278072D01*
X0317315Y0278236D01*
X0317280Y0278402D01*
X0317249Y0278568D01*
X0317223Y0278735D01*
X0317200Y0278903D01*
X0317181Y0279071D01*
X0317167Y0279239D01*
X0317156Y0279408D01*
X0317150Y0279577D01*
X0317148Y0279746D01*
D16*
X0168526Y0264195D02*
X0168526Y0220101D01*
X0160652Y0220101D01*
X0160652Y0227187D01*
X0152384Y0227187D01*
X0152384Y0257109D01*
X0160652Y0257109D01*
X0160652Y0264195D01*
X0168526Y0264195D01*
X0160652Y0264195D02*
X0132306Y0264195D01*
X0132306Y0220101D01*
X0160652Y0220101D01*
M02*
