%
M48
M72
T01C0.01181
T02C0.01378
T03C0.02400
T04C0.03200
T05C0.03750
T06C0.04000
T07C0.06417
T08C0.11417
T09C0.13780
%
T01
X135652Y70101
X154746Y86833
X156912Y86833
X148054Y125022
X145888Y125022
X143723Y125022
X141557Y125022
X141557Y127975
X143723Y127975
X145888Y127975
X148054Y127975
X238802Y127187
X238802Y129353
X243723Y129550
X243723Y127384
X251794Y123447
X251794Y121282
X251794Y112227
X250219Y110652
X281124Y155337
X243723Y190376
X243723Y192542
X238802Y198644
X238802Y200809
X245691Y223250
X247857Y223250
X240376Y228565
X238211Y228565
X247660Y232699
X249235Y234274
X269707Y245494
X271872Y245494
X216361Y232699
X214195Y232699
X211046Y228565
X208880Y228565
X208093Y246479
X205731Y246479
X184865Y235258
X182109Y235258
X171676Y248250
X168920Y248250
X205140Y288211
X203565Y289786
X157896Y293132
X121676Y312227
X121676Y314392
X92542Y346282
X115376Y228762
X117739Y228762
X117739Y226203
X115376Y226203
T02
X77187Y218920
X74431Y218920
X71676Y218920
X71676Y216164
X74431Y216164
X74431Y213408
X74431Y211046
X74431Y208290
X72069Y208290
X71676Y205534
X74431Y205534
X77187Y205534
X77187Y207896
X77187Y210652
X77187Y213408
X77187Y216164
X68920Y218920
X68920Y205534
X69904Y183329
X67306Y183329
X148644Y182502
X151203Y182502
X167148Y186046
X167148Y193920
X168132Y201794
X166164Y208683
X165967Y162227
X167935Y155337
X166951Y147463
X166951Y139589
X150613Y137030
X148250Y137030
X148841Y109274
X151203Y109274
X138014Y70101
X164105Y61483
X164105Y58983
X151991Y19707
X149235Y19707
X186636Y13802
X186636Y11439
X198447Y11439
X198447Y13802
X210061Y13802
X210061Y11439
X222069Y11439
X222069Y13802
X218723Y119117
X216557Y119117
X216557Y144510
X215770Y146479
X213605Y146479
X211636Y146479
X212227Y144510
X214392Y144510
X210061Y144510
X209471Y146479
X222463Y150613
X225022Y150613
X223054Y157699
X223054Y160258
X215376Y203172
X215376Y205534
X230731Y217345
X230731Y220101
X221282Y221282
X218526Y221282
X214589Y245494
X211833Y245494
X276991Y325219
X276991Y327778
X177581Y334274
X177581Y336636
X155731Y336833
X155731Y334077
X120298Y333683
X120298Y336439
X98447Y325280
X95947Y325280
X69697Y311530
X67197Y311530
X54087Y310869
X51587Y310869
X30231Y313477
X30231Y315977
X58981Y340977
X58981Y343477
X64806Y332886
X64806Y330386
X118132Y295691
X118132Y293132
X118132Y278959
X118132Y276400
X268955Y139195
X270494Y157502
X298755Y155595
X300955Y149195
T03
X235061Y256321
X250809Y257306
X202581Y315376
X187817Y314392
X179313Y314599
X179313Y307099
X174298Y299578
X170677Y293331
X166764Y285849
X150416Y271085
X157306Y252384
X168132Y261243
X177975Y252384
X187817Y257306
X189786Y270101
X189786Y281912
X137620Y287817
X121774Y270199
X121872Y262719
X131715Y316361
X134176Y320790
X122857Y327187
T04
X268565Y314589
X278565Y314589
X288565Y314589
T05
X54825Y293369
X53825Y303369
X43825Y303369
X44825Y293369
X34825Y293369
X33825Y303369
X23825Y303369
X24825Y293369
X24825Y283369
X34825Y283369
X44825Y283369
X54825Y283369
X54825Y273369
X44825Y273369
X34825Y273369
X24825Y273369
X24825Y263369
X34825Y263369
X44825Y263369
X54825Y263369
X54825Y253369
X54825Y243369
X44825Y243369
X44825Y253369
X34825Y253369
X34825Y243369
X24825Y243369
X24825Y253369
X24825Y233369
X34825Y233369
X44825Y233369
X54825Y233369
X54825Y223369
X44825Y223369
X34825Y223369
X24825Y223369
X24825Y213369
X24825Y203369
X34825Y203369
X34825Y213369
X44825Y213369
X44825Y203369
X54825Y203369
X54825Y213369
X54825Y193369
X44825Y193369
X34825Y193369
X24825Y193369
X24825Y183369
X34825Y183369
X44825Y183369
X54825Y183369
X54825Y173369
X54825Y163369
X44825Y163369
X44825Y173369
X34825Y173369
X34825Y163369
X24825Y163369
X24825Y173369
X24825Y153369
X34825Y153369
X44825Y153369
X54825Y153369
X54825Y143369
X44825Y143369
X34825Y143369
X24825Y143369
X24825Y133369
X24825Y123369
X34825Y123369
X34825Y133369
X44825Y133369
X44825Y123369
X54825Y123369
X54825Y133369
X54825Y113369
X44825Y113369
X34825Y113369
X24825Y113369
X24825Y103369
X34825Y103369
X44825Y103369
X54825Y103369
X54825Y93369
X54825Y83369
X44825Y83369
X44825Y93369
X34825Y93369
X34825Y83369
X24825Y83369
X24825Y93369
X24825Y73369
X34825Y73369
X44825Y73369
X54825Y73369
X54825Y63369
X44825Y63369
X34825Y63369
X24825Y63369
X23825Y53369
X33825Y53369
X43825Y53369
X53825Y53369
T06
X161046Y108290
X171046Y108290
X181046Y108290
X180731Y119313
X170731Y119313
X160731Y119313
X161046Y130337
X171046Y130337
X181046Y130337
X206321Y174125
X216251Y174431
X216361Y185455
X206321Y185525
X227651Y174431
X269313Y172345
X269313Y182345
X269313Y192345
X280140Y192148
X280140Y182148
X280140Y172148
X271352Y281124
X271352Y291361
X259952Y291361
X259952Y281124
X259471Y343420
X249471Y344420
X239471Y343420
X229471Y344420
X219471Y343420
X209471Y344420
X199471Y343420
X189471Y344420
T07
X68132Y211833
X68132Y66557
X349628Y142935
T08
X24825Y22857
X24825Y333880
X335849Y333880
X335849Y22857
T09
X324038Y143920
X324038Y279746
X99628Y279746
X99628Y143920
M30
