G75*
%MOIN*%
%OFA0B0*%
%FSLAX25Y25*%
%IPPOS*%
%LPD*%
%AMOC8*
5,1,8,0,0,1.08239X$1,22.5*
%
%ADD10C,0.00000*%
%ADD11C,0.00600*%
D10*
X0015180Y0026678D02*
X0015180Y0341638D01*
X0034865Y0361323D01*
X0349825Y0361323D01*
X0369510Y0341638D01*
X0369510Y0026678D01*
X0349825Y0006993D01*
X0034865Y0006993D01*
X0015180Y0026678D01*
D11*
X0153552Y0054537D02*
X0153552Y0061817D01*
X0155979Y0059390D01*
X0158406Y0061817D01*
X0158406Y0054537D01*
X0162016Y0056963D02*
X0160802Y0058177D01*
X0160802Y0060604D01*
X0162016Y0061817D01*
X0165656Y0061817D01*
X0165656Y0054537D01*
X0165656Y0056963D02*
X0162016Y0056963D01*
X0175303Y0056963D02*
X0175303Y0055750D01*
X0176516Y0054537D01*
X0178943Y0054537D01*
X0180157Y0055750D01*
X0180157Y0056963D01*
X0178943Y0058177D01*
X0176516Y0058177D01*
X0175303Y0056963D01*
X0176516Y0058177D02*
X0175303Y0059390D01*
X0175303Y0060604D01*
X0176516Y0061817D01*
X0178943Y0061817D01*
X0180157Y0060604D01*
X0180157Y0059390D01*
X0178943Y0058177D01*
X0182553Y0059390D02*
X0182553Y0060604D01*
X0183767Y0061817D01*
X0186193Y0061817D01*
X0187407Y0060604D01*
X0189819Y0059390D02*
X0189819Y0058177D01*
X0191032Y0058177D01*
X0191032Y0059390D01*
X0189819Y0059390D01*
X0193429Y0059390D02*
X0194642Y0058177D01*
X0193429Y0056963D01*
X0193429Y0055750D01*
X0194642Y0054537D01*
X0197069Y0054537D01*
X0198282Y0055750D01*
X0195855Y0058177D02*
X0194642Y0058177D01*
X0193429Y0059390D02*
X0193429Y0060604D01*
X0194642Y0061817D01*
X0197069Y0061817D01*
X0198282Y0060604D01*
X0198277Y0066348D02*
X0195850Y0066348D01*
X0194637Y0067561D01*
X0194637Y0069988D01*
X0195850Y0071201D01*
X0198277Y0071201D01*
X0199491Y0069988D01*
X0199491Y0067561D01*
X0198277Y0066348D01*
X0201887Y0067561D02*
X0201887Y0069988D01*
X0203101Y0071201D01*
X0206741Y0071201D01*
X0206741Y0073628D02*
X0206741Y0066348D01*
X0203101Y0066348D01*
X0201887Y0067561D01*
X0209138Y0065134D02*
X0213991Y0065134D01*
X0212783Y0061817D02*
X0207929Y0061817D01*
X0207929Y0060604D01*
X0212783Y0055750D01*
X0212783Y0054537D01*
X0215180Y0054537D02*
X0220033Y0054537D01*
X0217606Y0054537D02*
X0217606Y0061817D01*
X0220033Y0059390D01*
X0222430Y0060604D02*
X0227283Y0055750D01*
X0226070Y0054537D01*
X0223643Y0054537D01*
X0222430Y0055750D01*
X0222430Y0060604D01*
X0223643Y0061817D01*
X0226070Y0061817D01*
X0227283Y0060604D01*
X0227283Y0055750D01*
X0229680Y0054537D02*
X0234534Y0054537D01*
X0229680Y0059390D01*
X0229680Y0060604D01*
X0230894Y0061817D01*
X0233320Y0061817D01*
X0234534Y0060604D01*
X0236930Y0061817D02*
X0241784Y0054537D01*
X0245394Y0054537D02*
X0245394Y0061817D01*
X0249034Y0058177D01*
X0244181Y0058177D01*
X0251431Y0061817D02*
X0256284Y0054537D01*
X0258681Y0054537D02*
X0263535Y0054537D01*
X0265932Y0054537D02*
X0270785Y0054537D01*
X0268358Y0054537D02*
X0268358Y0061817D01*
X0270785Y0059390D01*
X0269572Y0066348D02*
X0267145Y0066348D01*
X0269572Y0066348D02*
X0270785Y0067561D01*
X0270785Y0069988D01*
X0269572Y0071201D01*
X0267145Y0071201D01*
X0265932Y0069988D01*
X0265932Y0068774D01*
X0270785Y0068774D01*
X0263535Y0069988D02*
X0262321Y0068774D01*
X0259895Y0068774D01*
X0258681Y0067561D01*
X0259895Y0066348D01*
X0263535Y0066348D01*
X0263535Y0069988D02*
X0262321Y0071201D01*
X0258681Y0071201D01*
X0256284Y0071201D02*
X0253858Y0071201D01*
X0255071Y0072415D02*
X0255071Y0067561D01*
X0253858Y0066348D01*
X0251451Y0066348D02*
X0249024Y0066348D01*
X0250238Y0066348D02*
X0250238Y0071201D01*
X0251451Y0071201D01*
X0250238Y0073628D02*
X0250238Y0074841D01*
X0246617Y0071201D02*
X0245404Y0071201D01*
X0244191Y0069988D01*
X0242977Y0071201D01*
X0241764Y0069988D01*
X0241764Y0066348D01*
X0244191Y0066348D02*
X0244191Y0069988D01*
X0246617Y0071201D02*
X0246617Y0066348D01*
X0239367Y0067561D02*
X0238154Y0068774D01*
X0234514Y0068774D01*
X0234514Y0069988D02*
X0234514Y0066348D01*
X0238154Y0066348D01*
X0239367Y0067561D01*
X0238154Y0071201D02*
X0235727Y0071201D01*
X0234514Y0069988D01*
X0232117Y0071201D02*
X0229690Y0071201D01*
X0230903Y0072415D02*
X0230903Y0067561D01*
X0229690Y0066348D01*
X0227283Y0067561D02*
X0226070Y0066348D01*
X0223643Y0066348D01*
X0222430Y0067561D01*
X0222430Y0069988D01*
X0223643Y0071201D01*
X0226070Y0071201D01*
X0227283Y0069988D01*
X0227283Y0067561D01*
X0220033Y0066348D02*
X0220033Y0071201D01*
X0220033Y0068774D02*
X0217606Y0071201D01*
X0216393Y0071201D01*
X0203818Y0050006D02*
X0203818Y0045152D01*
X0201391Y0042726D01*
X0198964Y0045152D01*
X0198964Y0050006D01*
X0196567Y0048793D02*
X0195354Y0050006D01*
X0192927Y0050006D01*
X0191714Y0048793D01*
X0191714Y0047579D01*
X0196567Y0042726D01*
X0191714Y0042726D01*
X0189317Y0042726D02*
X0188104Y0042726D01*
X0188104Y0043939D01*
X0189317Y0043939D01*
X0189317Y0042726D01*
X0185692Y0042726D02*
X0180838Y0042726D01*
X0183265Y0042726D02*
X0183265Y0050006D01*
X0185692Y0047579D01*
X0187407Y0054537D02*
X0182553Y0054537D01*
X0182553Y0059390D02*
X0187407Y0054537D01*
X0189819Y0054537D02*
X0191032Y0054537D01*
X0191032Y0055750D01*
X0189819Y0055750D01*
X0189819Y0054537D01*
X0191027Y0066348D02*
X0187387Y0066348D01*
X0187387Y0069988D01*
X0188600Y0071201D01*
X0191027Y0071201D01*
X0191027Y0068774D02*
X0187387Y0068774D01*
X0184990Y0068774D02*
X0182563Y0071201D01*
X0181350Y0071201D01*
X0178948Y0069988D02*
X0177735Y0071201D01*
X0174095Y0071201D01*
X0174095Y0073628D02*
X0174095Y0066348D01*
X0177735Y0066348D01*
X0178948Y0067561D01*
X0178948Y0069988D01*
X0184990Y0071201D02*
X0184990Y0066348D01*
X0191027Y0066348D02*
X0192240Y0067561D01*
X0191027Y0068774D01*
X0213480Y0047579D02*
X0213480Y0046366D01*
X0214693Y0046366D01*
X0214693Y0047579D01*
X0213480Y0047579D01*
X0213480Y0043939D02*
X0213480Y0042726D01*
X0214693Y0042726D01*
X0214693Y0043939D01*
X0213480Y0043939D01*
X0217090Y0045152D02*
X0217090Y0046366D01*
X0218303Y0047579D01*
X0220730Y0047579D01*
X0221943Y0046366D01*
X0221943Y0043939D01*
X0220730Y0042726D01*
X0218303Y0042726D01*
X0217090Y0045152D02*
X0221943Y0045152D01*
X0224350Y0042726D02*
X0225563Y0043939D01*
X0225563Y0048793D01*
X0226777Y0047579D02*
X0224350Y0047579D01*
X0229174Y0046366D02*
X0229174Y0042726D01*
X0232814Y0042726D01*
X0234027Y0043939D01*
X0232814Y0045152D01*
X0229174Y0045152D01*
X0229174Y0046366D02*
X0230387Y0047579D01*
X0232814Y0047579D01*
X0237647Y0050006D02*
X0237647Y0042726D01*
X0236434Y0042726D02*
X0238861Y0042726D01*
X0241257Y0043939D02*
X0242471Y0042726D01*
X0246111Y0042726D01*
X0248508Y0042726D02*
X0248508Y0046366D01*
X0249721Y0047579D01*
X0250934Y0046366D01*
X0250934Y0042726D01*
X0253361Y0042726D02*
X0253361Y0047579D01*
X0252148Y0047579D01*
X0250934Y0046366D01*
X0255758Y0046366D02*
X0255758Y0045152D01*
X0260612Y0045152D01*
X0260612Y0043939D02*
X0260612Y0046366D01*
X0259398Y0047579D01*
X0256971Y0047579D01*
X0255758Y0046366D01*
X0256971Y0042726D02*
X0259398Y0042726D01*
X0260612Y0043939D01*
X0265435Y0042726D02*
X0265435Y0050006D01*
X0267862Y0050006D02*
X0263008Y0050006D01*
X0261108Y0054537D02*
X0261108Y0061817D01*
X0263535Y0059390D01*
X0277509Y0050006D02*
X0277509Y0042726D01*
X0281149Y0042726D01*
X0282362Y0043939D01*
X0282362Y0046366D01*
X0281149Y0047579D01*
X0277509Y0047579D01*
X0284764Y0047579D02*
X0285978Y0047579D01*
X0288404Y0045152D01*
X0290801Y0045152D02*
X0294441Y0045152D01*
X0295655Y0043939D01*
X0294441Y0042726D01*
X0290801Y0042726D01*
X0290801Y0046366D01*
X0292014Y0047579D01*
X0294441Y0047579D01*
X0298051Y0046366D02*
X0298051Y0043939D01*
X0299265Y0042726D01*
X0301691Y0042726D01*
X0302905Y0043939D01*
X0302905Y0046366D01*
X0301691Y0047579D01*
X0299265Y0047579D01*
X0298051Y0046366D01*
X0305302Y0047579D02*
X0306515Y0046366D01*
X0310155Y0046366D01*
X0310155Y0050006D02*
X0306515Y0050006D01*
X0305302Y0048793D01*
X0305302Y0047579D01*
X0306515Y0046366D02*
X0305302Y0045152D01*
X0305302Y0043939D01*
X0306515Y0042726D01*
X0310155Y0042726D01*
X0310155Y0050006D01*
X0310155Y0054537D02*
X0306515Y0054537D01*
X0305302Y0055750D01*
X0305302Y0060604D01*
X0306515Y0061817D01*
X0310155Y0061817D01*
X0310155Y0054537D01*
X0302905Y0055750D02*
X0301691Y0056963D01*
X0298051Y0056963D01*
X0298051Y0058177D02*
X0298051Y0054537D01*
X0301691Y0054537D01*
X0302905Y0055750D01*
X0301691Y0059390D02*
X0299265Y0059390D01*
X0298051Y0058177D01*
X0295655Y0059390D02*
X0293228Y0059390D01*
X0294441Y0060604D02*
X0294441Y0055750D01*
X0293228Y0054537D01*
X0290821Y0055750D02*
X0290821Y0058177D01*
X0289608Y0059390D01*
X0287181Y0059390D01*
X0285968Y0058177D01*
X0285968Y0056963D01*
X0290821Y0056963D01*
X0290821Y0055750D02*
X0289608Y0054537D01*
X0287181Y0054537D01*
X0283571Y0054537D02*
X0283571Y0055750D01*
X0282357Y0055750D01*
X0282357Y0054537D01*
X0283571Y0054537D01*
X0283571Y0058177D02*
X0282357Y0058177D01*
X0282357Y0059390D01*
X0283571Y0059390D01*
X0283571Y0058177D01*
X0284764Y0066348D02*
X0287191Y0066348D01*
X0288404Y0067561D01*
X0288404Y0069988D01*
X0287191Y0071201D01*
X0284764Y0071201D01*
X0283551Y0069988D01*
X0283551Y0068774D01*
X0288404Y0068774D01*
X0290811Y0066348D02*
X0293238Y0066348D01*
X0292024Y0066348D02*
X0292024Y0073628D01*
X0293238Y0073628D01*
X0295645Y0071201D02*
X0298071Y0071201D01*
X0296858Y0072415D02*
X0296858Y0067561D01*
X0295645Y0066348D01*
X0300478Y0066348D02*
X0302905Y0066348D01*
X0301691Y0066348D02*
X0301691Y0071201D01*
X0302905Y0071201D01*
X0301691Y0073628D02*
X0301691Y0074841D01*
X0305302Y0073628D02*
X0310155Y0073628D01*
X0307728Y0073628D02*
X0307728Y0066348D01*
X0288404Y0047579D02*
X0288404Y0042726D01*
X0281154Y0066348D02*
X0281154Y0067561D01*
X0279941Y0067561D01*
X0279941Y0066348D01*
X0281154Y0066348D01*
X0281154Y0069988D02*
X0281154Y0071201D01*
X0279941Y0071201D01*
X0279941Y0069988D01*
X0281154Y0069988D01*
X0246111Y0047579D02*
X0246111Y0040299D01*
X0241257Y0043939D02*
X0241257Y0046366D01*
X0242471Y0047579D01*
X0246111Y0047579D01*
X0238861Y0050006D02*
X0237647Y0050006D01*
M02*
