G75*
%MOIN*%
%OFA0B0*%
%FSLAX25Y25*%
%IPPOS*%
%LPD*%
%AMOC8*
5,1,8,0,0,1.08239X$1,22.5*
%
%ADD10C,0.00000*%
%ADD11C,0.00945*%
%ADD12C,0.00504*%
%ADD13R,0.10630X0.10039*%
%ADD14R,0.06299X0.07087*%
%ADD15R,0.04724X0.03150*%
%ADD16R,0.03937X0.00984*%
%ADD17R,0.06693X0.09843*%
%ADD18R,0.03150X0.04724*%
%ADD19R,0.07087X0.06299*%
%ADD20R,0.07087X0.17717*%
%ADD21R,0.01200X0.03500*%
%ADD22R,0.01575X0.02008*%
%ADD23R,0.07874X0.01378*%
%ADD24R,0.04921X0.06299*%
%ADD25R,0.01969X0.08858*%
%ADD26R,0.07874X0.09843*%
%ADD27R,0.06890X0.01772*%
%ADD28R,0.02362X0.04724*%
%ADD29R,0.11811X0.06299*%
%ADD30R,0.22500X0.19000*%
D10*
X0025344Y0022313D02*
X0025344Y0055778D01*
X0021407Y0055778D01*
X0021407Y0374675D01*
X0025344Y0374675D01*
X0025344Y0408140D01*
X0058809Y0408140D01*
X0058809Y0412077D01*
X0377707Y0412077D01*
X0377707Y0408140D01*
X0411171Y0408140D01*
X0411171Y0374675D01*
X0415108Y0374675D01*
X0415108Y0055778D01*
X0411171Y0055778D01*
X0411171Y0022313D01*
X0377707Y0022313D01*
X0377707Y0018376D01*
X0058809Y0018376D01*
X0058809Y0022313D01*
X0025344Y0022313D01*
X0032234Y0117982D02*
X0032236Y0118133D01*
X0032242Y0118283D01*
X0032252Y0118434D01*
X0032266Y0118584D01*
X0032284Y0118733D01*
X0032305Y0118883D01*
X0032331Y0119031D01*
X0032361Y0119179D01*
X0032394Y0119326D01*
X0032432Y0119472D01*
X0032473Y0119617D01*
X0032518Y0119761D01*
X0032567Y0119903D01*
X0032620Y0120044D01*
X0032676Y0120184D01*
X0032736Y0120322D01*
X0032799Y0120459D01*
X0032867Y0120594D01*
X0032937Y0120727D01*
X0033011Y0120858D01*
X0033089Y0120987D01*
X0033170Y0121114D01*
X0033254Y0121239D01*
X0033342Y0121362D01*
X0033433Y0121482D01*
X0033527Y0121600D01*
X0033624Y0121715D01*
X0033724Y0121828D01*
X0033827Y0121938D01*
X0033933Y0122045D01*
X0034042Y0122150D01*
X0034153Y0122251D01*
X0034267Y0122350D01*
X0034383Y0122445D01*
X0034503Y0122538D01*
X0034624Y0122627D01*
X0034748Y0122713D01*
X0034874Y0122796D01*
X0035002Y0122875D01*
X0035132Y0122951D01*
X0035264Y0123024D01*
X0035398Y0123092D01*
X0035534Y0123158D01*
X0035672Y0123220D01*
X0035811Y0123278D01*
X0035951Y0123332D01*
X0036093Y0123383D01*
X0036236Y0123430D01*
X0036381Y0123473D01*
X0036526Y0123512D01*
X0036673Y0123548D01*
X0036820Y0123579D01*
X0036968Y0123607D01*
X0037117Y0123631D01*
X0037266Y0123651D01*
X0037416Y0123667D01*
X0037566Y0123679D01*
X0037717Y0123687D01*
X0037868Y0123691D01*
X0038018Y0123691D01*
X0038169Y0123687D01*
X0038320Y0123679D01*
X0038470Y0123667D01*
X0038620Y0123651D01*
X0038769Y0123631D01*
X0038918Y0123607D01*
X0039066Y0123579D01*
X0039213Y0123548D01*
X0039360Y0123512D01*
X0039505Y0123473D01*
X0039650Y0123430D01*
X0039793Y0123383D01*
X0039935Y0123332D01*
X0040075Y0123278D01*
X0040214Y0123220D01*
X0040352Y0123158D01*
X0040488Y0123092D01*
X0040622Y0123024D01*
X0040754Y0122951D01*
X0040884Y0122875D01*
X0041012Y0122796D01*
X0041138Y0122713D01*
X0041262Y0122627D01*
X0041383Y0122538D01*
X0041503Y0122445D01*
X0041619Y0122350D01*
X0041733Y0122251D01*
X0041844Y0122150D01*
X0041953Y0122045D01*
X0042059Y0121938D01*
X0042162Y0121828D01*
X0042262Y0121715D01*
X0042359Y0121600D01*
X0042453Y0121482D01*
X0042544Y0121362D01*
X0042632Y0121239D01*
X0042716Y0121114D01*
X0042797Y0120987D01*
X0042875Y0120858D01*
X0042949Y0120727D01*
X0043019Y0120594D01*
X0043087Y0120459D01*
X0043150Y0120322D01*
X0043210Y0120184D01*
X0043266Y0120044D01*
X0043319Y0119903D01*
X0043368Y0119761D01*
X0043413Y0119617D01*
X0043454Y0119472D01*
X0043492Y0119326D01*
X0043525Y0119179D01*
X0043555Y0119031D01*
X0043581Y0118883D01*
X0043602Y0118733D01*
X0043620Y0118584D01*
X0043634Y0118434D01*
X0043644Y0118283D01*
X0043650Y0118133D01*
X0043652Y0117982D01*
X0043650Y0117831D01*
X0043644Y0117681D01*
X0043634Y0117530D01*
X0043620Y0117380D01*
X0043602Y0117231D01*
X0043581Y0117081D01*
X0043555Y0116933D01*
X0043525Y0116785D01*
X0043492Y0116638D01*
X0043454Y0116492D01*
X0043413Y0116347D01*
X0043368Y0116203D01*
X0043319Y0116061D01*
X0043266Y0115920D01*
X0043210Y0115780D01*
X0043150Y0115642D01*
X0043087Y0115505D01*
X0043019Y0115370D01*
X0042949Y0115237D01*
X0042875Y0115106D01*
X0042797Y0114977D01*
X0042716Y0114850D01*
X0042632Y0114725D01*
X0042544Y0114602D01*
X0042453Y0114482D01*
X0042359Y0114364D01*
X0042262Y0114249D01*
X0042162Y0114136D01*
X0042059Y0114026D01*
X0041953Y0113919D01*
X0041844Y0113814D01*
X0041733Y0113713D01*
X0041619Y0113614D01*
X0041503Y0113519D01*
X0041383Y0113426D01*
X0041262Y0113337D01*
X0041138Y0113251D01*
X0041012Y0113168D01*
X0040884Y0113089D01*
X0040754Y0113013D01*
X0040622Y0112940D01*
X0040488Y0112872D01*
X0040352Y0112806D01*
X0040214Y0112744D01*
X0040075Y0112686D01*
X0039935Y0112632D01*
X0039793Y0112581D01*
X0039650Y0112534D01*
X0039505Y0112491D01*
X0039360Y0112452D01*
X0039213Y0112416D01*
X0039066Y0112385D01*
X0038918Y0112357D01*
X0038769Y0112333D01*
X0038620Y0112313D01*
X0038470Y0112297D01*
X0038320Y0112285D01*
X0038169Y0112277D01*
X0038018Y0112273D01*
X0037868Y0112273D01*
X0037717Y0112277D01*
X0037566Y0112285D01*
X0037416Y0112297D01*
X0037266Y0112313D01*
X0037117Y0112333D01*
X0036968Y0112357D01*
X0036820Y0112385D01*
X0036673Y0112416D01*
X0036526Y0112452D01*
X0036381Y0112491D01*
X0036236Y0112534D01*
X0036093Y0112581D01*
X0035951Y0112632D01*
X0035811Y0112686D01*
X0035672Y0112744D01*
X0035534Y0112806D01*
X0035398Y0112872D01*
X0035264Y0112940D01*
X0035132Y0113013D01*
X0035002Y0113089D01*
X0034874Y0113168D01*
X0034748Y0113251D01*
X0034624Y0113337D01*
X0034503Y0113426D01*
X0034383Y0113519D01*
X0034267Y0113614D01*
X0034153Y0113713D01*
X0034042Y0113814D01*
X0033933Y0113919D01*
X0033827Y0114026D01*
X0033724Y0114136D01*
X0033624Y0114249D01*
X0033527Y0114364D01*
X0033433Y0114482D01*
X0033342Y0114602D01*
X0033254Y0114725D01*
X0033170Y0114850D01*
X0033089Y0114977D01*
X0033011Y0115106D01*
X0032937Y0115237D01*
X0032867Y0115370D01*
X0032799Y0115505D01*
X0032736Y0115642D01*
X0032676Y0115780D01*
X0032620Y0115920D01*
X0032567Y0116061D01*
X0032518Y0116203D01*
X0032473Y0116347D01*
X0032432Y0116492D01*
X0032394Y0116638D01*
X0032361Y0116785D01*
X0032331Y0116933D01*
X0032305Y0117081D01*
X0032284Y0117231D01*
X0032266Y0117380D01*
X0032252Y0117530D01*
X0032242Y0117681D01*
X0032236Y0117831D01*
X0032234Y0117982D01*
X0027698Y0148297D02*
X0027700Y0148416D01*
X0027706Y0148534D01*
X0027716Y0148653D01*
X0027730Y0148770D01*
X0027747Y0148888D01*
X0027769Y0149005D01*
X0027795Y0149120D01*
X0027824Y0149235D01*
X0027857Y0149349D01*
X0027895Y0149462D01*
X0027935Y0149574D01*
X0027980Y0149684D01*
X0028028Y0149792D01*
X0028080Y0149899D01*
X0028135Y0150004D01*
X0028194Y0150107D01*
X0028256Y0150208D01*
X0028322Y0150307D01*
X0028390Y0150404D01*
X0028462Y0150498D01*
X0028538Y0150590D01*
X0028616Y0150680D01*
X0028697Y0150766D01*
X0028781Y0150850D01*
X0028867Y0150931D01*
X0028957Y0151009D01*
X0029049Y0151085D01*
X0029143Y0151157D01*
X0029240Y0151225D01*
X0029339Y0151291D01*
X0029440Y0151353D01*
X0029543Y0151412D01*
X0029648Y0151467D01*
X0029755Y0151519D01*
X0029863Y0151567D01*
X0029973Y0151612D01*
X0030085Y0151652D01*
X0030198Y0151690D01*
X0030312Y0151723D01*
X0030427Y0151752D01*
X0030542Y0151778D01*
X0030659Y0151800D01*
X0030777Y0151817D01*
X0030894Y0151831D01*
X0031013Y0151841D01*
X0031131Y0151847D01*
X0031250Y0151849D01*
X0031369Y0151847D01*
X0031487Y0151841D01*
X0031606Y0151831D01*
X0031723Y0151817D01*
X0031841Y0151800D01*
X0031958Y0151778D01*
X0032073Y0151752D01*
X0032188Y0151723D01*
X0032302Y0151690D01*
X0032415Y0151652D01*
X0032527Y0151612D01*
X0032637Y0151567D01*
X0032745Y0151519D01*
X0032852Y0151467D01*
X0032957Y0151412D01*
X0033060Y0151353D01*
X0033161Y0151291D01*
X0033260Y0151225D01*
X0033357Y0151157D01*
X0033451Y0151085D01*
X0033543Y0151009D01*
X0033633Y0150931D01*
X0033719Y0150850D01*
X0033803Y0150766D01*
X0033884Y0150680D01*
X0033962Y0150590D01*
X0034038Y0150498D01*
X0034110Y0150404D01*
X0034178Y0150307D01*
X0034244Y0150208D01*
X0034306Y0150107D01*
X0034365Y0150004D01*
X0034420Y0149899D01*
X0034472Y0149792D01*
X0034520Y0149684D01*
X0034565Y0149574D01*
X0034605Y0149462D01*
X0034643Y0149349D01*
X0034676Y0149235D01*
X0034705Y0149120D01*
X0034731Y0149005D01*
X0034753Y0148888D01*
X0034770Y0148770D01*
X0034784Y0148653D01*
X0034794Y0148534D01*
X0034800Y0148416D01*
X0034802Y0148297D01*
X0034800Y0148178D01*
X0034794Y0148060D01*
X0034784Y0147941D01*
X0034770Y0147824D01*
X0034753Y0147706D01*
X0034731Y0147589D01*
X0034705Y0147474D01*
X0034676Y0147359D01*
X0034643Y0147245D01*
X0034605Y0147132D01*
X0034565Y0147020D01*
X0034520Y0146910D01*
X0034472Y0146802D01*
X0034420Y0146695D01*
X0034365Y0146590D01*
X0034306Y0146487D01*
X0034244Y0146386D01*
X0034178Y0146287D01*
X0034110Y0146190D01*
X0034038Y0146096D01*
X0033962Y0146004D01*
X0033884Y0145914D01*
X0033803Y0145828D01*
X0033719Y0145744D01*
X0033633Y0145663D01*
X0033543Y0145585D01*
X0033451Y0145509D01*
X0033357Y0145437D01*
X0033260Y0145369D01*
X0033161Y0145303D01*
X0033060Y0145241D01*
X0032957Y0145182D01*
X0032852Y0145127D01*
X0032745Y0145075D01*
X0032637Y0145027D01*
X0032527Y0144982D01*
X0032415Y0144942D01*
X0032302Y0144904D01*
X0032188Y0144871D01*
X0032073Y0144842D01*
X0031958Y0144816D01*
X0031841Y0144794D01*
X0031723Y0144777D01*
X0031606Y0144763D01*
X0031487Y0144753D01*
X0031369Y0144747D01*
X0031250Y0144745D01*
X0031131Y0144747D01*
X0031013Y0144753D01*
X0030894Y0144763D01*
X0030777Y0144777D01*
X0030659Y0144794D01*
X0030542Y0144816D01*
X0030427Y0144842D01*
X0030312Y0144871D01*
X0030198Y0144904D01*
X0030085Y0144942D01*
X0029973Y0144982D01*
X0029863Y0145027D01*
X0029755Y0145075D01*
X0029648Y0145127D01*
X0029543Y0145182D01*
X0029440Y0145241D01*
X0029339Y0145303D01*
X0029240Y0145369D01*
X0029143Y0145437D01*
X0029049Y0145509D01*
X0028957Y0145585D01*
X0028867Y0145663D01*
X0028781Y0145744D01*
X0028697Y0145828D01*
X0028616Y0145914D01*
X0028538Y0146004D01*
X0028462Y0146096D01*
X0028390Y0146190D01*
X0028322Y0146287D01*
X0028256Y0146386D01*
X0028194Y0146487D01*
X0028135Y0146590D01*
X0028080Y0146695D01*
X0028028Y0146802D01*
X0027980Y0146910D01*
X0027935Y0147020D01*
X0027895Y0147132D01*
X0027857Y0147245D01*
X0027824Y0147359D01*
X0027795Y0147474D01*
X0027769Y0147589D01*
X0027747Y0147706D01*
X0027730Y0147824D01*
X0027716Y0147941D01*
X0027706Y0148060D01*
X0027700Y0148178D01*
X0027698Y0148297D01*
X0126959Y0103022D02*
X0126961Y0103180D01*
X0126967Y0103338D01*
X0126977Y0103495D01*
X0126991Y0103653D01*
X0127009Y0103810D01*
X0127031Y0103966D01*
X0127056Y0104122D01*
X0127086Y0104277D01*
X0127120Y0104431D01*
X0127157Y0104585D01*
X0127199Y0104737D01*
X0127244Y0104889D01*
X0127293Y0105039D01*
X0127346Y0105188D01*
X0127402Y0105335D01*
X0127462Y0105481D01*
X0127526Y0105626D01*
X0127594Y0105769D01*
X0127665Y0105910D01*
X0127739Y0106049D01*
X0127818Y0106186D01*
X0127899Y0106321D01*
X0127984Y0106455D01*
X0128072Y0106586D01*
X0128164Y0106714D01*
X0128259Y0106841D01*
X0128357Y0106965D01*
X0128458Y0107086D01*
X0128562Y0107205D01*
X0128669Y0107321D01*
X0128779Y0107435D01*
X0128891Y0107545D01*
X0129007Y0107653D01*
X0129125Y0107758D01*
X0129246Y0107859D01*
X0129369Y0107958D01*
X0129495Y0108054D01*
X0129623Y0108146D01*
X0129753Y0108235D01*
X0129886Y0108321D01*
X0130021Y0108403D01*
X0130158Y0108482D01*
X0130296Y0108558D01*
X0130437Y0108630D01*
X0130579Y0108698D01*
X0130723Y0108763D01*
X0130869Y0108824D01*
X0131016Y0108882D01*
X0131165Y0108935D01*
X0131315Y0108985D01*
X0131466Y0109031D01*
X0131618Y0109074D01*
X0131771Y0109112D01*
X0131925Y0109147D01*
X0132080Y0109178D01*
X0132236Y0109204D01*
X0132392Y0109227D01*
X0132549Y0109246D01*
X0132706Y0109261D01*
X0132864Y0109272D01*
X0133022Y0109279D01*
X0133180Y0109282D01*
X0133337Y0109281D01*
X0133495Y0109276D01*
X0133653Y0109267D01*
X0133810Y0109254D01*
X0133968Y0109237D01*
X0134124Y0109216D01*
X0134280Y0109191D01*
X0134435Y0109163D01*
X0134590Y0109130D01*
X0134744Y0109093D01*
X0134896Y0109053D01*
X0135048Y0109009D01*
X0135198Y0108961D01*
X0135348Y0108909D01*
X0135496Y0108853D01*
X0135642Y0108794D01*
X0135787Y0108731D01*
X0135930Y0108665D01*
X0136072Y0108594D01*
X0136211Y0108521D01*
X0136349Y0108443D01*
X0136485Y0108363D01*
X0136618Y0108279D01*
X0136750Y0108191D01*
X0136879Y0108100D01*
X0137006Y0108006D01*
X0137131Y0107909D01*
X0137253Y0107809D01*
X0137372Y0107706D01*
X0137489Y0107599D01*
X0137603Y0107490D01*
X0137715Y0107378D01*
X0137823Y0107263D01*
X0137929Y0107146D01*
X0138031Y0107026D01*
X0138131Y0106903D01*
X0138227Y0106778D01*
X0138320Y0106650D01*
X0138410Y0106520D01*
X0138497Y0106388D01*
X0138580Y0106254D01*
X0138660Y0106118D01*
X0138736Y0105979D01*
X0138809Y0105839D01*
X0138879Y0105697D01*
X0138944Y0105554D01*
X0139006Y0105408D01*
X0139065Y0105262D01*
X0139119Y0105113D01*
X0139170Y0104964D01*
X0139217Y0104813D01*
X0139261Y0104661D01*
X0139300Y0104508D01*
X0139336Y0104354D01*
X0139367Y0104200D01*
X0139395Y0104044D01*
X0139419Y0103888D01*
X0139439Y0103731D01*
X0139455Y0103574D01*
X0139467Y0103417D01*
X0139475Y0103259D01*
X0139479Y0103101D01*
X0139479Y0102943D01*
X0139475Y0102785D01*
X0139467Y0102627D01*
X0139455Y0102470D01*
X0139439Y0102313D01*
X0139419Y0102156D01*
X0139395Y0102000D01*
X0139367Y0101844D01*
X0139336Y0101690D01*
X0139300Y0101536D01*
X0139261Y0101383D01*
X0139217Y0101231D01*
X0139170Y0101080D01*
X0139119Y0100931D01*
X0139065Y0100782D01*
X0139006Y0100636D01*
X0138944Y0100490D01*
X0138879Y0100347D01*
X0138809Y0100205D01*
X0138736Y0100065D01*
X0138660Y0099926D01*
X0138580Y0099790D01*
X0138497Y0099656D01*
X0138410Y0099524D01*
X0138320Y0099394D01*
X0138227Y0099266D01*
X0138131Y0099141D01*
X0138031Y0099018D01*
X0137929Y0098898D01*
X0137823Y0098781D01*
X0137715Y0098666D01*
X0137603Y0098554D01*
X0137489Y0098445D01*
X0137372Y0098338D01*
X0137253Y0098235D01*
X0137131Y0098135D01*
X0137006Y0098038D01*
X0136879Y0097944D01*
X0136750Y0097853D01*
X0136618Y0097765D01*
X0136485Y0097681D01*
X0136349Y0097601D01*
X0136211Y0097523D01*
X0136072Y0097450D01*
X0135930Y0097379D01*
X0135787Y0097313D01*
X0135642Y0097250D01*
X0135496Y0097191D01*
X0135348Y0097135D01*
X0135198Y0097083D01*
X0135048Y0097035D01*
X0134896Y0096991D01*
X0134744Y0096951D01*
X0134590Y0096914D01*
X0134435Y0096881D01*
X0134280Y0096853D01*
X0134124Y0096828D01*
X0133968Y0096807D01*
X0133810Y0096790D01*
X0133653Y0096777D01*
X0133495Y0096768D01*
X0133337Y0096763D01*
X0133180Y0096762D01*
X0133022Y0096765D01*
X0132864Y0096772D01*
X0132706Y0096783D01*
X0132549Y0096798D01*
X0132392Y0096817D01*
X0132236Y0096840D01*
X0132080Y0096866D01*
X0131925Y0096897D01*
X0131771Y0096932D01*
X0131618Y0096970D01*
X0131466Y0097013D01*
X0131315Y0097059D01*
X0131165Y0097109D01*
X0131016Y0097162D01*
X0130869Y0097220D01*
X0130723Y0097281D01*
X0130579Y0097346D01*
X0130437Y0097414D01*
X0130296Y0097486D01*
X0130158Y0097562D01*
X0130021Y0097641D01*
X0129886Y0097723D01*
X0129753Y0097809D01*
X0129623Y0097898D01*
X0129495Y0097990D01*
X0129369Y0098086D01*
X0129246Y0098185D01*
X0129125Y0098286D01*
X0129007Y0098391D01*
X0128891Y0098499D01*
X0128779Y0098609D01*
X0128669Y0098723D01*
X0128562Y0098839D01*
X0128458Y0098958D01*
X0128357Y0099079D01*
X0128259Y0099203D01*
X0128164Y0099330D01*
X0128072Y0099458D01*
X0127984Y0099589D01*
X0127899Y0099723D01*
X0127818Y0099858D01*
X0127739Y0099995D01*
X0127665Y0100134D01*
X0127594Y0100275D01*
X0127526Y0100418D01*
X0127462Y0100563D01*
X0127402Y0100709D01*
X0127346Y0100856D01*
X0127293Y0101005D01*
X0127244Y0101155D01*
X0127199Y0101307D01*
X0127157Y0101459D01*
X0127120Y0101613D01*
X0127086Y0101767D01*
X0127056Y0101922D01*
X0127031Y0102078D01*
X0127009Y0102234D01*
X0126991Y0102391D01*
X0126977Y0102549D01*
X0126967Y0102706D01*
X0126961Y0102864D01*
X0126959Y0103022D01*
X0170817Y0101841D02*
X0170819Y0101934D01*
X0170825Y0102026D01*
X0170835Y0102118D01*
X0170849Y0102209D01*
X0170866Y0102300D01*
X0170888Y0102390D01*
X0170913Y0102479D01*
X0170942Y0102567D01*
X0170975Y0102653D01*
X0171012Y0102738D01*
X0171052Y0102822D01*
X0171096Y0102903D01*
X0171143Y0102983D01*
X0171193Y0103061D01*
X0171247Y0103136D01*
X0171304Y0103209D01*
X0171364Y0103279D01*
X0171427Y0103347D01*
X0171493Y0103412D01*
X0171561Y0103474D01*
X0171632Y0103534D01*
X0171706Y0103590D01*
X0171782Y0103643D01*
X0171860Y0103692D01*
X0171940Y0103739D01*
X0172022Y0103781D01*
X0172106Y0103821D01*
X0172191Y0103856D01*
X0172278Y0103888D01*
X0172366Y0103917D01*
X0172455Y0103941D01*
X0172545Y0103962D01*
X0172636Y0103978D01*
X0172728Y0103991D01*
X0172820Y0104000D01*
X0172913Y0104005D01*
X0173005Y0104006D01*
X0173098Y0104003D01*
X0173190Y0103996D01*
X0173282Y0103985D01*
X0173373Y0103970D01*
X0173464Y0103952D01*
X0173554Y0103929D01*
X0173642Y0103903D01*
X0173730Y0103873D01*
X0173816Y0103839D01*
X0173900Y0103802D01*
X0173983Y0103760D01*
X0174064Y0103716D01*
X0174144Y0103668D01*
X0174221Y0103617D01*
X0174295Y0103562D01*
X0174368Y0103504D01*
X0174438Y0103444D01*
X0174505Y0103380D01*
X0174569Y0103314D01*
X0174631Y0103244D01*
X0174689Y0103173D01*
X0174744Y0103099D01*
X0174796Y0103022D01*
X0174845Y0102943D01*
X0174891Y0102863D01*
X0174933Y0102780D01*
X0174971Y0102696D01*
X0175006Y0102610D01*
X0175037Y0102523D01*
X0175064Y0102435D01*
X0175087Y0102345D01*
X0175107Y0102255D01*
X0175123Y0102164D01*
X0175135Y0102072D01*
X0175143Y0101980D01*
X0175147Y0101887D01*
X0175147Y0101795D01*
X0175143Y0101702D01*
X0175135Y0101610D01*
X0175123Y0101518D01*
X0175107Y0101427D01*
X0175087Y0101337D01*
X0175064Y0101247D01*
X0175037Y0101159D01*
X0175006Y0101072D01*
X0174971Y0100986D01*
X0174933Y0100902D01*
X0174891Y0100819D01*
X0174845Y0100739D01*
X0174796Y0100660D01*
X0174744Y0100583D01*
X0174689Y0100509D01*
X0174631Y0100438D01*
X0174569Y0100368D01*
X0174505Y0100302D01*
X0174438Y0100238D01*
X0174368Y0100178D01*
X0174295Y0100120D01*
X0174221Y0100065D01*
X0174144Y0100014D01*
X0174065Y0099966D01*
X0173983Y0099922D01*
X0173900Y0099880D01*
X0173816Y0099843D01*
X0173730Y0099809D01*
X0173642Y0099779D01*
X0173554Y0099753D01*
X0173464Y0099730D01*
X0173373Y0099712D01*
X0173282Y0099697D01*
X0173190Y0099686D01*
X0173098Y0099679D01*
X0173005Y0099676D01*
X0172913Y0099677D01*
X0172820Y0099682D01*
X0172728Y0099691D01*
X0172636Y0099704D01*
X0172545Y0099720D01*
X0172455Y0099741D01*
X0172366Y0099765D01*
X0172278Y0099794D01*
X0172191Y0099826D01*
X0172106Y0099861D01*
X0172022Y0099901D01*
X0171940Y0099943D01*
X0171860Y0099990D01*
X0171782Y0100039D01*
X0171706Y0100092D01*
X0171632Y0100148D01*
X0171561Y0100208D01*
X0171493Y0100270D01*
X0171427Y0100335D01*
X0171364Y0100403D01*
X0171304Y0100473D01*
X0171247Y0100546D01*
X0171193Y0100621D01*
X0171143Y0100699D01*
X0171096Y0100779D01*
X0171052Y0100860D01*
X0171012Y0100944D01*
X0170975Y0101029D01*
X0170942Y0101115D01*
X0170913Y0101203D01*
X0170888Y0101292D01*
X0170866Y0101382D01*
X0170849Y0101473D01*
X0170835Y0101564D01*
X0170825Y0101656D01*
X0170819Y0101748D01*
X0170817Y0101841D01*
X0115305Y0034911D02*
X0115307Y0035062D01*
X0115313Y0035212D01*
X0115323Y0035363D01*
X0115337Y0035513D01*
X0115355Y0035662D01*
X0115376Y0035812D01*
X0115402Y0035960D01*
X0115432Y0036108D01*
X0115465Y0036255D01*
X0115503Y0036401D01*
X0115544Y0036546D01*
X0115589Y0036690D01*
X0115638Y0036832D01*
X0115691Y0036973D01*
X0115747Y0037113D01*
X0115807Y0037251D01*
X0115870Y0037388D01*
X0115938Y0037523D01*
X0116008Y0037656D01*
X0116082Y0037787D01*
X0116160Y0037916D01*
X0116241Y0038043D01*
X0116325Y0038168D01*
X0116413Y0038291D01*
X0116504Y0038411D01*
X0116598Y0038529D01*
X0116695Y0038644D01*
X0116795Y0038757D01*
X0116898Y0038867D01*
X0117004Y0038974D01*
X0117113Y0039079D01*
X0117224Y0039180D01*
X0117338Y0039279D01*
X0117454Y0039374D01*
X0117574Y0039467D01*
X0117695Y0039556D01*
X0117819Y0039642D01*
X0117945Y0039725D01*
X0118073Y0039804D01*
X0118203Y0039880D01*
X0118335Y0039953D01*
X0118469Y0040021D01*
X0118605Y0040087D01*
X0118743Y0040149D01*
X0118882Y0040207D01*
X0119022Y0040261D01*
X0119164Y0040312D01*
X0119307Y0040359D01*
X0119452Y0040402D01*
X0119597Y0040441D01*
X0119744Y0040477D01*
X0119891Y0040508D01*
X0120039Y0040536D01*
X0120188Y0040560D01*
X0120337Y0040580D01*
X0120487Y0040596D01*
X0120637Y0040608D01*
X0120788Y0040616D01*
X0120939Y0040620D01*
X0121089Y0040620D01*
X0121240Y0040616D01*
X0121391Y0040608D01*
X0121541Y0040596D01*
X0121691Y0040580D01*
X0121840Y0040560D01*
X0121989Y0040536D01*
X0122137Y0040508D01*
X0122284Y0040477D01*
X0122431Y0040441D01*
X0122576Y0040402D01*
X0122721Y0040359D01*
X0122864Y0040312D01*
X0123006Y0040261D01*
X0123146Y0040207D01*
X0123285Y0040149D01*
X0123423Y0040087D01*
X0123559Y0040021D01*
X0123693Y0039953D01*
X0123825Y0039880D01*
X0123955Y0039804D01*
X0124083Y0039725D01*
X0124209Y0039642D01*
X0124333Y0039556D01*
X0124454Y0039467D01*
X0124574Y0039374D01*
X0124690Y0039279D01*
X0124804Y0039180D01*
X0124915Y0039079D01*
X0125024Y0038974D01*
X0125130Y0038867D01*
X0125233Y0038757D01*
X0125333Y0038644D01*
X0125430Y0038529D01*
X0125524Y0038411D01*
X0125615Y0038291D01*
X0125703Y0038168D01*
X0125787Y0038043D01*
X0125868Y0037916D01*
X0125946Y0037787D01*
X0126020Y0037656D01*
X0126090Y0037523D01*
X0126158Y0037388D01*
X0126221Y0037251D01*
X0126281Y0037113D01*
X0126337Y0036973D01*
X0126390Y0036832D01*
X0126439Y0036690D01*
X0126484Y0036546D01*
X0126525Y0036401D01*
X0126563Y0036255D01*
X0126596Y0036108D01*
X0126626Y0035960D01*
X0126652Y0035812D01*
X0126673Y0035662D01*
X0126691Y0035513D01*
X0126705Y0035363D01*
X0126715Y0035212D01*
X0126721Y0035062D01*
X0126723Y0034911D01*
X0126721Y0034760D01*
X0126715Y0034610D01*
X0126705Y0034459D01*
X0126691Y0034309D01*
X0126673Y0034160D01*
X0126652Y0034010D01*
X0126626Y0033862D01*
X0126596Y0033714D01*
X0126563Y0033567D01*
X0126525Y0033421D01*
X0126484Y0033276D01*
X0126439Y0033132D01*
X0126390Y0032990D01*
X0126337Y0032849D01*
X0126281Y0032709D01*
X0126221Y0032571D01*
X0126158Y0032434D01*
X0126090Y0032299D01*
X0126020Y0032166D01*
X0125946Y0032035D01*
X0125868Y0031906D01*
X0125787Y0031779D01*
X0125703Y0031654D01*
X0125615Y0031531D01*
X0125524Y0031411D01*
X0125430Y0031293D01*
X0125333Y0031178D01*
X0125233Y0031065D01*
X0125130Y0030955D01*
X0125024Y0030848D01*
X0124915Y0030743D01*
X0124804Y0030642D01*
X0124690Y0030543D01*
X0124574Y0030448D01*
X0124454Y0030355D01*
X0124333Y0030266D01*
X0124209Y0030180D01*
X0124083Y0030097D01*
X0123955Y0030018D01*
X0123825Y0029942D01*
X0123693Y0029869D01*
X0123559Y0029801D01*
X0123423Y0029735D01*
X0123285Y0029673D01*
X0123146Y0029615D01*
X0123006Y0029561D01*
X0122864Y0029510D01*
X0122721Y0029463D01*
X0122576Y0029420D01*
X0122431Y0029381D01*
X0122284Y0029345D01*
X0122137Y0029314D01*
X0121989Y0029286D01*
X0121840Y0029262D01*
X0121691Y0029242D01*
X0121541Y0029226D01*
X0121391Y0029214D01*
X0121240Y0029206D01*
X0121089Y0029202D01*
X0120939Y0029202D01*
X0120788Y0029206D01*
X0120637Y0029214D01*
X0120487Y0029226D01*
X0120337Y0029242D01*
X0120188Y0029262D01*
X0120039Y0029286D01*
X0119891Y0029314D01*
X0119744Y0029345D01*
X0119597Y0029381D01*
X0119452Y0029420D01*
X0119307Y0029463D01*
X0119164Y0029510D01*
X0119022Y0029561D01*
X0118882Y0029615D01*
X0118743Y0029673D01*
X0118605Y0029735D01*
X0118469Y0029801D01*
X0118335Y0029869D01*
X0118203Y0029942D01*
X0118073Y0030018D01*
X0117945Y0030097D01*
X0117819Y0030180D01*
X0117695Y0030266D01*
X0117574Y0030355D01*
X0117454Y0030448D01*
X0117338Y0030543D01*
X0117224Y0030642D01*
X0117113Y0030743D01*
X0117004Y0030848D01*
X0116898Y0030955D01*
X0116795Y0031065D01*
X0116695Y0031178D01*
X0116598Y0031293D01*
X0116504Y0031411D01*
X0116413Y0031531D01*
X0116325Y0031654D01*
X0116241Y0031779D01*
X0116160Y0031906D01*
X0116082Y0032035D01*
X0116008Y0032166D01*
X0115938Y0032299D01*
X0115870Y0032434D01*
X0115807Y0032571D01*
X0115747Y0032709D01*
X0115691Y0032849D01*
X0115638Y0032990D01*
X0115589Y0033132D01*
X0115544Y0033276D01*
X0115503Y0033421D01*
X0115465Y0033567D01*
X0115432Y0033714D01*
X0115402Y0033862D01*
X0115376Y0034010D01*
X0115355Y0034160D01*
X0115337Y0034309D01*
X0115323Y0034459D01*
X0115313Y0034610D01*
X0115307Y0034760D01*
X0115305Y0034911D01*
X0270816Y0111486D02*
X0270818Y0111620D01*
X0270824Y0111754D01*
X0270834Y0111888D01*
X0270848Y0112022D01*
X0270866Y0112155D01*
X0270887Y0112287D01*
X0270913Y0112419D01*
X0270943Y0112550D01*
X0270976Y0112680D01*
X0271013Y0112808D01*
X0271055Y0112936D01*
X0271099Y0113063D01*
X0271148Y0113188D01*
X0271200Y0113311D01*
X0271256Y0113433D01*
X0271316Y0113554D01*
X0271379Y0113672D01*
X0271445Y0113789D01*
X0271515Y0113903D01*
X0271588Y0114016D01*
X0271665Y0114126D01*
X0271745Y0114234D01*
X0271828Y0114339D01*
X0271914Y0114442D01*
X0272003Y0114542D01*
X0272095Y0114640D01*
X0272190Y0114735D01*
X0272288Y0114827D01*
X0272388Y0114916D01*
X0272491Y0115002D01*
X0272596Y0115085D01*
X0272704Y0115165D01*
X0272814Y0115242D01*
X0272927Y0115315D01*
X0273041Y0115385D01*
X0273158Y0115451D01*
X0273276Y0115514D01*
X0273397Y0115574D01*
X0273519Y0115630D01*
X0273642Y0115682D01*
X0273767Y0115731D01*
X0273894Y0115775D01*
X0274022Y0115817D01*
X0274150Y0115854D01*
X0274280Y0115887D01*
X0274411Y0115917D01*
X0274543Y0115943D01*
X0274675Y0115964D01*
X0274808Y0115982D01*
X0274942Y0115996D01*
X0275076Y0116006D01*
X0275210Y0116012D01*
X0275344Y0116014D01*
X0275478Y0116012D01*
X0275612Y0116006D01*
X0275746Y0115996D01*
X0275880Y0115982D01*
X0276013Y0115964D01*
X0276145Y0115943D01*
X0276277Y0115917D01*
X0276408Y0115887D01*
X0276538Y0115854D01*
X0276666Y0115817D01*
X0276794Y0115775D01*
X0276921Y0115731D01*
X0277046Y0115682D01*
X0277169Y0115630D01*
X0277291Y0115574D01*
X0277412Y0115514D01*
X0277530Y0115451D01*
X0277647Y0115385D01*
X0277761Y0115315D01*
X0277874Y0115242D01*
X0277984Y0115165D01*
X0278092Y0115085D01*
X0278197Y0115002D01*
X0278300Y0114916D01*
X0278400Y0114827D01*
X0278498Y0114735D01*
X0278593Y0114640D01*
X0278685Y0114542D01*
X0278774Y0114442D01*
X0278860Y0114339D01*
X0278943Y0114234D01*
X0279023Y0114126D01*
X0279100Y0114016D01*
X0279173Y0113903D01*
X0279243Y0113789D01*
X0279309Y0113672D01*
X0279372Y0113554D01*
X0279432Y0113433D01*
X0279488Y0113311D01*
X0279540Y0113188D01*
X0279589Y0113063D01*
X0279633Y0112936D01*
X0279675Y0112808D01*
X0279712Y0112680D01*
X0279745Y0112550D01*
X0279775Y0112419D01*
X0279801Y0112287D01*
X0279822Y0112155D01*
X0279840Y0112022D01*
X0279854Y0111888D01*
X0279864Y0111754D01*
X0279870Y0111620D01*
X0279872Y0111486D01*
X0279870Y0111352D01*
X0279864Y0111218D01*
X0279854Y0111084D01*
X0279840Y0110950D01*
X0279822Y0110817D01*
X0279801Y0110685D01*
X0279775Y0110553D01*
X0279745Y0110422D01*
X0279712Y0110292D01*
X0279675Y0110164D01*
X0279633Y0110036D01*
X0279589Y0109909D01*
X0279540Y0109784D01*
X0279488Y0109661D01*
X0279432Y0109539D01*
X0279372Y0109418D01*
X0279309Y0109300D01*
X0279243Y0109183D01*
X0279173Y0109069D01*
X0279100Y0108956D01*
X0279023Y0108846D01*
X0278943Y0108738D01*
X0278860Y0108633D01*
X0278774Y0108530D01*
X0278685Y0108430D01*
X0278593Y0108332D01*
X0278498Y0108237D01*
X0278400Y0108145D01*
X0278300Y0108056D01*
X0278197Y0107970D01*
X0278092Y0107887D01*
X0277984Y0107807D01*
X0277874Y0107730D01*
X0277761Y0107657D01*
X0277647Y0107587D01*
X0277530Y0107521D01*
X0277412Y0107458D01*
X0277291Y0107398D01*
X0277169Y0107342D01*
X0277046Y0107290D01*
X0276921Y0107241D01*
X0276794Y0107197D01*
X0276666Y0107155D01*
X0276538Y0107118D01*
X0276408Y0107085D01*
X0276277Y0107055D01*
X0276145Y0107029D01*
X0276013Y0107008D01*
X0275880Y0106990D01*
X0275746Y0106976D01*
X0275612Y0106966D01*
X0275478Y0106960D01*
X0275344Y0106958D01*
X0275210Y0106960D01*
X0275076Y0106966D01*
X0274942Y0106976D01*
X0274808Y0106990D01*
X0274675Y0107008D01*
X0274543Y0107029D01*
X0274411Y0107055D01*
X0274280Y0107085D01*
X0274150Y0107118D01*
X0274022Y0107155D01*
X0273894Y0107197D01*
X0273767Y0107241D01*
X0273642Y0107290D01*
X0273519Y0107342D01*
X0273397Y0107398D01*
X0273276Y0107458D01*
X0273158Y0107521D01*
X0273041Y0107587D01*
X0272927Y0107657D01*
X0272814Y0107730D01*
X0272704Y0107807D01*
X0272596Y0107887D01*
X0272491Y0107970D01*
X0272388Y0108056D01*
X0272288Y0108145D01*
X0272190Y0108237D01*
X0272095Y0108332D01*
X0272003Y0108430D01*
X0271914Y0108530D01*
X0271828Y0108633D01*
X0271745Y0108738D01*
X0271665Y0108846D01*
X0271588Y0108956D01*
X0271515Y0109069D01*
X0271445Y0109183D01*
X0271379Y0109300D01*
X0271316Y0109418D01*
X0271256Y0109539D01*
X0271200Y0109661D01*
X0271148Y0109784D01*
X0271099Y0109909D01*
X0271055Y0110036D01*
X0271013Y0110164D01*
X0270976Y0110292D01*
X0270943Y0110422D01*
X0270913Y0110553D01*
X0270887Y0110685D01*
X0270866Y0110817D01*
X0270848Y0110950D01*
X0270834Y0111084D01*
X0270824Y0111218D01*
X0270818Y0111352D01*
X0270816Y0111486D01*
X0297037Y0103022D02*
X0297039Y0103180D01*
X0297045Y0103338D01*
X0297055Y0103495D01*
X0297069Y0103653D01*
X0297087Y0103810D01*
X0297109Y0103966D01*
X0297134Y0104122D01*
X0297164Y0104277D01*
X0297198Y0104431D01*
X0297235Y0104585D01*
X0297277Y0104737D01*
X0297322Y0104889D01*
X0297371Y0105039D01*
X0297424Y0105188D01*
X0297480Y0105335D01*
X0297540Y0105481D01*
X0297604Y0105626D01*
X0297672Y0105769D01*
X0297743Y0105910D01*
X0297817Y0106049D01*
X0297896Y0106186D01*
X0297977Y0106321D01*
X0298062Y0106455D01*
X0298150Y0106586D01*
X0298242Y0106714D01*
X0298337Y0106841D01*
X0298435Y0106965D01*
X0298536Y0107086D01*
X0298640Y0107205D01*
X0298747Y0107321D01*
X0298857Y0107435D01*
X0298969Y0107545D01*
X0299085Y0107653D01*
X0299203Y0107758D01*
X0299324Y0107859D01*
X0299447Y0107958D01*
X0299573Y0108054D01*
X0299701Y0108146D01*
X0299831Y0108235D01*
X0299964Y0108321D01*
X0300099Y0108403D01*
X0300236Y0108482D01*
X0300374Y0108558D01*
X0300515Y0108630D01*
X0300657Y0108698D01*
X0300801Y0108763D01*
X0300947Y0108824D01*
X0301094Y0108882D01*
X0301243Y0108935D01*
X0301393Y0108985D01*
X0301544Y0109031D01*
X0301696Y0109074D01*
X0301849Y0109112D01*
X0302003Y0109147D01*
X0302158Y0109178D01*
X0302314Y0109204D01*
X0302470Y0109227D01*
X0302627Y0109246D01*
X0302784Y0109261D01*
X0302942Y0109272D01*
X0303100Y0109279D01*
X0303258Y0109282D01*
X0303415Y0109281D01*
X0303573Y0109276D01*
X0303731Y0109267D01*
X0303888Y0109254D01*
X0304046Y0109237D01*
X0304202Y0109216D01*
X0304358Y0109191D01*
X0304513Y0109163D01*
X0304668Y0109130D01*
X0304822Y0109093D01*
X0304974Y0109053D01*
X0305126Y0109009D01*
X0305276Y0108961D01*
X0305426Y0108909D01*
X0305574Y0108853D01*
X0305720Y0108794D01*
X0305865Y0108731D01*
X0306008Y0108665D01*
X0306150Y0108594D01*
X0306289Y0108521D01*
X0306427Y0108443D01*
X0306563Y0108363D01*
X0306696Y0108279D01*
X0306828Y0108191D01*
X0306957Y0108100D01*
X0307084Y0108006D01*
X0307209Y0107909D01*
X0307331Y0107809D01*
X0307450Y0107706D01*
X0307567Y0107599D01*
X0307681Y0107490D01*
X0307793Y0107378D01*
X0307901Y0107263D01*
X0308007Y0107146D01*
X0308109Y0107026D01*
X0308209Y0106903D01*
X0308305Y0106778D01*
X0308398Y0106650D01*
X0308488Y0106520D01*
X0308575Y0106388D01*
X0308658Y0106254D01*
X0308738Y0106118D01*
X0308814Y0105979D01*
X0308887Y0105839D01*
X0308957Y0105697D01*
X0309022Y0105554D01*
X0309084Y0105408D01*
X0309143Y0105262D01*
X0309197Y0105113D01*
X0309248Y0104964D01*
X0309295Y0104813D01*
X0309339Y0104661D01*
X0309378Y0104508D01*
X0309414Y0104354D01*
X0309445Y0104200D01*
X0309473Y0104044D01*
X0309497Y0103888D01*
X0309517Y0103731D01*
X0309533Y0103574D01*
X0309545Y0103417D01*
X0309553Y0103259D01*
X0309557Y0103101D01*
X0309557Y0102943D01*
X0309553Y0102785D01*
X0309545Y0102627D01*
X0309533Y0102470D01*
X0309517Y0102313D01*
X0309497Y0102156D01*
X0309473Y0102000D01*
X0309445Y0101844D01*
X0309414Y0101690D01*
X0309378Y0101536D01*
X0309339Y0101383D01*
X0309295Y0101231D01*
X0309248Y0101080D01*
X0309197Y0100931D01*
X0309143Y0100782D01*
X0309084Y0100636D01*
X0309022Y0100490D01*
X0308957Y0100347D01*
X0308887Y0100205D01*
X0308814Y0100065D01*
X0308738Y0099926D01*
X0308658Y0099790D01*
X0308575Y0099656D01*
X0308488Y0099524D01*
X0308398Y0099394D01*
X0308305Y0099266D01*
X0308209Y0099141D01*
X0308109Y0099018D01*
X0308007Y0098898D01*
X0307901Y0098781D01*
X0307793Y0098666D01*
X0307681Y0098554D01*
X0307567Y0098445D01*
X0307450Y0098338D01*
X0307331Y0098235D01*
X0307209Y0098135D01*
X0307084Y0098038D01*
X0306957Y0097944D01*
X0306828Y0097853D01*
X0306696Y0097765D01*
X0306563Y0097681D01*
X0306427Y0097601D01*
X0306289Y0097523D01*
X0306150Y0097450D01*
X0306008Y0097379D01*
X0305865Y0097313D01*
X0305720Y0097250D01*
X0305574Y0097191D01*
X0305426Y0097135D01*
X0305276Y0097083D01*
X0305126Y0097035D01*
X0304974Y0096991D01*
X0304822Y0096951D01*
X0304668Y0096914D01*
X0304513Y0096881D01*
X0304358Y0096853D01*
X0304202Y0096828D01*
X0304046Y0096807D01*
X0303888Y0096790D01*
X0303731Y0096777D01*
X0303573Y0096768D01*
X0303415Y0096763D01*
X0303258Y0096762D01*
X0303100Y0096765D01*
X0302942Y0096772D01*
X0302784Y0096783D01*
X0302627Y0096798D01*
X0302470Y0096817D01*
X0302314Y0096840D01*
X0302158Y0096866D01*
X0302003Y0096897D01*
X0301849Y0096932D01*
X0301696Y0096970D01*
X0301544Y0097013D01*
X0301393Y0097059D01*
X0301243Y0097109D01*
X0301094Y0097162D01*
X0300947Y0097220D01*
X0300801Y0097281D01*
X0300657Y0097346D01*
X0300515Y0097414D01*
X0300374Y0097486D01*
X0300236Y0097562D01*
X0300099Y0097641D01*
X0299964Y0097723D01*
X0299831Y0097809D01*
X0299701Y0097898D01*
X0299573Y0097990D01*
X0299447Y0098086D01*
X0299324Y0098185D01*
X0299203Y0098286D01*
X0299085Y0098391D01*
X0298969Y0098499D01*
X0298857Y0098609D01*
X0298747Y0098723D01*
X0298640Y0098839D01*
X0298536Y0098958D01*
X0298435Y0099079D01*
X0298337Y0099203D01*
X0298242Y0099330D01*
X0298150Y0099458D01*
X0298062Y0099589D01*
X0297977Y0099723D01*
X0297896Y0099858D01*
X0297817Y0099995D01*
X0297743Y0100134D01*
X0297672Y0100275D01*
X0297604Y0100418D01*
X0297540Y0100563D01*
X0297480Y0100709D01*
X0297424Y0100856D01*
X0297371Y0101005D01*
X0297322Y0101155D01*
X0297277Y0101307D01*
X0297235Y0101459D01*
X0297198Y0101613D01*
X0297164Y0101767D01*
X0297134Y0101922D01*
X0297109Y0102078D01*
X0297087Y0102234D01*
X0297069Y0102391D01*
X0297055Y0102549D01*
X0297045Y0102706D01*
X0297039Y0102864D01*
X0297037Y0103022D01*
X0295226Y0167982D02*
X0295228Y0168133D01*
X0295234Y0168283D01*
X0295244Y0168434D01*
X0295258Y0168584D01*
X0295276Y0168733D01*
X0295297Y0168883D01*
X0295323Y0169031D01*
X0295353Y0169179D01*
X0295386Y0169326D01*
X0295424Y0169472D01*
X0295465Y0169617D01*
X0295510Y0169761D01*
X0295559Y0169903D01*
X0295612Y0170044D01*
X0295668Y0170184D01*
X0295728Y0170322D01*
X0295791Y0170459D01*
X0295859Y0170594D01*
X0295929Y0170727D01*
X0296003Y0170858D01*
X0296081Y0170987D01*
X0296162Y0171114D01*
X0296246Y0171239D01*
X0296334Y0171362D01*
X0296425Y0171482D01*
X0296519Y0171600D01*
X0296616Y0171715D01*
X0296716Y0171828D01*
X0296819Y0171938D01*
X0296925Y0172045D01*
X0297034Y0172150D01*
X0297145Y0172251D01*
X0297259Y0172350D01*
X0297375Y0172445D01*
X0297495Y0172538D01*
X0297616Y0172627D01*
X0297740Y0172713D01*
X0297866Y0172796D01*
X0297994Y0172875D01*
X0298124Y0172951D01*
X0298256Y0173024D01*
X0298390Y0173092D01*
X0298526Y0173158D01*
X0298664Y0173220D01*
X0298803Y0173278D01*
X0298943Y0173332D01*
X0299085Y0173383D01*
X0299228Y0173430D01*
X0299373Y0173473D01*
X0299518Y0173512D01*
X0299665Y0173548D01*
X0299812Y0173579D01*
X0299960Y0173607D01*
X0300109Y0173631D01*
X0300258Y0173651D01*
X0300408Y0173667D01*
X0300558Y0173679D01*
X0300709Y0173687D01*
X0300860Y0173691D01*
X0301010Y0173691D01*
X0301161Y0173687D01*
X0301312Y0173679D01*
X0301462Y0173667D01*
X0301612Y0173651D01*
X0301761Y0173631D01*
X0301910Y0173607D01*
X0302058Y0173579D01*
X0302205Y0173548D01*
X0302352Y0173512D01*
X0302497Y0173473D01*
X0302642Y0173430D01*
X0302785Y0173383D01*
X0302927Y0173332D01*
X0303067Y0173278D01*
X0303206Y0173220D01*
X0303344Y0173158D01*
X0303480Y0173092D01*
X0303614Y0173024D01*
X0303746Y0172951D01*
X0303876Y0172875D01*
X0304004Y0172796D01*
X0304130Y0172713D01*
X0304254Y0172627D01*
X0304375Y0172538D01*
X0304495Y0172445D01*
X0304611Y0172350D01*
X0304725Y0172251D01*
X0304836Y0172150D01*
X0304945Y0172045D01*
X0305051Y0171938D01*
X0305154Y0171828D01*
X0305254Y0171715D01*
X0305351Y0171600D01*
X0305445Y0171482D01*
X0305536Y0171362D01*
X0305624Y0171239D01*
X0305708Y0171114D01*
X0305789Y0170987D01*
X0305867Y0170858D01*
X0305941Y0170727D01*
X0306011Y0170594D01*
X0306079Y0170459D01*
X0306142Y0170322D01*
X0306202Y0170184D01*
X0306258Y0170044D01*
X0306311Y0169903D01*
X0306360Y0169761D01*
X0306405Y0169617D01*
X0306446Y0169472D01*
X0306484Y0169326D01*
X0306517Y0169179D01*
X0306547Y0169031D01*
X0306573Y0168883D01*
X0306594Y0168733D01*
X0306612Y0168584D01*
X0306626Y0168434D01*
X0306636Y0168283D01*
X0306642Y0168133D01*
X0306644Y0167982D01*
X0306642Y0167831D01*
X0306636Y0167681D01*
X0306626Y0167530D01*
X0306612Y0167380D01*
X0306594Y0167231D01*
X0306573Y0167081D01*
X0306547Y0166933D01*
X0306517Y0166785D01*
X0306484Y0166638D01*
X0306446Y0166492D01*
X0306405Y0166347D01*
X0306360Y0166203D01*
X0306311Y0166061D01*
X0306258Y0165920D01*
X0306202Y0165780D01*
X0306142Y0165642D01*
X0306079Y0165505D01*
X0306011Y0165370D01*
X0305941Y0165237D01*
X0305867Y0165106D01*
X0305789Y0164977D01*
X0305708Y0164850D01*
X0305624Y0164725D01*
X0305536Y0164602D01*
X0305445Y0164482D01*
X0305351Y0164364D01*
X0305254Y0164249D01*
X0305154Y0164136D01*
X0305051Y0164026D01*
X0304945Y0163919D01*
X0304836Y0163814D01*
X0304725Y0163713D01*
X0304611Y0163614D01*
X0304495Y0163519D01*
X0304375Y0163426D01*
X0304254Y0163337D01*
X0304130Y0163251D01*
X0304004Y0163168D01*
X0303876Y0163089D01*
X0303746Y0163013D01*
X0303614Y0162940D01*
X0303480Y0162872D01*
X0303344Y0162806D01*
X0303206Y0162744D01*
X0303067Y0162686D01*
X0302927Y0162632D01*
X0302785Y0162581D01*
X0302642Y0162534D01*
X0302497Y0162491D01*
X0302352Y0162452D01*
X0302205Y0162416D01*
X0302058Y0162385D01*
X0301910Y0162357D01*
X0301761Y0162333D01*
X0301612Y0162313D01*
X0301462Y0162297D01*
X0301312Y0162285D01*
X0301161Y0162277D01*
X0301010Y0162273D01*
X0300860Y0162273D01*
X0300709Y0162277D01*
X0300558Y0162285D01*
X0300408Y0162297D01*
X0300258Y0162313D01*
X0300109Y0162333D01*
X0299960Y0162357D01*
X0299812Y0162385D01*
X0299665Y0162416D01*
X0299518Y0162452D01*
X0299373Y0162491D01*
X0299228Y0162534D01*
X0299085Y0162581D01*
X0298943Y0162632D01*
X0298803Y0162686D01*
X0298664Y0162744D01*
X0298526Y0162806D01*
X0298390Y0162872D01*
X0298256Y0162940D01*
X0298124Y0163013D01*
X0297994Y0163089D01*
X0297866Y0163168D01*
X0297740Y0163251D01*
X0297616Y0163337D01*
X0297495Y0163426D01*
X0297375Y0163519D01*
X0297259Y0163614D01*
X0297145Y0163713D01*
X0297034Y0163814D01*
X0296925Y0163919D01*
X0296819Y0164026D01*
X0296716Y0164136D01*
X0296616Y0164249D01*
X0296519Y0164364D01*
X0296425Y0164482D01*
X0296334Y0164602D01*
X0296246Y0164725D01*
X0296162Y0164850D01*
X0296081Y0164977D01*
X0296003Y0165106D01*
X0295929Y0165237D01*
X0295859Y0165370D01*
X0295791Y0165505D01*
X0295728Y0165642D01*
X0295668Y0165780D01*
X0295612Y0165920D01*
X0295559Y0166061D01*
X0295510Y0166203D01*
X0295465Y0166347D01*
X0295424Y0166492D01*
X0295386Y0166638D01*
X0295353Y0166785D01*
X0295323Y0166933D01*
X0295297Y0167081D01*
X0295276Y0167231D01*
X0295258Y0167380D01*
X0295244Y0167530D01*
X0295234Y0167681D01*
X0295228Y0167831D01*
X0295226Y0167982D01*
X0334596Y0167982D02*
X0334598Y0168133D01*
X0334604Y0168283D01*
X0334614Y0168434D01*
X0334628Y0168584D01*
X0334646Y0168733D01*
X0334667Y0168883D01*
X0334693Y0169031D01*
X0334723Y0169179D01*
X0334756Y0169326D01*
X0334794Y0169472D01*
X0334835Y0169617D01*
X0334880Y0169761D01*
X0334929Y0169903D01*
X0334982Y0170044D01*
X0335038Y0170184D01*
X0335098Y0170322D01*
X0335161Y0170459D01*
X0335229Y0170594D01*
X0335299Y0170727D01*
X0335373Y0170858D01*
X0335451Y0170987D01*
X0335532Y0171114D01*
X0335616Y0171239D01*
X0335704Y0171362D01*
X0335795Y0171482D01*
X0335889Y0171600D01*
X0335986Y0171715D01*
X0336086Y0171828D01*
X0336189Y0171938D01*
X0336295Y0172045D01*
X0336404Y0172150D01*
X0336515Y0172251D01*
X0336629Y0172350D01*
X0336745Y0172445D01*
X0336865Y0172538D01*
X0336986Y0172627D01*
X0337110Y0172713D01*
X0337236Y0172796D01*
X0337364Y0172875D01*
X0337494Y0172951D01*
X0337626Y0173024D01*
X0337760Y0173092D01*
X0337896Y0173158D01*
X0338034Y0173220D01*
X0338173Y0173278D01*
X0338313Y0173332D01*
X0338455Y0173383D01*
X0338598Y0173430D01*
X0338743Y0173473D01*
X0338888Y0173512D01*
X0339035Y0173548D01*
X0339182Y0173579D01*
X0339330Y0173607D01*
X0339479Y0173631D01*
X0339628Y0173651D01*
X0339778Y0173667D01*
X0339928Y0173679D01*
X0340079Y0173687D01*
X0340230Y0173691D01*
X0340380Y0173691D01*
X0340531Y0173687D01*
X0340682Y0173679D01*
X0340832Y0173667D01*
X0340982Y0173651D01*
X0341131Y0173631D01*
X0341280Y0173607D01*
X0341428Y0173579D01*
X0341575Y0173548D01*
X0341722Y0173512D01*
X0341867Y0173473D01*
X0342012Y0173430D01*
X0342155Y0173383D01*
X0342297Y0173332D01*
X0342437Y0173278D01*
X0342576Y0173220D01*
X0342714Y0173158D01*
X0342850Y0173092D01*
X0342984Y0173024D01*
X0343116Y0172951D01*
X0343246Y0172875D01*
X0343374Y0172796D01*
X0343500Y0172713D01*
X0343624Y0172627D01*
X0343745Y0172538D01*
X0343865Y0172445D01*
X0343981Y0172350D01*
X0344095Y0172251D01*
X0344206Y0172150D01*
X0344315Y0172045D01*
X0344421Y0171938D01*
X0344524Y0171828D01*
X0344624Y0171715D01*
X0344721Y0171600D01*
X0344815Y0171482D01*
X0344906Y0171362D01*
X0344994Y0171239D01*
X0345078Y0171114D01*
X0345159Y0170987D01*
X0345237Y0170858D01*
X0345311Y0170727D01*
X0345381Y0170594D01*
X0345449Y0170459D01*
X0345512Y0170322D01*
X0345572Y0170184D01*
X0345628Y0170044D01*
X0345681Y0169903D01*
X0345730Y0169761D01*
X0345775Y0169617D01*
X0345816Y0169472D01*
X0345854Y0169326D01*
X0345887Y0169179D01*
X0345917Y0169031D01*
X0345943Y0168883D01*
X0345964Y0168733D01*
X0345982Y0168584D01*
X0345996Y0168434D01*
X0346006Y0168283D01*
X0346012Y0168133D01*
X0346014Y0167982D01*
X0346012Y0167831D01*
X0346006Y0167681D01*
X0345996Y0167530D01*
X0345982Y0167380D01*
X0345964Y0167231D01*
X0345943Y0167081D01*
X0345917Y0166933D01*
X0345887Y0166785D01*
X0345854Y0166638D01*
X0345816Y0166492D01*
X0345775Y0166347D01*
X0345730Y0166203D01*
X0345681Y0166061D01*
X0345628Y0165920D01*
X0345572Y0165780D01*
X0345512Y0165642D01*
X0345449Y0165505D01*
X0345381Y0165370D01*
X0345311Y0165237D01*
X0345237Y0165106D01*
X0345159Y0164977D01*
X0345078Y0164850D01*
X0344994Y0164725D01*
X0344906Y0164602D01*
X0344815Y0164482D01*
X0344721Y0164364D01*
X0344624Y0164249D01*
X0344524Y0164136D01*
X0344421Y0164026D01*
X0344315Y0163919D01*
X0344206Y0163814D01*
X0344095Y0163713D01*
X0343981Y0163614D01*
X0343865Y0163519D01*
X0343745Y0163426D01*
X0343624Y0163337D01*
X0343500Y0163251D01*
X0343374Y0163168D01*
X0343246Y0163089D01*
X0343116Y0163013D01*
X0342984Y0162940D01*
X0342850Y0162872D01*
X0342714Y0162806D01*
X0342576Y0162744D01*
X0342437Y0162686D01*
X0342297Y0162632D01*
X0342155Y0162581D01*
X0342012Y0162534D01*
X0341867Y0162491D01*
X0341722Y0162452D01*
X0341575Y0162416D01*
X0341428Y0162385D01*
X0341280Y0162357D01*
X0341131Y0162333D01*
X0340982Y0162313D01*
X0340832Y0162297D01*
X0340682Y0162285D01*
X0340531Y0162277D01*
X0340380Y0162273D01*
X0340230Y0162273D01*
X0340079Y0162277D01*
X0339928Y0162285D01*
X0339778Y0162297D01*
X0339628Y0162313D01*
X0339479Y0162333D01*
X0339330Y0162357D01*
X0339182Y0162385D01*
X0339035Y0162416D01*
X0338888Y0162452D01*
X0338743Y0162491D01*
X0338598Y0162534D01*
X0338455Y0162581D01*
X0338313Y0162632D01*
X0338173Y0162686D01*
X0338034Y0162744D01*
X0337896Y0162806D01*
X0337760Y0162872D01*
X0337626Y0162940D01*
X0337494Y0163013D01*
X0337364Y0163089D01*
X0337236Y0163168D01*
X0337110Y0163251D01*
X0336986Y0163337D01*
X0336865Y0163426D01*
X0336745Y0163519D01*
X0336629Y0163614D01*
X0336515Y0163713D01*
X0336404Y0163814D01*
X0336295Y0163919D01*
X0336189Y0164026D01*
X0336086Y0164136D01*
X0335986Y0164249D01*
X0335889Y0164364D01*
X0335795Y0164482D01*
X0335704Y0164602D01*
X0335616Y0164725D01*
X0335532Y0164850D01*
X0335451Y0164977D01*
X0335373Y0165106D01*
X0335299Y0165237D01*
X0335229Y0165370D01*
X0335161Y0165505D01*
X0335098Y0165642D01*
X0335038Y0165780D01*
X0334982Y0165920D01*
X0334929Y0166061D01*
X0334880Y0166203D01*
X0334835Y0166347D01*
X0334794Y0166492D01*
X0334756Y0166638D01*
X0334723Y0166785D01*
X0334693Y0166933D01*
X0334667Y0167081D01*
X0334646Y0167231D01*
X0334628Y0167380D01*
X0334614Y0167530D01*
X0334604Y0167681D01*
X0334598Y0167831D01*
X0334596Y0167982D01*
X0370029Y0167982D02*
X0370031Y0168133D01*
X0370037Y0168283D01*
X0370047Y0168434D01*
X0370061Y0168584D01*
X0370079Y0168733D01*
X0370100Y0168883D01*
X0370126Y0169031D01*
X0370156Y0169179D01*
X0370189Y0169326D01*
X0370227Y0169472D01*
X0370268Y0169617D01*
X0370313Y0169761D01*
X0370362Y0169903D01*
X0370415Y0170044D01*
X0370471Y0170184D01*
X0370531Y0170322D01*
X0370594Y0170459D01*
X0370662Y0170594D01*
X0370732Y0170727D01*
X0370806Y0170858D01*
X0370884Y0170987D01*
X0370965Y0171114D01*
X0371049Y0171239D01*
X0371137Y0171362D01*
X0371228Y0171482D01*
X0371322Y0171600D01*
X0371419Y0171715D01*
X0371519Y0171828D01*
X0371622Y0171938D01*
X0371728Y0172045D01*
X0371837Y0172150D01*
X0371948Y0172251D01*
X0372062Y0172350D01*
X0372178Y0172445D01*
X0372298Y0172538D01*
X0372419Y0172627D01*
X0372543Y0172713D01*
X0372669Y0172796D01*
X0372797Y0172875D01*
X0372927Y0172951D01*
X0373059Y0173024D01*
X0373193Y0173092D01*
X0373329Y0173158D01*
X0373467Y0173220D01*
X0373606Y0173278D01*
X0373746Y0173332D01*
X0373888Y0173383D01*
X0374031Y0173430D01*
X0374176Y0173473D01*
X0374321Y0173512D01*
X0374468Y0173548D01*
X0374615Y0173579D01*
X0374763Y0173607D01*
X0374912Y0173631D01*
X0375061Y0173651D01*
X0375211Y0173667D01*
X0375361Y0173679D01*
X0375512Y0173687D01*
X0375663Y0173691D01*
X0375813Y0173691D01*
X0375964Y0173687D01*
X0376115Y0173679D01*
X0376265Y0173667D01*
X0376415Y0173651D01*
X0376564Y0173631D01*
X0376713Y0173607D01*
X0376861Y0173579D01*
X0377008Y0173548D01*
X0377155Y0173512D01*
X0377300Y0173473D01*
X0377445Y0173430D01*
X0377588Y0173383D01*
X0377730Y0173332D01*
X0377870Y0173278D01*
X0378009Y0173220D01*
X0378147Y0173158D01*
X0378283Y0173092D01*
X0378417Y0173024D01*
X0378549Y0172951D01*
X0378679Y0172875D01*
X0378807Y0172796D01*
X0378933Y0172713D01*
X0379057Y0172627D01*
X0379178Y0172538D01*
X0379298Y0172445D01*
X0379414Y0172350D01*
X0379528Y0172251D01*
X0379639Y0172150D01*
X0379748Y0172045D01*
X0379854Y0171938D01*
X0379957Y0171828D01*
X0380057Y0171715D01*
X0380154Y0171600D01*
X0380248Y0171482D01*
X0380339Y0171362D01*
X0380427Y0171239D01*
X0380511Y0171114D01*
X0380592Y0170987D01*
X0380670Y0170858D01*
X0380744Y0170727D01*
X0380814Y0170594D01*
X0380882Y0170459D01*
X0380945Y0170322D01*
X0381005Y0170184D01*
X0381061Y0170044D01*
X0381114Y0169903D01*
X0381163Y0169761D01*
X0381208Y0169617D01*
X0381249Y0169472D01*
X0381287Y0169326D01*
X0381320Y0169179D01*
X0381350Y0169031D01*
X0381376Y0168883D01*
X0381397Y0168733D01*
X0381415Y0168584D01*
X0381429Y0168434D01*
X0381439Y0168283D01*
X0381445Y0168133D01*
X0381447Y0167982D01*
X0381445Y0167831D01*
X0381439Y0167681D01*
X0381429Y0167530D01*
X0381415Y0167380D01*
X0381397Y0167231D01*
X0381376Y0167081D01*
X0381350Y0166933D01*
X0381320Y0166785D01*
X0381287Y0166638D01*
X0381249Y0166492D01*
X0381208Y0166347D01*
X0381163Y0166203D01*
X0381114Y0166061D01*
X0381061Y0165920D01*
X0381005Y0165780D01*
X0380945Y0165642D01*
X0380882Y0165505D01*
X0380814Y0165370D01*
X0380744Y0165237D01*
X0380670Y0165106D01*
X0380592Y0164977D01*
X0380511Y0164850D01*
X0380427Y0164725D01*
X0380339Y0164602D01*
X0380248Y0164482D01*
X0380154Y0164364D01*
X0380057Y0164249D01*
X0379957Y0164136D01*
X0379854Y0164026D01*
X0379748Y0163919D01*
X0379639Y0163814D01*
X0379528Y0163713D01*
X0379414Y0163614D01*
X0379298Y0163519D01*
X0379178Y0163426D01*
X0379057Y0163337D01*
X0378933Y0163251D01*
X0378807Y0163168D01*
X0378679Y0163089D01*
X0378549Y0163013D01*
X0378417Y0162940D01*
X0378283Y0162872D01*
X0378147Y0162806D01*
X0378009Y0162744D01*
X0377870Y0162686D01*
X0377730Y0162632D01*
X0377588Y0162581D01*
X0377445Y0162534D01*
X0377300Y0162491D01*
X0377155Y0162452D01*
X0377008Y0162416D01*
X0376861Y0162385D01*
X0376713Y0162357D01*
X0376564Y0162333D01*
X0376415Y0162313D01*
X0376265Y0162297D01*
X0376115Y0162285D01*
X0375964Y0162277D01*
X0375813Y0162273D01*
X0375663Y0162273D01*
X0375512Y0162277D01*
X0375361Y0162285D01*
X0375211Y0162297D01*
X0375061Y0162313D01*
X0374912Y0162333D01*
X0374763Y0162357D01*
X0374615Y0162385D01*
X0374468Y0162416D01*
X0374321Y0162452D01*
X0374176Y0162491D01*
X0374031Y0162534D01*
X0373888Y0162581D01*
X0373746Y0162632D01*
X0373606Y0162686D01*
X0373467Y0162744D01*
X0373329Y0162806D01*
X0373193Y0162872D01*
X0373059Y0162940D01*
X0372927Y0163013D01*
X0372797Y0163089D01*
X0372669Y0163168D01*
X0372543Y0163251D01*
X0372419Y0163337D01*
X0372298Y0163426D01*
X0372178Y0163519D01*
X0372062Y0163614D01*
X0371948Y0163713D01*
X0371837Y0163814D01*
X0371728Y0163919D01*
X0371622Y0164026D01*
X0371519Y0164136D01*
X0371419Y0164249D01*
X0371322Y0164364D01*
X0371228Y0164482D01*
X0371137Y0164602D01*
X0371049Y0164725D01*
X0370965Y0164850D01*
X0370884Y0164977D01*
X0370806Y0165106D01*
X0370732Y0165237D01*
X0370662Y0165370D01*
X0370594Y0165505D01*
X0370531Y0165642D01*
X0370471Y0165780D01*
X0370415Y0165920D01*
X0370362Y0166061D01*
X0370313Y0166203D01*
X0370268Y0166347D01*
X0370227Y0166492D01*
X0370189Y0166638D01*
X0370156Y0166785D01*
X0370126Y0166933D01*
X0370100Y0167081D01*
X0370079Y0167231D01*
X0370061Y0167380D01*
X0370047Y0167530D01*
X0370037Y0167681D01*
X0370031Y0167831D01*
X0370029Y0167982D01*
X0401714Y0148297D02*
X0401716Y0148416D01*
X0401722Y0148534D01*
X0401732Y0148653D01*
X0401746Y0148770D01*
X0401763Y0148888D01*
X0401785Y0149005D01*
X0401811Y0149120D01*
X0401840Y0149235D01*
X0401873Y0149349D01*
X0401911Y0149462D01*
X0401951Y0149574D01*
X0401996Y0149684D01*
X0402044Y0149792D01*
X0402096Y0149899D01*
X0402151Y0150004D01*
X0402210Y0150107D01*
X0402272Y0150208D01*
X0402338Y0150307D01*
X0402406Y0150404D01*
X0402478Y0150498D01*
X0402554Y0150590D01*
X0402632Y0150680D01*
X0402713Y0150766D01*
X0402797Y0150850D01*
X0402883Y0150931D01*
X0402973Y0151009D01*
X0403065Y0151085D01*
X0403159Y0151157D01*
X0403256Y0151225D01*
X0403355Y0151291D01*
X0403456Y0151353D01*
X0403559Y0151412D01*
X0403664Y0151467D01*
X0403771Y0151519D01*
X0403879Y0151567D01*
X0403989Y0151612D01*
X0404101Y0151652D01*
X0404214Y0151690D01*
X0404328Y0151723D01*
X0404443Y0151752D01*
X0404558Y0151778D01*
X0404675Y0151800D01*
X0404793Y0151817D01*
X0404910Y0151831D01*
X0405029Y0151841D01*
X0405147Y0151847D01*
X0405266Y0151849D01*
X0405385Y0151847D01*
X0405503Y0151841D01*
X0405622Y0151831D01*
X0405739Y0151817D01*
X0405857Y0151800D01*
X0405974Y0151778D01*
X0406089Y0151752D01*
X0406204Y0151723D01*
X0406318Y0151690D01*
X0406431Y0151652D01*
X0406543Y0151612D01*
X0406653Y0151567D01*
X0406761Y0151519D01*
X0406868Y0151467D01*
X0406973Y0151412D01*
X0407076Y0151353D01*
X0407177Y0151291D01*
X0407276Y0151225D01*
X0407373Y0151157D01*
X0407467Y0151085D01*
X0407559Y0151009D01*
X0407649Y0150931D01*
X0407735Y0150850D01*
X0407819Y0150766D01*
X0407900Y0150680D01*
X0407978Y0150590D01*
X0408054Y0150498D01*
X0408126Y0150404D01*
X0408194Y0150307D01*
X0408260Y0150208D01*
X0408322Y0150107D01*
X0408381Y0150004D01*
X0408436Y0149899D01*
X0408488Y0149792D01*
X0408536Y0149684D01*
X0408581Y0149574D01*
X0408621Y0149462D01*
X0408659Y0149349D01*
X0408692Y0149235D01*
X0408721Y0149120D01*
X0408747Y0149005D01*
X0408769Y0148888D01*
X0408786Y0148770D01*
X0408800Y0148653D01*
X0408810Y0148534D01*
X0408816Y0148416D01*
X0408818Y0148297D01*
X0408816Y0148178D01*
X0408810Y0148060D01*
X0408800Y0147941D01*
X0408786Y0147824D01*
X0408769Y0147706D01*
X0408747Y0147589D01*
X0408721Y0147474D01*
X0408692Y0147359D01*
X0408659Y0147245D01*
X0408621Y0147132D01*
X0408581Y0147020D01*
X0408536Y0146910D01*
X0408488Y0146802D01*
X0408436Y0146695D01*
X0408381Y0146590D01*
X0408322Y0146487D01*
X0408260Y0146386D01*
X0408194Y0146287D01*
X0408126Y0146190D01*
X0408054Y0146096D01*
X0407978Y0146004D01*
X0407900Y0145914D01*
X0407819Y0145828D01*
X0407735Y0145744D01*
X0407649Y0145663D01*
X0407559Y0145585D01*
X0407467Y0145509D01*
X0407373Y0145437D01*
X0407276Y0145369D01*
X0407177Y0145303D01*
X0407076Y0145241D01*
X0406973Y0145182D01*
X0406868Y0145127D01*
X0406761Y0145075D01*
X0406653Y0145027D01*
X0406543Y0144982D01*
X0406431Y0144942D01*
X0406318Y0144904D01*
X0406204Y0144871D01*
X0406089Y0144842D01*
X0405974Y0144816D01*
X0405857Y0144794D01*
X0405739Y0144777D01*
X0405622Y0144763D01*
X0405503Y0144753D01*
X0405385Y0144747D01*
X0405266Y0144745D01*
X0405147Y0144747D01*
X0405029Y0144753D01*
X0404910Y0144763D01*
X0404793Y0144777D01*
X0404675Y0144794D01*
X0404558Y0144816D01*
X0404443Y0144842D01*
X0404328Y0144871D01*
X0404214Y0144904D01*
X0404101Y0144942D01*
X0403989Y0144982D01*
X0403879Y0145027D01*
X0403771Y0145075D01*
X0403664Y0145127D01*
X0403559Y0145182D01*
X0403456Y0145241D01*
X0403355Y0145303D01*
X0403256Y0145369D01*
X0403159Y0145437D01*
X0403065Y0145509D01*
X0402973Y0145585D01*
X0402883Y0145663D01*
X0402797Y0145744D01*
X0402713Y0145828D01*
X0402632Y0145914D01*
X0402554Y0146004D01*
X0402478Y0146096D01*
X0402406Y0146190D01*
X0402338Y0146287D01*
X0402272Y0146386D01*
X0402210Y0146487D01*
X0402151Y0146590D01*
X0402096Y0146695D01*
X0402044Y0146802D01*
X0401996Y0146910D01*
X0401951Y0147020D01*
X0401911Y0147132D01*
X0401873Y0147245D01*
X0401840Y0147359D01*
X0401811Y0147474D01*
X0401785Y0147589D01*
X0401763Y0147706D01*
X0401746Y0147824D01*
X0401732Y0147941D01*
X0401722Y0148060D01*
X0401716Y0148178D01*
X0401714Y0148297D01*
X0392864Y0117982D02*
X0392866Y0118133D01*
X0392872Y0118283D01*
X0392882Y0118434D01*
X0392896Y0118584D01*
X0392914Y0118733D01*
X0392935Y0118883D01*
X0392961Y0119031D01*
X0392991Y0119179D01*
X0393024Y0119326D01*
X0393062Y0119472D01*
X0393103Y0119617D01*
X0393148Y0119761D01*
X0393197Y0119903D01*
X0393250Y0120044D01*
X0393306Y0120184D01*
X0393366Y0120322D01*
X0393429Y0120459D01*
X0393497Y0120594D01*
X0393567Y0120727D01*
X0393641Y0120858D01*
X0393719Y0120987D01*
X0393800Y0121114D01*
X0393884Y0121239D01*
X0393972Y0121362D01*
X0394063Y0121482D01*
X0394157Y0121600D01*
X0394254Y0121715D01*
X0394354Y0121828D01*
X0394457Y0121938D01*
X0394563Y0122045D01*
X0394672Y0122150D01*
X0394783Y0122251D01*
X0394897Y0122350D01*
X0395013Y0122445D01*
X0395133Y0122538D01*
X0395254Y0122627D01*
X0395378Y0122713D01*
X0395504Y0122796D01*
X0395632Y0122875D01*
X0395762Y0122951D01*
X0395894Y0123024D01*
X0396028Y0123092D01*
X0396164Y0123158D01*
X0396302Y0123220D01*
X0396441Y0123278D01*
X0396581Y0123332D01*
X0396723Y0123383D01*
X0396866Y0123430D01*
X0397011Y0123473D01*
X0397156Y0123512D01*
X0397303Y0123548D01*
X0397450Y0123579D01*
X0397598Y0123607D01*
X0397747Y0123631D01*
X0397896Y0123651D01*
X0398046Y0123667D01*
X0398196Y0123679D01*
X0398347Y0123687D01*
X0398498Y0123691D01*
X0398648Y0123691D01*
X0398799Y0123687D01*
X0398950Y0123679D01*
X0399100Y0123667D01*
X0399250Y0123651D01*
X0399399Y0123631D01*
X0399548Y0123607D01*
X0399696Y0123579D01*
X0399843Y0123548D01*
X0399990Y0123512D01*
X0400135Y0123473D01*
X0400280Y0123430D01*
X0400423Y0123383D01*
X0400565Y0123332D01*
X0400705Y0123278D01*
X0400844Y0123220D01*
X0400982Y0123158D01*
X0401118Y0123092D01*
X0401252Y0123024D01*
X0401384Y0122951D01*
X0401514Y0122875D01*
X0401642Y0122796D01*
X0401768Y0122713D01*
X0401892Y0122627D01*
X0402013Y0122538D01*
X0402133Y0122445D01*
X0402249Y0122350D01*
X0402363Y0122251D01*
X0402474Y0122150D01*
X0402583Y0122045D01*
X0402689Y0121938D01*
X0402792Y0121828D01*
X0402892Y0121715D01*
X0402989Y0121600D01*
X0403083Y0121482D01*
X0403174Y0121362D01*
X0403262Y0121239D01*
X0403346Y0121114D01*
X0403427Y0120987D01*
X0403505Y0120858D01*
X0403579Y0120727D01*
X0403649Y0120594D01*
X0403717Y0120459D01*
X0403780Y0120322D01*
X0403840Y0120184D01*
X0403896Y0120044D01*
X0403949Y0119903D01*
X0403998Y0119761D01*
X0404043Y0119617D01*
X0404084Y0119472D01*
X0404122Y0119326D01*
X0404155Y0119179D01*
X0404185Y0119031D01*
X0404211Y0118883D01*
X0404232Y0118733D01*
X0404250Y0118584D01*
X0404264Y0118434D01*
X0404274Y0118283D01*
X0404280Y0118133D01*
X0404282Y0117982D01*
X0404280Y0117831D01*
X0404274Y0117681D01*
X0404264Y0117530D01*
X0404250Y0117380D01*
X0404232Y0117231D01*
X0404211Y0117081D01*
X0404185Y0116933D01*
X0404155Y0116785D01*
X0404122Y0116638D01*
X0404084Y0116492D01*
X0404043Y0116347D01*
X0403998Y0116203D01*
X0403949Y0116061D01*
X0403896Y0115920D01*
X0403840Y0115780D01*
X0403780Y0115642D01*
X0403717Y0115505D01*
X0403649Y0115370D01*
X0403579Y0115237D01*
X0403505Y0115106D01*
X0403427Y0114977D01*
X0403346Y0114850D01*
X0403262Y0114725D01*
X0403174Y0114602D01*
X0403083Y0114482D01*
X0402989Y0114364D01*
X0402892Y0114249D01*
X0402792Y0114136D01*
X0402689Y0114026D01*
X0402583Y0113919D01*
X0402474Y0113814D01*
X0402363Y0113713D01*
X0402249Y0113614D01*
X0402133Y0113519D01*
X0402013Y0113426D01*
X0401892Y0113337D01*
X0401768Y0113251D01*
X0401642Y0113168D01*
X0401514Y0113089D01*
X0401384Y0113013D01*
X0401252Y0112940D01*
X0401118Y0112872D01*
X0400982Y0112806D01*
X0400844Y0112744D01*
X0400705Y0112686D01*
X0400565Y0112632D01*
X0400423Y0112581D01*
X0400280Y0112534D01*
X0400135Y0112491D01*
X0399990Y0112452D01*
X0399843Y0112416D01*
X0399696Y0112385D01*
X0399548Y0112357D01*
X0399399Y0112333D01*
X0399250Y0112313D01*
X0399100Y0112297D01*
X0398950Y0112285D01*
X0398799Y0112277D01*
X0398648Y0112273D01*
X0398498Y0112273D01*
X0398347Y0112277D01*
X0398196Y0112285D01*
X0398046Y0112297D01*
X0397896Y0112313D01*
X0397747Y0112333D01*
X0397598Y0112357D01*
X0397450Y0112385D01*
X0397303Y0112416D01*
X0397156Y0112452D01*
X0397011Y0112491D01*
X0396866Y0112534D01*
X0396723Y0112581D01*
X0396581Y0112632D01*
X0396441Y0112686D01*
X0396302Y0112744D01*
X0396164Y0112806D01*
X0396028Y0112872D01*
X0395894Y0112940D01*
X0395762Y0113013D01*
X0395632Y0113089D01*
X0395504Y0113168D01*
X0395378Y0113251D01*
X0395254Y0113337D01*
X0395133Y0113426D01*
X0395013Y0113519D01*
X0394897Y0113614D01*
X0394783Y0113713D01*
X0394672Y0113814D01*
X0394563Y0113919D01*
X0394457Y0114026D01*
X0394354Y0114136D01*
X0394254Y0114249D01*
X0394157Y0114364D01*
X0394063Y0114482D01*
X0393972Y0114602D01*
X0393884Y0114725D01*
X0393800Y0114850D01*
X0393719Y0114977D01*
X0393641Y0115106D01*
X0393567Y0115237D01*
X0393497Y0115370D01*
X0393429Y0115505D01*
X0393366Y0115642D01*
X0393306Y0115780D01*
X0393250Y0115920D01*
X0393197Y0116061D01*
X0393148Y0116203D01*
X0393103Y0116347D01*
X0393062Y0116492D01*
X0393024Y0116638D01*
X0392991Y0116785D01*
X0392961Y0116933D01*
X0392935Y0117081D01*
X0392914Y0117231D01*
X0392896Y0117380D01*
X0392882Y0117530D01*
X0392872Y0117681D01*
X0392866Y0117831D01*
X0392864Y0117982D01*
X0309793Y0034911D02*
X0309795Y0035062D01*
X0309801Y0035212D01*
X0309811Y0035363D01*
X0309825Y0035513D01*
X0309843Y0035662D01*
X0309864Y0035812D01*
X0309890Y0035960D01*
X0309920Y0036108D01*
X0309953Y0036255D01*
X0309991Y0036401D01*
X0310032Y0036546D01*
X0310077Y0036690D01*
X0310126Y0036832D01*
X0310179Y0036973D01*
X0310235Y0037113D01*
X0310295Y0037251D01*
X0310358Y0037388D01*
X0310426Y0037523D01*
X0310496Y0037656D01*
X0310570Y0037787D01*
X0310648Y0037916D01*
X0310729Y0038043D01*
X0310813Y0038168D01*
X0310901Y0038291D01*
X0310992Y0038411D01*
X0311086Y0038529D01*
X0311183Y0038644D01*
X0311283Y0038757D01*
X0311386Y0038867D01*
X0311492Y0038974D01*
X0311601Y0039079D01*
X0311712Y0039180D01*
X0311826Y0039279D01*
X0311942Y0039374D01*
X0312062Y0039467D01*
X0312183Y0039556D01*
X0312307Y0039642D01*
X0312433Y0039725D01*
X0312561Y0039804D01*
X0312691Y0039880D01*
X0312823Y0039953D01*
X0312957Y0040021D01*
X0313093Y0040087D01*
X0313231Y0040149D01*
X0313370Y0040207D01*
X0313510Y0040261D01*
X0313652Y0040312D01*
X0313795Y0040359D01*
X0313940Y0040402D01*
X0314085Y0040441D01*
X0314232Y0040477D01*
X0314379Y0040508D01*
X0314527Y0040536D01*
X0314676Y0040560D01*
X0314825Y0040580D01*
X0314975Y0040596D01*
X0315125Y0040608D01*
X0315276Y0040616D01*
X0315427Y0040620D01*
X0315577Y0040620D01*
X0315728Y0040616D01*
X0315879Y0040608D01*
X0316029Y0040596D01*
X0316179Y0040580D01*
X0316328Y0040560D01*
X0316477Y0040536D01*
X0316625Y0040508D01*
X0316772Y0040477D01*
X0316919Y0040441D01*
X0317064Y0040402D01*
X0317209Y0040359D01*
X0317352Y0040312D01*
X0317494Y0040261D01*
X0317634Y0040207D01*
X0317773Y0040149D01*
X0317911Y0040087D01*
X0318047Y0040021D01*
X0318181Y0039953D01*
X0318313Y0039880D01*
X0318443Y0039804D01*
X0318571Y0039725D01*
X0318697Y0039642D01*
X0318821Y0039556D01*
X0318942Y0039467D01*
X0319062Y0039374D01*
X0319178Y0039279D01*
X0319292Y0039180D01*
X0319403Y0039079D01*
X0319512Y0038974D01*
X0319618Y0038867D01*
X0319721Y0038757D01*
X0319821Y0038644D01*
X0319918Y0038529D01*
X0320012Y0038411D01*
X0320103Y0038291D01*
X0320191Y0038168D01*
X0320275Y0038043D01*
X0320356Y0037916D01*
X0320434Y0037787D01*
X0320508Y0037656D01*
X0320578Y0037523D01*
X0320646Y0037388D01*
X0320709Y0037251D01*
X0320769Y0037113D01*
X0320825Y0036973D01*
X0320878Y0036832D01*
X0320927Y0036690D01*
X0320972Y0036546D01*
X0321013Y0036401D01*
X0321051Y0036255D01*
X0321084Y0036108D01*
X0321114Y0035960D01*
X0321140Y0035812D01*
X0321161Y0035662D01*
X0321179Y0035513D01*
X0321193Y0035363D01*
X0321203Y0035212D01*
X0321209Y0035062D01*
X0321211Y0034911D01*
X0321209Y0034760D01*
X0321203Y0034610D01*
X0321193Y0034459D01*
X0321179Y0034309D01*
X0321161Y0034160D01*
X0321140Y0034010D01*
X0321114Y0033862D01*
X0321084Y0033714D01*
X0321051Y0033567D01*
X0321013Y0033421D01*
X0320972Y0033276D01*
X0320927Y0033132D01*
X0320878Y0032990D01*
X0320825Y0032849D01*
X0320769Y0032709D01*
X0320709Y0032571D01*
X0320646Y0032434D01*
X0320578Y0032299D01*
X0320508Y0032166D01*
X0320434Y0032035D01*
X0320356Y0031906D01*
X0320275Y0031779D01*
X0320191Y0031654D01*
X0320103Y0031531D01*
X0320012Y0031411D01*
X0319918Y0031293D01*
X0319821Y0031178D01*
X0319721Y0031065D01*
X0319618Y0030955D01*
X0319512Y0030848D01*
X0319403Y0030743D01*
X0319292Y0030642D01*
X0319178Y0030543D01*
X0319062Y0030448D01*
X0318942Y0030355D01*
X0318821Y0030266D01*
X0318697Y0030180D01*
X0318571Y0030097D01*
X0318443Y0030018D01*
X0318313Y0029942D01*
X0318181Y0029869D01*
X0318047Y0029801D01*
X0317911Y0029735D01*
X0317773Y0029673D01*
X0317634Y0029615D01*
X0317494Y0029561D01*
X0317352Y0029510D01*
X0317209Y0029463D01*
X0317064Y0029420D01*
X0316919Y0029381D01*
X0316772Y0029345D01*
X0316625Y0029314D01*
X0316477Y0029286D01*
X0316328Y0029262D01*
X0316179Y0029242D01*
X0316029Y0029226D01*
X0315879Y0029214D01*
X0315728Y0029206D01*
X0315577Y0029202D01*
X0315427Y0029202D01*
X0315276Y0029206D01*
X0315125Y0029214D01*
X0314975Y0029226D01*
X0314825Y0029242D01*
X0314676Y0029262D01*
X0314527Y0029286D01*
X0314379Y0029314D01*
X0314232Y0029345D01*
X0314085Y0029381D01*
X0313940Y0029420D01*
X0313795Y0029463D01*
X0313652Y0029510D01*
X0313510Y0029561D01*
X0313370Y0029615D01*
X0313231Y0029673D01*
X0313093Y0029735D01*
X0312957Y0029801D01*
X0312823Y0029869D01*
X0312691Y0029942D01*
X0312561Y0030018D01*
X0312433Y0030097D01*
X0312307Y0030180D01*
X0312183Y0030266D01*
X0312062Y0030355D01*
X0311942Y0030448D01*
X0311826Y0030543D01*
X0311712Y0030642D01*
X0311601Y0030743D01*
X0311492Y0030848D01*
X0311386Y0030955D01*
X0311283Y0031065D01*
X0311183Y0031178D01*
X0311086Y0031293D01*
X0310992Y0031411D01*
X0310901Y0031531D01*
X0310813Y0031654D01*
X0310729Y0031779D01*
X0310648Y0031906D01*
X0310570Y0032035D01*
X0310496Y0032166D01*
X0310426Y0032299D01*
X0310358Y0032434D01*
X0310295Y0032571D01*
X0310235Y0032709D01*
X0310179Y0032849D01*
X0310126Y0032990D01*
X0310077Y0033132D01*
X0310032Y0033276D01*
X0309991Y0033421D01*
X0309953Y0033567D01*
X0309920Y0033714D01*
X0309890Y0033862D01*
X0309864Y0034010D01*
X0309843Y0034160D01*
X0309825Y0034309D01*
X0309811Y0034459D01*
X0309801Y0034610D01*
X0309795Y0034760D01*
X0309793Y0034911D01*
X0295226Y0266407D02*
X0295228Y0266558D01*
X0295234Y0266708D01*
X0295244Y0266859D01*
X0295258Y0267009D01*
X0295276Y0267158D01*
X0295297Y0267308D01*
X0295323Y0267456D01*
X0295353Y0267604D01*
X0295386Y0267751D01*
X0295424Y0267897D01*
X0295465Y0268042D01*
X0295510Y0268186D01*
X0295559Y0268328D01*
X0295612Y0268469D01*
X0295668Y0268609D01*
X0295728Y0268747D01*
X0295791Y0268884D01*
X0295859Y0269019D01*
X0295929Y0269152D01*
X0296003Y0269283D01*
X0296081Y0269412D01*
X0296162Y0269539D01*
X0296246Y0269664D01*
X0296334Y0269787D01*
X0296425Y0269907D01*
X0296519Y0270025D01*
X0296616Y0270140D01*
X0296716Y0270253D01*
X0296819Y0270363D01*
X0296925Y0270470D01*
X0297034Y0270575D01*
X0297145Y0270676D01*
X0297259Y0270775D01*
X0297375Y0270870D01*
X0297495Y0270963D01*
X0297616Y0271052D01*
X0297740Y0271138D01*
X0297866Y0271221D01*
X0297994Y0271300D01*
X0298124Y0271376D01*
X0298256Y0271449D01*
X0298390Y0271517D01*
X0298526Y0271583D01*
X0298664Y0271645D01*
X0298803Y0271703D01*
X0298943Y0271757D01*
X0299085Y0271808D01*
X0299228Y0271855D01*
X0299373Y0271898D01*
X0299518Y0271937D01*
X0299665Y0271973D01*
X0299812Y0272004D01*
X0299960Y0272032D01*
X0300109Y0272056D01*
X0300258Y0272076D01*
X0300408Y0272092D01*
X0300558Y0272104D01*
X0300709Y0272112D01*
X0300860Y0272116D01*
X0301010Y0272116D01*
X0301161Y0272112D01*
X0301312Y0272104D01*
X0301462Y0272092D01*
X0301612Y0272076D01*
X0301761Y0272056D01*
X0301910Y0272032D01*
X0302058Y0272004D01*
X0302205Y0271973D01*
X0302352Y0271937D01*
X0302497Y0271898D01*
X0302642Y0271855D01*
X0302785Y0271808D01*
X0302927Y0271757D01*
X0303067Y0271703D01*
X0303206Y0271645D01*
X0303344Y0271583D01*
X0303480Y0271517D01*
X0303614Y0271449D01*
X0303746Y0271376D01*
X0303876Y0271300D01*
X0304004Y0271221D01*
X0304130Y0271138D01*
X0304254Y0271052D01*
X0304375Y0270963D01*
X0304495Y0270870D01*
X0304611Y0270775D01*
X0304725Y0270676D01*
X0304836Y0270575D01*
X0304945Y0270470D01*
X0305051Y0270363D01*
X0305154Y0270253D01*
X0305254Y0270140D01*
X0305351Y0270025D01*
X0305445Y0269907D01*
X0305536Y0269787D01*
X0305624Y0269664D01*
X0305708Y0269539D01*
X0305789Y0269412D01*
X0305867Y0269283D01*
X0305941Y0269152D01*
X0306011Y0269019D01*
X0306079Y0268884D01*
X0306142Y0268747D01*
X0306202Y0268609D01*
X0306258Y0268469D01*
X0306311Y0268328D01*
X0306360Y0268186D01*
X0306405Y0268042D01*
X0306446Y0267897D01*
X0306484Y0267751D01*
X0306517Y0267604D01*
X0306547Y0267456D01*
X0306573Y0267308D01*
X0306594Y0267158D01*
X0306612Y0267009D01*
X0306626Y0266859D01*
X0306636Y0266708D01*
X0306642Y0266558D01*
X0306644Y0266407D01*
X0306642Y0266256D01*
X0306636Y0266106D01*
X0306626Y0265955D01*
X0306612Y0265805D01*
X0306594Y0265656D01*
X0306573Y0265506D01*
X0306547Y0265358D01*
X0306517Y0265210D01*
X0306484Y0265063D01*
X0306446Y0264917D01*
X0306405Y0264772D01*
X0306360Y0264628D01*
X0306311Y0264486D01*
X0306258Y0264345D01*
X0306202Y0264205D01*
X0306142Y0264067D01*
X0306079Y0263930D01*
X0306011Y0263795D01*
X0305941Y0263662D01*
X0305867Y0263531D01*
X0305789Y0263402D01*
X0305708Y0263275D01*
X0305624Y0263150D01*
X0305536Y0263027D01*
X0305445Y0262907D01*
X0305351Y0262789D01*
X0305254Y0262674D01*
X0305154Y0262561D01*
X0305051Y0262451D01*
X0304945Y0262344D01*
X0304836Y0262239D01*
X0304725Y0262138D01*
X0304611Y0262039D01*
X0304495Y0261944D01*
X0304375Y0261851D01*
X0304254Y0261762D01*
X0304130Y0261676D01*
X0304004Y0261593D01*
X0303876Y0261514D01*
X0303746Y0261438D01*
X0303614Y0261365D01*
X0303480Y0261297D01*
X0303344Y0261231D01*
X0303206Y0261169D01*
X0303067Y0261111D01*
X0302927Y0261057D01*
X0302785Y0261006D01*
X0302642Y0260959D01*
X0302497Y0260916D01*
X0302352Y0260877D01*
X0302205Y0260841D01*
X0302058Y0260810D01*
X0301910Y0260782D01*
X0301761Y0260758D01*
X0301612Y0260738D01*
X0301462Y0260722D01*
X0301312Y0260710D01*
X0301161Y0260702D01*
X0301010Y0260698D01*
X0300860Y0260698D01*
X0300709Y0260702D01*
X0300558Y0260710D01*
X0300408Y0260722D01*
X0300258Y0260738D01*
X0300109Y0260758D01*
X0299960Y0260782D01*
X0299812Y0260810D01*
X0299665Y0260841D01*
X0299518Y0260877D01*
X0299373Y0260916D01*
X0299228Y0260959D01*
X0299085Y0261006D01*
X0298943Y0261057D01*
X0298803Y0261111D01*
X0298664Y0261169D01*
X0298526Y0261231D01*
X0298390Y0261297D01*
X0298256Y0261365D01*
X0298124Y0261438D01*
X0297994Y0261514D01*
X0297866Y0261593D01*
X0297740Y0261676D01*
X0297616Y0261762D01*
X0297495Y0261851D01*
X0297375Y0261944D01*
X0297259Y0262039D01*
X0297145Y0262138D01*
X0297034Y0262239D01*
X0296925Y0262344D01*
X0296819Y0262451D01*
X0296716Y0262561D01*
X0296616Y0262674D01*
X0296519Y0262789D01*
X0296425Y0262907D01*
X0296334Y0263027D01*
X0296246Y0263150D01*
X0296162Y0263275D01*
X0296081Y0263402D01*
X0296003Y0263531D01*
X0295929Y0263662D01*
X0295859Y0263795D01*
X0295791Y0263930D01*
X0295728Y0264067D01*
X0295668Y0264205D01*
X0295612Y0264345D01*
X0295559Y0264486D01*
X0295510Y0264628D01*
X0295465Y0264772D01*
X0295424Y0264917D01*
X0295386Y0265063D01*
X0295353Y0265210D01*
X0295323Y0265358D01*
X0295297Y0265506D01*
X0295276Y0265656D01*
X0295258Y0265805D01*
X0295244Y0265955D01*
X0295234Y0266106D01*
X0295228Y0266256D01*
X0295226Y0266407D01*
X0334596Y0266407D02*
X0334598Y0266558D01*
X0334604Y0266708D01*
X0334614Y0266859D01*
X0334628Y0267009D01*
X0334646Y0267158D01*
X0334667Y0267308D01*
X0334693Y0267456D01*
X0334723Y0267604D01*
X0334756Y0267751D01*
X0334794Y0267897D01*
X0334835Y0268042D01*
X0334880Y0268186D01*
X0334929Y0268328D01*
X0334982Y0268469D01*
X0335038Y0268609D01*
X0335098Y0268747D01*
X0335161Y0268884D01*
X0335229Y0269019D01*
X0335299Y0269152D01*
X0335373Y0269283D01*
X0335451Y0269412D01*
X0335532Y0269539D01*
X0335616Y0269664D01*
X0335704Y0269787D01*
X0335795Y0269907D01*
X0335889Y0270025D01*
X0335986Y0270140D01*
X0336086Y0270253D01*
X0336189Y0270363D01*
X0336295Y0270470D01*
X0336404Y0270575D01*
X0336515Y0270676D01*
X0336629Y0270775D01*
X0336745Y0270870D01*
X0336865Y0270963D01*
X0336986Y0271052D01*
X0337110Y0271138D01*
X0337236Y0271221D01*
X0337364Y0271300D01*
X0337494Y0271376D01*
X0337626Y0271449D01*
X0337760Y0271517D01*
X0337896Y0271583D01*
X0338034Y0271645D01*
X0338173Y0271703D01*
X0338313Y0271757D01*
X0338455Y0271808D01*
X0338598Y0271855D01*
X0338743Y0271898D01*
X0338888Y0271937D01*
X0339035Y0271973D01*
X0339182Y0272004D01*
X0339330Y0272032D01*
X0339479Y0272056D01*
X0339628Y0272076D01*
X0339778Y0272092D01*
X0339928Y0272104D01*
X0340079Y0272112D01*
X0340230Y0272116D01*
X0340380Y0272116D01*
X0340531Y0272112D01*
X0340682Y0272104D01*
X0340832Y0272092D01*
X0340982Y0272076D01*
X0341131Y0272056D01*
X0341280Y0272032D01*
X0341428Y0272004D01*
X0341575Y0271973D01*
X0341722Y0271937D01*
X0341867Y0271898D01*
X0342012Y0271855D01*
X0342155Y0271808D01*
X0342297Y0271757D01*
X0342437Y0271703D01*
X0342576Y0271645D01*
X0342714Y0271583D01*
X0342850Y0271517D01*
X0342984Y0271449D01*
X0343116Y0271376D01*
X0343246Y0271300D01*
X0343374Y0271221D01*
X0343500Y0271138D01*
X0343624Y0271052D01*
X0343745Y0270963D01*
X0343865Y0270870D01*
X0343981Y0270775D01*
X0344095Y0270676D01*
X0344206Y0270575D01*
X0344315Y0270470D01*
X0344421Y0270363D01*
X0344524Y0270253D01*
X0344624Y0270140D01*
X0344721Y0270025D01*
X0344815Y0269907D01*
X0344906Y0269787D01*
X0344994Y0269664D01*
X0345078Y0269539D01*
X0345159Y0269412D01*
X0345237Y0269283D01*
X0345311Y0269152D01*
X0345381Y0269019D01*
X0345449Y0268884D01*
X0345512Y0268747D01*
X0345572Y0268609D01*
X0345628Y0268469D01*
X0345681Y0268328D01*
X0345730Y0268186D01*
X0345775Y0268042D01*
X0345816Y0267897D01*
X0345854Y0267751D01*
X0345887Y0267604D01*
X0345917Y0267456D01*
X0345943Y0267308D01*
X0345964Y0267158D01*
X0345982Y0267009D01*
X0345996Y0266859D01*
X0346006Y0266708D01*
X0346012Y0266558D01*
X0346014Y0266407D01*
X0346012Y0266256D01*
X0346006Y0266106D01*
X0345996Y0265955D01*
X0345982Y0265805D01*
X0345964Y0265656D01*
X0345943Y0265506D01*
X0345917Y0265358D01*
X0345887Y0265210D01*
X0345854Y0265063D01*
X0345816Y0264917D01*
X0345775Y0264772D01*
X0345730Y0264628D01*
X0345681Y0264486D01*
X0345628Y0264345D01*
X0345572Y0264205D01*
X0345512Y0264067D01*
X0345449Y0263930D01*
X0345381Y0263795D01*
X0345311Y0263662D01*
X0345237Y0263531D01*
X0345159Y0263402D01*
X0345078Y0263275D01*
X0344994Y0263150D01*
X0344906Y0263027D01*
X0344815Y0262907D01*
X0344721Y0262789D01*
X0344624Y0262674D01*
X0344524Y0262561D01*
X0344421Y0262451D01*
X0344315Y0262344D01*
X0344206Y0262239D01*
X0344095Y0262138D01*
X0343981Y0262039D01*
X0343865Y0261944D01*
X0343745Y0261851D01*
X0343624Y0261762D01*
X0343500Y0261676D01*
X0343374Y0261593D01*
X0343246Y0261514D01*
X0343116Y0261438D01*
X0342984Y0261365D01*
X0342850Y0261297D01*
X0342714Y0261231D01*
X0342576Y0261169D01*
X0342437Y0261111D01*
X0342297Y0261057D01*
X0342155Y0261006D01*
X0342012Y0260959D01*
X0341867Y0260916D01*
X0341722Y0260877D01*
X0341575Y0260841D01*
X0341428Y0260810D01*
X0341280Y0260782D01*
X0341131Y0260758D01*
X0340982Y0260738D01*
X0340832Y0260722D01*
X0340682Y0260710D01*
X0340531Y0260702D01*
X0340380Y0260698D01*
X0340230Y0260698D01*
X0340079Y0260702D01*
X0339928Y0260710D01*
X0339778Y0260722D01*
X0339628Y0260738D01*
X0339479Y0260758D01*
X0339330Y0260782D01*
X0339182Y0260810D01*
X0339035Y0260841D01*
X0338888Y0260877D01*
X0338743Y0260916D01*
X0338598Y0260959D01*
X0338455Y0261006D01*
X0338313Y0261057D01*
X0338173Y0261111D01*
X0338034Y0261169D01*
X0337896Y0261231D01*
X0337760Y0261297D01*
X0337626Y0261365D01*
X0337494Y0261438D01*
X0337364Y0261514D01*
X0337236Y0261593D01*
X0337110Y0261676D01*
X0336986Y0261762D01*
X0336865Y0261851D01*
X0336745Y0261944D01*
X0336629Y0262039D01*
X0336515Y0262138D01*
X0336404Y0262239D01*
X0336295Y0262344D01*
X0336189Y0262451D01*
X0336086Y0262561D01*
X0335986Y0262674D01*
X0335889Y0262789D01*
X0335795Y0262907D01*
X0335704Y0263027D01*
X0335616Y0263150D01*
X0335532Y0263275D01*
X0335451Y0263402D01*
X0335373Y0263531D01*
X0335299Y0263662D01*
X0335229Y0263795D01*
X0335161Y0263930D01*
X0335098Y0264067D01*
X0335038Y0264205D01*
X0334982Y0264345D01*
X0334929Y0264486D01*
X0334880Y0264628D01*
X0334835Y0264772D01*
X0334794Y0264917D01*
X0334756Y0265063D01*
X0334723Y0265210D01*
X0334693Y0265358D01*
X0334667Y0265506D01*
X0334646Y0265656D01*
X0334628Y0265805D01*
X0334614Y0265955D01*
X0334604Y0266106D01*
X0334598Y0266256D01*
X0334596Y0266407D01*
X0370029Y0266407D02*
X0370031Y0266558D01*
X0370037Y0266708D01*
X0370047Y0266859D01*
X0370061Y0267009D01*
X0370079Y0267158D01*
X0370100Y0267308D01*
X0370126Y0267456D01*
X0370156Y0267604D01*
X0370189Y0267751D01*
X0370227Y0267897D01*
X0370268Y0268042D01*
X0370313Y0268186D01*
X0370362Y0268328D01*
X0370415Y0268469D01*
X0370471Y0268609D01*
X0370531Y0268747D01*
X0370594Y0268884D01*
X0370662Y0269019D01*
X0370732Y0269152D01*
X0370806Y0269283D01*
X0370884Y0269412D01*
X0370965Y0269539D01*
X0371049Y0269664D01*
X0371137Y0269787D01*
X0371228Y0269907D01*
X0371322Y0270025D01*
X0371419Y0270140D01*
X0371519Y0270253D01*
X0371622Y0270363D01*
X0371728Y0270470D01*
X0371837Y0270575D01*
X0371948Y0270676D01*
X0372062Y0270775D01*
X0372178Y0270870D01*
X0372298Y0270963D01*
X0372419Y0271052D01*
X0372543Y0271138D01*
X0372669Y0271221D01*
X0372797Y0271300D01*
X0372927Y0271376D01*
X0373059Y0271449D01*
X0373193Y0271517D01*
X0373329Y0271583D01*
X0373467Y0271645D01*
X0373606Y0271703D01*
X0373746Y0271757D01*
X0373888Y0271808D01*
X0374031Y0271855D01*
X0374176Y0271898D01*
X0374321Y0271937D01*
X0374468Y0271973D01*
X0374615Y0272004D01*
X0374763Y0272032D01*
X0374912Y0272056D01*
X0375061Y0272076D01*
X0375211Y0272092D01*
X0375361Y0272104D01*
X0375512Y0272112D01*
X0375663Y0272116D01*
X0375813Y0272116D01*
X0375964Y0272112D01*
X0376115Y0272104D01*
X0376265Y0272092D01*
X0376415Y0272076D01*
X0376564Y0272056D01*
X0376713Y0272032D01*
X0376861Y0272004D01*
X0377008Y0271973D01*
X0377155Y0271937D01*
X0377300Y0271898D01*
X0377445Y0271855D01*
X0377588Y0271808D01*
X0377730Y0271757D01*
X0377870Y0271703D01*
X0378009Y0271645D01*
X0378147Y0271583D01*
X0378283Y0271517D01*
X0378417Y0271449D01*
X0378549Y0271376D01*
X0378679Y0271300D01*
X0378807Y0271221D01*
X0378933Y0271138D01*
X0379057Y0271052D01*
X0379178Y0270963D01*
X0379298Y0270870D01*
X0379414Y0270775D01*
X0379528Y0270676D01*
X0379639Y0270575D01*
X0379748Y0270470D01*
X0379854Y0270363D01*
X0379957Y0270253D01*
X0380057Y0270140D01*
X0380154Y0270025D01*
X0380248Y0269907D01*
X0380339Y0269787D01*
X0380427Y0269664D01*
X0380511Y0269539D01*
X0380592Y0269412D01*
X0380670Y0269283D01*
X0380744Y0269152D01*
X0380814Y0269019D01*
X0380882Y0268884D01*
X0380945Y0268747D01*
X0381005Y0268609D01*
X0381061Y0268469D01*
X0381114Y0268328D01*
X0381163Y0268186D01*
X0381208Y0268042D01*
X0381249Y0267897D01*
X0381287Y0267751D01*
X0381320Y0267604D01*
X0381350Y0267456D01*
X0381376Y0267308D01*
X0381397Y0267158D01*
X0381415Y0267009D01*
X0381429Y0266859D01*
X0381439Y0266708D01*
X0381445Y0266558D01*
X0381447Y0266407D01*
X0381445Y0266256D01*
X0381439Y0266106D01*
X0381429Y0265955D01*
X0381415Y0265805D01*
X0381397Y0265656D01*
X0381376Y0265506D01*
X0381350Y0265358D01*
X0381320Y0265210D01*
X0381287Y0265063D01*
X0381249Y0264917D01*
X0381208Y0264772D01*
X0381163Y0264628D01*
X0381114Y0264486D01*
X0381061Y0264345D01*
X0381005Y0264205D01*
X0380945Y0264067D01*
X0380882Y0263930D01*
X0380814Y0263795D01*
X0380744Y0263662D01*
X0380670Y0263531D01*
X0380592Y0263402D01*
X0380511Y0263275D01*
X0380427Y0263150D01*
X0380339Y0263027D01*
X0380248Y0262907D01*
X0380154Y0262789D01*
X0380057Y0262674D01*
X0379957Y0262561D01*
X0379854Y0262451D01*
X0379748Y0262344D01*
X0379639Y0262239D01*
X0379528Y0262138D01*
X0379414Y0262039D01*
X0379298Y0261944D01*
X0379178Y0261851D01*
X0379057Y0261762D01*
X0378933Y0261676D01*
X0378807Y0261593D01*
X0378679Y0261514D01*
X0378549Y0261438D01*
X0378417Y0261365D01*
X0378283Y0261297D01*
X0378147Y0261231D01*
X0378009Y0261169D01*
X0377870Y0261111D01*
X0377730Y0261057D01*
X0377588Y0261006D01*
X0377445Y0260959D01*
X0377300Y0260916D01*
X0377155Y0260877D01*
X0377008Y0260841D01*
X0376861Y0260810D01*
X0376713Y0260782D01*
X0376564Y0260758D01*
X0376415Y0260738D01*
X0376265Y0260722D01*
X0376115Y0260710D01*
X0375964Y0260702D01*
X0375813Y0260698D01*
X0375663Y0260698D01*
X0375512Y0260702D01*
X0375361Y0260710D01*
X0375211Y0260722D01*
X0375061Y0260738D01*
X0374912Y0260758D01*
X0374763Y0260782D01*
X0374615Y0260810D01*
X0374468Y0260841D01*
X0374321Y0260877D01*
X0374176Y0260916D01*
X0374031Y0260959D01*
X0373888Y0261006D01*
X0373746Y0261057D01*
X0373606Y0261111D01*
X0373467Y0261169D01*
X0373329Y0261231D01*
X0373193Y0261297D01*
X0373059Y0261365D01*
X0372927Y0261438D01*
X0372797Y0261514D01*
X0372669Y0261593D01*
X0372543Y0261676D01*
X0372419Y0261762D01*
X0372298Y0261851D01*
X0372178Y0261944D01*
X0372062Y0262039D01*
X0371948Y0262138D01*
X0371837Y0262239D01*
X0371728Y0262344D01*
X0371622Y0262451D01*
X0371519Y0262561D01*
X0371419Y0262674D01*
X0371322Y0262789D01*
X0371228Y0262907D01*
X0371137Y0263027D01*
X0371049Y0263150D01*
X0370965Y0263275D01*
X0370884Y0263402D01*
X0370806Y0263531D01*
X0370732Y0263662D01*
X0370662Y0263795D01*
X0370594Y0263930D01*
X0370531Y0264067D01*
X0370471Y0264205D01*
X0370415Y0264345D01*
X0370362Y0264486D01*
X0370313Y0264628D01*
X0370268Y0264772D01*
X0370227Y0264917D01*
X0370189Y0265063D01*
X0370156Y0265210D01*
X0370126Y0265358D01*
X0370100Y0265506D01*
X0370079Y0265656D01*
X0370061Y0265805D01*
X0370047Y0265955D01*
X0370037Y0266106D01*
X0370031Y0266256D01*
X0370029Y0266407D01*
X0401714Y0282156D02*
X0401716Y0282275D01*
X0401722Y0282393D01*
X0401732Y0282512D01*
X0401746Y0282629D01*
X0401763Y0282747D01*
X0401785Y0282864D01*
X0401811Y0282979D01*
X0401840Y0283094D01*
X0401873Y0283208D01*
X0401911Y0283321D01*
X0401951Y0283433D01*
X0401996Y0283543D01*
X0402044Y0283651D01*
X0402096Y0283758D01*
X0402151Y0283863D01*
X0402210Y0283966D01*
X0402272Y0284067D01*
X0402338Y0284166D01*
X0402406Y0284263D01*
X0402478Y0284357D01*
X0402554Y0284449D01*
X0402632Y0284539D01*
X0402713Y0284625D01*
X0402797Y0284709D01*
X0402883Y0284790D01*
X0402973Y0284868D01*
X0403065Y0284944D01*
X0403159Y0285016D01*
X0403256Y0285084D01*
X0403355Y0285150D01*
X0403456Y0285212D01*
X0403559Y0285271D01*
X0403664Y0285326D01*
X0403771Y0285378D01*
X0403879Y0285426D01*
X0403989Y0285471D01*
X0404101Y0285511D01*
X0404214Y0285549D01*
X0404328Y0285582D01*
X0404443Y0285611D01*
X0404558Y0285637D01*
X0404675Y0285659D01*
X0404793Y0285676D01*
X0404910Y0285690D01*
X0405029Y0285700D01*
X0405147Y0285706D01*
X0405266Y0285708D01*
X0405385Y0285706D01*
X0405503Y0285700D01*
X0405622Y0285690D01*
X0405739Y0285676D01*
X0405857Y0285659D01*
X0405974Y0285637D01*
X0406089Y0285611D01*
X0406204Y0285582D01*
X0406318Y0285549D01*
X0406431Y0285511D01*
X0406543Y0285471D01*
X0406653Y0285426D01*
X0406761Y0285378D01*
X0406868Y0285326D01*
X0406973Y0285271D01*
X0407076Y0285212D01*
X0407177Y0285150D01*
X0407276Y0285084D01*
X0407373Y0285016D01*
X0407467Y0284944D01*
X0407559Y0284868D01*
X0407649Y0284790D01*
X0407735Y0284709D01*
X0407819Y0284625D01*
X0407900Y0284539D01*
X0407978Y0284449D01*
X0408054Y0284357D01*
X0408126Y0284263D01*
X0408194Y0284166D01*
X0408260Y0284067D01*
X0408322Y0283966D01*
X0408381Y0283863D01*
X0408436Y0283758D01*
X0408488Y0283651D01*
X0408536Y0283543D01*
X0408581Y0283433D01*
X0408621Y0283321D01*
X0408659Y0283208D01*
X0408692Y0283094D01*
X0408721Y0282979D01*
X0408747Y0282864D01*
X0408769Y0282747D01*
X0408786Y0282629D01*
X0408800Y0282512D01*
X0408810Y0282393D01*
X0408816Y0282275D01*
X0408818Y0282156D01*
X0408816Y0282037D01*
X0408810Y0281919D01*
X0408800Y0281800D01*
X0408786Y0281683D01*
X0408769Y0281565D01*
X0408747Y0281448D01*
X0408721Y0281333D01*
X0408692Y0281218D01*
X0408659Y0281104D01*
X0408621Y0280991D01*
X0408581Y0280879D01*
X0408536Y0280769D01*
X0408488Y0280661D01*
X0408436Y0280554D01*
X0408381Y0280449D01*
X0408322Y0280346D01*
X0408260Y0280245D01*
X0408194Y0280146D01*
X0408126Y0280049D01*
X0408054Y0279955D01*
X0407978Y0279863D01*
X0407900Y0279773D01*
X0407819Y0279687D01*
X0407735Y0279603D01*
X0407649Y0279522D01*
X0407559Y0279444D01*
X0407467Y0279368D01*
X0407373Y0279296D01*
X0407276Y0279228D01*
X0407177Y0279162D01*
X0407076Y0279100D01*
X0406973Y0279041D01*
X0406868Y0278986D01*
X0406761Y0278934D01*
X0406653Y0278886D01*
X0406543Y0278841D01*
X0406431Y0278801D01*
X0406318Y0278763D01*
X0406204Y0278730D01*
X0406089Y0278701D01*
X0405974Y0278675D01*
X0405857Y0278653D01*
X0405739Y0278636D01*
X0405622Y0278622D01*
X0405503Y0278612D01*
X0405385Y0278606D01*
X0405266Y0278604D01*
X0405147Y0278606D01*
X0405029Y0278612D01*
X0404910Y0278622D01*
X0404793Y0278636D01*
X0404675Y0278653D01*
X0404558Y0278675D01*
X0404443Y0278701D01*
X0404328Y0278730D01*
X0404214Y0278763D01*
X0404101Y0278801D01*
X0403989Y0278841D01*
X0403879Y0278886D01*
X0403771Y0278934D01*
X0403664Y0278986D01*
X0403559Y0279041D01*
X0403456Y0279100D01*
X0403355Y0279162D01*
X0403256Y0279228D01*
X0403159Y0279296D01*
X0403065Y0279368D01*
X0402973Y0279444D01*
X0402883Y0279522D01*
X0402797Y0279603D01*
X0402713Y0279687D01*
X0402632Y0279773D01*
X0402554Y0279863D01*
X0402478Y0279955D01*
X0402406Y0280049D01*
X0402338Y0280146D01*
X0402272Y0280245D01*
X0402210Y0280346D01*
X0402151Y0280449D01*
X0402096Y0280554D01*
X0402044Y0280661D01*
X0401996Y0280769D01*
X0401951Y0280879D01*
X0401911Y0280991D01*
X0401873Y0281104D01*
X0401840Y0281218D01*
X0401811Y0281333D01*
X0401785Y0281448D01*
X0401763Y0281565D01*
X0401746Y0281683D01*
X0401732Y0281800D01*
X0401722Y0281919D01*
X0401716Y0282037D01*
X0401714Y0282156D01*
X0392864Y0312470D02*
X0392866Y0312621D01*
X0392872Y0312771D01*
X0392882Y0312922D01*
X0392896Y0313072D01*
X0392914Y0313221D01*
X0392935Y0313371D01*
X0392961Y0313519D01*
X0392991Y0313667D01*
X0393024Y0313814D01*
X0393062Y0313960D01*
X0393103Y0314105D01*
X0393148Y0314249D01*
X0393197Y0314391D01*
X0393250Y0314532D01*
X0393306Y0314672D01*
X0393366Y0314810D01*
X0393429Y0314947D01*
X0393497Y0315082D01*
X0393567Y0315215D01*
X0393641Y0315346D01*
X0393719Y0315475D01*
X0393800Y0315602D01*
X0393884Y0315727D01*
X0393972Y0315850D01*
X0394063Y0315970D01*
X0394157Y0316088D01*
X0394254Y0316203D01*
X0394354Y0316316D01*
X0394457Y0316426D01*
X0394563Y0316533D01*
X0394672Y0316638D01*
X0394783Y0316739D01*
X0394897Y0316838D01*
X0395013Y0316933D01*
X0395133Y0317026D01*
X0395254Y0317115D01*
X0395378Y0317201D01*
X0395504Y0317284D01*
X0395632Y0317363D01*
X0395762Y0317439D01*
X0395894Y0317512D01*
X0396028Y0317580D01*
X0396164Y0317646D01*
X0396302Y0317708D01*
X0396441Y0317766D01*
X0396581Y0317820D01*
X0396723Y0317871D01*
X0396866Y0317918D01*
X0397011Y0317961D01*
X0397156Y0318000D01*
X0397303Y0318036D01*
X0397450Y0318067D01*
X0397598Y0318095D01*
X0397747Y0318119D01*
X0397896Y0318139D01*
X0398046Y0318155D01*
X0398196Y0318167D01*
X0398347Y0318175D01*
X0398498Y0318179D01*
X0398648Y0318179D01*
X0398799Y0318175D01*
X0398950Y0318167D01*
X0399100Y0318155D01*
X0399250Y0318139D01*
X0399399Y0318119D01*
X0399548Y0318095D01*
X0399696Y0318067D01*
X0399843Y0318036D01*
X0399990Y0318000D01*
X0400135Y0317961D01*
X0400280Y0317918D01*
X0400423Y0317871D01*
X0400565Y0317820D01*
X0400705Y0317766D01*
X0400844Y0317708D01*
X0400982Y0317646D01*
X0401118Y0317580D01*
X0401252Y0317512D01*
X0401384Y0317439D01*
X0401514Y0317363D01*
X0401642Y0317284D01*
X0401768Y0317201D01*
X0401892Y0317115D01*
X0402013Y0317026D01*
X0402133Y0316933D01*
X0402249Y0316838D01*
X0402363Y0316739D01*
X0402474Y0316638D01*
X0402583Y0316533D01*
X0402689Y0316426D01*
X0402792Y0316316D01*
X0402892Y0316203D01*
X0402989Y0316088D01*
X0403083Y0315970D01*
X0403174Y0315850D01*
X0403262Y0315727D01*
X0403346Y0315602D01*
X0403427Y0315475D01*
X0403505Y0315346D01*
X0403579Y0315215D01*
X0403649Y0315082D01*
X0403717Y0314947D01*
X0403780Y0314810D01*
X0403840Y0314672D01*
X0403896Y0314532D01*
X0403949Y0314391D01*
X0403998Y0314249D01*
X0404043Y0314105D01*
X0404084Y0313960D01*
X0404122Y0313814D01*
X0404155Y0313667D01*
X0404185Y0313519D01*
X0404211Y0313371D01*
X0404232Y0313221D01*
X0404250Y0313072D01*
X0404264Y0312922D01*
X0404274Y0312771D01*
X0404280Y0312621D01*
X0404282Y0312470D01*
X0404280Y0312319D01*
X0404274Y0312169D01*
X0404264Y0312018D01*
X0404250Y0311868D01*
X0404232Y0311719D01*
X0404211Y0311569D01*
X0404185Y0311421D01*
X0404155Y0311273D01*
X0404122Y0311126D01*
X0404084Y0310980D01*
X0404043Y0310835D01*
X0403998Y0310691D01*
X0403949Y0310549D01*
X0403896Y0310408D01*
X0403840Y0310268D01*
X0403780Y0310130D01*
X0403717Y0309993D01*
X0403649Y0309858D01*
X0403579Y0309725D01*
X0403505Y0309594D01*
X0403427Y0309465D01*
X0403346Y0309338D01*
X0403262Y0309213D01*
X0403174Y0309090D01*
X0403083Y0308970D01*
X0402989Y0308852D01*
X0402892Y0308737D01*
X0402792Y0308624D01*
X0402689Y0308514D01*
X0402583Y0308407D01*
X0402474Y0308302D01*
X0402363Y0308201D01*
X0402249Y0308102D01*
X0402133Y0308007D01*
X0402013Y0307914D01*
X0401892Y0307825D01*
X0401768Y0307739D01*
X0401642Y0307656D01*
X0401514Y0307577D01*
X0401384Y0307501D01*
X0401252Y0307428D01*
X0401118Y0307360D01*
X0400982Y0307294D01*
X0400844Y0307232D01*
X0400705Y0307174D01*
X0400565Y0307120D01*
X0400423Y0307069D01*
X0400280Y0307022D01*
X0400135Y0306979D01*
X0399990Y0306940D01*
X0399843Y0306904D01*
X0399696Y0306873D01*
X0399548Y0306845D01*
X0399399Y0306821D01*
X0399250Y0306801D01*
X0399100Y0306785D01*
X0398950Y0306773D01*
X0398799Y0306765D01*
X0398648Y0306761D01*
X0398498Y0306761D01*
X0398347Y0306765D01*
X0398196Y0306773D01*
X0398046Y0306785D01*
X0397896Y0306801D01*
X0397747Y0306821D01*
X0397598Y0306845D01*
X0397450Y0306873D01*
X0397303Y0306904D01*
X0397156Y0306940D01*
X0397011Y0306979D01*
X0396866Y0307022D01*
X0396723Y0307069D01*
X0396581Y0307120D01*
X0396441Y0307174D01*
X0396302Y0307232D01*
X0396164Y0307294D01*
X0396028Y0307360D01*
X0395894Y0307428D01*
X0395762Y0307501D01*
X0395632Y0307577D01*
X0395504Y0307656D01*
X0395378Y0307739D01*
X0395254Y0307825D01*
X0395133Y0307914D01*
X0395013Y0308007D01*
X0394897Y0308102D01*
X0394783Y0308201D01*
X0394672Y0308302D01*
X0394563Y0308407D01*
X0394457Y0308514D01*
X0394354Y0308624D01*
X0394254Y0308737D01*
X0394157Y0308852D01*
X0394063Y0308970D01*
X0393972Y0309090D01*
X0393884Y0309213D01*
X0393800Y0309338D01*
X0393719Y0309465D01*
X0393641Y0309594D01*
X0393567Y0309725D01*
X0393497Y0309858D01*
X0393429Y0309993D01*
X0393366Y0310130D01*
X0393306Y0310268D01*
X0393250Y0310408D01*
X0393197Y0310549D01*
X0393148Y0310691D01*
X0393103Y0310835D01*
X0393062Y0310980D01*
X0393024Y0311126D01*
X0392991Y0311273D01*
X0392961Y0311421D01*
X0392935Y0311569D01*
X0392914Y0311719D01*
X0392896Y0311868D01*
X0392882Y0312018D01*
X0392872Y0312169D01*
X0392866Y0312319D01*
X0392864Y0312470D01*
X0297037Y0362864D02*
X0297039Y0363022D01*
X0297045Y0363180D01*
X0297055Y0363337D01*
X0297069Y0363495D01*
X0297087Y0363652D01*
X0297109Y0363808D01*
X0297134Y0363964D01*
X0297164Y0364119D01*
X0297198Y0364273D01*
X0297235Y0364427D01*
X0297277Y0364579D01*
X0297322Y0364731D01*
X0297371Y0364881D01*
X0297424Y0365030D01*
X0297480Y0365177D01*
X0297540Y0365323D01*
X0297604Y0365468D01*
X0297672Y0365611D01*
X0297743Y0365752D01*
X0297817Y0365891D01*
X0297896Y0366028D01*
X0297977Y0366163D01*
X0298062Y0366297D01*
X0298150Y0366428D01*
X0298242Y0366556D01*
X0298337Y0366683D01*
X0298435Y0366807D01*
X0298536Y0366928D01*
X0298640Y0367047D01*
X0298747Y0367163D01*
X0298857Y0367277D01*
X0298969Y0367387D01*
X0299085Y0367495D01*
X0299203Y0367600D01*
X0299324Y0367701D01*
X0299447Y0367800D01*
X0299573Y0367896D01*
X0299701Y0367988D01*
X0299831Y0368077D01*
X0299964Y0368163D01*
X0300099Y0368245D01*
X0300236Y0368324D01*
X0300374Y0368400D01*
X0300515Y0368472D01*
X0300657Y0368540D01*
X0300801Y0368605D01*
X0300947Y0368666D01*
X0301094Y0368724D01*
X0301243Y0368777D01*
X0301393Y0368827D01*
X0301544Y0368873D01*
X0301696Y0368916D01*
X0301849Y0368954D01*
X0302003Y0368989D01*
X0302158Y0369020D01*
X0302314Y0369046D01*
X0302470Y0369069D01*
X0302627Y0369088D01*
X0302784Y0369103D01*
X0302942Y0369114D01*
X0303100Y0369121D01*
X0303258Y0369124D01*
X0303415Y0369123D01*
X0303573Y0369118D01*
X0303731Y0369109D01*
X0303888Y0369096D01*
X0304046Y0369079D01*
X0304202Y0369058D01*
X0304358Y0369033D01*
X0304513Y0369005D01*
X0304668Y0368972D01*
X0304822Y0368935D01*
X0304974Y0368895D01*
X0305126Y0368851D01*
X0305276Y0368803D01*
X0305426Y0368751D01*
X0305574Y0368695D01*
X0305720Y0368636D01*
X0305865Y0368573D01*
X0306008Y0368507D01*
X0306150Y0368436D01*
X0306289Y0368363D01*
X0306427Y0368285D01*
X0306563Y0368205D01*
X0306696Y0368121D01*
X0306828Y0368033D01*
X0306957Y0367942D01*
X0307084Y0367848D01*
X0307209Y0367751D01*
X0307331Y0367651D01*
X0307450Y0367548D01*
X0307567Y0367441D01*
X0307681Y0367332D01*
X0307793Y0367220D01*
X0307901Y0367105D01*
X0308007Y0366988D01*
X0308109Y0366868D01*
X0308209Y0366745D01*
X0308305Y0366620D01*
X0308398Y0366492D01*
X0308488Y0366362D01*
X0308575Y0366230D01*
X0308658Y0366096D01*
X0308738Y0365960D01*
X0308814Y0365821D01*
X0308887Y0365681D01*
X0308957Y0365539D01*
X0309022Y0365396D01*
X0309084Y0365250D01*
X0309143Y0365104D01*
X0309197Y0364955D01*
X0309248Y0364806D01*
X0309295Y0364655D01*
X0309339Y0364503D01*
X0309378Y0364350D01*
X0309414Y0364196D01*
X0309445Y0364042D01*
X0309473Y0363886D01*
X0309497Y0363730D01*
X0309517Y0363573D01*
X0309533Y0363416D01*
X0309545Y0363259D01*
X0309553Y0363101D01*
X0309557Y0362943D01*
X0309557Y0362785D01*
X0309553Y0362627D01*
X0309545Y0362469D01*
X0309533Y0362312D01*
X0309517Y0362155D01*
X0309497Y0361998D01*
X0309473Y0361842D01*
X0309445Y0361686D01*
X0309414Y0361532D01*
X0309378Y0361378D01*
X0309339Y0361225D01*
X0309295Y0361073D01*
X0309248Y0360922D01*
X0309197Y0360773D01*
X0309143Y0360624D01*
X0309084Y0360478D01*
X0309022Y0360332D01*
X0308957Y0360189D01*
X0308887Y0360047D01*
X0308814Y0359907D01*
X0308738Y0359768D01*
X0308658Y0359632D01*
X0308575Y0359498D01*
X0308488Y0359366D01*
X0308398Y0359236D01*
X0308305Y0359108D01*
X0308209Y0358983D01*
X0308109Y0358860D01*
X0308007Y0358740D01*
X0307901Y0358623D01*
X0307793Y0358508D01*
X0307681Y0358396D01*
X0307567Y0358287D01*
X0307450Y0358180D01*
X0307331Y0358077D01*
X0307209Y0357977D01*
X0307084Y0357880D01*
X0306957Y0357786D01*
X0306828Y0357695D01*
X0306696Y0357607D01*
X0306563Y0357523D01*
X0306427Y0357443D01*
X0306289Y0357365D01*
X0306150Y0357292D01*
X0306008Y0357221D01*
X0305865Y0357155D01*
X0305720Y0357092D01*
X0305574Y0357033D01*
X0305426Y0356977D01*
X0305276Y0356925D01*
X0305126Y0356877D01*
X0304974Y0356833D01*
X0304822Y0356793D01*
X0304668Y0356756D01*
X0304513Y0356723D01*
X0304358Y0356695D01*
X0304202Y0356670D01*
X0304046Y0356649D01*
X0303888Y0356632D01*
X0303731Y0356619D01*
X0303573Y0356610D01*
X0303415Y0356605D01*
X0303258Y0356604D01*
X0303100Y0356607D01*
X0302942Y0356614D01*
X0302784Y0356625D01*
X0302627Y0356640D01*
X0302470Y0356659D01*
X0302314Y0356682D01*
X0302158Y0356708D01*
X0302003Y0356739D01*
X0301849Y0356774D01*
X0301696Y0356812D01*
X0301544Y0356855D01*
X0301393Y0356901D01*
X0301243Y0356951D01*
X0301094Y0357004D01*
X0300947Y0357062D01*
X0300801Y0357123D01*
X0300657Y0357188D01*
X0300515Y0357256D01*
X0300374Y0357328D01*
X0300236Y0357404D01*
X0300099Y0357483D01*
X0299964Y0357565D01*
X0299831Y0357651D01*
X0299701Y0357740D01*
X0299573Y0357832D01*
X0299447Y0357928D01*
X0299324Y0358027D01*
X0299203Y0358128D01*
X0299085Y0358233D01*
X0298969Y0358341D01*
X0298857Y0358451D01*
X0298747Y0358565D01*
X0298640Y0358681D01*
X0298536Y0358800D01*
X0298435Y0358921D01*
X0298337Y0359045D01*
X0298242Y0359172D01*
X0298150Y0359300D01*
X0298062Y0359431D01*
X0297977Y0359565D01*
X0297896Y0359700D01*
X0297817Y0359837D01*
X0297743Y0359976D01*
X0297672Y0360117D01*
X0297604Y0360260D01*
X0297540Y0360405D01*
X0297480Y0360551D01*
X0297424Y0360698D01*
X0297371Y0360847D01*
X0297322Y0360997D01*
X0297277Y0361149D01*
X0297235Y0361301D01*
X0297198Y0361455D01*
X0297164Y0361609D01*
X0297134Y0361764D01*
X0297109Y0361920D01*
X0297087Y0362076D01*
X0297069Y0362233D01*
X0297055Y0362391D01*
X0297045Y0362548D01*
X0297039Y0362706D01*
X0297037Y0362864D01*
X0270816Y0354006D02*
X0270818Y0354140D01*
X0270824Y0354274D01*
X0270834Y0354408D01*
X0270848Y0354542D01*
X0270866Y0354675D01*
X0270887Y0354807D01*
X0270913Y0354939D01*
X0270943Y0355070D01*
X0270976Y0355200D01*
X0271013Y0355328D01*
X0271055Y0355456D01*
X0271099Y0355583D01*
X0271148Y0355708D01*
X0271200Y0355831D01*
X0271256Y0355953D01*
X0271316Y0356074D01*
X0271379Y0356192D01*
X0271445Y0356309D01*
X0271515Y0356423D01*
X0271588Y0356536D01*
X0271665Y0356646D01*
X0271745Y0356754D01*
X0271828Y0356859D01*
X0271914Y0356962D01*
X0272003Y0357062D01*
X0272095Y0357160D01*
X0272190Y0357255D01*
X0272288Y0357347D01*
X0272388Y0357436D01*
X0272491Y0357522D01*
X0272596Y0357605D01*
X0272704Y0357685D01*
X0272814Y0357762D01*
X0272927Y0357835D01*
X0273041Y0357905D01*
X0273158Y0357971D01*
X0273276Y0358034D01*
X0273397Y0358094D01*
X0273519Y0358150D01*
X0273642Y0358202D01*
X0273767Y0358251D01*
X0273894Y0358295D01*
X0274022Y0358337D01*
X0274150Y0358374D01*
X0274280Y0358407D01*
X0274411Y0358437D01*
X0274543Y0358463D01*
X0274675Y0358484D01*
X0274808Y0358502D01*
X0274942Y0358516D01*
X0275076Y0358526D01*
X0275210Y0358532D01*
X0275344Y0358534D01*
X0275478Y0358532D01*
X0275612Y0358526D01*
X0275746Y0358516D01*
X0275880Y0358502D01*
X0276013Y0358484D01*
X0276145Y0358463D01*
X0276277Y0358437D01*
X0276408Y0358407D01*
X0276538Y0358374D01*
X0276666Y0358337D01*
X0276794Y0358295D01*
X0276921Y0358251D01*
X0277046Y0358202D01*
X0277169Y0358150D01*
X0277291Y0358094D01*
X0277412Y0358034D01*
X0277530Y0357971D01*
X0277647Y0357905D01*
X0277761Y0357835D01*
X0277874Y0357762D01*
X0277984Y0357685D01*
X0278092Y0357605D01*
X0278197Y0357522D01*
X0278300Y0357436D01*
X0278400Y0357347D01*
X0278498Y0357255D01*
X0278593Y0357160D01*
X0278685Y0357062D01*
X0278774Y0356962D01*
X0278860Y0356859D01*
X0278943Y0356754D01*
X0279023Y0356646D01*
X0279100Y0356536D01*
X0279173Y0356423D01*
X0279243Y0356309D01*
X0279309Y0356192D01*
X0279372Y0356074D01*
X0279432Y0355953D01*
X0279488Y0355831D01*
X0279540Y0355708D01*
X0279589Y0355583D01*
X0279633Y0355456D01*
X0279675Y0355328D01*
X0279712Y0355200D01*
X0279745Y0355070D01*
X0279775Y0354939D01*
X0279801Y0354807D01*
X0279822Y0354675D01*
X0279840Y0354542D01*
X0279854Y0354408D01*
X0279864Y0354274D01*
X0279870Y0354140D01*
X0279872Y0354006D01*
X0279870Y0353872D01*
X0279864Y0353738D01*
X0279854Y0353604D01*
X0279840Y0353470D01*
X0279822Y0353337D01*
X0279801Y0353205D01*
X0279775Y0353073D01*
X0279745Y0352942D01*
X0279712Y0352812D01*
X0279675Y0352684D01*
X0279633Y0352556D01*
X0279589Y0352429D01*
X0279540Y0352304D01*
X0279488Y0352181D01*
X0279432Y0352059D01*
X0279372Y0351938D01*
X0279309Y0351820D01*
X0279243Y0351703D01*
X0279173Y0351589D01*
X0279100Y0351476D01*
X0279023Y0351366D01*
X0278943Y0351258D01*
X0278860Y0351153D01*
X0278774Y0351050D01*
X0278685Y0350950D01*
X0278593Y0350852D01*
X0278498Y0350757D01*
X0278400Y0350665D01*
X0278300Y0350576D01*
X0278197Y0350490D01*
X0278092Y0350407D01*
X0277984Y0350327D01*
X0277874Y0350250D01*
X0277761Y0350177D01*
X0277647Y0350107D01*
X0277530Y0350041D01*
X0277412Y0349978D01*
X0277291Y0349918D01*
X0277169Y0349862D01*
X0277046Y0349810D01*
X0276921Y0349761D01*
X0276794Y0349717D01*
X0276666Y0349675D01*
X0276538Y0349638D01*
X0276408Y0349605D01*
X0276277Y0349575D01*
X0276145Y0349549D01*
X0276013Y0349528D01*
X0275880Y0349510D01*
X0275746Y0349496D01*
X0275612Y0349486D01*
X0275478Y0349480D01*
X0275344Y0349478D01*
X0275210Y0349480D01*
X0275076Y0349486D01*
X0274942Y0349496D01*
X0274808Y0349510D01*
X0274675Y0349528D01*
X0274543Y0349549D01*
X0274411Y0349575D01*
X0274280Y0349605D01*
X0274150Y0349638D01*
X0274022Y0349675D01*
X0273894Y0349717D01*
X0273767Y0349761D01*
X0273642Y0349810D01*
X0273519Y0349862D01*
X0273397Y0349918D01*
X0273276Y0349978D01*
X0273158Y0350041D01*
X0273041Y0350107D01*
X0272927Y0350177D01*
X0272814Y0350250D01*
X0272704Y0350327D01*
X0272596Y0350407D01*
X0272491Y0350490D01*
X0272388Y0350576D01*
X0272288Y0350665D01*
X0272190Y0350757D01*
X0272095Y0350852D01*
X0272003Y0350950D01*
X0271914Y0351050D01*
X0271828Y0351153D01*
X0271745Y0351258D01*
X0271665Y0351366D01*
X0271588Y0351476D01*
X0271515Y0351589D01*
X0271445Y0351703D01*
X0271379Y0351820D01*
X0271316Y0351938D01*
X0271256Y0352059D01*
X0271200Y0352181D01*
X0271148Y0352304D01*
X0271099Y0352429D01*
X0271055Y0352556D01*
X0271013Y0352684D01*
X0270976Y0352812D01*
X0270943Y0352942D01*
X0270913Y0353073D01*
X0270887Y0353205D01*
X0270866Y0353337D01*
X0270848Y0353470D01*
X0270834Y0353604D01*
X0270824Y0353738D01*
X0270818Y0353872D01*
X0270816Y0354006D01*
X0309793Y0395541D02*
X0309795Y0395692D01*
X0309801Y0395842D01*
X0309811Y0395993D01*
X0309825Y0396143D01*
X0309843Y0396292D01*
X0309864Y0396442D01*
X0309890Y0396590D01*
X0309920Y0396738D01*
X0309953Y0396885D01*
X0309991Y0397031D01*
X0310032Y0397176D01*
X0310077Y0397320D01*
X0310126Y0397462D01*
X0310179Y0397603D01*
X0310235Y0397743D01*
X0310295Y0397881D01*
X0310358Y0398018D01*
X0310426Y0398153D01*
X0310496Y0398286D01*
X0310570Y0398417D01*
X0310648Y0398546D01*
X0310729Y0398673D01*
X0310813Y0398798D01*
X0310901Y0398921D01*
X0310992Y0399041D01*
X0311086Y0399159D01*
X0311183Y0399274D01*
X0311283Y0399387D01*
X0311386Y0399497D01*
X0311492Y0399604D01*
X0311601Y0399709D01*
X0311712Y0399810D01*
X0311826Y0399909D01*
X0311942Y0400004D01*
X0312062Y0400097D01*
X0312183Y0400186D01*
X0312307Y0400272D01*
X0312433Y0400355D01*
X0312561Y0400434D01*
X0312691Y0400510D01*
X0312823Y0400583D01*
X0312957Y0400651D01*
X0313093Y0400717D01*
X0313231Y0400779D01*
X0313370Y0400837D01*
X0313510Y0400891D01*
X0313652Y0400942D01*
X0313795Y0400989D01*
X0313940Y0401032D01*
X0314085Y0401071D01*
X0314232Y0401107D01*
X0314379Y0401138D01*
X0314527Y0401166D01*
X0314676Y0401190D01*
X0314825Y0401210D01*
X0314975Y0401226D01*
X0315125Y0401238D01*
X0315276Y0401246D01*
X0315427Y0401250D01*
X0315577Y0401250D01*
X0315728Y0401246D01*
X0315879Y0401238D01*
X0316029Y0401226D01*
X0316179Y0401210D01*
X0316328Y0401190D01*
X0316477Y0401166D01*
X0316625Y0401138D01*
X0316772Y0401107D01*
X0316919Y0401071D01*
X0317064Y0401032D01*
X0317209Y0400989D01*
X0317352Y0400942D01*
X0317494Y0400891D01*
X0317634Y0400837D01*
X0317773Y0400779D01*
X0317911Y0400717D01*
X0318047Y0400651D01*
X0318181Y0400583D01*
X0318313Y0400510D01*
X0318443Y0400434D01*
X0318571Y0400355D01*
X0318697Y0400272D01*
X0318821Y0400186D01*
X0318942Y0400097D01*
X0319062Y0400004D01*
X0319178Y0399909D01*
X0319292Y0399810D01*
X0319403Y0399709D01*
X0319512Y0399604D01*
X0319618Y0399497D01*
X0319721Y0399387D01*
X0319821Y0399274D01*
X0319918Y0399159D01*
X0320012Y0399041D01*
X0320103Y0398921D01*
X0320191Y0398798D01*
X0320275Y0398673D01*
X0320356Y0398546D01*
X0320434Y0398417D01*
X0320508Y0398286D01*
X0320578Y0398153D01*
X0320646Y0398018D01*
X0320709Y0397881D01*
X0320769Y0397743D01*
X0320825Y0397603D01*
X0320878Y0397462D01*
X0320927Y0397320D01*
X0320972Y0397176D01*
X0321013Y0397031D01*
X0321051Y0396885D01*
X0321084Y0396738D01*
X0321114Y0396590D01*
X0321140Y0396442D01*
X0321161Y0396292D01*
X0321179Y0396143D01*
X0321193Y0395993D01*
X0321203Y0395842D01*
X0321209Y0395692D01*
X0321211Y0395541D01*
X0321209Y0395390D01*
X0321203Y0395240D01*
X0321193Y0395089D01*
X0321179Y0394939D01*
X0321161Y0394790D01*
X0321140Y0394640D01*
X0321114Y0394492D01*
X0321084Y0394344D01*
X0321051Y0394197D01*
X0321013Y0394051D01*
X0320972Y0393906D01*
X0320927Y0393762D01*
X0320878Y0393620D01*
X0320825Y0393479D01*
X0320769Y0393339D01*
X0320709Y0393201D01*
X0320646Y0393064D01*
X0320578Y0392929D01*
X0320508Y0392796D01*
X0320434Y0392665D01*
X0320356Y0392536D01*
X0320275Y0392409D01*
X0320191Y0392284D01*
X0320103Y0392161D01*
X0320012Y0392041D01*
X0319918Y0391923D01*
X0319821Y0391808D01*
X0319721Y0391695D01*
X0319618Y0391585D01*
X0319512Y0391478D01*
X0319403Y0391373D01*
X0319292Y0391272D01*
X0319178Y0391173D01*
X0319062Y0391078D01*
X0318942Y0390985D01*
X0318821Y0390896D01*
X0318697Y0390810D01*
X0318571Y0390727D01*
X0318443Y0390648D01*
X0318313Y0390572D01*
X0318181Y0390499D01*
X0318047Y0390431D01*
X0317911Y0390365D01*
X0317773Y0390303D01*
X0317634Y0390245D01*
X0317494Y0390191D01*
X0317352Y0390140D01*
X0317209Y0390093D01*
X0317064Y0390050D01*
X0316919Y0390011D01*
X0316772Y0389975D01*
X0316625Y0389944D01*
X0316477Y0389916D01*
X0316328Y0389892D01*
X0316179Y0389872D01*
X0316029Y0389856D01*
X0315879Y0389844D01*
X0315728Y0389836D01*
X0315577Y0389832D01*
X0315427Y0389832D01*
X0315276Y0389836D01*
X0315125Y0389844D01*
X0314975Y0389856D01*
X0314825Y0389872D01*
X0314676Y0389892D01*
X0314527Y0389916D01*
X0314379Y0389944D01*
X0314232Y0389975D01*
X0314085Y0390011D01*
X0313940Y0390050D01*
X0313795Y0390093D01*
X0313652Y0390140D01*
X0313510Y0390191D01*
X0313370Y0390245D01*
X0313231Y0390303D01*
X0313093Y0390365D01*
X0312957Y0390431D01*
X0312823Y0390499D01*
X0312691Y0390572D01*
X0312561Y0390648D01*
X0312433Y0390727D01*
X0312307Y0390810D01*
X0312183Y0390896D01*
X0312062Y0390985D01*
X0311942Y0391078D01*
X0311826Y0391173D01*
X0311712Y0391272D01*
X0311601Y0391373D01*
X0311492Y0391478D01*
X0311386Y0391585D01*
X0311283Y0391695D01*
X0311183Y0391808D01*
X0311086Y0391923D01*
X0310992Y0392041D01*
X0310901Y0392161D01*
X0310813Y0392284D01*
X0310729Y0392409D01*
X0310648Y0392536D01*
X0310570Y0392665D01*
X0310496Y0392796D01*
X0310426Y0392929D01*
X0310358Y0393064D01*
X0310295Y0393201D01*
X0310235Y0393339D01*
X0310179Y0393479D01*
X0310126Y0393620D01*
X0310077Y0393762D01*
X0310032Y0393906D01*
X0309991Y0394051D01*
X0309953Y0394197D01*
X0309920Y0394344D01*
X0309890Y0394492D01*
X0309864Y0394640D01*
X0309843Y0394790D01*
X0309825Y0394939D01*
X0309811Y0395089D01*
X0309801Y0395240D01*
X0309795Y0395390D01*
X0309793Y0395541D01*
X0169832Y0364833D02*
X0169834Y0364945D01*
X0169840Y0365056D01*
X0169850Y0365168D01*
X0169864Y0365279D01*
X0169881Y0365389D01*
X0169903Y0365499D01*
X0169929Y0365608D01*
X0169958Y0365716D01*
X0169991Y0365822D01*
X0170028Y0365928D01*
X0170069Y0366032D01*
X0170114Y0366135D01*
X0170162Y0366236D01*
X0170213Y0366335D01*
X0170268Y0366432D01*
X0170327Y0366527D01*
X0170388Y0366621D01*
X0170453Y0366712D01*
X0170522Y0366800D01*
X0170593Y0366886D01*
X0170667Y0366970D01*
X0170745Y0367050D01*
X0170825Y0367128D01*
X0170908Y0367204D01*
X0170993Y0367276D01*
X0171081Y0367345D01*
X0171171Y0367411D01*
X0171264Y0367473D01*
X0171359Y0367533D01*
X0171456Y0367589D01*
X0171554Y0367641D01*
X0171655Y0367690D01*
X0171757Y0367735D01*
X0171861Y0367777D01*
X0171966Y0367815D01*
X0172073Y0367849D01*
X0172180Y0367879D01*
X0172289Y0367906D01*
X0172398Y0367928D01*
X0172509Y0367947D01*
X0172619Y0367962D01*
X0172731Y0367973D01*
X0172842Y0367980D01*
X0172954Y0367983D01*
X0173066Y0367982D01*
X0173178Y0367977D01*
X0173289Y0367968D01*
X0173400Y0367955D01*
X0173511Y0367938D01*
X0173621Y0367918D01*
X0173730Y0367893D01*
X0173838Y0367865D01*
X0173945Y0367832D01*
X0174051Y0367796D01*
X0174155Y0367756D01*
X0174258Y0367713D01*
X0174360Y0367666D01*
X0174459Y0367615D01*
X0174557Y0367561D01*
X0174653Y0367503D01*
X0174747Y0367442D01*
X0174838Y0367378D01*
X0174927Y0367311D01*
X0175014Y0367240D01*
X0175098Y0367166D01*
X0175180Y0367090D01*
X0175258Y0367010D01*
X0175334Y0366928D01*
X0175407Y0366843D01*
X0175477Y0366756D01*
X0175543Y0366666D01*
X0175607Y0366574D01*
X0175667Y0366480D01*
X0175724Y0366384D01*
X0175777Y0366285D01*
X0175827Y0366185D01*
X0175873Y0366084D01*
X0175916Y0365980D01*
X0175955Y0365875D01*
X0175990Y0365769D01*
X0176021Y0365662D01*
X0176049Y0365553D01*
X0176072Y0365444D01*
X0176092Y0365334D01*
X0176108Y0365223D01*
X0176120Y0365112D01*
X0176128Y0365001D01*
X0176132Y0364889D01*
X0176132Y0364777D01*
X0176128Y0364665D01*
X0176120Y0364554D01*
X0176108Y0364443D01*
X0176092Y0364332D01*
X0176072Y0364222D01*
X0176049Y0364113D01*
X0176021Y0364004D01*
X0175990Y0363897D01*
X0175955Y0363791D01*
X0175916Y0363686D01*
X0175873Y0363582D01*
X0175827Y0363481D01*
X0175777Y0363381D01*
X0175724Y0363282D01*
X0175667Y0363186D01*
X0175607Y0363092D01*
X0175543Y0363000D01*
X0175477Y0362910D01*
X0175407Y0362823D01*
X0175334Y0362738D01*
X0175258Y0362656D01*
X0175180Y0362576D01*
X0175098Y0362500D01*
X0175014Y0362426D01*
X0174927Y0362355D01*
X0174838Y0362288D01*
X0174747Y0362224D01*
X0174653Y0362163D01*
X0174557Y0362105D01*
X0174459Y0362051D01*
X0174360Y0362000D01*
X0174258Y0361953D01*
X0174155Y0361910D01*
X0174051Y0361870D01*
X0173945Y0361834D01*
X0173838Y0361801D01*
X0173730Y0361773D01*
X0173621Y0361748D01*
X0173511Y0361728D01*
X0173400Y0361711D01*
X0173289Y0361698D01*
X0173178Y0361689D01*
X0173066Y0361684D01*
X0172954Y0361683D01*
X0172842Y0361686D01*
X0172731Y0361693D01*
X0172619Y0361704D01*
X0172509Y0361719D01*
X0172398Y0361738D01*
X0172289Y0361760D01*
X0172180Y0361787D01*
X0172073Y0361817D01*
X0171966Y0361851D01*
X0171861Y0361889D01*
X0171757Y0361931D01*
X0171655Y0361976D01*
X0171554Y0362025D01*
X0171456Y0362077D01*
X0171359Y0362133D01*
X0171264Y0362193D01*
X0171171Y0362255D01*
X0171081Y0362321D01*
X0170993Y0362390D01*
X0170908Y0362462D01*
X0170825Y0362538D01*
X0170745Y0362616D01*
X0170667Y0362696D01*
X0170593Y0362780D01*
X0170522Y0362866D01*
X0170453Y0362954D01*
X0170388Y0363045D01*
X0170327Y0363139D01*
X0170268Y0363234D01*
X0170213Y0363331D01*
X0170162Y0363430D01*
X0170114Y0363531D01*
X0170069Y0363634D01*
X0170028Y0363738D01*
X0169991Y0363844D01*
X0169958Y0363950D01*
X0169929Y0364058D01*
X0169903Y0364167D01*
X0169881Y0364277D01*
X0169864Y0364387D01*
X0169850Y0364498D01*
X0169840Y0364610D01*
X0169834Y0364721D01*
X0169832Y0364833D01*
X0126959Y0362864D02*
X0126961Y0363022D01*
X0126967Y0363180D01*
X0126977Y0363337D01*
X0126991Y0363495D01*
X0127009Y0363652D01*
X0127031Y0363808D01*
X0127056Y0363964D01*
X0127086Y0364119D01*
X0127120Y0364273D01*
X0127157Y0364427D01*
X0127199Y0364579D01*
X0127244Y0364731D01*
X0127293Y0364881D01*
X0127346Y0365030D01*
X0127402Y0365177D01*
X0127462Y0365323D01*
X0127526Y0365468D01*
X0127594Y0365611D01*
X0127665Y0365752D01*
X0127739Y0365891D01*
X0127818Y0366028D01*
X0127899Y0366163D01*
X0127984Y0366297D01*
X0128072Y0366428D01*
X0128164Y0366556D01*
X0128259Y0366683D01*
X0128357Y0366807D01*
X0128458Y0366928D01*
X0128562Y0367047D01*
X0128669Y0367163D01*
X0128779Y0367277D01*
X0128891Y0367387D01*
X0129007Y0367495D01*
X0129125Y0367600D01*
X0129246Y0367701D01*
X0129369Y0367800D01*
X0129495Y0367896D01*
X0129623Y0367988D01*
X0129753Y0368077D01*
X0129886Y0368163D01*
X0130021Y0368245D01*
X0130158Y0368324D01*
X0130296Y0368400D01*
X0130437Y0368472D01*
X0130579Y0368540D01*
X0130723Y0368605D01*
X0130869Y0368666D01*
X0131016Y0368724D01*
X0131165Y0368777D01*
X0131315Y0368827D01*
X0131466Y0368873D01*
X0131618Y0368916D01*
X0131771Y0368954D01*
X0131925Y0368989D01*
X0132080Y0369020D01*
X0132236Y0369046D01*
X0132392Y0369069D01*
X0132549Y0369088D01*
X0132706Y0369103D01*
X0132864Y0369114D01*
X0133022Y0369121D01*
X0133180Y0369124D01*
X0133337Y0369123D01*
X0133495Y0369118D01*
X0133653Y0369109D01*
X0133810Y0369096D01*
X0133968Y0369079D01*
X0134124Y0369058D01*
X0134280Y0369033D01*
X0134435Y0369005D01*
X0134590Y0368972D01*
X0134744Y0368935D01*
X0134896Y0368895D01*
X0135048Y0368851D01*
X0135198Y0368803D01*
X0135348Y0368751D01*
X0135496Y0368695D01*
X0135642Y0368636D01*
X0135787Y0368573D01*
X0135930Y0368507D01*
X0136072Y0368436D01*
X0136211Y0368363D01*
X0136349Y0368285D01*
X0136485Y0368205D01*
X0136618Y0368121D01*
X0136750Y0368033D01*
X0136879Y0367942D01*
X0137006Y0367848D01*
X0137131Y0367751D01*
X0137253Y0367651D01*
X0137372Y0367548D01*
X0137489Y0367441D01*
X0137603Y0367332D01*
X0137715Y0367220D01*
X0137823Y0367105D01*
X0137929Y0366988D01*
X0138031Y0366868D01*
X0138131Y0366745D01*
X0138227Y0366620D01*
X0138320Y0366492D01*
X0138410Y0366362D01*
X0138497Y0366230D01*
X0138580Y0366096D01*
X0138660Y0365960D01*
X0138736Y0365821D01*
X0138809Y0365681D01*
X0138879Y0365539D01*
X0138944Y0365396D01*
X0139006Y0365250D01*
X0139065Y0365104D01*
X0139119Y0364955D01*
X0139170Y0364806D01*
X0139217Y0364655D01*
X0139261Y0364503D01*
X0139300Y0364350D01*
X0139336Y0364196D01*
X0139367Y0364042D01*
X0139395Y0363886D01*
X0139419Y0363730D01*
X0139439Y0363573D01*
X0139455Y0363416D01*
X0139467Y0363259D01*
X0139475Y0363101D01*
X0139479Y0362943D01*
X0139479Y0362785D01*
X0139475Y0362627D01*
X0139467Y0362469D01*
X0139455Y0362312D01*
X0139439Y0362155D01*
X0139419Y0361998D01*
X0139395Y0361842D01*
X0139367Y0361686D01*
X0139336Y0361532D01*
X0139300Y0361378D01*
X0139261Y0361225D01*
X0139217Y0361073D01*
X0139170Y0360922D01*
X0139119Y0360773D01*
X0139065Y0360624D01*
X0139006Y0360478D01*
X0138944Y0360332D01*
X0138879Y0360189D01*
X0138809Y0360047D01*
X0138736Y0359907D01*
X0138660Y0359768D01*
X0138580Y0359632D01*
X0138497Y0359498D01*
X0138410Y0359366D01*
X0138320Y0359236D01*
X0138227Y0359108D01*
X0138131Y0358983D01*
X0138031Y0358860D01*
X0137929Y0358740D01*
X0137823Y0358623D01*
X0137715Y0358508D01*
X0137603Y0358396D01*
X0137489Y0358287D01*
X0137372Y0358180D01*
X0137253Y0358077D01*
X0137131Y0357977D01*
X0137006Y0357880D01*
X0136879Y0357786D01*
X0136750Y0357695D01*
X0136618Y0357607D01*
X0136485Y0357523D01*
X0136349Y0357443D01*
X0136211Y0357365D01*
X0136072Y0357292D01*
X0135930Y0357221D01*
X0135787Y0357155D01*
X0135642Y0357092D01*
X0135496Y0357033D01*
X0135348Y0356977D01*
X0135198Y0356925D01*
X0135048Y0356877D01*
X0134896Y0356833D01*
X0134744Y0356793D01*
X0134590Y0356756D01*
X0134435Y0356723D01*
X0134280Y0356695D01*
X0134124Y0356670D01*
X0133968Y0356649D01*
X0133810Y0356632D01*
X0133653Y0356619D01*
X0133495Y0356610D01*
X0133337Y0356605D01*
X0133180Y0356604D01*
X0133022Y0356607D01*
X0132864Y0356614D01*
X0132706Y0356625D01*
X0132549Y0356640D01*
X0132392Y0356659D01*
X0132236Y0356682D01*
X0132080Y0356708D01*
X0131925Y0356739D01*
X0131771Y0356774D01*
X0131618Y0356812D01*
X0131466Y0356855D01*
X0131315Y0356901D01*
X0131165Y0356951D01*
X0131016Y0357004D01*
X0130869Y0357062D01*
X0130723Y0357123D01*
X0130579Y0357188D01*
X0130437Y0357256D01*
X0130296Y0357328D01*
X0130158Y0357404D01*
X0130021Y0357483D01*
X0129886Y0357565D01*
X0129753Y0357651D01*
X0129623Y0357740D01*
X0129495Y0357832D01*
X0129369Y0357928D01*
X0129246Y0358027D01*
X0129125Y0358128D01*
X0129007Y0358233D01*
X0128891Y0358341D01*
X0128779Y0358451D01*
X0128669Y0358565D01*
X0128562Y0358681D01*
X0128458Y0358800D01*
X0128357Y0358921D01*
X0128259Y0359045D01*
X0128164Y0359172D01*
X0128072Y0359300D01*
X0127984Y0359431D01*
X0127899Y0359565D01*
X0127818Y0359700D01*
X0127739Y0359837D01*
X0127665Y0359976D01*
X0127594Y0360117D01*
X0127526Y0360260D01*
X0127462Y0360405D01*
X0127402Y0360551D01*
X0127346Y0360698D01*
X0127293Y0360847D01*
X0127244Y0360997D01*
X0127199Y0361149D01*
X0127157Y0361301D01*
X0127120Y0361455D01*
X0127086Y0361609D01*
X0127056Y0361764D01*
X0127031Y0361920D01*
X0127009Y0362076D01*
X0126991Y0362233D01*
X0126977Y0362391D01*
X0126967Y0362548D01*
X0126961Y0362706D01*
X0126959Y0362864D01*
X0115305Y0395541D02*
X0115307Y0395692D01*
X0115313Y0395842D01*
X0115323Y0395993D01*
X0115337Y0396143D01*
X0115355Y0396292D01*
X0115376Y0396442D01*
X0115402Y0396590D01*
X0115432Y0396738D01*
X0115465Y0396885D01*
X0115503Y0397031D01*
X0115544Y0397176D01*
X0115589Y0397320D01*
X0115638Y0397462D01*
X0115691Y0397603D01*
X0115747Y0397743D01*
X0115807Y0397881D01*
X0115870Y0398018D01*
X0115938Y0398153D01*
X0116008Y0398286D01*
X0116082Y0398417D01*
X0116160Y0398546D01*
X0116241Y0398673D01*
X0116325Y0398798D01*
X0116413Y0398921D01*
X0116504Y0399041D01*
X0116598Y0399159D01*
X0116695Y0399274D01*
X0116795Y0399387D01*
X0116898Y0399497D01*
X0117004Y0399604D01*
X0117113Y0399709D01*
X0117224Y0399810D01*
X0117338Y0399909D01*
X0117454Y0400004D01*
X0117574Y0400097D01*
X0117695Y0400186D01*
X0117819Y0400272D01*
X0117945Y0400355D01*
X0118073Y0400434D01*
X0118203Y0400510D01*
X0118335Y0400583D01*
X0118469Y0400651D01*
X0118605Y0400717D01*
X0118743Y0400779D01*
X0118882Y0400837D01*
X0119022Y0400891D01*
X0119164Y0400942D01*
X0119307Y0400989D01*
X0119452Y0401032D01*
X0119597Y0401071D01*
X0119744Y0401107D01*
X0119891Y0401138D01*
X0120039Y0401166D01*
X0120188Y0401190D01*
X0120337Y0401210D01*
X0120487Y0401226D01*
X0120637Y0401238D01*
X0120788Y0401246D01*
X0120939Y0401250D01*
X0121089Y0401250D01*
X0121240Y0401246D01*
X0121391Y0401238D01*
X0121541Y0401226D01*
X0121691Y0401210D01*
X0121840Y0401190D01*
X0121989Y0401166D01*
X0122137Y0401138D01*
X0122284Y0401107D01*
X0122431Y0401071D01*
X0122576Y0401032D01*
X0122721Y0400989D01*
X0122864Y0400942D01*
X0123006Y0400891D01*
X0123146Y0400837D01*
X0123285Y0400779D01*
X0123423Y0400717D01*
X0123559Y0400651D01*
X0123693Y0400583D01*
X0123825Y0400510D01*
X0123955Y0400434D01*
X0124083Y0400355D01*
X0124209Y0400272D01*
X0124333Y0400186D01*
X0124454Y0400097D01*
X0124574Y0400004D01*
X0124690Y0399909D01*
X0124804Y0399810D01*
X0124915Y0399709D01*
X0125024Y0399604D01*
X0125130Y0399497D01*
X0125233Y0399387D01*
X0125333Y0399274D01*
X0125430Y0399159D01*
X0125524Y0399041D01*
X0125615Y0398921D01*
X0125703Y0398798D01*
X0125787Y0398673D01*
X0125868Y0398546D01*
X0125946Y0398417D01*
X0126020Y0398286D01*
X0126090Y0398153D01*
X0126158Y0398018D01*
X0126221Y0397881D01*
X0126281Y0397743D01*
X0126337Y0397603D01*
X0126390Y0397462D01*
X0126439Y0397320D01*
X0126484Y0397176D01*
X0126525Y0397031D01*
X0126563Y0396885D01*
X0126596Y0396738D01*
X0126626Y0396590D01*
X0126652Y0396442D01*
X0126673Y0396292D01*
X0126691Y0396143D01*
X0126705Y0395993D01*
X0126715Y0395842D01*
X0126721Y0395692D01*
X0126723Y0395541D01*
X0126721Y0395390D01*
X0126715Y0395240D01*
X0126705Y0395089D01*
X0126691Y0394939D01*
X0126673Y0394790D01*
X0126652Y0394640D01*
X0126626Y0394492D01*
X0126596Y0394344D01*
X0126563Y0394197D01*
X0126525Y0394051D01*
X0126484Y0393906D01*
X0126439Y0393762D01*
X0126390Y0393620D01*
X0126337Y0393479D01*
X0126281Y0393339D01*
X0126221Y0393201D01*
X0126158Y0393064D01*
X0126090Y0392929D01*
X0126020Y0392796D01*
X0125946Y0392665D01*
X0125868Y0392536D01*
X0125787Y0392409D01*
X0125703Y0392284D01*
X0125615Y0392161D01*
X0125524Y0392041D01*
X0125430Y0391923D01*
X0125333Y0391808D01*
X0125233Y0391695D01*
X0125130Y0391585D01*
X0125024Y0391478D01*
X0124915Y0391373D01*
X0124804Y0391272D01*
X0124690Y0391173D01*
X0124574Y0391078D01*
X0124454Y0390985D01*
X0124333Y0390896D01*
X0124209Y0390810D01*
X0124083Y0390727D01*
X0123955Y0390648D01*
X0123825Y0390572D01*
X0123693Y0390499D01*
X0123559Y0390431D01*
X0123423Y0390365D01*
X0123285Y0390303D01*
X0123146Y0390245D01*
X0123006Y0390191D01*
X0122864Y0390140D01*
X0122721Y0390093D01*
X0122576Y0390050D01*
X0122431Y0390011D01*
X0122284Y0389975D01*
X0122137Y0389944D01*
X0121989Y0389916D01*
X0121840Y0389892D01*
X0121691Y0389872D01*
X0121541Y0389856D01*
X0121391Y0389844D01*
X0121240Y0389836D01*
X0121089Y0389832D01*
X0120939Y0389832D01*
X0120788Y0389836D01*
X0120637Y0389844D01*
X0120487Y0389856D01*
X0120337Y0389872D01*
X0120188Y0389892D01*
X0120039Y0389916D01*
X0119891Y0389944D01*
X0119744Y0389975D01*
X0119597Y0390011D01*
X0119452Y0390050D01*
X0119307Y0390093D01*
X0119164Y0390140D01*
X0119022Y0390191D01*
X0118882Y0390245D01*
X0118743Y0390303D01*
X0118605Y0390365D01*
X0118469Y0390431D01*
X0118335Y0390499D01*
X0118203Y0390572D01*
X0118073Y0390648D01*
X0117945Y0390727D01*
X0117819Y0390810D01*
X0117695Y0390896D01*
X0117574Y0390985D01*
X0117454Y0391078D01*
X0117338Y0391173D01*
X0117224Y0391272D01*
X0117113Y0391373D01*
X0117004Y0391478D01*
X0116898Y0391585D01*
X0116795Y0391695D01*
X0116695Y0391808D01*
X0116598Y0391923D01*
X0116504Y0392041D01*
X0116413Y0392161D01*
X0116325Y0392284D01*
X0116241Y0392409D01*
X0116160Y0392536D01*
X0116082Y0392665D01*
X0116008Y0392796D01*
X0115938Y0392929D01*
X0115870Y0393064D01*
X0115807Y0393201D01*
X0115747Y0393339D01*
X0115691Y0393479D01*
X0115638Y0393620D01*
X0115589Y0393762D01*
X0115544Y0393906D01*
X0115503Y0394051D01*
X0115465Y0394197D01*
X0115432Y0394344D01*
X0115402Y0394492D01*
X0115376Y0394640D01*
X0115355Y0394790D01*
X0115337Y0394939D01*
X0115323Y0395089D01*
X0115313Y0395240D01*
X0115307Y0395390D01*
X0115305Y0395541D01*
X0045935Y0398888D02*
X0034911Y0398888D01*
X0034911Y0398887D02*
X0034825Y0398889D01*
X0034739Y0398894D01*
X0034654Y0398904D01*
X0034569Y0398917D01*
X0034485Y0398934D01*
X0034401Y0398954D01*
X0034319Y0398978D01*
X0034238Y0399006D01*
X0034157Y0399037D01*
X0034079Y0399071D01*
X0034002Y0399109D01*
X0033927Y0399151D01*
X0033853Y0399195D01*
X0033782Y0399243D01*
X0033712Y0399294D01*
X0033645Y0399348D01*
X0033581Y0399404D01*
X0033519Y0399464D01*
X0033459Y0399526D01*
X0033403Y0399590D01*
X0033349Y0399657D01*
X0033298Y0399727D01*
X0033250Y0399798D01*
X0033206Y0399872D01*
X0033164Y0399947D01*
X0033126Y0400024D01*
X0033092Y0400102D01*
X0033061Y0400183D01*
X0033033Y0400264D01*
X0033009Y0400346D01*
X0032989Y0400430D01*
X0032972Y0400514D01*
X0032959Y0400599D01*
X0032949Y0400684D01*
X0032944Y0400770D01*
X0032942Y0400856D01*
X0032944Y0400942D01*
X0032949Y0401028D01*
X0032959Y0401113D01*
X0032972Y0401198D01*
X0032989Y0401282D01*
X0033009Y0401366D01*
X0033033Y0401448D01*
X0033061Y0401529D01*
X0033092Y0401610D01*
X0033126Y0401688D01*
X0033164Y0401765D01*
X0033206Y0401841D01*
X0033250Y0401914D01*
X0033298Y0401985D01*
X0033349Y0402055D01*
X0033403Y0402122D01*
X0033459Y0402186D01*
X0033519Y0402248D01*
X0033581Y0402308D01*
X0033645Y0402364D01*
X0033712Y0402418D01*
X0033782Y0402469D01*
X0033853Y0402517D01*
X0033927Y0402561D01*
X0034002Y0402603D01*
X0034079Y0402641D01*
X0034157Y0402675D01*
X0034238Y0402706D01*
X0034319Y0402734D01*
X0034401Y0402758D01*
X0034485Y0402778D01*
X0034569Y0402795D01*
X0034654Y0402808D01*
X0034739Y0402818D01*
X0034825Y0402823D01*
X0034911Y0402825D01*
X0045935Y0402825D01*
X0046021Y0402823D01*
X0046107Y0402818D01*
X0046192Y0402808D01*
X0046277Y0402795D01*
X0046361Y0402778D01*
X0046445Y0402758D01*
X0046527Y0402734D01*
X0046608Y0402706D01*
X0046689Y0402675D01*
X0046767Y0402641D01*
X0046844Y0402603D01*
X0046920Y0402561D01*
X0046993Y0402517D01*
X0047064Y0402469D01*
X0047134Y0402418D01*
X0047201Y0402364D01*
X0047265Y0402308D01*
X0047327Y0402248D01*
X0047387Y0402186D01*
X0047443Y0402122D01*
X0047497Y0402055D01*
X0047548Y0401985D01*
X0047596Y0401914D01*
X0047640Y0401841D01*
X0047682Y0401765D01*
X0047720Y0401688D01*
X0047754Y0401610D01*
X0047785Y0401529D01*
X0047813Y0401448D01*
X0047837Y0401366D01*
X0047857Y0401282D01*
X0047874Y0401198D01*
X0047887Y0401113D01*
X0047897Y0401028D01*
X0047902Y0400942D01*
X0047904Y0400856D01*
X0047902Y0400770D01*
X0047897Y0400684D01*
X0047887Y0400599D01*
X0047874Y0400514D01*
X0047857Y0400430D01*
X0047837Y0400346D01*
X0047813Y0400264D01*
X0047785Y0400183D01*
X0047754Y0400102D01*
X0047720Y0400024D01*
X0047682Y0399947D01*
X0047640Y0399872D01*
X0047596Y0399798D01*
X0047548Y0399727D01*
X0047497Y0399657D01*
X0047443Y0399590D01*
X0047387Y0399526D01*
X0047327Y0399464D01*
X0047265Y0399404D01*
X0047201Y0399348D01*
X0047134Y0399294D01*
X0047064Y0399243D01*
X0046993Y0399195D01*
X0046920Y0399151D01*
X0046844Y0399109D01*
X0046767Y0399071D01*
X0046689Y0399037D01*
X0046608Y0399006D01*
X0046527Y0398978D01*
X0046445Y0398954D01*
X0046361Y0398934D01*
X0046277Y0398917D01*
X0046192Y0398904D01*
X0046107Y0398894D01*
X0046021Y0398889D01*
X0045935Y0398887D01*
X0045935Y0338652D02*
X0034911Y0338652D01*
X0032942Y0336683D02*
X0032944Y0336597D01*
X0032949Y0336511D01*
X0032959Y0336426D01*
X0032972Y0336341D01*
X0032989Y0336257D01*
X0033009Y0336173D01*
X0033033Y0336091D01*
X0033061Y0336010D01*
X0033092Y0335929D01*
X0033126Y0335851D01*
X0033164Y0335774D01*
X0033206Y0335699D01*
X0033250Y0335625D01*
X0033298Y0335554D01*
X0033349Y0335484D01*
X0033403Y0335417D01*
X0033459Y0335353D01*
X0033519Y0335291D01*
X0033581Y0335231D01*
X0033645Y0335175D01*
X0033712Y0335121D01*
X0033782Y0335070D01*
X0033853Y0335022D01*
X0033927Y0334978D01*
X0034002Y0334936D01*
X0034079Y0334898D01*
X0034157Y0334864D01*
X0034238Y0334833D01*
X0034319Y0334805D01*
X0034401Y0334781D01*
X0034485Y0334761D01*
X0034569Y0334744D01*
X0034654Y0334731D01*
X0034739Y0334721D01*
X0034825Y0334716D01*
X0034911Y0334714D01*
X0034911Y0334715D02*
X0045935Y0334715D01*
X0047904Y0336683D02*
X0047902Y0336769D01*
X0047897Y0336855D01*
X0047887Y0336940D01*
X0047874Y0337025D01*
X0047857Y0337109D01*
X0047837Y0337193D01*
X0047813Y0337275D01*
X0047785Y0337356D01*
X0047754Y0337437D01*
X0047720Y0337515D01*
X0047682Y0337592D01*
X0047640Y0337668D01*
X0047596Y0337741D01*
X0047548Y0337812D01*
X0047497Y0337882D01*
X0047443Y0337949D01*
X0047387Y0338013D01*
X0047327Y0338075D01*
X0047265Y0338135D01*
X0047201Y0338191D01*
X0047134Y0338245D01*
X0047064Y0338296D01*
X0046993Y0338344D01*
X0046920Y0338388D01*
X0046844Y0338430D01*
X0046767Y0338468D01*
X0046689Y0338502D01*
X0046608Y0338533D01*
X0046527Y0338561D01*
X0046445Y0338585D01*
X0046361Y0338605D01*
X0046277Y0338622D01*
X0046192Y0338635D01*
X0046107Y0338645D01*
X0046021Y0338650D01*
X0045935Y0338652D01*
X0047904Y0336683D02*
X0047902Y0336597D01*
X0047897Y0336511D01*
X0047887Y0336426D01*
X0047874Y0336341D01*
X0047857Y0336257D01*
X0047837Y0336173D01*
X0047813Y0336091D01*
X0047785Y0336010D01*
X0047754Y0335929D01*
X0047720Y0335851D01*
X0047682Y0335774D01*
X0047640Y0335699D01*
X0047596Y0335625D01*
X0047548Y0335554D01*
X0047497Y0335484D01*
X0047443Y0335417D01*
X0047387Y0335353D01*
X0047327Y0335291D01*
X0047265Y0335231D01*
X0047201Y0335175D01*
X0047134Y0335121D01*
X0047064Y0335070D01*
X0046993Y0335022D01*
X0046920Y0334978D01*
X0046844Y0334936D01*
X0046767Y0334898D01*
X0046689Y0334864D01*
X0046608Y0334833D01*
X0046527Y0334805D01*
X0046445Y0334781D01*
X0046361Y0334761D01*
X0046277Y0334744D01*
X0046192Y0334731D01*
X0046107Y0334721D01*
X0046021Y0334716D01*
X0045935Y0334714D01*
X0034911Y0338652D02*
X0034825Y0338650D01*
X0034739Y0338645D01*
X0034654Y0338635D01*
X0034569Y0338622D01*
X0034485Y0338605D01*
X0034401Y0338585D01*
X0034319Y0338561D01*
X0034238Y0338533D01*
X0034157Y0338502D01*
X0034079Y0338468D01*
X0034002Y0338430D01*
X0033927Y0338388D01*
X0033853Y0338344D01*
X0033782Y0338296D01*
X0033712Y0338245D01*
X0033645Y0338191D01*
X0033581Y0338135D01*
X0033519Y0338075D01*
X0033459Y0338013D01*
X0033403Y0337949D01*
X0033349Y0337882D01*
X0033298Y0337812D01*
X0033250Y0337741D01*
X0033206Y0337668D01*
X0033164Y0337592D01*
X0033126Y0337515D01*
X0033092Y0337437D01*
X0033061Y0337356D01*
X0033033Y0337275D01*
X0033009Y0337193D01*
X0032989Y0337109D01*
X0032972Y0337025D01*
X0032959Y0336940D01*
X0032949Y0336855D01*
X0032944Y0336769D01*
X0032942Y0336683D01*
X0032234Y0312470D02*
X0032236Y0312621D01*
X0032242Y0312771D01*
X0032252Y0312922D01*
X0032266Y0313072D01*
X0032284Y0313221D01*
X0032305Y0313371D01*
X0032331Y0313519D01*
X0032361Y0313667D01*
X0032394Y0313814D01*
X0032432Y0313960D01*
X0032473Y0314105D01*
X0032518Y0314249D01*
X0032567Y0314391D01*
X0032620Y0314532D01*
X0032676Y0314672D01*
X0032736Y0314810D01*
X0032799Y0314947D01*
X0032867Y0315082D01*
X0032937Y0315215D01*
X0033011Y0315346D01*
X0033089Y0315475D01*
X0033170Y0315602D01*
X0033254Y0315727D01*
X0033342Y0315850D01*
X0033433Y0315970D01*
X0033527Y0316088D01*
X0033624Y0316203D01*
X0033724Y0316316D01*
X0033827Y0316426D01*
X0033933Y0316533D01*
X0034042Y0316638D01*
X0034153Y0316739D01*
X0034267Y0316838D01*
X0034383Y0316933D01*
X0034503Y0317026D01*
X0034624Y0317115D01*
X0034748Y0317201D01*
X0034874Y0317284D01*
X0035002Y0317363D01*
X0035132Y0317439D01*
X0035264Y0317512D01*
X0035398Y0317580D01*
X0035534Y0317646D01*
X0035672Y0317708D01*
X0035811Y0317766D01*
X0035951Y0317820D01*
X0036093Y0317871D01*
X0036236Y0317918D01*
X0036381Y0317961D01*
X0036526Y0318000D01*
X0036673Y0318036D01*
X0036820Y0318067D01*
X0036968Y0318095D01*
X0037117Y0318119D01*
X0037266Y0318139D01*
X0037416Y0318155D01*
X0037566Y0318167D01*
X0037717Y0318175D01*
X0037868Y0318179D01*
X0038018Y0318179D01*
X0038169Y0318175D01*
X0038320Y0318167D01*
X0038470Y0318155D01*
X0038620Y0318139D01*
X0038769Y0318119D01*
X0038918Y0318095D01*
X0039066Y0318067D01*
X0039213Y0318036D01*
X0039360Y0318000D01*
X0039505Y0317961D01*
X0039650Y0317918D01*
X0039793Y0317871D01*
X0039935Y0317820D01*
X0040075Y0317766D01*
X0040214Y0317708D01*
X0040352Y0317646D01*
X0040488Y0317580D01*
X0040622Y0317512D01*
X0040754Y0317439D01*
X0040884Y0317363D01*
X0041012Y0317284D01*
X0041138Y0317201D01*
X0041262Y0317115D01*
X0041383Y0317026D01*
X0041503Y0316933D01*
X0041619Y0316838D01*
X0041733Y0316739D01*
X0041844Y0316638D01*
X0041953Y0316533D01*
X0042059Y0316426D01*
X0042162Y0316316D01*
X0042262Y0316203D01*
X0042359Y0316088D01*
X0042453Y0315970D01*
X0042544Y0315850D01*
X0042632Y0315727D01*
X0042716Y0315602D01*
X0042797Y0315475D01*
X0042875Y0315346D01*
X0042949Y0315215D01*
X0043019Y0315082D01*
X0043087Y0314947D01*
X0043150Y0314810D01*
X0043210Y0314672D01*
X0043266Y0314532D01*
X0043319Y0314391D01*
X0043368Y0314249D01*
X0043413Y0314105D01*
X0043454Y0313960D01*
X0043492Y0313814D01*
X0043525Y0313667D01*
X0043555Y0313519D01*
X0043581Y0313371D01*
X0043602Y0313221D01*
X0043620Y0313072D01*
X0043634Y0312922D01*
X0043644Y0312771D01*
X0043650Y0312621D01*
X0043652Y0312470D01*
X0043650Y0312319D01*
X0043644Y0312169D01*
X0043634Y0312018D01*
X0043620Y0311868D01*
X0043602Y0311719D01*
X0043581Y0311569D01*
X0043555Y0311421D01*
X0043525Y0311273D01*
X0043492Y0311126D01*
X0043454Y0310980D01*
X0043413Y0310835D01*
X0043368Y0310691D01*
X0043319Y0310549D01*
X0043266Y0310408D01*
X0043210Y0310268D01*
X0043150Y0310130D01*
X0043087Y0309993D01*
X0043019Y0309858D01*
X0042949Y0309725D01*
X0042875Y0309594D01*
X0042797Y0309465D01*
X0042716Y0309338D01*
X0042632Y0309213D01*
X0042544Y0309090D01*
X0042453Y0308970D01*
X0042359Y0308852D01*
X0042262Y0308737D01*
X0042162Y0308624D01*
X0042059Y0308514D01*
X0041953Y0308407D01*
X0041844Y0308302D01*
X0041733Y0308201D01*
X0041619Y0308102D01*
X0041503Y0308007D01*
X0041383Y0307914D01*
X0041262Y0307825D01*
X0041138Y0307739D01*
X0041012Y0307656D01*
X0040884Y0307577D01*
X0040754Y0307501D01*
X0040622Y0307428D01*
X0040488Y0307360D01*
X0040352Y0307294D01*
X0040214Y0307232D01*
X0040075Y0307174D01*
X0039935Y0307120D01*
X0039793Y0307069D01*
X0039650Y0307022D01*
X0039505Y0306979D01*
X0039360Y0306940D01*
X0039213Y0306904D01*
X0039066Y0306873D01*
X0038918Y0306845D01*
X0038769Y0306821D01*
X0038620Y0306801D01*
X0038470Y0306785D01*
X0038320Y0306773D01*
X0038169Y0306765D01*
X0038018Y0306761D01*
X0037868Y0306761D01*
X0037717Y0306765D01*
X0037566Y0306773D01*
X0037416Y0306785D01*
X0037266Y0306801D01*
X0037117Y0306821D01*
X0036968Y0306845D01*
X0036820Y0306873D01*
X0036673Y0306904D01*
X0036526Y0306940D01*
X0036381Y0306979D01*
X0036236Y0307022D01*
X0036093Y0307069D01*
X0035951Y0307120D01*
X0035811Y0307174D01*
X0035672Y0307232D01*
X0035534Y0307294D01*
X0035398Y0307360D01*
X0035264Y0307428D01*
X0035132Y0307501D01*
X0035002Y0307577D01*
X0034874Y0307656D01*
X0034748Y0307739D01*
X0034624Y0307825D01*
X0034503Y0307914D01*
X0034383Y0308007D01*
X0034267Y0308102D01*
X0034153Y0308201D01*
X0034042Y0308302D01*
X0033933Y0308407D01*
X0033827Y0308514D01*
X0033724Y0308624D01*
X0033624Y0308737D01*
X0033527Y0308852D01*
X0033433Y0308970D01*
X0033342Y0309090D01*
X0033254Y0309213D01*
X0033170Y0309338D01*
X0033089Y0309465D01*
X0033011Y0309594D01*
X0032937Y0309725D01*
X0032867Y0309858D01*
X0032799Y0309993D01*
X0032736Y0310130D01*
X0032676Y0310268D01*
X0032620Y0310408D01*
X0032567Y0310549D01*
X0032518Y0310691D01*
X0032473Y0310835D01*
X0032432Y0310980D01*
X0032394Y0311126D01*
X0032361Y0311273D01*
X0032331Y0311421D01*
X0032305Y0311569D01*
X0032284Y0311719D01*
X0032266Y0311868D01*
X0032252Y0312018D01*
X0032242Y0312169D01*
X0032236Y0312319D01*
X0032234Y0312470D01*
X0027698Y0282156D02*
X0027700Y0282275D01*
X0027706Y0282393D01*
X0027716Y0282512D01*
X0027730Y0282629D01*
X0027747Y0282747D01*
X0027769Y0282864D01*
X0027795Y0282979D01*
X0027824Y0283094D01*
X0027857Y0283208D01*
X0027895Y0283321D01*
X0027935Y0283433D01*
X0027980Y0283543D01*
X0028028Y0283651D01*
X0028080Y0283758D01*
X0028135Y0283863D01*
X0028194Y0283966D01*
X0028256Y0284067D01*
X0028322Y0284166D01*
X0028390Y0284263D01*
X0028462Y0284357D01*
X0028538Y0284449D01*
X0028616Y0284539D01*
X0028697Y0284625D01*
X0028781Y0284709D01*
X0028867Y0284790D01*
X0028957Y0284868D01*
X0029049Y0284944D01*
X0029143Y0285016D01*
X0029240Y0285084D01*
X0029339Y0285150D01*
X0029440Y0285212D01*
X0029543Y0285271D01*
X0029648Y0285326D01*
X0029755Y0285378D01*
X0029863Y0285426D01*
X0029973Y0285471D01*
X0030085Y0285511D01*
X0030198Y0285549D01*
X0030312Y0285582D01*
X0030427Y0285611D01*
X0030542Y0285637D01*
X0030659Y0285659D01*
X0030777Y0285676D01*
X0030894Y0285690D01*
X0031013Y0285700D01*
X0031131Y0285706D01*
X0031250Y0285708D01*
X0031369Y0285706D01*
X0031487Y0285700D01*
X0031606Y0285690D01*
X0031723Y0285676D01*
X0031841Y0285659D01*
X0031958Y0285637D01*
X0032073Y0285611D01*
X0032188Y0285582D01*
X0032302Y0285549D01*
X0032415Y0285511D01*
X0032527Y0285471D01*
X0032637Y0285426D01*
X0032745Y0285378D01*
X0032852Y0285326D01*
X0032957Y0285271D01*
X0033060Y0285212D01*
X0033161Y0285150D01*
X0033260Y0285084D01*
X0033357Y0285016D01*
X0033451Y0284944D01*
X0033543Y0284868D01*
X0033633Y0284790D01*
X0033719Y0284709D01*
X0033803Y0284625D01*
X0033884Y0284539D01*
X0033962Y0284449D01*
X0034038Y0284357D01*
X0034110Y0284263D01*
X0034178Y0284166D01*
X0034244Y0284067D01*
X0034306Y0283966D01*
X0034365Y0283863D01*
X0034420Y0283758D01*
X0034472Y0283651D01*
X0034520Y0283543D01*
X0034565Y0283433D01*
X0034605Y0283321D01*
X0034643Y0283208D01*
X0034676Y0283094D01*
X0034705Y0282979D01*
X0034731Y0282864D01*
X0034753Y0282747D01*
X0034770Y0282629D01*
X0034784Y0282512D01*
X0034794Y0282393D01*
X0034800Y0282275D01*
X0034802Y0282156D01*
X0034800Y0282037D01*
X0034794Y0281919D01*
X0034784Y0281800D01*
X0034770Y0281683D01*
X0034753Y0281565D01*
X0034731Y0281448D01*
X0034705Y0281333D01*
X0034676Y0281218D01*
X0034643Y0281104D01*
X0034605Y0280991D01*
X0034565Y0280879D01*
X0034520Y0280769D01*
X0034472Y0280661D01*
X0034420Y0280554D01*
X0034365Y0280449D01*
X0034306Y0280346D01*
X0034244Y0280245D01*
X0034178Y0280146D01*
X0034110Y0280049D01*
X0034038Y0279955D01*
X0033962Y0279863D01*
X0033884Y0279773D01*
X0033803Y0279687D01*
X0033719Y0279603D01*
X0033633Y0279522D01*
X0033543Y0279444D01*
X0033451Y0279368D01*
X0033357Y0279296D01*
X0033260Y0279228D01*
X0033161Y0279162D01*
X0033060Y0279100D01*
X0032957Y0279041D01*
X0032852Y0278986D01*
X0032745Y0278934D01*
X0032637Y0278886D01*
X0032527Y0278841D01*
X0032415Y0278801D01*
X0032302Y0278763D01*
X0032188Y0278730D01*
X0032073Y0278701D01*
X0031958Y0278675D01*
X0031841Y0278653D01*
X0031723Y0278636D01*
X0031606Y0278622D01*
X0031487Y0278612D01*
X0031369Y0278606D01*
X0031250Y0278604D01*
X0031131Y0278606D01*
X0031013Y0278612D01*
X0030894Y0278622D01*
X0030777Y0278636D01*
X0030659Y0278653D01*
X0030542Y0278675D01*
X0030427Y0278701D01*
X0030312Y0278730D01*
X0030198Y0278763D01*
X0030085Y0278801D01*
X0029973Y0278841D01*
X0029863Y0278886D01*
X0029755Y0278934D01*
X0029648Y0278986D01*
X0029543Y0279041D01*
X0029440Y0279100D01*
X0029339Y0279162D01*
X0029240Y0279228D01*
X0029143Y0279296D01*
X0029049Y0279368D01*
X0028957Y0279444D01*
X0028867Y0279522D01*
X0028781Y0279603D01*
X0028697Y0279687D01*
X0028616Y0279773D01*
X0028538Y0279863D01*
X0028462Y0279955D01*
X0028390Y0280049D01*
X0028322Y0280146D01*
X0028256Y0280245D01*
X0028194Y0280346D01*
X0028135Y0280449D01*
X0028080Y0280554D01*
X0028028Y0280661D01*
X0027980Y0280769D01*
X0027935Y0280879D01*
X0027895Y0280991D01*
X0027857Y0281104D01*
X0027824Y0281218D01*
X0027795Y0281333D01*
X0027769Y0281448D01*
X0027747Y0281565D01*
X0027730Y0281683D01*
X0027716Y0281800D01*
X0027706Y0281919D01*
X0027700Y0282037D01*
X0027698Y0282156D01*
D11*
X0086954Y0070910D02*
X0088372Y0070910D01*
X0088372Y0070910D01*
X0086954Y0070910D01*
X0086954Y0070910D01*
X0086954Y0068941D02*
X0088372Y0068941D01*
X0088372Y0068941D01*
X0086954Y0068941D01*
X0086954Y0068941D01*
X0086954Y0066973D02*
X0088372Y0066973D01*
X0088372Y0066973D01*
X0086954Y0066973D01*
X0086954Y0066973D01*
X0086954Y0065004D02*
X0088372Y0065004D01*
X0088372Y0065004D01*
X0086954Y0065004D01*
X0086954Y0065004D01*
X0097977Y0065004D02*
X0099395Y0065004D01*
X0097977Y0065004D02*
X0097977Y0065004D01*
X0099395Y0065004D01*
X0099395Y0065004D01*
X0099395Y0066973D02*
X0097977Y0066973D01*
X0097977Y0066973D01*
X0099395Y0066973D01*
X0099395Y0066973D01*
X0099395Y0068941D02*
X0097977Y0068941D01*
X0097977Y0068941D01*
X0099395Y0068941D01*
X0099395Y0068941D01*
X0099395Y0070910D02*
X0097977Y0070910D01*
X0097977Y0070910D01*
X0099395Y0070910D01*
X0099395Y0070910D01*
X0347563Y0063066D02*
X0347563Y0061648D01*
X0347563Y0061648D01*
X0347563Y0063066D01*
X0347563Y0063066D01*
X0347563Y0062592D02*
X0347563Y0062592D01*
X0349532Y0063066D02*
X0349532Y0061648D01*
X0349532Y0061648D01*
X0349532Y0063066D01*
X0349532Y0063066D01*
X0349532Y0062592D02*
X0349532Y0062592D01*
X0351500Y0063066D02*
X0351500Y0061648D01*
X0351500Y0061648D01*
X0351500Y0063066D01*
X0351500Y0063066D01*
X0351500Y0062592D02*
X0351500Y0062592D01*
X0353469Y0063066D02*
X0353469Y0061648D01*
X0353469Y0061648D01*
X0353469Y0063066D01*
X0353469Y0063066D01*
X0353469Y0062592D02*
X0353469Y0062592D01*
X0353469Y0052042D02*
X0353469Y0050624D01*
X0353469Y0052042D02*
X0353469Y0052042D01*
X0353469Y0050624D01*
X0353469Y0050624D01*
X0353469Y0051568D02*
X0353469Y0051568D01*
X0351500Y0052042D02*
X0351500Y0050624D01*
X0351500Y0052042D02*
X0351500Y0052042D01*
X0351500Y0050624D01*
X0351500Y0050624D01*
X0351500Y0051568D02*
X0351500Y0051568D01*
X0349532Y0052042D02*
X0349532Y0050624D01*
X0349532Y0052042D02*
X0349532Y0052042D01*
X0349532Y0050624D01*
X0349532Y0050624D01*
X0349532Y0051568D02*
X0349532Y0051568D01*
X0347563Y0052042D02*
X0347563Y0050624D01*
X0347563Y0052042D02*
X0347563Y0052042D01*
X0347563Y0050624D01*
X0347563Y0050624D01*
X0347563Y0051568D02*
X0347563Y0051568D01*
D12*
X0345965Y0053948D02*
X0355067Y0053948D01*
X0345965Y0053948D02*
X0345965Y0059742D01*
X0355067Y0059742D01*
X0355067Y0053948D01*
X0355067Y0054451D02*
X0345965Y0054451D01*
X0345965Y0054954D02*
X0355067Y0054954D01*
X0355067Y0055457D02*
X0345965Y0055457D01*
X0345965Y0055960D02*
X0355067Y0055960D01*
X0355067Y0056463D02*
X0345965Y0056463D01*
X0345965Y0056966D02*
X0355067Y0056966D01*
X0355067Y0057469D02*
X0345965Y0057469D01*
X0345965Y0057972D02*
X0355067Y0057972D01*
X0355067Y0058475D02*
X0345965Y0058475D01*
X0345965Y0058978D02*
X0355067Y0058978D01*
X0355067Y0059481D02*
X0345965Y0059481D01*
X0096071Y0063406D02*
X0096071Y0072508D01*
X0096071Y0063406D02*
X0090277Y0063406D01*
X0090277Y0072508D01*
X0096071Y0072508D01*
X0096071Y0063909D02*
X0090277Y0063909D01*
X0090277Y0064412D02*
X0096071Y0064412D01*
X0096071Y0064915D02*
X0090277Y0064915D01*
X0090277Y0065418D02*
X0096071Y0065418D01*
X0096071Y0065921D02*
X0090277Y0065921D01*
X0090277Y0066424D02*
X0096071Y0066424D01*
X0096071Y0066927D02*
X0090277Y0066927D01*
X0090277Y0067430D02*
X0096071Y0067430D01*
X0096071Y0067933D02*
X0090277Y0067933D01*
X0090277Y0068436D02*
X0096071Y0068436D01*
X0096071Y0068939D02*
X0090277Y0068939D01*
X0090277Y0069442D02*
X0096071Y0069442D01*
X0096071Y0069945D02*
X0090277Y0069945D01*
X0090277Y0070448D02*
X0096071Y0070448D01*
X0096071Y0070951D02*
X0090277Y0070951D01*
X0090277Y0071454D02*
X0096071Y0071454D01*
X0096071Y0071957D02*
X0090277Y0071957D01*
X0090277Y0072460D02*
X0096071Y0072460D01*
D13*
X0053367Y0138113D03*
X0053367Y0163074D03*
X0052837Y0180015D03*
X0052837Y0204976D03*
D14*
X0111984Y0070852D03*
X0123007Y0070852D03*
X0345004Y0072593D03*
X0356028Y0072593D03*
X0352141Y0037387D03*
X0363165Y0037387D03*
X0356028Y0141491D03*
X0345004Y0141491D03*
D15*
X0338705Y0060389D03*
X0338705Y0053302D03*
X0205266Y0057352D03*
X0205266Y0064439D03*
X0203258Y0121959D03*
X0203258Y0129045D03*
X0203022Y0136604D03*
X0203022Y0143691D03*
X0140305Y0161289D03*
X0140305Y0168376D03*
X0198967Y0253415D03*
X0198967Y0260502D03*
X0207628Y0260502D03*
X0207628Y0253415D03*
X0269439Y0306171D03*
X0269439Y0313258D03*
X0277313Y0313258D03*
X0277313Y0306171D03*
X0333322Y0354685D03*
X0333322Y0361771D03*
X0343196Y0361771D03*
X0343196Y0354685D03*
X0353070Y0354285D03*
X0353070Y0361371D03*
X0361533Y0334395D03*
X0361533Y0327308D03*
X0365279Y0315630D03*
X0365279Y0308544D03*
X0363896Y0302930D03*
X0363896Y0295844D03*
X0115896Y0061289D03*
X0115896Y0054203D03*
X0108022Y0054203D03*
X0108022Y0061289D03*
X0107663Y0283356D03*
X0107663Y0290442D03*
X0099537Y0290442D03*
X0099537Y0283356D03*
D16*
X0343823Y0112456D03*
X0343823Y0110684D03*
X0343823Y0108912D03*
X0343823Y0107141D03*
X0343823Y0105369D03*
X0343823Y0103597D03*
X0357209Y0103597D03*
X0357209Y0105369D03*
X0357209Y0107141D03*
X0357209Y0108912D03*
X0357209Y0110684D03*
X0357209Y0112456D03*
D17*
X0350516Y0108026D03*
D18*
X0367642Y0125743D03*
X0374729Y0125743D03*
X0374807Y0133617D03*
X0367721Y0133617D03*
X0208744Y0113922D03*
X0201657Y0113922D03*
X0180935Y0084400D03*
X0173848Y0084400D03*
X0173770Y0063258D03*
X0180856Y0063258D03*
X0130266Y0053809D03*
X0123179Y0053809D03*
X0096718Y0056146D03*
X0089631Y0056146D03*
X0128220Y0185192D03*
X0135307Y0185192D03*
X0135307Y0194918D03*
X0128220Y0194918D03*
X0128220Y0221444D03*
X0135307Y0221444D03*
X0135307Y0229570D03*
X0128220Y0229570D03*
G36*
X0104664Y0246408D02*
X0106891Y0248635D01*
X0110230Y0245296D01*
X0108003Y0243069D01*
X0104664Y0246408D01*
G37*
G36*
X0109675Y0251419D02*
X0111902Y0253646D01*
X0115241Y0250307D01*
X0113014Y0248080D01*
X0109675Y0251419D01*
G37*
X0201722Y0323494D03*
X0208809Y0323494D03*
X0208809Y0331526D03*
X0201722Y0331526D03*
X0205722Y0313888D03*
X0212809Y0313888D03*
X0208022Y0356959D03*
X0200935Y0356959D03*
X0237456Y0395681D03*
X0244543Y0395681D03*
X0298422Y0335113D03*
X0305508Y0335113D03*
X0314916Y0334804D03*
X0322003Y0334804D03*
X0312160Y0301504D03*
X0305074Y0301504D03*
D19*
X0332760Y0116176D03*
X0332760Y0105152D03*
X0332800Y0095822D03*
X0332800Y0084798D03*
X0368154Y0100270D03*
X0368154Y0111294D03*
X0077426Y0073469D03*
X0077426Y0062445D03*
D20*
X0344099Y0088592D03*
X0357091Y0088592D03*
X0356973Y0126609D03*
X0343981Y0126609D03*
D21*
X0137552Y0137098D03*
X0135582Y0137098D03*
X0133612Y0137098D03*
X0131642Y0137098D03*
X0129672Y0137098D03*
X0129672Y0153198D03*
X0131642Y0153198D03*
X0133612Y0153198D03*
X0135582Y0153198D03*
X0137552Y0153198D03*
D22*
X0177392Y0076093D03*
X0179360Y0070974D03*
X0175423Y0070974D03*
X0190699Y0070935D03*
X0194636Y0070935D03*
X0192667Y0076053D03*
X0192628Y0063179D03*
X0194596Y0058061D03*
X0190659Y0058061D03*
D23*
X0189124Y0108730D03*
X0189124Y0111093D03*
X0189124Y0113455D03*
X0189124Y0115817D03*
X0189124Y0118179D03*
X0189124Y0120541D03*
X0189124Y0122904D03*
X0189124Y0125266D03*
X0189124Y0127628D03*
X0189124Y0129990D03*
X0189124Y0132352D03*
X0189124Y0134715D03*
X0189124Y0137077D03*
X0189124Y0139439D03*
X0189124Y0141801D03*
X0189124Y0144163D03*
X0189124Y0146526D03*
X0189124Y0148888D03*
X0189124Y0151250D03*
X0189124Y0153612D03*
X0189124Y0155974D03*
X0189124Y0158337D03*
X0189124Y0160699D03*
X0189124Y0163061D03*
X0189124Y0165423D03*
X0189124Y0167785D03*
X0189124Y0170148D03*
X0189124Y0172510D03*
X0189124Y0174872D03*
X0189124Y0177234D03*
X0189124Y0179596D03*
X0189124Y0181959D03*
X0189124Y0184321D03*
X0189124Y0186683D03*
X0189124Y0189045D03*
X0189124Y0191407D03*
X0189124Y0193770D03*
X0189124Y0196132D03*
X0189124Y0198494D03*
X0189124Y0200856D03*
X0189124Y0203219D03*
X0189124Y0205581D03*
X0189124Y0207943D03*
X0189124Y0210305D03*
X0189124Y0212667D03*
X0189124Y0215030D03*
X0189124Y0217392D03*
X0189124Y0219754D03*
X0189124Y0222116D03*
X0189124Y0224478D03*
X0189124Y0226841D03*
X0189124Y0229203D03*
X0189124Y0231565D03*
X0189124Y0233927D03*
X0189124Y0236289D03*
X0189124Y0238652D03*
X0189124Y0241014D03*
X0189124Y0243376D03*
X0189124Y0245738D03*
X0189124Y0248100D03*
X0189124Y0250463D03*
X0189124Y0252825D03*
X0189124Y0255187D03*
X0189124Y0257549D03*
X0189124Y0259911D03*
X0189124Y0262274D03*
X0189124Y0264636D03*
X0189124Y0266998D03*
X0189124Y0269360D03*
X0189124Y0271722D03*
X0189124Y0274085D03*
X0189124Y0276447D03*
X0189124Y0278809D03*
X0189124Y0281171D03*
X0189124Y0283533D03*
X0189124Y0285896D03*
X0189124Y0288258D03*
X0189124Y0290620D03*
X0189124Y0292982D03*
X0189124Y0295344D03*
X0189124Y0311880D03*
X0189124Y0314242D03*
X0189124Y0316604D03*
X0189124Y0318967D03*
X0189124Y0321329D03*
X0189124Y0323691D03*
X0189124Y0326053D03*
X0189124Y0328415D03*
X0189124Y0330778D03*
X0189124Y0333140D03*
X0189124Y0335502D03*
X0189124Y0337864D03*
X0189124Y0340226D03*
X0189124Y0342589D03*
X0189124Y0344951D03*
X0189124Y0347313D03*
X0189124Y0349675D03*
X0189124Y0352037D03*
X0189124Y0354400D03*
X0189124Y0356762D03*
X0156841Y0357943D03*
X0156841Y0355581D03*
X0156841Y0353219D03*
X0156841Y0350856D03*
X0156841Y0348494D03*
X0156841Y0346132D03*
X0156841Y0343770D03*
X0156841Y0341407D03*
X0156841Y0339045D03*
X0156841Y0336683D03*
X0156841Y0334321D03*
X0156841Y0331959D03*
X0156841Y0329596D03*
X0156841Y0327234D03*
X0156841Y0324872D03*
X0156841Y0322510D03*
X0156841Y0320148D03*
X0156841Y0317785D03*
X0156841Y0315423D03*
X0156841Y0313061D03*
X0156841Y0296526D03*
X0156841Y0294163D03*
X0156841Y0291801D03*
X0156841Y0289439D03*
X0156841Y0287077D03*
X0156841Y0284715D03*
X0156841Y0282352D03*
X0156841Y0279990D03*
X0156841Y0277628D03*
X0156841Y0275266D03*
X0156841Y0272904D03*
X0156841Y0270541D03*
X0156841Y0268179D03*
X0156841Y0265817D03*
X0156841Y0263455D03*
X0156841Y0261093D03*
X0156841Y0258730D03*
X0156841Y0256368D03*
X0156841Y0254006D03*
X0156841Y0251644D03*
X0156841Y0249281D03*
X0156841Y0246919D03*
X0156841Y0244557D03*
X0156841Y0242195D03*
X0156841Y0239833D03*
X0156841Y0237470D03*
X0156841Y0235108D03*
X0156841Y0232746D03*
X0156841Y0230384D03*
X0156841Y0228022D03*
X0156841Y0225659D03*
X0156841Y0223297D03*
X0156841Y0220935D03*
X0156841Y0218573D03*
X0156841Y0216211D03*
X0156841Y0213848D03*
X0156841Y0211486D03*
X0156841Y0209124D03*
X0156841Y0206762D03*
X0156841Y0204400D03*
X0156841Y0202037D03*
X0156841Y0199675D03*
X0156841Y0197313D03*
X0156841Y0194951D03*
X0156841Y0192589D03*
X0156841Y0190226D03*
X0156841Y0187864D03*
X0156841Y0185502D03*
X0156841Y0183140D03*
X0156841Y0180778D03*
X0156841Y0178415D03*
X0156841Y0176053D03*
X0156841Y0173691D03*
X0156841Y0171329D03*
X0156841Y0168967D03*
X0156841Y0166604D03*
X0156841Y0164242D03*
X0156841Y0161880D03*
X0156841Y0159518D03*
X0156841Y0157156D03*
X0156841Y0154793D03*
X0156841Y0152431D03*
X0156841Y0150069D03*
X0156841Y0147707D03*
X0156841Y0145344D03*
X0156841Y0142982D03*
X0156841Y0140620D03*
X0156841Y0138258D03*
X0156841Y0135896D03*
X0156841Y0133533D03*
X0156841Y0131171D03*
X0156841Y0128809D03*
X0156841Y0126447D03*
X0156841Y0124085D03*
X0156841Y0121722D03*
X0156841Y0119360D03*
X0156841Y0116998D03*
X0156841Y0114636D03*
X0156841Y0112274D03*
X0156841Y0109911D03*
D24*
X0303020Y0311140D03*
X0311681Y0311140D03*
X0311681Y0325707D03*
X0303020Y0325707D03*
D25*
X0162359Y0050567D03*
X0159209Y0050567D03*
X0156059Y0050567D03*
X0152910Y0050567D03*
X0149760Y0050567D03*
D26*
X0138540Y0050448D03*
X0138540Y0029110D03*
X0173579Y0029110D03*
X0173579Y0050448D03*
D27*
X0324053Y0294451D03*
X0324053Y0297010D03*
X0324053Y0299569D03*
X0324053Y0302128D03*
X0324053Y0304687D03*
X0324053Y0307246D03*
X0324053Y0309805D03*
X0324053Y0312364D03*
X0324053Y0314923D03*
X0324053Y0317482D03*
X0324053Y0320041D03*
X0324053Y0322600D03*
X0324053Y0325159D03*
X0324053Y0327719D03*
X0352400Y0327719D03*
X0352400Y0325159D03*
X0352400Y0322600D03*
X0352400Y0320041D03*
X0352400Y0317482D03*
X0352400Y0314923D03*
X0352400Y0312364D03*
X0352400Y0309805D03*
X0352400Y0307246D03*
X0352400Y0304687D03*
X0352400Y0302128D03*
X0352400Y0299569D03*
X0352400Y0297010D03*
X0352400Y0294451D03*
D28*
X0135504Y0214255D03*
X0128023Y0214255D03*
X0128023Y0203625D03*
X0131763Y0203625D03*
X0135504Y0203625D03*
D29*
X0105872Y0298596D03*
X0105872Y0316549D03*
D30*
X0078715Y0307573D03*
M02*
