%
M48
M72
T01C0.01181
T02C0.01378
T03C0.02362
T04C0.04000
T05C0.04331
T06C0.06299
T07C0.07103
T08C0.09055
T09C0.11417
T10C0.12520
%
T01
X90419Y61855
X91600Y64217
X93174Y66185
X94946Y64217
X96127Y61461
X93174Y61658
X91206Y67957
X93174Y69729
X94946Y71697
X93371Y74059
X90812Y75044
X91206Y71697
X95143Y67957
X96245Y75044
X93450Y77485
X344414Y59601
X346776Y58420
X348744Y56845
X346776Y55074
X344020Y53893
X344217Y56845
X350516Y54877
X352288Y56845
X354256Y55074
X356619Y56648
X357603Y59207
X354256Y58814
X350516Y58814
X357603Y53774
X360044Y56570
X352367Y104562
X350437Y106294
X352445Y107908
X350556Y109601
X348587Y108105
X348666Y111491
X352367Y111530
X348548Y104522
T02
X171014Y250659
X201458Y301626
X221458Y312026
X218258Y337274
X219858Y384026
X228658Y384026
X223858Y393626
X211058Y384026
X202258Y384026
X196658Y384026
X143455Y337274
X131644Y57746
T03
X33219Y30187
X56841Y22313
X72589Y22313
X88337Y22313
X104085Y22313
X100064Y54571
X100064Y58705
X104085Y67589
X104085Y71526
X108022Y71526
X108022Y67589
X96560Y78626
X90537Y78744
X79001Y77524
X75182Y77681
X75655Y58508
X79592Y58508
X122367Y65507
X126304Y65507
X126304Y68459
X126304Y72396
X128472Y92494
X125472Y95494
X122572Y98794
X122772Y103494
X122472Y107594
X125972Y109894
X124806Y112926
X128772Y113394
X133172Y113494
X137872Y113194
X140372Y109494
X143872Y106894
X143172Y102694
X143672Y98294
X139972Y95994
X137172Y92494
X132772Y92694
X109058Y113910
X97058Y113910
X87026Y113910
X88011Y131626
X97058Y131626
X109058Y131626
X121058Y131626
X125858Y131626
X135058Y131626
X139006Y133691
X145058Y131626
X155559Y120322
X163376Y124006
X164360Y132077
X163376Y145266
X163455Y152431
X163297Y159596
X163376Y166526
X163455Y173691
X163297Y180856
X163376Y187785
X163455Y194951
X163297Y202116
X163376Y209045
X163455Y216211
X163297Y223376
X163455Y230384
X163297Y237549
X162392Y244478
X162470Y251644
X162313Y258809
X163376Y265738
X163455Y272904
X164754Y277549
X171250Y279557
X167234Y284715
X164557Y289124
X163297Y294242
X182392Y292864
X181407Y286762
X182392Y277707
X182392Y271604
X182392Y264518
X182392Y257431
X178455Y246407
X182392Y243258
X182392Y236171
X182392Y229085
X182392Y221998
X182392Y214911
X182392Y207825
X182392Y200738
X182392Y186565
X182392Y179478
X182392Y172392
X182392Y165305
X182313Y151171
X182431Y146565
X181644Y131998
X182628Y122943
X182258Y114426
X199958Y110326
X199854Y107252
X211876Y115304
X206644Y129478
X207058Y136026
X210995Y135633
X206683Y144085
X227858Y135226
X231058Y135226
X268543Y114988
X268143Y110988
X268943Y106988
X271943Y104588
X275643Y104188
X279243Y104588
X281943Y107188
X282643Y111188
X282443Y115088
X279643Y117888
X275543Y118588
X271343Y117988
X292472Y107420
X292772Y103320
X292572Y98620
X295472Y95320
X298472Y92320
X302772Y92520
X307172Y92320
X309972Y95820
X313672Y98120
X313172Y102520
X313872Y106720
X310372Y109320
X307872Y113020
X303172Y113320
X298772Y113220
X295972Y109720
X330752Y100415
X334689Y100415
X343744Y101636
X358390Y114332
X366343Y114837
X370280Y114837
X367648Y121806
X375122Y121806
X377609Y133401
X355058Y151226
X351121Y151226
X341067Y143263
X341067Y139326
X334768Y119837
X330831Y119837
X366264Y96215
X370201Y96215
X360241Y74837
X360083Y71019
X361304Y59483
X361185Y53459
X352116Y45935
X348179Y45935
X348179Y41998
X344242Y41998
X352116Y41998
X341264Y49956
X337130Y49956
X341067Y70428
X341067Y74365
X367299Y41127
X371236Y41127
X371236Y37190
X371236Y33253
X367299Y33253
X367299Y37190
X371801Y22313
X356053Y22313
X340305Y22313
X324557Y22313
X308809Y22313
X293061Y22313
X277313Y22313
X261565Y22313
X245817Y22313
X230069Y22313
X214321Y22313
X198573Y22313
X182825Y22313
X167077Y22313
X173458Y35226
X173458Y44026
X180699Y56053
X198415Y58480
X192274Y79019
X166289Y85305
X160658Y58426
X138258Y44026
X138258Y35226
X135581Y22313
X151329Y22313
X223858Y78083
X223858Y81626
X233458Y80826
X236607Y82795
X245817Y76072
X249754Y76072
X249754Y72135
X253691Y72135
X253691Y68198
X249754Y68198
X245817Y68198
X245817Y72135
X163389Y114557
X145058Y153226
X140659Y156722
X133219Y158533
X127661Y153376
X121058Y155626
X136407Y168573
X139058Y185626
X138658Y195026
X123738Y185715
X113458Y229626
X105458Y243226
X122258Y256826
X122258Y264826
X127858Y270426
X122258Y278426
X114258Y270426
X109458Y278426
X103058Y271226
X108658Y264826
X99858Y280026
X101458Y312026
X105458Y312026
X109458Y312026
X109458Y320826
X105458Y320826
X101458Y320826
X86258Y340826
X83058Y340826
X56841Y349085
X56841Y364833
X56841Y380581
X60778Y404203
X76526Y408140
X92274Y408140
X108022Y408140
X87058Y393626
X83058Y393626
X122758Y367326
X123058Y363226
X122858Y358526
X125758Y355226
X128758Y352226
X133058Y352426
X137458Y352226
X140258Y355726
X143958Y358026
X143458Y362426
X144158Y366626
X140658Y369226
X138158Y372926
X133458Y373226
X129058Y373126
X126258Y369626
X163848Y358022
X163730Y350817
X163848Y343848
X163730Y336644
X164658Y331226
X169458Y322426
X164658Y314426
X181407Y316093
X182392Y321211
X182392Y328297
X176910Y335502
X182392Y342470
X182510Y349675
X193061Y361683
X201458Y351315
X208376Y360856
X212156Y329362
X212589Y323179
X216431Y313415
X202731Y313153
X202727Y316486
X207058Y295226
X210995Y295226
X196998Y286855
X196998Y274281
X198848Y263809
X207707Y263337
X254869Y235226
X254869Y229626
X265269Y224026
X269269Y224026
X258869Y218426
X254869Y218426
X255754Y200833
X254374Y197576
X255744Y194367
X252116Y194360
X250437Y197576
X252170Y200593
X248469Y200826
X248469Y194426
X147858Y236026
X139858Y229626
X147858Y260826
X57111Y211444
X53428Y211346
X49363Y211444
X29281Y215226
X29281Y230974
X29281Y246722
X29281Y262470
X52904Y317589
X56841Y329400
X139518Y408140
X155266Y408140
X171014Y408140
X186762Y408140
X215856Y394426
X247858Y396026
X249754Y408140
X265502Y408140
X281250Y408140
X296998Y408140
X328494Y408140
X344242Y408140
X359990Y408140
X375738Y404203
X379675Y388455
X379675Y372707
X379675Y356959
X379675Y341211
X370901Y329226
X367358Y329226
X361458Y336026
X359458Y320526
X365864Y318477
X379675Y325463
X379675Y309715
X407234Y297904
X407234Y266407
X407234Y250659
X407234Y234911
X407234Y219163
X407234Y203415
X407234Y187667
X407234Y171919
X411171Y132549
X411171Y101053
X411171Y85305
X411171Y69557
X403297Y30187
X301458Y300826
X331058Y304826
X331058Y317626
X338258Y325233
X332825Y330974
X325458Y335226
X315058Y338426
X307272Y352420
X302872Y352620
X298572Y352420
X295572Y355420
X292672Y358720
X292872Y363420
X292572Y367520
X296072Y369820
X298872Y373320
X303272Y373420
X307972Y373120
X310472Y369420
X313972Y366820
X313272Y362620
X313772Y358220
X310072Y355920
X295058Y335226
X281735Y349820
X279035Y347220
X275435Y346820
X271735Y347220
X268735Y349620
X267935Y353620
X268335Y357620
X271135Y360620
X275335Y361220
X279435Y360520
X282235Y357720
X282435Y353820
X240658Y349626
X342258Y335226
X343058Y365626
X57028Y131932
X53428Y131932
X49881Y131971
X25344Y128612
X25344Y108927
X25344Y93179
X25344Y77431
X25344Y61683
X29281Y167982
X29281Y183730
X29281Y199478
T04
X75463Y200974
X75463Y190974
X75463Y180974
X85463Y180974
X85463Y190974
X85463Y200974
X85463Y210974
X85463Y220974
X85463Y230974
X75463Y230974
X75463Y220974
X75463Y210974
X75463Y240974
X85463Y240974
X85463Y250974
X85463Y260974
X75463Y260974
X75463Y250974
X75463Y270974
X85463Y270974
X85463Y280974
X75463Y280974
X76526Y156671
X86526Y155671
X96526Y156671
X106526Y155671
X194636Y46435
X204636Y45435
X214636Y46435
T05
X172982Y101841
T06
X172982Y364833
T07
X31250Y282156
X31250Y148297
X405266Y148297
X405266Y282156
T08
X275344Y354006
X275344Y111486
T09
X300935Y167982
X340305Y167982
X375738Y167982
X398573Y117982
X315502Y34911
X121014Y34911
X37943Y117982
X37943Y312470
X121014Y395541
X300935Y266407
X340305Y266407
X375738Y266407
X398573Y312470
X315502Y395541
T10
X303297Y362864
X133219Y362864
X133219Y103022
X303297Y103022
M30
