%
M48
M72
T01C0.01181
T02C0.01378
T03C0.08661
%
T01
X107362Y690766
X107362Y693128
X109724Y693128
X109724Y690766
T02
X217184Y237412
X217184Y235011
X202835Y24033
X202835Y21278
X199961Y21278
X199882Y24033
T03
X12874Y263600
X44370Y263600
X83740Y241159
X123110Y241159
X201850Y241159
X241220Y241159
X280591Y263600
X312087Y263600
X312087Y731907
X312087Y1049427
X312087Y1082892
X280591Y1082892
X44370Y1082892
X12874Y1082892
X12874Y1049427
X12874Y731907
M30
