G75*
%MOIN*%
%OFA0B0*%
%FSLAX25Y25*%
%IPPOS*%
%LPD*%
%AMOC8*
5,1,8,0,0,1.08239X$1,22.5*
%
%ADD10R,0.05000X0.08110*%
%ADD11R,0.05906X0.05118*%
%ADD12R,0.05000X0.05787*%
%ADD13R,0.07480X0.13386*%
%ADD14R,0.05118X0.05906*%
%ADD15R,0.01654X0.03500*%
%ADD16R,0.04331X0.02362*%
%ADD17R,0.03937X0.01772*%
%ADD18R,0.03543X0.03150*%
%ADD19R,0.08110X0.05000*%
%ADD20C,0.00000*%
%ADD21R,0.00984X0.06102*%
%ADD22R,0.06102X0.00984*%
%ADD23R,0.01575X0.06890*%
%ADD24R,0.07087X0.03937*%
%ADD25R,0.03150X0.04724*%
%ADD26R,0.04724X0.03150*%
%ADD27R,0.06299X0.04921*%
%ADD28R,0.03937X0.00984*%
%ADD29R,0.00984X0.03937*%
%ADD30R,0.07098X0.06299*%
D10*
X0063119Y0247037D03*
X0076938Y0247037D03*
D11*
X0084477Y0240304D03*
X0084477Y0232824D03*
X0084477Y0258021D03*
X0084477Y0265501D03*
X0109831Y0267155D03*
X0109831Y0259675D03*
X0110934Y0250304D03*
X0110934Y0242824D03*
X0119005Y0252745D03*
X0119005Y0260226D03*
X0151406Y0258021D03*
X0151406Y0265501D03*
X0176761Y0267155D03*
X0185934Y0261407D03*
X0185934Y0253927D03*
X0177863Y0250304D03*
X0177863Y0242824D03*
X0176761Y0259675D03*
X0218335Y0258021D03*
X0218335Y0265501D03*
X0243690Y0267155D03*
X0251682Y0267509D03*
X0251682Y0260029D03*
X0243690Y0259675D03*
X0244792Y0250304D03*
X0244792Y0242824D03*
X0210461Y0218257D03*
X0210461Y0210777D03*
X0191170Y0193454D03*
X0191170Y0185974D03*
X0181918Y0185777D03*
X0181918Y0193257D03*
X0173257Y0193257D03*
X0173257Y0185777D03*
X0143139Y0210383D03*
X0143139Y0217864D03*
X0125422Y0192864D03*
X0125422Y0185383D03*
X0116170Y0185777D03*
X0116170Y0193257D03*
X0106131Y0192667D03*
X0106131Y0185186D03*
X0239989Y0184596D03*
X0239989Y0192076D03*
X0248847Y0192076D03*
X0248847Y0184596D03*
X0258099Y0184793D03*
X0258099Y0192273D03*
D12*
X0236682Y0212549D03*
X0219753Y0212549D03*
X0169753Y0212549D03*
X0152824Y0212549D03*
X0102824Y0212549D03*
X0085894Y0212549D03*
X0073060Y0272745D03*
X0056131Y0272745D03*
X0123454Y0272745D03*
X0140383Y0272745D03*
X0190383Y0272745D03*
X0207312Y0272745D03*
D13*
X0216524Y0284635D03*
X0231879Y0284635D03*
X0161013Y0284635D03*
X0145658Y0284635D03*
X0094083Y0284635D03*
X0078729Y0284635D03*
D14*
X0104044Y0280226D03*
X0111524Y0280226D03*
X0109871Y0232627D03*
X0102391Y0232627D03*
X0097666Y0223178D03*
X0090186Y0223178D03*
X0076406Y0210580D03*
X0068926Y0210580D03*
X0069517Y0195619D03*
X0076997Y0195619D03*
X0076997Y0186761D03*
X0069517Y0186761D03*
X0100225Y0201722D03*
X0107706Y0201722D03*
X0115776Y0201919D03*
X0123257Y0201919D03*
X0136446Y0195619D03*
X0143926Y0195619D03*
X0143926Y0186761D03*
X0136446Y0186761D03*
X0166367Y0201722D03*
X0173847Y0201722D03*
X0183099Y0201722D03*
X0190580Y0201722D03*
X0203375Y0195619D03*
X0210855Y0195619D03*
X0210855Y0186761D03*
X0203375Y0186761D03*
X0234871Y0200934D03*
X0242351Y0200934D03*
X0251013Y0201328D03*
X0258493Y0201328D03*
X0255540Y0223572D03*
X0248060Y0223572D03*
X0248060Y0232627D03*
X0240580Y0232627D03*
X0238217Y0223572D03*
X0230737Y0223572D03*
X0221682Y0227115D03*
X0214202Y0227115D03*
X0184674Y0223572D03*
X0177194Y0223572D03*
X0176800Y0232627D03*
X0169320Y0232627D03*
X0167351Y0223572D03*
X0159871Y0223572D03*
X0150816Y0226328D03*
X0143335Y0226328D03*
X0114989Y0223178D03*
X0107509Y0223178D03*
X0170973Y0280226D03*
X0178454Y0280226D03*
X0241839Y0280226D03*
X0249320Y0280226D03*
X0272057Y0100312D03*
X0279537Y0100312D03*
X0220428Y0025835D03*
X0212947Y0025835D03*
D15*
X0224457Y0239281D03*
X0227017Y0239281D03*
X0229576Y0239281D03*
X0232135Y0239281D03*
X0234694Y0239281D03*
X0237253Y0239281D03*
X0237253Y0255816D03*
X0234694Y0255816D03*
X0232135Y0255816D03*
X0229576Y0255816D03*
X0227017Y0255816D03*
X0224457Y0255816D03*
X0170324Y0255816D03*
X0167765Y0255816D03*
X0165206Y0255816D03*
X0162646Y0255816D03*
X0160087Y0255816D03*
X0157528Y0255816D03*
X0157528Y0239281D03*
X0160087Y0239281D03*
X0162646Y0239281D03*
X0165206Y0239281D03*
X0167765Y0239281D03*
X0170324Y0239281D03*
X0103394Y0239281D03*
X0100835Y0239281D03*
X0098276Y0239281D03*
X0095717Y0239281D03*
X0093158Y0239281D03*
X0090599Y0239281D03*
X0090599Y0255816D03*
X0093158Y0255816D03*
X0095717Y0255816D03*
X0098276Y0255816D03*
X0100835Y0255816D03*
X0103394Y0255816D03*
D16*
X0099950Y0249123D03*
X0099950Y0245974D03*
X0094044Y0245974D03*
X0094044Y0249123D03*
X0160973Y0249123D03*
X0160973Y0245974D03*
X0166879Y0245974D03*
X0166879Y0249123D03*
X0227902Y0249123D03*
X0227902Y0245974D03*
X0233808Y0245974D03*
X0233808Y0249123D03*
D17*
X0232115Y0193159D03*
X0232115Y0190600D03*
X0232115Y0188041D03*
X0232115Y0185482D03*
X0221879Y0185482D03*
X0221879Y0188041D03*
X0221879Y0190600D03*
X0221879Y0193159D03*
X0165186Y0193159D03*
X0165186Y0190600D03*
X0165186Y0188041D03*
X0165186Y0185482D03*
X0154950Y0185482D03*
X0154950Y0188041D03*
X0154950Y0190600D03*
X0154950Y0193159D03*
X0098257Y0193159D03*
X0098257Y0190600D03*
X0098257Y0188041D03*
X0098257Y0185482D03*
X0088020Y0185482D03*
X0088020Y0188041D03*
X0088020Y0190600D03*
X0088020Y0193159D03*
D18*
X0100225Y0265895D03*
X0100225Y0273375D03*
X0091957Y0269635D03*
X0158887Y0269635D03*
X0167154Y0265895D03*
X0167154Y0273375D03*
X0225816Y0269635D03*
X0234083Y0265895D03*
X0234083Y0273375D03*
D19*
X0215816Y0249655D03*
X0215816Y0235836D03*
X0148493Y0236230D03*
X0148493Y0250049D03*
D20*
X0021485Y0009793D02*
X0336446Y0009793D01*
X0356131Y0029478D01*
X0356131Y0344438D01*
X0336446Y0364123D01*
X0021485Y0364123D01*
X0001800Y0344438D01*
X0001800Y0029478D01*
X0021485Y0009793D01*
D21*
X0124831Y0050738D03*
X0126800Y0050738D03*
X0128769Y0050738D03*
X0130737Y0050738D03*
X0132706Y0050738D03*
X0134674Y0050738D03*
X0136643Y0050738D03*
X0138611Y0050738D03*
X0140580Y0050738D03*
X0142548Y0050738D03*
X0144517Y0050738D03*
X0146485Y0050738D03*
X0148454Y0050738D03*
X0150422Y0050738D03*
X0152391Y0050738D03*
X0154359Y0050738D03*
X0154359Y0094832D03*
X0152391Y0094832D03*
X0150422Y0094832D03*
X0148454Y0094832D03*
X0146485Y0094832D03*
X0144517Y0094832D03*
X0142548Y0094832D03*
X0140580Y0094832D03*
X0138611Y0094832D03*
X0136643Y0094832D03*
X0134674Y0094832D03*
X0132706Y0094832D03*
X0130737Y0094832D03*
X0128769Y0094832D03*
X0126800Y0094832D03*
X0124831Y0094832D03*
D22*
X0117548Y0087549D03*
X0117548Y0085580D03*
X0117548Y0083612D03*
X0117548Y0081643D03*
X0117548Y0079675D03*
X0117548Y0077706D03*
X0117548Y0075738D03*
X0117548Y0073769D03*
X0117548Y0071801D03*
X0117548Y0069832D03*
X0117548Y0067864D03*
X0117548Y0065895D03*
X0117548Y0063927D03*
X0117548Y0061958D03*
X0117548Y0059989D03*
X0117548Y0058021D03*
X0161643Y0058021D03*
X0161643Y0059989D03*
X0161643Y0061958D03*
X0161643Y0063927D03*
X0161643Y0065895D03*
X0161643Y0067864D03*
X0161643Y0069832D03*
X0161643Y0071801D03*
X0161643Y0073769D03*
X0161643Y0075738D03*
X0161643Y0077706D03*
X0161643Y0079675D03*
X0161643Y0081643D03*
X0161643Y0083612D03*
X0161643Y0085580D03*
X0161643Y0087549D03*
D23*
X0200461Y0079084D03*
X0203020Y0079084D03*
X0205580Y0079084D03*
X0208139Y0079084D03*
X0210698Y0079084D03*
X0213257Y0079084D03*
X0215816Y0079084D03*
X0218375Y0079084D03*
X0220934Y0079084D03*
X0223493Y0079084D03*
X0226052Y0079084D03*
X0228611Y0079084D03*
X0231170Y0079084D03*
X0233729Y0079084D03*
X0233729Y0050738D03*
X0231170Y0050738D03*
X0228611Y0050738D03*
X0226052Y0050738D03*
X0223493Y0050738D03*
X0220934Y0050738D03*
X0218375Y0050738D03*
X0215816Y0050738D03*
X0213257Y0050738D03*
X0210698Y0050738D03*
X0208139Y0050738D03*
X0205580Y0050738D03*
X0203020Y0050738D03*
X0200461Y0050738D03*
D24*
X0179595Y0077864D03*
X0179595Y0087706D03*
D25*
X0170619Y0096407D03*
X0163532Y0096407D03*
X0163532Y0106249D03*
X0170619Y0106249D03*
X0115658Y0106249D03*
X0108572Y0106249D03*
X0108572Y0096407D03*
X0115658Y0096407D03*
X0163532Y0049163D03*
X0170619Y0049163D03*
X0170619Y0039320D03*
X0163532Y0039320D03*
X0199615Y0037844D03*
X0206702Y0037844D03*
X0214221Y0037844D03*
X0221308Y0037844D03*
X0238828Y0086072D03*
X0245914Y0086072D03*
D26*
X0237036Y0099340D03*
X0237036Y0106427D03*
X0201603Y0102824D03*
X0201603Y0095738D03*
X0190776Y0093966D03*
X0190776Y0086879D03*
X0180934Y0095738D03*
X0180934Y0102824D03*
X0236052Y0041958D03*
X0236052Y0034871D03*
D27*
X0226524Y0096919D03*
X0226524Y0105580D03*
X0211957Y0105580D03*
X0211957Y0096919D03*
D28*
X0236052Y0042667D03*
D29*
X0213906Y0037844D03*
X0238513Y0086072D03*
X0162840Y0106180D03*
X0116121Y0106380D03*
X0162762Y0039315D03*
D30*
X0134871Y0212856D03*
X0134871Y0224052D03*
X0075422Y0223486D03*
X0075422Y0234682D03*
X0201800Y0224446D03*
X0201800Y0213249D03*
M02*
