G75*
%MOIN*%
%OFA0B0*%
%FSLAX25Y25*%
%IPPOS*%
%LPD*%
%AMOC8*
5,1,8,0,0,1.08239X$1,22.5*
%
%ADD10C,0.07050*%
%ADD11C,0.05750*%
%ADD12C,0.00000*%
%ADD13C,0.15417*%
%ADD14C,0.04400*%
%ADD15C,0.06000*%
%ADD16C,0.01600*%
%ADD17C,0.02781*%
D10*
X0102194Y0152588D03*
X0121879Y0152588D03*
X0169123Y0152588D03*
X0188808Y0152588D03*
X0239989Y0152588D03*
X0259674Y0152588D03*
D11*
X0263965Y0312470D03*
X0253965Y0312470D03*
X0243965Y0312470D03*
X0233965Y0312470D03*
X0223965Y0312470D03*
X0213965Y0312470D03*
X0203965Y0312470D03*
X0193965Y0312470D03*
X0183965Y0312470D03*
X0173965Y0312470D03*
X0163965Y0312470D03*
X0153965Y0312470D03*
X0143965Y0312470D03*
X0133965Y0312470D03*
X0123965Y0312470D03*
X0113965Y0312470D03*
X0103965Y0312470D03*
X0093965Y0312470D03*
X0083965Y0312470D03*
X0073965Y0312470D03*
X0063965Y0312470D03*
X0053965Y0312470D03*
X0053965Y0322470D03*
X0053965Y0332470D03*
X0063965Y0332470D03*
X0063965Y0322470D03*
X0073965Y0322470D03*
X0073965Y0332470D03*
X0073965Y0342470D03*
X0063965Y0342470D03*
X0053965Y0342470D03*
X0083965Y0342470D03*
X0083965Y0332470D03*
X0083965Y0322470D03*
X0093965Y0322470D03*
X0093965Y0332470D03*
X0093965Y0342470D03*
X0103965Y0342470D03*
X0113965Y0342470D03*
X0113965Y0332470D03*
X0103965Y0332470D03*
X0103965Y0322470D03*
X0113965Y0322470D03*
X0123965Y0322470D03*
X0123965Y0332470D03*
X0123965Y0342470D03*
X0133965Y0342470D03*
X0133965Y0332470D03*
X0133965Y0322470D03*
X0143965Y0322470D03*
X0143965Y0332470D03*
X0143965Y0342470D03*
X0153965Y0342470D03*
X0163965Y0342470D03*
X0163965Y0332470D03*
X0153965Y0332470D03*
X0153965Y0322470D03*
X0163965Y0322470D03*
X0173965Y0322470D03*
X0173965Y0332470D03*
X0173965Y0342470D03*
X0183965Y0342470D03*
X0183965Y0332470D03*
X0183965Y0322470D03*
X0193965Y0322470D03*
X0193965Y0332470D03*
X0203965Y0332470D03*
X0203965Y0322470D03*
X0213965Y0322470D03*
X0213965Y0332470D03*
X0213965Y0342470D03*
X0203965Y0342470D03*
X0193965Y0342470D03*
X0223965Y0342470D03*
X0223965Y0332470D03*
X0223965Y0322470D03*
X0233965Y0322470D03*
X0233965Y0332470D03*
X0233965Y0342470D03*
X0243965Y0342470D03*
X0253965Y0342470D03*
X0253965Y0332470D03*
X0243965Y0332470D03*
X0243965Y0322470D03*
X0253965Y0322470D03*
X0263965Y0322470D03*
X0263965Y0332470D03*
X0263965Y0342470D03*
X0273965Y0342470D03*
X0273965Y0332470D03*
X0273965Y0322470D03*
X0273965Y0312470D03*
X0283965Y0312470D03*
X0283965Y0322470D03*
X0283965Y0332470D03*
X0283965Y0342470D03*
X0293965Y0342470D03*
X0303965Y0342470D03*
X0303965Y0332470D03*
X0293965Y0332470D03*
X0293965Y0322470D03*
X0303965Y0322470D03*
X0303965Y0312470D03*
X0293965Y0312470D03*
D12*
X0336446Y0364123D02*
X0356131Y0344438D01*
X0356131Y0029478D01*
X0336446Y0009793D01*
X0021485Y0009793D01*
X0001800Y0029478D01*
X0001800Y0344438D01*
X0021485Y0364123D01*
X0336446Y0364123D01*
D13*
X0334477Y0342470D03*
X0334477Y0031446D03*
X0023454Y0031446D03*
X0023454Y0342470D03*
D14*
X0180934Y0106249D03*
X0171091Y0101328D03*
X0169123Y0088533D03*
X0169123Y0076722D03*
X0184610Y0059055D03*
X0188231Y0065303D03*
X0192145Y0072785D03*
X0208493Y0087549D03*
X0221288Y0070816D03*
X0237036Y0095915D03*
X0249339Y0086072D03*
X0227194Y0042273D03*
X0224733Y0037844D03*
X0236052Y0031446D03*
X0179595Y0044035D03*
X0179595Y0051535D03*
X0171091Y0044241D03*
X0156328Y0043257D03*
X0190776Y0097391D03*
X0201603Y0106249D03*
X0123847Y0102312D03*
X0108099Y0101328D03*
D15*
X0116288Y0018167D03*
X0106288Y0017167D03*
X0096288Y0018167D03*
X0126288Y0017167D03*
X0136288Y0018167D03*
X0146288Y0017167D03*
X0156288Y0018167D03*
X0166288Y0017167D03*
X0016830Y0099527D03*
X0015830Y0109527D03*
X0016830Y0119527D03*
X0015830Y0129527D03*
X0016830Y0139527D03*
X0015830Y0149527D03*
X0016830Y0159527D03*
D16*
X0018952Y0019114D02*
X0091702Y0019114D01*
X0091688Y0019082D02*
X0091688Y0017252D01*
X0092388Y0015561D01*
X0093357Y0014593D01*
X0023473Y0014593D01*
X0006600Y0031466D01*
X0006600Y0342450D01*
X0023473Y0359323D01*
X0334457Y0359323D01*
X0351331Y0342450D01*
X0351331Y0031466D01*
X0334457Y0014593D01*
X0170201Y0014593D01*
X0170888Y0016252D01*
X0170888Y0018082D01*
X0170188Y0019772D01*
X0168894Y0021066D01*
X0167203Y0021767D01*
X0165373Y0021767D01*
X0163682Y0021066D01*
X0162388Y0019772D01*
X0161688Y0018082D01*
X0161688Y0016252D01*
X0162375Y0014593D01*
X0159220Y0014593D01*
X0160188Y0015561D01*
X0160888Y0017252D01*
X0160888Y0019082D01*
X0160188Y0020772D01*
X0158894Y0022066D01*
X0157203Y0022767D01*
X0155373Y0022767D01*
X0153682Y0022066D01*
X0152388Y0020772D01*
X0151688Y0019082D01*
X0151688Y0017252D01*
X0152388Y0015561D01*
X0153357Y0014593D01*
X0150351Y0014593D01*
X0150394Y0014651D01*
X0150737Y0015324D01*
X0150970Y0016043D01*
X0151088Y0016789D01*
X0151088Y0016967D01*
X0146488Y0016967D01*
X0146488Y0017367D01*
X0146088Y0017367D01*
X0146088Y0021967D01*
X0145910Y0021967D01*
X0145164Y0021848D01*
X0144446Y0021615D01*
X0143772Y0021272D01*
X0143161Y0020828D01*
X0142627Y0020294D01*
X0142183Y0019682D01*
X0141840Y0019009D01*
X0141606Y0018291D01*
X0141488Y0017544D01*
X0141488Y0017367D01*
X0146088Y0017367D01*
X0146088Y0016967D01*
X0141488Y0016967D01*
X0141488Y0016789D01*
X0141606Y0016043D01*
X0141840Y0015324D01*
X0142183Y0014651D01*
X0142225Y0014593D01*
X0139502Y0014593D01*
X0139949Y0015040D01*
X0140394Y0015651D01*
X0140737Y0016324D01*
X0140970Y0017043D01*
X0141088Y0017789D01*
X0141088Y0017967D01*
X0136488Y0017967D01*
X0136488Y0018367D01*
X0136088Y0018367D01*
X0136088Y0022967D01*
X0135910Y0022967D01*
X0135164Y0022848D01*
X0134446Y0022615D01*
X0133772Y0022272D01*
X0133161Y0021828D01*
X0132627Y0021294D01*
X0132183Y0020682D01*
X0131840Y0020009D01*
X0131606Y0019291D01*
X0131488Y0018544D01*
X0131488Y0018367D01*
X0136088Y0018367D01*
X0136088Y0017967D01*
X0131488Y0017967D01*
X0131488Y0017789D01*
X0131606Y0017043D01*
X0131840Y0016324D01*
X0132183Y0015651D01*
X0132627Y0015040D01*
X0133074Y0014593D01*
X0130201Y0014593D01*
X0130888Y0016252D01*
X0130888Y0018082D01*
X0130188Y0019772D01*
X0128894Y0021066D01*
X0127203Y0021767D01*
X0125373Y0021767D01*
X0123682Y0021066D01*
X0122388Y0019772D01*
X0121688Y0018082D01*
X0121688Y0016252D01*
X0122375Y0014593D01*
X0119220Y0014593D01*
X0120188Y0015561D01*
X0120888Y0017252D01*
X0120888Y0019082D01*
X0120188Y0020772D01*
X0118894Y0022066D01*
X0117203Y0022767D01*
X0115373Y0022767D01*
X0113682Y0022066D01*
X0112388Y0020772D01*
X0111688Y0019082D01*
X0111688Y0017252D01*
X0112388Y0015561D01*
X0113357Y0014593D01*
X0110201Y0014593D01*
X0110888Y0016252D01*
X0110888Y0018082D01*
X0110188Y0019772D01*
X0108894Y0021066D01*
X0107203Y0021767D01*
X0105373Y0021767D01*
X0103682Y0021066D01*
X0102388Y0019772D01*
X0101688Y0018082D01*
X0101688Y0016252D01*
X0102375Y0014593D01*
X0099220Y0014593D01*
X0100188Y0015561D01*
X0100888Y0017252D01*
X0100888Y0019082D01*
X0100188Y0020772D01*
X0098894Y0022066D01*
X0097203Y0022767D01*
X0095373Y0022767D01*
X0093682Y0022066D01*
X0092388Y0020772D01*
X0091688Y0019082D01*
X0091688Y0017516D02*
X0020550Y0017516D01*
X0022149Y0015917D02*
X0092241Y0015917D01*
X0092364Y0020713D02*
X0017353Y0020713D01*
X0015755Y0022311D02*
X0021182Y0022311D01*
X0021602Y0022138D02*
X0018181Y0023555D01*
X0015562Y0026173D01*
X0014145Y0029595D01*
X0014145Y0033298D01*
X0015562Y0036719D01*
X0018181Y0039338D01*
X0021602Y0040755D01*
X0025305Y0040755D01*
X0028726Y0039338D01*
X0031345Y0036719D01*
X0032762Y0033298D01*
X0032762Y0029595D01*
X0031345Y0026173D01*
X0028726Y0023555D01*
X0025305Y0022138D01*
X0021602Y0022138D01*
X0025725Y0022311D02*
X0094274Y0022311D01*
X0098302Y0022311D02*
X0114274Y0022311D01*
X0112364Y0020713D02*
X0109247Y0020713D01*
X0110460Y0019114D02*
X0111702Y0019114D01*
X0111688Y0017516D02*
X0110888Y0017516D01*
X0110750Y0015917D02*
X0112241Y0015917D01*
X0120335Y0015917D02*
X0121827Y0015917D01*
X0121688Y0017516D02*
X0120888Y0017516D01*
X0120875Y0019114D02*
X0122116Y0019114D01*
X0123329Y0020713D02*
X0120213Y0020713D01*
X0118302Y0022311D02*
X0133850Y0022311D01*
X0136088Y0022311D02*
X0136488Y0022311D01*
X0136488Y0022967D02*
X0136488Y0018367D01*
X0141088Y0018367D01*
X0141088Y0018544D01*
X0140970Y0019291D01*
X0140737Y0020009D01*
X0140394Y0020682D01*
X0139949Y0021294D01*
X0139415Y0021828D01*
X0138804Y0022272D01*
X0138131Y0022615D01*
X0137412Y0022848D01*
X0136666Y0022967D01*
X0136488Y0022967D01*
X0136488Y0020713D02*
X0136088Y0020713D01*
X0136088Y0019114D02*
X0136488Y0019114D01*
X0138727Y0022311D02*
X0154274Y0022311D01*
X0152364Y0020713D02*
X0149530Y0020713D01*
X0149415Y0020828D02*
X0148804Y0021272D01*
X0148131Y0021615D01*
X0147412Y0021848D01*
X0146666Y0021967D01*
X0146488Y0021967D01*
X0146488Y0017367D01*
X0151088Y0017367D01*
X0151088Y0017544D01*
X0150970Y0018291D01*
X0150737Y0019009D01*
X0150394Y0019682D01*
X0149949Y0020294D01*
X0149415Y0020828D01*
X0150683Y0019114D02*
X0151702Y0019114D01*
X0151688Y0017516D02*
X0151088Y0017516D01*
X0150929Y0015917D02*
X0152241Y0015917D01*
X0146488Y0017516D02*
X0146088Y0017516D01*
X0146088Y0019114D02*
X0146488Y0019114D01*
X0146488Y0020713D02*
X0146088Y0020713D01*
X0143046Y0020713D02*
X0140371Y0020713D01*
X0140998Y0019114D02*
X0141893Y0019114D01*
X0141488Y0017516D02*
X0141045Y0017516D01*
X0140529Y0015917D02*
X0141647Y0015917D01*
X0132047Y0015917D02*
X0130750Y0015917D01*
X0130888Y0017516D02*
X0131531Y0017516D01*
X0131578Y0019114D02*
X0130460Y0019114D01*
X0129247Y0020713D02*
X0132205Y0020713D01*
X0158302Y0022311D02*
X0207690Y0022311D01*
X0207980Y0022021D02*
X0209079Y0021566D01*
X0210269Y0021566D01*
X0211368Y0022021D01*
X0212209Y0022862D01*
X0212665Y0023962D01*
X0212665Y0025151D01*
X0212422Y0025738D01*
X0212665Y0026324D01*
X0212665Y0027513D01*
X0212209Y0028613D01*
X0211368Y0029454D01*
X0210269Y0029909D01*
X0209079Y0029909D01*
X0207980Y0029454D01*
X0207139Y0028613D01*
X0206683Y0027513D01*
X0206683Y0026324D01*
X0206926Y0025738D01*
X0206683Y0025151D01*
X0206683Y0023962D01*
X0207139Y0022862D01*
X0207980Y0022021D01*
X0206705Y0023910D02*
X0029082Y0023910D01*
X0030680Y0025508D02*
X0206831Y0025508D01*
X0206683Y0027107D02*
X0031732Y0027107D01*
X0032394Y0028705D02*
X0207231Y0028705D01*
X0212117Y0028705D02*
X0325537Y0028705D01*
X0325169Y0029595D02*
X0326586Y0026173D01*
X0329204Y0023555D01*
X0332626Y0022138D01*
X0336329Y0022138D01*
X0339750Y0023555D01*
X0342369Y0026173D01*
X0343786Y0029595D01*
X0343786Y0033298D01*
X0342369Y0036719D01*
X0339750Y0039338D01*
X0336329Y0040755D01*
X0332626Y0040755D01*
X0329204Y0039338D01*
X0326586Y0036719D01*
X0325169Y0033298D01*
X0325169Y0029595D01*
X0325169Y0030304D02*
X0032762Y0030304D01*
X0032762Y0031902D02*
X0325169Y0031902D01*
X0325253Y0033501D02*
X0032678Y0033501D01*
X0032016Y0035099D02*
X0209666Y0035099D01*
X0209501Y0035264D02*
X0210342Y0034423D01*
X0211441Y0033967D01*
X0212631Y0033967D01*
X0213730Y0034423D01*
X0214571Y0035264D01*
X0215027Y0036363D01*
X0215027Y0037553D01*
X0214906Y0037844D01*
X0215027Y0038135D01*
X0215027Y0039325D01*
X0214571Y0040424D01*
X0213730Y0041265D01*
X0212631Y0041720D01*
X0211441Y0041720D01*
X0210342Y0041265D01*
X0209501Y0040424D01*
X0209046Y0039325D01*
X0209046Y0038135D01*
X0209166Y0037844D01*
X0209046Y0037553D01*
X0209046Y0036363D01*
X0209501Y0035264D01*
X0209046Y0036698D02*
X0031354Y0036698D01*
X0029768Y0038296D02*
X0209046Y0038296D01*
X0209282Y0039895D02*
X0027381Y0039895D01*
X0019526Y0039895D02*
X0006600Y0039895D01*
X0006600Y0041493D02*
X0176763Y0041493D01*
X0176374Y0041882D02*
X0177443Y0040813D01*
X0178839Y0040235D01*
X0180351Y0040235D01*
X0181748Y0040813D01*
X0182817Y0041882D01*
X0183395Y0043279D01*
X0183395Y0044791D01*
X0182817Y0046187D01*
X0181748Y0047256D01*
X0180472Y0047785D01*
X0181748Y0048313D01*
X0182817Y0049382D01*
X0183395Y0050779D01*
X0183395Y0052291D01*
X0182817Y0053687D01*
X0181748Y0054756D01*
X0180351Y0055335D01*
X0178839Y0055335D01*
X0177443Y0054756D01*
X0176374Y0053687D01*
X0175795Y0052291D01*
X0175795Y0050779D01*
X0176374Y0049382D01*
X0177443Y0048313D01*
X0178719Y0047785D01*
X0177443Y0047256D01*
X0176374Y0046187D01*
X0175795Y0044791D01*
X0175795Y0043279D01*
X0176374Y0041882D01*
X0175873Y0043092D02*
X0006600Y0043092D01*
X0006600Y0044690D02*
X0175795Y0044690D01*
X0176476Y0046289D02*
X0006600Y0046289D01*
X0006600Y0047888D02*
X0178471Y0047888D01*
X0180720Y0047888D02*
X0351331Y0047888D01*
X0351331Y0049486D02*
X0182860Y0049486D01*
X0183395Y0051085D02*
X0351331Y0051085D01*
X0351331Y0052683D02*
X0183233Y0052683D01*
X0182222Y0054282D02*
X0351331Y0054282D01*
X0351331Y0055880D02*
X0186809Y0055880D01*
X0186763Y0055834D02*
X0187832Y0056903D01*
X0188410Y0058299D01*
X0188410Y0059811D01*
X0187832Y0061208D01*
X0187537Y0061503D01*
X0188987Y0061503D01*
X0190384Y0062081D01*
X0191453Y0063150D01*
X0192031Y0064547D01*
X0192031Y0066059D01*
X0191453Y0067455D01*
X0190384Y0068524D01*
X0188987Y0069103D01*
X0187476Y0069103D01*
X0186079Y0068524D01*
X0185010Y0067455D01*
X0184431Y0066059D01*
X0184431Y0064547D01*
X0185010Y0063150D01*
X0185305Y0062855D01*
X0183854Y0062855D01*
X0182458Y0062277D01*
X0181389Y0061208D01*
X0180810Y0059811D01*
X0180810Y0058299D01*
X0181389Y0056903D01*
X0182458Y0055834D01*
X0183854Y0055255D01*
X0185366Y0055255D01*
X0186763Y0055834D01*
X0188070Y0057479D02*
X0351331Y0057479D01*
X0351331Y0059077D02*
X0188410Y0059077D01*
X0188052Y0060676D02*
X0223979Y0060676D01*
X0224068Y0060461D02*
X0224909Y0059620D01*
X0226008Y0059164D01*
X0227198Y0059164D01*
X0227784Y0059407D01*
X0228370Y0059164D01*
X0229560Y0059164D01*
X0230659Y0059620D01*
X0231501Y0060461D01*
X0231956Y0061560D01*
X0231956Y0062750D01*
X0231501Y0063849D01*
X0230659Y0064690D01*
X0229560Y0065145D01*
X0228370Y0065145D01*
X0227784Y0064903D01*
X0227198Y0065145D01*
X0226008Y0065145D01*
X0224909Y0064690D01*
X0224068Y0063849D01*
X0223613Y0062750D01*
X0223613Y0061560D01*
X0224068Y0060461D01*
X0223613Y0062274D02*
X0190577Y0062274D01*
X0191752Y0063873D02*
X0224092Y0063873D01*
X0226878Y0068675D02*
X0227977Y0068219D01*
X0229167Y0068219D01*
X0229753Y0068462D01*
X0230339Y0068219D01*
X0231529Y0068219D01*
X0232628Y0068675D01*
X0233469Y0069516D01*
X0233924Y0070615D01*
X0233924Y0071805D01*
X0233469Y0072904D01*
X0232628Y0073745D01*
X0231529Y0074201D01*
X0230339Y0074201D01*
X0229753Y0073958D01*
X0229167Y0074201D01*
X0227977Y0074201D01*
X0226878Y0073745D01*
X0226036Y0072904D01*
X0225581Y0071805D01*
X0225581Y0070615D01*
X0226036Y0069516D01*
X0226878Y0068675D01*
X0226893Y0068668D02*
X0190037Y0068668D01*
X0189992Y0069563D02*
X0191389Y0068985D01*
X0192901Y0068985D01*
X0194297Y0069563D01*
X0195366Y0070632D01*
X0195945Y0072029D01*
X0195945Y0073541D01*
X0195366Y0074937D01*
X0194297Y0076006D01*
X0192901Y0076585D01*
X0191389Y0076585D01*
X0189992Y0076006D01*
X0188923Y0074937D01*
X0188345Y0073541D01*
X0188345Y0072029D01*
X0188923Y0070632D01*
X0189992Y0069563D01*
X0189289Y0070267D02*
X0006600Y0070267D01*
X0006600Y0071865D02*
X0188413Y0071865D01*
X0188345Y0073464D02*
X0006600Y0073464D01*
X0006600Y0075062D02*
X0189048Y0075062D01*
X0195241Y0075062D02*
X0351331Y0075062D01*
X0351331Y0073464D02*
X0232909Y0073464D01*
X0233899Y0071865D02*
X0299407Y0071865D01*
X0299265Y0071723D02*
X0298809Y0070624D01*
X0298809Y0069434D01*
X0299265Y0068335D01*
X0300106Y0067494D01*
X0301205Y0067038D01*
X0302395Y0067038D01*
X0302981Y0067281D01*
X0303567Y0067038D01*
X0304757Y0067038D01*
X0305856Y0067494D01*
X0306697Y0068335D01*
X0307153Y0069434D01*
X0307153Y0070624D01*
X0306697Y0071723D01*
X0305856Y0072564D01*
X0304757Y0073019D01*
X0303567Y0073019D01*
X0302981Y0072777D01*
X0302395Y0073019D01*
X0301205Y0073019D01*
X0300106Y0072564D01*
X0299265Y0071723D01*
X0298809Y0070267D02*
X0233780Y0070267D01*
X0232612Y0068668D02*
X0299127Y0068668D01*
X0301129Y0067070D02*
X0191613Y0067070D01*
X0192031Y0065471D02*
X0351331Y0065471D01*
X0351331Y0063873D02*
X0298800Y0063873D01*
X0298823Y0063849D02*
X0297982Y0064690D01*
X0296883Y0065145D01*
X0295693Y0065145D01*
X0295107Y0064903D01*
X0294521Y0065145D01*
X0293331Y0065145D01*
X0292232Y0064690D01*
X0291391Y0063849D01*
X0290935Y0062750D01*
X0290935Y0061560D01*
X0291391Y0060461D01*
X0292232Y0059620D01*
X0293331Y0059164D01*
X0294521Y0059164D01*
X0295107Y0059407D01*
X0295693Y0059164D01*
X0296883Y0059164D01*
X0297982Y0059620D01*
X0298823Y0060461D01*
X0299279Y0061560D01*
X0299279Y0062750D01*
X0298823Y0063849D01*
X0299279Y0062274D02*
X0351331Y0062274D01*
X0351331Y0060676D02*
X0298912Y0060676D01*
X0302471Y0067070D02*
X0303492Y0067070D01*
X0304833Y0067070D02*
X0351331Y0067070D01*
X0351331Y0068668D02*
X0306836Y0068668D01*
X0307153Y0070267D02*
X0351331Y0070267D01*
X0351331Y0071865D02*
X0306555Y0071865D01*
X0291414Y0063873D02*
X0231477Y0063873D01*
X0231956Y0062274D02*
X0290935Y0062274D01*
X0291302Y0060676D02*
X0231590Y0060676D01*
X0225725Y0070267D02*
X0195001Y0070267D01*
X0195877Y0071865D02*
X0225606Y0071865D01*
X0226596Y0073464D02*
X0195945Y0073464D01*
X0186426Y0068668D02*
X0006600Y0068668D01*
X0006600Y0067070D02*
X0132201Y0067070D01*
X0132307Y0067114D02*
X0131208Y0066659D01*
X0130367Y0065817D01*
X0129912Y0064718D01*
X0129912Y0063528D01*
X0130155Y0062942D01*
X0129912Y0062356D01*
X0129912Y0061166D01*
X0130367Y0060067D01*
X0131208Y0059226D01*
X0132307Y0058771D01*
X0133497Y0058771D01*
X0134596Y0059226D01*
X0134871Y0059500D01*
X0135145Y0059226D01*
X0136245Y0058771D01*
X0137434Y0058771D01*
X0138533Y0059226D01*
X0138808Y0059500D01*
X0139082Y0059226D01*
X0140182Y0058771D01*
X0141371Y0058771D01*
X0142470Y0059226D01*
X0143312Y0060067D01*
X0143767Y0061166D01*
X0143767Y0062356D01*
X0143524Y0062942D01*
X0143767Y0063528D01*
X0143767Y0064718D01*
X0143312Y0065817D01*
X0142470Y0066659D01*
X0141371Y0067114D01*
X0140182Y0067114D01*
X0139082Y0066659D01*
X0138808Y0066384D01*
X0138533Y0066659D01*
X0137434Y0067114D01*
X0136245Y0067114D01*
X0135145Y0066659D01*
X0134871Y0066384D01*
X0134596Y0066659D01*
X0133497Y0067114D01*
X0132307Y0067114D01*
X0133604Y0067070D02*
X0136138Y0067070D01*
X0137541Y0067070D02*
X0140075Y0067070D01*
X0141478Y0067070D02*
X0184850Y0067070D01*
X0184431Y0065471D02*
X0143455Y0065471D01*
X0143767Y0063873D02*
X0184711Y0063873D01*
X0182455Y0062274D02*
X0143767Y0062274D01*
X0143564Y0060676D02*
X0181168Y0060676D01*
X0180810Y0059077D02*
X0142111Y0059077D01*
X0139442Y0059077D02*
X0138174Y0059077D01*
X0135505Y0059077D02*
X0134237Y0059077D01*
X0131568Y0059077D02*
X0006600Y0059077D01*
X0006600Y0057479D02*
X0181150Y0057479D01*
X0182411Y0055880D02*
X0006600Y0055880D01*
X0006600Y0054282D02*
X0176968Y0054282D01*
X0175958Y0052683D02*
X0006600Y0052683D01*
X0006600Y0051085D02*
X0175795Y0051085D01*
X0176331Y0049486D02*
X0006600Y0049486D01*
X0006600Y0038296D02*
X0017139Y0038296D01*
X0015553Y0036698D02*
X0006600Y0036698D01*
X0006600Y0035099D02*
X0014891Y0035099D01*
X0014229Y0033501D02*
X0006600Y0033501D01*
X0006600Y0031902D02*
X0014145Y0031902D01*
X0014145Y0030304D02*
X0007762Y0030304D01*
X0009361Y0028705D02*
X0014513Y0028705D01*
X0015175Y0027107D02*
X0010959Y0027107D01*
X0012558Y0025508D02*
X0016227Y0025508D01*
X0017825Y0023910D02*
X0014156Y0023910D01*
X0006600Y0060676D02*
X0130115Y0060676D01*
X0129912Y0062274D02*
X0006600Y0062274D01*
X0006600Y0063873D02*
X0129912Y0063873D01*
X0130224Y0065471D02*
X0006600Y0065471D01*
X0006600Y0076661D02*
X0351331Y0076661D01*
X0351331Y0078259D02*
X0006600Y0078259D01*
X0006600Y0079858D02*
X0351331Y0079858D01*
X0351331Y0081456D02*
X0006600Y0081456D01*
X0006600Y0083055D02*
X0234348Y0083055D01*
X0234304Y0083099D02*
X0235145Y0082257D01*
X0236245Y0081802D01*
X0237434Y0081802D01*
X0238533Y0082257D01*
X0239375Y0083099D01*
X0239830Y0084198D01*
X0239830Y0085388D01*
X0239587Y0085974D01*
X0239830Y0086560D01*
X0239830Y0087750D01*
X0239375Y0088849D01*
X0238533Y0089690D01*
X0237434Y0090145D01*
X0236245Y0090145D01*
X0235145Y0089690D01*
X0234304Y0088849D01*
X0233849Y0087750D01*
X0233849Y0086560D01*
X0234092Y0085974D01*
X0233849Y0085388D01*
X0233849Y0084198D01*
X0234304Y0083099D01*
X0233849Y0084653D02*
X0006600Y0084653D01*
X0006600Y0086252D02*
X0233976Y0086252D01*
X0233890Y0087850D02*
X0006600Y0087850D01*
X0006600Y0089449D02*
X0234904Y0089449D01*
X0238775Y0089449D02*
X0351331Y0089449D01*
X0351331Y0091047D02*
X0006600Y0091047D01*
X0006600Y0092646D02*
X0351331Y0092646D01*
X0351331Y0094244D02*
X0006600Y0094244D01*
X0006600Y0095843D02*
X0014009Y0095843D01*
X0014224Y0095628D02*
X0015915Y0094927D01*
X0017745Y0094927D01*
X0019436Y0095628D01*
X0020730Y0096922D01*
X0021430Y0098612D01*
X0021430Y0100442D01*
X0020730Y0102133D01*
X0019436Y0103427D01*
X0017745Y0104127D01*
X0015915Y0104127D01*
X0014224Y0103427D01*
X0012930Y0102133D01*
X0012230Y0100442D01*
X0012230Y0098612D01*
X0012930Y0096922D01*
X0014224Y0095628D01*
X0012715Y0097441D02*
X0006600Y0097441D01*
X0006600Y0099040D02*
X0012230Y0099040D01*
X0012311Y0100638D02*
X0006600Y0100638D01*
X0006600Y0102237D02*
X0013034Y0102237D01*
X0015210Y0103835D02*
X0006600Y0103835D01*
X0006600Y0105434D02*
X0013692Y0105434D01*
X0013224Y0105628D02*
X0014915Y0104927D01*
X0016745Y0104927D01*
X0018436Y0105628D01*
X0019730Y0106922D01*
X0020430Y0108612D01*
X0020430Y0110442D01*
X0019730Y0112133D01*
X0018436Y0113427D01*
X0016745Y0114127D01*
X0014915Y0114127D01*
X0013224Y0113427D01*
X0011930Y0112133D01*
X0011230Y0110442D01*
X0011230Y0108612D01*
X0011930Y0106922D01*
X0013224Y0105628D01*
X0011885Y0107032D02*
X0006600Y0107032D01*
X0006600Y0108631D02*
X0011230Y0108631D01*
X0011230Y0110229D02*
X0006600Y0110229D01*
X0006600Y0111828D02*
X0011804Y0111828D01*
X0013224Y0113426D02*
X0006600Y0113426D01*
X0006600Y0115025D02*
X0015679Y0115025D01*
X0015915Y0114927D02*
X0017745Y0114927D01*
X0019436Y0115628D01*
X0020730Y0116922D01*
X0021430Y0118612D01*
X0021430Y0120442D01*
X0020730Y0122133D01*
X0019436Y0123427D01*
X0017745Y0124127D01*
X0015915Y0124127D01*
X0014224Y0123427D01*
X0012930Y0122133D01*
X0012230Y0120442D01*
X0012230Y0118612D01*
X0012930Y0116922D01*
X0014224Y0115628D01*
X0015915Y0114927D01*
X0017981Y0115025D02*
X0132668Y0115025D01*
X0132668Y0115112D02*
X0132668Y0113922D01*
X0132911Y0113336D01*
X0132668Y0112750D01*
X0132668Y0111560D01*
X0133123Y0110461D01*
X0133964Y0109620D01*
X0135063Y0109164D01*
X0136253Y0109164D01*
X0137352Y0109620D01*
X0138194Y0110461D01*
X0138649Y0111560D01*
X0138649Y0112750D01*
X0138406Y0113336D01*
X0138649Y0113922D01*
X0138649Y0115112D01*
X0138194Y0116211D01*
X0137352Y0117052D01*
X0136253Y0117508D01*
X0135063Y0117508D01*
X0133964Y0117052D01*
X0133123Y0116211D01*
X0132668Y0115112D01*
X0132873Y0113426D02*
X0018436Y0113426D01*
X0019856Y0111828D02*
X0132668Y0111828D01*
X0133354Y0110229D02*
X0117030Y0110229D01*
X0116568Y0110421D02*
X0115378Y0110421D01*
X0114279Y0109966D01*
X0113438Y0109124D01*
X0112983Y0108025D01*
X0112983Y0106836D01*
X0113226Y0106249D01*
X0112983Y0105663D01*
X0112983Y0104473D01*
X0113438Y0103374D01*
X0114279Y0102533D01*
X0115378Y0102078D01*
X0116568Y0102078D01*
X0117667Y0102533D01*
X0118508Y0103374D01*
X0118964Y0104473D01*
X0118964Y0105663D01*
X0118721Y0106249D01*
X0118964Y0106836D01*
X0118964Y0108025D01*
X0118508Y0109124D01*
X0117667Y0109966D01*
X0116568Y0110421D01*
X0114916Y0110229D02*
X0020430Y0110229D01*
X0020430Y0108631D02*
X0113234Y0108631D01*
X0112983Y0107032D02*
X0019776Y0107032D01*
X0017968Y0105434D02*
X0112983Y0105434D01*
X0113247Y0103835D02*
X0018450Y0103835D01*
X0020626Y0102237D02*
X0114994Y0102237D01*
X0116952Y0102237D02*
X0162238Y0102237D01*
X0162622Y0102078D02*
X0163812Y0102078D01*
X0164911Y0102533D01*
X0165753Y0103374D01*
X0166208Y0104473D01*
X0166208Y0105663D01*
X0165965Y0106249D01*
X0166208Y0106836D01*
X0166208Y0108025D01*
X0165753Y0109124D01*
X0164911Y0109966D01*
X0163812Y0110421D01*
X0162622Y0110421D01*
X0161523Y0109966D01*
X0160682Y0109124D01*
X0160227Y0108025D01*
X0160227Y0106836D01*
X0160470Y0106249D01*
X0160227Y0105663D01*
X0160227Y0104473D01*
X0160682Y0103374D01*
X0161523Y0102533D01*
X0162622Y0102078D01*
X0164197Y0102237D02*
X0266459Y0102237D01*
X0266329Y0101923D02*
X0266329Y0100733D01*
X0266572Y0100147D01*
X0266329Y0099561D01*
X0266329Y0098371D01*
X0266784Y0097272D01*
X0267626Y0096431D01*
X0268725Y0095975D01*
X0269915Y0095975D01*
X0271014Y0096431D01*
X0271855Y0097272D01*
X0272310Y0098371D01*
X0272310Y0099561D01*
X0272067Y0100147D01*
X0272310Y0100733D01*
X0272310Y0101923D01*
X0271855Y0103022D01*
X0271014Y0103863D01*
X0269915Y0104319D01*
X0268725Y0104319D01*
X0267626Y0103863D01*
X0266784Y0103022D01*
X0266329Y0101923D01*
X0266368Y0100638D02*
X0021349Y0100638D01*
X0021430Y0099040D02*
X0266329Y0099040D01*
X0266714Y0097441D02*
X0020945Y0097441D01*
X0019651Y0095843D02*
X0351331Y0095843D01*
X0351331Y0097441D02*
X0284917Y0097441D01*
X0284847Y0097272D02*
X0285302Y0098371D01*
X0285302Y0099561D01*
X0285060Y0100147D01*
X0285302Y0100733D01*
X0285302Y0101923D01*
X0284847Y0103022D01*
X0284006Y0103863D01*
X0282907Y0104319D01*
X0281717Y0104319D01*
X0280618Y0103863D01*
X0279777Y0103022D01*
X0279321Y0101923D01*
X0279321Y0100733D01*
X0279564Y0100147D01*
X0279321Y0099561D01*
X0279321Y0098371D01*
X0279777Y0097272D01*
X0280618Y0096431D01*
X0281717Y0095975D01*
X0282907Y0095975D01*
X0284006Y0096431D01*
X0284847Y0097272D01*
X0285302Y0099040D02*
X0351331Y0099040D01*
X0351331Y0100638D02*
X0285263Y0100638D01*
X0285172Y0102237D02*
X0351331Y0102237D01*
X0351331Y0103835D02*
X0284034Y0103835D01*
X0280590Y0103835D02*
X0271042Y0103835D01*
X0272180Y0102237D02*
X0279451Y0102237D01*
X0279361Y0100638D02*
X0272271Y0100638D01*
X0272310Y0099040D02*
X0279321Y0099040D01*
X0279706Y0097441D02*
X0271925Y0097441D01*
X0267598Y0103835D02*
X0165944Y0103835D01*
X0166208Y0105434D02*
X0351331Y0105434D01*
X0351331Y0107032D02*
X0166208Y0107032D01*
X0165957Y0108631D02*
X0351331Y0108631D01*
X0351331Y0110229D02*
X0164275Y0110229D01*
X0162160Y0110229D02*
X0137962Y0110229D01*
X0138649Y0111828D02*
X0351331Y0111828D01*
X0351331Y0113426D02*
X0138443Y0113426D01*
X0138649Y0115025D02*
X0351331Y0115025D01*
X0351331Y0116623D02*
X0137781Y0116623D01*
X0137901Y0117494D02*
X0139000Y0117038D01*
X0140190Y0117038D01*
X0141289Y0117494D01*
X0142131Y0118335D01*
X0142586Y0119434D01*
X0142586Y0120624D01*
X0142343Y0121210D01*
X0142586Y0121796D01*
X0142586Y0122986D01*
X0142131Y0124085D01*
X0141289Y0124926D01*
X0140190Y0125382D01*
X0139000Y0125382D01*
X0137901Y0124926D01*
X0137060Y0124085D01*
X0136605Y0122986D01*
X0136605Y0121796D01*
X0136848Y0121210D01*
X0136605Y0120624D01*
X0136605Y0119434D01*
X0137060Y0118335D01*
X0137901Y0117494D01*
X0137173Y0118222D02*
X0021268Y0118222D01*
X0021430Y0119821D02*
X0136605Y0119821D01*
X0136761Y0121419D02*
X0021026Y0121419D01*
X0019845Y0123018D02*
X0136618Y0123018D01*
X0137591Y0124616D02*
X0006600Y0124616D01*
X0006600Y0123018D02*
X0013815Y0123018D01*
X0012635Y0121419D02*
X0006600Y0121419D01*
X0006600Y0119821D02*
X0012230Y0119821D01*
X0012392Y0118222D02*
X0006600Y0118222D01*
X0006600Y0116623D02*
X0013229Y0116623D01*
X0020432Y0116623D02*
X0133535Y0116623D01*
X0142018Y0118222D02*
X0176543Y0118222D01*
X0176430Y0118335D02*
X0177271Y0117494D01*
X0178370Y0117038D01*
X0180348Y0117038D01*
X0180934Y0117281D01*
X0181520Y0117038D01*
X0182710Y0117038D01*
X0183809Y0117494D01*
X0184650Y0118335D01*
X0185105Y0119434D01*
X0185105Y0120624D01*
X0184650Y0121723D01*
X0183809Y0122564D01*
X0182710Y0123019D01*
X0181520Y0123019D01*
X0180934Y0122777D01*
X0180348Y0123019D01*
X0178370Y0123019D01*
X0177271Y0122564D01*
X0176430Y0121723D01*
X0175975Y0120624D01*
X0175975Y0119434D01*
X0176430Y0118335D01*
X0175975Y0119821D02*
X0142586Y0119821D01*
X0142430Y0121419D02*
X0176304Y0121419D01*
X0178366Y0123018D02*
X0142573Y0123018D01*
X0141600Y0124616D02*
X0351331Y0124616D01*
X0351331Y0123018D02*
X0250825Y0123018D01*
X0250820Y0123019D02*
X0249630Y0123019D01*
X0249044Y0122777D01*
X0248458Y0123019D01*
X0247268Y0123019D01*
X0246169Y0122564D01*
X0245328Y0121723D01*
X0244872Y0120624D01*
X0244872Y0119434D01*
X0245328Y0118335D01*
X0246169Y0117494D01*
X0247268Y0117038D01*
X0248458Y0117038D01*
X0249044Y0117281D01*
X0249630Y0117038D01*
X0250820Y0117038D01*
X0251919Y0117494D01*
X0252760Y0118335D01*
X0253216Y0119434D01*
X0253216Y0120624D01*
X0252760Y0121723D01*
X0251919Y0122564D01*
X0250820Y0123019D01*
X0249626Y0123018D02*
X0248462Y0123018D01*
X0247264Y0123018D02*
X0182714Y0123018D01*
X0181516Y0123018D02*
X0180352Y0123018D01*
X0184776Y0121419D02*
X0245202Y0121419D01*
X0244872Y0119821D02*
X0185105Y0119821D01*
X0184537Y0118222D02*
X0245441Y0118222D01*
X0252648Y0118222D02*
X0351331Y0118222D01*
X0351331Y0119821D02*
X0253216Y0119821D01*
X0252886Y0121419D02*
X0351331Y0121419D01*
X0351331Y0126215D02*
X0019023Y0126215D01*
X0018436Y0125628D02*
X0019730Y0126922D01*
X0020430Y0128612D01*
X0020430Y0130442D01*
X0019730Y0132133D01*
X0018436Y0133427D01*
X0016745Y0134127D01*
X0014915Y0134127D01*
X0013224Y0133427D01*
X0011930Y0132133D01*
X0011230Y0130442D01*
X0011230Y0128612D01*
X0011930Y0126922D01*
X0013224Y0125628D01*
X0014915Y0124927D01*
X0016745Y0124927D01*
X0018436Y0125628D01*
X0020099Y0127813D02*
X0351331Y0127813D01*
X0351331Y0129412D02*
X0276798Y0129412D01*
X0276776Y0129358D02*
X0277231Y0130458D01*
X0277231Y0131647D01*
X0276776Y0132746D01*
X0275935Y0133588D01*
X0274836Y0134043D01*
X0273646Y0134043D01*
X0273060Y0133800D01*
X0272474Y0134043D01*
X0271284Y0134043D01*
X0270185Y0133588D01*
X0269343Y0132746D01*
X0268888Y0131647D01*
X0268888Y0130458D01*
X0269343Y0129358D01*
X0270185Y0128517D01*
X0271284Y0128062D01*
X0272474Y0128062D01*
X0273060Y0128305D01*
X0273646Y0128062D01*
X0274836Y0128062D01*
X0275935Y0128517D01*
X0276776Y0129358D01*
X0277231Y0131010D02*
X0351331Y0131010D01*
X0351331Y0132609D02*
X0283963Y0132609D01*
X0283809Y0132454D02*
X0284650Y0133295D01*
X0285105Y0134395D01*
X0285105Y0135584D01*
X0284650Y0136684D01*
X0283809Y0137525D01*
X0282710Y0137980D01*
X0281520Y0137980D01*
X0280934Y0137737D01*
X0280348Y0137980D01*
X0279158Y0137980D01*
X0278059Y0137525D01*
X0277217Y0136684D01*
X0276762Y0135584D01*
X0276762Y0134395D01*
X0277217Y0133295D01*
X0278059Y0132454D01*
X0279158Y0131999D01*
X0280348Y0131999D01*
X0280934Y0132242D01*
X0281520Y0131999D01*
X0282710Y0131999D01*
X0283809Y0132454D01*
X0285028Y0134207D02*
X0351331Y0134207D01*
X0351331Y0135806D02*
X0285014Y0135806D01*
X0283930Y0137404D02*
X0351331Y0137404D01*
X0351331Y0139003D02*
X0090205Y0139003D01*
X0090108Y0139100D02*
X0090949Y0138258D01*
X0091405Y0137159D01*
X0091405Y0135969D01*
X0090949Y0134870D01*
X0090108Y0134029D01*
X0089009Y0133574D01*
X0087819Y0133574D01*
X0087233Y0133817D01*
X0086647Y0133574D01*
X0085457Y0133574D01*
X0084358Y0134029D01*
X0083517Y0134870D01*
X0083061Y0135969D01*
X0083061Y0137159D01*
X0083517Y0138258D01*
X0084358Y0139100D01*
X0085457Y0139555D01*
X0086647Y0139555D01*
X0087233Y0139312D01*
X0087819Y0139555D01*
X0089009Y0139555D01*
X0090108Y0139100D01*
X0091303Y0137404D02*
X0277938Y0137404D01*
X0276854Y0135806D02*
X0091337Y0135806D01*
X0090286Y0134207D02*
X0276840Y0134207D01*
X0276833Y0132609D02*
X0277904Y0132609D01*
X0269286Y0132609D02*
X0083531Y0132609D01*
X0083531Y0132032D02*
X0083531Y0133222D01*
X0083075Y0134321D01*
X0082234Y0135163D01*
X0081135Y0135618D01*
X0079945Y0135618D01*
X0079359Y0135375D01*
X0078773Y0135618D01*
X0077583Y0135618D01*
X0076484Y0135163D01*
X0075643Y0134321D01*
X0075187Y0133222D01*
X0075187Y0132032D01*
X0075643Y0130933D01*
X0076484Y0130092D01*
X0077583Y0129637D01*
X0078773Y0129637D01*
X0079359Y0129880D01*
X0079945Y0129637D01*
X0081135Y0129637D01*
X0082234Y0130092D01*
X0083075Y0130933D01*
X0083531Y0132032D01*
X0083107Y0131010D02*
X0268888Y0131010D01*
X0269321Y0129412D02*
X0020430Y0129412D01*
X0020195Y0131010D02*
X0075611Y0131010D01*
X0075187Y0132609D02*
X0019254Y0132609D01*
X0017745Y0134927D02*
X0019436Y0135628D01*
X0020730Y0136922D01*
X0021430Y0138612D01*
X0021430Y0140442D01*
X0020730Y0142133D01*
X0019436Y0143427D01*
X0017745Y0144127D01*
X0015915Y0144127D01*
X0014224Y0143427D01*
X0012930Y0142133D01*
X0012230Y0140442D01*
X0012230Y0138612D01*
X0012930Y0136922D01*
X0014224Y0135628D01*
X0015915Y0134927D01*
X0017745Y0134927D01*
X0019614Y0135806D02*
X0083129Y0135806D01*
X0083163Y0137404D02*
X0020930Y0137404D01*
X0021430Y0139003D02*
X0084261Y0139003D01*
X0084180Y0134207D02*
X0083123Y0134207D01*
X0075595Y0134207D02*
X0006600Y0134207D01*
X0006600Y0132609D02*
X0012406Y0132609D01*
X0011465Y0131010D02*
X0006600Y0131010D01*
X0006600Y0129412D02*
X0011230Y0129412D01*
X0011561Y0127813D02*
X0006600Y0127813D01*
X0006600Y0126215D02*
X0012638Y0126215D01*
X0014047Y0135806D02*
X0006600Y0135806D01*
X0006600Y0137404D02*
X0012731Y0137404D01*
X0012230Y0139003D02*
X0006600Y0139003D01*
X0006600Y0140601D02*
X0012296Y0140601D01*
X0012997Y0142200D02*
X0006600Y0142200D01*
X0006600Y0143798D02*
X0015121Y0143798D01*
X0014915Y0144927D02*
X0016745Y0144927D01*
X0018436Y0145628D01*
X0019730Y0146922D01*
X0020430Y0148612D01*
X0020430Y0150442D01*
X0019730Y0152133D01*
X0018436Y0153427D01*
X0016745Y0154127D01*
X0014915Y0154127D01*
X0013224Y0153427D01*
X0011930Y0152133D01*
X0011230Y0150442D01*
X0011230Y0148612D01*
X0011930Y0146922D01*
X0013224Y0145628D01*
X0014915Y0144927D01*
X0013782Y0145397D02*
X0006600Y0145397D01*
X0006600Y0146995D02*
X0011900Y0146995D01*
X0011238Y0148594D02*
X0006600Y0148594D01*
X0006600Y0150192D02*
X0011230Y0150192D01*
X0011789Y0151791D02*
X0006600Y0151791D01*
X0006600Y0153389D02*
X0013187Y0153389D01*
X0014224Y0155628D02*
X0015915Y0154927D01*
X0017745Y0154927D01*
X0019436Y0155628D01*
X0020730Y0156922D01*
X0021430Y0158612D01*
X0021430Y0160442D01*
X0020730Y0162133D01*
X0019436Y0163427D01*
X0017745Y0164127D01*
X0015915Y0164127D01*
X0014224Y0163427D01*
X0012930Y0162133D01*
X0012230Y0160442D01*
X0012230Y0158612D01*
X0012930Y0156922D01*
X0014224Y0155628D01*
X0013266Y0156586D02*
X0006600Y0156586D01*
X0006600Y0154988D02*
X0015769Y0154988D01*
X0017891Y0154988D02*
X0097440Y0154988D01*
X0097259Y0154632D02*
X0097000Y0153835D01*
X0096869Y0153007D01*
X0096869Y0152963D01*
X0101819Y0152963D01*
X0101819Y0157913D01*
X0101775Y0157913D01*
X0100947Y0157782D01*
X0100150Y0157523D01*
X0099403Y0157142D01*
X0098725Y0156650D01*
X0098132Y0156057D01*
X0097639Y0155379D01*
X0097259Y0154632D01*
X0096929Y0153389D02*
X0018474Y0153389D01*
X0019872Y0151791D02*
X0096929Y0151791D01*
X0096869Y0152169D02*
X0097000Y0151341D01*
X0097259Y0150544D01*
X0097639Y0149797D01*
X0098132Y0149119D01*
X0098725Y0148526D01*
X0099403Y0148034D01*
X0100150Y0147653D01*
X0100947Y0147394D01*
X0101775Y0147263D01*
X0101819Y0147263D01*
X0101819Y0152213D01*
X0102569Y0152213D01*
X0102569Y0152963D01*
X0107519Y0152963D01*
X0107519Y0153007D01*
X0107388Y0153835D01*
X0107129Y0154632D01*
X0106748Y0155379D01*
X0106255Y0156057D01*
X0105663Y0156650D01*
X0104985Y0157142D01*
X0104238Y0157523D01*
X0103441Y0157782D01*
X0102613Y0157913D01*
X0102569Y0157913D01*
X0102569Y0152963D01*
X0101819Y0152963D01*
X0101819Y0152213D01*
X0096869Y0152213D01*
X0096869Y0152169D01*
X0097438Y0150192D02*
X0020430Y0150192D01*
X0020422Y0148594D02*
X0098657Y0148594D01*
X0101819Y0148594D02*
X0102569Y0148594D01*
X0102569Y0147263D02*
X0102613Y0147263D01*
X0103441Y0147394D01*
X0104238Y0147653D01*
X0104985Y0148034D01*
X0105663Y0148526D01*
X0106255Y0149119D01*
X0106748Y0149797D01*
X0107129Y0150544D01*
X0107388Y0151341D01*
X0107519Y0152169D01*
X0107519Y0152213D01*
X0102569Y0152213D01*
X0102569Y0147263D01*
X0102569Y0150192D02*
X0101819Y0150192D01*
X0101819Y0151791D02*
X0102569Y0151791D01*
X0102569Y0153389D02*
X0101819Y0153389D01*
X0101819Y0154988D02*
X0102569Y0154988D01*
X0102569Y0156586D02*
X0101819Y0156586D01*
X0098661Y0156586D02*
X0020394Y0156586D01*
X0021253Y0158185D02*
X0351331Y0158185D01*
X0351331Y0159783D02*
X0021430Y0159783D01*
X0021041Y0161382D02*
X0351331Y0161382D01*
X0351331Y0162980D02*
X0019883Y0162980D01*
X0013778Y0162980D02*
X0006600Y0162980D01*
X0006600Y0161382D02*
X0012619Y0161382D01*
X0012230Y0159783D02*
X0006600Y0159783D01*
X0006600Y0158185D02*
X0012407Y0158185D01*
X0006600Y0164579D02*
X0351331Y0164579D01*
X0351331Y0166177D02*
X0006600Y0166177D01*
X0006600Y0167776D02*
X0351331Y0167776D01*
X0351331Y0169374D02*
X0006600Y0169374D01*
X0006600Y0170973D02*
X0351331Y0170973D01*
X0351331Y0172571D02*
X0006600Y0172571D01*
X0006600Y0174170D02*
X0351331Y0174170D01*
X0351331Y0175768D02*
X0006600Y0175768D01*
X0006600Y0177367D02*
X0081178Y0177367D01*
X0081154Y0177390D02*
X0081996Y0176549D01*
X0083095Y0176093D01*
X0084285Y0176093D01*
X0084871Y0176336D01*
X0085457Y0176093D01*
X0086647Y0176093D01*
X0087746Y0176549D01*
X0088587Y0177390D01*
X0089043Y0178489D01*
X0089043Y0179679D01*
X0088587Y0180778D01*
X0087746Y0181619D01*
X0086647Y0182075D01*
X0085457Y0182075D01*
X0084871Y0181832D01*
X0084285Y0182075D01*
X0083095Y0182075D01*
X0081996Y0181619D01*
X0081154Y0180778D01*
X0080699Y0179679D01*
X0080699Y0178489D01*
X0081154Y0177390D01*
X0080699Y0178965D02*
X0006600Y0178965D01*
X0006600Y0180564D02*
X0081066Y0180564D01*
X0088676Y0180564D02*
X0138546Y0180564D01*
X0138635Y0180778D02*
X0138180Y0179679D01*
X0138180Y0178489D01*
X0138635Y0177390D01*
X0139476Y0176549D01*
X0140575Y0176093D01*
X0141765Y0176093D01*
X0142351Y0176336D01*
X0142937Y0176093D01*
X0144127Y0176093D01*
X0145226Y0176549D01*
X0146068Y0177390D01*
X0146523Y0178489D01*
X0146523Y0179679D01*
X0146068Y0180778D01*
X0145226Y0181619D01*
X0144127Y0182075D01*
X0142937Y0182075D01*
X0142351Y0181832D01*
X0141765Y0182075D01*
X0140575Y0182075D01*
X0139476Y0181619D01*
X0138635Y0180778D01*
X0138180Y0178965D02*
X0089043Y0178965D01*
X0088564Y0177367D02*
X0138658Y0177367D01*
X0136647Y0182786D02*
X0135457Y0182786D01*
X0134358Y0183242D01*
X0133517Y0184083D01*
X0133061Y0185182D01*
X0133061Y0186372D01*
X0133304Y0186958D01*
X0071477Y0186958D01*
X0071720Y0187544D01*
X0071720Y0188734D01*
X0071264Y0189833D01*
X0070423Y0190674D01*
X0069324Y0191130D01*
X0068134Y0191130D01*
X0067035Y0190674D01*
X0066194Y0189833D01*
X0065739Y0188734D01*
X0065739Y0187544D01*
X0065981Y0186958D01*
X0006600Y0186958D01*
X0006600Y0188557D02*
X0065739Y0188557D01*
X0065981Y0186958D02*
X0065739Y0186372D01*
X0065739Y0185182D01*
X0066194Y0184083D01*
X0067035Y0183242D01*
X0068134Y0182786D01*
X0069324Y0182786D01*
X0070423Y0183242D01*
X0071264Y0184083D01*
X0071720Y0185182D01*
X0071720Y0186372D01*
X0071477Y0186958D01*
X0071720Y0185359D02*
X0133061Y0185359D01*
X0133304Y0186958D02*
X0133061Y0187544D01*
X0133061Y0188734D01*
X0133517Y0189833D01*
X0134358Y0190674D01*
X0135457Y0191130D01*
X0136647Y0191130D01*
X0137746Y0190674D01*
X0138587Y0189833D01*
X0139043Y0188734D01*
X0139043Y0187544D01*
X0138800Y0186958D01*
X0199840Y0186958D01*
X0199597Y0186372D01*
X0199597Y0185182D01*
X0200052Y0184083D01*
X0200893Y0183242D01*
X0201993Y0182786D01*
X0203182Y0182786D01*
X0204281Y0183242D01*
X0205123Y0184083D01*
X0205578Y0185182D01*
X0205578Y0186372D01*
X0205335Y0186958D01*
X0351331Y0186958D01*
X0351331Y0188557D02*
X0205578Y0188557D01*
X0205578Y0188734D02*
X0205123Y0189833D01*
X0204281Y0190674D01*
X0203182Y0191130D01*
X0201993Y0191130D01*
X0200893Y0190674D01*
X0200052Y0189833D01*
X0199597Y0188734D01*
X0199597Y0187544D01*
X0199840Y0186958D01*
X0199597Y0188557D02*
X0139043Y0188557D01*
X0138800Y0186958D02*
X0139043Y0186372D01*
X0139043Y0185182D01*
X0138587Y0184083D01*
X0137746Y0183242D01*
X0136647Y0182786D01*
X0138265Y0183761D02*
X0200374Y0183761D01*
X0199597Y0185359D02*
X0139043Y0185359D01*
X0138265Y0190155D02*
X0200374Y0190155D01*
X0200893Y0191903D02*
X0200052Y0192744D01*
X0199597Y0193843D01*
X0199597Y0195033D01*
X0199840Y0195619D01*
X0199597Y0196206D01*
X0199597Y0197395D01*
X0200052Y0198495D01*
X0200893Y0199336D01*
X0201993Y0199791D01*
X0203182Y0199791D01*
X0204281Y0199336D01*
X0205123Y0198495D01*
X0205578Y0197395D01*
X0205578Y0196206D01*
X0205335Y0195619D01*
X0205578Y0195033D01*
X0205578Y0193843D01*
X0205123Y0192744D01*
X0204281Y0191903D01*
X0203182Y0191448D01*
X0201993Y0191448D01*
X0200893Y0191903D01*
X0201254Y0191754D02*
X0163469Y0191754D01*
X0163390Y0191563D02*
X0163846Y0192662D01*
X0163846Y0193852D01*
X0163390Y0194951D01*
X0162549Y0195792D01*
X0161450Y0196248D01*
X0160260Y0196248D01*
X0159161Y0195792D01*
X0158320Y0194951D01*
X0157865Y0193852D01*
X0157865Y0192662D01*
X0158320Y0191563D01*
X0159161Y0190722D01*
X0160260Y0190267D01*
X0161450Y0190267D01*
X0162549Y0190722D01*
X0163390Y0191563D01*
X0163846Y0193352D02*
X0199800Y0193352D01*
X0199597Y0194951D02*
X0163391Y0194951D01*
X0158320Y0194951D02*
X0138649Y0194951D01*
X0138649Y0195033D02*
X0138406Y0195619D01*
X0138649Y0196206D01*
X0138649Y0197395D01*
X0138194Y0198495D01*
X0137352Y0199336D01*
X0136253Y0199791D01*
X0135063Y0199791D01*
X0133964Y0199336D01*
X0133123Y0198495D01*
X0132668Y0197395D01*
X0132668Y0196206D01*
X0132911Y0195619D01*
X0132668Y0195033D01*
X0132668Y0193843D01*
X0133123Y0192744D01*
X0133964Y0191903D01*
X0135063Y0191448D01*
X0136253Y0191448D01*
X0137352Y0191903D01*
X0138194Y0192744D01*
X0138649Y0193843D01*
X0138649Y0195033D01*
X0138649Y0196549D02*
X0199597Y0196549D01*
X0199908Y0198148D02*
X0138337Y0198148D01*
X0136362Y0199746D02*
X0147982Y0199746D01*
X0148056Y0199715D02*
X0149245Y0199715D01*
X0149831Y0199958D01*
X0150418Y0199715D01*
X0151607Y0199715D01*
X0152707Y0200171D01*
X0153548Y0201012D01*
X0154003Y0202111D01*
X0154003Y0203301D01*
X0153548Y0204400D01*
X0152707Y0205241D01*
X0151607Y0205697D01*
X0150418Y0205697D01*
X0149831Y0205454D01*
X0149245Y0205697D01*
X0148056Y0205697D01*
X0146956Y0205241D01*
X0146115Y0204400D01*
X0145660Y0203301D01*
X0145660Y0202111D01*
X0146115Y0201012D01*
X0146956Y0200171D01*
X0148056Y0199715D01*
X0149319Y0199746D02*
X0150344Y0199746D01*
X0151681Y0199746D02*
X0201884Y0199746D01*
X0203291Y0199746D02*
X0214911Y0199746D01*
X0214985Y0199715D02*
X0216174Y0199715D01*
X0216761Y0199958D01*
X0217347Y0199715D01*
X0218537Y0199715D01*
X0219636Y0200171D01*
X0220477Y0201012D01*
X0220932Y0202111D01*
X0220932Y0203301D01*
X0220477Y0204400D01*
X0219636Y0205241D01*
X0218537Y0205697D01*
X0217347Y0205697D01*
X0216761Y0205454D01*
X0216174Y0205697D01*
X0214985Y0205697D01*
X0213886Y0205241D01*
X0213044Y0204400D01*
X0212589Y0203301D01*
X0212589Y0202111D01*
X0213044Y0201012D01*
X0213886Y0200171D01*
X0214985Y0199715D01*
X0216248Y0199746D02*
X0217273Y0199746D01*
X0218610Y0199746D02*
X0351331Y0199746D01*
X0351331Y0198148D02*
X0205266Y0198148D01*
X0205578Y0196549D02*
X0351331Y0196549D01*
X0351331Y0194951D02*
X0230320Y0194951D01*
X0229478Y0195792D01*
X0228379Y0196248D01*
X0227189Y0196248D01*
X0226090Y0195792D01*
X0225249Y0194951D01*
X0224794Y0193852D01*
X0224794Y0192662D01*
X0225249Y0191563D01*
X0226090Y0190722D01*
X0227189Y0190267D01*
X0228379Y0190267D01*
X0229478Y0190722D01*
X0230320Y0191563D01*
X0230775Y0192662D01*
X0230775Y0193852D01*
X0230320Y0194951D01*
X0230775Y0193352D02*
X0351331Y0193352D01*
X0351331Y0191754D02*
X0230398Y0191754D01*
X0225170Y0191754D02*
X0203920Y0191754D01*
X0204801Y0190155D02*
X0351331Y0190155D01*
X0351331Y0185359D02*
X0205578Y0185359D01*
X0205335Y0186958D02*
X0205578Y0187544D01*
X0205578Y0188734D01*
X0205374Y0193352D02*
X0224794Y0193352D01*
X0225249Y0194951D02*
X0205578Y0194951D01*
X0212906Y0201345D02*
X0153686Y0201345D01*
X0154003Y0202943D02*
X0212589Y0202943D01*
X0213186Y0204542D02*
X0153406Y0204542D01*
X0146257Y0204542D02*
X0132146Y0204542D01*
X0132288Y0204400D02*
X0131447Y0205241D01*
X0130348Y0205697D01*
X0129158Y0205697D01*
X0128059Y0205241D01*
X0127217Y0204400D01*
X0126762Y0203301D01*
X0126762Y0202111D01*
X0127217Y0201012D01*
X0128059Y0200171D01*
X0129158Y0199715D01*
X0130348Y0199715D01*
X0131447Y0200171D01*
X0132288Y0201012D01*
X0132743Y0202111D01*
X0132743Y0203301D01*
X0132288Y0204400D01*
X0132743Y0202943D02*
X0145660Y0202943D01*
X0145977Y0201345D02*
X0132426Y0201345D01*
X0130422Y0199746D02*
X0134955Y0199746D01*
X0132979Y0198148D02*
X0071408Y0198148D01*
X0071264Y0198495D02*
X0070423Y0199336D01*
X0069324Y0199791D01*
X0068134Y0199791D01*
X0067035Y0199336D01*
X0066194Y0198495D01*
X0065739Y0197395D01*
X0065739Y0196206D01*
X0065981Y0195619D01*
X0065739Y0195033D01*
X0065739Y0193843D01*
X0066194Y0192744D01*
X0067035Y0191903D01*
X0068134Y0191448D01*
X0069324Y0191448D01*
X0070423Y0191903D01*
X0071264Y0192744D01*
X0071720Y0193843D01*
X0071720Y0195033D01*
X0071477Y0195619D01*
X0071720Y0196206D01*
X0071720Y0197395D01*
X0071264Y0198495D01*
X0071720Y0196549D02*
X0132668Y0196549D01*
X0132668Y0194951D02*
X0096462Y0194951D01*
X0096461Y0194951D02*
X0095620Y0195792D01*
X0094521Y0196248D01*
X0093331Y0196248D01*
X0092232Y0195792D01*
X0091391Y0194951D01*
X0090935Y0193852D01*
X0090935Y0192662D01*
X0091391Y0191563D01*
X0092232Y0190722D01*
X0093331Y0190267D01*
X0094521Y0190267D01*
X0095620Y0190722D01*
X0096461Y0191563D01*
X0096917Y0192662D01*
X0096917Y0193852D01*
X0096461Y0194951D01*
X0096917Y0193352D02*
X0132871Y0193352D01*
X0134325Y0191754D02*
X0096540Y0191754D01*
X0091312Y0191754D02*
X0070062Y0191754D01*
X0070942Y0190155D02*
X0133839Y0190155D01*
X0133061Y0188557D02*
X0071720Y0188557D01*
X0071516Y0193352D02*
X0090935Y0193352D01*
X0091390Y0194951D02*
X0071720Y0194951D01*
X0069433Y0199746D02*
X0083415Y0199746D01*
X0083489Y0199715D02*
X0084678Y0199715D01*
X0085265Y0199958D01*
X0085851Y0199715D01*
X0087041Y0199715D01*
X0088140Y0200171D01*
X0088981Y0201012D01*
X0089436Y0202111D01*
X0089436Y0203301D01*
X0088981Y0204400D01*
X0088140Y0205241D01*
X0087041Y0205697D01*
X0085851Y0205697D01*
X0085265Y0205454D01*
X0084678Y0205697D01*
X0083489Y0205697D01*
X0082389Y0205241D01*
X0081548Y0204400D01*
X0081093Y0203301D01*
X0081093Y0202111D01*
X0081548Y0201012D01*
X0082389Y0200171D01*
X0083489Y0199715D01*
X0084752Y0199746D02*
X0085777Y0199746D01*
X0087114Y0199746D02*
X0129084Y0199746D01*
X0127080Y0201345D02*
X0089119Y0201345D01*
X0089436Y0202943D02*
X0126762Y0202943D01*
X0127359Y0204542D02*
X0088839Y0204542D01*
X0081690Y0204542D02*
X0006600Y0204542D01*
X0006600Y0206140D02*
X0351331Y0206140D01*
X0351331Y0204542D02*
X0220335Y0204542D01*
X0220932Y0202943D02*
X0351331Y0202943D01*
X0351331Y0201345D02*
X0220615Y0201345D01*
X0204801Y0183761D02*
X0351331Y0183761D01*
X0351331Y0182162D02*
X0218406Y0182162D01*
X0218143Y0182271D02*
X0219242Y0181816D01*
X0220083Y0180975D01*
X0220539Y0179876D01*
X0220539Y0178686D01*
X0220083Y0177587D01*
X0219242Y0176746D01*
X0218143Y0176290D01*
X0216953Y0176290D01*
X0216367Y0176533D01*
X0215781Y0176290D01*
X0214591Y0176290D01*
X0213492Y0176746D01*
X0212651Y0177587D01*
X0212195Y0178686D01*
X0212195Y0179876D01*
X0212651Y0180975D01*
X0213492Y0181816D01*
X0214591Y0182271D01*
X0215781Y0182271D01*
X0216367Y0182029D01*
X0216953Y0182271D01*
X0218143Y0182271D01*
X0216690Y0182162D02*
X0216044Y0182162D01*
X0214328Y0182162D02*
X0153839Y0182162D01*
X0153576Y0182271D02*
X0152386Y0182271D01*
X0151800Y0182029D01*
X0151214Y0182271D01*
X0150024Y0182271D01*
X0148925Y0181816D01*
X0148084Y0180975D01*
X0147628Y0179876D01*
X0147628Y0178686D01*
X0148084Y0177587D01*
X0148925Y0176746D01*
X0150024Y0176290D01*
X0151214Y0176290D01*
X0151800Y0176533D01*
X0152386Y0176290D01*
X0153576Y0176290D01*
X0154675Y0176746D01*
X0155516Y0177587D01*
X0155972Y0178686D01*
X0155972Y0179876D01*
X0155516Y0180975D01*
X0154675Y0181816D01*
X0153576Y0182271D01*
X0152123Y0182162D02*
X0151477Y0182162D01*
X0149761Y0182162D02*
X0006600Y0182162D01*
X0006600Y0183761D02*
X0066516Y0183761D01*
X0065739Y0185359D02*
X0006600Y0185359D01*
X0006600Y0190155D02*
X0066516Y0190155D01*
X0067396Y0191754D02*
X0006600Y0191754D01*
X0006600Y0193352D02*
X0065942Y0193352D01*
X0065739Y0194951D02*
X0006600Y0194951D01*
X0006600Y0196549D02*
X0065739Y0196549D01*
X0066050Y0198148D02*
X0006600Y0198148D01*
X0006600Y0199746D02*
X0068026Y0199746D01*
X0081093Y0202943D02*
X0006600Y0202943D01*
X0006600Y0201345D02*
X0081410Y0201345D01*
X0070942Y0183761D02*
X0133839Y0183761D01*
X0136991Y0191754D02*
X0158241Y0191754D01*
X0157865Y0193352D02*
X0138445Y0193352D01*
X0146156Y0180564D02*
X0147913Y0180564D01*
X0147628Y0178965D02*
X0146523Y0178965D01*
X0146045Y0177367D02*
X0148304Y0177367D01*
X0155296Y0177367D02*
X0212870Y0177367D01*
X0212195Y0178965D02*
X0155972Y0178965D01*
X0155687Y0180564D02*
X0212480Y0180564D01*
X0220253Y0180564D02*
X0351331Y0180564D01*
X0351331Y0178965D02*
X0220539Y0178965D01*
X0219863Y0177367D02*
X0351331Y0177367D01*
X0351331Y0156586D02*
X0262923Y0156586D01*
X0262577Y0156933D02*
X0260693Y0157713D01*
X0258655Y0157713D01*
X0256771Y0156933D01*
X0255329Y0155491D01*
X0254549Y0153607D01*
X0254549Y0151568D01*
X0255329Y0149685D01*
X0256771Y0148243D01*
X0258655Y0147463D01*
X0260693Y0147463D01*
X0262577Y0148243D01*
X0264019Y0149685D01*
X0264799Y0151568D01*
X0264799Y0153607D01*
X0264019Y0155491D01*
X0262577Y0156933D01*
X0264227Y0154988D02*
X0351331Y0154988D01*
X0351331Y0153389D02*
X0264799Y0153389D01*
X0264799Y0151791D02*
X0351331Y0151791D01*
X0351331Y0150192D02*
X0264229Y0150192D01*
X0262928Y0148594D02*
X0351331Y0148594D01*
X0351331Y0146995D02*
X0291040Y0146995D01*
X0291092Y0146974D02*
X0289993Y0147429D01*
X0288804Y0147429D01*
X0287704Y0146974D01*
X0286863Y0146132D01*
X0286408Y0145033D01*
X0286408Y0143843D01*
X0286651Y0143257D01*
X0286408Y0142671D01*
X0286408Y0141481D01*
X0286863Y0140382D01*
X0287704Y0139541D01*
X0288804Y0139086D01*
X0289993Y0139086D01*
X0291092Y0139541D01*
X0291934Y0140382D01*
X0292389Y0141481D01*
X0292389Y0142671D01*
X0292146Y0143257D01*
X0292389Y0143843D01*
X0292389Y0145033D01*
X0291934Y0146132D01*
X0291092Y0146974D01*
X0292238Y0145397D02*
X0351331Y0145397D01*
X0351331Y0143798D02*
X0292370Y0143798D01*
X0292389Y0142200D02*
X0351331Y0142200D01*
X0351331Y0140601D02*
X0292024Y0140601D01*
X0286772Y0140601D02*
X0021364Y0140601D01*
X0020663Y0142200D02*
X0286408Y0142200D01*
X0286427Y0143798D02*
X0018540Y0143798D01*
X0017878Y0145397D02*
X0286558Y0145397D01*
X0287757Y0146995D02*
X0019760Y0146995D01*
X0006600Y0207739D02*
X0351331Y0207739D01*
X0351331Y0209337D02*
X0006600Y0209337D01*
X0006600Y0210936D02*
X0351331Y0210936D01*
X0351331Y0212534D02*
X0006600Y0212534D01*
X0006600Y0214133D02*
X0351331Y0214133D01*
X0351331Y0215731D02*
X0006600Y0215731D01*
X0006600Y0217330D02*
X0351331Y0217330D01*
X0351331Y0218928D02*
X0006600Y0218928D01*
X0006600Y0220527D02*
X0113739Y0220527D01*
X0113832Y0220303D02*
X0114673Y0219462D01*
X0115772Y0219007D01*
X0116962Y0219007D01*
X0118061Y0219462D01*
X0118902Y0220303D01*
X0119357Y0221402D01*
X0119357Y0222592D01*
X0119115Y0223178D01*
X0119357Y0223765D01*
X0119357Y0224954D01*
X0118902Y0226054D01*
X0118061Y0226895D01*
X0116962Y0227350D01*
X0115772Y0227350D01*
X0114673Y0226895D01*
X0113832Y0226054D01*
X0113376Y0224954D01*
X0113376Y0223765D01*
X0113619Y0223178D01*
X0113376Y0222592D01*
X0113376Y0221402D01*
X0113832Y0220303D01*
X0113376Y0222125D02*
X0006600Y0222125D01*
X0006600Y0223724D02*
X0113393Y0223724D01*
X0113529Y0225322D02*
X0006600Y0225322D01*
X0006600Y0226921D02*
X0114736Y0226921D01*
X0112943Y0228911D02*
X0113784Y0229752D01*
X0114239Y0230851D01*
X0114239Y0232041D01*
X0113997Y0232627D01*
X0114239Y0233214D01*
X0114239Y0234403D01*
X0113784Y0235502D01*
X0112943Y0236344D01*
X0111844Y0236799D01*
X0110654Y0236799D01*
X0109555Y0236344D01*
X0108714Y0235502D01*
X0108258Y0234403D01*
X0108258Y0233214D01*
X0108501Y0232627D01*
X0108258Y0232041D01*
X0108258Y0230851D01*
X0108714Y0229752D01*
X0109555Y0228911D01*
X0110654Y0228456D01*
X0111844Y0228456D01*
X0112943Y0228911D01*
X0111997Y0228519D02*
X0177036Y0228519D01*
X0177189Y0228456D02*
X0178379Y0228456D01*
X0179478Y0228911D01*
X0180320Y0229752D01*
X0180775Y0230851D01*
X0180775Y0232041D01*
X0180532Y0232627D01*
X0180775Y0233214D01*
X0180775Y0234403D01*
X0180320Y0235502D01*
X0179478Y0236344D01*
X0178379Y0236799D01*
X0177189Y0236799D01*
X0176090Y0236344D01*
X0175249Y0235502D01*
X0174794Y0234403D01*
X0174794Y0233214D01*
X0175037Y0232627D01*
X0174794Y0232041D01*
X0174794Y0230851D01*
X0175249Y0229752D01*
X0176090Y0228911D01*
X0177189Y0228456D01*
X0178533Y0228519D02*
X0248296Y0228519D01*
X0248449Y0228456D02*
X0249639Y0228456D01*
X0250738Y0228911D01*
X0251579Y0229752D01*
X0252035Y0230851D01*
X0252035Y0232041D01*
X0251792Y0232627D01*
X0252035Y0233214D01*
X0252035Y0234403D01*
X0251579Y0235502D01*
X0250738Y0236344D01*
X0249639Y0236799D01*
X0248449Y0236799D01*
X0247350Y0236344D01*
X0246509Y0235502D01*
X0246054Y0234403D01*
X0246054Y0233214D01*
X0246296Y0232627D01*
X0246054Y0232041D01*
X0246054Y0230851D01*
X0246509Y0229752D01*
X0247350Y0228911D01*
X0248449Y0228456D01*
X0249793Y0228519D02*
X0351331Y0228519D01*
X0351331Y0226921D02*
X0258586Y0226921D01*
X0258218Y0227289D02*
X0257119Y0227744D01*
X0255930Y0227744D01*
X0254830Y0227289D01*
X0253989Y0226447D01*
X0253534Y0225348D01*
X0253534Y0224158D01*
X0253777Y0223572D01*
X0253534Y0222986D01*
X0253534Y0221796D01*
X0253989Y0220697D01*
X0254830Y0219856D01*
X0255930Y0219401D01*
X0257119Y0219401D01*
X0258218Y0219856D01*
X0259060Y0220697D01*
X0259515Y0221796D01*
X0259515Y0222986D01*
X0259272Y0223572D01*
X0259515Y0224158D01*
X0259515Y0225348D01*
X0259060Y0226447D01*
X0258218Y0227289D01*
X0259515Y0225322D02*
X0351331Y0225322D01*
X0351331Y0223724D02*
X0259335Y0223724D01*
X0259515Y0222125D02*
X0351331Y0222125D01*
X0351331Y0220527D02*
X0258889Y0220527D01*
X0254159Y0220527D02*
X0188023Y0220527D01*
X0188194Y0220697D02*
X0188649Y0221796D01*
X0188649Y0222986D01*
X0188406Y0223572D01*
X0188649Y0224158D01*
X0188649Y0225348D01*
X0188194Y0226447D01*
X0187352Y0227289D01*
X0186253Y0227744D01*
X0185063Y0227744D01*
X0183964Y0227289D01*
X0183123Y0226447D01*
X0182668Y0225348D01*
X0182668Y0224158D01*
X0182911Y0223572D01*
X0182668Y0222986D01*
X0182668Y0221796D01*
X0183123Y0220697D01*
X0183964Y0219856D01*
X0185063Y0219401D01*
X0186253Y0219401D01*
X0187352Y0219856D01*
X0188194Y0220697D01*
X0188649Y0222125D02*
X0253534Y0222125D01*
X0253714Y0223724D02*
X0188469Y0223724D01*
X0188649Y0225322D02*
X0253534Y0225322D01*
X0254463Y0226921D02*
X0187720Y0226921D01*
X0183596Y0226921D02*
X0117998Y0226921D01*
X0119205Y0225322D02*
X0182668Y0225322D01*
X0182848Y0223724D02*
X0119341Y0223724D01*
X0119357Y0222125D02*
X0182668Y0222125D01*
X0183293Y0220527D02*
X0118995Y0220527D01*
X0113936Y0230118D02*
X0175098Y0230118D01*
X0174794Y0231716D02*
X0114239Y0231716D01*
X0114239Y0233315D02*
X0174794Y0233315D01*
X0175005Y0234913D02*
X0114028Y0234913D01*
X0112537Y0236512D02*
X0176496Y0236512D01*
X0179072Y0236512D02*
X0247756Y0236512D01*
X0246265Y0234913D02*
X0180564Y0234913D01*
X0180775Y0233315D02*
X0246054Y0233315D01*
X0246054Y0231716D02*
X0180775Y0231716D01*
X0180471Y0230118D02*
X0246357Y0230118D01*
X0251731Y0230118D02*
X0351331Y0230118D01*
X0351331Y0231716D02*
X0252035Y0231716D01*
X0252035Y0233315D02*
X0351331Y0233315D01*
X0351331Y0234913D02*
X0251823Y0234913D01*
X0250332Y0236512D02*
X0351331Y0236512D01*
X0351331Y0238110D02*
X0006600Y0238110D01*
X0006600Y0236512D02*
X0109961Y0236512D01*
X0108470Y0234913D02*
X0006600Y0234913D01*
X0006600Y0233315D02*
X0108258Y0233315D01*
X0108258Y0231716D02*
X0006600Y0231716D01*
X0006600Y0230118D02*
X0108562Y0230118D01*
X0110500Y0228519D02*
X0006600Y0228519D01*
X0006600Y0239709D02*
X0351331Y0239709D01*
X0351331Y0241307D02*
X0006600Y0241307D01*
X0006600Y0242906D02*
X0351331Y0242906D01*
X0351331Y0244504D02*
X0006600Y0244504D01*
X0006600Y0246103D02*
X0351331Y0246103D01*
X0351331Y0247701D02*
X0006600Y0247701D01*
X0006600Y0249300D02*
X0351331Y0249300D01*
X0351331Y0250898D02*
X0006600Y0250898D01*
X0006600Y0252497D02*
X0351331Y0252497D01*
X0351331Y0254095D02*
X0006600Y0254095D01*
X0006600Y0255694D02*
X0351331Y0255694D01*
X0351331Y0257292D02*
X0006600Y0257292D01*
X0006600Y0258891D02*
X0351331Y0258891D01*
X0351331Y0260490D02*
X0006600Y0260490D01*
X0006600Y0262088D02*
X0351331Y0262088D01*
X0351331Y0263687D02*
X0006600Y0263687D01*
X0006600Y0265285D02*
X0351331Y0265285D01*
X0351331Y0266884D02*
X0006600Y0266884D01*
X0006600Y0268482D02*
X0351331Y0268482D01*
X0351331Y0270081D02*
X0006600Y0270081D01*
X0006600Y0271679D02*
X0351331Y0271679D01*
X0351331Y0273278D02*
X0006600Y0273278D01*
X0006600Y0274876D02*
X0351331Y0274876D01*
X0351331Y0276475D02*
X0006600Y0276475D01*
X0006600Y0278073D02*
X0351331Y0278073D01*
X0351331Y0279672D02*
X0006600Y0279672D01*
X0006600Y0281270D02*
X0351331Y0281270D01*
X0351331Y0282869D02*
X0006600Y0282869D01*
X0006600Y0284467D02*
X0351331Y0284467D01*
X0351331Y0286066D02*
X0006600Y0286066D01*
X0006600Y0287664D02*
X0351331Y0287664D01*
X0351331Y0289263D02*
X0006600Y0289263D01*
X0006600Y0290861D02*
X0351331Y0290861D01*
X0351331Y0292460D02*
X0006600Y0292460D01*
X0006600Y0294058D02*
X0351331Y0294058D01*
X0351331Y0295657D02*
X0006600Y0295657D01*
X0006600Y0297255D02*
X0351331Y0297255D01*
X0351331Y0298854D02*
X0006600Y0298854D01*
X0006600Y0300452D02*
X0351331Y0300452D01*
X0351331Y0302051D02*
X0006600Y0302051D01*
X0006600Y0303649D02*
X0351331Y0303649D01*
X0351331Y0305248D02*
X0006600Y0305248D01*
X0006600Y0306846D02*
X0351331Y0306846D01*
X0351331Y0308445D02*
X0305942Y0308445D01*
X0306500Y0308676D02*
X0307759Y0309935D01*
X0308440Y0311580D01*
X0308440Y0313360D01*
X0307759Y0315005D01*
X0306500Y0316264D01*
X0304855Y0316945D01*
X0303075Y0316945D01*
X0301430Y0316264D01*
X0300172Y0315005D01*
X0299490Y0313360D01*
X0299490Y0311580D01*
X0300172Y0309935D01*
X0301430Y0308676D01*
X0303075Y0307995D01*
X0304855Y0307995D01*
X0306500Y0308676D01*
X0307804Y0310043D02*
X0351331Y0310043D01*
X0351331Y0311642D02*
X0308440Y0311642D01*
X0308440Y0313240D02*
X0351331Y0313240D01*
X0351331Y0314839D02*
X0307828Y0314839D01*
X0306080Y0316437D02*
X0351331Y0316437D01*
X0351331Y0318036D02*
X0304955Y0318036D01*
X0304855Y0317995D02*
X0306500Y0318676D01*
X0307759Y0319935D01*
X0308440Y0321580D01*
X0308440Y0323360D01*
X0307759Y0325005D01*
X0306500Y0326264D01*
X0304855Y0326945D01*
X0303075Y0326945D01*
X0301430Y0326264D01*
X0300172Y0325005D01*
X0299490Y0323360D01*
X0299490Y0321580D01*
X0300172Y0319935D01*
X0301430Y0318676D01*
X0303075Y0317995D01*
X0304855Y0317995D01*
X0302976Y0318036D02*
X0294955Y0318036D01*
X0294855Y0317995D02*
X0296500Y0318676D01*
X0297759Y0319935D01*
X0298440Y0321580D01*
X0298440Y0323360D01*
X0297759Y0325005D01*
X0296500Y0326264D01*
X0294855Y0326945D01*
X0293075Y0326945D01*
X0291430Y0326264D01*
X0290172Y0325005D01*
X0289490Y0323360D01*
X0289490Y0321580D01*
X0290172Y0319935D01*
X0291430Y0318676D01*
X0293075Y0317995D01*
X0294855Y0317995D01*
X0294855Y0316945D02*
X0293075Y0316945D01*
X0291430Y0316264D01*
X0290172Y0315005D01*
X0289490Y0313360D01*
X0289490Y0311580D01*
X0290172Y0309935D01*
X0291430Y0308676D01*
X0293075Y0307995D01*
X0294855Y0307995D01*
X0296500Y0308676D01*
X0297759Y0309935D01*
X0298440Y0311580D01*
X0298440Y0313360D01*
X0297759Y0315005D01*
X0296500Y0316264D01*
X0294855Y0316945D01*
X0296080Y0316437D02*
X0301850Y0316437D01*
X0300103Y0314839D02*
X0297828Y0314839D01*
X0298440Y0313240D02*
X0299490Y0313240D01*
X0299490Y0311642D02*
X0298440Y0311642D01*
X0297804Y0310043D02*
X0300127Y0310043D01*
X0301989Y0308445D02*
X0295942Y0308445D01*
X0291989Y0308445D02*
X0285942Y0308445D01*
X0286500Y0308676D02*
X0284855Y0307995D01*
X0283075Y0307995D01*
X0281430Y0308676D01*
X0280172Y0309935D01*
X0279490Y0311580D01*
X0279490Y0313360D01*
X0280172Y0315005D01*
X0281430Y0316264D01*
X0283075Y0316945D01*
X0284855Y0316945D01*
X0286500Y0316264D01*
X0287759Y0315005D01*
X0288440Y0313360D01*
X0288440Y0311580D01*
X0287759Y0309935D01*
X0286500Y0308676D01*
X0287804Y0310043D02*
X0290127Y0310043D01*
X0289490Y0311642D02*
X0288440Y0311642D01*
X0288440Y0313240D02*
X0289490Y0313240D01*
X0290103Y0314839D02*
X0287828Y0314839D01*
X0286080Y0316437D02*
X0291850Y0316437D01*
X0292976Y0318036D02*
X0284955Y0318036D01*
X0284855Y0317995D02*
X0286500Y0318676D01*
X0287759Y0319935D01*
X0288440Y0321580D01*
X0288440Y0323360D01*
X0287759Y0325005D01*
X0286500Y0326264D01*
X0284855Y0326945D01*
X0283075Y0326945D01*
X0281430Y0326264D01*
X0280172Y0325005D01*
X0279490Y0323360D01*
X0279490Y0321580D01*
X0280172Y0319935D01*
X0281430Y0318676D01*
X0283075Y0317995D01*
X0284855Y0317995D01*
X0282976Y0318036D02*
X0274955Y0318036D01*
X0274855Y0317995D02*
X0276500Y0318676D01*
X0277759Y0319935D01*
X0278440Y0321580D01*
X0278440Y0323360D01*
X0277759Y0325005D01*
X0276500Y0326264D01*
X0274855Y0326945D01*
X0273075Y0326945D01*
X0271430Y0326264D01*
X0270172Y0325005D01*
X0269490Y0323360D01*
X0269490Y0321580D01*
X0270172Y0319935D01*
X0271430Y0318676D01*
X0273075Y0317995D01*
X0274855Y0317995D01*
X0274855Y0316945D02*
X0273075Y0316945D01*
X0271430Y0316264D01*
X0270172Y0315005D01*
X0269490Y0313360D01*
X0269490Y0311580D01*
X0270172Y0309935D01*
X0271430Y0308676D01*
X0273075Y0307995D01*
X0274855Y0307995D01*
X0276500Y0308676D01*
X0277759Y0309935D01*
X0278440Y0311580D01*
X0278440Y0313360D01*
X0277759Y0315005D01*
X0276500Y0316264D01*
X0274855Y0316945D01*
X0276080Y0316437D02*
X0281850Y0316437D01*
X0280103Y0314839D02*
X0277828Y0314839D01*
X0278440Y0313240D02*
X0279490Y0313240D01*
X0279490Y0311642D02*
X0278440Y0311642D01*
X0277804Y0310043D02*
X0280127Y0310043D01*
X0281989Y0308445D02*
X0275942Y0308445D01*
X0271989Y0308445D02*
X0265942Y0308445D01*
X0266500Y0308676D02*
X0267759Y0309935D01*
X0268440Y0311580D01*
X0268440Y0313360D01*
X0267759Y0315005D01*
X0266500Y0316264D01*
X0264855Y0316945D01*
X0263075Y0316945D01*
X0261430Y0316264D01*
X0260172Y0315005D01*
X0259490Y0313360D01*
X0259490Y0311580D01*
X0260172Y0309935D01*
X0261430Y0308676D01*
X0263075Y0307995D01*
X0264855Y0307995D01*
X0266500Y0308676D01*
X0267804Y0310043D02*
X0270127Y0310043D01*
X0269490Y0311642D02*
X0268440Y0311642D01*
X0268440Y0313240D02*
X0269490Y0313240D01*
X0270103Y0314839D02*
X0267828Y0314839D01*
X0266080Y0316437D02*
X0271850Y0316437D01*
X0272976Y0318036D02*
X0264955Y0318036D01*
X0264855Y0317995D02*
X0266500Y0318676D01*
X0267759Y0319935D01*
X0268440Y0321580D01*
X0268440Y0323360D01*
X0267759Y0325005D01*
X0266500Y0326264D01*
X0264855Y0326945D01*
X0263075Y0326945D01*
X0261430Y0326264D01*
X0260172Y0325005D01*
X0259490Y0323360D01*
X0259490Y0321580D01*
X0260172Y0319935D01*
X0261430Y0318676D01*
X0263075Y0317995D01*
X0264855Y0317995D01*
X0262976Y0318036D02*
X0254955Y0318036D01*
X0254855Y0317995D02*
X0256500Y0318676D01*
X0257759Y0319935D01*
X0258440Y0321580D01*
X0258440Y0323360D01*
X0257759Y0325005D01*
X0256500Y0326264D01*
X0254855Y0326945D01*
X0253075Y0326945D01*
X0251430Y0326264D01*
X0250172Y0325005D01*
X0249490Y0323360D01*
X0249490Y0321580D01*
X0250172Y0319935D01*
X0251430Y0318676D01*
X0253075Y0317995D01*
X0254855Y0317995D01*
X0254855Y0316945D02*
X0253075Y0316945D01*
X0251430Y0316264D01*
X0250172Y0315005D01*
X0249490Y0313360D01*
X0249490Y0311580D01*
X0250172Y0309935D01*
X0251430Y0308676D01*
X0253075Y0307995D01*
X0254855Y0307995D01*
X0256500Y0308676D01*
X0257759Y0309935D01*
X0258440Y0311580D01*
X0258440Y0313360D01*
X0257759Y0315005D01*
X0256500Y0316264D01*
X0254855Y0316945D01*
X0256080Y0316437D02*
X0261850Y0316437D01*
X0260103Y0314839D02*
X0257828Y0314839D01*
X0258440Y0313240D02*
X0259490Y0313240D01*
X0259490Y0311642D02*
X0258440Y0311642D01*
X0257804Y0310043D02*
X0260127Y0310043D01*
X0261989Y0308445D02*
X0255942Y0308445D01*
X0251989Y0308445D02*
X0245942Y0308445D01*
X0246500Y0308676D02*
X0247759Y0309935D01*
X0248440Y0311580D01*
X0248440Y0313360D01*
X0247759Y0315005D01*
X0246500Y0316264D01*
X0244855Y0316945D01*
X0243075Y0316945D01*
X0241430Y0316264D01*
X0240172Y0315005D01*
X0239490Y0313360D01*
X0239490Y0311580D01*
X0240172Y0309935D01*
X0241430Y0308676D01*
X0243075Y0307995D01*
X0244855Y0307995D01*
X0246500Y0308676D01*
X0247804Y0310043D02*
X0250127Y0310043D01*
X0249490Y0311642D02*
X0248440Y0311642D01*
X0248440Y0313240D02*
X0249490Y0313240D01*
X0250103Y0314839D02*
X0247828Y0314839D01*
X0246080Y0316437D02*
X0251850Y0316437D01*
X0252976Y0318036D02*
X0244955Y0318036D01*
X0244855Y0317995D02*
X0246500Y0318676D01*
X0247759Y0319935D01*
X0248440Y0321580D01*
X0248440Y0323360D01*
X0247759Y0325005D01*
X0246500Y0326264D01*
X0244855Y0326945D01*
X0243075Y0326945D01*
X0241430Y0326264D01*
X0240172Y0325005D01*
X0239490Y0323360D01*
X0239490Y0321580D01*
X0240172Y0319935D01*
X0241430Y0318676D01*
X0243075Y0317995D01*
X0244855Y0317995D01*
X0242976Y0318036D02*
X0234955Y0318036D01*
X0234855Y0317995D02*
X0236500Y0318676D01*
X0237759Y0319935D01*
X0238440Y0321580D01*
X0238440Y0323360D01*
X0237759Y0325005D01*
X0236500Y0326264D01*
X0234855Y0326945D01*
X0233075Y0326945D01*
X0231430Y0326264D01*
X0230172Y0325005D01*
X0229490Y0323360D01*
X0229490Y0321580D01*
X0230172Y0319935D01*
X0231430Y0318676D01*
X0233075Y0317995D01*
X0234855Y0317995D01*
X0234855Y0316945D02*
X0233075Y0316945D01*
X0231430Y0316264D01*
X0230172Y0315005D01*
X0229490Y0313360D01*
X0229490Y0311580D01*
X0230172Y0309935D01*
X0231430Y0308676D01*
X0233075Y0307995D01*
X0234855Y0307995D01*
X0236500Y0308676D01*
X0237759Y0309935D01*
X0238440Y0311580D01*
X0238440Y0313360D01*
X0237759Y0315005D01*
X0236500Y0316264D01*
X0234855Y0316945D01*
X0236080Y0316437D02*
X0241850Y0316437D01*
X0240103Y0314839D02*
X0237828Y0314839D01*
X0238440Y0313240D02*
X0239490Y0313240D01*
X0239490Y0311642D02*
X0238440Y0311642D01*
X0237804Y0310043D02*
X0240127Y0310043D01*
X0241989Y0308445D02*
X0235942Y0308445D01*
X0231989Y0308445D02*
X0225942Y0308445D01*
X0226500Y0308676D02*
X0227759Y0309935D01*
X0228440Y0311580D01*
X0228440Y0313360D01*
X0227759Y0315005D01*
X0226500Y0316264D01*
X0224855Y0316945D01*
X0223075Y0316945D01*
X0221430Y0316264D01*
X0220172Y0315005D01*
X0219490Y0313360D01*
X0219490Y0311580D01*
X0220172Y0309935D01*
X0221430Y0308676D01*
X0223075Y0307995D01*
X0224855Y0307995D01*
X0226500Y0308676D01*
X0227804Y0310043D02*
X0230127Y0310043D01*
X0229490Y0311642D02*
X0228440Y0311642D01*
X0228440Y0313240D02*
X0229490Y0313240D01*
X0230103Y0314839D02*
X0227828Y0314839D01*
X0226080Y0316437D02*
X0231850Y0316437D01*
X0232976Y0318036D02*
X0224955Y0318036D01*
X0224855Y0317995D02*
X0226500Y0318676D01*
X0227759Y0319935D01*
X0228440Y0321580D01*
X0228440Y0323360D01*
X0227759Y0325005D01*
X0226500Y0326264D01*
X0224855Y0326945D01*
X0223075Y0326945D01*
X0221430Y0326264D01*
X0220172Y0325005D01*
X0219490Y0323360D01*
X0219490Y0321580D01*
X0220172Y0319935D01*
X0221430Y0318676D01*
X0223075Y0317995D01*
X0224855Y0317995D01*
X0222976Y0318036D02*
X0214955Y0318036D01*
X0214855Y0317995D02*
X0216500Y0318676D01*
X0217759Y0319935D01*
X0218440Y0321580D01*
X0218440Y0323360D01*
X0217759Y0325005D01*
X0216500Y0326264D01*
X0214855Y0326945D01*
X0213075Y0326945D01*
X0211430Y0326264D01*
X0210172Y0325005D01*
X0209490Y0323360D01*
X0209490Y0321580D01*
X0210172Y0319935D01*
X0211430Y0318676D01*
X0213075Y0317995D01*
X0214855Y0317995D01*
X0214855Y0316945D02*
X0213075Y0316945D01*
X0211430Y0316264D01*
X0210172Y0315005D01*
X0209490Y0313360D01*
X0209490Y0311580D01*
X0210172Y0309935D01*
X0211430Y0308676D01*
X0213075Y0307995D01*
X0214855Y0307995D01*
X0216500Y0308676D01*
X0217759Y0309935D01*
X0218440Y0311580D01*
X0218440Y0313360D01*
X0217759Y0315005D01*
X0216500Y0316264D01*
X0214855Y0316945D01*
X0216080Y0316437D02*
X0221850Y0316437D01*
X0220103Y0314839D02*
X0217828Y0314839D01*
X0218440Y0313240D02*
X0219490Y0313240D01*
X0219490Y0311642D02*
X0218440Y0311642D01*
X0217804Y0310043D02*
X0220127Y0310043D01*
X0221989Y0308445D02*
X0215942Y0308445D01*
X0211989Y0308445D02*
X0205942Y0308445D01*
X0206500Y0308676D02*
X0207759Y0309935D01*
X0208440Y0311580D01*
X0208440Y0313360D01*
X0207759Y0315005D01*
X0206500Y0316264D01*
X0204855Y0316945D01*
X0203075Y0316945D01*
X0201430Y0316264D01*
X0200172Y0315005D01*
X0199490Y0313360D01*
X0199490Y0311580D01*
X0200172Y0309935D01*
X0201430Y0308676D01*
X0203075Y0307995D01*
X0204855Y0307995D01*
X0206500Y0308676D01*
X0207804Y0310043D02*
X0210127Y0310043D01*
X0209490Y0311642D02*
X0208440Y0311642D01*
X0208440Y0313240D02*
X0209490Y0313240D01*
X0210103Y0314839D02*
X0207828Y0314839D01*
X0206080Y0316437D02*
X0211850Y0316437D01*
X0212976Y0318036D02*
X0204955Y0318036D01*
X0204855Y0317995D02*
X0206500Y0318676D01*
X0207759Y0319935D01*
X0208440Y0321580D01*
X0208440Y0323360D01*
X0207759Y0325005D01*
X0206500Y0326264D01*
X0204855Y0326945D01*
X0203075Y0326945D01*
X0201430Y0326264D01*
X0200172Y0325005D01*
X0199490Y0323360D01*
X0199490Y0321580D01*
X0200172Y0319935D01*
X0201430Y0318676D01*
X0203075Y0317995D01*
X0204855Y0317995D01*
X0202976Y0318036D02*
X0194955Y0318036D01*
X0194855Y0317995D02*
X0196500Y0318676D01*
X0197759Y0319935D01*
X0198440Y0321580D01*
X0198440Y0323360D01*
X0197759Y0325005D01*
X0196500Y0326264D01*
X0194855Y0326945D01*
X0193075Y0326945D01*
X0191430Y0326264D01*
X0190172Y0325005D01*
X0189490Y0323360D01*
X0189490Y0321580D01*
X0190172Y0319935D01*
X0191430Y0318676D01*
X0193075Y0317995D01*
X0194855Y0317995D01*
X0194855Y0316945D02*
X0193075Y0316945D01*
X0191430Y0316264D01*
X0190172Y0315005D01*
X0189490Y0313360D01*
X0189490Y0311580D01*
X0190172Y0309935D01*
X0191430Y0308676D01*
X0193075Y0307995D01*
X0194855Y0307995D01*
X0196500Y0308676D01*
X0197759Y0309935D01*
X0198440Y0311580D01*
X0198440Y0313360D01*
X0197759Y0315005D01*
X0196500Y0316264D01*
X0194855Y0316945D01*
X0196080Y0316437D02*
X0201850Y0316437D01*
X0200103Y0314839D02*
X0197828Y0314839D01*
X0198440Y0313240D02*
X0199490Y0313240D01*
X0199490Y0311642D02*
X0198440Y0311642D01*
X0197804Y0310043D02*
X0200127Y0310043D01*
X0201989Y0308445D02*
X0195942Y0308445D01*
X0191989Y0308445D02*
X0185942Y0308445D01*
X0186500Y0308676D02*
X0184855Y0307995D01*
X0183075Y0307995D01*
X0181430Y0308676D01*
X0180172Y0309935D01*
X0179490Y0311580D01*
X0179490Y0313360D01*
X0180172Y0315005D01*
X0181430Y0316264D01*
X0183075Y0316945D01*
X0184855Y0316945D01*
X0186500Y0316264D01*
X0187759Y0315005D01*
X0188440Y0313360D01*
X0188440Y0311580D01*
X0187759Y0309935D01*
X0186500Y0308676D01*
X0187804Y0310043D02*
X0190127Y0310043D01*
X0189490Y0311642D02*
X0188440Y0311642D01*
X0188440Y0313240D02*
X0189490Y0313240D01*
X0190103Y0314839D02*
X0187828Y0314839D01*
X0186080Y0316437D02*
X0191850Y0316437D01*
X0192976Y0318036D02*
X0184955Y0318036D01*
X0184855Y0317995D02*
X0186500Y0318676D01*
X0187759Y0319935D01*
X0188440Y0321580D01*
X0188440Y0323360D01*
X0187759Y0325005D01*
X0186500Y0326264D01*
X0184855Y0326945D01*
X0183075Y0326945D01*
X0181430Y0326264D01*
X0180172Y0325005D01*
X0179490Y0323360D01*
X0179490Y0321580D01*
X0180172Y0319935D01*
X0181430Y0318676D01*
X0183075Y0317995D01*
X0184855Y0317995D01*
X0182976Y0318036D02*
X0174955Y0318036D01*
X0174855Y0317995D02*
X0176500Y0318676D01*
X0177759Y0319935D01*
X0178440Y0321580D01*
X0178440Y0323360D01*
X0177759Y0325005D01*
X0176500Y0326264D01*
X0174855Y0326945D01*
X0173075Y0326945D01*
X0171430Y0326264D01*
X0170172Y0325005D01*
X0169490Y0323360D01*
X0169490Y0321580D01*
X0170172Y0319935D01*
X0171430Y0318676D01*
X0173075Y0317995D01*
X0174855Y0317995D01*
X0174855Y0316945D02*
X0173075Y0316945D01*
X0171430Y0316264D01*
X0170172Y0315005D01*
X0169490Y0313360D01*
X0169490Y0311580D01*
X0170172Y0309935D01*
X0171430Y0308676D01*
X0173075Y0307995D01*
X0174855Y0307995D01*
X0176500Y0308676D01*
X0177759Y0309935D01*
X0178440Y0311580D01*
X0178440Y0313360D01*
X0177759Y0315005D01*
X0176500Y0316264D01*
X0174855Y0316945D01*
X0176080Y0316437D02*
X0181850Y0316437D01*
X0180103Y0314839D02*
X0177828Y0314839D01*
X0178440Y0313240D02*
X0179490Y0313240D01*
X0179490Y0311642D02*
X0178440Y0311642D01*
X0177804Y0310043D02*
X0180127Y0310043D01*
X0181989Y0308445D02*
X0175942Y0308445D01*
X0171989Y0308445D02*
X0165942Y0308445D01*
X0166500Y0308676D02*
X0167759Y0309935D01*
X0168440Y0311580D01*
X0168440Y0313360D01*
X0167759Y0315005D01*
X0166500Y0316264D01*
X0164855Y0316945D01*
X0163075Y0316945D01*
X0161430Y0316264D01*
X0160172Y0315005D01*
X0159490Y0313360D01*
X0159490Y0311580D01*
X0160172Y0309935D01*
X0161430Y0308676D01*
X0163075Y0307995D01*
X0164855Y0307995D01*
X0166500Y0308676D01*
X0167804Y0310043D02*
X0170127Y0310043D01*
X0169490Y0311642D02*
X0168440Y0311642D01*
X0168440Y0313240D02*
X0169490Y0313240D01*
X0170103Y0314839D02*
X0167828Y0314839D01*
X0166080Y0316437D02*
X0171850Y0316437D01*
X0172976Y0318036D02*
X0164955Y0318036D01*
X0164855Y0317995D02*
X0166500Y0318676D01*
X0167759Y0319935D01*
X0168440Y0321580D01*
X0168440Y0323360D01*
X0167759Y0325005D01*
X0166500Y0326264D01*
X0164855Y0326945D01*
X0163075Y0326945D01*
X0161430Y0326264D01*
X0160172Y0325005D01*
X0159490Y0323360D01*
X0159490Y0321580D01*
X0160172Y0319935D01*
X0161430Y0318676D01*
X0163075Y0317995D01*
X0164855Y0317995D01*
X0162976Y0318036D02*
X0154955Y0318036D01*
X0154855Y0317995D02*
X0156500Y0318676D01*
X0157759Y0319935D01*
X0158440Y0321580D01*
X0158440Y0323360D01*
X0157759Y0325005D01*
X0156500Y0326264D01*
X0154855Y0326945D01*
X0153075Y0326945D01*
X0151430Y0326264D01*
X0150172Y0325005D01*
X0149490Y0323360D01*
X0149490Y0321580D01*
X0150172Y0319935D01*
X0151430Y0318676D01*
X0153075Y0317995D01*
X0154855Y0317995D01*
X0154855Y0316945D02*
X0153075Y0316945D01*
X0151430Y0316264D01*
X0150172Y0315005D01*
X0149490Y0313360D01*
X0149490Y0311580D01*
X0150172Y0309935D01*
X0151430Y0308676D01*
X0153075Y0307995D01*
X0154855Y0307995D01*
X0156500Y0308676D01*
X0157759Y0309935D01*
X0158440Y0311580D01*
X0158440Y0313360D01*
X0157759Y0315005D01*
X0156500Y0316264D01*
X0154855Y0316945D01*
X0156080Y0316437D02*
X0161850Y0316437D01*
X0160103Y0314839D02*
X0157828Y0314839D01*
X0158440Y0313240D02*
X0159490Y0313240D01*
X0159490Y0311642D02*
X0158440Y0311642D01*
X0157804Y0310043D02*
X0160127Y0310043D01*
X0161989Y0308445D02*
X0155942Y0308445D01*
X0151989Y0308445D02*
X0145942Y0308445D01*
X0146500Y0308676D02*
X0147759Y0309935D01*
X0148440Y0311580D01*
X0148440Y0313360D01*
X0147759Y0315005D01*
X0146500Y0316264D01*
X0144855Y0316945D01*
X0143075Y0316945D01*
X0141430Y0316264D01*
X0140172Y0315005D01*
X0139490Y0313360D01*
X0139490Y0311580D01*
X0140172Y0309935D01*
X0141430Y0308676D01*
X0143075Y0307995D01*
X0144855Y0307995D01*
X0146500Y0308676D01*
X0147804Y0310043D02*
X0150127Y0310043D01*
X0149490Y0311642D02*
X0148440Y0311642D01*
X0148440Y0313240D02*
X0149490Y0313240D01*
X0150103Y0314839D02*
X0147828Y0314839D01*
X0146080Y0316437D02*
X0151850Y0316437D01*
X0152976Y0318036D02*
X0144955Y0318036D01*
X0144855Y0317995D02*
X0146500Y0318676D01*
X0147759Y0319935D01*
X0148440Y0321580D01*
X0148440Y0323360D01*
X0147759Y0325005D01*
X0146500Y0326264D01*
X0144855Y0326945D01*
X0143075Y0326945D01*
X0141430Y0326264D01*
X0140172Y0325005D01*
X0139490Y0323360D01*
X0139490Y0321580D01*
X0140172Y0319935D01*
X0141430Y0318676D01*
X0143075Y0317995D01*
X0144855Y0317995D01*
X0142976Y0318036D02*
X0134955Y0318036D01*
X0134855Y0317995D02*
X0136500Y0318676D01*
X0137759Y0319935D01*
X0138440Y0321580D01*
X0138440Y0323360D01*
X0137759Y0325005D01*
X0136500Y0326264D01*
X0134855Y0326945D01*
X0133075Y0326945D01*
X0131430Y0326264D01*
X0130172Y0325005D01*
X0129490Y0323360D01*
X0129490Y0321580D01*
X0130172Y0319935D01*
X0131430Y0318676D01*
X0133075Y0317995D01*
X0134855Y0317995D01*
X0134855Y0316945D02*
X0133075Y0316945D01*
X0131430Y0316264D01*
X0130172Y0315005D01*
X0129490Y0313360D01*
X0129490Y0311580D01*
X0130172Y0309935D01*
X0131430Y0308676D01*
X0133075Y0307995D01*
X0134855Y0307995D01*
X0136500Y0308676D01*
X0137759Y0309935D01*
X0138440Y0311580D01*
X0138440Y0313360D01*
X0137759Y0315005D01*
X0136500Y0316264D01*
X0134855Y0316945D01*
X0136080Y0316437D02*
X0141850Y0316437D01*
X0140103Y0314839D02*
X0137828Y0314839D01*
X0138440Y0313240D02*
X0139490Y0313240D01*
X0139490Y0311642D02*
X0138440Y0311642D01*
X0137804Y0310043D02*
X0140127Y0310043D01*
X0141989Y0308445D02*
X0135942Y0308445D01*
X0131989Y0308445D02*
X0125942Y0308445D01*
X0126500Y0308676D02*
X0127759Y0309935D01*
X0128440Y0311580D01*
X0128440Y0313360D01*
X0127759Y0315005D01*
X0126500Y0316264D01*
X0124855Y0316945D01*
X0123075Y0316945D01*
X0121430Y0316264D01*
X0120172Y0315005D01*
X0119490Y0313360D01*
X0119490Y0311580D01*
X0120172Y0309935D01*
X0121430Y0308676D01*
X0123075Y0307995D01*
X0124855Y0307995D01*
X0126500Y0308676D01*
X0127804Y0310043D02*
X0130127Y0310043D01*
X0129490Y0311642D02*
X0128440Y0311642D01*
X0128440Y0313240D02*
X0129490Y0313240D01*
X0130103Y0314839D02*
X0127828Y0314839D01*
X0126080Y0316437D02*
X0131850Y0316437D01*
X0132976Y0318036D02*
X0125448Y0318036D01*
X0125760Y0318137D02*
X0126416Y0318471D01*
X0127011Y0318904D01*
X0127531Y0319424D01*
X0127964Y0320020D01*
X0128298Y0320675D01*
X0128525Y0321375D01*
X0128640Y0322102D01*
X0128640Y0322332D01*
X0124103Y0322332D01*
X0124103Y0317795D01*
X0124333Y0317795D01*
X0125060Y0317910D01*
X0125760Y0318137D01*
X0124103Y0318036D02*
X0123828Y0318036D01*
X0123828Y0317795D02*
X0123828Y0322332D01*
X0124103Y0322332D01*
X0124103Y0322607D01*
X0128640Y0322607D01*
X0128640Y0322838D01*
X0128525Y0323565D01*
X0128298Y0324264D01*
X0127964Y0324920D01*
X0127531Y0325515D01*
X0127011Y0326036D01*
X0126416Y0326468D01*
X0125760Y0326802D01*
X0125060Y0327030D01*
X0124333Y0327145D01*
X0124103Y0327145D01*
X0124103Y0322607D01*
X0123828Y0322607D01*
X0123828Y0322332D01*
X0119290Y0322332D01*
X0119290Y0322102D01*
X0119405Y0321375D01*
X0119633Y0320675D01*
X0119967Y0320020D01*
X0120399Y0319424D01*
X0120920Y0318904D01*
X0121515Y0318471D01*
X0122171Y0318137D01*
X0122871Y0317910D01*
X0123597Y0317795D01*
X0123828Y0317795D01*
X0122483Y0318036D02*
X0114955Y0318036D01*
X0114855Y0317995D02*
X0116500Y0318676D01*
X0117759Y0319935D01*
X0118440Y0321580D01*
X0118440Y0323360D01*
X0117759Y0325005D01*
X0116500Y0326264D01*
X0114855Y0326945D01*
X0113075Y0326945D01*
X0111430Y0326264D01*
X0110172Y0325005D01*
X0109490Y0323360D01*
X0109490Y0321580D01*
X0110172Y0319935D01*
X0111430Y0318676D01*
X0113075Y0317995D01*
X0114855Y0317995D01*
X0115060Y0317030D02*
X0114333Y0317145D01*
X0114103Y0317145D01*
X0114103Y0312607D01*
X0118640Y0312607D01*
X0118640Y0312838D01*
X0118525Y0313565D01*
X0118298Y0314264D01*
X0117964Y0314920D01*
X0117531Y0315515D01*
X0117011Y0316036D01*
X0116416Y0316468D01*
X0115760Y0316802D01*
X0115060Y0317030D01*
X0114103Y0316437D02*
X0113828Y0316437D01*
X0113828Y0317145D02*
X0113597Y0317145D01*
X0112871Y0317030D01*
X0112171Y0316802D01*
X0111515Y0316468D01*
X0110920Y0316036D01*
X0110399Y0315515D01*
X0109967Y0314920D01*
X0109633Y0314264D01*
X0109405Y0313565D01*
X0109290Y0312838D01*
X0109290Y0312607D01*
X0113828Y0312607D01*
X0113828Y0312332D01*
X0114103Y0312332D01*
X0114103Y0307795D01*
X0114333Y0307795D01*
X0115060Y0307910D01*
X0115760Y0308137D01*
X0116416Y0308471D01*
X0117011Y0308904D01*
X0117531Y0309424D01*
X0117964Y0310020D01*
X0118298Y0310675D01*
X0118525Y0311375D01*
X0118640Y0312102D01*
X0118640Y0312332D01*
X0114103Y0312332D01*
X0114103Y0312607D01*
X0113828Y0312607D01*
X0113828Y0317145D01*
X0112976Y0318036D02*
X0105448Y0318036D01*
X0105760Y0318137D02*
X0106416Y0318471D01*
X0107011Y0318904D01*
X0107531Y0319424D01*
X0107964Y0320020D01*
X0108298Y0320675D01*
X0108525Y0321375D01*
X0108640Y0322102D01*
X0108640Y0322332D01*
X0104103Y0322332D01*
X0104103Y0317795D01*
X0104333Y0317795D01*
X0105060Y0317910D01*
X0105760Y0318137D01*
X0104855Y0316945D02*
X0103075Y0316945D01*
X0101430Y0316264D01*
X0100172Y0315005D01*
X0099490Y0313360D01*
X0099490Y0311580D01*
X0100172Y0309935D01*
X0101430Y0308676D01*
X0103075Y0307995D01*
X0104855Y0307995D01*
X0106500Y0308676D01*
X0107759Y0309935D01*
X0108440Y0311580D01*
X0108440Y0313360D01*
X0107759Y0315005D01*
X0106500Y0316264D01*
X0104855Y0316945D01*
X0104103Y0318036D02*
X0103828Y0318036D01*
X0103828Y0317795D02*
X0103828Y0322332D01*
X0104103Y0322332D01*
X0104103Y0322607D01*
X0108640Y0322607D01*
X0108640Y0322838D01*
X0108525Y0323565D01*
X0108298Y0324264D01*
X0107964Y0324920D01*
X0107531Y0325515D01*
X0107011Y0326036D01*
X0106416Y0326468D01*
X0105760Y0326802D01*
X0105060Y0327030D01*
X0104333Y0327145D01*
X0104103Y0327145D01*
X0104103Y0322607D01*
X0103828Y0322607D01*
X0103828Y0322332D01*
X0099290Y0322332D01*
X0099290Y0322102D01*
X0099405Y0321375D01*
X0099633Y0320675D01*
X0099967Y0320020D01*
X0100399Y0319424D01*
X0100920Y0318904D01*
X0101515Y0318471D01*
X0102171Y0318137D01*
X0102871Y0317910D01*
X0103597Y0317795D01*
X0103828Y0317795D01*
X0102483Y0318036D02*
X0094955Y0318036D01*
X0094855Y0317995D02*
X0096500Y0318676D01*
X0097759Y0319935D01*
X0098440Y0321580D01*
X0098440Y0323360D01*
X0097759Y0325005D01*
X0096500Y0326264D01*
X0094855Y0326945D01*
X0093075Y0326945D01*
X0091430Y0326264D01*
X0090172Y0325005D01*
X0089490Y0323360D01*
X0089490Y0321580D01*
X0090172Y0319935D01*
X0091430Y0318676D01*
X0093075Y0317995D01*
X0094855Y0317995D01*
X0095060Y0317030D02*
X0094333Y0317145D01*
X0094103Y0317145D01*
X0094103Y0312607D01*
X0098640Y0312607D01*
X0098640Y0312838D01*
X0098525Y0313565D01*
X0098298Y0314264D01*
X0097964Y0314920D01*
X0097531Y0315515D01*
X0097011Y0316036D01*
X0096416Y0316468D01*
X0095760Y0316802D01*
X0095060Y0317030D01*
X0094103Y0316437D02*
X0093828Y0316437D01*
X0093828Y0317145D02*
X0093597Y0317145D01*
X0092871Y0317030D01*
X0092171Y0316802D01*
X0091515Y0316468D01*
X0090920Y0316036D01*
X0090399Y0315515D01*
X0089967Y0314920D01*
X0089633Y0314264D01*
X0089405Y0313565D01*
X0089290Y0312838D01*
X0089290Y0312607D01*
X0093828Y0312607D01*
X0093828Y0312332D01*
X0094103Y0312332D01*
X0094103Y0307795D01*
X0094333Y0307795D01*
X0095060Y0307910D01*
X0095760Y0308137D01*
X0096416Y0308471D01*
X0097011Y0308904D01*
X0097531Y0309424D01*
X0097964Y0310020D01*
X0098298Y0310675D01*
X0098525Y0311375D01*
X0098640Y0312102D01*
X0098640Y0312332D01*
X0094103Y0312332D01*
X0094103Y0312607D01*
X0093828Y0312607D01*
X0093828Y0317145D01*
X0092976Y0318036D02*
X0084955Y0318036D01*
X0084855Y0317995D02*
X0086500Y0318676D01*
X0087759Y0319935D01*
X0088440Y0321580D01*
X0088440Y0323360D01*
X0087759Y0325005D01*
X0086500Y0326264D01*
X0084855Y0326945D01*
X0083075Y0326945D01*
X0081430Y0326264D01*
X0080172Y0325005D01*
X0079490Y0323360D01*
X0079490Y0321580D01*
X0080172Y0319935D01*
X0081430Y0318676D01*
X0083075Y0317995D01*
X0084855Y0317995D01*
X0084855Y0316945D02*
X0083075Y0316945D01*
X0081430Y0316264D01*
X0080172Y0315005D01*
X0079490Y0313360D01*
X0079490Y0311580D01*
X0080172Y0309935D01*
X0081430Y0308676D01*
X0083075Y0307995D01*
X0084855Y0307995D01*
X0086500Y0308676D01*
X0087759Y0309935D01*
X0088440Y0311580D01*
X0088440Y0313360D01*
X0087759Y0315005D01*
X0086500Y0316264D01*
X0084855Y0316945D01*
X0086080Y0316437D02*
X0091473Y0316437D01*
X0089926Y0314839D02*
X0087828Y0314839D01*
X0088440Y0313240D02*
X0089354Y0313240D01*
X0089290Y0312332D02*
X0089290Y0312102D01*
X0089405Y0311375D01*
X0089633Y0310675D01*
X0089967Y0310020D01*
X0090399Y0309424D01*
X0090920Y0308904D01*
X0091515Y0308471D01*
X0092171Y0308137D01*
X0092871Y0307910D01*
X0093597Y0307795D01*
X0093828Y0307795D01*
X0093828Y0312332D01*
X0089290Y0312332D01*
X0089363Y0311642D02*
X0088440Y0311642D01*
X0087804Y0310043D02*
X0089955Y0310043D01*
X0091567Y0308445D02*
X0085942Y0308445D01*
X0081989Y0308445D02*
X0075942Y0308445D01*
X0076500Y0308676D02*
X0077759Y0309935D01*
X0078440Y0311580D01*
X0078440Y0313360D01*
X0077759Y0315005D01*
X0076500Y0316264D01*
X0074855Y0316945D01*
X0073075Y0316945D01*
X0071430Y0316264D01*
X0070172Y0315005D01*
X0069490Y0313360D01*
X0069490Y0311580D01*
X0070172Y0309935D01*
X0071430Y0308676D01*
X0073075Y0307995D01*
X0074855Y0307995D01*
X0076500Y0308676D01*
X0077804Y0310043D02*
X0080127Y0310043D01*
X0079490Y0311642D02*
X0078440Y0311642D01*
X0078440Y0313240D02*
X0079490Y0313240D01*
X0080103Y0314839D02*
X0077828Y0314839D01*
X0076080Y0316437D02*
X0081850Y0316437D01*
X0082976Y0318036D02*
X0074955Y0318036D01*
X0074855Y0317995D02*
X0076500Y0318676D01*
X0077759Y0319935D01*
X0078440Y0321580D01*
X0078440Y0323360D01*
X0077759Y0325005D01*
X0076500Y0326264D01*
X0074855Y0326945D01*
X0073075Y0326945D01*
X0071430Y0326264D01*
X0070172Y0325005D01*
X0069490Y0323360D01*
X0069490Y0321580D01*
X0070172Y0319935D01*
X0071430Y0318676D01*
X0073075Y0317995D01*
X0074855Y0317995D01*
X0072976Y0318036D02*
X0064955Y0318036D01*
X0064855Y0317995D02*
X0066500Y0318676D01*
X0067759Y0319935D01*
X0068440Y0321580D01*
X0068440Y0323360D01*
X0067759Y0325005D01*
X0066500Y0326264D01*
X0064855Y0326945D01*
X0063075Y0326945D01*
X0061430Y0326264D01*
X0060172Y0325005D01*
X0059490Y0323360D01*
X0059490Y0321580D01*
X0060172Y0319935D01*
X0061430Y0318676D01*
X0063075Y0317995D01*
X0064855Y0317995D01*
X0064855Y0316945D02*
X0063075Y0316945D01*
X0061430Y0316264D01*
X0060172Y0315005D01*
X0059490Y0313360D01*
X0059490Y0311580D01*
X0060172Y0309935D01*
X0061430Y0308676D01*
X0063075Y0307995D01*
X0064855Y0307995D01*
X0066500Y0308676D01*
X0067759Y0309935D01*
X0068440Y0311580D01*
X0068440Y0313360D01*
X0067759Y0315005D01*
X0066500Y0316264D01*
X0064855Y0316945D01*
X0066080Y0316437D02*
X0071850Y0316437D01*
X0070103Y0314839D02*
X0067828Y0314839D01*
X0068440Y0313240D02*
X0069490Y0313240D01*
X0069490Y0311642D02*
X0068440Y0311642D01*
X0067804Y0310043D02*
X0070127Y0310043D01*
X0071989Y0308445D02*
X0065942Y0308445D01*
X0061989Y0308445D02*
X0055942Y0308445D01*
X0056500Y0308676D02*
X0057759Y0309935D01*
X0058440Y0311580D01*
X0058440Y0313360D01*
X0057759Y0315005D01*
X0056500Y0316264D01*
X0054855Y0316945D01*
X0053075Y0316945D01*
X0051430Y0316264D01*
X0050172Y0315005D01*
X0049490Y0313360D01*
X0049490Y0311580D01*
X0050172Y0309935D01*
X0051430Y0308676D01*
X0053075Y0307995D01*
X0054855Y0307995D01*
X0056500Y0308676D01*
X0057804Y0310043D02*
X0060127Y0310043D01*
X0059490Y0311642D02*
X0058440Y0311642D01*
X0058440Y0313240D02*
X0059490Y0313240D01*
X0060103Y0314839D02*
X0057828Y0314839D01*
X0056080Y0316437D02*
X0061850Y0316437D01*
X0062976Y0318036D02*
X0054955Y0318036D01*
X0054855Y0317995D02*
X0056500Y0318676D01*
X0057759Y0319935D01*
X0058440Y0321580D01*
X0058440Y0323360D01*
X0057759Y0325005D01*
X0056500Y0326264D01*
X0054855Y0326945D01*
X0053075Y0326945D01*
X0051430Y0326264D01*
X0050172Y0325005D01*
X0049490Y0323360D01*
X0049490Y0321580D01*
X0050172Y0319935D01*
X0051430Y0318676D01*
X0053075Y0317995D01*
X0054855Y0317995D01*
X0052976Y0318036D02*
X0006600Y0318036D01*
X0006600Y0319634D02*
X0050472Y0319634D01*
X0049634Y0321233D02*
X0006600Y0321233D01*
X0006600Y0322831D02*
X0049490Y0322831D01*
X0049934Y0324430D02*
X0006600Y0324430D01*
X0006600Y0326028D02*
X0051195Y0326028D01*
X0051430Y0328676D02*
X0053075Y0327995D01*
X0054855Y0327995D01*
X0056500Y0328676D01*
X0057759Y0329935D01*
X0058440Y0331580D01*
X0058440Y0333360D01*
X0057759Y0335005D01*
X0056500Y0336264D01*
X0054855Y0336945D01*
X0053075Y0336945D01*
X0051430Y0336264D01*
X0050172Y0335005D01*
X0049490Y0333360D01*
X0049490Y0331580D01*
X0050172Y0329935D01*
X0051430Y0328676D01*
X0050881Y0329226D02*
X0006600Y0329226D01*
X0006600Y0330824D02*
X0049803Y0330824D01*
X0049490Y0332423D02*
X0006600Y0332423D01*
X0006600Y0334021D02*
X0019526Y0334021D01*
X0018181Y0334578D02*
X0021602Y0333161D01*
X0025305Y0333161D01*
X0028726Y0334578D01*
X0031345Y0337197D01*
X0032762Y0340618D01*
X0032762Y0344321D01*
X0031345Y0347743D01*
X0028726Y0350361D01*
X0025305Y0351778D01*
X0021602Y0351778D01*
X0018181Y0350361D01*
X0015562Y0347743D01*
X0014145Y0344321D01*
X0014145Y0340618D01*
X0015562Y0337197D01*
X0018181Y0334578D01*
X0017139Y0335620D02*
X0006600Y0335620D01*
X0006600Y0337218D02*
X0015553Y0337218D01*
X0014891Y0338817D02*
X0006600Y0338817D01*
X0006600Y0340415D02*
X0014229Y0340415D01*
X0014145Y0342014D02*
X0006600Y0342014D01*
X0007762Y0343612D02*
X0014145Y0343612D01*
X0014513Y0345211D02*
X0009361Y0345211D01*
X0010959Y0346809D02*
X0015175Y0346809D01*
X0016227Y0348408D02*
X0012558Y0348408D01*
X0014156Y0350006D02*
X0017825Y0350006D01*
X0015755Y0351605D02*
X0021182Y0351605D01*
X0018952Y0354802D02*
X0338979Y0354802D01*
X0337381Y0356400D02*
X0020550Y0356400D01*
X0022149Y0357999D02*
X0335782Y0357999D01*
X0336329Y0351778D02*
X0332626Y0351778D01*
X0329204Y0350361D01*
X0326586Y0347743D01*
X0325169Y0344321D01*
X0325169Y0340618D01*
X0326586Y0337197D01*
X0329204Y0334578D01*
X0332626Y0333161D01*
X0336329Y0333161D01*
X0339750Y0334578D01*
X0342369Y0337197D01*
X0343786Y0340618D01*
X0343786Y0344321D01*
X0342369Y0347743D01*
X0339750Y0350361D01*
X0336329Y0351778D01*
X0336748Y0351605D02*
X0342176Y0351605D01*
X0340578Y0353203D02*
X0017353Y0353203D01*
X0025725Y0351605D02*
X0332206Y0351605D01*
X0328849Y0350006D02*
X0029082Y0350006D01*
X0030680Y0348408D02*
X0327251Y0348408D01*
X0326199Y0346809D02*
X0305183Y0346809D01*
X0304855Y0346945D02*
X0303075Y0346945D01*
X0301430Y0346264D01*
X0300172Y0345005D01*
X0299490Y0343360D01*
X0299490Y0341580D01*
X0300172Y0339935D01*
X0301430Y0338676D01*
X0303075Y0337995D01*
X0304855Y0337995D01*
X0306500Y0338676D01*
X0307759Y0339935D01*
X0308440Y0341580D01*
X0308440Y0343360D01*
X0307759Y0345005D01*
X0306500Y0346264D01*
X0304855Y0346945D01*
X0302748Y0346809D02*
X0295183Y0346809D01*
X0294855Y0346945D02*
X0293075Y0346945D01*
X0291430Y0346264D01*
X0290172Y0345005D01*
X0289490Y0343360D01*
X0289490Y0341580D01*
X0290172Y0339935D01*
X0291430Y0338676D01*
X0293075Y0337995D01*
X0294855Y0337995D01*
X0296500Y0338676D01*
X0297759Y0339935D01*
X0298440Y0341580D01*
X0298440Y0343360D01*
X0297759Y0345005D01*
X0296500Y0346264D01*
X0294855Y0346945D01*
X0292748Y0346809D02*
X0285183Y0346809D01*
X0284855Y0346945D02*
X0283075Y0346945D01*
X0281430Y0346264D01*
X0280172Y0345005D01*
X0279490Y0343360D01*
X0279490Y0341580D01*
X0280172Y0339935D01*
X0281430Y0338676D01*
X0283075Y0337995D01*
X0284855Y0337995D01*
X0286500Y0338676D01*
X0287759Y0339935D01*
X0288440Y0341580D01*
X0288440Y0343360D01*
X0287759Y0345005D01*
X0286500Y0346264D01*
X0284855Y0346945D01*
X0282748Y0346809D02*
X0275183Y0346809D01*
X0274855Y0346945D02*
X0273075Y0346945D01*
X0271430Y0346264D01*
X0270172Y0345005D01*
X0269490Y0343360D01*
X0269490Y0341580D01*
X0270172Y0339935D01*
X0271430Y0338676D01*
X0273075Y0337995D01*
X0274855Y0337995D01*
X0276500Y0338676D01*
X0277759Y0339935D01*
X0278440Y0341580D01*
X0278440Y0343360D01*
X0277759Y0345005D01*
X0276500Y0346264D01*
X0274855Y0346945D01*
X0272748Y0346809D02*
X0265183Y0346809D01*
X0264855Y0346945D02*
X0266500Y0346264D01*
X0267759Y0345005D01*
X0268440Y0343360D01*
X0268440Y0341580D01*
X0267759Y0339935D01*
X0266500Y0338676D01*
X0264855Y0337995D01*
X0263075Y0337995D01*
X0261430Y0338676D01*
X0260172Y0339935D01*
X0259490Y0341580D01*
X0259490Y0343360D01*
X0260172Y0345005D01*
X0261430Y0346264D01*
X0263075Y0346945D01*
X0264855Y0346945D01*
X0262748Y0346809D02*
X0255183Y0346809D01*
X0254855Y0346945D02*
X0253075Y0346945D01*
X0251430Y0346264D01*
X0250172Y0345005D01*
X0249490Y0343360D01*
X0249490Y0341580D01*
X0250172Y0339935D01*
X0251430Y0338676D01*
X0253075Y0337995D01*
X0254855Y0337995D01*
X0256500Y0338676D01*
X0257759Y0339935D01*
X0258440Y0341580D01*
X0258440Y0343360D01*
X0257759Y0345005D01*
X0256500Y0346264D01*
X0254855Y0346945D01*
X0252748Y0346809D02*
X0245183Y0346809D01*
X0244855Y0346945D02*
X0243075Y0346945D01*
X0241430Y0346264D01*
X0240172Y0345005D01*
X0239490Y0343360D01*
X0239490Y0341580D01*
X0240172Y0339935D01*
X0241430Y0338676D01*
X0243075Y0337995D01*
X0244855Y0337995D01*
X0246500Y0338676D01*
X0247759Y0339935D01*
X0248440Y0341580D01*
X0248440Y0343360D01*
X0247759Y0345005D01*
X0246500Y0346264D01*
X0244855Y0346945D01*
X0242748Y0346809D02*
X0235183Y0346809D01*
X0234855Y0346945D02*
X0233075Y0346945D01*
X0231430Y0346264D01*
X0230172Y0345005D01*
X0229490Y0343360D01*
X0229490Y0341580D01*
X0230172Y0339935D01*
X0231430Y0338676D01*
X0233075Y0337995D01*
X0234855Y0337995D01*
X0236500Y0338676D01*
X0237759Y0339935D01*
X0238440Y0341580D01*
X0238440Y0343360D01*
X0237759Y0345005D01*
X0236500Y0346264D01*
X0234855Y0346945D01*
X0232748Y0346809D02*
X0225183Y0346809D01*
X0224855Y0346945D02*
X0223075Y0346945D01*
X0221430Y0346264D01*
X0220172Y0345005D01*
X0219490Y0343360D01*
X0219490Y0341580D01*
X0220172Y0339935D01*
X0221430Y0338676D01*
X0223075Y0337995D01*
X0224855Y0337995D01*
X0226500Y0338676D01*
X0227759Y0339935D01*
X0228440Y0341580D01*
X0228440Y0343360D01*
X0227759Y0345005D01*
X0226500Y0346264D01*
X0224855Y0346945D01*
X0222748Y0346809D02*
X0215183Y0346809D01*
X0214855Y0346945D02*
X0213075Y0346945D01*
X0211430Y0346264D01*
X0210172Y0345005D01*
X0209490Y0343360D01*
X0209490Y0341580D01*
X0210172Y0339935D01*
X0211430Y0338676D01*
X0213075Y0337995D01*
X0214855Y0337995D01*
X0216500Y0338676D01*
X0217759Y0339935D01*
X0218440Y0341580D01*
X0218440Y0343360D01*
X0217759Y0345005D01*
X0216500Y0346264D01*
X0214855Y0346945D01*
X0212748Y0346809D02*
X0205183Y0346809D01*
X0204855Y0346945D02*
X0203075Y0346945D01*
X0201430Y0346264D01*
X0200172Y0345005D01*
X0199490Y0343360D01*
X0199490Y0341580D01*
X0200172Y0339935D01*
X0201430Y0338676D01*
X0203075Y0337995D01*
X0204855Y0337995D01*
X0206500Y0338676D01*
X0207759Y0339935D01*
X0208440Y0341580D01*
X0208440Y0343360D01*
X0207759Y0345005D01*
X0206500Y0346264D01*
X0204855Y0346945D01*
X0202748Y0346809D02*
X0195183Y0346809D01*
X0194855Y0346945D02*
X0193075Y0346945D01*
X0191430Y0346264D01*
X0190172Y0345005D01*
X0189490Y0343360D01*
X0189490Y0341580D01*
X0190172Y0339935D01*
X0191430Y0338676D01*
X0193075Y0337995D01*
X0194855Y0337995D01*
X0196500Y0338676D01*
X0197759Y0339935D01*
X0198440Y0341580D01*
X0198440Y0343360D01*
X0197759Y0345005D01*
X0196500Y0346264D01*
X0194855Y0346945D01*
X0192748Y0346809D02*
X0185183Y0346809D01*
X0184855Y0346945D02*
X0183075Y0346945D01*
X0181430Y0346264D01*
X0180172Y0345005D01*
X0179490Y0343360D01*
X0179490Y0341580D01*
X0180172Y0339935D01*
X0181430Y0338676D01*
X0183075Y0337995D01*
X0184855Y0337995D01*
X0186500Y0338676D01*
X0187759Y0339935D01*
X0188440Y0341580D01*
X0188440Y0343360D01*
X0187759Y0345005D01*
X0186500Y0346264D01*
X0184855Y0346945D01*
X0182748Y0346809D02*
X0175183Y0346809D01*
X0174855Y0346945D02*
X0173075Y0346945D01*
X0171430Y0346264D01*
X0170172Y0345005D01*
X0169490Y0343360D01*
X0169490Y0341580D01*
X0170172Y0339935D01*
X0171430Y0338676D01*
X0173075Y0337995D01*
X0174855Y0337995D01*
X0176500Y0338676D01*
X0177759Y0339935D01*
X0178440Y0341580D01*
X0178440Y0343360D01*
X0177759Y0345005D01*
X0176500Y0346264D01*
X0174855Y0346945D01*
X0172748Y0346809D02*
X0165183Y0346809D01*
X0164855Y0346945D02*
X0163075Y0346945D01*
X0161430Y0346264D01*
X0160172Y0345005D01*
X0159490Y0343360D01*
X0159490Y0341580D01*
X0160172Y0339935D01*
X0161430Y0338676D01*
X0163075Y0337995D01*
X0164855Y0337995D01*
X0166500Y0338676D01*
X0167759Y0339935D01*
X0168440Y0341580D01*
X0168440Y0343360D01*
X0167759Y0345005D01*
X0166500Y0346264D01*
X0164855Y0346945D01*
X0162748Y0346809D02*
X0155183Y0346809D01*
X0154855Y0346945D02*
X0153075Y0346945D01*
X0151430Y0346264D01*
X0150172Y0345005D01*
X0149490Y0343360D01*
X0149490Y0341580D01*
X0150172Y0339935D01*
X0151430Y0338676D01*
X0153075Y0337995D01*
X0154855Y0337995D01*
X0156500Y0338676D01*
X0157759Y0339935D01*
X0158440Y0341580D01*
X0158440Y0343360D01*
X0157759Y0345005D01*
X0156500Y0346264D01*
X0154855Y0346945D01*
X0152748Y0346809D02*
X0145183Y0346809D01*
X0144855Y0346945D02*
X0143075Y0346945D01*
X0141430Y0346264D01*
X0140172Y0345005D01*
X0139490Y0343360D01*
X0139490Y0341580D01*
X0140172Y0339935D01*
X0141430Y0338676D01*
X0143075Y0337995D01*
X0144855Y0337995D01*
X0146500Y0338676D01*
X0147759Y0339935D01*
X0148440Y0341580D01*
X0148440Y0343360D01*
X0147759Y0345005D01*
X0146500Y0346264D01*
X0144855Y0346945D01*
X0142748Y0346809D02*
X0135183Y0346809D01*
X0134855Y0346945D02*
X0133075Y0346945D01*
X0131430Y0346264D01*
X0130172Y0345005D01*
X0129490Y0343360D01*
X0129490Y0341580D01*
X0130172Y0339935D01*
X0131430Y0338676D01*
X0133075Y0337995D01*
X0134855Y0337995D01*
X0136500Y0338676D01*
X0137759Y0339935D01*
X0138440Y0341580D01*
X0138440Y0343360D01*
X0137759Y0345005D01*
X0136500Y0346264D01*
X0134855Y0346945D01*
X0132748Y0346809D02*
X0125739Y0346809D01*
X0125760Y0346802D02*
X0125060Y0347030D01*
X0124333Y0347145D01*
X0124103Y0347145D01*
X0124103Y0342607D01*
X0128640Y0342607D01*
X0128640Y0342838D01*
X0128525Y0343565D01*
X0128298Y0344264D01*
X0127964Y0344920D01*
X0127531Y0345515D01*
X0127011Y0346036D01*
X0126416Y0346468D01*
X0125760Y0346802D01*
X0124103Y0346809D02*
X0123828Y0346809D01*
X0123828Y0347145D02*
X0123597Y0347145D01*
X0122871Y0347030D01*
X0122171Y0346802D01*
X0121515Y0346468D01*
X0120920Y0346036D01*
X0120399Y0345515D01*
X0119967Y0344920D01*
X0119633Y0344264D01*
X0119405Y0343565D01*
X0119290Y0342838D01*
X0119290Y0342607D01*
X0123828Y0342607D01*
X0123828Y0342332D01*
X0124103Y0342332D01*
X0124103Y0337795D01*
X0124333Y0337795D01*
X0125060Y0337910D01*
X0125760Y0338137D01*
X0126416Y0338471D01*
X0127011Y0338904D01*
X0127531Y0339424D01*
X0127964Y0340020D01*
X0128298Y0340675D01*
X0128525Y0341375D01*
X0128640Y0342102D01*
X0128640Y0342332D01*
X0124103Y0342332D01*
X0124103Y0342607D01*
X0123828Y0342607D01*
X0123828Y0347145D01*
X0122192Y0346809D02*
X0115183Y0346809D01*
X0114855Y0346945D02*
X0113075Y0346945D01*
X0111430Y0346264D01*
X0110172Y0345005D01*
X0109490Y0343360D01*
X0109490Y0341580D01*
X0110172Y0339935D01*
X0111430Y0338676D01*
X0113075Y0337995D01*
X0114855Y0337995D01*
X0116500Y0338676D01*
X0117759Y0339935D01*
X0118440Y0341580D01*
X0118440Y0343360D01*
X0117759Y0345005D01*
X0116500Y0346264D01*
X0114855Y0346945D01*
X0112748Y0346809D02*
X0105739Y0346809D01*
X0105760Y0346802D02*
X0105060Y0347030D01*
X0104333Y0347145D01*
X0104103Y0347145D01*
X0104103Y0342607D01*
X0108640Y0342607D01*
X0108640Y0342838D01*
X0108525Y0343565D01*
X0108298Y0344264D01*
X0107964Y0344920D01*
X0107531Y0345515D01*
X0107011Y0346036D01*
X0106416Y0346468D01*
X0105760Y0346802D01*
X0104103Y0346809D02*
X0103828Y0346809D01*
X0103828Y0347145D02*
X0103597Y0347145D01*
X0102871Y0347030D01*
X0102171Y0346802D01*
X0101515Y0346468D01*
X0100920Y0346036D01*
X0100399Y0345515D01*
X0099967Y0344920D01*
X0099633Y0344264D01*
X0099405Y0343565D01*
X0099290Y0342838D01*
X0099290Y0342607D01*
X0103828Y0342607D01*
X0103828Y0342332D01*
X0104103Y0342332D01*
X0104103Y0337795D01*
X0104333Y0337795D01*
X0105060Y0337910D01*
X0105760Y0338137D01*
X0106416Y0338471D01*
X0107011Y0338904D01*
X0107531Y0339424D01*
X0107964Y0340020D01*
X0108298Y0340675D01*
X0108525Y0341375D01*
X0108640Y0342102D01*
X0108640Y0342332D01*
X0104103Y0342332D01*
X0104103Y0342607D01*
X0103828Y0342607D01*
X0103828Y0347145D01*
X0102192Y0346809D02*
X0095183Y0346809D01*
X0094855Y0346945D02*
X0093075Y0346945D01*
X0091430Y0346264D01*
X0090172Y0345005D01*
X0089490Y0343360D01*
X0089490Y0341580D01*
X0090172Y0339935D01*
X0091430Y0338676D01*
X0093075Y0337995D01*
X0094855Y0337995D01*
X0096500Y0338676D01*
X0097759Y0339935D01*
X0098440Y0341580D01*
X0098440Y0343360D01*
X0097759Y0345005D01*
X0096500Y0346264D01*
X0094855Y0346945D01*
X0092748Y0346809D02*
X0085183Y0346809D01*
X0084855Y0346945D02*
X0083075Y0346945D01*
X0081430Y0346264D01*
X0080172Y0345005D01*
X0079490Y0343360D01*
X0079490Y0341580D01*
X0080172Y0339935D01*
X0081430Y0338676D01*
X0083075Y0337995D01*
X0084855Y0337995D01*
X0086500Y0338676D01*
X0087759Y0339935D01*
X0088440Y0341580D01*
X0088440Y0343360D01*
X0087759Y0345005D01*
X0086500Y0346264D01*
X0084855Y0346945D01*
X0082748Y0346809D02*
X0075183Y0346809D01*
X0074855Y0346945D02*
X0076500Y0346264D01*
X0077759Y0345005D01*
X0078440Y0343360D01*
X0078440Y0341580D01*
X0077759Y0339935D01*
X0076500Y0338676D01*
X0074855Y0337995D01*
X0073075Y0337995D01*
X0071430Y0338676D01*
X0070172Y0339935D01*
X0069490Y0341580D01*
X0069490Y0343360D01*
X0070172Y0345005D01*
X0071430Y0346264D01*
X0073075Y0346945D01*
X0074855Y0346945D01*
X0072748Y0346809D02*
X0065183Y0346809D01*
X0064855Y0346945D02*
X0063075Y0346945D01*
X0061430Y0346264D01*
X0060172Y0345005D01*
X0059490Y0343360D01*
X0059490Y0341580D01*
X0060172Y0339935D01*
X0061430Y0338676D01*
X0063075Y0337995D01*
X0064855Y0337995D01*
X0066500Y0338676D01*
X0067759Y0339935D01*
X0068440Y0341580D01*
X0068440Y0343360D01*
X0067759Y0345005D01*
X0066500Y0346264D01*
X0064855Y0346945D01*
X0062748Y0346809D02*
X0055183Y0346809D01*
X0054855Y0346945D02*
X0053075Y0346945D01*
X0051430Y0346264D01*
X0050172Y0345005D01*
X0049490Y0343360D01*
X0049490Y0341580D01*
X0050172Y0339935D01*
X0051430Y0338676D01*
X0053075Y0337995D01*
X0054855Y0337995D01*
X0056500Y0338676D01*
X0057759Y0339935D01*
X0058440Y0341580D01*
X0058440Y0343360D01*
X0057759Y0345005D01*
X0056500Y0346264D01*
X0054855Y0346945D01*
X0052748Y0346809D02*
X0031732Y0346809D01*
X0032394Y0345211D02*
X0050378Y0345211D01*
X0049595Y0343612D02*
X0032762Y0343612D01*
X0032762Y0342014D02*
X0049490Y0342014D01*
X0049973Y0340415D02*
X0032678Y0340415D01*
X0032016Y0338817D02*
X0051290Y0338817D01*
X0050786Y0335620D02*
X0029768Y0335620D01*
X0031354Y0337218D02*
X0326577Y0337218D01*
X0325915Y0338817D02*
X0306641Y0338817D01*
X0307958Y0340415D02*
X0325253Y0340415D01*
X0325169Y0342014D02*
X0308440Y0342014D01*
X0308336Y0343612D02*
X0325169Y0343612D01*
X0325537Y0345211D02*
X0307553Y0345211D01*
X0300378Y0345211D02*
X0297553Y0345211D01*
X0298336Y0343612D02*
X0299595Y0343612D01*
X0299490Y0342014D02*
X0298440Y0342014D01*
X0297958Y0340415D02*
X0299973Y0340415D01*
X0301290Y0338817D02*
X0296641Y0338817D01*
X0296500Y0336264D02*
X0294855Y0336945D01*
X0293075Y0336945D01*
X0291430Y0336264D01*
X0290172Y0335005D01*
X0289490Y0333360D01*
X0289490Y0331580D01*
X0290172Y0329935D01*
X0291430Y0328676D01*
X0293075Y0327995D01*
X0294855Y0327995D01*
X0296500Y0328676D01*
X0297759Y0329935D01*
X0298440Y0331580D01*
X0298440Y0333360D01*
X0297759Y0335005D01*
X0296500Y0336264D01*
X0297144Y0335620D02*
X0300786Y0335620D01*
X0300172Y0335005D02*
X0301430Y0336264D01*
X0303075Y0336945D01*
X0304855Y0336945D01*
X0306500Y0336264D01*
X0307759Y0335005D01*
X0308440Y0333360D01*
X0308440Y0331580D01*
X0307759Y0329935D01*
X0306500Y0328676D01*
X0304855Y0327995D01*
X0303075Y0327995D01*
X0301430Y0328676D01*
X0300172Y0329935D01*
X0299490Y0331580D01*
X0299490Y0333360D01*
X0300172Y0335005D01*
X0299764Y0334021D02*
X0298167Y0334021D01*
X0298440Y0332423D02*
X0299490Y0332423D01*
X0299803Y0330824D02*
X0298127Y0330824D01*
X0297050Y0329226D02*
X0300881Y0329226D01*
X0301195Y0326028D02*
X0296735Y0326028D01*
X0297997Y0324430D02*
X0299934Y0324430D01*
X0299490Y0322831D02*
X0298440Y0322831D01*
X0298297Y0321233D02*
X0299634Y0321233D01*
X0300472Y0319634D02*
X0297459Y0319634D01*
X0290472Y0319634D02*
X0287459Y0319634D01*
X0288297Y0321233D02*
X0289634Y0321233D01*
X0289490Y0322831D02*
X0288440Y0322831D01*
X0287997Y0324430D02*
X0289934Y0324430D01*
X0291195Y0326028D02*
X0286735Y0326028D01*
X0286500Y0328676D02*
X0287759Y0329935D01*
X0288440Y0331580D01*
X0288440Y0333360D01*
X0287759Y0335005D01*
X0286500Y0336264D01*
X0284855Y0336945D01*
X0283075Y0336945D01*
X0281430Y0336264D01*
X0280172Y0335005D01*
X0279490Y0333360D01*
X0279490Y0331580D01*
X0280172Y0329935D01*
X0281430Y0328676D01*
X0283075Y0327995D01*
X0284855Y0327995D01*
X0286500Y0328676D01*
X0287050Y0329226D02*
X0290881Y0329226D01*
X0289803Y0330824D02*
X0288127Y0330824D01*
X0288440Y0332423D02*
X0289490Y0332423D01*
X0289764Y0334021D02*
X0288167Y0334021D01*
X0287144Y0335620D02*
X0290786Y0335620D01*
X0291290Y0338817D02*
X0286641Y0338817D01*
X0287958Y0340415D02*
X0289973Y0340415D01*
X0289490Y0342014D02*
X0288440Y0342014D01*
X0288336Y0343612D02*
X0289595Y0343612D01*
X0290378Y0345211D02*
X0287553Y0345211D01*
X0280378Y0345211D02*
X0277553Y0345211D01*
X0278336Y0343612D02*
X0279595Y0343612D01*
X0279490Y0342014D02*
X0278440Y0342014D01*
X0277958Y0340415D02*
X0279973Y0340415D01*
X0281290Y0338817D02*
X0276641Y0338817D01*
X0276500Y0336264D02*
X0274855Y0336945D01*
X0273075Y0336945D01*
X0271430Y0336264D01*
X0270172Y0335005D01*
X0269490Y0333360D01*
X0269490Y0331580D01*
X0270172Y0329935D01*
X0271430Y0328676D01*
X0273075Y0327995D01*
X0274855Y0327995D01*
X0276500Y0328676D01*
X0277759Y0329935D01*
X0278440Y0331580D01*
X0278440Y0333360D01*
X0277759Y0335005D01*
X0276500Y0336264D01*
X0277144Y0335620D02*
X0280786Y0335620D01*
X0279764Y0334021D02*
X0278167Y0334021D01*
X0278440Y0332423D02*
X0279490Y0332423D01*
X0279803Y0330824D02*
X0278127Y0330824D01*
X0277050Y0329226D02*
X0280881Y0329226D01*
X0281195Y0326028D02*
X0276735Y0326028D01*
X0277997Y0324430D02*
X0279934Y0324430D01*
X0279490Y0322831D02*
X0278440Y0322831D01*
X0278297Y0321233D02*
X0279634Y0321233D01*
X0280472Y0319634D02*
X0277459Y0319634D01*
X0270472Y0319634D02*
X0267459Y0319634D01*
X0268297Y0321233D02*
X0269634Y0321233D01*
X0269490Y0322831D02*
X0268440Y0322831D01*
X0267997Y0324430D02*
X0269934Y0324430D01*
X0271195Y0326028D02*
X0266735Y0326028D01*
X0266500Y0328676D02*
X0267759Y0329935D01*
X0268440Y0331580D01*
X0268440Y0333360D01*
X0267759Y0335005D01*
X0266500Y0336264D01*
X0264855Y0336945D01*
X0263075Y0336945D01*
X0261430Y0336264D01*
X0260172Y0335005D01*
X0259490Y0333360D01*
X0259490Y0331580D01*
X0260172Y0329935D01*
X0261430Y0328676D01*
X0263075Y0327995D01*
X0264855Y0327995D01*
X0266500Y0328676D01*
X0267050Y0329226D02*
X0270881Y0329226D01*
X0269803Y0330824D02*
X0268127Y0330824D01*
X0268440Y0332423D02*
X0269490Y0332423D01*
X0269764Y0334021D02*
X0268167Y0334021D01*
X0267144Y0335620D02*
X0270786Y0335620D01*
X0271290Y0338817D02*
X0266641Y0338817D01*
X0267958Y0340415D02*
X0269973Y0340415D01*
X0269490Y0342014D02*
X0268440Y0342014D01*
X0268336Y0343612D02*
X0269595Y0343612D01*
X0270378Y0345211D02*
X0267553Y0345211D01*
X0260378Y0345211D02*
X0257553Y0345211D01*
X0258336Y0343612D02*
X0259595Y0343612D01*
X0259490Y0342014D02*
X0258440Y0342014D01*
X0257958Y0340415D02*
X0259973Y0340415D01*
X0261290Y0338817D02*
X0256641Y0338817D01*
X0256500Y0336264D02*
X0254855Y0336945D01*
X0253075Y0336945D01*
X0251430Y0336264D01*
X0250172Y0335005D01*
X0249490Y0333360D01*
X0249490Y0331580D01*
X0250172Y0329935D01*
X0251430Y0328676D01*
X0253075Y0327995D01*
X0254855Y0327995D01*
X0256500Y0328676D01*
X0257759Y0329935D01*
X0258440Y0331580D01*
X0258440Y0333360D01*
X0257759Y0335005D01*
X0256500Y0336264D01*
X0257144Y0335620D02*
X0260786Y0335620D01*
X0259764Y0334021D02*
X0258167Y0334021D01*
X0258440Y0332423D02*
X0259490Y0332423D01*
X0259803Y0330824D02*
X0258127Y0330824D01*
X0257050Y0329226D02*
X0260881Y0329226D01*
X0261195Y0326028D02*
X0256735Y0326028D01*
X0257997Y0324430D02*
X0259934Y0324430D01*
X0259490Y0322831D02*
X0258440Y0322831D01*
X0258297Y0321233D02*
X0259634Y0321233D01*
X0260472Y0319634D02*
X0257459Y0319634D01*
X0250472Y0319634D02*
X0247459Y0319634D01*
X0248297Y0321233D02*
X0249634Y0321233D01*
X0249490Y0322831D02*
X0248440Y0322831D01*
X0247997Y0324430D02*
X0249934Y0324430D01*
X0251195Y0326028D02*
X0246735Y0326028D01*
X0246500Y0328676D02*
X0247759Y0329935D01*
X0248440Y0331580D01*
X0248440Y0333360D01*
X0247759Y0335005D01*
X0246500Y0336264D01*
X0244855Y0336945D01*
X0243075Y0336945D01*
X0241430Y0336264D01*
X0240172Y0335005D01*
X0239490Y0333360D01*
X0239490Y0331580D01*
X0240172Y0329935D01*
X0241430Y0328676D01*
X0243075Y0327995D01*
X0244855Y0327995D01*
X0246500Y0328676D01*
X0247050Y0329226D02*
X0250881Y0329226D01*
X0249803Y0330824D02*
X0248127Y0330824D01*
X0248440Y0332423D02*
X0249490Y0332423D01*
X0249764Y0334021D02*
X0248167Y0334021D01*
X0247144Y0335620D02*
X0250786Y0335620D01*
X0251290Y0338817D02*
X0246641Y0338817D01*
X0247958Y0340415D02*
X0249973Y0340415D01*
X0249490Y0342014D02*
X0248440Y0342014D01*
X0248336Y0343612D02*
X0249595Y0343612D01*
X0250378Y0345211D02*
X0247553Y0345211D01*
X0240378Y0345211D02*
X0237553Y0345211D01*
X0238336Y0343612D02*
X0239595Y0343612D01*
X0239490Y0342014D02*
X0238440Y0342014D01*
X0237958Y0340415D02*
X0239973Y0340415D01*
X0241290Y0338817D02*
X0236641Y0338817D01*
X0236500Y0336264D02*
X0234855Y0336945D01*
X0233075Y0336945D01*
X0231430Y0336264D01*
X0230172Y0335005D01*
X0229490Y0333360D01*
X0229490Y0331580D01*
X0230172Y0329935D01*
X0231430Y0328676D01*
X0233075Y0327995D01*
X0234855Y0327995D01*
X0236500Y0328676D01*
X0237759Y0329935D01*
X0238440Y0331580D01*
X0238440Y0333360D01*
X0237759Y0335005D01*
X0236500Y0336264D01*
X0237144Y0335620D02*
X0240786Y0335620D01*
X0239764Y0334021D02*
X0238167Y0334021D01*
X0238440Y0332423D02*
X0239490Y0332423D01*
X0239803Y0330824D02*
X0238127Y0330824D01*
X0237050Y0329226D02*
X0240881Y0329226D01*
X0241195Y0326028D02*
X0236735Y0326028D01*
X0237997Y0324430D02*
X0239934Y0324430D01*
X0239490Y0322831D02*
X0238440Y0322831D01*
X0238297Y0321233D02*
X0239634Y0321233D01*
X0240472Y0319634D02*
X0237459Y0319634D01*
X0230472Y0319634D02*
X0227459Y0319634D01*
X0228297Y0321233D02*
X0229634Y0321233D01*
X0229490Y0322831D02*
X0228440Y0322831D01*
X0227997Y0324430D02*
X0229934Y0324430D01*
X0231195Y0326028D02*
X0226735Y0326028D01*
X0226500Y0328676D02*
X0227759Y0329935D01*
X0228440Y0331580D01*
X0228440Y0333360D01*
X0227759Y0335005D01*
X0226500Y0336264D01*
X0224855Y0336945D01*
X0223075Y0336945D01*
X0221430Y0336264D01*
X0220172Y0335005D01*
X0219490Y0333360D01*
X0219490Y0331580D01*
X0220172Y0329935D01*
X0221430Y0328676D01*
X0223075Y0327995D01*
X0224855Y0327995D01*
X0226500Y0328676D01*
X0227050Y0329226D02*
X0230881Y0329226D01*
X0229803Y0330824D02*
X0228127Y0330824D01*
X0228440Y0332423D02*
X0229490Y0332423D01*
X0229764Y0334021D02*
X0228167Y0334021D01*
X0227144Y0335620D02*
X0230786Y0335620D01*
X0231290Y0338817D02*
X0226641Y0338817D01*
X0227958Y0340415D02*
X0229973Y0340415D01*
X0229490Y0342014D02*
X0228440Y0342014D01*
X0228336Y0343612D02*
X0229595Y0343612D01*
X0230378Y0345211D02*
X0227553Y0345211D01*
X0220378Y0345211D02*
X0217553Y0345211D01*
X0218336Y0343612D02*
X0219595Y0343612D01*
X0219490Y0342014D02*
X0218440Y0342014D01*
X0217958Y0340415D02*
X0219973Y0340415D01*
X0221290Y0338817D02*
X0216641Y0338817D01*
X0216500Y0336264D02*
X0214855Y0336945D01*
X0213075Y0336945D01*
X0211430Y0336264D01*
X0210172Y0335005D01*
X0209490Y0333360D01*
X0209490Y0331580D01*
X0210172Y0329935D01*
X0211430Y0328676D01*
X0213075Y0327995D01*
X0214855Y0327995D01*
X0216500Y0328676D01*
X0217759Y0329935D01*
X0218440Y0331580D01*
X0218440Y0333360D01*
X0217759Y0335005D01*
X0216500Y0336264D01*
X0217144Y0335620D02*
X0220786Y0335620D01*
X0219764Y0334021D02*
X0218167Y0334021D01*
X0218440Y0332423D02*
X0219490Y0332423D01*
X0219803Y0330824D02*
X0218127Y0330824D01*
X0217050Y0329226D02*
X0220881Y0329226D01*
X0221195Y0326028D02*
X0216735Y0326028D01*
X0217997Y0324430D02*
X0219934Y0324430D01*
X0219490Y0322831D02*
X0218440Y0322831D01*
X0218297Y0321233D02*
X0219634Y0321233D01*
X0220472Y0319634D02*
X0217459Y0319634D01*
X0210472Y0319634D02*
X0207459Y0319634D01*
X0208297Y0321233D02*
X0209634Y0321233D01*
X0209490Y0322831D02*
X0208440Y0322831D01*
X0207997Y0324430D02*
X0209934Y0324430D01*
X0211195Y0326028D02*
X0206735Y0326028D01*
X0206500Y0328676D02*
X0207759Y0329935D01*
X0208440Y0331580D01*
X0208440Y0333360D01*
X0207759Y0335005D01*
X0206500Y0336264D01*
X0204855Y0336945D01*
X0203075Y0336945D01*
X0201430Y0336264D01*
X0200172Y0335005D01*
X0199490Y0333360D01*
X0199490Y0331580D01*
X0200172Y0329935D01*
X0201430Y0328676D01*
X0203075Y0327995D01*
X0204855Y0327995D01*
X0206500Y0328676D01*
X0207050Y0329226D02*
X0210881Y0329226D01*
X0209803Y0330824D02*
X0208127Y0330824D01*
X0208440Y0332423D02*
X0209490Y0332423D01*
X0209764Y0334021D02*
X0208167Y0334021D01*
X0207144Y0335620D02*
X0210786Y0335620D01*
X0211290Y0338817D02*
X0206641Y0338817D01*
X0207958Y0340415D02*
X0209973Y0340415D01*
X0209490Y0342014D02*
X0208440Y0342014D01*
X0208336Y0343612D02*
X0209595Y0343612D01*
X0210378Y0345211D02*
X0207553Y0345211D01*
X0200378Y0345211D02*
X0197553Y0345211D01*
X0198336Y0343612D02*
X0199595Y0343612D01*
X0199490Y0342014D02*
X0198440Y0342014D01*
X0197958Y0340415D02*
X0199973Y0340415D01*
X0201290Y0338817D02*
X0196641Y0338817D01*
X0196500Y0336264D02*
X0194855Y0336945D01*
X0193075Y0336945D01*
X0191430Y0336264D01*
X0190172Y0335005D01*
X0189490Y0333360D01*
X0189490Y0331580D01*
X0190172Y0329935D01*
X0191430Y0328676D01*
X0193075Y0327995D01*
X0194855Y0327995D01*
X0196500Y0328676D01*
X0197759Y0329935D01*
X0198440Y0331580D01*
X0198440Y0333360D01*
X0197759Y0335005D01*
X0196500Y0336264D01*
X0197144Y0335620D02*
X0200786Y0335620D01*
X0199764Y0334021D02*
X0198167Y0334021D01*
X0198440Y0332423D02*
X0199490Y0332423D01*
X0199803Y0330824D02*
X0198127Y0330824D01*
X0197050Y0329226D02*
X0200881Y0329226D01*
X0201195Y0326028D02*
X0196735Y0326028D01*
X0197997Y0324430D02*
X0199934Y0324430D01*
X0199490Y0322831D02*
X0198440Y0322831D01*
X0198297Y0321233D02*
X0199634Y0321233D01*
X0200472Y0319634D02*
X0197459Y0319634D01*
X0190472Y0319634D02*
X0187459Y0319634D01*
X0188297Y0321233D02*
X0189634Y0321233D01*
X0189490Y0322831D02*
X0188440Y0322831D01*
X0187997Y0324430D02*
X0189934Y0324430D01*
X0191195Y0326028D02*
X0186735Y0326028D01*
X0186500Y0328676D02*
X0187759Y0329935D01*
X0188440Y0331580D01*
X0188440Y0333360D01*
X0187759Y0335005D01*
X0186500Y0336264D01*
X0184855Y0336945D01*
X0183075Y0336945D01*
X0181430Y0336264D01*
X0180172Y0335005D01*
X0179490Y0333360D01*
X0179490Y0331580D01*
X0180172Y0329935D01*
X0181430Y0328676D01*
X0183075Y0327995D01*
X0184855Y0327995D01*
X0186500Y0328676D01*
X0187050Y0329226D02*
X0190881Y0329226D01*
X0189803Y0330824D02*
X0188127Y0330824D01*
X0188440Y0332423D02*
X0189490Y0332423D01*
X0189764Y0334021D02*
X0188167Y0334021D01*
X0187144Y0335620D02*
X0190786Y0335620D01*
X0191290Y0338817D02*
X0186641Y0338817D01*
X0187958Y0340415D02*
X0189973Y0340415D01*
X0189490Y0342014D02*
X0188440Y0342014D01*
X0188336Y0343612D02*
X0189595Y0343612D01*
X0190378Y0345211D02*
X0187553Y0345211D01*
X0180378Y0345211D02*
X0177553Y0345211D01*
X0178336Y0343612D02*
X0179595Y0343612D01*
X0179490Y0342014D02*
X0178440Y0342014D01*
X0177958Y0340415D02*
X0179973Y0340415D01*
X0181290Y0338817D02*
X0176641Y0338817D01*
X0176500Y0336264D02*
X0174855Y0336945D01*
X0173075Y0336945D01*
X0171430Y0336264D01*
X0170172Y0335005D01*
X0169490Y0333360D01*
X0169490Y0331580D01*
X0170172Y0329935D01*
X0171430Y0328676D01*
X0173075Y0327995D01*
X0174855Y0327995D01*
X0176500Y0328676D01*
X0177759Y0329935D01*
X0178440Y0331580D01*
X0178440Y0333360D01*
X0177759Y0335005D01*
X0176500Y0336264D01*
X0177144Y0335620D02*
X0180786Y0335620D01*
X0179764Y0334021D02*
X0178167Y0334021D01*
X0178440Y0332423D02*
X0179490Y0332423D01*
X0179803Y0330824D02*
X0178127Y0330824D01*
X0177050Y0329226D02*
X0180881Y0329226D01*
X0181195Y0326028D02*
X0176735Y0326028D01*
X0177997Y0324430D02*
X0179934Y0324430D01*
X0179490Y0322831D02*
X0178440Y0322831D01*
X0178297Y0321233D02*
X0179634Y0321233D01*
X0180472Y0319634D02*
X0177459Y0319634D01*
X0170472Y0319634D02*
X0167459Y0319634D01*
X0168297Y0321233D02*
X0169634Y0321233D01*
X0169490Y0322831D02*
X0168440Y0322831D01*
X0167997Y0324430D02*
X0169934Y0324430D01*
X0171195Y0326028D02*
X0166735Y0326028D01*
X0166500Y0328676D02*
X0167759Y0329935D01*
X0168440Y0331580D01*
X0168440Y0333360D01*
X0167759Y0335005D01*
X0166500Y0336264D01*
X0164855Y0336945D01*
X0163075Y0336945D01*
X0161430Y0336264D01*
X0160172Y0335005D01*
X0159490Y0333360D01*
X0159490Y0331580D01*
X0160172Y0329935D01*
X0161430Y0328676D01*
X0163075Y0327995D01*
X0164855Y0327995D01*
X0166500Y0328676D01*
X0167050Y0329226D02*
X0170881Y0329226D01*
X0169803Y0330824D02*
X0168127Y0330824D01*
X0168440Y0332423D02*
X0169490Y0332423D01*
X0169764Y0334021D02*
X0168167Y0334021D01*
X0167144Y0335620D02*
X0170786Y0335620D01*
X0171290Y0338817D02*
X0166641Y0338817D01*
X0167958Y0340415D02*
X0169973Y0340415D01*
X0169490Y0342014D02*
X0168440Y0342014D01*
X0168336Y0343612D02*
X0169595Y0343612D01*
X0170378Y0345211D02*
X0167553Y0345211D01*
X0160378Y0345211D02*
X0157553Y0345211D01*
X0158336Y0343612D02*
X0159595Y0343612D01*
X0159490Y0342014D02*
X0158440Y0342014D01*
X0157958Y0340415D02*
X0159973Y0340415D01*
X0161290Y0338817D02*
X0156641Y0338817D01*
X0156500Y0336264D02*
X0154855Y0336945D01*
X0153075Y0336945D01*
X0151430Y0336264D01*
X0150172Y0335005D01*
X0149490Y0333360D01*
X0149490Y0331580D01*
X0150172Y0329935D01*
X0151430Y0328676D01*
X0153075Y0327995D01*
X0154855Y0327995D01*
X0156500Y0328676D01*
X0157759Y0329935D01*
X0158440Y0331580D01*
X0158440Y0333360D01*
X0157759Y0335005D01*
X0156500Y0336264D01*
X0157144Y0335620D02*
X0160786Y0335620D01*
X0159764Y0334021D02*
X0158167Y0334021D01*
X0158440Y0332423D02*
X0159490Y0332423D01*
X0159803Y0330824D02*
X0158127Y0330824D01*
X0157050Y0329226D02*
X0160881Y0329226D01*
X0161195Y0326028D02*
X0156735Y0326028D01*
X0157997Y0324430D02*
X0159934Y0324430D01*
X0159490Y0322831D02*
X0158440Y0322831D01*
X0158297Y0321233D02*
X0159634Y0321233D01*
X0160472Y0319634D02*
X0157459Y0319634D01*
X0150472Y0319634D02*
X0147459Y0319634D01*
X0148297Y0321233D02*
X0149634Y0321233D01*
X0149490Y0322831D02*
X0148440Y0322831D01*
X0147997Y0324430D02*
X0149934Y0324430D01*
X0151195Y0326028D02*
X0146735Y0326028D01*
X0146500Y0328676D02*
X0147759Y0329935D01*
X0148440Y0331580D01*
X0148440Y0333360D01*
X0147759Y0335005D01*
X0146500Y0336264D01*
X0144855Y0336945D01*
X0143075Y0336945D01*
X0141430Y0336264D01*
X0140172Y0335005D01*
X0139490Y0333360D01*
X0139490Y0331580D01*
X0140172Y0329935D01*
X0141430Y0328676D01*
X0143075Y0327995D01*
X0144855Y0327995D01*
X0146500Y0328676D01*
X0147050Y0329226D02*
X0150881Y0329226D01*
X0149803Y0330824D02*
X0148127Y0330824D01*
X0148440Y0332423D02*
X0149490Y0332423D01*
X0149764Y0334021D02*
X0148167Y0334021D01*
X0147144Y0335620D02*
X0150786Y0335620D01*
X0151290Y0338817D02*
X0146641Y0338817D01*
X0147958Y0340415D02*
X0149973Y0340415D01*
X0149490Y0342014D02*
X0148440Y0342014D01*
X0148336Y0343612D02*
X0149595Y0343612D01*
X0150378Y0345211D02*
X0147553Y0345211D01*
X0140378Y0345211D02*
X0137553Y0345211D01*
X0138336Y0343612D02*
X0139595Y0343612D01*
X0139490Y0342014D02*
X0138440Y0342014D01*
X0137958Y0340415D02*
X0139973Y0340415D01*
X0141290Y0338817D02*
X0136641Y0338817D01*
X0136500Y0336264D02*
X0134855Y0336945D01*
X0133075Y0336945D01*
X0131430Y0336264D01*
X0130172Y0335005D01*
X0129490Y0333360D01*
X0129490Y0331580D01*
X0130172Y0329935D01*
X0131430Y0328676D01*
X0133075Y0327995D01*
X0134855Y0327995D01*
X0136500Y0328676D01*
X0137759Y0329935D01*
X0138440Y0331580D01*
X0138440Y0333360D01*
X0137759Y0335005D01*
X0136500Y0336264D01*
X0137144Y0335620D02*
X0140786Y0335620D01*
X0139764Y0334021D02*
X0138167Y0334021D01*
X0138440Y0332423D02*
X0139490Y0332423D01*
X0139803Y0330824D02*
X0138127Y0330824D01*
X0137050Y0329226D02*
X0140881Y0329226D01*
X0141195Y0326028D02*
X0136735Y0326028D01*
X0137997Y0324430D02*
X0139934Y0324430D01*
X0139490Y0322831D02*
X0138440Y0322831D01*
X0138297Y0321233D02*
X0139634Y0321233D01*
X0140472Y0319634D02*
X0137459Y0319634D01*
X0130472Y0319634D02*
X0127684Y0319634D01*
X0128479Y0321233D02*
X0129634Y0321233D01*
X0129490Y0322831D02*
X0128640Y0322831D01*
X0128213Y0324430D02*
X0129934Y0324430D01*
X0131195Y0326028D02*
X0127018Y0326028D01*
X0126500Y0328676D02*
X0127759Y0329935D01*
X0128440Y0331580D01*
X0128440Y0333360D01*
X0127759Y0335005D01*
X0126500Y0336264D01*
X0124855Y0336945D01*
X0123075Y0336945D01*
X0121430Y0336264D01*
X0120172Y0335005D01*
X0119490Y0333360D01*
X0119490Y0331580D01*
X0120172Y0329935D01*
X0121430Y0328676D01*
X0123075Y0327995D01*
X0124855Y0327995D01*
X0126500Y0328676D01*
X0127050Y0329226D02*
X0130881Y0329226D01*
X0129803Y0330824D02*
X0128127Y0330824D01*
X0128440Y0332423D02*
X0129490Y0332423D01*
X0129764Y0334021D02*
X0128167Y0334021D01*
X0127144Y0335620D02*
X0130786Y0335620D01*
X0131290Y0338817D02*
X0126891Y0338817D01*
X0128165Y0340415D02*
X0129973Y0340415D01*
X0129490Y0342014D02*
X0128626Y0342014D01*
X0128510Y0343612D02*
X0129595Y0343612D01*
X0130378Y0345211D02*
X0127753Y0345211D01*
X0124103Y0345211D02*
X0123828Y0345211D01*
X0123828Y0343612D02*
X0124103Y0343612D01*
X0123828Y0342332D02*
X0119290Y0342332D01*
X0119290Y0342102D01*
X0119405Y0341375D01*
X0119633Y0340675D01*
X0119967Y0340020D01*
X0120399Y0339424D01*
X0120920Y0338904D01*
X0121515Y0338471D01*
X0122171Y0338137D01*
X0122871Y0337910D01*
X0123597Y0337795D01*
X0123828Y0337795D01*
X0123828Y0342332D01*
X0123828Y0342014D02*
X0124103Y0342014D01*
X0124103Y0340415D02*
X0123828Y0340415D01*
X0123828Y0338817D02*
X0124103Y0338817D01*
X0121040Y0338817D02*
X0116641Y0338817D01*
X0117958Y0340415D02*
X0119765Y0340415D01*
X0119304Y0342014D02*
X0118440Y0342014D01*
X0118336Y0343612D02*
X0119421Y0343612D01*
X0120178Y0345211D02*
X0117553Y0345211D01*
X0110378Y0345211D02*
X0107753Y0345211D01*
X0108510Y0343612D02*
X0109595Y0343612D01*
X0109490Y0342014D02*
X0108626Y0342014D01*
X0108165Y0340415D02*
X0109973Y0340415D01*
X0111290Y0338817D02*
X0106891Y0338817D01*
X0106500Y0336264D02*
X0104855Y0336945D01*
X0103075Y0336945D01*
X0101430Y0336264D01*
X0100172Y0335005D01*
X0099490Y0333360D01*
X0099490Y0331580D01*
X0100172Y0329935D01*
X0101430Y0328676D01*
X0103075Y0327995D01*
X0104855Y0327995D01*
X0106500Y0328676D01*
X0107759Y0329935D01*
X0108440Y0331580D01*
X0108440Y0333360D01*
X0107759Y0335005D01*
X0106500Y0336264D01*
X0107144Y0335620D02*
X0110504Y0335620D01*
X0110399Y0335515D02*
X0109967Y0334920D01*
X0109633Y0334264D01*
X0109405Y0333565D01*
X0109290Y0332838D01*
X0109290Y0332607D01*
X0113828Y0332607D01*
X0113828Y0332332D01*
X0114103Y0332332D01*
X0114103Y0327795D01*
X0114333Y0327795D01*
X0115060Y0327910D01*
X0115760Y0328137D01*
X0116416Y0328471D01*
X0117011Y0328904D01*
X0117531Y0329424D01*
X0117964Y0330020D01*
X0118298Y0330675D01*
X0118525Y0331375D01*
X0118640Y0332102D01*
X0118640Y0332332D01*
X0114103Y0332332D01*
X0114103Y0332607D01*
X0118640Y0332607D01*
X0118640Y0332838D01*
X0118525Y0333565D01*
X0118298Y0334264D01*
X0117964Y0334920D01*
X0117531Y0335515D01*
X0117011Y0336036D01*
X0116416Y0336468D01*
X0115760Y0336802D01*
X0115060Y0337030D01*
X0114333Y0337145D01*
X0114103Y0337145D01*
X0114103Y0332607D01*
X0113828Y0332607D01*
X0113828Y0337145D01*
X0113597Y0337145D01*
X0112871Y0337030D01*
X0112171Y0336802D01*
X0111515Y0336468D01*
X0110920Y0336036D01*
X0110399Y0335515D01*
X0109554Y0334021D02*
X0108167Y0334021D01*
X0108440Y0332423D02*
X0113828Y0332423D01*
X0113828Y0332332D02*
X0109290Y0332332D01*
X0109290Y0332102D01*
X0109405Y0331375D01*
X0109633Y0330675D01*
X0109967Y0330020D01*
X0110399Y0329424D01*
X0110920Y0328904D01*
X0111515Y0328471D01*
X0112171Y0328137D01*
X0112871Y0327910D01*
X0113597Y0327795D01*
X0113828Y0327795D01*
X0113828Y0332332D01*
X0114103Y0332423D02*
X0119490Y0332423D01*
X0119764Y0334021D02*
X0118377Y0334021D01*
X0117427Y0335620D02*
X0120786Y0335620D01*
X0119803Y0330824D02*
X0118346Y0330824D01*
X0117332Y0329226D02*
X0120881Y0329226D01*
X0122171Y0326802D02*
X0121515Y0326468D01*
X0120920Y0326036D01*
X0120399Y0325515D01*
X0119967Y0324920D01*
X0119633Y0324264D01*
X0119405Y0323565D01*
X0119290Y0322838D01*
X0119290Y0322607D01*
X0123828Y0322607D01*
X0123828Y0327145D01*
X0123597Y0327145D01*
X0122871Y0327030D01*
X0122171Y0326802D01*
X0120913Y0326028D02*
X0116735Y0326028D01*
X0117997Y0324430D02*
X0119717Y0324430D01*
X0119290Y0322831D02*
X0118440Y0322831D01*
X0118297Y0321233D02*
X0119452Y0321233D01*
X0120247Y0319634D02*
X0117459Y0319634D01*
X0116458Y0316437D02*
X0121850Y0316437D01*
X0120103Y0314839D02*
X0118005Y0314839D01*
X0118577Y0313240D02*
X0119490Y0313240D01*
X0119490Y0311642D02*
X0118567Y0311642D01*
X0117976Y0310043D02*
X0120127Y0310043D01*
X0121989Y0308445D02*
X0116364Y0308445D01*
X0114103Y0308445D02*
X0113828Y0308445D01*
X0113828Y0307795D02*
X0113828Y0312332D01*
X0109290Y0312332D01*
X0109290Y0312102D01*
X0109405Y0311375D01*
X0109633Y0310675D01*
X0109967Y0310020D01*
X0110399Y0309424D01*
X0110920Y0308904D01*
X0111515Y0308471D01*
X0112171Y0308137D01*
X0112871Y0307910D01*
X0113597Y0307795D01*
X0113828Y0307795D01*
X0113828Y0310043D02*
X0114103Y0310043D01*
X0114103Y0311642D02*
X0113828Y0311642D01*
X0113828Y0313240D02*
X0114103Y0313240D01*
X0114103Y0314839D02*
X0113828Y0314839D01*
X0111473Y0316437D02*
X0106080Y0316437D01*
X0107828Y0314839D02*
X0109926Y0314839D01*
X0109354Y0313240D02*
X0108440Y0313240D01*
X0108440Y0311642D02*
X0109363Y0311642D01*
X0109955Y0310043D02*
X0107804Y0310043D01*
X0105942Y0308445D02*
X0111567Y0308445D01*
X0101989Y0308445D02*
X0096364Y0308445D01*
X0094103Y0308445D02*
X0093828Y0308445D01*
X0093828Y0310043D02*
X0094103Y0310043D01*
X0094103Y0311642D02*
X0093828Y0311642D01*
X0093828Y0313240D02*
X0094103Y0313240D01*
X0094103Y0314839D02*
X0093828Y0314839D01*
X0096458Y0316437D02*
X0101850Y0316437D01*
X0100103Y0314839D02*
X0098005Y0314839D01*
X0098577Y0313240D02*
X0099490Y0313240D01*
X0099490Y0311642D02*
X0098567Y0311642D01*
X0097976Y0310043D02*
X0100127Y0310043D01*
X0100247Y0319634D02*
X0097459Y0319634D01*
X0098297Y0321233D02*
X0099452Y0321233D01*
X0099290Y0322607D02*
X0103828Y0322607D01*
X0103828Y0327145D01*
X0103597Y0327145D01*
X0102871Y0327030D01*
X0102171Y0326802D01*
X0101515Y0326468D01*
X0100920Y0326036D01*
X0100399Y0325515D01*
X0099967Y0324920D01*
X0099633Y0324264D01*
X0099405Y0323565D01*
X0099290Y0322838D01*
X0099290Y0322607D01*
X0099290Y0322831D02*
X0098440Y0322831D01*
X0097997Y0324430D02*
X0099717Y0324430D01*
X0100913Y0326028D02*
X0096735Y0326028D01*
X0095760Y0328137D02*
X0096416Y0328471D01*
X0097011Y0328904D01*
X0097531Y0329424D01*
X0097964Y0330020D01*
X0098298Y0330675D01*
X0098525Y0331375D01*
X0098640Y0332102D01*
X0098640Y0332332D01*
X0094103Y0332332D01*
X0094103Y0327795D01*
X0094333Y0327795D01*
X0095060Y0327910D01*
X0095760Y0328137D01*
X0097332Y0329226D02*
X0100881Y0329226D01*
X0099803Y0330824D02*
X0098346Y0330824D01*
X0098640Y0332607D02*
X0098640Y0332838D01*
X0098525Y0333565D01*
X0098298Y0334264D01*
X0097964Y0334920D01*
X0097531Y0335515D01*
X0097011Y0336036D01*
X0096416Y0336468D01*
X0095760Y0336802D01*
X0095060Y0337030D01*
X0094333Y0337145D01*
X0094103Y0337145D01*
X0094103Y0332607D01*
X0098640Y0332607D01*
X0099490Y0332423D02*
X0094103Y0332423D01*
X0094103Y0332332D02*
X0094103Y0332607D01*
X0093828Y0332607D01*
X0093828Y0332332D01*
X0094103Y0332332D01*
X0093828Y0332332D02*
X0093828Y0327795D01*
X0093597Y0327795D01*
X0092871Y0327910D01*
X0092171Y0328137D01*
X0091515Y0328471D01*
X0090920Y0328904D01*
X0090399Y0329424D01*
X0089967Y0330020D01*
X0089633Y0330675D01*
X0089405Y0331375D01*
X0089290Y0332102D01*
X0089290Y0332332D01*
X0093828Y0332332D01*
X0093828Y0332423D02*
X0088440Y0332423D01*
X0088440Y0331580D02*
X0087759Y0329935D01*
X0086500Y0328676D01*
X0084855Y0327995D01*
X0083075Y0327995D01*
X0081430Y0328676D01*
X0080172Y0329935D01*
X0079490Y0331580D01*
X0079490Y0333360D01*
X0080172Y0335005D01*
X0081430Y0336264D01*
X0083075Y0336945D01*
X0084855Y0336945D01*
X0086500Y0336264D01*
X0087759Y0335005D01*
X0088440Y0333360D01*
X0088440Y0331580D01*
X0088127Y0330824D02*
X0089585Y0330824D01*
X0089290Y0332607D02*
X0093828Y0332607D01*
X0093828Y0337145D01*
X0093597Y0337145D01*
X0092871Y0337030D01*
X0092171Y0336802D01*
X0091515Y0336468D01*
X0090920Y0336036D01*
X0090399Y0335515D01*
X0089967Y0334920D01*
X0089633Y0334264D01*
X0089405Y0333565D01*
X0089290Y0332838D01*
X0089290Y0332607D01*
X0089554Y0334021D02*
X0088167Y0334021D01*
X0087144Y0335620D02*
X0090504Y0335620D01*
X0091290Y0338817D02*
X0086641Y0338817D01*
X0087958Y0340415D02*
X0089973Y0340415D01*
X0089490Y0342014D02*
X0088440Y0342014D01*
X0088336Y0343612D02*
X0089595Y0343612D01*
X0090378Y0345211D02*
X0087553Y0345211D01*
X0080378Y0345211D02*
X0077553Y0345211D01*
X0078336Y0343612D02*
X0079595Y0343612D01*
X0079490Y0342014D02*
X0078440Y0342014D01*
X0077958Y0340415D02*
X0079973Y0340415D01*
X0081290Y0338817D02*
X0076641Y0338817D01*
X0076500Y0336264D02*
X0074855Y0336945D01*
X0073075Y0336945D01*
X0071430Y0336264D01*
X0070172Y0335005D01*
X0069490Y0333360D01*
X0069490Y0331580D01*
X0070172Y0329935D01*
X0071430Y0328676D01*
X0073075Y0327995D01*
X0074855Y0327995D01*
X0076500Y0328676D01*
X0077759Y0329935D01*
X0078440Y0331580D01*
X0078440Y0333360D01*
X0077759Y0335005D01*
X0076500Y0336264D01*
X0077144Y0335620D02*
X0080786Y0335620D01*
X0079764Y0334021D02*
X0078167Y0334021D01*
X0078440Y0332423D02*
X0079490Y0332423D01*
X0079803Y0330824D02*
X0078127Y0330824D01*
X0077050Y0329226D02*
X0080881Y0329226D01*
X0081195Y0326028D02*
X0076735Y0326028D01*
X0077997Y0324430D02*
X0079934Y0324430D01*
X0079490Y0322831D02*
X0078440Y0322831D01*
X0078297Y0321233D02*
X0079634Y0321233D01*
X0080472Y0319634D02*
X0077459Y0319634D01*
X0070472Y0319634D02*
X0067459Y0319634D01*
X0068297Y0321233D02*
X0069634Y0321233D01*
X0069490Y0322831D02*
X0068440Y0322831D01*
X0067997Y0324430D02*
X0069934Y0324430D01*
X0071195Y0326028D02*
X0066735Y0326028D01*
X0066500Y0328676D02*
X0067759Y0329935D01*
X0068440Y0331580D01*
X0068440Y0333360D01*
X0067759Y0335005D01*
X0066500Y0336264D01*
X0064855Y0336945D01*
X0063075Y0336945D01*
X0061430Y0336264D01*
X0060172Y0335005D01*
X0059490Y0333360D01*
X0059490Y0331580D01*
X0060172Y0329935D01*
X0061430Y0328676D01*
X0063075Y0327995D01*
X0064855Y0327995D01*
X0066500Y0328676D01*
X0067050Y0329226D02*
X0070881Y0329226D01*
X0069803Y0330824D02*
X0068127Y0330824D01*
X0068440Y0332423D02*
X0069490Y0332423D01*
X0069764Y0334021D02*
X0068167Y0334021D01*
X0067144Y0335620D02*
X0070786Y0335620D01*
X0071290Y0338817D02*
X0066641Y0338817D01*
X0067958Y0340415D02*
X0069973Y0340415D01*
X0069490Y0342014D02*
X0068440Y0342014D01*
X0068336Y0343612D02*
X0069595Y0343612D01*
X0070378Y0345211D02*
X0067553Y0345211D01*
X0060378Y0345211D02*
X0057553Y0345211D01*
X0058336Y0343612D02*
X0059595Y0343612D01*
X0059490Y0342014D02*
X0058440Y0342014D01*
X0057958Y0340415D02*
X0059973Y0340415D01*
X0061290Y0338817D02*
X0056641Y0338817D01*
X0057144Y0335620D02*
X0060786Y0335620D01*
X0059764Y0334021D02*
X0058167Y0334021D01*
X0058440Y0332423D02*
X0059490Y0332423D01*
X0059803Y0330824D02*
X0058127Y0330824D01*
X0057050Y0329226D02*
X0060881Y0329226D01*
X0061195Y0326028D02*
X0056735Y0326028D01*
X0057997Y0324430D02*
X0059934Y0324430D01*
X0059490Y0322831D02*
X0058440Y0322831D01*
X0058297Y0321233D02*
X0059634Y0321233D01*
X0060472Y0319634D02*
X0057459Y0319634D01*
X0051850Y0316437D02*
X0006600Y0316437D01*
X0006600Y0314839D02*
X0050103Y0314839D01*
X0049490Y0313240D02*
X0006600Y0313240D01*
X0006600Y0311642D02*
X0049490Y0311642D01*
X0050127Y0310043D02*
X0006600Y0310043D01*
X0006600Y0308445D02*
X0051989Y0308445D01*
X0049764Y0334021D02*
X0027381Y0334021D01*
X0006600Y0327627D02*
X0351331Y0327627D01*
X0351331Y0329226D02*
X0307050Y0329226D01*
X0308127Y0330824D02*
X0351331Y0330824D01*
X0351331Y0332423D02*
X0308440Y0332423D01*
X0308167Y0334021D02*
X0330550Y0334021D01*
X0328163Y0335620D02*
X0307144Y0335620D01*
X0306735Y0326028D02*
X0351331Y0326028D01*
X0351331Y0324430D02*
X0307997Y0324430D01*
X0308440Y0322831D02*
X0351331Y0322831D01*
X0351331Y0321233D02*
X0308297Y0321233D01*
X0307459Y0319634D02*
X0351331Y0319634D01*
X0351331Y0334021D02*
X0338405Y0334021D01*
X0340791Y0335620D02*
X0351331Y0335620D01*
X0351331Y0337218D02*
X0342377Y0337218D01*
X0343040Y0338817D02*
X0351331Y0338817D01*
X0351331Y0340415D02*
X0343702Y0340415D01*
X0343786Y0342014D02*
X0351331Y0342014D01*
X0350169Y0343612D02*
X0343786Y0343612D01*
X0343417Y0345211D02*
X0348570Y0345211D01*
X0346972Y0346809D02*
X0342755Y0346809D01*
X0341704Y0348408D02*
X0345373Y0348408D01*
X0343775Y0350006D02*
X0340105Y0350006D01*
X0242033Y0157523D02*
X0241236Y0157782D01*
X0240408Y0157913D01*
X0240364Y0157913D01*
X0240364Y0152963D01*
X0239614Y0152963D01*
X0239614Y0157913D01*
X0239570Y0157913D01*
X0238742Y0157782D01*
X0237945Y0157523D01*
X0237198Y0157142D01*
X0236520Y0156650D01*
X0235927Y0156057D01*
X0235435Y0155379D01*
X0235054Y0154632D01*
X0234795Y0153835D01*
X0234664Y0153007D01*
X0234664Y0152963D01*
X0239614Y0152963D01*
X0239614Y0152213D01*
X0234664Y0152213D01*
X0234664Y0152169D01*
X0234795Y0151341D01*
X0235054Y0150544D01*
X0235435Y0149797D01*
X0235927Y0149119D01*
X0236520Y0148526D01*
X0237198Y0148034D01*
X0237945Y0147653D01*
X0238742Y0147394D01*
X0239570Y0147263D01*
X0239614Y0147263D01*
X0239614Y0152213D01*
X0240364Y0152213D01*
X0240364Y0152963D01*
X0245314Y0152963D01*
X0245314Y0153007D01*
X0245183Y0153835D01*
X0244924Y0154632D01*
X0244543Y0155379D01*
X0244051Y0156057D01*
X0243458Y0156650D01*
X0242780Y0157142D01*
X0242033Y0157523D01*
X0243521Y0156586D02*
X0256425Y0156586D01*
X0255121Y0154988D02*
X0244743Y0154988D01*
X0245253Y0153389D02*
X0254549Y0153389D01*
X0254549Y0151791D02*
X0245254Y0151791D01*
X0245314Y0152169D02*
X0245314Y0152213D01*
X0240364Y0152213D01*
X0240364Y0147263D01*
X0240408Y0147263D01*
X0241236Y0147394D01*
X0242033Y0147653D01*
X0242780Y0148034D01*
X0243458Y0148526D01*
X0244051Y0149119D01*
X0244543Y0149797D01*
X0244924Y0150544D01*
X0245183Y0151341D01*
X0245314Y0152169D01*
X0244745Y0150192D02*
X0255119Y0150192D01*
X0256420Y0148594D02*
X0243525Y0148594D01*
X0240364Y0148594D02*
X0239614Y0148594D01*
X0239614Y0150192D02*
X0240364Y0150192D01*
X0240364Y0151791D02*
X0239614Y0151791D01*
X0239614Y0153389D02*
X0240364Y0153389D01*
X0240364Y0154988D02*
X0239614Y0154988D01*
X0239614Y0156586D02*
X0240364Y0156586D01*
X0236457Y0156586D02*
X0192057Y0156586D01*
X0191711Y0156933D02*
X0189827Y0157713D01*
X0187788Y0157713D01*
X0185905Y0156933D01*
X0184463Y0155491D01*
X0183683Y0153607D01*
X0183683Y0151568D01*
X0184463Y0149685D01*
X0185905Y0148243D01*
X0187788Y0147463D01*
X0189827Y0147463D01*
X0191711Y0148243D01*
X0193153Y0149685D01*
X0193933Y0151568D01*
X0193933Y0153607D01*
X0193153Y0155491D01*
X0191711Y0156933D01*
X0193361Y0154988D02*
X0235235Y0154988D01*
X0234725Y0153389D02*
X0193933Y0153389D01*
X0193933Y0151791D02*
X0234724Y0151791D01*
X0235233Y0150192D02*
X0193363Y0150192D01*
X0192062Y0148594D02*
X0236452Y0148594D01*
X0185554Y0148594D02*
X0172659Y0148594D01*
X0172592Y0148526D02*
X0173185Y0149119D01*
X0173677Y0149797D01*
X0174058Y0150544D01*
X0174317Y0151341D01*
X0174448Y0152169D01*
X0174448Y0152213D01*
X0169498Y0152213D01*
X0169498Y0152963D01*
X0174448Y0152963D01*
X0174448Y0153007D01*
X0174317Y0153835D01*
X0174058Y0154632D01*
X0173677Y0155379D01*
X0173185Y0156057D01*
X0172592Y0156650D01*
X0171914Y0157142D01*
X0171167Y0157523D01*
X0170370Y0157782D01*
X0169542Y0157913D01*
X0169498Y0157913D01*
X0169498Y0152963D01*
X0168748Y0152963D01*
X0168748Y0157913D01*
X0168704Y0157913D01*
X0167876Y0157782D01*
X0167079Y0157523D01*
X0166332Y0157142D01*
X0165654Y0156650D01*
X0165061Y0156057D01*
X0164568Y0155379D01*
X0164188Y0154632D01*
X0163929Y0153835D01*
X0163798Y0153007D01*
X0163798Y0152963D01*
X0168748Y0152963D01*
X0168748Y0152213D01*
X0169498Y0152213D01*
X0169498Y0147263D01*
X0169542Y0147263D01*
X0170370Y0147394D01*
X0171167Y0147653D01*
X0171914Y0148034D01*
X0172592Y0148526D01*
X0173879Y0150192D02*
X0184253Y0150192D01*
X0183683Y0151791D02*
X0174388Y0151791D01*
X0174387Y0153389D02*
X0183683Y0153389D01*
X0184255Y0154988D02*
X0173876Y0154988D01*
X0172655Y0156586D02*
X0185558Y0156586D01*
X0169498Y0156586D02*
X0168748Y0156586D01*
X0168748Y0154988D02*
X0169498Y0154988D01*
X0169498Y0153389D02*
X0168748Y0153389D01*
X0168748Y0152213D02*
X0163798Y0152213D01*
X0163798Y0152169D01*
X0163929Y0151341D01*
X0164188Y0150544D01*
X0164568Y0149797D01*
X0165061Y0149119D01*
X0165654Y0148526D01*
X0166332Y0148034D01*
X0167079Y0147653D01*
X0167876Y0147394D01*
X0168704Y0147263D01*
X0168748Y0147263D01*
X0168748Y0152213D01*
X0168748Y0151791D02*
X0169498Y0151791D01*
X0169498Y0150192D02*
X0168748Y0150192D01*
X0168748Y0148594D02*
X0169498Y0148594D01*
X0165586Y0148594D02*
X0125132Y0148594D01*
X0124782Y0148243D02*
X0126223Y0149685D01*
X0127004Y0151568D01*
X0127004Y0153607D01*
X0126223Y0155491D01*
X0124782Y0156933D01*
X0122898Y0157713D01*
X0120859Y0157713D01*
X0118976Y0156933D01*
X0117534Y0155491D01*
X0116754Y0153607D01*
X0116754Y0151568D01*
X0117534Y0149685D01*
X0118976Y0148243D01*
X0120859Y0147463D01*
X0122898Y0147463D01*
X0124782Y0148243D01*
X0126434Y0150192D02*
X0164367Y0150192D01*
X0163858Y0151791D02*
X0127004Y0151791D01*
X0127004Y0153389D02*
X0163858Y0153389D01*
X0164369Y0154988D02*
X0126432Y0154988D01*
X0125128Y0156586D02*
X0165591Y0156586D01*
X0118629Y0156586D02*
X0105726Y0156586D01*
X0106947Y0154988D02*
X0117326Y0154988D01*
X0116754Y0153389D02*
X0107458Y0153389D01*
X0107459Y0151791D02*
X0116754Y0151791D01*
X0117324Y0150192D02*
X0106949Y0150192D01*
X0105730Y0148594D02*
X0118625Y0148594D01*
X0118713Y0108631D02*
X0160478Y0108631D01*
X0160227Y0107032D02*
X0118964Y0107032D01*
X0118964Y0105434D02*
X0160227Y0105434D01*
X0160491Y0103835D02*
X0118700Y0103835D01*
X0182428Y0041493D02*
X0210894Y0041493D01*
X0213178Y0041493D02*
X0239164Y0041493D01*
X0239164Y0041687D02*
X0239164Y0040497D01*
X0239407Y0039911D01*
X0239164Y0039325D01*
X0239164Y0038135D01*
X0239619Y0037036D01*
X0240460Y0036194D01*
X0241559Y0035739D01*
X0242749Y0035739D01*
X0243848Y0036194D01*
X0244690Y0037036D01*
X0245145Y0038135D01*
X0245145Y0039325D01*
X0244902Y0039911D01*
X0245145Y0040497D01*
X0245145Y0041687D01*
X0244690Y0042786D01*
X0243848Y0043627D01*
X0242749Y0044082D01*
X0241559Y0044082D01*
X0240460Y0043627D01*
X0239619Y0042786D01*
X0239164Y0041687D01*
X0239925Y0043092D02*
X0183318Y0043092D01*
X0183395Y0044690D02*
X0351331Y0044690D01*
X0351331Y0043092D02*
X0244383Y0043092D01*
X0245145Y0041493D02*
X0351331Y0041493D01*
X0351331Y0039895D02*
X0338405Y0039895D01*
X0340791Y0038296D02*
X0351331Y0038296D01*
X0351331Y0036698D02*
X0342377Y0036698D01*
X0343040Y0035099D02*
X0351331Y0035099D01*
X0351331Y0033501D02*
X0343702Y0033501D01*
X0343786Y0031902D02*
X0351331Y0031902D01*
X0350169Y0030304D02*
X0343786Y0030304D01*
X0343417Y0028705D02*
X0348570Y0028705D01*
X0346972Y0027107D02*
X0342755Y0027107D01*
X0341704Y0025508D02*
X0345373Y0025508D01*
X0343775Y0023910D02*
X0340105Y0023910D01*
X0342176Y0022311D02*
X0336748Y0022311D01*
X0338979Y0019114D02*
X0170460Y0019114D01*
X0170888Y0017516D02*
X0337381Y0017516D01*
X0335782Y0015917D02*
X0170750Y0015917D01*
X0169247Y0020713D02*
X0340578Y0020713D01*
X0332206Y0022311D02*
X0211658Y0022311D01*
X0212643Y0023910D02*
X0328849Y0023910D01*
X0327251Y0025508D02*
X0212517Y0025508D01*
X0212665Y0027107D02*
X0326199Y0027107D01*
X0325915Y0035099D02*
X0214407Y0035099D01*
X0215027Y0036698D02*
X0239957Y0036698D01*
X0239164Y0038296D02*
X0215027Y0038296D01*
X0214790Y0039895D02*
X0239400Y0039895D01*
X0244909Y0039895D02*
X0330550Y0039895D01*
X0328163Y0038296D02*
X0245145Y0038296D01*
X0244352Y0036698D02*
X0326577Y0036698D01*
X0351331Y0046289D02*
X0182715Y0046289D01*
X0163329Y0020713D02*
X0160213Y0020713D01*
X0160875Y0019114D02*
X0162116Y0019114D01*
X0161688Y0017516D02*
X0160888Y0017516D01*
X0160335Y0015917D02*
X0161827Y0015917D01*
X0103329Y0020713D02*
X0100213Y0020713D01*
X0100875Y0019114D02*
X0102116Y0019114D01*
X0101688Y0017516D02*
X0100888Y0017516D01*
X0100335Y0015917D02*
X0101827Y0015917D01*
X0239331Y0083055D02*
X0351331Y0083055D01*
X0351331Y0084653D02*
X0239830Y0084653D01*
X0239702Y0086252D02*
X0351331Y0086252D01*
X0351331Y0087850D02*
X0239788Y0087850D01*
X0124103Y0319634D02*
X0123828Y0319634D01*
X0123828Y0321233D02*
X0124103Y0321233D01*
X0124103Y0322831D02*
X0123828Y0322831D01*
X0123828Y0324430D02*
X0124103Y0324430D01*
X0124103Y0326028D02*
X0123828Y0326028D01*
X0114103Y0329226D02*
X0113828Y0329226D01*
X0113828Y0330824D02*
X0114103Y0330824D01*
X0114103Y0334021D02*
X0113828Y0334021D01*
X0113828Y0335620D02*
X0114103Y0335620D01*
X0109585Y0330824D02*
X0108127Y0330824D01*
X0107050Y0329226D02*
X0110598Y0329226D01*
X0111195Y0326028D02*
X0107018Y0326028D01*
X0108213Y0324430D02*
X0109934Y0324430D01*
X0109490Y0322831D02*
X0108640Y0322831D01*
X0108479Y0321233D02*
X0109634Y0321233D01*
X0110472Y0319634D02*
X0107684Y0319634D01*
X0104103Y0319634D02*
X0103828Y0319634D01*
X0103828Y0321233D02*
X0104103Y0321233D01*
X0104103Y0322831D02*
X0103828Y0322831D01*
X0103828Y0324430D02*
X0104103Y0324430D01*
X0104103Y0326028D02*
X0103828Y0326028D01*
X0099764Y0334021D02*
X0098377Y0334021D01*
X0097427Y0335620D02*
X0100786Y0335620D01*
X0102171Y0338137D02*
X0102871Y0337910D01*
X0103597Y0337795D01*
X0103828Y0337795D01*
X0103828Y0342332D01*
X0099290Y0342332D01*
X0099290Y0342102D01*
X0099405Y0341375D01*
X0099633Y0340675D01*
X0099967Y0340020D01*
X0100399Y0339424D01*
X0100920Y0338904D01*
X0101515Y0338471D01*
X0102171Y0338137D01*
X0101040Y0338817D02*
X0096641Y0338817D01*
X0097958Y0340415D02*
X0099765Y0340415D01*
X0099304Y0342014D02*
X0098440Y0342014D01*
X0098336Y0343612D02*
X0099421Y0343612D01*
X0100178Y0345211D02*
X0097553Y0345211D01*
X0103828Y0345211D02*
X0104103Y0345211D01*
X0104103Y0343612D02*
X0103828Y0343612D01*
X0103828Y0342014D02*
X0104103Y0342014D01*
X0104103Y0340415D02*
X0103828Y0340415D01*
X0103828Y0338817D02*
X0104103Y0338817D01*
X0094103Y0335620D02*
X0093828Y0335620D01*
X0093828Y0334021D02*
X0094103Y0334021D01*
X0094103Y0330824D02*
X0093828Y0330824D01*
X0093828Y0329226D02*
X0094103Y0329226D01*
X0090598Y0329226D02*
X0087050Y0329226D01*
X0086735Y0326028D02*
X0091195Y0326028D01*
X0089934Y0324430D02*
X0087997Y0324430D01*
X0088440Y0322831D02*
X0089490Y0322831D01*
X0089634Y0321233D02*
X0088297Y0321233D01*
X0087459Y0319634D02*
X0090472Y0319634D01*
D17*
X0120698Y0273966D03*
X0120698Y0271604D03*
X0120304Y0249360D03*
X0117942Y0249360D03*
X0112036Y0239320D03*
X0109674Y0239320D03*
X0111249Y0233808D03*
X0111249Y0233808D03*
X0111249Y0231446D03*
X0111249Y0231446D03*
X0116367Y0224360D03*
X0116367Y0224360D03*
X0116367Y0221997D03*
X0116367Y0221997D03*
X0098650Y0221997D03*
X0098650Y0221997D03*
X0098650Y0224360D03*
X0098650Y0224360D03*
X0097076Y0246407D03*
X0097076Y0246407D03*
X0097076Y0248769D03*
X0097076Y0248769D03*
X0100225Y0248769D03*
X0100225Y0248769D03*
X0100225Y0246407D03*
X0100225Y0246407D03*
X0093926Y0246407D03*
X0093926Y0246407D03*
X0093926Y0248769D03*
X0093926Y0248769D03*
X0060068Y0248375D03*
X0060068Y0246013D03*
X0053178Y0271604D03*
X0053178Y0273966D03*
X0053178Y0273966D03*
X0067548Y0211761D03*
X0067548Y0211761D03*
X0067548Y0209399D03*
X0067548Y0209399D03*
X0068729Y0196801D03*
X0068729Y0196801D03*
X0068729Y0194438D03*
X0068729Y0194438D03*
X0068729Y0188139D03*
X0068729Y0188139D03*
X0068729Y0185777D03*
X0068729Y0185777D03*
X0083690Y0179084D03*
X0086052Y0179084D03*
X0093335Y0185383D03*
X0093335Y0187745D03*
X0093926Y0193257D03*
X0086446Y0202706D03*
X0086446Y0202706D03*
X0084083Y0202706D03*
X0084083Y0202706D03*
X0129753Y0202706D03*
X0135658Y0196801D03*
X0135658Y0196801D03*
X0135658Y0194438D03*
X0135658Y0194438D03*
X0136052Y0188139D03*
X0136052Y0188139D03*
X0136052Y0185777D03*
X0136052Y0185777D03*
X0141170Y0179084D03*
X0143532Y0179084D03*
X0150619Y0179281D03*
X0150619Y0179281D03*
X0152981Y0179281D03*
X0152981Y0179281D03*
X0160265Y0185186D03*
X0160265Y0187549D03*
X0160855Y0193257D03*
X0151013Y0202706D03*
X0151013Y0202706D03*
X0148650Y0202706D03*
X0148650Y0202706D03*
X0144320Y0219241D03*
X0144320Y0219832D03*
X0141957Y0219832D03*
X0141957Y0219241D03*
X0166170Y0220619D03*
X0168532Y0220619D03*
X0168532Y0220619D03*
X0177784Y0231446D03*
X0177784Y0231446D03*
X0177784Y0233808D03*
X0177784Y0233808D03*
X0176603Y0239714D03*
X0178965Y0239714D03*
X0184871Y0250541D03*
X0187233Y0250541D03*
X0167154Y0248769D03*
X0167154Y0248769D03*
X0167154Y0246407D03*
X0167154Y0246407D03*
X0164005Y0246407D03*
X0164005Y0246407D03*
X0164005Y0248769D03*
X0164005Y0248769D03*
X0160855Y0248769D03*
X0160855Y0248769D03*
X0160855Y0246407D03*
X0160855Y0246407D03*
X0144517Y0248769D03*
X0144517Y0251131D03*
X0185658Y0224753D03*
X0185658Y0224753D03*
X0185658Y0222391D03*
X0185658Y0222391D03*
X0209280Y0220619D03*
X0211643Y0220619D03*
X0215580Y0202706D03*
X0215580Y0202706D03*
X0217942Y0202706D03*
X0217942Y0202706D03*
X0227784Y0193257D03*
X0226997Y0187549D03*
X0226997Y0185186D03*
X0217548Y0179281D03*
X0215186Y0179281D03*
X0215186Y0179281D03*
X0202587Y0185777D03*
X0202587Y0188139D03*
X0202587Y0194438D03*
X0202587Y0194438D03*
X0202587Y0196801D03*
X0202587Y0196801D03*
X0241170Y0222391D03*
X0241170Y0224753D03*
X0249044Y0231446D03*
X0249044Y0231446D03*
X0249044Y0233808D03*
X0249044Y0233808D03*
X0245894Y0240501D03*
X0243532Y0240501D03*
X0234083Y0246407D03*
X0234083Y0246407D03*
X0234083Y0248769D03*
X0234083Y0248769D03*
X0230934Y0248769D03*
X0230934Y0248769D03*
X0230934Y0246407D03*
X0230934Y0246407D03*
X0227784Y0246407D03*
X0227784Y0246407D03*
X0227784Y0248769D03*
X0227784Y0248769D03*
X0216761Y0252312D03*
X0214398Y0252312D03*
X0187627Y0271604D03*
X0187627Y0273966D03*
X0187627Y0273966D03*
X0250619Y0257037D03*
X0252981Y0257037D03*
X0256524Y0224753D03*
X0256524Y0224753D03*
X0256524Y0222391D03*
X0256524Y0222391D03*
X0289398Y0144438D03*
X0289398Y0142076D03*
X0282115Y0134989D03*
X0282115Y0134989D03*
X0279753Y0134989D03*
X0279753Y0134989D03*
X0274241Y0131052D03*
X0274241Y0131052D03*
X0271879Y0131052D03*
X0271879Y0131052D03*
X0250225Y0120029D03*
X0250225Y0120029D03*
X0247863Y0120029D03*
X0247863Y0120029D03*
X0269320Y0101328D03*
X0269320Y0098966D03*
X0282312Y0098966D03*
X0282312Y0101328D03*
X0301800Y0070029D03*
X0301800Y0070029D03*
X0304162Y0070029D03*
X0304162Y0070029D03*
X0296288Y0062155D03*
X0293926Y0062155D03*
X0293926Y0062155D03*
X0242154Y0041092D03*
X0242154Y0038730D03*
X0228965Y0062155D03*
X0228965Y0062155D03*
X0226603Y0062155D03*
X0226603Y0062155D03*
X0228572Y0071210D03*
X0228572Y0071210D03*
X0230934Y0071210D03*
X0230934Y0071210D03*
X0236839Y0084793D03*
X0236839Y0087155D03*
X0212036Y0038730D03*
X0212036Y0036958D03*
X0209674Y0026919D03*
X0209674Y0024556D03*
X0140776Y0061761D03*
X0140776Y0061761D03*
X0140776Y0064123D03*
X0140776Y0064123D03*
X0136839Y0064123D03*
X0136839Y0064123D03*
X0136839Y0061761D03*
X0136839Y0061761D03*
X0132902Y0061761D03*
X0132902Y0061761D03*
X0132902Y0064123D03*
X0132902Y0064123D03*
X0115973Y0105068D03*
X0115973Y0105068D03*
X0115973Y0107430D03*
X0115973Y0107430D03*
X0135658Y0112155D03*
X0135658Y0112155D03*
X0135658Y0114517D03*
X0135658Y0114517D03*
X0139595Y0120029D03*
X0139595Y0120029D03*
X0139595Y0122391D03*
X0139595Y0122391D03*
X0163217Y0107430D03*
X0163217Y0107430D03*
X0163217Y0105068D03*
X0163217Y0105068D03*
X0178965Y0120029D03*
X0179753Y0120029D03*
X0179753Y0120029D03*
X0182115Y0120029D03*
X0182115Y0120029D03*
X0088414Y0136564D03*
X0088414Y0136564D03*
X0086052Y0136564D03*
X0086052Y0136564D03*
X0080540Y0132627D03*
X0080540Y0132627D03*
X0078178Y0132627D03*
X0078178Y0132627D03*
M02*
