G75*
%MOIN*%
%OFA0B0*%
%FSLAX25Y25*%
%IPPOS*%
%LPD*%
%AMOC8*
5,1,8,0,0,1.08239X$1,22.5*
%
%ADD10C,0.07050*%
%ADD11C,0.05750*%
%ADD12C,0.00000*%
%ADD13C,0.15417*%
%ADD14C,0.04400*%
%ADD15C,0.06000*%
%ADD16C,0.02781*%
%ADD17C,0.01600*%
%ADD18C,0.01000*%
%ADD19C,0.00787*%
%ADD20C,0.01200*%
D10*
X0102194Y0152588D03*
X0121879Y0152588D03*
X0169123Y0152588D03*
X0188808Y0152588D03*
X0239989Y0152588D03*
X0259674Y0152588D03*
D11*
X0263965Y0312470D03*
X0253965Y0312470D03*
X0243965Y0312470D03*
X0233965Y0312470D03*
X0223965Y0312470D03*
X0213965Y0312470D03*
X0203965Y0312470D03*
X0193965Y0312470D03*
X0183965Y0312470D03*
X0173965Y0312470D03*
X0163965Y0312470D03*
X0153965Y0312470D03*
X0143965Y0312470D03*
X0133965Y0312470D03*
X0123965Y0312470D03*
X0113965Y0312470D03*
X0103965Y0312470D03*
X0093965Y0312470D03*
X0083965Y0312470D03*
X0073965Y0312470D03*
X0063965Y0312470D03*
X0053965Y0312470D03*
X0053965Y0322470D03*
X0053965Y0332470D03*
X0063965Y0332470D03*
X0063965Y0322470D03*
X0073965Y0322470D03*
X0073965Y0332470D03*
X0073965Y0342470D03*
X0063965Y0342470D03*
X0053965Y0342470D03*
X0083965Y0342470D03*
X0083965Y0332470D03*
X0083965Y0322470D03*
X0093965Y0322470D03*
X0093965Y0332470D03*
X0093965Y0342470D03*
X0103965Y0342470D03*
X0113965Y0342470D03*
X0113965Y0332470D03*
X0103965Y0332470D03*
X0103965Y0322470D03*
X0113965Y0322470D03*
X0123965Y0322470D03*
X0123965Y0332470D03*
X0123965Y0342470D03*
X0133965Y0342470D03*
X0133965Y0332470D03*
X0133965Y0322470D03*
X0143965Y0322470D03*
X0143965Y0332470D03*
X0143965Y0342470D03*
X0153965Y0342470D03*
X0163965Y0342470D03*
X0163965Y0332470D03*
X0153965Y0332470D03*
X0153965Y0322470D03*
X0163965Y0322470D03*
X0173965Y0322470D03*
X0173965Y0332470D03*
X0173965Y0342470D03*
X0183965Y0342470D03*
X0183965Y0332470D03*
X0183965Y0322470D03*
X0193965Y0322470D03*
X0193965Y0332470D03*
X0203965Y0332470D03*
X0203965Y0322470D03*
X0213965Y0322470D03*
X0213965Y0332470D03*
X0213965Y0342470D03*
X0203965Y0342470D03*
X0193965Y0342470D03*
X0223965Y0342470D03*
X0223965Y0332470D03*
X0223965Y0322470D03*
X0233965Y0322470D03*
X0233965Y0332470D03*
X0233965Y0342470D03*
X0243965Y0342470D03*
X0253965Y0342470D03*
X0253965Y0332470D03*
X0243965Y0332470D03*
X0243965Y0322470D03*
X0253965Y0322470D03*
X0263965Y0322470D03*
X0263965Y0332470D03*
X0263965Y0342470D03*
X0273965Y0342470D03*
X0273965Y0332470D03*
X0273965Y0322470D03*
X0273965Y0312470D03*
X0283965Y0312470D03*
X0283965Y0322470D03*
X0283965Y0332470D03*
X0283965Y0342470D03*
X0293965Y0342470D03*
X0303965Y0342470D03*
X0303965Y0332470D03*
X0293965Y0332470D03*
X0293965Y0322470D03*
X0303965Y0322470D03*
X0303965Y0312470D03*
X0293965Y0312470D03*
D12*
X0336446Y0009793D02*
X0021485Y0009793D01*
X0001800Y0029478D01*
X0001800Y0344438D01*
X0021485Y0364123D01*
X0336446Y0364123D01*
X0356131Y0344438D01*
X0356131Y0029478D01*
X0336446Y0009793D01*
D13*
X0334477Y0031446D03*
X0334477Y0342470D03*
X0023454Y0342470D03*
X0023454Y0031446D03*
D14*
X0108099Y0101328D03*
X0123847Y0102312D03*
X0171091Y0101328D03*
X0180934Y0106249D03*
X0190776Y0097391D03*
X0201603Y0106249D03*
X0208493Y0087549D03*
X0221288Y0070816D03*
X0237036Y0095915D03*
X0249339Y0086072D03*
X0227194Y0042273D03*
X0224733Y0037844D03*
X0236052Y0031446D03*
X0192145Y0072785D03*
X0188231Y0065303D03*
X0184610Y0059055D03*
X0179595Y0051535D03*
X0179595Y0044035D03*
X0171091Y0044241D03*
X0156328Y0043257D03*
X0169123Y0076722D03*
X0169123Y0088533D03*
D15*
X0166288Y0017167D03*
X0156288Y0018167D03*
X0146288Y0017167D03*
X0136288Y0018167D03*
X0126288Y0017167D03*
X0116288Y0018167D03*
X0106288Y0017167D03*
X0096288Y0018167D03*
X0016830Y0099527D03*
X0015830Y0109527D03*
X0016830Y0119527D03*
X0015830Y0129527D03*
X0016830Y0139527D03*
X0015830Y0149527D03*
X0016830Y0159527D03*
D16*
X0067548Y0209399D03*
X0067548Y0209399D03*
X0067548Y0211761D03*
X0067548Y0211761D03*
X0068729Y0196801D03*
X0068729Y0196801D03*
X0068729Y0194438D03*
X0068729Y0194438D03*
X0068729Y0188139D03*
X0068729Y0188139D03*
X0068729Y0185777D03*
X0068729Y0185777D03*
X0083690Y0179084D03*
X0086052Y0179084D03*
X0093335Y0185383D03*
X0093335Y0187745D03*
X0093926Y0193257D03*
X0086446Y0202706D03*
X0086446Y0202706D03*
X0084083Y0202706D03*
X0084083Y0202706D03*
X0098650Y0221997D03*
X0098650Y0221997D03*
X0098650Y0224360D03*
X0098650Y0224360D03*
X0111249Y0231446D03*
X0111249Y0231446D03*
X0111249Y0233808D03*
X0111249Y0233808D03*
X0112036Y0239320D03*
X0109674Y0239320D03*
X0100225Y0246407D03*
X0100225Y0246407D03*
X0100225Y0248769D03*
X0100225Y0248769D03*
X0097076Y0248769D03*
X0097076Y0248769D03*
X0097076Y0246407D03*
X0097076Y0246407D03*
X0093926Y0246407D03*
X0093926Y0246407D03*
X0093926Y0248769D03*
X0093926Y0248769D03*
X0117942Y0249360D03*
X0120304Y0249360D03*
X0120698Y0271604D03*
X0120698Y0273966D03*
X0144517Y0251131D03*
X0144517Y0248769D03*
X0160855Y0248769D03*
X0160855Y0248769D03*
X0160855Y0246407D03*
X0160855Y0246407D03*
X0164005Y0246407D03*
X0164005Y0246407D03*
X0164005Y0248769D03*
X0164005Y0248769D03*
X0167154Y0248769D03*
X0167154Y0248769D03*
X0167154Y0246407D03*
X0167154Y0246407D03*
X0176603Y0239714D03*
X0178965Y0239714D03*
X0177784Y0233808D03*
X0177784Y0233808D03*
X0177784Y0231446D03*
X0177784Y0231446D03*
X0185658Y0224753D03*
X0185658Y0224753D03*
X0185658Y0222391D03*
X0185658Y0222391D03*
X0168532Y0220619D03*
X0168532Y0220619D03*
X0166170Y0220619D03*
X0151013Y0202706D03*
X0151013Y0202706D03*
X0148650Y0202706D03*
X0148650Y0202706D03*
X0160855Y0193257D03*
X0160265Y0187549D03*
X0160265Y0185186D03*
X0152981Y0179281D03*
X0152981Y0179281D03*
X0150619Y0179281D03*
X0150619Y0179281D03*
X0143532Y0179084D03*
X0141170Y0179084D03*
X0136052Y0185777D03*
X0136052Y0185777D03*
X0136052Y0188139D03*
X0136052Y0188139D03*
X0135658Y0194438D03*
X0135658Y0194438D03*
X0135658Y0196801D03*
X0135658Y0196801D03*
X0129753Y0202706D03*
X0141957Y0219241D03*
X0141957Y0219832D03*
X0144320Y0219832D03*
X0144320Y0219241D03*
X0116367Y0221997D03*
X0116367Y0221997D03*
X0116367Y0224360D03*
X0116367Y0224360D03*
X0060068Y0246013D03*
X0060068Y0248375D03*
X0053178Y0271604D03*
X0053178Y0273966D03*
X0053178Y0273966D03*
X0184871Y0250541D03*
X0187233Y0250541D03*
X0187627Y0271604D03*
X0187627Y0273966D03*
X0187627Y0273966D03*
X0214398Y0252312D03*
X0216761Y0252312D03*
X0227784Y0248769D03*
X0227784Y0248769D03*
X0227784Y0246407D03*
X0227784Y0246407D03*
X0230934Y0246407D03*
X0230934Y0246407D03*
X0230934Y0248769D03*
X0230934Y0248769D03*
X0234083Y0248769D03*
X0234083Y0248769D03*
X0234083Y0246407D03*
X0234083Y0246407D03*
X0243532Y0240501D03*
X0245894Y0240501D03*
X0249044Y0233808D03*
X0249044Y0233808D03*
X0249044Y0231446D03*
X0249044Y0231446D03*
X0256524Y0224753D03*
X0256524Y0224753D03*
X0256524Y0222391D03*
X0256524Y0222391D03*
X0241170Y0222391D03*
X0241170Y0224753D03*
X0217942Y0202706D03*
X0217942Y0202706D03*
X0215580Y0202706D03*
X0215580Y0202706D03*
X0227784Y0193257D03*
X0226997Y0187549D03*
X0226997Y0185186D03*
X0217548Y0179281D03*
X0215186Y0179281D03*
X0215186Y0179281D03*
X0202587Y0185777D03*
X0202587Y0188139D03*
X0202587Y0194438D03*
X0202587Y0194438D03*
X0202587Y0196801D03*
X0202587Y0196801D03*
X0209280Y0220619D03*
X0211643Y0220619D03*
X0250619Y0257037D03*
X0252981Y0257037D03*
X0289398Y0144438D03*
X0289398Y0142076D03*
X0282115Y0134989D03*
X0282115Y0134989D03*
X0279753Y0134989D03*
X0279753Y0134989D03*
X0274241Y0131052D03*
X0274241Y0131052D03*
X0271879Y0131052D03*
X0271879Y0131052D03*
X0250225Y0120029D03*
X0250225Y0120029D03*
X0247863Y0120029D03*
X0247863Y0120029D03*
X0269320Y0101328D03*
X0269320Y0098966D03*
X0282312Y0098966D03*
X0282312Y0101328D03*
X0301800Y0070029D03*
X0301800Y0070029D03*
X0304162Y0070029D03*
X0304162Y0070029D03*
X0296288Y0062155D03*
X0293926Y0062155D03*
X0293926Y0062155D03*
X0242154Y0041092D03*
X0242154Y0038730D03*
X0228965Y0062155D03*
X0228965Y0062155D03*
X0226603Y0062155D03*
X0226603Y0062155D03*
X0228572Y0071210D03*
X0228572Y0071210D03*
X0230934Y0071210D03*
X0230934Y0071210D03*
X0236839Y0084793D03*
X0236839Y0087155D03*
X0212036Y0038730D03*
X0212036Y0036958D03*
X0209674Y0026919D03*
X0209674Y0024556D03*
X0140776Y0061761D03*
X0140776Y0061761D03*
X0140776Y0064123D03*
X0140776Y0064123D03*
X0136839Y0064123D03*
X0136839Y0064123D03*
X0136839Y0061761D03*
X0136839Y0061761D03*
X0132902Y0061761D03*
X0132902Y0061761D03*
X0132902Y0064123D03*
X0132902Y0064123D03*
X0115973Y0105068D03*
X0115973Y0105068D03*
X0115973Y0107430D03*
X0115973Y0107430D03*
X0135658Y0112155D03*
X0135658Y0112155D03*
X0135658Y0114517D03*
X0135658Y0114517D03*
X0139595Y0120029D03*
X0139595Y0120029D03*
X0139595Y0122391D03*
X0139595Y0122391D03*
X0163217Y0107430D03*
X0163217Y0107430D03*
X0163217Y0105068D03*
X0163217Y0105068D03*
X0178965Y0120029D03*
X0179753Y0120029D03*
X0179753Y0120029D03*
X0182115Y0120029D03*
X0182115Y0120029D03*
X0088414Y0136564D03*
X0088414Y0136564D03*
X0086052Y0136564D03*
X0086052Y0136564D03*
X0080540Y0132627D03*
X0080540Y0132627D03*
X0078178Y0132627D03*
X0078178Y0132627D03*
D17*
X0100225Y0112155D02*
X0112036Y0123966D01*
X0112036Y0230659D01*
X0111249Y0231446D01*
X0116367Y0221997D02*
X0116367Y0158100D01*
X0121879Y0152588D01*
X0143532Y0126328D02*
X0143532Y0179084D01*
X0135658Y0186958D01*
X0135658Y0293257D01*
X0143965Y0301564D01*
X0143965Y0312470D01*
X0133965Y0312470D02*
X0133965Y0305738D01*
X0130146Y0301919D01*
X0130146Y0203100D01*
X0129753Y0202706D01*
X0129753Y0120423D01*
X0135658Y0114517D01*
X0139595Y0122391D02*
X0143532Y0126328D01*
X0167154Y0120029D02*
X0178965Y0120029D01*
X0179753Y0120029D01*
X0182115Y0120029D01*
X0167154Y0120029D02*
X0140776Y0093651D01*
X0140776Y0064123D01*
X0137233Y0064517D02*
X0136839Y0064123D01*
X0137233Y0064517D02*
X0137233Y0096407D01*
X0177784Y0136958D01*
X0177784Y0231446D01*
X0185658Y0222391D02*
X0185658Y0155738D01*
X0188808Y0152588D01*
X0214398Y0173966D02*
X0202587Y0185777D01*
X0214398Y0173966D02*
X0214398Y0064911D01*
X0207429Y0060303D01*
X0207429Y0029281D01*
X0209674Y0026919D01*
X0209674Y0024556D01*
X0162824Y0040501D02*
X0162824Y0104675D01*
X0163217Y0105068D01*
X0132902Y0064123D02*
X0132509Y0064123D01*
X0100225Y0096407D01*
X0100225Y0112155D01*
X0135658Y0185383D02*
X0136052Y0185777D01*
X0155343Y0194832D02*
X0156918Y0193257D01*
X0160855Y0193257D01*
X0155343Y0194832D02*
X0155343Y0305068D01*
X0163965Y0304320D02*
X0163965Y0312470D01*
X0163965Y0304320D02*
X0178965Y0289320D01*
X0273454Y0289320D01*
X0273948Y0288826D01*
X0274241Y0288119D02*
X0274241Y0131052D01*
X0282014Y0135090D02*
X0282115Y0134989D01*
X0281721Y0135797D02*
X0281721Y0288533D01*
X0277290Y0292964D01*
X0276583Y0293257D02*
X0182902Y0293257D01*
X0174258Y0301901D01*
X0173965Y0302608D02*
X0173965Y0312470D01*
X0178965Y0305068D02*
X0182902Y0305068D01*
X0190776Y0297194D01*
X0281328Y0297194D01*
X0289202Y0289320D01*
X0289202Y0139784D01*
X0289202Y0108218D01*
X0282312Y0101328D01*
X0304162Y0070029D02*
X0304556Y0070029D01*
X0304950Y0070423D01*
X0304950Y0297194D01*
X0297076Y0305068D01*
X0202587Y0305068D01*
X0195186Y0312470D01*
X0193965Y0312470D01*
X0183965Y0312470D02*
X0183965Y0311879D01*
X0194713Y0301131D01*
X0289202Y0301131D01*
X0297076Y0293257D01*
X0297076Y0062942D01*
X0296288Y0062155D01*
X0249831Y0120029D02*
X0249438Y0120423D01*
X0249438Y0231249D01*
X0256524Y0222391D02*
X0256524Y0155738D01*
X0259674Y0152588D01*
X0281721Y0135797D02*
X0281723Y0135737D01*
X0281728Y0135676D01*
X0281737Y0135617D01*
X0281750Y0135558D01*
X0281766Y0135499D01*
X0281786Y0135442D01*
X0281809Y0135387D01*
X0281836Y0135332D01*
X0281865Y0135280D01*
X0281898Y0135229D01*
X0281934Y0135180D01*
X0281972Y0135134D01*
X0282014Y0135090D01*
X0274241Y0288119D02*
X0274239Y0288179D01*
X0274234Y0288240D01*
X0274225Y0288299D01*
X0274212Y0288358D01*
X0274196Y0288417D01*
X0274176Y0288474D01*
X0274153Y0288529D01*
X0274126Y0288584D01*
X0274097Y0288636D01*
X0274064Y0288687D01*
X0274028Y0288736D01*
X0273990Y0288782D01*
X0273948Y0288826D01*
X0276583Y0293257D02*
X0276643Y0293255D01*
X0276704Y0293250D01*
X0276763Y0293241D01*
X0276822Y0293228D01*
X0276881Y0293212D01*
X0276938Y0293192D01*
X0276993Y0293169D01*
X0277048Y0293142D01*
X0277100Y0293113D01*
X0277151Y0293080D01*
X0277200Y0293044D01*
X0277246Y0293006D01*
X0277290Y0292964D01*
X0183965Y0322470D02*
X0183965Y0332470D01*
X0173965Y0302608D02*
X0173967Y0302548D01*
X0173972Y0302487D01*
X0173981Y0302428D01*
X0173994Y0302369D01*
X0174010Y0302310D01*
X0174030Y0302253D01*
X0174053Y0302198D01*
X0174080Y0302143D01*
X0174109Y0302091D01*
X0174142Y0302040D01*
X0174178Y0301991D01*
X0174216Y0301945D01*
X0174258Y0301901D01*
D18*
X0169123Y0318060D02*
X0173532Y0322470D01*
X0173965Y0322470D01*
X0173965Y0332470D01*
X0249044Y0231446D02*
X0249241Y0231249D01*
X0249438Y0231249D01*
D19*
X0178965Y0305068D02*
X0178965Y0316879D01*
X0183965Y0321879D01*
X0183965Y0322470D01*
X0169123Y0318060D02*
X0168729Y0317667D01*
X0161643Y0317667D01*
X0158887Y0314911D01*
X0158887Y0308612D01*
X0155343Y0305068D01*
D20*
X0289398Y0142076D02*
X0289202Y0141879D01*
X0289202Y0139784D01*
X0236839Y0084793D02*
X0242154Y0079478D01*
X0242154Y0038730D01*
M02*
