G75*
%MOIN*%
%OFA0B0*%
%FSLAX25Y25*%
%IPPOS*%
%LPD*%
%AMOC8*
5,1,8,0,0,1.08239X$1,22.5*
%
%ADD10C,0.00600*%
%ADD11C,0.00000*%
D10*
X0112324Y0239454D02*
X0113392Y0239454D01*
X0112324Y0239454D02*
X0111257Y0240521D01*
X0111257Y0245859D01*
X0108014Y0245859D02*
X0105879Y0245859D01*
X0104811Y0244791D01*
X0104811Y0241589D01*
X0108014Y0241589D01*
X0109081Y0242656D01*
X0108014Y0243724D01*
X0104811Y0243724D01*
X0102636Y0245859D02*
X0099433Y0245859D01*
X0098366Y0244791D01*
X0098366Y0241589D01*
X0102636Y0241589D02*
X0102636Y0245859D01*
X0106820Y0251628D02*
X0106820Y0255898D01*
X0106820Y0253763D02*
X0104685Y0255898D01*
X0103618Y0255898D01*
X0103579Y0261077D02*
X0103579Y0265347D01*
X0101404Y0265347D02*
X0098202Y0265347D01*
X0097134Y0264280D01*
X0097134Y0262144D01*
X0098202Y0261077D01*
X0101404Y0261077D01*
X0101404Y0267482D01*
X0094959Y0266415D02*
X0094959Y0265347D01*
X0093891Y0264280D01*
X0091756Y0264280D01*
X0090688Y0263212D01*
X0090688Y0262144D01*
X0091756Y0261077D01*
X0093891Y0261077D01*
X0094959Y0262144D01*
X0093936Y0258034D02*
X0091801Y0258034D01*
X0090733Y0256966D01*
X0090733Y0254831D02*
X0092868Y0254831D01*
X0090733Y0254831D02*
X0090733Y0252696D01*
X0091801Y0251628D01*
X0093936Y0251628D01*
X0095004Y0252696D01*
X0095004Y0256966D01*
X0093936Y0258034D01*
X0088558Y0254831D02*
X0087491Y0255898D01*
X0085355Y0255898D01*
X0084288Y0254831D01*
X0084288Y0253763D01*
X0088558Y0253763D01*
X0088558Y0252696D02*
X0088558Y0254831D01*
X0088558Y0252696D02*
X0087491Y0251628D01*
X0085355Y0251628D01*
X0082113Y0251628D02*
X0082113Y0255898D01*
X0078910Y0255898D01*
X0077842Y0254831D01*
X0077842Y0251628D01*
X0074719Y0247994D02*
X0074719Y0241589D01*
X0076854Y0241589D02*
X0072584Y0241589D01*
X0070408Y0241589D02*
X0066138Y0241589D01*
X0068273Y0241589D02*
X0068273Y0247994D01*
X0070408Y0245859D01*
X0074719Y0247994D02*
X0076854Y0245859D01*
X0079029Y0244791D02*
X0083299Y0244791D01*
X0085475Y0243724D02*
X0085475Y0242656D01*
X0086542Y0241589D01*
X0088677Y0241589D01*
X0089745Y0242656D01*
X0089745Y0243724D01*
X0088677Y0244791D01*
X0086542Y0244791D01*
X0085475Y0243724D01*
X0086542Y0244791D02*
X0085475Y0245859D01*
X0085475Y0246927D01*
X0086542Y0247994D01*
X0088677Y0247994D01*
X0089745Y0246927D01*
X0089745Y0245859D01*
X0088677Y0244791D01*
X0087446Y0261077D02*
X0084243Y0261077D01*
X0084243Y0264280D01*
X0085311Y0265347D01*
X0087446Y0265347D01*
X0087446Y0263212D02*
X0084243Y0263212D01*
X0082068Y0265347D02*
X0079933Y0265347D01*
X0081000Y0266415D02*
X0081000Y0262144D01*
X0079933Y0261077D01*
X0077771Y0261077D02*
X0073500Y0261077D01*
X0075636Y0261077D02*
X0075636Y0267482D01*
X0077771Y0265347D01*
X0069222Y0258034D02*
X0066019Y0258034D01*
X0064951Y0256966D01*
X0064951Y0255898D01*
X0066019Y0254831D01*
X0069222Y0254831D01*
X0069222Y0251628D02*
X0069222Y0258034D01*
X0066019Y0254831D02*
X0064951Y0253763D01*
X0064951Y0252696D01*
X0066019Y0251628D01*
X0069222Y0251628D01*
X0062776Y0252696D02*
X0061709Y0251628D01*
X0059573Y0251628D01*
X0058506Y0252696D01*
X0058506Y0254831D01*
X0059573Y0255898D01*
X0061709Y0255898D01*
X0062776Y0254831D01*
X0062776Y0252696D01*
X0056331Y0252696D02*
X0055263Y0251628D01*
X0052060Y0251628D01*
X0052060Y0254831D01*
X0053128Y0255898D01*
X0055263Y0255898D01*
X0055263Y0253763D02*
X0052060Y0253763D01*
X0049885Y0253763D02*
X0047750Y0255898D01*
X0046682Y0255898D01*
X0044514Y0254831D02*
X0043446Y0255898D01*
X0040244Y0255898D01*
X0040244Y0258034D02*
X0040244Y0251628D01*
X0043446Y0251628D01*
X0044514Y0252696D01*
X0044514Y0254831D01*
X0049885Y0255898D02*
X0049885Y0251628D01*
X0051072Y0247994D02*
X0046802Y0247994D01*
X0046802Y0246927D01*
X0051072Y0242656D01*
X0051072Y0241589D01*
X0053247Y0241589D02*
X0057517Y0241589D01*
X0055382Y0241589D02*
X0055382Y0247994D01*
X0057517Y0245859D01*
X0059693Y0244791D02*
X0063963Y0244791D01*
X0056331Y0252696D02*
X0055263Y0253763D01*
X0031623Y0253763D02*
X0029488Y0251628D01*
X0027353Y0253763D01*
X0027353Y0258034D01*
X0025177Y0254831D02*
X0020907Y0254831D01*
X0021975Y0251628D02*
X0021975Y0258034D01*
X0025177Y0254831D01*
X0031623Y0253763D02*
X0031623Y0258034D01*
X0087446Y0261077D02*
X0088513Y0262144D01*
X0087446Y0263212D01*
X0090688Y0266415D02*
X0091756Y0267482D01*
X0093891Y0267482D01*
X0094959Y0266415D01*
X0103579Y0261077D02*
X0106782Y0261077D01*
X0107850Y0262144D01*
X0107850Y0265347D01*
X0110025Y0266415D02*
X0111093Y0267482D01*
X0114295Y0267482D01*
X0114295Y0261077D01*
X0111093Y0261077D01*
X0110025Y0262144D01*
X0110025Y0266415D01*
X0110063Y0255898D02*
X0108996Y0254831D01*
X0108996Y0253763D01*
X0113266Y0253763D01*
X0113266Y0252696D02*
X0113266Y0254831D01*
X0112198Y0255898D01*
X0110063Y0255898D01*
X0110063Y0251628D02*
X0112198Y0251628D01*
X0113266Y0252696D01*
X0115441Y0252696D02*
X0116509Y0251628D01*
X0117576Y0252696D01*
X0118644Y0251628D01*
X0119711Y0252696D01*
X0119711Y0255898D01*
X0121887Y0254831D02*
X0122954Y0255898D01*
X0125089Y0255898D01*
X0126157Y0254831D01*
X0126157Y0252696D01*
X0125089Y0251628D01*
X0122954Y0251628D01*
X0121887Y0252696D01*
X0121887Y0254831D01*
X0128332Y0254831D02*
X0128332Y0256966D01*
X0129400Y0258034D01*
X0132602Y0258034D01*
X0132602Y0251628D01*
X0132602Y0253763D02*
X0129400Y0253763D01*
X0128332Y0254831D01*
X0121972Y0247994D02*
X0118770Y0247994D01*
X0117702Y0246927D01*
X0117702Y0244791D01*
X0118770Y0243724D01*
X0121972Y0243724D01*
X0119837Y0243724D02*
X0117702Y0241589D01*
X0115527Y0242656D02*
X0114459Y0241589D01*
X0111257Y0241589D01*
X0115527Y0242656D02*
X0115527Y0245859D01*
X0121972Y0247994D02*
X0121972Y0241589D01*
X0115441Y0252696D02*
X0115441Y0255898D01*
D11*
X0021485Y0009793D02*
X0336446Y0009793D01*
X0356131Y0029478D01*
X0356131Y0344438D01*
X0336446Y0364123D01*
X0021485Y0364123D01*
X0001800Y0344438D01*
X0001800Y0029478D01*
X0021485Y0009793D01*
M02*
