G75*
%MOIN*%
%OFA0B0*%
%FSLAX25Y25*%
%IPPOS*%
%LPD*%
%AMOC8*
5,1,8,0,0,1.08239X$1,22.5*
%
%ADD10R,0.05000X0.08110*%
%ADD11R,0.05906X0.05118*%
%ADD12R,0.05000X0.05787*%
%ADD13R,0.07480X0.13386*%
%ADD14R,0.05118X0.05906*%
%ADD15R,0.11201X0.06500*%
%ADD16R,0.01654X0.03500*%
%ADD17R,0.03937X0.01772*%
%ADD18R,0.03543X0.03150*%
%ADD19R,0.08110X0.05000*%
%ADD20R,0.05000X0.02500*%
%ADD21C,0.07050*%
%ADD22OC8,0.07400*%
%ADD23C,0.00000*%
%ADD24C,0.29528*%
%ADD25R,0.00984X0.06102*%
%ADD26R,0.06102X0.00984*%
%ADD27R,0.01575X0.06890*%
%ADD28R,0.07087X0.03937*%
%ADD29R,0.03150X0.04724*%
%ADD30C,0.00800*%
%ADD31R,0.04724X0.03150*%
%ADD32C,0.04400*%
%ADD33C,0.02400*%
%ADD34R,0.06299X0.04921*%
%ADD35R,0.03937X0.00984*%
%ADD36R,0.00984X0.03937*%
%ADD37R,0.07400X0.07400*%
%ADD38C,0.07400*%
%ADD39R,0.07098X0.06299*%
%ADD40C,0.06000*%
%ADD41C,0.01000*%
%ADD42C,0.01600*%
%ADD43C,0.02781*%
%ADD44C,0.01200*%
%ADD45C,0.00787*%
%ADD46OC8,0.02781*%
D10*
X0063119Y0247037D03*
X0076938Y0247037D03*
D11*
X0084477Y0240304D03*
X0084477Y0232824D03*
X0084477Y0258021D03*
X0084477Y0265501D03*
X0109831Y0267155D03*
X0109831Y0259675D03*
X0110934Y0250304D03*
X0110934Y0242824D03*
X0119005Y0252745D03*
X0119005Y0260226D03*
X0151406Y0258021D03*
X0151406Y0265501D03*
X0176761Y0267155D03*
X0185934Y0261407D03*
X0185934Y0253927D03*
X0177863Y0250304D03*
X0177863Y0242824D03*
X0176761Y0259675D03*
X0218335Y0258021D03*
X0218335Y0265501D03*
X0243690Y0267155D03*
X0251682Y0267509D03*
X0251682Y0260029D03*
X0243690Y0259675D03*
X0244792Y0250304D03*
X0244792Y0242824D03*
X0210461Y0218257D03*
X0210461Y0210777D03*
X0191170Y0193454D03*
X0191170Y0185974D03*
X0181918Y0185777D03*
X0181918Y0193257D03*
X0173257Y0193257D03*
X0173257Y0185777D03*
X0143139Y0210383D03*
X0143139Y0217864D03*
X0125422Y0192864D03*
X0125422Y0185383D03*
X0116170Y0185777D03*
X0116170Y0193257D03*
X0106131Y0192667D03*
X0106131Y0185186D03*
X0239989Y0184596D03*
X0239989Y0192076D03*
X0248847Y0192076D03*
X0248847Y0184596D03*
X0258099Y0184793D03*
X0258099Y0192273D03*
D12*
X0236682Y0212549D03*
X0219753Y0212549D03*
X0169753Y0212549D03*
X0152824Y0212549D03*
X0102824Y0212549D03*
X0085894Y0212549D03*
X0073060Y0272745D03*
X0056131Y0272745D03*
X0123454Y0272745D03*
X0140383Y0272745D03*
X0190383Y0272745D03*
X0207312Y0272745D03*
D13*
X0216524Y0284635D03*
X0231879Y0284635D03*
X0161013Y0284635D03*
X0145658Y0284635D03*
X0094083Y0284635D03*
X0078729Y0284635D03*
D14*
X0104044Y0280226D03*
X0111524Y0280226D03*
X0109871Y0232627D03*
X0102391Y0232627D03*
X0097666Y0223178D03*
X0090186Y0223178D03*
X0076406Y0210580D03*
X0068926Y0210580D03*
X0069517Y0195619D03*
X0076997Y0195619D03*
X0076997Y0186761D03*
X0069517Y0186761D03*
X0100225Y0201722D03*
X0107706Y0201722D03*
X0115776Y0201919D03*
X0123257Y0201919D03*
X0136446Y0195619D03*
X0143926Y0195619D03*
X0143926Y0186761D03*
X0136446Y0186761D03*
X0166367Y0201722D03*
X0173847Y0201722D03*
X0183099Y0201722D03*
X0190580Y0201722D03*
X0203375Y0195619D03*
X0210855Y0195619D03*
X0210855Y0186761D03*
X0203375Y0186761D03*
X0234871Y0200934D03*
X0242351Y0200934D03*
X0251013Y0201328D03*
X0258493Y0201328D03*
X0255540Y0223572D03*
X0248060Y0223572D03*
X0248060Y0232627D03*
X0240580Y0232627D03*
X0238217Y0223572D03*
X0230737Y0223572D03*
X0221682Y0227115D03*
X0214202Y0227115D03*
X0184674Y0223572D03*
X0177194Y0223572D03*
X0176800Y0232627D03*
X0169320Y0232627D03*
X0167351Y0223572D03*
X0159871Y0223572D03*
X0150816Y0226328D03*
X0143335Y0226328D03*
X0114989Y0223178D03*
X0107509Y0223178D03*
X0170973Y0280226D03*
X0178454Y0280226D03*
X0241839Y0280226D03*
X0249320Y0280226D03*
X0272057Y0100312D03*
X0279537Y0100312D03*
X0220428Y0025835D03*
X0212947Y0025835D03*
D15*
X0230855Y0247549D03*
X0163926Y0247549D03*
X0096997Y0247549D03*
D16*
X0098276Y0255816D03*
X0095717Y0255816D03*
X0093158Y0255816D03*
X0090599Y0255816D03*
X0100835Y0255816D03*
X0103394Y0255816D03*
X0103394Y0239281D03*
X0100835Y0239281D03*
X0098276Y0239281D03*
X0095717Y0239281D03*
X0093158Y0239281D03*
X0090599Y0239281D03*
X0157528Y0239281D03*
X0160087Y0239281D03*
X0162646Y0239281D03*
X0165206Y0239281D03*
X0167765Y0239281D03*
X0170324Y0239281D03*
X0170324Y0255816D03*
X0167765Y0255816D03*
X0165206Y0255816D03*
X0162646Y0255816D03*
X0160087Y0255816D03*
X0157528Y0255816D03*
X0224457Y0255816D03*
X0227017Y0255816D03*
X0229576Y0255816D03*
X0232135Y0255816D03*
X0234694Y0255816D03*
X0237253Y0255816D03*
X0237253Y0239281D03*
X0234694Y0239281D03*
X0232135Y0239281D03*
X0229576Y0239281D03*
X0227017Y0239281D03*
X0224457Y0239281D03*
D17*
X0221879Y0193159D03*
X0221879Y0190600D03*
X0221879Y0188041D03*
X0221879Y0185482D03*
X0232115Y0185482D03*
X0232115Y0188041D03*
X0232115Y0190600D03*
X0232115Y0193159D03*
X0165186Y0193159D03*
X0165186Y0190600D03*
X0165186Y0188041D03*
X0165186Y0185482D03*
X0154950Y0185482D03*
X0154950Y0188041D03*
X0154950Y0190600D03*
X0154950Y0193159D03*
X0098257Y0193159D03*
X0098257Y0190600D03*
X0098257Y0188041D03*
X0098257Y0185482D03*
X0088020Y0185482D03*
X0088020Y0188041D03*
X0088020Y0190600D03*
X0088020Y0193159D03*
D18*
X0100225Y0265895D03*
X0100225Y0273375D03*
X0091957Y0269635D03*
X0158887Y0269635D03*
X0167154Y0265895D03*
X0167154Y0273375D03*
X0225816Y0269635D03*
X0234083Y0265895D03*
X0234083Y0273375D03*
D19*
X0215816Y0249655D03*
X0215816Y0235836D03*
X0148493Y0236230D03*
X0148493Y0250049D03*
D20*
X0123847Y0299531D03*
X0123847Y0302731D03*
X0182902Y0302731D03*
X0182902Y0299531D03*
X0249831Y0299531D03*
X0249831Y0302731D03*
X0267942Y0179897D03*
X0267942Y0176697D03*
X0197469Y0175515D03*
X0197469Y0178715D03*
X0129753Y0176747D03*
X0129753Y0173547D03*
D21*
X0121879Y0156113D02*
X0121879Y0149063D01*
X0102194Y0149063D02*
X0102194Y0156113D01*
X0169123Y0156113D02*
X0169123Y0149063D01*
X0188808Y0149063D02*
X0188808Y0156113D01*
X0239989Y0156113D02*
X0239989Y0149063D01*
X0259674Y0149063D02*
X0259674Y0156113D01*
D22*
X0263965Y0312470D03*
X0253965Y0312470D03*
X0243965Y0312470D03*
X0233965Y0312470D03*
X0223965Y0312470D03*
X0213965Y0312470D03*
X0203965Y0312470D03*
X0193965Y0312470D03*
X0183965Y0312470D03*
X0173965Y0312470D03*
X0163965Y0312470D03*
X0153965Y0312470D03*
X0143965Y0312470D03*
X0133965Y0312470D03*
X0123965Y0312470D03*
X0113965Y0312470D03*
X0103965Y0312470D03*
X0093965Y0312470D03*
X0083965Y0312470D03*
X0073965Y0312470D03*
X0063965Y0312470D03*
X0053965Y0312470D03*
X0053965Y0322470D03*
X0053965Y0332470D03*
X0063965Y0332470D03*
X0063965Y0322470D03*
X0073965Y0322470D03*
X0073965Y0332470D03*
X0073965Y0342470D03*
X0063965Y0342470D03*
X0053965Y0342470D03*
X0083965Y0342470D03*
X0083965Y0332470D03*
X0083965Y0322470D03*
X0093965Y0322470D03*
X0093965Y0332470D03*
X0093965Y0342470D03*
X0103965Y0342470D03*
X0113965Y0342470D03*
X0113965Y0332470D03*
X0103965Y0332470D03*
X0103965Y0322470D03*
X0113965Y0322470D03*
X0123965Y0322470D03*
X0123965Y0332470D03*
X0123965Y0342470D03*
X0133965Y0342470D03*
X0133965Y0332470D03*
X0133965Y0322470D03*
X0143965Y0322470D03*
X0143965Y0332470D03*
X0143965Y0342470D03*
X0153965Y0342470D03*
X0163965Y0342470D03*
X0163965Y0332470D03*
X0153965Y0332470D03*
X0153965Y0322470D03*
X0163965Y0322470D03*
X0173965Y0322470D03*
X0173965Y0332470D03*
X0173965Y0342470D03*
X0183965Y0342470D03*
X0183965Y0332470D03*
X0183965Y0322470D03*
X0193965Y0322470D03*
X0193965Y0332470D03*
X0203965Y0332470D03*
X0203965Y0322470D03*
X0213965Y0322470D03*
X0213965Y0332470D03*
X0213965Y0342470D03*
X0203965Y0342470D03*
X0193965Y0342470D03*
X0223965Y0342470D03*
X0223965Y0332470D03*
X0223965Y0322470D03*
X0233965Y0322470D03*
X0233965Y0332470D03*
X0233965Y0342470D03*
X0243965Y0342470D03*
X0253965Y0342470D03*
X0253965Y0332470D03*
X0243965Y0332470D03*
X0243965Y0322470D03*
X0253965Y0322470D03*
X0263965Y0322470D03*
X0263965Y0332470D03*
X0263965Y0342470D03*
X0273965Y0342470D03*
X0273965Y0332470D03*
X0273965Y0322470D03*
X0273965Y0312470D03*
X0283965Y0312470D03*
X0283965Y0322470D03*
X0283965Y0332470D03*
X0283965Y0342470D03*
X0293965Y0342470D03*
X0303965Y0342470D03*
X0303965Y0332470D03*
X0293965Y0332470D03*
X0293965Y0322470D03*
X0303965Y0322470D03*
X0303965Y0312470D03*
X0293965Y0312470D03*
D23*
X0336446Y0009793D02*
X0021485Y0009793D01*
X0001800Y0029478D01*
X0001800Y0344438D01*
X0021485Y0364123D01*
X0336446Y0364123D01*
X0356131Y0344438D01*
X0356131Y0029478D01*
X0336446Y0009793D01*
D24*
X0334477Y0031446D03*
X0334477Y0342470D03*
X0023454Y0342470D03*
X0023454Y0031446D03*
D25*
X0124831Y0050738D03*
X0126800Y0050738D03*
X0128769Y0050738D03*
X0130737Y0050738D03*
X0132706Y0050738D03*
X0134674Y0050738D03*
X0136643Y0050738D03*
X0138611Y0050738D03*
X0140580Y0050738D03*
X0142548Y0050738D03*
X0144517Y0050738D03*
X0146485Y0050738D03*
X0148454Y0050738D03*
X0150422Y0050738D03*
X0152391Y0050738D03*
X0154359Y0050738D03*
X0154359Y0094832D03*
X0152391Y0094832D03*
X0150422Y0094832D03*
X0148454Y0094832D03*
X0146485Y0094832D03*
X0144517Y0094832D03*
X0142548Y0094832D03*
X0140580Y0094832D03*
X0138611Y0094832D03*
X0136643Y0094832D03*
X0134674Y0094832D03*
X0132706Y0094832D03*
X0130737Y0094832D03*
X0128769Y0094832D03*
X0126800Y0094832D03*
X0124831Y0094832D03*
D26*
X0117548Y0087549D03*
X0117548Y0085580D03*
X0117548Y0083612D03*
X0117548Y0081643D03*
X0117548Y0079675D03*
X0117548Y0077706D03*
X0117548Y0075738D03*
X0117548Y0073769D03*
X0117548Y0071801D03*
X0117548Y0069832D03*
X0117548Y0067864D03*
X0117548Y0065895D03*
X0117548Y0063927D03*
X0117548Y0061958D03*
X0117548Y0059989D03*
X0117548Y0058021D03*
X0161643Y0058021D03*
X0161643Y0059989D03*
X0161643Y0061958D03*
X0161643Y0063927D03*
X0161643Y0065895D03*
X0161643Y0067864D03*
X0161643Y0069832D03*
X0161643Y0071801D03*
X0161643Y0073769D03*
X0161643Y0075738D03*
X0161643Y0077706D03*
X0161643Y0079675D03*
X0161643Y0081643D03*
X0161643Y0083612D03*
X0161643Y0085580D03*
X0161643Y0087549D03*
D27*
X0200461Y0079084D03*
X0203020Y0079084D03*
X0205580Y0079084D03*
X0208139Y0079084D03*
X0210698Y0079084D03*
X0213257Y0079084D03*
X0215816Y0079084D03*
X0218375Y0079084D03*
X0220934Y0079084D03*
X0223493Y0079084D03*
X0226052Y0079084D03*
X0228611Y0079084D03*
X0231170Y0079084D03*
X0233729Y0079084D03*
X0233729Y0050738D03*
X0231170Y0050738D03*
X0228611Y0050738D03*
X0226052Y0050738D03*
X0223493Y0050738D03*
X0220934Y0050738D03*
X0218375Y0050738D03*
X0215816Y0050738D03*
X0213257Y0050738D03*
X0210698Y0050738D03*
X0208139Y0050738D03*
X0205580Y0050738D03*
X0203020Y0050738D03*
X0200461Y0050738D03*
D28*
X0179595Y0077864D03*
X0179595Y0087706D03*
D29*
X0170619Y0096407D03*
X0163532Y0096407D03*
X0163532Y0106249D03*
X0170619Y0106249D03*
X0115658Y0106249D03*
X0108572Y0106249D03*
X0108572Y0096407D03*
X0115658Y0096407D03*
X0163532Y0049163D03*
X0170619Y0049163D03*
X0170619Y0039320D03*
X0163532Y0039320D03*
X0199615Y0037844D03*
X0206702Y0037844D03*
X0214221Y0037844D03*
X0221308Y0037844D03*
X0238828Y0086072D03*
X0245914Y0086072D03*
D30*
X0238513Y0084104D02*
X0233904Y0079495D01*
X0223257Y0077706D02*
X0223257Y0073116D01*
X0223022Y0072550D02*
X0221288Y0070816D01*
X0223023Y0072550D02*
X0223058Y0072589D01*
X0223092Y0072629D01*
X0223122Y0072672D01*
X0223150Y0072716D01*
X0223174Y0072762D01*
X0223196Y0072810D01*
X0223215Y0072859D01*
X0223230Y0072909D01*
X0223242Y0072960D01*
X0223250Y0073012D01*
X0223255Y0073064D01*
X0223257Y0073116D01*
X0215383Y0079675D02*
X0215383Y0087217D01*
X0215617Y0087783D02*
X0219320Y0091486D01*
X0219320Y0100012D01*
X0219554Y0100578D02*
X0224241Y0105265D01*
X0226702Y0107726D02*
X0235721Y0107726D01*
X0236286Y0107491D02*
X0237036Y0106741D01*
X0236287Y0107492D02*
X0236248Y0107527D01*
X0236208Y0107561D01*
X0236165Y0107591D01*
X0236121Y0107619D01*
X0236075Y0107643D01*
X0236027Y0107665D01*
X0235978Y0107684D01*
X0235928Y0107699D01*
X0235877Y0107711D01*
X0235825Y0107719D01*
X0235773Y0107724D01*
X0235721Y0107726D01*
X0219554Y0100578D02*
X0219519Y0100539D01*
X0219485Y0100499D01*
X0219455Y0100456D01*
X0219427Y0100412D01*
X0219403Y0100366D01*
X0219381Y0100318D01*
X0219362Y0100269D01*
X0219347Y0100219D01*
X0219335Y0100168D01*
X0219327Y0100116D01*
X0219322Y0100064D01*
X0219320Y0100012D01*
X0213414Y0096407D02*
X0213414Y0079675D01*
X0210461Y0078690D02*
X0210461Y0085249D01*
X0210227Y0085814D02*
X0208493Y0087549D01*
X0210227Y0085815D02*
X0210262Y0085776D01*
X0210296Y0085736D01*
X0210326Y0085693D01*
X0210354Y0085649D01*
X0210378Y0085603D01*
X0210400Y0085555D01*
X0210419Y0085506D01*
X0210434Y0085456D01*
X0210446Y0085405D01*
X0210454Y0085353D01*
X0210459Y0085301D01*
X0210461Y0085249D01*
X0215383Y0087217D02*
X0215385Y0087269D01*
X0215390Y0087321D01*
X0215398Y0087373D01*
X0215410Y0087424D01*
X0215425Y0087474D01*
X0215444Y0087523D01*
X0215466Y0087571D01*
X0215490Y0087617D01*
X0215518Y0087661D01*
X0215548Y0087704D01*
X0215582Y0087744D01*
X0215617Y0087783D01*
X0211446Y0095423D02*
X0200619Y0095423D01*
X0202837Y0085580D02*
X0196682Y0085580D01*
X0196682Y0082959D01*
X0196448Y0082393D02*
X0185855Y0071801D01*
X0163217Y0071801D01*
X0163217Y0069832D02*
X0186839Y0069832D01*
X0197432Y0080424D01*
X0197998Y0080659D02*
X0200619Y0080659D01*
X0202837Y0080659D02*
X0202837Y0085580D01*
X0196682Y0082959D02*
X0196680Y0082907D01*
X0196675Y0082855D01*
X0196667Y0082803D01*
X0196655Y0082752D01*
X0196640Y0082702D01*
X0196621Y0082653D01*
X0196599Y0082605D01*
X0196575Y0082559D01*
X0196547Y0082515D01*
X0196517Y0082472D01*
X0196483Y0082432D01*
X0196448Y0082393D01*
X0197432Y0080425D02*
X0197471Y0080460D01*
X0197511Y0080494D01*
X0197554Y0080524D01*
X0197598Y0080552D01*
X0197644Y0080576D01*
X0197692Y0080598D01*
X0197741Y0080617D01*
X0197791Y0080632D01*
X0197842Y0080644D01*
X0197894Y0080652D01*
X0197946Y0080657D01*
X0197998Y0080659D01*
X0190776Y0086564D02*
X0179950Y0078690D01*
X0176997Y0077706D02*
X0176997Y0081643D01*
X0162233Y0081643D01*
X0162233Y0079675D02*
X0168139Y0079675D01*
X0168139Y0073769D01*
X0164533Y0073769D01*
X0162233Y0067864D02*
X0193729Y0067864D01*
X0202837Y0058755D01*
X0202837Y0052358D01*
X0200619Y0052608D02*
X0192253Y0052608D01*
X0178965Y0065895D01*
X0160757Y0065895D01*
X0161249Y0063927D02*
X0173591Y0063927D01*
X0192292Y0045226D01*
X0205540Y0045226D01*
X0205540Y0048178D01*
X0208493Y0048178D02*
X0208493Y0043257D01*
X0204064Y0043257D01*
X0200127Y0039320D01*
X0206032Y0037844D02*
X0213906Y0037844D01*
X0213906Y0038828D02*
X0210954Y0041781D01*
X0210954Y0048671D01*
X0213414Y0049163D02*
X0213414Y0044241D01*
X0223257Y0044241D01*
X0223257Y0049163D01*
X0228670Y0045065D02*
X0228664Y0044973D01*
X0228654Y0044881D01*
X0228640Y0044790D01*
X0228622Y0044699D01*
X0228601Y0044609D01*
X0228576Y0044520D01*
X0228548Y0044432D01*
X0228516Y0044345D01*
X0228480Y0044260D01*
X0228441Y0044176D01*
X0228398Y0044094D01*
X0228352Y0044014D01*
X0228303Y0043936D01*
X0228250Y0043860D01*
X0228195Y0043786D01*
X0228136Y0043715D01*
X0228075Y0043646D01*
X0228010Y0043579D01*
X0227943Y0043515D01*
X0227944Y0043515D02*
X0226702Y0042273D01*
X0228670Y0045065D02*
X0228670Y0050639D01*
X0231131Y0049163D02*
X0231131Y0045557D01*
X0231365Y0044991D02*
X0234083Y0042273D01*
X0231365Y0044991D02*
X0231330Y0045030D01*
X0231296Y0045070D01*
X0231266Y0045113D01*
X0231238Y0045157D01*
X0231214Y0045203D01*
X0231192Y0045251D01*
X0231173Y0045300D01*
X0231158Y0045350D01*
X0231146Y0045401D01*
X0231138Y0045453D01*
X0231133Y0045505D01*
X0231131Y0045557D01*
X0234083Y0049163D02*
X0234083Y0057037D01*
X0215383Y0057037D01*
X0215383Y0051131D01*
X0213906Y0036860D02*
X0213414Y0036860D01*
X0179595Y0044035D02*
X0175028Y0048602D01*
X0175028Y0052608D01*
X0167646Y0059989D01*
X0163709Y0059989D01*
X0163217Y0061958D02*
X0169123Y0061958D01*
X0178239Y0052842D01*
X0178239Y0050617D01*
X0162233Y0058021D02*
X0162233Y0038336D01*
X0156328Y0043257D02*
X0154593Y0044991D01*
X0154359Y0045557D02*
X0154359Y0050147D01*
X0154359Y0045557D02*
X0154361Y0045505D01*
X0154366Y0045453D01*
X0154374Y0045401D01*
X0154386Y0045350D01*
X0154401Y0045300D01*
X0154420Y0045251D01*
X0154442Y0045203D01*
X0154466Y0045157D01*
X0154494Y0045113D01*
X0154524Y0045070D01*
X0154558Y0045030D01*
X0154593Y0044991D01*
X0162233Y0083612D02*
X0176997Y0083612D01*
X0176997Y0087549D01*
X0178965Y0087549D02*
X0178965Y0095423D01*
X0169123Y0088533D02*
X0166170Y0085580D01*
X0163217Y0085580D01*
X0162233Y0087549D02*
X0162233Y0106741D01*
X0126800Y0099028D02*
X0126800Y0095423D01*
X0124831Y0095423D02*
X0116957Y0095423D01*
X0115973Y0095423D01*
X0116957Y0095423D02*
X0116957Y0107234D01*
X0122863Y0103297D02*
X0126566Y0099594D01*
X0126601Y0099555D01*
X0126635Y0099515D01*
X0126665Y0099472D01*
X0126693Y0099428D01*
X0126717Y0099382D01*
X0126739Y0099334D01*
X0126758Y0099285D01*
X0126773Y0099235D01*
X0126785Y0099184D01*
X0126793Y0099132D01*
X0126798Y0099080D01*
X0126800Y0099028D01*
D31*
X0180934Y0095738D03*
X0180934Y0102824D03*
X0190776Y0093966D03*
X0190776Y0086879D03*
X0201603Y0095738D03*
X0201603Y0102824D03*
X0237036Y0099340D03*
X0237036Y0106427D03*
X0236052Y0041958D03*
X0236052Y0034871D03*
D32*
X0236052Y0031446D03*
X0224733Y0037844D03*
X0227194Y0042273D03*
X0221288Y0070816D03*
X0208493Y0087549D03*
X0190776Y0097391D03*
X0180934Y0106249D03*
X0171091Y0101328D03*
X0169123Y0088533D03*
X0169123Y0076722D03*
X0184610Y0059055D03*
X0188231Y0065303D03*
X0192145Y0072785D03*
X0179595Y0051535D03*
X0179595Y0044035D03*
X0171091Y0044241D03*
X0156328Y0043257D03*
X0123847Y0102312D03*
X0108099Y0101328D03*
X0201603Y0106249D03*
X0237036Y0095915D03*
X0249339Y0086072D03*
D33*
X0188195Y0066885D02*
X0188195Y0064385D01*
X0171091Y0049241D02*
X0171091Y0039320D01*
X0171091Y0096407D02*
X0171091Y0106328D01*
X0180934Y0106249D02*
X0180934Y0102312D01*
X0108099Y0106249D02*
X0108099Y0096328D01*
X0123847Y0302731D02*
X0123965Y0312470D01*
X0113965Y0322470D01*
X0103965Y0312470D01*
X0094189Y0322246D01*
X0094189Y0322273D01*
X0093965Y0322470D02*
X0103965Y0332470D01*
X0113980Y0322455D01*
X0114162Y0322455D01*
X0113965Y0322470D02*
X0123965Y0332470D01*
X0113965Y0342470D01*
X0103965Y0332470D01*
X0093965Y0342470D01*
X0123847Y0302731D02*
X0182902Y0302731D01*
X0249831Y0302731D01*
D34*
X0226524Y0105580D03*
X0226524Y0096919D03*
X0211957Y0096919D03*
X0211957Y0105580D03*
D35*
X0236052Y0042667D03*
D36*
X0213906Y0037844D03*
X0238513Y0086072D03*
X0162840Y0106180D03*
X0116121Y0106380D03*
X0162762Y0039315D03*
D37*
X0096288Y0018167D03*
D38*
X0106288Y0017167D03*
X0116288Y0018167D03*
X0126288Y0017167D03*
X0136288Y0018167D03*
X0146288Y0017167D03*
X0156288Y0018167D03*
X0166288Y0017167D03*
D39*
X0134871Y0212856D03*
X0134871Y0224052D03*
X0075422Y0223486D03*
X0075422Y0234682D03*
X0201800Y0224446D03*
X0201800Y0213249D03*
D40*
X0019830Y0159527D02*
X0013830Y0159527D01*
X0012830Y0149527D02*
X0018830Y0149527D01*
X0019830Y0139527D02*
X0013830Y0139527D01*
X0012830Y0129527D02*
X0018830Y0129527D01*
X0019830Y0119527D02*
X0013830Y0119527D01*
X0012830Y0109527D02*
X0018830Y0109527D01*
X0019830Y0099527D02*
X0013830Y0099527D01*
D41*
X0078178Y0132627D02*
X0080540Y0132627D01*
X0086052Y0136564D02*
X0088414Y0136564D01*
X0115973Y0107430D02*
X0116121Y0107282D01*
X0116121Y0106380D01*
X0116121Y0105216D01*
X0115973Y0105068D01*
X0135658Y0100344D02*
X0136643Y0099360D01*
X0136643Y0094832D01*
X0138808Y0097588D02*
X0138808Y0099163D01*
X0139595Y0099950D01*
X0139595Y0120029D01*
X0139595Y0122391D01*
X0135658Y0114517D02*
X0135658Y0112155D01*
X0135658Y0100344D01*
X0162840Y0105445D02*
X0162840Y0106180D01*
X0163217Y0106557D01*
X0163217Y0107430D01*
X0162840Y0105445D02*
X0163217Y0105068D01*
X0179753Y0120029D02*
X0182115Y0120029D01*
X0228572Y0071210D02*
X0230934Y0071210D01*
X0228965Y0062155D02*
X0226603Y0062155D01*
X0213906Y0037844D02*
X0213906Y0036663D01*
X0214005Y0036564D01*
X0166288Y0017167D02*
X0157914Y0029478D01*
X0143532Y0029478D01*
X0131721Y0041289D01*
X0128769Y0040304D02*
X0128769Y0050738D01*
X0123847Y0045226D02*
X0123847Y0019608D01*
X0126288Y0017167D01*
X0116288Y0018167D02*
X0116288Y0056761D01*
X0117548Y0058021D01*
X0117351Y0059793D02*
X0114005Y0059793D01*
X0106288Y0052076D01*
X0106288Y0017167D01*
X0096288Y0018167D02*
X0096288Y0045226D01*
X0113020Y0061958D01*
X0117548Y0061958D01*
X0117548Y0059989D02*
X0117351Y0059793D01*
X0132902Y0061761D02*
X0132902Y0056643D01*
X0134674Y0054871D01*
X0134674Y0050738D01*
X0136643Y0050738D02*
X0136643Y0061564D01*
X0136839Y0061761D01*
X0136839Y0064123D01*
X0132902Y0064123D02*
X0132902Y0061761D01*
X0140776Y0061761D02*
X0140776Y0057037D01*
X0138611Y0054871D01*
X0138611Y0050738D01*
X0140776Y0061761D02*
X0140776Y0064123D01*
X0128769Y0040304D02*
X0143532Y0025541D01*
X0148914Y0025541D01*
X0156288Y0018167D01*
X0162824Y0039254D02*
X0162762Y0039315D01*
X0247863Y0120029D02*
X0250225Y0120029D01*
X0271879Y0131052D02*
X0274241Y0131052D01*
X0279753Y0134989D02*
X0282115Y0134989D01*
X0246879Y0177509D02*
X0233887Y0177509D01*
X0232115Y0179281D01*
X0232115Y0185482D01*
X0232115Y0188041D02*
X0233985Y0188041D01*
X0235658Y0186367D01*
X0235658Y0181052D01*
X0236839Y0179871D01*
X0243335Y0179871D01*
X0244517Y0181052D01*
X0244517Y0189911D01*
X0246288Y0191682D01*
X0248454Y0191682D01*
X0248847Y0192076D01*
X0242351Y0198572D01*
X0242351Y0200934D01*
X0236682Y0202745D02*
X0236682Y0206446D01*
X0237272Y0207037D01*
X0249241Y0207037D01*
X0251013Y0205265D01*
X0251013Y0201328D01*
X0258099Y0200934D02*
X0258099Y0192273D01*
X0267942Y0182430D01*
X0267942Y0179897D01*
X0258099Y0184793D02*
X0257902Y0184596D01*
X0248847Y0184596D01*
X0248847Y0179478D01*
X0246879Y0177509D01*
X0239989Y0184596D02*
X0233985Y0190600D01*
X0232115Y0190600D01*
X0230048Y0190600D01*
X0226997Y0187549D01*
X0227784Y0193257D02*
X0232017Y0193257D01*
X0232115Y0193159D01*
X0232410Y0192864D01*
X0239202Y0192864D01*
X0239989Y0192076D01*
X0234871Y0200934D02*
X0236682Y0202745D01*
X0236682Y0206446D02*
X0236682Y0212549D01*
X0230737Y0223572D02*
X0227017Y0227293D01*
X0227017Y0232450D01*
X0221682Y0227115D01*
X0214202Y0227115D02*
X0214202Y0234222D01*
X0215816Y0235836D01*
X0219261Y0239281D01*
X0224457Y0239281D01*
X0227017Y0239281D02*
X0227017Y0232450D01*
X0229576Y0234773D02*
X0230146Y0234202D01*
X0239005Y0234202D01*
X0240580Y0232627D01*
X0248060Y0225147D01*
X0248060Y0223572D01*
X0249044Y0231446D02*
X0249044Y0233808D01*
X0249044Y0233612D01*
X0248060Y0232627D01*
X0256524Y0224753D02*
X0256524Y0222391D01*
X0258493Y0201328D02*
X0258099Y0200934D01*
X0229576Y0234773D02*
X0229576Y0239281D01*
X0216702Y0235836D02*
X0215816Y0235836D01*
X0214202Y0227115D02*
X0204469Y0227115D01*
X0201800Y0224446D01*
X0209280Y0220619D02*
X0211643Y0220619D01*
X0219753Y0212549D02*
X0217981Y0210777D01*
X0210461Y0210777D01*
X0204272Y0210777D01*
X0201800Y0213249D01*
X0190580Y0201722D02*
X0190580Y0194045D01*
X0191170Y0193454D01*
X0197469Y0187155D01*
X0197469Y0178715D01*
X0190973Y0185777D02*
X0181918Y0185777D01*
X0181918Y0181052D01*
X0180146Y0179281D01*
X0166564Y0179281D01*
X0165383Y0180462D01*
X0165383Y0185285D01*
X0165186Y0185482D01*
X0165186Y0188041D02*
X0167843Y0188041D01*
X0168335Y0187549D01*
X0168335Y0182234D01*
X0169517Y0181052D01*
X0177194Y0181052D01*
X0177784Y0182234D01*
X0177784Y0192273D01*
X0178965Y0193454D01*
X0181721Y0193454D01*
X0181918Y0193257D01*
X0181918Y0193651D01*
X0173847Y0201722D01*
X0166367Y0201722D02*
X0166367Y0209163D01*
X0169753Y0212549D01*
X0172272Y0212549D01*
X0183099Y0201722D01*
X0191367Y0194438D02*
X0191170Y0193454D01*
X0191170Y0185974D02*
X0190973Y0185777D01*
X0202587Y0188139D02*
X0203375Y0187352D01*
X0203375Y0186761D01*
X0203375Y0186564D01*
X0210855Y0186761D02*
X0217351Y0186761D01*
X0217351Y0188730D01*
X0219123Y0190501D01*
X0221780Y0190501D01*
X0221879Y0190600D01*
X0221879Y0193159D02*
X0220599Y0194438D01*
X0217942Y0202706D01*
X0215580Y0202706D01*
X0212036Y0196801D01*
X0210855Y0195619D01*
X0203375Y0195619D02*
X0203375Y0196013D01*
X0202587Y0196801D01*
X0202587Y0194832D01*
X0202587Y0194438D02*
X0203375Y0195226D01*
X0203375Y0195619D01*
X0217351Y0186761D02*
X0217548Y0179281D01*
X0215186Y0179281D01*
X0173257Y0185777D02*
X0168434Y0190600D01*
X0165186Y0190600D01*
X0163316Y0190600D01*
X0160265Y0187549D01*
X0160855Y0193257D02*
X0165087Y0193257D01*
X0165186Y0193159D01*
X0165284Y0193257D01*
X0173257Y0193257D01*
X0154950Y0193159D02*
X0153670Y0194438D01*
X0151013Y0202706D01*
X0148650Y0202706D01*
X0148650Y0200344D01*
X0143926Y0195619D01*
X0136446Y0195619D02*
X0136446Y0195226D01*
X0135658Y0194438D01*
X0135658Y0196801D01*
X0136052Y0188139D02*
X0136446Y0187745D01*
X0136446Y0186761D01*
X0136446Y0186171D01*
X0136052Y0185777D01*
X0129753Y0188533D02*
X0129753Y0176747D01*
X0125422Y0185383D02*
X0125028Y0185777D01*
X0116170Y0185777D01*
X0115776Y0185383D01*
X0115776Y0179281D01*
X0114595Y0178100D01*
X0099241Y0178100D01*
X0098257Y0179084D01*
X0098257Y0185482D01*
X0098257Y0188041D02*
X0100520Y0188041D01*
X0101603Y0186958D01*
X0101603Y0181052D01*
X0102194Y0180462D01*
X0109871Y0180462D01*
X0111052Y0181643D01*
X0111052Y0192273D01*
X0111643Y0192864D01*
X0115776Y0192864D01*
X0116170Y0193257D01*
X0107706Y0201722D01*
X0100225Y0201722D02*
X0102824Y0212549D01*
X0105146Y0212549D01*
X0115776Y0201919D01*
X0123257Y0201919D02*
X0123257Y0195029D01*
X0125422Y0192864D01*
X0129753Y0188533D01*
X0143926Y0186761D02*
X0150422Y0186761D01*
X0150422Y0188336D01*
X0152587Y0190501D01*
X0154851Y0190501D01*
X0154950Y0190600D01*
X0150422Y0186761D02*
X0150619Y0179281D01*
X0151052Y0210777D02*
X0143139Y0210383D01*
X0137343Y0210383D01*
X0134871Y0212856D01*
X0141957Y0219832D02*
X0144320Y0219832D01*
X0143335Y0226328D02*
X0139595Y0226328D01*
X0137320Y0224052D01*
X0134871Y0224052D01*
X0143335Y0226328D02*
X0143532Y0226525D01*
X0143532Y0234202D01*
X0145560Y0236230D01*
X0148493Y0236230D01*
X0154477Y0236230D01*
X0157528Y0239281D01*
X0160087Y0239281D02*
X0160087Y0227135D01*
X0158198Y0225245D01*
X0159871Y0223572D01*
X0158198Y0225245D02*
X0157115Y0226328D01*
X0150816Y0226328D01*
X0148493Y0236230D02*
X0145442Y0236230D01*
X0147568Y0250049D02*
X0144517Y0251131D01*
X0147568Y0250049D02*
X0148493Y0250049D01*
X0162646Y0255816D02*
X0162824Y0255993D01*
X0162824Y0276722D01*
X0163217Y0277115D01*
X0163217Y0284635D01*
X0178454Y0268848D02*
X0178493Y0268848D01*
X0185934Y0261407D01*
X0185934Y0253927D02*
X0185934Y0251604D01*
X0184871Y0250541D01*
X0173808Y0239281D02*
X0170324Y0239281D01*
X0167745Y0234202D02*
X0169320Y0232627D01*
X0170698Y0231249D01*
X0170698Y0227903D01*
X0175028Y0223572D01*
X0177194Y0223572D01*
X0177784Y0231446D02*
X0177784Y0233808D01*
X0185658Y0224753D02*
X0185658Y0222391D01*
X0168532Y0220619D02*
X0167351Y0224163D01*
X0167351Y0223572D01*
X0167154Y0223375D01*
X0167154Y0222391D01*
X0166170Y0220619D02*
X0168532Y0220619D01*
X0167745Y0234202D02*
X0163217Y0234202D01*
X0162646Y0234773D01*
X0162646Y0239281D01*
X0152824Y0212549D02*
X0151052Y0210777D01*
X0116367Y0221997D02*
X0116367Y0224360D01*
X0111249Y0231446D02*
X0111249Y0233808D01*
X0107509Y0227509D02*
X0102391Y0232627D01*
X0095717Y0234576D01*
X0095717Y0239281D01*
X0093158Y0239281D02*
X0093158Y0237765D01*
X0093139Y0237745D01*
X0093139Y0234989D01*
X0092351Y0234202D01*
X0085855Y0234202D01*
X0084477Y0232824D01*
X0084477Y0226328D01*
X0087627Y0223178D01*
X0090186Y0223178D01*
X0097666Y0223178D02*
X0098650Y0224163D01*
X0098650Y0224360D01*
X0107509Y0223178D02*
X0107509Y0227509D01*
X0103394Y0239281D02*
X0103394Y0246407D01*
X0097076Y0246407D01*
X0095717Y0255816D02*
X0095501Y0256033D01*
X0095501Y0282234D01*
X0096288Y0283021D01*
X0096288Y0284635D01*
X0111524Y0268848D02*
X0111524Y0267706D01*
X0119005Y0260226D01*
X0119005Y0252745D02*
X0119005Y0250423D01*
X0117942Y0249360D01*
X0110934Y0250304D02*
X0108906Y0250304D01*
X0103394Y0255816D01*
X0107253Y0259675D01*
X0109831Y0259675D01*
X0093158Y0255816D02*
X0093139Y0255836D01*
X0084477Y0258021D02*
X0084280Y0257824D01*
X0076938Y0247037D02*
X0081977Y0237804D01*
X0084477Y0240304D01*
X0085501Y0239281D01*
X0090599Y0239281D01*
X0075422Y0223486D02*
X0075422Y0211564D01*
X0076406Y0210580D01*
X0083926Y0210580D01*
X0085894Y0212549D01*
X0086446Y0202706D02*
X0084083Y0202706D01*
X0076997Y0195619D01*
X0069517Y0195619D02*
X0069517Y0195226D01*
X0068729Y0194438D01*
X0068729Y0196801D01*
X0068729Y0188139D02*
X0069517Y0187352D01*
X0069517Y0186761D01*
X0069517Y0186564D01*
X0068729Y0185777D01*
X0076997Y0186761D02*
X0083690Y0186761D01*
X0083690Y0189123D01*
X0085068Y0190501D01*
X0087922Y0190501D01*
X0088020Y0190600D01*
X0088020Y0193159D02*
X0088020Y0201131D01*
X0086446Y0202706D01*
X0093926Y0193257D02*
X0098158Y0193257D01*
X0098257Y0193159D01*
X0105639Y0193159D01*
X0106131Y0192667D01*
X0102194Y0189320D02*
X0102587Y0188730D01*
X0106131Y0185186D01*
X0102194Y0189320D02*
X0100914Y0190600D01*
X0098257Y0190600D01*
X0096190Y0190600D01*
X0093335Y0187745D01*
X0083690Y0186761D02*
X0083690Y0179084D01*
X0086052Y0179084D01*
X0067745Y0209399D02*
X0068926Y0210580D01*
X0067745Y0209399D02*
X0067548Y0209399D01*
X0067548Y0211761D01*
X0056131Y0272745D02*
X0053178Y0273966D01*
X0056131Y0273139D01*
X0187627Y0271604D02*
X0190383Y0271997D01*
X0190383Y0272745D01*
X0207312Y0272745D02*
X0207351Y0272745D01*
X0210461Y0269635D01*
X0216761Y0252312D02*
X0216465Y0249655D01*
X0215816Y0249655D01*
X0229576Y0255816D02*
X0229753Y0255993D01*
X0229753Y0276328D01*
X0234083Y0280659D01*
X0234083Y0284635D01*
X0249320Y0280226D02*
X0249320Y0269871D01*
X0251682Y0267509D01*
X0244044Y0267509D01*
X0243690Y0267155D01*
X0251682Y0260029D02*
X0251682Y0258100D01*
X0250619Y0257037D01*
X0301800Y0070029D02*
X0304162Y0070029D01*
D42*
X0282312Y0101328D02*
X0280553Y0101328D01*
X0279537Y0100312D01*
X0272057Y0100312D02*
X0270335Y0100312D01*
X0269320Y0101328D01*
X0269320Y0098966D01*
X0269320Y0101328D02*
X0253769Y0101328D01*
X0238513Y0086072D01*
X0236052Y0042667D02*
X0234871Y0042667D01*
X0230343Y0038139D01*
X0230343Y0028100D01*
X0228078Y0025835D01*
X0220428Y0025835D01*
X0212947Y0025835D02*
X0212947Y0026919D01*
X0209674Y0026919D01*
X0188808Y0152588D02*
X0197469Y0161249D01*
X0197469Y0175515D01*
X0238808Y0223572D02*
X0241170Y0222391D01*
X0238808Y0223572D02*
X0238217Y0223572D01*
X0237253Y0239281D02*
X0238473Y0240501D01*
X0243532Y0240501D01*
X0245894Y0240501D02*
X0245894Y0241722D01*
X0244792Y0242824D01*
X0244792Y0250304D02*
X0243690Y0251407D01*
X0243690Y0259675D01*
X0241111Y0259675D01*
X0237253Y0255816D01*
X0232135Y0255816D02*
X0232115Y0255836D01*
X0232115Y0259793D01*
X0234083Y0261761D01*
X0234083Y0265895D01*
X0235343Y0267155D01*
X0243690Y0267155D01*
X0241839Y0280226D02*
X0237430Y0284635D01*
X0234083Y0284635D01*
X0231879Y0284635D01*
X0216524Y0284635D02*
X0216524Y0283572D01*
X0206524Y0273572D01*
X0210461Y0269635D01*
X0210461Y0257824D01*
X0218139Y0257824D01*
X0218335Y0258021D01*
X0222253Y0258021D01*
X0224457Y0255816D01*
X0226997Y0255836D02*
X0226997Y0261761D01*
X0223060Y0265698D01*
X0222272Y0265698D01*
X0225816Y0269241D01*
X0225816Y0269635D01*
X0222272Y0265698D02*
X0218532Y0265698D01*
X0218335Y0265501D01*
X0226997Y0255836D02*
X0227017Y0255816D01*
X0232076Y0248769D02*
X0234083Y0248769D01*
X0232076Y0248769D02*
X0230855Y0247549D01*
X0249320Y0280226D02*
X0249831Y0280738D01*
X0249831Y0299531D01*
X0182902Y0299531D02*
X0182902Y0293257D01*
X0178454Y0288808D01*
X0178454Y0280226D01*
X0178454Y0268848D01*
X0176761Y0267155D01*
X0168414Y0267155D01*
X0167154Y0265895D01*
X0165206Y0263946D01*
X0165206Y0255816D01*
X0170324Y0255816D02*
X0174182Y0259675D01*
X0176761Y0259675D01*
X0176761Y0251407D01*
X0177863Y0250304D01*
X0177863Y0242824D02*
X0178217Y0242824D01*
X0178965Y0239714D01*
X0176603Y0239714D02*
X0173808Y0239281D01*
X0160087Y0255816D02*
X0160068Y0255836D01*
X0160068Y0262155D01*
X0156328Y0265895D01*
X0155146Y0265895D01*
X0154753Y0265501D01*
X0151406Y0265501D01*
X0155146Y0265895D02*
X0158887Y0269635D01*
X0155324Y0258021D02*
X0151406Y0258021D01*
X0151209Y0257824D01*
X0143532Y0257824D01*
X0143532Y0269635D01*
X0140422Y0272745D01*
X0140383Y0272745D01*
X0145658Y0278021D01*
X0145658Y0284635D01*
X0161013Y0284635D02*
X0163217Y0284635D01*
X0166564Y0284635D01*
X0170973Y0280226D01*
X0155324Y0258021D02*
X0157528Y0255816D01*
X0123769Y0291682D02*
X0123847Y0299531D01*
X0123769Y0291682D02*
X0111524Y0280226D01*
X0111524Y0268848D01*
X0109831Y0267155D01*
X0101485Y0267155D01*
X0100225Y0265895D01*
X0100225Y0262155D01*
X0098257Y0260186D01*
X0098257Y0255836D01*
X0098276Y0255816D01*
X0093139Y0255836D02*
X0093139Y0261367D01*
X0089005Y0265501D01*
X0084477Y0265501D01*
X0088611Y0269635D01*
X0091957Y0269635D01*
X0088394Y0258021D02*
X0084477Y0258021D01*
X0084280Y0257824D02*
X0076603Y0257824D01*
X0076603Y0269635D01*
X0073493Y0272745D01*
X0078729Y0277982D01*
X0078729Y0284635D01*
X0073493Y0272745D02*
X0073060Y0272745D01*
X0088394Y0258021D02*
X0090599Y0255816D01*
X0109674Y0241564D02*
X0109674Y0239320D01*
X0109674Y0241564D02*
X0110934Y0242824D01*
X0104044Y0280226D02*
X0099635Y0284635D01*
X0096288Y0284635D01*
X0094083Y0284635D01*
X0129753Y0173547D02*
X0129753Y0160462D01*
X0121879Y0152588D01*
X0259674Y0152588D02*
X0267942Y0160856D01*
X0267942Y0176697D01*
D43*
X0289398Y0144438D03*
X0289398Y0142076D03*
X0282115Y0134989D03*
X0282115Y0134989D03*
X0279753Y0134989D03*
X0279753Y0134989D03*
X0274241Y0131052D03*
X0274241Y0131052D03*
X0271879Y0131052D03*
X0271879Y0131052D03*
X0250225Y0120029D03*
X0250225Y0120029D03*
X0247863Y0120029D03*
X0247863Y0120029D03*
X0269320Y0101328D03*
X0269320Y0098966D03*
X0282312Y0098966D03*
X0282312Y0101328D03*
X0301800Y0070029D03*
X0301800Y0070029D03*
X0304162Y0070029D03*
X0304162Y0070029D03*
X0296288Y0062155D03*
X0293926Y0062155D03*
X0293926Y0062155D03*
X0242154Y0041092D03*
X0242154Y0038730D03*
X0228965Y0062155D03*
X0228965Y0062155D03*
X0226603Y0062155D03*
X0226603Y0062155D03*
X0228572Y0071210D03*
X0228572Y0071210D03*
X0230934Y0071210D03*
X0230934Y0071210D03*
X0236839Y0084793D03*
X0236839Y0087155D03*
X0212036Y0038730D03*
X0212036Y0036958D03*
X0209674Y0026919D03*
X0209674Y0024556D03*
X0140776Y0061761D03*
X0140776Y0061761D03*
X0140776Y0064123D03*
X0140776Y0064123D03*
X0136839Y0064123D03*
X0136839Y0064123D03*
X0136839Y0061761D03*
X0136839Y0061761D03*
X0132902Y0061761D03*
X0132902Y0061761D03*
X0132902Y0064123D03*
X0132902Y0064123D03*
X0115973Y0105068D03*
X0115973Y0105068D03*
X0115973Y0107430D03*
X0115973Y0107430D03*
X0135658Y0112155D03*
X0135658Y0112155D03*
X0135658Y0114517D03*
X0135658Y0114517D03*
X0139595Y0120029D03*
X0139595Y0120029D03*
X0139595Y0122391D03*
X0139595Y0122391D03*
X0163217Y0107430D03*
X0163217Y0107430D03*
X0163217Y0105068D03*
X0163217Y0105068D03*
X0179753Y0120029D03*
X0179753Y0120029D03*
X0182115Y0120029D03*
X0182115Y0120029D03*
X0152981Y0179281D03*
X0152981Y0179281D03*
X0150619Y0179281D03*
X0150619Y0179281D03*
X0143532Y0179084D03*
X0141170Y0179084D03*
X0136052Y0185777D03*
X0136052Y0185777D03*
X0136052Y0188139D03*
X0136052Y0188139D03*
X0135658Y0194438D03*
X0135658Y0194438D03*
X0135658Y0196801D03*
X0135658Y0196801D03*
X0129753Y0202706D03*
X0141957Y0219241D03*
X0141957Y0219832D03*
X0144320Y0219832D03*
X0144320Y0219241D03*
X0148650Y0202706D03*
X0148650Y0202706D03*
X0151013Y0202706D03*
X0151013Y0202706D03*
X0160855Y0193257D03*
X0160265Y0187549D03*
X0160265Y0185186D03*
X0166170Y0220619D03*
X0168532Y0220619D03*
X0168532Y0220619D03*
X0177784Y0231446D03*
X0177784Y0231446D03*
X0177784Y0233808D03*
X0177784Y0233808D03*
X0176603Y0239714D03*
X0178965Y0239714D03*
X0184871Y0250541D03*
X0187233Y0250541D03*
X0167154Y0248769D03*
X0167154Y0248769D03*
X0167154Y0246407D03*
X0167154Y0246407D03*
X0164005Y0246407D03*
X0164005Y0246407D03*
X0164005Y0248769D03*
X0164005Y0248769D03*
X0160855Y0248769D03*
X0160855Y0248769D03*
X0160855Y0246407D03*
X0160855Y0246407D03*
X0144517Y0248769D03*
X0144517Y0251131D03*
X0120304Y0249360D03*
X0117942Y0249360D03*
X0112036Y0239320D03*
X0109674Y0239320D03*
X0111249Y0233808D03*
X0111249Y0233808D03*
X0111249Y0231446D03*
X0111249Y0231446D03*
X0116367Y0224360D03*
X0116367Y0224360D03*
X0116367Y0221997D03*
X0116367Y0221997D03*
X0098650Y0221997D03*
X0098650Y0221997D03*
X0098650Y0224360D03*
X0098650Y0224360D03*
X0097076Y0246407D03*
X0097076Y0246407D03*
X0097076Y0248769D03*
X0097076Y0248769D03*
X0100225Y0248769D03*
X0100225Y0248769D03*
X0100225Y0246407D03*
X0100225Y0246407D03*
X0093926Y0246407D03*
X0093926Y0246407D03*
X0093926Y0248769D03*
X0093926Y0248769D03*
X0120698Y0271604D03*
X0120698Y0273966D03*
X0060068Y0248375D03*
X0060068Y0246013D03*
X0053178Y0271604D03*
X0053178Y0273966D03*
X0053178Y0273966D03*
X0067548Y0211761D03*
X0067548Y0211761D03*
X0067548Y0209399D03*
X0067548Y0209399D03*
X0068729Y0196801D03*
X0068729Y0196801D03*
X0068729Y0194438D03*
X0068729Y0194438D03*
X0068729Y0188139D03*
X0068729Y0188139D03*
X0068729Y0185777D03*
X0068729Y0185777D03*
X0083690Y0179084D03*
X0086052Y0179084D03*
X0093335Y0185383D03*
X0093335Y0187745D03*
X0093926Y0193257D03*
X0086446Y0202706D03*
X0086446Y0202706D03*
X0084083Y0202706D03*
X0084083Y0202706D03*
X0086052Y0136564D03*
X0086052Y0136564D03*
X0088414Y0136564D03*
X0088414Y0136564D03*
X0080540Y0132627D03*
X0080540Y0132627D03*
X0078178Y0132627D03*
X0078178Y0132627D03*
X0185658Y0222391D03*
X0185658Y0222391D03*
X0185658Y0224753D03*
X0185658Y0224753D03*
X0209280Y0220619D03*
X0211643Y0220619D03*
X0215580Y0202706D03*
X0215580Y0202706D03*
X0217942Y0202706D03*
X0217942Y0202706D03*
X0227784Y0193257D03*
X0226997Y0187549D03*
X0226997Y0185186D03*
X0217548Y0179281D03*
X0215186Y0179281D03*
X0215186Y0179281D03*
X0202587Y0185777D03*
X0202587Y0188139D03*
X0202587Y0194438D03*
X0202587Y0194438D03*
X0202587Y0196801D03*
X0202587Y0196801D03*
X0241170Y0222391D03*
X0241170Y0224753D03*
X0249044Y0231446D03*
X0249044Y0231446D03*
X0249044Y0233808D03*
X0249044Y0233808D03*
X0245894Y0240501D03*
X0243532Y0240501D03*
X0234083Y0246407D03*
X0234083Y0246407D03*
X0234083Y0248769D03*
X0234083Y0248769D03*
X0230934Y0248769D03*
X0230934Y0248769D03*
X0230934Y0246407D03*
X0230934Y0246407D03*
X0227784Y0246407D03*
X0227784Y0246407D03*
X0227784Y0248769D03*
X0227784Y0248769D03*
X0216761Y0252312D03*
X0214398Y0252312D03*
X0187627Y0271604D03*
X0187627Y0273966D03*
X0187627Y0273966D03*
X0250619Y0257037D03*
X0252981Y0257037D03*
X0256524Y0224753D03*
X0256524Y0224753D03*
X0256524Y0222391D03*
X0256524Y0222391D03*
D44*
X0238513Y0086072D02*
X0237233Y0084793D01*
X0236839Y0084793D01*
X0068729Y0165304D02*
X0063217Y0159202D01*
X0017155Y0159202D01*
X0016830Y0159527D01*
X0068729Y0165304D02*
X0068729Y0185777D01*
D45*
X0086052Y0136564D02*
X0084477Y0134989D01*
X0084477Y0108218D01*
X0111052Y0081643D01*
X0117548Y0081643D01*
X0117548Y0079675D02*
X0113693Y0079675D01*
X0113217Y0079871D02*
X0109301Y0079871D01*
X0108594Y0080164D02*
X0080540Y0108218D01*
X0080540Y0132627D01*
X0108594Y0080164D02*
X0108638Y0080122D01*
X0108684Y0080084D01*
X0108733Y0080048D01*
X0108784Y0080015D01*
X0108836Y0079986D01*
X0108891Y0079959D01*
X0108946Y0079936D01*
X0109003Y0079916D01*
X0109062Y0079900D01*
X0109121Y0079887D01*
X0109180Y0079878D01*
X0109241Y0079873D01*
X0109301Y0079871D01*
X0113218Y0079872D02*
X0113253Y0079839D01*
X0113290Y0079809D01*
X0113330Y0079782D01*
X0113371Y0079757D01*
X0113414Y0079736D01*
X0113458Y0079717D01*
X0113504Y0079702D01*
X0113550Y0079690D01*
X0113597Y0079682D01*
X0113645Y0079677D01*
X0113693Y0079675D01*
X0138611Y0094832D02*
X0138808Y0095029D01*
X0138808Y0097588D01*
X0130737Y0050738D02*
X0130934Y0050541D01*
X0130934Y0047194D01*
X0131721Y0046407D01*
X0131721Y0041289D01*
X0123847Y0045226D02*
X0123847Y0046013D01*
X0125028Y0047194D01*
X0125028Y0050541D01*
X0124831Y0050738D01*
X0226052Y0062706D02*
X0226603Y0062155D01*
X0226052Y0062706D02*
X0226052Y0079084D01*
X0228611Y0079084D02*
X0228611Y0071249D01*
X0228572Y0071210D01*
D46*
X0178965Y0120029D03*
M02*
