%
M48
M72
T01C0.01378
T02C0.02400
T03C0.03750
T04C0.04000
T05C0.08465
T06C0.11417
%
T01
X74303Y69780
X74303Y74386
X74067Y81354
X74303Y85724
X74185Y92457
X74067Y96827
X73949Y103795
X74067Y108283
X74421Y113244
X74539Y116906
X74657Y120921
X71941Y127220
X71941Y130646
X73555Y136472
X73673Y139780
X64067Y142457
X62039Y143732
X64067Y145409
X62039Y150622
X63024Y155543
X64008Y160465
X62039Y161449
X64008Y163417
X82728Y149268
X88594Y146315
X90878Y148205
X93398Y149307
X91547Y151000
X93437Y152969
X90917Y153835
X88358Y154465
X95366Y151079
X97217Y152850
X98988Y151079
X97295Y149386
X100799Y149268
X102650Y151039
X100799Y152811
X104618Y152929
X106429Y151118
X104618Y149307
X107098Y148520
X106154Y146197
X108713Y146315
X109815Y148874
X106902Y154228
X115445Y152575
X123122Y152575
X119579Y142654
X106823Y143008
X103772Y118339
X112433Y110594
X133890Y101177
X141390Y101902
X149244Y102394
X168437Y103795
X168555Y96827
X168673Y92457
X168791Y85724
X168555Y81354
X168791Y74386
X168791Y69780
X154559Y64008
X150172Y71259
X143890Y69177
X133890Y51933
X129953Y44323
X131921Y37433
X136843Y35465
X144717Y35465
X116173Y21685
X80740Y21685
X84677Y57118
X142748Y127000
X166429Y127220
X166429Y130646
X168043Y136472
X168161Y139780
X177217Y149268
X183083Y146394
X185366Y148283
X187886Y149386
X186035Y151079
X187925Y153047
X185406Y153913
X182846Y154543
X189854Y151157
X191705Y152929
X193476Y151157
X191783Y149465
X195287Y149346
X197138Y151118
X195287Y152890
X199106Y153008
X200917Y151197
X199106Y149386
X201587Y148598
X200642Y146276
X203201Y146394
X204303Y148953
X201390Y154307
X209933Y152575
X217610Y152575
X214067Y142654
X201311Y143008
X198260Y118339
X206921Y110594
X228378Y101177
X235878Y102059
X243772Y102059
X262925Y103795
X263043Y96827
X263161Y92457
X263280Y85724
X263043Y81354
X263280Y74386
X263280Y69780
X249047Y64402
X244660Y71338
X238378Y69177
X224441Y44323
X226409Y37433
X231331Y35465
X239205Y35465
X212630Y21685
X179165Y21685
X179165Y49244
X168555Y108283
X168909Y113244
X169028Y116906
X169146Y120921
X237236Y127000
X260917Y127220
X260917Y130646
X262531Y136472
X262650Y139780
X271705Y149268
X277610Y146315
X279894Y148205
X282413Y149307
X280563Y151000
X282453Y152969
X279933Y153835
X277374Y154465
X284382Y151079
X286232Y152850
X288004Y151079
X286311Y149386
X289815Y149268
X291665Y151039
X289815Y152811
X293634Y152929
X295445Y151118
X293634Y149307
X296114Y148520
X295169Y146197
X297728Y146315
X298831Y148874
X295917Y154228
X304421Y152575
X312098Y152575
X308555Y142654
X295799Y143008
X292748Y118339
X301409Y110594
X322866Y101177
X330366Y100720
X337866Y102059
X331724Y127000
X341567Y141764
X343535Y142748
X341567Y144717
X342945Y148494
X342551Y153575
X341567Y158496
X343535Y160465
X341567Y161449
X357512Y150031
X323059Y198465
X319559Y198465
X316059Y198465
X312559Y198465
X290386Y204756
X301213Y224047
X316961Y224441
X330740Y228378
X336909Y232315
X351213Y224441
X352394Y204756
X344520Y204756
X309087Y253969
X303181Y253969
X316961Y257906
X320898Y257906
X348457Y259715
X348457Y255937
X356331Y301213
X362711Y317585
X365211Y317585
X339711Y342335
X337211Y342335
X335602Y323978
X335602Y321478
X320898Y311055
X305150Y311055
X247091Y277591
X240189Y277591
X232433Y252039
X208693Y277591
X198850Y277591
X177197Y267748
X171291Y267748
X206724Y305150
X244008Y305268
X153575Y210661
X157512Y206724
X134083Y198465
X130583Y198465
X127083Y198465
X123583Y198465
X101409Y206724
X64008Y227394
X62039Y228378
X64008Y230346
X63024Y235268
X63024Y240189
X64008Y245110
X62039Y246094
X64008Y248063
X84677Y281528
X86646Y283496
X88614Y283496
X90583Y283496
X92551Y283496
X94520Y283496
X69343Y320120
X69343Y322620
X66951Y340477
X64451Y340477
X42201Y326727
X39701Y326727
X45307Y309087
X198850Y205740
X218071Y198465
X221571Y198465
X225071Y198465
X228571Y198465
X244126Y202787
X248063Y202787
X263634Y120921
X263516Y116906
X263398Y113244
X263043Y108283
X311055Y46488
X306134Y43339
X308102Y36449
X313024Y34480
X297276Y21685
X332866Y69177
X339148Y71220
X345504Y64992
T02
X275622Y232315
X265780Y241173
X254953Y232315
X248063Y251016
X235268Y267748
X229362Y296291
X231823Y300720
X220504Y307118
X264411Y265780
X268324Y273261
X271946Y279509
X276961Y287030
X276961Y294530
X285465Y294323
X300228Y295307
X287433Y261843
X287433Y250031
X285465Y237236
X332709Y236252
X348457Y237236
X219520Y242650
X207217Y252492
T03
X207787Y320425
X197787Y320425
X197787Y330425
X207787Y330425
X207787Y340425
X197787Y340425
X197787Y350425
X207787Y350425
X217787Y350425
X217787Y340425
X227787Y340425
X227787Y350425
X237787Y350425
X237787Y340425
X247787Y340425
X247787Y350425
X257787Y350425
X257787Y340425
X257787Y330425
X257787Y320425
X247787Y320425
X237787Y320425
X237787Y330425
X247787Y330425
X227787Y330425
X217787Y330425
X217787Y320425
X227787Y320425
X187787Y320425
X177787Y320425
X177787Y330425
X187787Y330425
X187787Y340425
X177787Y340425
X177787Y350425
X187787Y350425
X167787Y350425
X157787Y350425
X157787Y340425
X167787Y340425
X167787Y330425
X157787Y330425
X157787Y320425
X167787Y320425
X147787Y320425
X147787Y330425
X137787Y330425
X127787Y330425
X127787Y320425
X137787Y320425
X117787Y320425
X107787Y320425
X107787Y330425
X117787Y330425
X117787Y340425
X107787Y340425
X107787Y350425
X117787Y350425
X127787Y350425
X127787Y340425
X137787Y340425
X137787Y350425
X147787Y350425
X147787Y340425
X97787Y340425
X87787Y340425
X87787Y350425
X97787Y350425
X97787Y330425
X87787Y330425
X87787Y320425
X97787Y320425
X77787Y321425
X77787Y331425
X77787Y341425
X77787Y351425
X267787Y350425
X267787Y340425
X277787Y340425
X277787Y350425
X287787Y350425
X287787Y340425
X297787Y340425
X297787Y350425
X307787Y350425
X307787Y340425
X317787Y340425
X317787Y350425
X327787Y351425
X327787Y341425
X327787Y331425
X327787Y321425
X317787Y320425
X307787Y320425
X307787Y330425
X317787Y330425
X297787Y330425
X287787Y330425
X287787Y320425
X297787Y320425
X277787Y320425
X267787Y320425
X267787Y330425
X277787Y330425
T04
X369610Y296252
X370610Y286252
X369610Y276252
X370610Y266252
X369610Y256252
X370610Y246252
X369610Y236252
X370110Y217424
X370110Y206024
X370610Y306252
X370110Y93409
X370110Y82009
X152287Y244913
X142287Y244913
X143287Y254913
X153287Y254913
X152287Y264913
X142287Y264913
X112787Y256794
X102787Y256794
X92787Y256794
X92787Y245394
X102787Y245394
X112787Y245394
X55150Y276891
X55150Y288291
X55150Y93409
X55150Y82009
T05
X59087Y118142
X61055Y189008
X155543Y124047
X159480Y167354
X248063Y122079
X255937Y167354
X368142Y189008
X368142Y114205
T06
X47276Y39402
X358299Y39402
X358299Y350425
X47276Y350425
M30
