G75*
%MOIN*%
%OFA0B0*%
%FSLAX25Y25*%
%IPPOS*%
%LPD*%
%AMOC8*
5,1,8,0,0,1.08239X$1,22.5*
%
%ADD10C,0.00000*%
D10*
X0021485Y0009674D02*
X0060855Y0009674D01*
X0060855Y0005737D01*
X0371879Y0005737D01*
X0371879Y0009674D01*
X0411249Y0009674D01*
X0411249Y0049044D01*
X0415186Y0049044D01*
X0415186Y0360068D01*
X0411249Y0360068D01*
X0411249Y0399438D01*
X0371879Y0399438D01*
X0371879Y0403375D01*
X0060855Y0403375D01*
X0060855Y0399438D01*
X0021485Y0399438D01*
X0021485Y0360068D01*
X0017548Y0360068D01*
X0017548Y0049044D01*
X0021485Y0049044D01*
X0021485Y0009674D01*
X0030343Y0106131D02*
X0030345Y0106282D01*
X0030351Y0106432D01*
X0030361Y0106583D01*
X0030375Y0106733D01*
X0030393Y0106882D01*
X0030414Y0107032D01*
X0030440Y0107180D01*
X0030470Y0107328D01*
X0030503Y0107475D01*
X0030541Y0107621D01*
X0030582Y0107766D01*
X0030627Y0107910D01*
X0030676Y0108052D01*
X0030729Y0108193D01*
X0030785Y0108333D01*
X0030845Y0108471D01*
X0030908Y0108608D01*
X0030976Y0108743D01*
X0031046Y0108876D01*
X0031120Y0109007D01*
X0031198Y0109136D01*
X0031279Y0109263D01*
X0031363Y0109388D01*
X0031451Y0109511D01*
X0031542Y0109631D01*
X0031636Y0109749D01*
X0031733Y0109864D01*
X0031833Y0109977D01*
X0031936Y0110087D01*
X0032042Y0110194D01*
X0032151Y0110299D01*
X0032262Y0110400D01*
X0032376Y0110499D01*
X0032492Y0110594D01*
X0032612Y0110687D01*
X0032733Y0110776D01*
X0032857Y0110862D01*
X0032983Y0110945D01*
X0033111Y0111024D01*
X0033241Y0111100D01*
X0033373Y0111173D01*
X0033507Y0111241D01*
X0033643Y0111307D01*
X0033781Y0111369D01*
X0033920Y0111427D01*
X0034060Y0111481D01*
X0034202Y0111532D01*
X0034345Y0111579D01*
X0034490Y0111622D01*
X0034635Y0111661D01*
X0034782Y0111697D01*
X0034929Y0111728D01*
X0035077Y0111756D01*
X0035226Y0111780D01*
X0035375Y0111800D01*
X0035525Y0111816D01*
X0035675Y0111828D01*
X0035826Y0111836D01*
X0035977Y0111840D01*
X0036127Y0111840D01*
X0036278Y0111836D01*
X0036429Y0111828D01*
X0036579Y0111816D01*
X0036729Y0111800D01*
X0036878Y0111780D01*
X0037027Y0111756D01*
X0037175Y0111728D01*
X0037322Y0111697D01*
X0037469Y0111661D01*
X0037614Y0111622D01*
X0037759Y0111579D01*
X0037902Y0111532D01*
X0038044Y0111481D01*
X0038184Y0111427D01*
X0038323Y0111369D01*
X0038461Y0111307D01*
X0038597Y0111241D01*
X0038731Y0111173D01*
X0038863Y0111100D01*
X0038993Y0111024D01*
X0039121Y0110945D01*
X0039247Y0110862D01*
X0039371Y0110776D01*
X0039492Y0110687D01*
X0039612Y0110594D01*
X0039728Y0110499D01*
X0039842Y0110400D01*
X0039953Y0110299D01*
X0040062Y0110194D01*
X0040168Y0110087D01*
X0040271Y0109977D01*
X0040371Y0109864D01*
X0040468Y0109749D01*
X0040562Y0109631D01*
X0040653Y0109511D01*
X0040741Y0109388D01*
X0040825Y0109263D01*
X0040906Y0109136D01*
X0040984Y0109007D01*
X0041058Y0108876D01*
X0041128Y0108743D01*
X0041196Y0108608D01*
X0041259Y0108471D01*
X0041319Y0108333D01*
X0041375Y0108193D01*
X0041428Y0108052D01*
X0041477Y0107910D01*
X0041522Y0107766D01*
X0041563Y0107621D01*
X0041601Y0107475D01*
X0041634Y0107328D01*
X0041664Y0107180D01*
X0041690Y0107032D01*
X0041711Y0106882D01*
X0041729Y0106733D01*
X0041743Y0106583D01*
X0041753Y0106432D01*
X0041759Y0106282D01*
X0041761Y0106131D01*
X0041759Y0105980D01*
X0041753Y0105830D01*
X0041743Y0105679D01*
X0041729Y0105529D01*
X0041711Y0105380D01*
X0041690Y0105230D01*
X0041664Y0105082D01*
X0041634Y0104934D01*
X0041601Y0104787D01*
X0041563Y0104641D01*
X0041522Y0104496D01*
X0041477Y0104352D01*
X0041428Y0104210D01*
X0041375Y0104069D01*
X0041319Y0103929D01*
X0041259Y0103791D01*
X0041196Y0103654D01*
X0041128Y0103519D01*
X0041058Y0103386D01*
X0040984Y0103255D01*
X0040906Y0103126D01*
X0040825Y0102999D01*
X0040741Y0102874D01*
X0040653Y0102751D01*
X0040562Y0102631D01*
X0040468Y0102513D01*
X0040371Y0102398D01*
X0040271Y0102285D01*
X0040168Y0102175D01*
X0040062Y0102068D01*
X0039953Y0101963D01*
X0039842Y0101862D01*
X0039728Y0101763D01*
X0039612Y0101668D01*
X0039492Y0101575D01*
X0039371Y0101486D01*
X0039247Y0101400D01*
X0039121Y0101317D01*
X0038993Y0101238D01*
X0038863Y0101162D01*
X0038731Y0101089D01*
X0038597Y0101021D01*
X0038461Y0100955D01*
X0038323Y0100893D01*
X0038184Y0100835D01*
X0038044Y0100781D01*
X0037902Y0100730D01*
X0037759Y0100683D01*
X0037614Y0100640D01*
X0037469Y0100601D01*
X0037322Y0100565D01*
X0037175Y0100534D01*
X0037027Y0100506D01*
X0036878Y0100482D01*
X0036729Y0100462D01*
X0036579Y0100446D01*
X0036429Y0100434D01*
X0036278Y0100426D01*
X0036127Y0100422D01*
X0035977Y0100422D01*
X0035826Y0100426D01*
X0035675Y0100434D01*
X0035525Y0100446D01*
X0035375Y0100462D01*
X0035226Y0100482D01*
X0035077Y0100506D01*
X0034929Y0100534D01*
X0034782Y0100565D01*
X0034635Y0100601D01*
X0034490Y0100640D01*
X0034345Y0100683D01*
X0034202Y0100730D01*
X0034060Y0100781D01*
X0033920Y0100835D01*
X0033781Y0100893D01*
X0033643Y0100955D01*
X0033507Y0101021D01*
X0033373Y0101089D01*
X0033241Y0101162D01*
X0033111Y0101238D01*
X0032983Y0101317D01*
X0032857Y0101400D01*
X0032733Y0101486D01*
X0032612Y0101575D01*
X0032492Y0101668D01*
X0032376Y0101763D01*
X0032262Y0101862D01*
X0032151Y0101963D01*
X0032042Y0102068D01*
X0031936Y0102175D01*
X0031833Y0102285D01*
X0031733Y0102398D01*
X0031636Y0102513D01*
X0031542Y0102631D01*
X0031451Y0102751D01*
X0031363Y0102874D01*
X0031279Y0102999D01*
X0031198Y0103126D01*
X0031120Y0103255D01*
X0031046Y0103386D01*
X0030976Y0103519D01*
X0030908Y0103654D01*
X0030845Y0103791D01*
X0030785Y0103929D01*
X0030729Y0104069D01*
X0030676Y0104210D01*
X0030627Y0104352D01*
X0030582Y0104496D01*
X0030541Y0104641D01*
X0030503Y0104787D01*
X0030470Y0104934D01*
X0030440Y0105082D01*
X0030414Y0105230D01*
X0030393Y0105380D01*
X0030375Y0105529D01*
X0030361Y0105679D01*
X0030351Y0105830D01*
X0030345Y0105980D01*
X0030343Y0106131D01*
X0113414Y0024241D02*
X0113416Y0024392D01*
X0113422Y0024542D01*
X0113432Y0024693D01*
X0113446Y0024843D01*
X0113464Y0024992D01*
X0113485Y0025142D01*
X0113511Y0025290D01*
X0113541Y0025438D01*
X0113574Y0025585D01*
X0113612Y0025731D01*
X0113653Y0025876D01*
X0113698Y0026020D01*
X0113747Y0026162D01*
X0113800Y0026303D01*
X0113856Y0026443D01*
X0113916Y0026581D01*
X0113979Y0026718D01*
X0114047Y0026853D01*
X0114117Y0026986D01*
X0114191Y0027117D01*
X0114269Y0027246D01*
X0114350Y0027373D01*
X0114434Y0027498D01*
X0114522Y0027621D01*
X0114613Y0027741D01*
X0114707Y0027859D01*
X0114804Y0027974D01*
X0114904Y0028087D01*
X0115007Y0028197D01*
X0115113Y0028304D01*
X0115222Y0028409D01*
X0115333Y0028510D01*
X0115447Y0028609D01*
X0115563Y0028704D01*
X0115683Y0028797D01*
X0115804Y0028886D01*
X0115928Y0028972D01*
X0116054Y0029055D01*
X0116182Y0029134D01*
X0116312Y0029210D01*
X0116444Y0029283D01*
X0116578Y0029351D01*
X0116714Y0029417D01*
X0116852Y0029479D01*
X0116991Y0029537D01*
X0117131Y0029591D01*
X0117273Y0029642D01*
X0117416Y0029689D01*
X0117561Y0029732D01*
X0117706Y0029771D01*
X0117853Y0029807D01*
X0118000Y0029838D01*
X0118148Y0029866D01*
X0118297Y0029890D01*
X0118446Y0029910D01*
X0118596Y0029926D01*
X0118746Y0029938D01*
X0118897Y0029946D01*
X0119048Y0029950D01*
X0119198Y0029950D01*
X0119349Y0029946D01*
X0119500Y0029938D01*
X0119650Y0029926D01*
X0119800Y0029910D01*
X0119949Y0029890D01*
X0120098Y0029866D01*
X0120246Y0029838D01*
X0120393Y0029807D01*
X0120540Y0029771D01*
X0120685Y0029732D01*
X0120830Y0029689D01*
X0120973Y0029642D01*
X0121115Y0029591D01*
X0121255Y0029537D01*
X0121394Y0029479D01*
X0121532Y0029417D01*
X0121668Y0029351D01*
X0121802Y0029283D01*
X0121934Y0029210D01*
X0122064Y0029134D01*
X0122192Y0029055D01*
X0122318Y0028972D01*
X0122442Y0028886D01*
X0122563Y0028797D01*
X0122683Y0028704D01*
X0122799Y0028609D01*
X0122913Y0028510D01*
X0123024Y0028409D01*
X0123133Y0028304D01*
X0123239Y0028197D01*
X0123342Y0028087D01*
X0123442Y0027974D01*
X0123539Y0027859D01*
X0123633Y0027741D01*
X0123724Y0027621D01*
X0123812Y0027498D01*
X0123896Y0027373D01*
X0123977Y0027246D01*
X0124055Y0027117D01*
X0124129Y0026986D01*
X0124199Y0026853D01*
X0124267Y0026718D01*
X0124330Y0026581D01*
X0124390Y0026443D01*
X0124446Y0026303D01*
X0124499Y0026162D01*
X0124548Y0026020D01*
X0124593Y0025876D01*
X0124634Y0025731D01*
X0124672Y0025585D01*
X0124705Y0025438D01*
X0124735Y0025290D01*
X0124761Y0025142D01*
X0124782Y0024992D01*
X0124800Y0024843D01*
X0124814Y0024693D01*
X0124824Y0024542D01*
X0124830Y0024392D01*
X0124832Y0024241D01*
X0124830Y0024090D01*
X0124824Y0023940D01*
X0124814Y0023789D01*
X0124800Y0023639D01*
X0124782Y0023490D01*
X0124761Y0023340D01*
X0124735Y0023192D01*
X0124705Y0023044D01*
X0124672Y0022897D01*
X0124634Y0022751D01*
X0124593Y0022606D01*
X0124548Y0022462D01*
X0124499Y0022320D01*
X0124446Y0022179D01*
X0124390Y0022039D01*
X0124330Y0021901D01*
X0124267Y0021764D01*
X0124199Y0021629D01*
X0124129Y0021496D01*
X0124055Y0021365D01*
X0123977Y0021236D01*
X0123896Y0021109D01*
X0123812Y0020984D01*
X0123724Y0020861D01*
X0123633Y0020741D01*
X0123539Y0020623D01*
X0123442Y0020508D01*
X0123342Y0020395D01*
X0123239Y0020285D01*
X0123133Y0020178D01*
X0123024Y0020073D01*
X0122913Y0019972D01*
X0122799Y0019873D01*
X0122683Y0019778D01*
X0122563Y0019685D01*
X0122442Y0019596D01*
X0122318Y0019510D01*
X0122192Y0019427D01*
X0122064Y0019348D01*
X0121934Y0019272D01*
X0121802Y0019199D01*
X0121668Y0019131D01*
X0121532Y0019065D01*
X0121394Y0019003D01*
X0121255Y0018945D01*
X0121115Y0018891D01*
X0120973Y0018840D01*
X0120830Y0018793D01*
X0120685Y0018750D01*
X0120540Y0018711D01*
X0120393Y0018675D01*
X0120246Y0018644D01*
X0120098Y0018616D01*
X0119949Y0018592D01*
X0119800Y0018572D01*
X0119650Y0018556D01*
X0119500Y0018544D01*
X0119349Y0018536D01*
X0119198Y0018532D01*
X0119048Y0018532D01*
X0118897Y0018536D01*
X0118746Y0018544D01*
X0118596Y0018556D01*
X0118446Y0018572D01*
X0118297Y0018592D01*
X0118148Y0018616D01*
X0118000Y0018644D01*
X0117853Y0018675D01*
X0117706Y0018711D01*
X0117561Y0018750D01*
X0117416Y0018793D01*
X0117273Y0018840D01*
X0117131Y0018891D01*
X0116991Y0018945D01*
X0116852Y0019003D01*
X0116714Y0019065D01*
X0116578Y0019131D01*
X0116444Y0019199D01*
X0116312Y0019272D01*
X0116182Y0019348D01*
X0116054Y0019427D01*
X0115928Y0019510D01*
X0115804Y0019596D01*
X0115683Y0019685D01*
X0115563Y0019778D01*
X0115447Y0019873D01*
X0115333Y0019972D01*
X0115222Y0020073D01*
X0115113Y0020178D01*
X0115007Y0020285D01*
X0114904Y0020395D01*
X0114804Y0020508D01*
X0114707Y0020623D01*
X0114613Y0020741D01*
X0114522Y0020861D01*
X0114434Y0020984D01*
X0114350Y0021109D01*
X0114269Y0021236D01*
X0114191Y0021365D01*
X0114117Y0021496D01*
X0114047Y0021629D01*
X0113979Y0021764D01*
X0113916Y0021901D01*
X0113856Y0022039D01*
X0113800Y0022179D01*
X0113747Y0022320D01*
X0113698Y0022462D01*
X0113653Y0022606D01*
X0113612Y0022751D01*
X0113574Y0022897D01*
X0113541Y0023044D01*
X0113511Y0023192D01*
X0113485Y0023340D01*
X0113464Y0023490D01*
X0113446Y0023639D01*
X0113432Y0023789D01*
X0113422Y0023940D01*
X0113416Y0024090D01*
X0113414Y0024241D01*
X0028847Y0204556D02*
X0028849Y0204689D01*
X0028855Y0204822D01*
X0028865Y0204955D01*
X0028879Y0205087D01*
X0028897Y0205219D01*
X0028918Y0205350D01*
X0028944Y0205481D01*
X0028974Y0205611D01*
X0029007Y0205740D01*
X0029045Y0205867D01*
X0029086Y0205994D01*
X0029131Y0206119D01*
X0029179Y0206243D01*
X0029232Y0206366D01*
X0029288Y0206486D01*
X0029347Y0206605D01*
X0029410Y0206723D01*
X0029477Y0206838D01*
X0029547Y0206951D01*
X0029620Y0207062D01*
X0029697Y0207171D01*
X0029777Y0207278D01*
X0029860Y0207382D01*
X0029946Y0207483D01*
X0030035Y0207582D01*
X0030127Y0207678D01*
X0030221Y0207772D01*
X0030319Y0207862D01*
X0030419Y0207950D01*
X0030522Y0208034D01*
X0030627Y0208116D01*
X0030735Y0208194D01*
X0030845Y0208269D01*
X0030957Y0208341D01*
X0031072Y0208409D01*
X0031188Y0208474D01*
X0031306Y0208535D01*
X0031426Y0208593D01*
X0031547Y0208647D01*
X0031671Y0208697D01*
X0031795Y0208744D01*
X0031921Y0208787D01*
X0032048Y0208826D01*
X0032177Y0208862D01*
X0032306Y0208893D01*
X0032436Y0208921D01*
X0032567Y0208945D01*
X0032699Y0208965D01*
X0032831Y0208981D01*
X0032964Y0208993D01*
X0033096Y0209001D01*
X0033229Y0209005D01*
X0033363Y0209005D01*
X0033496Y0209001D01*
X0033628Y0208993D01*
X0033761Y0208981D01*
X0033893Y0208965D01*
X0034025Y0208945D01*
X0034156Y0208921D01*
X0034286Y0208893D01*
X0034415Y0208862D01*
X0034544Y0208826D01*
X0034671Y0208787D01*
X0034797Y0208744D01*
X0034921Y0208697D01*
X0035045Y0208647D01*
X0035166Y0208593D01*
X0035286Y0208535D01*
X0035404Y0208474D01*
X0035521Y0208409D01*
X0035635Y0208341D01*
X0035747Y0208269D01*
X0035857Y0208194D01*
X0035965Y0208116D01*
X0036070Y0208034D01*
X0036173Y0207950D01*
X0036273Y0207862D01*
X0036371Y0207772D01*
X0036465Y0207678D01*
X0036557Y0207582D01*
X0036646Y0207483D01*
X0036732Y0207382D01*
X0036815Y0207278D01*
X0036895Y0207171D01*
X0036972Y0207062D01*
X0037045Y0206951D01*
X0037115Y0206838D01*
X0037182Y0206723D01*
X0037245Y0206605D01*
X0037304Y0206486D01*
X0037360Y0206366D01*
X0037413Y0206243D01*
X0037461Y0206119D01*
X0037506Y0205994D01*
X0037547Y0205867D01*
X0037585Y0205740D01*
X0037618Y0205611D01*
X0037648Y0205481D01*
X0037674Y0205350D01*
X0037695Y0205219D01*
X0037713Y0205087D01*
X0037727Y0204955D01*
X0037737Y0204822D01*
X0037743Y0204689D01*
X0037745Y0204556D01*
X0037743Y0204423D01*
X0037737Y0204290D01*
X0037727Y0204157D01*
X0037713Y0204025D01*
X0037695Y0203893D01*
X0037674Y0203762D01*
X0037648Y0203631D01*
X0037618Y0203501D01*
X0037585Y0203372D01*
X0037547Y0203245D01*
X0037506Y0203118D01*
X0037461Y0202993D01*
X0037413Y0202869D01*
X0037360Y0202746D01*
X0037304Y0202626D01*
X0037245Y0202507D01*
X0037182Y0202389D01*
X0037115Y0202274D01*
X0037045Y0202161D01*
X0036972Y0202050D01*
X0036895Y0201941D01*
X0036815Y0201834D01*
X0036732Y0201730D01*
X0036646Y0201629D01*
X0036557Y0201530D01*
X0036465Y0201434D01*
X0036371Y0201340D01*
X0036273Y0201250D01*
X0036173Y0201162D01*
X0036070Y0201078D01*
X0035965Y0200996D01*
X0035857Y0200918D01*
X0035747Y0200843D01*
X0035635Y0200771D01*
X0035520Y0200703D01*
X0035404Y0200638D01*
X0035286Y0200577D01*
X0035166Y0200519D01*
X0035045Y0200465D01*
X0034921Y0200415D01*
X0034797Y0200368D01*
X0034671Y0200325D01*
X0034544Y0200286D01*
X0034415Y0200250D01*
X0034286Y0200219D01*
X0034156Y0200191D01*
X0034025Y0200167D01*
X0033893Y0200147D01*
X0033761Y0200131D01*
X0033628Y0200119D01*
X0033496Y0200111D01*
X0033363Y0200107D01*
X0033229Y0200107D01*
X0033096Y0200111D01*
X0032964Y0200119D01*
X0032831Y0200131D01*
X0032699Y0200147D01*
X0032567Y0200167D01*
X0032436Y0200191D01*
X0032306Y0200219D01*
X0032177Y0200250D01*
X0032048Y0200286D01*
X0031921Y0200325D01*
X0031795Y0200368D01*
X0031671Y0200415D01*
X0031547Y0200465D01*
X0031426Y0200519D01*
X0031306Y0200577D01*
X0031188Y0200638D01*
X0031071Y0200703D01*
X0030957Y0200771D01*
X0030845Y0200843D01*
X0030735Y0200918D01*
X0030627Y0200996D01*
X0030522Y0201078D01*
X0030419Y0201162D01*
X0030319Y0201250D01*
X0030221Y0201340D01*
X0030127Y0201434D01*
X0030035Y0201530D01*
X0029946Y0201629D01*
X0029860Y0201730D01*
X0029777Y0201834D01*
X0029697Y0201941D01*
X0029620Y0202050D01*
X0029547Y0202161D01*
X0029477Y0202274D01*
X0029410Y0202389D01*
X0029347Y0202507D01*
X0029288Y0202626D01*
X0029232Y0202746D01*
X0029179Y0202869D01*
X0029131Y0202993D01*
X0029086Y0203118D01*
X0029045Y0203245D01*
X0029007Y0203372D01*
X0028974Y0203501D01*
X0028944Y0203631D01*
X0028918Y0203762D01*
X0028897Y0203893D01*
X0028879Y0204025D01*
X0028865Y0204157D01*
X0028855Y0204290D01*
X0028849Y0204423D01*
X0028847Y0204556D01*
X0030343Y0301800D02*
X0030345Y0301951D01*
X0030351Y0302101D01*
X0030361Y0302252D01*
X0030375Y0302402D01*
X0030393Y0302551D01*
X0030414Y0302701D01*
X0030440Y0302849D01*
X0030470Y0302997D01*
X0030503Y0303144D01*
X0030541Y0303290D01*
X0030582Y0303435D01*
X0030627Y0303579D01*
X0030676Y0303721D01*
X0030729Y0303862D01*
X0030785Y0304002D01*
X0030845Y0304140D01*
X0030908Y0304277D01*
X0030976Y0304412D01*
X0031046Y0304545D01*
X0031120Y0304676D01*
X0031198Y0304805D01*
X0031279Y0304932D01*
X0031363Y0305057D01*
X0031451Y0305180D01*
X0031542Y0305300D01*
X0031636Y0305418D01*
X0031733Y0305533D01*
X0031833Y0305646D01*
X0031936Y0305756D01*
X0032042Y0305863D01*
X0032151Y0305968D01*
X0032262Y0306069D01*
X0032376Y0306168D01*
X0032492Y0306263D01*
X0032612Y0306356D01*
X0032733Y0306445D01*
X0032857Y0306531D01*
X0032983Y0306614D01*
X0033111Y0306693D01*
X0033241Y0306769D01*
X0033373Y0306842D01*
X0033507Y0306910D01*
X0033643Y0306976D01*
X0033781Y0307038D01*
X0033920Y0307096D01*
X0034060Y0307150D01*
X0034202Y0307201D01*
X0034345Y0307248D01*
X0034490Y0307291D01*
X0034635Y0307330D01*
X0034782Y0307366D01*
X0034929Y0307397D01*
X0035077Y0307425D01*
X0035226Y0307449D01*
X0035375Y0307469D01*
X0035525Y0307485D01*
X0035675Y0307497D01*
X0035826Y0307505D01*
X0035977Y0307509D01*
X0036127Y0307509D01*
X0036278Y0307505D01*
X0036429Y0307497D01*
X0036579Y0307485D01*
X0036729Y0307469D01*
X0036878Y0307449D01*
X0037027Y0307425D01*
X0037175Y0307397D01*
X0037322Y0307366D01*
X0037469Y0307330D01*
X0037614Y0307291D01*
X0037759Y0307248D01*
X0037902Y0307201D01*
X0038044Y0307150D01*
X0038184Y0307096D01*
X0038323Y0307038D01*
X0038461Y0306976D01*
X0038597Y0306910D01*
X0038731Y0306842D01*
X0038863Y0306769D01*
X0038993Y0306693D01*
X0039121Y0306614D01*
X0039247Y0306531D01*
X0039371Y0306445D01*
X0039492Y0306356D01*
X0039612Y0306263D01*
X0039728Y0306168D01*
X0039842Y0306069D01*
X0039953Y0305968D01*
X0040062Y0305863D01*
X0040168Y0305756D01*
X0040271Y0305646D01*
X0040371Y0305533D01*
X0040468Y0305418D01*
X0040562Y0305300D01*
X0040653Y0305180D01*
X0040741Y0305057D01*
X0040825Y0304932D01*
X0040906Y0304805D01*
X0040984Y0304676D01*
X0041058Y0304545D01*
X0041128Y0304412D01*
X0041196Y0304277D01*
X0041259Y0304140D01*
X0041319Y0304002D01*
X0041375Y0303862D01*
X0041428Y0303721D01*
X0041477Y0303579D01*
X0041522Y0303435D01*
X0041563Y0303290D01*
X0041601Y0303144D01*
X0041634Y0302997D01*
X0041664Y0302849D01*
X0041690Y0302701D01*
X0041711Y0302551D01*
X0041729Y0302402D01*
X0041743Y0302252D01*
X0041753Y0302101D01*
X0041759Y0301951D01*
X0041761Y0301800D01*
X0041759Y0301649D01*
X0041753Y0301499D01*
X0041743Y0301348D01*
X0041729Y0301198D01*
X0041711Y0301049D01*
X0041690Y0300899D01*
X0041664Y0300751D01*
X0041634Y0300603D01*
X0041601Y0300456D01*
X0041563Y0300310D01*
X0041522Y0300165D01*
X0041477Y0300021D01*
X0041428Y0299879D01*
X0041375Y0299738D01*
X0041319Y0299598D01*
X0041259Y0299460D01*
X0041196Y0299323D01*
X0041128Y0299188D01*
X0041058Y0299055D01*
X0040984Y0298924D01*
X0040906Y0298795D01*
X0040825Y0298668D01*
X0040741Y0298543D01*
X0040653Y0298420D01*
X0040562Y0298300D01*
X0040468Y0298182D01*
X0040371Y0298067D01*
X0040271Y0297954D01*
X0040168Y0297844D01*
X0040062Y0297737D01*
X0039953Y0297632D01*
X0039842Y0297531D01*
X0039728Y0297432D01*
X0039612Y0297337D01*
X0039492Y0297244D01*
X0039371Y0297155D01*
X0039247Y0297069D01*
X0039121Y0296986D01*
X0038993Y0296907D01*
X0038863Y0296831D01*
X0038731Y0296758D01*
X0038597Y0296690D01*
X0038461Y0296624D01*
X0038323Y0296562D01*
X0038184Y0296504D01*
X0038044Y0296450D01*
X0037902Y0296399D01*
X0037759Y0296352D01*
X0037614Y0296309D01*
X0037469Y0296270D01*
X0037322Y0296234D01*
X0037175Y0296203D01*
X0037027Y0296175D01*
X0036878Y0296151D01*
X0036729Y0296131D01*
X0036579Y0296115D01*
X0036429Y0296103D01*
X0036278Y0296095D01*
X0036127Y0296091D01*
X0035977Y0296091D01*
X0035826Y0296095D01*
X0035675Y0296103D01*
X0035525Y0296115D01*
X0035375Y0296131D01*
X0035226Y0296151D01*
X0035077Y0296175D01*
X0034929Y0296203D01*
X0034782Y0296234D01*
X0034635Y0296270D01*
X0034490Y0296309D01*
X0034345Y0296352D01*
X0034202Y0296399D01*
X0034060Y0296450D01*
X0033920Y0296504D01*
X0033781Y0296562D01*
X0033643Y0296624D01*
X0033507Y0296690D01*
X0033373Y0296758D01*
X0033241Y0296831D01*
X0033111Y0296907D01*
X0032983Y0296986D01*
X0032857Y0297069D01*
X0032733Y0297155D01*
X0032612Y0297244D01*
X0032492Y0297337D01*
X0032376Y0297432D01*
X0032262Y0297531D01*
X0032151Y0297632D01*
X0032042Y0297737D01*
X0031936Y0297844D01*
X0031833Y0297954D01*
X0031733Y0298067D01*
X0031636Y0298182D01*
X0031542Y0298300D01*
X0031451Y0298420D01*
X0031363Y0298543D01*
X0031279Y0298668D01*
X0031198Y0298795D01*
X0031120Y0298924D01*
X0031046Y0299055D01*
X0030976Y0299188D01*
X0030908Y0299323D01*
X0030845Y0299460D01*
X0030785Y0299598D01*
X0030729Y0299738D01*
X0030676Y0299879D01*
X0030627Y0300021D01*
X0030582Y0300165D01*
X0030541Y0300310D01*
X0030503Y0300456D01*
X0030470Y0300603D01*
X0030440Y0300751D01*
X0030414Y0300899D01*
X0030393Y0301049D01*
X0030375Y0301198D01*
X0030361Y0301348D01*
X0030351Y0301499D01*
X0030345Y0301649D01*
X0030343Y0301800D01*
X0113414Y0384871D02*
X0113416Y0385022D01*
X0113422Y0385172D01*
X0113432Y0385323D01*
X0113446Y0385473D01*
X0113464Y0385622D01*
X0113485Y0385772D01*
X0113511Y0385920D01*
X0113541Y0386068D01*
X0113574Y0386215D01*
X0113612Y0386361D01*
X0113653Y0386506D01*
X0113698Y0386650D01*
X0113747Y0386792D01*
X0113800Y0386933D01*
X0113856Y0387073D01*
X0113916Y0387211D01*
X0113979Y0387348D01*
X0114047Y0387483D01*
X0114117Y0387616D01*
X0114191Y0387747D01*
X0114269Y0387876D01*
X0114350Y0388003D01*
X0114434Y0388128D01*
X0114522Y0388251D01*
X0114613Y0388371D01*
X0114707Y0388489D01*
X0114804Y0388604D01*
X0114904Y0388717D01*
X0115007Y0388827D01*
X0115113Y0388934D01*
X0115222Y0389039D01*
X0115333Y0389140D01*
X0115447Y0389239D01*
X0115563Y0389334D01*
X0115683Y0389427D01*
X0115804Y0389516D01*
X0115928Y0389602D01*
X0116054Y0389685D01*
X0116182Y0389764D01*
X0116312Y0389840D01*
X0116444Y0389913D01*
X0116578Y0389981D01*
X0116714Y0390047D01*
X0116852Y0390109D01*
X0116991Y0390167D01*
X0117131Y0390221D01*
X0117273Y0390272D01*
X0117416Y0390319D01*
X0117561Y0390362D01*
X0117706Y0390401D01*
X0117853Y0390437D01*
X0118000Y0390468D01*
X0118148Y0390496D01*
X0118297Y0390520D01*
X0118446Y0390540D01*
X0118596Y0390556D01*
X0118746Y0390568D01*
X0118897Y0390576D01*
X0119048Y0390580D01*
X0119198Y0390580D01*
X0119349Y0390576D01*
X0119500Y0390568D01*
X0119650Y0390556D01*
X0119800Y0390540D01*
X0119949Y0390520D01*
X0120098Y0390496D01*
X0120246Y0390468D01*
X0120393Y0390437D01*
X0120540Y0390401D01*
X0120685Y0390362D01*
X0120830Y0390319D01*
X0120973Y0390272D01*
X0121115Y0390221D01*
X0121255Y0390167D01*
X0121394Y0390109D01*
X0121532Y0390047D01*
X0121668Y0389981D01*
X0121802Y0389913D01*
X0121934Y0389840D01*
X0122064Y0389764D01*
X0122192Y0389685D01*
X0122318Y0389602D01*
X0122442Y0389516D01*
X0122563Y0389427D01*
X0122683Y0389334D01*
X0122799Y0389239D01*
X0122913Y0389140D01*
X0123024Y0389039D01*
X0123133Y0388934D01*
X0123239Y0388827D01*
X0123342Y0388717D01*
X0123442Y0388604D01*
X0123539Y0388489D01*
X0123633Y0388371D01*
X0123724Y0388251D01*
X0123812Y0388128D01*
X0123896Y0388003D01*
X0123977Y0387876D01*
X0124055Y0387747D01*
X0124129Y0387616D01*
X0124199Y0387483D01*
X0124267Y0387348D01*
X0124330Y0387211D01*
X0124390Y0387073D01*
X0124446Y0386933D01*
X0124499Y0386792D01*
X0124548Y0386650D01*
X0124593Y0386506D01*
X0124634Y0386361D01*
X0124672Y0386215D01*
X0124705Y0386068D01*
X0124735Y0385920D01*
X0124761Y0385772D01*
X0124782Y0385622D01*
X0124800Y0385473D01*
X0124814Y0385323D01*
X0124824Y0385172D01*
X0124830Y0385022D01*
X0124832Y0384871D01*
X0124830Y0384720D01*
X0124824Y0384570D01*
X0124814Y0384419D01*
X0124800Y0384269D01*
X0124782Y0384120D01*
X0124761Y0383970D01*
X0124735Y0383822D01*
X0124705Y0383674D01*
X0124672Y0383527D01*
X0124634Y0383381D01*
X0124593Y0383236D01*
X0124548Y0383092D01*
X0124499Y0382950D01*
X0124446Y0382809D01*
X0124390Y0382669D01*
X0124330Y0382531D01*
X0124267Y0382394D01*
X0124199Y0382259D01*
X0124129Y0382126D01*
X0124055Y0381995D01*
X0123977Y0381866D01*
X0123896Y0381739D01*
X0123812Y0381614D01*
X0123724Y0381491D01*
X0123633Y0381371D01*
X0123539Y0381253D01*
X0123442Y0381138D01*
X0123342Y0381025D01*
X0123239Y0380915D01*
X0123133Y0380808D01*
X0123024Y0380703D01*
X0122913Y0380602D01*
X0122799Y0380503D01*
X0122683Y0380408D01*
X0122563Y0380315D01*
X0122442Y0380226D01*
X0122318Y0380140D01*
X0122192Y0380057D01*
X0122064Y0379978D01*
X0121934Y0379902D01*
X0121802Y0379829D01*
X0121668Y0379761D01*
X0121532Y0379695D01*
X0121394Y0379633D01*
X0121255Y0379575D01*
X0121115Y0379521D01*
X0120973Y0379470D01*
X0120830Y0379423D01*
X0120685Y0379380D01*
X0120540Y0379341D01*
X0120393Y0379305D01*
X0120246Y0379274D01*
X0120098Y0379246D01*
X0119949Y0379222D01*
X0119800Y0379202D01*
X0119650Y0379186D01*
X0119500Y0379174D01*
X0119349Y0379166D01*
X0119198Y0379162D01*
X0119048Y0379162D01*
X0118897Y0379166D01*
X0118746Y0379174D01*
X0118596Y0379186D01*
X0118446Y0379202D01*
X0118297Y0379222D01*
X0118148Y0379246D01*
X0118000Y0379274D01*
X0117853Y0379305D01*
X0117706Y0379341D01*
X0117561Y0379380D01*
X0117416Y0379423D01*
X0117273Y0379470D01*
X0117131Y0379521D01*
X0116991Y0379575D01*
X0116852Y0379633D01*
X0116714Y0379695D01*
X0116578Y0379761D01*
X0116444Y0379829D01*
X0116312Y0379902D01*
X0116182Y0379978D01*
X0116054Y0380057D01*
X0115928Y0380140D01*
X0115804Y0380226D01*
X0115683Y0380315D01*
X0115563Y0380408D01*
X0115447Y0380503D01*
X0115333Y0380602D01*
X0115222Y0380703D01*
X0115113Y0380808D01*
X0115007Y0380915D01*
X0114904Y0381025D01*
X0114804Y0381138D01*
X0114707Y0381253D01*
X0114613Y0381371D01*
X0114522Y0381491D01*
X0114434Y0381614D01*
X0114350Y0381739D01*
X0114269Y0381866D01*
X0114191Y0381995D01*
X0114117Y0382126D01*
X0114047Y0382259D01*
X0113979Y0382394D01*
X0113916Y0382531D01*
X0113856Y0382669D01*
X0113800Y0382809D01*
X0113747Y0382950D01*
X0113698Y0383092D01*
X0113653Y0383236D01*
X0113612Y0383381D01*
X0113574Y0383527D01*
X0113541Y0383674D01*
X0113511Y0383822D01*
X0113485Y0383970D01*
X0113464Y0384120D01*
X0113446Y0384269D01*
X0113432Y0384419D01*
X0113422Y0384570D01*
X0113416Y0384720D01*
X0113414Y0384871D01*
X0307902Y0384871D02*
X0307904Y0385022D01*
X0307910Y0385172D01*
X0307920Y0385323D01*
X0307934Y0385473D01*
X0307952Y0385622D01*
X0307973Y0385772D01*
X0307999Y0385920D01*
X0308029Y0386068D01*
X0308062Y0386215D01*
X0308100Y0386361D01*
X0308141Y0386506D01*
X0308186Y0386650D01*
X0308235Y0386792D01*
X0308288Y0386933D01*
X0308344Y0387073D01*
X0308404Y0387211D01*
X0308467Y0387348D01*
X0308535Y0387483D01*
X0308605Y0387616D01*
X0308679Y0387747D01*
X0308757Y0387876D01*
X0308838Y0388003D01*
X0308922Y0388128D01*
X0309010Y0388251D01*
X0309101Y0388371D01*
X0309195Y0388489D01*
X0309292Y0388604D01*
X0309392Y0388717D01*
X0309495Y0388827D01*
X0309601Y0388934D01*
X0309710Y0389039D01*
X0309821Y0389140D01*
X0309935Y0389239D01*
X0310051Y0389334D01*
X0310171Y0389427D01*
X0310292Y0389516D01*
X0310416Y0389602D01*
X0310542Y0389685D01*
X0310670Y0389764D01*
X0310800Y0389840D01*
X0310932Y0389913D01*
X0311066Y0389981D01*
X0311202Y0390047D01*
X0311340Y0390109D01*
X0311479Y0390167D01*
X0311619Y0390221D01*
X0311761Y0390272D01*
X0311904Y0390319D01*
X0312049Y0390362D01*
X0312194Y0390401D01*
X0312341Y0390437D01*
X0312488Y0390468D01*
X0312636Y0390496D01*
X0312785Y0390520D01*
X0312934Y0390540D01*
X0313084Y0390556D01*
X0313234Y0390568D01*
X0313385Y0390576D01*
X0313536Y0390580D01*
X0313686Y0390580D01*
X0313837Y0390576D01*
X0313988Y0390568D01*
X0314138Y0390556D01*
X0314288Y0390540D01*
X0314437Y0390520D01*
X0314586Y0390496D01*
X0314734Y0390468D01*
X0314881Y0390437D01*
X0315028Y0390401D01*
X0315173Y0390362D01*
X0315318Y0390319D01*
X0315461Y0390272D01*
X0315603Y0390221D01*
X0315743Y0390167D01*
X0315882Y0390109D01*
X0316020Y0390047D01*
X0316156Y0389981D01*
X0316290Y0389913D01*
X0316422Y0389840D01*
X0316552Y0389764D01*
X0316680Y0389685D01*
X0316806Y0389602D01*
X0316930Y0389516D01*
X0317051Y0389427D01*
X0317171Y0389334D01*
X0317287Y0389239D01*
X0317401Y0389140D01*
X0317512Y0389039D01*
X0317621Y0388934D01*
X0317727Y0388827D01*
X0317830Y0388717D01*
X0317930Y0388604D01*
X0318027Y0388489D01*
X0318121Y0388371D01*
X0318212Y0388251D01*
X0318300Y0388128D01*
X0318384Y0388003D01*
X0318465Y0387876D01*
X0318543Y0387747D01*
X0318617Y0387616D01*
X0318687Y0387483D01*
X0318755Y0387348D01*
X0318818Y0387211D01*
X0318878Y0387073D01*
X0318934Y0386933D01*
X0318987Y0386792D01*
X0319036Y0386650D01*
X0319081Y0386506D01*
X0319122Y0386361D01*
X0319160Y0386215D01*
X0319193Y0386068D01*
X0319223Y0385920D01*
X0319249Y0385772D01*
X0319270Y0385622D01*
X0319288Y0385473D01*
X0319302Y0385323D01*
X0319312Y0385172D01*
X0319318Y0385022D01*
X0319320Y0384871D01*
X0319318Y0384720D01*
X0319312Y0384570D01*
X0319302Y0384419D01*
X0319288Y0384269D01*
X0319270Y0384120D01*
X0319249Y0383970D01*
X0319223Y0383822D01*
X0319193Y0383674D01*
X0319160Y0383527D01*
X0319122Y0383381D01*
X0319081Y0383236D01*
X0319036Y0383092D01*
X0318987Y0382950D01*
X0318934Y0382809D01*
X0318878Y0382669D01*
X0318818Y0382531D01*
X0318755Y0382394D01*
X0318687Y0382259D01*
X0318617Y0382126D01*
X0318543Y0381995D01*
X0318465Y0381866D01*
X0318384Y0381739D01*
X0318300Y0381614D01*
X0318212Y0381491D01*
X0318121Y0381371D01*
X0318027Y0381253D01*
X0317930Y0381138D01*
X0317830Y0381025D01*
X0317727Y0380915D01*
X0317621Y0380808D01*
X0317512Y0380703D01*
X0317401Y0380602D01*
X0317287Y0380503D01*
X0317171Y0380408D01*
X0317051Y0380315D01*
X0316930Y0380226D01*
X0316806Y0380140D01*
X0316680Y0380057D01*
X0316552Y0379978D01*
X0316422Y0379902D01*
X0316290Y0379829D01*
X0316156Y0379761D01*
X0316020Y0379695D01*
X0315882Y0379633D01*
X0315743Y0379575D01*
X0315603Y0379521D01*
X0315461Y0379470D01*
X0315318Y0379423D01*
X0315173Y0379380D01*
X0315028Y0379341D01*
X0314881Y0379305D01*
X0314734Y0379274D01*
X0314586Y0379246D01*
X0314437Y0379222D01*
X0314288Y0379202D01*
X0314138Y0379186D01*
X0313988Y0379174D01*
X0313837Y0379166D01*
X0313686Y0379162D01*
X0313536Y0379162D01*
X0313385Y0379166D01*
X0313234Y0379174D01*
X0313084Y0379186D01*
X0312934Y0379202D01*
X0312785Y0379222D01*
X0312636Y0379246D01*
X0312488Y0379274D01*
X0312341Y0379305D01*
X0312194Y0379341D01*
X0312049Y0379380D01*
X0311904Y0379423D01*
X0311761Y0379470D01*
X0311619Y0379521D01*
X0311479Y0379575D01*
X0311340Y0379633D01*
X0311202Y0379695D01*
X0311066Y0379761D01*
X0310932Y0379829D01*
X0310800Y0379902D01*
X0310670Y0379978D01*
X0310542Y0380057D01*
X0310416Y0380140D01*
X0310292Y0380226D01*
X0310171Y0380315D01*
X0310051Y0380408D01*
X0309935Y0380503D01*
X0309821Y0380602D01*
X0309710Y0380703D01*
X0309601Y0380808D01*
X0309495Y0380915D01*
X0309392Y0381025D01*
X0309292Y0381138D01*
X0309195Y0381253D01*
X0309101Y0381371D01*
X0309010Y0381491D01*
X0308922Y0381614D01*
X0308838Y0381739D01*
X0308757Y0381866D01*
X0308679Y0381995D01*
X0308605Y0382126D01*
X0308535Y0382259D01*
X0308467Y0382394D01*
X0308404Y0382531D01*
X0308344Y0382669D01*
X0308288Y0382809D01*
X0308235Y0382950D01*
X0308186Y0383092D01*
X0308141Y0383236D01*
X0308100Y0383381D01*
X0308062Y0383527D01*
X0308029Y0383674D01*
X0307999Y0383822D01*
X0307973Y0383970D01*
X0307952Y0384120D01*
X0307934Y0384269D01*
X0307920Y0384419D01*
X0307910Y0384570D01*
X0307904Y0384720D01*
X0307902Y0384871D01*
X0390973Y0301800D02*
X0390975Y0301951D01*
X0390981Y0302101D01*
X0390991Y0302252D01*
X0391005Y0302402D01*
X0391023Y0302551D01*
X0391044Y0302701D01*
X0391070Y0302849D01*
X0391100Y0302997D01*
X0391133Y0303144D01*
X0391171Y0303290D01*
X0391212Y0303435D01*
X0391257Y0303579D01*
X0391306Y0303721D01*
X0391359Y0303862D01*
X0391415Y0304002D01*
X0391475Y0304140D01*
X0391538Y0304277D01*
X0391606Y0304412D01*
X0391676Y0304545D01*
X0391750Y0304676D01*
X0391828Y0304805D01*
X0391909Y0304932D01*
X0391993Y0305057D01*
X0392081Y0305180D01*
X0392172Y0305300D01*
X0392266Y0305418D01*
X0392363Y0305533D01*
X0392463Y0305646D01*
X0392566Y0305756D01*
X0392672Y0305863D01*
X0392781Y0305968D01*
X0392892Y0306069D01*
X0393006Y0306168D01*
X0393122Y0306263D01*
X0393242Y0306356D01*
X0393363Y0306445D01*
X0393487Y0306531D01*
X0393613Y0306614D01*
X0393741Y0306693D01*
X0393871Y0306769D01*
X0394003Y0306842D01*
X0394137Y0306910D01*
X0394273Y0306976D01*
X0394411Y0307038D01*
X0394550Y0307096D01*
X0394690Y0307150D01*
X0394832Y0307201D01*
X0394975Y0307248D01*
X0395120Y0307291D01*
X0395265Y0307330D01*
X0395412Y0307366D01*
X0395559Y0307397D01*
X0395707Y0307425D01*
X0395856Y0307449D01*
X0396005Y0307469D01*
X0396155Y0307485D01*
X0396305Y0307497D01*
X0396456Y0307505D01*
X0396607Y0307509D01*
X0396757Y0307509D01*
X0396908Y0307505D01*
X0397059Y0307497D01*
X0397209Y0307485D01*
X0397359Y0307469D01*
X0397508Y0307449D01*
X0397657Y0307425D01*
X0397805Y0307397D01*
X0397952Y0307366D01*
X0398099Y0307330D01*
X0398244Y0307291D01*
X0398389Y0307248D01*
X0398532Y0307201D01*
X0398674Y0307150D01*
X0398814Y0307096D01*
X0398953Y0307038D01*
X0399091Y0306976D01*
X0399227Y0306910D01*
X0399361Y0306842D01*
X0399493Y0306769D01*
X0399623Y0306693D01*
X0399751Y0306614D01*
X0399877Y0306531D01*
X0400001Y0306445D01*
X0400122Y0306356D01*
X0400242Y0306263D01*
X0400358Y0306168D01*
X0400472Y0306069D01*
X0400583Y0305968D01*
X0400692Y0305863D01*
X0400798Y0305756D01*
X0400901Y0305646D01*
X0401001Y0305533D01*
X0401098Y0305418D01*
X0401192Y0305300D01*
X0401283Y0305180D01*
X0401371Y0305057D01*
X0401455Y0304932D01*
X0401536Y0304805D01*
X0401614Y0304676D01*
X0401688Y0304545D01*
X0401758Y0304412D01*
X0401826Y0304277D01*
X0401889Y0304140D01*
X0401949Y0304002D01*
X0402005Y0303862D01*
X0402058Y0303721D01*
X0402107Y0303579D01*
X0402152Y0303435D01*
X0402193Y0303290D01*
X0402231Y0303144D01*
X0402264Y0302997D01*
X0402294Y0302849D01*
X0402320Y0302701D01*
X0402341Y0302551D01*
X0402359Y0302402D01*
X0402373Y0302252D01*
X0402383Y0302101D01*
X0402389Y0301951D01*
X0402391Y0301800D01*
X0402389Y0301649D01*
X0402383Y0301499D01*
X0402373Y0301348D01*
X0402359Y0301198D01*
X0402341Y0301049D01*
X0402320Y0300899D01*
X0402294Y0300751D01*
X0402264Y0300603D01*
X0402231Y0300456D01*
X0402193Y0300310D01*
X0402152Y0300165D01*
X0402107Y0300021D01*
X0402058Y0299879D01*
X0402005Y0299738D01*
X0401949Y0299598D01*
X0401889Y0299460D01*
X0401826Y0299323D01*
X0401758Y0299188D01*
X0401688Y0299055D01*
X0401614Y0298924D01*
X0401536Y0298795D01*
X0401455Y0298668D01*
X0401371Y0298543D01*
X0401283Y0298420D01*
X0401192Y0298300D01*
X0401098Y0298182D01*
X0401001Y0298067D01*
X0400901Y0297954D01*
X0400798Y0297844D01*
X0400692Y0297737D01*
X0400583Y0297632D01*
X0400472Y0297531D01*
X0400358Y0297432D01*
X0400242Y0297337D01*
X0400122Y0297244D01*
X0400001Y0297155D01*
X0399877Y0297069D01*
X0399751Y0296986D01*
X0399623Y0296907D01*
X0399493Y0296831D01*
X0399361Y0296758D01*
X0399227Y0296690D01*
X0399091Y0296624D01*
X0398953Y0296562D01*
X0398814Y0296504D01*
X0398674Y0296450D01*
X0398532Y0296399D01*
X0398389Y0296352D01*
X0398244Y0296309D01*
X0398099Y0296270D01*
X0397952Y0296234D01*
X0397805Y0296203D01*
X0397657Y0296175D01*
X0397508Y0296151D01*
X0397359Y0296131D01*
X0397209Y0296115D01*
X0397059Y0296103D01*
X0396908Y0296095D01*
X0396757Y0296091D01*
X0396607Y0296091D01*
X0396456Y0296095D01*
X0396305Y0296103D01*
X0396155Y0296115D01*
X0396005Y0296131D01*
X0395856Y0296151D01*
X0395707Y0296175D01*
X0395559Y0296203D01*
X0395412Y0296234D01*
X0395265Y0296270D01*
X0395120Y0296309D01*
X0394975Y0296352D01*
X0394832Y0296399D01*
X0394690Y0296450D01*
X0394550Y0296504D01*
X0394411Y0296562D01*
X0394273Y0296624D01*
X0394137Y0296690D01*
X0394003Y0296758D01*
X0393871Y0296831D01*
X0393741Y0296907D01*
X0393613Y0296986D01*
X0393487Y0297069D01*
X0393363Y0297155D01*
X0393242Y0297244D01*
X0393122Y0297337D01*
X0393006Y0297432D01*
X0392892Y0297531D01*
X0392781Y0297632D01*
X0392672Y0297737D01*
X0392566Y0297844D01*
X0392463Y0297954D01*
X0392363Y0298067D01*
X0392266Y0298182D01*
X0392172Y0298300D01*
X0392081Y0298420D01*
X0391993Y0298543D01*
X0391909Y0298668D01*
X0391828Y0298795D01*
X0391750Y0298924D01*
X0391676Y0299055D01*
X0391606Y0299188D01*
X0391538Y0299323D01*
X0391475Y0299460D01*
X0391415Y0299598D01*
X0391359Y0299738D01*
X0391306Y0299879D01*
X0391257Y0300021D01*
X0391212Y0300165D01*
X0391171Y0300310D01*
X0391133Y0300456D01*
X0391100Y0300603D01*
X0391070Y0300751D01*
X0391044Y0300899D01*
X0391023Y0301049D01*
X0391005Y0301198D01*
X0390991Y0301348D01*
X0390981Y0301499D01*
X0390975Y0301649D01*
X0390973Y0301800D01*
X0394989Y0204556D02*
X0394991Y0204689D01*
X0394997Y0204822D01*
X0395007Y0204955D01*
X0395021Y0205087D01*
X0395039Y0205219D01*
X0395060Y0205350D01*
X0395086Y0205481D01*
X0395116Y0205611D01*
X0395149Y0205740D01*
X0395187Y0205867D01*
X0395228Y0205994D01*
X0395273Y0206119D01*
X0395321Y0206243D01*
X0395374Y0206366D01*
X0395430Y0206486D01*
X0395489Y0206605D01*
X0395552Y0206723D01*
X0395619Y0206838D01*
X0395689Y0206951D01*
X0395762Y0207062D01*
X0395839Y0207171D01*
X0395919Y0207278D01*
X0396002Y0207382D01*
X0396088Y0207483D01*
X0396177Y0207582D01*
X0396269Y0207678D01*
X0396363Y0207772D01*
X0396461Y0207862D01*
X0396561Y0207950D01*
X0396664Y0208034D01*
X0396769Y0208116D01*
X0396877Y0208194D01*
X0396987Y0208269D01*
X0397099Y0208341D01*
X0397214Y0208409D01*
X0397330Y0208474D01*
X0397448Y0208535D01*
X0397568Y0208593D01*
X0397689Y0208647D01*
X0397813Y0208697D01*
X0397937Y0208744D01*
X0398063Y0208787D01*
X0398190Y0208826D01*
X0398319Y0208862D01*
X0398448Y0208893D01*
X0398578Y0208921D01*
X0398709Y0208945D01*
X0398841Y0208965D01*
X0398973Y0208981D01*
X0399106Y0208993D01*
X0399238Y0209001D01*
X0399371Y0209005D01*
X0399505Y0209005D01*
X0399638Y0209001D01*
X0399770Y0208993D01*
X0399903Y0208981D01*
X0400035Y0208965D01*
X0400167Y0208945D01*
X0400298Y0208921D01*
X0400428Y0208893D01*
X0400557Y0208862D01*
X0400686Y0208826D01*
X0400813Y0208787D01*
X0400939Y0208744D01*
X0401063Y0208697D01*
X0401187Y0208647D01*
X0401308Y0208593D01*
X0401428Y0208535D01*
X0401546Y0208474D01*
X0401663Y0208409D01*
X0401777Y0208341D01*
X0401889Y0208269D01*
X0401999Y0208194D01*
X0402107Y0208116D01*
X0402212Y0208034D01*
X0402315Y0207950D01*
X0402415Y0207862D01*
X0402513Y0207772D01*
X0402607Y0207678D01*
X0402699Y0207582D01*
X0402788Y0207483D01*
X0402874Y0207382D01*
X0402957Y0207278D01*
X0403037Y0207171D01*
X0403114Y0207062D01*
X0403187Y0206951D01*
X0403257Y0206838D01*
X0403324Y0206723D01*
X0403387Y0206605D01*
X0403446Y0206486D01*
X0403502Y0206366D01*
X0403555Y0206243D01*
X0403603Y0206119D01*
X0403648Y0205994D01*
X0403689Y0205867D01*
X0403727Y0205740D01*
X0403760Y0205611D01*
X0403790Y0205481D01*
X0403816Y0205350D01*
X0403837Y0205219D01*
X0403855Y0205087D01*
X0403869Y0204955D01*
X0403879Y0204822D01*
X0403885Y0204689D01*
X0403887Y0204556D01*
X0403885Y0204423D01*
X0403879Y0204290D01*
X0403869Y0204157D01*
X0403855Y0204025D01*
X0403837Y0203893D01*
X0403816Y0203762D01*
X0403790Y0203631D01*
X0403760Y0203501D01*
X0403727Y0203372D01*
X0403689Y0203245D01*
X0403648Y0203118D01*
X0403603Y0202993D01*
X0403555Y0202869D01*
X0403502Y0202746D01*
X0403446Y0202626D01*
X0403387Y0202507D01*
X0403324Y0202389D01*
X0403257Y0202274D01*
X0403187Y0202161D01*
X0403114Y0202050D01*
X0403037Y0201941D01*
X0402957Y0201834D01*
X0402874Y0201730D01*
X0402788Y0201629D01*
X0402699Y0201530D01*
X0402607Y0201434D01*
X0402513Y0201340D01*
X0402415Y0201250D01*
X0402315Y0201162D01*
X0402212Y0201078D01*
X0402107Y0200996D01*
X0401999Y0200918D01*
X0401889Y0200843D01*
X0401777Y0200771D01*
X0401662Y0200703D01*
X0401546Y0200638D01*
X0401428Y0200577D01*
X0401308Y0200519D01*
X0401187Y0200465D01*
X0401063Y0200415D01*
X0400939Y0200368D01*
X0400813Y0200325D01*
X0400686Y0200286D01*
X0400557Y0200250D01*
X0400428Y0200219D01*
X0400298Y0200191D01*
X0400167Y0200167D01*
X0400035Y0200147D01*
X0399903Y0200131D01*
X0399770Y0200119D01*
X0399638Y0200111D01*
X0399505Y0200107D01*
X0399371Y0200107D01*
X0399238Y0200111D01*
X0399106Y0200119D01*
X0398973Y0200131D01*
X0398841Y0200147D01*
X0398709Y0200167D01*
X0398578Y0200191D01*
X0398448Y0200219D01*
X0398319Y0200250D01*
X0398190Y0200286D01*
X0398063Y0200325D01*
X0397937Y0200368D01*
X0397813Y0200415D01*
X0397689Y0200465D01*
X0397568Y0200519D01*
X0397448Y0200577D01*
X0397330Y0200638D01*
X0397213Y0200703D01*
X0397099Y0200771D01*
X0396987Y0200843D01*
X0396877Y0200918D01*
X0396769Y0200996D01*
X0396664Y0201078D01*
X0396561Y0201162D01*
X0396461Y0201250D01*
X0396363Y0201340D01*
X0396269Y0201434D01*
X0396177Y0201530D01*
X0396088Y0201629D01*
X0396002Y0201730D01*
X0395919Y0201834D01*
X0395839Y0201941D01*
X0395762Y0202050D01*
X0395689Y0202161D01*
X0395619Y0202274D01*
X0395552Y0202389D01*
X0395489Y0202507D01*
X0395430Y0202626D01*
X0395374Y0202746D01*
X0395321Y0202869D01*
X0395273Y0202993D01*
X0395228Y0203118D01*
X0395187Y0203245D01*
X0395149Y0203372D01*
X0395116Y0203501D01*
X0395086Y0203631D01*
X0395060Y0203762D01*
X0395039Y0203893D01*
X0395021Y0204025D01*
X0395007Y0204157D01*
X0394997Y0204290D01*
X0394991Y0204423D01*
X0394989Y0204556D01*
X0390973Y0107312D02*
X0390975Y0107463D01*
X0390981Y0107613D01*
X0390991Y0107764D01*
X0391005Y0107914D01*
X0391023Y0108063D01*
X0391044Y0108213D01*
X0391070Y0108361D01*
X0391100Y0108509D01*
X0391133Y0108656D01*
X0391171Y0108802D01*
X0391212Y0108947D01*
X0391257Y0109091D01*
X0391306Y0109233D01*
X0391359Y0109374D01*
X0391415Y0109514D01*
X0391475Y0109652D01*
X0391538Y0109789D01*
X0391606Y0109924D01*
X0391676Y0110057D01*
X0391750Y0110188D01*
X0391828Y0110317D01*
X0391909Y0110444D01*
X0391993Y0110569D01*
X0392081Y0110692D01*
X0392172Y0110812D01*
X0392266Y0110930D01*
X0392363Y0111045D01*
X0392463Y0111158D01*
X0392566Y0111268D01*
X0392672Y0111375D01*
X0392781Y0111480D01*
X0392892Y0111581D01*
X0393006Y0111680D01*
X0393122Y0111775D01*
X0393242Y0111868D01*
X0393363Y0111957D01*
X0393487Y0112043D01*
X0393613Y0112126D01*
X0393741Y0112205D01*
X0393871Y0112281D01*
X0394003Y0112354D01*
X0394137Y0112422D01*
X0394273Y0112488D01*
X0394411Y0112550D01*
X0394550Y0112608D01*
X0394690Y0112662D01*
X0394832Y0112713D01*
X0394975Y0112760D01*
X0395120Y0112803D01*
X0395265Y0112842D01*
X0395412Y0112878D01*
X0395559Y0112909D01*
X0395707Y0112937D01*
X0395856Y0112961D01*
X0396005Y0112981D01*
X0396155Y0112997D01*
X0396305Y0113009D01*
X0396456Y0113017D01*
X0396607Y0113021D01*
X0396757Y0113021D01*
X0396908Y0113017D01*
X0397059Y0113009D01*
X0397209Y0112997D01*
X0397359Y0112981D01*
X0397508Y0112961D01*
X0397657Y0112937D01*
X0397805Y0112909D01*
X0397952Y0112878D01*
X0398099Y0112842D01*
X0398244Y0112803D01*
X0398389Y0112760D01*
X0398532Y0112713D01*
X0398674Y0112662D01*
X0398814Y0112608D01*
X0398953Y0112550D01*
X0399091Y0112488D01*
X0399227Y0112422D01*
X0399361Y0112354D01*
X0399493Y0112281D01*
X0399623Y0112205D01*
X0399751Y0112126D01*
X0399877Y0112043D01*
X0400001Y0111957D01*
X0400122Y0111868D01*
X0400242Y0111775D01*
X0400358Y0111680D01*
X0400472Y0111581D01*
X0400583Y0111480D01*
X0400692Y0111375D01*
X0400798Y0111268D01*
X0400901Y0111158D01*
X0401001Y0111045D01*
X0401098Y0110930D01*
X0401192Y0110812D01*
X0401283Y0110692D01*
X0401371Y0110569D01*
X0401455Y0110444D01*
X0401536Y0110317D01*
X0401614Y0110188D01*
X0401688Y0110057D01*
X0401758Y0109924D01*
X0401826Y0109789D01*
X0401889Y0109652D01*
X0401949Y0109514D01*
X0402005Y0109374D01*
X0402058Y0109233D01*
X0402107Y0109091D01*
X0402152Y0108947D01*
X0402193Y0108802D01*
X0402231Y0108656D01*
X0402264Y0108509D01*
X0402294Y0108361D01*
X0402320Y0108213D01*
X0402341Y0108063D01*
X0402359Y0107914D01*
X0402373Y0107764D01*
X0402383Y0107613D01*
X0402389Y0107463D01*
X0402391Y0107312D01*
X0402389Y0107161D01*
X0402383Y0107011D01*
X0402373Y0106860D01*
X0402359Y0106710D01*
X0402341Y0106561D01*
X0402320Y0106411D01*
X0402294Y0106263D01*
X0402264Y0106115D01*
X0402231Y0105968D01*
X0402193Y0105822D01*
X0402152Y0105677D01*
X0402107Y0105533D01*
X0402058Y0105391D01*
X0402005Y0105250D01*
X0401949Y0105110D01*
X0401889Y0104972D01*
X0401826Y0104835D01*
X0401758Y0104700D01*
X0401688Y0104567D01*
X0401614Y0104436D01*
X0401536Y0104307D01*
X0401455Y0104180D01*
X0401371Y0104055D01*
X0401283Y0103932D01*
X0401192Y0103812D01*
X0401098Y0103694D01*
X0401001Y0103579D01*
X0400901Y0103466D01*
X0400798Y0103356D01*
X0400692Y0103249D01*
X0400583Y0103144D01*
X0400472Y0103043D01*
X0400358Y0102944D01*
X0400242Y0102849D01*
X0400122Y0102756D01*
X0400001Y0102667D01*
X0399877Y0102581D01*
X0399751Y0102498D01*
X0399623Y0102419D01*
X0399493Y0102343D01*
X0399361Y0102270D01*
X0399227Y0102202D01*
X0399091Y0102136D01*
X0398953Y0102074D01*
X0398814Y0102016D01*
X0398674Y0101962D01*
X0398532Y0101911D01*
X0398389Y0101864D01*
X0398244Y0101821D01*
X0398099Y0101782D01*
X0397952Y0101746D01*
X0397805Y0101715D01*
X0397657Y0101687D01*
X0397508Y0101663D01*
X0397359Y0101643D01*
X0397209Y0101627D01*
X0397059Y0101615D01*
X0396908Y0101607D01*
X0396757Y0101603D01*
X0396607Y0101603D01*
X0396456Y0101607D01*
X0396305Y0101615D01*
X0396155Y0101627D01*
X0396005Y0101643D01*
X0395856Y0101663D01*
X0395707Y0101687D01*
X0395559Y0101715D01*
X0395412Y0101746D01*
X0395265Y0101782D01*
X0395120Y0101821D01*
X0394975Y0101864D01*
X0394832Y0101911D01*
X0394690Y0101962D01*
X0394550Y0102016D01*
X0394411Y0102074D01*
X0394273Y0102136D01*
X0394137Y0102202D01*
X0394003Y0102270D01*
X0393871Y0102343D01*
X0393741Y0102419D01*
X0393613Y0102498D01*
X0393487Y0102581D01*
X0393363Y0102667D01*
X0393242Y0102756D01*
X0393122Y0102849D01*
X0393006Y0102944D01*
X0392892Y0103043D01*
X0392781Y0103144D01*
X0392672Y0103249D01*
X0392566Y0103356D01*
X0392463Y0103466D01*
X0392363Y0103579D01*
X0392266Y0103694D01*
X0392172Y0103812D01*
X0392081Y0103932D01*
X0391993Y0104055D01*
X0391909Y0104180D01*
X0391828Y0104307D01*
X0391750Y0104436D01*
X0391676Y0104567D01*
X0391606Y0104700D01*
X0391538Y0104835D01*
X0391475Y0104972D01*
X0391415Y0105110D01*
X0391359Y0105250D01*
X0391306Y0105391D01*
X0391257Y0105533D01*
X0391212Y0105677D01*
X0391171Y0105822D01*
X0391133Y0105968D01*
X0391100Y0106115D01*
X0391070Y0106263D01*
X0391044Y0106411D01*
X0391023Y0106561D01*
X0391005Y0106710D01*
X0390991Y0106860D01*
X0390981Y0107011D01*
X0390975Y0107161D01*
X0390973Y0107312D01*
X0307902Y0024241D02*
X0307904Y0024392D01*
X0307910Y0024542D01*
X0307920Y0024693D01*
X0307934Y0024843D01*
X0307952Y0024992D01*
X0307973Y0025142D01*
X0307999Y0025290D01*
X0308029Y0025438D01*
X0308062Y0025585D01*
X0308100Y0025731D01*
X0308141Y0025876D01*
X0308186Y0026020D01*
X0308235Y0026162D01*
X0308288Y0026303D01*
X0308344Y0026443D01*
X0308404Y0026581D01*
X0308467Y0026718D01*
X0308535Y0026853D01*
X0308605Y0026986D01*
X0308679Y0027117D01*
X0308757Y0027246D01*
X0308838Y0027373D01*
X0308922Y0027498D01*
X0309010Y0027621D01*
X0309101Y0027741D01*
X0309195Y0027859D01*
X0309292Y0027974D01*
X0309392Y0028087D01*
X0309495Y0028197D01*
X0309601Y0028304D01*
X0309710Y0028409D01*
X0309821Y0028510D01*
X0309935Y0028609D01*
X0310051Y0028704D01*
X0310171Y0028797D01*
X0310292Y0028886D01*
X0310416Y0028972D01*
X0310542Y0029055D01*
X0310670Y0029134D01*
X0310800Y0029210D01*
X0310932Y0029283D01*
X0311066Y0029351D01*
X0311202Y0029417D01*
X0311340Y0029479D01*
X0311479Y0029537D01*
X0311619Y0029591D01*
X0311761Y0029642D01*
X0311904Y0029689D01*
X0312049Y0029732D01*
X0312194Y0029771D01*
X0312341Y0029807D01*
X0312488Y0029838D01*
X0312636Y0029866D01*
X0312785Y0029890D01*
X0312934Y0029910D01*
X0313084Y0029926D01*
X0313234Y0029938D01*
X0313385Y0029946D01*
X0313536Y0029950D01*
X0313686Y0029950D01*
X0313837Y0029946D01*
X0313988Y0029938D01*
X0314138Y0029926D01*
X0314288Y0029910D01*
X0314437Y0029890D01*
X0314586Y0029866D01*
X0314734Y0029838D01*
X0314881Y0029807D01*
X0315028Y0029771D01*
X0315173Y0029732D01*
X0315318Y0029689D01*
X0315461Y0029642D01*
X0315603Y0029591D01*
X0315743Y0029537D01*
X0315882Y0029479D01*
X0316020Y0029417D01*
X0316156Y0029351D01*
X0316290Y0029283D01*
X0316422Y0029210D01*
X0316552Y0029134D01*
X0316680Y0029055D01*
X0316806Y0028972D01*
X0316930Y0028886D01*
X0317051Y0028797D01*
X0317171Y0028704D01*
X0317287Y0028609D01*
X0317401Y0028510D01*
X0317512Y0028409D01*
X0317621Y0028304D01*
X0317727Y0028197D01*
X0317830Y0028087D01*
X0317930Y0027974D01*
X0318027Y0027859D01*
X0318121Y0027741D01*
X0318212Y0027621D01*
X0318300Y0027498D01*
X0318384Y0027373D01*
X0318465Y0027246D01*
X0318543Y0027117D01*
X0318617Y0026986D01*
X0318687Y0026853D01*
X0318755Y0026718D01*
X0318818Y0026581D01*
X0318878Y0026443D01*
X0318934Y0026303D01*
X0318987Y0026162D01*
X0319036Y0026020D01*
X0319081Y0025876D01*
X0319122Y0025731D01*
X0319160Y0025585D01*
X0319193Y0025438D01*
X0319223Y0025290D01*
X0319249Y0025142D01*
X0319270Y0024992D01*
X0319288Y0024843D01*
X0319302Y0024693D01*
X0319312Y0024542D01*
X0319318Y0024392D01*
X0319320Y0024241D01*
X0319318Y0024090D01*
X0319312Y0023940D01*
X0319302Y0023789D01*
X0319288Y0023639D01*
X0319270Y0023490D01*
X0319249Y0023340D01*
X0319223Y0023192D01*
X0319193Y0023044D01*
X0319160Y0022897D01*
X0319122Y0022751D01*
X0319081Y0022606D01*
X0319036Y0022462D01*
X0318987Y0022320D01*
X0318934Y0022179D01*
X0318878Y0022039D01*
X0318818Y0021901D01*
X0318755Y0021764D01*
X0318687Y0021629D01*
X0318617Y0021496D01*
X0318543Y0021365D01*
X0318465Y0021236D01*
X0318384Y0021109D01*
X0318300Y0020984D01*
X0318212Y0020861D01*
X0318121Y0020741D01*
X0318027Y0020623D01*
X0317930Y0020508D01*
X0317830Y0020395D01*
X0317727Y0020285D01*
X0317621Y0020178D01*
X0317512Y0020073D01*
X0317401Y0019972D01*
X0317287Y0019873D01*
X0317171Y0019778D01*
X0317051Y0019685D01*
X0316930Y0019596D01*
X0316806Y0019510D01*
X0316680Y0019427D01*
X0316552Y0019348D01*
X0316422Y0019272D01*
X0316290Y0019199D01*
X0316156Y0019131D01*
X0316020Y0019065D01*
X0315882Y0019003D01*
X0315743Y0018945D01*
X0315603Y0018891D01*
X0315461Y0018840D01*
X0315318Y0018793D01*
X0315173Y0018750D01*
X0315028Y0018711D01*
X0314881Y0018675D01*
X0314734Y0018644D01*
X0314586Y0018616D01*
X0314437Y0018592D01*
X0314288Y0018572D01*
X0314138Y0018556D01*
X0313988Y0018544D01*
X0313837Y0018536D01*
X0313686Y0018532D01*
X0313536Y0018532D01*
X0313385Y0018536D01*
X0313234Y0018544D01*
X0313084Y0018556D01*
X0312934Y0018572D01*
X0312785Y0018592D01*
X0312636Y0018616D01*
X0312488Y0018644D01*
X0312341Y0018675D01*
X0312194Y0018711D01*
X0312049Y0018750D01*
X0311904Y0018793D01*
X0311761Y0018840D01*
X0311619Y0018891D01*
X0311479Y0018945D01*
X0311340Y0019003D01*
X0311202Y0019065D01*
X0311066Y0019131D01*
X0310932Y0019199D01*
X0310800Y0019272D01*
X0310670Y0019348D01*
X0310542Y0019427D01*
X0310416Y0019510D01*
X0310292Y0019596D01*
X0310171Y0019685D01*
X0310051Y0019778D01*
X0309935Y0019873D01*
X0309821Y0019972D01*
X0309710Y0020073D01*
X0309601Y0020178D01*
X0309495Y0020285D01*
X0309392Y0020395D01*
X0309292Y0020508D01*
X0309195Y0020623D01*
X0309101Y0020741D01*
X0309010Y0020861D01*
X0308922Y0020984D01*
X0308838Y0021109D01*
X0308757Y0021236D01*
X0308679Y0021365D01*
X0308605Y0021496D01*
X0308535Y0021629D01*
X0308467Y0021764D01*
X0308404Y0021901D01*
X0308344Y0022039D01*
X0308288Y0022179D01*
X0308235Y0022320D01*
X0308186Y0022462D01*
X0308141Y0022606D01*
X0308100Y0022751D01*
X0308062Y0022897D01*
X0308029Y0023044D01*
X0307999Y0023192D01*
X0307973Y0023340D01*
X0307952Y0023490D01*
X0307934Y0023639D01*
X0307920Y0023789D01*
X0307910Y0023940D01*
X0307904Y0024090D01*
X0307902Y0024241D01*
M02*
