G75*
%MOIN*%
%OFA0B0*%
%FSLAX25Y25*%
%IPPOS*%
%LPD*%
%AMOC8*
5,1,8,0,0,1.08239X$1,22.5*
%
%ADD10C,0.00000*%
%ADD11C,0.07400*%
%ADD12OC8,0.07400*%
%ADD13C,0.03962*%
%ADD14C,0.02800*%
%ADD15C,0.01600*%
%ADD16R,0.03962X0.03962*%
%ADD17C,0.03175*%
%ADD18C,0.03569*%
D10*
X0021485Y0009674D02*
X0060855Y0009674D01*
X0060855Y0005737D01*
X0371879Y0005737D01*
X0371879Y0009674D01*
X0411249Y0009674D01*
X0411249Y0049044D01*
X0415186Y0049044D01*
X0415186Y0360068D01*
X0411249Y0360068D01*
X0411249Y0399438D01*
X0371879Y0399438D01*
X0371879Y0403375D01*
X0060855Y0403375D01*
X0060855Y0399438D01*
X0021485Y0399438D01*
X0021485Y0360068D01*
X0017548Y0360068D01*
X0017548Y0049044D01*
X0021485Y0049044D01*
X0021485Y0009674D01*
X0030343Y0106131D02*
X0030345Y0106282D01*
X0030351Y0106432D01*
X0030361Y0106583D01*
X0030375Y0106733D01*
X0030393Y0106882D01*
X0030414Y0107032D01*
X0030440Y0107180D01*
X0030470Y0107328D01*
X0030503Y0107475D01*
X0030541Y0107621D01*
X0030582Y0107766D01*
X0030627Y0107910D01*
X0030676Y0108052D01*
X0030729Y0108193D01*
X0030785Y0108333D01*
X0030845Y0108471D01*
X0030908Y0108608D01*
X0030976Y0108743D01*
X0031046Y0108876D01*
X0031120Y0109007D01*
X0031198Y0109136D01*
X0031279Y0109263D01*
X0031363Y0109388D01*
X0031451Y0109511D01*
X0031542Y0109631D01*
X0031636Y0109749D01*
X0031733Y0109864D01*
X0031833Y0109977D01*
X0031936Y0110087D01*
X0032042Y0110194D01*
X0032151Y0110299D01*
X0032262Y0110400D01*
X0032376Y0110499D01*
X0032492Y0110594D01*
X0032612Y0110687D01*
X0032733Y0110776D01*
X0032857Y0110862D01*
X0032983Y0110945D01*
X0033111Y0111024D01*
X0033241Y0111100D01*
X0033373Y0111173D01*
X0033507Y0111241D01*
X0033643Y0111307D01*
X0033781Y0111369D01*
X0033920Y0111427D01*
X0034060Y0111481D01*
X0034202Y0111532D01*
X0034345Y0111579D01*
X0034490Y0111622D01*
X0034635Y0111661D01*
X0034782Y0111697D01*
X0034929Y0111728D01*
X0035077Y0111756D01*
X0035226Y0111780D01*
X0035375Y0111800D01*
X0035525Y0111816D01*
X0035675Y0111828D01*
X0035826Y0111836D01*
X0035977Y0111840D01*
X0036127Y0111840D01*
X0036278Y0111836D01*
X0036429Y0111828D01*
X0036579Y0111816D01*
X0036729Y0111800D01*
X0036878Y0111780D01*
X0037027Y0111756D01*
X0037175Y0111728D01*
X0037322Y0111697D01*
X0037469Y0111661D01*
X0037614Y0111622D01*
X0037759Y0111579D01*
X0037902Y0111532D01*
X0038044Y0111481D01*
X0038184Y0111427D01*
X0038323Y0111369D01*
X0038461Y0111307D01*
X0038597Y0111241D01*
X0038731Y0111173D01*
X0038863Y0111100D01*
X0038993Y0111024D01*
X0039121Y0110945D01*
X0039247Y0110862D01*
X0039371Y0110776D01*
X0039492Y0110687D01*
X0039612Y0110594D01*
X0039728Y0110499D01*
X0039842Y0110400D01*
X0039953Y0110299D01*
X0040062Y0110194D01*
X0040168Y0110087D01*
X0040271Y0109977D01*
X0040371Y0109864D01*
X0040468Y0109749D01*
X0040562Y0109631D01*
X0040653Y0109511D01*
X0040741Y0109388D01*
X0040825Y0109263D01*
X0040906Y0109136D01*
X0040984Y0109007D01*
X0041058Y0108876D01*
X0041128Y0108743D01*
X0041196Y0108608D01*
X0041259Y0108471D01*
X0041319Y0108333D01*
X0041375Y0108193D01*
X0041428Y0108052D01*
X0041477Y0107910D01*
X0041522Y0107766D01*
X0041563Y0107621D01*
X0041601Y0107475D01*
X0041634Y0107328D01*
X0041664Y0107180D01*
X0041690Y0107032D01*
X0041711Y0106882D01*
X0041729Y0106733D01*
X0041743Y0106583D01*
X0041753Y0106432D01*
X0041759Y0106282D01*
X0041761Y0106131D01*
X0041759Y0105980D01*
X0041753Y0105830D01*
X0041743Y0105679D01*
X0041729Y0105529D01*
X0041711Y0105380D01*
X0041690Y0105230D01*
X0041664Y0105082D01*
X0041634Y0104934D01*
X0041601Y0104787D01*
X0041563Y0104641D01*
X0041522Y0104496D01*
X0041477Y0104352D01*
X0041428Y0104210D01*
X0041375Y0104069D01*
X0041319Y0103929D01*
X0041259Y0103791D01*
X0041196Y0103654D01*
X0041128Y0103519D01*
X0041058Y0103386D01*
X0040984Y0103255D01*
X0040906Y0103126D01*
X0040825Y0102999D01*
X0040741Y0102874D01*
X0040653Y0102751D01*
X0040562Y0102631D01*
X0040468Y0102513D01*
X0040371Y0102398D01*
X0040271Y0102285D01*
X0040168Y0102175D01*
X0040062Y0102068D01*
X0039953Y0101963D01*
X0039842Y0101862D01*
X0039728Y0101763D01*
X0039612Y0101668D01*
X0039492Y0101575D01*
X0039371Y0101486D01*
X0039247Y0101400D01*
X0039121Y0101317D01*
X0038993Y0101238D01*
X0038863Y0101162D01*
X0038731Y0101089D01*
X0038597Y0101021D01*
X0038461Y0100955D01*
X0038323Y0100893D01*
X0038184Y0100835D01*
X0038044Y0100781D01*
X0037902Y0100730D01*
X0037759Y0100683D01*
X0037614Y0100640D01*
X0037469Y0100601D01*
X0037322Y0100565D01*
X0037175Y0100534D01*
X0037027Y0100506D01*
X0036878Y0100482D01*
X0036729Y0100462D01*
X0036579Y0100446D01*
X0036429Y0100434D01*
X0036278Y0100426D01*
X0036127Y0100422D01*
X0035977Y0100422D01*
X0035826Y0100426D01*
X0035675Y0100434D01*
X0035525Y0100446D01*
X0035375Y0100462D01*
X0035226Y0100482D01*
X0035077Y0100506D01*
X0034929Y0100534D01*
X0034782Y0100565D01*
X0034635Y0100601D01*
X0034490Y0100640D01*
X0034345Y0100683D01*
X0034202Y0100730D01*
X0034060Y0100781D01*
X0033920Y0100835D01*
X0033781Y0100893D01*
X0033643Y0100955D01*
X0033507Y0101021D01*
X0033373Y0101089D01*
X0033241Y0101162D01*
X0033111Y0101238D01*
X0032983Y0101317D01*
X0032857Y0101400D01*
X0032733Y0101486D01*
X0032612Y0101575D01*
X0032492Y0101668D01*
X0032376Y0101763D01*
X0032262Y0101862D01*
X0032151Y0101963D01*
X0032042Y0102068D01*
X0031936Y0102175D01*
X0031833Y0102285D01*
X0031733Y0102398D01*
X0031636Y0102513D01*
X0031542Y0102631D01*
X0031451Y0102751D01*
X0031363Y0102874D01*
X0031279Y0102999D01*
X0031198Y0103126D01*
X0031120Y0103255D01*
X0031046Y0103386D01*
X0030976Y0103519D01*
X0030908Y0103654D01*
X0030845Y0103791D01*
X0030785Y0103929D01*
X0030729Y0104069D01*
X0030676Y0104210D01*
X0030627Y0104352D01*
X0030582Y0104496D01*
X0030541Y0104641D01*
X0030503Y0104787D01*
X0030470Y0104934D01*
X0030440Y0105082D01*
X0030414Y0105230D01*
X0030393Y0105380D01*
X0030375Y0105529D01*
X0030361Y0105679D01*
X0030351Y0105830D01*
X0030345Y0105980D01*
X0030343Y0106131D01*
X0113414Y0024241D02*
X0113416Y0024392D01*
X0113422Y0024542D01*
X0113432Y0024693D01*
X0113446Y0024843D01*
X0113464Y0024992D01*
X0113485Y0025142D01*
X0113511Y0025290D01*
X0113541Y0025438D01*
X0113574Y0025585D01*
X0113612Y0025731D01*
X0113653Y0025876D01*
X0113698Y0026020D01*
X0113747Y0026162D01*
X0113800Y0026303D01*
X0113856Y0026443D01*
X0113916Y0026581D01*
X0113979Y0026718D01*
X0114047Y0026853D01*
X0114117Y0026986D01*
X0114191Y0027117D01*
X0114269Y0027246D01*
X0114350Y0027373D01*
X0114434Y0027498D01*
X0114522Y0027621D01*
X0114613Y0027741D01*
X0114707Y0027859D01*
X0114804Y0027974D01*
X0114904Y0028087D01*
X0115007Y0028197D01*
X0115113Y0028304D01*
X0115222Y0028409D01*
X0115333Y0028510D01*
X0115447Y0028609D01*
X0115563Y0028704D01*
X0115683Y0028797D01*
X0115804Y0028886D01*
X0115928Y0028972D01*
X0116054Y0029055D01*
X0116182Y0029134D01*
X0116312Y0029210D01*
X0116444Y0029283D01*
X0116578Y0029351D01*
X0116714Y0029417D01*
X0116852Y0029479D01*
X0116991Y0029537D01*
X0117131Y0029591D01*
X0117273Y0029642D01*
X0117416Y0029689D01*
X0117561Y0029732D01*
X0117706Y0029771D01*
X0117853Y0029807D01*
X0118000Y0029838D01*
X0118148Y0029866D01*
X0118297Y0029890D01*
X0118446Y0029910D01*
X0118596Y0029926D01*
X0118746Y0029938D01*
X0118897Y0029946D01*
X0119048Y0029950D01*
X0119198Y0029950D01*
X0119349Y0029946D01*
X0119500Y0029938D01*
X0119650Y0029926D01*
X0119800Y0029910D01*
X0119949Y0029890D01*
X0120098Y0029866D01*
X0120246Y0029838D01*
X0120393Y0029807D01*
X0120540Y0029771D01*
X0120685Y0029732D01*
X0120830Y0029689D01*
X0120973Y0029642D01*
X0121115Y0029591D01*
X0121255Y0029537D01*
X0121394Y0029479D01*
X0121532Y0029417D01*
X0121668Y0029351D01*
X0121802Y0029283D01*
X0121934Y0029210D01*
X0122064Y0029134D01*
X0122192Y0029055D01*
X0122318Y0028972D01*
X0122442Y0028886D01*
X0122563Y0028797D01*
X0122683Y0028704D01*
X0122799Y0028609D01*
X0122913Y0028510D01*
X0123024Y0028409D01*
X0123133Y0028304D01*
X0123239Y0028197D01*
X0123342Y0028087D01*
X0123442Y0027974D01*
X0123539Y0027859D01*
X0123633Y0027741D01*
X0123724Y0027621D01*
X0123812Y0027498D01*
X0123896Y0027373D01*
X0123977Y0027246D01*
X0124055Y0027117D01*
X0124129Y0026986D01*
X0124199Y0026853D01*
X0124267Y0026718D01*
X0124330Y0026581D01*
X0124390Y0026443D01*
X0124446Y0026303D01*
X0124499Y0026162D01*
X0124548Y0026020D01*
X0124593Y0025876D01*
X0124634Y0025731D01*
X0124672Y0025585D01*
X0124705Y0025438D01*
X0124735Y0025290D01*
X0124761Y0025142D01*
X0124782Y0024992D01*
X0124800Y0024843D01*
X0124814Y0024693D01*
X0124824Y0024542D01*
X0124830Y0024392D01*
X0124832Y0024241D01*
X0124830Y0024090D01*
X0124824Y0023940D01*
X0124814Y0023789D01*
X0124800Y0023639D01*
X0124782Y0023490D01*
X0124761Y0023340D01*
X0124735Y0023192D01*
X0124705Y0023044D01*
X0124672Y0022897D01*
X0124634Y0022751D01*
X0124593Y0022606D01*
X0124548Y0022462D01*
X0124499Y0022320D01*
X0124446Y0022179D01*
X0124390Y0022039D01*
X0124330Y0021901D01*
X0124267Y0021764D01*
X0124199Y0021629D01*
X0124129Y0021496D01*
X0124055Y0021365D01*
X0123977Y0021236D01*
X0123896Y0021109D01*
X0123812Y0020984D01*
X0123724Y0020861D01*
X0123633Y0020741D01*
X0123539Y0020623D01*
X0123442Y0020508D01*
X0123342Y0020395D01*
X0123239Y0020285D01*
X0123133Y0020178D01*
X0123024Y0020073D01*
X0122913Y0019972D01*
X0122799Y0019873D01*
X0122683Y0019778D01*
X0122563Y0019685D01*
X0122442Y0019596D01*
X0122318Y0019510D01*
X0122192Y0019427D01*
X0122064Y0019348D01*
X0121934Y0019272D01*
X0121802Y0019199D01*
X0121668Y0019131D01*
X0121532Y0019065D01*
X0121394Y0019003D01*
X0121255Y0018945D01*
X0121115Y0018891D01*
X0120973Y0018840D01*
X0120830Y0018793D01*
X0120685Y0018750D01*
X0120540Y0018711D01*
X0120393Y0018675D01*
X0120246Y0018644D01*
X0120098Y0018616D01*
X0119949Y0018592D01*
X0119800Y0018572D01*
X0119650Y0018556D01*
X0119500Y0018544D01*
X0119349Y0018536D01*
X0119198Y0018532D01*
X0119048Y0018532D01*
X0118897Y0018536D01*
X0118746Y0018544D01*
X0118596Y0018556D01*
X0118446Y0018572D01*
X0118297Y0018592D01*
X0118148Y0018616D01*
X0118000Y0018644D01*
X0117853Y0018675D01*
X0117706Y0018711D01*
X0117561Y0018750D01*
X0117416Y0018793D01*
X0117273Y0018840D01*
X0117131Y0018891D01*
X0116991Y0018945D01*
X0116852Y0019003D01*
X0116714Y0019065D01*
X0116578Y0019131D01*
X0116444Y0019199D01*
X0116312Y0019272D01*
X0116182Y0019348D01*
X0116054Y0019427D01*
X0115928Y0019510D01*
X0115804Y0019596D01*
X0115683Y0019685D01*
X0115563Y0019778D01*
X0115447Y0019873D01*
X0115333Y0019972D01*
X0115222Y0020073D01*
X0115113Y0020178D01*
X0115007Y0020285D01*
X0114904Y0020395D01*
X0114804Y0020508D01*
X0114707Y0020623D01*
X0114613Y0020741D01*
X0114522Y0020861D01*
X0114434Y0020984D01*
X0114350Y0021109D01*
X0114269Y0021236D01*
X0114191Y0021365D01*
X0114117Y0021496D01*
X0114047Y0021629D01*
X0113979Y0021764D01*
X0113916Y0021901D01*
X0113856Y0022039D01*
X0113800Y0022179D01*
X0113747Y0022320D01*
X0113698Y0022462D01*
X0113653Y0022606D01*
X0113612Y0022751D01*
X0113574Y0022897D01*
X0113541Y0023044D01*
X0113511Y0023192D01*
X0113485Y0023340D01*
X0113464Y0023490D01*
X0113446Y0023639D01*
X0113432Y0023789D01*
X0113422Y0023940D01*
X0113416Y0024090D01*
X0113414Y0024241D01*
X0028847Y0204556D02*
X0028849Y0204689D01*
X0028855Y0204822D01*
X0028865Y0204955D01*
X0028879Y0205087D01*
X0028897Y0205219D01*
X0028918Y0205350D01*
X0028944Y0205481D01*
X0028974Y0205611D01*
X0029007Y0205740D01*
X0029045Y0205867D01*
X0029086Y0205994D01*
X0029131Y0206119D01*
X0029179Y0206243D01*
X0029232Y0206366D01*
X0029288Y0206486D01*
X0029347Y0206605D01*
X0029410Y0206723D01*
X0029477Y0206838D01*
X0029547Y0206951D01*
X0029620Y0207062D01*
X0029697Y0207171D01*
X0029777Y0207278D01*
X0029860Y0207382D01*
X0029946Y0207483D01*
X0030035Y0207582D01*
X0030127Y0207678D01*
X0030221Y0207772D01*
X0030319Y0207862D01*
X0030419Y0207950D01*
X0030522Y0208034D01*
X0030627Y0208116D01*
X0030735Y0208194D01*
X0030845Y0208269D01*
X0030957Y0208341D01*
X0031072Y0208409D01*
X0031188Y0208474D01*
X0031306Y0208535D01*
X0031426Y0208593D01*
X0031547Y0208647D01*
X0031671Y0208697D01*
X0031795Y0208744D01*
X0031921Y0208787D01*
X0032048Y0208826D01*
X0032177Y0208862D01*
X0032306Y0208893D01*
X0032436Y0208921D01*
X0032567Y0208945D01*
X0032699Y0208965D01*
X0032831Y0208981D01*
X0032964Y0208993D01*
X0033096Y0209001D01*
X0033229Y0209005D01*
X0033363Y0209005D01*
X0033496Y0209001D01*
X0033628Y0208993D01*
X0033761Y0208981D01*
X0033893Y0208965D01*
X0034025Y0208945D01*
X0034156Y0208921D01*
X0034286Y0208893D01*
X0034415Y0208862D01*
X0034544Y0208826D01*
X0034671Y0208787D01*
X0034797Y0208744D01*
X0034921Y0208697D01*
X0035045Y0208647D01*
X0035166Y0208593D01*
X0035286Y0208535D01*
X0035404Y0208474D01*
X0035521Y0208409D01*
X0035635Y0208341D01*
X0035747Y0208269D01*
X0035857Y0208194D01*
X0035965Y0208116D01*
X0036070Y0208034D01*
X0036173Y0207950D01*
X0036273Y0207862D01*
X0036371Y0207772D01*
X0036465Y0207678D01*
X0036557Y0207582D01*
X0036646Y0207483D01*
X0036732Y0207382D01*
X0036815Y0207278D01*
X0036895Y0207171D01*
X0036972Y0207062D01*
X0037045Y0206951D01*
X0037115Y0206838D01*
X0037182Y0206723D01*
X0037245Y0206605D01*
X0037304Y0206486D01*
X0037360Y0206366D01*
X0037413Y0206243D01*
X0037461Y0206119D01*
X0037506Y0205994D01*
X0037547Y0205867D01*
X0037585Y0205740D01*
X0037618Y0205611D01*
X0037648Y0205481D01*
X0037674Y0205350D01*
X0037695Y0205219D01*
X0037713Y0205087D01*
X0037727Y0204955D01*
X0037737Y0204822D01*
X0037743Y0204689D01*
X0037745Y0204556D01*
X0037743Y0204423D01*
X0037737Y0204290D01*
X0037727Y0204157D01*
X0037713Y0204025D01*
X0037695Y0203893D01*
X0037674Y0203762D01*
X0037648Y0203631D01*
X0037618Y0203501D01*
X0037585Y0203372D01*
X0037547Y0203245D01*
X0037506Y0203118D01*
X0037461Y0202993D01*
X0037413Y0202869D01*
X0037360Y0202746D01*
X0037304Y0202626D01*
X0037245Y0202507D01*
X0037182Y0202389D01*
X0037115Y0202274D01*
X0037045Y0202161D01*
X0036972Y0202050D01*
X0036895Y0201941D01*
X0036815Y0201834D01*
X0036732Y0201730D01*
X0036646Y0201629D01*
X0036557Y0201530D01*
X0036465Y0201434D01*
X0036371Y0201340D01*
X0036273Y0201250D01*
X0036173Y0201162D01*
X0036070Y0201078D01*
X0035965Y0200996D01*
X0035857Y0200918D01*
X0035747Y0200843D01*
X0035635Y0200771D01*
X0035520Y0200703D01*
X0035404Y0200638D01*
X0035286Y0200577D01*
X0035166Y0200519D01*
X0035045Y0200465D01*
X0034921Y0200415D01*
X0034797Y0200368D01*
X0034671Y0200325D01*
X0034544Y0200286D01*
X0034415Y0200250D01*
X0034286Y0200219D01*
X0034156Y0200191D01*
X0034025Y0200167D01*
X0033893Y0200147D01*
X0033761Y0200131D01*
X0033628Y0200119D01*
X0033496Y0200111D01*
X0033363Y0200107D01*
X0033229Y0200107D01*
X0033096Y0200111D01*
X0032964Y0200119D01*
X0032831Y0200131D01*
X0032699Y0200147D01*
X0032567Y0200167D01*
X0032436Y0200191D01*
X0032306Y0200219D01*
X0032177Y0200250D01*
X0032048Y0200286D01*
X0031921Y0200325D01*
X0031795Y0200368D01*
X0031671Y0200415D01*
X0031547Y0200465D01*
X0031426Y0200519D01*
X0031306Y0200577D01*
X0031188Y0200638D01*
X0031071Y0200703D01*
X0030957Y0200771D01*
X0030845Y0200843D01*
X0030735Y0200918D01*
X0030627Y0200996D01*
X0030522Y0201078D01*
X0030419Y0201162D01*
X0030319Y0201250D01*
X0030221Y0201340D01*
X0030127Y0201434D01*
X0030035Y0201530D01*
X0029946Y0201629D01*
X0029860Y0201730D01*
X0029777Y0201834D01*
X0029697Y0201941D01*
X0029620Y0202050D01*
X0029547Y0202161D01*
X0029477Y0202274D01*
X0029410Y0202389D01*
X0029347Y0202507D01*
X0029288Y0202626D01*
X0029232Y0202746D01*
X0029179Y0202869D01*
X0029131Y0202993D01*
X0029086Y0203118D01*
X0029045Y0203245D01*
X0029007Y0203372D01*
X0028974Y0203501D01*
X0028944Y0203631D01*
X0028918Y0203762D01*
X0028897Y0203893D01*
X0028879Y0204025D01*
X0028865Y0204157D01*
X0028855Y0204290D01*
X0028849Y0204423D01*
X0028847Y0204556D01*
X0030343Y0301800D02*
X0030345Y0301951D01*
X0030351Y0302101D01*
X0030361Y0302252D01*
X0030375Y0302402D01*
X0030393Y0302551D01*
X0030414Y0302701D01*
X0030440Y0302849D01*
X0030470Y0302997D01*
X0030503Y0303144D01*
X0030541Y0303290D01*
X0030582Y0303435D01*
X0030627Y0303579D01*
X0030676Y0303721D01*
X0030729Y0303862D01*
X0030785Y0304002D01*
X0030845Y0304140D01*
X0030908Y0304277D01*
X0030976Y0304412D01*
X0031046Y0304545D01*
X0031120Y0304676D01*
X0031198Y0304805D01*
X0031279Y0304932D01*
X0031363Y0305057D01*
X0031451Y0305180D01*
X0031542Y0305300D01*
X0031636Y0305418D01*
X0031733Y0305533D01*
X0031833Y0305646D01*
X0031936Y0305756D01*
X0032042Y0305863D01*
X0032151Y0305968D01*
X0032262Y0306069D01*
X0032376Y0306168D01*
X0032492Y0306263D01*
X0032612Y0306356D01*
X0032733Y0306445D01*
X0032857Y0306531D01*
X0032983Y0306614D01*
X0033111Y0306693D01*
X0033241Y0306769D01*
X0033373Y0306842D01*
X0033507Y0306910D01*
X0033643Y0306976D01*
X0033781Y0307038D01*
X0033920Y0307096D01*
X0034060Y0307150D01*
X0034202Y0307201D01*
X0034345Y0307248D01*
X0034490Y0307291D01*
X0034635Y0307330D01*
X0034782Y0307366D01*
X0034929Y0307397D01*
X0035077Y0307425D01*
X0035226Y0307449D01*
X0035375Y0307469D01*
X0035525Y0307485D01*
X0035675Y0307497D01*
X0035826Y0307505D01*
X0035977Y0307509D01*
X0036127Y0307509D01*
X0036278Y0307505D01*
X0036429Y0307497D01*
X0036579Y0307485D01*
X0036729Y0307469D01*
X0036878Y0307449D01*
X0037027Y0307425D01*
X0037175Y0307397D01*
X0037322Y0307366D01*
X0037469Y0307330D01*
X0037614Y0307291D01*
X0037759Y0307248D01*
X0037902Y0307201D01*
X0038044Y0307150D01*
X0038184Y0307096D01*
X0038323Y0307038D01*
X0038461Y0306976D01*
X0038597Y0306910D01*
X0038731Y0306842D01*
X0038863Y0306769D01*
X0038993Y0306693D01*
X0039121Y0306614D01*
X0039247Y0306531D01*
X0039371Y0306445D01*
X0039492Y0306356D01*
X0039612Y0306263D01*
X0039728Y0306168D01*
X0039842Y0306069D01*
X0039953Y0305968D01*
X0040062Y0305863D01*
X0040168Y0305756D01*
X0040271Y0305646D01*
X0040371Y0305533D01*
X0040468Y0305418D01*
X0040562Y0305300D01*
X0040653Y0305180D01*
X0040741Y0305057D01*
X0040825Y0304932D01*
X0040906Y0304805D01*
X0040984Y0304676D01*
X0041058Y0304545D01*
X0041128Y0304412D01*
X0041196Y0304277D01*
X0041259Y0304140D01*
X0041319Y0304002D01*
X0041375Y0303862D01*
X0041428Y0303721D01*
X0041477Y0303579D01*
X0041522Y0303435D01*
X0041563Y0303290D01*
X0041601Y0303144D01*
X0041634Y0302997D01*
X0041664Y0302849D01*
X0041690Y0302701D01*
X0041711Y0302551D01*
X0041729Y0302402D01*
X0041743Y0302252D01*
X0041753Y0302101D01*
X0041759Y0301951D01*
X0041761Y0301800D01*
X0041759Y0301649D01*
X0041753Y0301499D01*
X0041743Y0301348D01*
X0041729Y0301198D01*
X0041711Y0301049D01*
X0041690Y0300899D01*
X0041664Y0300751D01*
X0041634Y0300603D01*
X0041601Y0300456D01*
X0041563Y0300310D01*
X0041522Y0300165D01*
X0041477Y0300021D01*
X0041428Y0299879D01*
X0041375Y0299738D01*
X0041319Y0299598D01*
X0041259Y0299460D01*
X0041196Y0299323D01*
X0041128Y0299188D01*
X0041058Y0299055D01*
X0040984Y0298924D01*
X0040906Y0298795D01*
X0040825Y0298668D01*
X0040741Y0298543D01*
X0040653Y0298420D01*
X0040562Y0298300D01*
X0040468Y0298182D01*
X0040371Y0298067D01*
X0040271Y0297954D01*
X0040168Y0297844D01*
X0040062Y0297737D01*
X0039953Y0297632D01*
X0039842Y0297531D01*
X0039728Y0297432D01*
X0039612Y0297337D01*
X0039492Y0297244D01*
X0039371Y0297155D01*
X0039247Y0297069D01*
X0039121Y0296986D01*
X0038993Y0296907D01*
X0038863Y0296831D01*
X0038731Y0296758D01*
X0038597Y0296690D01*
X0038461Y0296624D01*
X0038323Y0296562D01*
X0038184Y0296504D01*
X0038044Y0296450D01*
X0037902Y0296399D01*
X0037759Y0296352D01*
X0037614Y0296309D01*
X0037469Y0296270D01*
X0037322Y0296234D01*
X0037175Y0296203D01*
X0037027Y0296175D01*
X0036878Y0296151D01*
X0036729Y0296131D01*
X0036579Y0296115D01*
X0036429Y0296103D01*
X0036278Y0296095D01*
X0036127Y0296091D01*
X0035977Y0296091D01*
X0035826Y0296095D01*
X0035675Y0296103D01*
X0035525Y0296115D01*
X0035375Y0296131D01*
X0035226Y0296151D01*
X0035077Y0296175D01*
X0034929Y0296203D01*
X0034782Y0296234D01*
X0034635Y0296270D01*
X0034490Y0296309D01*
X0034345Y0296352D01*
X0034202Y0296399D01*
X0034060Y0296450D01*
X0033920Y0296504D01*
X0033781Y0296562D01*
X0033643Y0296624D01*
X0033507Y0296690D01*
X0033373Y0296758D01*
X0033241Y0296831D01*
X0033111Y0296907D01*
X0032983Y0296986D01*
X0032857Y0297069D01*
X0032733Y0297155D01*
X0032612Y0297244D01*
X0032492Y0297337D01*
X0032376Y0297432D01*
X0032262Y0297531D01*
X0032151Y0297632D01*
X0032042Y0297737D01*
X0031936Y0297844D01*
X0031833Y0297954D01*
X0031733Y0298067D01*
X0031636Y0298182D01*
X0031542Y0298300D01*
X0031451Y0298420D01*
X0031363Y0298543D01*
X0031279Y0298668D01*
X0031198Y0298795D01*
X0031120Y0298924D01*
X0031046Y0299055D01*
X0030976Y0299188D01*
X0030908Y0299323D01*
X0030845Y0299460D01*
X0030785Y0299598D01*
X0030729Y0299738D01*
X0030676Y0299879D01*
X0030627Y0300021D01*
X0030582Y0300165D01*
X0030541Y0300310D01*
X0030503Y0300456D01*
X0030470Y0300603D01*
X0030440Y0300751D01*
X0030414Y0300899D01*
X0030393Y0301049D01*
X0030375Y0301198D01*
X0030361Y0301348D01*
X0030351Y0301499D01*
X0030345Y0301649D01*
X0030343Y0301800D01*
X0113414Y0384871D02*
X0113416Y0385022D01*
X0113422Y0385172D01*
X0113432Y0385323D01*
X0113446Y0385473D01*
X0113464Y0385622D01*
X0113485Y0385772D01*
X0113511Y0385920D01*
X0113541Y0386068D01*
X0113574Y0386215D01*
X0113612Y0386361D01*
X0113653Y0386506D01*
X0113698Y0386650D01*
X0113747Y0386792D01*
X0113800Y0386933D01*
X0113856Y0387073D01*
X0113916Y0387211D01*
X0113979Y0387348D01*
X0114047Y0387483D01*
X0114117Y0387616D01*
X0114191Y0387747D01*
X0114269Y0387876D01*
X0114350Y0388003D01*
X0114434Y0388128D01*
X0114522Y0388251D01*
X0114613Y0388371D01*
X0114707Y0388489D01*
X0114804Y0388604D01*
X0114904Y0388717D01*
X0115007Y0388827D01*
X0115113Y0388934D01*
X0115222Y0389039D01*
X0115333Y0389140D01*
X0115447Y0389239D01*
X0115563Y0389334D01*
X0115683Y0389427D01*
X0115804Y0389516D01*
X0115928Y0389602D01*
X0116054Y0389685D01*
X0116182Y0389764D01*
X0116312Y0389840D01*
X0116444Y0389913D01*
X0116578Y0389981D01*
X0116714Y0390047D01*
X0116852Y0390109D01*
X0116991Y0390167D01*
X0117131Y0390221D01*
X0117273Y0390272D01*
X0117416Y0390319D01*
X0117561Y0390362D01*
X0117706Y0390401D01*
X0117853Y0390437D01*
X0118000Y0390468D01*
X0118148Y0390496D01*
X0118297Y0390520D01*
X0118446Y0390540D01*
X0118596Y0390556D01*
X0118746Y0390568D01*
X0118897Y0390576D01*
X0119048Y0390580D01*
X0119198Y0390580D01*
X0119349Y0390576D01*
X0119500Y0390568D01*
X0119650Y0390556D01*
X0119800Y0390540D01*
X0119949Y0390520D01*
X0120098Y0390496D01*
X0120246Y0390468D01*
X0120393Y0390437D01*
X0120540Y0390401D01*
X0120685Y0390362D01*
X0120830Y0390319D01*
X0120973Y0390272D01*
X0121115Y0390221D01*
X0121255Y0390167D01*
X0121394Y0390109D01*
X0121532Y0390047D01*
X0121668Y0389981D01*
X0121802Y0389913D01*
X0121934Y0389840D01*
X0122064Y0389764D01*
X0122192Y0389685D01*
X0122318Y0389602D01*
X0122442Y0389516D01*
X0122563Y0389427D01*
X0122683Y0389334D01*
X0122799Y0389239D01*
X0122913Y0389140D01*
X0123024Y0389039D01*
X0123133Y0388934D01*
X0123239Y0388827D01*
X0123342Y0388717D01*
X0123442Y0388604D01*
X0123539Y0388489D01*
X0123633Y0388371D01*
X0123724Y0388251D01*
X0123812Y0388128D01*
X0123896Y0388003D01*
X0123977Y0387876D01*
X0124055Y0387747D01*
X0124129Y0387616D01*
X0124199Y0387483D01*
X0124267Y0387348D01*
X0124330Y0387211D01*
X0124390Y0387073D01*
X0124446Y0386933D01*
X0124499Y0386792D01*
X0124548Y0386650D01*
X0124593Y0386506D01*
X0124634Y0386361D01*
X0124672Y0386215D01*
X0124705Y0386068D01*
X0124735Y0385920D01*
X0124761Y0385772D01*
X0124782Y0385622D01*
X0124800Y0385473D01*
X0124814Y0385323D01*
X0124824Y0385172D01*
X0124830Y0385022D01*
X0124832Y0384871D01*
X0124830Y0384720D01*
X0124824Y0384570D01*
X0124814Y0384419D01*
X0124800Y0384269D01*
X0124782Y0384120D01*
X0124761Y0383970D01*
X0124735Y0383822D01*
X0124705Y0383674D01*
X0124672Y0383527D01*
X0124634Y0383381D01*
X0124593Y0383236D01*
X0124548Y0383092D01*
X0124499Y0382950D01*
X0124446Y0382809D01*
X0124390Y0382669D01*
X0124330Y0382531D01*
X0124267Y0382394D01*
X0124199Y0382259D01*
X0124129Y0382126D01*
X0124055Y0381995D01*
X0123977Y0381866D01*
X0123896Y0381739D01*
X0123812Y0381614D01*
X0123724Y0381491D01*
X0123633Y0381371D01*
X0123539Y0381253D01*
X0123442Y0381138D01*
X0123342Y0381025D01*
X0123239Y0380915D01*
X0123133Y0380808D01*
X0123024Y0380703D01*
X0122913Y0380602D01*
X0122799Y0380503D01*
X0122683Y0380408D01*
X0122563Y0380315D01*
X0122442Y0380226D01*
X0122318Y0380140D01*
X0122192Y0380057D01*
X0122064Y0379978D01*
X0121934Y0379902D01*
X0121802Y0379829D01*
X0121668Y0379761D01*
X0121532Y0379695D01*
X0121394Y0379633D01*
X0121255Y0379575D01*
X0121115Y0379521D01*
X0120973Y0379470D01*
X0120830Y0379423D01*
X0120685Y0379380D01*
X0120540Y0379341D01*
X0120393Y0379305D01*
X0120246Y0379274D01*
X0120098Y0379246D01*
X0119949Y0379222D01*
X0119800Y0379202D01*
X0119650Y0379186D01*
X0119500Y0379174D01*
X0119349Y0379166D01*
X0119198Y0379162D01*
X0119048Y0379162D01*
X0118897Y0379166D01*
X0118746Y0379174D01*
X0118596Y0379186D01*
X0118446Y0379202D01*
X0118297Y0379222D01*
X0118148Y0379246D01*
X0118000Y0379274D01*
X0117853Y0379305D01*
X0117706Y0379341D01*
X0117561Y0379380D01*
X0117416Y0379423D01*
X0117273Y0379470D01*
X0117131Y0379521D01*
X0116991Y0379575D01*
X0116852Y0379633D01*
X0116714Y0379695D01*
X0116578Y0379761D01*
X0116444Y0379829D01*
X0116312Y0379902D01*
X0116182Y0379978D01*
X0116054Y0380057D01*
X0115928Y0380140D01*
X0115804Y0380226D01*
X0115683Y0380315D01*
X0115563Y0380408D01*
X0115447Y0380503D01*
X0115333Y0380602D01*
X0115222Y0380703D01*
X0115113Y0380808D01*
X0115007Y0380915D01*
X0114904Y0381025D01*
X0114804Y0381138D01*
X0114707Y0381253D01*
X0114613Y0381371D01*
X0114522Y0381491D01*
X0114434Y0381614D01*
X0114350Y0381739D01*
X0114269Y0381866D01*
X0114191Y0381995D01*
X0114117Y0382126D01*
X0114047Y0382259D01*
X0113979Y0382394D01*
X0113916Y0382531D01*
X0113856Y0382669D01*
X0113800Y0382809D01*
X0113747Y0382950D01*
X0113698Y0383092D01*
X0113653Y0383236D01*
X0113612Y0383381D01*
X0113574Y0383527D01*
X0113541Y0383674D01*
X0113511Y0383822D01*
X0113485Y0383970D01*
X0113464Y0384120D01*
X0113446Y0384269D01*
X0113432Y0384419D01*
X0113422Y0384570D01*
X0113416Y0384720D01*
X0113414Y0384871D01*
X0307902Y0384871D02*
X0307904Y0385022D01*
X0307910Y0385172D01*
X0307920Y0385323D01*
X0307934Y0385473D01*
X0307952Y0385622D01*
X0307973Y0385772D01*
X0307999Y0385920D01*
X0308029Y0386068D01*
X0308062Y0386215D01*
X0308100Y0386361D01*
X0308141Y0386506D01*
X0308186Y0386650D01*
X0308235Y0386792D01*
X0308288Y0386933D01*
X0308344Y0387073D01*
X0308404Y0387211D01*
X0308467Y0387348D01*
X0308535Y0387483D01*
X0308605Y0387616D01*
X0308679Y0387747D01*
X0308757Y0387876D01*
X0308838Y0388003D01*
X0308922Y0388128D01*
X0309010Y0388251D01*
X0309101Y0388371D01*
X0309195Y0388489D01*
X0309292Y0388604D01*
X0309392Y0388717D01*
X0309495Y0388827D01*
X0309601Y0388934D01*
X0309710Y0389039D01*
X0309821Y0389140D01*
X0309935Y0389239D01*
X0310051Y0389334D01*
X0310171Y0389427D01*
X0310292Y0389516D01*
X0310416Y0389602D01*
X0310542Y0389685D01*
X0310670Y0389764D01*
X0310800Y0389840D01*
X0310932Y0389913D01*
X0311066Y0389981D01*
X0311202Y0390047D01*
X0311340Y0390109D01*
X0311479Y0390167D01*
X0311619Y0390221D01*
X0311761Y0390272D01*
X0311904Y0390319D01*
X0312049Y0390362D01*
X0312194Y0390401D01*
X0312341Y0390437D01*
X0312488Y0390468D01*
X0312636Y0390496D01*
X0312785Y0390520D01*
X0312934Y0390540D01*
X0313084Y0390556D01*
X0313234Y0390568D01*
X0313385Y0390576D01*
X0313536Y0390580D01*
X0313686Y0390580D01*
X0313837Y0390576D01*
X0313988Y0390568D01*
X0314138Y0390556D01*
X0314288Y0390540D01*
X0314437Y0390520D01*
X0314586Y0390496D01*
X0314734Y0390468D01*
X0314881Y0390437D01*
X0315028Y0390401D01*
X0315173Y0390362D01*
X0315318Y0390319D01*
X0315461Y0390272D01*
X0315603Y0390221D01*
X0315743Y0390167D01*
X0315882Y0390109D01*
X0316020Y0390047D01*
X0316156Y0389981D01*
X0316290Y0389913D01*
X0316422Y0389840D01*
X0316552Y0389764D01*
X0316680Y0389685D01*
X0316806Y0389602D01*
X0316930Y0389516D01*
X0317051Y0389427D01*
X0317171Y0389334D01*
X0317287Y0389239D01*
X0317401Y0389140D01*
X0317512Y0389039D01*
X0317621Y0388934D01*
X0317727Y0388827D01*
X0317830Y0388717D01*
X0317930Y0388604D01*
X0318027Y0388489D01*
X0318121Y0388371D01*
X0318212Y0388251D01*
X0318300Y0388128D01*
X0318384Y0388003D01*
X0318465Y0387876D01*
X0318543Y0387747D01*
X0318617Y0387616D01*
X0318687Y0387483D01*
X0318755Y0387348D01*
X0318818Y0387211D01*
X0318878Y0387073D01*
X0318934Y0386933D01*
X0318987Y0386792D01*
X0319036Y0386650D01*
X0319081Y0386506D01*
X0319122Y0386361D01*
X0319160Y0386215D01*
X0319193Y0386068D01*
X0319223Y0385920D01*
X0319249Y0385772D01*
X0319270Y0385622D01*
X0319288Y0385473D01*
X0319302Y0385323D01*
X0319312Y0385172D01*
X0319318Y0385022D01*
X0319320Y0384871D01*
X0319318Y0384720D01*
X0319312Y0384570D01*
X0319302Y0384419D01*
X0319288Y0384269D01*
X0319270Y0384120D01*
X0319249Y0383970D01*
X0319223Y0383822D01*
X0319193Y0383674D01*
X0319160Y0383527D01*
X0319122Y0383381D01*
X0319081Y0383236D01*
X0319036Y0383092D01*
X0318987Y0382950D01*
X0318934Y0382809D01*
X0318878Y0382669D01*
X0318818Y0382531D01*
X0318755Y0382394D01*
X0318687Y0382259D01*
X0318617Y0382126D01*
X0318543Y0381995D01*
X0318465Y0381866D01*
X0318384Y0381739D01*
X0318300Y0381614D01*
X0318212Y0381491D01*
X0318121Y0381371D01*
X0318027Y0381253D01*
X0317930Y0381138D01*
X0317830Y0381025D01*
X0317727Y0380915D01*
X0317621Y0380808D01*
X0317512Y0380703D01*
X0317401Y0380602D01*
X0317287Y0380503D01*
X0317171Y0380408D01*
X0317051Y0380315D01*
X0316930Y0380226D01*
X0316806Y0380140D01*
X0316680Y0380057D01*
X0316552Y0379978D01*
X0316422Y0379902D01*
X0316290Y0379829D01*
X0316156Y0379761D01*
X0316020Y0379695D01*
X0315882Y0379633D01*
X0315743Y0379575D01*
X0315603Y0379521D01*
X0315461Y0379470D01*
X0315318Y0379423D01*
X0315173Y0379380D01*
X0315028Y0379341D01*
X0314881Y0379305D01*
X0314734Y0379274D01*
X0314586Y0379246D01*
X0314437Y0379222D01*
X0314288Y0379202D01*
X0314138Y0379186D01*
X0313988Y0379174D01*
X0313837Y0379166D01*
X0313686Y0379162D01*
X0313536Y0379162D01*
X0313385Y0379166D01*
X0313234Y0379174D01*
X0313084Y0379186D01*
X0312934Y0379202D01*
X0312785Y0379222D01*
X0312636Y0379246D01*
X0312488Y0379274D01*
X0312341Y0379305D01*
X0312194Y0379341D01*
X0312049Y0379380D01*
X0311904Y0379423D01*
X0311761Y0379470D01*
X0311619Y0379521D01*
X0311479Y0379575D01*
X0311340Y0379633D01*
X0311202Y0379695D01*
X0311066Y0379761D01*
X0310932Y0379829D01*
X0310800Y0379902D01*
X0310670Y0379978D01*
X0310542Y0380057D01*
X0310416Y0380140D01*
X0310292Y0380226D01*
X0310171Y0380315D01*
X0310051Y0380408D01*
X0309935Y0380503D01*
X0309821Y0380602D01*
X0309710Y0380703D01*
X0309601Y0380808D01*
X0309495Y0380915D01*
X0309392Y0381025D01*
X0309292Y0381138D01*
X0309195Y0381253D01*
X0309101Y0381371D01*
X0309010Y0381491D01*
X0308922Y0381614D01*
X0308838Y0381739D01*
X0308757Y0381866D01*
X0308679Y0381995D01*
X0308605Y0382126D01*
X0308535Y0382259D01*
X0308467Y0382394D01*
X0308404Y0382531D01*
X0308344Y0382669D01*
X0308288Y0382809D01*
X0308235Y0382950D01*
X0308186Y0383092D01*
X0308141Y0383236D01*
X0308100Y0383381D01*
X0308062Y0383527D01*
X0308029Y0383674D01*
X0307999Y0383822D01*
X0307973Y0383970D01*
X0307952Y0384120D01*
X0307934Y0384269D01*
X0307920Y0384419D01*
X0307910Y0384570D01*
X0307904Y0384720D01*
X0307902Y0384871D01*
X0390973Y0301800D02*
X0390975Y0301951D01*
X0390981Y0302101D01*
X0390991Y0302252D01*
X0391005Y0302402D01*
X0391023Y0302551D01*
X0391044Y0302701D01*
X0391070Y0302849D01*
X0391100Y0302997D01*
X0391133Y0303144D01*
X0391171Y0303290D01*
X0391212Y0303435D01*
X0391257Y0303579D01*
X0391306Y0303721D01*
X0391359Y0303862D01*
X0391415Y0304002D01*
X0391475Y0304140D01*
X0391538Y0304277D01*
X0391606Y0304412D01*
X0391676Y0304545D01*
X0391750Y0304676D01*
X0391828Y0304805D01*
X0391909Y0304932D01*
X0391993Y0305057D01*
X0392081Y0305180D01*
X0392172Y0305300D01*
X0392266Y0305418D01*
X0392363Y0305533D01*
X0392463Y0305646D01*
X0392566Y0305756D01*
X0392672Y0305863D01*
X0392781Y0305968D01*
X0392892Y0306069D01*
X0393006Y0306168D01*
X0393122Y0306263D01*
X0393242Y0306356D01*
X0393363Y0306445D01*
X0393487Y0306531D01*
X0393613Y0306614D01*
X0393741Y0306693D01*
X0393871Y0306769D01*
X0394003Y0306842D01*
X0394137Y0306910D01*
X0394273Y0306976D01*
X0394411Y0307038D01*
X0394550Y0307096D01*
X0394690Y0307150D01*
X0394832Y0307201D01*
X0394975Y0307248D01*
X0395120Y0307291D01*
X0395265Y0307330D01*
X0395412Y0307366D01*
X0395559Y0307397D01*
X0395707Y0307425D01*
X0395856Y0307449D01*
X0396005Y0307469D01*
X0396155Y0307485D01*
X0396305Y0307497D01*
X0396456Y0307505D01*
X0396607Y0307509D01*
X0396757Y0307509D01*
X0396908Y0307505D01*
X0397059Y0307497D01*
X0397209Y0307485D01*
X0397359Y0307469D01*
X0397508Y0307449D01*
X0397657Y0307425D01*
X0397805Y0307397D01*
X0397952Y0307366D01*
X0398099Y0307330D01*
X0398244Y0307291D01*
X0398389Y0307248D01*
X0398532Y0307201D01*
X0398674Y0307150D01*
X0398814Y0307096D01*
X0398953Y0307038D01*
X0399091Y0306976D01*
X0399227Y0306910D01*
X0399361Y0306842D01*
X0399493Y0306769D01*
X0399623Y0306693D01*
X0399751Y0306614D01*
X0399877Y0306531D01*
X0400001Y0306445D01*
X0400122Y0306356D01*
X0400242Y0306263D01*
X0400358Y0306168D01*
X0400472Y0306069D01*
X0400583Y0305968D01*
X0400692Y0305863D01*
X0400798Y0305756D01*
X0400901Y0305646D01*
X0401001Y0305533D01*
X0401098Y0305418D01*
X0401192Y0305300D01*
X0401283Y0305180D01*
X0401371Y0305057D01*
X0401455Y0304932D01*
X0401536Y0304805D01*
X0401614Y0304676D01*
X0401688Y0304545D01*
X0401758Y0304412D01*
X0401826Y0304277D01*
X0401889Y0304140D01*
X0401949Y0304002D01*
X0402005Y0303862D01*
X0402058Y0303721D01*
X0402107Y0303579D01*
X0402152Y0303435D01*
X0402193Y0303290D01*
X0402231Y0303144D01*
X0402264Y0302997D01*
X0402294Y0302849D01*
X0402320Y0302701D01*
X0402341Y0302551D01*
X0402359Y0302402D01*
X0402373Y0302252D01*
X0402383Y0302101D01*
X0402389Y0301951D01*
X0402391Y0301800D01*
X0402389Y0301649D01*
X0402383Y0301499D01*
X0402373Y0301348D01*
X0402359Y0301198D01*
X0402341Y0301049D01*
X0402320Y0300899D01*
X0402294Y0300751D01*
X0402264Y0300603D01*
X0402231Y0300456D01*
X0402193Y0300310D01*
X0402152Y0300165D01*
X0402107Y0300021D01*
X0402058Y0299879D01*
X0402005Y0299738D01*
X0401949Y0299598D01*
X0401889Y0299460D01*
X0401826Y0299323D01*
X0401758Y0299188D01*
X0401688Y0299055D01*
X0401614Y0298924D01*
X0401536Y0298795D01*
X0401455Y0298668D01*
X0401371Y0298543D01*
X0401283Y0298420D01*
X0401192Y0298300D01*
X0401098Y0298182D01*
X0401001Y0298067D01*
X0400901Y0297954D01*
X0400798Y0297844D01*
X0400692Y0297737D01*
X0400583Y0297632D01*
X0400472Y0297531D01*
X0400358Y0297432D01*
X0400242Y0297337D01*
X0400122Y0297244D01*
X0400001Y0297155D01*
X0399877Y0297069D01*
X0399751Y0296986D01*
X0399623Y0296907D01*
X0399493Y0296831D01*
X0399361Y0296758D01*
X0399227Y0296690D01*
X0399091Y0296624D01*
X0398953Y0296562D01*
X0398814Y0296504D01*
X0398674Y0296450D01*
X0398532Y0296399D01*
X0398389Y0296352D01*
X0398244Y0296309D01*
X0398099Y0296270D01*
X0397952Y0296234D01*
X0397805Y0296203D01*
X0397657Y0296175D01*
X0397508Y0296151D01*
X0397359Y0296131D01*
X0397209Y0296115D01*
X0397059Y0296103D01*
X0396908Y0296095D01*
X0396757Y0296091D01*
X0396607Y0296091D01*
X0396456Y0296095D01*
X0396305Y0296103D01*
X0396155Y0296115D01*
X0396005Y0296131D01*
X0395856Y0296151D01*
X0395707Y0296175D01*
X0395559Y0296203D01*
X0395412Y0296234D01*
X0395265Y0296270D01*
X0395120Y0296309D01*
X0394975Y0296352D01*
X0394832Y0296399D01*
X0394690Y0296450D01*
X0394550Y0296504D01*
X0394411Y0296562D01*
X0394273Y0296624D01*
X0394137Y0296690D01*
X0394003Y0296758D01*
X0393871Y0296831D01*
X0393741Y0296907D01*
X0393613Y0296986D01*
X0393487Y0297069D01*
X0393363Y0297155D01*
X0393242Y0297244D01*
X0393122Y0297337D01*
X0393006Y0297432D01*
X0392892Y0297531D01*
X0392781Y0297632D01*
X0392672Y0297737D01*
X0392566Y0297844D01*
X0392463Y0297954D01*
X0392363Y0298067D01*
X0392266Y0298182D01*
X0392172Y0298300D01*
X0392081Y0298420D01*
X0391993Y0298543D01*
X0391909Y0298668D01*
X0391828Y0298795D01*
X0391750Y0298924D01*
X0391676Y0299055D01*
X0391606Y0299188D01*
X0391538Y0299323D01*
X0391475Y0299460D01*
X0391415Y0299598D01*
X0391359Y0299738D01*
X0391306Y0299879D01*
X0391257Y0300021D01*
X0391212Y0300165D01*
X0391171Y0300310D01*
X0391133Y0300456D01*
X0391100Y0300603D01*
X0391070Y0300751D01*
X0391044Y0300899D01*
X0391023Y0301049D01*
X0391005Y0301198D01*
X0390991Y0301348D01*
X0390981Y0301499D01*
X0390975Y0301649D01*
X0390973Y0301800D01*
X0394989Y0204556D02*
X0394991Y0204689D01*
X0394997Y0204822D01*
X0395007Y0204955D01*
X0395021Y0205087D01*
X0395039Y0205219D01*
X0395060Y0205350D01*
X0395086Y0205481D01*
X0395116Y0205611D01*
X0395149Y0205740D01*
X0395187Y0205867D01*
X0395228Y0205994D01*
X0395273Y0206119D01*
X0395321Y0206243D01*
X0395374Y0206366D01*
X0395430Y0206486D01*
X0395489Y0206605D01*
X0395552Y0206723D01*
X0395619Y0206838D01*
X0395689Y0206951D01*
X0395762Y0207062D01*
X0395839Y0207171D01*
X0395919Y0207278D01*
X0396002Y0207382D01*
X0396088Y0207483D01*
X0396177Y0207582D01*
X0396269Y0207678D01*
X0396363Y0207772D01*
X0396461Y0207862D01*
X0396561Y0207950D01*
X0396664Y0208034D01*
X0396769Y0208116D01*
X0396877Y0208194D01*
X0396987Y0208269D01*
X0397099Y0208341D01*
X0397214Y0208409D01*
X0397330Y0208474D01*
X0397448Y0208535D01*
X0397568Y0208593D01*
X0397689Y0208647D01*
X0397813Y0208697D01*
X0397937Y0208744D01*
X0398063Y0208787D01*
X0398190Y0208826D01*
X0398319Y0208862D01*
X0398448Y0208893D01*
X0398578Y0208921D01*
X0398709Y0208945D01*
X0398841Y0208965D01*
X0398973Y0208981D01*
X0399106Y0208993D01*
X0399238Y0209001D01*
X0399371Y0209005D01*
X0399505Y0209005D01*
X0399638Y0209001D01*
X0399770Y0208993D01*
X0399903Y0208981D01*
X0400035Y0208965D01*
X0400167Y0208945D01*
X0400298Y0208921D01*
X0400428Y0208893D01*
X0400557Y0208862D01*
X0400686Y0208826D01*
X0400813Y0208787D01*
X0400939Y0208744D01*
X0401063Y0208697D01*
X0401187Y0208647D01*
X0401308Y0208593D01*
X0401428Y0208535D01*
X0401546Y0208474D01*
X0401663Y0208409D01*
X0401777Y0208341D01*
X0401889Y0208269D01*
X0401999Y0208194D01*
X0402107Y0208116D01*
X0402212Y0208034D01*
X0402315Y0207950D01*
X0402415Y0207862D01*
X0402513Y0207772D01*
X0402607Y0207678D01*
X0402699Y0207582D01*
X0402788Y0207483D01*
X0402874Y0207382D01*
X0402957Y0207278D01*
X0403037Y0207171D01*
X0403114Y0207062D01*
X0403187Y0206951D01*
X0403257Y0206838D01*
X0403324Y0206723D01*
X0403387Y0206605D01*
X0403446Y0206486D01*
X0403502Y0206366D01*
X0403555Y0206243D01*
X0403603Y0206119D01*
X0403648Y0205994D01*
X0403689Y0205867D01*
X0403727Y0205740D01*
X0403760Y0205611D01*
X0403790Y0205481D01*
X0403816Y0205350D01*
X0403837Y0205219D01*
X0403855Y0205087D01*
X0403869Y0204955D01*
X0403879Y0204822D01*
X0403885Y0204689D01*
X0403887Y0204556D01*
X0403885Y0204423D01*
X0403879Y0204290D01*
X0403869Y0204157D01*
X0403855Y0204025D01*
X0403837Y0203893D01*
X0403816Y0203762D01*
X0403790Y0203631D01*
X0403760Y0203501D01*
X0403727Y0203372D01*
X0403689Y0203245D01*
X0403648Y0203118D01*
X0403603Y0202993D01*
X0403555Y0202869D01*
X0403502Y0202746D01*
X0403446Y0202626D01*
X0403387Y0202507D01*
X0403324Y0202389D01*
X0403257Y0202274D01*
X0403187Y0202161D01*
X0403114Y0202050D01*
X0403037Y0201941D01*
X0402957Y0201834D01*
X0402874Y0201730D01*
X0402788Y0201629D01*
X0402699Y0201530D01*
X0402607Y0201434D01*
X0402513Y0201340D01*
X0402415Y0201250D01*
X0402315Y0201162D01*
X0402212Y0201078D01*
X0402107Y0200996D01*
X0401999Y0200918D01*
X0401889Y0200843D01*
X0401777Y0200771D01*
X0401662Y0200703D01*
X0401546Y0200638D01*
X0401428Y0200577D01*
X0401308Y0200519D01*
X0401187Y0200465D01*
X0401063Y0200415D01*
X0400939Y0200368D01*
X0400813Y0200325D01*
X0400686Y0200286D01*
X0400557Y0200250D01*
X0400428Y0200219D01*
X0400298Y0200191D01*
X0400167Y0200167D01*
X0400035Y0200147D01*
X0399903Y0200131D01*
X0399770Y0200119D01*
X0399638Y0200111D01*
X0399505Y0200107D01*
X0399371Y0200107D01*
X0399238Y0200111D01*
X0399106Y0200119D01*
X0398973Y0200131D01*
X0398841Y0200147D01*
X0398709Y0200167D01*
X0398578Y0200191D01*
X0398448Y0200219D01*
X0398319Y0200250D01*
X0398190Y0200286D01*
X0398063Y0200325D01*
X0397937Y0200368D01*
X0397813Y0200415D01*
X0397689Y0200465D01*
X0397568Y0200519D01*
X0397448Y0200577D01*
X0397330Y0200638D01*
X0397213Y0200703D01*
X0397099Y0200771D01*
X0396987Y0200843D01*
X0396877Y0200918D01*
X0396769Y0200996D01*
X0396664Y0201078D01*
X0396561Y0201162D01*
X0396461Y0201250D01*
X0396363Y0201340D01*
X0396269Y0201434D01*
X0396177Y0201530D01*
X0396088Y0201629D01*
X0396002Y0201730D01*
X0395919Y0201834D01*
X0395839Y0201941D01*
X0395762Y0202050D01*
X0395689Y0202161D01*
X0395619Y0202274D01*
X0395552Y0202389D01*
X0395489Y0202507D01*
X0395430Y0202626D01*
X0395374Y0202746D01*
X0395321Y0202869D01*
X0395273Y0202993D01*
X0395228Y0203118D01*
X0395187Y0203245D01*
X0395149Y0203372D01*
X0395116Y0203501D01*
X0395086Y0203631D01*
X0395060Y0203762D01*
X0395039Y0203893D01*
X0395021Y0204025D01*
X0395007Y0204157D01*
X0394997Y0204290D01*
X0394991Y0204423D01*
X0394989Y0204556D01*
X0390973Y0107312D02*
X0390975Y0107463D01*
X0390981Y0107613D01*
X0390991Y0107764D01*
X0391005Y0107914D01*
X0391023Y0108063D01*
X0391044Y0108213D01*
X0391070Y0108361D01*
X0391100Y0108509D01*
X0391133Y0108656D01*
X0391171Y0108802D01*
X0391212Y0108947D01*
X0391257Y0109091D01*
X0391306Y0109233D01*
X0391359Y0109374D01*
X0391415Y0109514D01*
X0391475Y0109652D01*
X0391538Y0109789D01*
X0391606Y0109924D01*
X0391676Y0110057D01*
X0391750Y0110188D01*
X0391828Y0110317D01*
X0391909Y0110444D01*
X0391993Y0110569D01*
X0392081Y0110692D01*
X0392172Y0110812D01*
X0392266Y0110930D01*
X0392363Y0111045D01*
X0392463Y0111158D01*
X0392566Y0111268D01*
X0392672Y0111375D01*
X0392781Y0111480D01*
X0392892Y0111581D01*
X0393006Y0111680D01*
X0393122Y0111775D01*
X0393242Y0111868D01*
X0393363Y0111957D01*
X0393487Y0112043D01*
X0393613Y0112126D01*
X0393741Y0112205D01*
X0393871Y0112281D01*
X0394003Y0112354D01*
X0394137Y0112422D01*
X0394273Y0112488D01*
X0394411Y0112550D01*
X0394550Y0112608D01*
X0394690Y0112662D01*
X0394832Y0112713D01*
X0394975Y0112760D01*
X0395120Y0112803D01*
X0395265Y0112842D01*
X0395412Y0112878D01*
X0395559Y0112909D01*
X0395707Y0112937D01*
X0395856Y0112961D01*
X0396005Y0112981D01*
X0396155Y0112997D01*
X0396305Y0113009D01*
X0396456Y0113017D01*
X0396607Y0113021D01*
X0396757Y0113021D01*
X0396908Y0113017D01*
X0397059Y0113009D01*
X0397209Y0112997D01*
X0397359Y0112981D01*
X0397508Y0112961D01*
X0397657Y0112937D01*
X0397805Y0112909D01*
X0397952Y0112878D01*
X0398099Y0112842D01*
X0398244Y0112803D01*
X0398389Y0112760D01*
X0398532Y0112713D01*
X0398674Y0112662D01*
X0398814Y0112608D01*
X0398953Y0112550D01*
X0399091Y0112488D01*
X0399227Y0112422D01*
X0399361Y0112354D01*
X0399493Y0112281D01*
X0399623Y0112205D01*
X0399751Y0112126D01*
X0399877Y0112043D01*
X0400001Y0111957D01*
X0400122Y0111868D01*
X0400242Y0111775D01*
X0400358Y0111680D01*
X0400472Y0111581D01*
X0400583Y0111480D01*
X0400692Y0111375D01*
X0400798Y0111268D01*
X0400901Y0111158D01*
X0401001Y0111045D01*
X0401098Y0110930D01*
X0401192Y0110812D01*
X0401283Y0110692D01*
X0401371Y0110569D01*
X0401455Y0110444D01*
X0401536Y0110317D01*
X0401614Y0110188D01*
X0401688Y0110057D01*
X0401758Y0109924D01*
X0401826Y0109789D01*
X0401889Y0109652D01*
X0401949Y0109514D01*
X0402005Y0109374D01*
X0402058Y0109233D01*
X0402107Y0109091D01*
X0402152Y0108947D01*
X0402193Y0108802D01*
X0402231Y0108656D01*
X0402264Y0108509D01*
X0402294Y0108361D01*
X0402320Y0108213D01*
X0402341Y0108063D01*
X0402359Y0107914D01*
X0402373Y0107764D01*
X0402383Y0107613D01*
X0402389Y0107463D01*
X0402391Y0107312D01*
X0402389Y0107161D01*
X0402383Y0107011D01*
X0402373Y0106860D01*
X0402359Y0106710D01*
X0402341Y0106561D01*
X0402320Y0106411D01*
X0402294Y0106263D01*
X0402264Y0106115D01*
X0402231Y0105968D01*
X0402193Y0105822D01*
X0402152Y0105677D01*
X0402107Y0105533D01*
X0402058Y0105391D01*
X0402005Y0105250D01*
X0401949Y0105110D01*
X0401889Y0104972D01*
X0401826Y0104835D01*
X0401758Y0104700D01*
X0401688Y0104567D01*
X0401614Y0104436D01*
X0401536Y0104307D01*
X0401455Y0104180D01*
X0401371Y0104055D01*
X0401283Y0103932D01*
X0401192Y0103812D01*
X0401098Y0103694D01*
X0401001Y0103579D01*
X0400901Y0103466D01*
X0400798Y0103356D01*
X0400692Y0103249D01*
X0400583Y0103144D01*
X0400472Y0103043D01*
X0400358Y0102944D01*
X0400242Y0102849D01*
X0400122Y0102756D01*
X0400001Y0102667D01*
X0399877Y0102581D01*
X0399751Y0102498D01*
X0399623Y0102419D01*
X0399493Y0102343D01*
X0399361Y0102270D01*
X0399227Y0102202D01*
X0399091Y0102136D01*
X0398953Y0102074D01*
X0398814Y0102016D01*
X0398674Y0101962D01*
X0398532Y0101911D01*
X0398389Y0101864D01*
X0398244Y0101821D01*
X0398099Y0101782D01*
X0397952Y0101746D01*
X0397805Y0101715D01*
X0397657Y0101687D01*
X0397508Y0101663D01*
X0397359Y0101643D01*
X0397209Y0101627D01*
X0397059Y0101615D01*
X0396908Y0101607D01*
X0396757Y0101603D01*
X0396607Y0101603D01*
X0396456Y0101607D01*
X0396305Y0101615D01*
X0396155Y0101627D01*
X0396005Y0101643D01*
X0395856Y0101663D01*
X0395707Y0101687D01*
X0395559Y0101715D01*
X0395412Y0101746D01*
X0395265Y0101782D01*
X0395120Y0101821D01*
X0394975Y0101864D01*
X0394832Y0101911D01*
X0394690Y0101962D01*
X0394550Y0102016D01*
X0394411Y0102074D01*
X0394273Y0102136D01*
X0394137Y0102202D01*
X0394003Y0102270D01*
X0393871Y0102343D01*
X0393741Y0102419D01*
X0393613Y0102498D01*
X0393487Y0102581D01*
X0393363Y0102667D01*
X0393242Y0102756D01*
X0393122Y0102849D01*
X0393006Y0102944D01*
X0392892Y0103043D01*
X0392781Y0103144D01*
X0392672Y0103249D01*
X0392566Y0103356D01*
X0392463Y0103466D01*
X0392363Y0103579D01*
X0392266Y0103694D01*
X0392172Y0103812D01*
X0392081Y0103932D01*
X0391993Y0104055D01*
X0391909Y0104180D01*
X0391828Y0104307D01*
X0391750Y0104436D01*
X0391676Y0104567D01*
X0391606Y0104700D01*
X0391538Y0104835D01*
X0391475Y0104972D01*
X0391415Y0105110D01*
X0391359Y0105250D01*
X0391306Y0105391D01*
X0391257Y0105533D01*
X0391212Y0105677D01*
X0391171Y0105822D01*
X0391133Y0105968D01*
X0391100Y0106115D01*
X0391070Y0106263D01*
X0391044Y0106411D01*
X0391023Y0106561D01*
X0391005Y0106710D01*
X0390991Y0106860D01*
X0390981Y0107011D01*
X0390975Y0107161D01*
X0390973Y0107312D01*
X0307902Y0024241D02*
X0307904Y0024392D01*
X0307910Y0024542D01*
X0307920Y0024693D01*
X0307934Y0024843D01*
X0307952Y0024992D01*
X0307973Y0025142D01*
X0307999Y0025290D01*
X0308029Y0025438D01*
X0308062Y0025585D01*
X0308100Y0025731D01*
X0308141Y0025876D01*
X0308186Y0026020D01*
X0308235Y0026162D01*
X0308288Y0026303D01*
X0308344Y0026443D01*
X0308404Y0026581D01*
X0308467Y0026718D01*
X0308535Y0026853D01*
X0308605Y0026986D01*
X0308679Y0027117D01*
X0308757Y0027246D01*
X0308838Y0027373D01*
X0308922Y0027498D01*
X0309010Y0027621D01*
X0309101Y0027741D01*
X0309195Y0027859D01*
X0309292Y0027974D01*
X0309392Y0028087D01*
X0309495Y0028197D01*
X0309601Y0028304D01*
X0309710Y0028409D01*
X0309821Y0028510D01*
X0309935Y0028609D01*
X0310051Y0028704D01*
X0310171Y0028797D01*
X0310292Y0028886D01*
X0310416Y0028972D01*
X0310542Y0029055D01*
X0310670Y0029134D01*
X0310800Y0029210D01*
X0310932Y0029283D01*
X0311066Y0029351D01*
X0311202Y0029417D01*
X0311340Y0029479D01*
X0311479Y0029537D01*
X0311619Y0029591D01*
X0311761Y0029642D01*
X0311904Y0029689D01*
X0312049Y0029732D01*
X0312194Y0029771D01*
X0312341Y0029807D01*
X0312488Y0029838D01*
X0312636Y0029866D01*
X0312785Y0029890D01*
X0312934Y0029910D01*
X0313084Y0029926D01*
X0313234Y0029938D01*
X0313385Y0029946D01*
X0313536Y0029950D01*
X0313686Y0029950D01*
X0313837Y0029946D01*
X0313988Y0029938D01*
X0314138Y0029926D01*
X0314288Y0029910D01*
X0314437Y0029890D01*
X0314586Y0029866D01*
X0314734Y0029838D01*
X0314881Y0029807D01*
X0315028Y0029771D01*
X0315173Y0029732D01*
X0315318Y0029689D01*
X0315461Y0029642D01*
X0315603Y0029591D01*
X0315743Y0029537D01*
X0315882Y0029479D01*
X0316020Y0029417D01*
X0316156Y0029351D01*
X0316290Y0029283D01*
X0316422Y0029210D01*
X0316552Y0029134D01*
X0316680Y0029055D01*
X0316806Y0028972D01*
X0316930Y0028886D01*
X0317051Y0028797D01*
X0317171Y0028704D01*
X0317287Y0028609D01*
X0317401Y0028510D01*
X0317512Y0028409D01*
X0317621Y0028304D01*
X0317727Y0028197D01*
X0317830Y0028087D01*
X0317930Y0027974D01*
X0318027Y0027859D01*
X0318121Y0027741D01*
X0318212Y0027621D01*
X0318300Y0027498D01*
X0318384Y0027373D01*
X0318465Y0027246D01*
X0318543Y0027117D01*
X0318617Y0026986D01*
X0318687Y0026853D01*
X0318755Y0026718D01*
X0318818Y0026581D01*
X0318878Y0026443D01*
X0318934Y0026303D01*
X0318987Y0026162D01*
X0319036Y0026020D01*
X0319081Y0025876D01*
X0319122Y0025731D01*
X0319160Y0025585D01*
X0319193Y0025438D01*
X0319223Y0025290D01*
X0319249Y0025142D01*
X0319270Y0024992D01*
X0319288Y0024843D01*
X0319302Y0024693D01*
X0319312Y0024542D01*
X0319318Y0024392D01*
X0319320Y0024241D01*
X0319318Y0024090D01*
X0319312Y0023940D01*
X0319302Y0023789D01*
X0319288Y0023639D01*
X0319270Y0023490D01*
X0319249Y0023340D01*
X0319223Y0023192D01*
X0319193Y0023044D01*
X0319160Y0022897D01*
X0319122Y0022751D01*
X0319081Y0022606D01*
X0319036Y0022462D01*
X0318987Y0022320D01*
X0318934Y0022179D01*
X0318878Y0022039D01*
X0318818Y0021901D01*
X0318755Y0021764D01*
X0318687Y0021629D01*
X0318617Y0021496D01*
X0318543Y0021365D01*
X0318465Y0021236D01*
X0318384Y0021109D01*
X0318300Y0020984D01*
X0318212Y0020861D01*
X0318121Y0020741D01*
X0318027Y0020623D01*
X0317930Y0020508D01*
X0317830Y0020395D01*
X0317727Y0020285D01*
X0317621Y0020178D01*
X0317512Y0020073D01*
X0317401Y0019972D01*
X0317287Y0019873D01*
X0317171Y0019778D01*
X0317051Y0019685D01*
X0316930Y0019596D01*
X0316806Y0019510D01*
X0316680Y0019427D01*
X0316552Y0019348D01*
X0316422Y0019272D01*
X0316290Y0019199D01*
X0316156Y0019131D01*
X0316020Y0019065D01*
X0315882Y0019003D01*
X0315743Y0018945D01*
X0315603Y0018891D01*
X0315461Y0018840D01*
X0315318Y0018793D01*
X0315173Y0018750D01*
X0315028Y0018711D01*
X0314881Y0018675D01*
X0314734Y0018644D01*
X0314586Y0018616D01*
X0314437Y0018592D01*
X0314288Y0018572D01*
X0314138Y0018556D01*
X0313988Y0018544D01*
X0313837Y0018536D01*
X0313686Y0018532D01*
X0313536Y0018532D01*
X0313385Y0018536D01*
X0313234Y0018544D01*
X0313084Y0018556D01*
X0312934Y0018572D01*
X0312785Y0018592D01*
X0312636Y0018616D01*
X0312488Y0018644D01*
X0312341Y0018675D01*
X0312194Y0018711D01*
X0312049Y0018750D01*
X0311904Y0018793D01*
X0311761Y0018840D01*
X0311619Y0018891D01*
X0311479Y0018945D01*
X0311340Y0019003D01*
X0311202Y0019065D01*
X0311066Y0019131D01*
X0310932Y0019199D01*
X0310800Y0019272D01*
X0310670Y0019348D01*
X0310542Y0019427D01*
X0310416Y0019510D01*
X0310292Y0019596D01*
X0310171Y0019685D01*
X0310051Y0019778D01*
X0309935Y0019873D01*
X0309821Y0019972D01*
X0309710Y0020073D01*
X0309601Y0020178D01*
X0309495Y0020285D01*
X0309392Y0020395D01*
X0309292Y0020508D01*
X0309195Y0020623D01*
X0309101Y0020741D01*
X0309010Y0020861D01*
X0308922Y0020984D01*
X0308838Y0021109D01*
X0308757Y0021236D01*
X0308679Y0021365D01*
X0308605Y0021496D01*
X0308535Y0021629D01*
X0308467Y0021764D01*
X0308404Y0021901D01*
X0308344Y0022039D01*
X0308288Y0022179D01*
X0308235Y0022320D01*
X0308186Y0022462D01*
X0308141Y0022606D01*
X0308100Y0022751D01*
X0308062Y0022897D01*
X0308029Y0023044D01*
X0307999Y0023192D01*
X0307973Y0023340D01*
X0307952Y0023490D01*
X0307934Y0023639D01*
X0307920Y0023789D01*
X0307910Y0023940D01*
X0307904Y0024090D01*
X0307902Y0024241D01*
D11*
X0228839Y0027715D03*
X0218839Y0027715D03*
X0208839Y0027715D03*
X0198839Y0027715D03*
X0188839Y0027715D03*
X0178839Y0027715D03*
X0168839Y0027715D03*
X0158839Y0027715D03*
D12*
X0057981Y0037981D03*
X0047981Y0037981D03*
X0047981Y0047981D03*
X0047981Y0057981D03*
X0057981Y0057981D03*
X0057981Y0047981D03*
X0057981Y0067981D03*
X0047981Y0067981D03*
D13*
X0096288Y0096288D03*
X0121091Y0066367D03*
X0120698Y0057706D03*
X0106524Y0050225D03*
X0134083Y0071485D03*
X0142351Y0043926D03*
X0156918Y0036839D03*
X0160855Y0050225D03*
X0171091Y0053375D03*
X0179359Y0053375D03*
X0189202Y0054950D03*
X0194320Y0069517D03*
X0207312Y0061643D03*
X0206524Y0041957D03*
X0179753Y0068335D03*
X0169517Y0071485D03*
X0203375Y0099044D03*
X0201800Y0111249D03*
X0225028Y0100619D03*
X0228965Y0100619D03*
X0234083Y0096288D03*
X0233296Y0123847D03*
X0232902Y0133690D03*
X0251406Y0066367D03*
X0273454Y0064792D03*
X0293548Y0037126D03*
X0298048Y0037126D03*
X0302348Y0037126D03*
X0345501Y0025422D03*
X0359280Y0025422D03*
X0336446Y0202587D03*
X0317942Y0287627D03*
X0313217Y0287627D03*
X0308099Y0287627D03*
X0302981Y0287627D03*
X0293139Y0301013D03*
X0312824Y0304950D03*
X0313388Y0323060D03*
X0305514Y0323060D03*
X0138808Y0121091D03*
X0151406Y0120698D03*
X0072666Y0129359D03*
D14*
X0090099Y0144691D03*
X0094899Y0144691D03*
X0094899Y0139891D03*
X0094899Y0135091D03*
X0094899Y0130291D03*
X0094899Y0149491D03*
X0090099Y0149491D03*
X0085299Y0149491D03*
X0085299Y0154291D03*
X0090099Y0154291D03*
X0094899Y0154291D03*
X0092499Y0168691D03*
X0087699Y0168691D03*
X0082899Y0168691D03*
X0082899Y0173491D03*
X0087699Y0173491D03*
X0092499Y0173491D03*
X0092499Y0178291D03*
X0087699Y0178291D03*
X0082899Y0178291D03*
X0082899Y0183091D03*
X0087699Y0183091D03*
X0092499Y0183091D03*
X0097299Y0183091D03*
X0097299Y0178291D03*
X0097299Y0173491D03*
X0097299Y0168691D03*
X0102099Y0173491D03*
X0102099Y0178291D03*
X0106899Y0178291D03*
X0106899Y0183091D03*
X0102099Y0183091D03*
X0102099Y0187891D03*
X0097299Y0187891D03*
X0097299Y0192691D03*
X0102099Y0192691D03*
X0106899Y0192691D03*
X0106899Y0187891D03*
X0106899Y0197491D03*
X0102099Y0197491D03*
X0097299Y0197491D03*
X0097299Y0202291D03*
X0102099Y0202291D03*
X0106899Y0202291D03*
X0106899Y0207091D03*
X0102099Y0207091D03*
X0097299Y0207091D03*
X0097299Y0211891D03*
X0102099Y0211891D03*
X0106899Y0211891D03*
X0106899Y0216691D03*
X0102099Y0216691D03*
X0097299Y0216691D03*
X0092499Y0216691D03*
X0092499Y0211891D03*
X0092499Y0207091D03*
X0087699Y0207091D03*
X0082899Y0207091D03*
X0082899Y0211891D03*
X0087699Y0211891D03*
X0087699Y0216691D03*
X0082899Y0216691D03*
X0082899Y0221491D03*
X0087699Y0221491D03*
X0092499Y0221491D03*
X0097299Y0221491D03*
X0102099Y0221491D03*
X0106899Y0221491D03*
X0130995Y0267279D03*
X0135795Y0267279D03*
X0135795Y0272079D03*
X0140595Y0272079D03*
X0145379Y0272095D03*
X0145379Y0267295D03*
X0140595Y0267279D03*
X0150179Y0267295D03*
X0150179Y0272095D03*
X0150179Y0276895D03*
X0150195Y0281679D03*
X0145395Y0281679D03*
X0145379Y0276895D03*
X0140595Y0276879D03*
X0150195Y0286479D03*
X0157395Y0286479D03*
X0157395Y0291279D03*
X0162195Y0291279D03*
X0166979Y0291295D03*
X0166979Y0286495D03*
X0162195Y0286479D03*
X0171779Y0286495D03*
X0176579Y0286495D03*
X0176579Y0281695D03*
X0176579Y0276895D03*
X0181379Y0276895D03*
X0181379Y0281695D03*
X0181379Y0286495D03*
X0181379Y0291295D03*
X0176579Y0291295D03*
X0171779Y0291295D03*
X0170399Y0209291D03*
X0170399Y0204491D03*
X0165599Y0204491D03*
X0160799Y0204491D03*
X0155999Y0204491D03*
X0155999Y0209291D03*
X0160799Y0209291D03*
X0165599Y0209291D03*
X0175199Y0209291D03*
X0175199Y0204491D03*
X0179999Y0204491D03*
X0179999Y0209291D03*
X0179999Y0199691D03*
X0179999Y0194891D03*
X0175199Y0194891D03*
X0170399Y0194891D03*
X0165599Y0194891D03*
X0160799Y0194891D03*
X0155999Y0194891D03*
X0155999Y0199691D03*
X0160799Y0199691D03*
X0165599Y0199691D03*
X0170399Y0199691D03*
X0175199Y0199691D03*
X0088011Y0112200D03*
X0088011Y0109800D03*
X0088011Y0102600D03*
X0088011Y0099900D03*
X0069337Y0067769D03*
X0069337Y0064169D03*
X0051962Y0081806D03*
X0048362Y0081806D03*
X0070726Y0036799D03*
X0070726Y0033199D03*
X0288962Y0085891D03*
X0293762Y0085891D03*
X0298562Y0085891D03*
X0303010Y0086043D03*
X0303010Y0090843D03*
X0298562Y0090691D03*
X0293762Y0090691D03*
X0288962Y0090691D03*
X0288962Y0095491D03*
X0293762Y0095491D03*
X0298562Y0095491D03*
X0303010Y0095643D03*
X0307810Y0095643D03*
X0307810Y0090843D03*
X0312610Y0095643D03*
X0312610Y0100443D03*
X0307810Y0100443D03*
X0307810Y0105243D03*
X0312610Y0105243D03*
X0312610Y0110043D03*
X0307810Y0110043D03*
X0307810Y0114843D03*
X0312610Y0114843D03*
X0312610Y0119643D03*
X0307810Y0119643D03*
X0307810Y0124443D03*
X0312610Y0124443D03*
X0312610Y0129243D03*
X0307810Y0129243D03*
X0303010Y0129243D03*
X0303010Y0124443D03*
X0303010Y0119643D03*
X0303010Y0114843D03*
X0303010Y0110043D03*
X0303010Y0105243D03*
X0303010Y0100443D03*
X0298562Y0100291D03*
X0293762Y0100291D03*
X0288962Y0100291D03*
X0288610Y0124443D03*
X0293410Y0124443D03*
X0298210Y0124443D03*
X0298210Y0129243D03*
X0293410Y0129243D03*
X0288610Y0129243D03*
X0288610Y0134043D03*
X0293410Y0134043D03*
X0298210Y0134043D03*
X0303010Y0134043D03*
X0303010Y0138843D03*
X0298210Y0138843D03*
X0293410Y0138843D03*
X0288610Y0138843D03*
X0307810Y0138843D03*
X0307810Y0134043D03*
X0312610Y0134043D03*
X0312610Y0138843D03*
X0359810Y0126343D03*
X0359810Y0121543D03*
X0364610Y0121543D03*
X0369410Y0121543D03*
X0374210Y0121543D03*
X0374210Y0126343D03*
X0369410Y0126343D03*
X0364610Y0126343D03*
X0364610Y0116743D03*
X0364610Y0111943D03*
X0359810Y0111943D03*
X0359810Y0116743D03*
X0369410Y0116743D03*
X0369410Y0111943D03*
X0374210Y0111943D03*
X0374210Y0116743D03*
X0379010Y0116743D03*
X0379010Y0111943D03*
X0383810Y0111943D03*
X0383810Y0116743D03*
X0383810Y0121543D03*
X0379010Y0121543D03*
X0379010Y0126343D03*
X0383810Y0126343D03*
X0384074Y0197400D03*
X0379274Y0197400D03*
X0379274Y0202200D03*
X0379274Y0207000D03*
X0379274Y0211800D03*
X0379274Y0216600D03*
X0384074Y0216600D03*
X0384074Y0211800D03*
X0384074Y0207000D03*
X0384074Y0202200D03*
X0374474Y0207000D03*
X0369674Y0207000D03*
X0364874Y0207000D03*
X0364874Y0211800D03*
X0369674Y0211800D03*
X0374474Y0211800D03*
X0374474Y0216600D03*
X0374474Y0221400D03*
X0374474Y0226200D03*
X0374474Y0231000D03*
X0374474Y0235800D03*
X0374474Y0240600D03*
X0374474Y0245400D03*
X0374474Y0250200D03*
X0374474Y0255000D03*
X0374474Y0259800D03*
X0374474Y0264600D03*
X0374474Y0269400D03*
X0379274Y0269400D03*
X0379274Y0264600D03*
X0379274Y0259800D03*
X0379274Y0255000D03*
X0379274Y0250200D03*
X0384074Y0250200D03*
X0384074Y0255000D03*
X0384074Y0259800D03*
X0384074Y0264600D03*
X0384074Y0269400D03*
X0384074Y0274200D03*
X0379274Y0274200D03*
X0379274Y0279000D03*
X0384074Y0279000D03*
X0384074Y0245400D03*
X0379274Y0245400D03*
X0379274Y0240600D03*
X0379274Y0235800D03*
X0379274Y0231000D03*
X0379274Y0226200D03*
X0379274Y0221400D03*
X0384074Y0221400D03*
X0384074Y0226200D03*
X0384074Y0231000D03*
X0384074Y0235800D03*
X0384074Y0240600D03*
X0301110Y0072543D03*
X0301110Y0067743D03*
X0301110Y0062943D03*
X0296310Y0062943D03*
X0296310Y0067743D03*
X0291510Y0067743D03*
X0291510Y0072543D03*
X0296310Y0072543D03*
D15*
X0293910Y0075517D02*
X0293663Y0075765D01*
X0292266Y0076343D01*
X0290754Y0076343D01*
X0289358Y0075765D01*
X0288289Y0074696D01*
X0287710Y0073299D01*
X0287710Y0071787D01*
X0288289Y0070391D01*
X0288536Y0070143D01*
X0288289Y0069896D01*
X0287710Y0068499D01*
X0287710Y0066987D01*
X0288289Y0065591D01*
X0289358Y0064522D01*
X0290754Y0063943D01*
X0292266Y0063943D01*
X0292683Y0064116D01*
X0292510Y0063699D01*
X0292510Y0062187D01*
X0293089Y0060791D01*
X0294158Y0059722D01*
X0295554Y0059143D01*
X0297066Y0059143D01*
X0298463Y0059722D01*
X0298710Y0059969D01*
X0298958Y0059722D01*
X0300354Y0059143D01*
X0301866Y0059143D01*
X0303263Y0059722D01*
X0304332Y0060791D01*
X0304910Y0062187D01*
X0304910Y0063699D01*
X0304332Y0065096D01*
X0304084Y0065343D01*
X0304332Y0065591D01*
X0304910Y0066987D01*
X0304910Y0068499D01*
X0304332Y0069896D01*
X0304084Y0070143D01*
X0304332Y0070391D01*
X0304910Y0071787D01*
X0304910Y0073299D01*
X0304332Y0074696D01*
X0303263Y0075765D01*
X0301866Y0076343D01*
X0300354Y0076343D01*
X0298958Y0075765D01*
X0298710Y0075517D01*
X0298463Y0075765D01*
X0297066Y0076343D01*
X0295554Y0076343D01*
X0294158Y0075765D01*
X0293910Y0075517D01*
X0288924Y0075332D02*
X0171679Y0075332D01*
X0171998Y0075199D02*
X0170388Y0075866D01*
X0168645Y0075866D01*
X0167035Y0075199D01*
X0165802Y0073967D01*
X0165135Y0072356D01*
X0165135Y0070614D01*
X0165802Y0069003D01*
X0167035Y0067771D01*
X0168645Y0067104D01*
X0170388Y0067104D01*
X0171998Y0067771D01*
X0173231Y0069003D01*
X0173898Y0070614D01*
X0173898Y0072356D01*
X0173231Y0073967D01*
X0171998Y0075199D01*
X0173327Y0073733D02*
X0193051Y0073733D01*
X0193448Y0073898D02*
X0191838Y0073231D01*
X0190606Y0071998D01*
X0189939Y0070388D01*
X0189939Y0068645D01*
X0190606Y0067035D01*
X0191838Y0065802D01*
X0193448Y0065135D01*
X0195191Y0065135D01*
X0196801Y0065802D01*
X0198034Y0067035D01*
X0198701Y0068645D01*
X0198701Y0070388D01*
X0198034Y0071998D01*
X0196801Y0073231D01*
X0195191Y0073898D01*
X0193448Y0073898D01*
X0195589Y0073733D02*
X0287890Y0073733D01*
X0287710Y0072134D02*
X0236596Y0072134D01*
X0236454Y0072276D02*
X0234916Y0072913D01*
X0233251Y0072913D01*
X0231713Y0072276D01*
X0230536Y0071099D01*
X0229899Y0069561D01*
X0229899Y0067897D01*
X0230536Y0066359D01*
X0231713Y0065182D01*
X0233251Y0064545D01*
X0234916Y0064545D01*
X0236454Y0065182D01*
X0237631Y0066359D01*
X0238268Y0067897D01*
X0238268Y0069561D01*
X0237631Y0071099D01*
X0236454Y0072276D01*
X0237864Y0070536D02*
X0250023Y0070536D01*
X0250535Y0070748D02*
X0248925Y0070081D01*
X0247692Y0068849D01*
X0247025Y0067238D01*
X0247025Y0065495D01*
X0247692Y0063885D01*
X0248925Y0062653D01*
X0250535Y0061986D01*
X0252278Y0061986D01*
X0253888Y0062653D01*
X0255120Y0063885D01*
X0255787Y0065495D01*
X0255787Y0067238D01*
X0255120Y0068849D01*
X0253888Y0070081D01*
X0252278Y0070748D01*
X0250535Y0070748D01*
X0252790Y0070536D02*
X0288229Y0070536D01*
X0287892Y0068937D02*
X0274894Y0068937D01*
X0274325Y0069173D02*
X0272582Y0069173D01*
X0270972Y0068506D01*
X0269739Y0067274D01*
X0269072Y0065664D01*
X0269072Y0063921D01*
X0269739Y0062310D01*
X0270972Y0061078D01*
X0272582Y0060411D01*
X0274325Y0060411D01*
X0275935Y0061078D01*
X0277168Y0062310D01*
X0277835Y0063921D01*
X0277835Y0065664D01*
X0277168Y0067274D01*
X0275935Y0068506D01*
X0274325Y0069173D01*
X0272013Y0068937D02*
X0255032Y0068937D01*
X0255746Y0067339D02*
X0269805Y0067339D01*
X0269104Y0065740D02*
X0255787Y0065740D01*
X0255227Y0064142D02*
X0269072Y0064142D01*
X0269643Y0062543D02*
X0253624Y0062543D01*
X0249189Y0062543D02*
X0211681Y0062543D01*
X0211693Y0062514D02*
X0211026Y0064124D01*
X0209794Y0065357D01*
X0208183Y0066024D01*
X0206440Y0066024D01*
X0204830Y0065357D01*
X0203598Y0064124D01*
X0202931Y0062514D01*
X0202931Y0060771D01*
X0203598Y0059161D01*
X0204830Y0057928D01*
X0206440Y0057261D01*
X0208183Y0057261D01*
X0209794Y0057928D01*
X0211026Y0059161D01*
X0211693Y0060771D01*
X0211693Y0062514D01*
X0211693Y0060945D02*
X0271293Y0060945D01*
X0275614Y0060945D02*
X0293025Y0060945D01*
X0292510Y0062543D02*
X0277264Y0062543D01*
X0277835Y0064142D02*
X0290275Y0064142D01*
X0288227Y0065740D02*
X0277803Y0065740D01*
X0277103Y0067339D02*
X0287710Y0067339D01*
X0283586Y0060298D02*
X0282121Y0060905D01*
X0280534Y0060905D01*
X0279069Y0060298D01*
X0277947Y0059177D01*
X0277340Y0057711D01*
X0277340Y0056125D01*
X0277947Y0054659D01*
X0279069Y0053538D01*
X0280534Y0052931D01*
X0282121Y0052931D01*
X0283586Y0053538D01*
X0284708Y0054659D01*
X0285315Y0056125D01*
X0285315Y0057711D01*
X0284708Y0059177D01*
X0283586Y0060298D01*
X0284538Y0059346D02*
X0295064Y0059346D01*
X0297556Y0059346D02*
X0299864Y0059346D01*
X0302356Y0059346D02*
X0415274Y0059346D01*
X0415274Y0057748D02*
X0285300Y0057748D01*
X0285315Y0056149D02*
X0415274Y0056149D01*
X0415274Y0054551D02*
X0284599Y0054551D01*
X0282173Y0052952D02*
X0415274Y0052952D01*
X0415274Y0051354D02*
X0257341Y0051354D01*
X0257316Y0051414D02*
X0256139Y0052591D01*
X0254601Y0053228D01*
X0252936Y0053228D01*
X0251398Y0052591D01*
X0250221Y0051414D01*
X0249584Y0049876D01*
X0249584Y0048212D01*
X0250221Y0046674D01*
X0251398Y0045497D01*
X0252936Y0044860D01*
X0254601Y0044860D01*
X0256139Y0045497D01*
X0257316Y0046674D01*
X0257953Y0048212D01*
X0257953Y0049876D01*
X0257316Y0051414D01*
X0257953Y0049755D02*
X0415274Y0049755D01*
X0415274Y0049044D02*
X0410811Y0049044D01*
X0410811Y0009000D01*
X0371879Y0009000D01*
X0371879Y0005737D01*
X0060855Y0005737D01*
X0060855Y0010200D01*
X0022011Y0010200D01*
X0022011Y0049044D01*
X0017548Y0049044D01*
X0017548Y0360068D01*
X0022011Y0360068D01*
X0022011Y0399000D01*
X0060855Y0399000D01*
X0060855Y0403463D01*
X0371879Y0403463D01*
X0371879Y0399000D01*
X0410811Y0399000D01*
X0410811Y0360068D01*
X0415274Y0360068D01*
X0415274Y0049044D01*
X0410811Y0048157D02*
X0257930Y0048157D01*
X0257200Y0046558D02*
X0410811Y0046558D01*
X0410811Y0044960D02*
X0282598Y0044960D01*
X0282121Y0045157D02*
X0280534Y0045157D01*
X0279069Y0044550D01*
X0277947Y0043429D01*
X0277340Y0041963D01*
X0277340Y0040377D01*
X0277947Y0038911D01*
X0279069Y0037790D01*
X0280534Y0037183D01*
X0282121Y0037183D01*
X0283586Y0037790D01*
X0284708Y0038911D01*
X0285315Y0040377D01*
X0285315Y0041963D01*
X0284708Y0043429D01*
X0283586Y0044550D01*
X0282121Y0045157D01*
X0280057Y0044960D02*
X0254842Y0044960D01*
X0252695Y0044960D02*
X0209718Y0044960D01*
X0210239Y0044439D02*
X0209006Y0045672D01*
X0207396Y0046339D01*
X0205653Y0046339D01*
X0204043Y0045672D01*
X0202810Y0044439D01*
X0202143Y0042829D01*
X0202143Y0041086D01*
X0202810Y0039476D01*
X0204043Y0038243D01*
X0205653Y0037576D01*
X0207396Y0037576D01*
X0209006Y0038243D01*
X0210239Y0039476D01*
X0210905Y0041086D01*
X0210905Y0042829D01*
X0210239Y0044439D01*
X0210685Y0043361D02*
X0277919Y0043361D01*
X0277340Y0041763D02*
X0210905Y0041763D01*
X0210524Y0040164D02*
X0277428Y0040164D01*
X0278293Y0038566D02*
X0209329Y0038566D01*
X0210053Y0033815D02*
X0207626Y0033815D01*
X0205384Y0032886D01*
X0203839Y0031342D01*
X0202295Y0032886D01*
X0200053Y0033815D01*
X0197626Y0033815D01*
X0195384Y0032886D01*
X0193839Y0031342D01*
X0192295Y0032886D01*
X0190053Y0033815D01*
X0187626Y0033815D01*
X0185384Y0032886D01*
X0183839Y0031342D01*
X0182295Y0032886D01*
X0180053Y0033815D01*
X0177626Y0033815D01*
X0175384Y0032886D01*
X0173839Y0031342D01*
X0172295Y0032886D01*
X0170053Y0033815D01*
X0167626Y0033815D01*
X0165384Y0032886D01*
X0163839Y0031342D01*
X0162295Y0032886D01*
X0160079Y0033804D01*
X0160632Y0034358D01*
X0161299Y0035968D01*
X0161299Y0037711D01*
X0160632Y0039321D01*
X0159400Y0040553D01*
X0157790Y0041220D01*
X0156047Y0041220D01*
X0154436Y0040553D01*
X0153204Y0039321D01*
X0152537Y0037711D01*
X0152537Y0035968D01*
X0153204Y0034358D01*
X0154436Y0033125D01*
X0155275Y0032778D01*
X0153668Y0031170D01*
X0152739Y0028928D01*
X0152739Y0026502D01*
X0153668Y0024260D01*
X0155384Y0022544D01*
X0157626Y0021615D01*
X0160053Y0021615D01*
X0162295Y0022544D01*
X0163839Y0024088D01*
X0165384Y0022544D01*
X0167626Y0021615D01*
X0170053Y0021615D01*
X0172295Y0022544D01*
X0173839Y0024088D01*
X0175384Y0022544D01*
X0177626Y0021615D01*
X0180053Y0021615D01*
X0182295Y0022544D01*
X0183839Y0024088D01*
X0185384Y0022544D01*
X0187626Y0021615D01*
X0190053Y0021615D01*
X0192295Y0022544D01*
X0193839Y0024088D01*
X0195384Y0022544D01*
X0197626Y0021615D01*
X0200053Y0021615D01*
X0202295Y0022544D01*
X0203839Y0024088D01*
X0205384Y0022544D01*
X0207626Y0021615D01*
X0210053Y0021615D01*
X0212295Y0022544D01*
X0213839Y0024088D01*
X0215384Y0022544D01*
X0217626Y0021615D01*
X0220053Y0021615D01*
X0222295Y0022544D01*
X0223839Y0024088D01*
X0225384Y0022544D01*
X0227626Y0021615D01*
X0230053Y0021615D01*
X0232295Y0022544D01*
X0234011Y0024260D01*
X0234939Y0026502D01*
X0234939Y0028928D01*
X0234011Y0031170D01*
X0232295Y0032886D01*
X0230053Y0033815D01*
X0227626Y0033815D01*
X0225384Y0032886D01*
X0223839Y0031342D01*
X0222295Y0032886D01*
X0220053Y0033815D01*
X0217626Y0033815D01*
X0215384Y0032886D01*
X0213839Y0031342D01*
X0212295Y0032886D01*
X0210053Y0033815D01*
X0210161Y0033770D02*
X0217518Y0033770D01*
X0220161Y0033770D02*
X0227518Y0033770D01*
X0230161Y0033770D02*
X0290708Y0033770D01*
X0291066Y0033412D02*
X0292677Y0032745D01*
X0294419Y0032745D01*
X0295798Y0033316D01*
X0297177Y0032745D01*
X0298919Y0032745D01*
X0300198Y0033274D01*
X0301477Y0032745D01*
X0303219Y0032745D01*
X0304830Y0033412D01*
X0306062Y0034644D01*
X0306729Y0036255D01*
X0306729Y0037997D01*
X0306062Y0039608D01*
X0304830Y0040840D01*
X0303219Y0041507D01*
X0301477Y0041507D01*
X0300198Y0040977D01*
X0298919Y0041507D01*
X0297177Y0041507D01*
X0295798Y0040936D01*
X0294419Y0041507D01*
X0292677Y0041507D01*
X0291066Y0040840D01*
X0289834Y0039608D01*
X0289167Y0037997D01*
X0289167Y0036255D01*
X0289834Y0034644D01*
X0291066Y0033412D01*
X0289534Y0035369D02*
X0161051Y0035369D01*
X0161299Y0036967D02*
X0289167Y0036967D01*
X0289402Y0038566D02*
X0284362Y0038566D01*
X0285227Y0040164D02*
X0290391Y0040164D01*
X0285315Y0041763D02*
X0410811Y0041763D01*
X0410811Y0043361D02*
X0284736Y0043361D01*
X0280482Y0052952D02*
X0255267Y0052952D01*
X0252270Y0052952D02*
X0193116Y0052952D01*
X0192916Y0052468D02*
X0193583Y0054078D01*
X0193583Y0055821D01*
X0192916Y0057431D01*
X0191683Y0058664D01*
X0190073Y0059331D01*
X0188330Y0059331D01*
X0186720Y0058664D01*
X0185487Y0057431D01*
X0184820Y0055821D01*
X0184820Y0054078D01*
X0185487Y0052468D01*
X0186720Y0051235D01*
X0188330Y0050569D01*
X0190073Y0050569D01*
X0191683Y0051235D01*
X0192916Y0052468D01*
X0191802Y0051354D02*
X0250196Y0051354D01*
X0249584Y0049755D02*
X0181935Y0049755D01*
X0181841Y0049661D02*
X0183073Y0050893D01*
X0183740Y0052503D01*
X0183740Y0054246D01*
X0183073Y0055856D01*
X0181841Y0057089D01*
X0180231Y0057756D01*
X0178488Y0057756D01*
X0176877Y0057089D01*
X0175645Y0055856D01*
X0175225Y0054843D01*
X0174805Y0055856D01*
X0173573Y0057089D01*
X0171963Y0057756D01*
X0170220Y0057756D01*
X0168610Y0057089D01*
X0167377Y0055856D01*
X0166710Y0054246D01*
X0166710Y0052503D01*
X0167377Y0050893D01*
X0168610Y0049661D01*
X0170220Y0048994D01*
X0171963Y0048994D01*
X0173573Y0049661D01*
X0174805Y0050893D01*
X0175225Y0051906D01*
X0175645Y0050893D01*
X0176877Y0049661D01*
X0178488Y0048994D01*
X0180231Y0048994D01*
X0181841Y0049661D01*
X0183264Y0051354D02*
X0186602Y0051354D01*
X0185287Y0052952D02*
X0183740Y0052952D01*
X0183614Y0054551D02*
X0184820Y0054551D01*
X0184956Y0056149D02*
X0182780Y0056149D01*
X0180250Y0057748D02*
X0185804Y0057748D01*
X0192599Y0057748D02*
X0205266Y0057748D01*
X0203521Y0059346D02*
X0124760Y0059346D01*
X0125079Y0058577D02*
X0124412Y0060187D01*
X0123179Y0061420D01*
X0121812Y0061986D01*
X0121963Y0061986D01*
X0123573Y0062653D01*
X0124805Y0063885D01*
X0125472Y0065495D01*
X0125472Y0067238D01*
X0124805Y0068849D01*
X0123573Y0070081D01*
X0121963Y0070748D01*
X0120220Y0070748D01*
X0118610Y0070081D01*
X0117377Y0068849D01*
X0116710Y0067238D01*
X0116710Y0065495D01*
X0117377Y0063885D01*
X0118610Y0062653D01*
X0119977Y0062087D01*
X0119826Y0062087D01*
X0118216Y0061420D01*
X0116984Y0060187D01*
X0116317Y0058577D01*
X0116317Y0056834D01*
X0116984Y0055224D01*
X0118216Y0053991D01*
X0119826Y0053324D01*
X0121569Y0053324D01*
X0123179Y0053991D01*
X0124412Y0055224D01*
X0125079Y0056834D01*
X0125079Y0058577D01*
X0125079Y0057748D02*
X0170201Y0057748D01*
X0171982Y0057748D02*
X0178468Y0057748D01*
X0175938Y0056149D02*
X0174513Y0056149D01*
X0174996Y0051354D02*
X0175454Y0051354D01*
X0176783Y0049755D02*
X0173668Y0049755D01*
X0168515Y0049755D02*
X0165236Y0049755D01*
X0165236Y0049354D02*
X0164569Y0047743D01*
X0163337Y0046511D01*
X0161727Y0045844D01*
X0159984Y0045844D01*
X0158373Y0046511D01*
X0157141Y0047743D01*
X0156474Y0049354D01*
X0156474Y0051097D01*
X0157141Y0052707D01*
X0158373Y0053939D01*
X0159984Y0054606D01*
X0161727Y0054606D01*
X0163337Y0053939D01*
X0164569Y0052707D01*
X0165236Y0051097D01*
X0165236Y0049354D01*
X0164740Y0048157D02*
X0249607Y0048157D01*
X0250337Y0046558D02*
X0163384Y0046558D01*
X0158326Y0046558D02*
X0145915Y0046558D01*
X0146065Y0046408D02*
X0144833Y0047640D01*
X0143223Y0048307D01*
X0141480Y0048307D01*
X0139869Y0047640D01*
X0138637Y0046408D01*
X0137970Y0044797D01*
X0137970Y0043055D01*
X0138637Y0041444D01*
X0139869Y0040212D01*
X0141480Y0039545D01*
X0143223Y0039545D01*
X0144833Y0040212D01*
X0146065Y0041444D01*
X0146732Y0043055D01*
X0146732Y0044797D01*
X0146065Y0046408D01*
X0146665Y0044960D02*
X0203331Y0044960D01*
X0202364Y0043361D02*
X0146732Y0043361D01*
X0146197Y0041763D02*
X0202143Y0041763D01*
X0202525Y0040164D02*
X0159789Y0040164D01*
X0160945Y0038566D02*
X0203720Y0038566D01*
X0200161Y0033770D02*
X0207518Y0033770D01*
X0204669Y0032172D02*
X0203009Y0032172D01*
X0197518Y0033770D02*
X0190161Y0033770D01*
X0187518Y0033770D02*
X0180161Y0033770D01*
X0177518Y0033770D02*
X0170161Y0033770D01*
X0167518Y0033770D02*
X0160161Y0033770D01*
X0163009Y0032172D02*
X0164669Y0032172D01*
X0173009Y0032172D02*
X0174669Y0032172D01*
X0183009Y0032172D02*
X0184669Y0032172D01*
X0193009Y0032172D02*
X0194669Y0032172D01*
X0195347Y0022581D02*
X0192332Y0022581D01*
X0185347Y0022581D02*
X0182332Y0022581D01*
X0175347Y0022581D02*
X0172332Y0022581D01*
X0165347Y0022581D02*
X0162332Y0022581D01*
X0155347Y0022581D02*
X0127212Y0022581D01*
X0127231Y0022628D02*
X0125997Y0019648D01*
X0123716Y0017367D01*
X0120736Y0016132D01*
X0117510Y0016132D01*
X0114530Y0017367D01*
X0112249Y0019648D01*
X0111014Y0022628D01*
X0111014Y0025854D01*
X0112249Y0028834D01*
X0114530Y0031115D01*
X0117510Y0032350D01*
X0120736Y0032350D01*
X0123716Y0031115D01*
X0125997Y0028834D01*
X0127231Y0025854D01*
X0127231Y0022628D01*
X0127231Y0024179D02*
X0153748Y0024179D01*
X0153039Y0025778D02*
X0127231Y0025778D01*
X0126601Y0027376D02*
X0152739Y0027376D01*
X0152759Y0028975D02*
X0125856Y0028975D01*
X0124258Y0030573D02*
X0153421Y0030573D01*
X0154669Y0032172D02*
X0121165Y0032172D01*
X0117080Y0032172D02*
X0074413Y0032172D01*
X0074526Y0032443D02*
X0074526Y0033955D01*
X0074093Y0034999D01*
X0074526Y0036043D01*
X0074526Y0037555D01*
X0073947Y0038952D01*
X0072879Y0040021D01*
X0071482Y0040599D01*
X0069970Y0040599D01*
X0068573Y0040021D01*
X0067505Y0038952D01*
X0066926Y0037555D01*
X0066926Y0036043D01*
X0067358Y0034999D01*
X0066926Y0033955D01*
X0066926Y0032443D01*
X0067505Y0031047D01*
X0068573Y0029978D01*
X0069970Y0029399D01*
X0071482Y0029399D01*
X0072879Y0029978D01*
X0073947Y0031047D01*
X0074526Y0032443D01*
X0074526Y0033770D02*
X0153791Y0033770D01*
X0152785Y0035369D02*
X0074247Y0035369D01*
X0074526Y0036967D02*
X0152537Y0036967D01*
X0152891Y0038566D02*
X0074107Y0038566D01*
X0072532Y0040164D02*
X0139984Y0040164D01*
X0138505Y0041763D02*
X0062826Y0041763D01*
X0061608Y0042981D02*
X0064081Y0045454D01*
X0064081Y0050508D01*
X0061608Y0052981D01*
X0064081Y0055454D01*
X0064081Y0060508D01*
X0061608Y0062981D01*
X0064081Y0065454D01*
X0064081Y0070508D01*
X0060508Y0074081D01*
X0055454Y0074081D01*
X0052981Y0071608D01*
X0050508Y0074081D01*
X0045454Y0074081D01*
X0041881Y0070508D01*
X0041881Y0065454D01*
X0044354Y0062981D01*
X0041881Y0060508D01*
X0041881Y0055454D01*
X0044354Y0052981D01*
X0041881Y0050508D01*
X0041881Y0045454D01*
X0044354Y0042981D01*
X0041881Y0040508D01*
X0041881Y0035454D01*
X0045454Y0031881D01*
X0050508Y0031881D01*
X0052981Y0034354D01*
X0055454Y0031881D01*
X0060508Y0031881D01*
X0064081Y0035454D01*
X0064081Y0040508D01*
X0061608Y0042981D01*
X0061988Y0043361D02*
X0137970Y0043361D01*
X0138037Y0044960D02*
X0063586Y0044960D01*
X0064081Y0046558D02*
X0103995Y0046558D01*
X0104043Y0046511D02*
X0105653Y0045844D01*
X0107396Y0045844D01*
X0109006Y0046511D01*
X0110239Y0047743D01*
X0110905Y0049354D01*
X0110905Y0051097D01*
X0110239Y0052707D01*
X0109006Y0053939D01*
X0107396Y0054606D01*
X0105653Y0054606D01*
X0104043Y0053939D01*
X0102810Y0052707D01*
X0102143Y0051097D01*
X0102143Y0049354D01*
X0102810Y0047743D01*
X0104043Y0046511D01*
X0102639Y0048157D02*
X0064081Y0048157D01*
X0064081Y0049755D02*
X0102143Y0049755D01*
X0102250Y0051354D02*
X0063235Y0051354D01*
X0061637Y0052952D02*
X0103056Y0052952D01*
X0105519Y0054551D02*
X0063178Y0054551D01*
X0064081Y0056149D02*
X0116600Y0056149D01*
X0116317Y0057748D02*
X0064081Y0057748D01*
X0064081Y0059346D02*
X0116635Y0059346D01*
X0117741Y0060945D02*
X0071483Y0060945D01*
X0071490Y0060948D02*
X0072558Y0062017D01*
X0073137Y0063413D01*
X0073137Y0064925D01*
X0072704Y0065969D01*
X0073137Y0067013D01*
X0073137Y0068525D01*
X0072558Y0069922D01*
X0071490Y0070991D01*
X0070093Y0071569D01*
X0068581Y0071569D01*
X0067184Y0070991D01*
X0066116Y0069922D01*
X0065537Y0068525D01*
X0065537Y0067013D01*
X0065970Y0065969D01*
X0065537Y0064925D01*
X0065537Y0063413D01*
X0066116Y0062017D01*
X0067184Y0060948D01*
X0068581Y0060369D01*
X0070093Y0060369D01*
X0071490Y0060948D01*
X0072777Y0062543D02*
X0118874Y0062543D01*
X0117271Y0064142D02*
X0073137Y0064142D01*
X0072799Y0065740D02*
X0116710Y0065740D01*
X0116752Y0067339D02*
X0073137Y0067339D01*
X0072966Y0068937D02*
X0117466Y0068937D01*
X0119708Y0070536D02*
X0071944Y0070536D01*
X0066730Y0070536D02*
X0064053Y0070536D01*
X0064081Y0068937D02*
X0065708Y0068937D01*
X0065537Y0067339D02*
X0064081Y0067339D01*
X0064081Y0065740D02*
X0065875Y0065740D01*
X0065537Y0064142D02*
X0062769Y0064142D01*
X0062045Y0062543D02*
X0065897Y0062543D01*
X0067191Y0060945D02*
X0063644Y0060945D01*
X0062454Y0072134D02*
X0129702Y0072134D01*
X0129702Y0072356D02*
X0129702Y0070614D01*
X0130369Y0069003D01*
X0131602Y0067771D01*
X0133212Y0067104D01*
X0134955Y0067104D01*
X0136565Y0067771D01*
X0137798Y0069003D01*
X0138465Y0070614D01*
X0138465Y0072356D01*
X0137798Y0073967D01*
X0136565Y0075199D01*
X0134955Y0075866D01*
X0133212Y0075866D01*
X0131602Y0075199D01*
X0130369Y0073967D01*
X0129702Y0072356D01*
X0130273Y0073733D02*
X0060856Y0073733D01*
X0055106Y0073733D02*
X0050856Y0073733D01*
X0052454Y0072134D02*
X0053508Y0072134D01*
X0052718Y0078006D02*
X0054115Y0078585D01*
X0055184Y0079654D01*
X0055762Y0081050D01*
X0055762Y0082562D01*
X0055184Y0083959D01*
X0054115Y0085028D01*
X0052718Y0085606D01*
X0051206Y0085606D01*
X0050162Y0085174D01*
X0049118Y0085606D01*
X0047606Y0085606D01*
X0046210Y0085028D01*
X0045141Y0083959D01*
X0044562Y0082562D01*
X0044562Y0081050D01*
X0045141Y0079654D01*
X0046210Y0078585D01*
X0047606Y0078006D01*
X0049118Y0078006D01*
X0050162Y0078439D01*
X0051206Y0078006D01*
X0052718Y0078006D01*
X0053979Y0078529D02*
X0415274Y0078529D01*
X0415274Y0080127D02*
X0055380Y0080127D01*
X0055762Y0081726D02*
X0415274Y0081726D01*
X0415274Y0083324D02*
X0305665Y0083324D01*
X0305163Y0082822D02*
X0306232Y0083891D01*
X0306810Y0085287D01*
X0306810Y0086799D01*
X0306638Y0087216D01*
X0307054Y0087043D01*
X0308566Y0087043D01*
X0309963Y0087622D01*
X0311032Y0088691D01*
X0311610Y0090087D01*
X0311610Y0091599D01*
X0311438Y0092016D01*
X0311854Y0091843D01*
X0313366Y0091843D01*
X0314763Y0092422D01*
X0315832Y0093491D01*
X0316410Y0094887D01*
X0316410Y0096399D01*
X0315832Y0097796D01*
X0315584Y0098043D01*
X0315832Y0098291D01*
X0316410Y0099687D01*
X0316410Y0101199D01*
X0315832Y0102596D01*
X0315584Y0102843D01*
X0315832Y0103091D01*
X0316410Y0104487D01*
X0316410Y0105999D01*
X0315832Y0107396D01*
X0315584Y0107643D01*
X0315832Y0107891D01*
X0316410Y0109287D01*
X0316410Y0110799D01*
X0315832Y0112196D01*
X0315584Y0112443D01*
X0315832Y0112691D01*
X0316410Y0114087D01*
X0316410Y0115599D01*
X0315832Y0116996D01*
X0315584Y0117243D01*
X0315832Y0117491D01*
X0316410Y0118887D01*
X0316410Y0120399D01*
X0315832Y0121796D01*
X0315584Y0122043D01*
X0315832Y0122291D01*
X0316410Y0123687D01*
X0316410Y0125199D01*
X0315832Y0126596D01*
X0315584Y0126843D01*
X0315832Y0127091D01*
X0316410Y0128487D01*
X0316410Y0129999D01*
X0315832Y0131396D01*
X0315584Y0131643D01*
X0315832Y0131891D01*
X0316410Y0133287D01*
X0316410Y0134799D01*
X0315832Y0136196D01*
X0315584Y0136443D01*
X0315832Y0136691D01*
X0316410Y0138087D01*
X0316410Y0139599D01*
X0315832Y0140996D01*
X0314763Y0142065D01*
X0313366Y0142643D01*
X0311854Y0142643D01*
X0310458Y0142065D01*
X0310210Y0141817D01*
X0309963Y0142065D01*
X0308566Y0142643D01*
X0307054Y0142643D01*
X0305658Y0142065D01*
X0305410Y0141817D01*
X0305163Y0142065D01*
X0303766Y0142643D01*
X0302254Y0142643D01*
X0300858Y0142065D01*
X0300610Y0141817D01*
X0300363Y0142065D01*
X0298966Y0142643D01*
X0297454Y0142643D01*
X0296058Y0142065D01*
X0295810Y0141817D01*
X0295563Y0142065D01*
X0294166Y0142643D01*
X0292654Y0142643D01*
X0291258Y0142065D01*
X0291010Y0141817D01*
X0290763Y0142065D01*
X0289366Y0142643D01*
X0287854Y0142643D01*
X0286458Y0142065D01*
X0285389Y0140996D01*
X0284810Y0139599D01*
X0284810Y0138087D01*
X0285389Y0136691D01*
X0285636Y0136443D01*
X0285389Y0136196D01*
X0284810Y0134799D01*
X0284810Y0133287D01*
X0285389Y0131891D01*
X0285636Y0131643D01*
X0285389Y0131396D01*
X0284810Y0129999D01*
X0284810Y0128487D01*
X0285389Y0127091D01*
X0285636Y0126843D01*
X0285389Y0126596D01*
X0284810Y0125199D01*
X0284810Y0123687D01*
X0285389Y0122291D01*
X0286458Y0121222D01*
X0287854Y0120643D01*
X0289366Y0120643D01*
X0290763Y0121222D01*
X0291010Y0121469D01*
X0291258Y0121222D01*
X0292654Y0120643D01*
X0294166Y0120643D01*
X0295563Y0121222D01*
X0295810Y0121469D01*
X0296058Y0121222D01*
X0297454Y0120643D01*
X0298966Y0120643D01*
X0299383Y0120816D01*
X0299210Y0120399D01*
X0299210Y0118887D01*
X0299789Y0117491D01*
X0300036Y0117243D01*
X0299789Y0116996D01*
X0299210Y0115599D01*
X0299210Y0114087D01*
X0299789Y0112691D01*
X0300036Y0112443D01*
X0299789Y0112196D01*
X0299210Y0110799D01*
X0299210Y0109287D01*
X0299789Y0107891D01*
X0300036Y0107643D01*
X0299789Y0107396D01*
X0299210Y0105999D01*
X0299210Y0104487D01*
X0299386Y0104063D01*
X0299318Y0104091D01*
X0297806Y0104091D01*
X0296410Y0103513D01*
X0296162Y0103265D01*
X0295915Y0103513D01*
X0294518Y0104091D01*
X0293006Y0104091D01*
X0291610Y0103513D01*
X0291362Y0103265D01*
X0291115Y0103513D01*
X0289718Y0104091D01*
X0288206Y0104091D01*
X0286810Y0103513D01*
X0285741Y0102444D01*
X0285162Y0101047D01*
X0285162Y0099535D01*
X0285741Y0098139D01*
X0285988Y0097891D01*
X0285741Y0097644D01*
X0285162Y0096247D01*
X0285162Y0094735D01*
X0285741Y0093339D01*
X0285988Y0093091D01*
X0285741Y0092844D01*
X0285162Y0091447D01*
X0285162Y0089935D01*
X0285741Y0088539D01*
X0285988Y0088291D01*
X0285741Y0088044D01*
X0285162Y0086647D01*
X0285162Y0085135D01*
X0285741Y0083739D01*
X0286810Y0082670D01*
X0288206Y0082091D01*
X0289718Y0082091D01*
X0291115Y0082670D01*
X0291362Y0082917D01*
X0291610Y0082670D01*
X0293006Y0082091D01*
X0294518Y0082091D01*
X0295915Y0082670D01*
X0296162Y0082917D01*
X0296410Y0082670D01*
X0297806Y0082091D01*
X0299318Y0082091D01*
X0300715Y0082670D01*
X0300864Y0082819D01*
X0302254Y0082243D01*
X0303766Y0082243D01*
X0305163Y0082822D01*
X0306659Y0084923D02*
X0415274Y0084923D01*
X0415274Y0086521D02*
X0306810Y0086521D01*
X0310461Y0088120D02*
X0415274Y0088120D01*
X0415274Y0089718D02*
X0311457Y0089718D01*
X0311610Y0091317D02*
X0415274Y0091317D01*
X0415274Y0092915D02*
X0315256Y0092915D01*
X0316255Y0094514D02*
X0415274Y0094514D01*
X0415274Y0096112D02*
X0316410Y0096112D01*
X0315867Y0097711D02*
X0415274Y0097711D01*
X0415274Y0099309D02*
X0398551Y0099309D01*
X0398295Y0099203D02*
X0401275Y0100438D01*
X0403556Y0102719D01*
X0404791Y0105699D01*
X0404791Y0108925D01*
X0403556Y0111905D01*
X0401275Y0114186D01*
X0398295Y0115420D01*
X0395069Y0115420D01*
X0392089Y0114186D01*
X0389808Y0111905D01*
X0388573Y0108925D01*
X0388573Y0105699D01*
X0389808Y0102719D01*
X0392089Y0100438D01*
X0395069Y0099203D01*
X0398295Y0099203D01*
X0394813Y0099309D02*
X0316254Y0099309D01*
X0316410Y0100908D02*
X0391619Y0100908D01*
X0390020Y0102506D02*
X0315869Y0102506D01*
X0316252Y0104105D02*
X0389234Y0104105D01*
X0388573Y0105703D02*
X0316410Y0105703D01*
X0315871Y0107302D02*
X0388573Y0107302D01*
X0388573Y0108900D02*
X0386141Y0108900D01*
X0385963Y0108722D02*
X0387032Y0109791D01*
X0387610Y0111187D01*
X0387610Y0112699D01*
X0387032Y0114096D01*
X0386784Y0114343D01*
X0387032Y0114591D01*
X0387610Y0115987D01*
X0387610Y0117499D01*
X0387032Y0118896D01*
X0386784Y0119143D01*
X0387032Y0119391D01*
X0387610Y0120787D01*
X0387610Y0122299D01*
X0387032Y0123696D01*
X0386784Y0123943D01*
X0387032Y0124191D01*
X0387610Y0125587D01*
X0387610Y0127099D01*
X0387032Y0128496D01*
X0385963Y0129565D01*
X0384566Y0130143D01*
X0383054Y0130143D01*
X0381658Y0129565D01*
X0381410Y0129317D01*
X0381163Y0129565D01*
X0379766Y0130143D01*
X0378254Y0130143D01*
X0376858Y0129565D01*
X0376610Y0129317D01*
X0376363Y0129565D01*
X0374966Y0130143D01*
X0373454Y0130143D01*
X0372058Y0129565D01*
X0371810Y0129317D01*
X0371563Y0129565D01*
X0370166Y0130143D01*
X0368654Y0130143D01*
X0367258Y0129565D01*
X0367010Y0129317D01*
X0366763Y0129565D01*
X0365366Y0130143D01*
X0363854Y0130143D01*
X0362458Y0129565D01*
X0362210Y0129317D01*
X0361963Y0129565D01*
X0360566Y0130143D01*
X0359054Y0130143D01*
X0357658Y0129565D01*
X0356589Y0128496D01*
X0356010Y0127099D01*
X0356010Y0125587D01*
X0356589Y0124191D01*
X0356836Y0123943D01*
X0356589Y0123696D01*
X0356010Y0122299D01*
X0356010Y0120787D01*
X0356589Y0119391D01*
X0356836Y0119143D01*
X0356589Y0118896D01*
X0356010Y0117499D01*
X0356010Y0115987D01*
X0356589Y0114591D01*
X0356836Y0114343D01*
X0356589Y0114096D01*
X0356010Y0112699D01*
X0356010Y0111187D01*
X0356589Y0109791D01*
X0357658Y0108722D01*
X0359054Y0108143D01*
X0360566Y0108143D01*
X0361963Y0108722D01*
X0362210Y0108969D01*
X0362458Y0108722D01*
X0363854Y0108143D01*
X0365366Y0108143D01*
X0366763Y0108722D01*
X0367010Y0108969D01*
X0367258Y0108722D01*
X0368654Y0108143D01*
X0370166Y0108143D01*
X0371563Y0108722D01*
X0371810Y0108969D01*
X0372058Y0108722D01*
X0373454Y0108143D01*
X0374966Y0108143D01*
X0376363Y0108722D01*
X0376610Y0108969D01*
X0376858Y0108722D01*
X0378254Y0108143D01*
X0379766Y0108143D01*
X0381163Y0108722D01*
X0381410Y0108969D01*
X0381658Y0108722D01*
X0383054Y0108143D01*
X0384566Y0108143D01*
X0385963Y0108722D01*
X0387325Y0110499D02*
X0389225Y0110499D01*
X0390000Y0112097D02*
X0387610Y0112097D01*
X0387197Y0113696D02*
X0391598Y0113696D01*
X0394764Y0115294D02*
X0387323Y0115294D01*
X0387610Y0116893D02*
X0415274Y0116893D01*
X0415274Y0118491D02*
X0387199Y0118491D01*
X0387321Y0120090D02*
X0415274Y0120090D01*
X0415274Y0121688D02*
X0387610Y0121688D01*
X0387201Y0123287D02*
X0415274Y0123287D01*
X0415274Y0124885D02*
X0387319Y0124885D01*
X0387610Y0126484D02*
X0415274Y0126484D01*
X0415274Y0128082D02*
X0387203Y0128082D01*
X0385682Y0129681D02*
X0415274Y0129681D01*
X0415274Y0131279D02*
X0315880Y0131279D01*
X0316241Y0132878D02*
X0415274Y0132878D01*
X0415274Y0134476D02*
X0316410Y0134476D01*
X0315882Y0136075D02*
X0415274Y0136075D01*
X0415274Y0137673D02*
X0316239Y0137673D01*
X0316410Y0139272D02*
X0415274Y0139272D01*
X0415274Y0140870D02*
X0315884Y0140870D01*
X0313787Y0142469D02*
X0415274Y0142469D01*
X0415274Y0144068D02*
X0098699Y0144068D01*
X0098699Y0143935D02*
X0098699Y0145447D01*
X0098121Y0146844D01*
X0097873Y0147091D01*
X0098121Y0147339D01*
X0098699Y0148735D01*
X0098699Y0150247D01*
X0098121Y0151644D01*
X0097873Y0151891D01*
X0098121Y0152139D01*
X0098699Y0153535D01*
X0098699Y0155047D01*
X0098121Y0156444D01*
X0097052Y0157513D01*
X0095655Y0158091D01*
X0094143Y0158091D01*
X0092747Y0157513D01*
X0092499Y0157265D01*
X0092252Y0157513D01*
X0090855Y0158091D01*
X0089343Y0158091D01*
X0087947Y0157513D01*
X0087699Y0157265D01*
X0087452Y0157513D01*
X0086055Y0158091D01*
X0084543Y0158091D01*
X0083147Y0157513D01*
X0082078Y0156444D01*
X0081499Y0155047D01*
X0081499Y0153535D01*
X0082078Y0152139D01*
X0082325Y0151891D01*
X0082078Y0151644D01*
X0081499Y0150247D01*
X0081499Y0148735D01*
X0082078Y0147339D01*
X0083147Y0146270D01*
X0084543Y0145691D01*
X0086055Y0145691D01*
X0086472Y0145864D01*
X0086299Y0145447D01*
X0086299Y0143935D01*
X0086878Y0142539D01*
X0087947Y0141470D01*
X0089343Y0140891D01*
X0090855Y0140891D01*
X0091272Y0141064D01*
X0091099Y0140647D01*
X0091099Y0139135D01*
X0091678Y0137739D01*
X0091925Y0137491D01*
X0091678Y0137244D01*
X0091099Y0135847D01*
X0091099Y0134335D01*
X0091678Y0132939D01*
X0091925Y0132691D01*
X0091678Y0132444D01*
X0091099Y0131047D01*
X0091099Y0129535D01*
X0091678Y0128139D01*
X0092747Y0127070D01*
X0094143Y0126491D01*
X0095655Y0126491D01*
X0097052Y0127070D01*
X0098121Y0128139D01*
X0098699Y0129535D01*
X0098699Y0131047D01*
X0098121Y0132444D01*
X0097873Y0132691D01*
X0098121Y0132939D01*
X0098699Y0134335D01*
X0098699Y0135847D01*
X0098121Y0137244D01*
X0097873Y0137491D01*
X0098121Y0137739D01*
X0098699Y0139135D01*
X0098699Y0140647D01*
X0098121Y0142044D01*
X0097873Y0142291D01*
X0098121Y0142539D01*
X0098699Y0143935D01*
X0098051Y0142469D02*
X0287434Y0142469D01*
X0289787Y0142469D02*
X0292234Y0142469D01*
X0294587Y0142469D02*
X0297034Y0142469D01*
X0299387Y0142469D02*
X0301834Y0142469D01*
X0304187Y0142469D02*
X0306634Y0142469D01*
X0308987Y0142469D02*
X0311434Y0142469D01*
X0316410Y0129681D02*
X0357938Y0129681D01*
X0356418Y0128082D02*
X0316242Y0128082D01*
X0315878Y0126484D02*
X0356010Y0126484D01*
X0356301Y0124885D02*
X0316410Y0124885D01*
X0316244Y0123287D02*
X0356419Y0123287D01*
X0356010Y0121688D02*
X0315876Y0121688D01*
X0316410Y0120090D02*
X0356299Y0120090D01*
X0356421Y0118491D02*
X0316246Y0118491D01*
X0315874Y0116893D02*
X0356010Y0116893D01*
X0356297Y0115294D02*
X0316410Y0115294D01*
X0316248Y0113696D02*
X0356423Y0113696D01*
X0356010Y0112097D02*
X0315873Y0112097D01*
X0316410Y0110499D02*
X0356295Y0110499D01*
X0357479Y0108900D02*
X0316250Y0108900D01*
X0299750Y0107302D02*
X0217176Y0107302D01*
X0216769Y0107709D02*
X0215231Y0108346D01*
X0213566Y0108346D01*
X0212028Y0107709D01*
X0210851Y0106532D01*
X0210214Y0104995D01*
X0210214Y0103330D01*
X0210851Y0101792D01*
X0212028Y0100615D01*
X0213566Y0099978D01*
X0215231Y0099978D01*
X0216769Y0100615D01*
X0217946Y0101792D01*
X0218583Y0103330D01*
X0218583Y0104995D01*
X0217946Y0106532D01*
X0216769Y0107709D01*
X0218289Y0105703D02*
X0299210Y0105703D01*
X0299369Y0104105D02*
X0231675Y0104105D01*
X0231447Y0104333D02*
X0232679Y0103101D01*
X0233346Y0101490D01*
X0233346Y0100669D01*
X0234955Y0100669D01*
X0236565Y0100002D01*
X0237798Y0098770D01*
X0238465Y0097160D01*
X0238465Y0095417D01*
X0237798Y0093806D01*
X0236565Y0092574D01*
X0234955Y0091907D01*
X0233212Y0091907D01*
X0231602Y0092574D01*
X0230369Y0093806D01*
X0229702Y0095417D01*
X0229702Y0096238D01*
X0228094Y0096238D01*
X0226997Y0096692D01*
X0225900Y0096238D01*
X0224157Y0096238D01*
X0222547Y0096905D01*
X0221314Y0098137D01*
X0220647Y0099747D01*
X0220647Y0101490D01*
X0221314Y0103101D01*
X0222547Y0104333D01*
X0224157Y0105000D01*
X0225900Y0105000D01*
X0226997Y0104546D01*
X0228094Y0105000D01*
X0229837Y0105000D01*
X0231447Y0104333D01*
X0232926Y0102506D02*
X0285803Y0102506D01*
X0285162Y0100908D02*
X0233346Y0100908D01*
X0237258Y0099309D02*
X0285256Y0099309D01*
X0285808Y0097711D02*
X0238236Y0097711D01*
X0238465Y0096112D02*
X0285162Y0096112D01*
X0285254Y0094514D02*
X0238090Y0094514D01*
X0236906Y0092915D02*
X0285812Y0092915D01*
X0285162Y0091317D02*
X0017548Y0091317D01*
X0017548Y0092915D02*
X0093465Y0092915D01*
X0093806Y0092574D02*
X0095417Y0091907D01*
X0097160Y0091907D01*
X0098770Y0092574D01*
X0100002Y0093806D01*
X0100669Y0095417D01*
X0100669Y0097160D01*
X0100002Y0098770D01*
X0098770Y0100002D01*
X0097160Y0100669D01*
X0095417Y0100669D01*
X0093806Y0100002D01*
X0092574Y0098770D01*
X0091907Y0097160D01*
X0091907Y0095417D01*
X0092574Y0093806D01*
X0093806Y0092574D01*
X0092281Y0094514D02*
X0017548Y0094514D01*
X0017548Y0096112D02*
X0087226Y0096112D01*
X0087255Y0096100D02*
X0088767Y0096100D01*
X0090164Y0096679D01*
X0091232Y0097747D01*
X0091811Y0099144D01*
X0091811Y0100656D01*
X0091565Y0101250D01*
X0091811Y0101844D01*
X0091811Y0103356D01*
X0091232Y0104753D01*
X0090164Y0105821D01*
X0089250Y0106200D01*
X0090164Y0106579D01*
X0091232Y0107647D01*
X0091811Y0109044D01*
X0091811Y0110556D01*
X0091627Y0111000D01*
X0091811Y0111444D01*
X0091811Y0112956D01*
X0091232Y0114353D01*
X0090164Y0115421D01*
X0088767Y0116000D01*
X0087255Y0116000D01*
X0085858Y0115421D01*
X0084790Y0114353D01*
X0084211Y0112956D01*
X0084211Y0111444D01*
X0084395Y0111000D01*
X0084211Y0110556D01*
X0084211Y0109044D01*
X0084790Y0107647D01*
X0085858Y0106579D01*
X0086772Y0106200D01*
X0085858Y0105821D01*
X0084790Y0104753D01*
X0084211Y0103356D01*
X0084211Y0101844D01*
X0084457Y0101250D01*
X0084211Y0100656D01*
X0084211Y0099144D01*
X0084790Y0097747D01*
X0085858Y0096679D01*
X0087255Y0096100D01*
X0088796Y0096112D02*
X0091907Y0096112D01*
X0092135Y0097711D02*
X0091196Y0097711D01*
X0091811Y0099309D02*
X0093113Y0099309D01*
X0091707Y0100908D02*
X0199405Y0100908D01*
X0199661Y0101526D02*
X0198994Y0099916D01*
X0198994Y0098173D01*
X0199661Y0096562D01*
X0200893Y0095330D01*
X0202503Y0094663D01*
X0204246Y0094663D01*
X0205856Y0095330D01*
X0207089Y0096562D01*
X0207756Y0098173D01*
X0207756Y0099916D01*
X0207089Y0101526D01*
X0205856Y0102758D01*
X0204246Y0103425D01*
X0202503Y0103425D01*
X0200893Y0102758D01*
X0199661Y0101526D01*
X0200641Y0102506D02*
X0091811Y0102506D01*
X0091501Y0104105D02*
X0210214Y0104105D01*
X0210508Y0105703D02*
X0090282Y0105703D01*
X0090887Y0107302D02*
X0199881Y0107302D01*
X0199318Y0107535D02*
X0200929Y0106868D01*
X0202671Y0106868D01*
X0204282Y0107535D01*
X0205514Y0108767D01*
X0206181Y0110377D01*
X0206181Y0112120D01*
X0205514Y0113731D01*
X0204282Y0114963D01*
X0202671Y0115630D01*
X0200929Y0115630D01*
X0199318Y0114963D01*
X0198086Y0113731D01*
X0197419Y0112120D01*
X0197419Y0110377D01*
X0198086Y0108767D01*
X0199318Y0107535D01*
X0198031Y0108900D02*
X0091751Y0108900D01*
X0091811Y0110499D02*
X0197419Y0110499D01*
X0197419Y0112097D02*
X0091811Y0112097D01*
X0091505Y0113696D02*
X0198072Y0113696D01*
X0200118Y0115294D02*
X0090291Y0115294D01*
X0085731Y0115294D02*
X0017548Y0115294D01*
X0017548Y0113696D02*
X0033127Y0113696D01*
X0034439Y0114239D02*
X0031459Y0113005D01*
X0029178Y0110724D01*
X0027943Y0107744D01*
X0027943Y0104518D01*
X0029178Y0101538D01*
X0031459Y0099257D01*
X0034439Y0098022D01*
X0037665Y0098022D01*
X0040645Y0099257D01*
X0042926Y0101538D01*
X0044161Y0104518D01*
X0044161Y0107744D01*
X0042926Y0110724D01*
X0040645Y0113005D01*
X0037665Y0114239D01*
X0034439Y0114239D01*
X0030551Y0112097D02*
X0017548Y0112097D01*
X0017548Y0110499D02*
X0029085Y0110499D01*
X0028422Y0108900D02*
X0017548Y0108900D01*
X0017548Y0107302D02*
X0027943Y0107302D01*
X0027943Y0105703D02*
X0017548Y0105703D01*
X0017548Y0104105D02*
X0028114Y0104105D01*
X0028777Y0102506D02*
X0017548Y0102506D01*
X0017548Y0100908D02*
X0029808Y0100908D01*
X0031406Y0099309D02*
X0017548Y0099309D01*
X0017548Y0097711D02*
X0084826Y0097711D01*
X0084211Y0099309D02*
X0040698Y0099309D01*
X0042296Y0100908D02*
X0084315Y0100908D01*
X0084211Y0102506D02*
X0043327Y0102506D01*
X0043990Y0104105D02*
X0084521Y0104105D01*
X0085740Y0105703D02*
X0044161Y0105703D01*
X0044161Y0107302D02*
X0085135Y0107302D01*
X0084271Y0108900D02*
X0043682Y0108900D01*
X0043019Y0110499D02*
X0084211Y0110499D01*
X0084211Y0112097D02*
X0041553Y0112097D01*
X0038977Y0113696D02*
X0084518Y0113696D01*
X0075148Y0125645D02*
X0076380Y0126877D01*
X0077047Y0128488D01*
X0077047Y0130231D01*
X0076380Y0131841D01*
X0075148Y0133073D01*
X0073538Y0133740D01*
X0071795Y0133740D01*
X0070184Y0133073D01*
X0068952Y0131841D01*
X0068285Y0130231D01*
X0068285Y0128488D01*
X0068952Y0126877D01*
X0070184Y0125645D01*
X0071795Y0124978D01*
X0073538Y0124978D01*
X0075148Y0125645D01*
X0075987Y0126484D02*
X0229737Y0126484D01*
X0229582Y0126329D02*
X0228915Y0124719D01*
X0228915Y0122976D01*
X0229582Y0121366D01*
X0230814Y0120133D01*
X0232425Y0119466D01*
X0234168Y0119466D01*
X0235778Y0120133D01*
X0237010Y0121366D01*
X0237677Y0122976D01*
X0237677Y0124719D01*
X0237010Y0126329D01*
X0235778Y0127561D01*
X0234168Y0128228D01*
X0232425Y0128228D01*
X0230814Y0127561D01*
X0229582Y0126329D01*
X0228984Y0124885D02*
X0152745Y0124885D01*
X0152278Y0125079D02*
X0150535Y0125079D01*
X0148925Y0124412D01*
X0147692Y0123179D01*
X0147025Y0121569D01*
X0147025Y0119826D01*
X0147692Y0118216D01*
X0148925Y0116984D01*
X0150535Y0116317D01*
X0152278Y0116317D01*
X0153888Y0116984D01*
X0155120Y0118216D01*
X0155787Y0119826D01*
X0155787Y0121569D01*
X0155120Y0123179D01*
X0153888Y0124412D01*
X0152278Y0125079D01*
X0150068Y0124885D02*
X0141097Y0124885D01*
X0141290Y0124805D02*
X0139679Y0125472D01*
X0137936Y0125472D01*
X0136326Y0124805D01*
X0135094Y0123573D01*
X0134427Y0121963D01*
X0134427Y0120220D01*
X0135094Y0118610D01*
X0136326Y0117377D01*
X0137936Y0116710D01*
X0139679Y0116710D01*
X0141290Y0117377D01*
X0142522Y0118610D01*
X0143189Y0120220D01*
X0143189Y0121963D01*
X0142522Y0123573D01*
X0141290Y0124805D01*
X0142641Y0123287D02*
X0147800Y0123287D01*
X0147075Y0121688D02*
X0143189Y0121688D01*
X0143135Y0120090D02*
X0147025Y0120090D01*
X0147578Y0118491D02*
X0142404Y0118491D01*
X0140120Y0116893D02*
X0149144Y0116893D01*
X0153669Y0116893D02*
X0299746Y0116893D01*
X0299374Y0118491D02*
X0155234Y0118491D01*
X0155787Y0120090D02*
X0230919Y0120090D01*
X0229448Y0121688D02*
X0155738Y0121688D01*
X0155013Y0123287D02*
X0228915Y0123287D01*
X0232072Y0128082D02*
X0098064Y0128082D01*
X0098699Y0129681D02*
X0231132Y0129681D01*
X0230421Y0129976D02*
X0232031Y0129309D01*
X0233774Y0129309D01*
X0235384Y0129976D01*
X0236616Y0131208D01*
X0237283Y0132818D01*
X0237283Y0134561D01*
X0236616Y0136171D01*
X0235384Y0137404D01*
X0233774Y0138071D01*
X0232031Y0138071D01*
X0230421Y0137404D01*
X0229188Y0136171D01*
X0228521Y0134561D01*
X0228521Y0132818D01*
X0229188Y0131208D01*
X0230421Y0129976D01*
X0229159Y0131279D02*
X0098603Y0131279D01*
X0098060Y0132878D02*
X0228521Y0132878D01*
X0228521Y0134476D02*
X0098699Y0134476D01*
X0098605Y0136075D02*
X0229148Y0136075D01*
X0231072Y0137673D02*
X0098055Y0137673D01*
X0098699Y0139272D02*
X0284810Y0139272D01*
X0284982Y0137673D02*
X0234733Y0137673D01*
X0236656Y0136075D02*
X0285339Y0136075D01*
X0284810Y0134476D02*
X0237283Y0134476D01*
X0237283Y0132878D02*
X0284980Y0132878D01*
X0285341Y0131279D02*
X0236646Y0131279D01*
X0234672Y0129681D02*
X0284810Y0129681D01*
X0284978Y0128082D02*
X0234520Y0128082D01*
X0236855Y0126484D02*
X0285342Y0126484D01*
X0284810Y0124885D02*
X0237608Y0124885D01*
X0237677Y0123287D02*
X0284976Y0123287D01*
X0285991Y0121688D02*
X0237144Y0121688D01*
X0235673Y0120090D02*
X0299210Y0120090D01*
X0299210Y0115294D02*
X0203482Y0115294D01*
X0205528Y0113696D02*
X0299372Y0113696D01*
X0299748Y0112097D02*
X0206181Y0112097D01*
X0206181Y0110499D02*
X0299210Y0110499D01*
X0299371Y0108900D02*
X0205569Y0108900D01*
X0203719Y0107302D02*
X0211621Y0107302D01*
X0210555Y0102506D02*
X0206108Y0102506D01*
X0207345Y0100908D02*
X0211735Y0100908D01*
X0207756Y0099309D02*
X0220829Y0099309D01*
X0220647Y0100908D02*
X0217061Y0100908D01*
X0218241Y0102506D02*
X0221068Y0102506D01*
X0222318Y0104105D02*
X0218583Y0104105D01*
X0221741Y0097711D02*
X0207565Y0097711D01*
X0206639Y0096112D02*
X0229702Y0096112D01*
X0230076Y0094514D02*
X0100295Y0094514D01*
X0100669Y0096112D02*
X0200111Y0096112D01*
X0199185Y0097711D02*
X0100441Y0097711D01*
X0099463Y0099309D02*
X0198994Y0099309D01*
X0197898Y0072134D02*
X0231571Y0072134D01*
X0230303Y0070536D02*
X0198639Y0070536D01*
X0198701Y0068937D02*
X0229899Y0068937D01*
X0230130Y0067339D02*
X0198160Y0067339D01*
X0196652Y0065740D02*
X0205757Y0065740D01*
X0203615Y0064142D02*
X0181077Y0064142D01*
X0180624Y0063954D02*
X0182234Y0064621D01*
X0183467Y0065854D01*
X0184134Y0067464D01*
X0184134Y0069207D01*
X0183467Y0070817D01*
X0182234Y0072050D01*
X0180624Y0072717D01*
X0178881Y0072717D01*
X0177271Y0072050D01*
X0176039Y0070817D01*
X0175372Y0069207D01*
X0175372Y0067464D01*
X0176039Y0065854D01*
X0177271Y0064621D01*
X0178881Y0063954D01*
X0180624Y0063954D01*
X0178428Y0064142D02*
X0124912Y0064142D01*
X0125472Y0065740D02*
X0176152Y0065740D01*
X0175423Y0067339D02*
X0170955Y0067339D01*
X0173165Y0068937D02*
X0175372Y0068937D01*
X0175922Y0070536D02*
X0173865Y0070536D01*
X0173898Y0072134D02*
X0177476Y0072134D01*
X0182029Y0072134D02*
X0190742Y0072134D01*
X0190000Y0070536D02*
X0183583Y0070536D01*
X0184134Y0068937D02*
X0189939Y0068937D01*
X0190480Y0067339D02*
X0184082Y0067339D01*
X0183354Y0065740D02*
X0191988Y0065740D01*
X0193447Y0056149D02*
X0277340Y0056149D01*
X0277355Y0057748D02*
X0209358Y0057748D01*
X0211103Y0059346D02*
X0278117Y0059346D01*
X0278056Y0054551D02*
X0193583Y0054551D01*
X0202931Y0060945D02*
X0123654Y0060945D01*
X0123309Y0062543D02*
X0202943Y0062543D01*
X0208867Y0065740D02*
X0231155Y0065740D01*
X0237012Y0065740D02*
X0247025Y0065740D01*
X0247067Y0067339D02*
X0238037Y0067339D01*
X0238268Y0068937D02*
X0247781Y0068937D01*
X0247586Y0064142D02*
X0211008Y0064142D01*
X0231261Y0092915D02*
X0099111Y0092915D01*
X0122475Y0070536D02*
X0129734Y0070536D01*
X0130435Y0068937D02*
X0124717Y0068937D01*
X0125431Y0067339D02*
X0132645Y0067339D01*
X0135522Y0067339D02*
X0168078Y0067339D01*
X0165868Y0068937D02*
X0137732Y0068937D01*
X0138432Y0070536D02*
X0165168Y0070536D01*
X0165135Y0072134D02*
X0138465Y0072134D01*
X0137894Y0073733D02*
X0165706Y0073733D01*
X0167354Y0075332D02*
X0136246Y0075332D01*
X0131921Y0075332D02*
X0017548Y0075332D01*
X0017548Y0076930D02*
X0415274Y0076930D01*
X0415274Y0075332D02*
X0303696Y0075332D01*
X0304731Y0073733D02*
X0415274Y0073733D01*
X0415274Y0072134D02*
X0304910Y0072134D01*
X0304392Y0070536D02*
X0415274Y0070536D01*
X0415274Y0068937D02*
X0304729Y0068937D01*
X0304910Y0067339D02*
X0415274Y0067339D01*
X0415274Y0065740D02*
X0304394Y0065740D01*
X0304727Y0064142D02*
X0415274Y0064142D01*
X0415274Y0062543D02*
X0304910Y0062543D01*
X0304396Y0060945D02*
X0415274Y0060945D01*
X0410811Y0040164D02*
X0305506Y0040164D01*
X0306494Y0038566D02*
X0410811Y0038566D01*
X0410811Y0036967D02*
X0306729Y0036967D01*
X0306362Y0035369D02*
X0410811Y0035369D01*
X0410811Y0033770D02*
X0305188Y0033770D01*
X0308476Y0030573D02*
X0234258Y0030573D01*
X0234920Y0028975D02*
X0306877Y0028975D01*
X0306737Y0028834D02*
X0305502Y0025854D01*
X0305502Y0022628D01*
X0306737Y0019648D01*
X0309018Y0017367D01*
X0311998Y0016132D01*
X0315224Y0016132D01*
X0318204Y0017367D01*
X0320485Y0019648D01*
X0321720Y0022628D01*
X0321720Y0025854D01*
X0320485Y0028834D01*
X0318204Y0031115D01*
X0315224Y0032350D01*
X0311998Y0032350D01*
X0309018Y0031115D01*
X0306737Y0028834D01*
X0306133Y0027376D02*
X0234939Y0027376D01*
X0234639Y0025778D02*
X0305502Y0025778D01*
X0305502Y0024179D02*
X0233930Y0024179D01*
X0232332Y0022581D02*
X0305522Y0022581D01*
X0306184Y0020982D02*
X0126550Y0020982D01*
X0125733Y0019384D02*
X0307001Y0019384D01*
X0308599Y0017785D02*
X0124134Y0017785D01*
X0120867Y0016187D02*
X0311867Y0016187D01*
X0315355Y0016187D02*
X0410811Y0016187D01*
X0410811Y0017785D02*
X0318623Y0017785D01*
X0320221Y0019384D02*
X0410811Y0019384D01*
X0410811Y0020982D02*
X0321038Y0020982D01*
X0321700Y0022581D02*
X0342146Y0022581D01*
X0341787Y0022940D02*
X0343019Y0021708D01*
X0344629Y0021041D01*
X0346372Y0021041D01*
X0347982Y0021708D01*
X0349215Y0022940D01*
X0349882Y0024551D01*
X0349882Y0026294D01*
X0349215Y0027904D01*
X0347982Y0029136D01*
X0346372Y0029803D01*
X0344629Y0029803D01*
X0343019Y0029136D01*
X0341787Y0027904D01*
X0341120Y0026294D01*
X0341120Y0024551D01*
X0341787Y0022940D01*
X0341274Y0024179D02*
X0321720Y0024179D01*
X0321720Y0025778D02*
X0341120Y0025778D01*
X0341568Y0027376D02*
X0321089Y0027376D01*
X0320345Y0028975D02*
X0342858Y0028975D01*
X0348144Y0028975D02*
X0356637Y0028975D01*
X0356799Y0029136D02*
X0355566Y0027904D01*
X0354899Y0026294D01*
X0354899Y0024551D01*
X0355566Y0022940D01*
X0356799Y0021708D01*
X0358409Y0021041D01*
X0360152Y0021041D01*
X0361762Y0021708D01*
X0362994Y0022940D01*
X0363661Y0024551D01*
X0363661Y0026294D01*
X0362994Y0027904D01*
X0361762Y0029136D01*
X0360152Y0029803D01*
X0358409Y0029803D01*
X0356799Y0029136D01*
X0355348Y0027376D02*
X0349433Y0027376D01*
X0349882Y0025778D02*
X0354899Y0025778D01*
X0355053Y0024179D02*
X0349728Y0024179D01*
X0348855Y0022581D02*
X0355926Y0022581D01*
X0361923Y0028975D02*
X0410811Y0028975D01*
X0410811Y0030573D02*
X0318746Y0030573D01*
X0315653Y0032172D02*
X0410811Y0032172D01*
X0410811Y0027376D02*
X0363213Y0027376D01*
X0363661Y0025778D02*
X0410811Y0025778D01*
X0410811Y0024179D02*
X0363508Y0024179D01*
X0362635Y0022581D02*
X0410811Y0022581D01*
X0410811Y0014588D02*
X0022011Y0014588D01*
X0022011Y0012990D02*
X0410811Y0012990D01*
X0410811Y0011391D02*
X0022011Y0011391D01*
X0022011Y0016187D02*
X0117379Y0016187D01*
X0114111Y0017785D02*
X0022011Y0017785D01*
X0022011Y0019384D02*
X0112513Y0019384D01*
X0111696Y0020982D02*
X0022011Y0020982D01*
X0022011Y0022581D02*
X0111034Y0022581D01*
X0111014Y0024179D02*
X0022011Y0024179D01*
X0022011Y0025778D02*
X0111014Y0025778D01*
X0111645Y0027376D02*
X0022011Y0027376D01*
X0022011Y0028975D02*
X0112389Y0028975D01*
X0113988Y0030573D02*
X0073474Y0030573D01*
X0067978Y0030573D02*
X0022011Y0030573D01*
X0022011Y0032172D02*
X0045164Y0032172D01*
X0043565Y0033770D02*
X0022011Y0033770D01*
X0022011Y0035369D02*
X0041967Y0035369D01*
X0041881Y0036967D02*
X0022011Y0036967D01*
X0022011Y0038566D02*
X0041881Y0038566D01*
X0041881Y0040164D02*
X0022011Y0040164D01*
X0022011Y0041763D02*
X0043136Y0041763D01*
X0043974Y0043361D02*
X0022011Y0043361D01*
X0022011Y0044960D02*
X0042376Y0044960D01*
X0041881Y0046558D02*
X0022011Y0046558D01*
X0022011Y0048157D02*
X0041881Y0048157D01*
X0041881Y0049755D02*
X0017548Y0049755D01*
X0017548Y0051354D02*
X0042727Y0051354D01*
X0044326Y0052952D02*
X0017548Y0052952D01*
X0017548Y0054551D02*
X0042785Y0054551D01*
X0041881Y0056149D02*
X0017548Y0056149D01*
X0017548Y0057748D02*
X0041881Y0057748D01*
X0041881Y0059346D02*
X0017548Y0059346D01*
X0017548Y0060945D02*
X0042318Y0060945D01*
X0043917Y0062543D02*
X0017548Y0062543D01*
X0017548Y0064142D02*
X0043194Y0064142D01*
X0041881Y0065740D02*
X0017548Y0065740D01*
X0017548Y0067339D02*
X0041881Y0067339D01*
X0041881Y0068937D02*
X0017548Y0068937D01*
X0017548Y0070536D02*
X0041909Y0070536D01*
X0043508Y0072134D02*
X0017548Y0072134D01*
X0017548Y0073733D02*
X0045106Y0073733D01*
X0046346Y0078529D02*
X0017548Y0078529D01*
X0017548Y0080127D02*
X0044945Y0080127D01*
X0044562Y0081726D02*
X0017548Y0081726D01*
X0017548Y0083324D02*
X0044878Y0083324D01*
X0046104Y0084923D02*
X0017548Y0084923D01*
X0017548Y0086521D02*
X0285162Y0086521D01*
X0285250Y0084923D02*
X0054220Y0084923D01*
X0055447Y0083324D02*
X0286155Y0083324D01*
X0285816Y0088120D02*
X0017548Y0088120D01*
X0017548Y0089718D02*
X0285252Y0089718D01*
X0285337Y0140870D02*
X0098607Y0140870D01*
X0098609Y0145666D02*
X0415274Y0145666D01*
X0415274Y0147265D02*
X0098046Y0147265D01*
X0098699Y0148863D02*
X0415274Y0148863D01*
X0415274Y0150462D02*
X0098610Y0150462D01*
X0098042Y0152060D02*
X0415274Y0152060D01*
X0415274Y0153659D02*
X0098699Y0153659D01*
X0098612Y0155257D02*
X0415274Y0155257D01*
X0415274Y0156856D02*
X0097709Y0156856D01*
X0098055Y0164891D02*
X0096543Y0164891D01*
X0095147Y0165470D01*
X0094899Y0165717D01*
X0094652Y0165470D01*
X0093255Y0164891D01*
X0091743Y0164891D01*
X0090347Y0165470D01*
X0090099Y0165717D01*
X0089852Y0165470D01*
X0088455Y0164891D01*
X0086943Y0164891D01*
X0085547Y0165470D01*
X0085299Y0165717D01*
X0085052Y0165470D01*
X0083655Y0164891D01*
X0082143Y0164891D01*
X0080747Y0165470D01*
X0079678Y0166539D01*
X0079099Y0167935D01*
X0079099Y0169447D01*
X0079678Y0170844D01*
X0079925Y0171091D01*
X0079678Y0171339D01*
X0079099Y0172735D01*
X0079099Y0174247D01*
X0079678Y0175644D01*
X0079925Y0175891D01*
X0079678Y0176139D01*
X0079099Y0177535D01*
X0079099Y0179047D01*
X0079678Y0180444D01*
X0079925Y0180691D01*
X0079678Y0180939D01*
X0079099Y0182335D01*
X0079099Y0183847D01*
X0079678Y0185244D01*
X0080747Y0186313D01*
X0082143Y0186891D01*
X0083655Y0186891D01*
X0085052Y0186313D01*
X0085299Y0186065D01*
X0085547Y0186313D01*
X0086943Y0186891D01*
X0088455Y0186891D01*
X0089852Y0186313D01*
X0090099Y0186065D01*
X0090347Y0186313D01*
X0091743Y0186891D01*
X0093255Y0186891D01*
X0093672Y0186719D01*
X0093499Y0187135D01*
X0093499Y0188647D01*
X0094078Y0190044D01*
X0094325Y0190291D01*
X0094078Y0190539D01*
X0093499Y0191935D01*
X0093499Y0193447D01*
X0094078Y0194844D01*
X0094325Y0195091D01*
X0094078Y0195339D01*
X0093499Y0196735D01*
X0093499Y0198247D01*
X0094078Y0199644D01*
X0094325Y0199891D01*
X0094078Y0200139D01*
X0093499Y0201535D01*
X0093499Y0203047D01*
X0093672Y0203464D01*
X0093255Y0203291D01*
X0091743Y0203291D01*
X0090347Y0203870D01*
X0090099Y0204117D01*
X0089852Y0203870D01*
X0088455Y0203291D01*
X0086943Y0203291D01*
X0085547Y0203870D01*
X0085299Y0204117D01*
X0085052Y0203870D01*
X0083655Y0203291D01*
X0082143Y0203291D01*
X0080747Y0203870D01*
X0079678Y0204939D01*
X0079099Y0206335D01*
X0079099Y0207847D01*
X0079678Y0209244D01*
X0079925Y0209491D01*
X0079678Y0209739D01*
X0079099Y0211135D01*
X0079099Y0212647D01*
X0079678Y0214044D01*
X0079925Y0214291D01*
X0079678Y0214539D01*
X0079099Y0215935D01*
X0079099Y0217447D01*
X0079678Y0218844D01*
X0079925Y0219091D01*
X0079678Y0219339D01*
X0079099Y0220735D01*
X0079099Y0222247D01*
X0079678Y0223644D01*
X0080747Y0224713D01*
X0082143Y0225291D01*
X0083655Y0225291D01*
X0085052Y0224713D01*
X0085299Y0224465D01*
X0085547Y0224713D01*
X0086943Y0225291D01*
X0088455Y0225291D01*
X0089852Y0224713D01*
X0090099Y0224465D01*
X0090347Y0224713D01*
X0091743Y0225291D01*
X0093255Y0225291D01*
X0094652Y0224713D01*
X0094899Y0224465D01*
X0095147Y0224713D01*
X0096543Y0225291D01*
X0098055Y0225291D01*
X0099452Y0224713D01*
X0099699Y0224465D01*
X0099947Y0224713D01*
X0101343Y0225291D01*
X0102855Y0225291D01*
X0104252Y0224713D01*
X0104499Y0224465D01*
X0104747Y0224713D01*
X0106143Y0225291D01*
X0107655Y0225291D01*
X0109052Y0224713D01*
X0110121Y0223644D01*
X0110699Y0222247D01*
X0110699Y0220735D01*
X0110121Y0219339D01*
X0109873Y0219091D01*
X0110121Y0218844D01*
X0110699Y0217447D01*
X0110699Y0215935D01*
X0110121Y0214539D01*
X0109873Y0214291D01*
X0110121Y0214044D01*
X0110699Y0212647D01*
X0110699Y0211135D01*
X0110121Y0209739D01*
X0109873Y0209491D01*
X0110121Y0209244D01*
X0110699Y0207847D01*
X0110699Y0206335D01*
X0110121Y0204939D01*
X0109873Y0204691D01*
X0110121Y0204444D01*
X0110699Y0203047D01*
X0110699Y0201535D01*
X0110121Y0200139D01*
X0109873Y0199891D01*
X0110121Y0199644D01*
X0110699Y0198247D01*
X0110699Y0196735D01*
X0110121Y0195339D01*
X0109873Y0195091D01*
X0110121Y0194844D01*
X0110699Y0193447D01*
X0110699Y0191935D01*
X0110121Y0190539D01*
X0109873Y0190291D01*
X0110121Y0190044D01*
X0110699Y0188647D01*
X0110699Y0187135D01*
X0110121Y0185739D01*
X0109873Y0185491D01*
X0110121Y0185244D01*
X0110699Y0183847D01*
X0110699Y0182335D01*
X0110121Y0180939D01*
X0109873Y0180691D01*
X0110121Y0180444D01*
X0110699Y0179047D01*
X0110699Y0177535D01*
X0110121Y0176139D01*
X0109052Y0175070D01*
X0107655Y0174491D01*
X0106143Y0174491D01*
X0105727Y0174664D01*
X0105899Y0174247D01*
X0105899Y0172735D01*
X0105321Y0171339D01*
X0104252Y0170270D01*
X0102855Y0169691D01*
X0101343Y0169691D01*
X0100927Y0169864D01*
X0101099Y0169447D01*
X0101099Y0167935D01*
X0100521Y0166539D01*
X0099452Y0165470D01*
X0098055Y0164891D01*
X0100429Y0166447D02*
X0415274Y0166447D01*
X0415274Y0168045D02*
X0101099Y0168045D01*
X0101018Y0169644D02*
X0415274Y0169644D01*
X0415274Y0171242D02*
X0105224Y0171242D01*
X0105899Y0172841D02*
X0415274Y0172841D01*
X0415274Y0174439D02*
X0105820Y0174439D01*
X0110020Y0176038D02*
X0415274Y0176038D01*
X0415274Y0177636D02*
X0110699Y0177636D01*
X0110622Y0179235D02*
X0415274Y0179235D01*
X0415274Y0180833D02*
X0110015Y0180833D01*
X0110699Y0182432D02*
X0415274Y0182432D01*
X0415274Y0184030D02*
X0110623Y0184030D01*
X0110011Y0185629D02*
X0415274Y0185629D01*
X0415274Y0187227D02*
X0110699Y0187227D01*
X0110625Y0188826D02*
X0415274Y0188826D01*
X0415274Y0190424D02*
X0110006Y0190424D01*
X0110699Y0192023D02*
X0153494Y0192023D01*
X0153847Y0191670D02*
X0152778Y0192739D01*
X0152199Y0194135D01*
X0152199Y0195647D01*
X0152778Y0197044D01*
X0153025Y0197291D01*
X0152778Y0197539D01*
X0152199Y0198935D01*
X0152199Y0200447D01*
X0152778Y0201844D01*
X0153025Y0202091D01*
X0152778Y0202339D01*
X0152199Y0203735D01*
X0152199Y0205247D01*
X0152778Y0206644D01*
X0153025Y0206891D01*
X0152778Y0207139D01*
X0152199Y0208535D01*
X0152199Y0210047D01*
X0152778Y0211444D01*
X0153847Y0212513D01*
X0155243Y0213091D01*
X0156755Y0213091D01*
X0158152Y0212513D01*
X0158399Y0212265D01*
X0158647Y0212513D01*
X0160043Y0213091D01*
X0161555Y0213091D01*
X0162952Y0212513D01*
X0163199Y0212265D01*
X0163447Y0212513D01*
X0164843Y0213091D01*
X0166355Y0213091D01*
X0167752Y0212513D01*
X0167999Y0212265D01*
X0168247Y0212513D01*
X0169643Y0213091D01*
X0171155Y0213091D01*
X0172552Y0212513D01*
X0172799Y0212265D01*
X0173047Y0212513D01*
X0174443Y0213091D01*
X0175955Y0213091D01*
X0177352Y0212513D01*
X0177599Y0212265D01*
X0177847Y0212513D01*
X0179243Y0213091D01*
X0180755Y0213091D01*
X0182152Y0212513D01*
X0183221Y0211444D01*
X0183799Y0210047D01*
X0183799Y0208535D01*
X0183221Y0207139D01*
X0182973Y0206891D01*
X0183221Y0206644D01*
X0183799Y0205247D01*
X0183799Y0203735D01*
X0183221Y0202339D01*
X0182973Y0202091D01*
X0183221Y0201844D01*
X0183799Y0200447D01*
X0183799Y0198935D01*
X0183221Y0197539D01*
X0182973Y0197291D01*
X0183221Y0197044D01*
X0183799Y0195647D01*
X0183799Y0194135D01*
X0183221Y0192739D01*
X0182152Y0191670D01*
X0180755Y0191091D01*
X0179243Y0191091D01*
X0177847Y0191670D01*
X0177599Y0191917D01*
X0177352Y0191670D01*
X0175955Y0191091D01*
X0174443Y0191091D01*
X0173047Y0191670D01*
X0172799Y0191917D01*
X0172552Y0191670D01*
X0171155Y0191091D01*
X0169643Y0191091D01*
X0168247Y0191670D01*
X0167999Y0191917D01*
X0167752Y0191670D01*
X0166355Y0191091D01*
X0164843Y0191091D01*
X0163447Y0191670D01*
X0163199Y0191917D01*
X0162952Y0191670D01*
X0161555Y0191091D01*
X0160043Y0191091D01*
X0158647Y0191670D01*
X0158399Y0191917D01*
X0158152Y0191670D01*
X0156755Y0191091D01*
X0155243Y0191091D01*
X0153847Y0191670D01*
X0152412Y0193621D02*
X0110627Y0193621D01*
X0110002Y0195220D02*
X0152199Y0195220D01*
X0152684Y0196818D02*
X0110699Y0196818D01*
X0110629Y0198417D02*
X0152414Y0198417D01*
X0152199Y0200015D02*
X0109997Y0200015D01*
X0110699Y0201614D02*
X0152682Y0201614D01*
X0152416Y0203212D02*
X0110631Y0203212D01*
X0109993Y0204811D02*
X0152199Y0204811D01*
X0152681Y0206409D02*
X0110699Y0206409D01*
X0110633Y0208008D02*
X0152418Y0208008D01*
X0152199Y0209606D02*
X0109988Y0209606D01*
X0110699Y0211205D02*
X0152679Y0211205D01*
X0154548Y0212803D02*
X0110634Y0212803D01*
X0109984Y0214402D02*
X0362102Y0214402D01*
X0361653Y0213953D02*
X0362721Y0215021D01*
X0364118Y0215600D01*
X0365630Y0215600D01*
X0367027Y0215021D01*
X0367274Y0214774D01*
X0367521Y0215021D01*
X0368918Y0215600D01*
X0370430Y0215600D01*
X0370847Y0215427D01*
X0370674Y0215844D01*
X0370674Y0217356D01*
X0371253Y0218753D01*
X0371500Y0219000D01*
X0371253Y0219247D01*
X0370674Y0220644D01*
X0370674Y0222156D01*
X0371253Y0223553D01*
X0371500Y0223800D01*
X0371253Y0224047D01*
X0370674Y0225444D01*
X0370674Y0226956D01*
X0371253Y0228353D01*
X0371500Y0228600D01*
X0371253Y0228847D01*
X0370674Y0230244D01*
X0370674Y0231756D01*
X0371253Y0233153D01*
X0371500Y0233400D01*
X0371253Y0233647D01*
X0370674Y0235044D01*
X0370674Y0236556D01*
X0371253Y0237953D01*
X0371500Y0238200D01*
X0371253Y0238447D01*
X0370674Y0239844D01*
X0370674Y0241356D01*
X0371253Y0242753D01*
X0371500Y0243000D01*
X0371253Y0243247D01*
X0370674Y0244644D01*
X0370674Y0246156D01*
X0371253Y0247553D01*
X0371500Y0247800D01*
X0371253Y0248047D01*
X0370674Y0249444D01*
X0370674Y0250956D01*
X0371253Y0252353D01*
X0371500Y0252600D01*
X0371253Y0252847D01*
X0370674Y0254244D01*
X0370674Y0255756D01*
X0371253Y0257153D01*
X0371500Y0257400D01*
X0371253Y0257647D01*
X0370674Y0259044D01*
X0370674Y0260556D01*
X0371253Y0261953D01*
X0371500Y0262200D01*
X0371253Y0262447D01*
X0370674Y0263844D01*
X0370674Y0265356D01*
X0371253Y0266753D01*
X0371500Y0267000D01*
X0371253Y0267247D01*
X0370674Y0268644D01*
X0370674Y0270156D01*
X0371253Y0271553D01*
X0372321Y0272621D01*
X0373718Y0273200D01*
X0375230Y0273200D01*
X0375647Y0273027D01*
X0375474Y0273444D01*
X0375474Y0274956D01*
X0376053Y0276353D01*
X0376300Y0276600D01*
X0376053Y0276847D01*
X0375474Y0278244D01*
X0375474Y0279756D01*
X0376053Y0281153D01*
X0377121Y0282221D01*
X0378518Y0282800D01*
X0380030Y0282800D01*
X0381427Y0282221D01*
X0381674Y0281974D01*
X0381921Y0282221D01*
X0383318Y0282800D01*
X0384830Y0282800D01*
X0386227Y0282221D01*
X0387295Y0281153D01*
X0387874Y0279756D01*
X0387874Y0278244D01*
X0387295Y0276847D01*
X0387048Y0276600D01*
X0387295Y0276353D01*
X0387874Y0274956D01*
X0387874Y0273444D01*
X0387295Y0272047D01*
X0387048Y0271800D01*
X0387295Y0271553D01*
X0387874Y0270156D01*
X0387874Y0268644D01*
X0387295Y0267247D01*
X0387048Y0267000D01*
X0387295Y0266753D01*
X0387874Y0265356D01*
X0387874Y0263844D01*
X0387295Y0262447D01*
X0387048Y0262200D01*
X0387295Y0261953D01*
X0387874Y0260556D01*
X0387874Y0259044D01*
X0387295Y0257647D01*
X0387048Y0257400D01*
X0387295Y0257153D01*
X0387874Y0255756D01*
X0387874Y0254244D01*
X0387295Y0252847D01*
X0387048Y0252600D01*
X0387295Y0252353D01*
X0387874Y0250956D01*
X0387874Y0249444D01*
X0387295Y0248047D01*
X0387048Y0247800D01*
X0387295Y0247553D01*
X0387874Y0246156D01*
X0387874Y0244644D01*
X0387295Y0243247D01*
X0387048Y0243000D01*
X0387295Y0242753D01*
X0387874Y0241356D01*
X0387874Y0239844D01*
X0387295Y0238447D01*
X0387048Y0238200D01*
X0387295Y0237953D01*
X0387874Y0236556D01*
X0387874Y0235044D01*
X0387295Y0233647D01*
X0387048Y0233400D01*
X0387295Y0233153D01*
X0387874Y0231756D01*
X0387874Y0230244D01*
X0387295Y0228847D01*
X0387048Y0228600D01*
X0387295Y0228353D01*
X0387874Y0226956D01*
X0387874Y0225444D01*
X0387295Y0224047D01*
X0387048Y0223800D01*
X0387295Y0223553D01*
X0387874Y0222156D01*
X0387874Y0220644D01*
X0387295Y0219247D01*
X0387048Y0219000D01*
X0387295Y0218753D01*
X0387874Y0217356D01*
X0387874Y0215844D01*
X0387295Y0214447D01*
X0387048Y0214200D01*
X0387295Y0213953D01*
X0387874Y0212556D01*
X0387874Y0211044D01*
X0387295Y0209647D01*
X0387048Y0209400D01*
X0387295Y0209153D01*
X0387874Y0207756D01*
X0387874Y0206244D01*
X0387295Y0204847D01*
X0387048Y0204600D01*
X0387295Y0204353D01*
X0387874Y0202956D01*
X0387874Y0201444D01*
X0387295Y0200047D01*
X0387048Y0199800D01*
X0387295Y0199553D01*
X0387874Y0198156D01*
X0387874Y0196644D01*
X0387295Y0195247D01*
X0386227Y0194179D01*
X0384830Y0193600D01*
X0383318Y0193600D01*
X0381921Y0194179D01*
X0381674Y0194426D01*
X0381427Y0194179D01*
X0380030Y0193600D01*
X0378518Y0193600D01*
X0377121Y0194179D01*
X0376053Y0195247D01*
X0375474Y0196644D01*
X0375474Y0198156D01*
X0376053Y0199553D01*
X0376300Y0199800D01*
X0376053Y0200047D01*
X0375474Y0201444D01*
X0375474Y0202956D01*
X0375647Y0203373D01*
X0375230Y0203200D01*
X0373718Y0203200D01*
X0372321Y0203779D01*
X0372074Y0204026D01*
X0371827Y0203779D01*
X0370430Y0203200D01*
X0368918Y0203200D01*
X0367521Y0203779D01*
X0367274Y0204026D01*
X0367027Y0203779D01*
X0365630Y0203200D01*
X0364118Y0203200D01*
X0362721Y0203779D01*
X0361653Y0204847D01*
X0361074Y0206244D01*
X0361074Y0207756D01*
X0361653Y0209153D01*
X0361900Y0209400D01*
X0361653Y0209647D01*
X0361074Y0211044D01*
X0361074Y0212556D01*
X0361653Y0213953D01*
X0361177Y0212803D02*
X0181450Y0212803D01*
X0183320Y0211205D02*
X0361074Y0211205D01*
X0361694Y0209606D02*
X0183799Y0209606D01*
X0183581Y0208008D02*
X0361178Y0208008D01*
X0361074Y0206409D02*
X0338667Y0206409D01*
X0338927Y0206302D02*
X0337317Y0206968D01*
X0335574Y0206968D01*
X0333964Y0206302D01*
X0332732Y0205069D01*
X0332065Y0203459D01*
X0332065Y0201716D01*
X0332732Y0200106D01*
X0333964Y0198873D01*
X0335574Y0198206D01*
X0337317Y0198206D01*
X0338927Y0198873D01*
X0340160Y0200106D01*
X0340827Y0201716D01*
X0340827Y0203459D01*
X0340160Y0205069D01*
X0338927Y0206302D01*
X0340267Y0204811D02*
X0361689Y0204811D01*
X0364088Y0203212D02*
X0340827Y0203212D01*
X0340784Y0201614D02*
X0375474Y0201614D01*
X0375580Y0203212D02*
X0375260Y0203212D01*
X0373688Y0203212D02*
X0370460Y0203212D01*
X0368888Y0203212D02*
X0365660Y0203212D01*
X0376085Y0200015D02*
X0340069Y0200015D01*
X0337826Y0198417D02*
X0375582Y0198417D01*
X0375474Y0196818D02*
X0183314Y0196818D01*
X0183584Y0198417D02*
X0335066Y0198417D01*
X0332822Y0200015D02*
X0183799Y0200015D01*
X0183316Y0201614D02*
X0332107Y0201614D01*
X0332065Y0203212D02*
X0183583Y0203212D01*
X0183799Y0204811D02*
X0332625Y0204811D01*
X0334225Y0206409D02*
X0183318Y0206409D01*
X0178548Y0212803D02*
X0176650Y0212803D01*
X0173748Y0212803D02*
X0171850Y0212803D01*
X0168948Y0212803D02*
X0167050Y0212803D01*
X0164148Y0212803D02*
X0162250Y0212803D01*
X0159348Y0212803D02*
X0157450Y0212803D01*
X0183799Y0195220D02*
X0376080Y0195220D01*
X0378467Y0193621D02*
X0183586Y0193621D01*
X0182505Y0192023D02*
X0415274Y0192023D01*
X0415274Y0193621D02*
X0384881Y0193621D01*
X0383267Y0193621D02*
X0380081Y0193621D01*
X0387268Y0195220D02*
X0415274Y0195220D01*
X0415274Y0196818D02*
X0387874Y0196818D01*
X0387766Y0198417D02*
X0396362Y0198417D01*
X0395558Y0198750D02*
X0398075Y0197707D01*
X0400800Y0197707D01*
X0403317Y0198750D01*
X0405244Y0200676D01*
X0406287Y0203194D01*
X0406287Y0205918D01*
X0405244Y0208435D01*
X0403317Y0210362D01*
X0400800Y0211405D01*
X0398075Y0211405D01*
X0395558Y0210362D01*
X0393632Y0208435D01*
X0392589Y0205918D01*
X0392589Y0203194D01*
X0393632Y0200676D01*
X0395558Y0198750D01*
X0394293Y0200015D02*
X0387263Y0200015D01*
X0387874Y0201614D02*
X0393243Y0201614D01*
X0392589Y0203212D02*
X0387768Y0203212D01*
X0387259Y0204811D02*
X0392589Y0204811D01*
X0392792Y0206409D02*
X0387874Y0206409D01*
X0387770Y0208008D02*
X0393455Y0208008D01*
X0394803Y0209606D02*
X0387254Y0209606D01*
X0387874Y0211205D02*
X0397593Y0211205D01*
X0401282Y0211205D02*
X0415274Y0211205D01*
X0415274Y0212803D02*
X0387771Y0212803D01*
X0387250Y0214402D02*
X0415274Y0214402D01*
X0415274Y0216001D02*
X0387874Y0216001D01*
X0387773Y0217599D02*
X0415274Y0217599D01*
X0415274Y0219198D02*
X0387246Y0219198D01*
X0387874Y0220796D02*
X0415274Y0220796D01*
X0415274Y0222395D02*
X0387775Y0222395D01*
X0387241Y0223993D02*
X0415274Y0223993D01*
X0415274Y0225592D02*
X0387874Y0225592D01*
X0387777Y0227190D02*
X0415274Y0227190D01*
X0415274Y0228789D02*
X0387237Y0228789D01*
X0387874Y0230387D02*
X0415274Y0230387D01*
X0415274Y0231986D02*
X0387779Y0231986D01*
X0387232Y0233584D02*
X0415274Y0233584D01*
X0415274Y0235183D02*
X0387874Y0235183D01*
X0387781Y0236781D02*
X0415274Y0236781D01*
X0415274Y0238380D02*
X0387228Y0238380D01*
X0387874Y0239978D02*
X0415274Y0239978D01*
X0415274Y0241577D02*
X0387783Y0241577D01*
X0387223Y0243175D02*
X0415274Y0243175D01*
X0415274Y0244774D02*
X0387874Y0244774D01*
X0387784Y0246372D02*
X0415274Y0246372D01*
X0415274Y0247971D02*
X0387219Y0247971D01*
X0387874Y0249569D02*
X0415274Y0249569D01*
X0415274Y0251168D02*
X0387786Y0251168D01*
X0387214Y0252766D02*
X0415274Y0252766D01*
X0415274Y0254365D02*
X0387874Y0254365D01*
X0387788Y0255963D02*
X0415274Y0255963D01*
X0415274Y0257562D02*
X0387210Y0257562D01*
X0387874Y0259160D02*
X0415274Y0259160D01*
X0415274Y0260759D02*
X0387790Y0260759D01*
X0387205Y0262357D02*
X0415274Y0262357D01*
X0415274Y0263956D02*
X0387874Y0263956D01*
X0387792Y0265554D02*
X0415274Y0265554D01*
X0415274Y0267153D02*
X0387201Y0267153D01*
X0387874Y0268751D02*
X0415274Y0268751D01*
X0415274Y0270350D02*
X0387794Y0270350D01*
X0387196Y0271948D02*
X0415274Y0271948D01*
X0415274Y0273547D02*
X0387874Y0273547D01*
X0387795Y0275145D02*
X0415274Y0275145D01*
X0415274Y0276744D02*
X0387192Y0276744D01*
X0387874Y0278342D02*
X0415274Y0278342D01*
X0415274Y0279941D02*
X0387797Y0279941D01*
X0386909Y0281539D02*
X0415274Y0281539D01*
X0415274Y0283138D02*
X0184894Y0283138D01*
X0185179Y0282451D02*
X0184600Y0283848D01*
X0184353Y0284095D01*
X0184600Y0284343D01*
X0185179Y0285739D01*
X0185179Y0287251D01*
X0184600Y0288648D01*
X0184353Y0288895D01*
X0184600Y0289143D01*
X0185179Y0290539D01*
X0185179Y0292051D01*
X0184600Y0293448D01*
X0183531Y0294517D01*
X0182135Y0295095D01*
X0180623Y0295095D01*
X0179226Y0294517D01*
X0178979Y0294269D01*
X0178731Y0294517D01*
X0177335Y0295095D01*
X0175823Y0295095D01*
X0174426Y0294517D01*
X0174179Y0294269D01*
X0173931Y0294517D01*
X0172535Y0295095D01*
X0171023Y0295095D01*
X0169626Y0294517D01*
X0169379Y0294269D01*
X0169131Y0294517D01*
X0167735Y0295095D01*
X0166223Y0295095D01*
X0164826Y0294517D01*
X0164579Y0294269D01*
X0164348Y0294500D01*
X0162951Y0295079D01*
X0161439Y0295079D01*
X0160043Y0294500D01*
X0159795Y0294253D01*
X0159548Y0294500D01*
X0158151Y0295079D01*
X0156639Y0295079D01*
X0155243Y0294500D01*
X0154174Y0293431D01*
X0153595Y0292035D01*
X0153595Y0290523D01*
X0154174Y0289126D01*
X0154421Y0288879D01*
X0154174Y0288631D01*
X0153795Y0287717D01*
X0153417Y0288631D01*
X0152348Y0289700D01*
X0150951Y0290279D01*
X0149439Y0290279D01*
X0148043Y0289700D01*
X0146974Y0288631D01*
X0146395Y0287235D01*
X0146395Y0285723D01*
X0146568Y0285306D01*
X0146151Y0285479D01*
X0144639Y0285479D01*
X0143243Y0284900D01*
X0142174Y0283831D01*
X0141595Y0282435D01*
X0141595Y0280923D01*
X0141768Y0280506D01*
X0141351Y0280679D01*
X0139839Y0280679D01*
X0138443Y0280100D01*
X0137374Y0279031D01*
X0136795Y0277635D01*
X0136795Y0276123D01*
X0136968Y0275706D01*
X0136551Y0275879D01*
X0135039Y0275879D01*
X0133643Y0275300D01*
X0132574Y0274231D01*
X0131995Y0272835D01*
X0131995Y0271323D01*
X0132168Y0270906D01*
X0131751Y0271079D01*
X0130239Y0271079D01*
X0128843Y0270500D01*
X0127774Y0269431D01*
X0127195Y0268035D01*
X0127195Y0266523D01*
X0127774Y0265126D01*
X0128843Y0264057D01*
X0130239Y0263479D01*
X0131751Y0263479D01*
X0133148Y0264057D01*
X0133395Y0264305D01*
X0133643Y0264057D01*
X0135039Y0263479D01*
X0136551Y0263479D01*
X0137948Y0264057D01*
X0138195Y0264305D01*
X0138443Y0264057D01*
X0139839Y0263479D01*
X0141351Y0263479D01*
X0142748Y0264057D01*
X0142995Y0264305D01*
X0143226Y0264074D01*
X0144623Y0263495D01*
X0146135Y0263495D01*
X0147531Y0264074D01*
X0147779Y0264321D01*
X0148026Y0264074D01*
X0149423Y0263495D01*
X0150935Y0263495D01*
X0152331Y0264074D01*
X0153400Y0265143D01*
X0153979Y0266539D01*
X0153979Y0268051D01*
X0153400Y0269448D01*
X0153153Y0269695D01*
X0153400Y0269943D01*
X0153979Y0271339D01*
X0153979Y0272851D01*
X0153400Y0274248D01*
X0153153Y0274495D01*
X0153400Y0274743D01*
X0153979Y0276139D01*
X0153979Y0277651D01*
X0153400Y0279048D01*
X0153169Y0279279D01*
X0153417Y0279526D01*
X0153995Y0280923D01*
X0153995Y0282435D01*
X0153417Y0283831D01*
X0153169Y0284079D01*
X0153417Y0284326D01*
X0153795Y0285240D01*
X0154174Y0284326D01*
X0155243Y0283257D01*
X0156639Y0282679D01*
X0158151Y0282679D01*
X0159548Y0283257D01*
X0159795Y0283505D01*
X0160043Y0283257D01*
X0161439Y0282679D01*
X0162951Y0282679D01*
X0164348Y0283257D01*
X0164595Y0283505D01*
X0164826Y0283274D01*
X0166223Y0282695D01*
X0167735Y0282695D01*
X0169131Y0283274D01*
X0169379Y0283521D01*
X0169626Y0283274D01*
X0171023Y0282695D01*
X0172535Y0282695D01*
X0172951Y0282868D01*
X0172779Y0282451D01*
X0172779Y0280939D01*
X0173357Y0279543D01*
X0173605Y0279295D01*
X0173357Y0279048D01*
X0172779Y0277651D01*
X0172779Y0276139D01*
X0173357Y0274743D01*
X0174426Y0273674D01*
X0175823Y0273095D01*
X0177335Y0273095D01*
X0178731Y0273674D01*
X0178979Y0273921D01*
X0179226Y0273674D01*
X0180623Y0273095D01*
X0182135Y0273095D01*
X0183531Y0273674D01*
X0184600Y0274743D01*
X0185179Y0276139D01*
X0185179Y0277651D01*
X0184600Y0279048D01*
X0184353Y0279295D01*
X0184600Y0279543D01*
X0185179Y0280939D01*
X0185179Y0282451D01*
X0185179Y0281539D02*
X0376439Y0281539D01*
X0375551Y0279941D02*
X0184765Y0279941D01*
X0184892Y0278342D02*
X0375474Y0278342D01*
X0376156Y0276744D02*
X0185179Y0276744D01*
X0184767Y0275145D02*
X0375553Y0275145D01*
X0375474Y0273547D02*
X0183225Y0273547D01*
X0179532Y0273547D02*
X0178425Y0273547D01*
X0174732Y0273547D02*
X0153691Y0273547D01*
X0153567Y0275145D02*
X0173190Y0275145D01*
X0172779Y0276744D02*
X0153979Y0276744D01*
X0153692Y0278342D02*
X0173065Y0278342D01*
X0173192Y0279941D02*
X0153589Y0279941D01*
X0153995Y0281539D02*
X0172779Y0281539D01*
X0169954Y0283138D02*
X0168803Y0283138D01*
X0165154Y0283138D02*
X0164060Y0283138D01*
X0160331Y0283138D02*
X0159260Y0283138D01*
X0155531Y0283138D02*
X0153704Y0283138D01*
X0153587Y0284737D02*
X0154004Y0284737D01*
X0153885Y0287934D02*
X0153706Y0287934D01*
X0154006Y0289532D02*
X0152516Y0289532D01*
X0153595Y0291131D02*
X0017548Y0291131D01*
X0017548Y0292729D02*
X0153883Y0292729D01*
X0155070Y0294328D02*
X0039201Y0294328D01*
X0040645Y0294926D02*
X0042926Y0297207D01*
X0044161Y0300187D01*
X0044161Y0303413D01*
X0042926Y0306393D01*
X0040645Y0308674D01*
X0037665Y0309909D01*
X0034439Y0309909D01*
X0031459Y0308674D01*
X0029178Y0306393D01*
X0027943Y0303413D01*
X0027943Y0300187D01*
X0029178Y0297207D01*
X0031459Y0294926D01*
X0034439Y0293691D01*
X0037665Y0293691D01*
X0040645Y0294926D01*
X0041645Y0295926D02*
X0391088Y0295926D01*
X0392089Y0294926D02*
X0389808Y0297207D01*
X0388573Y0300187D01*
X0388573Y0303413D01*
X0389808Y0306393D01*
X0392089Y0308674D01*
X0395069Y0309909D01*
X0398295Y0309909D01*
X0401275Y0308674D01*
X0403556Y0306393D01*
X0404791Y0303413D01*
X0404791Y0300187D01*
X0403556Y0297207D01*
X0401275Y0294926D01*
X0398295Y0293691D01*
X0395069Y0293691D01*
X0392089Y0294926D01*
X0393533Y0294328D02*
X0183720Y0294328D01*
X0184898Y0292729D02*
X0415274Y0292729D01*
X0415274Y0291131D02*
X0320634Y0291131D01*
X0320423Y0291341D02*
X0318813Y0292008D01*
X0317070Y0292008D01*
X0315580Y0291390D01*
X0314089Y0292008D01*
X0312346Y0292008D01*
X0310736Y0291341D01*
X0310658Y0291264D01*
X0310581Y0291341D01*
X0308971Y0292008D01*
X0307228Y0292008D01*
X0305618Y0291341D01*
X0305540Y0291264D01*
X0305463Y0291341D01*
X0303853Y0292008D01*
X0302110Y0292008D01*
X0300499Y0291341D01*
X0299267Y0290108D01*
X0298600Y0288498D01*
X0298600Y0286755D01*
X0299267Y0285145D01*
X0300499Y0283913D01*
X0302110Y0283246D01*
X0303853Y0283246D01*
X0305463Y0283913D01*
X0305540Y0283990D01*
X0305618Y0283913D01*
X0307228Y0283246D01*
X0308971Y0283246D01*
X0310581Y0283913D01*
X0310658Y0283990D01*
X0310736Y0283913D01*
X0312346Y0283246D01*
X0314089Y0283246D01*
X0315580Y0283863D01*
X0317070Y0283246D01*
X0318813Y0283246D01*
X0320423Y0283913D01*
X0321656Y0285145D01*
X0322323Y0286755D01*
X0322323Y0288498D01*
X0321656Y0290108D01*
X0320423Y0291341D01*
X0321895Y0289532D02*
X0415274Y0289532D01*
X0415274Y0287934D02*
X0322323Y0287934D01*
X0322149Y0286335D02*
X0415274Y0286335D01*
X0415274Y0284737D02*
X0321247Y0284737D01*
X0314065Y0300722D02*
X0388573Y0300722D01*
X0388573Y0302320D02*
X0316390Y0302320D01*
X0316538Y0302468D02*
X0317205Y0304078D01*
X0317205Y0305821D01*
X0316538Y0307431D01*
X0315305Y0308664D01*
X0313695Y0309331D01*
X0311952Y0309331D01*
X0310342Y0308664D01*
X0309109Y0307431D01*
X0308443Y0305821D01*
X0308443Y0304078D01*
X0309109Y0302468D01*
X0310342Y0301235D01*
X0311952Y0300569D01*
X0313695Y0300569D01*
X0315305Y0301235D01*
X0316538Y0302468D01*
X0317139Y0303919D02*
X0388783Y0303919D01*
X0389445Y0305517D02*
X0317205Y0305517D01*
X0316668Y0307116D02*
X0390530Y0307116D01*
X0392185Y0308714D02*
X0315184Y0308714D01*
X0310464Y0308714D02*
X0040549Y0308714D01*
X0042204Y0307116D02*
X0308979Y0307116D01*
X0308443Y0305517D02*
X0043289Y0305517D01*
X0043951Y0303919D02*
X0289849Y0303919D01*
X0289424Y0303494D02*
X0288757Y0301884D01*
X0288757Y0300141D01*
X0289424Y0298531D01*
X0290657Y0297298D01*
X0292267Y0296631D01*
X0294010Y0296631D01*
X0295620Y0297298D01*
X0296853Y0298531D01*
X0297520Y0300141D01*
X0297520Y0301884D01*
X0296853Y0303494D01*
X0295620Y0304727D01*
X0294010Y0305394D01*
X0292267Y0305394D01*
X0290657Y0304727D01*
X0289424Y0303494D01*
X0288938Y0302320D02*
X0044161Y0302320D01*
X0044161Y0300722D02*
X0288757Y0300722D01*
X0289179Y0299123D02*
X0043720Y0299123D01*
X0043058Y0297525D02*
X0290431Y0297525D01*
X0295846Y0297525D02*
X0389676Y0297525D01*
X0389014Y0299123D02*
X0297098Y0299123D01*
X0297520Y0300722D02*
X0311582Y0300722D01*
X0309257Y0302320D02*
X0297339Y0302320D01*
X0296428Y0303919D02*
X0308509Y0303919D01*
X0300289Y0291131D02*
X0185179Y0291131D01*
X0184761Y0289532D02*
X0299028Y0289532D01*
X0298600Y0287934D02*
X0184896Y0287934D01*
X0185179Y0286335D02*
X0298774Y0286335D01*
X0299676Y0284737D02*
X0184763Y0284737D01*
X0179037Y0294328D02*
X0178920Y0294328D01*
X0174237Y0294328D02*
X0174120Y0294328D01*
X0169437Y0294328D02*
X0169320Y0294328D01*
X0164637Y0294328D02*
X0164520Y0294328D01*
X0159870Y0294328D02*
X0159720Y0294328D01*
X0147875Y0289532D02*
X0017548Y0289532D01*
X0017548Y0287934D02*
X0146685Y0287934D01*
X0146395Y0286335D02*
X0017548Y0286335D01*
X0017548Y0284737D02*
X0143079Y0284737D01*
X0141887Y0283138D02*
X0017548Y0283138D01*
X0017548Y0281539D02*
X0141595Y0281539D01*
X0138284Y0279941D02*
X0017548Y0279941D01*
X0017548Y0278342D02*
X0137088Y0278342D01*
X0136795Y0276744D02*
X0017548Y0276744D01*
X0017548Y0275145D02*
X0133488Y0275145D01*
X0132290Y0273547D02*
X0017548Y0273547D01*
X0017548Y0271948D02*
X0131995Y0271948D01*
X0128692Y0270350D02*
X0017548Y0270350D01*
X0017548Y0268751D02*
X0127492Y0268751D01*
X0127195Y0267153D02*
X0017548Y0267153D01*
X0017548Y0265554D02*
X0127596Y0265554D01*
X0129088Y0263956D02*
X0017548Y0263956D01*
X0017548Y0262357D02*
X0371343Y0262357D01*
X0370758Y0260759D02*
X0017548Y0260759D01*
X0017548Y0259160D02*
X0370674Y0259160D01*
X0371338Y0257562D02*
X0017548Y0257562D01*
X0017548Y0255963D02*
X0370760Y0255963D01*
X0370674Y0254365D02*
X0017548Y0254365D01*
X0017548Y0252766D02*
X0371334Y0252766D01*
X0370762Y0251168D02*
X0017548Y0251168D01*
X0017548Y0249569D02*
X0370674Y0249569D01*
X0371329Y0247971D02*
X0017548Y0247971D01*
X0017548Y0246372D02*
X0370764Y0246372D01*
X0370674Y0244774D02*
X0017548Y0244774D01*
X0017548Y0243175D02*
X0371325Y0243175D01*
X0370765Y0241577D02*
X0017548Y0241577D01*
X0017548Y0239978D02*
X0370674Y0239978D01*
X0371320Y0238380D02*
X0017548Y0238380D01*
X0017548Y0236781D02*
X0370767Y0236781D01*
X0370674Y0235183D02*
X0017548Y0235183D01*
X0017548Y0233584D02*
X0371316Y0233584D01*
X0370769Y0231986D02*
X0017548Y0231986D01*
X0017548Y0230387D02*
X0370674Y0230387D01*
X0371311Y0228789D02*
X0017548Y0228789D01*
X0017548Y0227190D02*
X0370771Y0227190D01*
X0370674Y0225592D02*
X0017548Y0225592D01*
X0017548Y0223993D02*
X0080027Y0223993D01*
X0079160Y0222395D02*
X0017548Y0222395D01*
X0017548Y0220796D02*
X0079099Y0220796D01*
X0079819Y0219198D02*
X0017548Y0219198D01*
X0017548Y0217599D02*
X0079162Y0217599D01*
X0079099Y0216001D02*
X0017548Y0216001D01*
X0017548Y0214402D02*
X0079815Y0214402D01*
X0079164Y0212803D02*
X0017548Y0212803D01*
X0017548Y0211205D02*
X0031452Y0211205D01*
X0031934Y0211405D02*
X0029417Y0210362D01*
X0027490Y0208435D01*
X0026447Y0205918D01*
X0026447Y0203194D01*
X0027490Y0200676D01*
X0029417Y0198750D01*
X0031934Y0197707D01*
X0034658Y0197707D01*
X0037176Y0198750D01*
X0039102Y0200676D01*
X0040145Y0203194D01*
X0040145Y0205918D01*
X0039102Y0208435D01*
X0037176Y0210362D01*
X0034658Y0211405D01*
X0031934Y0211405D01*
X0035141Y0211205D02*
X0079099Y0211205D01*
X0079810Y0209606D02*
X0037931Y0209606D01*
X0039279Y0208008D02*
X0079166Y0208008D01*
X0079099Y0206409D02*
X0039941Y0206409D01*
X0040145Y0204811D02*
X0079806Y0204811D01*
X0093568Y0203212D02*
X0040145Y0203212D01*
X0039491Y0201614D02*
X0093499Y0201614D01*
X0094201Y0200015D02*
X0038441Y0200015D01*
X0036372Y0198417D02*
X0093570Y0198417D01*
X0093499Y0196818D02*
X0017548Y0196818D01*
X0017548Y0195220D02*
X0094197Y0195220D01*
X0093571Y0193621D02*
X0017548Y0193621D01*
X0017548Y0192023D02*
X0093499Y0192023D01*
X0094192Y0190424D02*
X0017548Y0190424D01*
X0017548Y0188826D02*
X0093573Y0188826D01*
X0093499Y0187227D02*
X0017548Y0187227D01*
X0017548Y0185629D02*
X0080063Y0185629D01*
X0079175Y0184030D02*
X0017548Y0184030D01*
X0017548Y0182432D02*
X0079099Y0182432D01*
X0079783Y0180833D02*
X0017548Y0180833D01*
X0017548Y0179235D02*
X0079177Y0179235D01*
X0079099Y0177636D02*
X0017548Y0177636D01*
X0017548Y0176038D02*
X0079779Y0176038D01*
X0079179Y0174439D02*
X0017548Y0174439D01*
X0017548Y0172841D02*
X0079099Y0172841D01*
X0079774Y0171242D02*
X0017548Y0171242D01*
X0017548Y0169644D02*
X0079181Y0169644D01*
X0079099Y0168045D02*
X0017548Y0168045D01*
X0017548Y0166447D02*
X0079770Y0166447D01*
X0082489Y0156856D02*
X0017548Y0156856D01*
X0017548Y0158454D02*
X0415274Y0158454D01*
X0415274Y0160053D02*
X0017548Y0160053D01*
X0017548Y0161651D02*
X0415274Y0161651D01*
X0415274Y0163250D02*
X0017548Y0163250D01*
X0017548Y0164848D02*
X0415274Y0164848D01*
X0415274Y0198417D02*
X0402514Y0198417D01*
X0404583Y0200015D02*
X0415274Y0200015D01*
X0415274Y0201614D02*
X0405632Y0201614D01*
X0406287Y0203212D02*
X0415274Y0203212D01*
X0415274Y0204811D02*
X0406287Y0204811D01*
X0406083Y0206409D02*
X0415274Y0206409D01*
X0415274Y0208008D02*
X0405421Y0208008D01*
X0404073Y0209606D02*
X0415274Y0209606D01*
X0371302Y0219198D02*
X0109979Y0219198D01*
X0110636Y0217599D02*
X0370775Y0217599D01*
X0370674Y0216001D02*
X0110699Y0216001D01*
X0110699Y0220796D02*
X0370674Y0220796D01*
X0370773Y0222395D02*
X0110638Y0222395D01*
X0109771Y0223993D02*
X0371307Y0223993D01*
X0370674Y0263956D02*
X0152047Y0263956D01*
X0153571Y0265554D02*
X0370756Y0265554D01*
X0371347Y0267153D02*
X0153979Y0267153D01*
X0153689Y0268751D02*
X0370674Y0268751D01*
X0370754Y0270350D02*
X0153569Y0270350D01*
X0153979Y0271948D02*
X0371648Y0271948D01*
X0399831Y0294328D02*
X0415274Y0294328D01*
X0415274Y0295926D02*
X0402275Y0295926D01*
X0403688Y0297525D02*
X0415274Y0297525D01*
X0415274Y0299123D02*
X0404350Y0299123D01*
X0404791Y0300722D02*
X0415274Y0300722D01*
X0415274Y0302320D02*
X0404791Y0302320D01*
X0404581Y0303919D02*
X0415274Y0303919D01*
X0415274Y0305517D02*
X0403919Y0305517D01*
X0402834Y0307116D02*
X0415274Y0307116D01*
X0415274Y0308714D02*
X0401179Y0308714D01*
X0415274Y0310313D02*
X0017548Y0310313D01*
X0017548Y0311911D02*
X0415274Y0311911D01*
X0415274Y0313510D02*
X0017548Y0313510D01*
X0017548Y0315108D02*
X0415274Y0315108D01*
X0415274Y0316707D02*
X0017548Y0316707D01*
X0017548Y0318305D02*
X0415274Y0318305D01*
X0415274Y0319904D02*
X0316428Y0319904D01*
X0315870Y0319346D02*
X0317102Y0320578D01*
X0317769Y0322188D01*
X0317769Y0323931D01*
X0317102Y0325542D01*
X0315870Y0326774D01*
X0314260Y0327441D01*
X0312517Y0327441D01*
X0310906Y0326774D01*
X0309674Y0325542D01*
X0309451Y0325003D01*
X0309228Y0325542D01*
X0307996Y0326774D01*
X0306386Y0327441D01*
X0304643Y0327441D01*
X0303032Y0326774D01*
X0301800Y0325542D01*
X0301133Y0323931D01*
X0301133Y0322188D01*
X0301800Y0320578D01*
X0303032Y0319346D01*
X0304643Y0318679D01*
X0306386Y0318679D01*
X0307996Y0319346D01*
X0309228Y0320578D01*
X0309451Y0321116D01*
X0309674Y0320578D01*
X0310906Y0319346D01*
X0312517Y0318679D01*
X0314260Y0318679D01*
X0315870Y0319346D01*
X0317485Y0321502D02*
X0415274Y0321502D01*
X0415274Y0323101D02*
X0317769Y0323101D01*
X0317451Y0324699D02*
X0415274Y0324699D01*
X0415274Y0326298D02*
X0316346Y0326298D01*
X0310430Y0326298D02*
X0308472Y0326298D01*
X0302556Y0326298D02*
X0017548Y0326298D01*
X0017548Y0327896D02*
X0415274Y0327896D01*
X0415274Y0329495D02*
X0017548Y0329495D01*
X0017548Y0331093D02*
X0415274Y0331093D01*
X0415274Y0332692D02*
X0017548Y0332692D01*
X0017548Y0334290D02*
X0415274Y0334290D01*
X0415274Y0335889D02*
X0017548Y0335889D01*
X0017548Y0337487D02*
X0415274Y0337487D01*
X0415274Y0339086D02*
X0017548Y0339086D01*
X0017548Y0340684D02*
X0415274Y0340684D01*
X0415274Y0342283D02*
X0017548Y0342283D01*
X0017548Y0343881D02*
X0415274Y0343881D01*
X0415274Y0345480D02*
X0017548Y0345480D01*
X0017548Y0347078D02*
X0415274Y0347078D01*
X0415274Y0348677D02*
X0212862Y0348677D01*
X0212832Y0348646D02*
X0214009Y0349824D01*
X0214646Y0351361D01*
X0214646Y0353026D01*
X0214009Y0354564D01*
X0212832Y0355741D01*
X0211294Y0356378D01*
X0209629Y0356378D01*
X0208091Y0355741D01*
X0206914Y0354564D01*
X0206277Y0353026D01*
X0206277Y0351361D01*
X0206914Y0349824D01*
X0208091Y0348646D01*
X0209629Y0348009D01*
X0211294Y0348009D01*
X0212832Y0348646D01*
X0214196Y0350275D02*
X0415274Y0350275D01*
X0415274Y0351874D02*
X0214646Y0351874D01*
X0214461Y0353472D02*
X0415274Y0353472D01*
X0415274Y0355071D02*
X0213502Y0355071D01*
X0207421Y0355071D02*
X0146572Y0355071D01*
X0147080Y0354564D02*
X0145902Y0355741D01*
X0144365Y0356378D01*
X0142700Y0356378D01*
X0141162Y0355741D01*
X0139985Y0354564D01*
X0139348Y0353026D01*
X0139348Y0351361D01*
X0139985Y0349824D01*
X0141162Y0348646D01*
X0142700Y0348009D01*
X0144365Y0348009D01*
X0145902Y0348646D01*
X0147080Y0349824D01*
X0147717Y0351361D01*
X0147717Y0353026D01*
X0147080Y0354564D01*
X0147532Y0353472D02*
X0206462Y0353472D01*
X0206277Y0351874D02*
X0147717Y0351874D01*
X0147267Y0350275D02*
X0206727Y0350275D01*
X0208061Y0348677D02*
X0145933Y0348677D01*
X0141132Y0348677D02*
X0017548Y0348677D01*
X0017548Y0350275D02*
X0139798Y0350275D01*
X0139348Y0351874D02*
X0017548Y0351874D01*
X0017548Y0353472D02*
X0139533Y0353472D01*
X0140492Y0355071D02*
X0017548Y0355071D01*
X0017548Y0356670D02*
X0415274Y0356670D01*
X0415274Y0358268D02*
X0017548Y0358268D01*
X0017548Y0359867D02*
X0415274Y0359867D01*
X0410811Y0361465D02*
X0022011Y0361465D01*
X0022011Y0363064D02*
X0410811Y0363064D01*
X0410811Y0364662D02*
X0022011Y0364662D01*
X0022011Y0366261D02*
X0410811Y0366261D01*
X0410811Y0367859D02*
X0022011Y0367859D01*
X0022011Y0369458D02*
X0410811Y0369458D01*
X0410811Y0371056D02*
X0022011Y0371056D01*
X0022011Y0372655D02*
X0410811Y0372655D01*
X0410811Y0374253D02*
X0022011Y0374253D01*
X0022011Y0375852D02*
X0410811Y0375852D01*
X0410811Y0377450D02*
X0316885Y0377450D01*
X0318204Y0377997D02*
X0320485Y0380278D01*
X0321720Y0383258D01*
X0321720Y0386484D01*
X0320485Y0389464D01*
X0318204Y0391745D01*
X0315224Y0392980D01*
X0311998Y0392980D01*
X0309018Y0391745D01*
X0306737Y0389464D01*
X0305502Y0386484D01*
X0305502Y0383258D01*
X0306737Y0380278D01*
X0309018Y0377997D01*
X0311998Y0376762D01*
X0315224Y0376762D01*
X0318204Y0377997D01*
X0319256Y0379049D02*
X0410811Y0379049D01*
X0410811Y0380647D02*
X0320638Y0380647D01*
X0321300Y0382246D02*
X0410811Y0382246D01*
X0410811Y0383844D02*
X0321720Y0383844D01*
X0321720Y0385443D02*
X0410811Y0385443D01*
X0410811Y0387041D02*
X0321489Y0387041D01*
X0320827Y0388640D02*
X0410811Y0388640D01*
X0410811Y0390238D02*
X0319711Y0390238D01*
X0317983Y0391837D02*
X0410811Y0391837D01*
X0410811Y0393435D02*
X0022011Y0393435D01*
X0022011Y0391837D02*
X0114751Y0391837D01*
X0114530Y0391745D02*
X0112249Y0389464D01*
X0111014Y0386484D01*
X0111014Y0383258D01*
X0112249Y0380278D01*
X0114530Y0377997D01*
X0117510Y0376762D01*
X0120736Y0376762D01*
X0123716Y0377997D01*
X0125997Y0380278D01*
X0127231Y0383258D01*
X0127231Y0386484D01*
X0125997Y0389464D01*
X0123716Y0391745D01*
X0120736Y0392980D01*
X0117510Y0392980D01*
X0114530Y0391745D01*
X0113023Y0390238D02*
X0022011Y0390238D01*
X0022011Y0388640D02*
X0111907Y0388640D01*
X0111245Y0387041D02*
X0022011Y0387041D01*
X0022011Y0385443D02*
X0111014Y0385443D01*
X0111014Y0383844D02*
X0022011Y0383844D01*
X0022011Y0382246D02*
X0111433Y0382246D01*
X0112096Y0380647D02*
X0022011Y0380647D01*
X0022011Y0379049D02*
X0113478Y0379049D01*
X0115849Y0377450D02*
X0022011Y0377450D01*
X0022011Y0395034D02*
X0410811Y0395034D01*
X0410811Y0396632D02*
X0022011Y0396632D01*
X0022011Y0398231D02*
X0410811Y0398231D01*
X0371879Y0399829D02*
X0060855Y0399829D01*
X0060855Y0401428D02*
X0371879Y0401428D01*
X0371879Y0403026D02*
X0060855Y0403026D01*
X0123495Y0391837D02*
X0309239Y0391837D01*
X0307511Y0390238D02*
X0125223Y0390238D01*
X0126338Y0388640D02*
X0306395Y0388640D01*
X0305733Y0387041D02*
X0127001Y0387041D01*
X0127231Y0385443D02*
X0305502Y0385443D01*
X0305502Y0383844D02*
X0127231Y0383844D01*
X0126812Y0382246D02*
X0305922Y0382246D01*
X0306584Y0380647D02*
X0126150Y0380647D01*
X0124768Y0379049D02*
X0307966Y0379049D01*
X0310337Y0377450D02*
X0122397Y0377450D01*
X0031555Y0308714D02*
X0017548Y0308714D01*
X0017548Y0307116D02*
X0029900Y0307116D01*
X0028815Y0305517D02*
X0017548Y0305517D01*
X0017548Y0303919D02*
X0028153Y0303919D01*
X0027943Y0302320D02*
X0017548Y0302320D01*
X0017548Y0300722D02*
X0027943Y0300722D01*
X0028384Y0299123D02*
X0017548Y0299123D01*
X0017548Y0297525D02*
X0029046Y0297525D01*
X0030459Y0295926D02*
X0017548Y0295926D01*
X0017548Y0294328D02*
X0032903Y0294328D01*
X0017548Y0319904D02*
X0302474Y0319904D01*
X0301417Y0321502D02*
X0017548Y0321502D01*
X0017548Y0323101D02*
X0301133Y0323101D01*
X0301451Y0324699D02*
X0017548Y0324699D01*
X0017548Y0209606D02*
X0028661Y0209606D01*
X0027313Y0208008D02*
X0017548Y0208008D01*
X0017548Y0206409D02*
X0026651Y0206409D01*
X0026447Y0204811D02*
X0017548Y0204811D01*
X0017548Y0203212D02*
X0026447Y0203212D01*
X0027102Y0201614D02*
X0017548Y0201614D01*
X0017548Y0200015D02*
X0028151Y0200015D01*
X0030220Y0198417D02*
X0017548Y0198417D01*
X0017548Y0155257D02*
X0081586Y0155257D01*
X0081499Y0153659D02*
X0017548Y0153659D01*
X0017548Y0152060D02*
X0082156Y0152060D01*
X0081588Y0150462D02*
X0017548Y0150462D01*
X0017548Y0148863D02*
X0081499Y0148863D01*
X0082152Y0147265D02*
X0017548Y0147265D01*
X0017548Y0145666D02*
X0086390Y0145666D01*
X0086299Y0144068D02*
X0017548Y0144068D01*
X0017548Y0142469D02*
X0086948Y0142469D01*
X0091192Y0140870D02*
X0017548Y0140870D01*
X0017548Y0139272D02*
X0091099Y0139272D01*
X0091743Y0137673D02*
X0017548Y0137673D01*
X0017548Y0136075D02*
X0091194Y0136075D01*
X0091099Y0134476D02*
X0017548Y0134476D01*
X0017548Y0132878D02*
X0069989Y0132878D01*
X0068720Y0131279D02*
X0017548Y0131279D01*
X0017548Y0129681D02*
X0068285Y0129681D01*
X0068453Y0128082D02*
X0017548Y0128082D01*
X0017548Y0126484D02*
X0069345Y0126484D01*
X0075343Y0132878D02*
X0091739Y0132878D01*
X0091195Y0131279D02*
X0076613Y0131279D01*
X0077047Y0129681D02*
X0091099Y0129681D01*
X0091734Y0128082D02*
X0076879Y0128082D01*
X0134427Y0121688D02*
X0017548Y0121688D01*
X0017548Y0120090D02*
X0134481Y0120090D01*
X0135212Y0118491D02*
X0017548Y0118491D01*
X0017548Y0116893D02*
X0137496Y0116893D01*
X0134975Y0123287D02*
X0017548Y0123287D01*
X0017548Y0124885D02*
X0136519Y0124885D01*
X0124795Y0056149D02*
X0167670Y0056149D01*
X0166836Y0054551D02*
X0161860Y0054551D01*
X0159850Y0054551D02*
X0123739Y0054551D01*
X0117656Y0054551D02*
X0107530Y0054551D01*
X0109993Y0052952D02*
X0157386Y0052952D01*
X0156581Y0051354D02*
X0110799Y0051354D01*
X0110905Y0049755D02*
X0156474Y0049755D01*
X0156970Y0048157D02*
X0143585Y0048157D01*
X0141117Y0048157D02*
X0110410Y0048157D01*
X0109053Y0046558D02*
X0138788Y0046558D01*
X0144718Y0040164D02*
X0154047Y0040164D01*
X0165130Y0051354D02*
X0167186Y0051354D01*
X0166710Y0052952D02*
X0164324Y0052952D01*
X0202332Y0022581D02*
X0205347Y0022581D01*
X0212332Y0022581D02*
X0215347Y0022581D01*
X0222332Y0022581D02*
X0225347Y0022581D01*
X0224669Y0032172D02*
X0223009Y0032172D01*
X0214669Y0032172D02*
X0213009Y0032172D01*
X0233009Y0032172D02*
X0311569Y0032172D01*
X0371879Y0008194D02*
X0060855Y0008194D01*
X0060855Y0006596D02*
X0371879Y0006596D01*
X0410811Y0009793D02*
X0060855Y0009793D01*
X0060798Y0032172D02*
X0067038Y0032172D01*
X0066926Y0033770D02*
X0062397Y0033770D01*
X0063995Y0035369D02*
X0067205Y0035369D01*
X0066926Y0036967D02*
X0064081Y0036967D01*
X0064081Y0038566D02*
X0067345Y0038566D01*
X0068920Y0040164D02*
X0064081Y0040164D01*
X0055164Y0032172D02*
X0050798Y0032172D01*
X0052397Y0033770D02*
X0053565Y0033770D01*
X0132903Y0263956D02*
X0133888Y0263956D01*
X0137703Y0263956D02*
X0138688Y0263956D01*
X0142503Y0263956D02*
X0143511Y0263956D01*
X0147247Y0263956D02*
X0148311Y0263956D01*
X0308554Y0319904D02*
X0310348Y0319904D01*
X0361682Y0129681D02*
X0362738Y0129681D01*
X0366482Y0129681D02*
X0367538Y0129681D01*
X0371282Y0129681D02*
X0372338Y0129681D01*
X0376082Y0129681D02*
X0377138Y0129681D01*
X0380882Y0129681D02*
X0381938Y0129681D01*
X0398599Y0115294D02*
X0415274Y0115294D01*
X0415274Y0113696D02*
X0401765Y0113696D01*
X0403364Y0112097D02*
X0415274Y0112097D01*
X0415274Y0110499D02*
X0404139Y0110499D01*
X0404791Y0108900D02*
X0415274Y0108900D01*
X0415274Y0107302D02*
X0404791Y0107302D01*
X0404791Y0105703D02*
X0415274Y0105703D01*
X0415274Y0104105D02*
X0404130Y0104105D01*
X0403344Y0102506D02*
X0415274Y0102506D01*
X0415274Y0100908D02*
X0401745Y0100908D01*
X0381479Y0108900D02*
X0381341Y0108900D01*
X0376679Y0108900D02*
X0376541Y0108900D01*
X0371879Y0108900D02*
X0371741Y0108900D01*
X0367079Y0108900D02*
X0366941Y0108900D01*
X0362279Y0108900D02*
X0362141Y0108900D01*
D16*
X0411249Y0127784D03*
X0411249Y0135658D03*
X0411249Y0143532D03*
X0411249Y0151406D03*
X0411249Y0159280D03*
X0411249Y0167154D03*
X0411249Y0175028D03*
X0411249Y0182902D03*
X0411249Y0222272D03*
X0411249Y0230146D03*
X0411249Y0238020D03*
X0411249Y0245894D03*
X0411249Y0253769D03*
X0411249Y0261643D03*
X0411249Y0269517D03*
X0411249Y0277391D03*
X0411249Y0285265D03*
X0411249Y0324635D03*
X0411249Y0332509D03*
X0411249Y0340383D03*
X0403375Y0367942D03*
X0403375Y0375816D03*
X0403375Y0383690D03*
X0403375Y0391564D03*
X0395501Y0391564D03*
X0387627Y0391564D03*
X0379753Y0391564D03*
X0364005Y0399438D03*
X0356131Y0399438D03*
X0348257Y0399438D03*
X0340383Y0399438D03*
X0332509Y0399438D03*
X0293139Y0399438D03*
X0285265Y0399438D03*
X0277391Y0399438D03*
X0269517Y0399438D03*
X0261643Y0399438D03*
X0253769Y0399438D03*
X0245894Y0399438D03*
X0238020Y0399438D03*
X0230146Y0399438D03*
X0222272Y0399438D03*
X0214398Y0399438D03*
X0206524Y0399438D03*
X0198650Y0399438D03*
X0190776Y0399438D03*
X0182902Y0399438D03*
X0175028Y0399438D03*
X0167154Y0399438D03*
X0159280Y0399438D03*
X0151406Y0399438D03*
X0143532Y0399438D03*
X0135658Y0399438D03*
X0096288Y0399438D03*
X0088414Y0399438D03*
X0080540Y0399438D03*
X0072666Y0399438D03*
X0052981Y0391564D03*
X0045107Y0391564D03*
X0037233Y0391564D03*
X0029359Y0391564D03*
X0029359Y0383690D03*
X0029359Y0375816D03*
X0029359Y0367942D03*
X0021485Y0348257D03*
X0021485Y0340383D03*
X0021485Y0332509D03*
X0021485Y0324635D03*
X0021485Y0285265D03*
X0021485Y0277391D03*
X0021485Y0269517D03*
X0021485Y0261643D03*
X0021485Y0253769D03*
X0021485Y0245894D03*
X0021485Y0238020D03*
X0021485Y0230146D03*
X0021485Y0222272D03*
X0021485Y0182902D03*
X0021485Y0175028D03*
X0021485Y0167154D03*
X0021485Y0159280D03*
X0021485Y0151406D03*
X0021485Y0143532D03*
X0021485Y0135658D03*
X0021485Y0127784D03*
X0021485Y0088414D03*
X0021485Y0080540D03*
X0021485Y0072666D03*
X0021485Y0064792D03*
X0021485Y0056918D03*
X0029359Y0041170D03*
X0029359Y0033296D03*
X0029359Y0025422D03*
X0029359Y0017548D03*
X0037233Y0017548D03*
X0045107Y0017548D03*
X0052981Y0017548D03*
X0072666Y0009674D03*
X0080540Y0009674D03*
X0088414Y0009674D03*
X0096288Y0009674D03*
X0135658Y0009674D03*
X0143532Y0009674D03*
X0151406Y0009674D03*
X0159280Y0009674D03*
X0167154Y0009674D03*
X0175028Y0009674D03*
X0182902Y0009674D03*
X0190776Y0009674D03*
X0198650Y0009674D03*
X0206524Y0009674D03*
X0214398Y0009674D03*
X0222272Y0009674D03*
X0230146Y0009674D03*
X0238020Y0009674D03*
X0245894Y0009674D03*
X0253769Y0009674D03*
X0261643Y0009674D03*
X0269517Y0009674D03*
X0277391Y0009674D03*
X0285265Y0009674D03*
X0293139Y0009674D03*
X0332509Y0009674D03*
X0340383Y0009674D03*
X0348257Y0009674D03*
X0356131Y0009674D03*
X0364005Y0009674D03*
X0379753Y0017548D03*
X0387627Y0017548D03*
X0395501Y0017548D03*
X0403375Y0017548D03*
X0403375Y0025422D03*
X0403375Y0033296D03*
X0403375Y0041170D03*
X0411249Y0056918D03*
X0411249Y0064792D03*
X0411249Y0072666D03*
X0411249Y0080540D03*
X0411249Y0088414D03*
D17*
X0281328Y0056918D03*
X0281328Y0041170D03*
D18*
X0253769Y0049044D03*
X0234083Y0068729D03*
X0214398Y0104162D03*
X0210461Y0352194D03*
X0143532Y0352194D03*
M02*
