G75*
%MOIN*%
%OFA0B0*%
%FSLAX25Y25*%
%IPPOS*%
%LPD*%
%AMOC8*
5,1,8,0,0,1.08239X$1,22.5*
%
%ADD10C,0.00000*%
%ADD11C,0.00300*%
%ADD12C,0.00700*%
%ADD13C,0.00500*%
%ADD14C,0.00600*%
%ADD15C,0.00100*%
%ADD16C,0.00800*%
%ADD17R,0.03000X0.03400*%
%ADD18C,0.01575*%
%ADD19C,0.02000*%
%ADD20C,0.05000*%
%ADD21C,0.00400*%
%ADD22C,0.01000*%
%ADD23R,0.07874X0.05118*%
%ADD24R,0.05118X0.05118*%
%ADD25C,0.03200*%
%ADD26C,0.00900*%
D10*
X0021485Y0009674D02*
X0060855Y0009674D01*
X0060855Y0005737D01*
X0371879Y0005737D01*
X0371879Y0009674D01*
X0411249Y0009674D01*
X0411249Y0049044D01*
X0415186Y0049044D01*
X0415186Y0360068D01*
X0411249Y0360068D01*
X0411249Y0399438D01*
X0371879Y0399438D01*
X0371879Y0403375D01*
X0060855Y0403375D01*
X0060855Y0399438D01*
X0021485Y0399438D01*
X0021485Y0360068D01*
X0017548Y0360068D01*
X0017548Y0049044D01*
X0021485Y0049044D01*
X0021485Y0009674D01*
X0030343Y0106131D02*
X0030345Y0106282D01*
X0030351Y0106432D01*
X0030361Y0106583D01*
X0030375Y0106733D01*
X0030393Y0106882D01*
X0030414Y0107032D01*
X0030440Y0107180D01*
X0030470Y0107328D01*
X0030503Y0107475D01*
X0030541Y0107621D01*
X0030582Y0107766D01*
X0030627Y0107910D01*
X0030676Y0108052D01*
X0030729Y0108193D01*
X0030785Y0108333D01*
X0030845Y0108471D01*
X0030908Y0108608D01*
X0030976Y0108743D01*
X0031046Y0108876D01*
X0031120Y0109007D01*
X0031198Y0109136D01*
X0031279Y0109263D01*
X0031363Y0109388D01*
X0031451Y0109511D01*
X0031542Y0109631D01*
X0031636Y0109749D01*
X0031733Y0109864D01*
X0031833Y0109977D01*
X0031936Y0110087D01*
X0032042Y0110194D01*
X0032151Y0110299D01*
X0032262Y0110400D01*
X0032376Y0110499D01*
X0032492Y0110594D01*
X0032612Y0110687D01*
X0032733Y0110776D01*
X0032857Y0110862D01*
X0032983Y0110945D01*
X0033111Y0111024D01*
X0033241Y0111100D01*
X0033373Y0111173D01*
X0033507Y0111241D01*
X0033643Y0111307D01*
X0033781Y0111369D01*
X0033920Y0111427D01*
X0034060Y0111481D01*
X0034202Y0111532D01*
X0034345Y0111579D01*
X0034490Y0111622D01*
X0034635Y0111661D01*
X0034782Y0111697D01*
X0034929Y0111728D01*
X0035077Y0111756D01*
X0035226Y0111780D01*
X0035375Y0111800D01*
X0035525Y0111816D01*
X0035675Y0111828D01*
X0035826Y0111836D01*
X0035977Y0111840D01*
X0036127Y0111840D01*
X0036278Y0111836D01*
X0036429Y0111828D01*
X0036579Y0111816D01*
X0036729Y0111800D01*
X0036878Y0111780D01*
X0037027Y0111756D01*
X0037175Y0111728D01*
X0037322Y0111697D01*
X0037469Y0111661D01*
X0037614Y0111622D01*
X0037759Y0111579D01*
X0037902Y0111532D01*
X0038044Y0111481D01*
X0038184Y0111427D01*
X0038323Y0111369D01*
X0038461Y0111307D01*
X0038597Y0111241D01*
X0038731Y0111173D01*
X0038863Y0111100D01*
X0038993Y0111024D01*
X0039121Y0110945D01*
X0039247Y0110862D01*
X0039371Y0110776D01*
X0039492Y0110687D01*
X0039612Y0110594D01*
X0039728Y0110499D01*
X0039842Y0110400D01*
X0039953Y0110299D01*
X0040062Y0110194D01*
X0040168Y0110087D01*
X0040271Y0109977D01*
X0040371Y0109864D01*
X0040468Y0109749D01*
X0040562Y0109631D01*
X0040653Y0109511D01*
X0040741Y0109388D01*
X0040825Y0109263D01*
X0040906Y0109136D01*
X0040984Y0109007D01*
X0041058Y0108876D01*
X0041128Y0108743D01*
X0041196Y0108608D01*
X0041259Y0108471D01*
X0041319Y0108333D01*
X0041375Y0108193D01*
X0041428Y0108052D01*
X0041477Y0107910D01*
X0041522Y0107766D01*
X0041563Y0107621D01*
X0041601Y0107475D01*
X0041634Y0107328D01*
X0041664Y0107180D01*
X0041690Y0107032D01*
X0041711Y0106882D01*
X0041729Y0106733D01*
X0041743Y0106583D01*
X0041753Y0106432D01*
X0041759Y0106282D01*
X0041761Y0106131D01*
X0041759Y0105980D01*
X0041753Y0105830D01*
X0041743Y0105679D01*
X0041729Y0105529D01*
X0041711Y0105380D01*
X0041690Y0105230D01*
X0041664Y0105082D01*
X0041634Y0104934D01*
X0041601Y0104787D01*
X0041563Y0104641D01*
X0041522Y0104496D01*
X0041477Y0104352D01*
X0041428Y0104210D01*
X0041375Y0104069D01*
X0041319Y0103929D01*
X0041259Y0103791D01*
X0041196Y0103654D01*
X0041128Y0103519D01*
X0041058Y0103386D01*
X0040984Y0103255D01*
X0040906Y0103126D01*
X0040825Y0102999D01*
X0040741Y0102874D01*
X0040653Y0102751D01*
X0040562Y0102631D01*
X0040468Y0102513D01*
X0040371Y0102398D01*
X0040271Y0102285D01*
X0040168Y0102175D01*
X0040062Y0102068D01*
X0039953Y0101963D01*
X0039842Y0101862D01*
X0039728Y0101763D01*
X0039612Y0101668D01*
X0039492Y0101575D01*
X0039371Y0101486D01*
X0039247Y0101400D01*
X0039121Y0101317D01*
X0038993Y0101238D01*
X0038863Y0101162D01*
X0038731Y0101089D01*
X0038597Y0101021D01*
X0038461Y0100955D01*
X0038323Y0100893D01*
X0038184Y0100835D01*
X0038044Y0100781D01*
X0037902Y0100730D01*
X0037759Y0100683D01*
X0037614Y0100640D01*
X0037469Y0100601D01*
X0037322Y0100565D01*
X0037175Y0100534D01*
X0037027Y0100506D01*
X0036878Y0100482D01*
X0036729Y0100462D01*
X0036579Y0100446D01*
X0036429Y0100434D01*
X0036278Y0100426D01*
X0036127Y0100422D01*
X0035977Y0100422D01*
X0035826Y0100426D01*
X0035675Y0100434D01*
X0035525Y0100446D01*
X0035375Y0100462D01*
X0035226Y0100482D01*
X0035077Y0100506D01*
X0034929Y0100534D01*
X0034782Y0100565D01*
X0034635Y0100601D01*
X0034490Y0100640D01*
X0034345Y0100683D01*
X0034202Y0100730D01*
X0034060Y0100781D01*
X0033920Y0100835D01*
X0033781Y0100893D01*
X0033643Y0100955D01*
X0033507Y0101021D01*
X0033373Y0101089D01*
X0033241Y0101162D01*
X0033111Y0101238D01*
X0032983Y0101317D01*
X0032857Y0101400D01*
X0032733Y0101486D01*
X0032612Y0101575D01*
X0032492Y0101668D01*
X0032376Y0101763D01*
X0032262Y0101862D01*
X0032151Y0101963D01*
X0032042Y0102068D01*
X0031936Y0102175D01*
X0031833Y0102285D01*
X0031733Y0102398D01*
X0031636Y0102513D01*
X0031542Y0102631D01*
X0031451Y0102751D01*
X0031363Y0102874D01*
X0031279Y0102999D01*
X0031198Y0103126D01*
X0031120Y0103255D01*
X0031046Y0103386D01*
X0030976Y0103519D01*
X0030908Y0103654D01*
X0030845Y0103791D01*
X0030785Y0103929D01*
X0030729Y0104069D01*
X0030676Y0104210D01*
X0030627Y0104352D01*
X0030582Y0104496D01*
X0030541Y0104641D01*
X0030503Y0104787D01*
X0030470Y0104934D01*
X0030440Y0105082D01*
X0030414Y0105230D01*
X0030393Y0105380D01*
X0030375Y0105529D01*
X0030361Y0105679D01*
X0030351Y0105830D01*
X0030345Y0105980D01*
X0030343Y0106131D01*
X0113414Y0024241D02*
X0113416Y0024392D01*
X0113422Y0024542D01*
X0113432Y0024693D01*
X0113446Y0024843D01*
X0113464Y0024992D01*
X0113485Y0025142D01*
X0113511Y0025290D01*
X0113541Y0025438D01*
X0113574Y0025585D01*
X0113612Y0025731D01*
X0113653Y0025876D01*
X0113698Y0026020D01*
X0113747Y0026162D01*
X0113800Y0026303D01*
X0113856Y0026443D01*
X0113916Y0026581D01*
X0113979Y0026718D01*
X0114047Y0026853D01*
X0114117Y0026986D01*
X0114191Y0027117D01*
X0114269Y0027246D01*
X0114350Y0027373D01*
X0114434Y0027498D01*
X0114522Y0027621D01*
X0114613Y0027741D01*
X0114707Y0027859D01*
X0114804Y0027974D01*
X0114904Y0028087D01*
X0115007Y0028197D01*
X0115113Y0028304D01*
X0115222Y0028409D01*
X0115333Y0028510D01*
X0115447Y0028609D01*
X0115563Y0028704D01*
X0115683Y0028797D01*
X0115804Y0028886D01*
X0115928Y0028972D01*
X0116054Y0029055D01*
X0116182Y0029134D01*
X0116312Y0029210D01*
X0116444Y0029283D01*
X0116578Y0029351D01*
X0116714Y0029417D01*
X0116852Y0029479D01*
X0116991Y0029537D01*
X0117131Y0029591D01*
X0117273Y0029642D01*
X0117416Y0029689D01*
X0117561Y0029732D01*
X0117706Y0029771D01*
X0117853Y0029807D01*
X0118000Y0029838D01*
X0118148Y0029866D01*
X0118297Y0029890D01*
X0118446Y0029910D01*
X0118596Y0029926D01*
X0118746Y0029938D01*
X0118897Y0029946D01*
X0119048Y0029950D01*
X0119198Y0029950D01*
X0119349Y0029946D01*
X0119500Y0029938D01*
X0119650Y0029926D01*
X0119800Y0029910D01*
X0119949Y0029890D01*
X0120098Y0029866D01*
X0120246Y0029838D01*
X0120393Y0029807D01*
X0120540Y0029771D01*
X0120685Y0029732D01*
X0120830Y0029689D01*
X0120973Y0029642D01*
X0121115Y0029591D01*
X0121255Y0029537D01*
X0121394Y0029479D01*
X0121532Y0029417D01*
X0121668Y0029351D01*
X0121802Y0029283D01*
X0121934Y0029210D01*
X0122064Y0029134D01*
X0122192Y0029055D01*
X0122318Y0028972D01*
X0122442Y0028886D01*
X0122563Y0028797D01*
X0122683Y0028704D01*
X0122799Y0028609D01*
X0122913Y0028510D01*
X0123024Y0028409D01*
X0123133Y0028304D01*
X0123239Y0028197D01*
X0123342Y0028087D01*
X0123442Y0027974D01*
X0123539Y0027859D01*
X0123633Y0027741D01*
X0123724Y0027621D01*
X0123812Y0027498D01*
X0123896Y0027373D01*
X0123977Y0027246D01*
X0124055Y0027117D01*
X0124129Y0026986D01*
X0124199Y0026853D01*
X0124267Y0026718D01*
X0124330Y0026581D01*
X0124390Y0026443D01*
X0124446Y0026303D01*
X0124499Y0026162D01*
X0124548Y0026020D01*
X0124593Y0025876D01*
X0124634Y0025731D01*
X0124672Y0025585D01*
X0124705Y0025438D01*
X0124735Y0025290D01*
X0124761Y0025142D01*
X0124782Y0024992D01*
X0124800Y0024843D01*
X0124814Y0024693D01*
X0124824Y0024542D01*
X0124830Y0024392D01*
X0124832Y0024241D01*
X0124830Y0024090D01*
X0124824Y0023940D01*
X0124814Y0023789D01*
X0124800Y0023639D01*
X0124782Y0023490D01*
X0124761Y0023340D01*
X0124735Y0023192D01*
X0124705Y0023044D01*
X0124672Y0022897D01*
X0124634Y0022751D01*
X0124593Y0022606D01*
X0124548Y0022462D01*
X0124499Y0022320D01*
X0124446Y0022179D01*
X0124390Y0022039D01*
X0124330Y0021901D01*
X0124267Y0021764D01*
X0124199Y0021629D01*
X0124129Y0021496D01*
X0124055Y0021365D01*
X0123977Y0021236D01*
X0123896Y0021109D01*
X0123812Y0020984D01*
X0123724Y0020861D01*
X0123633Y0020741D01*
X0123539Y0020623D01*
X0123442Y0020508D01*
X0123342Y0020395D01*
X0123239Y0020285D01*
X0123133Y0020178D01*
X0123024Y0020073D01*
X0122913Y0019972D01*
X0122799Y0019873D01*
X0122683Y0019778D01*
X0122563Y0019685D01*
X0122442Y0019596D01*
X0122318Y0019510D01*
X0122192Y0019427D01*
X0122064Y0019348D01*
X0121934Y0019272D01*
X0121802Y0019199D01*
X0121668Y0019131D01*
X0121532Y0019065D01*
X0121394Y0019003D01*
X0121255Y0018945D01*
X0121115Y0018891D01*
X0120973Y0018840D01*
X0120830Y0018793D01*
X0120685Y0018750D01*
X0120540Y0018711D01*
X0120393Y0018675D01*
X0120246Y0018644D01*
X0120098Y0018616D01*
X0119949Y0018592D01*
X0119800Y0018572D01*
X0119650Y0018556D01*
X0119500Y0018544D01*
X0119349Y0018536D01*
X0119198Y0018532D01*
X0119048Y0018532D01*
X0118897Y0018536D01*
X0118746Y0018544D01*
X0118596Y0018556D01*
X0118446Y0018572D01*
X0118297Y0018592D01*
X0118148Y0018616D01*
X0118000Y0018644D01*
X0117853Y0018675D01*
X0117706Y0018711D01*
X0117561Y0018750D01*
X0117416Y0018793D01*
X0117273Y0018840D01*
X0117131Y0018891D01*
X0116991Y0018945D01*
X0116852Y0019003D01*
X0116714Y0019065D01*
X0116578Y0019131D01*
X0116444Y0019199D01*
X0116312Y0019272D01*
X0116182Y0019348D01*
X0116054Y0019427D01*
X0115928Y0019510D01*
X0115804Y0019596D01*
X0115683Y0019685D01*
X0115563Y0019778D01*
X0115447Y0019873D01*
X0115333Y0019972D01*
X0115222Y0020073D01*
X0115113Y0020178D01*
X0115007Y0020285D01*
X0114904Y0020395D01*
X0114804Y0020508D01*
X0114707Y0020623D01*
X0114613Y0020741D01*
X0114522Y0020861D01*
X0114434Y0020984D01*
X0114350Y0021109D01*
X0114269Y0021236D01*
X0114191Y0021365D01*
X0114117Y0021496D01*
X0114047Y0021629D01*
X0113979Y0021764D01*
X0113916Y0021901D01*
X0113856Y0022039D01*
X0113800Y0022179D01*
X0113747Y0022320D01*
X0113698Y0022462D01*
X0113653Y0022606D01*
X0113612Y0022751D01*
X0113574Y0022897D01*
X0113541Y0023044D01*
X0113511Y0023192D01*
X0113485Y0023340D01*
X0113464Y0023490D01*
X0113446Y0023639D01*
X0113432Y0023789D01*
X0113422Y0023940D01*
X0113416Y0024090D01*
X0113414Y0024241D01*
X0028847Y0204556D02*
X0028849Y0204689D01*
X0028855Y0204822D01*
X0028865Y0204955D01*
X0028879Y0205087D01*
X0028897Y0205219D01*
X0028918Y0205350D01*
X0028944Y0205481D01*
X0028974Y0205611D01*
X0029007Y0205740D01*
X0029045Y0205867D01*
X0029086Y0205994D01*
X0029131Y0206119D01*
X0029179Y0206243D01*
X0029232Y0206366D01*
X0029288Y0206486D01*
X0029347Y0206605D01*
X0029410Y0206723D01*
X0029477Y0206838D01*
X0029547Y0206951D01*
X0029620Y0207062D01*
X0029697Y0207171D01*
X0029777Y0207278D01*
X0029860Y0207382D01*
X0029946Y0207483D01*
X0030035Y0207582D01*
X0030127Y0207678D01*
X0030221Y0207772D01*
X0030319Y0207862D01*
X0030419Y0207950D01*
X0030522Y0208034D01*
X0030627Y0208116D01*
X0030735Y0208194D01*
X0030845Y0208269D01*
X0030957Y0208341D01*
X0031072Y0208409D01*
X0031188Y0208474D01*
X0031306Y0208535D01*
X0031426Y0208593D01*
X0031547Y0208647D01*
X0031671Y0208697D01*
X0031795Y0208744D01*
X0031921Y0208787D01*
X0032048Y0208826D01*
X0032177Y0208862D01*
X0032306Y0208893D01*
X0032436Y0208921D01*
X0032567Y0208945D01*
X0032699Y0208965D01*
X0032831Y0208981D01*
X0032964Y0208993D01*
X0033096Y0209001D01*
X0033229Y0209005D01*
X0033363Y0209005D01*
X0033496Y0209001D01*
X0033628Y0208993D01*
X0033761Y0208981D01*
X0033893Y0208965D01*
X0034025Y0208945D01*
X0034156Y0208921D01*
X0034286Y0208893D01*
X0034415Y0208862D01*
X0034544Y0208826D01*
X0034671Y0208787D01*
X0034797Y0208744D01*
X0034921Y0208697D01*
X0035045Y0208647D01*
X0035166Y0208593D01*
X0035286Y0208535D01*
X0035404Y0208474D01*
X0035521Y0208409D01*
X0035635Y0208341D01*
X0035747Y0208269D01*
X0035857Y0208194D01*
X0035965Y0208116D01*
X0036070Y0208034D01*
X0036173Y0207950D01*
X0036273Y0207862D01*
X0036371Y0207772D01*
X0036465Y0207678D01*
X0036557Y0207582D01*
X0036646Y0207483D01*
X0036732Y0207382D01*
X0036815Y0207278D01*
X0036895Y0207171D01*
X0036972Y0207062D01*
X0037045Y0206951D01*
X0037115Y0206838D01*
X0037182Y0206723D01*
X0037245Y0206605D01*
X0037304Y0206486D01*
X0037360Y0206366D01*
X0037413Y0206243D01*
X0037461Y0206119D01*
X0037506Y0205994D01*
X0037547Y0205867D01*
X0037585Y0205740D01*
X0037618Y0205611D01*
X0037648Y0205481D01*
X0037674Y0205350D01*
X0037695Y0205219D01*
X0037713Y0205087D01*
X0037727Y0204955D01*
X0037737Y0204822D01*
X0037743Y0204689D01*
X0037745Y0204556D01*
X0037743Y0204423D01*
X0037737Y0204290D01*
X0037727Y0204157D01*
X0037713Y0204025D01*
X0037695Y0203893D01*
X0037674Y0203762D01*
X0037648Y0203631D01*
X0037618Y0203501D01*
X0037585Y0203372D01*
X0037547Y0203245D01*
X0037506Y0203118D01*
X0037461Y0202993D01*
X0037413Y0202869D01*
X0037360Y0202746D01*
X0037304Y0202626D01*
X0037245Y0202507D01*
X0037182Y0202389D01*
X0037115Y0202274D01*
X0037045Y0202161D01*
X0036972Y0202050D01*
X0036895Y0201941D01*
X0036815Y0201834D01*
X0036732Y0201730D01*
X0036646Y0201629D01*
X0036557Y0201530D01*
X0036465Y0201434D01*
X0036371Y0201340D01*
X0036273Y0201250D01*
X0036173Y0201162D01*
X0036070Y0201078D01*
X0035965Y0200996D01*
X0035857Y0200918D01*
X0035747Y0200843D01*
X0035635Y0200771D01*
X0035520Y0200703D01*
X0035404Y0200638D01*
X0035286Y0200577D01*
X0035166Y0200519D01*
X0035045Y0200465D01*
X0034921Y0200415D01*
X0034797Y0200368D01*
X0034671Y0200325D01*
X0034544Y0200286D01*
X0034415Y0200250D01*
X0034286Y0200219D01*
X0034156Y0200191D01*
X0034025Y0200167D01*
X0033893Y0200147D01*
X0033761Y0200131D01*
X0033628Y0200119D01*
X0033496Y0200111D01*
X0033363Y0200107D01*
X0033229Y0200107D01*
X0033096Y0200111D01*
X0032964Y0200119D01*
X0032831Y0200131D01*
X0032699Y0200147D01*
X0032567Y0200167D01*
X0032436Y0200191D01*
X0032306Y0200219D01*
X0032177Y0200250D01*
X0032048Y0200286D01*
X0031921Y0200325D01*
X0031795Y0200368D01*
X0031671Y0200415D01*
X0031547Y0200465D01*
X0031426Y0200519D01*
X0031306Y0200577D01*
X0031188Y0200638D01*
X0031071Y0200703D01*
X0030957Y0200771D01*
X0030845Y0200843D01*
X0030735Y0200918D01*
X0030627Y0200996D01*
X0030522Y0201078D01*
X0030419Y0201162D01*
X0030319Y0201250D01*
X0030221Y0201340D01*
X0030127Y0201434D01*
X0030035Y0201530D01*
X0029946Y0201629D01*
X0029860Y0201730D01*
X0029777Y0201834D01*
X0029697Y0201941D01*
X0029620Y0202050D01*
X0029547Y0202161D01*
X0029477Y0202274D01*
X0029410Y0202389D01*
X0029347Y0202507D01*
X0029288Y0202626D01*
X0029232Y0202746D01*
X0029179Y0202869D01*
X0029131Y0202993D01*
X0029086Y0203118D01*
X0029045Y0203245D01*
X0029007Y0203372D01*
X0028974Y0203501D01*
X0028944Y0203631D01*
X0028918Y0203762D01*
X0028897Y0203893D01*
X0028879Y0204025D01*
X0028865Y0204157D01*
X0028855Y0204290D01*
X0028849Y0204423D01*
X0028847Y0204556D01*
X0030343Y0301800D02*
X0030345Y0301951D01*
X0030351Y0302101D01*
X0030361Y0302252D01*
X0030375Y0302402D01*
X0030393Y0302551D01*
X0030414Y0302701D01*
X0030440Y0302849D01*
X0030470Y0302997D01*
X0030503Y0303144D01*
X0030541Y0303290D01*
X0030582Y0303435D01*
X0030627Y0303579D01*
X0030676Y0303721D01*
X0030729Y0303862D01*
X0030785Y0304002D01*
X0030845Y0304140D01*
X0030908Y0304277D01*
X0030976Y0304412D01*
X0031046Y0304545D01*
X0031120Y0304676D01*
X0031198Y0304805D01*
X0031279Y0304932D01*
X0031363Y0305057D01*
X0031451Y0305180D01*
X0031542Y0305300D01*
X0031636Y0305418D01*
X0031733Y0305533D01*
X0031833Y0305646D01*
X0031936Y0305756D01*
X0032042Y0305863D01*
X0032151Y0305968D01*
X0032262Y0306069D01*
X0032376Y0306168D01*
X0032492Y0306263D01*
X0032612Y0306356D01*
X0032733Y0306445D01*
X0032857Y0306531D01*
X0032983Y0306614D01*
X0033111Y0306693D01*
X0033241Y0306769D01*
X0033373Y0306842D01*
X0033507Y0306910D01*
X0033643Y0306976D01*
X0033781Y0307038D01*
X0033920Y0307096D01*
X0034060Y0307150D01*
X0034202Y0307201D01*
X0034345Y0307248D01*
X0034490Y0307291D01*
X0034635Y0307330D01*
X0034782Y0307366D01*
X0034929Y0307397D01*
X0035077Y0307425D01*
X0035226Y0307449D01*
X0035375Y0307469D01*
X0035525Y0307485D01*
X0035675Y0307497D01*
X0035826Y0307505D01*
X0035977Y0307509D01*
X0036127Y0307509D01*
X0036278Y0307505D01*
X0036429Y0307497D01*
X0036579Y0307485D01*
X0036729Y0307469D01*
X0036878Y0307449D01*
X0037027Y0307425D01*
X0037175Y0307397D01*
X0037322Y0307366D01*
X0037469Y0307330D01*
X0037614Y0307291D01*
X0037759Y0307248D01*
X0037902Y0307201D01*
X0038044Y0307150D01*
X0038184Y0307096D01*
X0038323Y0307038D01*
X0038461Y0306976D01*
X0038597Y0306910D01*
X0038731Y0306842D01*
X0038863Y0306769D01*
X0038993Y0306693D01*
X0039121Y0306614D01*
X0039247Y0306531D01*
X0039371Y0306445D01*
X0039492Y0306356D01*
X0039612Y0306263D01*
X0039728Y0306168D01*
X0039842Y0306069D01*
X0039953Y0305968D01*
X0040062Y0305863D01*
X0040168Y0305756D01*
X0040271Y0305646D01*
X0040371Y0305533D01*
X0040468Y0305418D01*
X0040562Y0305300D01*
X0040653Y0305180D01*
X0040741Y0305057D01*
X0040825Y0304932D01*
X0040906Y0304805D01*
X0040984Y0304676D01*
X0041058Y0304545D01*
X0041128Y0304412D01*
X0041196Y0304277D01*
X0041259Y0304140D01*
X0041319Y0304002D01*
X0041375Y0303862D01*
X0041428Y0303721D01*
X0041477Y0303579D01*
X0041522Y0303435D01*
X0041563Y0303290D01*
X0041601Y0303144D01*
X0041634Y0302997D01*
X0041664Y0302849D01*
X0041690Y0302701D01*
X0041711Y0302551D01*
X0041729Y0302402D01*
X0041743Y0302252D01*
X0041753Y0302101D01*
X0041759Y0301951D01*
X0041761Y0301800D01*
X0041759Y0301649D01*
X0041753Y0301499D01*
X0041743Y0301348D01*
X0041729Y0301198D01*
X0041711Y0301049D01*
X0041690Y0300899D01*
X0041664Y0300751D01*
X0041634Y0300603D01*
X0041601Y0300456D01*
X0041563Y0300310D01*
X0041522Y0300165D01*
X0041477Y0300021D01*
X0041428Y0299879D01*
X0041375Y0299738D01*
X0041319Y0299598D01*
X0041259Y0299460D01*
X0041196Y0299323D01*
X0041128Y0299188D01*
X0041058Y0299055D01*
X0040984Y0298924D01*
X0040906Y0298795D01*
X0040825Y0298668D01*
X0040741Y0298543D01*
X0040653Y0298420D01*
X0040562Y0298300D01*
X0040468Y0298182D01*
X0040371Y0298067D01*
X0040271Y0297954D01*
X0040168Y0297844D01*
X0040062Y0297737D01*
X0039953Y0297632D01*
X0039842Y0297531D01*
X0039728Y0297432D01*
X0039612Y0297337D01*
X0039492Y0297244D01*
X0039371Y0297155D01*
X0039247Y0297069D01*
X0039121Y0296986D01*
X0038993Y0296907D01*
X0038863Y0296831D01*
X0038731Y0296758D01*
X0038597Y0296690D01*
X0038461Y0296624D01*
X0038323Y0296562D01*
X0038184Y0296504D01*
X0038044Y0296450D01*
X0037902Y0296399D01*
X0037759Y0296352D01*
X0037614Y0296309D01*
X0037469Y0296270D01*
X0037322Y0296234D01*
X0037175Y0296203D01*
X0037027Y0296175D01*
X0036878Y0296151D01*
X0036729Y0296131D01*
X0036579Y0296115D01*
X0036429Y0296103D01*
X0036278Y0296095D01*
X0036127Y0296091D01*
X0035977Y0296091D01*
X0035826Y0296095D01*
X0035675Y0296103D01*
X0035525Y0296115D01*
X0035375Y0296131D01*
X0035226Y0296151D01*
X0035077Y0296175D01*
X0034929Y0296203D01*
X0034782Y0296234D01*
X0034635Y0296270D01*
X0034490Y0296309D01*
X0034345Y0296352D01*
X0034202Y0296399D01*
X0034060Y0296450D01*
X0033920Y0296504D01*
X0033781Y0296562D01*
X0033643Y0296624D01*
X0033507Y0296690D01*
X0033373Y0296758D01*
X0033241Y0296831D01*
X0033111Y0296907D01*
X0032983Y0296986D01*
X0032857Y0297069D01*
X0032733Y0297155D01*
X0032612Y0297244D01*
X0032492Y0297337D01*
X0032376Y0297432D01*
X0032262Y0297531D01*
X0032151Y0297632D01*
X0032042Y0297737D01*
X0031936Y0297844D01*
X0031833Y0297954D01*
X0031733Y0298067D01*
X0031636Y0298182D01*
X0031542Y0298300D01*
X0031451Y0298420D01*
X0031363Y0298543D01*
X0031279Y0298668D01*
X0031198Y0298795D01*
X0031120Y0298924D01*
X0031046Y0299055D01*
X0030976Y0299188D01*
X0030908Y0299323D01*
X0030845Y0299460D01*
X0030785Y0299598D01*
X0030729Y0299738D01*
X0030676Y0299879D01*
X0030627Y0300021D01*
X0030582Y0300165D01*
X0030541Y0300310D01*
X0030503Y0300456D01*
X0030470Y0300603D01*
X0030440Y0300751D01*
X0030414Y0300899D01*
X0030393Y0301049D01*
X0030375Y0301198D01*
X0030361Y0301348D01*
X0030351Y0301499D01*
X0030345Y0301649D01*
X0030343Y0301800D01*
X0113414Y0384871D02*
X0113416Y0385022D01*
X0113422Y0385172D01*
X0113432Y0385323D01*
X0113446Y0385473D01*
X0113464Y0385622D01*
X0113485Y0385772D01*
X0113511Y0385920D01*
X0113541Y0386068D01*
X0113574Y0386215D01*
X0113612Y0386361D01*
X0113653Y0386506D01*
X0113698Y0386650D01*
X0113747Y0386792D01*
X0113800Y0386933D01*
X0113856Y0387073D01*
X0113916Y0387211D01*
X0113979Y0387348D01*
X0114047Y0387483D01*
X0114117Y0387616D01*
X0114191Y0387747D01*
X0114269Y0387876D01*
X0114350Y0388003D01*
X0114434Y0388128D01*
X0114522Y0388251D01*
X0114613Y0388371D01*
X0114707Y0388489D01*
X0114804Y0388604D01*
X0114904Y0388717D01*
X0115007Y0388827D01*
X0115113Y0388934D01*
X0115222Y0389039D01*
X0115333Y0389140D01*
X0115447Y0389239D01*
X0115563Y0389334D01*
X0115683Y0389427D01*
X0115804Y0389516D01*
X0115928Y0389602D01*
X0116054Y0389685D01*
X0116182Y0389764D01*
X0116312Y0389840D01*
X0116444Y0389913D01*
X0116578Y0389981D01*
X0116714Y0390047D01*
X0116852Y0390109D01*
X0116991Y0390167D01*
X0117131Y0390221D01*
X0117273Y0390272D01*
X0117416Y0390319D01*
X0117561Y0390362D01*
X0117706Y0390401D01*
X0117853Y0390437D01*
X0118000Y0390468D01*
X0118148Y0390496D01*
X0118297Y0390520D01*
X0118446Y0390540D01*
X0118596Y0390556D01*
X0118746Y0390568D01*
X0118897Y0390576D01*
X0119048Y0390580D01*
X0119198Y0390580D01*
X0119349Y0390576D01*
X0119500Y0390568D01*
X0119650Y0390556D01*
X0119800Y0390540D01*
X0119949Y0390520D01*
X0120098Y0390496D01*
X0120246Y0390468D01*
X0120393Y0390437D01*
X0120540Y0390401D01*
X0120685Y0390362D01*
X0120830Y0390319D01*
X0120973Y0390272D01*
X0121115Y0390221D01*
X0121255Y0390167D01*
X0121394Y0390109D01*
X0121532Y0390047D01*
X0121668Y0389981D01*
X0121802Y0389913D01*
X0121934Y0389840D01*
X0122064Y0389764D01*
X0122192Y0389685D01*
X0122318Y0389602D01*
X0122442Y0389516D01*
X0122563Y0389427D01*
X0122683Y0389334D01*
X0122799Y0389239D01*
X0122913Y0389140D01*
X0123024Y0389039D01*
X0123133Y0388934D01*
X0123239Y0388827D01*
X0123342Y0388717D01*
X0123442Y0388604D01*
X0123539Y0388489D01*
X0123633Y0388371D01*
X0123724Y0388251D01*
X0123812Y0388128D01*
X0123896Y0388003D01*
X0123977Y0387876D01*
X0124055Y0387747D01*
X0124129Y0387616D01*
X0124199Y0387483D01*
X0124267Y0387348D01*
X0124330Y0387211D01*
X0124390Y0387073D01*
X0124446Y0386933D01*
X0124499Y0386792D01*
X0124548Y0386650D01*
X0124593Y0386506D01*
X0124634Y0386361D01*
X0124672Y0386215D01*
X0124705Y0386068D01*
X0124735Y0385920D01*
X0124761Y0385772D01*
X0124782Y0385622D01*
X0124800Y0385473D01*
X0124814Y0385323D01*
X0124824Y0385172D01*
X0124830Y0385022D01*
X0124832Y0384871D01*
X0124830Y0384720D01*
X0124824Y0384570D01*
X0124814Y0384419D01*
X0124800Y0384269D01*
X0124782Y0384120D01*
X0124761Y0383970D01*
X0124735Y0383822D01*
X0124705Y0383674D01*
X0124672Y0383527D01*
X0124634Y0383381D01*
X0124593Y0383236D01*
X0124548Y0383092D01*
X0124499Y0382950D01*
X0124446Y0382809D01*
X0124390Y0382669D01*
X0124330Y0382531D01*
X0124267Y0382394D01*
X0124199Y0382259D01*
X0124129Y0382126D01*
X0124055Y0381995D01*
X0123977Y0381866D01*
X0123896Y0381739D01*
X0123812Y0381614D01*
X0123724Y0381491D01*
X0123633Y0381371D01*
X0123539Y0381253D01*
X0123442Y0381138D01*
X0123342Y0381025D01*
X0123239Y0380915D01*
X0123133Y0380808D01*
X0123024Y0380703D01*
X0122913Y0380602D01*
X0122799Y0380503D01*
X0122683Y0380408D01*
X0122563Y0380315D01*
X0122442Y0380226D01*
X0122318Y0380140D01*
X0122192Y0380057D01*
X0122064Y0379978D01*
X0121934Y0379902D01*
X0121802Y0379829D01*
X0121668Y0379761D01*
X0121532Y0379695D01*
X0121394Y0379633D01*
X0121255Y0379575D01*
X0121115Y0379521D01*
X0120973Y0379470D01*
X0120830Y0379423D01*
X0120685Y0379380D01*
X0120540Y0379341D01*
X0120393Y0379305D01*
X0120246Y0379274D01*
X0120098Y0379246D01*
X0119949Y0379222D01*
X0119800Y0379202D01*
X0119650Y0379186D01*
X0119500Y0379174D01*
X0119349Y0379166D01*
X0119198Y0379162D01*
X0119048Y0379162D01*
X0118897Y0379166D01*
X0118746Y0379174D01*
X0118596Y0379186D01*
X0118446Y0379202D01*
X0118297Y0379222D01*
X0118148Y0379246D01*
X0118000Y0379274D01*
X0117853Y0379305D01*
X0117706Y0379341D01*
X0117561Y0379380D01*
X0117416Y0379423D01*
X0117273Y0379470D01*
X0117131Y0379521D01*
X0116991Y0379575D01*
X0116852Y0379633D01*
X0116714Y0379695D01*
X0116578Y0379761D01*
X0116444Y0379829D01*
X0116312Y0379902D01*
X0116182Y0379978D01*
X0116054Y0380057D01*
X0115928Y0380140D01*
X0115804Y0380226D01*
X0115683Y0380315D01*
X0115563Y0380408D01*
X0115447Y0380503D01*
X0115333Y0380602D01*
X0115222Y0380703D01*
X0115113Y0380808D01*
X0115007Y0380915D01*
X0114904Y0381025D01*
X0114804Y0381138D01*
X0114707Y0381253D01*
X0114613Y0381371D01*
X0114522Y0381491D01*
X0114434Y0381614D01*
X0114350Y0381739D01*
X0114269Y0381866D01*
X0114191Y0381995D01*
X0114117Y0382126D01*
X0114047Y0382259D01*
X0113979Y0382394D01*
X0113916Y0382531D01*
X0113856Y0382669D01*
X0113800Y0382809D01*
X0113747Y0382950D01*
X0113698Y0383092D01*
X0113653Y0383236D01*
X0113612Y0383381D01*
X0113574Y0383527D01*
X0113541Y0383674D01*
X0113511Y0383822D01*
X0113485Y0383970D01*
X0113464Y0384120D01*
X0113446Y0384269D01*
X0113432Y0384419D01*
X0113422Y0384570D01*
X0113416Y0384720D01*
X0113414Y0384871D01*
X0307902Y0384871D02*
X0307904Y0385022D01*
X0307910Y0385172D01*
X0307920Y0385323D01*
X0307934Y0385473D01*
X0307952Y0385622D01*
X0307973Y0385772D01*
X0307999Y0385920D01*
X0308029Y0386068D01*
X0308062Y0386215D01*
X0308100Y0386361D01*
X0308141Y0386506D01*
X0308186Y0386650D01*
X0308235Y0386792D01*
X0308288Y0386933D01*
X0308344Y0387073D01*
X0308404Y0387211D01*
X0308467Y0387348D01*
X0308535Y0387483D01*
X0308605Y0387616D01*
X0308679Y0387747D01*
X0308757Y0387876D01*
X0308838Y0388003D01*
X0308922Y0388128D01*
X0309010Y0388251D01*
X0309101Y0388371D01*
X0309195Y0388489D01*
X0309292Y0388604D01*
X0309392Y0388717D01*
X0309495Y0388827D01*
X0309601Y0388934D01*
X0309710Y0389039D01*
X0309821Y0389140D01*
X0309935Y0389239D01*
X0310051Y0389334D01*
X0310171Y0389427D01*
X0310292Y0389516D01*
X0310416Y0389602D01*
X0310542Y0389685D01*
X0310670Y0389764D01*
X0310800Y0389840D01*
X0310932Y0389913D01*
X0311066Y0389981D01*
X0311202Y0390047D01*
X0311340Y0390109D01*
X0311479Y0390167D01*
X0311619Y0390221D01*
X0311761Y0390272D01*
X0311904Y0390319D01*
X0312049Y0390362D01*
X0312194Y0390401D01*
X0312341Y0390437D01*
X0312488Y0390468D01*
X0312636Y0390496D01*
X0312785Y0390520D01*
X0312934Y0390540D01*
X0313084Y0390556D01*
X0313234Y0390568D01*
X0313385Y0390576D01*
X0313536Y0390580D01*
X0313686Y0390580D01*
X0313837Y0390576D01*
X0313988Y0390568D01*
X0314138Y0390556D01*
X0314288Y0390540D01*
X0314437Y0390520D01*
X0314586Y0390496D01*
X0314734Y0390468D01*
X0314881Y0390437D01*
X0315028Y0390401D01*
X0315173Y0390362D01*
X0315318Y0390319D01*
X0315461Y0390272D01*
X0315603Y0390221D01*
X0315743Y0390167D01*
X0315882Y0390109D01*
X0316020Y0390047D01*
X0316156Y0389981D01*
X0316290Y0389913D01*
X0316422Y0389840D01*
X0316552Y0389764D01*
X0316680Y0389685D01*
X0316806Y0389602D01*
X0316930Y0389516D01*
X0317051Y0389427D01*
X0317171Y0389334D01*
X0317287Y0389239D01*
X0317401Y0389140D01*
X0317512Y0389039D01*
X0317621Y0388934D01*
X0317727Y0388827D01*
X0317830Y0388717D01*
X0317930Y0388604D01*
X0318027Y0388489D01*
X0318121Y0388371D01*
X0318212Y0388251D01*
X0318300Y0388128D01*
X0318384Y0388003D01*
X0318465Y0387876D01*
X0318543Y0387747D01*
X0318617Y0387616D01*
X0318687Y0387483D01*
X0318755Y0387348D01*
X0318818Y0387211D01*
X0318878Y0387073D01*
X0318934Y0386933D01*
X0318987Y0386792D01*
X0319036Y0386650D01*
X0319081Y0386506D01*
X0319122Y0386361D01*
X0319160Y0386215D01*
X0319193Y0386068D01*
X0319223Y0385920D01*
X0319249Y0385772D01*
X0319270Y0385622D01*
X0319288Y0385473D01*
X0319302Y0385323D01*
X0319312Y0385172D01*
X0319318Y0385022D01*
X0319320Y0384871D01*
X0319318Y0384720D01*
X0319312Y0384570D01*
X0319302Y0384419D01*
X0319288Y0384269D01*
X0319270Y0384120D01*
X0319249Y0383970D01*
X0319223Y0383822D01*
X0319193Y0383674D01*
X0319160Y0383527D01*
X0319122Y0383381D01*
X0319081Y0383236D01*
X0319036Y0383092D01*
X0318987Y0382950D01*
X0318934Y0382809D01*
X0318878Y0382669D01*
X0318818Y0382531D01*
X0318755Y0382394D01*
X0318687Y0382259D01*
X0318617Y0382126D01*
X0318543Y0381995D01*
X0318465Y0381866D01*
X0318384Y0381739D01*
X0318300Y0381614D01*
X0318212Y0381491D01*
X0318121Y0381371D01*
X0318027Y0381253D01*
X0317930Y0381138D01*
X0317830Y0381025D01*
X0317727Y0380915D01*
X0317621Y0380808D01*
X0317512Y0380703D01*
X0317401Y0380602D01*
X0317287Y0380503D01*
X0317171Y0380408D01*
X0317051Y0380315D01*
X0316930Y0380226D01*
X0316806Y0380140D01*
X0316680Y0380057D01*
X0316552Y0379978D01*
X0316422Y0379902D01*
X0316290Y0379829D01*
X0316156Y0379761D01*
X0316020Y0379695D01*
X0315882Y0379633D01*
X0315743Y0379575D01*
X0315603Y0379521D01*
X0315461Y0379470D01*
X0315318Y0379423D01*
X0315173Y0379380D01*
X0315028Y0379341D01*
X0314881Y0379305D01*
X0314734Y0379274D01*
X0314586Y0379246D01*
X0314437Y0379222D01*
X0314288Y0379202D01*
X0314138Y0379186D01*
X0313988Y0379174D01*
X0313837Y0379166D01*
X0313686Y0379162D01*
X0313536Y0379162D01*
X0313385Y0379166D01*
X0313234Y0379174D01*
X0313084Y0379186D01*
X0312934Y0379202D01*
X0312785Y0379222D01*
X0312636Y0379246D01*
X0312488Y0379274D01*
X0312341Y0379305D01*
X0312194Y0379341D01*
X0312049Y0379380D01*
X0311904Y0379423D01*
X0311761Y0379470D01*
X0311619Y0379521D01*
X0311479Y0379575D01*
X0311340Y0379633D01*
X0311202Y0379695D01*
X0311066Y0379761D01*
X0310932Y0379829D01*
X0310800Y0379902D01*
X0310670Y0379978D01*
X0310542Y0380057D01*
X0310416Y0380140D01*
X0310292Y0380226D01*
X0310171Y0380315D01*
X0310051Y0380408D01*
X0309935Y0380503D01*
X0309821Y0380602D01*
X0309710Y0380703D01*
X0309601Y0380808D01*
X0309495Y0380915D01*
X0309392Y0381025D01*
X0309292Y0381138D01*
X0309195Y0381253D01*
X0309101Y0381371D01*
X0309010Y0381491D01*
X0308922Y0381614D01*
X0308838Y0381739D01*
X0308757Y0381866D01*
X0308679Y0381995D01*
X0308605Y0382126D01*
X0308535Y0382259D01*
X0308467Y0382394D01*
X0308404Y0382531D01*
X0308344Y0382669D01*
X0308288Y0382809D01*
X0308235Y0382950D01*
X0308186Y0383092D01*
X0308141Y0383236D01*
X0308100Y0383381D01*
X0308062Y0383527D01*
X0308029Y0383674D01*
X0307999Y0383822D01*
X0307973Y0383970D01*
X0307952Y0384120D01*
X0307934Y0384269D01*
X0307920Y0384419D01*
X0307910Y0384570D01*
X0307904Y0384720D01*
X0307902Y0384871D01*
X0390973Y0301800D02*
X0390975Y0301951D01*
X0390981Y0302101D01*
X0390991Y0302252D01*
X0391005Y0302402D01*
X0391023Y0302551D01*
X0391044Y0302701D01*
X0391070Y0302849D01*
X0391100Y0302997D01*
X0391133Y0303144D01*
X0391171Y0303290D01*
X0391212Y0303435D01*
X0391257Y0303579D01*
X0391306Y0303721D01*
X0391359Y0303862D01*
X0391415Y0304002D01*
X0391475Y0304140D01*
X0391538Y0304277D01*
X0391606Y0304412D01*
X0391676Y0304545D01*
X0391750Y0304676D01*
X0391828Y0304805D01*
X0391909Y0304932D01*
X0391993Y0305057D01*
X0392081Y0305180D01*
X0392172Y0305300D01*
X0392266Y0305418D01*
X0392363Y0305533D01*
X0392463Y0305646D01*
X0392566Y0305756D01*
X0392672Y0305863D01*
X0392781Y0305968D01*
X0392892Y0306069D01*
X0393006Y0306168D01*
X0393122Y0306263D01*
X0393242Y0306356D01*
X0393363Y0306445D01*
X0393487Y0306531D01*
X0393613Y0306614D01*
X0393741Y0306693D01*
X0393871Y0306769D01*
X0394003Y0306842D01*
X0394137Y0306910D01*
X0394273Y0306976D01*
X0394411Y0307038D01*
X0394550Y0307096D01*
X0394690Y0307150D01*
X0394832Y0307201D01*
X0394975Y0307248D01*
X0395120Y0307291D01*
X0395265Y0307330D01*
X0395412Y0307366D01*
X0395559Y0307397D01*
X0395707Y0307425D01*
X0395856Y0307449D01*
X0396005Y0307469D01*
X0396155Y0307485D01*
X0396305Y0307497D01*
X0396456Y0307505D01*
X0396607Y0307509D01*
X0396757Y0307509D01*
X0396908Y0307505D01*
X0397059Y0307497D01*
X0397209Y0307485D01*
X0397359Y0307469D01*
X0397508Y0307449D01*
X0397657Y0307425D01*
X0397805Y0307397D01*
X0397952Y0307366D01*
X0398099Y0307330D01*
X0398244Y0307291D01*
X0398389Y0307248D01*
X0398532Y0307201D01*
X0398674Y0307150D01*
X0398814Y0307096D01*
X0398953Y0307038D01*
X0399091Y0306976D01*
X0399227Y0306910D01*
X0399361Y0306842D01*
X0399493Y0306769D01*
X0399623Y0306693D01*
X0399751Y0306614D01*
X0399877Y0306531D01*
X0400001Y0306445D01*
X0400122Y0306356D01*
X0400242Y0306263D01*
X0400358Y0306168D01*
X0400472Y0306069D01*
X0400583Y0305968D01*
X0400692Y0305863D01*
X0400798Y0305756D01*
X0400901Y0305646D01*
X0401001Y0305533D01*
X0401098Y0305418D01*
X0401192Y0305300D01*
X0401283Y0305180D01*
X0401371Y0305057D01*
X0401455Y0304932D01*
X0401536Y0304805D01*
X0401614Y0304676D01*
X0401688Y0304545D01*
X0401758Y0304412D01*
X0401826Y0304277D01*
X0401889Y0304140D01*
X0401949Y0304002D01*
X0402005Y0303862D01*
X0402058Y0303721D01*
X0402107Y0303579D01*
X0402152Y0303435D01*
X0402193Y0303290D01*
X0402231Y0303144D01*
X0402264Y0302997D01*
X0402294Y0302849D01*
X0402320Y0302701D01*
X0402341Y0302551D01*
X0402359Y0302402D01*
X0402373Y0302252D01*
X0402383Y0302101D01*
X0402389Y0301951D01*
X0402391Y0301800D01*
X0402389Y0301649D01*
X0402383Y0301499D01*
X0402373Y0301348D01*
X0402359Y0301198D01*
X0402341Y0301049D01*
X0402320Y0300899D01*
X0402294Y0300751D01*
X0402264Y0300603D01*
X0402231Y0300456D01*
X0402193Y0300310D01*
X0402152Y0300165D01*
X0402107Y0300021D01*
X0402058Y0299879D01*
X0402005Y0299738D01*
X0401949Y0299598D01*
X0401889Y0299460D01*
X0401826Y0299323D01*
X0401758Y0299188D01*
X0401688Y0299055D01*
X0401614Y0298924D01*
X0401536Y0298795D01*
X0401455Y0298668D01*
X0401371Y0298543D01*
X0401283Y0298420D01*
X0401192Y0298300D01*
X0401098Y0298182D01*
X0401001Y0298067D01*
X0400901Y0297954D01*
X0400798Y0297844D01*
X0400692Y0297737D01*
X0400583Y0297632D01*
X0400472Y0297531D01*
X0400358Y0297432D01*
X0400242Y0297337D01*
X0400122Y0297244D01*
X0400001Y0297155D01*
X0399877Y0297069D01*
X0399751Y0296986D01*
X0399623Y0296907D01*
X0399493Y0296831D01*
X0399361Y0296758D01*
X0399227Y0296690D01*
X0399091Y0296624D01*
X0398953Y0296562D01*
X0398814Y0296504D01*
X0398674Y0296450D01*
X0398532Y0296399D01*
X0398389Y0296352D01*
X0398244Y0296309D01*
X0398099Y0296270D01*
X0397952Y0296234D01*
X0397805Y0296203D01*
X0397657Y0296175D01*
X0397508Y0296151D01*
X0397359Y0296131D01*
X0397209Y0296115D01*
X0397059Y0296103D01*
X0396908Y0296095D01*
X0396757Y0296091D01*
X0396607Y0296091D01*
X0396456Y0296095D01*
X0396305Y0296103D01*
X0396155Y0296115D01*
X0396005Y0296131D01*
X0395856Y0296151D01*
X0395707Y0296175D01*
X0395559Y0296203D01*
X0395412Y0296234D01*
X0395265Y0296270D01*
X0395120Y0296309D01*
X0394975Y0296352D01*
X0394832Y0296399D01*
X0394690Y0296450D01*
X0394550Y0296504D01*
X0394411Y0296562D01*
X0394273Y0296624D01*
X0394137Y0296690D01*
X0394003Y0296758D01*
X0393871Y0296831D01*
X0393741Y0296907D01*
X0393613Y0296986D01*
X0393487Y0297069D01*
X0393363Y0297155D01*
X0393242Y0297244D01*
X0393122Y0297337D01*
X0393006Y0297432D01*
X0392892Y0297531D01*
X0392781Y0297632D01*
X0392672Y0297737D01*
X0392566Y0297844D01*
X0392463Y0297954D01*
X0392363Y0298067D01*
X0392266Y0298182D01*
X0392172Y0298300D01*
X0392081Y0298420D01*
X0391993Y0298543D01*
X0391909Y0298668D01*
X0391828Y0298795D01*
X0391750Y0298924D01*
X0391676Y0299055D01*
X0391606Y0299188D01*
X0391538Y0299323D01*
X0391475Y0299460D01*
X0391415Y0299598D01*
X0391359Y0299738D01*
X0391306Y0299879D01*
X0391257Y0300021D01*
X0391212Y0300165D01*
X0391171Y0300310D01*
X0391133Y0300456D01*
X0391100Y0300603D01*
X0391070Y0300751D01*
X0391044Y0300899D01*
X0391023Y0301049D01*
X0391005Y0301198D01*
X0390991Y0301348D01*
X0390981Y0301499D01*
X0390975Y0301649D01*
X0390973Y0301800D01*
X0394989Y0204556D02*
X0394991Y0204689D01*
X0394997Y0204822D01*
X0395007Y0204955D01*
X0395021Y0205087D01*
X0395039Y0205219D01*
X0395060Y0205350D01*
X0395086Y0205481D01*
X0395116Y0205611D01*
X0395149Y0205740D01*
X0395187Y0205867D01*
X0395228Y0205994D01*
X0395273Y0206119D01*
X0395321Y0206243D01*
X0395374Y0206366D01*
X0395430Y0206486D01*
X0395489Y0206605D01*
X0395552Y0206723D01*
X0395619Y0206838D01*
X0395689Y0206951D01*
X0395762Y0207062D01*
X0395839Y0207171D01*
X0395919Y0207278D01*
X0396002Y0207382D01*
X0396088Y0207483D01*
X0396177Y0207582D01*
X0396269Y0207678D01*
X0396363Y0207772D01*
X0396461Y0207862D01*
X0396561Y0207950D01*
X0396664Y0208034D01*
X0396769Y0208116D01*
X0396877Y0208194D01*
X0396987Y0208269D01*
X0397099Y0208341D01*
X0397214Y0208409D01*
X0397330Y0208474D01*
X0397448Y0208535D01*
X0397568Y0208593D01*
X0397689Y0208647D01*
X0397813Y0208697D01*
X0397937Y0208744D01*
X0398063Y0208787D01*
X0398190Y0208826D01*
X0398319Y0208862D01*
X0398448Y0208893D01*
X0398578Y0208921D01*
X0398709Y0208945D01*
X0398841Y0208965D01*
X0398973Y0208981D01*
X0399106Y0208993D01*
X0399238Y0209001D01*
X0399371Y0209005D01*
X0399505Y0209005D01*
X0399638Y0209001D01*
X0399770Y0208993D01*
X0399903Y0208981D01*
X0400035Y0208965D01*
X0400167Y0208945D01*
X0400298Y0208921D01*
X0400428Y0208893D01*
X0400557Y0208862D01*
X0400686Y0208826D01*
X0400813Y0208787D01*
X0400939Y0208744D01*
X0401063Y0208697D01*
X0401187Y0208647D01*
X0401308Y0208593D01*
X0401428Y0208535D01*
X0401546Y0208474D01*
X0401663Y0208409D01*
X0401777Y0208341D01*
X0401889Y0208269D01*
X0401999Y0208194D01*
X0402107Y0208116D01*
X0402212Y0208034D01*
X0402315Y0207950D01*
X0402415Y0207862D01*
X0402513Y0207772D01*
X0402607Y0207678D01*
X0402699Y0207582D01*
X0402788Y0207483D01*
X0402874Y0207382D01*
X0402957Y0207278D01*
X0403037Y0207171D01*
X0403114Y0207062D01*
X0403187Y0206951D01*
X0403257Y0206838D01*
X0403324Y0206723D01*
X0403387Y0206605D01*
X0403446Y0206486D01*
X0403502Y0206366D01*
X0403555Y0206243D01*
X0403603Y0206119D01*
X0403648Y0205994D01*
X0403689Y0205867D01*
X0403727Y0205740D01*
X0403760Y0205611D01*
X0403790Y0205481D01*
X0403816Y0205350D01*
X0403837Y0205219D01*
X0403855Y0205087D01*
X0403869Y0204955D01*
X0403879Y0204822D01*
X0403885Y0204689D01*
X0403887Y0204556D01*
X0403885Y0204423D01*
X0403879Y0204290D01*
X0403869Y0204157D01*
X0403855Y0204025D01*
X0403837Y0203893D01*
X0403816Y0203762D01*
X0403790Y0203631D01*
X0403760Y0203501D01*
X0403727Y0203372D01*
X0403689Y0203245D01*
X0403648Y0203118D01*
X0403603Y0202993D01*
X0403555Y0202869D01*
X0403502Y0202746D01*
X0403446Y0202626D01*
X0403387Y0202507D01*
X0403324Y0202389D01*
X0403257Y0202274D01*
X0403187Y0202161D01*
X0403114Y0202050D01*
X0403037Y0201941D01*
X0402957Y0201834D01*
X0402874Y0201730D01*
X0402788Y0201629D01*
X0402699Y0201530D01*
X0402607Y0201434D01*
X0402513Y0201340D01*
X0402415Y0201250D01*
X0402315Y0201162D01*
X0402212Y0201078D01*
X0402107Y0200996D01*
X0401999Y0200918D01*
X0401889Y0200843D01*
X0401777Y0200771D01*
X0401662Y0200703D01*
X0401546Y0200638D01*
X0401428Y0200577D01*
X0401308Y0200519D01*
X0401187Y0200465D01*
X0401063Y0200415D01*
X0400939Y0200368D01*
X0400813Y0200325D01*
X0400686Y0200286D01*
X0400557Y0200250D01*
X0400428Y0200219D01*
X0400298Y0200191D01*
X0400167Y0200167D01*
X0400035Y0200147D01*
X0399903Y0200131D01*
X0399770Y0200119D01*
X0399638Y0200111D01*
X0399505Y0200107D01*
X0399371Y0200107D01*
X0399238Y0200111D01*
X0399106Y0200119D01*
X0398973Y0200131D01*
X0398841Y0200147D01*
X0398709Y0200167D01*
X0398578Y0200191D01*
X0398448Y0200219D01*
X0398319Y0200250D01*
X0398190Y0200286D01*
X0398063Y0200325D01*
X0397937Y0200368D01*
X0397813Y0200415D01*
X0397689Y0200465D01*
X0397568Y0200519D01*
X0397448Y0200577D01*
X0397330Y0200638D01*
X0397213Y0200703D01*
X0397099Y0200771D01*
X0396987Y0200843D01*
X0396877Y0200918D01*
X0396769Y0200996D01*
X0396664Y0201078D01*
X0396561Y0201162D01*
X0396461Y0201250D01*
X0396363Y0201340D01*
X0396269Y0201434D01*
X0396177Y0201530D01*
X0396088Y0201629D01*
X0396002Y0201730D01*
X0395919Y0201834D01*
X0395839Y0201941D01*
X0395762Y0202050D01*
X0395689Y0202161D01*
X0395619Y0202274D01*
X0395552Y0202389D01*
X0395489Y0202507D01*
X0395430Y0202626D01*
X0395374Y0202746D01*
X0395321Y0202869D01*
X0395273Y0202993D01*
X0395228Y0203118D01*
X0395187Y0203245D01*
X0395149Y0203372D01*
X0395116Y0203501D01*
X0395086Y0203631D01*
X0395060Y0203762D01*
X0395039Y0203893D01*
X0395021Y0204025D01*
X0395007Y0204157D01*
X0394997Y0204290D01*
X0394991Y0204423D01*
X0394989Y0204556D01*
X0390973Y0107312D02*
X0390975Y0107463D01*
X0390981Y0107613D01*
X0390991Y0107764D01*
X0391005Y0107914D01*
X0391023Y0108063D01*
X0391044Y0108213D01*
X0391070Y0108361D01*
X0391100Y0108509D01*
X0391133Y0108656D01*
X0391171Y0108802D01*
X0391212Y0108947D01*
X0391257Y0109091D01*
X0391306Y0109233D01*
X0391359Y0109374D01*
X0391415Y0109514D01*
X0391475Y0109652D01*
X0391538Y0109789D01*
X0391606Y0109924D01*
X0391676Y0110057D01*
X0391750Y0110188D01*
X0391828Y0110317D01*
X0391909Y0110444D01*
X0391993Y0110569D01*
X0392081Y0110692D01*
X0392172Y0110812D01*
X0392266Y0110930D01*
X0392363Y0111045D01*
X0392463Y0111158D01*
X0392566Y0111268D01*
X0392672Y0111375D01*
X0392781Y0111480D01*
X0392892Y0111581D01*
X0393006Y0111680D01*
X0393122Y0111775D01*
X0393242Y0111868D01*
X0393363Y0111957D01*
X0393487Y0112043D01*
X0393613Y0112126D01*
X0393741Y0112205D01*
X0393871Y0112281D01*
X0394003Y0112354D01*
X0394137Y0112422D01*
X0394273Y0112488D01*
X0394411Y0112550D01*
X0394550Y0112608D01*
X0394690Y0112662D01*
X0394832Y0112713D01*
X0394975Y0112760D01*
X0395120Y0112803D01*
X0395265Y0112842D01*
X0395412Y0112878D01*
X0395559Y0112909D01*
X0395707Y0112937D01*
X0395856Y0112961D01*
X0396005Y0112981D01*
X0396155Y0112997D01*
X0396305Y0113009D01*
X0396456Y0113017D01*
X0396607Y0113021D01*
X0396757Y0113021D01*
X0396908Y0113017D01*
X0397059Y0113009D01*
X0397209Y0112997D01*
X0397359Y0112981D01*
X0397508Y0112961D01*
X0397657Y0112937D01*
X0397805Y0112909D01*
X0397952Y0112878D01*
X0398099Y0112842D01*
X0398244Y0112803D01*
X0398389Y0112760D01*
X0398532Y0112713D01*
X0398674Y0112662D01*
X0398814Y0112608D01*
X0398953Y0112550D01*
X0399091Y0112488D01*
X0399227Y0112422D01*
X0399361Y0112354D01*
X0399493Y0112281D01*
X0399623Y0112205D01*
X0399751Y0112126D01*
X0399877Y0112043D01*
X0400001Y0111957D01*
X0400122Y0111868D01*
X0400242Y0111775D01*
X0400358Y0111680D01*
X0400472Y0111581D01*
X0400583Y0111480D01*
X0400692Y0111375D01*
X0400798Y0111268D01*
X0400901Y0111158D01*
X0401001Y0111045D01*
X0401098Y0110930D01*
X0401192Y0110812D01*
X0401283Y0110692D01*
X0401371Y0110569D01*
X0401455Y0110444D01*
X0401536Y0110317D01*
X0401614Y0110188D01*
X0401688Y0110057D01*
X0401758Y0109924D01*
X0401826Y0109789D01*
X0401889Y0109652D01*
X0401949Y0109514D01*
X0402005Y0109374D01*
X0402058Y0109233D01*
X0402107Y0109091D01*
X0402152Y0108947D01*
X0402193Y0108802D01*
X0402231Y0108656D01*
X0402264Y0108509D01*
X0402294Y0108361D01*
X0402320Y0108213D01*
X0402341Y0108063D01*
X0402359Y0107914D01*
X0402373Y0107764D01*
X0402383Y0107613D01*
X0402389Y0107463D01*
X0402391Y0107312D01*
X0402389Y0107161D01*
X0402383Y0107011D01*
X0402373Y0106860D01*
X0402359Y0106710D01*
X0402341Y0106561D01*
X0402320Y0106411D01*
X0402294Y0106263D01*
X0402264Y0106115D01*
X0402231Y0105968D01*
X0402193Y0105822D01*
X0402152Y0105677D01*
X0402107Y0105533D01*
X0402058Y0105391D01*
X0402005Y0105250D01*
X0401949Y0105110D01*
X0401889Y0104972D01*
X0401826Y0104835D01*
X0401758Y0104700D01*
X0401688Y0104567D01*
X0401614Y0104436D01*
X0401536Y0104307D01*
X0401455Y0104180D01*
X0401371Y0104055D01*
X0401283Y0103932D01*
X0401192Y0103812D01*
X0401098Y0103694D01*
X0401001Y0103579D01*
X0400901Y0103466D01*
X0400798Y0103356D01*
X0400692Y0103249D01*
X0400583Y0103144D01*
X0400472Y0103043D01*
X0400358Y0102944D01*
X0400242Y0102849D01*
X0400122Y0102756D01*
X0400001Y0102667D01*
X0399877Y0102581D01*
X0399751Y0102498D01*
X0399623Y0102419D01*
X0399493Y0102343D01*
X0399361Y0102270D01*
X0399227Y0102202D01*
X0399091Y0102136D01*
X0398953Y0102074D01*
X0398814Y0102016D01*
X0398674Y0101962D01*
X0398532Y0101911D01*
X0398389Y0101864D01*
X0398244Y0101821D01*
X0398099Y0101782D01*
X0397952Y0101746D01*
X0397805Y0101715D01*
X0397657Y0101687D01*
X0397508Y0101663D01*
X0397359Y0101643D01*
X0397209Y0101627D01*
X0397059Y0101615D01*
X0396908Y0101607D01*
X0396757Y0101603D01*
X0396607Y0101603D01*
X0396456Y0101607D01*
X0396305Y0101615D01*
X0396155Y0101627D01*
X0396005Y0101643D01*
X0395856Y0101663D01*
X0395707Y0101687D01*
X0395559Y0101715D01*
X0395412Y0101746D01*
X0395265Y0101782D01*
X0395120Y0101821D01*
X0394975Y0101864D01*
X0394832Y0101911D01*
X0394690Y0101962D01*
X0394550Y0102016D01*
X0394411Y0102074D01*
X0394273Y0102136D01*
X0394137Y0102202D01*
X0394003Y0102270D01*
X0393871Y0102343D01*
X0393741Y0102419D01*
X0393613Y0102498D01*
X0393487Y0102581D01*
X0393363Y0102667D01*
X0393242Y0102756D01*
X0393122Y0102849D01*
X0393006Y0102944D01*
X0392892Y0103043D01*
X0392781Y0103144D01*
X0392672Y0103249D01*
X0392566Y0103356D01*
X0392463Y0103466D01*
X0392363Y0103579D01*
X0392266Y0103694D01*
X0392172Y0103812D01*
X0392081Y0103932D01*
X0391993Y0104055D01*
X0391909Y0104180D01*
X0391828Y0104307D01*
X0391750Y0104436D01*
X0391676Y0104567D01*
X0391606Y0104700D01*
X0391538Y0104835D01*
X0391475Y0104972D01*
X0391415Y0105110D01*
X0391359Y0105250D01*
X0391306Y0105391D01*
X0391257Y0105533D01*
X0391212Y0105677D01*
X0391171Y0105822D01*
X0391133Y0105968D01*
X0391100Y0106115D01*
X0391070Y0106263D01*
X0391044Y0106411D01*
X0391023Y0106561D01*
X0391005Y0106710D01*
X0390991Y0106860D01*
X0390981Y0107011D01*
X0390975Y0107161D01*
X0390973Y0107312D01*
X0307902Y0024241D02*
X0307904Y0024392D01*
X0307910Y0024542D01*
X0307920Y0024693D01*
X0307934Y0024843D01*
X0307952Y0024992D01*
X0307973Y0025142D01*
X0307999Y0025290D01*
X0308029Y0025438D01*
X0308062Y0025585D01*
X0308100Y0025731D01*
X0308141Y0025876D01*
X0308186Y0026020D01*
X0308235Y0026162D01*
X0308288Y0026303D01*
X0308344Y0026443D01*
X0308404Y0026581D01*
X0308467Y0026718D01*
X0308535Y0026853D01*
X0308605Y0026986D01*
X0308679Y0027117D01*
X0308757Y0027246D01*
X0308838Y0027373D01*
X0308922Y0027498D01*
X0309010Y0027621D01*
X0309101Y0027741D01*
X0309195Y0027859D01*
X0309292Y0027974D01*
X0309392Y0028087D01*
X0309495Y0028197D01*
X0309601Y0028304D01*
X0309710Y0028409D01*
X0309821Y0028510D01*
X0309935Y0028609D01*
X0310051Y0028704D01*
X0310171Y0028797D01*
X0310292Y0028886D01*
X0310416Y0028972D01*
X0310542Y0029055D01*
X0310670Y0029134D01*
X0310800Y0029210D01*
X0310932Y0029283D01*
X0311066Y0029351D01*
X0311202Y0029417D01*
X0311340Y0029479D01*
X0311479Y0029537D01*
X0311619Y0029591D01*
X0311761Y0029642D01*
X0311904Y0029689D01*
X0312049Y0029732D01*
X0312194Y0029771D01*
X0312341Y0029807D01*
X0312488Y0029838D01*
X0312636Y0029866D01*
X0312785Y0029890D01*
X0312934Y0029910D01*
X0313084Y0029926D01*
X0313234Y0029938D01*
X0313385Y0029946D01*
X0313536Y0029950D01*
X0313686Y0029950D01*
X0313837Y0029946D01*
X0313988Y0029938D01*
X0314138Y0029926D01*
X0314288Y0029910D01*
X0314437Y0029890D01*
X0314586Y0029866D01*
X0314734Y0029838D01*
X0314881Y0029807D01*
X0315028Y0029771D01*
X0315173Y0029732D01*
X0315318Y0029689D01*
X0315461Y0029642D01*
X0315603Y0029591D01*
X0315743Y0029537D01*
X0315882Y0029479D01*
X0316020Y0029417D01*
X0316156Y0029351D01*
X0316290Y0029283D01*
X0316422Y0029210D01*
X0316552Y0029134D01*
X0316680Y0029055D01*
X0316806Y0028972D01*
X0316930Y0028886D01*
X0317051Y0028797D01*
X0317171Y0028704D01*
X0317287Y0028609D01*
X0317401Y0028510D01*
X0317512Y0028409D01*
X0317621Y0028304D01*
X0317727Y0028197D01*
X0317830Y0028087D01*
X0317930Y0027974D01*
X0318027Y0027859D01*
X0318121Y0027741D01*
X0318212Y0027621D01*
X0318300Y0027498D01*
X0318384Y0027373D01*
X0318465Y0027246D01*
X0318543Y0027117D01*
X0318617Y0026986D01*
X0318687Y0026853D01*
X0318755Y0026718D01*
X0318818Y0026581D01*
X0318878Y0026443D01*
X0318934Y0026303D01*
X0318987Y0026162D01*
X0319036Y0026020D01*
X0319081Y0025876D01*
X0319122Y0025731D01*
X0319160Y0025585D01*
X0319193Y0025438D01*
X0319223Y0025290D01*
X0319249Y0025142D01*
X0319270Y0024992D01*
X0319288Y0024843D01*
X0319302Y0024693D01*
X0319312Y0024542D01*
X0319318Y0024392D01*
X0319320Y0024241D01*
X0319318Y0024090D01*
X0319312Y0023940D01*
X0319302Y0023789D01*
X0319288Y0023639D01*
X0319270Y0023490D01*
X0319249Y0023340D01*
X0319223Y0023192D01*
X0319193Y0023044D01*
X0319160Y0022897D01*
X0319122Y0022751D01*
X0319081Y0022606D01*
X0319036Y0022462D01*
X0318987Y0022320D01*
X0318934Y0022179D01*
X0318878Y0022039D01*
X0318818Y0021901D01*
X0318755Y0021764D01*
X0318687Y0021629D01*
X0318617Y0021496D01*
X0318543Y0021365D01*
X0318465Y0021236D01*
X0318384Y0021109D01*
X0318300Y0020984D01*
X0318212Y0020861D01*
X0318121Y0020741D01*
X0318027Y0020623D01*
X0317930Y0020508D01*
X0317830Y0020395D01*
X0317727Y0020285D01*
X0317621Y0020178D01*
X0317512Y0020073D01*
X0317401Y0019972D01*
X0317287Y0019873D01*
X0317171Y0019778D01*
X0317051Y0019685D01*
X0316930Y0019596D01*
X0316806Y0019510D01*
X0316680Y0019427D01*
X0316552Y0019348D01*
X0316422Y0019272D01*
X0316290Y0019199D01*
X0316156Y0019131D01*
X0316020Y0019065D01*
X0315882Y0019003D01*
X0315743Y0018945D01*
X0315603Y0018891D01*
X0315461Y0018840D01*
X0315318Y0018793D01*
X0315173Y0018750D01*
X0315028Y0018711D01*
X0314881Y0018675D01*
X0314734Y0018644D01*
X0314586Y0018616D01*
X0314437Y0018592D01*
X0314288Y0018572D01*
X0314138Y0018556D01*
X0313988Y0018544D01*
X0313837Y0018536D01*
X0313686Y0018532D01*
X0313536Y0018532D01*
X0313385Y0018536D01*
X0313234Y0018544D01*
X0313084Y0018556D01*
X0312934Y0018572D01*
X0312785Y0018592D01*
X0312636Y0018616D01*
X0312488Y0018644D01*
X0312341Y0018675D01*
X0312194Y0018711D01*
X0312049Y0018750D01*
X0311904Y0018793D01*
X0311761Y0018840D01*
X0311619Y0018891D01*
X0311479Y0018945D01*
X0311340Y0019003D01*
X0311202Y0019065D01*
X0311066Y0019131D01*
X0310932Y0019199D01*
X0310800Y0019272D01*
X0310670Y0019348D01*
X0310542Y0019427D01*
X0310416Y0019510D01*
X0310292Y0019596D01*
X0310171Y0019685D01*
X0310051Y0019778D01*
X0309935Y0019873D01*
X0309821Y0019972D01*
X0309710Y0020073D01*
X0309601Y0020178D01*
X0309495Y0020285D01*
X0309392Y0020395D01*
X0309292Y0020508D01*
X0309195Y0020623D01*
X0309101Y0020741D01*
X0309010Y0020861D01*
X0308922Y0020984D01*
X0308838Y0021109D01*
X0308757Y0021236D01*
X0308679Y0021365D01*
X0308605Y0021496D01*
X0308535Y0021629D01*
X0308467Y0021764D01*
X0308404Y0021901D01*
X0308344Y0022039D01*
X0308288Y0022179D01*
X0308235Y0022320D01*
X0308186Y0022462D01*
X0308141Y0022606D01*
X0308100Y0022751D01*
X0308062Y0022897D01*
X0308029Y0023044D01*
X0307999Y0023192D01*
X0307973Y0023340D01*
X0307952Y0023490D01*
X0307934Y0023639D01*
X0307920Y0023789D01*
X0307910Y0023940D01*
X0307904Y0024090D01*
X0307902Y0024241D01*
D11*
X0288219Y0038476D02*
X0286284Y0038476D01*
X0286284Y0041378D01*
X0288219Y0041378D01*
X0289081Y0041976D02*
X0277295Y0041976D01*
X0277445Y0041378D02*
X0278896Y0041378D01*
X0279380Y0040895D01*
X0279380Y0038960D01*
X0278896Y0038476D01*
X0277445Y0038476D01*
X0277445Y0041378D01*
X0276433Y0040895D02*
X0276433Y0039927D01*
X0275949Y0039443D01*
X0274498Y0039443D01*
X0274498Y0038476D02*
X0274498Y0041378D01*
X0275949Y0041378D01*
X0276433Y0040895D01*
X0275466Y0039443D02*
X0276433Y0038476D01*
X0280391Y0038960D02*
X0280875Y0038476D01*
X0281842Y0038476D01*
X0282326Y0038960D01*
X0282326Y0040895D01*
X0281842Y0041378D01*
X0280875Y0041378D01*
X0280391Y0040895D01*
X0280391Y0038960D01*
X0283338Y0038476D02*
X0283338Y0041378D01*
X0285273Y0038476D01*
X0285273Y0041378D01*
X0286284Y0039927D02*
X0287252Y0039927D01*
X0296254Y0051815D02*
X0297488Y0051815D01*
X0298105Y0052432D01*
X0298105Y0055518D01*
X0299320Y0054901D02*
X0299937Y0055518D01*
X0301171Y0055518D01*
X0301789Y0054901D01*
X0301789Y0054283D01*
X0299320Y0051815D01*
X0301789Y0051815D01*
X0296254Y0051815D02*
X0295637Y0052432D01*
X0295637Y0055518D01*
X0288219Y0059360D02*
X0287735Y0058876D01*
X0286768Y0058876D01*
X0286284Y0059360D01*
X0286284Y0061295D01*
X0286768Y0061778D01*
X0287735Y0061778D01*
X0288219Y0061295D01*
X0285273Y0061295D02*
X0284789Y0061778D01*
X0283821Y0061778D01*
X0283338Y0061295D01*
X0283338Y0059360D01*
X0283821Y0058876D01*
X0284789Y0058876D01*
X0285273Y0059360D01*
X0282326Y0059843D02*
X0282326Y0061778D01*
X0282326Y0059843D02*
X0281359Y0058876D01*
X0280391Y0059843D01*
X0280391Y0061778D01*
X0279380Y0058392D02*
X0277445Y0058392D01*
X0276433Y0059360D02*
X0275949Y0058876D01*
X0274982Y0058876D01*
X0274498Y0059360D01*
X0274498Y0061295D01*
X0274982Y0061778D01*
X0275949Y0061778D01*
X0276433Y0061295D01*
X0259798Y0061571D02*
X0256896Y0061571D01*
X0256896Y0062582D02*
X0256896Y0063550D01*
X0256896Y0063066D02*
X0259798Y0063066D01*
X0259798Y0062582D02*
X0259798Y0063550D01*
X0259798Y0065514D02*
X0256896Y0065514D01*
X0256896Y0064547D02*
X0256896Y0066482D01*
X0256896Y0067493D02*
X0259798Y0067493D01*
X0259798Y0069428D01*
X0259798Y0070440D02*
X0256896Y0070440D01*
X0256896Y0071891D01*
X0257379Y0072375D01*
X0258347Y0072375D01*
X0258831Y0071891D01*
X0258831Y0070440D01*
X0258831Y0071407D02*
X0259798Y0072375D01*
X0256896Y0069428D02*
X0256896Y0067493D01*
X0258347Y0067493D02*
X0258347Y0068461D01*
X0259798Y0061571D02*
X0256896Y0059636D01*
X0259798Y0059636D01*
X0259314Y0058624D02*
X0258347Y0058624D01*
X0258347Y0057657D01*
X0259314Y0058624D02*
X0259798Y0058141D01*
X0259798Y0057173D01*
X0259314Y0056689D01*
X0257379Y0056689D01*
X0256896Y0057173D01*
X0256896Y0058141D01*
X0257379Y0058624D01*
X0256896Y0055693D02*
X0256896Y0054725D01*
X0256896Y0055209D02*
X0259798Y0055209D01*
X0259798Y0054725D02*
X0259798Y0055693D01*
X0260282Y0053714D02*
X0260282Y0051779D01*
X0259314Y0050767D02*
X0257379Y0050767D01*
X0256896Y0050283D01*
X0256896Y0048832D01*
X0259798Y0048832D01*
X0259798Y0050283D01*
X0259314Y0050767D01*
X0259798Y0047820D02*
X0259798Y0045885D01*
X0256896Y0045885D01*
X0256896Y0047820D01*
X0258347Y0046853D02*
X0258347Y0045885D01*
X0259798Y0044874D02*
X0259798Y0042939D01*
X0256896Y0042939D01*
X0268033Y0042915D02*
X0268033Y0041464D01*
X0270935Y0041464D01*
X0270935Y0042915D01*
X0270451Y0043399D01*
X0268516Y0043399D01*
X0268033Y0042915D01*
X0268033Y0040452D02*
X0268033Y0038517D01*
X0270935Y0038517D01*
X0270935Y0040452D01*
X0269484Y0039485D02*
X0269484Y0038517D01*
X0270935Y0037506D02*
X0270935Y0035571D01*
X0268033Y0035571D01*
X0268516Y0034559D02*
X0269484Y0034559D01*
X0269968Y0034075D01*
X0269968Y0032624D01*
X0270935Y0032624D02*
X0268033Y0032624D01*
X0268033Y0034075D01*
X0268516Y0034559D01*
X0269968Y0033591D02*
X0270935Y0034559D01*
X0308098Y0056960D02*
X0308582Y0056476D01*
X0309549Y0056476D01*
X0310033Y0056960D01*
X0311045Y0055992D02*
X0312980Y0055992D01*
X0314959Y0056476D02*
X0314959Y0059378D01*
X0315926Y0059378D02*
X0313991Y0059378D01*
X0316938Y0059378D02*
X0316938Y0056476D01*
X0316938Y0057443D02*
X0318389Y0057443D01*
X0318873Y0057927D01*
X0318873Y0058895D01*
X0318389Y0059378D01*
X0316938Y0059378D01*
X0317905Y0057443D02*
X0318873Y0056476D01*
X0319884Y0056476D02*
X0319884Y0058411D01*
X0320852Y0059378D01*
X0321819Y0058411D01*
X0321819Y0056476D01*
X0322831Y0056476D02*
X0322831Y0059378D01*
X0324766Y0056476D01*
X0324766Y0059378D01*
X0325777Y0058895D02*
X0325777Y0058411D01*
X0326261Y0057927D01*
X0327228Y0057927D01*
X0327712Y0057443D01*
X0327712Y0056960D01*
X0327228Y0056476D01*
X0326261Y0056476D01*
X0325777Y0056960D01*
X0325777Y0058895D02*
X0326261Y0059378D01*
X0327228Y0059378D01*
X0327712Y0058895D01*
X0325589Y0063339D02*
X0326073Y0063823D01*
X0326073Y0064790D01*
X0325105Y0064790D01*
X0324138Y0063823D02*
X0324621Y0063339D01*
X0325589Y0063339D01*
X0324138Y0063823D02*
X0324138Y0065758D01*
X0324621Y0066241D01*
X0325589Y0066241D01*
X0326073Y0065758D01*
X0323126Y0065758D02*
X0323126Y0065274D01*
X0322642Y0064790D01*
X0321191Y0064790D01*
X0321191Y0063339D02*
X0322642Y0063339D01*
X0323126Y0063823D01*
X0323126Y0064306D01*
X0322642Y0064790D01*
X0323126Y0065758D02*
X0322642Y0066241D01*
X0321191Y0066241D01*
X0321191Y0063339D01*
X0320180Y0062855D02*
X0318245Y0062855D01*
X0317233Y0063339D02*
X0316266Y0064306D01*
X0316749Y0064306D02*
X0315298Y0064306D01*
X0315298Y0063339D02*
X0315298Y0066241D01*
X0316749Y0066241D01*
X0317233Y0065758D01*
X0317233Y0064790D01*
X0316749Y0064306D01*
X0318245Y0070055D02*
X0320180Y0070055D01*
X0321191Y0070539D02*
X0322642Y0070539D01*
X0323126Y0071023D01*
X0323126Y0071506D01*
X0322642Y0071990D01*
X0321191Y0071990D01*
X0321191Y0070539D02*
X0321191Y0073441D01*
X0322642Y0073441D01*
X0323126Y0072958D01*
X0323126Y0072474D01*
X0322642Y0071990D01*
X0324138Y0071023D02*
X0324621Y0070539D01*
X0325589Y0070539D01*
X0326073Y0071023D01*
X0326073Y0071990D01*
X0325105Y0071990D01*
X0324138Y0071023D02*
X0324138Y0072958D01*
X0324621Y0073441D01*
X0325589Y0073441D01*
X0326073Y0072958D01*
X0317233Y0072958D02*
X0316749Y0073441D01*
X0315782Y0073441D01*
X0315298Y0072958D01*
X0315298Y0071023D01*
X0315782Y0070539D01*
X0316749Y0070539D01*
X0317233Y0071023D01*
X0309549Y0059378D02*
X0308582Y0059378D01*
X0308098Y0058895D01*
X0308098Y0056960D01*
X0310033Y0058895D02*
X0309549Y0059378D01*
X0319884Y0057927D02*
X0321819Y0057927D01*
X0336096Y0053060D02*
X0336096Y0051125D01*
X0336096Y0052093D02*
X0338998Y0052093D01*
X0338514Y0050114D02*
X0336096Y0050114D01*
X0336096Y0048179D02*
X0338514Y0048179D01*
X0338998Y0048662D01*
X0338998Y0049630D01*
X0338514Y0050114D01*
X0338514Y0047167D02*
X0336579Y0047167D01*
X0336096Y0046683D01*
X0336096Y0045716D01*
X0336579Y0045232D01*
X0338514Y0045232D01*
X0338998Y0045716D01*
X0338998Y0046683D01*
X0338514Y0047167D01*
X0338031Y0044220D02*
X0336096Y0044220D01*
X0336096Y0042285D02*
X0338031Y0042285D01*
X0338998Y0043253D01*
X0338031Y0044220D01*
X0337547Y0041274D02*
X0336579Y0041274D01*
X0336096Y0040790D01*
X0336096Y0039339D01*
X0338998Y0039339D01*
X0338031Y0039339D02*
X0338031Y0040790D01*
X0337547Y0041274D01*
X0338031Y0040306D02*
X0338998Y0041274D01*
X0346896Y0041739D02*
X0346896Y0043190D01*
X0347379Y0043674D01*
X0348347Y0043674D01*
X0348831Y0043190D01*
X0348831Y0041739D01*
X0349798Y0041739D02*
X0346896Y0041739D01*
X0348831Y0042706D02*
X0349798Y0043674D01*
X0349798Y0044685D02*
X0349798Y0046137D01*
X0349314Y0046620D01*
X0347379Y0046620D01*
X0346896Y0046137D01*
X0346896Y0044685D01*
X0349798Y0044685D01*
X0349314Y0047632D02*
X0349798Y0048116D01*
X0349798Y0049083D01*
X0349314Y0049567D01*
X0349798Y0050579D02*
X0346896Y0050579D01*
X0347863Y0051546D01*
X0346896Y0052514D01*
X0349798Y0052514D01*
X0347379Y0049567D02*
X0346896Y0049083D01*
X0346896Y0048116D01*
X0347379Y0047632D01*
X0349314Y0047632D01*
X0372096Y0051339D02*
X0372096Y0052790D01*
X0372579Y0053274D01*
X0373547Y0053274D01*
X0374031Y0052790D01*
X0374031Y0051339D01*
X0374998Y0051339D02*
X0372096Y0051339D01*
X0374031Y0052306D02*
X0374998Y0053274D01*
X0374514Y0054285D02*
X0374998Y0054769D01*
X0374998Y0055737D01*
X0374514Y0056220D01*
X0373547Y0056220D01*
X0373547Y0055253D01*
X0372579Y0054285D02*
X0374514Y0054285D01*
X0372579Y0054285D02*
X0372096Y0054769D01*
X0372096Y0055737D01*
X0372579Y0056220D01*
X0373063Y0057232D02*
X0372096Y0058199D01*
X0373063Y0059167D01*
X0374998Y0059167D01*
X0373547Y0059167D02*
X0373547Y0057232D01*
X0373063Y0057232D02*
X0374998Y0057232D01*
X0374998Y0061146D02*
X0372096Y0061146D01*
X0372096Y0060179D02*
X0372096Y0062114D01*
X0372096Y0063125D02*
X0374998Y0063125D01*
X0374998Y0065060D01*
X0373547Y0064093D02*
X0373547Y0063125D01*
X0372096Y0063125D02*
X0372096Y0065060D01*
X0353398Y0096939D02*
X0350496Y0096939D01*
X0350496Y0098390D01*
X0350979Y0098874D01*
X0351947Y0098874D01*
X0352431Y0098390D01*
X0352431Y0096939D01*
X0352431Y0097906D02*
X0353398Y0098874D01*
X0352914Y0099885D02*
X0353398Y0100369D01*
X0353398Y0101337D01*
X0352914Y0101820D01*
X0352431Y0101820D01*
X0351947Y0101337D01*
X0351947Y0100369D01*
X0351463Y0099885D01*
X0350979Y0099885D01*
X0350496Y0100369D01*
X0350496Y0101337D01*
X0350979Y0101820D01*
X0350496Y0102832D02*
X0353398Y0102832D01*
X0353398Y0104767D01*
X0353398Y0105779D02*
X0350496Y0105779D01*
X0353398Y0107714D01*
X0350496Y0107714D01*
X0350979Y0108725D02*
X0351463Y0108725D01*
X0351947Y0109209D01*
X0351947Y0110176D01*
X0352431Y0110660D01*
X0352914Y0110660D01*
X0353398Y0110176D01*
X0353398Y0109209D01*
X0352914Y0108725D01*
X0350979Y0108725D02*
X0350496Y0109209D01*
X0350496Y0110176D01*
X0350979Y0110660D01*
X0350496Y0111672D02*
X0353398Y0111672D01*
X0353398Y0113607D01*
X0351947Y0112639D02*
X0351947Y0111672D01*
X0350496Y0111672D02*
X0350496Y0113607D01*
X0350496Y0104767D02*
X0350496Y0102832D01*
X0351947Y0102832D02*
X0351947Y0103799D01*
X0239755Y0113471D02*
X0238788Y0114439D01*
X0239272Y0114439D02*
X0237820Y0114439D01*
X0237820Y0113471D02*
X0237820Y0116374D01*
X0239272Y0116374D01*
X0239755Y0115890D01*
X0239755Y0114922D01*
X0239272Y0114439D01*
X0236809Y0113471D02*
X0234874Y0113471D01*
X0234874Y0116374D01*
X0236809Y0116374D01*
X0235841Y0114922D02*
X0234874Y0114922D01*
X0233862Y0114922D02*
X0232895Y0114922D01*
X0233862Y0114922D02*
X0233862Y0113955D01*
X0233379Y0113471D01*
X0232411Y0113471D01*
X0231927Y0113955D01*
X0231927Y0115890D01*
X0232411Y0116374D01*
X0233379Y0116374D01*
X0233862Y0115890D01*
X0233877Y0118271D02*
X0232910Y0118271D01*
X0233393Y0118271D02*
X0233393Y0121174D01*
X0232910Y0121174D02*
X0233877Y0121174D01*
X0234874Y0121174D02*
X0236809Y0121174D01*
X0235841Y0121174D02*
X0235841Y0118271D01*
X0238788Y0118271D02*
X0238788Y0121174D01*
X0239755Y0121174D02*
X0237820Y0121174D01*
X0231898Y0121174D02*
X0231898Y0118271D01*
X0229963Y0118271D02*
X0229963Y0121174D01*
X0230931Y0120206D01*
X0231898Y0121174D01*
X0228952Y0121174D02*
X0228952Y0118271D01*
X0228952Y0119722D02*
X0227017Y0119722D01*
X0226005Y0118755D02*
X0225521Y0118271D01*
X0224554Y0118271D01*
X0224070Y0118755D01*
X0224070Y0120690D01*
X0224554Y0121174D01*
X0225521Y0121174D01*
X0226005Y0120690D01*
X0227017Y0121174D02*
X0227017Y0118271D01*
X0227017Y0116374D02*
X0227984Y0116374D01*
X0227500Y0116374D02*
X0227500Y0113471D01*
X0227017Y0113471D02*
X0227984Y0113471D01*
X0228981Y0113955D02*
X0229465Y0113471D01*
X0230432Y0113471D01*
X0230916Y0113955D01*
X0230916Y0114922D01*
X0229948Y0114922D01*
X0228981Y0113955D02*
X0228981Y0115890D01*
X0229465Y0116374D01*
X0230432Y0116374D01*
X0230916Y0115890D01*
X0226005Y0115890D02*
X0226005Y0114922D01*
X0225521Y0114439D01*
X0224070Y0114439D01*
X0225038Y0114439D02*
X0226005Y0113471D01*
X0224070Y0113471D02*
X0224070Y0116374D01*
X0225521Y0116374D01*
X0226005Y0115890D01*
X0223059Y0116374D02*
X0221124Y0116374D01*
X0222091Y0116374D02*
X0222091Y0113471D01*
X0221607Y0118271D02*
X0221124Y0118755D01*
X0221607Y0118271D02*
X0222575Y0118271D01*
X0223059Y0118755D01*
X0223059Y0119239D01*
X0222575Y0119722D01*
X0221607Y0119722D01*
X0221124Y0120206D01*
X0221124Y0120690D01*
X0221607Y0121174D01*
X0222575Y0121174D01*
X0223059Y0120690D01*
X0212644Y0104527D02*
X0213261Y0103910D01*
X0213261Y0103293D01*
X0212644Y0102676D01*
X0213261Y0102058D01*
X0213261Y0101441D01*
X0212644Y0100824D01*
X0211409Y0100824D01*
X0210792Y0101441D01*
X0209578Y0101441D02*
X0209578Y0104527D01*
X0210792Y0103910D02*
X0211409Y0104527D01*
X0212644Y0104527D01*
X0212644Y0102676D02*
X0212027Y0102676D01*
X0209578Y0101441D02*
X0208961Y0100824D01*
X0207726Y0100824D01*
X0207109Y0101441D01*
X0207109Y0104527D01*
X0205292Y0099803D02*
X0205775Y0099320D01*
X0205775Y0097868D01*
X0206743Y0097868D02*
X0203840Y0097868D01*
X0203840Y0099320D01*
X0204324Y0099803D01*
X0205292Y0099803D01*
X0206743Y0096857D02*
X0203840Y0096857D01*
X0204808Y0095889D01*
X0203840Y0094922D01*
X0206743Y0094922D01*
X0206743Y0093910D02*
X0204808Y0093910D01*
X0203840Y0092943D01*
X0204808Y0091975D01*
X0206743Y0091975D01*
X0206259Y0090964D02*
X0204324Y0090964D01*
X0203840Y0090480D01*
X0203840Y0089029D01*
X0206743Y0089029D01*
X0206743Y0090480D01*
X0206259Y0090964D01*
X0205292Y0091975D02*
X0205292Y0093910D01*
X0205292Y0088017D02*
X0205775Y0087534D01*
X0205775Y0086082D01*
X0205775Y0087050D02*
X0206743Y0088017D01*
X0205292Y0088017D02*
X0204324Y0088017D01*
X0203840Y0087534D01*
X0203840Y0086082D01*
X0206743Y0086082D01*
X0199189Y0054931D02*
X0197621Y0054931D01*
X0198405Y0054931D02*
X0198405Y0051795D01*
X0199189Y0051795D01*
X0198405Y0050227D02*
X0198405Y0049443D01*
X0195336Y0051795D02*
X0192984Y0051795D01*
X0191516Y0052579D02*
X0191516Y0054147D01*
X0190732Y0054931D01*
X0189164Y0054931D01*
X0188380Y0054147D01*
X0188380Y0052579D01*
X0189164Y0051795D01*
X0190732Y0051795D01*
X0191516Y0052579D01*
X0192984Y0054147D02*
X0193768Y0053363D01*
X0195336Y0053363D01*
X0196120Y0052579D01*
X0195336Y0051795D01*
X0196120Y0054931D02*
X0193768Y0054931D01*
X0192984Y0054147D01*
X0186912Y0054931D02*
X0185344Y0054931D01*
X0186128Y0054931D02*
X0186128Y0050227D01*
X0186912Y0050227D01*
X0183059Y0051795D02*
X0181491Y0051795D01*
X0180707Y0052579D01*
X0180707Y0054931D01*
X0183059Y0054931D01*
X0183843Y0054147D01*
X0183059Y0053363D01*
X0180707Y0053363D01*
X0179239Y0051795D02*
X0177671Y0051795D01*
X0178455Y0051011D02*
X0178455Y0054147D01*
X0177671Y0054931D01*
X0176170Y0054147D02*
X0175386Y0054931D01*
X0173818Y0054931D01*
X0173034Y0054147D01*
X0173034Y0052579D01*
X0173818Y0051795D01*
X0175386Y0051795D01*
X0176170Y0052579D01*
X0176170Y0054147D01*
X0171566Y0053363D02*
X0169998Y0051795D01*
X0169214Y0051795D01*
X0171566Y0051795D02*
X0171566Y0054931D01*
X0165925Y0061534D02*
X0165925Y0062985D01*
X0165441Y0063469D01*
X0163990Y0063469D01*
X0163990Y0061534D01*
X0162978Y0062018D02*
X0162978Y0062985D01*
X0162495Y0063469D01*
X0161527Y0063469D01*
X0161043Y0062985D01*
X0161043Y0062018D01*
X0161527Y0061534D01*
X0162495Y0061534D01*
X0162978Y0062018D01*
X0160046Y0061534D02*
X0159079Y0061534D01*
X0159563Y0061534D02*
X0159563Y0063469D01*
X0159079Y0063469D01*
X0158082Y0063469D02*
X0157115Y0063469D01*
X0157598Y0063953D02*
X0157598Y0062018D01*
X0158082Y0061534D01*
X0156103Y0061534D02*
X0154652Y0061534D01*
X0154168Y0062018D01*
X0154652Y0062502D01*
X0156103Y0062502D01*
X0156103Y0062985D02*
X0156103Y0061534D01*
X0156103Y0062985D02*
X0155619Y0063469D01*
X0154652Y0063469D01*
X0152687Y0064437D02*
X0152687Y0061534D01*
X0152204Y0061534D02*
X0153171Y0061534D01*
X0151192Y0062018D02*
X0151192Y0062985D01*
X0150708Y0063469D01*
X0149741Y0063469D01*
X0149257Y0062985D01*
X0149257Y0062018D01*
X0149741Y0061534D01*
X0150708Y0061534D01*
X0151192Y0062018D01*
X0152204Y0064437D02*
X0152687Y0064437D01*
X0148246Y0063469D02*
X0146794Y0063469D01*
X0146311Y0062985D01*
X0146794Y0062502D01*
X0147762Y0062502D01*
X0148246Y0062018D01*
X0147762Y0061534D01*
X0146311Y0061534D01*
X0145314Y0061534D02*
X0144346Y0061534D01*
X0144830Y0061534D02*
X0144830Y0064437D01*
X0144346Y0064437D02*
X0145314Y0064437D01*
X0159563Y0064437D02*
X0159563Y0064920D01*
X0163569Y0043667D02*
X0166705Y0040531D01*
X0165137Y0040531D02*
X0165137Y0043667D01*
X0166705Y0043667D02*
X0163569Y0040531D01*
X0163569Y0042099D02*
X0166705Y0042099D01*
X0123044Y0066336D02*
X0123044Y0068763D01*
X0122438Y0069370D01*
X0121224Y0069370D01*
X0120618Y0068763D01*
X0120618Y0066336D01*
X0121224Y0065730D01*
X0122438Y0065730D01*
X0123044Y0066336D01*
X0119419Y0066336D02*
X0119419Y0068763D01*
X0118813Y0069370D01*
X0116992Y0069370D01*
X0116992Y0065730D01*
X0118813Y0065730D01*
X0119419Y0066336D01*
X0115794Y0065730D02*
X0113367Y0065730D01*
X0113367Y0069370D01*
X0132060Y0098378D02*
X0133995Y0098378D01*
X0135007Y0098378D02*
X0135007Y0101281D01*
X0136942Y0101281D01*
X0137953Y0101281D02*
X0139405Y0101281D01*
X0139888Y0100797D01*
X0139888Y0098862D01*
X0139405Y0098378D01*
X0137953Y0098378D01*
X0137953Y0101281D01*
X0135974Y0099830D02*
X0135007Y0099830D01*
X0135007Y0098378D02*
X0136942Y0098378D01*
X0140900Y0097895D02*
X0142835Y0097895D01*
X0143846Y0098378D02*
X0143846Y0101281D01*
X0144814Y0100313D01*
X0145781Y0101281D01*
X0145781Y0098378D01*
X0146793Y0098378D02*
X0146793Y0100313D01*
X0147760Y0101281D01*
X0148728Y0100313D01*
X0148728Y0098378D01*
X0149739Y0098378D02*
X0150707Y0098378D01*
X0150223Y0098378D02*
X0150223Y0101281D01*
X0149739Y0101281D02*
X0150707Y0101281D01*
X0151704Y0101281D02*
X0153639Y0098378D01*
X0153639Y0101281D01*
X0151704Y0101281D02*
X0151704Y0098378D01*
X0148728Y0099830D02*
X0146793Y0099830D01*
X0132060Y0101281D02*
X0132060Y0098378D01*
X0132182Y0120841D02*
X0132182Y0122293D01*
X0131698Y0122776D01*
X0130730Y0122776D01*
X0130247Y0122293D01*
X0130247Y0120841D01*
X0133149Y0120841D01*
X0132182Y0121809D02*
X0133149Y0122776D01*
X0132182Y0123788D02*
X0133149Y0124755D01*
X0132182Y0125723D01*
X0130247Y0125723D01*
X0130730Y0126734D02*
X0130247Y0127218D01*
X0130247Y0128186D01*
X0130730Y0128669D01*
X0132665Y0128669D01*
X0133149Y0128186D01*
X0133149Y0127218D01*
X0132665Y0126734D01*
X0130730Y0126734D01*
X0130247Y0123788D02*
X0132182Y0123788D01*
X0132665Y0129681D02*
X0130247Y0129681D01*
X0130247Y0131616D02*
X0132665Y0131616D01*
X0133149Y0131132D01*
X0133149Y0130165D01*
X0132665Y0129681D01*
X0130247Y0132627D02*
X0130247Y0134562D01*
X0130247Y0133595D02*
X0133149Y0133595D01*
X0141047Y0134016D02*
X0142014Y0133048D01*
X0141047Y0132081D01*
X0143949Y0132081D01*
X0143465Y0131069D02*
X0143949Y0130586D01*
X0143949Y0129618D01*
X0143465Y0129134D01*
X0141530Y0129134D01*
X0141047Y0129618D01*
X0141047Y0130586D01*
X0141530Y0131069D01*
X0141530Y0128123D02*
X0141047Y0127639D01*
X0141047Y0126188D01*
X0143949Y0126188D01*
X0143949Y0127639D01*
X0143465Y0128123D01*
X0141530Y0128123D01*
X0141530Y0125176D02*
X0142498Y0125176D01*
X0142982Y0124693D01*
X0142982Y0123241D01*
X0143949Y0123241D02*
X0141047Y0123241D01*
X0141047Y0124693D01*
X0141530Y0125176D01*
X0142982Y0124209D02*
X0143949Y0125176D01*
X0143949Y0134016D02*
X0141047Y0134016D01*
X0118649Y0137413D02*
X0118649Y0138381D01*
X0117681Y0138381D01*
X0116714Y0139348D02*
X0116714Y0137413D01*
X0117198Y0136930D01*
X0118165Y0136930D01*
X0118649Y0137413D01*
X0118649Y0139348D02*
X0118165Y0139832D01*
X0117198Y0139832D01*
X0116714Y0139348D01*
X0115702Y0139348D02*
X0115702Y0138865D01*
X0115219Y0138381D01*
X0113767Y0138381D01*
X0113767Y0139832D02*
X0115219Y0139832D01*
X0115702Y0139348D01*
X0115219Y0138381D02*
X0115702Y0137897D01*
X0115702Y0137413D01*
X0115219Y0136930D01*
X0113767Y0136930D01*
X0113767Y0139832D01*
X0112756Y0136446D02*
X0110821Y0136446D01*
X0109809Y0136930D02*
X0108842Y0137897D01*
X0109326Y0137897D02*
X0107874Y0137897D01*
X0107874Y0136930D02*
X0107874Y0139832D01*
X0109326Y0139832D01*
X0109809Y0139348D01*
X0109809Y0138381D01*
X0109326Y0137897D01*
X0108932Y0132859D02*
X0107964Y0132859D01*
X0107481Y0132375D01*
X0107481Y0130440D01*
X0107964Y0129956D01*
X0108932Y0129956D01*
X0109416Y0130440D01*
X0110427Y0129473D02*
X0112362Y0129473D01*
X0113374Y0129956D02*
X0114825Y0129956D01*
X0115309Y0130440D01*
X0115309Y0130924D01*
X0114825Y0131408D01*
X0113374Y0131408D01*
X0113374Y0132859D02*
X0114825Y0132859D01*
X0115309Y0132375D01*
X0115309Y0131891D01*
X0114825Y0131408D01*
X0116320Y0132375D02*
X0116320Y0130440D01*
X0116804Y0129956D01*
X0117771Y0129956D01*
X0118255Y0130440D01*
X0118255Y0131408D01*
X0117288Y0131408D01*
X0118255Y0132375D02*
X0117771Y0132859D01*
X0116804Y0132859D01*
X0116320Y0132375D01*
X0113374Y0132859D02*
X0113374Y0129956D01*
X0109416Y0132375D02*
X0108932Y0132859D01*
X0095940Y0128180D02*
X0093471Y0128180D01*
X0094705Y0128180D02*
X0094705Y0131883D01*
X0093471Y0130649D01*
X0092257Y0131883D02*
X0092257Y0128797D01*
X0091639Y0128180D01*
X0090405Y0128180D01*
X0089788Y0128797D01*
X0089788Y0131883D01*
X0083020Y0133010D02*
X0083020Y0133978D01*
X0082536Y0134461D01*
X0083504Y0135473D02*
X0083504Y0137408D01*
X0083020Y0139387D02*
X0080118Y0139387D01*
X0080118Y0140354D02*
X0080118Y0138419D01*
X0078141Y0137632D02*
X0075239Y0137632D01*
X0078141Y0139567D01*
X0075239Y0139567D01*
X0075239Y0140578D02*
X0078141Y0140578D01*
X0078141Y0142513D01*
X0076690Y0141546D02*
X0076690Y0140578D01*
X0075239Y0140578D02*
X0075239Y0142513D01*
X0074641Y0143375D02*
X0074641Y0131589D01*
X0075239Y0131739D02*
X0075239Y0133190D01*
X0075723Y0133674D01*
X0077658Y0133674D01*
X0078141Y0133190D01*
X0078141Y0131739D01*
X0075239Y0131739D01*
X0075723Y0130727D02*
X0076690Y0130727D01*
X0077174Y0130243D01*
X0077174Y0128792D01*
X0078141Y0128792D02*
X0075239Y0128792D01*
X0075239Y0130243D01*
X0075723Y0130727D01*
X0077174Y0129760D02*
X0078141Y0130727D01*
X0080118Y0133010D02*
X0080118Y0133978D01*
X0080601Y0134461D01*
X0080118Y0133010D02*
X0080601Y0132526D01*
X0082536Y0132526D01*
X0083020Y0133010D01*
X0078141Y0135169D02*
X0078141Y0136136D01*
X0077658Y0136620D01*
X0075723Y0136620D01*
X0075239Y0136136D01*
X0075239Y0135169D01*
X0075723Y0134685D01*
X0077658Y0134685D01*
X0078141Y0135169D01*
X0080118Y0141366D02*
X0080118Y0142817D01*
X0080601Y0143301D01*
X0081569Y0143301D01*
X0082053Y0142817D01*
X0082053Y0141366D01*
X0083020Y0141366D02*
X0080118Y0141366D01*
X0082053Y0142333D02*
X0083020Y0143301D01*
X0083020Y0144312D02*
X0081085Y0144312D01*
X0080118Y0145280D01*
X0081085Y0146247D01*
X0083020Y0146247D01*
X0083020Y0147259D02*
X0080118Y0147259D01*
X0083020Y0149194D01*
X0080118Y0149194D01*
X0080601Y0150205D02*
X0081085Y0150205D01*
X0081569Y0150689D01*
X0081569Y0151657D01*
X0082053Y0152140D01*
X0082536Y0152140D01*
X0083020Y0151657D01*
X0083020Y0150689D01*
X0082536Y0150205D01*
X0080601Y0150205D02*
X0080118Y0150689D01*
X0080118Y0151657D01*
X0080601Y0152140D01*
X0081569Y0146247D02*
X0081569Y0144312D01*
X0075434Y0116159D02*
X0075918Y0115675D01*
X0075918Y0114708D01*
X0075434Y0114224D01*
X0073499Y0114224D01*
X0073015Y0114708D01*
X0073015Y0115675D01*
X0073499Y0116159D01*
X0073499Y0113213D02*
X0073015Y0112729D01*
X0073015Y0111761D01*
X0073499Y0111278D01*
X0075434Y0111278D01*
X0075918Y0111761D01*
X0075918Y0112729D01*
X0075434Y0113213D01*
X0074950Y0110266D02*
X0073015Y0110266D01*
X0073015Y0108331D02*
X0074950Y0108331D01*
X0075918Y0109299D01*
X0074950Y0110266D01*
X0076401Y0107320D02*
X0076401Y0105385D01*
X0075434Y0104373D02*
X0075918Y0103889D01*
X0075918Y0102922D01*
X0075434Y0102438D01*
X0073499Y0102438D01*
X0073015Y0102922D01*
X0073015Y0103889D01*
X0073499Y0104373D01*
X0096898Y0105824D02*
X0096898Y0108726D01*
X0098349Y0108726D01*
X0098833Y0108243D01*
X0098833Y0107275D01*
X0098349Y0106791D01*
X0096898Y0106791D01*
X0097866Y0106791D02*
X0098833Y0105824D01*
X0099845Y0105824D02*
X0101780Y0105824D01*
X0102791Y0105824D02*
X0104726Y0105824D01*
X0105738Y0105824D02*
X0105738Y0108726D01*
X0107189Y0108726D01*
X0107673Y0108243D01*
X0107673Y0106308D01*
X0107189Y0105824D01*
X0105738Y0105824D01*
X0103759Y0107275D02*
X0102791Y0107275D01*
X0102791Y0108726D02*
X0102791Y0105824D01*
X0102791Y0108726D02*
X0104726Y0108726D01*
X0099845Y0108726D02*
X0099845Y0105824D01*
X0166247Y0134041D02*
X0166247Y0135493D01*
X0166730Y0135976D01*
X0167698Y0135976D01*
X0168182Y0135493D01*
X0168182Y0134041D01*
X0169149Y0134041D02*
X0166247Y0134041D01*
X0168182Y0135009D02*
X0169149Y0135976D01*
X0168665Y0136988D02*
X0169149Y0137472D01*
X0169149Y0138439D01*
X0168665Y0138923D01*
X0167698Y0138923D01*
X0167698Y0137955D01*
X0168665Y0136988D02*
X0166730Y0136988D01*
X0166247Y0137472D01*
X0166247Y0138439D01*
X0166730Y0138923D01*
X0167214Y0139934D02*
X0166247Y0140902D01*
X0167214Y0141869D01*
X0169149Y0141869D01*
X0167698Y0141869D02*
X0167698Y0139934D01*
X0167214Y0139934D02*
X0169149Y0139934D01*
X0169149Y0143848D02*
X0166247Y0143848D01*
X0166247Y0142881D02*
X0166247Y0144816D01*
X0166247Y0145827D02*
X0169149Y0145827D01*
X0169149Y0147762D01*
X0167698Y0146795D02*
X0167698Y0145827D01*
X0166247Y0145827D02*
X0166247Y0147762D01*
X0147549Y0179641D02*
X0144647Y0179641D01*
X0144647Y0181093D01*
X0145130Y0181576D01*
X0146098Y0181576D01*
X0146582Y0181093D01*
X0146582Y0179641D01*
X0146582Y0180609D02*
X0147549Y0181576D01*
X0147065Y0182588D02*
X0147549Y0183072D01*
X0147549Y0184039D01*
X0147065Y0184523D01*
X0146582Y0184523D01*
X0146098Y0184039D01*
X0146098Y0183072D01*
X0145614Y0182588D01*
X0145130Y0182588D01*
X0144647Y0183072D01*
X0144647Y0184039D01*
X0145130Y0184523D01*
X0144647Y0185534D02*
X0147549Y0185534D01*
X0147549Y0187469D01*
X0147549Y0188481D02*
X0144647Y0188481D01*
X0147549Y0190416D01*
X0144647Y0190416D01*
X0145130Y0191427D02*
X0145614Y0191427D01*
X0146098Y0191911D01*
X0146098Y0192879D01*
X0146582Y0193362D01*
X0147065Y0193362D01*
X0147549Y0192879D01*
X0147549Y0191911D01*
X0147065Y0191427D01*
X0145130Y0191427D02*
X0144647Y0191911D01*
X0144647Y0192879D01*
X0145130Y0193362D01*
X0144647Y0194374D02*
X0147549Y0194374D01*
X0147549Y0196309D01*
X0146098Y0195341D02*
X0146098Y0194374D01*
X0144647Y0194374D02*
X0144647Y0196309D01*
X0144647Y0187469D02*
X0144647Y0185534D01*
X0146098Y0185534D02*
X0146098Y0186502D01*
X0293449Y0303092D02*
X0297152Y0303092D01*
X0295301Y0304943D01*
X0295301Y0302474D01*
X0294066Y0306158D02*
X0297152Y0306158D01*
X0297152Y0308626D02*
X0294066Y0308626D01*
X0293449Y0308009D01*
X0293449Y0306775D01*
X0294066Y0306158D01*
X0361419Y0382618D02*
X0362386Y0382618D01*
X0362870Y0383101D01*
X0362870Y0384069D01*
X0361902Y0384069D01*
X0360935Y0385036D02*
X0360935Y0383101D01*
X0361419Y0382618D01*
X0363881Y0382618D02*
X0363881Y0385520D01*
X0365816Y0382618D01*
X0365816Y0385520D01*
X0366828Y0385520D02*
X0366828Y0382618D01*
X0368279Y0382618D01*
X0368763Y0383101D01*
X0368763Y0385036D01*
X0368279Y0385520D01*
X0366828Y0385520D01*
X0362870Y0385036D02*
X0362386Y0385520D01*
X0361419Y0385520D01*
X0360935Y0385036D01*
X0282015Y0385269D02*
X0280080Y0385269D01*
X0281047Y0386236D02*
X0281047Y0384301D01*
X0278101Y0383818D02*
X0278101Y0386720D01*
X0279068Y0386720D02*
X0277133Y0386720D01*
X0276122Y0386720D02*
X0276122Y0384301D01*
X0275638Y0383818D01*
X0274670Y0383818D01*
X0274187Y0384301D01*
X0274187Y0386720D01*
X0273175Y0386236D02*
X0272691Y0386720D01*
X0271724Y0386720D01*
X0271240Y0386236D01*
X0271240Y0384301D01*
X0271724Y0383818D01*
X0272691Y0383818D01*
X0273175Y0384301D01*
X0273175Y0386236D01*
X0271702Y0388618D02*
X0271702Y0391520D01*
X0269767Y0391520D02*
X0271702Y0388618D01*
X0269767Y0388618D02*
X0269767Y0391520D01*
X0268755Y0391036D02*
X0268272Y0391520D01*
X0267304Y0391520D01*
X0266820Y0391036D01*
X0266820Y0389101D01*
X0267304Y0388618D01*
X0268272Y0388618D01*
X0268755Y0389101D01*
X0268755Y0390069D01*
X0267788Y0390069D01*
X0265823Y0391520D02*
X0264856Y0391520D01*
X0265340Y0391520D02*
X0265340Y0388618D01*
X0265823Y0388618D02*
X0264856Y0388618D01*
X0264336Y0386720D02*
X0264336Y0383818D01*
X0264336Y0385269D02*
X0262401Y0385269D01*
X0261389Y0385269D02*
X0260421Y0385269D01*
X0261389Y0385269D02*
X0261389Y0384301D01*
X0260905Y0383818D01*
X0259938Y0383818D01*
X0259454Y0384301D01*
X0259454Y0386236D01*
X0259938Y0386720D01*
X0260905Y0386720D01*
X0261389Y0386236D01*
X0262401Y0386720D02*
X0262401Y0383818D01*
X0258457Y0383818D02*
X0257490Y0383818D01*
X0257973Y0383818D02*
X0257973Y0386720D01*
X0257490Y0386720D02*
X0258457Y0386720D01*
X0256478Y0386720D02*
X0256478Y0383818D01*
X0256478Y0385269D02*
X0254543Y0385269D01*
X0254543Y0383818D02*
X0254543Y0386720D01*
X0268294Y0386720D02*
X0268294Y0384785D01*
X0269261Y0383818D01*
X0270229Y0384785D01*
X0270229Y0386720D01*
X0171500Y0386236D02*
X0171016Y0386720D01*
X0169565Y0386720D01*
X0169565Y0383818D01*
X0171016Y0383818D01*
X0171500Y0384301D01*
X0171500Y0386236D01*
X0168553Y0386720D02*
X0168553Y0383818D01*
X0166618Y0386720D01*
X0166618Y0383818D01*
X0165607Y0384301D02*
X0165607Y0385269D01*
X0164639Y0385269D01*
X0163672Y0386236D02*
X0163672Y0384301D01*
X0164156Y0383818D01*
X0165123Y0383818D01*
X0165607Y0384301D01*
X0165607Y0386236D02*
X0165123Y0386720D01*
X0164156Y0386720D01*
X0163672Y0386236D01*
X0097089Y0381332D02*
X0095154Y0381332D01*
X0096121Y0382299D02*
X0096121Y0380364D01*
X0093175Y0379881D02*
X0093175Y0382783D01*
X0094142Y0382783D02*
X0092207Y0382783D01*
X0091196Y0382783D02*
X0091196Y0380364D01*
X0090712Y0379881D01*
X0089744Y0379881D01*
X0089261Y0380364D01*
X0089261Y0382783D01*
X0088249Y0382299D02*
X0087765Y0382783D01*
X0086798Y0382783D01*
X0086314Y0382299D01*
X0086314Y0380364D01*
X0086798Y0379881D01*
X0087765Y0379881D01*
X0088249Y0380364D01*
X0088249Y0382299D01*
X0086776Y0384681D02*
X0086776Y0387583D01*
X0084841Y0387583D02*
X0086776Y0384681D01*
X0084841Y0384681D02*
X0084841Y0387583D01*
X0083844Y0387583D02*
X0082876Y0387583D01*
X0083360Y0387583D02*
X0083360Y0384681D01*
X0082876Y0384681D02*
X0083844Y0384681D01*
X0083368Y0382783D02*
X0083368Y0380848D01*
X0084335Y0379881D01*
X0085303Y0380848D01*
X0085303Y0382783D01*
X0081865Y0384681D02*
X0081865Y0386616D01*
X0080897Y0387583D01*
X0079930Y0386616D01*
X0079930Y0384681D01*
X0078918Y0384681D02*
X0078918Y0387583D01*
X0077951Y0386616D01*
X0076983Y0387583D01*
X0076983Y0384681D01*
X0077475Y0382783D02*
X0077475Y0379881D01*
X0076463Y0380364D02*
X0076463Y0381332D01*
X0075496Y0381332D01*
X0076463Y0382299D02*
X0075979Y0382783D01*
X0075012Y0382783D01*
X0074528Y0382299D01*
X0074528Y0380364D01*
X0075012Y0379881D01*
X0075979Y0379881D01*
X0076463Y0380364D01*
X0077475Y0381332D02*
X0079410Y0381332D01*
X0079410Y0382783D02*
X0079410Y0379881D01*
X0073531Y0379881D02*
X0072564Y0379881D01*
X0073047Y0379881D02*
X0073047Y0382783D01*
X0072564Y0382783D02*
X0073531Y0382783D01*
X0071552Y0382783D02*
X0071552Y0379881D01*
X0071552Y0381332D02*
X0069617Y0381332D01*
X0069617Y0379881D02*
X0069617Y0382783D01*
X0079930Y0386132D02*
X0081865Y0386132D01*
D12*
X0190598Y0309663D02*
X0190598Y0301756D01*
X0194552Y0301756D01*
X0195870Y0303074D01*
X0195870Y0308345D01*
X0194552Y0309663D01*
X0190598Y0309663D01*
X0198517Y0307027D02*
X0198517Y0301756D01*
X0198517Y0305710D02*
X0203788Y0305710D01*
X0203788Y0307027D02*
X0203788Y0301756D01*
X0206436Y0301756D02*
X0206436Y0309663D01*
X0211707Y0301756D01*
X0211707Y0309663D01*
X0214355Y0308345D02*
X0214355Y0303074D01*
X0215673Y0301756D01*
X0218308Y0301756D01*
X0219626Y0303074D01*
X0219626Y0305710D01*
X0216990Y0305710D01*
X0214355Y0308345D02*
X0215673Y0309663D01*
X0218308Y0309663D01*
X0219626Y0308345D01*
X0222273Y0309663D02*
X0222273Y0301756D01*
X0227545Y0301756D01*
X0230192Y0301756D02*
X0230192Y0309663D01*
X0234146Y0309663D01*
X0235463Y0308345D01*
X0235463Y0305710D01*
X0234146Y0304392D01*
X0230192Y0304392D01*
X0232828Y0304392D02*
X0235463Y0301756D01*
X0227545Y0309663D02*
X0222273Y0309663D01*
X0222273Y0305710D02*
X0224909Y0305710D01*
X0203788Y0307027D02*
X0201153Y0309663D01*
X0198517Y0307027D01*
X0091403Y0205592D02*
X0091403Y0196537D01*
X0091403Y0188663D02*
X0091403Y0179608D01*
X0072112Y0179608D01*
X0065419Y0186301D01*
X0065419Y0188663D01*
X0065419Y0196537D02*
X0065419Y0198899D01*
X0072112Y0205592D01*
X0091403Y0205592D01*
X0091403Y0175592D02*
X0072112Y0175592D01*
X0065419Y0168899D01*
X0065419Y0166537D01*
X0065419Y0158663D02*
X0065419Y0156301D01*
X0072112Y0149608D01*
X0091403Y0149608D01*
X0091403Y0158663D01*
X0091403Y0166537D02*
X0091403Y0175592D01*
X0271482Y0116099D02*
X0271482Y0113737D01*
X0271482Y0116099D02*
X0278175Y0122792D01*
X0297466Y0122792D01*
X0297466Y0113737D01*
X0297466Y0105863D02*
X0297466Y0096808D01*
X0278175Y0096808D01*
X0271482Y0103501D01*
X0271482Y0105863D01*
X0278175Y0092792D02*
X0271482Y0086099D01*
X0271482Y0083737D01*
X0271482Y0075863D02*
X0271482Y0073501D01*
X0278175Y0066808D01*
X0297466Y0066808D01*
X0297466Y0075863D01*
X0297466Y0083737D02*
X0297466Y0092792D01*
X0278175Y0092792D01*
D13*
X0280843Y0132672D02*
X0280843Y0202672D01*
X0350843Y0202672D01*
X0350843Y0132672D01*
X0280843Y0132672D01*
X0214909Y0117580D02*
X0214909Y0105769D01*
X0208609Y0105769D01*
X0208609Y0117580D01*
X0214909Y0117580D01*
X0146351Y0055269D02*
X0138351Y0055269D01*
X0124241Y0051800D02*
X0117942Y0051800D01*
X0117942Y0063611D01*
X0124241Y0063611D01*
X0124241Y0051800D01*
X0071806Y0041425D02*
X0071808Y0041483D01*
X0071814Y0041541D01*
X0071824Y0041598D01*
X0071837Y0041655D01*
X0071855Y0041710D01*
X0071876Y0041764D01*
X0071900Y0041817D01*
X0071929Y0041868D01*
X0071960Y0041916D01*
X0071995Y0041963D01*
X0072033Y0042007D01*
X0072073Y0042048D01*
X0072117Y0042087D01*
X0072163Y0042122D01*
X0072211Y0042155D01*
X0072261Y0042184D01*
X0072314Y0042209D01*
X0072367Y0042231D01*
X0072422Y0042250D01*
X0072479Y0042264D01*
X0072536Y0042275D01*
X0072593Y0042282D01*
X0072651Y0042285D01*
X0072710Y0042284D01*
X0072767Y0042279D01*
X0072825Y0042270D01*
X0072882Y0042258D01*
X0072937Y0042241D01*
X0072992Y0042221D01*
X0073045Y0042197D01*
X0073096Y0042170D01*
X0073145Y0042139D01*
X0073192Y0042105D01*
X0073237Y0042068D01*
X0073279Y0042028D01*
X0073319Y0041985D01*
X0073355Y0041940D01*
X0073388Y0041892D01*
X0073418Y0041842D01*
X0073444Y0041791D01*
X0073467Y0041737D01*
X0073487Y0041682D01*
X0073502Y0041626D01*
X0073514Y0041570D01*
X0073522Y0041512D01*
X0073526Y0041454D01*
X0073526Y0041396D01*
X0073522Y0041338D01*
X0073514Y0041280D01*
X0073502Y0041224D01*
X0073487Y0041168D01*
X0073467Y0041113D01*
X0073444Y0041059D01*
X0073418Y0041008D01*
X0073388Y0040958D01*
X0073355Y0040910D01*
X0073319Y0040865D01*
X0073279Y0040822D01*
X0073237Y0040782D01*
X0073192Y0040745D01*
X0073145Y0040711D01*
X0073096Y0040680D01*
X0073045Y0040653D01*
X0072992Y0040629D01*
X0072937Y0040609D01*
X0072882Y0040592D01*
X0072825Y0040580D01*
X0072767Y0040571D01*
X0072710Y0040566D01*
X0072651Y0040565D01*
X0072593Y0040568D01*
X0072536Y0040575D01*
X0072479Y0040586D01*
X0072422Y0040600D01*
X0072367Y0040619D01*
X0072314Y0040641D01*
X0072261Y0040666D01*
X0072211Y0040695D01*
X0072163Y0040728D01*
X0072117Y0040763D01*
X0072073Y0040802D01*
X0072033Y0040843D01*
X0071995Y0040887D01*
X0071960Y0040934D01*
X0071929Y0040982D01*
X0071900Y0041033D01*
X0071876Y0041086D01*
X0071855Y0041140D01*
X0071837Y0041195D01*
X0071824Y0041252D01*
X0071814Y0041309D01*
X0071808Y0041367D01*
X0071806Y0041425D01*
X0072566Y0041425D02*
X0072568Y0041445D01*
X0072574Y0041463D01*
X0072583Y0041481D01*
X0072595Y0041496D01*
X0072610Y0041508D01*
X0072628Y0041517D01*
X0072646Y0041523D01*
X0072666Y0041525D01*
X0072686Y0041523D01*
X0072704Y0041517D01*
X0072722Y0041508D01*
X0072737Y0041496D01*
X0072749Y0041481D01*
X0072758Y0041463D01*
X0072764Y0041445D01*
X0072766Y0041425D01*
X0072764Y0041405D01*
X0072758Y0041387D01*
X0072749Y0041369D01*
X0072737Y0041354D01*
X0072722Y0041342D01*
X0072704Y0041333D01*
X0072686Y0041327D01*
X0072666Y0041325D01*
X0072646Y0041327D01*
X0072628Y0041333D01*
X0072610Y0041342D01*
X0072595Y0041354D01*
X0072583Y0041369D01*
X0072574Y0041387D01*
X0072568Y0041405D01*
X0072566Y0041425D01*
X0072166Y0041425D02*
X0072168Y0041469D01*
X0072174Y0041513D01*
X0072184Y0041556D01*
X0072197Y0041598D01*
X0072214Y0041639D01*
X0072235Y0041678D01*
X0072259Y0041715D01*
X0072286Y0041750D01*
X0072316Y0041782D01*
X0072349Y0041812D01*
X0072385Y0041838D01*
X0072422Y0041862D01*
X0072462Y0041881D01*
X0072503Y0041898D01*
X0072546Y0041910D01*
X0072589Y0041919D01*
X0072633Y0041924D01*
X0072677Y0041925D01*
X0072721Y0041922D01*
X0072765Y0041915D01*
X0072808Y0041904D01*
X0072850Y0041890D01*
X0072890Y0041872D01*
X0072929Y0041850D01*
X0072965Y0041826D01*
X0072999Y0041798D01*
X0073031Y0041767D01*
X0073060Y0041733D01*
X0073086Y0041697D01*
X0073108Y0041659D01*
X0073127Y0041619D01*
X0073142Y0041577D01*
X0073154Y0041535D01*
X0073162Y0041491D01*
X0073166Y0041447D01*
X0073166Y0041403D01*
X0073162Y0041359D01*
X0073154Y0041315D01*
X0073142Y0041273D01*
X0073127Y0041231D01*
X0073108Y0041191D01*
X0073086Y0041153D01*
X0073060Y0041117D01*
X0073031Y0041083D01*
X0072999Y0041052D01*
X0072965Y0041024D01*
X0072929Y0041000D01*
X0072890Y0040978D01*
X0072850Y0040960D01*
X0072808Y0040946D01*
X0072765Y0040935D01*
X0072721Y0040928D01*
X0072677Y0040925D01*
X0072633Y0040926D01*
X0072589Y0040931D01*
X0072546Y0040940D01*
X0072503Y0040952D01*
X0072462Y0040969D01*
X0072422Y0040988D01*
X0072385Y0041012D01*
X0072349Y0041038D01*
X0072316Y0041068D01*
X0072286Y0041100D01*
X0072259Y0041135D01*
X0072235Y0041172D01*
X0072214Y0041211D01*
X0072197Y0041252D01*
X0072184Y0041294D01*
X0072174Y0041337D01*
X0072168Y0041381D01*
X0072166Y0041425D01*
X0070231Y0059419D02*
X0065727Y0059419D01*
X0065727Y0061671D01*
X0066478Y0062422D01*
X0067979Y0062422D01*
X0068730Y0061671D01*
X0068730Y0059419D01*
X0070231Y0064023D02*
X0065727Y0064023D01*
X0065727Y0067026D02*
X0070231Y0067026D01*
X0068730Y0065525D01*
X0070231Y0064023D01*
X0070231Y0068627D02*
X0065727Y0068627D01*
X0065727Y0070879D01*
X0066478Y0071630D01*
X0067979Y0071630D01*
X0068730Y0070879D01*
X0068730Y0068627D01*
X0068730Y0070128D02*
X0070231Y0071630D01*
X0068744Y0209875D02*
X0068744Y0290875D01*
X0151494Y0290875D01*
X0151494Y0209875D01*
X0151344Y0209875D02*
X0068744Y0209875D01*
X0068644Y0209875D01*
X0068644Y0290875D02*
X0068744Y0290875D01*
X0192985Y0287683D02*
X0192985Y0283613D01*
X0195020Y0281578D01*
X0197055Y0283613D01*
X0197055Y0287683D01*
X0199062Y0286665D02*
X0199062Y0282595D01*
X0200079Y0281578D01*
X0202114Y0281578D01*
X0203132Y0282595D01*
X0203132Y0286665D01*
X0202114Y0287683D01*
X0200079Y0287683D01*
X0199062Y0286665D01*
X0205139Y0287683D02*
X0205139Y0281578D01*
X0209209Y0281578D01*
X0213251Y0281578D02*
X0213251Y0287683D01*
X0211216Y0287683D02*
X0215286Y0287683D01*
X0217293Y0285648D02*
X0219328Y0287683D01*
X0221363Y0285648D01*
X0221363Y0281578D01*
X0223370Y0282595D02*
X0223370Y0286665D01*
X0224388Y0287683D01*
X0226423Y0287683D01*
X0227441Y0286665D01*
X0227441Y0284630D02*
X0225406Y0284630D01*
X0227441Y0284630D02*
X0227441Y0282595D01*
X0226423Y0281578D01*
X0224388Y0281578D01*
X0223370Y0282595D01*
X0221363Y0284630D02*
X0217293Y0284630D01*
X0217293Y0285648D02*
X0217293Y0281578D01*
X0216294Y0291478D02*
X0214259Y0291478D01*
X0213242Y0292495D01*
X0213242Y0296565D01*
X0214259Y0297583D01*
X0216294Y0297583D01*
X0217312Y0296565D01*
X0217312Y0294530D02*
X0215277Y0294530D01*
X0217312Y0294530D02*
X0217312Y0292495D01*
X0216294Y0291478D01*
X0219319Y0291478D02*
X0219319Y0297583D01*
X0219319Y0294530D02*
X0223389Y0294530D01*
X0223389Y0291478D02*
X0223389Y0297583D01*
X0229448Y0287683D02*
X0229448Y0281578D01*
X0233518Y0281578D01*
X0231483Y0284630D02*
X0229448Y0284630D01*
X0229448Y0287683D02*
X0233518Y0287683D01*
X0211225Y0291478D02*
X0209190Y0291478D01*
X0210208Y0291478D02*
X0210208Y0297583D01*
X0211225Y0297583D02*
X0209190Y0297583D01*
X0207183Y0297583D02*
X0207183Y0291478D01*
X0207183Y0294530D02*
X0203113Y0294530D01*
X0203113Y0291478D02*
X0203113Y0297583D01*
X0204467Y0359379D02*
X0209467Y0371879D01*
X0211967Y0369379D01*
X0216967Y0378129D01*
X0214467Y0364379D01*
X0210717Y0368129D01*
X0204467Y0359379D01*
X0204608Y0359731D02*
X0204719Y0359731D01*
X0204808Y0360230D02*
X0205075Y0360230D01*
X0205007Y0360728D02*
X0205431Y0360728D01*
X0205206Y0361227D02*
X0205787Y0361227D01*
X0206143Y0361725D02*
X0205406Y0361725D01*
X0205605Y0362224D02*
X0206499Y0362224D01*
X0206856Y0362722D02*
X0205805Y0362722D01*
X0206004Y0363221D02*
X0207212Y0363221D01*
X0207568Y0363719D02*
X0206204Y0363719D01*
X0206403Y0364218D02*
X0207924Y0364218D01*
X0208280Y0364716D02*
X0206602Y0364716D01*
X0206802Y0365215D02*
X0208636Y0365215D01*
X0208992Y0365713D02*
X0207001Y0365713D01*
X0207201Y0366212D02*
X0209348Y0366212D01*
X0209704Y0366710D02*
X0207400Y0366710D01*
X0207599Y0367209D02*
X0210060Y0367209D01*
X0210416Y0367707D02*
X0207799Y0367707D01*
X0207998Y0368206D02*
X0215163Y0368206D01*
X0215254Y0368704D02*
X0208198Y0368704D01*
X0208397Y0369203D02*
X0215344Y0369203D01*
X0215435Y0369701D02*
X0212152Y0369701D01*
X0211645Y0369701D02*
X0208596Y0369701D01*
X0208796Y0370200D02*
X0211146Y0370200D01*
X0210648Y0370698D02*
X0208995Y0370698D01*
X0209195Y0371197D02*
X0210149Y0371197D01*
X0209651Y0371695D02*
X0209394Y0371695D01*
X0212437Y0370200D02*
X0215526Y0370200D01*
X0215616Y0370698D02*
X0212721Y0370698D01*
X0213006Y0371197D02*
X0215707Y0371197D01*
X0215798Y0371695D02*
X0213291Y0371695D01*
X0213576Y0372194D02*
X0215888Y0372194D01*
X0215979Y0372692D02*
X0213861Y0372692D01*
X0214146Y0373191D02*
X0216070Y0373191D01*
X0216160Y0373689D02*
X0214431Y0373689D01*
X0214715Y0374188D02*
X0216251Y0374188D01*
X0216341Y0374686D02*
X0215000Y0374686D01*
X0215285Y0375185D02*
X0216432Y0375185D01*
X0216523Y0375683D02*
X0215570Y0375683D01*
X0215855Y0376182D02*
X0216613Y0376182D01*
X0216704Y0376681D02*
X0216140Y0376681D01*
X0216425Y0377179D02*
X0216795Y0377179D01*
X0216709Y0377678D02*
X0216885Y0377678D01*
X0215073Y0367707D02*
X0211139Y0367707D01*
X0211637Y0367209D02*
X0214982Y0367209D01*
X0214891Y0366710D02*
X0212136Y0366710D01*
X0212634Y0366212D02*
X0214801Y0366212D01*
X0214710Y0365713D02*
X0213133Y0365713D01*
X0213631Y0365215D02*
X0214619Y0365215D01*
X0214529Y0364716D02*
X0214130Y0364716D01*
X0308678Y0305576D02*
X0308680Y0305629D01*
X0308686Y0305682D01*
X0308696Y0305735D01*
X0308709Y0305786D01*
X0308727Y0305836D01*
X0308748Y0305885D01*
X0308772Y0305933D01*
X0308800Y0305978D01*
X0308832Y0306021D01*
X0308866Y0306062D01*
X0308904Y0306100D01*
X0308944Y0306135D01*
X0308986Y0306167D01*
X0309031Y0306196D01*
X0309078Y0306221D01*
X0309126Y0306243D01*
X0309176Y0306262D01*
X0309227Y0306276D01*
X0309280Y0306287D01*
X0309332Y0306294D01*
X0309386Y0306297D01*
X0309439Y0306296D01*
X0309492Y0306291D01*
X0309545Y0306282D01*
X0309596Y0306269D01*
X0309647Y0306253D01*
X0309696Y0306233D01*
X0309744Y0306209D01*
X0309790Y0306182D01*
X0309833Y0306151D01*
X0309875Y0306118D01*
X0309914Y0306081D01*
X0309949Y0306042D01*
X0309982Y0306000D01*
X0310012Y0305956D01*
X0310038Y0305909D01*
X0310061Y0305861D01*
X0310080Y0305811D01*
X0310096Y0305760D01*
X0310108Y0305708D01*
X0310116Y0305656D01*
X0310120Y0305603D01*
X0310120Y0305549D01*
X0310116Y0305496D01*
X0310108Y0305444D01*
X0310096Y0305392D01*
X0310080Y0305341D01*
X0310061Y0305291D01*
X0310038Y0305243D01*
X0310012Y0305196D01*
X0309982Y0305152D01*
X0309949Y0305110D01*
X0309914Y0305071D01*
X0309875Y0305034D01*
X0309833Y0305001D01*
X0309790Y0304970D01*
X0309744Y0304943D01*
X0309696Y0304919D01*
X0309647Y0304899D01*
X0309596Y0304883D01*
X0309545Y0304870D01*
X0309492Y0304861D01*
X0309439Y0304856D01*
X0309386Y0304855D01*
X0309332Y0304858D01*
X0309280Y0304865D01*
X0309227Y0304876D01*
X0309176Y0304890D01*
X0309126Y0304909D01*
X0309078Y0304931D01*
X0309031Y0304956D01*
X0308986Y0304985D01*
X0308944Y0305017D01*
X0308904Y0305052D01*
X0308866Y0305090D01*
X0308832Y0305131D01*
X0308800Y0305174D01*
X0308772Y0305219D01*
X0308748Y0305267D01*
X0308727Y0305316D01*
X0308709Y0305366D01*
X0308696Y0305417D01*
X0308686Y0305470D01*
X0308680Y0305523D01*
X0308678Y0305576D01*
X0312074Y0269775D02*
X0365224Y0269775D01*
X0365224Y0215838D02*
X0312074Y0215838D01*
X0231287Y0020269D02*
X0231287Y0015765D01*
X0232788Y0015765D02*
X0229785Y0015765D01*
X0227433Y0016516D02*
X0227433Y0020269D01*
X0226683Y0020269D02*
X0228184Y0020269D01*
X0229785Y0018768D02*
X0231287Y0020269D01*
X0227433Y0016516D02*
X0226683Y0015765D01*
X0225932Y0015765D01*
X0225182Y0016516D01*
D14*
X0206839Y0044781D02*
X0206839Y0061181D01*
X0176997Y0069910D02*
X0174635Y0069910D01*
X0174635Y0074635D02*
X0176997Y0074635D01*
X0166839Y0061181D02*
X0166839Y0044781D01*
X0160855Y0044887D02*
X0158493Y0044887D01*
X0158493Y0040162D02*
X0160855Y0040162D01*
X0158509Y0056524D02*
X0158509Y0058887D01*
X0163233Y0058887D02*
X0163233Y0056524D01*
X0135265Y0056524D02*
X0135265Y0058887D01*
X0130540Y0058887D02*
X0130540Y0056524D01*
X0108887Y0056524D02*
X0108887Y0058887D01*
X0104162Y0058887D02*
X0104162Y0056524D01*
X0087318Y0063507D02*
X0084956Y0063507D01*
X0084956Y0068231D02*
X0087318Y0068231D01*
X0074118Y0068231D02*
X0071756Y0068231D01*
X0071756Y0063507D02*
X0074118Y0063507D01*
X0073822Y0059280D02*
X0071460Y0059280D01*
X0071460Y0054556D02*
X0073822Y0054556D01*
X0062981Y0055481D02*
X0060481Y0052981D01*
X0062981Y0050481D01*
X0062981Y0045481D01*
X0060481Y0042981D01*
X0062981Y0040481D01*
X0062981Y0035481D01*
X0060481Y0032981D01*
X0045481Y0032981D01*
X0042981Y0035481D01*
X0042981Y0040481D01*
X0045481Y0042981D01*
X0042981Y0045481D01*
X0042981Y0050481D01*
X0045481Y0052981D01*
X0042981Y0055481D01*
X0042981Y0060481D01*
X0045481Y0062981D01*
X0042981Y0065481D01*
X0042981Y0070481D01*
X0045481Y0072981D01*
X0060481Y0072981D01*
X0062981Y0070481D01*
X0062981Y0065481D01*
X0060481Y0062981D01*
X0062981Y0060481D01*
X0062981Y0055481D01*
X0073145Y0037261D02*
X0075507Y0037261D01*
X0075507Y0032537D02*
X0073145Y0032537D01*
X0052524Y0077025D02*
X0052524Y0079387D01*
X0047800Y0079387D02*
X0047800Y0077025D01*
X0082104Y0108649D02*
X0084466Y0108649D01*
X0084466Y0113373D02*
X0082104Y0113373D01*
X0077754Y0120407D02*
X0075392Y0120407D01*
X0075392Y0125131D02*
X0077754Y0125131D01*
X0088430Y0129038D02*
X0090792Y0129038D01*
X0090792Y0133762D02*
X0088430Y0133762D01*
X0099712Y0133674D02*
X0102074Y0133674D01*
X0101780Y0136456D02*
X0099418Y0136456D01*
X0099418Y0141180D02*
X0101780Y0141180D01*
X0113501Y0142272D02*
X0113501Y0139910D01*
X0118225Y0139910D02*
X0118225Y0142272D01*
X0121151Y0142272D02*
X0121151Y0139910D01*
X0125876Y0139910D02*
X0125876Y0142272D01*
X0102074Y0128950D02*
X0099712Y0128950D01*
X0099691Y0102177D02*
X0102053Y0102177D01*
X0102053Y0097453D02*
X0099691Y0097453D01*
X0132115Y0115973D02*
X0132115Y0118335D01*
X0136839Y0118335D02*
X0136839Y0115973D01*
X0143926Y0116761D02*
X0146288Y0116761D01*
X0146288Y0112036D02*
X0143926Y0112036D01*
X0153375Y0115973D02*
X0153375Y0118335D01*
X0158099Y0118335D02*
X0158099Y0115973D01*
X0158531Y0139710D02*
X0158531Y0142072D01*
X0153806Y0142072D02*
X0153806Y0139710D01*
X0157237Y0185310D02*
X0157237Y0187672D01*
X0161961Y0187672D02*
X0161961Y0185310D01*
X0165837Y0185310D02*
X0165837Y0187672D01*
X0170561Y0187672D02*
X0170561Y0185310D01*
X0174637Y0185310D02*
X0174637Y0187672D01*
X0179361Y0187672D02*
X0179361Y0185310D01*
X0228965Y0136446D02*
X0231328Y0136446D01*
X0231328Y0131721D02*
X0228965Y0131721D01*
X0228965Y0126209D02*
X0231328Y0126209D01*
X0231328Y0121485D02*
X0228965Y0121485D01*
X0220698Y0126603D02*
X0220698Y0128965D01*
X0215973Y0128965D02*
X0215973Y0126603D01*
X0223060Y0108735D02*
X0223060Y0106373D01*
X0226997Y0106131D02*
X0226997Y0108493D01*
X0227784Y0108735D02*
X0227784Y0106373D01*
X0231721Y0106131D02*
X0231721Y0108493D01*
X0279285Y0064513D02*
X0281647Y0064513D01*
X0281647Y0059788D02*
X0279285Y0059788D01*
X0280546Y0050587D02*
X0280546Y0048224D01*
X0278090Y0048185D02*
X0278090Y0050547D01*
X0285270Y0050587D02*
X0285270Y0048224D01*
X0273365Y0048185D02*
X0273365Y0050547D01*
X0253769Y0058493D02*
X0253769Y0060855D01*
X0249044Y0060855D02*
X0249044Y0058493D01*
X0299186Y0058507D02*
X0299186Y0056145D01*
X0303910Y0056145D02*
X0303910Y0058507D01*
X0305167Y0066364D02*
X0307529Y0066364D01*
X0307529Y0071088D02*
X0305167Y0071088D01*
X0305267Y0074264D02*
X0307629Y0074264D01*
X0307629Y0078988D02*
X0305267Y0078988D01*
X0329586Y0060770D02*
X0329586Y0058408D01*
X0334310Y0058408D02*
X0334310Y0060770D01*
X0340386Y0060770D02*
X0340386Y0058408D01*
X0345110Y0058408D02*
X0345110Y0060770D01*
X0363986Y0059370D02*
X0363986Y0057008D01*
X0368710Y0057008D02*
X0368710Y0059370D01*
X0349438Y0035658D02*
X0347076Y0035658D01*
X0347076Y0030934D02*
X0349438Y0030934D01*
X0343926Y0030934D02*
X0343926Y0028572D01*
X0339202Y0028572D02*
X0339202Y0030934D01*
X0360461Y0030146D02*
X0360461Y0027784D01*
X0365186Y0027784D02*
X0365186Y0030146D01*
X0365710Y0103008D02*
X0365710Y0105370D01*
X0369586Y0105370D02*
X0369586Y0103008D01*
X0374310Y0103008D02*
X0374310Y0105370D01*
X0377986Y0105370D02*
X0377986Y0103008D01*
X0382710Y0103008D02*
X0382710Y0105370D01*
X0360986Y0105370D02*
X0360986Y0103008D01*
X0315835Y0313926D02*
X0315835Y0316288D01*
X0311110Y0316288D02*
X0311110Y0313926D01*
X0307961Y0313696D02*
X0307961Y0316058D01*
X0303236Y0316058D02*
X0303236Y0313696D01*
X0299438Y0315580D02*
X0299438Y0317942D01*
X0294713Y0317942D02*
X0294713Y0315580D01*
X0207706Y0338020D02*
X0205343Y0338020D01*
X0205343Y0342745D02*
X0207706Y0342745D01*
X0198713Y0347292D02*
X0190769Y0347292D01*
X0188020Y0342745D02*
X0185658Y0342745D01*
X0185658Y0338020D02*
X0188020Y0338020D01*
X0190670Y0357095D02*
X0198757Y0357095D01*
X0131729Y0357095D02*
X0123784Y0357095D01*
X0123741Y0347292D02*
X0131828Y0347292D01*
D15*
X0134888Y0345895D02*
X0135638Y0345895D01*
X0135889Y0345645D01*
X0135889Y0345144D01*
X0135638Y0344894D01*
X0134888Y0344894D01*
X0135388Y0344894D02*
X0135889Y0344394D01*
X0136361Y0344394D02*
X0137362Y0344394D01*
X0136861Y0344394D02*
X0136861Y0345895D01*
X0136361Y0345395D01*
X0134888Y0345895D02*
X0134888Y0344394D01*
X0108992Y0327156D02*
X0108992Y0326156D01*
X0108992Y0325683D02*
X0108992Y0324682D01*
X0108992Y0325183D02*
X0107490Y0325183D01*
X0107991Y0324682D01*
X0107741Y0324210D02*
X0107490Y0323960D01*
X0107490Y0323209D01*
X0108992Y0323209D01*
X0108992Y0323960D01*
X0108742Y0324210D01*
X0107741Y0324210D01*
X0107991Y0326156D02*
X0107490Y0326656D01*
X0108992Y0326656D01*
X0093244Y0326406D02*
X0092993Y0326156D01*
X0091993Y0327156D01*
X0092993Y0327156D01*
X0093244Y0326906D01*
X0093244Y0326406D01*
X0092993Y0326156D02*
X0091993Y0326156D01*
X0091742Y0326406D01*
X0091742Y0326906D01*
X0091993Y0327156D01*
X0093244Y0325683D02*
X0093244Y0324682D01*
X0093244Y0325183D02*
X0091742Y0325183D01*
X0092243Y0324682D01*
X0091993Y0324210D02*
X0091742Y0323960D01*
X0091742Y0323209D01*
X0093244Y0323209D01*
X0093244Y0323960D01*
X0092993Y0324210D01*
X0091993Y0324210D01*
X0077496Y0323960D02*
X0077245Y0324210D01*
X0076245Y0324210D01*
X0075994Y0323960D01*
X0075994Y0323209D01*
X0077496Y0323209D01*
X0077496Y0323960D01*
X0077245Y0324682D02*
X0077496Y0324933D01*
X0077496Y0325433D01*
X0077245Y0325683D01*
X0076245Y0325683D01*
X0075994Y0325433D01*
X0075994Y0324933D01*
X0076245Y0324682D01*
X0076495Y0324682D01*
X0076745Y0324933D01*
X0076745Y0325683D01*
X0061748Y0325433D02*
X0061748Y0324933D01*
X0061497Y0324682D01*
X0061247Y0324682D01*
X0060997Y0324933D01*
X0060997Y0325433D01*
X0061247Y0325683D01*
X0061497Y0325683D01*
X0061748Y0325433D01*
X0060997Y0325433D02*
X0060747Y0325683D01*
X0060497Y0325683D01*
X0060246Y0325433D01*
X0060246Y0324933D01*
X0060497Y0324682D01*
X0060747Y0324682D01*
X0060997Y0324933D01*
X0060497Y0324210D02*
X0060246Y0323960D01*
X0060246Y0323209D01*
X0061748Y0323209D01*
X0061748Y0323960D01*
X0061497Y0324210D01*
X0060497Y0324210D01*
X0046000Y0323960D02*
X0045749Y0324210D01*
X0044749Y0324210D01*
X0044498Y0323960D01*
X0044498Y0323209D01*
X0046000Y0323209D01*
X0046000Y0323960D01*
X0046000Y0324682D02*
X0045749Y0324682D01*
X0044749Y0325683D01*
X0044498Y0325683D01*
X0044498Y0324682D01*
X0046378Y0300165D02*
X0046378Y0299164D01*
X0046378Y0299665D02*
X0044876Y0299665D01*
X0045377Y0299164D01*
X0045127Y0298692D02*
X0044876Y0298442D01*
X0044876Y0297691D01*
X0046378Y0297691D01*
X0046378Y0298442D01*
X0046127Y0298692D01*
X0045127Y0298692D01*
X0060448Y0298492D02*
X0060448Y0297741D01*
X0061949Y0297741D01*
X0061949Y0298492D01*
X0061699Y0298742D01*
X0060698Y0298742D01*
X0060448Y0298492D01*
X0060698Y0299215D02*
X0060448Y0299465D01*
X0060448Y0299965D01*
X0060698Y0300215D01*
X0060948Y0300215D01*
X0061949Y0299215D01*
X0061949Y0300215D01*
X0076048Y0299965D02*
X0076298Y0300215D01*
X0076548Y0300215D01*
X0076799Y0299965D01*
X0077049Y0300215D01*
X0077299Y0300215D01*
X0077549Y0299965D01*
X0077549Y0299465D01*
X0077299Y0299215D01*
X0077299Y0298742D02*
X0076298Y0298742D01*
X0076048Y0298492D01*
X0076048Y0297741D01*
X0077549Y0297741D01*
X0077549Y0298492D01*
X0077299Y0298742D01*
X0076799Y0299715D02*
X0076799Y0299965D01*
X0076048Y0299965D02*
X0076048Y0299465D01*
X0076298Y0299215D01*
X0091742Y0299842D02*
X0092493Y0299092D01*
X0092493Y0300093D01*
X0093244Y0299842D02*
X0091742Y0299842D01*
X0091993Y0298619D02*
X0091742Y0298369D01*
X0091742Y0297619D01*
X0093244Y0297619D01*
X0093244Y0298369D01*
X0092993Y0298619D01*
X0091993Y0298619D01*
X0107490Y0298369D02*
X0107490Y0297619D01*
X0108992Y0297619D01*
X0108992Y0298369D01*
X0108742Y0298619D01*
X0107741Y0298619D01*
X0107490Y0298369D01*
X0107490Y0299092D02*
X0108241Y0299092D01*
X0107991Y0299592D01*
X0107991Y0299842D01*
X0108241Y0300093D01*
X0108742Y0300093D01*
X0108992Y0299842D01*
X0108992Y0299342D01*
X0108742Y0299092D01*
X0107490Y0299092D02*
X0107490Y0300093D01*
X0184763Y0358494D02*
X0184763Y0359995D01*
X0185514Y0359995D01*
X0185764Y0359745D01*
X0185764Y0359244D01*
X0185514Y0358994D01*
X0184763Y0358994D01*
X0185264Y0358994D02*
X0185764Y0358494D01*
X0186237Y0358494D02*
X0187237Y0359495D01*
X0187237Y0359745D01*
X0186987Y0359995D01*
X0186487Y0359995D01*
X0186237Y0359745D01*
X0186237Y0358494D02*
X0187237Y0358494D01*
X0187193Y0337084D02*
X0186943Y0336834D01*
X0186943Y0335833D01*
X0187193Y0335583D01*
X0187693Y0335583D01*
X0187944Y0335833D01*
X0188416Y0335583D02*
X0189417Y0336584D01*
X0189417Y0336834D01*
X0189167Y0337084D01*
X0188666Y0337084D01*
X0188416Y0336834D01*
X0187944Y0336834D02*
X0187693Y0337084D01*
X0187193Y0337084D01*
X0188416Y0335583D02*
X0189417Y0335583D01*
X0199753Y0335583D02*
X0199753Y0337084D01*
X0200754Y0337084D01*
X0201226Y0337084D02*
X0201226Y0335583D01*
X0202227Y0335583D01*
X0202699Y0335583D02*
X0202699Y0337084D01*
X0203450Y0337084D01*
X0203700Y0336834D01*
X0203700Y0336333D01*
X0203450Y0336083D01*
X0202699Y0336083D01*
X0203200Y0336083D02*
X0203700Y0335583D01*
X0204172Y0335583D02*
X0204172Y0337084D01*
X0204923Y0337084D01*
X0205173Y0336834D01*
X0205173Y0336333D01*
X0204923Y0336083D01*
X0204172Y0336083D01*
X0204673Y0336083D02*
X0205173Y0335583D01*
X0205646Y0335583D02*
X0206146Y0335583D01*
X0205896Y0335583D02*
X0205896Y0337084D01*
X0205646Y0337084D02*
X0206146Y0337084D01*
X0206628Y0337084D02*
X0207629Y0337084D01*
X0208101Y0337084D02*
X0208101Y0335583D01*
X0209102Y0335583D01*
X0208602Y0336333D02*
X0208101Y0336333D01*
X0208101Y0337084D02*
X0209102Y0337084D01*
X0207128Y0337084D02*
X0207128Y0335583D01*
X0202227Y0337084D02*
X0201226Y0337084D01*
X0201226Y0336333D02*
X0201726Y0336333D01*
X0200253Y0336333D02*
X0199753Y0336333D01*
X0292274Y0315784D02*
X0293776Y0315784D01*
X0293776Y0315284D02*
X0293776Y0316285D01*
X0292775Y0315284D02*
X0292274Y0315784D01*
X0292525Y0314811D02*
X0292274Y0314561D01*
X0292274Y0314061D01*
X0292525Y0313811D01*
X0293525Y0313811D01*
X0293776Y0314061D01*
X0293776Y0314561D01*
X0293525Y0314811D01*
X0300797Y0314874D02*
X0301548Y0314874D01*
X0301298Y0315374D01*
X0301298Y0315624D01*
X0301548Y0315875D01*
X0302048Y0315875D01*
X0302298Y0315624D01*
X0302298Y0315124D01*
X0302048Y0314874D01*
X0302298Y0314401D02*
X0302298Y0313400D01*
X0302298Y0313901D02*
X0300797Y0313901D01*
X0301298Y0313400D01*
X0301047Y0312928D02*
X0300797Y0312678D01*
X0300797Y0312177D01*
X0301047Y0311927D01*
X0302048Y0311927D01*
X0302298Y0312177D01*
X0302298Y0312678D01*
X0302048Y0312928D01*
X0300797Y0314874D02*
X0300797Y0315875D01*
X0300797Y0316347D02*
X0300797Y0317348D01*
X0301047Y0317348D01*
X0302048Y0316347D01*
X0302298Y0316347D01*
X0308671Y0316104D02*
X0308671Y0315104D01*
X0309422Y0315104D01*
X0309172Y0315604D01*
X0309172Y0315854D01*
X0309422Y0316104D01*
X0309922Y0316104D01*
X0310172Y0315854D01*
X0310172Y0315354D01*
X0309922Y0315104D01*
X0310172Y0314631D02*
X0310172Y0313630D01*
X0310172Y0314131D02*
X0308671Y0314131D01*
X0309172Y0313630D01*
X0308921Y0313158D02*
X0308671Y0312908D01*
X0308671Y0312407D01*
X0308921Y0312157D01*
X0309922Y0312157D01*
X0310172Y0312407D01*
X0310172Y0312908D01*
X0309922Y0313158D01*
X0309922Y0316577D02*
X0309672Y0316577D01*
X0309422Y0316827D01*
X0309422Y0317327D01*
X0309672Y0317578D01*
X0309922Y0317578D01*
X0310172Y0317327D01*
X0310172Y0316827D01*
X0309922Y0316577D01*
X0309422Y0316827D02*
X0309172Y0316577D01*
X0308921Y0316577D01*
X0308671Y0316827D01*
X0308671Y0317327D01*
X0308921Y0317578D01*
X0309172Y0317578D01*
X0309422Y0317327D01*
X0336423Y0315107D02*
X0336423Y0313856D01*
X0336673Y0313606D01*
X0337174Y0313606D01*
X0337424Y0313856D01*
X0337424Y0315107D01*
X0337896Y0314857D02*
X0338147Y0315107D01*
X0338647Y0315107D01*
X0338897Y0314857D01*
X0339370Y0314607D02*
X0339870Y0315107D01*
X0339870Y0313606D01*
X0339370Y0313606D02*
X0340371Y0313606D01*
X0340843Y0314357D02*
X0341844Y0314357D01*
X0341594Y0315107D02*
X0340843Y0314357D01*
X0341594Y0315107D02*
X0341594Y0313606D01*
X0338897Y0313856D02*
X0338897Y0314106D01*
X0338647Y0314357D01*
X0338147Y0314357D01*
X0337896Y0314607D01*
X0337896Y0314857D01*
X0338397Y0315357D02*
X0338397Y0313356D01*
X0338647Y0313606D02*
X0338897Y0313856D01*
X0338647Y0313606D02*
X0338147Y0313606D01*
X0337896Y0313856D01*
X0263589Y0215279D02*
X0263839Y0215029D01*
X0263839Y0214529D01*
X0263589Y0214278D01*
X0263088Y0214278D02*
X0262838Y0214779D01*
X0262838Y0215029D01*
X0263088Y0215279D01*
X0263589Y0215279D01*
X0263088Y0214278D02*
X0262338Y0214278D01*
X0262338Y0215279D01*
X0262338Y0213306D02*
X0263839Y0213306D01*
X0263839Y0213806D02*
X0263839Y0212805D01*
X0263589Y0212333D02*
X0262588Y0212333D01*
X0262338Y0212083D01*
X0262338Y0211332D01*
X0263839Y0211332D01*
X0263839Y0212083D01*
X0263589Y0212333D01*
X0262838Y0212805D02*
X0262338Y0213306D01*
X0248239Y0213306D02*
X0246738Y0213306D01*
X0247238Y0212805D01*
X0246988Y0212333D02*
X0246738Y0212083D01*
X0246738Y0211332D01*
X0248239Y0211332D01*
X0248239Y0212083D01*
X0247989Y0212333D01*
X0246988Y0212333D01*
X0248239Y0212805D02*
X0248239Y0213806D01*
X0247488Y0214278D02*
X0247488Y0215279D01*
X0246738Y0215029D02*
X0247488Y0214278D01*
X0246738Y0215029D02*
X0248239Y0215029D01*
X0232667Y0214979D02*
X0232667Y0214478D01*
X0232417Y0214228D01*
X0232667Y0213756D02*
X0232667Y0212755D01*
X0232667Y0213255D02*
X0231166Y0213255D01*
X0231666Y0212755D01*
X0231416Y0212282D02*
X0231166Y0212032D01*
X0231166Y0211281D01*
X0232667Y0211281D01*
X0232667Y0212032D01*
X0232417Y0212282D01*
X0231416Y0212282D01*
X0231416Y0214228D02*
X0231166Y0214478D01*
X0231166Y0214979D01*
X0231416Y0215229D01*
X0231666Y0215229D01*
X0231917Y0214979D01*
X0232167Y0215229D01*
X0232417Y0215229D01*
X0232667Y0214979D01*
X0231917Y0214979D02*
X0231917Y0214728D01*
X0181799Y0189069D02*
X0181799Y0188068D01*
X0181799Y0187596D02*
X0181799Y0186595D01*
X0180298Y0186595D01*
X0180298Y0187596D01*
X0180798Y0188068D02*
X0180298Y0188568D01*
X0181799Y0188568D01*
X0181049Y0187095D02*
X0181049Y0186595D01*
X0181299Y0186122D02*
X0181549Y0186122D01*
X0181799Y0185872D01*
X0181799Y0185372D01*
X0181549Y0185122D01*
X0181799Y0184649D02*
X0180298Y0184649D01*
X0180548Y0185122D02*
X0180798Y0185122D01*
X0181049Y0185372D01*
X0181049Y0185872D01*
X0181299Y0186122D01*
X0180548Y0186122D02*
X0180298Y0185872D01*
X0180298Y0185372D01*
X0180548Y0185122D01*
X0181799Y0184649D02*
X0180298Y0183648D01*
X0181799Y0183648D01*
X0181799Y0183176D02*
X0181799Y0182175D01*
X0180298Y0182175D01*
X0180298Y0183176D01*
X0181049Y0182675D02*
X0181049Y0182175D01*
X0181299Y0181703D02*
X0181549Y0181703D01*
X0181799Y0181452D01*
X0181799Y0180952D01*
X0181549Y0180702D01*
X0181799Y0180229D02*
X0181299Y0179729D01*
X0181299Y0179979D02*
X0181299Y0179229D01*
X0181799Y0179229D02*
X0180298Y0179229D01*
X0180298Y0179979D01*
X0180548Y0180229D01*
X0181049Y0180229D01*
X0181299Y0179979D01*
X0180798Y0180702D02*
X0181049Y0180952D01*
X0181049Y0181452D01*
X0181299Y0181703D01*
X0180548Y0181703D02*
X0180298Y0181452D01*
X0180298Y0180952D01*
X0180548Y0180702D01*
X0180798Y0180702D01*
X0172999Y0180702D02*
X0171498Y0180702D01*
X0171498Y0181452D01*
X0171748Y0181703D01*
X0172249Y0181703D01*
X0172499Y0181452D01*
X0172499Y0180702D01*
X0172499Y0181202D02*
X0172999Y0181703D01*
X0172749Y0182175D02*
X0172999Y0182425D01*
X0172999Y0182926D01*
X0172749Y0183176D01*
X0172499Y0183176D01*
X0172249Y0182926D01*
X0172249Y0182425D01*
X0171998Y0182175D01*
X0171748Y0182175D01*
X0171498Y0182425D01*
X0171498Y0182926D01*
X0171748Y0183176D01*
X0171498Y0183648D02*
X0172999Y0183648D01*
X0172999Y0184649D01*
X0172999Y0185122D02*
X0171498Y0185122D01*
X0172999Y0186122D01*
X0171498Y0186122D01*
X0171748Y0186595D02*
X0171998Y0186595D01*
X0172249Y0186845D01*
X0172249Y0187345D01*
X0172499Y0187596D01*
X0172749Y0187596D01*
X0172999Y0187345D01*
X0172999Y0186845D01*
X0172749Y0186595D01*
X0171748Y0186595D02*
X0171498Y0186845D01*
X0171498Y0187345D01*
X0171748Y0187596D01*
X0171498Y0188068D02*
X0172999Y0188068D01*
X0172999Y0189069D01*
X0172249Y0188568D02*
X0172249Y0188068D01*
X0171498Y0188068D02*
X0171498Y0189069D01*
X0171498Y0184649D02*
X0171498Y0183648D01*
X0172249Y0183648D02*
X0172249Y0184149D01*
X0164399Y0184649D02*
X0162898Y0184649D01*
X0163148Y0185122D02*
X0163398Y0185122D01*
X0163649Y0185372D01*
X0163649Y0185872D01*
X0163899Y0186122D01*
X0164149Y0186122D01*
X0164399Y0185872D01*
X0164399Y0185372D01*
X0164149Y0185122D01*
X0164399Y0184649D02*
X0162898Y0183648D01*
X0164399Y0183648D01*
X0164399Y0183176D02*
X0164399Y0182175D01*
X0162898Y0182175D01*
X0162898Y0183176D01*
X0163649Y0182675D02*
X0163649Y0182175D01*
X0163899Y0181703D02*
X0164149Y0181703D01*
X0164399Y0181452D01*
X0164399Y0180952D01*
X0164149Y0180702D01*
X0164399Y0180229D02*
X0163899Y0179729D01*
X0163899Y0179979D02*
X0163899Y0179229D01*
X0164399Y0179229D02*
X0162898Y0179229D01*
X0162898Y0179979D01*
X0163148Y0180229D01*
X0163649Y0180229D01*
X0163899Y0179979D01*
X0163398Y0180702D02*
X0163649Y0180952D01*
X0163649Y0181452D01*
X0163899Y0181703D01*
X0163148Y0181703D02*
X0162898Y0181452D01*
X0162898Y0180952D01*
X0163148Y0180702D01*
X0163398Y0180702D01*
X0163148Y0185122D02*
X0162898Y0185372D01*
X0162898Y0185872D01*
X0163148Y0186122D01*
X0162898Y0186595D02*
X0164399Y0186595D01*
X0164399Y0187596D01*
X0164399Y0188068D02*
X0163398Y0189069D01*
X0163148Y0189069D01*
X0162898Y0188819D01*
X0162898Y0188318D01*
X0163148Y0188068D01*
X0162898Y0187596D02*
X0162898Y0186595D01*
X0163649Y0186595D02*
X0163649Y0187095D01*
X0164399Y0188068D02*
X0164399Y0189069D01*
X0152951Y0148343D02*
X0152951Y0146841D01*
X0152451Y0146841D02*
X0153452Y0146841D01*
X0152451Y0147842D02*
X0152951Y0148343D01*
X0151978Y0148092D02*
X0151978Y0147092D01*
X0151728Y0146841D01*
X0151228Y0146841D01*
X0150977Y0147092D01*
X0150977Y0148092D01*
X0151228Y0148343D01*
X0151728Y0148343D01*
X0151978Y0148092D01*
X0151478Y0147342D02*
X0151978Y0146841D01*
X0151367Y0144835D02*
X0151367Y0143834D01*
X0152869Y0143834D01*
X0152869Y0144835D01*
X0152118Y0144335D02*
X0152118Y0143834D01*
X0151367Y0143362D02*
X0151367Y0142361D01*
X0151367Y0142862D02*
X0152869Y0142862D01*
X0152869Y0141889D02*
X0151868Y0141889D01*
X0151367Y0141388D01*
X0151868Y0140888D01*
X0152869Y0140888D01*
X0152618Y0140415D02*
X0152118Y0140415D01*
X0152118Y0139915D01*
X0152618Y0139415D02*
X0152869Y0139665D01*
X0152869Y0140165D01*
X0152618Y0140415D01*
X0152118Y0140888D02*
X0152118Y0141889D01*
X0151617Y0140415D02*
X0151367Y0140165D01*
X0151367Y0139665D01*
X0151617Y0139415D01*
X0152618Y0139415D01*
X0152869Y0138942D02*
X0152368Y0138442D01*
X0152368Y0138692D02*
X0152368Y0137941D01*
X0152869Y0137941D02*
X0151367Y0137941D01*
X0151367Y0138692D01*
X0151617Y0138942D01*
X0152118Y0138942D01*
X0152368Y0138692D01*
X0152187Y0118152D02*
X0152437Y0117901D01*
X0152437Y0117401D01*
X0152187Y0117151D01*
X0152437Y0116678D02*
X0152437Y0115678D01*
X0152437Y0116178D02*
X0150936Y0116178D01*
X0151436Y0115678D01*
X0151186Y0115205D02*
X0150936Y0114955D01*
X0150936Y0114455D01*
X0151186Y0114204D01*
X0152187Y0114204D01*
X0152437Y0114455D01*
X0152437Y0114955D01*
X0152187Y0115205D01*
X0151186Y0117151D02*
X0150936Y0117401D01*
X0150936Y0117901D01*
X0151186Y0118152D01*
X0151436Y0118152D01*
X0151686Y0117901D01*
X0151937Y0118152D01*
X0152187Y0118152D01*
X0151686Y0117901D02*
X0151686Y0117651D01*
X0147184Y0111100D02*
X0147184Y0109598D01*
X0146684Y0109598D02*
X0147685Y0109598D01*
X0146684Y0110599D02*
X0147184Y0111100D01*
X0146202Y0111100D02*
X0145702Y0111100D01*
X0145952Y0111100D02*
X0145952Y0109598D01*
X0145702Y0109598D02*
X0146202Y0109598D01*
X0145229Y0110349D02*
X0144979Y0110099D01*
X0144228Y0110099D01*
X0144228Y0109598D02*
X0144228Y0111100D01*
X0144979Y0111100D01*
X0145229Y0110849D01*
X0145229Y0110349D01*
X0143756Y0110349D02*
X0143506Y0110099D01*
X0142755Y0110099D01*
X0143256Y0110099D02*
X0143756Y0109598D01*
X0143756Y0110349D02*
X0143756Y0110849D01*
X0143506Y0111100D01*
X0142755Y0111100D01*
X0142755Y0109598D01*
X0131177Y0114455D02*
X0131177Y0114955D01*
X0130927Y0115205D01*
X0131177Y0115678D02*
X0131177Y0116678D01*
X0131177Y0117151D02*
X0131177Y0118152D01*
X0131177Y0117651D02*
X0129676Y0117651D01*
X0130176Y0117151D01*
X0129676Y0116178D02*
X0131177Y0116178D01*
X0130176Y0115678D02*
X0129676Y0116178D01*
X0129926Y0115205D02*
X0129676Y0114955D01*
X0129676Y0114455D01*
X0129926Y0114204D01*
X0130927Y0114204D01*
X0131177Y0114455D01*
X0122211Y0094541D02*
X0116318Y0094541D01*
X0116368Y0094342D02*
X0117119Y0094342D01*
X0117369Y0094092D01*
X0117369Y0093091D01*
X0117119Y0092841D01*
X0116368Y0092841D01*
X0116368Y0094342D01*
X0115896Y0094092D02*
X0115645Y0094342D01*
X0114895Y0094342D01*
X0114895Y0092841D01*
X0115645Y0092841D01*
X0115896Y0093091D01*
X0115896Y0094092D01*
X0114422Y0094342D02*
X0113421Y0094342D01*
X0113421Y0092841D01*
X0114422Y0092841D01*
X0113922Y0093591D02*
X0113421Y0093591D01*
X0112949Y0092841D02*
X0111948Y0092841D01*
X0111948Y0094342D01*
X0117841Y0094092D02*
X0117841Y0093091D01*
X0118091Y0092841D01*
X0118592Y0092841D01*
X0118842Y0093091D01*
X0118842Y0094092D01*
X0118592Y0094342D01*
X0118091Y0094342D01*
X0117841Y0094092D01*
X0119314Y0094342D02*
X0120315Y0092841D01*
X0120315Y0094342D01*
X0120788Y0094342D02*
X0120788Y0092841D01*
X0121789Y0092841D01*
X0121288Y0093591D02*
X0120788Y0093591D01*
X0120788Y0094342D02*
X0121789Y0094342D01*
X0119314Y0094342D02*
X0119314Y0092841D01*
X0103449Y0095265D02*
X0103449Y0096266D01*
X0103199Y0096516D01*
X0102448Y0096516D01*
X0102448Y0095015D01*
X0103199Y0095015D01*
X0103449Y0095265D01*
X0101976Y0095015D02*
X0100975Y0095015D01*
X0100975Y0096516D01*
X0101976Y0096516D01*
X0101476Y0095766D02*
X0100975Y0095766D01*
X0100503Y0095015D02*
X0099502Y0095015D01*
X0099502Y0096516D01*
X0099029Y0096266D02*
X0099029Y0095766D01*
X0098779Y0095515D01*
X0098029Y0095515D01*
X0098529Y0095515D02*
X0099029Y0095015D01*
X0098029Y0095015D02*
X0098029Y0096516D01*
X0098779Y0096516D01*
X0099029Y0096266D01*
X0088702Y0114311D02*
X0087701Y0114311D01*
X0088702Y0115312D01*
X0088702Y0115562D01*
X0088452Y0115812D01*
X0087952Y0115812D01*
X0087701Y0115562D01*
X0087229Y0115562D02*
X0086979Y0115812D01*
X0086478Y0115812D01*
X0086228Y0115562D01*
X0086228Y0114561D01*
X0086478Y0114311D01*
X0086979Y0114311D01*
X0087229Y0114561D01*
X0085756Y0114561D02*
X0085505Y0114311D01*
X0085005Y0114311D01*
X0084755Y0114561D01*
X0084755Y0115562D01*
X0085005Y0115812D01*
X0085505Y0115812D01*
X0085756Y0115562D01*
X0084282Y0115812D02*
X0084282Y0114811D01*
X0083782Y0114311D01*
X0083282Y0114811D01*
X0083282Y0115812D01*
X0082809Y0114061D02*
X0081808Y0114061D01*
X0081336Y0114561D02*
X0081086Y0114311D01*
X0080585Y0114311D01*
X0080335Y0114561D01*
X0080335Y0115562D01*
X0080585Y0115812D01*
X0081086Y0115812D01*
X0081336Y0115562D01*
X0079151Y0117969D02*
X0078150Y0117969D01*
X0078150Y0119471D01*
X0079151Y0119471D01*
X0079573Y0119669D02*
X0073680Y0119669D01*
X0073730Y0119471D02*
X0074481Y0119471D01*
X0074731Y0119220D01*
X0074731Y0118220D01*
X0074481Y0117969D01*
X0073730Y0117969D01*
X0073730Y0119471D01*
X0073258Y0119220D02*
X0073258Y0118720D01*
X0073008Y0118470D01*
X0072257Y0118470D01*
X0072757Y0118470D02*
X0073258Y0117969D01*
X0072257Y0117969D02*
X0072257Y0119471D01*
X0073008Y0119471D01*
X0073258Y0119220D01*
X0075203Y0119220D02*
X0075203Y0118220D01*
X0075454Y0117969D01*
X0075954Y0117969D01*
X0076204Y0118220D01*
X0076204Y0119220D01*
X0075954Y0119471D01*
X0075454Y0119471D01*
X0075203Y0119220D01*
X0076677Y0119471D02*
X0077678Y0117969D01*
X0077678Y0119471D01*
X0078150Y0118720D02*
X0078650Y0118720D01*
X0076677Y0117969D02*
X0076677Y0119471D01*
X0086911Y0134700D02*
X0087412Y0134700D01*
X0087662Y0134950D01*
X0088134Y0134450D02*
X0089135Y0134450D01*
X0090108Y0134700D02*
X0090108Y0136201D01*
X0089608Y0136201D02*
X0090608Y0136201D01*
X0091081Y0136201D02*
X0091831Y0136201D01*
X0092082Y0135951D01*
X0092082Y0135451D01*
X0091831Y0135200D01*
X0091081Y0135200D01*
X0091081Y0134700D02*
X0091081Y0136201D01*
X0091581Y0135200D02*
X0092082Y0134700D01*
X0092554Y0134700D02*
X0092554Y0135701D01*
X0093054Y0136201D01*
X0093555Y0135701D01*
X0093555Y0134700D01*
X0094027Y0134700D02*
X0094027Y0136201D01*
X0095028Y0134700D01*
X0095028Y0136201D01*
X0095501Y0135951D02*
X0095501Y0135701D01*
X0095751Y0135451D01*
X0096251Y0135451D01*
X0096501Y0135200D01*
X0096501Y0134950D01*
X0096251Y0134700D01*
X0095751Y0134700D01*
X0095501Y0134950D01*
X0095501Y0135951D02*
X0095751Y0136201D01*
X0096251Y0136201D01*
X0096501Y0135951D01*
X0097756Y0135269D02*
X0097756Y0134268D01*
X0098006Y0134018D01*
X0098507Y0134018D01*
X0098757Y0134268D01*
X0098944Y0134612D02*
X0098443Y0135112D01*
X0098694Y0135112D02*
X0097943Y0135112D01*
X0097756Y0135269D02*
X0098006Y0135519D01*
X0098507Y0135519D01*
X0098757Y0135269D01*
X0098694Y0135112D02*
X0098944Y0135362D01*
X0098944Y0135863D01*
X0098694Y0136113D01*
X0097943Y0136113D01*
X0097943Y0134612D01*
X0099416Y0134612D02*
X0100167Y0134612D01*
X0100417Y0134862D01*
X0100417Y0135112D01*
X0100167Y0135362D01*
X0099416Y0135362D01*
X0099416Y0134612D02*
X0099416Y0136113D01*
X0100167Y0136113D01*
X0100417Y0135863D01*
X0100417Y0135613D01*
X0100167Y0135362D01*
X0100703Y0135519D02*
X0101453Y0135519D01*
X0101704Y0135269D01*
X0101704Y0135019D01*
X0101453Y0134769D01*
X0100703Y0134769D01*
X0100889Y0134862D02*
X0101140Y0134612D01*
X0101640Y0134612D01*
X0101890Y0134862D01*
X0101890Y0135362D01*
X0101390Y0135362D01*
X0101453Y0134769D02*
X0101704Y0134519D01*
X0101704Y0134268D01*
X0101453Y0134018D01*
X0100703Y0134018D01*
X0100703Y0135519D01*
X0100889Y0135863D02*
X0100889Y0134862D01*
X0100889Y0135863D02*
X0101140Y0136113D01*
X0101640Y0136113D01*
X0101890Y0135863D01*
X0102426Y0135519D02*
X0102176Y0135269D01*
X0102176Y0134268D01*
X0102426Y0134018D01*
X0102927Y0134018D01*
X0103177Y0134268D01*
X0103177Y0134769D01*
X0102676Y0134769D01*
X0103177Y0135269D02*
X0102927Y0135519D01*
X0102426Y0135519D01*
X0100230Y0133768D02*
X0099229Y0133768D01*
X0093555Y0135451D02*
X0092554Y0135451D01*
X0087662Y0135951D02*
X0087412Y0136201D01*
X0086911Y0136201D01*
X0086661Y0135951D01*
X0086661Y0134950D01*
X0086911Y0134700D01*
X0111062Y0138141D02*
X0111062Y0138892D01*
X0111312Y0139142D01*
X0111812Y0139142D01*
X0112063Y0138892D01*
X0112063Y0138141D01*
X0112563Y0138141D02*
X0111062Y0138141D01*
X0112063Y0138642D02*
X0112563Y0139142D01*
X0112063Y0139615D02*
X0112563Y0140115D01*
X0112063Y0140615D01*
X0111062Y0140615D01*
X0111312Y0141088D02*
X0112313Y0141088D01*
X0112563Y0141338D01*
X0112563Y0141838D01*
X0112313Y0142089D01*
X0111312Y0142089D01*
X0111062Y0141838D01*
X0111062Y0141338D01*
X0111312Y0141088D01*
X0111062Y0142561D02*
X0112313Y0142561D01*
X0112563Y0142811D01*
X0112563Y0143312D01*
X0112313Y0143562D01*
X0111062Y0143562D01*
X0111062Y0144034D02*
X0111062Y0145035D01*
X0111062Y0144535D02*
X0112563Y0144535D01*
X0112063Y0139615D02*
X0111062Y0139615D01*
X0118712Y0139615D02*
X0118712Y0140365D01*
X0118962Y0140615D01*
X0119963Y0140615D01*
X0120213Y0140365D01*
X0120213Y0139615D01*
X0118712Y0139615D01*
X0118962Y0139142D02*
X0119463Y0139142D01*
X0119713Y0138892D01*
X0119713Y0138141D01*
X0120213Y0138141D02*
X0118712Y0138141D01*
X0118712Y0138892D01*
X0118962Y0139142D01*
X0119713Y0138642D02*
X0120213Y0139142D01*
X0119963Y0141088D02*
X0120213Y0141338D01*
X0120213Y0141838D01*
X0119963Y0142089D01*
X0120213Y0142561D02*
X0118712Y0142561D01*
X0119213Y0143062D01*
X0118712Y0143562D01*
X0120213Y0143562D01*
X0118962Y0142089D02*
X0118712Y0141838D01*
X0118712Y0141338D01*
X0118962Y0141088D01*
X0119963Y0141088D01*
X0072211Y0070671D02*
X0071460Y0069920D01*
X0072461Y0069920D01*
X0072211Y0069169D02*
X0072211Y0070671D01*
X0070988Y0070420D02*
X0070988Y0069920D01*
X0070738Y0069670D01*
X0069987Y0069670D01*
X0070487Y0069670D02*
X0070988Y0069169D01*
X0069987Y0069169D02*
X0069987Y0070671D01*
X0070738Y0070671D01*
X0070988Y0070420D01*
X0071665Y0061970D02*
X0071665Y0059968D01*
X0071915Y0060218D02*
X0072165Y0060468D01*
X0072165Y0060719D01*
X0071915Y0060969D01*
X0071414Y0060969D01*
X0071164Y0061219D01*
X0071164Y0061469D01*
X0071414Y0061719D01*
X0071915Y0061719D01*
X0072165Y0061469D01*
X0072637Y0060969D02*
X0073638Y0060969D01*
X0073388Y0061719D02*
X0072637Y0060969D01*
X0071915Y0060218D02*
X0071414Y0060218D01*
X0071164Y0060468D01*
X0070692Y0060468D02*
X0070692Y0061719D01*
X0069691Y0061719D02*
X0069691Y0060468D01*
X0069941Y0060218D01*
X0070442Y0060218D01*
X0070692Y0060468D01*
X0073388Y0060218D02*
X0073388Y0061719D01*
X0072213Y0055601D02*
X0072213Y0053599D01*
X0072463Y0053849D02*
X0072713Y0054099D01*
X0072713Y0054350D01*
X0072463Y0054600D01*
X0071962Y0054600D01*
X0071712Y0054850D01*
X0071712Y0055100D01*
X0071962Y0055350D01*
X0072463Y0055350D01*
X0072713Y0055100D01*
X0073185Y0055100D02*
X0073185Y0054850D01*
X0073436Y0054600D01*
X0073936Y0054600D01*
X0074186Y0054350D01*
X0074186Y0054099D01*
X0073936Y0053849D01*
X0073436Y0053849D01*
X0073185Y0054099D01*
X0073185Y0054350D01*
X0073436Y0054600D01*
X0073936Y0054600D02*
X0074186Y0054850D01*
X0074186Y0055100D01*
X0073936Y0055350D01*
X0073436Y0055350D01*
X0073185Y0055100D01*
X0072463Y0053849D02*
X0071962Y0053849D01*
X0071712Y0054099D01*
X0071240Y0054099D02*
X0071240Y0055350D01*
X0070239Y0055350D02*
X0070239Y0054099D01*
X0070489Y0053849D01*
X0070990Y0053849D01*
X0071240Y0054099D01*
X0071190Y0046227D02*
X0071190Y0044225D01*
X0071440Y0044475D02*
X0071690Y0044725D01*
X0071690Y0044976D01*
X0071440Y0045226D01*
X0070940Y0045226D01*
X0070689Y0045476D01*
X0070689Y0045726D01*
X0070940Y0045976D01*
X0071440Y0045976D01*
X0071690Y0045726D01*
X0072163Y0045976D02*
X0073163Y0045976D01*
X0073163Y0045726D01*
X0072163Y0044725D01*
X0072163Y0044475D01*
X0071440Y0044475D02*
X0070940Y0044475D01*
X0070689Y0044725D01*
X0070217Y0044725D02*
X0070217Y0045976D01*
X0069216Y0045976D02*
X0069216Y0044725D01*
X0069466Y0044475D01*
X0069967Y0044475D01*
X0070217Y0044725D01*
X0074680Y0031600D02*
X0074429Y0031350D01*
X0074429Y0030349D01*
X0074680Y0030099D01*
X0075180Y0030099D01*
X0075430Y0030349D01*
X0075903Y0030349D02*
X0076153Y0030099D01*
X0076653Y0030099D01*
X0076904Y0030349D01*
X0076904Y0031350D01*
X0076653Y0031600D01*
X0076153Y0031600D01*
X0075903Y0031350D01*
X0075903Y0031100D01*
X0076153Y0030850D01*
X0076904Y0030850D01*
X0075430Y0031350D02*
X0075180Y0031600D01*
X0074680Y0031600D01*
X0086491Y0061069D02*
X0086991Y0061069D01*
X0087241Y0061320D01*
X0087714Y0061320D02*
X0087714Y0061570D01*
X0087964Y0061820D01*
X0088464Y0061820D01*
X0088715Y0061570D01*
X0088715Y0061320D01*
X0088464Y0061069D01*
X0087964Y0061069D01*
X0087714Y0061320D01*
X0087964Y0061820D02*
X0087714Y0062070D01*
X0087714Y0062320D01*
X0087964Y0062571D01*
X0088464Y0062571D01*
X0088715Y0062320D01*
X0088715Y0062070D01*
X0088464Y0061820D01*
X0087241Y0062320D02*
X0086991Y0062571D01*
X0086491Y0062571D01*
X0086240Y0062320D01*
X0086240Y0061320D01*
X0086491Y0061069D01*
X0109823Y0060033D02*
X0110574Y0059282D01*
X0110574Y0060283D01*
X0111324Y0060033D02*
X0109823Y0060033D01*
X0110073Y0058810D02*
X0109823Y0058560D01*
X0109823Y0058059D01*
X0110073Y0057809D01*
X0111074Y0057809D01*
X0111324Y0058059D01*
X0111324Y0058560D01*
X0111074Y0058810D01*
X0136201Y0058560D02*
X0136201Y0058059D01*
X0136451Y0057809D01*
X0137452Y0057809D01*
X0137702Y0058059D01*
X0137702Y0058560D01*
X0137452Y0058810D01*
X0137452Y0059282D02*
X0137702Y0059532D01*
X0137702Y0060033D01*
X0137452Y0060283D01*
X0137202Y0060283D01*
X0136952Y0060033D01*
X0136952Y0059783D01*
X0136952Y0060033D02*
X0136702Y0060283D01*
X0136451Y0060283D01*
X0136201Y0060033D01*
X0136201Y0059532D01*
X0136451Y0059282D01*
X0136451Y0058810D02*
X0136201Y0058560D01*
X0135863Y0047766D02*
X0135613Y0047766D01*
X0135363Y0047516D01*
X0135363Y0047015D01*
X0135613Y0046765D01*
X0135363Y0045792D02*
X0136864Y0045792D01*
X0136864Y0045292D02*
X0136864Y0046293D01*
X0136864Y0046765D02*
X0135863Y0047766D01*
X0136864Y0047766D02*
X0136864Y0046765D01*
X0135863Y0045292D02*
X0135363Y0045792D01*
X0135613Y0044819D02*
X0135363Y0044569D01*
X0135363Y0044069D01*
X0135613Y0043819D01*
X0136614Y0043819D01*
X0136864Y0044069D01*
X0136864Y0044569D01*
X0136614Y0044819D01*
X0154867Y0039226D02*
X0155367Y0039226D01*
X0155117Y0039226D02*
X0155117Y0037724D01*
X0154867Y0037724D02*
X0155367Y0037724D01*
X0155849Y0037975D02*
X0156099Y0037724D01*
X0156599Y0037724D01*
X0156850Y0037975D01*
X0156850Y0038225D01*
X0156599Y0038475D01*
X0156099Y0038475D01*
X0155849Y0038725D01*
X0155849Y0038975D01*
X0156099Y0039226D01*
X0156599Y0039226D01*
X0156850Y0038975D01*
X0157322Y0038975D02*
X0157322Y0037975D01*
X0157572Y0037724D01*
X0158073Y0037724D01*
X0158323Y0037975D01*
X0158323Y0038975D01*
X0158073Y0039226D01*
X0157572Y0039226D01*
X0157322Y0038975D01*
X0158795Y0037474D02*
X0159796Y0037474D01*
X0160269Y0037724D02*
X0160769Y0037724D01*
X0160519Y0037724D02*
X0160519Y0039226D01*
X0160269Y0039226D02*
X0160769Y0039226D01*
X0161251Y0039226D02*
X0162252Y0037724D01*
X0162252Y0039226D01*
X0161251Y0039226D02*
X0161251Y0037724D01*
X0164170Y0050934D02*
X0164170Y0051434D01*
X0164170Y0051184D02*
X0165671Y0051184D01*
X0165671Y0050934D02*
X0165671Y0051434D01*
X0165421Y0051916D02*
X0165671Y0052166D01*
X0165671Y0052667D01*
X0165421Y0052917D01*
X0165170Y0052917D01*
X0164920Y0052667D01*
X0164920Y0052166D01*
X0164670Y0051916D01*
X0164420Y0051916D01*
X0164170Y0052166D01*
X0164170Y0052667D01*
X0164420Y0052917D01*
X0164420Y0053389D02*
X0165421Y0053389D01*
X0165671Y0053639D01*
X0165671Y0054140D01*
X0165421Y0054390D01*
X0164420Y0054390D01*
X0164170Y0054140D01*
X0164170Y0053639D01*
X0164420Y0053389D01*
X0165921Y0054862D02*
X0165921Y0055863D01*
X0165421Y0056336D02*
X0165671Y0056586D01*
X0165671Y0057086D01*
X0165421Y0057337D01*
X0164420Y0057337D01*
X0164170Y0057086D01*
X0164170Y0056586D01*
X0164420Y0056336D01*
X0165421Y0056336D01*
X0165421Y0057809D02*
X0165671Y0058059D01*
X0165671Y0058560D01*
X0165421Y0058810D01*
X0164170Y0058810D01*
X0164170Y0059282D02*
X0164170Y0060283D01*
X0164170Y0059783D02*
X0165671Y0059783D01*
X0165421Y0057809D02*
X0164170Y0057809D01*
X0166589Y0067472D02*
X0166589Y0068974D01*
X0167589Y0068974D01*
X0168062Y0068974D02*
X0168562Y0068974D01*
X0168312Y0068974D02*
X0168312Y0067472D01*
X0168062Y0067472D02*
X0168562Y0067472D01*
X0169044Y0067472D02*
X0169044Y0068974D01*
X0169795Y0068974D01*
X0170045Y0068723D01*
X0170045Y0068223D01*
X0169795Y0067973D01*
X0169044Y0067973D01*
X0169544Y0067973D02*
X0170045Y0067472D01*
X0170517Y0067472D02*
X0171518Y0067472D01*
X0171991Y0067222D02*
X0172991Y0067222D01*
X0173464Y0067472D02*
X0173464Y0068974D01*
X0174465Y0068974D01*
X0174937Y0068974D02*
X0175437Y0068974D01*
X0175187Y0068974D02*
X0175187Y0067472D01*
X0174937Y0067472D02*
X0175437Y0067472D01*
X0175919Y0067472D02*
X0176920Y0067472D01*
X0177893Y0067472D02*
X0177893Y0068974D01*
X0178393Y0068974D02*
X0177392Y0068974D01*
X0175919Y0068974D02*
X0175919Y0067472D01*
X0173964Y0068223D02*
X0173464Y0068223D01*
X0171518Y0068974D02*
X0170517Y0068974D01*
X0170517Y0067472D01*
X0170517Y0068223D02*
X0171018Y0068223D01*
X0167089Y0068223D02*
X0166589Y0068223D01*
X0198589Y0068197D02*
X0200089Y0068197D01*
X0200089Y0068295D02*
X0198589Y0068295D01*
X0198589Y0068394D02*
X0200089Y0068394D01*
X0200089Y0068492D02*
X0198589Y0068492D01*
X0198589Y0068581D02*
X0198589Y0067581D01*
X0200089Y0067581D01*
X0200089Y0068581D01*
X0198589Y0068581D01*
X0198589Y0068098D02*
X0200089Y0068098D01*
X0200089Y0068000D02*
X0198589Y0068000D01*
X0198589Y0067901D02*
X0200089Y0067901D01*
X0200089Y0067803D02*
X0198589Y0067803D01*
X0198589Y0067704D02*
X0200089Y0067704D01*
X0200089Y0067606D02*
X0198589Y0067606D01*
X0220871Y0104604D02*
X0221872Y0104604D01*
X0222122Y0104855D01*
X0222122Y0105355D01*
X0221872Y0105605D01*
X0222122Y0106078D02*
X0222122Y0107078D01*
X0222122Y0106578D02*
X0220621Y0106578D01*
X0221121Y0106078D01*
X0220871Y0105605D02*
X0220621Y0105355D01*
X0220621Y0104855D01*
X0220871Y0104604D01*
X0220621Y0107551D02*
X0221371Y0107551D01*
X0221121Y0108051D01*
X0221121Y0108301D01*
X0221371Y0108552D01*
X0221872Y0108552D01*
X0222122Y0108301D01*
X0222122Y0107801D01*
X0221872Y0107551D01*
X0220621Y0107551D02*
X0220621Y0108552D01*
X0220871Y0109024D02*
X0221121Y0109024D01*
X0221371Y0109274D01*
X0221371Y0110025D01*
X0220871Y0110025D02*
X0220621Y0109775D01*
X0220621Y0109274D01*
X0220871Y0109024D01*
X0221872Y0109024D02*
X0222122Y0109274D01*
X0222122Y0109775D01*
X0221872Y0110025D01*
X0220871Y0110025D01*
X0224558Y0106836D02*
X0224558Y0105835D01*
X0225308Y0105835D01*
X0225058Y0106335D01*
X0225058Y0106586D01*
X0225308Y0106836D01*
X0225809Y0106836D01*
X0226059Y0106586D01*
X0226059Y0106085D01*
X0225809Y0105835D01*
X0225809Y0105363D02*
X0226059Y0105112D01*
X0226059Y0104612D01*
X0225809Y0104362D01*
X0224808Y0104362D01*
X0224558Y0104612D01*
X0224558Y0105112D01*
X0224808Y0105363D01*
X0223135Y0119539D02*
X0221634Y0119539D01*
X0221634Y0120540D01*
X0221634Y0121013D02*
X0223135Y0121013D01*
X0223135Y0122013D01*
X0223135Y0122486D02*
X0221634Y0122486D01*
X0221634Y0123236D01*
X0221884Y0123487D01*
X0222385Y0123487D01*
X0222635Y0123236D01*
X0222635Y0122486D01*
X0222635Y0122986D02*
X0223135Y0123487D01*
X0223135Y0123959D02*
X0221634Y0123959D01*
X0221634Y0124710D01*
X0221884Y0124960D01*
X0222385Y0124960D01*
X0222635Y0124710D01*
X0222635Y0123959D01*
X0222635Y0124459D02*
X0223135Y0124960D01*
X0223135Y0125432D02*
X0223135Y0125933D01*
X0223135Y0125682D02*
X0221634Y0125682D01*
X0221634Y0125432D02*
X0221634Y0125933D01*
X0221634Y0126414D02*
X0221634Y0127415D01*
X0221634Y0127888D02*
X0223135Y0127888D01*
X0223135Y0128889D01*
X0223135Y0129361D02*
X0223135Y0130362D01*
X0223135Y0129861D02*
X0221634Y0129861D01*
X0222135Y0129361D01*
X0221634Y0128889D02*
X0221634Y0127888D01*
X0222385Y0127888D02*
X0222385Y0128388D01*
X0223135Y0126915D02*
X0221634Y0126915D01*
X0221634Y0122013D02*
X0221634Y0121013D01*
X0222385Y0121013D02*
X0222385Y0121513D01*
X0222385Y0120040D02*
X0222385Y0119539D01*
X0228777Y0119297D02*
X0229027Y0119047D01*
X0229527Y0119047D01*
X0229778Y0119297D01*
X0230250Y0119047D02*
X0231251Y0119047D01*
X0230750Y0119047D02*
X0230750Y0120549D01*
X0230250Y0120048D01*
X0229778Y0120298D02*
X0229527Y0120549D01*
X0229027Y0120549D01*
X0228777Y0120298D01*
X0228777Y0119297D01*
X0231723Y0119297D02*
X0231973Y0119047D01*
X0232474Y0119047D01*
X0232724Y0119297D01*
X0232724Y0119798D01*
X0232474Y0120048D01*
X0232224Y0120048D01*
X0231723Y0119798D01*
X0231723Y0120549D01*
X0232724Y0120549D01*
X0232474Y0129283D02*
X0232474Y0130785D01*
X0231723Y0130034D01*
X0232724Y0130034D01*
X0231251Y0129283D02*
X0230250Y0129283D01*
X0230750Y0129283D02*
X0230750Y0130785D01*
X0230250Y0130284D01*
X0229778Y0130535D02*
X0229527Y0130785D01*
X0229027Y0130785D01*
X0228777Y0130535D01*
X0228777Y0129534D01*
X0229027Y0129283D01*
X0229527Y0129283D01*
X0229778Y0129534D01*
X0269021Y0067643D02*
X0269021Y0060276D01*
X0269220Y0060326D02*
X0269220Y0061077D01*
X0269470Y0061327D01*
X0270471Y0061327D01*
X0270721Y0061077D01*
X0270721Y0060326D01*
X0269220Y0060326D01*
X0269470Y0059854D02*
X0269220Y0059604D01*
X0269220Y0058853D01*
X0270721Y0058853D01*
X0270721Y0059604D01*
X0270471Y0059854D01*
X0269470Y0059854D01*
X0269220Y0058381D02*
X0269220Y0057380D01*
X0270721Y0057380D01*
X0270721Y0058381D01*
X0269970Y0057880D02*
X0269970Y0057380D01*
X0270721Y0056907D02*
X0270721Y0055906D01*
X0269220Y0055906D01*
X0269470Y0061799D02*
X0269220Y0062050D01*
X0269220Y0062550D01*
X0269470Y0062800D01*
X0270471Y0062800D01*
X0270721Y0062550D01*
X0270721Y0062050D01*
X0270471Y0061799D01*
X0269470Y0061799D01*
X0269220Y0063273D02*
X0270721Y0064274D01*
X0269220Y0064274D01*
X0269220Y0064746D02*
X0270721Y0064746D01*
X0270721Y0065747D01*
X0270721Y0066219D02*
X0270721Y0067220D01*
X0270721Y0066720D02*
X0269220Y0066720D01*
X0269720Y0066219D01*
X0269220Y0065747D02*
X0269220Y0064746D01*
X0269970Y0064746D02*
X0269970Y0065246D01*
X0269220Y0063273D02*
X0270721Y0063273D01*
X0274927Y0058852D02*
X0274677Y0058601D01*
X0274677Y0057601D01*
X0274927Y0057350D01*
X0275427Y0057350D01*
X0275677Y0057601D01*
X0276150Y0057100D02*
X0277151Y0057100D01*
X0277623Y0057851D02*
X0278124Y0057350D01*
X0278624Y0057851D01*
X0278624Y0058852D01*
X0279096Y0058601D02*
X0279096Y0057601D01*
X0279347Y0057350D01*
X0279847Y0057350D01*
X0280097Y0057601D01*
X0280570Y0057601D02*
X0280820Y0057350D01*
X0281320Y0057350D01*
X0281570Y0057601D01*
X0282043Y0057350D02*
X0283044Y0057350D01*
X0282543Y0057350D02*
X0282543Y0058852D01*
X0282043Y0058351D01*
X0281570Y0058601D02*
X0281320Y0058852D01*
X0280820Y0058852D01*
X0280570Y0058601D01*
X0280570Y0057601D01*
X0280097Y0058601D02*
X0279847Y0058852D01*
X0279347Y0058852D01*
X0279096Y0058601D01*
X0277623Y0058852D02*
X0277623Y0057851D01*
X0275677Y0058601D02*
X0275427Y0058852D01*
X0274927Y0058852D01*
X0279026Y0051443D02*
X0280528Y0051443D01*
X0280528Y0050943D02*
X0280528Y0051944D01*
X0279527Y0050943D02*
X0279026Y0051443D01*
X0279277Y0050470D02*
X0279026Y0050220D01*
X0279026Y0049470D01*
X0280528Y0049470D01*
X0280528Y0050220D01*
X0280277Y0050470D01*
X0279277Y0050470D01*
X0279026Y0048997D02*
X0279026Y0047996D01*
X0280528Y0047996D01*
X0280528Y0048997D01*
X0279777Y0048497D02*
X0279777Y0047996D01*
X0280528Y0047524D02*
X0280528Y0046523D01*
X0279026Y0046523D01*
X0279277Y0046051D02*
X0279777Y0046051D01*
X0280027Y0045800D01*
X0280027Y0045050D01*
X0280027Y0045550D02*
X0280528Y0046051D01*
X0280528Y0045050D02*
X0279026Y0045050D01*
X0279026Y0045800D01*
X0279277Y0046051D01*
X0286008Y0045039D02*
X0286008Y0052405D01*
X0286207Y0051483D02*
X0287708Y0051483D01*
X0287708Y0051983D02*
X0287708Y0050982D01*
X0287708Y0050510D02*
X0287708Y0049509D01*
X0286207Y0049509D01*
X0286207Y0050510D01*
X0286707Y0050982D02*
X0286207Y0051483D01*
X0286957Y0050009D02*
X0286957Y0049509D01*
X0286207Y0049037D02*
X0287708Y0049037D01*
X0286207Y0048036D01*
X0287708Y0048036D01*
X0287458Y0047563D02*
X0286457Y0047563D01*
X0286207Y0047313D01*
X0286207Y0046813D01*
X0286457Y0046562D01*
X0287458Y0046562D01*
X0287708Y0046813D01*
X0287708Y0047313D01*
X0287458Y0047563D01*
X0287458Y0046090D02*
X0286457Y0046090D01*
X0286207Y0045840D01*
X0286207Y0045089D01*
X0287708Y0045089D01*
X0287708Y0045840D01*
X0287458Y0046090D01*
X0287708Y0044617D02*
X0287207Y0044116D01*
X0287207Y0044367D02*
X0287207Y0043616D01*
X0287708Y0043616D02*
X0286207Y0043616D01*
X0286207Y0044367D01*
X0286457Y0044617D01*
X0286957Y0044617D01*
X0287207Y0044367D01*
X0296997Y0054376D02*
X0297998Y0054376D01*
X0298248Y0054626D01*
X0298248Y0055127D01*
X0297998Y0055377D01*
X0298498Y0055849D02*
X0298498Y0056850D01*
X0298248Y0057823D02*
X0296747Y0057823D01*
X0296747Y0058323D02*
X0296747Y0057322D01*
X0296747Y0058796D02*
X0296747Y0059546D01*
X0296997Y0059797D01*
X0297497Y0059797D01*
X0297748Y0059546D01*
X0297748Y0058796D01*
X0298248Y0058796D02*
X0296747Y0058796D01*
X0297748Y0059296D02*
X0298248Y0059797D01*
X0298248Y0060269D02*
X0297247Y0060269D01*
X0296747Y0060769D01*
X0297247Y0061270D01*
X0298248Y0061270D01*
X0298248Y0061742D02*
X0296747Y0061742D01*
X0298248Y0062743D01*
X0296747Y0062743D01*
X0296997Y0063216D02*
X0297247Y0063216D01*
X0297497Y0063466D01*
X0297497Y0063966D01*
X0297748Y0064216D01*
X0297998Y0064216D01*
X0298248Y0063966D01*
X0298248Y0063466D01*
X0297998Y0063216D01*
X0296997Y0063216D02*
X0296747Y0063466D01*
X0296747Y0063966D01*
X0296997Y0064216D01*
X0297247Y0064689D02*
X0296747Y0065189D01*
X0298248Y0065189D01*
X0298248Y0064689D02*
X0298248Y0065690D01*
X0297497Y0061270D02*
X0297497Y0060269D01*
X0296997Y0055377D02*
X0296747Y0055127D01*
X0296747Y0054626D01*
X0296997Y0054376D01*
X0302382Y0071826D02*
X0302882Y0071826D01*
X0303133Y0072076D01*
X0303398Y0072026D02*
X0303398Y0073527D01*
X0304149Y0073527D01*
X0304399Y0073277D01*
X0304399Y0072777D01*
X0304149Y0072526D01*
X0303398Y0072526D01*
X0303898Y0072526D02*
X0304399Y0072026D01*
X0304871Y0072026D02*
X0305622Y0072026D01*
X0305872Y0072276D01*
X0305872Y0072526D01*
X0305622Y0072777D01*
X0304871Y0072777D01*
X0305078Y0072577D02*
X0305829Y0072577D01*
X0306079Y0072326D01*
X0306079Y0072076D01*
X0305829Y0071826D01*
X0305078Y0071826D01*
X0305078Y0073327D01*
X0305829Y0073327D01*
X0306079Y0073077D01*
X0306079Y0072827D01*
X0305829Y0072577D01*
X0305622Y0072777D02*
X0305872Y0073027D01*
X0305872Y0073277D01*
X0305622Y0073527D01*
X0304871Y0073527D01*
X0304871Y0072026D01*
X0304606Y0071576D02*
X0303605Y0071576D01*
X0302382Y0071826D02*
X0302132Y0072076D01*
X0302132Y0073077D01*
X0302382Y0073327D01*
X0302882Y0073327D01*
X0303133Y0073077D01*
X0306345Y0073277D02*
X0306345Y0072276D01*
X0306595Y0072026D01*
X0307095Y0072026D01*
X0307345Y0072276D01*
X0307345Y0072777D01*
X0306845Y0072777D01*
X0307052Y0072577D02*
X0307552Y0072577D01*
X0307552Y0072076D01*
X0307302Y0071826D01*
X0306802Y0071826D01*
X0306552Y0072076D01*
X0306552Y0073077D01*
X0306802Y0073327D01*
X0307302Y0073327D01*
X0307552Y0073077D01*
X0307818Y0073027D02*
X0308318Y0073527D01*
X0308318Y0072026D01*
X0308525Y0071826D02*
X0308525Y0073327D01*
X0308025Y0072827D01*
X0307345Y0073277D02*
X0307095Y0073527D01*
X0306595Y0073527D01*
X0306345Y0073277D01*
X0307818Y0072026D02*
X0308819Y0072026D01*
X0309026Y0071826D02*
X0308025Y0071826D01*
X0327147Y0064506D02*
X0328648Y0064506D01*
X0328648Y0065006D02*
X0328648Y0064005D01*
X0328648Y0063032D02*
X0327147Y0063032D01*
X0327147Y0062532D02*
X0327147Y0063533D01*
X0327647Y0064005D02*
X0327147Y0064506D01*
X0327147Y0062060D02*
X0328398Y0062060D01*
X0328648Y0061809D01*
X0328648Y0061309D01*
X0328398Y0061059D01*
X0327147Y0061059D01*
X0327397Y0060586D02*
X0327147Y0060336D01*
X0327147Y0059836D01*
X0327397Y0059585D01*
X0328398Y0059585D01*
X0328648Y0059836D01*
X0328648Y0060336D01*
X0328398Y0060586D01*
X0327397Y0060586D01*
X0327147Y0059113D02*
X0328148Y0059113D01*
X0328648Y0058613D01*
X0328148Y0058112D01*
X0327147Y0058112D01*
X0327397Y0057640D02*
X0327897Y0057640D01*
X0328148Y0057390D01*
X0328148Y0056639D01*
X0328648Y0056639D02*
X0327147Y0056639D01*
X0327147Y0057390D01*
X0327397Y0057640D01*
X0328148Y0057139D02*
X0328648Y0057640D01*
X0337947Y0057390D02*
X0338197Y0057640D01*
X0338697Y0057640D01*
X0338948Y0057390D01*
X0338948Y0056639D01*
X0339448Y0056639D02*
X0337947Y0056639D01*
X0337947Y0057390D01*
X0337947Y0058112D02*
X0337947Y0058863D01*
X0338197Y0059113D01*
X0339198Y0059113D01*
X0339448Y0058863D01*
X0339448Y0058112D01*
X0337947Y0058112D01*
X0338948Y0057139D02*
X0339448Y0057640D01*
X0339198Y0059585D02*
X0339448Y0059836D01*
X0339448Y0060336D01*
X0339198Y0060586D01*
X0339448Y0061059D02*
X0337947Y0061059D01*
X0338447Y0061559D01*
X0337947Y0062060D01*
X0339448Y0062060D01*
X0339448Y0062532D02*
X0339448Y0063533D01*
X0339448Y0063032D02*
X0337947Y0063032D01*
X0338447Y0062532D01*
X0338197Y0060586D02*
X0337947Y0060336D01*
X0337947Y0059836D01*
X0338197Y0059585D01*
X0339198Y0059585D01*
X0356826Y0064389D02*
X0357077Y0064139D01*
X0357577Y0064139D01*
X0357827Y0064389D01*
X0357827Y0065390D01*
X0357577Y0065640D01*
X0357077Y0065640D01*
X0356826Y0065390D01*
X0356826Y0064389D01*
X0357327Y0064639D02*
X0357827Y0064139D01*
X0358300Y0064139D02*
X0359300Y0065140D01*
X0359300Y0065390D01*
X0359050Y0065640D01*
X0358550Y0065640D01*
X0358300Y0065390D01*
X0358300Y0064139D02*
X0359300Y0064139D01*
X0361547Y0063106D02*
X0363048Y0063106D01*
X0363048Y0063606D02*
X0363048Y0062605D01*
X0363048Y0062133D02*
X0363048Y0061132D01*
X0361547Y0061132D01*
X0361547Y0062133D01*
X0362047Y0062605D02*
X0361547Y0063106D01*
X0362297Y0061632D02*
X0362297Y0061132D01*
X0361547Y0060660D02*
X0361547Y0059659D01*
X0361547Y0060159D02*
X0363048Y0060159D01*
X0363048Y0059186D02*
X0362047Y0059186D01*
X0361547Y0058686D01*
X0362047Y0058185D01*
X0363048Y0058185D01*
X0362798Y0057713D02*
X0362297Y0057713D01*
X0362297Y0057213D01*
X0361797Y0057713D02*
X0361547Y0057463D01*
X0361547Y0056962D01*
X0361797Y0056712D01*
X0362798Y0056712D01*
X0363048Y0056962D01*
X0363048Y0057463D01*
X0362798Y0057713D01*
X0362297Y0058185D02*
X0362297Y0059186D01*
X0362297Y0056240D02*
X0361797Y0056240D01*
X0361547Y0055990D01*
X0361547Y0055239D01*
X0363048Y0055239D01*
X0362548Y0055239D02*
X0362548Y0055990D01*
X0362297Y0056240D01*
X0362548Y0055739D02*
X0363048Y0056240D01*
X0366373Y0031543D02*
X0366122Y0031293D01*
X0366122Y0030792D01*
X0366373Y0030542D01*
X0367373Y0030542D01*
X0366373Y0031543D01*
X0367373Y0031543D01*
X0367624Y0031293D01*
X0367624Y0030792D01*
X0367373Y0030542D01*
X0367624Y0030070D02*
X0367624Y0029069D01*
X0367624Y0029569D02*
X0366122Y0029569D01*
X0366623Y0029069D01*
X0366373Y0028596D02*
X0366122Y0028346D01*
X0366122Y0027846D01*
X0366373Y0027596D01*
X0367373Y0027596D01*
X0367624Y0027846D01*
X0367624Y0028346D01*
X0367373Y0028596D01*
X0350834Y0028746D02*
X0350584Y0028496D01*
X0350084Y0028496D01*
X0349833Y0028746D01*
X0349833Y0029247D02*
X0350334Y0029497D01*
X0350584Y0029497D01*
X0350834Y0029247D01*
X0350834Y0028746D01*
X0349833Y0029247D02*
X0349833Y0029997D01*
X0350834Y0029997D01*
X0349352Y0029997D02*
X0348851Y0029997D01*
X0349101Y0029997D02*
X0349101Y0028496D01*
X0348851Y0028496D02*
X0349352Y0028496D01*
X0348379Y0029247D02*
X0348129Y0028996D01*
X0347378Y0028996D01*
X0347378Y0028496D02*
X0347378Y0029997D01*
X0348129Y0029997D01*
X0348379Y0029747D01*
X0348379Y0029247D01*
X0346906Y0029247D02*
X0346655Y0028996D01*
X0345905Y0028996D01*
X0345905Y0028496D02*
X0345905Y0029997D01*
X0346655Y0029997D01*
X0346906Y0029747D01*
X0346906Y0029247D01*
X0346405Y0028996D02*
X0346906Y0028496D01*
X0346114Y0029856D02*
X0345113Y0029856D01*
X0344863Y0030106D01*
X0344863Y0030607D01*
X0345113Y0030857D01*
X0345613Y0031329D02*
X0345113Y0031830D01*
X0344863Y0032330D01*
X0345613Y0032080D02*
X0345613Y0031329D01*
X0346114Y0031329D01*
X0346364Y0031580D01*
X0346364Y0032080D01*
X0346114Y0032330D01*
X0345863Y0032330D01*
X0345613Y0032080D01*
X0346114Y0030857D02*
X0346364Y0030607D01*
X0346364Y0030106D01*
X0346114Y0029856D01*
X0366647Y0096926D02*
X0366647Y0097677D01*
X0366897Y0097927D01*
X0367397Y0097927D01*
X0367648Y0097677D01*
X0367648Y0096926D01*
X0368148Y0096926D02*
X0366647Y0096926D01*
X0367648Y0097427D02*
X0368148Y0097927D01*
X0367898Y0098399D02*
X0368148Y0098650D01*
X0368148Y0099150D01*
X0367898Y0099400D01*
X0367648Y0099400D01*
X0367397Y0099150D01*
X0367397Y0098650D01*
X0367147Y0098399D01*
X0366897Y0098399D01*
X0366647Y0098650D01*
X0366647Y0099150D01*
X0366897Y0099400D01*
X0366647Y0099873D02*
X0368148Y0099873D01*
X0368148Y0100874D01*
X0368148Y0101346D02*
X0366647Y0101346D01*
X0368148Y0102347D01*
X0366647Y0102347D01*
X0366897Y0102819D02*
X0367147Y0102819D01*
X0367397Y0103069D01*
X0367397Y0103570D01*
X0367648Y0103820D01*
X0367898Y0103820D01*
X0368148Y0103570D01*
X0368148Y0103069D01*
X0367898Y0102819D01*
X0366897Y0102819D02*
X0366647Y0103069D01*
X0366647Y0103570D01*
X0366897Y0103820D01*
X0366647Y0104292D02*
X0368148Y0104292D01*
X0368148Y0105293D01*
X0367898Y0105766D02*
X0368148Y0106016D01*
X0368148Y0106516D01*
X0367898Y0106767D01*
X0367397Y0106767D01*
X0367147Y0106516D01*
X0367147Y0106266D01*
X0367397Y0105766D01*
X0366647Y0105766D01*
X0366647Y0106767D01*
X0366647Y0105293D02*
X0366647Y0104292D01*
X0367397Y0104292D02*
X0367397Y0104793D01*
X0366647Y0100874D02*
X0366647Y0099873D01*
X0367397Y0099873D02*
X0367397Y0100373D01*
X0375247Y0099873D02*
X0376748Y0099873D01*
X0376748Y0100874D01*
X0376748Y0101346D02*
X0375247Y0101346D01*
X0376748Y0102347D01*
X0375247Y0102347D01*
X0375497Y0102819D02*
X0375747Y0102819D01*
X0375997Y0103069D01*
X0375997Y0103570D01*
X0376248Y0103820D01*
X0376498Y0103820D01*
X0376748Y0103570D01*
X0376748Y0103069D01*
X0376498Y0102819D01*
X0375497Y0102819D02*
X0375247Y0103069D01*
X0375247Y0103570D01*
X0375497Y0103820D01*
X0375247Y0104292D02*
X0376748Y0104292D01*
X0376748Y0105293D01*
X0376498Y0105766D02*
X0376748Y0106016D01*
X0376748Y0106516D01*
X0376498Y0106767D01*
X0376248Y0106767D01*
X0375997Y0106516D01*
X0375997Y0106266D01*
X0375997Y0106516D02*
X0375747Y0106767D01*
X0375497Y0106767D01*
X0375247Y0106516D01*
X0375247Y0106016D01*
X0375497Y0105766D01*
X0375247Y0105293D02*
X0375247Y0104292D01*
X0375997Y0104292D02*
X0375997Y0104793D01*
X0375247Y0100874D02*
X0375247Y0099873D01*
X0375497Y0099400D02*
X0375247Y0099150D01*
X0375247Y0098650D01*
X0375497Y0098399D01*
X0375747Y0098399D01*
X0375997Y0098650D01*
X0375997Y0099150D01*
X0376248Y0099400D01*
X0376498Y0099400D01*
X0376748Y0099150D01*
X0376748Y0098650D01*
X0376498Y0098399D01*
X0376748Y0097927D02*
X0376248Y0097427D01*
X0376248Y0097677D02*
X0376248Y0096926D01*
X0376748Y0096926D02*
X0375247Y0096926D01*
X0375247Y0097677D01*
X0375497Y0097927D01*
X0375997Y0097927D01*
X0376248Y0097677D01*
X0375997Y0099873D02*
X0375997Y0100373D01*
X0383647Y0099873D02*
X0385148Y0099873D01*
X0385148Y0100874D01*
X0385148Y0101346D02*
X0383647Y0101346D01*
X0385148Y0102347D01*
X0383647Y0102347D01*
X0383897Y0102819D02*
X0384147Y0102819D01*
X0384397Y0103069D01*
X0384397Y0103570D01*
X0384648Y0103820D01*
X0384898Y0103820D01*
X0385148Y0103570D01*
X0385148Y0103069D01*
X0384898Y0102819D01*
X0383897Y0102819D02*
X0383647Y0103069D01*
X0383647Y0103570D01*
X0383897Y0103820D01*
X0383647Y0104292D02*
X0385148Y0104292D01*
X0385148Y0105293D01*
X0384397Y0105766D02*
X0384397Y0106767D01*
X0383647Y0106516D02*
X0384397Y0105766D01*
X0383647Y0105293D02*
X0383647Y0104292D01*
X0384397Y0104292D02*
X0384397Y0104793D01*
X0385148Y0106516D02*
X0383647Y0106516D01*
X0383647Y0100874D02*
X0383647Y0099873D01*
X0383897Y0099400D02*
X0383647Y0099150D01*
X0383647Y0098650D01*
X0383897Y0098399D01*
X0384147Y0098399D01*
X0384397Y0098650D01*
X0384397Y0099150D01*
X0384648Y0099400D01*
X0384898Y0099400D01*
X0385148Y0099150D01*
X0385148Y0098650D01*
X0384898Y0098399D01*
X0385148Y0097927D02*
X0384648Y0097427D01*
X0384648Y0097677D02*
X0384648Y0096926D01*
X0385148Y0096926D02*
X0383647Y0096926D01*
X0383647Y0097677D01*
X0383897Y0097927D01*
X0384397Y0097927D01*
X0384648Y0097677D01*
X0384397Y0099873D02*
X0384397Y0100373D01*
X0248106Y0060421D02*
X0247856Y0060671D01*
X0247606Y0060671D01*
X0247356Y0060421D01*
X0247356Y0059671D01*
X0247856Y0059671D01*
X0248106Y0059921D01*
X0248106Y0060421D01*
X0247356Y0059671D02*
X0246855Y0060171D01*
X0246605Y0060671D01*
X0246605Y0059198D02*
X0246605Y0058197D01*
X0247356Y0058197D01*
X0247105Y0058698D01*
X0247105Y0058948D01*
X0247356Y0059198D01*
X0247856Y0059198D01*
X0248106Y0058948D01*
X0248106Y0058447D01*
X0247856Y0058197D01*
X0247856Y0057725D02*
X0248106Y0057475D01*
X0248106Y0056974D01*
X0247856Y0056724D01*
X0246855Y0056724D01*
X0246605Y0056974D01*
X0246605Y0057475D01*
X0246855Y0057725D01*
X0046862Y0075507D02*
X0046862Y0076007D01*
X0046612Y0076257D01*
X0046612Y0076730D02*
X0046862Y0076730D01*
X0046612Y0076730D02*
X0045611Y0077730D01*
X0045361Y0077730D01*
X0045361Y0076730D01*
X0045611Y0076257D02*
X0045361Y0076007D01*
X0045361Y0075507D01*
X0045611Y0075256D01*
X0046612Y0075256D01*
X0046862Y0075507D01*
D16*
X0090047Y0114648D02*
X0101071Y0114648D01*
X0101071Y0125869D02*
X0090047Y0125869D01*
X0109262Y0103828D02*
X0114774Y0103828D01*
X0117530Y0102646D02*
X0117530Y0099891D01*
X0119892Y0102253D01*
X0119892Y0097528D01*
X0117530Y0099891D01*
X0117530Y0097135D01*
X0114774Y0095954D02*
X0109262Y0095954D01*
X0109262Y0103828D01*
X0122648Y0103828D02*
X0128160Y0103828D01*
X0128160Y0095954D01*
X0122648Y0095954D01*
X0139202Y0063611D02*
X0137627Y0062036D01*
X0137627Y0057706D01*
X0139202Y0063611D02*
X0145501Y0063611D01*
X0147076Y0062036D01*
X0147076Y0057706D01*
X0147076Y0049831D02*
X0147076Y0043926D01*
X0137627Y0043926D01*
X0137627Y0049831D01*
X0156339Y0032715D02*
X0153839Y0030215D01*
X0153839Y0025215D01*
X0156339Y0022715D01*
X0161339Y0022715D01*
X0163839Y0025215D01*
X0166339Y0022715D01*
X0171339Y0022715D01*
X0173839Y0025215D01*
X0176339Y0022715D01*
X0181339Y0022715D01*
X0183839Y0025215D01*
X0186339Y0022715D01*
X0191339Y0022715D01*
X0193839Y0025215D01*
X0196339Y0022715D01*
X0201339Y0022715D01*
X0203839Y0025215D01*
X0206339Y0022715D01*
X0211339Y0022715D01*
X0213839Y0025215D01*
X0216339Y0022715D01*
X0221339Y0022715D01*
X0223839Y0025215D01*
X0226339Y0022715D01*
X0231339Y0022715D01*
X0233839Y0025215D01*
X0233839Y0030215D01*
X0231339Y0032715D01*
X0226339Y0032715D01*
X0223839Y0030215D01*
X0221339Y0032715D01*
X0216339Y0032715D01*
X0213839Y0030215D01*
X0211339Y0032715D01*
X0206339Y0032715D01*
X0203839Y0030215D01*
X0201339Y0032715D01*
X0196339Y0032715D01*
X0193839Y0030215D01*
X0191339Y0032715D01*
X0186339Y0032715D01*
X0183839Y0030215D01*
X0181339Y0032715D01*
X0176339Y0032715D01*
X0173839Y0030215D01*
X0171339Y0032715D01*
X0166339Y0032715D01*
X0163839Y0030215D01*
X0161339Y0032715D01*
X0156339Y0032715D01*
X0259734Y0054694D02*
X0259734Y0060206D01*
X0260915Y0062961D02*
X0263671Y0062961D01*
X0261309Y0065324D01*
X0266033Y0065324D01*
X0263671Y0062961D01*
X0266427Y0062961D01*
X0267608Y0060206D02*
X0267608Y0054694D01*
X0259734Y0054694D01*
X0259734Y0068080D02*
X0259734Y0073591D01*
X0267608Y0073591D01*
X0267608Y0068080D01*
X0295896Y0049503D02*
X0306920Y0049503D01*
X0306920Y0038283D02*
X0295896Y0038283D01*
X0335442Y0067289D02*
X0359829Y0067287D01*
X0359829Y0093091D01*
X0335442Y0093089D01*
X0276098Y0211227D02*
X0274326Y0211227D01*
X0276098Y0211227D02*
X0276098Y0229337D01*
X0274326Y0229337D01*
X0274326Y0224219D02*
X0266452Y0224219D01*
X0266452Y0229337D02*
X0264680Y0229337D01*
X0264680Y0211227D01*
X0266452Y0211227D01*
X0260498Y0211227D02*
X0258726Y0211227D01*
X0260498Y0211227D02*
X0260498Y0229337D01*
X0258726Y0229337D01*
X0258726Y0224219D02*
X0250852Y0224219D01*
X0250852Y0229337D02*
X0249080Y0229337D01*
X0249080Y0211227D01*
X0250852Y0211227D01*
X0244926Y0211176D02*
X0243154Y0211176D01*
X0244926Y0211176D02*
X0244926Y0229287D01*
X0243154Y0229287D01*
X0243154Y0224169D02*
X0235280Y0224169D01*
X0235280Y0229287D02*
X0233509Y0229287D01*
X0233509Y0211176D01*
X0235280Y0211176D01*
X0153980Y0175793D02*
X0153980Y0149990D01*
X0129593Y0149991D01*
X0129593Y0175791D02*
X0153980Y0175793D01*
X0121250Y0297513D02*
X0119479Y0297513D01*
X0121250Y0297513D02*
X0121250Y0315624D01*
X0119479Y0315624D01*
X0119479Y0310506D02*
X0111605Y0310506D01*
X0111605Y0315624D02*
X0109833Y0315624D01*
X0109833Y0297513D01*
X0111605Y0297513D01*
X0105502Y0297513D02*
X0103731Y0297513D01*
X0105502Y0297513D02*
X0105502Y0315624D01*
X0103731Y0315624D01*
X0103731Y0310506D02*
X0095857Y0310506D01*
X0095857Y0315624D02*
X0094085Y0315624D01*
X0094085Y0297513D01*
X0095857Y0297513D01*
X0089808Y0297636D02*
X0088036Y0297636D01*
X0089808Y0297636D02*
X0089808Y0315746D01*
X0088036Y0315746D01*
X0088036Y0310628D02*
X0080162Y0310628D01*
X0080162Y0315746D02*
X0078391Y0315746D01*
X0078391Y0297636D01*
X0080162Y0297636D01*
X0074208Y0297636D02*
X0072436Y0297636D01*
X0074208Y0297636D02*
X0074208Y0315746D01*
X0072436Y0315746D01*
X0072436Y0310628D02*
X0064562Y0310628D01*
X0064562Y0315746D02*
X0062791Y0315746D01*
X0062791Y0297636D01*
X0064562Y0297636D01*
X0058636Y0297586D02*
X0056865Y0297586D01*
X0058636Y0297586D02*
X0058636Y0315696D01*
X0056865Y0315696D01*
X0056865Y0310578D02*
X0048991Y0310578D01*
X0048991Y0315696D02*
X0047219Y0315696D01*
X0047219Y0297586D01*
X0048991Y0297586D01*
X0048613Y0323104D02*
X0046841Y0323104D01*
X0046841Y0341214D01*
X0048613Y0341214D01*
X0048613Y0336096D02*
X0056487Y0336096D01*
X0056487Y0341214D02*
X0058258Y0341214D01*
X0058258Y0323104D01*
X0056487Y0323104D01*
X0062589Y0323104D02*
X0062589Y0341214D01*
X0064361Y0341214D01*
X0064361Y0336096D02*
X0072235Y0336096D01*
X0072235Y0341214D02*
X0074006Y0341214D01*
X0074006Y0323104D01*
X0072235Y0323104D01*
X0078337Y0323104D02*
X0078337Y0341214D01*
X0080109Y0341214D01*
X0080109Y0336096D02*
X0087983Y0336096D01*
X0087983Y0341214D02*
X0089754Y0341214D01*
X0089754Y0323104D01*
X0087983Y0323104D01*
X0080109Y0323104D02*
X0078337Y0323104D01*
X0064361Y0323104D02*
X0062589Y0323104D01*
X0094085Y0323104D02*
X0094085Y0341214D01*
X0095857Y0341214D01*
X0095857Y0336096D02*
X0103731Y0336096D01*
X0103731Y0341214D02*
X0105502Y0341214D01*
X0105502Y0323104D01*
X0103731Y0323104D01*
X0109833Y0323104D02*
X0109833Y0341214D01*
X0111605Y0341214D01*
X0111605Y0336096D02*
X0119479Y0336096D01*
X0119479Y0341214D02*
X0121250Y0341214D01*
X0121250Y0323104D01*
X0119479Y0323104D01*
X0111605Y0323104D02*
X0109833Y0323104D01*
X0095857Y0323104D02*
X0094085Y0323104D01*
X0330720Y0314650D02*
X0330720Y0306383D01*
X0389775Y0306383D01*
X0389775Y0314650D01*
D17*
X0155880Y0162891D03*
X0361729Y0080189D03*
D18*
X0297274Y0048027D03*
X0091425Y0124392D03*
D19*
X0077191Y0281125D02*
X0077193Y0281210D01*
X0077199Y0281294D01*
X0077209Y0281378D01*
X0077223Y0281461D01*
X0077240Y0281544D01*
X0077262Y0281626D01*
X0077287Y0281706D01*
X0077316Y0281786D01*
X0077349Y0281863D01*
X0077386Y0281940D01*
X0077426Y0282014D01*
X0077469Y0282087D01*
X0077516Y0282157D01*
X0077566Y0282225D01*
X0077619Y0282291D01*
X0077675Y0282354D01*
X0077734Y0282415D01*
X0077796Y0282472D01*
X0077860Y0282527D01*
X0077927Y0282579D01*
X0077997Y0282627D01*
X0078068Y0282672D01*
X0078142Y0282714D01*
X0078217Y0282752D01*
X0078294Y0282787D01*
X0078373Y0282818D01*
X0078453Y0282845D01*
X0078534Y0282868D01*
X0078616Y0282888D01*
X0078699Y0282904D01*
X0078783Y0282916D01*
X0078867Y0282924D01*
X0078952Y0282928D01*
X0079036Y0282928D01*
X0079121Y0282924D01*
X0079205Y0282916D01*
X0079289Y0282904D01*
X0079372Y0282888D01*
X0079454Y0282868D01*
X0079535Y0282845D01*
X0079615Y0282818D01*
X0079694Y0282787D01*
X0079771Y0282752D01*
X0079846Y0282714D01*
X0079920Y0282672D01*
X0079991Y0282627D01*
X0080061Y0282579D01*
X0080128Y0282527D01*
X0080192Y0282472D01*
X0080254Y0282415D01*
X0080313Y0282354D01*
X0080369Y0282291D01*
X0080422Y0282225D01*
X0080472Y0282157D01*
X0080519Y0282087D01*
X0080562Y0282014D01*
X0080602Y0281940D01*
X0080639Y0281863D01*
X0080672Y0281786D01*
X0080701Y0281706D01*
X0080726Y0281626D01*
X0080748Y0281544D01*
X0080765Y0281461D01*
X0080779Y0281378D01*
X0080789Y0281294D01*
X0080795Y0281210D01*
X0080797Y0281125D01*
X0080795Y0281040D01*
X0080789Y0280956D01*
X0080779Y0280872D01*
X0080765Y0280789D01*
X0080748Y0280706D01*
X0080726Y0280624D01*
X0080701Y0280544D01*
X0080672Y0280464D01*
X0080639Y0280387D01*
X0080602Y0280310D01*
X0080562Y0280236D01*
X0080519Y0280163D01*
X0080472Y0280093D01*
X0080422Y0280025D01*
X0080369Y0279959D01*
X0080313Y0279896D01*
X0080254Y0279835D01*
X0080192Y0279778D01*
X0080128Y0279723D01*
X0080061Y0279671D01*
X0079991Y0279623D01*
X0079920Y0279578D01*
X0079846Y0279536D01*
X0079771Y0279498D01*
X0079694Y0279463D01*
X0079615Y0279432D01*
X0079535Y0279405D01*
X0079454Y0279382D01*
X0079372Y0279362D01*
X0079289Y0279346D01*
X0079205Y0279334D01*
X0079121Y0279326D01*
X0079036Y0279322D01*
X0078952Y0279322D01*
X0078867Y0279326D01*
X0078783Y0279334D01*
X0078699Y0279346D01*
X0078616Y0279362D01*
X0078534Y0279382D01*
X0078453Y0279405D01*
X0078373Y0279432D01*
X0078294Y0279463D01*
X0078217Y0279498D01*
X0078142Y0279536D01*
X0078068Y0279578D01*
X0077997Y0279623D01*
X0077927Y0279671D01*
X0077860Y0279723D01*
X0077796Y0279778D01*
X0077734Y0279835D01*
X0077675Y0279896D01*
X0077619Y0279959D01*
X0077566Y0280025D01*
X0077516Y0280093D01*
X0077469Y0280163D01*
X0077426Y0280236D01*
X0077386Y0280310D01*
X0077349Y0280387D01*
X0077316Y0280464D01*
X0077287Y0280544D01*
X0077262Y0280624D01*
X0077240Y0280706D01*
X0077223Y0280789D01*
X0077209Y0280872D01*
X0077199Y0280956D01*
X0077193Y0281040D01*
X0077191Y0281125D01*
D20*
X0287166Y0194922D02*
X0287168Y0195004D01*
X0287174Y0195085D01*
X0287184Y0195166D01*
X0287198Y0195247D01*
X0287215Y0195326D01*
X0287237Y0195405D01*
X0287263Y0195483D01*
X0287292Y0195559D01*
X0287325Y0195634D01*
X0287361Y0195707D01*
X0287401Y0195778D01*
X0287444Y0195847D01*
X0287491Y0195914D01*
X0287541Y0195979D01*
X0287594Y0196041D01*
X0287650Y0196101D01*
X0287709Y0196157D01*
X0287770Y0196211D01*
X0287834Y0196262D01*
X0287901Y0196309D01*
X0287969Y0196353D01*
X0288040Y0196394D01*
X0288113Y0196432D01*
X0288187Y0196465D01*
X0288263Y0196496D01*
X0288340Y0196522D01*
X0288419Y0196544D01*
X0288498Y0196563D01*
X0288579Y0196578D01*
X0288660Y0196589D01*
X0288741Y0196596D01*
X0288823Y0196599D01*
X0288904Y0196598D01*
X0288986Y0196593D01*
X0289067Y0196584D01*
X0289148Y0196571D01*
X0289228Y0196554D01*
X0289307Y0196534D01*
X0289384Y0196509D01*
X0289461Y0196481D01*
X0289536Y0196449D01*
X0289610Y0196413D01*
X0289681Y0196374D01*
X0289751Y0196332D01*
X0289819Y0196286D01*
X0289884Y0196237D01*
X0289947Y0196185D01*
X0290007Y0196129D01*
X0290064Y0196071D01*
X0290119Y0196010D01*
X0290170Y0195947D01*
X0290219Y0195881D01*
X0290264Y0195813D01*
X0290305Y0195743D01*
X0290344Y0195671D01*
X0290378Y0195597D01*
X0290409Y0195521D01*
X0290437Y0195444D01*
X0290460Y0195366D01*
X0290480Y0195287D01*
X0290496Y0195207D01*
X0290508Y0195126D01*
X0290516Y0195044D01*
X0290520Y0194963D01*
X0290520Y0194881D01*
X0290516Y0194800D01*
X0290508Y0194718D01*
X0290496Y0194637D01*
X0290480Y0194557D01*
X0290460Y0194478D01*
X0290437Y0194400D01*
X0290409Y0194323D01*
X0290378Y0194247D01*
X0290344Y0194173D01*
X0290305Y0194101D01*
X0290264Y0194031D01*
X0290219Y0193963D01*
X0290170Y0193897D01*
X0290119Y0193834D01*
X0290064Y0193773D01*
X0290007Y0193715D01*
X0289947Y0193659D01*
X0289884Y0193607D01*
X0289819Y0193558D01*
X0289751Y0193512D01*
X0289682Y0193470D01*
X0289610Y0193431D01*
X0289536Y0193395D01*
X0289461Y0193363D01*
X0289384Y0193335D01*
X0289307Y0193310D01*
X0289228Y0193290D01*
X0289148Y0193273D01*
X0289067Y0193260D01*
X0288986Y0193251D01*
X0288904Y0193246D01*
X0288823Y0193245D01*
X0288741Y0193248D01*
X0288660Y0193255D01*
X0288579Y0193266D01*
X0288498Y0193281D01*
X0288419Y0193300D01*
X0288340Y0193322D01*
X0288263Y0193348D01*
X0288187Y0193379D01*
X0288113Y0193412D01*
X0288040Y0193450D01*
X0287969Y0193491D01*
X0287901Y0193535D01*
X0287834Y0193582D01*
X0287770Y0193633D01*
X0287709Y0193687D01*
X0287650Y0193743D01*
X0287594Y0193803D01*
X0287541Y0193865D01*
X0287491Y0193930D01*
X0287444Y0193997D01*
X0287401Y0194066D01*
X0287361Y0194137D01*
X0287325Y0194210D01*
X0287292Y0194285D01*
X0287263Y0194361D01*
X0287237Y0194439D01*
X0287215Y0194518D01*
X0287198Y0194597D01*
X0287184Y0194678D01*
X0287174Y0194759D01*
X0287168Y0194840D01*
X0287166Y0194922D01*
D21*
X0209759Y0115774D02*
X0209761Y0115818D01*
X0209767Y0115862D01*
X0209777Y0115905D01*
X0209790Y0115947D01*
X0209807Y0115988D01*
X0209828Y0116027D01*
X0209852Y0116064D01*
X0209879Y0116099D01*
X0209909Y0116131D01*
X0209942Y0116161D01*
X0209978Y0116187D01*
X0210015Y0116211D01*
X0210055Y0116230D01*
X0210096Y0116247D01*
X0210139Y0116259D01*
X0210182Y0116268D01*
X0210226Y0116273D01*
X0210270Y0116274D01*
X0210314Y0116271D01*
X0210358Y0116264D01*
X0210401Y0116253D01*
X0210443Y0116239D01*
X0210483Y0116221D01*
X0210522Y0116199D01*
X0210558Y0116175D01*
X0210592Y0116147D01*
X0210624Y0116116D01*
X0210653Y0116082D01*
X0210679Y0116046D01*
X0210701Y0116008D01*
X0210720Y0115968D01*
X0210735Y0115926D01*
X0210747Y0115884D01*
X0210755Y0115840D01*
X0210759Y0115796D01*
X0210759Y0115752D01*
X0210755Y0115708D01*
X0210747Y0115664D01*
X0210735Y0115622D01*
X0210720Y0115580D01*
X0210701Y0115540D01*
X0210679Y0115502D01*
X0210653Y0115466D01*
X0210624Y0115432D01*
X0210592Y0115401D01*
X0210558Y0115373D01*
X0210522Y0115349D01*
X0210483Y0115327D01*
X0210443Y0115309D01*
X0210401Y0115295D01*
X0210358Y0115284D01*
X0210314Y0115277D01*
X0210270Y0115274D01*
X0210226Y0115275D01*
X0210182Y0115280D01*
X0210139Y0115289D01*
X0210096Y0115301D01*
X0210055Y0115318D01*
X0210015Y0115337D01*
X0209978Y0115361D01*
X0209942Y0115387D01*
X0209909Y0115417D01*
X0209879Y0115449D01*
X0209852Y0115484D01*
X0209828Y0115521D01*
X0209807Y0115560D01*
X0209790Y0115601D01*
X0209777Y0115643D01*
X0209767Y0115686D01*
X0209761Y0115730D01*
X0209759Y0115774D01*
D22*
X0307299Y0288976D02*
X0307299Y0308576D01*
X0307394Y0308619D02*
X0319047Y0308619D01*
X0319099Y0308576D02*
X0319099Y0288976D01*
X0319047Y0288934D02*
X0307394Y0288934D01*
D23*
X0360247Y0303824D03*
D24*
X0338791Y0303824D03*
X0381704Y0303824D03*
D25*
X0235717Y0354379D02*
X0190717Y0354379D01*
X0213217Y0394379D01*
X0235717Y0354379D01*
D26*
X0122741Y0061331D02*
X0119041Y0061331D01*
M02*
