G75*
%MOIN*%
%OFA0B0*%
%FSLAX25Y25*%
%IPPOS*%
%LPD*%
%AMOC8*
5,1,8,0,0,1.08239X$1,22.5*
%
%ADD10C,0.00000*%
%ADD11C,0.30328*%
%ADD12OC8,0.08200*%
%ADD13R,0.06902X0.01784*%
%ADD14R,0.01784X0.06902*%
%ADD15R,0.07690X0.02375*%
%ADD16R,0.04737X0.07887*%
%ADD17R,0.05524X0.03950*%
%ADD18R,0.03950X0.05524*%
%ADD19C,0.05200*%
%ADD20R,0.05721X0.07099*%
%ADD21R,0.01784X0.04737*%
%ADD22R,0.04737X0.01784*%
%ADD23R,0.05950X0.05950*%
%ADD24C,0.05950*%
%ADD25C,0.14383*%
%ADD26R,0.05524X0.03162*%
%ADD27R,0.06706X0.05918*%
%ADD28R,0.03162X0.04737*%
%ADD29R,0.05721X0.07887*%
%ADD30R,0.04737X0.03162*%
%ADD31R,0.07887X0.05721*%
%ADD32R,0.05918X0.06706*%
%ADD33R,0.10170X0.07296*%
%ADD34R,0.01784X0.03556*%
%ADD35R,0.04658X0.14186*%
%ADD36R,0.07099X0.07887*%
%ADD37R,0.03556X0.02800*%
%ADD38R,0.11036X0.03950*%
%ADD39C,0.03778*%
%ADD40R,0.03778X0.03778*%
%ADD41OC8,0.03975*%
%ADD42R,0.03975X0.03975*%
D10*
X0001000Y0020685D02*
X0001000Y0335646D01*
X0020685Y0355331D01*
X0335646Y0355331D01*
X0355331Y0335646D01*
X0355331Y0020685D01*
X0335646Y0001000D01*
X0020685Y0001000D01*
X0001000Y0020685D01*
X0059855Y0018685D02*
X0059857Y0018852D01*
X0059863Y0019018D01*
X0059873Y0019185D01*
X0059888Y0019351D01*
X0059906Y0019516D01*
X0059929Y0019681D01*
X0059955Y0019846D01*
X0059985Y0020010D01*
X0060020Y0020173D01*
X0060059Y0020335D01*
X0060101Y0020496D01*
X0060147Y0020656D01*
X0060198Y0020815D01*
X0060252Y0020973D01*
X0060310Y0021129D01*
X0060372Y0021284D01*
X0060438Y0021437D01*
X0060507Y0021589D01*
X0060580Y0021738D01*
X0060657Y0021886D01*
X0060737Y0022032D01*
X0060821Y0022176D01*
X0060909Y0022318D01*
X0060999Y0022458D01*
X0061094Y0022595D01*
X0061191Y0022730D01*
X0061292Y0022863D01*
X0061396Y0022993D01*
X0061504Y0023121D01*
X0061614Y0023246D01*
X0061728Y0023368D01*
X0061844Y0023487D01*
X0061963Y0023603D01*
X0062085Y0023717D01*
X0062210Y0023827D01*
X0062338Y0023935D01*
X0062468Y0024039D01*
X0062601Y0024140D01*
X0062736Y0024237D01*
X0062873Y0024332D01*
X0063013Y0024422D01*
X0063155Y0024510D01*
X0063299Y0024594D01*
X0063445Y0024674D01*
X0063593Y0024751D01*
X0063742Y0024824D01*
X0063894Y0024893D01*
X0064047Y0024959D01*
X0064202Y0025021D01*
X0064358Y0025079D01*
X0064516Y0025133D01*
X0064675Y0025184D01*
X0064835Y0025230D01*
X0064996Y0025272D01*
X0065158Y0025311D01*
X0065321Y0025346D01*
X0065485Y0025376D01*
X0065650Y0025402D01*
X0065815Y0025425D01*
X0065980Y0025443D01*
X0066146Y0025458D01*
X0066313Y0025468D01*
X0066479Y0025474D01*
X0066646Y0025476D01*
X0066813Y0025474D01*
X0066979Y0025468D01*
X0067146Y0025458D01*
X0067312Y0025443D01*
X0067477Y0025425D01*
X0067642Y0025402D01*
X0067807Y0025376D01*
X0067971Y0025346D01*
X0068134Y0025311D01*
X0068296Y0025272D01*
X0068457Y0025230D01*
X0068617Y0025184D01*
X0068776Y0025133D01*
X0068934Y0025079D01*
X0069090Y0025021D01*
X0069245Y0024959D01*
X0069398Y0024893D01*
X0069550Y0024824D01*
X0069699Y0024751D01*
X0069847Y0024674D01*
X0069993Y0024594D01*
X0070137Y0024510D01*
X0070279Y0024422D01*
X0070419Y0024332D01*
X0070556Y0024237D01*
X0070691Y0024140D01*
X0070824Y0024039D01*
X0070954Y0023935D01*
X0071082Y0023827D01*
X0071207Y0023717D01*
X0071329Y0023603D01*
X0071448Y0023487D01*
X0071564Y0023368D01*
X0071678Y0023246D01*
X0071788Y0023121D01*
X0071896Y0022993D01*
X0072000Y0022863D01*
X0072101Y0022730D01*
X0072198Y0022595D01*
X0072293Y0022458D01*
X0072383Y0022318D01*
X0072471Y0022176D01*
X0072555Y0022032D01*
X0072635Y0021886D01*
X0072712Y0021738D01*
X0072785Y0021589D01*
X0072854Y0021437D01*
X0072920Y0021284D01*
X0072982Y0021129D01*
X0073040Y0020973D01*
X0073094Y0020815D01*
X0073145Y0020656D01*
X0073191Y0020496D01*
X0073233Y0020335D01*
X0073272Y0020173D01*
X0073307Y0020010D01*
X0073337Y0019846D01*
X0073363Y0019681D01*
X0073386Y0019516D01*
X0073404Y0019351D01*
X0073419Y0019185D01*
X0073429Y0019018D01*
X0073435Y0018852D01*
X0073437Y0018685D01*
X0073435Y0018518D01*
X0073429Y0018352D01*
X0073419Y0018185D01*
X0073404Y0018019D01*
X0073386Y0017854D01*
X0073363Y0017689D01*
X0073337Y0017524D01*
X0073307Y0017360D01*
X0073272Y0017197D01*
X0073233Y0017035D01*
X0073191Y0016874D01*
X0073145Y0016714D01*
X0073094Y0016555D01*
X0073040Y0016397D01*
X0072982Y0016241D01*
X0072920Y0016086D01*
X0072854Y0015933D01*
X0072785Y0015781D01*
X0072712Y0015632D01*
X0072635Y0015484D01*
X0072555Y0015338D01*
X0072471Y0015194D01*
X0072383Y0015052D01*
X0072293Y0014912D01*
X0072198Y0014775D01*
X0072101Y0014640D01*
X0072000Y0014507D01*
X0071896Y0014377D01*
X0071788Y0014249D01*
X0071678Y0014124D01*
X0071564Y0014002D01*
X0071448Y0013883D01*
X0071329Y0013767D01*
X0071207Y0013653D01*
X0071082Y0013543D01*
X0070954Y0013435D01*
X0070824Y0013331D01*
X0070691Y0013230D01*
X0070556Y0013133D01*
X0070419Y0013038D01*
X0070279Y0012948D01*
X0070137Y0012860D01*
X0069993Y0012776D01*
X0069847Y0012696D01*
X0069699Y0012619D01*
X0069550Y0012546D01*
X0069398Y0012477D01*
X0069245Y0012411D01*
X0069090Y0012349D01*
X0068934Y0012291D01*
X0068776Y0012237D01*
X0068617Y0012186D01*
X0068457Y0012140D01*
X0068296Y0012098D01*
X0068134Y0012059D01*
X0067971Y0012024D01*
X0067807Y0011994D01*
X0067642Y0011968D01*
X0067477Y0011945D01*
X0067312Y0011927D01*
X0067146Y0011912D01*
X0066979Y0011902D01*
X0066813Y0011896D01*
X0066646Y0011894D01*
X0066479Y0011896D01*
X0066313Y0011902D01*
X0066146Y0011912D01*
X0065980Y0011927D01*
X0065815Y0011945D01*
X0065650Y0011968D01*
X0065485Y0011994D01*
X0065321Y0012024D01*
X0065158Y0012059D01*
X0064996Y0012098D01*
X0064835Y0012140D01*
X0064675Y0012186D01*
X0064516Y0012237D01*
X0064358Y0012291D01*
X0064202Y0012349D01*
X0064047Y0012411D01*
X0063894Y0012477D01*
X0063742Y0012546D01*
X0063593Y0012619D01*
X0063445Y0012696D01*
X0063299Y0012776D01*
X0063155Y0012860D01*
X0063013Y0012948D01*
X0062873Y0013038D01*
X0062736Y0013133D01*
X0062601Y0013230D01*
X0062468Y0013331D01*
X0062338Y0013435D01*
X0062210Y0013543D01*
X0062085Y0013653D01*
X0061963Y0013767D01*
X0061844Y0013883D01*
X0061728Y0014002D01*
X0061614Y0014124D01*
X0061504Y0014249D01*
X0061396Y0014377D01*
X0061292Y0014507D01*
X0061191Y0014640D01*
X0061094Y0014775D01*
X0060999Y0014912D01*
X0060909Y0015052D01*
X0060821Y0015194D01*
X0060737Y0015338D01*
X0060657Y0015484D01*
X0060580Y0015632D01*
X0060507Y0015781D01*
X0060438Y0015933D01*
X0060372Y0016086D01*
X0060310Y0016241D01*
X0060252Y0016397D01*
X0060198Y0016555D01*
X0060147Y0016714D01*
X0060101Y0016874D01*
X0060059Y0017035D01*
X0060020Y0017197D01*
X0059985Y0017360D01*
X0059955Y0017524D01*
X0059929Y0017689D01*
X0059906Y0017854D01*
X0059888Y0018019D01*
X0059873Y0018185D01*
X0059863Y0018352D01*
X0059857Y0018518D01*
X0059855Y0018685D01*
X0194855Y0018685D02*
X0194857Y0018852D01*
X0194863Y0019018D01*
X0194873Y0019185D01*
X0194888Y0019351D01*
X0194906Y0019516D01*
X0194929Y0019681D01*
X0194955Y0019846D01*
X0194985Y0020010D01*
X0195020Y0020173D01*
X0195059Y0020335D01*
X0195101Y0020496D01*
X0195147Y0020656D01*
X0195198Y0020815D01*
X0195252Y0020973D01*
X0195310Y0021129D01*
X0195372Y0021284D01*
X0195438Y0021437D01*
X0195507Y0021589D01*
X0195580Y0021738D01*
X0195657Y0021886D01*
X0195737Y0022032D01*
X0195821Y0022176D01*
X0195909Y0022318D01*
X0195999Y0022458D01*
X0196094Y0022595D01*
X0196191Y0022730D01*
X0196292Y0022863D01*
X0196396Y0022993D01*
X0196504Y0023121D01*
X0196614Y0023246D01*
X0196728Y0023368D01*
X0196844Y0023487D01*
X0196963Y0023603D01*
X0197085Y0023717D01*
X0197210Y0023827D01*
X0197338Y0023935D01*
X0197468Y0024039D01*
X0197601Y0024140D01*
X0197736Y0024237D01*
X0197873Y0024332D01*
X0198013Y0024422D01*
X0198155Y0024510D01*
X0198299Y0024594D01*
X0198445Y0024674D01*
X0198593Y0024751D01*
X0198742Y0024824D01*
X0198894Y0024893D01*
X0199047Y0024959D01*
X0199202Y0025021D01*
X0199358Y0025079D01*
X0199516Y0025133D01*
X0199675Y0025184D01*
X0199835Y0025230D01*
X0199996Y0025272D01*
X0200158Y0025311D01*
X0200321Y0025346D01*
X0200485Y0025376D01*
X0200650Y0025402D01*
X0200815Y0025425D01*
X0200980Y0025443D01*
X0201146Y0025458D01*
X0201313Y0025468D01*
X0201479Y0025474D01*
X0201646Y0025476D01*
X0201813Y0025474D01*
X0201979Y0025468D01*
X0202146Y0025458D01*
X0202312Y0025443D01*
X0202477Y0025425D01*
X0202642Y0025402D01*
X0202807Y0025376D01*
X0202971Y0025346D01*
X0203134Y0025311D01*
X0203296Y0025272D01*
X0203457Y0025230D01*
X0203617Y0025184D01*
X0203776Y0025133D01*
X0203934Y0025079D01*
X0204090Y0025021D01*
X0204245Y0024959D01*
X0204398Y0024893D01*
X0204550Y0024824D01*
X0204699Y0024751D01*
X0204847Y0024674D01*
X0204993Y0024594D01*
X0205137Y0024510D01*
X0205279Y0024422D01*
X0205419Y0024332D01*
X0205556Y0024237D01*
X0205691Y0024140D01*
X0205824Y0024039D01*
X0205954Y0023935D01*
X0206082Y0023827D01*
X0206207Y0023717D01*
X0206329Y0023603D01*
X0206448Y0023487D01*
X0206564Y0023368D01*
X0206678Y0023246D01*
X0206788Y0023121D01*
X0206896Y0022993D01*
X0207000Y0022863D01*
X0207101Y0022730D01*
X0207198Y0022595D01*
X0207293Y0022458D01*
X0207383Y0022318D01*
X0207471Y0022176D01*
X0207555Y0022032D01*
X0207635Y0021886D01*
X0207712Y0021738D01*
X0207785Y0021589D01*
X0207854Y0021437D01*
X0207920Y0021284D01*
X0207982Y0021129D01*
X0208040Y0020973D01*
X0208094Y0020815D01*
X0208145Y0020656D01*
X0208191Y0020496D01*
X0208233Y0020335D01*
X0208272Y0020173D01*
X0208307Y0020010D01*
X0208337Y0019846D01*
X0208363Y0019681D01*
X0208386Y0019516D01*
X0208404Y0019351D01*
X0208419Y0019185D01*
X0208429Y0019018D01*
X0208435Y0018852D01*
X0208437Y0018685D01*
X0208435Y0018518D01*
X0208429Y0018352D01*
X0208419Y0018185D01*
X0208404Y0018019D01*
X0208386Y0017854D01*
X0208363Y0017689D01*
X0208337Y0017524D01*
X0208307Y0017360D01*
X0208272Y0017197D01*
X0208233Y0017035D01*
X0208191Y0016874D01*
X0208145Y0016714D01*
X0208094Y0016555D01*
X0208040Y0016397D01*
X0207982Y0016241D01*
X0207920Y0016086D01*
X0207854Y0015933D01*
X0207785Y0015781D01*
X0207712Y0015632D01*
X0207635Y0015484D01*
X0207555Y0015338D01*
X0207471Y0015194D01*
X0207383Y0015052D01*
X0207293Y0014912D01*
X0207198Y0014775D01*
X0207101Y0014640D01*
X0207000Y0014507D01*
X0206896Y0014377D01*
X0206788Y0014249D01*
X0206678Y0014124D01*
X0206564Y0014002D01*
X0206448Y0013883D01*
X0206329Y0013767D01*
X0206207Y0013653D01*
X0206082Y0013543D01*
X0205954Y0013435D01*
X0205824Y0013331D01*
X0205691Y0013230D01*
X0205556Y0013133D01*
X0205419Y0013038D01*
X0205279Y0012948D01*
X0205137Y0012860D01*
X0204993Y0012776D01*
X0204847Y0012696D01*
X0204699Y0012619D01*
X0204550Y0012546D01*
X0204398Y0012477D01*
X0204245Y0012411D01*
X0204090Y0012349D01*
X0203934Y0012291D01*
X0203776Y0012237D01*
X0203617Y0012186D01*
X0203457Y0012140D01*
X0203296Y0012098D01*
X0203134Y0012059D01*
X0202971Y0012024D01*
X0202807Y0011994D01*
X0202642Y0011968D01*
X0202477Y0011945D01*
X0202312Y0011927D01*
X0202146Y0011912D01*
X0201979Y0011902D01*
X0201813Y0011896D01*
X0201646Y0011894D01*
X0201479Y0011896D01*
X0201313Y0011902D01*
X0201146Y0011912D01*
X0200980Y0011927D01*
X0200815Y0011945D01*
X0200650Y0011968D01*
X0200485Y0011994D01*
X0200321Y0012024D01*
X0200158Y0012059D01*
X0199996Y0012098D01*
X0199835Y0012140D01*
X0199675Y0012186D01*
X0199516Y0012237D01*
X0199358Y0012291D01*
X0199202Y0012349D01*
X0199047Y0012411D01*
X0198894Y0012477D01*
X0198742Y0012546D01*
X0198593Y0012619D01*
X0198445Y0012696D01*
X0198299Y0012776D01*
X0198155Y0012860D01*
X0198013Y0012948D01*
X0197873Y0013038D01*
X0197736Y0013133D01*
X0197601Y0013230D01*
X0197468Y0013331D01*
X0197338Y0013435D01*
X0197210Y0013543D01*
X0197085Y0013653D01*
X0196963Y0013767D01*
X0196844Y0013883D01*
X0196728Y0014002D01*
X0196614Y0014124D01*
X0196504Y0014249D01*
X0196396Y0014377D01*
X0196292Y0014507D01*
X0196191Y0014640D01*
X0196094Y0014775D01*
X0195999Y0014912D01*
X0195909Y0015052D01*
X0195821Y0015194D01*
X0195737Y0015338D01*
X0195657Y0015484D01*
X0195580Y0015632D01*
X0195507Y0015781D01*
X0195438Y0015933D01*
X0195372Y0016086D01*
X0195310Y0016241D01*
X0195252Y0016397D01*
X0195198Y0016555D01*
X0195147Y0016714D01*
X0195101Y0016874D01*
X0195059Y0017035D01*
X0195020Y0017197D01*
X0194985Y0017360D01*
X0194955Y0017524D01*
X0194929Y0017689D01*
X0194906Y0017854D01*
X0194888Y0018019D01*
X0194873Y0018185D01*
X0194863Y0018352D01*
X0194857Y0018518D01*
X0194855Y0018685D01*
X0194855Y0273685D02*
X0194857Y0273852D01*
X0194863Y0274018D01*
X0194873Y0274185D01*
X0194888Y0274351D01*
X0194906Y0274516D01*
X0194929Y0274681D01*
X0194955Y0274846D01*
X0194985Y0275010D01*
X0195020Y0275173D01*
X0195059Y0275335D01*
X0195101Y0275496D01*
X0195147Y0275656D01*
X0195198Y0275815D01*
X0195252Y0275973D01*
X0195310Y0276129D01*
X0195372Y0276284D01*
X0195438Y0276437D01*
X0195507Y0276589D01*
X0195580Y0276738D01*
X0195657Y0276886D01*
X0195737Y0277032D01*
X0195821Y0277176D01*
X0195909Y0277318D01*
X0195999Y0277458D01*
X0196094Y0277595D01*
X0196191Y0277730D01*
X0196292Y0277863D01*
X0196396Y0277993D01*
X0196504Y0278121D01*
X0196614Y0278246D01*
X0196728Y0278368D01*
X0196844Y0278487D01*
X0196963Y0278603D01*
X0197085Y0278717D01*
X0197210Y0278827D01*
X0197338Y0278935D01*
X0197468Y0279039D01*
X0197601Y0279140D01*
X0197736Y0279237D01*
X0197873Y0279332D01*
X0198013Y0279422D01*
X0198155Y0279510D01*
X0198299Y0279594D01*
X0198445Y0279674D01*
X0198593Y0279751D01*
X0198742Y0279824D01*
X0198894Y0279893D01*
X0199047Y0279959D01*
X0199202Y0280021D01*
X0199358Y0280079D01*
X0199516Y0280133D01*
X0199675Y0280184D01*
X0199835Y0280230D01*
X0199996Y0280272D01*
X0200158Y0280311D01*
X0200321Y0280346D01*
X0200485Y0280376D01*
X0200650Y0280402D01*
X0200815Y0280425D01*
X0200980Y0280443D01*
X0201146Y0280458D01*
X0201313Y0280468D01*
X0201479Y0280474D01*
X0201646Y0280476D01*
X0201813Y0280474D01*
X0201979Y0280468D01*
X0202146Y0280458D01*
X0202312Y0280443D01*
X0202477Y0280425D01*
X0202642Y0280402D01*
X0202807Y0280376D01*
X0202971Y0280346D01*
X0203134Y0280311D01*
X0203296Y0280272D01*
X0203457Y0280230D01*
X0203617Y0280184D01*
X0203776Y0280133D01*
X0203934Y0280079D01*
X0204090Y0280021D01*
X0204245Y0279959D01*
X0204398Y0279893D01*
X0204550Y0279824D01*
X0204699Y0279751D01*
X0204847Y0279674D01*
X0204993Y0279594D01*
X0205137Y0279510D01*
X0205279Y0279422D01*
X0205419Y0279332D01*
X0205556Y0279237D01*
X0205691Y0279140D01*
X0205824Y0279039D01*
X0205954Y0278935D01*
X0206082Y0278827D01*
X0206207Y0278717D01*
X0206329Y0278603D01*
X0206448Y0278487D01*
X0206564Y0278368D01*
X0206678Y0278246D01*
X0206788Y0278121D01*
X0206896Y0277993D01*
X0207000Y0277863D01*
X0207101Y0277730D01*
X0207198Y0277595D01*
X0207293Y0277458D01*
X0207383Y0277318D01*
X0207471Y0277176D01*
X0207555Y0277032D01*
X0207635Y0276886D01*
X0207712Y0276738D01*
X0207785Y0276589D01*
X0207854Y0276437D01*
X0207920Y0276284D01*
X0207982Y0276129D01*
X0208040Y0275973D01*
X0208094Y0275815D01*
X0208145Y0275656D01*
X0208191Y0275496D01*
X0208233Y0275335D01*
X0208272Y0275173D01*
X0208307Y0275010D01*
X0208337Y0274846D01*
X0208363Y0274681D01*
X0208386Y0274516D01*
X0208404Y0274351D01*
X0208419Y0274185D01*
X0208429Y0274018D01*
X0208435Y0273852D01*
X0208437Y0273685D01*
X0208435Y0273518D01*
X0208429Y0273352D01*
X0208419Y0273185D01*
X0208404Y0273019D01*
X0208386Y0272854D01*
X0208363Y0272689D01*
X0208337Y0272524D01*
X0208307Y0272360D01*
X0208272Y0272197D01*
X0208233Y0272035D01*
X0208191Y0271874D01*
X0208145Y0271714D01*
X0208094Y0271555D01*
X0208040Y0271397D01*
X0207982Y0271241D01*
X0207920Y0271086D01*
X0207854Y0270933D01*
X0207785Y0270781D01*
X0207712Y0270632D01*
X0207635Y0270484D01*
X0207555Y0270338D01*
X0207471Y0270194D01*
X0207383Y0270052D01*
X0207293Y0269912D01*
X0207198Y0269775D01*
X0207101Y0269640D01*
X0207000Y0269507D01*
X0206896Y0269377D01*
X0206788Y0269249D01*
X0206678Y0269124D01*
X0206564Y0269002D01*
X0206448Y0268883D01*
X0206329Y0268767D01*
X0206207Y0268653D01*
X0206082Y0268543D01*
X0205954Y0268435D01*
X0205824Y0268331D01*
X0205691Y0268230D01*
X0205556Y0268133D01*
X0205419Y0268038D01*
X0205279Y0267948D01*
X0205137Y0267860D01*
X0204993Y0267776D01*
X0204847Y0267696D01*
X0204699Y0267619D01*
X0204550Y0267546D01*
X0204398Y0267477D01*
X0204245Y0267411D01*
X0204090Y0267349D01*
X0203934Y0267291D01*
X0203776Y0267237D01*
X0203617Y0267186D01*
X0203457Y0267140D01*
X0203296Y0267098D01*
X0203134Y0267059D01*
X0202971Y0267024D01*
X0202807Y0266994D01*
X0202642Y0266968D01*
X0202477Y0266945D01*
X0202312Y0266927D01*
X0202146Y0266912D01*
X0201979Y0266902D01*
X0201813Y0266896D01*
X0201646Y0266894D01*
X0201479Y0266896D01*
X0201313Y0266902D01*
X0201146Y0266912D01*
X0200980Y0266927D01*
X0200815Y0266945D01*
X0200650Y0266968D01*
X0200485Y0266994D01*
X0200321Y0267024D01*
X0200158Y0267059D01*
X0199996Y0267098D01*
X0199835Y0267140D01*
X0199675Y0267186D01*
X0199516Y0267237D01*
X0199358Y0267291D01*
X0199202Y0267349D01*
X0199047Y0267411D01*
X0198894Y0267477D01*
X0198742Y0267546D01*
X0198593Y0267619D01*
X0198445Y0267696D01*
X0198299Y0267776D01*
X0198155Y0267860D01*
X0198013Y0267948D01*
X0197873Y0268038D01*
X0197736Y0268133D01*
X0197601Y0268230D01*
X0197468Y0268331D01*
X0197338Y0268435D01*
X0197210Y0268543D01*
X0197085Y0268653D01*
X0196963Y0268767D01*
X0196844Y0268883D01*
X0196728Y0269002D01*
X0196614Y0269124D01*
X0196504Y0269249D01*
X0196396Y0269377D01*
X0196292Y0269507D01*
X0196191Y0269640D01*
X0196094Y0269775D01*
X0195999Y0269912D01*
X0195909Y0270052D01*
X0195821Y0270194D01*
X0195737Y0270338D01*
X0195657Y0270484D01*
X0195580Y0270632D01*
X0195507Y0270781D01*
X0195438Y0270933D01*
X0195372Y0271086D01*
X0195310Y0271241D01*
X0195252Y0271397D01*
X0195198Y0271555D01*
X0195147Y0271714D01*
X0195101Y0271874D01*
X0195059Y0272035D01*
X0195020Y0272197D01*
X0194985Y0272360D01*
X0194955Y0272524D01*
X0194929Y0272689D01*
X0194906Y0272854D01*
X0194888Y0273019D01*
X0194873Y0273185D01*
X0194863Y0273352D01*
X0194857Y0273518D01*
X0194855Y0273685D01*
X0059855Y0273685D02*
X0059857Y0273852D01*
X0059863Y0274018D01*
X0059873Y0274185D01*
X0059888Y0274351D01*
X0059906Y0274516D01*
X0059929Y0274681D01*
X0059955Y0274846D01*
X0059985Y0275010D01*
X0060020Y0275173D01*
X0060059Y0275335D01*
X0060101Y0275496D01*
X0060147Y0275656D01*
X0060198Y0275815D01*
X0060252Y0275973D01*
X0060310Y0276129D01*
X0060372Y0276284D01*
X0060438Y0276437D01*
X0060507Y0276589D01*
X0060580Y0276738D01*
X0060657Y0276886D01*
X0060737Y0277032D01*
X0060821Y0277176D01*
X0060909Y0277318D01*
X0060999Y0277458D01*
X0061094Y0277595D01*
X0061191Y0277730D01*
X0061292Y0277863D01*
X0061396Y0277993D01*
X0061504Y0278121D01*
X0061614Y0278246D01*
X0061728Y0278368D01*
X0061844Y0278487D01*
X0061963Y0278603D01*
X0062085Y0278717D01*
X0062210Y0278827D01*
X0062338Y0278935D01*
X0062468Y0279039D01*
X0062601Y0279140D01*
X0062736Y0279237D01*
X0062873Y0279332D01*
X0063013Y0279422D01*
X0063155Y0279510D01*
X0063299Y0279594D01*
X0063445Y0279674D01*
X0063593Y0279751D01*
X0063742Y0279824D01*
X0063894Y0279893D01*
X0064047Y0279959D01*
X0064202Y0280021D01*
X0064358Y0280079D01*
X0064516Y0280133D01*
X0064675Y0280184D01*
X0064835Y0280230D01*
X0064996Y0280272D01*
X0065158Y0280311D01*
X0065321Y0280346D01*
X0065485Y0280376D01*
X0065650Y0280402D01*
X0065815Y0280425D01*
X0065980Y0280443D01*
X0066146Y0280458D01*
X0066313Y0280468D01*
X0066479Y0280474D01*
X0066646Y0280476D01*
X0066813Y0280474D01*
X0066979Y0280468D01*
X0067146Y0280458D01*
X0067312Y0280443D01*
X0067477Y0280425D01*
X0067642Y0280402D01*
X0067807Y0280376D01*
X0067971Y0280346D01*
X0068134Y0280311D01*
X0068296Y0280272D01*
X0068457Y0280230D01*
X0068617Y0280184D01*
X0068776Y0280133D01*
X0068934Y0280079D01*
X0069090Y0280021D01*
X0069245Y0279959D01*
X0069398Y0279893D01*
X0069550Y0279824D01*
X0069699Y0279751D01*
X0069847Y0279674D01*
X0069993Y0279594D01*
X0070137Y0279510D01*
X0070279Y0279422D01*
X0070419Y0279332D01*
X0070556Y0279237D01*
X0070691Y0279140D01*
X0070824Y0279039D01*
X0070954Y0278935D01*
X0071082Y0278827D01*
X0071207Y0278717D01*
X0071329Y0278603D01*
X0071448Y0278487D01*
X0071564Y0278368D01*
X0071678Y0278246D01*
X0071788Y0278121D01*
X0071896Y0277993D01*
X0072000Y0277863D01*
X0072101Y0277730D01*
X0072198Y0277595D01*
X0072293Y0277458D01*
X0072383Y0277318D01*
X0072471Y0277176D01*
X0072555Y0277032D01*
X0072635Y0276886D01*
X0072712Y0276738D01*
X0072785Y0276589D01*
X0072854Y0276437D01*
X0072920Y0276284D01*
X0072982Y0276129D01*
X0073040Y0275973D01*
X0073094Y0275815D01*
X0073145Y0275656D01*
X0073191Y0275496D01*
X0073233Y0275335D01*
X0073272Y0275173D01*
X0073307Y0275010D01*
X0073337Y0274846D01*
X0073363Y0274681D01*
X0073386Y0274516D01*
X0073404Y0274351D01*
X0073419Y0274185D01*
X0073429Y0274018D01*
X0073435Y0273852D01*
X0073437Y0273685D01*
X0073435Y0273518D01*
X0073429Y0273352D01*
X0073419Y0273185D01*
X0073404Y0273019D01*
X0073386Y0272854D01*
X0073363Y0272689D01*
X0073337Y0272524D01*
X0073307Y0272360D01*
X0073272Y0272197D01*
X0073233Y0272035D01*
X0073191Y0271874D01*
X0073145Y0271714D01*
X0073094Y0271555D01*
X0073040Y0271397D01*
X0072982Y0271241D01*
X0072920Y0271086D01*
X0072854Y0270933D01*
X0072785Y0270781D01*
X0072712Y0270632D01*
X0072635Y0270484D01*
X0072555Y0270338D01*
X0072471Y0270194D01*
X0072383Y0270052D01*
X0072293Y0269912D01*
X0072198Y0269775D01*
X0072101Y0269640D01*
X0072000Y0269507D01*
X0071896Y0269377D01*
X0071788Y0269249D01*
X0071678Y0269124D01*
X0071564Y0269002D01*
X0071448Y0268883D01*
X0071329Y0268767D01*
X0071207Y0268653D01*
X0071082Y0268543D01*
X0070954Y0268435D01*
X0070824Y0268331D01*
X0070691Y0268230D01*
X0070556Y0268133D01*
X0070419Y0268038D01*
X0070279Y0267948D01*
X0070137Y0267860D01*
X0069993Y0267776D01*
X0069847Y0267696D01*
X0069699Y0267619D01*
X0069550Y0267546D01*
X0069398Y0267477D01*
X0069245Y0267411D01*
X0069090Y0267349D01*
X0068934Y0267291D01*
X0068776Y0267237D01*
X0068617Y0267186D01*
X0068457Y0267140D01*
X0068296Y0267098D01*
X0068134Y0267059D01*
X0067971Y0267024D01*
X0067807Y0266994D01*
X0067642Y0266968D01*
X0067477Y0266945D01*
X0067312Y0266927D01*
X0067146Y0266912D01*
X0066979Y0266902D01*
X0066813Y0266896D01*
X0066646Y0266894D01*
X0066479Y0266896D01*
X0066313Y0266902D01*
X0066146Y0266912D01*
X0065980Y0266927D01*
X0065815Y0266945D01*
X0065650Y0266968D01*
X0065485Y0266994D01*
X0065321Y0267024D01*
X0065158Y0267059D01*
X0064996Y0267098D01*
X0064835Y0267140D01*
X0064675Y0267186D01*
X0064516Y0267237D01*
X0064358Y0267291D01*
X0064202Y0267349D01*
X0064047Y0267411D01*
X0063894Y0267477D01*
X0063742Y0267546D01*
X0063593Y0267619D01*
X0063445Y0267696D01*
X0063299Y0267776D01*
X0063155Y0267860D01*
X0063013Y0267948D01*
X0062873Y0268038D01*
X0062736Y0268133D01*
X0062601Y0268230D01*
X0062468Y0268331D01*
X0062338Y0268435D01*
X0062210Y0268543D01*
X0062085Y0268653D01*
X0061963Y0268767D01*
X0061844Y0268883D01*
X0061728Y0269002D01*
X0061614Y0269124D01*
X0061504Y0269249D01*
X0061396Y0269377D01*
X0061292Y0269507D01*
X0061191Y0269640D01*
X0061094Y0269775D01*
X0060999Y0269912D01*
X0060909Y0270052D01*
X0060821Y0270194D01*
X0060737Y0270338D01*
X0060657Y0270484D01*
X0060580Y0270632D01*
X0060507Y0270781D01*
X0060438Y0270933D01*
X0060372Y0271086D01*
X0060310Y0271241D01*
X0060252Y0271397D01*
X0060198Y0271555D01*
X0060147Y0271714D01*
X0060101Y0271874D01*
X0060059Y0272035D01*
X0060020Y0272197D01*
X0059985Y0272360D01*
X0059955Y0272524D01*
X0059929Y0272689D01*
X0059906Y0272854D01*
X0059888Y0273019D01*
X0059873Y0273185D01*
X0059863Y0273352D01*
X0059857Y0273518D01*
X0059855Y0273685D01*
D11*
X0022654Y0333677D03*
X0333677Y0333677D03*
X0333677Y0022654D03*
X0022654Y0022654D03*
D12*
X0053165Y0304677D03*
X0053165Y0314677D03*
X0053165Y0324677D03*
X0053165Y0334677D03*
X0063165Y0333677D03*
X0063165Y0323677D03*
X0063165Y0313677D03*
X0063165Y0303677D03*
X0073165Y0303677D03*
X0073165Y0313677D03*
X0073165Y0323677D03*
X0073165Y0333677D03*
X0083165Y0333677D03*
X0083165Y0323677D03*
X0083165Y0313677D03*
X0083165Y0303677D03*
X0093165Y0303677D03*
X0103165Y0303677D03*
X0103165Y0313677D03*
X0093165Y0313677D03*
X0093165Y0323677D03*
X0103165Y0323677D03*
X0103165Y0333677D03*
X0093165Y0333677D03*
X0113165Y0333677D03*
X0113165Y0323677D03*
X0113165Y0313677D03*
X0113165Y0303677D03*
X0123165Y0303677D03*
X0123165Y0313677D03*
X0123165Y0323677D03*
X0123165Y0333677D03*
X0133165Y0333677D03*
X0133165Y0323677D03*
X0133165Y0313677D03*
X0133165Y0303677D03*
X0143165Y0303677D03*
X0153165Y0303677D03*
X0153165Y0313677D03*
X0143165Y0313677D03*
X0143165Y0323677D03*
X0153165Y0323677D03*
X0153165Y0333677D03*
X0143165Y0333677D03*
X0163165Y0333677D03*
X0163165Y0323677D03*
X0163165Y0313677D03*
X0163165Y0303677D03*
X0173165Y0303677D03*
X0173165Y0313677D03*
X0173165Y0323677D03*
X0173165Y0333677D03*
X0183165Y0333677D03*
X0183165Y0323677D03*
X0183165Y0313677D03*
X0183165Y0303677D03*
X0193165Y0303677D03*
X0193165Y0313677D03*
X0193165Y0323677D03*
X0193165Y0333677D03*
X0203165Y0333677D03*
X0213165Y0333677D03*
X0213165Y0323677D03*
X0203165Y0323677D03*
X0203165Y0313677D03*
X0213165Y0313677D03*
X0213165Y0303677D03*
X0203165Y0303677D03*
X0223165Y0303677D03*
X0223165Y0313677D03*
X0223165Y0323677D03*
X0223165Y0333677D03*
X0233165Y0333677D03*
X0233165Y0323677D03*
X0233165Y0313677D03*
X0233165Y0303677D03*
X0243165Y0303677D03*
X0243165Y0313677D03*
X0243165Y0323677D03*
X0243165Y0333677D03*
X0253165Y0333677D03*
X0263165Y0333677D03*
X0263165Y0323677D03*
X0253165Y0323677D03*
X0253165Y0313677D03*
X0263165Y0313677D03*
X0263165Y0303677D03*
X0253165Y0303677D03*
X0273165Y0303677D03*
X0273165Y0313677D03*
X0273165Y0323677D03*
X0273165Y0333677D03*
X0283165Y0333677D03*
X0283165Y0323677D03*
X0283165Y0313677D03*
X0283165Y0303677D03*
X0293165Y0303677D03*
X0293165Y0313677D03*
X0293165Y0323677D03*
X0293165Y0333677D03*
X0303165Y0334677D03*
X0303165Y0324677D03*
X0303165Y0314677D03*
X0303165Y0304677D03*
D13*
X0286213Y0091929D03*
X0286213Y0089961D03*
X0286213Y0087992D03*
X0286213Y0086024D03*
X0286213Y0084055D03*
X0286213Y0082087D03*
X0286213Y0080118D03*
X0286213Y0078150D03*
X0286213Y0076181D03*
X0286213Y0074213D03*
X0286213Y0072244D03*
X0286213Y0070276D03*
X0286213Y0068307D03*
X0286213Y0066339D03*
X0286213Y0064370D03*
X0286213Y0062402D03*
X0242118Y0062402D03*
X0242118Y0064370D03*
X0242118Y0066339D03*
X0242118Y0068307D03*
X0242118Y0070276D03*
X0242118Y0072244D03*
X0242118Y0074213D03*
X0242118Y0076181D03*
X0242118Y0078150D03*
X0242118Y0080118D03*
X0242118Y0082087D03*
X0242118Y0084055D03*
X0242118Y0086024D03*
X0242118Y0087992D03*
X0242118Y0089961D03*
X0242118Y0091929D03*
D14*
X0249402Y0099213D03*
X0251370Y0099213D03*
X0253339Y0099213D03*
X0255307Y0099213D03*
X0257276Y0099213D03*
X0259244Y0099213D03*
X0261213Y0099213D03*
X0263181Y0099213D03*
X0265150Y0099213D03*
X0267118Y0099213D03*
X0269087Y0099213D03*
X0271055Y0099213D03*
X0273024Y0099213D03*
X0274992Y0099213D03*
X0276961Y0099213D03*
X0278929Y0099213D03*
X0278929Y0055118D03*
X0276961Y0055118D03*
X0274992Y0055118D03*
X0273024Y0055118D03*
X0271055Y0055118D03*
X0269087Y0055118D03*
X0267118Y0055118D03*
X0265150Y0055118D03*
X0263181Y0055118D03*
X0261213Y0055118D03*
X0259244Y0055118D03*
X0257276Y0055118D03*
X0255307Y0055118D03*
X0253339Y0055118D03*
X0251370Y0055118D03*
X0249402Y0055118D03*
D15*
X0257866Y0138031D03*
X0257866Y0140591D03*
X0257866Y0143150D03*
X0257866Y0145709D03*
X0257866Y0148268D03*
X0257866Y0150827D03*
X0257866Y0153386D03*
X0257866Y0155945D03*
X0257866Y0158504D03*
X0257866Y0161063D03*
X0257866Y0163622D03*
X0257866Y0166181D03*
X0257866Y0168740D03*
X0257866Y0171299D03*
X0286213Y0171299D03*
X0286213Y0168740D03*
X0286213Y0166181D03*
X0286213Y0163622D03*
X0286213Y0161063D03*
X0286213Y0158504D03*
X0286213Y0155945D03*
X0286213Y0153386D03*
X0286213Y0150827D03*
X0286213Y0148268D03*
X0286213Y0145709D03*
X0286213Y0143150D03*
X0286213Y0140591D03*
X0286213Y0138031D03*
D16*
X0259087Y0117165D03*
X0249244Y0117165D03*
D17*
X0240543Y0108189D03*
X0240543Y0101102D03*
X0230701Y0101102D03*
X0230701Y0108189D03*
X0230701Y0053228D03*
X0230701Y0046142D03*
X0240543Y0046142D03*
X0240543Y0053228D03*
X0287787Y0101102D03*
X0287787Y0108189D03*
X0297630Y0108189D03*
X0297630Y0101102D03*
X0299106Y0137185D03*
X0299106Y0144272D03*
X0299106Y0151791D03*
X0299106Y0158878D03*
X0250878Y0176398D03*
X0250878Y0183484D03*
X0268165Y0209622D03*
X0268165Y0216709D03*
D18*
X0262209Y0223165D03*
X0255122Y0223165D03*
X0254622Y0203165D03*
X0261709Y0203165D03*
X0237610Y0174606D03*
X0230524Y0174606D03*
X0234126Y0139173D03*
X0241213Y0139173D03*
X0242984Y0128346D03*
X0250071Y0128346D03*
X0241213Y0118504D03*
X0234126Y0118504D03*
X0294992Y0173622D03*
X0302079Y0173622D03*
X0281709Y0251665D03*
X0281709Y0258665D03*
X0281709Y0265665D03*
X0274622Y0265665D03*
X0274622Y0258665D03*
X0274622Y0251665D03*
D19*
X0250878Y0186909D03*
X0241035Y0174606D03*
X0266134Y0158858D03*
X0249402Y0146063D03*
X0239559Y0128346D03*
X0230701Y0118504D03*
X0235622Y0108661D03*
X0248417Y0106693D03*
X0260228Y0106693D03*
X0277895Y0122180D03*
X0271647Y0125802D03*
X0264165Y0129715D03*
X0285415Y0117165D03*
X0292915Y0117165D03*
X0292709Y0108661D03*
X0293693Y0093898D03*
X0235622Y0045669D03*
X0234638Y0061417D03*
X0230701Y0139173D03*
X0294677Y0164764D03*
X0299106Y0162303D03*
X0305504Y0173622D03*
D20*
X0240031Y0164094D03*
X0231370Y0164094D03*
X0231370Y0149528D03*
X0240031Y0149528D03*
D21*
X0294283Y0173622D03*
D22*
X0299106Y0151476D03*
X0250878Y0176083D03*
X0230770Y0100410D03*
X0230570Y0053691D03*
X0297635Y0100332D03*
D23*
X0169677Y0278685D03*
D24*
X0161803Y0278685D03*
X0153929Y0278685D03*
X0153929Y0270811D03*
X0161803Y0270811D03*
X0169677Y0270811D03*
X0146055Y0270811D03*
X0138181Y0270811D03*
X0130307Y0270811D03*
X0122433Y0270811D03*
X0114559Y0270811D03*
X0114559Y0278685D03*
X0122433Y0278685D03*
X0130307Y0278685D03*
X0138181Y0278685D03*
X0146055Y0278685D03*
X0106685Y0278685D03*
X0106685Y0270811D03*
X0098811Y0270811D03*
X0098811Y0278685D03*
D25*
X0066646Y0273685D03*
X0201646Y0273685D03*
X0201646Y0018685D03*
X0066646Y0018685D03*
D26*
X0040980Y0298175D03*
X0040980Y0301915D03*
X0040980Y0305656D03*
X0030350Y0305656D03*
X0030350Y0298175D03*
X0315350Y0298175D03*
X0315350Y0301915D03*
X0315350Y0305656D03*
X0325980Y0305656D03*
X0325980Y0298175D03*
D27*
X0333165Y0298175D03*
X0333165Y0305656D03*
X0341915Y0305656D03*
X0341915Y0298175D03*
X0314415Y0311925D03*
X0314415Y0319406D03*
X0265165Y0253906D03*
X0265165Y0246425D03*
X0255165Y0247906D03*
X0255165Y0240425D03*
X0246165Y0240425D03*
X0246165Y0247906D03*
X0041915Y0311925D03*
X0041915Y0319406D03*
X0021915Y0305656D03*
X0021915Y0298175D03*
X0013165Y0298175D03*
X0013165Y0305656D03*
D28*
X0262449Y0042165D03*
X0268354Y0042165D03*
X0274260Y0042165D03*
X0280165Y0042165D03*
D29*
X0290421Y0021693D03*
X0253374Y0021693D03*
D30*
X0316165Y0254449D03*
X0316165Y0260354D03*
X0316165Y0266260D03*
X0316165Y0272165D03*
D31*
X0336638Y0282421D03*
X0336638Y0245374D03*
D32*
X0307906Y0267165D03*
X0300425Y0267165D03*
X0300425Y0276165D03*
X0307906Y0276165D03*
X0272906Y0237165D03*
X0265425Y0237165D03*
D33*
X0252165Y0261165D03*
D34*
X0251181Y0266677D03*
X0249213Y0266677D03*
X0253150Y0266677D03*
X0255118Y0266677D03*
X0255118Y0255654D03*
X0253150Y0255654D03*
X0251181Y0255654D03*
X0249213Y0255654D03*
D35*
X0256500Y0278165D03*
X0265831Y0278165D03*
D36*
X0274154Y0281665D03*
X0274154Y0273165D03*
X0285177Y0273165D03*
X0285177Y0281665D03*
D37*
X0262740Y0217102D03*
X0262740Y0213165D03*
X0262740Y0209228D03*
X0253591Y0209228D03*
X0253591Y0213165D03*
X0253591Y0217102D03*
D38*
X0288717Y0227165D03*
X0307614Y0227165D03*
X0313717Y0211165D03*
X0332614Y0211165D03*
D39*
X0318165Y0190165D03*
X0318165Y0182165D03*
X0275165Y0204165D03*
X0275165Y0215165D03*
X0252665Y0222165D03*
X0252665Y0224165D03*
X0239165Y0219165D03*
X0239165Y0216165D03*
X0239165Y0213165D03*
X0239165Y0210165D03*
X0239165Y0197165D03*
X0239165Y0193165D03*
X0231165Y0193165D03*
X0231165Y0197165D03*
X0221165Y0210165D03*
X0221165Y0213165D03*
X0221165Y0216165D03*
X0221165Y0219165D03*
X0211165Y0205165D03*
X0212165Y0201165D03*
X0221165Y0182165D03*
X0228165Y0182165D03*
X0235165Y0104165D03*
X0235165Y0082165D03*
X0235165Y0078165D03*
X0235165Y0074165D03*
X0235165Y0070165D03*
X0228165Y0073165D03*
X0260165Y0078387D03*
X0261165Y0074165D03*
X0261165Y0070165D03*
X0260165Y0082165D03*
X0277165Y0064165D03*
X0292165Y0075165D03*
X0292165Y0084165D03*
X0298165Y0086165D03*
X0305165Y0100165D03*
X0239165Y0261165D03*
X0242165Y0264165D03*
X0242165Y0281165D03*
X0240165Y0281165D03*
X0238165Y0281165D03*
X0193165Y0286165D03*
X0183165Y0286165D03*
X0173165Y0286165D03*
X0163165Y0286165D03*
X0045665Y0301915D03*
X0045665Y0304415D03*
X0301165Y0286165D03*
X0303165Y0286165D03*
X0305165Y0286165D03*
X0310665Y0299415D03*
X0310665Y0301915D03*
D40*
X0313274Y0323272D03*
X0315774Y0323272D03*
X0340774Y0294522D03*
X0343274Y0294522D03*
X0319165Y0260665D03*
X0313165Y0260665D03*
X0291165Y0230165D03*
X0288165Y0230165D03*
X0285165Y0230165D03*
X0285165Y0224165D03*
X0288165Y0224165D03*
X0291165Y0224165D03*
X0330165Y0214165D03*
X0333165Y0214165D03*
X0336165Y0214165D03*
X0336165Y0208165D03*
X0333165Y0208165D03*
X0330165Y0208165D03*
X0268165Y0045665D03*
X0268165Y0038665D03*
X0014524Y0309522D03*
X0012024Y0309522D03*
X0040774Y0323272D03*
X0043274Y0323272D03*
D41*
X0249165Y0262665D03*
X0249165Y0259665D03*
X0252165Y0259665D03*
X0252165Y0262665D03*
X0255165Y0262665D03*
X0255165Y0259665D03*
D42*
X0253965Y0236665D03*
X0256465Y0236665D03*
X0247465Y0236665D03*
X0244965Y0236665D03*
X0287465Y0249665D03*
X0287465Y0252165D03*
X0287465Y0254665D03*
X0287465Y0257165D03*
X0287465Y0259665D03*
X0287465Y0262165D03*
X0287465Y0264665D03*
X0287465Y0267165D03*
X0290465Y0268665D03*
X0290465Y0271665D03*
X0290465Y0274665D03*
X0290465Y0277165D03*
X0290465Y0279665D03*
X0290465Y0282165D03*
M02*
