G75*
%MOIN*%
%OFA0B0*%
%FSLAX25Y25*%
%IPPOS*%
%LPD*%
%AMOC8*
5,1,8,0,0,1.08239X$1,22.5*
%
%ADD10C,0.05750*%
%ADD11C,0.00000*%
%ADD12C,0.15417*%
%ADD13C,0.07500*%
%ADD14C,0.04400*%
%ADD15C,0.06000*%
%ADD16C,0.02781*%
%ADD17C,0.02800*%
%ADD18C,0.02978*%
%ADD19C,0.03175*%
%ADD20C,0.03962*%
%ADD21C,0.04000*%
%ADD22C,0.01000*%
D10*
X0092608Y0305912D03*
X0102608Y0304912D03*
X0102608Y0314912D03*
X0092608Y0315912D03*
X0092608Y0325912D03*
X0102608Y0324912D03*
X0102608Y0334912D03*
X0092608Y0335912D03*
X0112608Y0334912D03*
X0112608Y0324912D03*
X0122608Y0324912D03*
X0122608Y0334912D03*
X0132608Y0334912D03*
X0132608Y0324912D03*
X0142608Y0324912D03*
X0142608Y0334912D03*
X0152608Y0334912D03*
X0152608Y0324912D03*
X0162608Y0324912D03*
X0162608Y0334912D03*
X0172608Y0334912D03*
X0172608Y0324912D03*
X0182608Y0324912D03*
X0182608Y0334912D03*
X0192608Y0334912D03*
X0192608Y0324912D03*
X0202608Y0324912D03*
X0202608Y0334912D03*
X0212608Y0334912D03*
X0212608Y0324912D03*
X0222608Y0324912D03*
X0222608Y0334912D03*
X0232608Y0334912D03*
X0232608Y0324912D03*
X0242608Y0324912D03*
X0242608Y0334912D03*
X0252608Y0334912D03*
X0252608Y0324912D03*
X0262608Y0324912D03*
X0262608Y0334912D03*
X0272608Y0334912D03*
X0272608Y0324912D03*
X0282608Y0324912D03*
X0282608Y0334912D03*
X0292608Y0334912D03*
X0292608Y0324912D03*
X0302608Y0324912D03*
X0302608Y0334912D03*
X0312608Y0334912D03*
X0312608Y0324912D03*
X0322608Y0324912D03*
X0322608Y0334912D03*
X0332608Y0334912D03*
X0332608Y0324912D03*
X0342608Y0325912D03*
X0342608Y0335912D03*
X0342608Y0315912D03*
X0332608Y0314912D03*
X0322608Y0314912D03*
X0312608Y0314912D03*
X0302608Y0314912D03*
X0292608Y0314912D03*
X0282608Y0314912D03*
X0272608Y0314912D03*
X0262608Y0314912D03*
X0252608Y0314912D03*
X0242608Y0314912D03*
X0232608Y0314912D03*
X0222608Y0314912D03*
X0212608Y0314912D03*
X0202608Y0314912D03*
X0192608Y0314912D03*
X0182608Y0314912D03*
X0172608Y0314912D03*
X0162608Y0314912D03*
X0152608Y0314912D03*
X0142608Y0314912D03*
X0132608Y0314912D03*
X0122608Y0314912D03*
X0112608Y0314912D03*
X0112608Y0304912D03*
X0122608Y0304912D03*
X0132608Y0304912D03*
X0142608Y0304912D03*
X0152608Y0304912D03*
X0162608Y0304912D03*
X0172608Y0304912D03*
X0182608Y0304912D03*
X0192608Y0304912D03*
X0202608Y0304912D03*
X0212608Y0304912D03*
X0222608Y0304912D03*
X0232608Y0304912D03*
X0242608Y0304912D03*
X0252608Y0304912D03*
X0262608Y0304912D03*
X0272608Y0304912D03*
X0282608Y0304912D03*
X0292608Y0304912D03*
X0302608Y0304912D03*
X0312608Y0304912D03*
X0322608Y0304912D03*
X0332608Y0304912D03*
X0342608Y0305912D03*
D11*
X0040443Y0336880D02*
X0040443Y0021920D01*
X0060128Y0002235D01*
X0375089Y0002235D01*
X0394774Y0021920D01*
X0394774Y0336880D01*
X0375089Y0356565D01*
X0060128Y0356565D01*
X0040443Y0336880D01*
X0147652Y0226010D02*
X0147654Y0226163D01*
X0147660Y0226317D01*
X0147670Y0226470D01*
X0147684Y0226622D01*
X0147702Y0226775D01*
X0147724Y0226926D01*
X0147749Y0227077D01*
X0147779Y0227228D01*
X0147813Y0227378D01*
X0147850Y0227526D01*
X0147891Y0227674D01*
X0147936Y0227820D01*
X0147985Y0227966D01*
X0148038Y0228110D01*
X0148094Y0228252D01*
X0148154Y0228393D01*
X0148218Y0228533D01*
X0148285Y0228671D01*
X0148356Y0228807D01*
X0148431Y0228941D01*
X0148508Y0229073D01*
X0148590Y0229203D01*
X0148674Y0229331D01*
X0148762Y0229457D01*
X0148853Y0229580D01*
X0148947Y0229701D01*
X0149045Y0229819D01*
X0149145Y0229935D01*
X0149249Y0230048D01*
X0149355Y0230159D01*
X0149464Y0230267D01*
X0149576Y0230372D01*
X0149690Y0230473D01*
X0149808Y0230572D01*
X0149927Y0230668D01*
X0150049Y0230761D01*
X0150174Y0230850D01*
X0150301Y0230937D01*
X0150430Y0231019D01*
X0150561Y0231099D01*
X0150694Y0231175D01*
X0150829Y0231248D01*
X0150966Y0231317D01*
X0151105Y0231382D01*
X0151245Y0231444D01*
X0151387Y0231502D01*
X0151530Y0231557D01*
X0151675Y0231608D01*
X0151821Y0231655D01*
X0151968Y0231698D01*
X0152116Y0231737D01*
X0152265Y0231773D01*
X0152415Y0231804D01*
X0152566Y0231832D01*
X0152717Y0231856D01*
X0152870Y0231876D01*
X0153022Y0231892D01*
X0153175Y0231904D01*
X0153328Y0231912D01*
X0153481Y0231916D01*
X0153635Y0231916D01*
X0153788Y0231912D01*
X0153941Y0231904D01*
X0154094Y0231892D01*
X0154246Y0231876D01*
X0154399Y0231856D01*
X0154550Y0231832D01*
X0154701Y0231804D01*
X0154851Y0231773D01*
X0155000Y0231737D01*
X0155148Y0231698D01*
X0155295Y0231655D01*
X0155441Y0231608D01*
X0155586Y0231557D01*
X0155729Y0231502D01*
X0155871Y0231444D01*
X0156011Y0231382D01*
X0156150Y0231317D01*
X0156287Y0231248D01*
X0156422Y0231175D01*
X0156555Y0231099D01*
X0156686Y0231019D01*
X0156815Y0230937D01*
X0156942Y0230850D01*
X0157067Y0230761D01*
X0157189Y0230668D01*
X0157308Y0230572D01*
X0157426Y0230473D01*
X0157540Y0230372D01*
X0157652Y0230267D01*
X0157761Y0230159D01*
X0157867Y0230048D01*
X0157971Y0229935D01*
X0158071Y0229819D01*
X0158169Y0229701D01*
X0158263Y0229580D01*
X0158354Y0229457D01*
X0158442Y0229331D01*
X0158526Y0229203D01*
X0158608Y0229073D01*
X0158685Y0228941D01*
X0158760Y0228807D01*
X0158831Y0228671D01*
X0158898Y0228533D01*
X0158962Y0228393D01*
X0159022Y0228252D01*
X0159078Y0228110D01*
X0159131Y0227966D01*
X0159180Y0227820D01*
X0159225Y0227674D01*
X0159266Y0227526D01*
X0159303Y0227378D01*
X0159337Y0227228D01*
X0159367Y0227077D01*
X0159392Y0226926D01*
X0159414Y0226775D01*
X0159432Y0226622D01*
X0159446Y0226470D01*
X0159456Y0226317D01*
X0159462Y0226163D01*
X0159464Y0226010D01*
X0159462Y0225857D01*
X0159456Y0225703D01*
X0159446Y0225550D01*
X0159432Y0225398D01*
X0159414Y0225245D01*
X0159392Y0225094D01*
X0159367Y0224943D01*
X0159337Y0224792D01*
X0159303Y0224642D01*
X0159266Y0224494D01*
X0159225Y0224346D01*
X0159180Y0224200D01*
X0159131Y0224054D01*
X0159078Y0223910D01*
X0159022Y0223768D01*
X0158962Y0223627D01*
X0158898Y0223487D01*
X0158831Y0223349D01*
X0158760Y0223213D01*
X0158685Y0223079D01*
X0158608Y0222947D01*
X0158526Y0222817D01*
X0158442Y0222689D01*
X0158354Y0222563D01*
X0158263Y0222440D01*
X0158169Y0222319D01*
X0158071Y0222201D01*
X0157971Y0222085D01*
X0157867Y0221972D01*
X0157761Y0221861D01*
X0157652Y0221753D01*
X0157540Y0221648D01*
X0157426Y0221547D01*
X0157308Y0221448D01*
X0157189Y0221352D01*
X0157067Y0221259D01*
X0156942Y0221170D01*
X0156815Y0221083D01*
X0156686Y0221001D01*
X0156555Y0220921D01*
X0156422Y0220845D01*
X0156287Y0220772D01*
X0156150Y0220703D01*
X0156011Y0220638D01*
X0155871Y0220576D01*
X0155729Y0220518D01*
X0155586Y0220463D01*
X0155441Y0220412D01*
X0155295Y0220365D01*
X0155148Y0220322D01*
X0155000Y0220283D01*
X0154851Y0220247D01*
X0154701Y0220216D01*
X0154550Y0220188D01*
X0154399Y0220164D01*
X0154246Y0220144D01*
X0154094Y0220128D01*
X0153941Y0220116D01*
X0153788Y0220108D01*
X0153635Y0220104D01*
X0153481Y0220104D01*
X0153328Y0220108D01*
X0153175Y0220116D01*
X0153022Y0220128D01*
X0152870Y0220144D01*
X0152717Y0220164D01*
X0152566Y0220188D01*
X0152415Y0220216D01*
X0152265Y0220247D01*
X0152116Y0220283D01*
X0151968Y0220322D01*
X0151821Y0220365D01*
X0151675Y0220412D01*
X0151530Y0220463D01*
X0151387Y0220518D01*
X0151245Y0220576D01*
X0151105Y0220638D01*
X0150966Y0220703D01*
X0150829Y0220772D01*
X0150694Y0220845D01*
X0150561Y0220921D01*
X0150430Y0221001D01*
X0150301Y0221083D01*
X0150174Y0221170D01*
X0150049Y0221259D01*
X0149927Y0221352D01*
X0149808Y0221448D01*
X0149690Y0221547D01*
X0149576Y0221648D01*
X0149464Y0221753D01*
X0149355Y0221861D01*
X0149249Y0221972D01*
X0149145Y0222085D01*
X0149045Y0222201D01*
X0148947Y0222319D01*
X0148853Y0222440D01*
X0148762Y0222563D01*
X0148674Y0222689D01*
X0148590Y0222817D01*
X0148508Y0222947D01*
X0148431Y0223079D01*
X0148356Y0223213D01*
X0148285Y0223349D01*
X0148218Y0223487D01*
X0148154Y0223627D01*
X0148094Y0223768D01*
X0148038Y0223910D01*
X0147985Y0224054D01*
X0147936Y0224200D01*
X0147891Y0224346D01*
X0147850Y0224494D01*
X0147813Y0224642D01*
X0147779Y0224792D01*
X0147749Y0224943D01*
X0147724Y0225094D01*
X0147702Y0225245D01*
X0147684Y0225398D01*
X0147670Y0225550D01*
X0147660Y0225703D01*
X0147654Y0225857D01*
X0147652Y0226010D01*
X0147682Y0128800D02*
X0147684Y0128953D01*
X0147690Y0129107D01*
X0147700Y0129260D01*
X0147714Y0129412D01*
X0147732Y0129565D01*
X0147754Y0129716D01*
X0147779Y0129867D01*
X0147809Y0130018D01*
X0147843Y0130168D01*
X0147880Y0130316D01*
X0147921Y0130464D01*
X0147966Y0130610D01*
X0148015Y0130756D01*
X0148068Y0130900D01*
X0148124Y0131042D01*
X0148184Y0131183D01*
X0148248Y0131323D01*
X0148315Y0131461D01*
X0148386Y0131597D01*
X0148461Y0131731D01*
X0148538Y0131863D01*
X0148620Y0131993D01*
X0148704Y0132121D01*
X0148792Y0132247D01*
X0148883Y0132370D01*
X0148977Y0132491D01*
X0149075Y0132609D01*
X0149175Y0132725D01*
X0149279Y0132838D01*
X0149385Y0132949D01*
X0149494Y0133057D01*
X0149606Y0133162D01*
X0149720Y0133263D01*
X0149838Y0133362D01*
X0149957Y0133458D01*
X0150079Y0133551D01*
X0150204Y0133640D01*
X0150331Y0133727D01*
X0150460Y0133809D01*
X0150591Y0133889D01*
X0150724Y0133965D01*
X0150859Y0134038D01*
X0150996Y0134107D01*
X0151135Y0134172D01*
X0151275Y0134234D01*
X0151417Y0134292D01*
X0151560Y0134347D01*
X0151705Y0134398D01*
X0151851Y0134445D01*
X0151998Y0134488D01*
X0152146Y0134527D01*
X0152295Y0134563D01*
X0152445Y0134594D01*
X0152596Y0134622D01*
X0152747Y0134646D01*
X0152900Y0134666D01*
X0153052Y0134682D01*
X0153205Y0134694D01*
X0153358Y0134702D01*
X0153511Y0134706D01*
X0153665Y0134706D01*
X0153818Y0134702D01*
X0153971Y0134694D01*
X0154124Y0134682D01*
X0154276Y0134666D01*
X0154429Y0134646D01*
X0154580Y0134622D01*
X0154731Y0134594D01*
X0154881Y0134563D01*
X0155030Y0134527D01*
X0155178Y0134488D01*
X0155325Y0134445D01*
X0155471Y0134398D01*
X0155616Y0134347D01*
X0155759Y0134292D01*
X0155901Y0134234D01*
X0156041Y0134172D01*
X0156180Y0134107D01*
X0156317Y0134038D01*
X0156452Y0133965D01*
X0156585Y0133889D01*
X0156716Y0133809D01*
X0156845Y0133727D01*
X0156972Y0133640D01*
X0157097Y0133551D01*
X0157219Y0133458D01*
X0157338Y0133362D01*
X0157456Y0133263D01*
X0157570Y0133162D01*
X0157682Y0133057D01*
X0157791Y0132949D01*
X0157897Y0132838D01*
X0158001Y0132725D01*
X0158101Y0132609D01*
X0158199Y0132491D01*
X0158293Y0132370D01*
X0158384Y0132247D01*
X0158472Y0132121D01*
X0158556Y0131993D01*
X0158638Y0131863D01*
X0158715Y0131731D01*
X0158790Y0131597D01*
X0158861Y0131461D01*
X0158928Y0131323D01*
X0158992Y0131183D01*
X0159052Y0131042D01*
X0159108Y0130900D01*
X0159161Y0130756D01*
X0159210Y0130610D01*
X0159255Y0130464D01*
X0159296Y0130316D01*
X0159333Y0130168D01*
X0159367Y0130018D01*
X0159397Y0129867D01*
X0159422Y0129716D01*
X0159444Y0129565D01*
X0159462Y0129412D01*
X0159476Y0129260D01*
X0159486Y0129107D01*
X0159492Y0128953D01*
X0159494Y0128800D01*
X0159492Y0128647D01*
X0159486Y0128493D01*
X0159476Y0128340D01*
X0159462Y0128188D01*
X0159444Y0128035D01*
X0159422Y0127884D01*
X0159397Y0127733D01*
X0159367Y0127582D01*
X0159333Y0127432D01*
X0159296Y0127284D01*
X0159255Y0127136D01*
X0159210Y0126990D01*
X0159161Y0126844D01*
X0159108Y0126700D01*
X0159052Y0126558D01*
X0158992Y0126417D01*
X0158928Y0126277D01*
X0158861Y0126139D01*
X0158790Y0126003D01*
X0158715Y0125869D01*
X0158638Y0125737D01*
X0158556Y0125607D01*
X0158472Y0125479D01*
X0158384Y0125353D01*
X0158293Y0125230D01*
X0158199Y0125109D01*
X0158101Y0124991D01*
X0158001Y0124875D01*
X0157897Y0124762D01*
X0157791Y0124651D01*
X0157682Y0124543D01*
X0157570Y0124438D01*
X0157456Y0124337D01*
X0157338Y0124238D01*
X0157219Y0124142D01*
X0157097Y0124049D01*
X0156972Y0123960D01*
X0156845Y0123873D01*
X0156716Y0123791D01*
X0156585Y0123711D01*
X0156452Y0123635D01*
X0156317Y0123562D01*
X0156180Y0123493D01*
X0156041Y0123428D01*
X0155901Y0123366D01*
X0155759Y0123308D01*
X0155616Y0123253D01*
X0155471Y0123202D01*
X0155325Y0123155D01*
X0155178Y0123112D01*
X0155030Y0123073D01*
X0154881Y0123037D01*
X0154731Y0123006D01*
X0154580Y0122978D01*
X0154429Y0122954D01*
X0154276Y0122934D01*
X0154124Y0122918D01*
X0153971Y0122906D01*
X0153818Y0122898D01*
X0153665Y0122894D01*
X0153511Y0122894D01*
X0153358Y0122898D01*
X0153205Y0122906D01*
X0153052Y0122918D01*
X0152900Y0122934D01*
X0152747Y0122954D01*
X0152596Y0122978D01*
X0152445Y0123006D01*
X0152295Y0123037D01*
X0152146Y0123073D01*
X0151998Y0123112D01*
X0151851Y0123155D01*
X0151705Y0123202D01*
X0151560Y0123253D01*
X0151417Y0123308D01*
X0151275Y0123366D01*
X0151135Y0123428D01*
X0150996Y0123493D01*
X0150859Y0123562D01*
X0150724Y0123635D01*
X0150591Y0123711D01*
X0150460Y0123791D01*
X0150331Y0123873D01*
X0150204Y0123960D01*
X0150079Y0124049D01*
X0149957Y0124142D01*
X0149838Y0124238D01*
X0149720Y0124337D01*
X0149606Y0124438D01*
X0149494Y0124543D01*
X0149385Y0124651D01*
X0149279Y0124762D01*
X0149175Y0124875D01*
X0149075Y0124991D01*
X0148977Y0125109D01*
X0148883Y0125230D01*
X0148792Y0125353D01*
X0148704Y0125479D01*
X0148620Y0125607D01*
X0148538Y0125737D01*
X0148461Y0125869D01*
X0148386Y0126003D01*
X0148315Y0126139D01*
X0148248Y0126277D01*
X0148184Y0126417D01*
X0148124Y0126558D01*
X0148068Y0126700D01*
X0148015Y0126844D01*
X0147966Y0126990D01*
X0147921Y0127136D01*
X0147880Y0127284D01*
X0147843Y0127432D01*
X0147809Y0127582D01*
X0147779Y0127733D01*
X0147754Y0127884D01*
X0147732Y0128035D01*
X0147714Y0128188D01*
X0147700Y0128340D01*
X0147690Y0128493D01*
X0147684Y0128647D01*
X0147682Y0128800D01*
X0319722Y0128770D02*
X0319724Y0128923D01*
X0319730Y0129077D01*
X0319740Y0129230D01*
X0319754Y0129382D01*
X0319772Y0129535D01*
X0319794Y0129686D01*
X0319819Y0129837D01*
X0319849Y0129988D01*
X0319883Y0130138D01*
X0319920Y0130286D01*
X0319961Y0130434D01*
X0320006Y0130580D01*
X0320055Y0130726D01*
X0320108Y0130870D01*
X0320164Y0131012D01*
X0320224Y0131153D01*
X0320288Y0131293D01*
X0320355Y0131431D01*
X0320426Y0131567D01*
X0320501Y0131701D01*
X0320578Y0131833D01*
X0320660Y0131963D01*
X0320744Y0132091D01*
X0320832Y0132217D01*
X0320923Y0132340D01*
X0321017Y0132461D01*
X0321115Y0132579D01*
X0321215Y0132695D01*
X0321319Y0132808D01*
X0321425Y0132919D01*
X0321534Y0133027D01*
X0321646Y0133132D01*
X0321760Y0133233D01*
X0321878Y0133332D01*
X0321997Y0133428D01*
X0322119Y0133521D01*
X0322244Y0133610D01*
X0322371Y0133697D01*
X0322500Y0133779D01*
X0322631Y0133859D01*
X0322764Y0133935D01*
X0322899Y0134008D01*
X0323036Y0134077D01*
X0323175Y0134142D01*
X0323315Y0134204D01*
X0323457Y0134262D01*
X0323600Y0134317D01*
X0323745Y0134368D01*
X0323891Y0134415D01*
X0324038Y0134458D01*
X0324186Y0134497D01*
X0324335Y0134533D01*
X0324485Y0134564D01*
X0324636Y0134592D01*
X0324787Y0134616D01*
X0324940Y0134636D01*
X0325092Y0134652D01*
X0325245Y0134664D01*
X0325398Y0134672D01*
X0325551Y0134676D01*
X0325705Y0134676D01*
X0325858Y0134672D01*
X0326011Y0134664D01*
X0326164Y0134652D01*
X0326316Y0134636D01*
X0326469Y0134616D01*
X0326620Y0134592D01*
X0326771Y0134564D01*
X0326921Y0134533D01*
X0327070Y0134497D01*
X0327218Y0134458D01*
X0327365Y0134415D01*
X0327511Y0134368D01*
X0327656Y0134317D01*
X0327799Y0134262D01*
X0327941Y0134204D01*
X0328081Y0134142D01*
X0328220Y0134077D01*
X0328357Y0134008D01*
X0328492Y0133935D01*
X0328625Y0133859D01*
X0328756Y0133779D01*
X0328885Y0133697D01*
X0329012Y0133610D01*
X0329137Y0133521D01*
X0329259Y0133428D01*
X0329378Y0133332D01*
X0329496Y0133233D01*
X0329610Y0133132D01*
X0329722Y0133027D01*
X0329831Y0132919D01*
X0329937Y0132808D01*
X0330041Y0132695D01*
X0330141Y0132579D01*
X0330239Y0132461D01*
X0330333Y0132340D01*
X0330424Y0132217D01*
X0330512Y0132091D01*
X0330596Y0131963D01*
X0330678Y0131833D01*
X0330755Y0131701D01*
X0330830Y0131567D01*
X0330901Y0131431D01*
X0330968Y0131293D01*
X0331032Y0131153D01*
X0331092Y0131012D01*
X0331148Y0130870D01*
X0331201Y0130726D01*
X0331250Y0130580D01*
X0331295Y0130434D01*
X0331336Y0130286D01*
X0331373Y0130138D01*
X0331407Y0129988D01*
X0331437Y0129837D01*
X0331462Y0129686D01*
X0331484Y0129535D01*
X0331502Y0129382D01*
X0331516Y0129230D01*
X0331526Y0129077D01*
X0331532Y0128923D01*
X0331534Y0128770D01*
X0331532Y0128617D01*
X0331526Y0128463D01*
X0331516Y0128310D01*
X0331502Y0128158D01*
X0331484Y0128005D01*
X0331462Y0127854D01*
X0331437Y0127703D01*
X0331407Y0127552D01*
X0331373Y0127402D01*
X0331336Y0127254D01*
X0331295Y0127106D01*
X0331250Y0126960D01*
X0331201Y0126814D01*
X0331148Y0126670D01*
X0331092Y0126528D01*
X0331032Y0126387D01*
X0330968Y0126247D01*
X0330901Y0126109D01*
X0330830Y0125973D01*
X0330755Y0125839D01*
X0330678Y0125707D01*
X0330596Y0125577D01*
X0330512Y0125449D01*
X0330424Y0125323D01*
X0330333Y0125200D01*
X0330239Y0125079D01*
X0330141Y0124961D01*
X0330041Y0124845D01*
X0329937Y0124732D01*
X0329831Y0124621D01*
X0329722Y0124513D01*
X0329610Y0124408D01*
X0329496Y0124307D01*
X0329378Y0124208D01*
X0329259Y0124112D01*
X0329137Y0124019D01*
X0329012Y0123930D01*
X0328885Y0123843D01*
X0328756Y0123761D01*
X0328625Y0123681D01*
X0328492Y0123605D01*
X0328357Y0123532D01*
X0328220Y0123463D01*
X0328081Y0123398D01*
X0327941Y0123336D01*
X0327799Y0123278D01*
X0327656Y0123223D01*
X0327511Y0123172D01*
X0327365Y0123125D01*
X0327218Y0123082D01*
X0327070Y0123043D01*
X0326921Y0123007D01*
X0326771Y0122976D01*
X0326620Y0122948D01*
X0326469Y0122924D01*
X0326316Y0122904D01*
X0326164Y0122888D01*
X0326011Y0122876D01*
X0325858Y0122868D01*
X0325705Y0122864D01*
X0325551Y0122864D01*
X0325398Y0122868D01*
X0325245Y0122876D01*
X0325092Y0122888D01*
X0324940Y0122904D01*
X0324787Y0122924D01*
X0324636Y0122948D01*
X0324485Y0122976D01*
X0324335Y0123007D01*
X0324186Y0123043D01*
X0324038Y0123082D01*
X0323891Y0123125D01*
X0323745Y0123172D01*
X0323600Y0123223D01*
X0323457Y0123278D01*
X0323315Y0123336D01*
X0323175Y0123398D01*
X0323036Y0123463D01*
X0322899Y0123532D01*
X0322764Y0123605D01*
X0322631Y0123681D01*
X0322500Y0123761D01*
X0322371Y0123843D01*
X0322244Y0123930D01*
X0322119Y0124019D01*
X0321997Y0124112D01*
X0321878Y0124208D01*
X0321760Y0124307D01*
X0321646Y0124408D01*
X0321534Y0124513D01*
X0321425Y0124621D01*
X0321319Y0124732D01*
X0321215Y0124845D01*
X0321115Y0124961D01*
X0321017Y0125079D01*
X0320923Y0125200D01*
X0320832Y0125323D01*
X0320744Y0125449D01*
X0320660Y0125577D01*
X0320578Y0125707D01*
X0320501Y0125839D01*
X0320426Y0125973D01*
X0320355Y0126109D01*
X0320288Y0126247D01*
X0320224Y0126387D01*
X0320164Y0126528D01*
X0320108Y0126670D01*
X0320055Y0126814D01*
X0320006Y0126960D01*
X0319961Y0127106D01*
X0319920Y0127254D01*
X0319883Y0127402D01*
X0319849Y0127552D01*
X0319819Y0127703D01*
X0319794Y0127854D01*
X0319772Y0128005D01*
X0319754Y0128158D01*
X0319740Y0128310D01*
X0319730Y0128463D01*
X0319724Y0128617D01*
X0319722Y0128770D01*
X0319722Y0226030D02*
X0319724Y0226183D01*
X0319730Y0226337D01*
X0319740Y0226490D01*
X0319754Y0226642D01*
X0319772Y0226795D01*
X0319794Y0226946D01*
X0319819Y0227097D01*
X0319849Y0227248D01*
X0319883Y0227398D01*
X0319920Y0227546D01*
X0319961Y0227694D01*
X0320006Y0227840D01*
X0320055Y0227986D01*
X0320108Y0228130D01*
X0320164Y0228272D01*
X0320224Y0228413D01*
X0320288Y0228553D01*
X0320355Y0228691D01*
X0320426Y0228827D01*
X0320501Y0228961D01*
X0320578Y0229093D01*
X0320660Y0229223D01*
X0320744Y0229351D01*
X0320832Y0229477D01*
X0320923Y0229600D01*
X0321017Y0229721D01*
X0321115Y0229839D01*
X0321215Y0229955D01*
X0321319Y0230068D01*
X0321425Y0230179D01*
X0321534Y0230287D01*
X0321646Y0230392D01*
X0321760Y0230493D01*
X0321878Y0230592D01*
X0321997Y0230688D01*
X0322119Y0230781D01*
X0322244Y0230870D01*
X0322371Y0230957D01*
X0322500Y0231039D01*
X0322631Y0231119D01*
X0322764Y0231195D01*
X0322899Y0231268D01*
X0323036Y0231337D01*
X0323175Y0231402D01*
X0323315Y0231464D01*
X0323457Y0231522D01*
X0323600Y0231577D01*
X0323745Y0231628D01*
X0323891Y0231675D01*
X0324038Y0231718D01*
X0324186Y0231757D01*
X0324335Y0231793D01*
X0324485Y0231824D01*
X0324636Y0231852D01*
X0324787Y0231876D01*
X0324940Y0231896D01*
X0325092Y0231912D01*
X0325245Y0231924D01*
X0325398Y0231932D01*
X0325551Y0231936D01*
X0325705Y0231936D01*
X0325858Y0231932D01*
X0326011Y0231924D01*
X0326164Y0231912D01*
X0326316Y0231896D01*
X0326469Y0231876D01*
X0326620Y0231852D01*
X0326771Y0231824D01*
X0326921Y0231793D01*
X0327070Y0231757D01*
X0327218Y0231718D01*
X0327365Y0231675D01*
X0327511Y0231628D01*
X0327656Y0231577D01*
X0327799Y0231522D01*
X0327941Y0231464D01*
X0328081Y0231402D01*
X0328220Y0231337D01*
X0328357Y0231268D01*
X0328492Y0231195D01*
X0328625Y0231119D01*
X0328756Y0231039D01*
X0328885Y0230957D01*
X0329012Y0230870D01*
X0329137Y0230781D01*
X0329259Y0230688D01*
X0329378Y0230592D01*
X0329496Y0230493D01*
X0329610Y0230392D01*
X0329722Y0230287D01*
X0329831Y0230179D01*
X0329937Y0230068D01*
X0330041Y0229955D01*
X0330141Y0229839D01*
X0330239Y0229721D01*
X0330333Y0229600D01*
X0330424Y0229477D01*
X0330512Y0229351D01*
X0330596Y0229223D01*
X0330678Y0229093D01*
X0330755Y0228961D01*
X0330830Y0228827D01*
X0330901Y0228691D01*
X0330968Y0228553D01*
X0331032Y0228413D01*
X0331092Y0228272D01*
X0331148Y0228130D01*
X0331201Y0227986D01*
X0331250Y0227840D01*
X0331295Y0227694D01*
X0331336Y0227546D01*
X0331373Y0227398D01*
X0331407Y0227248D01*
X0331437Y0227097D01*
X0331462Y0226946D01*
X0331484Y0226795D01*
X0331502Y0226642D01*
X0331516Y0226490D01*
X0331526Y0226337D01*
X0331532Y0226183D01*
X0331534Y0226030D01*
X0331532Y0225877D01*
X0331526Y0225723D01*
X0331516Y0225570D01*
X0331502Y0225418D01*
X0331484Y0225265D01*
X0331462Y0225114D01*
X0331437Y0224963D01*
X0331407Y0224812D01*
X0331373Y0224662D01*
X0331336Y0224514D01*
X0331295Y0224366D01*
X0331250Y0224220D01*
X0331201Y0224074D01*
X0331148Y0223930D01*
X0331092Y0223788D01*
X0331032Y0223647D01*
X0330968Y0223507D01*
X0330901Y0223369D01*
X0330830Y0223233D01*
X0330755Y0223099D01*
X0330678Y0222967D01*
X0330596Y0222837D01*
X0330512Y0222709D01*
X0330424Y0222583D01*
X0330333Y0222460D01*
X0330239Y0222339D01*
X0330141Y0222221D01*
X0330041Y0222105D01*
X0329937Y0221992D01*
X0329831Y0221881D01*
X0329722Y0221773D01*
X0329610Y0221668D01*
X0329496Y0221567D01*
X0329378Y0221468D01*
X0329259Y0221372D01*
X0329137Y0221279D01*
X0329012Y0221190D01*
X0328885Y0221103D01*
X0328756Y0221021D01*
X0328625Y0220941D01*
X0328492Y0220865D01*
X0328357Y0220792D01*
X0328220Y0220723D01*
X0328081Y0220658D01*
X0327941Y0220596D01*
X0327799Y0220538D01*
X0327656Y0220483D01*
X0327511Y0220432D01*
X0327365Y0220385D01*
X0327218Y0220342D01*
X0327070Y0220303D01*
X0326921Y0220267D01*
X0326771Y0220236D01*
X0326620Y0220208D01*
X0326469Y0220184D01*
X0326316Y0220164D01*
X0326164Y0220148D01*
X0326011Y0220136D01*
X0325858Y0220128D01*
X0325705Y0220124D01*
X0325551Y0220124D01*
X0325398Y0220128D01*
X0325245Y0220136D01*
X0325092Y0220148D01*
X0324940Y0220164D01*
X0324787Y0220184D01*
X0324636Y0220208D01*
X0324485Y0220236D01*
X0324335Y0220267D01*
X0324186Y0220303D01*
X0324038Y0220342D01*
X0323891Y0220385D01*
X0323745Y0220432D01*
X0323600Y0220483D01*
X0323457Y0220538D01*
X0323315Y0220596D01*
X0323175Y0220658D01*
X0323036Y0220723D01*
X0322899Y0220792D01*
X0322764Y0220865D01*
X0322631Y0220941D01*
X0322500Y0221021D01*
X0322371Y0221103D01*
X0322244Y0221190D01*
X0322119Y0221279D01*
X0321997Y0221372D01*
X0321878Y0221468D01*
X0321760Y0221567D01*
X0321646Y0221668D01*
X0321534Y0221773D01*
X0321425Y0221881D01*
X0321319Y0221992D01*
X0321215Y0222105D01*
X0321115Y0222221D01*
X0321017Y0222339D01*
X0320923Y0222460D01*
X0320832Y0222583D01*
X0320744Y0222709D01*
X0320660Y0222837D01*
X0320578Y0222967D01*
X0320501Y0223099D01*
X0320426Y0223233D01*
X0320355Y0223369D01*
X0320288Y0223507D01*
X0320224Y0223647D01*
X0320164Y0223788D01*
X0320108Y0223930D01*
X0320055Y0224074D01*
X0320006Y0224220D01*
X0319961Y0224366D01*
X0319920Y0224514D01*
X0319883Y0224662D01*
X0319849Y0224812D01*
X0319819Y0224963D01*
X0319794Y0225114D01*
X0319772Y0225265D01*
X0319754Y0225418D01*
X0319740Y0225570D01*
X0319730Y0225723D01*
X0319724Y0225877D01*
X0319722Y0226030D01*
D12*
X0373120Y0334912D03*
X0062096Y0334912D03*
X0062096Y0023888D03*
X0373120Y0023888D03*
D13*
X0384608Y0272400D03*
X0369608Y0282400D03*
D14*
X0299949Y0228530D03*
X0300048Y0221050D03*
X0284201Y0203431D03*
X0271406Y0220164D03*
X0264516Y0238865D03*
X0253689Y0230006D03*
X0243847Y0238865D03*
X0234004Y0233943D03*
X0232036Y0221148D03*
X0232036Y0209337D03*
X0251145Y0197918D03*
X0247523Y0191670D03*
X0242508Y0184150D03*
X0242508Y0176650D03*
X0234004Y0176857D03*
X0219241Y0175872D03*
X0255058Y0205400D03*
X0290107Y0174888D03*
X0287646Y0170459D03*
X0298965Y0164061D03*
X0186760Y0234928D03*
X0171012Y0233943D03*
D15*
X0180108Y0166000D03*
X0190108Y0165000D03*
X0200108Y0166000D03*
X0210108Y0165000D03*
X0170108Y0165000D03*
X0160108Y0166000D03*
X0150108Y0165000D03*
X0140108Y0166000D03*
D16*
X0181441Y0153365D03*
X0181441Y0151365D03*
X0194004Y0132433D03*
X0195972Y0132433D03*
X0197941Y0132433D03*
X0199909Y0132433D03*
X0201878Y0132433D03*
X0205303Y0130465D03*
X0212608Y0125456D03*
X0212608Y0122700D03*
X0210108Y0116200D03*
X0210108Y0114100D03*
X0233017Y0132296D03*
X0234985Y0132296D03*
X0236954Y0132296D03*
X0238922Y0132296D03*
X0240891Y0132296D03*
X0242859Y0132296D03*
X0245110Y0130308D03*
X0252608Y0125356D03*
X0252608Y0122600D03*
X0252508Y0117200D03*
X0252508Y0115000D03*
X0272781Y0133477D03*
X0274749Y0133477D03*
X0277111Y0133477D03*
X0279080Y0133477D03*
X0281048Y0133477D03*
X0283017Y0133477D03*
X0287908Y0116400D03*
X0287908Y0114300D03*
X0294993Y0032877D03*
X0297355Y0031696D03*
X0299323Y0030121D03*
X0297355Y0028350D03*
X0294599Y0027169D03*
X0294796Y0030121D03*
X0301095Y0028153D03*
X0302867Y0030121D03*
X0304835Y0028350D03*
X0307197Y0029924D03*
X0308182Y0032483D03*
X0304835Y0032090D03*
X0301095Y0032090D03*
X0308182Y0027050D03*
X0310622Y0029846D03*
X0247630Y0029846D03*
X0244205Y0029924D03*
X0245189Y0032483D03*
X0241843Y0032090D03*
X0239874Y0030121D03*
X0238103Y0028153D03*
X0236331Y0030121D03*
X0234363Y0031696D03*
X0232000Y0032877D03*
X0231804Y0030121D03*
X0231607Y0027169D03*
X0234363Y0028350D03*
X0238103Y0032090D03*
X0241843Y0028350D03*
X0245189Y0027050D03*
X0184638Y0029846D03*
X0181213Y0029924D03*
X0182197Y0032483D03*
X0178851Y0032090D03*
X0176882Y0030121D03*
X0175111Y0028153D03*
X0173339Y0030121D03*
X0171370Y0031696D03*
X0169008Y0032877D03*
X0168811Y0030121D03*
X0168615Y0027169D03*
X0171370Y0028350D03*
X0175111Y0032090D03*
X0178851Y0028350D03*
X0182197Y0027050D03*
D17*
X0290808Y0122600D03*
X0290808Y0125356D03*
D18*
X0300608Y0123650D03*
X0303108Y0127111D03*
X0300608Y0136400D03*
X0301608Y0140400D03*
X0308600Y0143227D03*
X0314506Y0133384D03*
X0261858Y0124872D03*
X0260608Y0128650D03*
X0226858Y0153650D03*
X0226858Y0158611D03*
X0217415Y0191150D03*
X0211858Y0191150D03*
X0195608Y0189900D03*
X0190608Y0189900D03*
X0273167Y0202282D03*
X0283010Y0219998D03*
X0241514Y0280494D03*
X0245514Y0281494D03*
X0331858Y0293650D03*
X0331858Y0296150D03*
X0350608Y0303650D03*
X0350608Y0306150D03*
X0353217Y0327506D03*
X0355717Y0327506D03*
X0380717Y0298756D03*
X0383217Y0298756D03*
X0121307Y0274142D03*
X0121339Y0272174D03*
X0119701Y0276111D03*
X0083608Y0304650D03*
X0083608Y0307150D03*
X0073608Y0296400D03*
X0071608Y0296400D03*
X0069608Y0296400D03*
X0052467Y0311256D03*
X0049967Y0311256D03*
X0078717Y0326006D03*
X0081217Y0326006D03*
D19*
X0081308Y0290900D03*
X0083808Y0290900D03*
X0090308Y0290900D03*
X0092808Y0290900D03*
X0088608Y0267900D03*
X0085608Y0267900D03*
X0082608Y0267900D03*
X0082608Y0264900D03*
X0085608Y0264900D03*
X0088608Y0264900D03*
X0088608Y0242459D03*
X0091364Y0242459D03*
X0096876Y0242459D03*
X0099632Y0242459D03*
X0050308Y0244900D03*
X0050308Y0247400D03*
X0050308Y0249900D03*
X0050308Y0252400D03*
X0050308Y0254900D03*
X0050308Y0257400D03*
X0050308Y0259900D03*
X0050308Y0262400D03*
X0050308Y0264900D03*
X0050308Y0267400D03*
X0050308Y0269900D03*
X0047308Y0244900D03*
X0047308Y0242400D03*
X0047308Y0239900D03*
X0047308Y0237400D03*
D20*
X0056632Y0172754D03*
X0056632Y0168817D03*
X0056632Y0164880D03*
X0060569Y0164880D03*
X0064506Y0164880D03*
X0068443Y0164880D03*
X0072380Y0164880D03*
X0072380Y0168817D03*
X0068443Y0168817D03*
X0064506Y0168817D03*
X0060569Y0168817D03*
X0060569Y0172754D03*
X0064506Y0172754D03*
X0068443Y0172754D03*
X0072380Y0172754D03*
X0204270Y0115668D03*
X0204270Y0111731D03*
X0204270Y0107794D03*
X0214112Y0135353D03*
X0214112Y0139290D03*
X0210175Y0139290D03*
X0245608Y0113699D03*
X0249545Y0137321D03*
X0228654Y0045672D03*
X0224914Y0045672D03*
X0224914Y0041735D03*
X0228654Y0041735D03*
X0220977Y0041735D03*
X0206238Y0032991D03*
X0206238Y0029054D03*
X0202301Y0029054D03*
X0202301Y0025117D03*
X0206238Y0025117D03*
X0195830Y0018340D03*
X0191893Y0018340D03*
X0191893Y0014403D03*
X0191893Y0010466D03*
X0195830Y0010466D03*
X0195830Y0014403D03*
X0185780Y0026735D03*
X0185898Y0032759D03*
X0176711Y0019211D03*
X0172774Y0019211D03*
X0172774Y0015274D03*
X0172774Y0011337D03*
X0168837Y0011337D03*
X0168837Y0015274D03*
X0165859Y0023231D03*
X0161725Y0023231D03*
X0161922Y0041735D03*
X0165662Y0041735D03*
X0165662Y0045672D03*
X0161922Y0045672D03*
X0157985Y0041735D03*
X0224717Y0023231D03*
X0228851Y0023231D03*
X0235766Y0019211D03*
X0239703Y0019211D03*
X0235766Y0015274D03*
X0235766Y0011337D03*
X0231829Y0011337D03*
X0231829Y0015274D03*
X0248772Y0026735D03*
X0248890Y0032759D03*
X0254885Y0018340D03*
X0258822Y0018340D03*
X0258822Y0014403D03*
X0254885Y0014403D03*
X0254885Y0010466D03*
X0258822Y0010466D03*
X0267262Y0025117D03*
X0267262Y0029054D03*
X0271199Y0029054D03*
X0271199Y0025117D03*
X0271199Y0032991D03*
X0283969Y0041735D03*
X0287906Y0041735D03*
X0291646Y0041735D03*
X0291646Y0045672D03*
X0287906Y0045672D03*
X0287709Y0023231D03*
X0291843Y0023231D03*
X0298758Y0019211D03*
X0302695Y0019211D03*
X0298758Y0015274D03*
X0298758Y0011337D03*
X0294821Y0011337D03*
X0294821Y0015274D03*
X0311764Y0026735D03*
X0311882Y0032759D03*
X0317878Y0018340D03*
X0321815Y0018340D03*
X0321815Y0014403D03*
X0321815Y0010466D03*
X0317878Y0010466D03*
X0317878Y0014403D03*
X0330254Y0025117D03*
X0330254Y0029054D03*
X0334191Y0029054D03*
X0334191Y0025117D03*
X0334191Y0032991D03*
D21*
X0267262Y0109762D02*
X0249545Y0109762D01*
X0245608Y0113699D01*
X0267262Y0109762D02*
X0267262Y0217237D01*
X0259516Y0224982D01*
X0259516Y0237587D01*
X0213128Y0283975D01*
X0213128Y0283975D01*
X0208207Y0288896D01*
X0208207Y0296770D01*
X0182608Y0304912D02*
X0182608Y0237847D01*
X0181760Y0236999D01*
X0181760Y0192550D01*
X0203511Y0170800D01*
X0212511Y0170800D01*
X0215908Y0167402D01*
X0215908Y0162598D01*
X0182608Y0129298D01*
X0182608Y0123550D01*
X0190490Y0115668D01*
X0201445Y0115668D01*
X0202289Y0116512D01*
X0204270Y0116512D01*
X0204270Y0115668D02*
X0204270Y0107794D01*
X0182608Y0304912D02*
X0182608Y0314912D01*
D22*
X0176711Y0320392D02*
X0196396Y0320392D01*
X0198364Y0318424D01*
X0198364Y0286928D01*
X0218049Y0286928D01*
X0218049Y0340077D01*
X0176711Y0340077D01*
X0176711Y0335918D01*
X0176783Y0335742D01*
X0176783Y0334081D01*
X0176711Y0333906D01*
X0176711Y0325918D01*
X0176783Y0325742D01*
X0176783Y0324081D01*
X0176711Y0323906D01*
X0176711Y0320392D01*
X0176711Y0320933D02*
X0191305Y0320933D01*
X0191778Y0320737D02*
X0190243Y0321372D01*
X0189069Y0322547D01*
X0188433Y0324081D01*
X0188433Y0325742D01*
X0189069Y0327277D01*
X0190243Y0328451D01*
X0191778Y0329087D01*
X0193439Y0329087D01*
X0194973Y0328451D01*
X0196148Y0327277D01*
X0196783Y0325742D01*
X0196783Y0324081D01*
X0196148Y0322547D01*
X0194973Y0321372D01*
X0193439Y0320737D01*
X0191778Y0320737D01*
X0193911Y0320933D02*
X0201305Y0320933D01*
X0201778Y0320737D02*
X0203439Y0320737D01*
X0204973Y0321372D01*
X0206148Y0322547D01*
X0206783Y0324081D01*
X0206783Y0325742D01*
X0206148Y0327277D01*
X0204973Y0328451D01*
X0203439Y0329087D01*
X0201778Y0329087D01*
X0200243Y0328451D01*
X0199069Y0327277D01*
X0198433Y0325742D01*
X0198433Y0324081D01*
X0199069Y0322547D01*
X0200243Y0321372D01*
X0201778Y0320737D01*
X0201778Y0319087D02*
X0200243Y0318451D01*
X0199069Y0317277D01*
X0198433Y0315742D01*
X0198433Y0314081D01*
X0199069Y0312547D01*
X0200243Y0311372D01*
X0201778Y0310737D01*
X0203439Y0310737D01*
X0204973Y0311372D01*
X0206148Y0312547D01*
X0206783Y0314081D01*
X0206783Y0315742D01*
X0206148Y0317277D01*
X0204973Y0318451D01*
X0203439Y0319087D01*
X0201778Y0319087D01*
X0201413Y0318936D02*
X0197852Y0318936D01*
X0198364Y0317937D02*
X0199729Y0317937D01*
X0198929Y0316939D02*
X0198364Y0316939D01*
X0198364Y0315940D02*
X0198515Y0315940D01*
X0198433Y0314941D02*
X0198364Y0314941D01*
X0198364Y0313943D02*
X0198491Y0313943D01*
X0198364Y0312944D02*
X0198904Y0312944D01*
X0198364Y0311946D02*
X0199670Y0311946D01*
X0198364Y0310947D02*
X0201269Y0310947D01*
X0201778Y0309087D02*
X0200243Y0308451D01*
X0199069Y0307277D01*
X0198433Y0305742D01*
X0198433Y0304081D01*
X0199069Y0302547D01*
X0200243Y0301372D01*
X0201778Y0300737D01*
X0203439Y0300737D01*
X0204973Y0301372D01*
X0206148Y0302547D01*
X0206783Y0304081D01*
X0206783Y0305742D01*
X0206148Y0307277D01*
X0204973Y0308451D01*
X0203439Y0309087D01*
X0201778Y0309087D01*
X0201449Y0308950D02*
X0198364Y0308950D01*
X0198364Y0307952D02*
X0199744Y0307952D01*
X0198935Y0306953D02*
X0198364Y0306953D01*
X0198364Y0305955D02*
X0198521Y0305955D01*
X0198433Y0304956D02*
X0198364Y0304956D01*
X0198364Y0303958D02*
X0198484Y0303958D01*
X0198364Y0302959D02*
X0198898Y0302959D01*
X0198364Y0301961D02*
X0199655Y0301961D01*
X0198364Y0300962D02*
X0201233Y0300962D01*
X0203983Y0300962D02*
X0211233Y0300962D01*
X0211778Y0300737D02*
X0210243Y0301372D01*
X0209069Y0302547D01*
X0208433Y0304081D01*
X0208433Y0305742D01*
X0209069Y0307277D01*
X0210243Y0308451D01*
X0211778Y0309087D01*
X0213439Y0309087D01*
X0214973Y0308451D01*
X0216148Y0307277D01*
X0216783Y0305742D01*
X0216783Y0304081D01*
X0216148Y0302547D01*
X0214973Y0301372D01*
X0213439Y0300737D01*
X0211778Y0300737D01*
X0213983Y0300962D02*
X0218049Y0300962D01*
X0218049Y0299964D02*
X0198364Y0299964D01*
X0198364Y0298965D02*
X0218049Y0298965D01*
X0218049Y0297967D02*
X0198364Y0297967D01*
X0198364Y0296968D02*
X0218049Y0296968D01*
X0218049Y0295970D02*
X0198364Y0295970D01*
X0198364Y0294971D02*
X0218049Y0294971D01*
X0218049Y0293973D02*
X0198364Y0293973D01*
X0198364Y0292974D02*
X0218049Y0292974D01*
X0218049Y0291976D02*
X0198364Y0291976D01*
X0198364Y0290977D02*
X0218049Y0290977D01*
X0218049Y0289979D02*
X0198364Y0289979D01*
X0198364Y0288980D02*
X0218049Y0288980D01*
X0218049Y0287982D02*
X0198364Y0287982D01*
X0198364Y0286983D02*
X0218049Y0286983D01*
X0218049Y0301961D02*
X0215562Y0301961D01*
X0216319Y0302959D02*
X0218049Y0302959D01*
X0218049Y0303958D02*
X0216732Y0303958D01*
X0216783Y0304956D02*
X0218049Y0304956D01*
X0218049Y0305955D02*
X0216695Y0305955D01*
X0216282Y0306953D02*
X0218049Y0306953D01*
X0218049Y0307952D02*
X0215473Y0307952D01*
X0213768Y0308950D02*
X0218049Y0308950D01*
X0218049Y0309949D02*
X0198364Y0309949D01*
X0203768Y0308950D02*
X0211449Y0308950D01*
X0211778Y0310737D02*
X0210243Y0311372D01*
X0209069Y0312547D01*
X0208433Y0314081D01*
X0208433Y0315742D01*
X0209069Y0317277D01*
X0210243Y0318451D01*
X0211778Y0319087D01*
X0213439Y0319087D01*
X0214973Y0318451D01*
X0216148Y0317277D01*
X0216783Y0315742D01*
X0216783Y0314081D01*
X0216148Y0312547D01*
X0214973Y0311372D01*
X0213439Y0310737D01*
X0211778Y0310737D01*
X0211269Y0310947D02*
X0203947Y0310947D01*
X0205547Y0311946D02*
X0209670Y0311946D01*
X0208904Y0312944D02*
X0206312Y0312944D01*
X0206726Y0313943D02*
X0208491Y0313943D01*
X0208433Y0314941D02*
X0206783Y0314941D01*
X0206701Y0315940D02*
X0208515Y0315940D01*
X0208929Y0316939D02*
X0206288Y0316939D01*
X0205487Y0317937D02*
X0209729Y0317937D01*
X0211413Y0318936D02*
X0203804Y0318936D01*
X0203911Y0320933D02*
X0211305Y0320933D01*
X0211778Y0320737D02*
X0210243Y0321372D01*
X0209069Y0322547D01*
X0208433Y0324081D01*
X0208433Y0325742D01*
X0209069Y0327277D01*
X0210243Y0328451D01*
X0211778Y0329087D01*
X0213439Y0329087D01*
X0214973Y0328451D01*
X0216148Y0327277D01*
X0216783Y0325742D01*
X0216783Y0324081D01*
X0216148Y0322547D01*
X0214973Y0321372D01*
X0213439Y0320737D01*
X0211778Y0320737D01*
X0213911Y0320933D02*
X0218049Y0320933D01*
X0218049Y0321931D02*
X0215532Y0321931D01*
X0216306Y0322930D02*
X0218049Y0322930D01*
X0218049Y0323928D02*
X0216720Y0323928D01*
X0216783Y0324927D02*
X0218049Y0324927D01*
X0218049Y0325925D02*
X0216708Y0325925D01*
X0216294Y0326924D02*
X0218049Y0326924D01*
X0218049Y0327922D02*
X0215502Y0327922D01*
X0213840Y0328921D02*
X0218049Y0328921D01*
X0218049Y0329919D02*
X0176711Y0329919D01*
X0176711Y0328921D02*
X0191377Y0328921D01*
X0191778Y0330737D02*
X0190243Y0331372D01*
X0189069Y0332547D01*
X0188433Y0334081D01*
X0188433Y0335742D01*
X0189069Y0337277D01*
X0190243Y0338451D01*
X0191778Y0339087D01*
X0193439Y0339087D01*
X0194973Y0338451D01*
X0196148Y0337277D01*
X0196783Y0335742D01*
X0196783Y0334081D01*
X0196148Y0332547D01*
X0194973Y0331372D01*
X0193439Y0330737D01*
X0191778Y0330737D01*
X0191341Y0330918D02*
X0176711Y0330918D01*
X0176711Y0331916D02*
X0189700Y0331916D01*
X0188917Y0332915D02*
X0176711Y0332915D01*
X0176714Y0333913D02*
X0188503Y0333913D01*
X0188433Y0334912D02*
X0176783Y0334912D01*
X0176714Y0335910D02*
X0188503Y0335910D01*
X0188916Y0336909D02*
X0176711Y0336909D01*
X0176711Y0337907D02*
X0189699Y0337907D01*
X0191341Y0338906D02*
X0176711Y0338906D01*
X0176711Y0339904D02*
X0218049Y0339904D01*
X0218049Y0338906D02*
X0213876Y0338906D01*
X0213439Y0339087D02*
X0211778Y0339087D01*
X0210243Y0338451D01*
X0209069Y0337277D01*
X0208433Y0335742D01*
X0208433Y0334081D01*
X0209069Y0332547D01*
X0210243Y0331372D01*
X0211778Y0330737D01*
X0213439Y0330737D01*
X0214973Y0331372D01*
X0216148Y0332547D01*
X0216783Y0334081D01*
X0216783Y0335742D01*
X0216148Y0337277D01*
X0214973Y0338451D01*
X0213439Y0339087D01*
X0211341Y0338906D02*
X0203876Y0338906D01*
X0203439Y0339087D02*
X0204973Y0338451D01*
X0206148Y0337277D01*
X0206783Y0335742D01*
X0206783Y0334081D01*
X0206148Y0332547D01*
X0204973Y0331372D01*
X0203439Y0330737D01*
X0201778Y0330737D01*
X0200243Y0331372D01*
X0199069Y0332547D01*
X0198433Y0334081D01*
X0198433Y0335742D01*
X0199069Y0337277D01*
X0200243Y0338451D01*
X0201778Y0339087D01*
X0203439Y0339087D01*
X0201341Y0338906D02*
X0193876Y0338906D01*
X0195517Y0337907D02*
X0199699Y0337907D01*
X0198916Y0336909D02*
X0196300Y0336909D01*
X0196714Y0335910D02*
X0198503Y0335910D01*
X0198433Y0334912D02*
X0196783Y0334912D01*
X0196714Y0333913D02*
X0198503Y0333913D01*
X0198917Y0332915D02*
X0196300Y0332915D01*
X0195517Y0331916D02*
X0199700Y0331916D01*
X0201341Y0330918D02*
X0193875Y0330918D01*
X0193840Y0328921D02*
X0201377Y0328921D01*
X0199714Y0327922D02*
X0195502Y0327922D01*
X0196294Y0326924D02*
X0198923Y0326924D01*
X0198509Y0325925D02*
X0196708Y0325925D01*
X0196783Y0324927D02*
X0198433Y0324927D01*
X0198497Y0323928D02*
X0196720Y0323928D01*
X0196306Y0322930D02*
X0198910Y0322930D01*
X0199685Y0321931D02*
X0195532Y0321931D01*
X0196854Y0319934D02*
X0218049Y0319934D01*
X0218049Y0318936D02*
X0213804Y0318936D01*
X0215487Y0317937D02*
X0218049Y0317937D01*
X0218049Y0316939D02*
X0216288Y0316939D01*
X0216701Y0315940D02*
X0218049Y0315940D01*
X0218049Y0314941D02*
X0216783Y0314941D01*
X0216726Y0313943D02*
X0218049Y0313943D01*
X0218049Y0312944D02*
X0216312Y0312944D01*
X0215547Y0311946D02*
X0218049Y0311946D01*
X0218049Y0310947D02*
X0213947Y0310947D01*
X0209744Y0307952D02*
X0205473Y0307952D01*
X0206282Y0306953D02*
X0208935Y0306953D01*
X0208521Y0305955D02*
X0206695Y0305955D01*
X0206783Y0304956D02*
X0208433Y0304956D01*
X0208484Y0303958D02*
X0206732Y0303958D01*
X0206319Y0302959D02*
X0208898Y0302959D01*
X0209655Y0301961D02*
X0205562Y0301961D01*
X0205532Y0321931D02*
X0209685Y0321931D01*
X0208910Y0322930D02*
X0206306Y0322930D01*
X0206720Y0323928D02*
X0208497Y0323928D01*
X0208433Y0324927D02*
X0206783Y0324927D01*
X0206708Y0325925D02*
X0208509Y0325925D01*
X0208923Y0326924D02*
X0206294Y0326924D01*
X0205502Y0327922D02*
X0209714Y0327922D01*
X0211377Y0328921D02*
X0203840Y0328921D01*
X0203875Y0330918D02*
X0211341Y0330918D01*
X0209700Y0331916D02*
X0205517Y0331916D01*
X0206300Y0332915D02*
X0208917Y0332915D01*
X0208503Y0333913D02*
X0206714Y0333913D01*
X0206783Y0334912D02*
X0208433Y0334912D01*
X0208503Y0335910D02*
X0206714Y0335910D01*
X0206300Y0336909D02*
X0208916Y0336909D01*
X0209699Y0337907D02*
X0205517Y0337907D01*
X0213875Y0330918D02*
X0218049Y0330918D01*
X0218049Y0331916D02*
X0215517Y0331916D01*
X0216300Y0332915D02*
X0218049Y0332915D01*
X0218049Y0333913D02*
X0216714Y0333913D01*
X0216783Y0334912D02*
X0218049Y0334912D01*
X0218049Y0335910D02*
X0216714Y0335910D01*
X0216300Y0336909D02*
X0218049Y0336909D01*
X0218049Y0337907D02*
X0215517Y0337907D01*
X0189714Y0327922D02*
X0176711Y0327922D01*
X0176711Y0326924D02*
X0188923Y0326924D01*
X0188509Y0325925D02*
X0176711Y0325925D01*
X0176783Y0324927D02*
X0188433Y0324927D01*
X0188497Y0323928D02*
X0176720Y0323928D01*
X0176711Y0322930D02*
X0188910Y0322930D01*
X0189685Y0321931D02*
X0176711Y0321931D01*
M02*
