G75*
%MOIN*%
%OFA0B0*%
%FSLAX25Y25*%
%IPPOS*%
%LPD*%
%AMOC8*
5,1,8,0,0,1.08239X$1,22.5*
%
%ADD10R,0.00984X0.06102*%
%ADD11R,0.06102X0.00984*%
%ADD12R,0.01575X0.06890*%
%ADD13R,0.07087X0.03937*%
%ADD14R,0.03150X0.04724*%
%ADD15C,0.00800*%
%ADD16R,0.04724X0.03150*%
%ADD17C,0.04400*%
%ADD18C,0.02400*%
%ADD19R,0.06299X0.04921*%
%ADD20R,0.03937X0.00984*%
%ADD21R,0.00984X0.03937*%
%ADD22R,0.07400X0.07400*%
%ADD23C,0.07400*%
%ADD24OC8,0.07400*%
%ADD25C,0.00000*%
%ADD26C,0.29528*%
%ADD27R,0.01772X0.03937*%
%ADD28R,0.02756X0.03543*%
%ADD29R,0.02402X0.04016*%
%ADD30R,0.15394X0.15000*%
%ADD31R,0.02756X0.02000*%
%ADD32R,0.07087X0.10630*%
%ADD33R,0.04724X0.05512*%
%ADD34R,0.07087X0.06299*%
%ADD35R,0.09843X0.15748*%
%ADD36R,0.04724X0.07874*%
%ADD37R,0.05512X0.04724*%
%ADD38R,0.03937X0.02362*%
%ADD39R,0.07087X0.04921*%
%ADD40R,0.02000X0.02756*%
%ADD41R,0.04724X0.02362*%
%ADD42C,0.02978*%
%ADD43C,0.03200*%
%ADD44C,0.00600*%
%ADD45R,0.02978X0.02978*%
%ADD46C,0.04000*%
%ADD47C,0.02000*%
%ADD48C,0.00787*%
%ADD49C,0.01000*%
D10*
X0078913Y0049972D03*
X0080882Y0049972D03*
X0082850Y0049972D03*
X0084819Y0049972D03*
X0086787Y0049972D03*
X0088756Y0049972D03*
X0090724Y0049972D03*
X0092693Y0049972D03*
X0094661Y0049972D03*
X0096630Y0049972D03*
X0098598Y0049972D03*
X0100567Y0049972D03*
X0102535Y0049972D03*
X0104504Y0049972D03*
X0106472Y0049972D03*
X0108441Y0049972D03*
X0108441Y0094066D03*
X0106472Y0094066D03*
X0104504Y0094066D03*
X0102535Y0094066D03*
X0100567Y0094066D03*
X0098598Y0094066D03*
X0096630Y0094066D03*
X0094661Y0094066D03*
X0092693Y0094066D03*
X0090724Y0094066D03*
X0088756Y0094066D03*
X0086787Y0094066D03*
X0084819Y0094066D03*
X0082850Y0094066D03*
X0080882Y0094066D03*
X0078913Y0094066D03*
D11*
X0071630Y0086783D03*
X0071630Y0084814D03*
X0071630Y0082846D03*
X0071630Y0080877D03*
X0071630Y0078909D03*
X0071630Y0076940D03*
X0071630Y0074972D03*
X0071630Y0073003D03*
X0071630Y0071035D03*
X0071630Y0069066D03*
X0071630Y0067098D03*
X0071630Y0065129D03*
X0071630Y0063161D03*
X0071630Y0061192D03*
X0071630Y0059224D03*
X0071630Y0057255D03*
X0115724Y0057255D03*
X0115724Y0059224D03*
X0115724Y0061192D03*
X0115724Y0063161D03*
X0115724Y0065129D03*
X0115724Y0067098D03*
X0115724Y0069066D03*
X0115724Y0071035D03*
X0115724Y0073003D03*
X0115724Y0074972D03*
X0115724Y0076940D03*
X0115724Y0078909D03*
X0115724Y0080877D03*
X0115724Y0082846D03*
X0115724Y0084814D03*
X0115724Y0086783D03*
D12*
X0154543Y0078318D03*
X0157102Y0078318D03*
X0159661Y0078318D03*
X0162220Y0078318D03*
X0164780Y0078318D03*
X0167339Y0078318D03*
X0169898Y0078318D03*
X0172457Y0078318D03*
X0175016Y0078318D03*
X0177575Y0078318D03*
X0180134Y0078318D03*
X0182693Y0078318D03*
X0185252Y0078318D03*
X0187811Y0078318D03*
X0187811Y0049972D03*
X0185252Y0049972D03*
X0182693Y0049972D03*
X0180134Y0049972D03*
X0177575Y0049972D03*
X0175016Y0049972D03*
X0172457Y0049972D03*
X0169898Y0049972D03*
X0167339Y0049972D03*
X0164780Y0049972D03*
X0162220Y0049972D03*
X0159661Y0049972D03*
X0157102Y0049972D03*
X0154543Y0049972D03*
D13*
X0133677Y0077098D03*
X0133677Y0086940D03*
D14*
X0124701Y0095641D03*
X0117614Y0095641D03*
X0117614Y0105483D03*
X0124701Y0105483D03*
X0118992Y0123161D03*
X0111906Y0123161D03*
X0105213Y0123161D03*
X0098126Y0123161D03*
X0098126Y0114302D03*
X0105213Y0114302D03*
X0105213Y0105444D03*
X0098126Y0105444D03*
X0069740Y0105483D03*
X0062654Y0105483D03*
X0062654Y0095641D03*
X0069740Y0095641D03*
X0117614Y0048397D03*
X0124701Y0048397D03*
X0124701Y0038554D03*
X0117614Y0038554D03*
X0153697Y0037078D03*
X0160783Y0037078D03*
X0168303Y0037078D03*
X0175390Y0037078D03*
X0172929Y0018830D03*
X0180016Y0018830D03*
X0180705Y0087669D03*
X0187791Y0087669D03*
X0238008Y0104420D03*
X0245094Y0104420D03*
X0251669Y0104460D03*
X0258756Y0104460D03*
X0265449Y0104460D03*
X0272535Y0104460D03*
X0300016Y0082846D03*
X0307102Y0082846D03*
X0306602Y0062846D03*
X0299516Y0062846D03*
X0301079Y0028672D03*
X0293992Y0028672D03*
X0297260Y0201393D03*
X0304346Y0201393D03*
X0304346Y0209424D03*
X0297260Y0209424D03*
X0296945Y0217649D03*
X0304031Y0217649D03*
X0304031Y0225523D03*
X0296945Y0225523D03*
X0296945Y0233397D03*
X0304031Y0233397D03*
X0316575Y0232062D03*
X0323661Y0232062D03*
X0337902Y0230606D03*
X0344988Y0230606D03*
X0345161Y0222562D03*
X0338075Y0222562D03*
X0338075Y0215062D03*
X0345161Y0215062D03*
X0345370Y0250129D03*
X0338283Y0250129D03*
X0325685Y0250720D03*
X0318598Y0250720D03*
X0304031Y0255050D03*
X0296945Y0255050D03*
X0318598Y0270798D03*
X0325685Y0270798D03*
X0307969Y0280641D03*
X0300882Y0280641D03*
X0300882Y0288515D03*
X0307969Y0288515D03*
X0324504Y0302294D03*
X0331591Y0302294D03*
X0331591Y0314106D03*
X0324504Y0314106D03*
X0284346Y0288515D03*
X0277260Y0288515D03*
X0272535Y0288515D03*
X0265449Y0288515D03*
X0277260Y0280641D03*
X0284346Y0280641D03*
X0252181Y0250606D03*
X0245094Y0250606D03*
X0232378Y0250720D03*
X0225291Y0250720D03*
X0212417Y0250606D03*
X0205331Y0250606D03*
X0192614Y0250720D03*
X0185528Y0250720D03*
X0172654Y0250606D03*
X0165567Y0250606D03*
X0152850Y0250720D03*
X0145764Y0250720D03*
X0132890Y0250606D03*
X0125803Y0250606D03*
X0113087Y0250720D03*
X0106000Y0250720D03*
X0093126Y0250606D03*
X0086039Y0250606D03*
X0073323Y0250720D03*
X0066236Y0250720D03*
X0054031Y0253082D03*
X0046945Y0253082D03*
X0046945Y0260956D03*
X0054031Y0260956D03*
X0066236Y0270798D03*
X0073323Y0270798D03*
X0106000Y0270798D03*
X0113087Y0270798D03*
X0145764Y0270798D03*
X0152850Y0270798D03*
X0185528Y0270798D03*
X0192614Y0270798D03*
X0225291Y0270798D03*
X0232378Y0270798D03*
X0230354Y0232062D03*
X0223268Y0232062D03*
X0211917Y0230606D03*
X0204831Y0230606D03*
X0205004Y0222562D03*
X0212091Y0222562D03*
X0212091Y0215062D03*
X0205004Y0215062D03*
X0190591Y0232062D03*
X0183504Y0232062D03*
X0172327Y0222562D03*
X0165240Y0222562D03*
X0165240Y0215062D03*
X0172327Y0215062D03*
X0172154Y0230606D03*
X0165067Y0230606D03*
X0150827Y0232062D03*
X0143740Y0232062D03*
X0132390Y0230606D03*
X0125303Y0230606D03*
X0125476Y0222562D03*
X0132563Y0222562D03*
X0132563Y0215062D03*
X0125476Y0215062D03*
X0111063Y0232062D03*
X0103976Y0232062D03*
X0092626Y0230606D03*
X0085539Y0230606D03*
X0085713Y0222562D03*
X0092799Y0222562D03*
X0092799Y0215062D03*
X0085713Y0215062D03*
X0071299Y0232062D03*
X0064213Y0232062D03*
X0050094Y0227491D03*
X0043008Y0227491D03*
X0043008Y0205838D03*
X0050094Y0205838D03*
X0050094Y0197964D03*
X0043008Y0197964D03*
X0043008Y0190090D03*
X0050094Y0190090D03*
X0050409Y0181865D03*
X0043323Y0181865D03*
X0043323Y0173834D03*
X0050409Y0173834D03*
X0022535Y0194027D03*
X0015449Y0194027D03*
X0023323Y0253082D03*
X0030409Y0253082D03*
X0030409Y0260956D03*
X0023323Y0260956D03*
X0018598Y0260956D03*
X0011512Y0260956D03*
X0244594Y0230606D03*
X0251681Y0230606D03*
X0251854Y0222562D03*
X0244768Y0222562D03*
X0244768Y0215062D03*
X0251854Y0215062D03*
X0269386Y0221586D03*
X0276472Y0221586D03*
D15*
X0278835Y0220798D01*
X0278289Y0217382D02*
X0288017Y0217382D01*
X0288677Y0218043D01*
X0296551Y0218043D01*
X0296945Y0217649D01*
X0304031Y0217649D02*
X0304031Y0225523D01*
X0304031Y0233397D01*
X0304031Y0240483D01*
X0303047Y0241468D01*
X0304228Y0241468D01*
X0305409Y0240287D01*
X0304031Y0233397D02*
X0307378Y0233397D01*
X0313800Y0234921D02*
X0313800Y0229203D01*
X0313897Y0224772D01*
X0313256Y0224131D01*
X0313256Y0193716D01*
X0321748Y0185223D01*
X0321748Y0184972D01*
X0328835Y0184972D01*
X0336315Y0184972D01*
X0336618Y0190987D02*
X0329118Y0190987D01*
X0323071Y0190987D01*
X0314856Y0199202D01*
X0314856Y0216572D01*
X0316397Y0218113D01*
X0321721Y0218113D01*
X0322424Y0217410D01*
X0322424Y0215417D01*
X0322898Y0214944D01*
X0325457Y0214944D02*
X0325457Y0209235D01*
X0326618Y0208074D01*
X0329118Y0208074D01*
X0336618Y0208074D01*
X0344118Y0208074D01*
X0346977Y0210849D02*
X0333623Y0210849D01*
X0327543Y0212992D01*
X0327543Y0217410D01*
X0326840Y0218113D01*
X0324847Y0218113D01*
X0320948Y0222012D01*
X0318956Y0222012D01*
X0318253Y0222715D01*
X0318253Y0224707D01*
X0317780Y0225180D01*
X0316693Y0226680D01*
X0316575Y0232062D01*
X0316575Y0220940D01*
X0316236Y0220602D01*
X0316236Y0220802D01*
X0320339Y0225180D02*
X0320339Y0228842D01*
X0320218Y0228362D01*
X0323918Y0232062D01*
X0324110Y0232062D01*
X0324110Y0236743D01*
X0323913Y0236940D01*
X0320567Y0236940D01*
X0323913Y0236940D02*
X0324110Y0237137D01*
X0324110Y0232062D02*
X0325118Y0232062D01*
X0326618Y0230562D01*
X0323918Y0232062D02*
X0323661Y0232062D01*
X0322898Y0225180D02*
X0323371Y0224707D01*
X0323371Y0222715D01*
X0324074Y0222012D01*
X0326125Y0222012D01*
X0331618Y0216519D01*
X0333862Y0215850D01*
X0338075Y0215062D01*
X0331618Y0216519D02*
X0331618Y0217562D01*
X0331618Y0223606D02*
X0327031Y0223606D01*
X0325457Y0225180D01*
X0331618Y0223606D02*
X0333075Y0223487D01*
X0338075Y0222562D01*
X0345161Y0222562D02*
X0345161Y0223519D01*
X0350134Y0228492D01*
X0350134Y0233219D01*
X0349098Y0234256D01*
X0349098Y0237715D01*
X0349701Y0238318D01*
X0349701Y0267846D01*
X0336906Y0267846D01*
X0336906Y0264893D01*
X0343795Y0264893D01*
X0344780Y0265877D01*
X0347421Y0264417D02*
X0347732Y0257019D01*
X0347945Y0239606D01*
X0341945Y0239606D01*
X0341945Y0264417D01*
X0347421Y0264417D01*
X0347422Y0264407D02*
X0341945Y0264407D01*
X0341945Y0263608D02*
X0347455Y0263608D01*
X0347489Y0262810D02*
X0341945Y0262810D01*
X0341945Y0262011D02*
X0347522Y0262011D01*
X0347556Y0261213D02*
X0341945Y0261213D01*
X0341945Y0260414D02*
X0347590Y0260414D01*
X0347623Y0259616D02*
X0341945Y0259616D01*
X0341945Y0258817D02*
X0347657Y0258817D01*
X0347690Y0258019D02*
X0341945Y0258019D01*
X0341945Y0257220D02*
X0347724Y0257220D01*
X0347740Y0256422D02*
X0341945Y0256422D01*
X0341945Y0255623D02*
X0347749Y0255623D01*
X0347759Y0254825D02*
X0341945Y0254825D01*
X0341945Y0254026D02*
X0347769Y0254026D01*
X0347779Y0253228D02*
X0341945Y0253228D01*
X0341945Y0252429D02*
X0347788Y0252429D01*
X0347798Y0251631D02*
X0341945Y0251631D01*
X0341945Y0250832D02*
X0347808Y0250832D01*
X0347818Y0250034D02*
X0341945Y0250034D01*
X0341945Y0249235D02*
X0347827Y0249235D01*
X0347837Y0248437D02*
X0341945Y0248437D01*
X0341945Y0247638D02*
X0347847Y0247638D01*
X0347857Y0246840D02*
X0341945Y0246840D01*
X0341945Y0246041D02*
X0347866Y0246041D01*
X0347876Y0245243D02*
X0341945Y0245243D01*
X0341945Y0244444D02*
X0347886Y0244444D01*
X0347896Y0243646D02*
X0341945Y0243646D01*
X0341945Y0242847D02*
X0347905Y0242847D01*
X0347915Y0242049D02*
X0341945Y0242049D01*
X0341945Y0241250D02*
X0347925Y0241250D01*
X0347935Y0240452D02*
X0341945Y0240452D01*
X0341945Y0239653D02*
X0347944Y0239653D01*
X0346520Y0236669D02*
X0344019Y0234168D01*
X0341916Y0234168D01*
X0339354Y0231606D01*
X0337902Y0230606D01*
X0337370Y0236669D02*
X0332339Y0236669D01*
X0331945Y0237062D01*
X0336676Y0239912D02*
X0318790Y0239912D01*
X0313800Y0234921D01*
X0306394Y0225523D02*
X0304031Y0225523D01*
X0296945Y0225523D02*
X0296945Y0233397D01*
X0297929Y0234381D01*
X0297929Y0241468D01*
X0300488Y0248948D02*
X0301276Y0248948D01*
X0305409Y0253082D01*
X0305409Y0253672D01*
X0304031Y0255050D01*
X0306103Y0258613D02*
X0310067Y0254649D01*
X0310067Y0217519D01*
X0304346Y0211799D01*
X0304346Y0209424D01*
X0307121Y0212311D02*
X0311667Y0216856D01*
X0311667Y0255312D01*
X0306766Y0260213D01*
X0297589Y0260213D01*
X0296698Y0261103D01*
X0296698Y0265434D01*
X0297732Y0266468D01*
X0301669Y0266468D01*
X0303244Y0268043D01*
X0302678Y0268399D02*
X0300587Y0268399D01*
X0301353Y0267601D02*
X0302359Y0267601D01*
X0302063Y0266861D02*
X0292614Y0276704D01*
X0295764Y0281428D01*
X0298107Y0279355D01*
X0298107Y0277782D01*
X0298810Y0277079D01*
X0300681Y0277079D01*
X0306000Y0272373D01*
X0304425Y0272767D01*
X0302063Y0266861D01*
X0302998Y0269198D02*
X0299820Y0269198D01*
X0299053Y0269996D02*
X0303317Y0269996D01*
X0303636Y0270795D02*
X0298287Y0270795D01*
X0297520Y0271593D02*
X0303956Y0271593D01*
X0304275Y0272392D02*
X0296754Y0272392D01*
X0295987Y0273190D02*
X0305076Y0273190D01*
X0305925Y0272392D02*
X0305979Y0272392D01*
X0304173Y0273989D02*
X0295221Y0273989D01*
X0294454Y0274788D02*
X0303271Y0274788D01*
X0302368Y0275586D02*
X0293687Y0275586D01*
X0292921Y0276385D02*
X0301465Y0276385D01*
X0298706Y0277183D02*
X0292934Y0277183D01*
X0292614Y0277183D02*
X0285528Y0277183D01*
X0285528Y0276704D02*
X0292614Y0276704D01*
X0292614Y0280641D01*
X0288943Y0285740D01*
X0288574Y0285740D01*
X0287871Y0286443D01*
X0287871Y0287229D01*
X0285528Y0290483D01*
X0285528Y0276704D01*
X0285528Y0277982D02*
X0292614Y0277982D01*
X0292614Y0278780D02*
X0285528Y0278780D01*
X0285528Y0279579D02*
X0292614Y0279579D01*
X0292614Y0280377D02*
X0285528Y0280377D01*
X0285528Y0281176D02*
X0292229Y0281176D01*
X0291654Y0281974D02*
X0285528Y0281974D01*
X0285528Y0282773D02*
X0291079Y0282773D01*
X0290504Y0283571D02*
X0285528Y0283571D01*
X0285528Y0284370D02*
X0289929Y0284370D01*
X0289355Y0285168D02*
X0285528Y0285168D01*
X0285528Y0285967D02*
X0288347Y0285967D01*
X0287871Y0286765D02*
X0285528Y0286765D01*
X0285528Y0287564D02*
X0287630Y0287564D01*
X0287055Y0288362D02*
X0285528Y0288362D01*
X0285528Y0289161D02*
X0286480Y0289161D01*
X0285905Y0289959D02*
X0285528Y0289959D01*
X0292614Y0290090D02*
X0294189Y0288515D01*
X0300882Y0288515D01*
X0300882Y0280641D01*
X0297855Y0279579D02*
X0294531Y0279579D01*
X0295063Y0280377D02*
X0296952Y0280377D01*
X0296049Y0281176D02*
X0295595Y0281176D01*
X0293998Y0278780D02*
X0298107Y0278780D01*
X0298107Y0277982D02*
X0293466Y0277982D01*
X0284740Y0272767D02*
X0284740Y0260956D01*
X0280803Y0257019D01*
X0280803Y0253082D01*
X0265055Y0253082D01*
X0265055Y0272767D01*
X0284740Y0272767D01*
X0284740Y0272392D02*
X0265055Y0272392D01*
X0265055Y0271593D02*
X0284740Y0271593D01*
X0284740Y0270795D02*
X0265055Y0270795D01*
X0265055Y0269996D02*
X0284740Y0269996D01*
X0284740Y0269198D02*
X0265055Y0269198D01*
X0265055Y0268399D02*
X0284740Y0268399D01*
X0284740Y0267601D02*
X0265055Y0267601D01*
X0265055Y0266802D02*
X0284740Y0266802D01*
X0284740Y0266004D02*
X0265055Y0266004D01*
X0265055Y0265205D02*
X0284740Y0265205D01*
X0284740Y0264407D02*
X0265055Y0264407D01*
X0265055Y0263608D02*
X0284740Y0263608D01*
X0284740Y0262810D02*
X0265055Y0262810D01*
X0265055Y0262011D02*
X0284740Y0262011D01*
X0284740Y0261213D02*
X0265055Y0261213D01*
X0265055Y0260414D02*
X0284199Y0260414D01*
X0283400Y0259616D02*
X0265055Y0259616D01*
X0265055Y0258817D02*
X0282602Y0258817D01*
X0281803Y0258019D02*
X0265055Y0258019D01*
X0265055Y0257220D02*
X0281005Y0257220D01*
X0280803Y0256422D02*
X0265055Y0256422D01*
X0265055Y0255623D02*
X0280803Y0255623D01*
X0280803Y0254825D02*
X0265055Y0254825D01*
X0265055Y0254026D02*
X0280803Y0254026D01*
X0280803Y0253228D02*
X0265055Y0253228D01*
X0254471Y0253228D02*
X0248638Y0253228D01*
X0248638Y0254026D02*
X0254462Y0254026D01*
X0254452Y0254825D02*
X0248638Y0254825D01*
X0248638Y0255623D02*
X0254442Y0255623D01*
X0254432Y0256422D02*
X0248638Y0256422D01*
X0248638Y0257220D02*
X0254417Y0257220D01*
X0254425Y0257019D02*
X0254638Y0239606D01*
X0248863Y0239606D01*
X0248863Y0246646D01*
X0248638Y0246871D01*
X0248638Y0264417D01*
X0254114Y0264417D01*
X0254425Y0257019D01*
X0254383Y0258019D02*
X0248638Y0258019D01*
X0248638Y0258817D02*
X0254350Y0258817D01*
X0254316Y0259616D02*
X0248638Y0259616D01*
X0248638Y0260414D02*
X0254282Y0260414D01*
X0254249Y0261213D02*
X0248638Y0261213D01*
X0248638Y0262011D02*
X0254215Y0262011D01*
X0254182Y0262810D02*
X0248638Y0262810D01*
X0248638Y0263608D02*
X0254148Y0263608D01*
X0254115Y0264407D02*
X0248638Y0264407D01*
X0250488Y0264893D02*
X0251472Y0265877D01*
X0250488Y0264893D02*
X0243598Y0264893D01*
X0243598Y0267846D01*
X0256394Y0267846D01*
X0256394Y0238318D01*
X0255791Y0237715D01*
X0255791Y0234256D01*
X0256827Y0233219D01*
X0256827Y0228492D01*
X0251854Y0223519D01*
X0251854Y0222562D01*
X0254629Y0224031D02*
X0254629Y0219703D01*
X0251854Y0216928D01*
X0251854Y0215062D01*
X0253670Y0210849D02*
X0240316Y0210849D01*
X0234235Y0212992D01*
X0234235Y0217410D01*
X0233532Y0218113D01*
X0231540Y0218113D01*
X0227641Y0222012D01*
X0225649Y0222012D01*
X0224946Y0222715D01*
X0224946Y0224707D01*
X0224472Y0225180D01*
X0223386Y0226680D01*
X0223268Y0232062D01*
X0220493Y0229203D02*
X0220590Y0224772D01*
X0219949Y0224131D01*
X0219949Y0193716D01*
X0228441Y0185223D01*
X0228441Y0184972D01*
X0235528Y0184972D01*
X0243008Y0184972D01*
X0243311Y0190987D02*
X0235811Y0190987D01*
X0229764Y0190987D01*
X0221549Y0199202D01*
X0221549Y0216572D01*
X0223090Y0218113D01*
X0228414Y0218113D01*
X0229117Y0217410D01*
X0229117Y0215417D01*
X0229591Y0214944D01*
X0232150Y0214944D02*
X0232150Y0209235D01*
X0233311Y0208074D01*
X0235811Y0208074D01*
X0243311Y0208074D01*
X0250811Y0208074D01*
X0253670Y0210849D02*
X0254373Y0210146D01*
X0255781Y0210146D01*
X0255462Y0209828D01*
X0255462Y0209775D01*
X0255781Y0210146D02*
X0256394Y0210759D01*
X0254373Y0210146D02*
X0254373Y0204550D01*
X0250811Y0200987D01*
X0254855Y0195299D02*
X0240452Y0195299D01*
X0239749Y0196002D01*
X0239749Y0197050D01*
X0235811Y0200987D01*
X0231499Y0205299D01*
X0225452Y0205299D01*
X0224749Y0206002D01*
X0224749Y0210146D01*
X0227031Y0212429D01*
X0227031Y0214944D01*
X0224472Y0214944D02*
X0224472Y0213998D01*
X0223149Y0212674D01*
X0223149Y0205339D01*
X0224789Y0203699D01*
X0225599Y0203699D01*
X0228311Y0200987D01*
X0232249Y0197050D01*
X0232249Y0196002D01*
X0234489Y0193762D01*
X0238670Y0193762D01*
X0238733Y0193699D01*
X0254192Y0193699D01*
X0254425Y0193466D01*
X0254425Y0174342D01*
X0248638Y0174342D01*
X0240252Y0165956D01*
X0242614Y0174342D02*
X0243008Y0174735D01*
X0243008Y0177885D01*
X0235528Y0177885D02*
X0235528Y0174735D01*
X0228441Y0177885D02*
X0226866Y0176310D01*
X0226866Y0169342D01*
X0230252Y0165956D01*
X0230252Y0155956D02*
X0230252Y0136833D01*
X0229622Y0136203D01*
X0076722Y0136203D01*
X0049257Y0108738D01*
X0049257Y0084434D01*
X0060687Y0073003D01*
X0071630Y0073003D01*
X0071630Y0071035D02*
X0071591Y0070995D01*
X0061315Y0070995D01*
X0060907Y0071403D01*
X0060024Y0071403D01*
X0052558Y0078869D01*
X0052457Y0078869D01*
X0047657Y0083669D01*
X0047657Y0109401D01*
X0076059Y0137803D01*
X0190252Y0137803D01*
X0190488Y0138039D01*
X0190488Y0155956D01*
X0184346Y0147767D02*
X0184346Y0144094D01*
X0187299Y0141141D01*
X0183362Y0140492D02*
X0180409Y0143445D01*
X0180409Y0147767D01*
X0180569Y0147767D01*
X0190488Y0165956D02*
X0187102Y0169342D01*
X0187102Y0176310D01*
X0188677Y0177885D01*
X0188677Y0184972D02*
X0195764Y0184972D01*
X0203244Y0184972D01*
X0203547Y0190987D02*
X0196047Y0190987D01*
X0190000Y0190987D01*
X0181785Y0199202D01*
X0181785Y0216572D01*
X0183326Y0218113D01*
X0188651Y0218113D01*
X0189354Y0217410D01*
X0189354Y0215417D01*
X0189827Y0214944D01*
X0192386Y0214944D02*
X0192386Y0209235D01*
X0193547Y0208074D01*
X0196047Y0208074D01*
X0203547Y0208074D01*
X0211047Y0208074D01*
X0213906Y0210849D02*
X0200552Y0210849D01*
X0194472Y0212992D01*
X0194472Y0217410D01*
X0193769Y0218113D01*
X0191776Y0218113D01*
X0187877Y0222012D01*
X0185885Y0222012D01*
X0185182Y0222715D01*
X0185182Y0224707D01*
X0184709Y0225180D01*
X0183622Y0226680D01*
X0183504Y0232062D01*
X0180729Y0229203D02*
X0180826Y0224772D01*
X0180185Y0224131D01*
X0180185Y0193716D01*
X0188677Y0185223D01*
X0188677Y0184972D01*
X0188547Y0190987D02*
X0190000Y0190987D01*
X0194725Y0193762D02*
X0192485Y0196002D01*
X0192485Y0197050D01*
X0188547Y0200987D01*
X0185835Y0203699D01*
X0185025Y0203699D01*
X0183385Y0205339D01*
X0183385Y0212674D01*
X0184709Y0213998D01*
X0184709Y0214944D01*
X0187268Y0214944D02*
X0187268Y0212429D01*
X0184985Y0210146D01*
X0184985Y0206002D01*
X0185688Y0205299D01*
X0191735Y0205299D01*
X0196047Y0200987D01*
X0199985Y0197050D01*
X0199985Y0196002D01*
X0200688Y0195299D01*
X0215091Y0195299D01*
X0216261Y0194129D01*
X0216261Y0171729D01*
X0210488Y0165956D01*
X0208874Y0174342D02*
X0200488Y0165956D01*
X0202850Y0174342D02*
X0203244Y0174735D01*
X0203244Y0177885D01*
X0208874Y0174342D02*
X0214661Y0174342D01*
X0214661Y0193466D01*
X0214428Y0193699D01*
X0198969Y0193699D01*
X0198906Y0193762D01*
X0194725Y0193762D01*
X0203547Y0190987D02*
X0211047Y0190987D01*
X0211047Y0200987D02*
X0214609Y0204550D01*
X0214609Y0210146D01*
X0215379Y0210916D01*
X0214609Y0210146D02*
X0213906Y0210849D01*
X0212091Y0215062D02*
X0212091Y0216928D01*
X0214865Y0219703D01*
X0214865Y0224031D01*
X0218663Y0227829D01*
X0218663Y0233882D01*
X0217627Y0234918D01*
X0217627Y0237052D01*
X0218230Y0237655D01*
X0218230Y0263587D01*
X0218277Y0269446D01*
X0203172Y0269446D01*
X0202235Y0268508D01*
X0202235Y0265261D01*
X0201866Y0264893D01*
X0195961Y0264893D01*
X0196157Y0270798D02*
X0195567Y0272373D01*
X0195271Y0272215D01*
X0203086Y0272215D01*
X0203638Y0272767D01*
X0203835Y0267846D02*
X0203835Y0264893D01*
X0210724Y0264893D01*
X0211709Y0265877D01*
X0214350Y0264417D02*
X0208874Y0264417D01*
X0208874Y0246871D01*
X0209099Y0246646D01*
X0209099Y0239606D01*
X0214874Y0239606D01*
X0214661Y0257019D01*
X0214350Y0264417D01*
X0214351Y0264407D02*
X0208874Y0264407D01*
X0208874Y0263608D02*
X0214384Y0263608D01*
X0214418Y0262810D02*
X0208874Y0262810D01*
X0208874Y0262011D02*
X0214452Y0262011D01*
X0214485Y0261213D02*
X0208874Y0261213D01*
X0208874Y0260414D02*
X0214519Y0260414D01*
X0214552Y0259616D02*
X0208874Y0259616D01*
X0208874Y0258817D02*
X0214586Y0258817D01*
X0214619Y0258019D02*
X0208874Y0258019D01*
X0208874Y0257220D02*
X0214653Y0257220D01*
X0214669Y0256422D02*
X0208874Y0256422D01*
X0208874Y0255623D02*
X0214678Y0255623D01*
X0214688Y0254825D02*
X0208874Y0254825D01*
X0208874Y0254026D02*
X0214698Y0254026D01*
X0214708Y0253228D02*
X0208874Y0253228D01*
X0208874Y0252429D02*
X0214717Y0252429D01*
X0214727Y0251631D02*
X0208874Y0251631D01*
X0208874Y0250832D02*
X0214737Y0250832D01*
X0214747Y0250034D02*
X0208874Y0250034D01*
X0208874Y0249235D02*
X0214756Y0249235D01*
X0214766Y0248437D02*
X0208874Y0248437D01*
X0208874Y0247638D02*
X0214776Y0247638D01*
X0214786Y0246840D02*
X0208906Y0246840D01*
X0209099Y0246041D02*
X0214795Y0246041D01*
X0214805Y0245243D02*
X0209099Y0245243D01*
X0209099Y0244444D02*
X0214815Y0244444D01*
X0214825Y0243646D02*
X0209099Y0243646D01*
X0209099Y0242847D02*
X0214834Y0242847D01*
X0214844Y0242049D02*
X0209099Y0242049D01*
X0209099Y0241250D02*
X0214854Y0241250D01*
X0214864Y0240452D02*
X0209099Y0240452D01*
X0209099Y0239653D02*
X0214873Y0239653D01*
X0216630Y0238318D02*
X0216630Y0267846D01*
X0203835Y0267846D01*
X0195271Y0272215D02*
X0192614Y0270798D01*
X0196945Y0278672D02*
X0198126Y0279854D01*
X0203638Y0279854D01*
X0178513Y0269446D02*
X0178466Y0263587D01*
X0178466Y0237655D01*
X0177863Y0237052D01*
X0177863Y0234918D01*
X0178899Y0233882D01*
X0178899Y0227829D01*
X0175102Y0224031D01*
X0175102Y0219703D01*
X0172327Y0216928D01*
X0172327Y0215062D01*
X0174143Y0210849D02*
X0160788Y0210849D01*
X0154708Y0212992D01*
X0154708Y0217410D01*
X0154005Y0218113D01*
X0152013Y0218113D01*
X0148113Y0222012D01*
X0146121Y0222012D01*
X0145418Y0222715D01*
X0145418Y0224707D01*
X0144945Y0225180D01*
X0143858Y0226680D01*
X0143740Y0232062D01*
X0140965Y0229203D02*
X0141062Y0224772D01*
X0140421Y0224131D01*
X0140421Y0193716D01*
X0148913Y0185223D01*
X0148913Y0184972D01*
X0156000Y0184972D01*
X0163480Y0184972D01*
X0163783Y0190987D02*
X0156283Y0190987D01*
X0150236Y0190987D01*
X0142021Y0199202D01*
X0142021Y0216572D01*
X0143562Y0218113D01*
X0148887Y0218113D01*
X0149590Y0217410D01*
X0149590Y0215417D01*
X0150063Y0214944D01*
X0152622Y0214944D02*
X0152622Y0209235D01*
X0153783Y0208074D01*
X0156283Y0208074D01*
X0163783Y0208074D01*
X0171283Y0208074D01*
X0174143Y0210849D02*
X0174846Y0210146D01*
X0175616Y0210916D01*
X0174846Y0210146D02*
X0174846Y0204550D01*
X0171283Y0200987D01*
X0175327Y0195299D02*
X0160924Y0195299D01*
X0160221Y0196002D01*
X0160221Y0197050D01*
X0156283Y0200987D01*
X0151972Y0205299D01*
X0145924Y0205299D01*
X0145221Y0206002D01*
X0145221Y0210146D01*
X0147504Y0212429D01*
X0147504Y0214944D01*
X0144945Y0214944D02*
X0144945Y0213998D01*
X0143621Y0212674D01*
X0143621Y0205339D01*
X0145261Y0203699D01*
X0146072Y0203699D01*
X0148783Y0200987D01*
X0152721Y0197050D01*
X0152721Y0196002D01*
X0154961Y0193762D01*
X0159143Y0193762D01*
X0159206Y0193699D01*
X0174665Y0193699D01*
X0174898Y0193466D01*
X0174898Y0174342D01*
X0168913Y0174342D01*
X0160724Y0166153D01*
X0163087Y0174342D02*
X0163480Y0174735D01*
X0163480Y0177885D01*
X0156000Y0177885D02*
X0156000Y0174735D01*
X0148913Y0177885D02*
X0147339Y0176310D01*
X0147339Y0169539D01*
X0150724Y0166153D01*
X0150724Y0156153D02*
X0150724Y0140720D01*
X0149408Y0139403D01*
X0075396Y0139403D01*
X0046057Y0110064D01*
X0046057Y0083007D01*
X0059668Y0069395D01*
X0062009Y0069395D01*
X0062339Y0069066D01*
X0062299Y0069027D01*
X0062339Y0069066D02*
X0071630Y0069066D01*
X0071630Y0067098D02*
X0071591Y0067058D01*
X0071630Y0065129D02*
X0024858Y0065129D01*
X0015055Y0074932D01*
X0015055Y0128161D01*
X0015685Y0128791D01*
X0015685Y0138791D02*
X0015685Y0174941D01*
X0013024Y0177601D01*
X0013024Y0189725D01*
X0013727Y0190428D01*
X0034684Y0190428D01*
X0034740Y0190483D01*
X0042614Y0190483D01*
X0043008Y0190090D01*
X0050094Y0190090D02*
X0050094Y0197964D01*
X0050094Y0205838D01*
X0050094Y0212924D01*
X0049110Y0213909D01*
X0050291Y0213909D01*
X0051472Y0212728D01*
X0050094Y0205838D02*
X0053441Y0205838D01*
X0052457Y0197964D02*
X0050094Y0197964D01*
X0043008Y0197964D02*
X0043008Y0205838D01*
X0043992Y0206822D01*
X0043992Y0213909D01*
X0046551Y0221389D02*
X0047339Y0221389D01*
X0051472Y0225523D01*
X0051472Y0226113D01*
X0050094Y0227491D01*
X0052166Y0231054D02*
X0056130Y0227090D01*
X0056130Y0189960D01*
X0050409Y0184240D01*
X0050409Y0181865D01*
X0053184Y0184752D02*
X0053184Y0176609D01*
X0050409Y0173834D01*
X0052225Y0167652D02*
X0038871Y0167652D01*
X0032791Y0173732D01*
X0032791Y0176181D01*
X0032088Y0176884D01*
X0030095Y0176884D01*
X0026196Y0180783D01*
X0024204Y0180783D01*
X0023501Y0181486D01*
X0023501Y0183479D01*
X0023028Y0183952D01*
X0021941Y0185452D01*
X0016587Y0187653D01*
X0015449Y0194027D02*
X0015055Y0194420D01*
X0015055Y0205208D01*
X0016492Y0206645D01*
X0020961Y0206914D02*
X0011118Y0206914D01*
X0011118Y0206116D02*
X0020961Y0206116D01*
X0021492Y0206645D02*
X0021586Y0206645D01*
X0024794Y0203437D01*
X0028190Y0203437D01*
X0030984Y0206231D01*
X0034740Y0206231D01*
X0034740Y0213318D02*
X0033165Y0213318D01*
X0026492Y0206645D01*
X0020961Y0207713D02*
X0011118Y0207713D01*
X0011118Y0207806D02*
X0020961Y0207806D01*
X0020961Y0199932D01*
X0011118Y0199932D01*
X0011118Y0207806D01*
X0011118Y0205317D02*
X0020961Y0205317D01*
X0020961Y0204519D02*
X0011118Y0204519D01*
X0011118Y0203720D02*
X0020961Y0203720D01*
X0020961Y0202921D02*
X0011118Y0202921D01*
X0011118Y0202123D02*
X0020961Y0202123D01*
X0020961Y0201324D02*
X0011118Y0201324D01*
X0011118Y0200526D02*
X0020961Y0200526D01*
X0022535Y0194027D02*
X0024898Y0193239D01*
X0025587Y0187613D02*
X0025466Y0187134D01*
X0025587Y0187613D02*
X0025587Y0183952D01*
X0028146Y0183952D02*
X0028619Y0183479D01*
X0028619Y0181486D01*
X0029322Y0180783D01*
X0031373Y0180783D01*
X0036866Y0175291D01*
X0038323Y0173834D01*
X0043323Y0173834D01*
X0036866Y0175291D02*
X0036866Y0176334D01*
X0036866Y0182377D02*
X0038323Y0182653D01*
X0043323Y0181865D01*
X0036866Y0182377D02*
X0032280Y0182377D01*
X0030705Y0183952D01*
X0026969Y0176884D02*
X0021645Y0176884D01*
X0020104Y0175344D01*
X0020104Y0156005D01*
X0028319Y0147791D01*
X0026866Y0147791D01*
X0028319Y0147791D02*
X0034366Y0147791D01*
X0041866Y0147791D01*
X0049366Y0147791D01*
X0052928Y0145719D02*
X0050900Y0143691D01*
X0033655Y0143691D01*
X0028755Y0138791D01*
X0025685Y0138791D01*
X0035685Y0138791D02*
X0038985Y0142091D01*
X0051563Y0142091D01*
X0055135Y0145662D01*
X0055135Y0150642D01*
X0054228Y0151704D01*
X0053436Y0152102D01*
X0039007Y0152102D01*
X0038304Y0152805D01*
X0038304Y0153853D01*
X0034366Y0157791D01*
X0030054Y0162102D01*
X0024007Y0162102D01*
X0023304Y0162805D01*
X0023304Y0166949D01*
X0025587Y0169232D01*
X0025587Y0173716D01*
X0027672Y0174189D02*
X0027672Y0176181D01*
X0026969Y0176884D01*
X0027672Y0174189D02*
X0028146Y0173716D01*
X0030705Y0173716D02*
X0030705Y0166039D01*
X0031866Y0164877D01*
X0034366Y0164877D01*
X0041866Y0164877D01*
X0049366Y0164877D01*
X0052225Y0167652D02*
X0052928Y0166949D01*
X0052928Y0161353D01*
X0049366Y0157791D01*
X0052550Y0150502D02*
X0052928Y0149896D01*
X0052928Y0145719D01*
X0052550Y0150502D02*
X0037288Y0150502D01*
X0037225Y0150565D01*
X0033044Y0150565D01*
X0030804Y0152805D01*
X0030804Y0153853D01*
X0026866Y0157791D01*
X0024154Y0160502D01*
X0023344Y0160502D01*
X0021704Y0162143D01*
X0021704Y0171446D01*
X0023028Y0172769D01*
X0023028Y0173716D01*
X0016512Y0177917D02*
X0016193Y0179810D01*
X0016587Y0180566D01*
X0026866Y0164877D02*
X0031866Y0164877D01*
X0053184Y0184752D02*
X0057730Y0189297D01*
X0057730Y0227753D01*
X0052829Y0232654D01*
X0043652Y0232654D01*
X0042761Y0233544D01*
X0042761Y0237875D01*
X0043795Y0238909D01*
X0047732Y0238909D01*
X0049307Y0240483D01*
X0048586Y0240452D02*
X0047023Y0240452D01*
X0046256Y0241250D02*
X0048905Y0241250D01*
X0049224Y0242049D02*
X0045490Y0242049D01*
X0044723Y0242847D02*
X0049544Y0242847D01*
X0049863Y0243646D02*
X0043957Y0243646D01*
X0043190Y0244444D02*
X0050183Y0244444D01*
X0050488Y0245208D02*
X0048126Y0239302D01*
X0038677Y0249145D01*
X0041827Y0253869D01*
X0044170Y0251796D01*
X0044170Y0250223D01*
X0044873Y0249520D01*
X0046744Y0249520D01*
X0052063Y0244814D01*
X0050488Y0245208D01*
X0050676Y0246041D02*
X0041657Y0246041D01*
X0042423Y0245243D02*
X0051579Y0245243D01*
X0049773Y0246840D02*
X0040890Y0246840D01*
X0040124Y0247638D02*
X0048871Y0247638D01*
X0047968Y0248437D02*
X0039357Y0248437D01*
X0038677Y0249145D02*
X0031591Y0249145D01*
X0031591Y0262924D01*
X0033934Y0259670D01*
X0033934Y0258884D01*
X0034637Y0258181D01*
X0035006Y0258181D01*
X0038677Y0253082D01*
X0038677Y0249145D01*
X0038677Y0249235D02*
X0031591Y0249235D01*
X0031591Y0250034D02*
X0038677Y0250034D01*
X0039270Y0250034D02*
X0044359Y0250034D01*
X0044170Y0250832D02*
X0039802Y0250832D01*
X0040334Y0251631D02*
X0044170Y0251631D01*
X0043455Y0252429D02*
X0040867Y0252429D01*
X0041399Y0253228D02*
X0042552Y0253228D01*
X0038677Y0252429D02*
X0031591Y0252429D01*
X0031591Y0251631D02*
X0038677Y0251631D01*
X0038677Y0250832D02*
X0031591Y0250832D01*
X0031591Y0253228D02*
X0038572Y0253228D01*
X0037997Y0254026D02*
X0031591Y0254026D01*
X0031591Y0254825D02*
X0037422Y0254825D01*
X0036847Y0255623D02*
X0031591Y0255623D01*
X0031591Y0256422D02*
X0036272Y0256422D01*
X0035698Y0257220D02*
X0031591Y0257220D01*
X0031591Y0258019D02*
X0035123Y0258019D01*
X0034001Y0258817D02*
X0031591Y0258817D01*
X0031591Y0259616D02*
X0033934Y0259616D01*
X0033398Y0260414D02*
X0031591Y0260414D01*
X0031591Y0261213D02*
X0032823Y0261213D01*
X0032248Y0262011D02*
X0031591Y0262011D01*
X0031591Y0262810D02*
X0031673Y0262810D01*
X0035598Y0266004D02*
X0040646Y0266004D01*
X0040646Y0266802D02*
X0034799Y0266802D01*
X0034001Y0267601D02*
X0040646Y0267601D01*
X0040646Y0268399D02*
X0033202Y0268399D01*
X0032404Y0269198D02*
X0040646Y0269198D01*
X0040646Y0269996D02*
X0031605Y0269996D01*
X0030807Y0270795D02*
X0040646Y0270795D01*
X0040646Y0271593D02*
X0030008Y0271593D01*
X0029210Y0272392D02*
X0040646Y0272392D01*
X0040646Y0273190D02*
X0028411Y0273190D01*
X0027613Y0273989D02*
X0040646Y0273989D01*
X0040646Y0274788D02*
X0026814Y0274788D01*
X0026016Y0275586D02*
X0040646Y0275586D01*
X0040646Y0276385D02*
X0025217Y0276385D01*
X0024419Y0277183D02*
X0040646Y0277183D01*
X0040646Y0277982D02*
X0023620Y0277982D01*
X0022822Y0278780D02*
X0040646Y0278780D01*
X0040646Y0279579D02*
X0022023Y0279579D01*
X0021224Y0280377D02*
X0040646Y0280377D01*
X0040646Y0281176D02*
X0020426Y0281176D01*
X0019627Y0281974D02*
X0040646Y0281974D01*
X0040646Y0282773D02*
X0018829Y0282773D01*
X0018030Y0283571D02*
X0040646Y0283571D01*
X0040646Y0284370D02*
X0017232Y0284370D01*
X0016433Y0285168D02*
X0040646Y0285168D01*
X0040646Y0285967D02*
X0015635Y0285967D01*
X0014836Y0286765D02*
X0040646Y0286765D01*
X0040646Y0287564D02*
X0014038Y0287564D01*
X0013239Y0288362D02*
X0040646Y0288362D01*
X0040646Y0288515D02*
X0058362Y0306231D01*
X0089858Y0306231D01*
X0089858Y0319184D01*
X0087439Y0316765D01*
X0083380Y0316765D01*
X0080509Y0319635D01*
X0080509Y0323694D01*
X0083380Y0326565D01*
X0087439Y0326565D01*
X0089858Y0324145D01*
X0089858Y0339184D01*
X0087439Y0336765D01*
X0083380Y0336765D01*
X0080509Y0339635D01*
X0080509Y0343694D01*
X0083380Y0346565D01*
X0087439Y0346565D01*
X0089858Y0344145D01*
X0089858Y0349539D01*
X0048520Y0349539D01*
X0040861Y0341880D01*
X0040861Y0339563D01*
X0039773Y0335503D01*
X0037672Y0331863D01*
X0034700Y0328890D01*
X0031059Y0326789D01*
X0026999Y0325701D01*
X0024682Y0325701D01*
X0022929Y0323948D01*
X0022929Y0308200D01*
X0011118Y0296389D01*
X0011118Y0290483D01*
X0038677Y0262924D01*
X0040646Y0262924D01*
X0040646Y0288515D01*
X0041291Y0289161D02*
X0012441Y0289161D01*
X0011642Y0289959D02*
X0042090Y0289959D01*
X0042888Y0290758D02*
X0011118Y0290758D01*
X0011118Y0291556D02*
X0043687Y0291556D01*
X0044485Y0292355D02*
X0011118Y0292355D01*
X0011118Y0293153D02*
X0045284Y0293153D01*
X0046082Y0293952D02*
X0011118Y0293952D01*
X0011118Y0294750D02*
X0046881Y0294750D01*
X0047680Y0295549D02*
X0011118Y0295549D01*
X0011118Y0296347D02*
X0048478Y0296347D01*
X0049277Y0297146D02*
X0011875Y0297146D01*
X0012673Y0297944D02*
X0050075Y0297944D01*
X0050874Y0298743D02*
X0013472Y0298743D01*
X0014270Y0299541D02*
X0051672Y0299541D01*
X0052471Y0300340D02*
X0015069Y0300340D01*
X0015868Y0301138D02*
X0053269Y0301138D01*
X0054068Y0301937D02*
X0016666Y0301937D01*
X0017465Y0302735D02*
X0054866Y0302735D01*
X0055665Y0303534D02*
X0018263Y0303534D01*
X0019062Y0304332D02*
X0056463Y0304332D01*
X0057262Y0305131D02*
X0019860Y0305131D01*
X0020659Y0305929D02*
X0058060Y0305929D01*
X0057439Y0307765D02*
X0060309Y0310635D01*
X0060309Y0314694D01*
X0057439Y0317565D01*
X0053380Y0317565D01*
X0050509Y0314694D01*
X0050509Y0310635D01*
X0053380Y0307765D01*
X0057439Y0307765D01*
X0058000Y0308325D02*
X0071819Y0308325D01*
X0071021Y0309123D02*
X0058798Y0309123D01*
X0059597Y0309922D02*
X0070509Y0309922D01*
X0070509Y0309635D02*
X0073380Y0306765D01*
X0077439Y0306765D01*
X0080309Y0309635D01*
X0080309Y0313694D01*
X0077439Y0316565D01*
X0073380Y0316565D01*
X0070509Y0313694D01*
X0070509Y0309635D01*
X0070509Y0310721D02*
X0060309Y0310721D01*
X0060309Y0311519D02*
X0070509Y0311519D01*
X0070509Y0312318D02*
X0060309Y0312318D01*
X0060309Y0313116D02*
X0070509Y0313116D01*
X0070730Y0313915D02*
X0060309Y0313915D01*
X0060291Y0314713D02*
X0071528Y0314713D01*
X0072327Y0315512D02*
X0059492Y0315512D01*
X0058694Y0316310D02*
X0073125Y0316310D01*
X0070179Y0319504D02*
X0080640Y0319504D01*
X0080509Y0320303D02*
X0070309Y0320303D01*
X0070309Y0319635D02*
X0067439Y0316765D01*
X0063380Y0316765D01*
X0060509Y0319635D01*
X0060509Y0323694D01*
X0063380Y0326565D01*
X0067439Y0326565D01*
X0070309Y0323694D01*
X0070309Y0319635D01*
X0069380Y0318706D02*
X0081439Y0318706D01*
X0082237Y0317907D02*
X0068582Y0317907D01*
X0067783Y0317109D02*
X0083036Y0317109D01*
X0080089Y0313915D02*
X0089858Y0313915D01*
X0089858Y0314713D02*
X0079291Y0314713D01*
X0078492Y0315512D02*
X0089858Y0315512D01*
X0089858Y0316310D02*
X0077694Y0316310D01*
X0080309Y0313116D02*
X0089858Y0313116D01*
X0089858Y0312318D02*
X0080309Y0312318D01*
X0080309Y0311519D02*
X0089858Y0311519D01*
X0089858Y0310721D02*
X0080309Y0310721D01*
X0080309Y0309922D02*
X0089858Y0309922D01*
X0089858Y0309123D02*
X0079798Y0309123D01*
X0079000Y0308325D02*
X0089858Y0308325D01*
X0089858Y0307526D02*
X0078201Y0307526D01*
X0072618Y0307526D02*
X0022256Y0307526D01*
X0022929Y0308325D02*
X0052819Y0308325D01*
X0052021Y0309123D02*
X0022929Y0309123D01*
X0022929Y0309922D02*
X0051222Y0309922D01*
X0050509Y0310721D02*
X0022929Y0310721D01*
X0022929Y0311519D02*
X0050509Y0311519D01*
X0050509Y0312318D02*
X0022929Y0312318D01*
X0022929Y0313116D02*
X0050509Y0313116D01*
X0050509Y0313915D02*
X0022929Y0313915D01*
X0022929Y0314713D02*
X0050528Y0314713D01*
X0051327Y0315512D02*
X0022929Y0315512D01*
X0022929Y0316310D02*
X0052125Y0316310D01*
X0052924Y0317109D02*
X0022929Y0317109D01*
X0022929Y0317907D02*
X0062237Y0317907D01*
X0061439Y0318706D02*
X0022929Y0318706D01*
X0022929Y0319504D02*
X0060640Y0319504D01*
X0060509Y0320303D02*
X0022929Y0320303D01*
X0022929Y0321101D02*
X0060509Y0321101D01*
X0060509Y0321900D02*
X0022929Y0321900D01*
X0022929Y0322698D02*
X0060509Y0322698D01*
X0060509Y0323497D02*
X0022929Y0323497D01*
X0023276Y0324295D02*
X0061110Y0324295D01*
X0061909Y0325094D02*
X0024075Y0325094D01*
X0027714Y0325892D02*
X0062707Y0325892D01*
X0058761Y0329086D02*
X0071058Y0329086D01*
X0070509Y0329635D02*
X0073380Y0326765D01*
X0077439Y0326765D01*
X0080309Y0329635D01*
X0080309Y0333694D01*
X0077439Y0336565D01*
X0073380Y0336565D01*
X0070509Y0333694D01*
X0070509Y0329635D01*
X0070509Y0329885D02*
X0059559Y0329885D01*
X0060309Y0330635D02*
X0057439Y0327765D01*
X0053380Y0327765D01*
X0050509Y0330635D01*
X0050509Y0334694D01*
X0053380Y0337565D01*
X0057439Y0337565D01*
X0060309Y0334694D01*
X0060309Y0330635D01*
X0060309Y0330683D02*
X0070509Y0330683D01*
X0070509Y0331482D02*
X0060309Y0331482D01*
X0060309Y0332280D02*
X0070509Y0332280D01*
X0070509Y0333079D02*
X0060309Y0333079D01*
X0060309Y0333877D02*
X0070693Y0333877D01*
X0071491Y0334676D02*
X0060309Y0334676D01*
X0059529Y0335474D02*
X0072290Y0335474D01*
X0073088Y0336273D02*
X0058731Y0336273D01*
X0057932Y0337071D02*
X0063073Y0337071D01*
X0063380Y0336765D02*
X0067439Y0336765D01*
X0070309Y0339635D01*
X0070309Y0343694D01*
X0067439Y0346565D01*
X0063380Y0346565D01*
X0060509Y0343694D01*
X0060509Y0339635D01*
X0063380Y0336765D01*
X0062274Y0337870D02*
X0040408Y0337870D01*
X0040622Y0338668D02*
X0061476Y0338668D01*
X0060677Y0339467D02*
X0040836Y0339467D01*
X0040861Y0340265D02*
X0060509Y0340265D01*
X0060509Y0341064D02*
X0040861Y0341064D01*
X0040861Y0341862D02*
X0060509Y0341862D01*
X0060509Y0342661D02*
X0041642Y0342661D01*
X0042441Y0343459D02*
X0060509Y0343459D01*
X0061073Y0344258D02*
X0043239Y0344258D01*
X0044038Y0345057D02*
X0061872Y0345057D01*
X0062670Y0345855D02*
X0044836Y0345855D01*
X0045635Y0346654D02*
X0089858Y0346654D01*
X0089858Y0347452D02*
X0046433Y0347452D01*
X0047232Y0348251D02*
X0089858Y0348251D01*
X0089858Y0349049D02*
X0048030Y0349049D01*
X0052887Y0337071D02*
X0040194Y0337071D01*
X0039980Y0336273D02*
X0052088Y0336273D01*
X0051290Y0335474D02*
X0039757Y0335474D01*
X0039296Y0334676D02*
X0050509Y0334676D01*
X0050509Y0333877D02*
X0038835Y0333877D01*
X0038374Y0333079D02*
X0050509Y0333079D01*
X0050509Y0332280D02*
X0037913Y0332280D01*
X0037291Y0331482D02*
X0050509Y0331482D01*
X0050509Y0330683D02*
X0036493Y0330683D01*
X0035694Y0329885D02*
X0051260Y0329885D01*
X0052058Y0329086D02*
X0034896Y0329086D01*
X0033656Y0328288D02*
X0052857Y0328288D01*
X0057962Y0328288D02*
X0071857Y0328288D01*
X0072655Y0327489D02*
X0032273Y0327489D01*
X0030694Y0326691D02*
X0089858Y0326691D01*
X0089858Y0327489D02*
X0078164Y0327489D01*
X0078962Y0328288D02*
X0089858Y0328288D01*
X0089858Y0329086D02*
X0079761Y0329086D01*
X0080309Y0329885D02*
X0089858Y0329885D01*
X0089858Y0330683D02*
X0080309Y0330683D01*
X0080309Y0331482D02*
X0089858Y0331482D01*
X0089858Y0332280D02*
X0080309Y0332280D01*
X0080309Y0333079D02*
X0089858Y0333079D01*
X0089858Y0333877D02*
X0080126Y0333877D01*
X0079328Y0334676D02*
X0089858Y0334676D01*
X0089858Y0335474D02*
X0078529Y0335474D01*
X0077731Y0336273D02*
X0089858Y0336273D01*
X0089858Y0337071D02*
X0087746Y0337071D01*
X0088544Y0337870D02*
X0089858Y0337870D01*
X0089858Y0338668D02*
X0089343Y0338668D01*
X0083073Y0337071D02*
X0067746Y0337071D01*
X0068544Y0337870D02*
X0082274Y0337870D01*
X0081476Y0338668D02*
X0069343Y0338668D01*
X0070141Y0339467D02*
X0080677Y0339467D01*
X0080509Y0340265D02*
X0070309Y0340265D01*
X0070309Y0341064D02*
X0080509Y0341064D01*
X0080509Y0341862D02*
X0070309Y0341862D01*
X0070309Y0342661D02*
X0080509Y0342661D01*
X0080509Y0343459D02*
X0070309Y0343459D01*
X0069746Y0344258D02*
X0081073Y0344258D01*
X0081872Y0345057D02*
X0068947Y0345057D01*
X0068149Y0345855D02*
X0082670Y0345855D01*
X0088149Y0345855D02*
X0089858Y0345855D01*
X0089858Y0345057D02*
X0088947Y0345057D01*
X0089746Y0344258D02*
X0089858Y0344258D01*
X0089858Y0325892D02*
X0088111Y0325892D01*
X0088910Y0325094D02*
X0089858Y0325094D01*
X0089858Y0324295D02*
X0089708Y0324295D01*
X0089858Y0318706D02*
X0089380Y0318706D01*
X0089858Y0317907D02*
X0088582Y0317907D01*
X0087783Y0317109D02*
X0089858Y0317109D01*
X0080509Y0321101D02*
X0070309Y0321101D01*
X0070309Y0321900D02*
X0080509Y0321900D01*
X0080509Y0322698D02*
X0070309Y0322698D01*
X0070309Y0323497D02*
X0080509Y0323497D01*
X0081110Y0324295D02*
X0069708Y0324295D01*
X0068910Y0325094D02*
X0081909Y0325094D01*
X0082707Y0325892D02*
X0068111Y0325892D01*
X0063036Y0317109D02*
X0057895Y0317109D01*
X0089858Y0306728D02*
X0021457Y0306728D01*
X0036396Y0265205D02*
X0040646Y0265205D01*
X0040646Y0264407D02*
X0037195Y0264407D01*
X0037993Y0263608D02*
X0040646Y0263608D01*
X0038677Y0262531D02*
X0040252Y0260956D01*
X0046945Y0260956D01*
X0046945Y0253082D01*
X0047065Y0249235D02*
X0038737Y0249235D01*
X0036709Y0241271D02*
X0028835Y0241271D01*
X0030803Y0241250D02*
X0011118Y0241250D01*
X0011118Y0240452D02*
X0030803Y0240452D01*
X0030803Y0239653D02*
X0011118Y0239653D01*
X0011118Y0238855D02*
X0030803Y0238855D01*
X0030803Y0238056D02*
X0011118Y0238056D01*
X0011118Y0237257D02*
X0030803Y0237257D01*
X0030803Y0236459D02*
X0011118Y0236459D01*
X0011118Y0235660D02*
X0030803Y0235660D01*
X0030803Y0234862D02*
X0011118Y0234862D01*
X0011118Y0234063D02*
X0030803Y0234063D01*
X0030803Y0233397D02*
X0026866Y0229460D01*
X0026866Y0225523D01*
X0011118Y0225523D01*
X0011118Y0245208D01*
X0030803Y0245208D01*
X0030803Y0233397D01*
X0030671Y0233265D02*
X0011118Y0233265D01*
X0011118Y0232466D02*
X0029873Y0232466D01*
X0029074Y0231668D02*
X0011118Y0231668D01*
X0011118Y0230869D02*
X0028276Y0230869D01*
X0027477Y0230071D02*
X0011118Y0230071D01*
X0011118Y0229272D02*
X0026866Y0229272D01*
X0026866Y0228474D02*
X0011118Y0228474D01*
X0011118Y0227675D02*
X0026866Y0227675D01*
X0026866Y0226877D02*
X0011118Y0226877D01*
X0011118Y0226078D02*
X0026866Y0226078D01*
X0034740Y0221980D02*
X0037496Y0221980D01*
X0043008Y0227491D01*
X0042989Y0231054D02*
X0052166Y0231054D01*
X0048266Y0239653D02*
X0047789Y0239653D01*
X0040646Y0237334D02*
X0040646Y0233397D01*
X0042989Y0231054D01*
X0040646Y0237334D02*
X0036709Y0241271D01*
X0030803Y0242049D02*
X0011118Y0242049D01*
X0011118Y0242847D02*
X0030803Y0242847D01*
X0030803Y0243646D02*
X0011118Y0243646D01*
X0011118Y0244444D02*
X0030803Y0244444D01*
X0023323Y0253082D02*
X0023323Y0260956D01*
X0018598Y0260956D01*
X0011512Y0260956D02*
X0011512Y0254657D01*
X0015055Y0251113D01*
X0054031Y0253082D02*
X0054031Y0260956D01*
X0073323Y0270798D02*
X0075979Y0272215D01*
X0083795Y0272215D01*
X0084346Y0272767D01*
X0083881Y0269446D02*
X0098986Y0269446D01*
X0098939Y0263587D01*
X0098939Y0237655D01*
X0098335Y0237052D01*
X0098335Y0234918D01*
X0099372Y0233882D01*
X0099372Y0227829D01*
X0095574Y0224031D01*
X0095574Y0219703D01*
X0092799Y0216928D01*
X0092799Y0215062D01*
X0094615Y0210849D02*
X0081260Y0210849D01*
X0075180Y0212992D01*
X0075180Y0217410D01*
X0074477Y0218113D01*
X0072485Y0218113D01*
X0068586Y0222012D01*
X0066594Y0222012D01*
X0065891Y0222715D01*
X0065891Y0224707D01*
X0065417Y0225180D01*
X0064331Y0226680D01*
X0064213Y0232062D01*
X0061438Y0229203D02*
X0061535Y0224772D01*
X0060894Y0224131D01*
X0060894Y0193716D01*
X0069386Y0185223D01*
X0069386Y0184972D01*
X0076472Y0184972D01*
X0083953Y0184972D01*
X0084256Y0190987D02*
X0076756Y0190987D01*
X0070708Y0190987D01*
X0062494Y0199202D01*
X0062494Y0216572D01*
X0064034Y0218113D01*
X0069359Y0218113D01*
X0070062Y0217410D01*
X0070062Y0215417D01*
X0070535Y0214944D01*
X0067976Y0214944D02*
X0067976Y0212429D01*
X0065694Y0210146D01*
X0065694Y0206002D01*
X0066397Y0205299D01*
X0072444Y0205299D01*
X0076756Y0200987D01*
X0080694Y0197050D01*
X0080694Y0196002D01*
X0081397Y0195299D01*
X0095800Y0195299D01*
X0096970Y0194129D01*
X0096970Y0172517D01*
X0090803Y0166350D01*
X0092278Y0171250D02*
X0088773Y0171250D01*
X0083873Y0166350D01*
X0080803Y0166350D01*
X0083559Y0174342D02*
X0083953Y0174735D01*
X0083953Y0177885D01*
X0076472Y0177885D02*
X0076472Y0174735D01*
X0069386Y0177885D02*
X0067811Y0176310D01*
X0067811Y0169342D01*
X0070803Y0166350D01*
X0070803Y0156350D02*
X0071157Y0155995D01*
X0071157Y0139893D01*
X0054425Y0123161D01*
X0052457Y0123161D01*
X0044457Y0110726D02*
X0074734Y0141003D01*
X0110528Y0141003D01*
X0110528Y0155720D01*
X0110961Y0156153D01*
X0110961Y0166153D02*
X0107575Y0169539D01*
X0107575Y0176310D01*
X0109150Y0177885D01*
X0116236Y0177885D02*
X0116236Y0174735D01*
X0123323Y0174342D02*
X0123717Y0174735D01*
X0123717Y0177885D01*
X0129150Y0174342D02*
X0120961Y0166153D01*
X0129150Y0174342D02*
X0135134Y0174342D01*
X0135134Y0193466D01*
X0134901Y0193699D01*
X0119442Y0193699D01*
X0119379Y0193762D01*
X0115197Y0193762D01*
X0112957Y0196002D01*
X0112957Y0197050D01*
X0109020Y0200987D01*
X0106308Y0203699D01*
X0105498Y0203699D01*
X0103857Y0205339D01*
X0103857Y0212674D01*
X0105181Y0213998D01*
X0105181Y0214944D01*
X0107740Y0214944D02*
X0107740Y0212429D01*
X0105457Y0210146D01*
X0105457Y0206002D01*
X0106160Y0205299D01*
X0112208Y0205299D01*
X0116520Y0200987D01*
X0120457Y0197050D01*
X0120457Y0196002D01*
X0121160Y0195299D01*
X0135564Y0195299D01*
X0136734Y0194129D01*
X0136734Y0171926D01*
X0130961Y0166153D01*
X0123717Y0184972D02*
X0116236Y0184972D01*
X0109150Y0184972D01*
X0109150Y0185223D01*
X0100657Y0193716D01*
X0100657Y0224131D01*
X0101299Y0224772D01*
X0101202Y0229203D01*
X0101202Y0234921D01*
X0106192Y0239912D01*
X0124078Y0239912D01*
X0124772Y0240606D01*
X0126509Y0238406D02*
X0124772Y0236669D01*
X0119740Y0236669D01*
X0119346Y0237062D01*
X0125303Y0230606D02*
X0126756Y0231606D01*
X0129318Y0234168D01*
X0131420Y0234168D01*
X0133921Y0236669D01*
X0136499Y0237715D02*
X0136499Y0234256D01*
X0137535Y0233219D01*
X0137535Y0228492D01*
X0132563Y0223519D01*
X0132563Y0222562D01*
X0135338Y0224031D02*
X0139135Y0227829D01*
X0139135Y0233882D01*
X0138099Y0234918D01*
X0138099Y0237052D01*
X0138702Y0237655D01*
X0138702Y0263587D01*
X0138749Y0269446D01*
X0123644Y0269446D01*
X0122707Y0268508D01*
X0122707Y0265261D01*
X0122339Y0264893D01*
X0116433Y0264893D01*
X0116630Y0270798D02*
X0116039Y0272373D01*
X0115743Y0272215D01*
X0123559Y0272215D01*
X0124110Y0272767D01*
X0124307Y0267846D02*
X0124307Y0264893D01*
X0131197Y0264893D01*
X0132181Y0265877D01*
X0134823Y0264417D02*
X0129346Y0264417D01*
X0129346Y0246871D01*
X0129572Y0246646D01*
X0129572Y0239606D01*
X0135346Y0239606D01*
X0135134Y0257019D01*
X0134823Y0264417D01*
X0134823Y0264407D02*
X0129346Y0264407D01*
X0129346Y0263608D02*
X0134857Y0263608D01*
X0134890Y0262810D02*
X0129346Y0262810D01*
X0129346Y0262011D02*
X0134924Y0262011D01*
X0134958Y0261213D02*
X0129346Y0261213D01*
X0129346Y0260414D02*
X0134991Y0260414D01*
X0135025Y0259616D02*
X0129346Y0259616D01*
X0129346Y0258817D02*
X0135058Y0258817D01*
X0135092Y0258019D02*
X0129346Y0258019D01*
X0129346Y0257220D02*
X0135125Y0257220D01*
X0135141Y0256422D02*
X0129346Y0256422D01*
X0129346Y0255623D02*
X0135151Y0255623D01*
X0135161Y0254825D02*
X0129346Y0254825D01*
X0129346Y0254026D02*
X0135170Y0254026D01*
X0135180Y0253228D02*
X0129346Y0253228D01*
X0129346Y0252429D02*
X0135190Y0252429D01*
X0135200Y0251631D02*
X0129346Y0251631D01*
X0129346Y0250832D02*
X0135209Y0250832D01*
X0135219Y0250034D02*
X0129346Y0250034D01*
X0129346Y0249235D02*
X0135229Y0249235D01*
X0135239Y0248437D02*
X0129346Y0248437D01*
X0129346Y0247638D02*
X0135248Y0247638D01*
X0135258Y0246840D02*
X0129378Y0246840D01*
X0129572Y0246041D02*
X0135268Y0246041D01*
X0135278Y0245243D02*
X0129572Y0245243D01*
X0129572Y0244444D02*
X0135287Y0244444D01*
X0135297Y0243646D02*
X0129572Y0243646D01*
X0129572Y0242847D02*
X0135307Y0242847D01*
X0135317Y0242049D02*
X0129572Y0242049D01*
X0129572Y0241250D02*
X0135326Y0241250D01*
X0135336Y0240452D02*
X0129572Y0240452D01*
X0129572Y0239653D02*
X0135346Y0239653D01*
X0137102Y0238318D02*
X0137102Y0267846D01*
X0124307Y0267846D01*
X0115743Y0272215D02*
X0113087Y0270798D01*
X0117417Y0278672D02*
X0118598Y0279854D01*
X0124110Y0279854D01*
X0116039Y0252294D02*
X0116236Y0250917D01*
X0116236Y0250720D01*
X0113087Y0250720D01*
X0125803Y0250606D02*
X0125803Y0247586D01*
X0127572Y0245818D01*
X0127572Y0239331D01*
X0126647Y0238406D01*
X0126509Y0238406D01*
X0132390Y0230606D02*
X0134846Y0229606D01*
X0135338Y0224031D02*
X0135338Y0219703D01*
X0132563Y0216928D01*
X0132563Y0215062D01*
X0134379Y0210849D02*
X0135785Y0210849D01*
X0135852Y0210916D01*
X0135082Y0210146D02*
X0135082Y0204550D01*
X0131520Y0200987D01*
X0131520Y0208074D02*
X0124020Y0208074D01*
X0116520Y0208074D01*
X0114020Y0208074D01*
X0112858Y0209235D01*
X0112858Y0214944D01*
X0110299Y0214944D02*
X0109826Y0215417D01*
X0109826Y0217410D01*
X0109123Y0218113D01*
X0103798Y0218113D01*
X0102257Y0216572D01*
X0102257Y0199202D01*
X0110472Y0190987D01*
X0109020Y0190987D01*
X0110472Y0190987D02*
X0116520Y0190987D01*
X0124020Y0190987D01*
X0131520Y0190987D01*
X0148783Y0190987D02*
X0150236Y0190987D01*
X0163783Y0190987D02*
X0171283Y0190987D01*
X0175327Y0195299D02*
X0176498Y0194129D01*
X0176498Y0173679D01*
X0170724Y0167906D01*
X0170724Y0166153D01*
X0195764Y0174735D02*
X0195764Y0177885D01*
X0193547Y0208074D02*
X0188547Y0208074D01*
X0198547Y0216519D02*
X0193054Y0222012D01*
X0191003Y0222012D01*
X0190300Y0222715D01*
X0190300Y0224707D01*
X0189827Y0225180D01*
X0192386Y0225180D02*
X0193961Y0223606D01*
X0198547Y0223606D01*
X0200004Y0223487D01*
X0205004Y0222562D01*
X0212091Y0222562D02*
X0212091Y0223519D01*
X0217063Y0228492D01*
X0217063Y0233219D01*
X0216027Y0234256D01*
X0216027Y0237715D01*
X0216630Y0238318D01*
X0213449Y0236669D02*
X0210948Y0234168D01*
X0208845Y0234168D01*
X0206283Y0231606D01*
X0204831Y0230606D01*
X0204299Y0236669D02*
X0199268Y0236669D01*
X0198874Y0237062D01*
X0204299Y0236669D02*
X0206036Y0238406D01*
X0206174Y0238406D01*
X0207099Y0239331D01*
X0207099Y0245818D01*
X0205331Y0247586D01*
X0205331Y0250606D01*
X0195764Y0250720D02*
X0195764Y0250917D01*
X0195567Y0252294D01*
X0195764Y0250720D02*
X0192614Y0250720D01*
X0185719Y0239912D02*
X0180729Y0234921D01*
X0180729Y0229203D01*
X0177299Y0228492D02*
X0177299Y0233219D01*
X0176263Y0234256D01*
X0176263Y0237715D01*
X0176866Y0238318D01*
X0176866Y0267846D01*
X0164071Y0267846D01*
X0164071Y0264893D01*
X0170961Y0264893D01*
X0171945Y0265877D01*
X0174587Y0264417D02*
X0169110Y0264417D01*
X0169110Y0246871D01*
X0169335Y0246646D01*
X0169335Y0239606D01*
X0175110Y0239606D01*
X0174898Y0257019D01*
X0174587Y0264417D01*
X0174587Y0264407D02*
X0169110Y0264407D01*
X0169110Y0263608D02*
X0174621Y0263608D01*
X0174654Y0262810D02*
X0169110Y0262810D01*
X0169110Y0262011D02*
X0174688Y0262011D01*
X0174721Y0261213D02*
X0169110Y0261213D01*
X0169110Y0260414D02*
X0174755Y0260414D01*
X0174788Y0259616D02*
X0169110Y0259616D01*
X0169110Y0258817D02*
X0174822Y0258817D01*
X0174856Y0258019D02*
X0169110Y0258019D01*
X0169110Y0257220D02*
X0174889Y0257220D01*
X0174905Y0256422D02*
X0169110Y0256422D01*
X0169110Y0255623D02*
X0174915Y0255623D01*
X0174924Y0254825D02*
X0169110Y0254825D01*
X0169110Y0254026D02*
X0174934Y0254026D01*
X0174944Y0253228D02*
X0169110Y0253228D01*
X0169110Y0252429D02*
X0174954Y0252429D01*
X0174963Y0251631D02*
X0169110Y0251631D01*
X0169110Y0250832D02*
X0174973Y0250832D01*
X0174983Y0250034D02*
X0169110Y0250034D01*
X0169110Y0249235D02*
X0174993Y0249235D01*
X0175002Y0248437D02*
X0169110Y0248437D01*
X0169110Y0247638D02*
X0175012Y0247638D01*
X0175022Y0246840D02*
X0169142Y0246840D01*
X0169335Y0246041D02*
X0175032Y0246041D01*
X0175041Y0245243D02*
X0169335Y0245243D01*
X0169335Y0244444D02*
X0175051Y0244444D01*
X0175061Y0243646D02*
X0169335Y0243646D01*
X0169335Y0242847D02*
X0175071Y0242847D01*
X0175080Y0242049D02*
X0169335Y0242049D01*
X0169335Y0241250D02*
X0175090Y0241250D01*
X0175100Y0240452D02*
X0169335Y0240452D01*
X0169335Y0239653D02*
X0175110Y0239653D01*
X0173685Y0236669D02*
X0171184Y0234168D01*
X0169082Y0234168D01*
X0166519Y0231606D01*
X0165067Y0230606D01*
X0164535Y0236669D02*
X0159504Y0236669D01*
X0159110Y0237062D01*
X0164535Y0236669D02*
X0166272Y0238406D01*
X0166410Y0238406D01*
X0167335Y0239331D01*
X0167335Y0245818D01*
X0165567Y0247586D01*
X0165567Y0250606D01*
X0156000Y0250720D02*
X0156000Y0250917D01*
X0155803Y0252294D01*
X0156000Y0250720D02*
X0152850Y0250720D01*
X0145956Y0239912D02*
X0140965Y0234921D01*
X0140965Y0229203D01*
X0147383Y0228362D02*
X0151083Y0232062D01*
X0151276Y0232062D01*
X0151276Y0236743D01*
X0151079Y0236940D01*
X0147732Y0236940D01*
X0151079Y0236940D02*
X0151276Y0237137D01*
X0151276Y0232062D02*
X0152283Y0232062D01*
X0153783Y0230562D01*
X0151083Y0232062D02*
X0150827Y0232062D01*
X0147504Y0228842D02*
X0147383Y0228362D01*
X0147504Y0228842D02*
X0147504Y0225180D01*
X0150063Y0225180D02*
X0150536Y0224707D01*
X0150536Y0222715D01*
X0151239Y0222012D01*
X0153291Y0222012D01*
X0158783Y0216519D01*
X0161028Y0215850D01*
X0165240Y0215062D01*
X0158783Y0216519D02*
X0158783Y0217562D01*
X0158783Y0223606D02*
X0154197Y0223606D01*
X0152622Y0225180D01*
X0158783Y0223606D02*
X0160240Y0223487D01*
X0165240Y0222562D01*
X0172327Y0222562D02*
X0172327Y0223519D01*
X0177299Y0228492D01*
X0174610Y0229606D02*
X0172154Y0230606D01*
X0163842Y0239912D02*
X0145956Y0239912D01*
X0137102Y0238318D02*
X0136499Y0237715D01*
X0125476Y0222562D02*
X0120476Y0223487D01*
X0119020Y0223606D01*
X0114433Y0223606D01*
X0112858Y0225180D01*
X0110772Y0224707D02*
X0110772Y0222715D01*
X0111475Y0222012D01*
X0113527Y0222012D01*
X0119020Y0216519D01*
X0121264Y0215850D01*
X0125476Y0215062D01*
X0121024Y0210849D02*
X0114944Y0212992D01*
X0114944Y0217410D01*
X0114241Y0218113D01*
X0112249Y0218113D01*
X0108350Y0222012D01*
X0106357Y0222012D01*
X0105654Y0222715D01*
X0105654Y0224707D01*
X0105181Y0225180D01*
X0104094Y0226680D01*
X0103976Y0232062D01*
X0107740Y0228842D02*
X0107620Y0228362D01*
X0111320Y0232062D01*
X0111512Y0232062D01*
X0111512Y0236743D01*
X0111315Y0236940D01*
X0107969Y0236940D01*
X0111315Y0236940D02*
X0111512Y0237137D01*
X0111512Y0232062D02*
X0112520Y0232062D01*
X0114020Y0230562D01*
X0111320Y0232062D02*
X0111063Y0232062D01*
X0107740Y0228842D02*
X0107740Y0225180D01*
X0110299Y0225180D02*
X0110772Y0224707D01*
X0119020Y0217562D02*
X0119020Y0216519D01*
X0121024Y0210849D02*
X0134379Y0210849D01*
X0135082Y0210146D01*
X0148783Y0208074D02*
X0153783Y0208074D01*
X0163842Y0239912D02*
X0164535Y0240606D01*
X0185719Y0239912D02*
X0203606Y0239912D01*
X0204299Y0240606D01*
X0211917Y0230606D02*
X0214374Y0229606D01*
X0220493Y0229203D02*
X0220493Y0234921D01*
X0225483Y0239912D01*
X0243369Y0239912D01*
X0244063Y0240606D01*
X0245800Y0238406D02*
X0244063Y0236669D01*
X0239031Y0236669D01*
X0238638Y0237062D01*
X0245800Y0238406D02*
X0245938Y0238406D01*
X0246863Y0239331D01*
X0246863Y0245818D01*
X0245094Y0247586D01*
X0245094Y0250606D01*
X0248638Y0250832D02*
X0254501Y0250832D01*
X0254510Y0250034D02*
X0248638Y0250034D01*
X0248638Y0249235D02*
X0254520Y0249235D01*
X0254530Y0248437D02*
X0248638Y0248437D01*
X0248638Y0247638D02*
X0254540Y0247638D01*
X0254549Y0246840D02*
X0248669Y0246840D01*
X0248863Y0246041D02*
X0254559Y0246041D01*
X0254569Y0245243D02*
X0248863Y0245243D01*
X0248863Y0244444D02*
X0254579Y0244444D01*
X0254588Y0243646D02*
X0248863Y0243646D01*
X0248863Y0242847D02*
X0254598Y0242847D01*
X0254608Y0242049D02*
X0248863Y0242049D01*
X0248863Y0241250D02*
X0254618Y0241250D01*
X0254627Y0240452D02*
X0248863Y0240452D01*
X0248863Y0239653D02*
X0254637Y0239653D01*
X0253213Y0236669D02*
X0250712Y0234168D01*
X0248609Y0234168D01*
X0246047Y0231606D01*
X0244594Y0230606D01*
X0251681Y0230606D02*
X0254138Y0229606D01*
X0258427Y0227829D02*
X0254629Y0224031D01*
X0258427Y0227829D02*
X0258427Y0233882D01*
X0257391Y0234918D01*
X0257391Y0237052D01*
X0257994Y0237655D01*
X0257994Y0263587D01*
X0258041Y0269446D01*
X0242936Y0269446D01*
X0241998Y0268508D01*
X0241998Y0265261D01*
X0241630Y0264893D01*
X0235724Y0264893D01*
X0235921Y0270798D02*
X0235331Y0272373D01*
X0235034Y0272215D01*
X0242850Y0272215D01*
X0243402Y0272767D01*
X0243402Y0279854D02*
X0237890Y0279854D01*
X0236709Y0278672D01*
X0235034Y0272215D02*
X0232378Y0270798D01*
X0235331Y0252294D02*
X0235528Y0250917D01*
X0235528Y0250720D01*
X0232378Y0250720D01*
X0230803Y0237137D02*
X0230606Y0236940D01*
X0230803Y0236743D01*
X0230803Y0232062D01*
X0231811Y0232062D01*
X0233311Y0230562D01*
X0230803Y0232062D02*
X0230611Y0232062D01*
X0226911Y0228362D01*
X0227031Y0228842D01*
X0227031Y0225180D01*
X0229591Y0225180D02*
X0230064Y0224707D01*
X0230064Y0222715D01*
X0230767Y0222012D01*
X0232818Y0222012D01*
X0238311Y0216519D01*
X0240555Y0215850D01*
X0244768Y0215062D01*
X0238311Y0216519D02*
X0238311Y0217562D01*
X0238311Y0223606D02*
X0233724Y0223606D01*
X0232150Y0225180D01*
X0238311Y0223606D02*
X0239768Y0223487D01*
X0244768Y0222562D01*
X0230611Y0232062D02*
X0230354Y0232062D01*
X0230606Y0236940D02*
X0227260Y0236940D01*
X0248638Y0251631D02*
X0254491Y0251631D01*
X0254481Y0252429D02*
X0248638Y0252429D01*
X0265055Y0235365D02*
X0274898Y0235365D01*
X0274898Y0227491D01*
X0265055Y0227491D01*
X0265055Y0235365D01*
X0265055Y0234862D02*
X0274898Y0234862D01*
X0274898Y0234063D02*
X0265055Y0234063D01*
X0265055Y0233265D02*
X0274898Y0233265D01*
X0274898Y0232466D02*
X0265055Y0232466D01*
X0265055Y0231668D02*
X0274898Y0231668D01*
X0274898Y0230869D02*
X0265055Y0230869D01*
X0265055Y0230071D02*
X0274898Y0230071D01*
X0274898Y0229272D02*
X0265055Y0229272D01*
X0265055Y0228474D02*
X0274898Y0228474D01*
X0274898Y0227675D02*
X0265055Y0227675D01*
X0268992Y0232767D02*
X0268992Y0221980D01*
X0269386Y0221586D01*
X0267664Y0217987D02*
X0266961Y0217284D01*
X0266961Y0213140D01*
X0267024Y0213078D01*
X0267024Y0210259D01*
X0266961Y0210197D01*
X0266961Y0181609D01*
X0282220Y0166350D01*
X0282256Y0175350D02*
X0274041Y0183564D01*
X0274041Y0202903D01*
X0275582Y0204443D01*
X0280906Y0204443D01*
X0281609Y0203740D01*
X0281609Y0201748D01*
X0282083Y0201275D01*
X0284642Y0201275D02*
X0284642Y0193598D01*
X0285803Y0192436D01*
X0288303Y0192436D01*
X0295803Y0192436D01*
X0303303Y0192436D01*
X0306162Y0195211D02*
X0292808Y0195211D01*
X0286728Y0201291D01*
X0286728Y0203740D01*
X0286025Y0204443D01*
X0284032Y0204443D01*
X0280133Y0208343D01*
X0278141Y0208343D01*
X0277438Y0209045D01*
X0277438Y0211038D01*
X0276965Y0211511D01*
X0275878Y0213011D01*
X0273951Y0213803D01*
X0273747Y0213803D01*
X0273605Y0213945D01*
X0273313Y0213945D01*
X0273109Y0214149D01*
X0270524Y0215212D01*
X0273383Y0217987D02*
X0267664Y0217987D01*
X0273383Y0217987D02*
X0277289Y0216381D01*
X0278289Y0217382D01*
X0279524Y0215172D02*
X0279403Y0214693D01*
X0279524Y0215172D02*
X0279524Y0211511D01*
X0282083Y0211511D02*
X0282556Y0211038D01*
X0282556Y0209045D01*
X0283259Y0208343D01*
X0285310Y0208343D01*
X0290803Y0202850D01*
X0292260Y0201393D01*
X0297260Y0201393D01*
X0290803Y0202850D02*
X0290803Y0203893D01*
X0290803Y0209936D02*
X0286217Y0209936D01*
X0284642Y0211511D01*
X0290803Y0209936D02*
X0292260Y0210212D01*
X0297260Y0209424D01*
X0304031Y0217649D02*
X0306394Y0217649D01*
X0307121Y0212311D02*
X0307121Y0204168D01*
X0304346Y0201393D01*
X0306162Y0195211D02*
X0306865Y0194508D01*
X0306865Y0188912D01*
X0303303Y0185350D01*
X0307964Y0179661D02*
X0292944Y0179661D01*
X0292241Y0180364D01*
X0292241Y0181412D01*
X0288303Y0185350D01*
X0283991Y0189661D01*
X0277944Y0189661D01*
X0277241Y0190364D01*
X0277241Y0194508D01*
X0279524Y0196791D01*
X0279524Y0201275D01*
X0276965Y0201275D02*
X0276965Y0200328D01*
X0275641Y0199005D01*
X0275641Y0189702D01*
X0277281Y0188061D01*
X0278091Y0188061D01*
X0280803Y0185350D01*
X0284741Y0181412D01*
X0284741Y0180364D01*
X0286981Y0178124D01*
X0291162Y0178124D01*
X0291225Y0178061D01*
X0306487Y0178061D01*
X0306865Y0177455D01*
X0306865Y0173278D01*
X0304837Y0171250D01*
X0300191Y0171250D01*
X0295291Y0166350D01*
X0292220Y0166350D01*
X0295803Y0175350D02*
X0288303Y0175350D01*
X0282256Y0175350D01*
X0280803Y0175350D01*
X0295803Y0175350D02*
X0303303Y0175350D01*
X0308465Y0177272D02*
X0308465Y0172594D01*
X0302220Y0166350D01*
X0308465Y0177272D02*
X0308574Y0177739D01*
X0308465Y0177913D01*
X0308465Y0178118D01*
X0308362Y0178221D01*
X0308362Y0179263D01*
X0307964Y0179661D01*
X0320173Y0176310D02*
X0320173Y0174342D01*
X0323953Y0170562D01*
X0323953Y0166350D01*
X0328835Y0174735D02*
X0328835Y0177885D01*
X0321748Y0177885D02*
X0320173Y0176310D01*
X0321618Y0190987D02*
X0323071Y0190987D01*
X0327796Y0193762D02*
X0325556Y0196002D01*
X0325556Y0197050D01*
X0321618Y0200987D01*
X0318906Y0203699D01*
X0318096Y0203699D01*
X0316456Y0205339D01*
X0316456Y0212674D01*
X0317780Y0213998D01*
X0317780Y0214944D01*
X0320339Y0214944D02*
X0320339Y0212429D01*
X0318056Y0210146D01*
X0318056Y0206002D01*
X0318759Y0205299D01*
X0324806Y0205299D01*
X0329118Y0200987D01*
X0333056Y0197050D01*
X0333056Y0196002D01*
X0333759Y0195299D01*
X0348162Y0195299D01*
X0349332Y0194129D01*
X0349332Y0171729D01*
X0343953Y0166350D01*
X0344640Y0171250D02*
X0341923Y0171250D01*
X0337023Y0166350D01*
X0333953Y0166350D01*
X0335921Y0174342D02*
X0336315Y0174735D01*
X0336315Y0177885D01*
X0344640Y0171250D02*
X0347732Y0174342D01*
X0347732Y0193466D01*
X0347499Y0193699D01*
X0332040Y0193699D01*
X0331977Y0193762D01*
X0327796Y0193762D01*
X0336618Y0190987D02*
X0344118Y0190987D01*
X0350932Y0194792D02*
X0345398Y0200326D01*
X0345398Y0202267D01*
X0344118Y0200987D01*
X0345398Y0202267D02*
X0347680Y0204550D01*
X0347680Y0210146D01*
X0346977Y0210849D01*
X0345161Y0215062D02*
X0345161Y0216928D01*
X0347936Y0219703D01*
X0347936Y0224031D01*
X0351734Y0227829D01*
X0351734Y0233882D01*
X0350698Y0234918D01*
X0350698Y0237052D01*
X0351301Y0237655D01*
X0351301Y0263587D01*
X0351348Y0269446D01*
X0336243Y0269446D01*
X0335306Y0268508D01*
X0335306Y0265261D01*
X0334937Y0264893D01*
X0329031Y0264893D01*
X0329228Y0270798D02*
X0328638Y0272373D01*
X0328341Y0272215D01*
X0336157Y0272215D01*
X0336709Y0272767D01*
X0336709Y0279854D02*
X0331197Y0279854D01*
X0330016Y0278672D01*
X0328341Y0272215D02*
X0325685Y0270798D01*
X0328638Y0252294D02*
X0328835Y0250917D01*
X0328835Y0250720D01*
X0325685Y0250720D01*
X0336676Y0239912D02*
X0337370Y0240606D01*
X0344988Y0230606D02*
X0347445Y0229606D01*
X0326618Y0208074D02*
X0321618Y0208074D01*
X0296945Y0225523D02*
X0296551Y0225129D01*
X0288677Y0225129D01*
X0288677Y0233791D02*
X0284921Y0233791D01*
X0282127Y0230996D01*
X0278731Y0230996D01*
X0275523Y0234204D01*
X0275429Y0234204D01*
X0270429Y0234204D02*
X0268992Y0232767D01*
X0280429Y0234204D02*
X0287102Y0240877D01*
X0288677Y0240877D01*
X0288677Y0249539D02*
X0291433Y0249539D01*
X0296945Y0255050D01*
X0296926Y0258613D02*
X0306103Y0258613D01*
X0296926Y0258613D02*
X0294583Y0260956D01*
X0294583Y0264893D01*
X0290646Y0268830D01*
X0282772Y0268830D01*
X0277260Y0280641D02*
X0277260Y0288515D01*
X0272535Y0288515D01*
X0265449Y0288515D02*
X0265449Y0282216D01*
X0268992Y0278672D01*
X0295055Y0311665D02*
X0289661Y0317058D01*
X0289661Y0318987D01*
X0290309Y0319635D01*
X0290309Y0326368D01*
X0294681Y0330739D01*
X0296555Y0330739D01*
X0303380Y0337565D01*
X0307439Y0337565D01*
X0315109Y0329894D01*
X0315109Y0323500D01*
X0324504Y0314106D01*
X0331591Y0314106D02*
X0333953Y0314106D01*
X0333953Y0315090D01*
X0333953Y0302294D02*
X0331591Y0302294D01*
X0307969Y0288515D02*
X0307969Y0280641D01*
X0295409Y0311665D02*
X0295055Y0311665D01*
X0294583Y0312137D02*
X0300488Y0318043D01*
X0300488Y0326310D01*
X0295370Y0331428D01*
X0294681Y0330739D01*
X0191039Y0237137D02*
X0190843Y0236940D01*
X0191039Y0236743D01*
X0191039Y0232062D01*
X0192047Y0232062D01*
X0193547Y0230562D01*
X0191039Y0232062D02*
X0190847Y0232062D01*
X0187147Y0228362D01*
X0187268Y0228842D01*
X0187268Y0225180D01*
X0190591Y0232062D02*
X0190847Y0232062D01*
X0190843Y0236940D02*
X0187496Y0236940D01*
X0198547Y0217562D02*
X0198547Y0216519D01*
X0200791Y0215850D01*
X0205004Y0215062D01*
X0228311Y0208074D02*
X0233311Y0208074D01*
X0229764Y0190987D02*
X0228311Y0190987D01*
X0243311Y0190987D02*
X0250811Y0190987D01*
X0254855Y0195299D02*
X0256025Y0194129D01*
X0256025Y0171729D01*
X0250252Y0165956D01*
X0282220Y0156350D02*
X0282772Y0155798D01*
X0282772Y0134603D01*
X0077384Y0134603D01*
X0050857Y0108075D01*
X0050857Y0085096D01*
X0060981Y0074972D01*
X0071630Y0074972D01*
X0071630Y0076940D02*
X0061276Y0076940D01*
X0052457Y0085759D01*
X0052457Y0107413D01*
X0078047Y0133003D01*
X0307378Y0133003D01*
X0307378Y0145798D01*
X0317929Y0156350D01*
X0323953Y0156350D01*
X0332969Y0140877D02*
X0310491Y0140877D01*
X0310662Y0127466D01*
X0301472Y0127466D01*
X0292614Y0127466D01*
X0241054Y0127466D01*
X0231551Y0117964D01*
X0229551Y0118279D02*
X0242551Y0118279D01*
X0242551Y0117481D02*
X0229551Y0117481D01*
X0229551Y0116682D02*
X0242551Y0116682D01*
X0242551Y0115884D02*
X0229551Y0115884D01*
X0229551Y0115085D02*
X0242551Y0115085D01*
X0242551Y0114646D02*
X0235511Y0114646D01*
X0235286Y0114420D01*
X0229551Y0114420D01*
X0229551Y0120420D01*
X0242551Y0120420D01*
X0242551Y0114646D01*
X0242826Y0112646D02*
X0243751Y0111721D01*
X0243751Y0111583D01*
X0245488Y0109846D01*
X0245488Y0104814D01*
X0245094Y0104420D01*
X0241551Y0109846D02*
X0241551Y0097452D01*
X0242417Y0096586D01*
X0251276Y0096586D01*
X0251669Y0096980D01*
X0251669Y0104460D01*
X0251551Y0110377D02*
X0250551Y0111830D01*
X0247989Y0114392D01*
X0247989Y0116494D01*
X0245488Y0118995D01*
X0242551Y0119078D02*
X0229551Y0119078D01*
X0229551Y0119876D02*
X0242551Y0119876D01*
X0241551Y0118995D02*
X0241551Y0122058D01*
X0241433Y0122176D01*
X0242417Y0123161D01*
X0261118Y0123161D01*
X0261118Y0116271D01*
X0252551Y0119920D02*
X0251551Y0117464D01*
X0242826Y0112646D02*
X0236339Y0112646D01*
X0234571Y0110877D01*
X0231551Y0110877D01*
X0238008Y0104420D02*
X0238008Y0091554D01*
X0231170Y0084716D01*
X0231170Y0078363D01*
X0235500Y0074032D01*
X0235500Y0072580D01*
X0232163Y0075917D01*
X0192220Y0075917D01*
X0192220Y0078983D01*
X0195684Y0082447D01*
X0195684Y0088166D01*
X0195173Y0088677D01*
X0195173Y0111350D01*
X0117846Y0111350D01*
X0114715Y0108218D01*
X0114715Y0090931D01*
X0112259Y0088475D01*
X0112176Y0088475D01*
X0111473Y0087772D01*
X0109430Y0089815D01*
X0077924Y0089815D01*
X0076075Y0091665D01*
X0073126Y0091665D01*
X0070173Y0094617D01*
X0070173Y0095602D01*
X0070055Y0094657D02*
X0071039Y0094657D01*
X0078913Y0094657D01*
X0080882Y0094657D02*
X0080882Y0098262D01*
X0080648Y0098828D02*
X0076945Y0102531D01*
X0080648Y0098828D02*
X0080683Y0098789D01*
X0080717Y0098749D01*
X0080747Y0098706D01*
X0080775Y0098662D01*
X0080799Y0098616D01*
X0080821Y0098568D01*
X0080840Y0098519D01*
X0080855Y0098469D01*
X0080867Y0098418D01*
X0080875Y0098366D01*
X0080880Y0098314D01*
X0080882Y0098262D01*
X0071039Y0094657D02*
X0071039Y0106468D01*
X0090843Y0110365D02*
X0090843Y0094184D01*
X0090724Y0094066D01*
X0092693Y0094066D02*
X0092811Y0094184D01*
X0092811Y0108531D01*
X0093531Y0109252D01*
X0093531Y0111479D01*
X0092811Y0112200D01*
X0092811Y0115287D01*
X0098126Y0114302D02*
X0098126Y0112531D01*
X0105213Y0105444D01*
X0105606Y0105444D01*
X0108559Y0102491D01*
X0108559Y0094184D01*
X0108441Y0094066D01*
X0111473Y0087772D02*
X0111473Y0056266D01*
X0114715Y0053024D01*
X0114715Y0035819D01*
X0115542Y0034992D01*
X0117987Y0034992D01*
X0119780Y0033200D01*
X0165055Y0033200D01*
X0165646Y0033791D01*
X0165646Y0033594D02*
X0167614Y0035562D01*
X0167614Y0036546D01*
X0167496Y0036094D02*
X0167988Y0036094D01*
X0167988Y0037078D02*
X0160114Y0037078D01*
X0158146Y0042491D02*
X0154209Y0038554D01*
X0158146Y0042491D02*
X0162575Y0042491D01*
X0162575Y0047413D01*
X0165035Y0047905D02*
X0165035Y0041015D01*
X0167988Y0038062D01*
X0167496Y0043476D02*
X0167496Y0048397D01*
X0169465Y0050365D02*
X0169465Y0056271D01*
X0188165Y0056271D01*
X0188165Y0048397D01*
X0185213Y0048397D02*
X0185213Y0044791D01*
X0185447Y0044226D02*
X0188165Y0041507D01*
X0190252Y0041468D02*
X0203047Y0054263D01*
X0235528Y0054263D01*
X0210921Y0034578D02*
X0269976Y0034578D01*
X0288559Y0053161D01*
X0288559Y0072846D01*
X0298984Y0072846D01*
X0300721Y0070646D02*
X0298984Y0068909D01*
X0293953Y0068909D01*
X0293559Y0069302D01*
X0300721Y0070646D02*
X0300859Y0070646D01*
X0301784Y0071571D01*
X0301784Y0078058D01*
X0300016Y0079826D01*
X0300016Y0082846D01*
X0303559Y0083145D02*
X0309559Y0083145D01*
X0309559Y0083943D02*
X0303559Y0083943D01*
X0303559Y0084742D02*
X0309559Y0084742D01*
X0309559Y0084846D02*
X0309559Y0071846D01*
X0303784Y0071846D01*
X0303784Y0078886D01*
X0303559Y0079111D01*
X0303559Y0084846D01*
X0309559Y0084846D01*
X0309559Y0082346D02*
X0303559Y0082346D01*
X0303559Y0081548D02*
X0309559Y0081548D01*
X0309559Y0080749D02*
X0303559Y0080749D01*
X0303559Y0079951D02*
X0309559Y0079951D01*
X0309559Y0079152D02*
X0303559Y0079152D01*
X0303784Y0078354D02*
X0309559Y0078354D01*
X0309559Y0077555D02*
X0303784Y0077555D01*
X0303784Y0076757D02*
X0309559Y0076757D01*
X0309559Y0075958D02*
X0303784Y0075958D01*
X0303784Y0075160D02*
X0309559Y0075160D01*
X0309559Y0074361D02*
X0303784Y0074361D01*
X0303784Y0073563D02*
X0309559Y0073563D01*
X0309559Y0072764D02*
X0303784Y0072764D01*
X0303784Y0071966D02*
X0309559Y0071966D01*
X0308134Y0068909D02*
X0305633Y0066408D01*
X0303531Y0066408D01*
X0300968Y0063846D01*
X0299516Y0062846D01*
X0306602Y0062846D02*
X0309059Y0061846D01*
X0313283Y0078279D02*
X0313283Y0045405D01*
X0308362Y0040483D01*
X0308362Y0028672D02*
X0301079Y0028672D01*
X0293992Y0028672D02*
X0289661Y0028672D01*
X0288677Y0028672D01*
X0230606Y0092649D02*
X0200094Y0123161D01*
X0118992Y0123161D01*
X0111906Y0123161D02*
X0105213Y0123161D01*
X0105213Y0114302D01*
X0098126Y0123161D02*
X0094780Y0123161D01*
X0098126Y0105444D02*
X0098126Y0101901D01*
X0097732Y0101507D01*
X0097732Y0102491D01*
X0114715Y0090931D02*
X0116433Y0092649D01*
X0116433Y0095602D01*
X0123205Y0087767D02*
X0120252Y0084814D01*
X0117299Y0084814D01*
X0116315Y0082846D02*
X0131079Y0082846D01*
X0131079Y0086783D01*
X0133047Y0086783D02*
X0133047Y0094657D01*
X0131079Y0080877D02*
X0131079Y0076940D01*
X0134031Y0077924D02*
X0144858Y0085798D01*
X0150764Y0084814D02*
X0150764Y0082193D01*
X0150529Y0081627D02*
X0139937Y0071035D01*
X0117299Y0071035D01*
X0117299Y0069066D02*
X0140921Y0069066D01*
X0151514Y0079659D01*
X0152079Y0079893D02*
X0154701Y0079893D01*
X0156919Y0079893D02*
X0156919Y0084814D01*
X0150764Y0084814D01*
X0150764Y0082193D02*
X0150762Y0082141D01*
X0150757Y0082089D01*
X0150749Y0082037D01*
X0150737Y0081986D01*
X0150722Y0081936D01*
X0150703Y0081887D01*
X0150681Y0081839D01*
X0150657Y0081793D01*
X0150629Y0081749D01*
X0150599Y0081706D01*
X0150565Y0081666D01*
X0150530Y0081627D01*
X0151513Y0079659D02*
X0151552Y0079694D01*
X0151592Y0079728D01*
X0151635Y0079758D01*
X0151679Y0079786D01*
X0151725Y0079810D01*
X0151773Y0079832D01*
X0151822Y0079851D01*
X0151872Y0079866D01*
X0151923Y0079878D01*
X0151975Y0079886D01*
X0152027Y0079891D01*
X0152079Y0079893D01*
X0164309Y0085049D02*
X0164344Y0085010D01*
X0164378Y0084970D01*
X0164408Y0084927D01*
X0164436Y0084883D01*
X0164460Y0084837D01*
X0164482Y0084789D01*
X0164501Y0084740D01*
X0164516Y0084690D01*
X0164528Y0084639D01*
X0164536Y0084587D01*
X0164541Y0084535D01*
X0164543Y0084483D01*
X0164543Y0077924D01*
X0167496Y0078909D02*
X0167496Y0095641D01*
X0165528Y0094657D02*
X0154701Y0094657D01*
X0162575Y0086783D02*
X0164309Y0085048D01*
X0169465Y0086451D02*
X0169465Y0078909D01*
X0169465Y0086451D02*
X0169467Y0086503D01*
X0169472Y0086555D01*
X0169480Y0086607D01*
X0169492Y0086658D01*
X0169507Y0086708D01*
X0169526Y0086757D01*
X0169548Y0086805D01*
X0169572Y0086851D01*
X0169600Y0086895D01*
X0169630Y0086938D01*
X0169664Y0086978D01*
X0169699Y0087017D01*
X0173402Y0090720D01*
X0173402Y0099247D01*
X0173636Y0099812D02*
X0178323Y0104499D01*
X0180783Y0106960D02*
X0189802Y0106960D01*
X0190368Y0106726D02*
X0191118Y0105976D01*
X0190368Y0106726D02*
X0190329Y0106761D01*
X0190289Y0106795D01*
X0190246Y0106825D01*
X0190202Y0106853D01*
X0190156Y0106877D01*
X0190108Y0106899D01*
X0190059Y0106918D01*
X0190009Y0106933D01*
X0189958Y0106945D01*
X0189906Y0106953D01*
X0189854Y0106958D01*
X0189802Y0106960D01*
X0173636Y0099813D02*
X0173601Y0099774D01*
X0173567Y0099734D01*
X0173537Y0099691D01*
X0173509Y0099647D01*
X0173485Y0099601D01*
X0173463Y0099553D01*
X0173444Y0099504D01*
X0173429Y0099454D01*
X0173417Y0099403D01*
X0173409Y0099351D01*
X0173404Y0099299D01*
X0173402Y0099247D01*
X0180685Y0087767D02*
X0180685Y0085011D01*
X0182260Y0083436D01*
X0186591Y0083436D01*
X0188165Y0081861D01*
X0188165Y0078712D01*
X0191236Y0075917D02*
X0192220Y0076901D01*
X0192220Y0085759D01*
X0187299Y0086743D02*
X0182693Y0082137D01*
X0182693Y0078318D01*
X0180134Y0078318D02*
X0180134Y0084499D01*
X0183362Y0087728D01*
X0183362Y0088712D01*
X0177339Y0076940D02*
X0177339Y0072350D01*
X0177104Y0071785D02*
X0175370Y0070050D01*
X0177105Y0071784D02*
X0177140Y0071823D01*
X0177174Y0071863D01*
X0177204Y0071906D01*
X0177232Y0071950D01*
X0177256Y0071996D01*
X0177278Y0072044D01*
X0177297Y0072093D01*
X0177312Y0072143D01*
X0177324Y0072194D01*
X0177332Y0072246D01*
X0177337Y0072298D01*
X0177339Y0072350D01*
X0191236Y0075917D02*
X0192220Y0075917D01*
X0182752Y0049873D02*
X0182752Y0044299D01*
X0182026Y0042749D02*
X0180783Y0041507D01*
X0182025Y0042749D02*
X0182092Y0042813D01*
X0182157Y0042880D01*
X0182218Y0042949D01*
X0182277Y0043020D01*
X0182332Y0043094D01*
X0182385Y0043170D01*
X0182434Y0043248D01*
X0182480Y0043328D01*
X0182523Y0043410D01*
X0182562Y0043494D01*
X0182598Y0043579D01*
X0182630Y0043666D01*
X0182658Y0043754D01*
X0182683Y0043843D01*
X0182704Y0043933D01*
X0182722Y0044024D01*
X0182736Y0044115D01*
X0182746Y0044207D01*
X0182752Y0044299D01*
X0185213Y0044791D02*
X0185215Y0044739D01*
X0185220Y0044687D01*
X0185228Y0044635D01*
X0185240Y0044584D01*
X0185255Y0044534D01*
X0185274Y0044485D01*
X0185296Y0044437D01*
X0185320Y0044391D01*
X0185348Y0044347D01*
X0185378Y0044304D01*
X0185412Y0044264D01*
X0185447Y0044225D01*
X0177339Y0043476D02*
X0167496Y0043476D01*
X0159622Y0044460D02*
X0146374Y0044460D01*
X0127673Y0063161D01*
X0115331Y0063161D01*
X0114839Y0065129D02*
X0133047Y0065129D01*
X0146335Y0051842D01*
X0154701Y0051842D01*
X0156919Y0051592D02*
X0156919Y0057989D01*
X0147811Y0067098D01*
X0116315Y0067098D01*
X0118615Y0073003D02*
X0122220Y0073003D01*
X0122220Y0078909D01*
X0116315Y0078909D01*
X0116315Y0080877D02*
X0131079Y0080877D01*
X0116315Y0086783D02*
X0116315Y0105976D01*
X0090843Y0086743D02*
X0090843Y0080838D01*
X0090724Y0080720D01*
X0090724Y0049972D01*
X0088756Y0049972D02*
X0088756Y0053397D01*
X0086906Y0055247D01*
X0086906Y0057216D01*
X0085921Y0058200D01*
X0084819Y0049972D02*
X0085095Y0049695D01*
X0085095Y0046423D01*
X0106319Y0025200D01*
X0125291Y0025200D01*
X0146480Y0025200D01*
X0152850Y0018830D01*
X0164661Y0018830D02*
X0172929Y0018830D01*
X0180016Y0018830D02*
X0183362Y0018830D01*
X0187299Y0025720D02*
X0202063Y0025720D01*
X0210921Y0034578D01*
X0187299Y0025720D02*
X0182305Y0030714D01*
X0119172Y0030714D01*
X0117842Y0031994D01*
X0117764Y0031916D01*
X0116177Y0031916D01*
X0102688Y0045405D01*
X0092811Y0045405D01*
X0092693Y0045523D01*
X0092693Y0049972D01*
X0082969Y0049854D02*
X0082969Y0045405D01*
X0104773Y0023600D01*
X0116006Y0023600D01*
X0120906Y0018700D01*
X0124976Y0018700D01*
X0125291Y0025200D02*
X0125406Y0025200D01*
X0132906Y0017700D01*
X0134976Y0017700D01*
X0116433Y0036546D02*
X0115449Y0035562D01*
X0116433Y0036546D02*
X0116433Y0038515D01*
X0116315Y0037570D02*
X0116315Y0057255D01*
X0117791Y0059224D02*
X0121728Y0059224D01*
X0129110Y0051842D01*
X0129110Y0047836D01*
X0133677Y0043269D01*
X0132321Y0049852D02*
X0132321Y0052076D01*
X0123205Y0061192D01*
X0117299Y0061192D01*
X0108441Y0049381D02*
X0108441Y0044791D01*
X0108675Y0044226D02*
X0110409Y0042491D01*
X0108675Y0044225D02*
X0108640Y0044264D01*
X0108606Y0044304D01*
X0108576Y0044347D01*
X0108548Y0044391D01*
X0108524Y0044437D01*
X0108502Y0044485D01*
X0108483Y0044534D01*
X0108468Y0044584D01*
X0108456Y0044635D01*
X0108448Y0044687D01*
X0108443Y0044739D01*
X0108441Y0044791D01*
X0095764Y0029657D02*
X0095764Y0015877D01*
X0084976Y0018700D02*
X0084976Y0038181D01*
X0077221Y0045936D01*
X0077221Y0051664D01*
X0071630Y0057255D01*
X0071591Y0059184D02*
X0068205Y0059184D01*
X0068205Y0059070D01*
X0067379Y0058244D01*
X0067379Y0056266D01*
X0074976Y0048668D01*
X0074976Y0017700D01*
X0065779Y0019502D02*
X0065779Y0059021D01*
X0067220Y0060463D01*
X0067220Y0061153D01*
X0071591Y0061153D01*
X0071630Y0061192D01*
X0071630Y0059224D02*
X0071591Y0059184D01*
X0073913Y0066896D02*
X0073997Y0066980D01*
X0062615Y0066980D01*
X0059426Y0067374D01*
X0044457Y0082344D01*
X0044457Y0110726D01*
X0062299Y0067058D02*
X0062615Y0066980D01*
X0078913Y0049972D02*
X0079031Y0049854D01*
X0079031Y0046389D01*
X0095764Y0029657D01*
X0082969Y0049854D02*
X0082850Y0049972D01*
X0065779Y0019502D02*
X0064976Y0018700D01*
X0089858Y0086743D02*
X0090843Y0086743D01*
X0159622Y0047413D02*
X0159622Y0044460D01*
X0177339Y0043476D02*
X0177339Y0048397D01*
X0258756Y0104460D02*
X0261118Y0104460D01*
X0265449Y0104460D01*
X0272535Y0104460D02*
X0272535Y0115877D01*
X0272929Y0116271D01*
X0291630Y0136546D02*
X0291630Y0141861D01*
X0300488Y0146783D02*
X0302220Y0146783D01*
X0300488Y0146783D02*
X0300488Y0136546D01*
X0321354Y0120011D02*
X0321354Y0115287D01*
X0324504Y0112137D01*
X0332969Y0140877D02*
X0350932Y0152935D01*
X0350932Y0194792D01*
X0285803Y0192436D02*
X0280803Y0192436D01*
X0270449Y0205476D02*
X0270130Y0207369D01*
X0270524Y0208125D01*
X0178513Y0269446D02*
X0163408Y0269446D01*
X0162471Y0268508D01*
X0162471Y0265261D01*
X0162102Y0264893D01*
X0156197Y0264893D01*
X0156394Y0270798D02*
X0155803Y0272373D01*
X0155507Y0272215D01*
X0163322Y0272215D01*
X0163874Y0272767D01*
X0163874Y0279854D02*
X0158362Y0279854D01*
X0157181Y0278672D01*
X0155507Y0272215D02*
X0152850Y0270798D01*
X0097339Y0267846D02*
X0097339Y0238318D01*
X0096735Y0237715D01*
X0096735Y0234256D01*
X0097772Y0233219D01*
X0097772Y0228492D01*
X0092799Y0223519D01*
X0092799Y0222562D01*
X0085713Y0222562D02*
X0080713Y0223487D01*
X0079256Y0223606D01*
X0074669Y0223606D01*
X0073094Y0225180D01*
X0071009Y0224707D02*
X0071009Y0222715D01*
X0071712Y0222012D01*
X0073763Y0222012D01*
X0079256Y0216519D01*
X0081500Y0215850D01*
X0085713Y0215062D01*
X0079256Y0216519D02*
X0079256Y0217562D01*
X0073094Y0214944D02*
X0073094Y0209235D01*
X0074256Y0208074D01*
X0076756Y0208074D01*
X0084256Y0208074D01*
X0091756Y0208074D01*
X0094615Y0210849D02*
X0095318Y0210146D01*
X0095318Y0204854D01*
X0091756Y0201291D01*
X0091756Y0200987D01*
X0095137Y0193699D02*
X0095370Y0193466D01*
X0095370Y0174342D01*
X0092278Y0171250D01*
X0091756Y0190987D02*
X0084256Y0190987D01*
X0079678Y0193699D02*
X0095137Y0193699D01*
X0079678Y0193699D02*
X0079615Y0193762D01*
X0075434Y0193762D01*
X0073194Y0196002D01*
X0073194Y0197050D01*
X0069256Y0200987D01*
X0066544Y0203699D01*
X0065734Y0203699D01*
X0064094Y0205339D01*
X0064094Y0212674D01*
X0065417Y0213998D01*
X0065417Y0214944D01*
X0069256Y0208074D02*
X0074256Y0208074D01*
X0070708Y0190987D02*
X0069256Y0190987D01*
X0052457Y0190090D02*
X0050094Y0190090D01*
X0042614Y0197570D02*
X0034740Y0197570D01*
X0042614Y0197570D02*
X0043008Y0197964D01*
X0067976Y0225180D02*
X0067976Y0228842D01*
X0067856Y0228362D01*
X0071556Y0232062D01*
X0071748Y0232062D01*
X0071748Y0236743D01*
X0071551Y0236940D01*
X0068205Y0236940D01*
X0071551Y0236940D02*
X0071748Y0237137D01*
X0071748Y0232062D02*
X0072756Y0232062D01*
X0074256Y0230562D01*
X0071556Y0232062D02*
X0071299Y0232062D01*
X0070535Y0225180D02*
X0071009Y0224707D01*
X0061438Y0229203D02*
X0061438Y0234921D01*
X0066428Y0239912D01*
X0084314Y0239912D01*
X0085008Y0240606D01*
X0086745Y0238406D02*
X0085008Y0236669D01*
X0079976Y0236669D01*
X0079583Y0237062D01*
X0085539Y0230606D02*
X0086992Y0231606D01*
X0089554Y0234168D01*
X0091657Y0234168D01*
X0094157Y0236669D01*
X0095583Y0239606D02*
X0089808Y0239606D01*
X0089808Y0246646D01*
X0089583Y0246871D01*
X0089583Y0264417D01*
X0095059Y0264417D01*
X0095370Y0257019D01*
X0095583Y0239606D01*
X0095582Y0239653D02*
X0089808Y0239653D01*
X0089808Y0240452D02*
X0095572Y0240452D01*
X0095563Y0241250D02*
X0089808Y0241250D01*
X0089808Y0242049D02*
X0095553Y0242049D01*
X0095543Y0242847D02*
X0089808Y0242847D01*
X0089808Y0243646D02*
X0095533Y0243646D01*
X0095524Y0244444D02*
X0089808Y0244444D01*
X0089808Y0245243D02*
X0095514Y0245243D01*
X0095504Y0246041D02*
X0089808Y0246041D01*
X0089614Y0246840D02*
X0095494Y0246840D01*
X0095485Y0247638D02*
X0089583Y0247638D01*
X0089583Y0248437D02*
X0095475Y0248437D01*
X0095465Y0249235D02*
X0089583Y0249235D01*
X0089583Y0250034D02*
X0095455Y0250034D01*
X0095446Y0250832D02*
X0089583Y0250832D01*
X0089583Y0251631D02*
X0095436Y0251631D01*
X0095426Y0252429D02*
X0089583Y0252429D01*
X0089583Y0253228D02*
X0095416Y0253228D01*
X0095407Y0254026D02*
X0089583Y0254026D01*
X0089583Y0254825D02*
X0095397Y0254825D01*
X0095387Y0255623D02*
X0089583Y0255623D01*
X0089583Y0256422D02*
X0095377Y0256422D01*
X0095362Y0257220D02*
X0089583Y0257220D01*
X0089583Y0258019D02*
X0095328Y0258019D01*
X0095294Y0258817D02*
X0089583Y0258817D01*
X0089583Y0259616D02*
X0095261Y0259616D01*
X0095227Y0260414D02*
X0089583Y0260414D01*
X0089583Y0261213D02*
X0095194Y0261213D01*
X0095160Y0262011D02*
X0089583Y0262011D01*
X0089583Y0262810D02*
X0095127Y0262810D01*
X0095093Y0263608D02*
X0089583Y0263608D01*
X0089583Y0264407D02*
X0095059Y0264407D01*
X0092417Y0265877D02*
X0091433Y0264893D01*
X0084543Y0264893D01*
X0084543Y0267846D01*
X0097339Y0267846D01*
X0083881Y0269446D02*
X0082943Y0268508D01*
X0082943Y0265261D01*
X0082575Y0264893D01*
X0076669Y0264893D01*
X0076866Y0270798D02*
X0076276Y0272373D01*
X0075979Y0272215D01*
X0077654Y0278672D02*
X0078835Y0279854D01*
X0084346Y0279854D01*
X0076276Y0252294D02*
X0076472Y0250917D01*
X0076472Y0250720D01*
X0073323Y0250720D01*
X0086039Y0250606D02*
X0086039Y0247586D01*
X0087808Y0245818D01*
X0087808Y0239331D01*
X0086883Y0238406D01*
X0086745Y0238406D01*
X0092626Y0230606D02*
X0095083Y0229606D01*
X0109020Y0208074D02*
X0114020Y0208074D01*
D16*
X0116520Y0208074D03*
X0116520Y0200987D03*
X0116520Y0198074D03*
X0116520Y0190987D03*
X0116236Y0184972D03*
X0109150Y0184972D03*
X0109020Y0190987D03*
X0109020Y0198074D03*
X0109020Y0200987D03*
X0109020Y0208074D03*
X0119020Y0216519D03*
X0119020Y0223606D03*
X0119346Y0237062D03*
X0119346Y0244149D03*
X0111512Y0244224D03*
X0111512Y0237137D03*
X0105606Y0257413D03*
X0105606Y0264499D03*
X0091827Y0280050D03*
X0091827Y0287137D03*
X0084346Y0279854D03*
X0084346Y0272767D03*
X0065843Y0264499D03*
X0065843Y0257413D03*
X0071748Y0244224D03*
X0071748Y0237137D03*
X0079583Y0237062D03*
X0079583Y0244149D03*
X0079256Y0223606D03*
X0079256Y0216519D03*
X0076756Y0208074D03*
X0076756Y0200987D03*
X0076756Y0198074D03*
X0076756Y0190987D03*
X0076472Y0184972D03*
X0069386Y0184972D03*
X0069256Y0190987D03*
X0069256Y0198074D03*
X0069256Y0200987D03*
X0069256Y0208074D03*
X0084256Y0208074D03*
X0084256Y0200987D03*
X0084256Y0198074D03*
X0084256Y0190987D03*
X0083953Y0184972D03*
X0083953Y0177885D03*
X0076472Y0177885D03*
X0069386Y0177885D03*
X0049366Y0164877D03*
X0049366Y0157791D03*
X0049366Y0154877D03*
X0049366Y0147791D03*
X0041866Y0147791D03*
X0041866Y0154877D03*
X0041866Y0157791D03*
X0041866Y0164877D03*
X0034366Y0164877D03*
X0034366Y0157791D03*
X0034366Y0154877D03*
X0034366Y0147791D03*
X0026866Y0147791D03*
X0026866Y0154877D03*
X0026866Y0157791D03*
X0026866Y0164877D03*
X0036866Y0175291D03*
X0036866Y0182377D03*
X0034740Y0190483D03*
X0034740Y0197570D03*
X0034740Y0206231D03*
X0034740Y0213318D03*
X0034740Y0221980D03*
X0034740Y0229066D03*
X0016587Y0187653D03*
X0016587Y0180566D03*
X0091756Y0190987D03*
X0091756Y0198074D03*
X0091756Y0200987D03*
X0091756Y0208074D03*
X0109150Y0177885D03*
X0116236Y0177885D03*
X0123717Y0177885D03*
X0123717Y0184972D03*
X0124020Y0190987D03*
X0124020Y0198074D03*
X0124020Y0200987D03*
X0124020Y0208074D03*
X0131520Y0208074D03*
X0131520Y0200987D03*
X0131520Y0198074D03*
X0131520Y0190987D03*
X0148783Y0190987D03*
X0148913Y0184972D03*
X0148913Y0177885D03*
X0156000Y0177885D03*
X0156000Y0184972D03*
X0156283Y0190987D03*
X0156283Y0198074D03*
X0156283Y0200987D03*
X0156283Y0208074D03*
X0148783Y0208074D03*
X0148783Y0200987D03*
X0148783Y0198074D03*
X0163783Y0198074D03*
X0163783Y0200987D03*
X0163783Y0208074D03*
X0171283Y0208074D03*
X0171283Y0200987D03*
X0171283Y0198074D03*
X0171283Y0190987D03*
X0163783Y0190987D03*
X0163480Y0184972D03*
X0163480Y0177885D03*
X0188677Y0177885D03*
X0188677Y0184972D03*
X0188547Y0190987D03*
X0188547Y0198074D03*
X0188547Y0200987D03*
X0188547Y0208074D03*
X0196047Y0208074D03*
X0196047Y0200987D03*
X0196047Y0198074D03*
X0196047Y0190987D03*
X0195764Y0184972D03*
X0195764Y0177885D03*
X0203244Y0177885D03*
X0203244Y0184972D03*
X0203547Y0190987D03*
X0203547Y0198074D03*
X0203547Y0200987D03*
X0203547Y0208074D03*
X0211047Y0208074D03*
X0211047Y0200987D03*
X0211047Y0198074D03*
X0211047Y0190987D03*
X0228311Y0190987D03*
X0228441Y0184972D03*
X0235528Y0184972D03*
X0235811Y0190987D03*
X0235811Y0198074D03*
X0235811Y0200987D03*
X0235811Y0208074D03*
X0228311Y0208074D03*
X0228311Y0200987D03*
X0228311Y0198074D03*
X0243311Y0198074D03*
X0243311Y0200987D03*
X0243311Y0208074D03*
X0250811Y0208074D03*
X0250811Y0200987D03*
X0250811Y0198074D03*
X0250811Y0190987D03*
X0243311Y0190987D03*
X0243008Y0184972D03*
X0243008Y0177885D03*
X0235528Y0177885D03*
X0228441Y0177885D03*
X0238311Y0216519D03*
X0238311Y0223606D03*
X0238638Y0237062D03*
X0238638Y0244149D03*
X0230803Y0244224D03*
X0230803Y0237137D03*
X0224898Y0257413D03*
X0224898Y0264499D03*
X0215843Y0277098D03*
X0215843Y0284184D03*
X0203638Y0279854D03*
X0203638Y0272767D03*
X0185134Y0264499D03*
X0185134Y0257413D03*
X0191039Y0244224D03*
X0191039Y0237137D03*
X0198874Y0237062D03*
X0198874Y0244149D03*
X0198547Y0223606D03*
X0198547Y0216519D03*
X0158783Y0216519D03*
X0158783Y0223606D03*
X0159110Y0237062D03*
X0159110Y0244149D03*
X0151276Y0244224D03*
X0151276Y0237137D03*
X0145370Y0257413D03*
X0145370Y0264499D03*
X0135134Y0275129D03*
X0135134Y0282216D03*
X0124110Y0279854D03*
X0124110Y0272767D03*
X0163874Y0272767D03*
X0163874Y0279854D03*
X0174504Y0282216D03*
X0174504Y0275129D03*
X0243402Y0272767D03*
X0243402Y0279854D03*
X0258165Y0277098D03*
X0258165Y0284184D03*
X0288677Y0256625D03*
X0288677Y0249539D03*
X0288677Y0240877D03*
X0288677Y0233791D03*
X0288677Y0225129D03*
X0288677Y0218043D03*
X0290803Y0209936D03*
X0290803Y0202850D03*
X0288303Y0192436D03*
X0288303Y0185350D03*
X0288303Y0182436D03*
X0288303Y0175350D03*
X0280803Y0175350D03*
X0280803Y0182436D03*
X0280803Y0185350D03*
X0280803Y0192436D03*
X0295803Y0192436D03*
X0295803Y0185350D03*
X0295803Y0182436D03*
X0295803Y0175350D03*
X0303303Y0175350D03*
X0303303Y0182436D03*
X0303303Y0185350D03*
X0303303Y0192436D03*
X0321618Y0190987D03*
X0321748Y0184972D03*
X0328835Y0184972D03*
X0329118Y0190987D03*
X0329118Y0198074D03*
X0329118Y0200987D03*
X0329118Y0208074D03*
X0321618Y0208074D03*
X0321618Y0200987D03*
X0321618Y0198074D03*
X0336618Y0198074D03*
X0336618Y0200987D03*
X0336618Y0208074D03*
X0344118Y0208074D03*
X0344118Y0200987D03*
X0344118Y0198074D03*
X0344118Y0190987D03*
X0336618Y0190987D03*
X0336315Y0184972D03*
X0336315Y0177885D03*
X0328835Y0177885D03*
X0321748Y0177885D03*
X0331618Y0216519D03*
X0331618Y0223606D03*
X0331945Y0237062D03*
X0331945Y0244149D03*
X0324110Y0244224D03*
X0324110Y0237137D03*
X0318205Y0257413D03*
X0318205Y0264499D03*
X0336709Y0272767D03*
X0336709Y0279854D03*
X0270524Y0215212D03*
X0270524Y0208125D03*
X0291630Y0136546D03*
X0291630Y0129460D03*
X0300488Y0129460D03*
X0300488Y0136546D03*
X0259750Y0093417D03*
X0259750Y0086330D03*
X0242250Y0079667D03*
X0235500Y0079667D03*
X0235500Y0072580D03*
X0242250Y0072580D03*
X0241646Y0061615D03*
X0234896Y0061615D03*
X0234896Y0054529D03*
X0241646Y0054529D03*
X0260396Y0049865D03*
X0260396Y0042779D03*
X0293559Y0069302D03*
X0293559Y0076389D03*
X0251551Y0110377D03*
X0251551Y0117464D03*
X0231551Y0117964D03*
X0231551Y0110877D03*
X0191118Y0105661D03*
X0191118Y0098574D03*
X0155685Y0102058D03*
X0155685Y0094972D03*
X0144858Y0093200D03*
X0144858Y0086113D03*
X0135016Y0094972D03*
X0135016Y0102058D03*
X0190134Y0041192D03*
X0190134Y0034106D03*
X0013087Y0275129D03*
X0013087Y0282216D03*
D17*
X0135016Y0105483D03*
X0125173Y0100562D03*
X0123205Y0087767D03*
X0123205Y0075956D03*
X0142313Y0064537D03*
X0138692Y0058289D03*
X0133677Y0050769D03*
X0133677Y0043269D03*
X0125173Y0043476D03*
X0110409Y0042491D03*
X0146227Y0072019D03*
X0162575Y0086783D03*
X0175370Y0070050D03*
X0191217Y0087669D03*
X0191118Y0095149D03*
X0155685Y0105483D03*
X0144858Y0096625D03*
X0181276Y0041507D03*
X0178815Y0037078D03*
X0190134Y0030680D03*
X0077929Y0101546D03*
X0062181Y0100562D03*
D18*
X0062181Y0105483D02*
X0062181Y0095562D01*
X0125173Y0095641D02*
X0125173Y0105562D01*
X0135016Y0105483D02*
X0135016Y0101546D01*
X0142277Y0066119D02*
X0142277Y0063619D01*
X0125173Y0048476D02*
X0125173Y0038554D01*
X0234886Y0054322D02*
X0234896Y0054529D01*
X0241646Y0054529D01*
X0241843Y0054332D01*
X0247831Y0054332D01*
X0253146Y0054322D02*
X0253146Y0061822D01*
X0253156Y0061812D01*
X0258461Y0061812D01*
X0258461Y0058072D02*
X0263146Y0058072D01*
X0263146Y0060572D01*
X0258461Y0054332D02*
X0258461Y0051800D01*
X0260396Y0049865D01*
X0258451Y0054322D02*
X0253146Y0054322D01*
X0247831Y0061812D02*
X0241843Y0061812D01*
X0241646Y0061615D01*
X0236037Y0064466D02*
X0234896Y0063324D01*
X0234896Y0061615D01*
X0234896Y0063107D01*
X0233537Y0064466D01*
X0235500Y0072580D02*
X0242250Y0072580D01*
X0242447Y0072383D01*
X0248185Y0072383D01*
X0253500Y0072373D02*
X0258815Y0072373D01*
X0258815Y0076123D02*
X0263500Y0076123D01*
X0263500Y0078623D01*
X0258815Y0079863D02*
X0258815Y0085198D01*
X0258805Y0079873D02*
X0253500Y0079873D01*
X0253500Y0072373D01*
X0248185Y0079863D02*
X0242447Y0079863D01*
X0242250Y0079667D01*
X0236359Y0080525D02*
X0235500Y0079667D01*
X0235500Y0081088D01*
X0233859Y0082730D01*
X0236359Y0082730D02*
X0236359Y0080525D01*
X0258609Y0094558D02*
X0259750Y0093417D01*
X0259750Y0095121D01*
X0261109Y0096480D01*
X0258609Y0096480D02*
X0258609Y0094558D01*
X0260396Y0042779D02*
X0260396Y0041074D01*
X0259037Y0039716D01*
X0261537Y0039716D02*
X0261537Y0041441D01*
X0260396Y0042779D01*
D19*
X0180606Y0096153D03*
X0180606Y0104814D03*
X0166039Y0104814D03*
X0166039Y0096153D03*
D20*
X0190134Y0041901D03*
D21*
X0167988Y0037078D03*
X0180390Y0087669D03*
X0116922Y0105414D03*
X0070203Y0105614D03*
X0116844Y0038550D03*
D22*
X0064976Y0018700D03*
X0015685Y0128791D03*
X0070803Y0156350D03*
X0110961Y0156153D03*
X0150724Y0156153D03*
X0190488Y0155956D03*
X0230252Y0155956D03*
X0282220Y0156350D03*
X0323953Y0156350D03*
D23*
X0134976Y0017700D03*
X0124976Y0018700D03*
X0114976Y0017700D03*
X0104976Y0018700D03*
X0094976Y0017700D03*
X0084976Y0018700D03*
X0074976Y0017700D03*
D24*
X0035685Y0128791D03*
X0035685Y0138791D03*
X0025685Y0138791D03*
X0025685Y0128791D03*
X0015685Y0138791D03*
X0070803Y0166350D03*
X0080803Y0166350D03*
X0090803Y0166350D03*
X0090803Y0156350D03*
X0080803Y0156350D03*
X0110961Y0166153D03*
X0120961Y0166153D03*
X0130961Y0166153D03*
X0130961Y0156153D03*
X0120961Y0156153D03*
X0150724Y0166153D03*
X0160724Y0166153D03*
X0160724Y0156153D03*
X0170724Y0156153D03*
X0170724Y0166153D03*
X0190488Y0165956D03*
X0200488Y0165956D03*
X0200488Y0155956D03*
X0210488Y0155956D03*
X0210488Y0165956D03*
X0230252Y0165956D03*
X0240252Y0165956D03*
X0250252Y0165956D03*
X0250252Y0155956D03*
X0240252Y0155956D03*
X0282220Y0166350D03*
X0292220Y0166350D03*
X0292220Y0156350D03*
X0302220Y0156350D03*
X0302220Y0166350D03*
X0323953Y0166350D03*
X0333953Y0166350D03*
X0343953Y0166350D03*
X0343953Y0156350D03*
X0333953Y0156350D03*
X0305409Y0312665D03*
X0305409Y0322665D03*
X0305409Y0332665D03*
X0305409Y0342665D03*
X0295409Y0341665D03*
X0285409Y0341665D03*
X0275409Y0341665D03*
X0265409Y0341665D03*
X0255409Y0341665D03*
X0245409Y0341665D03*
X0235409Y0341665D03*
X0225409Y0341665D03*
X0215409Y0341665D03*
X0205409Y0341665D03*
X0195409Y0341665D03*
X0185409Y0341665D03*
X0175409Y0341665D03*
X0165409Y0341665D03*
X0155409Y0341665D03*
X0145409Y0341665D03*
X0135409Y0341665D03*
X0125409Y0341665D03*
X0115409Y0341665D03*
X0105409Y0341665D03*
X0095409Y0341665D03*
X0085409Y0341665D03*
X0075409Y0341665D03*
X0065409Y0341665D03*
X0065409Y0331665D03*
X0065409Y0321665D03*
X0065409Y0311665D03*
X0075409Y0311665D03*
X0085409Y0311665D03*
X0085409Y0321665D03*
X0075409Y0321665D03*
X0075409Y0331665D03*
X0085409Y0331665D03*
X0095409Y0331665D03*
X0095409Y0321665D03*
X0095409Y0311665D03*
X0105409Y0311665D03*
X0105409Y0321665D03*
X0105409Y0331665D03*
X0115409Y0331665D03*
X0115409Y0321665D03*
X0125409Y0321665D03*
X0125409Y0331665D03*
X0135409Y0331665D03*
X0135409Y0321665D03*
X0135409Y0311665D03*
X0125409Y0311665D03*
X0115409Y0311665D03*
X0145409Y0311665D03*
X0145409Y0321665D03*
X0145409Y0331665D03*
X0155409Y0331665D03*
X0155409Y0321665D03*
X0155409Y0311665D03*
X0165409Y0311665D03*
X0175409Y0311665D03*
X0175409Y0321665D03*
X0165409Y0321665D03*
X0165409Y0331665D03*
X0175409Y0331665D03*
X0185409Y0331665D03*
X0185409Y0321665D03*
X0185409Y0311665D03*
X0195409Y0311665D03*
X0195409Y0321665D03*
X0195409Y0331665D03*
X0205409Y0331665D03*
X0205409Y0321665D03*
X0205409Y0311665D03*
X0215409Y0311665D03*
X0225409Y0311665D03*
X0225409Y0321665D03*
X0215409Y0321665D03*
X0215409Y0331665D03*
X0225409Y0331665D03*
X0235409Y0331665D03*
X0235409Y0321665D03*
X0235409Y0311665D03*
X0245409Y0311665D03*
X0245409Y0321665D03*
X0245409Y0331665D03*
X0255409Y0331665D03*
X0255409Y0321665D03*
X0265409Y0321665D03*
X0265409Y0331665D03*
X0275409Y0331665D03*
X0275409Y0321665D03*
X0275409Y0311665D03*
X0265409Y0311665D03*
X0255409Y0311665D03*
X0285409Y0311665D03*
X0285409Y0321665D03*
X0285409Y0331665D03*
X0295409Y0331665D03*
X0295409Y0321665D03*
X0295409Y0311665D03*
X0055409Y0312665D03*
X0055409Y0322665D03*
X0055409Y0332665D03*
X0055409Y0342665D03*
D25*
X0022929Y0008987D02*
X0337890Y0008987D01*
X0357575Y0028672D01*
X0357575Y0343633D01*
X0337890Y0363318D01*
X0022929Y0363318D01*
X0003244Y0343633D01*
X0003244Y0028672D01*
X0022929Y0008987D01*
D26*
X0024898Y0030641D03*
X0024898Y0341665D03*
X0335921Y0341665D03*
X0335921Y0030641D03*
D27*
X0284642Y0201275D03*
X0282083Y0201275D03*
X0279524Y0201275D03*
X0276965Y0201275D03*
X0276965Y0211511D03*
X0279524Y0211511D03*
X0282083Y0211511D03*
X0284642Y0211511D03*
X0317780Y0214944D03*
X0320339Y0214944D03*
X0322898Y0214944D03*
X0325457Y0214944D03*
X0325457Y0225180D03*
X0322898Y0225180D03*
X0320339Y0225180D03*
X0317780Y0225180D03*
X0232150Y0225180D03*
X0229591Y0225180D03*
X0227031Y0225180D03*
X0224472Y0225180D03*
X0224472Y0214944D03*
X0227031Y0214944D03*
X0229591Y0214944D03*
X0232150Y0214944D03*
X0192386Y0214944D03*
X0189827Y0214944D03*
X0187268Y0214944D03*
X0184709Y0214944D03*
X0184709Y0225180D03*
X0187268Y0225180D03*
X0189827Y0225180D03*
X0192386Y0225180D03*
X0152622Y0225180D03*
X0150063Y0225180D03*
X0147504Y0225180D03*
X0144945Y0225180D03*
X0144945Y0214944D03*
X0147504Y0214944D03*
X0150063Y0214944D03*
X0152622Y0214944D03*
X0112858Y0214944D03*
X0110299Y0214944D03*
X0107740Y0214944D03*
X0105181Y0214944D03*
X0105181Y0225180D03*
X0107740Y0225180D03*
X0110299Y0225180D03*
X0112858Y0225180D03*
X0073094Y0225180D03*
X0070535Y0225180D03*
X0067976Y0225180D03*
X0065417Y0225180D03*
X0065417Y0214944D03*
X0067976Y0214944D03*
X0070535Y0214944D03*
X0073094Y0214944D03*
X0030705Y0183952D03*
X0028146Y0183952D03*
X0025587Y0183952D03*
X0023028Y0183952D03*
X0023028Y0173716D03*
X0025587Y0173716D03*
X0028146Y0173716D03*
X0030705Y0173716D03*
D28*
X0043992Y0213909D03*
X0049110Y0213909D03*
X0046551Y0221389D03*
X0297929Y0241468D03*
X0303047Y0241468D03*
X0300488Y0248948D03*
D29*
X0280429Y0256212D03*
X0275429Y0256212D03*
X0270429Y0256212D03*
X0265429Y0256212D03*
X0265429Y0234204D03*
X0270429Y0234204D03*
X0275429Y0234204D03*
X0280429Y0234204D03*
X0026492Y0228653D03*
X0021492Y0228653D03*
X0016492Y0228653D03*
X0011492Y0228653D03*
X0011492Y0206645D03*
X0016492Y0206645D03*
X0021492Y0206645D03*
X0026492Y0206645D03*
D30*
X0018992Y0219381D03*
X0272929Y0246940D03*
D31*
X0253213Y0244543D03*
X0253213Y0240606D03*
X0253213Y0236669D03*
X0244063Y0236669D03*
X0244063Y0240606D03*
X0244063Y0244543D03*
X0213449Y0244543D03*
X0213449Y0240606D03*
X0213449Y0236669D03*
X0204299Y0236669D03*
X0204299Y0240606D03*
X0204299Y0244543D03*
X0173685Y0244543D03*
X0173685Y0240606D03*
X0173685Y0236669D03*
X0164535Y0236669D03*
X0164535Y0240606D03*
X0164535Y0244543D03*
X0133921Y0244543D03*
X0133921Y0240606D03*
X0133921Y0236669D03*
X0124772Y0236669D03*
X0124772Y0240606D03*
X0124772Y0244543D03*
X0094157Y0244543D03*
X0094157Y0240606D03*
X0094157Y0236669D03*
X0085008Y0236669D03*
X0085008Y0240606D03*
X0085008Y0244543D03*
X0298984Y0076783D03*
X0298984Y0072846D03*
X0298984Y0068909D03*
X0308134Y0068909D03*
X0308134Y0072846D03*
X0308134Y0076783D03*
X0337370Y0236669D03*
X0337370Y0240606D03*
X0337370Y0244543D03*
X0346520Y0244543D03*
X0346520Y0240606D03*
X0346520Y0236669D03*
D32*
X0344583Y0260956D03*
X0327260Y0260956D03*
X0303244Y0268043D03*
X0285921Y0268043D03*
X0251276Y0260956D03*
X0233953Y0260956D03*
X0211512Y0260956D03*
X0194189Y0260956D03*
X0171748Y0260956D03*
X0154425Y0260956D03*
X0131984Y0260956D03*
X0114661Y0260956D03*
X0092220Y0260956D03*
X0074898Y0260956D03*
X0049307Y0240483D03*
X0031984Y0240483D03*
D33*
X0065843Y0278672D03*
X0077654Y0278672D03*
X0105606Y0278672D03*
X0117417Y0278672D03*
X0145370Y0278672D03*
X0157181Y0278672D03*
X0185134Y0278672D03*
X0196945Y0278672D03*
X0224898Y0278672D03*
X0236709Y0278672D03*
X0318205Y0278672D03*
X0330016Y0278672D03*
X0272929Y0116271D03*
X0261118Y0116271D03*
X0164661Y0018830D03*
X0152850Y0018830D03*
D34*
X0038677Y0251507D03*
X0038677Y0262531D03*
X0292614Y0279066D03*
X0292614Y0290090D03*
D35*
X0052063Y0278672D03*
X0027260Y0278672D03*
D36*
X0029228Y0314106D03*
X0016630Y0314106D03*
X0298126Y0298357D03*
X0310724Y0298357D03*
D37*
X0268992Y0278672D03*
X0268992Y0266861D03*
X0308362Y0040483D03*
X0308362Y0028672D03*
X0015055Y0239302D03*
X0015055Y0251113D03*
D38*
X0324504Y0129854D03*
X0324504Y0123948D03*
X0324504Y0118043D03*
X0324504Y0112137D03*
X0324504Y0084184D03*
X0324504Y0078279D03*
X0324504Y0072373D03*
X0324504Y0066468D03*
D39*
X0344976Y0057393D03*
X0344976Y0094440D03*
X0344976Y0103062D03*
X0344976Y0140109D03*
D40*
X0245488Y0118995D03*
X0241551Y0118995D03*
X0237614Y0118995D03*
X0237614Y0109846D03*
X0241551Y0109846D03*
X0245488Y0109846D03*
D41*
X0248185Y0079863D03*
X0248185Y0072383D03*
X0247831Y0061812D03*
X0247831Y0054332D03*
X0258461Y0054332D03*
X0258461Y0058072D03*
X0258461Y0061812D03*
X0258815Y0072383D03*
X0258815Y0076123D03*
X0258815Y0079863D03*
D42*
X0263500Y0078623D03*
X0263500Y0076123D03*
X0265277Y0082912D03*
X0267639Y0081928D03*
X0267245Y0084684D03*
X0269607Y0084290D03*
X0268820Y0086652D03*
X0266064Y0087046D03*
X0264489Y0085471D03*
X0263087Y0103476D03*
X0261118Y0104460D03*
X0263087Y0106428D03*
X0252551Y0119920D03*
X0250051Y0119920D03*
X0242417Y0096586D03*
X0230606Y0092649D03*
X0263146Y0060572D03*
X0263146Y0058072D03*
X0289661Y0028672D03*
X0309059Y0061846D03*
X0309059Y0064346D03*
X0321748Y0064893D03*
X0321748Y0067649D03*
X0321748Y0070405D03*
X0321748Y0072767D03*
X0321354Y0112137D03*
X0321354Y0114499D03*
X0321354Y0117255D03*
X0321354Y0120011D03*
X0302220Y0146783D03*
X0299858Y0146389D03*
X0293598Y0141861D03*
X0291630Y0141861D03*
X0328835Y0174735D03*
X0336315Y0174735D03*
X0335437Y0199743D03*
X0337996Y0199743D03*
X0316236Y0220802D03*
X0320218Y0228362D03*
X0326618Y0230562D03*
X0326618Y0233318D03*
X0320567Y0236940D03*
X0307378Y0233397D03*
X0305409Y0240287D03*
X0306394Y0225523D03*
X0306394Y0217649D03*
X0279403Y0214693D03*
X0273951Y0213803D03*
X0278835Y0220798D03*
X0278835Y0223161D03*
X0270449Y0205476D03*
X0255462Y0209775D03*
X0244689Y0199743D03*
X0242130Y0199743D03*
X0243008Y0174735D03*
X0235528Y0174735D03*
X0204925Y0199743D03*
X0202366Y0199743D03*
X0215379Y0210916D03*
X0214374Y0229606D03*
X0214374Y0232106D03*
X0226911Y0228362D03*
X0233311Y0230562D03*
X0233311Y0233318D03*
X0227260Y0236940D03*
X0235331Y0249539D03*
X0235331Y0252294D03*
X0235331Y0270011D03*
X0235331Y0272373D03*
X0254228Y0276704D03*
X0274701Y0287531D03*
X0274701Y0290287D03*
X0276276Y0284381D03*
X0308953Y0284775D03*
X0310921Y0287137D03*
X0310921Y0282413D03*
X0311906Y0293239D03*
X0311906Y0303082D03*
X0333953Y0302294D03*
X0333953Y0315090D03*
X0328638Y0272373D03*
X0328638Y0270011D03*
X0328638Y0252294D03*
X0328638Y0249539D03*
X0347445Y0232106D03*
X0347445Y0229606D03*
X0295803Y0184893D03*
X0254138Y0229606D03*
X0254138Y0232106D03*
X0211906Y0277688D03*
X0195567Y0272373D03*
X0195567Y0270011D03*
X0195567Y0252294D03*
X0195567Y0249539D03*
X0187496Y0236940D03*
X0193547Y0233318D03*
X0193547Y0230562D03*
X0187147Y0228362D03*
X0174610Y0229606D03*
X0174610Y0232106D03*
X0155803Y0249539D03*
X0155803Y0252294D03*
X0155803Y0270011D03*
X0155803Y0272373D03*
X0169583Y0274735D03*
X0131197Y0274735D03*
X0116039Y0272373D03*
X0116039Y0270011D03*
X0116039Y0252294D03*
X0116039Y0249539D03*
X0107969Y0236940D03*
X0114020Y0233318D03*
X0114020Y0230562D03*
X0107620Y0228362D03*
X0095083Y0229606D03*
X0095083Y0232106D03*
X0076276Y0249539D03*
X0076276Y0252294D03*
X0076276Y0270011D03*
X0076276Y0272373D03*
X0091827Y0276704D03*
X0056984Y0259578D03*
X0055016Y0257216D03*
X0056984Y0254854D03*
X0047142Y0272176D03*
X0047142Y0274539D03*
X0047142Y0276901D03*
X0047142Y0279657D03*
X0047142Y0282019D03*
X0022339Y0256822D03*
X0020764Y0259972D03*
X0020764Y0262728D03*
X0014071Y0271783D03*
X0012890Y0311153D03*
X0012890Y0313515D03*
X0012890Y0315877D03*
X0068205Y0236940D03*
X0074256Y0233318D03*
X0074256Y0230562D03*
X0067856Y0228362D03*
X0051472Y0212728D03*
X0053441Y0205838D03*
X0052457Y0197964D03*
X0052457Y0190090D03*
X0025466Y0187134D03*
X0024898Y0193239D03*
X0024898Y0195602D03*
X0016512Y0177917D03*
X0041866Y0157334D03*
X0053069Y0161406D03*
X0076472Y0174735D03*
X0083953Y0174735D03*
X0083075Y0199743D03*
X0085634Y0199743D03*
X0096256Y0204361D03*
X0122839Y0199743D03*
X0125398Y0199743D03*
X0135852Y0210916D03*
X0134846Y0229606D03*
X0134846Y0232106D03*
X0147383Y0228362D03*
X0153783Y0230562D03*
X0153783Y0233318D03*
X0147732Y0236940D03*
X0175616Y0210916D03*
X0165161Y0199743D03*
X0162602Y0199743D03*
X0163480Y0174735D03*
X0156000Y0174735D03*
X0180569Y0147767D03*
X0184346Y0147767D03*
X0187299Y0141141D03*
X0183362Y0140492D03*
X0195764Y0174735D03*
X0203244Y0174735D03*
X0123717Y0174735D03*
X0116236Y0174735D03*
X0094780Y0123161D03*
X0092811Y0115287D03*
X0090843Y0110365D03*
X0097732Y0102491D03*
X0089858Y0086743D03*
X0085921Y0058200D03*
X0052457Y0123161D03*
X0183362Y0088712D03*
X0187299Y0086743D03*
X0183362Y0018830D03*
D43*
X0238008Y0104420D02*
X0237614Y0104814D01*
X0237614Y0109846D01*
X0293559Y0076389D02*
X0293953Y0076783D01*
X0298984Y0076783D01*
X0331945Y0244149D02*
X0332339Y0244543D01*
X0337370Y0244543D01*
X0244063Y0244543D02*
X0239031Y0244543D01*
X0238638Y0244149D01*
X0204299Y0244543D02*
X0199268Y0244543D01*
X0198874Y0244149D01*
X0164535Y0244543D02*
X0159504Y0244543D01*
X0159110Y0244149D01*
X0124772Y0244543D02*
X0119740Y0244543D01*
X0119346Y0244149D01*
X0085008Y0244543D02*
X0079976Y0244543D01*
X0079583Y0244149D01*
D44*
X0291630Y0129460D02*
X0291630Y0128450D01*
X0292614Y0127466D01*
X0300488Y0128450D02*
X0301472Y0127466D01*
X0300488Y0128450D02*
X0300488Y0129460D01*
D45*
X0261109Y0096480D03*
X0258609Y0096480D03*
X0236359Y0082730D03*
X0233859Y0082730D03*
X0233537Y0064466D03*
X0236037Y0064466D03*
X0259037Y0039716D03*
X0261537Y0039716D03*
X0261906Y0224932D03*
X0264661Y0224932D03*
X0267024Y0224932D03*
X0266827Y0227491D03*
X0266827Y0229460D03*
X0264268Y0229460D03*
X0264268Y0227294D03*
X0261906Y0227885D03*
X0261906Y0230838D03*
X0261906Y0233594D03*
X0269583Y0229460D03*
X0269583Y0227491D03*
X0272339Y0227098D03*
X0272339Y0229460D03*
X0314661Y0240680D03*
X0314661Y0243633D03*
X0316630Y0243043D03*
X0316630Y0245208D03*
X0314661Y0246586D03*
X0319189Y0245208D03*
X0319189Y0243239D03*
X0225882Y0243830D03*
X0225882Y0245798D03*
X0223323Y0245798D03*
X0223323Y0243633D03*
X0220961Y0244224D03*
X0220961Y0247176D03*
X0220961Y0241271D03*
X0186118Y0243633D03*
X0186118Y0245602D03*
X0183559Y0245602D03*
X0183559Y0243436D03*
X0181197Y0244027D03*
X0181197Y0246980D03*
X0181197Y0241074D03*
X0146354Y0242846D03*
X0146354Y0244814D03*
X0143795Y0244814D03*
X0143795Y0242649D03*
X0141433Y0243239D03*
X0141433Y0240287D03*
X0141433Y0246192D03*
X0106591Y0244814D03*
X0106591Y0242846D03*
X0104031Y0242649D03*
X0104031Y0244814D03*
X0101669Y0246192D03*
X0101669Y0243239D03*
X0101669Y0240287D03*
X0066630Y0243043D03*
X0066630Y0245405D03*
X0063874Y0245798D03*
X0061512Y0245798D03*
X0061512Y0243043D03*
X0063874Y0243043D03*
X0027654Y0202688D03*
X0027654Y0199735D03*
X0024701Y0199735D03*
X0021748Y0199735D03*
X0018795Y0199735D03*
X0015843Y0199735D03*
X0015843Y0202688D03*
X0018795Y0202688D03*
X0021748Y0202688D03*
X0024701Y0202688D03*
X0012890Y0202688D03*
X0012890Y0200720D03*
X0010331Y0200523D03*
X0010331Y0202688D03*
X0007969Y0204066D03*
X0007969Y0206625D03*
X0007969Y0201113D03*
X0007969Y0198161D03*
D46*
X0064933Y0244149D02*
X0079583Y0244149D01*
X0066236Y0250720D02*
X0065843Y0251113D01*
X0065843Y0257413D01*
X0068554Y0260124D01*
X0069365Y0260124D01*
X0069999Y0260759D01*
X0075094Y0260759D01*
X0074898Y0260956D01*
X0065843Y0264499D02*
X0065843Y0270405D01*
X0066236Y0270798D01*
X0065843Y0271192D01*
X0065843Y0278672D01*
X0086512Y0299342D01*
X0091827Y0299342D01*
X0125291Y0299342D01*
X0135409Y0309460D01*
X0135409Y0341665D01*
X0158887Y0298978D02*
X0216827Y0298978D01*
X0225409Y0307561D01*
X0225409Y0311665D01*
X0225409Y0321665D01*
X0245409Y0321665D02*
X0245409Y0311665D01*
X0245409Y0307997D01*
X0231591Y0294178D01*
X0174504Y0294178D01*
X0160876Y0294178D01*
X0145370Y0278672D01*
X0145370Y0271192D01*
X0145764Y0270798D01*
X0145370Y0270405D01*
X0145370Y0264499D01*
X0148082Y0260124D02*
X0148892Y0260124D01*
X0149527Y0260759D01*
X0154622Y0260759D01*
X0154425Y0260956D01*
X0148082Y0260124D02*
X0145370Y0257413D01*
X0145370Y0251113D01*
X0145764Y0250720D01*
X0144461Y0244149D02*
X0159110Y0244149D01*
X0184224Y0244149D02*
X0198874Y0244149D01*
X0185528Y0250720D02*
X0185134Y0251113D01*
X0185134Y0257413D01*
X0187846Y0260124D01*
X0188656Y0260124D01*
X0189291Y0260759D01*
X0194386Y0260759D01*
X0194189Y0260956D01*
X0185134Y0264499D02*
X0185134Y0270405D01*
X0185528Y0270798D01*
X0185134Y0271192D01*
X0185134Y0278672D01*
X0195839Y0289378D01*
X0215843Y0289378D01*
X0249307Y0289378D01*
X0265409Y0305480D01*
X0265409Y0311665D01*
X0265409Y0321665D01*
X0285409Y0311665D02*
X0285409Y0299027D01*
X0281787Y0295405D01*
X0264442Y0295405D01*
X0261074Y0292037D01*
X0261074Y0288471D01*
X0257181Y0284578D01*
X0230803Y0284578D01*
X0224898Y0278672D01*
X0224898Y0271192D01*
X0225291Y0270798D01*
X0224898Y0270405D01*
X0224898Y0264499D01*
X0227609Y0260124D02*
X0228420Y0260124D01*
X0229054Y0260759D01*
X0234150Y0260759D01*
X0233953Y0260956D01*
X0227609Y0260124D02*
X0224898Y0257413D01*
X0224898Y0251113D01*
X0225291Y0250720D01*
X0223988Y0244149D02*
X0238638Y0244149D01*
X0292614Y0290090D02*
X0298126Y0295602D01*
X0298126Y0298357D01*
X0298126Y0308594D01*
X0294583Y0312137D01*
X0305409Y0312665D02*
X0311772Y0312665D01*
X0318205Y0306231D01*
X0318205Y0278672D01*
X0318205Y0271192D01*
X0318598Y0270798D01*
X0318205Y0270405D01*
X0318205Y0264499D01*
X0320917Y0260124D02*
X0321727Y0260124D01*
X0322361Y0260759D01*
X0327457Y0260759D01*
X0327260Y0260956D01*
X0320917Y0260124D02*
X0318205Y0257413D01*
X0318205Y0251113D01*
X0318598Y0250720D01*
X0317295Y0244149D02*
X0331945Y0244149D01*
X0305409Y0312665D02*
X0305409Y0313472D01*
X0311909Y0319972D01*
X0311909Y0325357D01*
X0305409Y0331857D01*
X0305409Y0332665D01*
X0158887Y0298978D02*
X0154330Y0294420D01*
X0135134Y0294420D01*
X0121354Y0294420D01*
X0105606Y0278672D01*
X0105606Y0271192D01*
X0106000Y0270798D01*
X0105606Y0270405D01*
X0105606Y0264499D01*
X0108318Y0260124D02*
X0109128Y0260124D01*
X0109763Y0260759D01*
X0114858Y0260759D01*
X0114661Y0260956D01*
X0108318Y0260124D02*
X0105606Y0257413D01*
X0105606Y0251113D01*
X0106000Y0250720D01*
X0104697Y0244149D02*
X0119346Y0244149D01*
X0259750Y0086330D02*
X0261859Y0086330D01*
X0265277Y0082912D01*
X0262010Y0082912D01*
X0259226Y0085696D01*
X0265277Y0082912D02*
X0267789Y0080400D01*
X0289548Y0080400D01*
X0293559Y0076389D01*
X0308134Y0076783D02*
X0309630Y0078279D01*
X0313283Y0078279D01*
X0324504Y0078279D01*
X0324504Y0084184D01*
X0324504Y0105028D01*
X0329272Y0109796D01*
X0329272Y0120383D01*
X0324504Y0125152D01*
X0324504Y0129854D01*
X0324504Y0118043D02*
X0324504Y0112137D01*
X0324504Y0072373D02*
X0324504Y0066468D01*
X0267435Y0062349D02*
X0267435Y0056295D01*
X0264922Y0053783D01*
X0264313Y0053783D01*
X0260396Y0049865D01*
X0267435Y0062349D02*
X0267024Y0062760D01*
X0267024Y0073581D01*
X0267789Y0074347D01*
X0267789Y0080400D01*
D47*
X0258815Y0072383D02*
X0258815Y0072373D01*
X0337370Y0244543D02*
X0338283Y0245456D01*
X0338283Y0250129D01*
X0324504Y0302294D02*
X0320567Y0306231D01*
X0318205Y0306231D01*
X0258165Y0277098D02*
X0257772Y0276704D01*
X0254228Y0276704D01*
X0215843Y0277098D02*
X0212496Y0277098D01*
X0211906Y0277688D01*
X0215843Y0284184D02*
X0215843Y0289378D01*
X0174504Y0294178D02*
X0174504Y0282216D01*
X0174504Y0275129D02*
X0174110Y0274735D01*
X0169583Y0274735D01*
X0135134Y0275129D02*
X0131197Y0274735D01*
X0135134Y0282216D02*
X0135134Y0294420D01*
X0091827Y0299342D02*
X0091827Y0287137D01*
X0091827Y0280050D02*
X0091827Y0276704D01*
X0027260Y0278672D02*
X0026866Y0278672D01*
X0020961Y0284578D01*
X0015449Y0284578D01*
X0013087Y0282216D01*
X0013087Y0275129D02*
X0014071Y0274145D01*
X0014071Y0271783D01*
X0014465Y0271980D01*
D48*
X0028677Y0229066D02*
X0034740Y0229066D01*
X0034740Y0221980D02*
X0034740Y0213318D01*
X0282614Y0256625D02*
X0288677Y0256625D01*
X0288677Y0249539D02*
X0288677Y0240877D01*
D49*
X0259750Y0086330D02*
X0259226Y0085696D01*
X0258815Y0085198D01*
X0258805Y0079873D02*
X0258815Y0079863D01*
X0258461Y0054332D02*
X0258451Y0054322D01*
M02*
