G75*
%MOIN*%
%OFA0B0*%
%FSLAX25Y25*%
%IPPOS*%
%LPD*%
%AMOC8*
5,1,8,0,0,1.08239X$1,22.5*
%
%ADD10C,0.05200*%
%ADD11R,0.08200X0.08200*%
%ADD12C,0.08200*%
%ADD13OC8,0.08200*%
%ADD14C,0.00000*%
%ADD15C,0.30328*%
%ADD16C,0.03778*%
%ADD17R,0.03778X0.03778*%
D10*
X0062181Y0100029D03*
X0077929Y0101013D03*
X0125173Y0100029D03*
X0135016Y0104950D03*
X0144858Y0096092D03*
X0155685Y0104950D03*
X0162575Y0086249D03*
X0175370Y0069517D03*
X0191217Y0087135D03*
X0191118Y0094615D03*
X0146227Y0071486D03*
X0142313Y0064004D03*
X0138692Y0057756D03*
X0133677Y0050236D03*
X0133677Y0042736D03*
X0125173Y0042942D03*
X0110409Y0041958D03*
X0123205Y0075423D03*
X0123205Y0087234D03*
X0178815Y0036545D03*
X0181276Y0040974D03*
X0190134Y0030147D03*
D11*
X0190488Y0155423D03*
X0230252Y0155423D03*
X0282220Y0155816D03*
X0323953Y0155816D03*
X0150724Y0155619D03*
X0110961Y0155619D03*
X0070803Y0155816D03*
X0015685Y0128257D03*
X0064976Y0018167D03*
D12*
X0074976Y0017167D03*
X0084976Y0018167D03*
X0094976Y0017167D03*
X0104976Y0018167D03*
X0114976Y0017167D03*
X0124976Y0018167D03*
X0134976Y0017167D03*
D13*
X0035685Y0128257D03*
X0025685Y0128257D03*
X0025685Y0138257D03*
X0035685Y0138257D03*
X0015685Y0138257D03*
X0070803Y0165816D03*
X0080803Y0165816D03*
X0080803Y0155816D03*
X0090803Y0155816D03*
X0090803Y0165816D03*
X0110961Y0165619D03*
X0120961Y0165619D03*
X0120961Y0155619D03*
X0130961Y0155619D03*
X0130961Y0165619D03*
X0150724Y0165619D03*
X0160724Y0165619D03*
X0160724Y0155619D03*
X0170724Y0155619D03*
X0170724Y0165619D03*
X0190488Y0165423D03*
X0200488Y0165423D03*
X0210488Y0165423D03*
X0210488Y0155423D03*
X0200488Y0155423D03*
X0230252Y0165423D03*
X0240252Y0165423D03*
X0250252Y0165423D03*
X0250252Y0155423D03*
X0240252Y0155423D03*
X0282220Y0165816D03*
X0292220Y0165816D03*
X0292220Y0155816D03*
X0302220Y0155816D03*
X0302220Y0165816D03*
X0323953Y0165816D03*
X0333953Y0165816D03*
X0343953Y0165816D03*
X0343953Y0155816D03*
X0333953Y0155816D03*
X0305409Y0312131D03*
X0305409Y0322131D03*
X0305409Y0332131D03*
X0305409Y0342131D03*
X0295409Y0341131D03*
X0285409Y0341131D03*
X0275409Y0341131D03*
X0265409Y0341131D03*
X0255409Y0341131D03*
X0245409Y0341131D03*
X0235409Y0341131D03*
X0225409Y0341131D03*
X0215409Y0341131D03*
X0205409Y0341131D03*
X0195409Y0341131D03*
X0185409Y0341131D03*
X0175409Y0341131D03*
X0165409Y0341131D03*
X0155409Y0341131D03*
X0145409Y0341131D03*
X0135409Y0341131D03*
X0125409Y0341131D03*
X0115409Y0341131D03*
X0105409Y0341131D03*
X0095409Y0341131D03*
X0085409Y0341131D03*
X0075409Y0341131D03*
X0065409Y0341131D03*
X0065409Y0331131D03*
X0065409Y0321131D03*
X0065409Y0311131D03*
X0075409Y0311131D03*
X0085409Y0311131D03*
X0085409Y0321131D03*
X0075409Y0321131D03*
X0075409Y0331131D03*
X0085409Y0331131D03*
X0095409Y0331131D03*
X0095409Y0321131D03*
X0095409Y0311131D03*
X0105409Y0311131D03*
X0105409Y0321131D03*
X0105409Y0331131D03*
X0115409Y0331131D03*
X0115409Y0321131D03*
X0125409Y0321131D03*
X0125409Y0331131D03*
X0135409Y0331131D03*
X0135409Y0321131D03*
X0135409Y0311131D03*
X0125409Y0311131D03*
X0115409Y0311131D03*
X0145409Y0311131D03*
X0145409Y0321131D03*
X0145409Y0331131D03*
X0155409Y0331131D03*
X0155409Y0321131D03*
X0155409Y0311131D03*
X0165409Y0311131D03*
X0175409Y0311131D03*
X0175409Y0321131D03*
X0165409Y0321131D03*
X0165409Y0331131D03*
X0175409Y0331131D03*
X0185409Y0331131D03*
X0185409Y0321131D03*
X0185409Y0311131D03*
X0195409Y0311131D03*
X0195409Y0321131D03*
X0195409Y0331131D03*
X0205409Y0331131D03*
X0205409Y0321131D03*
X0205409Y0311131D03*
X0215409Y0311131D03*
X0225409Y0311131D03*
X0225409Y0321131D03*
X0215409Y0321131D03*
X0215409Y0331131D03*
X0225409Y0331131D03*
X0235409Y0331131D03*
X0235409Y0321131D03*
X0235409Y0311131D03*
X0245409Y0311131D03*
X0245409Y0321131D03*
X0245409Y0331131D03*
X0255409Y0331131D03*
X0255409Y0321131D03*
X0265409Y0321131D03*
X0265409Y0331131D03*
X0275409Y0331131D03*
X0275409Y0321131D03*
X0275409Y0311131D03*
X0265409Y0311131D03*
X0255409Y0311131D03*
X0285409Y0311131D03*
X0285409Y0321131D03*
X0285409Y0331131D03*
X0295409Y0331131D03*
X0295409Y0321131D03*
X0295409Y0311131D03*
X0055409Y0312131D03*
X0055409Y0322131D03*
X0055409Y0332131D03*
X0055409Y0342131D03*
D14*
X0022929Y0008454D02*
X0337890Y0008454D01*
X0357575Y0028139D01*
X0357575Y0343100D01*
X0337890Y0362785D01*
X0022929Y0362785D01*
X0003244Y0343100D01*
X0003244Y0028139D01*
X0022929Y0008454D01*
D15*
X0024898Y0030108D03*
X0024898Y0341131D03*
X0335921Y0341131D03*
X0335921Y0030108D03*
D16*
X0309059Y0061312D03*
X0309059Y0063812D03*
X0321748Y0064360D03*
X0321748Y0067115D03*
X0321748Y0069871D03*
X0321748Y0072234D03*
X0321354Y0111604D03*
X0321354Y0113966D03*
X0321354Y0116722D03*
X0321354Y0119478D03*
X0299858Y0145856D03*
X0302220Y0146249D03*
X0293598Y0141328D03*
X0291630Y0141328D03*
X0263087Y0105895D03*
X0261118Y0103927D03*
X0263087Y0102942D03*
X0252551Y0119387D03*
X0250051Y0119387D03*
X0242417Y0096052D03*
X0230606Y0092115D03*
X0264489Y0084938D03*
X0266064Y0086513D03*
X0267245Y0084151D03*
X0269607Y0083757D03*
X0268820Y0086119D03*
X0267639Y0081395D03*
X0265277Y0082379D03*
X0263500Y0078090D03*
X0263500Y0075590D03*
X0263146Y0060039D03*
X0263146Y0057539D03*
X0289661Y0028139D03*
X0187299Y0086210D03*
X0183362Y0088178D03*
X0183362Y0139959D03*
X0187299Y0140608D03*
X0184346Y0147234D03*
X0180569Y0147234D03*
X0195764Y0174202D03*
X0203244Y0174202D03*
X0202366Y0199210D03*
X0204925Y0199210D03*
X0215379Y0210383D03*
X0214374Y0229072D03*
X0214374Y0231572D03*
X0226911Y0227829D03*
X0233311Y0230029D03*
X0233311Y0232785D03*
X0227260Y0236407D03*
X0235331Y0249005D03*
X0235331Y0251761D03*
X0235331Y0269478D03*
X0235331Y0271840D03*
X0254228Y0276171D03*
X0274701Y0286997D03*
X0274701Y0289753D03*
X0276276Y0283848D03*
X0308953Y0284241D03*
X0310921Y0281879D03*
X0310921Y0286604D03*
X0311906Y0292706D03*
X0311906Y0302549D03*
X0333953Y0301761D03*
X0333953Y0314556D03*
X0328638Y0271840D03*
X0328638Y0269478D03*
X0328638Y0251761D03*
X0328638Y0249005D03*
X0320567Y0236407D03*
X0326618Y0232785D03*
X0326618Y0230029D03*
X0320218Y0227829D03*
X0316236Y0220268D03*
X0306394Y0217115D03*
X0306394Y0224989D03*
X0307378Y0232864D03*
X0305409Y0239753D03*
X0278835Y0222627D03*
X0278835Y0220265D03*
X0279403Y0214160D03*
X0273951Y0213270D03*
X0270449Y0204942D03*
X0255462Y0209241D03*
X0244689Y0199210D03*
X0242130Y0199210D03*
X0243008Y0174202D03*
X0235528Y0174202D03*
X0254138Y0229072D03*
X0254138Y0231572D03*
X0211906Y0277155D03*
X0195567Y0271840D03*
X0195567Y0269478D03*
X0195567Y0251761D03*
X0195567Y0249005D03*
X0187496Y0236407D03*
X0193547Y0232785D03*
X0193547Y0230029D03*
X0187147Y0227829D03*
X0174610Y0229072D03*
X0174610Y0231572D03*
X0155803Y0249005D03*
X0155803Y0251761D03*
X0155803Y0269478D03*
X0155803Y0271840D03*
X0169583Y0274202D03*
X0131197Y0274202D03*
X0116039Y0271840D03*
X0116039Y0269478D03*
X0116039Y0251761D03*
X0116039Y0249005D03*
X0107969Y0236407D03*
X0114020Y0232785D03*
X0114020Y0230029D03*
X0107620Y0227829D03*
X0095083Y0229072D03*
X0095083Y0231572D03*
X0076276Y0249005D03*
X0076276Y0251761D03*
X0076276Y0269478D03*
X0076276Y0271840D03*
X0091827Y0276171D03*
X0056984Y0259045D03*
X0055016Y0256682D03*
X0056984Y0254320D03*
X0047142Y0271643D03*
X0047142Y0274005D03*
X0047142Y0276367D03*
X0047142Y0279123D03*
X0047142Y0281486D03*
X0022339Y0256289D03*
X0020764Y0259438D03*
X0020764Y0262194D03*
X0014071Y0271249D03*
X0012890Y0310619D03*
X0012890Y0312982D03*
X0012890Y0315344D03*
X0068205Y0236407D03*
X0074256Y0232785D03*
X0074256Y0230029D03*
X0067856Y0227829D03*
X0051472Y0212194D03*
X0053441Y0205304D03*
X0052457Y0197430D03*
X0052457Y0189556D03*
X0025466Y0186601D03*
X0024898Y0192706D03*
X0024898Y0195068D03*
X0016512Y0177383D03*
X0041866Y0156801D03*
X0053069Y0160873D03*
X0076472Y0174202D03*
X0083953Y0174202D03*
X0083075Y0199210D03*
X0085634Y0199210D03*
X0096256Y0203828D03*
X0122839Y0199210D03*
X0125398Y0199210D03*
X0135852Y0210383D03*
X0134846Y0229072D03*
X0134846Y0231572D03*
X0147383Y0227829D03*
X0153783Y0230029D03*
X0153783Y0232785D03*
X0147732Y0236407D03*
X0175616Y0210383D03*
X0165161Y0199210D03*
X0162602Y0199210D03*
X0163480Y0174202D03*
X0156000Y0174202D03*
X0123717Y0174202D03*
X0116236Y0174202D03*
X0094780Y0122627D03*
X0092811Y0114753D03*
X0090843Y0109832D03*
X0097732Y0101958D03*
X0089858Y0086210D03*
X0085921Y0057667D03*
X0052457Y0122627D03*
X0183362Y0018297D03*
X0328835Y0174202D03*
X0336315Y0174202D03*
X0335437Y0199210D03*
X0337996Y0199210D03*
X0347445Y0229072D03*
X0347445Y0231572D03*
X0295803Y0184360D03*
D17*
X0267024Y0224399D03*
X0264661Y0224399D03*
X0264268Y0226761D03*
X0264268Y0228927D03*
X0266827Y0228927D03*
X0266827Y0226958D03*
X0269583Y0226958D03*
X0269583Y0228927D03*
X0272339Y0228927D03*
X0272339Y0226564D03*
X0261906Y0227352D03*
X0261906Y0230304D03*
X0261906Y0233060D03*
X0261906Y0224399D03*
X0225882Y0243297D03*
X0225882Y0245265D03*
X0223323Y0245265D03*
X0223323Y0243100D03*
X0220961Y0243690D03*
X0220961Y0240738D03*
X0220961Y0246643D03*
X0186118Y0245068D03*
X0186118Y0243100D03*
X0183559Y0242903D03*
X0183559Y0245068D03*
X0181197Y0246446D03*
X0181197Y0243493D03*
X0181197Y0240541D03*
X0146354Y0242312D03*
X0146354Y0244281D03*
X0143795Y0244281D03*
X0143795Y0242115D03*
X0141433Y0242706D03*
X0141433Y0239753D03*
X0141433Y0245659D03*
X0106591Y0244281D03*
X0106591Y0242312D03*
X0104031Y0242115D03*
X0104031Y0244281D03*
X0101669Y0245659D03*
X0101669Y0242706D03*
X0101669Y0239753D03*
X0066630Y0242509D03*
X0066630Y0244871D03*
X0063874Y0245265D03*
X0061512Y0245265D03*
X0061512Y0242509D03*
X0063874Y0242509D03*
X0027654Y0202155D03*
X0027654Y0199202D03*
X0024701Y0199202D03*
X0024701Y0202155D03*
X0021748Y0202155D03*
X0018795Y0202155D03*
X0015843Y0202155D03*
X0015843Y0199202D03*
X0018795Y0199202D03*
X0021748Y0199202D03*
X0012890Y0200186D03*
X0012890Y0202155D03*
X0010331Y0202155D03*
X0010331Y0199989D03*
X0007969Y0200580D03*
X0007969Y0197627D03*
X0007969Y0203533D03*
X0007969Y0206092D03*
X0233859Y0082196D03*
X0236359Y0082196D03*
X0236037Y0063932D03*
X0233537Y0063932D03*
X0259037Y0039182D03*
X0261537Y0039182D03*
X0261109Y0095946D03*
X0258609Y0095946D03*
X0314661Y0240147D03*
X0314661Y0243100D03*
X0316630Y0242509D03*
X0316630Y0244675D03*
X0314661Y0246052D03*
X0319189Y0244675D03*
X0319189Y0242706D03*
M02*
