G75*
%MOIN*%
%OFA0B0*%
%FSLAX25Y25*%
%IPPOS*%
%LPD*%
%AMOC8*
5,1,8,0,0,1.08239X$1,22.5*
%
%ADD10C,0.00000*%
%ADD11C,0.15417*%
%ADD12C,0.05750*%
%ADD13C,0.04400*%
%ADD14C,0.06000*%
%ADD15C,0.02978*%
%ADD16C,0.03962*%
%ADD17C,0.00800*%
%ADD18C,0.01600*%
D10*
X0010258Y0024038D02*
X0010258Y0338998D01*
X0029943Y0358683D01*
X0344904Y0358683D01*
X0364589Y0338998D01*
X0364589Y0024038D01*
X0344904Y0004353D01*
X0029943Y0004353D01*
X0010258Y0024038D01*
D11*
X0031912Y0026006D03*
X0342935Y0026006D03*
X0342935Y0337030D03*
X0031912Y0337030D03*
D12*
X0062424Y0338030D03*
X0062424Y0328030D03*
X0072424Y0327030D03*
X0072424Y0317030D03*
X0072424Y0307030D03*
X0062424Y0308030D03*
X0062424Y0318030D03*
X0082424Y0317030D03*
X0092424Y0317030D03*
X0102424Y0317030D03*
X0102424Y0327030D03*
X0092424Y0327030D03*
X0082424Y0327030D03*
X0082424Y0337030D03*
X0092424Y0337030D03*
X0102424Y0337030D03*
X0112424Y0337030D03*
X0122424Y0337030D03*
X0132424Y0337030D03*
X0142424Y0337030D03*
X0152424Y0337030D03*
X0162424Y0337030D03*
X0172424Y0337030D03*
X0182424Y0337030D03*
X0192424Y0337030D03*
X0202424Y0337030D03*
X0212424Y0337030D03*
X0222424Y0337030D03*
X0232424Y0337030D03*
X0242424Y0337030D03*
X0252424Y0337030D03*
X0262424Y0337030D03*
X0272424Y0337030D03*
X0282424Y0337030D03*
X0292424Y0337030D03*
X0302424Y0337030D03*
X0312424Y0338030D03*
X0312424Y0328030D03*
X0302424Y0327030D03*
X0302424Y0317030D03*
X0302424Y0307030D03*
X0292424Y0307030D03*
X0292424Y0317030D03*
X0292424Y0327030D03*
X0282424Y0327030D03*
X0282424Y0317030D03*
X0282424Y0307030D03*
X0272424Y0307030D03*
X0272424Y0317030D03*
X0272424Y0327030D03*
X0262424Y0327030D03*
X0262424Y0317030D03*
X0262424Y0307030D03*
X0252424Y0307030D03*
X0252424Y0317030D03*
X0252424Y0327030D03*
X0242424Y0327030D03*
X0242424Y0317030D03*
X0242424Y0307030D03*
X0232424Y0307030D03*
X0232424Y0317030D03*
X0232424Y0327030D03*
X0222424Y0327030D03*
X0222424Y0317030D03*
X0222424Y0307030D03*
X0212424Y0307030D03*
X0212424Y0317030D03*
X0212424Y0327030D03*
X0202424Y0327030D03*
X0202424Y0317030D03*
X0202424Y0307030D03*
X0192424Y0307030D03*
X0192424Y0317030D03*
X0192424Y0327030D03*
X0182424Y0327030D03*
X0182424Y0317030D03*
X0182424Y0307030D03*
X0172424Y0307030D03*
X0172424Y0317030D03*
X0172424Y0327030D03*
X0162424Y0327030D03*
X0162424Y0317030D03*
X0162424Y0307030D03*
X0152424Y0307030D03*
X0152424Y0317030D03*
X0152424Y0327030D03*
X0142424Y0327030D03*
X0142424Y0317030D03*
X0142424Y0307030D03*
X0132424Y0307030D03*
X0132424Y0317030D03*
X0132424Y0327030D03*
X0122424Y0327030D03*
X0122424Y0317030D03*
X0122424Y0307030D03*
X0112424Y0307030D03*
X0112424Y0317030D03*
X0112424Y0327030D03*
X0102424Y0307030D03*
X0092424Y0307030D03*
X0082424Y0307030D03*
X0072424Y0337030D03*
X0312424Y0318030D03*
X0312424Y0308030D03*
D13*
X0292435Y0288415D03*
X0282593Y0276112D03*
X0307691Y0260364D03*
X0290959Y0247569D03*
X0272258Y0240679D03*
X0281117Y0229852D03*
X0272258Y0220009D03*
X0277180Y0210167D03*
X0289975Y0208198D03*
X0301786Y0208198D03*
X0319452Y0223686D03*
X0313205Y0227307D03*
X0305723Y0231220D03*
X0326973Y0218671D03*
X0334473Y0218671D03*
X0334266Y0210167D03*
X0335250Y0195403D03*
X0276195Y0162923D03*
X0277180Y0147175D03*
X0228739Y0134522D03*
X0228837Y0127042D03*
X0212991Y0109424D03*
X0200195Y0126156D03*
X0182479Y0135998D03*
X0172636Y0144857D03*
X0162794Y0139935D03*
X0160825Y0127140D03*
X0160825Y0115329D03*
X0179934Y0103910D03*
X0176313Y0097663D03*
X0171298Y0090142D03*
X0171298Y0082642D03*
X0162794Y0082849D03*
X0148030Y0081865D03*
X0183847Y0111392D03*
X0193306Y0144857D03*
X0216435Y0178451D03*
X0218896Y0182880D03*
X0227754Y0172054D03*
X0212991Y0211424D03*
X0200195Y0228156D03*
X0182479Y0237998D03*
X0172636Y0246857D03*
X0162794Y0241935D03*
X0160825Y0229140D03*
X0160825Y0217329D03*
X0179934Y0205910D03*
X0176313Y0199663D03*
X0171298Y0192142D03*
X0171298Y0184642D03*
X0162794Y0184849D03*
X0148030Y0183865D03*
X0183847Y0213392D03*
X0193306Y0246857D03*
X0228739Y0236522D03*
X0228837Y0229042D03*
X0336235Y0266269D03*
X0340664Y0263809D03*
X0347061Y0275128D03*
X0218896Y0080880D03*
X0216435Y0076451D03*
X0227754Y0070054D03*
X0115550Y0140920D03*
X0099802Y0139935D03*
X0099802Y0241935D03*
X0115550Y0242920D03*
D14*
X0019798Y0246392D03*
X0018798Y0236392D03*
X0019798Y0226392D03*
X0018798Y0216392D03*
X0019798Y0206392D03*
X0018798Y0196392D03*
X0019798Y0186392D03*
X0018798Y0176392D03*
X0019798Y0142392D03*
X0018798Y0132392D03*
X0019798Y0122392D03*
X0018798Y0112392D03*
X0019798Y0102392D03*
X0018798Y0092392D03*
X0019798Y0082392D03*
X0018798Y0072392D03*
X0289298Y0100392D03*
X0299298Y0100392D03*
X0299298Y0110392D03*
X0289298Y0110392D03*
X0309298Y0110392D03*
X0309298Y0100392D03*
X0354861Y0133729D03*
X0355861Y0143729D03*
X0354861Y0153729D03*
X0355861Y0163729D03*
X0354861Y0173729D03*
X0355861Y0183729D03*
X0354861Y0193729D03*
X0355861Y0203729D03*
D15*
X0355298Y0218392D03*
X0355298Y0241892D03*
X0355298Y0276892D03*
X0354189Y0282286D03*
X0356689Y0282286D03*
X0348798Y0289142D03*
X0348798Y0291642D03*
X0350906Y0300749D03*
X0353406Y0300749D03*
X0335298Y0317392D03*
X0325906Y0329499D03*
X0323406Y0329499D03*
X0320798Y0308142D03*
X0320798Y0305642D03*
X0317656Y0296749D03*
X0315156Y0296749D03*
X0335298Y0281392D03*
X0314298Y0268392D03*
X0283698Y0296492D03*
X0283698Y0299392D03*
X0240298Y0294392D03*
X0240298Y0284392D03*
X0198298Y0298392D03*
X0211298Y0227392D03*
X0213298Y0227392D03*
X0233298Y0218392D03*
X0233298Y0205392D03*
X0220298Y0205392D03*
X0218298Y0205392D03*
X0228508Y0190392D03*
X0228508Y0188392D03*
X0211298Y0146392D03*
X0211298Y0144392D03*
X0212298Y0127392D03*
X0212298Y0125392D03*
X0235298Y0088392D03*
X0233298Y0086392D03*
X0199298Y0067392D03*
X0197298Y0067392D03*
X0195298Y0067392D03*
X0100298Y0077392D03*
X0097298Y0077392D03*
X0154298Y0170392D03*
X0154298Y0172392D03*
X0101298Y0181392D03*
X0098298Y0181392D03*
X0105298Y0255392D03*
X0107298Y0255392D03*
X0054798Y0309142D03*
X0054798Y0311642D03*
X0052406Y0330499D03*
X0049906Y0330499D03*
X0023656Y0316749D03*
X0021156Y0316749D03*
X0036941Y0297501D03*
X0036941Y0295001D03*
X0029298Y0280392D03*
X0029298Y0278392D03*
X0018906Y0279499D03*
X0016406Y0279499D03*
X0029548Y0264892D03*
X0032048Y0264892D03*
X0039298Y0274392D03*
X0040298Y0276392D03*
X0300098Y0023392D03*
X0302998Y0023392D03*
X0323298Y0133392D03*
X0321298Y0147392D03*
X0310298Y0147392D03*
X0305298Y0149392D03*
X0305298Y0165392D03*
X0313405Y0178285D03*
X0310298Y0181392D03*
D16*
X0276991Y0141164D03*
X0290298Y0133392D03*
X0334298Y0138392D03*
X0288698Y0061992D03*
X0298298Y0056392D03*
X0304698Y0056392D03*
X0291898Y0049992D03*
X0301098Y0037592D03*
X0345698Y0253392D03*
X0291298Y0268592D03*
X0056898Y0288392D03*
D17*
X0025212Y0020108D02*
X0020411Y0020108D01*
X0019612Y0020906D02*
X0024413Y0020906D01*
X0024359Y0020960D02*
X0026865Y0018454D01*
X0030140Y0017098D01*
X0033684Y0017098D01*
X0036958Y0018454D01*
X0039464Y0020960D01*
X0040820Y0024234D01*
X0040820Y0027778D01*
X0039464Y0031053D01*
X0036958Y0033559D01*
X0033684Y0034915D01*
X0030140Y0034915D01*
X0026865Y0033559D01*
X0024359Y0031053D01*
X0023003Y0027778D01*
X0023003Y0024234D01*
X0024359Y0020960D01*
X0024051Y0021705D02*
X0018814Y0021705D01*
X0018015Y0022503D02*
X0023720Y0022503D01*
X0023389Y0023302D02*
X0017217Y0023302D01*
X0016418Y0024100D02*
X0023059Y0024100D01*
X0023003Y0024899D02*
X0015620Y0024899D01*
X0014821Y0025697D02*
X0023003Y0025697D01*
X0023003Y0026496D02*
X0014658Y0026496D01*
X0014658Y0025860D02*
X0014658Y0071410D01*
X0015237Y0070013D01*
X0016419Y0068832D01*
X0017962Y0068192D01*
X0019633Y0068192D01*
X0021177Y0068832D01*
X0022358Y0070013D01*
X0022998Y0071557D01*
X0022998Y0073228D01*
X0022358Y0074771D01*
X0021177Y0075953D01*
X0019633Y0076592D01*
X0017962Y0076592D01*
X0016419Y0075953D01*
X0015237Y0074771D01*
X0014658Y0073374D01*
X0014658Y0090893D01*
X0014720Y0090703D01*
X0015034Y0090086D01*
X0015441Y0089526D01*
X0015931Y0089036D01*
X0016492Y0088629D01*
X0017109Y0088314D01*
X0017767Y0088100D01*
X0018398Y0088001D01*
X0018398Y0091992D01*
X0019198Y0091992D01*
X0019198Y0092792D01*
X0023189Y0092792D01*
X0023089Y0093422D01*
X0022875Y0094081D01*
X0022561Y0094698D01*
X0022154Y0095259D01*
X0021664Y0095748D01*
X0021104Y0096155D01*
X0020487Y0096470D01*
X0019828Y0096684D01*
X0019198Y0096784D01*
X0019198Y0092792D01*
X0018398Y0092792D01*
X0018398Y0096784D01*
X0017767Y0096684D01*
X0017109Y0096470D01*
X0016492Y0096155D01*
X0015931Y0095748D01*
X0015441Y0095259D01*
X0015034Y0094698D01*
X0014720Y0094081D01*
X0014658Y0093891D01*
X0014658Y0111410D01*
X0015237Y0110013D01*
X0016419Y0108832D01*
X0017962Y0108192D01*
X0019633Y0108192D01*
X0021177Y0108832D01*
X0022358Y0110013D01*
X0022998Y0111557D01*
X0022998Y0113228D01*
X0022358Y0114771D01*
X0021177Y0115953D01*
X0019633Y0116592D01*
X0017962Y0116592D01*
X0016419Y0115953D01*
X0015237Y0114771D01*
X0014658Y0113374D01*
X0014658Y0131410D01*
X0015237Y0130013D01*
X0016419Y0128832D01*
X0017962Y0128192D01*
X0019633Y0128192D01*
X0021177Y0128832D01*
X0022358Y0130013D01*
X0022998Y0131557D01*
X0022998Y0133228D01*
X0022358Y0134771D01*
X0021177Y0135953D01*
X0019633Y0136592D01*
X0017962Y0136592D01*
X0016419Y0135953D01*
X0015237Y0134771D01*
X0014658Y0133374D01*
X0014658Y0175410D01*
X0015237Y0174013D01*
X0016419Y0172832D01*
X0017962Y0172192D01*
X0019633Y0172192D01*
X0021177Y0172832D01*
X0022358Y0174013D01*
X0022998Y0175557D01*
X0022998Y0177228D01*
X0022358Y0178771D01*
X0021177Y0179953D01*
X0019633Y0180592D01*
X0017962Y0180592D01*
X0016419Y0179953D01*
X0015237Y0178771D01*
X0014658Y0177374D01*
X0014658Y0194893D01*
X0014720Y0194703D01*
X0015034Y0194086D01*
X0015441Y0193526D01*
X0015931Y0193036D01*
X0016492Y0192629D01*
X0017109Y0192314D01*
X0017767Y0192100D01*
X0018398Y0192001D01*
X0018398Y0195992D01*
X0019198Y0195992D01*
X0019198Y0196792D01*
X0023189Y0196792D01*
X0023089Y0197422D01*
X0022875Y0198081D01*
X0022561Y0198698D01*
X0022154Y0199259D01*
X0021664Y0199748D01*
X0021104Y0200155D01*
X0020487Y0200470D01*
X0019828Y0200684D01*
X0019198Y0200784D01*
X0019198Y0196792D01*
X0018398Y0196792D01*
X0018398Y0200784D01*
X0017767Y0200684D01*
X0017109Y0200470D01*
X0016492Y0200155D01*
X0015931Y0199748D01*
X0015441Y0199259D01*
X0015034Y0198698D01*
X0014720Y0198081D01*
X0014658Y0197891D01*
X0014658Y0215410D01*
X0015237Y0214013D01*
X0016419Y0212832D01*
X0017962Y0212192D01*
X0019633Y0212192D01*
X0021177Y0212832D01*
X0022358Y0214013D01*
X0022998Y0215557D01*
X0022998Y0217228D01*
X0022358Y0218771D01*
X0021177Y0219953D01*
X0019633Y0220592D01*
X0017962Y0220592D01*
X0016419Y0219953D01*
X0015237Y0218771D01*
X0014658Y0217374D01*
X0014658Y0235410D01*
X0015237Y0234013D01*
X0016419Y0232832D01*
X0017962Y0232192D01*
X0019633Y0232192D01*
X0021177Y0232832D01*
X0022358Y0234013D01*
X0022998Y0235557D01*
X0022998Y0237228D01*
X0022358Y0238771D01*
X0021177Y0239953D01*
X0019633Y0240592D01*
X0017962Y0240592D01*
X0016419Y0239953D01*
X0015237Y0238771D01*
X0014658Y0237374D01*
X0014658Y0337176D01*
X0031766Y0354283D01*
X0258487Y0354283D01*
X0258449Y0338083D01*
X0258349Y0337840D01*
X0258349Y0336219D01*
X0258444Y0335989D01*
X0258425Y0328026D01*
X0258349Y0327840D01*
X0258349Y0326219D01*
X0258421Y0326046D01*
X0258402Y0317968D01*
X0258349Y0317840D01*
X0258349Y0316219D01*
X0258397Y0316102D01*
X0258378Y0307911D01*
X0258349Y0307840D01*
X0258349Y0306219D01*
X0258374Y0306159D01*
X0258321Y0283880D01*
X0258290Y0134274D01*
X0258290Y0008753D01*
X0031766Y0008753D01*
X0014658Y0025860D01*
X0014658Y0027294D02*
X0023003Y0027294D01*
X0023133Y0028093D02*
X0014658Y0028093D01*
X0014658Y0028891D02*
X0023464Y0028891D01*
X0023795Y0029690D02*
X0014658Y0029690D01*
X0014658Y0030488D02*
X0024126Y0030488D01*
X0024594Y0031287D02*
X0014658Y0031287D01*
X0014658Y0032085D02*
X0025392Y0032085D01*
X0026191Y0032884D02*
X0014658Y0032884D01*
X0014658Y0033682D02*
X0027164Y0033682D01*
X0029092Y0034481D02*
X0014658Y0034481D01*
X0014658Y0035279D02*
X0258290Y0035279D01*
X0258290Y0034481D02*
X0034732Y0034481D01*
X0036659Y0033682D02*
X0258290Y0033682D01*
X0258290Y0032884D02*
X0037633Y0032884D01*
X0038431Y0032085D02*
X0258290Y0032085D01*
X0258290Y0031287D02*
X0039230Y0031287D01*
X0039698Y0030488D02*
X0258290Y0030488D01*
X0258290Y0029690D02*
X0040029Y0029690D01*
X0040359Y0028891D02*
X0258290Y0028891D01*
X0258290Y0028093D02*
X0040690Y0028093D01*
X0040820Y0027294D02*
X0258290Y0027294D01*
X0258290Y0026496D02*
X0040820Y0026496D01*
X0040820Y0025697D02*
X0258290Y0025697D01*
X0258290Y0024899D02*
X0040820Y0024899D01*
X0040765Y0024100D02*
X0258290Y0024100D01*
X0258290Y0023302D02*
X0040434Y0023302D01*
X0040103Y0022503D02*
X0258290Y0022503D01*
X0258290Y0021705D02*
X0039773Y0021705D01*
X0039410Y0020906D02*
X0258290Y0020906D01*
X0258290Y0020108D02*
X0038612Y0020108D01*
X0037813Y0019309D02*
X0258290Y0019309D01*
X0258290Y0018511D02*
X0037015Y0018511D01*
X0035168Y0017712D02*
X0258290Y0017712D01*
X0258290Y0016914D02*
X0023605Y0016914D01*
X0022806Y0017712D02*
X0028656Y0017712D01*
X0026809Y0018511D02*
X0022008Y0018511D01*
X0021209Y0019309D02*
X0026010Y0019309D01*
X0024403Y0016115D02*
X0258290Y0016115D01*
X0258290Y0015317D02*
X0025202Y0015317D01*
X0026000Y0014518D02*
X0258290Y0014518D01*
X0258290Y0013720D02*
X0026799Y0013720D01*
X0027597Y0012921D02*
X0258290Y0012921D01*
X0258290Y0012123D02*
X0028396Y0012123D01*
X0029194Y0011324D02*
X0258290Y0011324D01*
X0258290Y0010526D02*
X0029993Y0010526D01*
X0030791Y0009727D02*
X0258290Y0009727D01*
X0258290Y0008929D02*
X0031590Y0008929D01*
X0014658Y0036078D02*
X0258290Y0036078D01*
X0258290Y0036876D02*
X0014658Y0036876D01*
X0014658Y0037675D02*
X0258290Y0037675D01*
X0258290Y0038473D02*
X0014658Y0038473D01*
X0014658Y0039272D02*
X0258290Y0039272D01*
X0258290Y0040071D02*
X0014658Y0040071D01*
X0014658Y0040869D02*
X0258290Y0040869D01*
X0258290Y0041668D02*
X0014658Y0041668D01*
X0014658Y0042466D02*
X0258290Y0042466D01*
X0258290Y0043265D02*
X0014658Y0043265D01*
X0014658Y0044063D02*
X0258290Y0044063D01*
X0258290Y0044862D02*
X0014658Y0044862D01*
X0014658Y0045660D02*
X0258290Y0045660D01*
X0258290Y0046459D02*
X0014658Y0046459D01*
X0014658Y0047257D02*
X0258290Y0047257D01*
X0258290Y0048056D02*
X0014658Y0048056D01*
X0014658Y0048854D02*
X0258290Y0048854D01*
X0258290Y0049653D02*
X0014658Y0049653D01*
X0014658Y0050451D02*
X0258290Y0050451D01*
X0258290Y0051250D02*
X0014658Y0051250D01*
X0014658Y0052048D02*
X0258290Y0052048D01*
X0258290Y0052847D02*
X0014658Y0052847D01*
X0014658Y0053645D02*
X0258290Y0053645D01*
X0258290Y0054444D02*
X0014658Y0054444D01*
X0014658Y0055242D02*
X0258290Y0055242D01*
X0258290Y0056041D02*
X0014658Y0056041D01*
X0014658Y0056839D02*
X0258290Y0056839D01*
X0258290Y0057638D02*
X0014658Y0057638D01*
X0014658Y0058436D02*
X0258290Y0058436D01*
X0258290Y0059235D02*
X0014658Y0059235D01*
X0014658Y0060033D02*
X0258290Y0060033D01*
X0258290Y0060832D02*
X0014658Y0060832D01*
X0014658Y0061630D02*
X0258290Y0061630D01*
X0258290Y0062429D02*
X0014658Y0062429D01*
X0014658Y0063227D02*
X0258290Y0063227D01*
X0258290Y0064026D02*
X0014658Y0064026D01*
X0014658Y0064824D02*
X0194470Y0064824D01*
X0194763Y0064703D02*
X0195833Y0064703D01*
X0196298Y0064896D01*
X0196763Y0064703D01*
X0197833Y0064703D01*
X0198298Y0064896D01*
X0198763Y0064703D01*
X0199833Y0064703D01*
X0200821Y0065113D01*
X0201577Y0065869D01*
X0201987Y0066857D01*
X0201987Y0067927D01*
X0201577Y0068915D01*
X0200821Y0069672D01*
X0199833Y0070081D01*
X0198763Y0070081D01*
X0198298Y0069888D01*
X0197833Y0070081D01*
X0196763Y0070081D01*
X0196298Y0069888D01*
X0195833Y0070081D01*
X0194763Y0070081D01*
X0193774Y0069672D01*
X0193018Y0068915D01*
X0192609Y0067927D01*
X0192609Y0066857D01*
X0193018Y0065869D01*
X0193774Y0065113D01*
X0194763Y0064703D01*
X0196125Y0064824D02*
X0196470Y0064824D01*
X0198125Y0064824D02*
X0198470Y0064824D01*
X0200125Y0064824D02*
X0258290Y0064824D01*
X0258290Y0065623D02*
X0201331Y0065623D01*
X0201806Y0066421D02*
X0258290Y0066421D01*
X0258290Y0067220D02*
X0201987Y0067220D01*
X0201949Y0068018D02*
X0258290Y0068018D01*
X0258290Y0068817D02*
X0201618Y0068817D01*
X0200877Y0069615D02*
X0258290Y0069615D01*
X0258290Y0070414D02*
X0022524Y0070414D01*
X0022855Y0071212D02*
X0258290Y0071212D01*
X0258290Y0072011D02*
X0022998Y0072011D01*
X0022998Y0072809D02*
X0258290Y0072809D01*
X0258290Y0073608D02*
X0022840Y0073608D01*
X0022509Y0074406D02*
X0258290Y0074406D01*
X0258290Y0075205D02*
X0021924Y0075205D01*
X0021054Y0076004D02*
X0258290Y0076004D01*
X0258290Y0076802D02*
X0014658Y0076802D01*
X0014658Y0076004D02*
X0016541Y0076004D01*
X0015671Y0075205D02*
X0014658Y0075205D01*
X0014658Y0074406D02*
X0015086Y0074406D01*
X0014755Y0073608D02*
X0014658Y0073608D01*
X0014658Y0071212D02*
X0014740Y0071212D01*
X0014658Y0070414D02*
X0015071Y0070414D01*
X0014658Y0069615D02*
X0015635Y0069615D01*
X0016454Y0068817D02*
X0014658Y0068817D01*
X0014658Y0068018D02*
X0192647Y0068018D01*
X0192609Y0067220D02*
X0014658Y0067220D01*
X0014658Y0066421D02*
X0192789Y0066421D01*
X0193264Y0065623D02*
X0014658Y0065623D01*
X0021141Y0068817D02*
X0192977Y0068817D01*
X0193718Y0069615D02*
X0021961Y0069615D01*
X0020633Y0078192D02*
X0022177Y0078832D01*
X0023358Y0080013D01*
X0023998Y0081557D01*
X0023998Y0083228D01*
X0023358Y0084771D01*
X0022177Y0085953D01*
X0020633Y0086592D01*
X0018962Y0086592D01*
X0017419Y0085953D01*
X0016237Y0084771D01*
X0015598Y0083228D01*
X0015598Y0081557D01*
X0016237Y0080013D01*
X0017419Y0078832D01*
X0018962Y0078192D01*
X0020633Y0078192D01*
X0021133Y0078399D02*
X0258290Y0078399D01*
X0258290Y0077601D02*
X0014658Y0077601D01*
X0014658Y0078399D02*
X0018463Y0078399D01*
X0017052Y0079198D02*
X0014658Y0079198D01*
X0014658Y0079996D02*
X0016254Y0079996D01*
X0015913Y0080795D02*
X0014658Y0080795D01*
X0014658Y0081593D02*
X0015598Y0081593D01*
X0015598Y0082392D02*
X0014658Y0082392D01*
X0014658Y0083190D02*
X0015598Y0083190D01*
X0015913Y0083989D02*
X0014658Y0083989D01*
X0014658Y0084787D02*
X0016253Y0084787D01*
X0017051Y0085586D02*
X0014658Y0085586D01*
X0014658Y0086384D02*
X0018460Y0086384D01*
X0019198Y0088001D02*
X0019828Y0088100D01*
X0020487Y0088314D01*
X0021104Y0088629D01*
X0021664Y0089036D01*
X0022154Y0089526D01*
X0022561Y0090086D01*
X0022875Y0090703D01*
X0023089Y0091362D01*
X0023189Y0091992D01*
X0019198Y0091992D01*
X0019198Y0088001D01*
X0019198Y0088780D02*
X0018398Y0088780D01*
X0018398Y0089578D02*
X0019198Y0089578D01*
X0019198Y0090377D02*
X0018398Y0090377D01*
X0018398Y0091175D02*
X0019198Y0091175D01*
X0019198Y0091974D02*
X0018398Y0091974D01*
X0019198Y0092772D02*
X0169119Y0092772D01*
X0169372Y0093024D02*
X0168415Y0092068D01*
X0167898Y0090818D01*
X0167898Y0089466D01*
X0168415Y0088216D01*
X0169372Y0087260D01*
X0170621Y0086742D01*
X0171974Y0086742D01*
X0173224Y0087260D01*
X0174180Y0088216D01*
X0174698Y0089466D01*
X0174698Y0090818D01*
X0174180Y0092068D01*
X0173224Y0093024D01*
X0171974Y0093542D01*
X0170621Y0093542D01*
X0169372Y0093024D01*
X0168376Y0091974D02*
X0023186Y0091974D01*
X0023029Y0091175D02*
X0168045Y0091175D01*
X0167898Y0090377D02*
X0022709Y0090377D01*
X0022192Y0089578D02*
X0167898Y0089578D01*
X0168182Y0088780D02*
X0021311Y0088780D01*
X0021135Y0086384D02*
X0230609Y0086384D01*
X0230609Y0085857D02*
X0231018Y0084869D01*
X0231774Y0084113D01*
X0232763Y0083703D01*
X0233833Y0083703D01*
X0234821Y0084113D01*
X0235577Y0084869D01*
X0235941Y0085748D01*
X0236821Y0086113D01*
X0237577Y0086869D01*
X0237987Y0087857D01*
X0237987Y0088927D01*
X0237577Y0089915D01*
X0236821Y0090672D01*
X0235833Y0091081D01*
X0234763Y0091081D01*
X0233774Y0090672D01*
X0233018Y0089915D01*
X0232654Y0089036D01*
X0231774Y0088672D01*
X0231018Y0087915D01*
X0230609Y0086927D01*
X0230609Y0085857D01*
X0230721Y0085586D02*
X0173076Y0085586D01*
X0173224Y0085524D02*
X0171974Y0086042D01*
X0170621Y0086042D01*
X0169372Y0085524D01*
X0168415Y0084568D01*
X0167898Y0083318D01*
X0167898Y0081966D01*
X0168415Y0080716D01*
X0169372Y0079760D01*
X0170621Y0079242D01*
X0171974Y0079242D01*
X0173224Y0079760D01*
X0174180Y0080716D01*
X0174698Y0081966D01*
X0174698Y0083318D01*
X0174180Y0084568D01*
X0173224Y0085524D01*
X0173961Y0084787D02*
X0231100Y0084787D01*
X0232074Y0083989D02*
X0174420Y0083989D01*
X0174698Y0083190D02*
X0258290Y0083190D01*
X0258290Y0082392D02*
X0174698Y0082392D01*
X0174543Y0081593D02*
X0258290Y0081593D01*
X0258290Y0080795D02*
X0174212Y0080795D01*
X0173460Y0079996D02*
X0258290Y0079996D01*
X0258290Y0079198D02*
X0022543Y0079198D01*
X0023341Y0079996D02*
X0169135Y0079996D01*
X0168383Y0080795D02*
X0023682Y0080795D01*
X0023998Y0081593D02*
X0168052Y0081593D01*
X0167898Y0082392D02*
X0023998Y0082392D01*
X0023998Y0083190D02*
X0167898Y0083190D01*
X0168175Y0083989D02*
X0023682Y0083989D01*
X0023342Y0084787D02*
X0168634Y0084787D01*
X0169519Y0085586D02*
X0022544Y0085586D01*
X0016284Y0088780D02*
X0014658Y0088780D01*
X0014658Y0089578D02*
X0015403Y0089578D01*
X0014886Y0090377D02*
X0014658Y0090377D01*
X0014658Y0087981D02*
X0168650Y0087981D01*
X0169558Y0087183D02*
X0014658Y0087183D01*
X0014658Y0094369D02*
X0014867Y0094369D01*
X0014658Y0095168D02*
X0015376Y0095168D01*
X0014658Y0095966D02*
X0016231Y0095966D01*
X0014658Y0096765D02*
X0018279Y0096765D01*
X0018398Y0096765D02*
X0019198Y0096765D01*
X0019316Y0096765D02*
X0173004Y0096765D01*
X0172913Y0096986D02*
X0173430Y0095737D01*
X0174387Y0094780D01*
X0175636Y0094263D01*
X0176989Y0094263D01*
X0178239Y0094780D01*
X0179195Y0095737D01*
X0179713Y0096986D01*
X0179713Y0098339D01*
X0179195Y0099589D01*
X0178239Y0100545D01*
X0176989Y0101063D01*
X0175636Y0101063D01*
X0174387Y0100545D01*
X0173430Y0099589D01*
X0172913Y0098339D01*
X0172913Y0096986D01*
X0172913Y0097563D02*
X0014658Y0097563D01*
X0014658Y0098362D02*
X0018016Y0098362D01*
X0018109Y0098314D02*
X0018767Y0098100D01*
X0019398Y0098001D01*
X0019398Y0101992D01*
X0020198Y0101992D01*
X0020198Y0102792D01*
X0024189Y0102792D01*
X0024089Y0103422D01*
X0023875Y0104081D01*
X0023561Y0104698D01*
X0023154Y0105259D01*
X0022664Y0105748D01*
X0022104Y0106155D01*
X0021487Y0106470D01*
X0020828Y0106684D01*
X0020198Y0106784D01*
X0020198Y0102792D01*
X0019398Y0102792D01*
X0019398Y0106784D01*
X0018767Y0106684D01*
X0018109Y0106470D01*
X0017492Y0106155D01*
X0016931Y0105748D01*
X0016441Y0105259D01*
X0016034Y0104698D01*
X0015720Y0104081D01*
X0015506Y0103422D01*
X0015406Y0102792D01*
X0019398Y0102792D01*
X0019398Y0101992D01*
X0015406Y0101992D01*
X0015506Y0101362D01*
X0015720Y0100703D01*
X0016034Y0100086D01*
X0016441Y0099526D01*
X0016931Y0099036D01*
X0017492Y0098629D01*
X0018109Y0098314D01*
X0019398Y0098362D02*
X0020198Y0098362D01*
X0020198Y0098001D02*
X0020828Y0098100D01*
X0021487Y0098314D01*
X0022104Y0098629D01*
X0022664Y0099036D01*
X0023154Y0099526D01*
X0023561Y0100086D01*
X0023875Y0100703D01*
X0024089Y0101362D01*
X0024189Y0101992D01*
X0020198Y0101992D01*
X0020198Y0098001D01*
X0020198Y0099160D02*
X0019398Y0099160D01*
X0019398Y0099959D02*
X0020198Y0099959D01*
X0020198Y0100757D02*
X0019398Y0100757D01*
X0019398Y0101556D02*
X0020198Y0101556D01*
X0020198Y0102354D02*
X0176898Y0102354D01*
X0177051Y0101984D02*
X0176534Y0103234D01*
X0176534Y0104587D01*
X0177051Y0105836D01*
X0178008Y0106793D01*
X0179258Y0107310D01*
X0180610Y0107310D01*
X0181860Y0106793D01*
X0182816Y0105836D01*
X0183334Y0104587D01*
X0183334Y0103234D01*
X0182816Y0101984D01*
X0181860Y0101028D01*
X0180610Y0100510D01*
X0179258Y0100510D01*
X0178008Y0101028D01*
X0177051Y0101984D01*
X0177480Y0101556D02*
X0024120Y0101556D01*
X0023893Y0100757D02*
X0174899Y0100757D01*
X0173801Y0099959D02*
X0023468Y0099959D01*
X0022788Y0099160D02*
X0173253Y0099160D01*
X0172922Y0098362D02*
X0021580Y0098362D01*
X0021364Y0095966D02*
X0173335Y0095966D01*
X0173999Y0095168D02*
X0022220Y0095168D01*
X0022728Y0094369D02*
X0175379Y0094369D01*
X0177246Y0094369D02*
X0258290Y0094369D01*
X0258290Y0093571D02*
X0023041Y0093571D01*
X0019198Y0093571D02*
X0018398Y0093571D01*
X0018398Y0094369D02*
X0019198Y0094369D01*
X0019198Y0095168D02*
X0018398Y0095168D01*
X0018398Y0095966D02*
X0019198Y0095966D01*
X0016807Y0099160D02*
X0014658Y0099160D01*
X0014658Y0099959D02*
X0016127Y0099959D01*
X0015702Y0100757D02*
X0014658Y0100757D01*
X0014658Y0101556D02*
X0015475Y0101556D01*
X0014658Y0102354D02*
X0019398Y0102354D01*
X0019398Y0103153D02*
X0020198Y0103153D01*
X0020198Y0103951D02*
X0019398Y0103951D01*
X0019398Y0104750D02*
X0020198Y0104750D01*
X0020198Y0105548D02*
X0019398Y0105548D01*
X0019398Y0106347D02*
X0020198Y0106347D01*
X0021728Y0106347D02*
X0177562Y0106347D01*
X0176932Y0105548D02*
X0022864Y0105548D01*
X0023523Y0104750D02*
X0176602Y0104750D01*
X0176534Y0103951D02*
X0023917Y0103951D01*
X0024132Y0103153D02*
X0176567Y0103153D01*
X0177726Y0100757D02*
X0178661Y0100757D01*
X0178825Y0099959D02*
X0258290Y0099959D01*
X0258290Y0100757D02*
X0181207Y0100757D01*
X0182388Y0101556D02*
X0258290Y0101556D01*
X0258290Y0102354D02*
X0182970Y0102354D01*
X0183300Y0103153D02*
X0258290Y0103153D01*
X0258290Y0103951D02*
X0183334Y0103951D01*
X0183266Y0104750D02*
X0258290Y0104750D01*
X0258290Y0105548D02*
X0182935Y0105548D01*
X0182305Y0106347D02*
X0258290Y0106347D01*
X0258290Y0107145D02*
X0181008Y0107145D01*
X0181921Y0108510D02*
X0183171Y0107992D01*
X0184524Y0107992D01*
X0185773Y0108510D01*
X0186730Y0109466D01*
X0187247Y0110716D01*
X0187247Y0112068D01*
X0186730Y0113318D01*
X0185773Y0114274D01*
X0184524Y0114792D01*
X0183171Y0114792D01*
X0181921Y0114274D01*
X0180965Y0113318D01*
X0180447Y0112068D01*
X0180447Y0110716D01*
X0180965Y0109466D01*
X0181921Y0108510D01*
X0181689Y0108742D02*
X0020962Y0108742D01*
X0021886Y0109541D02*
X0180934Y0109541D01*
X0180603Y0110340D02*
X0022493Y0110340D01*
X0022824Y0111138D02*
X0180447Y0111138D01*
X0180447Y0111937D02*
X0022998Y0111937D01*
X0022998Y0112735D02*
X0180723Y0112735D01*
X0181180Y0113534D02*
X0022871Y0113534D01*
X0022540Y0114332D02*
X0182060Y0114332D01*
X0185634Y0114332D02*
X0258290Y0114332D01*
X0258290Y0113534D02*
X0186514Y0113534D01*
X0186971Y0112735D02*
X0258290Y0112735D01*
X0258290Y0111937D02*
X0187247Y0111937D01*
X0187247Y0111138D02*
X0258290Y0111138D01*
X0258290Y0110340D02*
X0187091Y0110340D01*
X0186761Y0109541D02*
X0258290Y0109541D01*
X0258290Y0108742D02*
X0186006Y0108742D01*
X0178860Y0107145D02*
X0014658Y0107145D01*
X0014658Y0106347D02*
X0017868Y0106347D01*
X0016731Y0105548D02*
X0014658Y0105548D01*
X0014658Y0104750D02*
X0016072Y0104750D01*
X0015678Y0103951D02*
X0014658Y0103951D01*
X0014658Y0103153D02*
X0015463Y0103153D01*
X0014658Y0107944D02*
X0258290Y0107944D01*
X0258290Y0115131D02*
X0021999Y0115131D01*
X0021200Y0115929D02*
X0258290Y0115929D01*
X0258290Y0116728D02*
X0014658Y0116728D01*
X0014658Y0117526D02*
X0258290Y0117526D01*
X0258290Y0118325D02*
X0020953Y0118325D01*
X0020633Y0118192D02*
X0022177Y0118832D01*
X0023358Y0120013D01*
X0023998Y0121557D01*
X0023998Y0123228D01*
X0023358Y0124771D01*
X0022177Y0125953D01*
X0020633Y0126592D01*
X0018962Y0126592D01*
X0017419Y0125953D01*
X0016237Y0124771D01*
X0015598Y0123228D01*
X0015598Y0121557D01*
X0016237Y0120013D01*
X0017419Y0118832D01*
X0018962Y0118192D01*
X0020633Y0118192D01*
X0018642Y0118325D02*
X0014658Y0118325D01*
X0014658Y0119123D02*
X0017127Y0119123D01*
X0016328Y0119922D02*
X0014658Y0119922D01*
X0014658Y0120720D02*
X0015944Y0120720D01*
X0015613Y0121519D02*
X0014658Y0121519D01*
X0014658Y0122317D02*
X0015598Y0122317D01*
X0015598Y0123116D02*
X0014658Y0123116D01*
X0014658Y0123914D02*
X0015882Y0123914D01*
X0016213Y0124713D02*
X0014658Y0124713D01*
X0014658Y0125511D02*
X0016977Y0125511D01*
X0018280Y0126310D02*
X0014658Y0126310D01*
X0014658Y0127108D02*
X0209609Y0127108D01*
X0209609Y0126857D02*
X0209801Y0126392D01*
X0209609Y0125927D01*
X0209609Y0124857D01*
X0210018Y0123869D01*
X0210774Y0123113D01*
X0211763Y0122703D01*
X0212833Y0122703D01*
X0213821Y0123113D01*
X0214577Y0123869D01*
X0214987Y0124857D01*
X0214987Y0125927D01*
X0214794Y0126392D01*
X0214987Y0126857D01*
X0214987Y0127927D01*
X0214577Y0128915D01*
X0213821Y0129672D01*
X0212833Y0130081D01*
X0211763Y0130081D01*
X0210774Y0129672D01*
X0210018Y0128915D01*
X0209609Y0127927D01*
X0209609Y0126857D01*
X0209767Y0126310D02*
X0021315Y0126310D01*
X0022618Y0125511D02*
X0209609Y0125511D01*
X0209669Y0124713D02*
X0023382Y0124713D01*
X0023713Y0123914D02*
X0209999Y0123914D01*
X0210771Y0123116D02*
X0023998Y0123116D01*
X0023998Y0122317D02*
X0258290Y0122317D01*
X0258290Y0121519D02*
X0023982Y0121519D01*
X0023651Y0120720D02*
X0258290Y0120720D01*
X0258290Y0119922D02*
X0023267Y0119922D01*
X0022468Y0119123D02*
X0258290Y0119123D01*
X0258290Y0123116D02*
X0213824Y0123116D01*
X0214596Y0123914D02*
X0258290Y0123914D01*
X0258290Y0124713D02*
X0214927Y0124713D01*
X0214987Y0125511D02*
X0258290Y0125511D01*
X0258290Y0126310D02*
X0214828Y0126310D01*
X0214987Y0127108D02*
X0258290Y0127108D01*
X0258290Y0127907D02*
X0214987Y0127907D01*
X0214664Y0128705D02*
X0258290Y0128705D01*
X0258290Y0129504D02*
X0213989Y0129504D01*
X0210607Y0129504D02*
X0021849Y0129504D01*
X0022478Y0130302D02*
X0258290Y0130302D01*
X0258290Y0131101D02*
X0022809Y0131101D01*
X0022998Y0131899D02*
X0258290Y0131899D01*
X0258290Y0132698D02*
X0022998Y0132698D01*
X0022886Y0133496D02*
X0258290Y0133496D01*
X0258290Y0134295D02*
X0022556Y0134295D01*
X0022036Y0135093D02*
X0258290Y0135093D01*
X0258290Y0135892D02*
X0021238Y0135892D01*
X0020633Y0138192D02*
X0022177Y0138832D01*
X0023358Y0140013D01*
X0023998Y0141557D01*
X0023998Y0143228D01*
X0023358Y0144771D01*
X0022177Y0145953D01*
X0020633Y0146592D01*
X0018962Y0146592D01*
X0017419Y0145953D01*
X0016237Y0144771D01*
X0015598Y0143228D01*
X0015598Y0141557D01*
X0016237Y0140013D01*
X0017419Y0138832D01*
X0018962Y0138192D01*
X0020633Y0138192D01*
X0020863Y0138287D02*
X0258291Y0138287D01*
X0258290Y0137489D02*
X0014658Y0137489D01*
X0014658Y0138287D02*
X0018732Y0138287D01*
X0017164Y0139086D02*
X0014658Y0139086D01*
X0014658Y0139884D02*
X0016366Y0139884D01*
X0015960Y0140683D02*
X0014658Y0140683D01*
X0014658Y0141481D02*
X0015629Y0141481D01*
X0015598Y0142280D02*
X0014658Y0142280D01*
X0014658Y0143078D02*
X0015598Y0143078D01*
X0015867Y0143877D02*
X0014658Y0143877D01*
X0014658Y0144675D02*
X0016197Y0144675D01*
X0016940Y0145474D02*
X0014658Y0145474D01*
X0014658Y0146273D02*
X0018191Y0146273D01*
X0021405Y0146273D02*
X0208609Y0146273D01*
X0208609Y0145857D02*
X0208801Y0145392D01*
X0208609Y0144927D01*
X0208609Y0143857D01*
X0209018Y0142869D01*
X0209774Y0142113D01*
X0210763Y0141703D01*
X0211833Y0141703D01*
X0212821Y0142113D01*
X0213577Y0142869D01*
X0213987Y0143857D01*
X0213987Y0144927D01*
X0213794Y0145392D01*
X0213987Y0145857D01*
X0213987Y0146927D01*
X0213577Y0147915D01*
X0212821Y0148672D01*
X0211833Y0149081D01*
X0210763Y0149081D01*
X0209774Y0148672D01*
X0209018Y0147915D01*
X0208609Y0146927D01*
X0208609Y0145857D01*
X0208767Y0145474D02*
X0022655Y0145474D01*
X0023398Y0144675D02*
X0208609Y0144675D01*
X0208609Y0143877D02*
X0023729Y0143877D01*
X0023998Y0143078D02*
X0208931Y0143078D01*
X0209607Y0142280D02*
X0023998Y0142280D01*
X0023966Y0141481D02*
X0258291Y0141481D01*
X0258291Y0140683D02*
X0023636Y0140683D01*
X0023230Y0139884D02*
X0258291Y0139884D01*
X0258291Y0139086D02*
X0022431Y0139086D01*
X0016358Y0135892D02*
X0014658Y0135892D01*
X0014658Y0136690D02*
X0258290Y0136690D01*
X0258291Y0142280D02*
X0212988Y0142280D01*
X0213664Y0143078D02*
X0258292Y0143078D01*
X0258292Y0143877D02*
X0213987Y0143877D01*
X0213987Y0144675D02*
X0258292Y0144675D01*
X0258292Y0145474D02*
X0213828Y0145474D01*
X0213987Y0146273D02*
X0258292Y0146273D01*
X0258292Y0147071D02*
X0213927Y0147071D01*
X0213596Y0147870D02*
X0258293Y0147870D01*
X0258293Y0148668D02*
X0212824Y0148668D01*
X0209771Y0148668D02*
X0014658Y0148668D01*
X0014658Y0147870D02*
X0208999Y0147870D01*
X0208668Y0147071D02*
X0014658Y0147071D01*
X0014658Y0149467D02*
X0258293Y0149467D01*
X0258293Y0150265D02*
X0014658Y0150265D01*
X0014658Y0151064D02*
X0258293Y0151064D01*
X0258293Y0151862D02*
X0014658Y0151862D01*
X0014658Y0152661D02*
X0258294Y0152661D01*
X0258294Y0153459D02*
X0014658Y0153459D01*
X0014658Y0154258D02*
X0258294Y0154258D01*
X0258294Y0155056D02*
X0014658Y0155056D01*
X0014658Y0155855D02*
X0258294Y0155855D01*
X0258294Y0156653D02*
X0014658Y0156653D01*
X0014658Y0157452D02*
X0258295Y0157452D01*
X0258295Y0158250D02*
X0014658Y0158250D01*
X0014658Y0159049D02*
X0258295Y0159049D01*
X0258295Y0159847D02*
X0014658Y0159847D01*
X0014658Y0160646D02*
X0258295Y0160646D01*
X0258295Y0161444D02*
X0014658Y0161444D01*
X0014658Y0162243D02*
X0258296Y0162243D01*
X0258296Y0163041D02*
X0014658Y0163041D01*
X0014658Y0163840D02*
X0258296Y0163840D01*
X0258296Y0164638D02*
X0014658Y0164638D01*
X0014658Y0165437D02*
X0258296Y0165437D01*
X0258296Y0166235D02*
X0014658Y0166235D01*
X0014658Y0167034D02*
X0258297Y0167034D01*
X0258297Y0167832D02*
X0155144Y0167832D01*
X0154833Y0167703D02*
X0155821Y0168113D01*
X0156577Y0168869D01*
X0156987Y0169857D01*
X0156987Y0170927D01*
X0156794Y0171392D01*
X0156987Y0171857D01*
X0156987Y0172927D01*
X0156577Y0173915D01*
X0155821Y0174672D01*
X0154833Y0175081D01*
X0153763Y0175081D01*
X0152774Y0174672D01*
X0152018Y0173915D01*
X0151609Y0172927D01*
X0151609Y0171857D01*
X0151801Y0171392D01*
X0151609Y0170927D01*
X0151609Y0169857D01*
X0152018Y0168869D01*
X0152774Y0168113D01*
X0153763Y0167703D01*
X0154833Y0167703D01*
X0153451Y0167832D02*
X0014658Y0167832D01*
X0014658Y0168631D02*
X0152256Y0168631D01*
X0151786Y0169429D02*
X0014658Y0169429D01*
X0014658Y0170228D02*
X0151609Y0170228D01*
X0151650Y0171026D02*
X0014658Y0171026D01*
X0014658Y0171825D02*
X0151622Y0171825D01*
X0151609Y0172623D02*
X0020674Y0172623D01*
X0021767Y0173422D02*
X0151814Y0173422D01*
X0152323Y0174220D02*
X0022444Y0174220D01*
X0022775Y0175019D02*
X0153613Y0175019D01*
X0154983Y0175019D02*
X0258298Y0175019D01*
X0258299Y0175817D02*
X0022998Y0175817D01*
X0022998Y0176616D02*
X0258299Y0176616D01*
X0258299Y0177414D02*
X0022920Y0177414D01*
X0022589Y0178213D02*
X0258299Y0178213D01*
X0258299Y0179011D02*
X0022118Y0179011D01*
X0021319Y0179810D02*
X0258299Y0179810D01*
X0258300Y0180609D02*
X0014658Y0180609D01*
X0014658Y0181407D02*
X0170223Y0181407D01*
X0170621Y0181242D02*
X0171974Y0181242D01*
X0173224Y0181760D01*
X0174180Y0182716D01*
X0174698Y0183966D01*
X0174698Y0185318D01*
X0174180Y0186568D01*
X0173224Y0187524D01*
X0171974Y0188042D01*
X0170621Y0188042D01*
X0169372Y0187524D01*
X0168415Y0186568D01*
X0167898Y0185318D01*
X0167898Y0183966D01*
X0168415Y0182716D01*
X0169372Y0181760D01*
X0170621Y0181242D01*
X0172372Y0181407D02*
X0258300Y0181407D01*
X0258300Y0182206D02*
X0173669Y0182206D01*
X0174299Y0183004D02*
X0258300Y0183004D01*
X0258300Y0183803D02*
X0174630Y0183803D01*
X0174698Y0184601D02*
X0258300Y0184601D01*
X0258301Y0185400D02*
X0174664Y0185400D01*
X0174333Y0186198D02*
X0226899Y0186198D01*
X0226985Y0186113D02*
X0226228Y0186869D01*
X0225819Y0187857D01*
X0225819Y0188927D01*
X0226012Y0189392D01*
X0225819Y0189857D01*
X0225819Y0190927D01*
X0226228Y0191915D01*
X0226985Y0192672D01*
X0227973Y0193081D01*
X0229043Y0193081D01*
X0230031Y0192672D01*
X0230787Y0191915D01*
X0231197Y0190927D01*
X0231197Y0189857D01*
X0231004Y0189392D01*
X0231197Y0188927D01*
X0231197Y0187857D01*
X0230787Y0186869D01*
X0230031Y0186113D01*
X0229043Y0185703D01*
X0227973Y0185703D01*
X0226985Y0186113D01*
X0226175Y0186997D02*
X0173751Y0186997D01*
X0172570Y0187795D02*
X0225845Y0187795D01*
X0225819Y0188594D02*
X0023432Y0188594D01*
X0023358Y0188771D02*
X0022177Y0189953D01*
X0020633Y0190592D01*
X0018962Y0190592D01*
X0017419Y0189953D01*
X0016237Y0188771D01*
X0015598Y0187228D01*
X0015598Y0185557D01*
X0016237Y0184013D01*
X0017419Y0182832D01*
X0018962Y0182192D01*
X0020633Y0182192D01*
X0022177Y0182832D01*
X0023358Y0184013D01*
X0023998Y0185557D01*
X0023998Y0187228D01*
X0023358Y0188771D01*
X0022737Y0189392D02*
X0169239Y0189392D01*
X0169372Y0189260D02*
X0170621Y0188742D01*
X0171974Y0188742D01*
X0173224Y0189260D01*
X0174180Y0190216D01*
X0174698Y0191466D01*
X0174698Y0192818D01*
X0174180Y0194068D01*
X0173224Y0195024D01*
X0171974Y0195542D01*
X0170621Y0195542D01*
X0169372Y0195024D01*
X0168415Y0194068D01*
X0167898Y0192818D01*
X0167898Y0191466D01*
X0168415Y0190216D01*
X0169372Y0189260D01*
X0168441Y0190191D02*
X0021602Y0190191D01*
X0020487Y0192314D02*
X0021104Y0192629D01*
X0021664Y0193036D01*
X0022154Y0193526D01*
X0022561Y0194086D01*
X0022875Y0194703D01*
X0023089Y0195362D01*
X0023189Y0195992D01*
X0019198Y0195992D01*
X0019198Y0192001D01*
X0019828Y0192100D01*
X0020487Y0192314D01*
X0021020Y0192586D02*
X0167898Y0192586D01*
X0167898Y0191788D02*
X0014658Y0191788D01*
X0014658Y0192586D02*
X0016575Y0192586D01*
X0015583Y0193385D02*
X0014658Y0193385D01*
X0014658Y0194183D02*
X0014985Y0194183D01*
X0014658Y0190989D02*
X0168095Y0190989D01*
X0168132Y0193385D02*
X0022013Y0193385D01*
X0022610Y0194183D02*
X0168530Y0194183D01*
X0169329Y0194982D02*
X0022966Y0194982D01*
X0023156Y0195780D02*
X0258303Y0195780D01*
X0258303Y0194982D02*
X0173266Y0194982D01*
X0174065Y0194183D02*
X0258302Y0194183D01*
X0258302Y0193385D02*
X0174463Y0193385D01*
X0174698Y0192586D02*
X0226899Y0192586D01*
X0226175Y0191788D02*
X0174698Y0191788D01*
X0174500Y0190989D02*
X0225845Y0190989D01*
X0225819Y0190191D02*
X0174154Y0190191D01*
X0173356Y0189392D02*
X0226012Y0189392D01*
X0231004Y0189392D02*
X0258301Y0189392D01*
X0258301Y0188594D02*
X0231197Y0188594D01*
X0231171Y0187795D02*
X0258301Y0187795D01*
X0258301Y0186997D02*
X0230840Y0186997D01*
X0230117Y0186198D02*
X0258301Y0186198D01*
X0258302Y0190191D02*
X0231197Y0190191D01*
X0231171Y0190989D02*
X0258302Y0190989D01*
X0258302Y0191788D02*
X0230840Y0191788D01*
X0230117Y0192586D02*
X0258302Y0192586D01*
X0258303Y0196579D02*
X0177752Y0196579D01*
X0178239Y0196780D02*
X0179195Y0197737D01*
X0179713Y0198986D01*
X0179713Y0200339D01*
X0179195Y0201589D01*
X0178239Y0202545D01*
X0176989Y0203063D01*
X0175636Y0203063D01*
X0174387Y0202545D01*
X0173430Y0201589D01*
X0172913Y0200339D01*
X0172913Y0198986D01*
X0173430Y0197737D01*
X0174387Y0196780D01*
X0175636Y0196263D01*
X0176989Y0196263D01*
X0178239Y0196780D01*
X0178836Y0197377D02*
X0258303Y0197377D01*
X0258303Y0198176D02*
X0179377Y0198176D01*
X0179708Y0198974D02*
X0258303Y0198974D01*
X0258304Y0199773D02*
X0179713Y0199773D01*
X0179616Y0200571D02*
X0258304Y0200571D01*
X0258304Y0201370D02*
X0179286Y0201370D01*
X0178615Y0202168D02*
X0258304Y0202168D01*
X0258304Y0202967D02*
X0234469Y0202967D01*
X0234821Y0203113D02*
X0235577Y0203869D01*
X0235987Y0204857D01*
X0235987Y0205927D01*
X0235577Y0206915D01*
X0234821Y0207672D01*
X0233833Y0208081D01*
X0232763Y0208081D01*
X0231774Y0207672D01*
X0231018Y0206915D01*
X0230609Y0205927D01*
X0230609Y0204857D01*
X0231018Y0203869D01*
X0231774Y0203113D01*
X0232763Y0202703D01*
X0233833Y0202703D01*
X0234821Y0203113D01*
X0235474Y0203765D02*
X0258304Y0203765D01*
X0258305Y0204564D02*
X0235865Y0204564D01*
X0235987Y0205362D02*
X0258305Y0205362D01*
X0258305Y0206161D02*
X0235890Y0206161D01*
X0235533Y0206959D02*
X0258305Y0206959D01*
X0258305Y0207758D02*
X0234613Y0207758D01*
X0231982Y0207758D02*
X0221613Y0207758D01*
X0221821Y0207672D02*
X0220833Y0208081D01*
X0219763Y0208081D01*
X0219298Y0207888D01*
X0218833Y0208081D01*
X0217763Y0208081D01*
X0216774Y0207672D01*
X0216018Y0206915D01*
X0215609Y0205927D01*
X0215609Y0204857D01*
X0216018Y0203869D01*
X0216774Y0203113D01*
X0217763Y0202703D01*
X0218833Y0202703D01*
X0219298Y0202896D01*
X0219763Y0202703D01*
X0220833Y0202703D01*
X0221821Y0203113D01*
X0222577Y0203869D01*
X0222987Y0204857D01*
X0222987Y0205927D01*
X0222577Y0206915D01*
X0221821Y0207672D01*
X0222533Y0206959D02*
X0231062Y0206959D01*
X0230706Y0206161D02*
X0222890Y0206161D01*
X0222987Y0205362D02*
X0230609Y0205362D01*
X0230730Y0204564D02*
X0222865Y0204564D01*
X0222474Y0203765D02*
X0231122Y0203765D01*
X0232126Y0202967D02*
X0221469Y0202967D01*
X0217126Y0202967D02*
X0181712Y0202967D01*
X0181860Y0203028D02*
X0182816Y0203984D01*
X0183334Y0205234D01*
X0183334Y0206587D01*
X0182816Y0207836D01*
X0181860Y0208793D01*
X0180610Y0209310D01*
X0179258Y0209310D01*
X0178008Y0208793D01*
X0177051Y0207836D01*
X0176534Y0206587D01*
X0176534Y0205234D01*
X0177051Y0203984D01*
X0178008Y0203028D01*
X0179258Y0202510D01*
X0180610Y0202510D01*
X0181860Y0203028D01*
X0182597Y0203765D02*
X0216122Y0203765D01*
X0215730Y0204564D02*
X0183056Y0204564D01*
X0183334Y0205362D02*
X0215609Y0205362D01*
X0215706Y0206161D02*
X0183334Y0206161D01*
X0183179Y0206959D02*
X0216062Y0206959D01*
X0216982Y0207758D02*
X0182849Y0207758D01*
X0182096Y0208556D02*
X0258305Y0208556D01*
X0258306Y0209355D02*
X0023057Y0209355D01*
X0023154Y0209259D02*
X0022664Y0209748D01*
X0022104Y0210155D01*
X0021487Y0210470D01*
X0020828Y0210684D01*
X0020198Y0210784D01*
X0020198Y0206792D01*
X0024189Y0206792D01*
X0024089Y0207422D01*
X0023875Y0208081D01*
X0023561Y0208698D01*
X0023154Y0209259D01*
X0023633Y0208556D02*
X0177772Y0208556D01*
X0177019Y0207758D02*
X0023980Y0207758D01*
X0024163Y0206959D02*
X0176688Y0206959D01*
X0176534Y0206161D02*
X0020198Y0206161D01*
X0020198Y0205992D02*
X0020198Y0206792D01*
X0019398Y0206792D01*
X0019398Y0210784D01*
X0018767Y0210684D01*
X0018109Y0210470D01*
X0017492Y0210155D01*
X0016931Y0209748D01*
X0016441Y0209259D01*
X0016034Y0208698D01*
X0015720Y0208081D01*
X0015506Y0207422D01*
X0015406Y0206792D01*
X0019398Y0206792D01*
X0019398Y0205992D01*
X0020198Y0205992D01*
X0024189Y0205992D01*
X0024089Y0205362D01*
X0023875Y0204703D01*
X0023561Y0204086D01*
X0023154Y0203526D01*
X0022664Y0203036D01*
X0022104Y0202629D01*
X0021487Y0202314D01*
X0020828Y0202100D01*
X0020198Y0202001D01*
X0020198Y0205992D01*
X0020198Y0205362D02*
X0019398Y0205362D01*
X0019398Y0205992D02*
X0019398Y0202001D01*
X0018767Y0202100D01*
X0018109Y0202314D01*
X0017492Y0202629D01*
X0016931Y0203036D01*
X0016441Y0203526D01*
X0016034Y0204086D01*
X0015720Y0204703D01*
X0015506Y0205362D01*
X0015406Y0205992D01*
X0019398Y0205992D01*
X0019398Y0206161D02*
X0014658Y0206161D01*
X0014658Y0206959D02*
X0015433Y0206959D01*
X0015615Y0207758D02*
X0014658Y0207758D01*
X0014658Y0208556D02*
X0015962Y0208556D01*
X0016538Y0209355D02*
X0014658Y0209355D01*
X0014658Y0210153D02*
X0017489Y0210153D01*
X0019398Y0210153D02*
X0020198Y0210153D01*
X0020198Y0209355D02*
X0019398Y0209355D01*
X0019398Y0208556D02*
X0020198Y0208556D01*
X0020198Y0207758D02*
X0019398Y0207758D01*
X0019398Y0206959D02*
X0020198Y0206959D01*
X0020198Y0204564D02*
X0019398Y0204564D01*
X0019398Y0203765D02*
X0020198Y0203765D01*
X0020198Y0202967D02*
X0019398Y0202967D01*
X0019398Y0202168D02*
X0020198Y0202168D01*
X0021037Y0202168D02*
X0174010Y0202168D01*
X0173340Y0201370D02*
X0014658Y0201370D01*
X0014658Y0202168D02*
X0018559Y0202168D01*
X0018398Y0200571D02*
X0019198Y0200571D01*
X0019198Y0199773D02*
X0018398Y0199773D01*
X0018398Y0198974D02*
X0019198Y0198974D01*
X0019198Y0198176D02*
X0018398Y0198176D01*
X0018398Y0197377D02*
X0019198Y0197377D01*
X0019198Y0196579D02*
X0174873Y0196579D01*
X0173790Y0197377D02*
X0023096Y0197377D01*
X0022827Y0198176D02*
X0173248Y0198176D01*
X0172918Y0198974D02*
X0022360Y0198974D01*
X0021630Y0199773D02*
X0172913Y0199773D01*
X0173009Y0200571D02*
X0020174Y0200571D01*
X0017421Y0200571D02*
X0014658Y0200571D01*
X0014658Y0199773D02*
X0015965Y0199773D01*
X0015235Y0198974D02*
X0014658Y0198974D01*
X0014658Y0198176D02*
X0014768Y0198176D01*
X0018398Y0195780D02*
X0019198Y0195780D01*
X0019198Y0194982D02*
X0018398Y0194982D01*
X0018398Y0194183D02*
X0019198Y0194183D01*
X0019198Y0193385D02*
X0018398Y0193385D01*
X0018398Y0192586D02*
X0019198Y0192586D01*
X0017993Y0190191D02*
X0014658Y0190191D01*
X0014658Y0189392D02*
X0016858Y0189392D01*
X0016163Y0188594D02*
X0014658Y0188594D01*
X0014658Y0187795D02*
X0015833Y0187795D01*
X0015598Y0186997D02*
X0014658Y0186997D01*
X0014658Y0186198D02*
X0015598Y0186198D01*
X0015663Y0185400D02*
X0014658Y0185400D01*
X0014658Y0184601D02*
X0015993Y0184601D01*
X0016448Y0183803D02*
X0014658Y0183803D01*
X0014658Y0183004D02*
X0017246Y0183004D01*
X0018930Y0182206D02*
X0014658Y0182206D01*
X0014658Y0179810D02*
X0016276Y0179810D01*
X0015477Y0179011D02*
X0014658Y0179011D01*
X0014658Y0178213D02*
X0015006Y0178213D01*
X0014675Y0177414D02*
X0014658Y0177414D01*
X0014658Y0175019D02*
X0014820Y0175019D01*
X0014658Y0174220D02*
X0015151Y0174220D01*
X0014658Y0173422D02*
X0015828Y0173422D01*
X0016921Y0172623D02*
X0014658Y0172623D01*
X0020665Y0182206D02*
X0168926Y0182206D01*
X0168296Y0183004D02*
X0022349Y0183004D01*
X0023148Y0183803D02*
X0167965Y0183803D01*
X0167898Y0184601D02*
X0023602Y0184601D01*
X0023933Y0185400D02*
X0167931Y0185400D01*
X0168262Y0186198D02*
X0023998Y0186198D01*
X0023998Y0186997D02*
X0168844Y0186997D01*
X0170025Y0187795D02*
X0023763Y0187795D01*
X0022569Y0202967D02*
X0175405Y0202967D01*
X0177220Y0202967D02*
X0178155Y0202967D01*
X0177270Y0203765D02*
X0023328Y0203765D01*
X0023804Y0204564D02*
X0176811Y0204564D01*
X0176534Y0205362D02*
X0024089Y0205362D01*
X0022106Y0210153D02*
X0182782Y0210153D01*
X0183171Y0209992D02*
X0184524Y0209992D01*
X0185773Y0210510D01*
X0186730Y0211466D01*
X0187247Y0212716D01*
X0187247Y0214068D01*
X0186730Y0215318D01*
X0185773Y0216274D01*
X0184524Y0216792D01*
X0183171Y0216792D01*
X0181921Y0216274D01*
X0180965Y0215318D01*
X0180447Y0214068D01*
X0180447Y0212716D01*
X0180965Y0211466D01*
X0181921Y0210510D01*
X0183171Y0209992D01*
X0184913Y0210153D02*
X0258306Y0210153D01*
X0258306Y0210952D02*
X0186215Y0210952D01*
X0186847Y0211750D02*
X0258306Y0211750D01*
X0258306Y0212549D02*
X0187178Y0212549D01*
X0187247Y0213347D02*
X0258306Y0213347D01*
X0258307Y0214146D02*
X0187215Y0214146D01*
X0186884Y0214944D02*
X0258307Y0214944D01*
X0258307Y0215743D02*
X0233929Y0215743D01*
X0233833Y0215703D02*
X0234821Y0216113D01*
X0235577Y0216869D01*
X0235987Y0217857D01*
X0235987Y0218927D01*
X0235577Y0219915D01*
X0234821Y0220672D01*
X0233833Y0221081D01*
X0232763Y0221081D01*
X0231774Y0220672D01*
X0231018Y0219915D01*
X0230609Y0218927D01*
X0230609Y0217857D01*
X0231018Y0216869D01*
X0231774Y0216113D01*
X0232763Y0215703D01*
X0233833Y0215703D01*
X0232667Y0215743D02*
X0186305Y0215743D01*
X0185129Y0216542D02*
X0231345Y0216542D01*
X0230823Y0217340D02*
X0022951Y0217340D01*
X0022998Y0216542D02*
X0182566Y0216542D01*
X0181390Y0215743D02*
X0022998Y0215743D01*
X0022744Y0214944D02*
X0180810Y0214944D01*
X0180479Y0214146D02*
X0022413Y0214146D01*
X0021693Y0213347D02*
X0180447Y0213347D01*
X0180516Y0212549D02*
X0020495Y0212549D01*
X0017101Y0212549D02*
X0014658Y0212549D01*
X0014658Y0213347D02*
X0015903Y0213347D01*
X0015182Y0214146D02*
X0014658Y0214146D01*
X0014658Y0214944D02*
X0014851Y0214944D01*
X0014975Y0218139D02*
X0014658Y0218139D01*
X0014658Y0218937D02*
X0015403Y0218937D01*
X0014658Y0219736D02*
X0016201Y0219736D01*
X0014658Y0220534D02*
X0017822Y0220534D01*
X0019773Y0220534D02*
X0231637Y0220534D01*
X0230944Y0219736D02*
X0021394Y0219736D01*
X0022192Y0218937D02*
X0230613Y0218937D01*
X0230609Y0218139D02*
X0022620Y0218139D01*
X0020633Y0222192D02*
X0022177Y0222832D01*
X0023358Y0224013D01*
X0023998Y0225557D01*
X0023998Y0227228D01*
X0023358Y0228771D01*
X0022177Y0229953D01*
X0020633Y0230592D01*
X0018962Y0230592D01*
X0017419Y0229953D01*
X0016237Y0228771D01*
X0015598Y0227228D01*
X0015598Y0225557D01*
X0016237Y0224013D01*
X0017419Y0222832D01*
X0018962Y0222192D01*
X0020633Y0222192D01*
X0022275Y0222930D02*
X0258308Y0222930D01*
X0258309Y0223728D02*
X0023073Y0223728D01*
X0023571Y0224527D02*
X0258309Y0224527D01*
X0258309Y0225325D02*
X0215033Y0225325D01*
X0214821Y0225113D02*
X0215577Y0225869D01*
X0215987Y0226857D01*
X0215987Y0227927D01*
X0215577Y0228915D01*
X0214821Y0229672D01*
X0213833Y0230081D01*
X0212763Y0230081D01*
X0212298Y0229888D01*
X0211833Y0230081D01*
X0210763Y0230081D01*
X0209774Y0229672D01*
X0209018Y0228915D01*
X0208609Y0227927D01*
X0208609Y0226857D01*
X0209018Y0225869D01*
X0209774Y0225113D01*
X0210763Y0224703D01*
X0211833Y0224703D01*
X0212298Y0224896D01*
X0212763Y0224703D01*
X0213833Y0224703D01*
X0214821Y0225113D01*
X0215683Y0226124D02*
X0258309Y0226124D01*
X0258309Y0226922D02*
X0215987Y0226922D01*
X0215987Y0227721D02*
X0258309Y0227721D01*
X0258310Y0228519D02*
X0215741Y0228519D01*
X0215175Y0229318D02*
X0258310Y0229318D01*
X0258310Y0230116D02*
X0021782Y0230116D01*
X0022812Y0229318D02*
X0209420Y0229318D01*
X0208854Y0228519D02*
X0023463Y0228519D01*
X0023793Y0227721D02*
X0208609Y0227721D01*
X0208609Y0226922D02*
X0023998Y0226922D01*
X0023998Y0226124D02*
X0208913Y0226124D01*
X0209562Y0225325D02*
X0023902Y0225325D01*
X0017320Y0222930D02*
X0014658Y0222930D01*
X0014658Y0223728D02*
X0016522Y0223728D01*
X0016024Y0224527D02*
X0014658Y0224527D01*
X0014658Y0225325D02*
X0015694Y0225325D01*
X0015598Y0226124D02*
X0014658Y0226124D01*
X0014658Y0226922D02*
X0015598Y0226922D01*
X0015802Y0227721D02*
X0014658Y0227721D01*
X0014658Y0228519D02*
X0016133Y0228519D01*
X0016784Y0229318D02*
X0014658Y0229318D01*
X0014658Y0230116D02*
X0017813Y0230116D01*
X0017191Y0232512D02*
X0014658Y0232512D01*
X0014658Y0233310D02*
X0015940Y0233310D01*
X0015197Y0234109D02*
X0014658Y0234109D01*
X0014658Y0234907D02*
X0014867Y0234907D01*
X0014960Y0238101D02*
X0014658Y0238101D01*
X0014658Y0238900D02*
X0015366Y0238900D01*
X0014658Y0239698D02*
X0016164Y0239698D01*
X0014658Y0240497D02*
X0017732Y0240497D01*
X0018962Y0242192D02*
X0020633Y0242192D01*
X0022177Y0242832D01*
X0023358Y0244013D01*
X0023998Y0245557D01*
X0023998Y0247228D01*
X0023358Y0248771D01*
X0022177Y0249953D01*
X0020633Y0250592D01*
X0018962Y0250592D01*
X0017419Y0249953D01*
X0016237Y0248771D01*
X0015598Y0247228D01*
X0015598Y0245557D01*
X0016237Y0244013D01*
X0017419Y0242832D01*
X0018962Y0242192D01*
X0017358Y0242892D02*
X0014658Y0242892D01*
X0014658Y0242094D02*
X0258312Y0242094D01*
X0258313Y0242892D02*
X0022238Y0242892D01*
X0023036Y0243691D02*
X0258313Y0243691D01*
X0258313Y0244489D02*
X0023556Y0244489D01*
X0023886Y0245288D02*
X0258313Y0245288D01*
X0258313Y0246086D02*
X0023998Y0246086D01*
X0023998Y0246885D02*
X0258313Y0246885D01*
X0258314Y0247683D02*
X0023809Y0247683D01*
X0023478Y0248482D02*
X0258314Y0248482D01*
X0258314Y0249280D02*
X0022849Y0249280D01*
X0021872Y0250079D02*
X0258314Y0250079D01*
X0258314Y0250877D02*
X0014658Y0250877D01*
X0014658Y0250079D02*
X0017723Y0250079D01*
X0016746Y0249280D02*
X0014658Y0249280D01*
X0014658Y0248482D02*
X0016117Y0248482D01*
X0015786Y0247683D02*
X0014658Y0247683D01*
X0014658Y0246885D02*
X0015598Y0246885D01*
X0015598Y0246086D02*
X0014658Y0246086D01*
X0014658Y0245288D02*
X0015709Y0245288D01*
X0016040Y0244489D02*
X0014658Y0244489D01*
X0014658Y0243691D02*
X0016559Y0243691D01*
X0014658Y0241295D02*
X0258312Y0241295D01*
X0258312Y0240497D02*
X0019863Y0240497D01*
X0021431Y0239698D02*
X0258312Y0239698D01*
X0258312Y0238900D02*
X0022230Y0238900D01*
X0022636Y0238101D02*
X0258312Y0238101D01*
X0258311Y0237303D02*
X0022966Y0237303D01*
X0022998Y0236504D02*
X0258311Y0236504D01*
X0258311Y0235706D02*
X0022998Y0235706D01*
X0022729Y0234907D02*
X0258311Y0234907D01*
X0258311Y0234109D02*
X0022398Y0234109D01*
X0021655Y0233310D02*
X0258311Y0233310D01*
X0258310Y0232512D02*
X0020405Y0232512D01*
X0014658Y0231713D02*
X0258310Y0231713D01*
X0258310Y0230915D02*
X0014658Y0230915D01*
X0014658Y0222131D02*
X0258308Y0222131D01*
X0258308Y0221333D02*
X0014658Y0221333D01*
X0014658Y0211750D02*
X0180847Y0211750D01*
X0181479Y0210952D02*
X0014658Y0210952D01*
X0014658Y0205362D02*
X0015506Y0205362D01*
X0015791Y0204564D02*
X0014658Y0204564D01*
X0014658Y0203765D02*
X0016267Y0203765D01*
X0017026Y0202967D02*
X0014658Y0202967D01*
X0014658Y0251676D02*
X0258314Y0251676D01*
X0258315Y0252475D02*
X0014658Y0252475D01*
X0014658Y0253273D02*
X0103614Y0253273D01*
X0103774Y0253113D02*
X0104763Y0252703D01*
X0105833Y0252703D01*
X0106298Y0252896D01*
X0106763Y0252703D01*
X0107833Y0252703D01*
X0108821Y0253113D01*
X0109577Y0253869D01*
X0109987Y0254857D01*
X0109987Y0255927D01*
X0109577Y0256915D01*
X0108821Y0257672D01*
X0107833Y0258081D01*
X0106763Y0258081D01*
X0106298Y0257888D01*
X0105833Y0258081D01*
X0104763Y0258081D01*
X0103774Y0257672D01*
X0103018Y0256915D01*
X0102609Y0255927D01*
X0102609Y0254857D01*
X0103018Y0253869D01*
X0103774Y0253113D01*
X0102934Y0254072D02*
X0014658Y0254072D01*
X0014658Y0254870D02*
X0102609Y0254870D01*
X0102609Y0255669D02*
X0014658Y0255669D01*
X0014658Y0256467D02*
X0102832Y0256467D01*
X0103368Y0257266D02*
X0014658Y0257266D01*
X0014658Y0258064D02*
X0104722Y0258064D01*
X0105874Y0258064D02*
X0106722Y0258064D01*
X0107874Y0258064D02*
X0258316Y0258064D01*
X0258316Y0257266D02*
X0109227Y0257266D01*
X0109763Y0256467D02*
X0258315Y0256467D01*
X0258315Y0255669D02*
X0109987Y0255669D01*
X0109987Y0254870D02*
X0258315Y0254870D01*
X0258315Y0254072D02*
X0109661Y0254072D01*
X0108981Y0253273D02*
X0258315Y0253273D01*
X0258316Y0258863D02*
X0014658Y0258863D01*
X0014658Y0259661D02*
X0258316Y0259661D01*
X0258316Y0260460D02*
X0014658Y0260460D01*
X0014658Y0261258D02*
X0258316Y0261258D01*
X0258317Y0262057D02*
X0014658Y0262057D01*
X0014658Y0262855D02*
X0258317Y0262855D01*
X0258317Y0263654D02*
X0014658Y0263654D01*
X0014658Y0264452D02*
X0258317Y0264452D01*
X0258317Y0265251D02*
X0014658Y0265251D01*
X0014658Y0266049D02*
X0258318Y0266049D01*
X0258318Y0266848D02*
X0014658Y0266848D01*
X0014658Y0267646D02*
X0258318Y0267646D01*
X0258318Y0268445D02*
X0014658Y0268445D01*
X0014658Y0269243D02*
X0258318Y0269243D01*
X0258318Y0270042D02*
X0014658Y0270042D01*
X0014658Y0270840D02*
X0258319Y0270840D01*
X0258319Y0271639D02*
X0014658Y0271639D01*
X0014658Y0272437D02*
X0037450Y0272437D01*
X0037774Y0272113D02*
X0038763Y0271703D01*
X0039833Y0271703D01*
X0040821Y0272113D01*
X0041577Y0272869D01*
X0041987Y0273857D01*
X0041987Y0274278D01*
X0042577Y0274869D01*
X0042987Y0275857D01*
X0042987Y0276927D01*
X0042577Y0277915D01*
X0041821Y0278672D01*
X0040833Y0279081D01*
X0039763Y0279081D01*
X0038774Y0278672D01*
X0038018Y0277915D01*
X0037609Y0276927D01*
X0037609Y0276506D01*
X0037018Y0275915D01*
X0036609Y0274927D01*
X0036609Y0273857D01*
X0037018Y0272869D01*
X0037774Y0272113D01*
X0036866Y0273236D02*
X0014658Y0273236D01*
X0014658Y0274034D02*
X0036609Y0274034D01*
X0036609Y0274833D02*
X0014658Y0274833D01*
X0014658Y0275631D02*
X0036900Y0275631D01*
X0037533Y0276430D02*
X0031138Y0276430D01*
X0030821Y0276113D02*
X0031577Y0276869D01*
X0031987Y0277857D01*
X0031987Y0278927D01*
X0031794Y0279392D01*
X0031987Y0279857D01*
X0031987Y0280927D01*
X0031577Y0281915D01*
X0030821Y0282672D01*
X0029833Y0283081D01*
X0028763Y0283081D01*
X0027774Y0282672D01*
X0027018Y0281915D01*
X0026609Y0280927D01*
X0026609Y0279857D01*
X0026801Y0279392D01*
X0026609Y0278927D01*
X0026609Y0277857D01*
X0027018Y0276869D01*
X0027774Y0276113D01*
X0028763Y0275703D01*
X0029833Y0275703D01*
X0030821Y0276113D01*
X0031726Y0277228D02*
X0037734Y0277228D01*
X0038130Y0278027D02*
X0031987Y0278027D01*
X0031987Y0278825D02*
X0039145Y0278825D01*
X0041450Y0278825D02*
X0258320Y0278825D01*
X0258320Y0278027D02*
X0042466Y0278027D01*
X0042862Y0277228D02*
X0258320Y0277228D01*
X0258320Y0276430D02*
X0042987Y0276430D01*
X0042893Y0275631D02*
X0258320Y0275631D01*
X0258319Y0274833D02*
X0042541Y0274833D01*
X0041987Y0274034D02*
X0258319Y0274034D01*
X0258319Y0273236D02*
X0041729Y0273236D01*
X0041146Y0272437D02*
X0258319Y0272437D01*
X0258320Y0279624D02*
X0031890Y0279624D01*
X0031987Y0280422D02*
X0258321Y0280422D01*
X0258321Y0281221D02*
X0031865Y0281221D01*
X0031473Y0282019D02*
X0238999Y0282019D01*
X0238774Y0282113D02*
X0239763Y0281703D01*
X0240833Y0281703D01*
X0241821Y0282113D01*
X0242577Y0282869D01*
X0242987Y0283857D01*
X0242987Y0284927D01*
X0242577Y0285915D01*
X0241821Y0286672D01*
X0240833Y0287081D01*
X0239763Y0287081D01*
X0238774Y0286672D01*
X0238018Y0285915D01*
X0237609Y0284927D01*
X0237609Y0283857D01*
X0238018Y0282869D01*
X0238774Y0282113D01*
X0238069Y0282818D02*
X0030468Y0282818D01*
X0028127Y0282818D02*
X0014658Y0282818D01*
X0014658Y0283616D02*
X0237708Y0283616D01*
X0237609Y0284415D02*
X0014658Y0284415D01*
X0014658Y0285213D02*
X0237727Y0285213D01*
X0238115Y0286012D02*
X0014658Y0286012D01*
X0014658Y0286811D02*
X0239110Y0286811D01*
X0241486Y0286811D02*
X0258328Y0286811D01*
X0258330Y0287609D02*
X0014658Y0287609D01*
X0014658Y0288408D02*
X0258332Y0288408D01*
X0258334Y0289206D02*
X0014658Y0289206D01*
X0014658Y0290005D02*
X0258336Y0290005D01*
X0258338Y0290803D02*
X0014658Y0290803D01*
X0014658Y0291602D02*
X0258339Y0291602D01*
X0258341Y0292400D02*
X0242108Y0292400D01*
X0241821Y0292113D02*
X0242577Y0292869D01*
X0242987Y0293857D01*
X0242987Y0294927D01*
X0242577Y0295915D01*
X0241821Y0296672D01*
X0240833Y0297081D01*
X0239763Y0297081D01*
X0238774Y0296672D01*
X0238018Y0295915D01*
X0237609Y0294927D01*
X0237609Y0293857D01*
X0238018Y0292869D01*
X0238774Y0292113D01*
X0239763Y0291703D01*
X0240833Y0291703D01*
X0241821Y0292113D01*
X0242714Y0293199D02*
X0258343Y0293199D01*
X0258345Y0293997D02*
X0242987Y0293997D01*
X0242987Y0294796D02*
X0258347Y0294796D01*
X0258349Y0295594D02*
X0242710Y0295594D01*
X0242100Y0296393D02*
X0258351Y0296393D01*
X0258353Y0297191D02*
X0200711Y0297191D01*
X0200577Y0296869D02*
X0200987Y0297857D01*
X0200987Y0298927D01*
X0200577Y0299915D01*
X0199821Y0300672D01*
X0198833Y0301081D01*
X0197763Y0301081D01*
X0196774Y0300672D01*
X0196018Y0299915D01*
X0195609Y0298927D01*
X0195609Y0297857D01*
X0196018Y0296869D01*
X0196774Y0296113D01*
X0197763Y0295703D01*
X0198833Y0295703D01*
X0199821Y0296113D01*
X0200577Y0296869D01*
X0200101Y0296393D02*
X0238495Y0296393D01*
X0237885Y0295594D02*
X0014658Y0295594D01*
X0014658Y0294796D02*
X0237609Y0294796D01*
X0237609Y0293997D02*
X0014658Y0293997D01*
X0014658Y0293199D02*
X0237881Y0293199D01*
X0238487Y0292400D02*
X0014658Y0292400D01*
X0014658Y0296393D02*
X0196494Y0296393D01*
X0195885Y0297191D02*
X0014658Y0297191D01*
X0014658Y0297990D02*
X0195609Y0297990D01*
X0195609Y0298788D02*
X0014658Y0298788D01*
X0014658Y0299587D02*
X0195882Y0299587D01*
X0196488Y0300385D02*
X0014658Y0300385D01*
X0014658Y0301184D02*
X0258362Y0301184D01*
X0258364Y0301982D02*
X0014658Y0301982D01*
X0014658Y0302781D02*
X0258366Y0302781D01*
X0258368Y0303579D02*
X0254736Y0303579D01*
X0254732Y0303575D02*
X0255878Y0304722D01*
X0256499Y0306219D01*
X0256499Y0307840D01*
X0255878Y0309338D01*
X0254732Y0310485D01*
X0253234Y0311105D01*
X0251613Y0311105D01*
X0250115Y0310485D01*
X0248969Y0309338D01*
X0248349Y0307840D01*
X0248349Y0306219D01*
X0248969Y0304722D01*
X0250115Y0303575D01*
X0251613Y0302955D01*
X0253234Y0302955D01*
X0254732Y0303575D01*
X0255534Y0304378D02*
X0258370Y0304378D01*
X0258371Y0305176D02*
X0256067Y0305176D01*
X0256397Y0305975D02*
X0258373Y0305975D01*
X0258349Y0306773D02*
X0256499Y0306773D01*
X0256499Y0307572D02*
X0258349Y0307572D01*
X0258379Y0308370D02*
X0256279Y0308370D01*
X0255948Y0309169D02*
X0258381Y0309169D01*
X0258383Y0309967D02*
X0255249Y0309967D01*
X0254053Y0310766D02*
X0258385Y0310766D01*
X0258386Y0311564D02*
X0064539Y0311564D01*
X0064732Y0311485D02*
X0063234Y0312105D01*
X0061613Y0312105D01*
X0060115Y0311485D01*
X0058969Y0310338D01*
X0058349Y0308840D01*
X0058349Y0307219D01*
X0058969Y0305722D01*
X0060115Y0304575D01*
X0061613Y0303955D01*
X0063234Y0303955D01*
X0064732Y0304575D01*
X0065878Y0305722D01*
X0066499Y0307219D01*
X0066499Y0308840D01*
X0065878Y0310338D01*
X0064732Y0311485D01*
X0065451Y0310766D02*
X0070794Y0310766D01*
X0070115Y0310485D02*
X0068969Y0309338D01*
X0068349Y0307840D01*
X0068349Y0306219D01*
X0068969Y0304722D01*
X0070115Y0303575D01*
X0071613Y0302955D01*
X0073234Y0302955D01*
X0074732Y0303575D01*
X0075878Y0304722D01*
X0076499Y0306219D01*
X0076499Y0307840D01*
X0075878Y0309338D01*
X0074732Y0310485D01*
X0073234Y0311105D01*
X0071613Y0311105D01*
X0070115Y0310485D01*
X0069598Y0309967D02*
X0066032Y0309967D01*
X0066363Y0309169D02*
X0068899Y0309169D01*
X0068568Y0308370D02*
X0066499Y0308370D01*
X0066499Y0307572D02*
X0068349Y0307572D01*
X0068349Y0306773D02*
X0066314Y0306773D01*
X0065983Y0305975D02*
X0068450Y0305975D01*
X0068781Y0305176D02*
X0065333Y0305176D01*
X0064255Y0304378D02*
X0069313Y0304378D01*
X0070111Y0303579D02*
X0014658Y0303579D01*
X0014658Y0304378D02*
X0060592Y0304378D01*
X0059514Y0305176D02*
X0014658Y0305176D01*
X0014658Y0305975D02*
X0058864Y0305975D01*
X0058533Y0306773D02*
X0014658Y0306773D01*
X0014658Y0307572D02*
X0058349Y0307572D01*
X0058349Y0308370D02*
X0014658Y0308370D01*
X0014658Y0309169D02*
X0058485Y0309169D01*
X0058815Y0309967D02*
X0014658Y0309967D01*
X0014658Y0310766D02*
X0059397Y0310766D01*
X0060308Y0311564D02*
X0014658Y0311564D01*
X0014658Y0312363D02*
X0258388Y0312363D01*
X0258390Y0313161D02*
X0253733Y0313161D01*
X0253234Y0312955D02*
X0254732Y0313575D01*
X0255878Y0314722D01*
X0256499Y0316219D01*
X0256499Y0317840D01*
X0255878Y0319338D01*
X0254732Y0320485D01*
X0253234Y0321105D01*
X0251613Y0321105D01*
X0250115Y0320485D01*
X0248969Y0319338D01*
X0248349Y0317840D01*
X0248349Y0316219D01*
X0248969Y0314722D01*
X0250115Y0313575D01*
X0251613Y0312955D01*
X0253234Y0312955D01*
X0251115Y0313161D02*
X0243733Y0313161D01*
X0243234Y0312955D02*
X0244732Y0313575D01*
X0245878Y0314722D01*
X0246499Y0316219D01*
X0246499Y0317840D01*
X0245878Y0319338D01*
X0244732Y0320485D01*
X0243234Y0321105D01*
X0241613Y0321105D01*
X0240115Y0320485D01*
X0238969Y0319338D01*
X0238349Y0317840D01*
X0238349Y0316219D01*
X0238969Y0314722D01*
X0240115Y0313575D01*
X0241613Y0312955D01*
X0243234Y0312955D01*
X0243234Y0311105D02*
X0241613Y0311105D01*
X0240115Y0310485D01*
X0238969Y0309338D01*
X0238349Y0307840D01*
X0238349Y0306219D01*
X0238969Y0304722D01*
X0240115Y0303575D01*
X0241613Y0302955D01*
X0243234Y0302955D01*
X0244732Y0303575D01*
X0245878Y0304722D01*
X0246499Y0306219D01*
X0246499Y0307840D01*
X0245878Y0309338D01*
X0244732Y0310485D01*
X0243234Y0311105D01*
X0244053Y0310766D02*
X0250794Y0310766D01*
X0249598Y0309967D02*
X0245249Y0309967D01*
X0245948Y0309169D02*
X0248899Y0309169D01*
X0248568Y0308370D02*
X0246279Y0308370D01*
X0246499Y0307572D02*
X0248349Y0307572D01*
X0248349Y0306773D02*
X0246499Y0306773D01*
X0246397Y0305975D02*
X0248450Y0305975D01*
X0248781Y0305176D02*
X0246067Y0305176D01*
X0245534Y0304378D02*
X0249313Y0304378D01*
X0250111Y0303579D02*
X0244736Y0303579D01*
X0240111Y0303579D02*
X0234736Y0303579D01*
X0234732Y0303575D02*
X0235878Y0304722D01*
X0236499Y0306219D01*
X0236499Y0307840D01*
X0235878Y0309338D01*
X0234732Y0310485D01*
X0233234Y0311105D01*
X0231613Y0311105D01*
X0230115Y0310485D01*
X0228969Y0309338D01*
X0228349Y0307840D01*
X0228349Y0306219D01*
X0228969Y0304722D01*
X0230115Y0303575D01*
X0231613Y0302955D01*
X0233234Y0302955D01*
X0234732Y0303575D01*
X0235534Y0304378D02*
X0239313Y0304378D01*
X0238781Y0305176D02*
X0236067Y0305176D01*
X0236397Y0305975D02*
X0238450Y0305975D01*
X0238349Y0306773D02*
X0236499Y0306773D01*
X0236499Y0307572D02*
X0238349Y0307572D01*
X0238568Y0308370D02*
X0236279Y0308370D01*
X0235948Y0309169D02*
X0238899Y0309169D01*
X0239598Y0309967D02*
X0235249Y0309967D01*
X0234053Y0310766D02*
X0240794Y0310766D01*
X0241115Y0313161D02*
X0233733Y0313161D01*
X0233234Y0312955D02*
X0234732Y0313575D01*
X0235878Y0314722D01*
X0236499Y0316219D01*
X0236499Y0317840D01*
X0235878Y0319338D01*
X0234732Y0320485D01*
X0233234Y0321105D01*
X0231613Y0321105D01*
X0230115Y0320485D01*
X0228969Y0319338D01*
X0228349Y0317840D01*
X0228349Y0316219D01*
X0228969Y0314722D01*
X0230115Y0313575D01*
X0231613Y0312955D01*
X0233234Y0312955D01*
X0231115Y0313161D02*
X0223733Y0313161D01*
X0223234Y0312955D02*
X0224732Y0313575D01*
X0225878Y0314722D01*
X0226499Y0316219D01*
X0226499Y0317840D01*
X0225878Y0319338D01*
X0224732Y0320485D01*
X0223234Y0321105D01*
X0221613Y0321105D01*
X0220115Y0320485D01*
X0218969Y0319338D01*
X0218349Y0317840D01*
X0218349Y0316219D01*
X0218969Y0314722D01*
X0220115Y0313575D01*
X0221613Y0312955D01*
X0223234Y0312955D01*
X0223234Y0311105D02*
X0221613Y0311105D01*
X0220115Y0310485D01*
X0218969Y0309338D01*
X0218349Y0307840D01*
X0218349Y0306219D01*
X0218969Y0304722D01*
X0220115Y0303575D01*
X0221613Y0302955D01*
X0223234Y0302955D01*
X0224732Y0303575D01*
X0225878Y0304722D01*
X0226499Y0306219D01*
X0226499Y0307840D01*
X0225878Y0309338D01*
X0224732Y0310485D01*
X0223234Y0311105D01*
X0224053Y0310766D02*
X0230794Y0310766D01*
X0229598Y0309967D02*
X0225249Y0309967D01*
X0225948Y0309169D02*
X0228899Y0309169D01*
X0228568Y0308370D02*
X0226279Y0308370D01*
X0226499Y0307572D02*
X0228349Y0307572D01*
X0228349Y0306773D02*
X0226499Y0306773D01*
X0226397Y0305975D02*
X0228450Y0305975D01*
X0228781Y0305176D02*
X0226067Y0305176D01*
X0225534Y0304378D02*
X0229313Y0304378D01*
X0230111Y0303579D02*
X0224736Y0303579D01*
X0220111Y0303579D02*
X0214736Y0303579D01*
X0214732Y0303575D02*
X0215878Y0304722D01*
X0216499Y0306219D01*
X0216499Y0307840D01*
X0215878Y0309338D01*
X0214732Y0310485D01*
X0213234Y0311105D01*
X0211613Y0311105D01*
X0210115Y0310485D01*
X0208969Y0309338D01*
X0208349Y0307840D01*
X0208349Y0306219D01*
X0208969Y0304722D01*
X0210115Y0303575D01*
X0211613Y0302955D01*
X0213234Y0302955D01*
X0214732Y0303575D01*
X0215534Y0304378D02*
X0219313Y0304378D01*
X0218781Y0305176D02*
X0216067Y0305176D01*
X0216397Y0305975D02*
X0218450Y0305975D01*
X0218349Y0306773D02*
X0216499Y0306773D01*
X0216499Y0307572D02*
X0218349Y0307572D01*
X0218568Y0308370D02*
X0216279Y0308370D01*
X0215948Y0309169D02*
X0218899Y0309169D01*
X0219598Y0309967D02*
X0215249Y0309967D01*
X0214053Y0310766D02*
X0220794Y0310766D01*
X0221115Y0313161D02*
X0213733Y0313161D01*
X0213234Y0312955D02*
X0214732Y0313575D01*
X0215878Y0314722D01*
X0216499Y0316219D01*
X0216499Y0317840D01*
X0215878Y0319338D01*
X0214732Y0320485D01*
X0213234Y0321105D01*
X0211613Y0321105D01*
X0210115Y0320485D01*
X0208969Y0319338D01*
X0208349Y0317840D01*
X0208349Y0316219D01*
X0208969Y0314722D01*
X0210115Y0313575D01*
X0211613Y0312955D01*
X0213234Y0312955D01*
X0211115Y0313161D02*
X0203733Y0313161D01*
X0203234Y0312955D02*
X0204732Y0313575D01*
X0205878Y0314722D01*
X0206499Y0316219D01*
X0206499Y0317840D01*
X0205878Y0319338D01*
X0204732Y0320485D01*
X0203234Y0321105D01*
X0201613Y0321105D01*
X0200115Y0320485D01*
X0198969Y0319338D01*
X0198349Y0317840D01*
X0198349Y0316219D01*
X0198969Y0314722D01*
X0200115Y0313575D01*
X0201613Y0312955D01*
X0203234Y0312955D01*
X0203234Y0311105D02*
X0201613Y0311105D01*
X0200115Y0310485D01*
X0198969Y0309338D01*
X0198349Y0307840D01*
X0198349Y0306219D01*
X0198969Y0304722D01*
X0200115Y0303575D01*
X0201613Y0302955D01*
X0203234Y0302955D01*
X0204732Y0303575D01*
X0205878Y0304722D01*
X0206499Y0306219D01*
X0206499Y0307840D01*
X0205878Y0309338D01*
X0204732Y0310485D01*
X0203234Y0311105D01*
X0204053Y0310766D02*
X0210794Y0310766D01*
X0209598Y0309967D02*
X0205249Y0309967D01*
X0205948Y0309169D02*
X0208899Y0309169D01*
X0208568Y0308370D02*
X0206279Y0308370D01*
X0206499Y0307572D02*
X0208349Y0307572D01*
X0208349Y0306773D02*
X0206499Y0306773D01*
X0206397Y0305975D02*
X0208450Y0305975D01*
X0208781Y0305176D02*
X0206067Y0305176D01*
X0205534Y0304378D02*
X0209313Y0304378D01*
X0210111Y0303579D02*
X0204736Y0303579D01*
X0200111Y0303579D02*
X0194736Y0303579D01*
X0194732Y0303575D02*
X0195878Y0304722D01*
X0196499Y0306219D01*
X0196499Y0307840D01*
X0195878Y0309338D01*
X0194732Y0310485D01*
X0193234Y0311105D01*
X0191613Y0311105D01*
X0190115Y0310485D01*
X0188969Y0309338D01*
X0188349Y0307840D01*
X0188349Y0306219D01*
X0188969Y0304722D01*
X0190115Y0303575D01*
X0191613Y0302955D01*
X0193234Y0302955D01*
X0194732Y0303575D01*
X0195534Y0304378D02*
X0199313Y0304378D01*
X0198781Y0305176D02*
X0196067Y0305176D01*
X0196397Y0305975D02*
X0198450Y0305975D01*
X0198349Y0306773D02*
X0196499Y0306773D01*
X0196499Y0307572D02*
X0198349Y0307572D01*
X0198568Y0308370D02*
X0196279Y0308370D01*
X0195948Y0309169D02*
X0198899Y0309169D01*
X0199598Y0309967D02*
X0195249Y0309967D01*
X0194053Y0310766D02*
X0200794Y0310766D01*
X0201115Y0313161D02*
X0193733Y0313161D01*
X0193234Y0312955D02*
X0194732Y0313575D01*
X0195878Y0314722D01*
X0196499Y0316219D01*
X0196499Y0317840D01*
X0195878Y0319338D01*
X0194732Y0320485D01*
X0193234Y0321105D01*
X0191613Y0321105D01*
X0190115Y0320485D01*
X0188969Y0319338D01*
X0188349Y0317840D01*
X0188349Y0316219D01*
X0188969Y0314722D01*
X0190115Y0313575D01*
X0191613Y0312955D01*
X0193234Y0312955D01*
X0191115Y0313161D02*
X0183733Y0313161D01*
X0183234Y0312955D02*
X0184732Y0313575D01*
X0185878Y0314722D01*
X0186499Y0316219D01*
X0186499Y0317840D01*
X0185878Y0319338D01*
X0184732Y0320485D01*
X0183234Y0321105D01*
X0181613Y0321105D01*
X0180115Y0320485D01*
X0178969Y0319338D01*
X0178349Y0317840D01*
X0178349Y0316219D01*
X0178969Y0314722D01*
X0180115Y0313575D01*
X0181613Y0312955D01*
X0183234Y0312955D01*
X0183234Y0311105D02*
X0181613Y0311105D01*
X0180115Y0310485D01*
X0178969Y0309338D01*
X0178349Y0307840D01*
X0178349Y0306219D01*
X0178969Y0304722D01*
X0180115Y0303575D01*
X0181613Y0302955D01*
X0183234Y0302955D01*
X0184732Y0303575D01*
X0185878Y0304722D01*
X0186499Y0306219D01*
X0186499Y0307840D01*
X0185878Y0309338D01*
X0184732Y0310485D01*
X0183234Y0311105D01*
X0184053Y0310766D02*
X0190794Y0310766D01*
X0189598Y0309967D02*
X0185249Y0309967D01*
X0185948Y0309169D02*
X0188899Y0309169D01*
X0188568Y0308370D02*
X0186279Y0308370D01*
X0186499Y0307572D02*
X0188349Y0307572D01*
X0188349Y0306773D02*
X0186499Y0306773D01*
X0186397Y0305975D02*
X0188450Y0305975D01*
X0188781Y0305176D02*
X0186067Y0305176D01*
X0185534Y0304378D02*
X0189313Y0304378D01*
X0190111Y0303579D02*
X0184736Y0303579D01*
X0180111Y0303579D02*
X0174736Y0303579D01*
X0174732Y0303575D02*
X0175878Y0304722D01*
X0176499Y0306219D01*
X0176499Y0307840D01*
X0175878Y0309338D01*
X0174732Y0310485D01*
X0173234Y0311105D01*
X0171613Y0311105D01*
X0170115Y0310485D01*
X0168969Y0309338D01*
X0168349Y0307840D01*
X0168349Y0306219D01*
X0168969Y0304722D01*
X0170115Y0303575D01*
X0171613Y0302955D01*
X0173234Y0302955D01*
X0174732Y0303575D01*
X0175534Y0304378D02*
X0179313Y0304378D01*
X0178781Y0305176D02*
X0176067Y0305176D01*
X0176397Y0305975D02*
X0178450Y0305975D01*
X0178349Y0306773D02*
X0176499Y0306773D01*
X0176499Y0307572D02*
X0178349Y0307572D01*
X0178568Y0308370D02*
X0176279Y0308370D01*
X0175948Y0309169D02*
X0178899Y0309169D01*
X0179598Y0309967D02*
X0175249Y0309967D01*
X0174053Y0310766D02*
X0180794Y0310766D01*
X0181115Y0313161D02*
X0173733Y0313161D01*
X0173234Y0312955D02*
X0174732Y0313575D01*
X0175878Y0314722D01*
X0176499Y0316219D01*
X0176499Y0317840D01*
X0175878Y0319338D01*
X0174732Y0320485D01*
X0173234Y0321105D01*
X0171613Y0321105D01*
X0170115Y0320485D01*
X0168969Y0319338D01*
X0168349Y0317840D01*
X0168349Y0316219D01*
X0168969Y0314722D01*
X0170115Y0313575D01*
X0171613Y0312955D01*
X0173234Y0312955D01*
X0171115Y0313161D02*
X0163733Y0313161D01*
X0163234Y0312955D02*
X0164732Y0313575D01*
X0165878Y0314722D01*
X0166499Y0316219D01*
X0166499Y0317840D01*
X0165878Y0319338D01*
X0164732Y0320485D01*
X0163234Y0321105D01*
X0161613Y0321105D01*
X0160115Y0320485D01*
X0158969Y0319338D01*
X0158349Y0317840D01*
X0158349Y0316219D01*
X0158969Y0314722D01*
X0160115Y0313575D01*
X0161613Y0312955D01*
X0163234Y0312955D01*
X0163234Y0311105D02*
X0161613Y0311105D01*
X0160115Y0310485D01*
X0158969Y0309338D01*
X0158349Y0307840D01*
X0158349Y0306219D01*
X0158969Y0304722D01*
X0160115Y0303575D01*
X0161613Y0302955D01*
X0163234Y0302955D01*
X0164732Y0303575D01*
X0165878Y0304722D01*
X0166499Y0306219D01*
X0166499Y0307840D01*
X0165878Y0309338D01*
X0164732Y0310485D01*
X0163234Y0311105D01*
X0164053Y0310766D02*
X0170794Y0310766D01*
X0169598Y0309967D02*
X0165249Y0309967D01*
X0165948Y0309169D02*
X0168899Y0309169D01*
X0168568Y0308370D02*
X0166279Y0308370D01*
X0166499Y0307572D02*
X0168349Y0307572D01*
X0168349Y0306773D02*
X0166499Y0306773D01*
X0166397Y0305975D02*
X0168450Y0305975D01*
X0168781Y0305176D02*
X0166067Y0305176D01*
X0165534Y0304378D02*
X0169313Y0304378D01*
X0170111Y0303579D02*
X0164736Y0303579D01*
X0160111Y0303579D02*
X0154736Y0303579D01*
X0154732Y0303575D02*
X0155878Y0304722D01*
X0156499Y0306219D01*
X0156499Y0307840D01*
X0155878Y0309338D01*
X0154732Y0310485D01*
X0153234Y0311105D01*
X0151613Y0311105D01*
X0150115Y0310485D01*
X0148969Y0309338D01*
X0148349Y0307840D01*
X0148349Y0306219D01*
X0148969Y0304722D01*
X0150115Y0303575D01*
X0151613Y0302955D01*
X0153234Y0302955D01*
X0154732Y0303575D01*
X0155534Y0304378D02*
X0159313Y0304378D01*
X0158781Y0305176D02*
X0156067Y0305176D01*
X0156397Y0305975D02*
X0158450Y0305975D01*
X0158349Y0306773D02*
X0156499Y0306773D01*
X0156499Y0307572D02*
X0158349Y0307572D01*
X0158568Y0308370D02*
X0156279Y0308370D01*
X0155948Y0309169D02*
X0158899Y0309169D01*
X0159598Y0309967D02*
X0155249Y0309967D01*
X0154053Y0310766D02*
X0160794Y0310766D01*
X0161115Y0313161D02*
X0153733Y0313161D01*
X0153234Y0312955D02*
X0154732Y0313575D01*
X0155878Y0314722D01*
X0156499Y0316219D01*
X0156499Y0317840D01*
X0155878Y0319338D01*
X0154732Y0320485D01*
X0153234Y0321105D01*
X0151613Y0321105D01*
X0150115Y0320485D01*
X0148969Y0319338D01*
X0148349Y0317840D01*
X0148349Y0316219D01*
X0148969Y0314722D01*
X0150115Y0313575D01*
X0151613Y0312955D01*
X0153234Y0312955D01*
X0151115Y0313161D02*
X0143733Y0313161D01*
X0143234Y0312955D02*
X0144732Y0313575D01*
X0145878Y0314722D01*
X0146499Y0316219D01*
X0146499Y0317840D01*
X0145878Y0319338D01*
X0144732Y0320485D01*
X0143234Y0321105D01*
X0141613Y0321105D01*
X0140115Y0320485D01*
X0138969Y0319338D01*
X0138349Y0317840D01*
X0138349Y0316219D01*
X0138969Y0314722D01*
X0140115Y0313575D01*
X0141613Y0312955D01*
X0143234Y0312955D01*
X0143234Y0311105D02*
X0141613Y0311105D01*
X0140115Y0310485D01*
X0138969Y0309338D01*
X0138349Y0307840D01*
X0138349Y0306219D01*
X0138969Y0304722D01*
X0140115Y0303575D01*
X0141613Y0302955D01*
X0143234Y0302955D01*
X0144732Y0303575D01*
X0145878Y0304722D01*
X0146499Y0306219D01*
X0146499Y0307840D01*
X0145878Y0309338D01*
X0144732Y0310485D01*
X0143234Y0311105D01*
X0144053Y0310766D02*
X0150794Y0310766D01*
X0149598Y0309967D02*
X0145249Y0309967D01*
X0145948Y0309169D02*
X0148899Y0309169D01*
X0148568Y0308370D02*
X0146279Y0308370D01*
X0146499Y0307572D02*
X0148349Y0307572D01*
X0148349Y0306773D02*
X0146499Y0306773D01*
X0146397Y0305975D02*
X0148450Y0305975D01*
X0148781Y0305176D02*
X0146067Y0305176D01*
X0145534Y0304378D02*
X0149313Y0304378D01*
X0150111Y0303579D02*
X0144736Y0303579D01*
X0140111Y0303579D02*
X0134736Y0303579D01*
X0134732Y0303575D02*
X0135878Y0304722D01*
X0136499Y0306219D01*
X0136499Y0307840D01*
X0135878Y0309338D01*
X0134732Y0310485D01*
X0133234Y0311105D01*
X0131613Y0311105D01*
X0130115Y0310485D01*
X0128969Y0309338D01*
X0128349Y0307840D01*
X0128349Y0306219D01*
X0128969Y0304722D01*
X0130115Y0303575D01*
X0131613Y0302955D01*
X0133234Y0302955D01*
X0134732Y0303575D01*
X0135534Y0304378D02*
X0139313Y0304378D01*
X0138781Y0305176D02*
X0136067Y0305176D01*
X0136397Y0305975D02*
X0138450Y0305975D01*
X0138349Y0306773D02*
X0136499Y0306773D01*
X0136499Y0307572D02*
X0138349Y0307572D01*
X0138568Y0308370D02*
X0136279Y0308370D01*
X0135948Y0309169D02*
X0138899Y0309169D01*
X0139598Y0309967D02*
X0135249Y0309967D01*
X0134053Y0310766D02*
X0140794Y0310766D01*
X0141115Y0313161D02*
X0133733Y0313161D01*
X0133234Y0312955D02*
X0134732Y0313575D01*
X0135878Y0314722D01*
X0136499Y0316219D01*
X0136499Y0317840D01*
X0135878Y0319338D01*
X0134732Y0320485D01*
X0133234Y0321105D01*
X0131613Y0321105D01*
X0130115Y0320485D01*
X0128969Y0319338D01*
X0128349Y0317840D01*
X0128349Y0316219D01*
X0128969Y0314722D01*
X0130115Y0313575D01*
X0131613Y0312955D01*
X0133234Y0312955D01*
X0131115Y0313161D02*
X0123733Y0313161D01*
X0123234Y0312955D02*
X0124732Y0313575D01*
X0125878Y0314722D01*
X0126499Y0316219D01*
X0126499Y0317840D01*
X0125878Y0319338D01*
X0124732Y0320485D01*
X0123234Y0321105D01*
X0121613Y0321105D01*
X0120115Y0320485D01*
X0118969Y0319338D01*
X0118349Y0317840D01*
X0118349Y0316219D01*
X0118969Y0314722D01*
X0120115Y0313575D01*
X0121613Y0312955D01*
X0123234Y0312955D01*
X0123234Y0311105D02*
X0121613Y0311105D01*
X0120115Y0310485D01*
X0118969Y0309338D01*
X0118349Y0307840D01*
X0118349Y0306219D01*
X0118969Y0304722D01*
X0120115Y0303575D01*
X0121613Y0302955D01*
X0123234Y0302955D01*
X0124732Y0303575D01*
X0125878Y0304722D01*
X0126499Y0306219D01*
X0126499Y0307840D01*
X0125878Y0309338D01*
X0124732Y0310485D01*
X0123234Y0311105D01*
X0124053Y0310766D02*
X0130794Y0310766D01*
X0129598Y0309967D02*
X0125249Y0309967D01*
X0125948Y0309169D02*
X0128899Y0309169D01*
X0128568Y0308370D02*
X0126279Y0308370D01*
X0126499Y0307572D02*
X0128349Y0307572D01*
X0128349Y0306773D02*
X0126499Y0306773D01*
X0126397Y0305975D02*
X0128450Y0305975D01*
X0128781Y0305176D02*
X0126067Y0305176D01*
X0125534Y0304378D02*
X0129313Y0304378D01*
X0130111Y0303579D02*
X0124736Y0303579D01*
X0120111Y0303579D02*
X0114736Y0303579D01*
X0114732Y0303575D02*
X0115878Y0304722D01*
X0116499Y0306219D01*
X0116499Y0307840D01*
X0115878Y0309338D01*
X0114732Y0310485D01*
X0113234Y0311105D01*
X0111613Y0311105D01*
X0110115Y0310485D01*
X0108969Y0309338D01*
X0108349Y0307840D01*
X0108349Y0306219D01*
X0108969Y0304722D01*
X0110115Y0303575D01*
X0111613Y0302955D01*
X0113234Y0302955D01*
X0114732Y0303575D01*
X0115534Y0304378D02*
X0119313Y0304378D01*
X0118781Y0305176D02*
X0116067Y0305176D01*
X0116397Y0305975D02*
X0118450Y0305975D01*
X0118349Y0306773D02*
X0116499Y0306773D01*
X0116499Y0307572D02*
X0118349Y0307572D01*
X0118568Y0308370D02*
X0116279Y0308370D01*
X0115948Y0309169D02*
X0118899Y0309169D01*
X0119598Y0309967D02*
X0115249Y0309967D01*
X0114053Y0310766D02*
X0120794Y0310766D01*
X0121115Y0313161D02*
X0113733Y0313161D01*
X0113234Y0312955D02*
X0114732Y0313575D01*
X0115878Y0314722D01*
X0116499Y0316219D01*
X0116499Y0317840D01*
X0115878Y0319338D01*
X0114732Y0320485D01*
X0113234Y0321105D01*
X0111613Y0321105D01*
X0110115Y0320485D01*
X0108969Y0319338D01*
X0108349Y0317840D01*
X0108349Y0316219D01*
X0108969Y0314722D01*
X0110115Y0313575D01*
X0111613Y0312955D01*
X0113234Y0312955D01*
X0111115Y0313161D02*
X0103733Y0313161D01*
X0103234Y0312955D02*
X0104732Y0313575D01*
X0105878Y0314722D01*
X0106499Y0316219D01*
X0106499Y0317840D01*
X0105878Y0319338D01*
X0104732Y0320485D01*
X0103234Y0321105D01*
X0101613Y0321105D01*
X0100115Y0320485D01*
X0098969Y0319338D01*
X0098349Y0317840D01*
X0098349Y0316219D01*
X0098969Y0314722D01*
X0100115Y0313575D01*
X0101613Y0312955D01*
X0103234Y0312955D01*
X0103234Y0311105D02*
X0101613Y0311105D01*
X0100115Y0310485D01*
X0098969Y0309338D01*
X0098349Y0307840D01*
X0098349Y0306219D01*
X0098969Y0304722D01*
X0100115Y0303575D01*
X0101613Y0302955D01*
X0103234Y0302955D01*
X0104732Y0303575D01*
X0105878Y0304722D01*
X0106499Y0306219D01*
X0106499Y0307840D01*
X0105878Y0309338D01*
X0104732Y0310485D01*
X0103234Y0311105D01*
X0104053Y0310766D02*
X0110794Y0310766D01*
X0109598Y0309967D02*
X0105249Y0309967D01*
X0105948Y0309169D02*
X0108899Y0309169D01*
X0108568Y0308370D02*
X0106279Y0308370D01*
X0106499Y0307572D02*
X0108349Y0307572D01*
X0108349Y0306773D02*
X0106499Y0306773D01*
X0106397Y0305975D02*
X0108450Y0305975D01*
X0108781Y0305176D02*
X0106067Y0305176D01*
X0105534Y0304378D02*
X0109313Y0304378D01*
X0110111Y0303579D02*
X0104736Y0303579D01*
X0100111Y0303579D02*
X0094736Y0303579D01*
X0094732Y0303575D02*
X0095878Y0304722D01*
X0096499Y0306219D01*
X0096499Y0307840D01*
X0095878Y0309338D01*
X0094732Y0310485D01*
X0093234Y0311105D01*
X0091613Y0311105D01*
X0090115Y0310485D01*
X0088969Y0309338D01*
X0088349Y0307840D01*
X0088349Y0306219D01*
X0088969Y0304722D01*
X0090115Y0303575D01*
X0091613Y0302955D01*
X0093234Y0302955D01*
X0094732Y0303575D01*
X0095534Y0304378D02*
X0099313Y0304378D01*
X0098781Y0305176D02*
X0096067Y0305176D01*
X0096397Y0305975D02*
X0098450Y0305975D01*
X0098349Y0306773D02*
X0096499Y0306773D01*
X0096499Y0307572D02*
X0098349Y0307572D01*
X0098568Y0308370D02*
X0096279Y0308370D01*
X0095948Y0309169D02*
X0098899Y0309169D01*
X0099598Y0309967D02*
X0095249Y0309967D01*
X0094053Y0310766D02*
X0100794Y0310766D01*
X0101115Y0313161D02*
X0093733Y0313161D01*
X0093234Y0312955D02*
X0094732Y0313575D01*
X0095878Y0314722D01*
X0096499Y0316219D01*
X0096499Y0317840D01*
X0095878Y0319338D01*
X0094732Y0320485D01*
X0093234Y0321105D01*
X0091613Y0321105D01*
X0090115Y0320485D01*
X0088969Y0319338D01*
X0088349Y0317840D01*
X0088349Y0316219D01*
X0088969Y0314722D01*
X0090115Y0313575D01*
X0091613Y0312955D01*
X0093234Y0312955D01*
X0091115Y0313161D02*
X0083733Y0313161D01*
X0083234Y0312955D02*
X0084732Y0313575D01*
X0085878Y0314722D01*
X0086499Y0316219D01*
X0086499Y0317840D01*
X0085878Y0319338D01*
X0084732Y0320485D01*
X0083234Y0321105D01*
X0081613Y0321105D01*
X0080115Y0320485D01*
X0078969Y0319338D01*
X0078349Y0317840D01*
X0078349Y0316219D01*
X0078969Y0314722D01*
X0080115Y0313575D01*
X0081613Y0312955D01*
X0083234Y0312955D01*
X0083234Y0311105D02*
X0081613Y0311105D01*
X0080115Y0310485D01*
X0078969Y0309338D01*
X0078349Y0307840D01*
X0078349Y0306219D01*
X0078969Y0304722D01*
X0080115Y0303575D01*
X0081613Y0302955D01*
X0083234Y0302955D01*
X0084732Y0303575D01*
X0085878Y0304722D01*
X0086499Y0306219D01*
X0086499Y0307840D01*
X0085878Y0309338D01*
X0084732Y0310485D01*
X0083234Y0311105D01*
X0084053Y0310766D02*
X0090794Y0310766D01*
X0089598Y0309967D02*
X0085249Y0309967D01*
X0085948Y0309169D02*
X0088899Y0309169D01*
X0088568Y0308370D02*
X0086279Y0308370D01*
X0086499Y0307572D02*
X0088349Y0307572D01*
X0088349Y0306773D02*
X0086499Y0306773D01*
X0086397Y0305975D02*
X0088450Y0305975D01*
X0088781Y0305176D02*
X0086067Y0305176D01*
X0085534Y0304378D02*
X0089313Y0304378D01*
X0090111Y0303579D02*
X0084736Y0303579D01*
X0080111Y0303579D02*
X0074736Y0303579D01*
X0075534Y0304378D02*
X0079313Y0304378D01*
X0078781Y0305176D02*
X0076067Y0305176D01*
X0076397Y0305975D02*
X0078450Y0305975D01*
X0078349Y0306773D02*
X0076499Y0306773D01*
X0076499Y0307572D02*
X0078349Y0307572D01*
X0078568Y0308370D02*
X0076279Y0308370D01*
X0075948Y0309169D02*
X0078899Y0309169D01*
X0079598Y0309967D02*
X0075249Y0309967D01*
X0074053Y0310766D02*
X0080794Y0310766D01*
X0081115Y0313161D02*
X0073733Y0313161D01*
X0073234Y0312955D02*
X0074732Y0313575D01*
X0075878Y0314722D01*
X0076499Y0316219D01*
X0076499Y0317840D01*
X0075878Y0319338D01*
X0074732Y0320485D01*
X0073234Y0321105D01*
X0071613Y0321105D01*
X0070115Y0320485D01*
X0068969Y0319338D01*
X0068349Y0317840D01*
X0068349Y0316219D01*
X0068969Y0314722D01*
X0070115Y0313575D01*
X0071613Y0312955D01*
X0073234Y0312955D01*
X0071115Y0313161D02*
X0014658Y0313161D01*
X0014658Y0313960D02*
X0061601Y0313960D01*
X0061613Y0313955D02*
X0063234Y0313955D01*
X0064732Y0314575D01*
X0065878Y0315722D01*
X0066499Y0317219D01*
X0066499Y0318840D01*
X0065878Y0320338D01*
X0064732Y0321485D01*
X0063234Y0322105D01*
X0061613Y0322105D01*
X0060115Y0321485D01*
X0058969Y0320338D01*
X0058349Y0318840D01*
X0058349Y0317219D01*
X0058969Y0315722D01*
X0060115Y0314575D01*
X0061613Y0313955D01*
X0063246Y0313960D02*
X0069731Y0313960D01*
X0068954Y0314758D02*
X0064915Y0314758D01*
X0065714Y0315557D02*
X0068623Y0315557D01*
X0068349Y0316355D02*
X0066141Y0316355D01*
X0066472Y0317154D02*
X0068349Y0317154D01*
X0068395Y0317952D02*
X0066499Y0317952D01*
X0066499Y0318751D02*
X0068726Y0318751D01*
X0069180Y0319549D02*
X0066205Y0319549D01*
X0065868Y0320348D02*
X0069979Y0320348D01*
X0071613Y0322955D02*
X0073234Y0322955D01*
X0074732Y0323575D01*
X0075878Y0324722D01*
X0076499Y0326219D01*
X0076499Y0327840D01*
X0075878Y0329338D01*
X0074732Y0330485D01*
X0073234Y0331105D01*
X0071613Y0331105D01*
X0070115Y0330485D01*
X0068969Y0329338D01*
X0068349Y0327840D01*
X0068349Y0326219D01*
X0068969Y0324722D01*
X0070115Y0323575D01*
X0071613Y0322955D01*
X0070196Y0323542D02*
X0014658Y0323542D01*
X0014658Y0322744D02*
X0258413Y0322744D01*
X0258415Y0323542D02*
X0254896Y0323542D01*
X0254664Y0323374D02*
X0255209Y0323769D01*
X0255684Y0324245D01*
X0256080Y0324789D01*
X0256385Y0325389D01*
X0256593Y0326029D01*
X0256689Y0326630D01*
X0252824Y0326630D01*
X0252824Y0327430D01*
X0256689Y0327430D01*
X0256593Y0328031D01*
X0256385Y0328671D01*
X0256080Y0329270D01*
X0255684Y0329815D01*
X0255209Y0330291D01*
X0254664Y0330686D01*
X0254065Y0330992D01*
X0253425Y0331200D01*
X0252824Y0331295D01*
X0252824Y0327430D01*
X0252024Y0327430D01*
X0252024Y0331295D01*
X0251423Y0331200D01*
X0250783Y0330992D01*
X0250183Y0330686D01*
X0249639Y0330291D01*
X0249163Y0329815D01*
X0248767Y0329270D01*
X0248462Y0328671D01*
X0248254Y0328031D01*
X0248159Y0327430D01*
X0252024Y0327430D01*
X0252024Y0326630D01*
X0252824Y0326630D01*
X0252824Y0322765D01*
X0253425Y0322860D01*
X0254065Y0323068D01*
X0254664Y0323374D01*
X0255754Y0324341D02*
X0258417Y0324341D01*
X0258418Y0325139D02*
X0256258Y0325139D01*
X0256564Y0325938D02*
X0258420Y0325938D01*
X0258349Y0326736D02*
X0252824Y0326736D01*
X0252824Y0325938D02*
X0252024Y0325938D01*
X0252024Y0326630D02*
X0252024Y0322765D01*
X0251423Y0322860D01*
X0250783Y0323068D01*
X0250183Y0323374D01*
X0249639Y0323769D01*
X0249163Y0324245D01*
X0248767Y0324789D01*
X0248462Y0325389D01*
X0248254Y0326029D01*
X0248159Y0326630D01*
X0252024Y0326630D01*
X0252024Y0326736D02*
X0246499Y0326736D01*
X0246499Y0326219D02*
X0245878Y0324722D01*
X0244732Y0323575D01*
X0243234Y0322955D01*
X0241613Y0322955D01*
X0240115Y0323575D01*
X0238969Y0324722D01*
X0238349Y0326219D01*
X0238349Y0327840D01*
X0238969Y0329338D01*
X0240115Y0330485D01*
X0241613Y0331105D01*
X0243234Y0331105D01*
X0244732Y0330485D01*
X0245878Y0329338D01*
X0246499Y0327840D01*
X0246499Y0326219D01*
X0246382Y0325938D02*
X0248284Y0325938D01*
X0248589Y0325139D02*
X0246051Y0325139D01*
X0245497Y0324341D02*
X0249093Y0324341D01*
X0249951Y0323542D02*
X0244652Y0323542D01*
X0244868Y0320348D02*
X0249979Y0320348D01*
X0249180Y0319549D02*
X0245667Y0319549D01*
X0246121Y0318751D02*
X0248726Y0318751D01*
X0248395Y0317952D02*
X0246452Y0317952D01*
X0246499Y0317154D02*
X0248349Y0317154D01*
X0248349Y0316355D02*
X0246499Y0316355D01*
X0246224Y0315557D02*
X0248623Y0315557D01*
X0248954Y0314758D02*
X0245893Y0314758D01*
X0245117Y0313960D02*
X0249731Y0313960D01*
X0255117Y0313960D02*
X0258392Y0313960D01*
X0258394Y0314758D02*
X0255893Y0314758D01*
X0256224Y0315557D02*
X0258396Y0315557D01*
X0258349Y0316355D02*
X0256499Y0316355D01*
X0256499Y0317154D02*
X0258349Y0317154D01*
X0258395Y0317952D02*
X0256452Y0317952D01*
X0256121Y0318751D02*
X0258403Y0318751D01*
X0258405Y0319549D02*
X0255667Y0319549D01*
X0254868Y0320348D02*
X0258407Y0320348D01*
X0258409Y0321146D02*
X0065070Y0321146D01*
X0063620Y0321945D02*
X0258411Y0321945D01*
X0252824Y0323542D02*
X0252024Y0323542D01*
X0252024Y0324341D02*
X0252824Y0324341D01*
X0252824Y0325139D02*
X0252024Y0325139D01*
X0252024Y0327535D02*
X0252824Y0327535D01*
X0252824Y0328333D02*
X0252024Y0328333D01*
X0252024Y0329132D02*
X0252824Y0329132D01*
X0252824Y0329930D02*
X0252024Y0329930D01*
X0252024Y0330729D02*
X0252824Y0330729D01*
X0254581Y0330729D02*
X0258432Y0330729D01*
X0258434Y0331527D02*
X0064629Y0331527D01*
X0064732Y0331485D02*
X0063234Y0332105D01*
X0061613Y0332105D01*
X0060115Y0331485D01*
X0058969Y0330338D01*
X0058349Y0328840D01*
X0058349Y0327219D01*
X0058969Y0325722D01*
X0060115Y0324575D01*
X0061613Y0323955D01*
X0063234Y0323955D01*
X0064732Y0324575D01*
X0065878Y0325722D01*
X0066499Y0327219D01*
X0066499Y0328840D01*
X0065878Y0330338D01*
X0064732Y0331485D01*
X0065488Y0330729D02*
X0070705Y0330729D01*
X0069561Y0329930D02*
X0066047Y0329930D01*
X0066378Y0329132D02*
X0068883Y0329132D01*
X0068553Y0328333D02*
X0066499Y0328333D01*
X0066499Y0327535D02*
X0068349Y0327535D01*
X0068349Y0326736D02*
X0066298Y0326736D01*
X0065968Y0325938D02*
X0068465Y0325938D01*
X0068796Y0325139D02*
X0065296Y0325139D01*
X0064165Y0324341D02*
X0069350Y0324341D01*
X0074652Y0323542D02*
X0080196Y0323542D01*
X0080115Y0323575D02*
X0081613Y0322955D01*
X0083234Y0322955D01*
X0084732Y0323575D01*
X0085878Y0324722D01*
X0086499Y0326219D01*
X0086499Y0327840D01*
X0085878Y0329338D01*
X0084732Y0330485D01*
X0083234Y0331105D01*
X0081613Y0331105D01*
X0080115Y0330485D01*
X0078969Y0329338D01*
X0078349Y0327840D01*
X0078349Y0326219D01*
X0078969Y0324722D01*
X0080115Y0323575D01*
X0079350Y0324341D02*
X0075497Y0324341D01*
X0076051Y0325139D02*
X0078796Y0325139D01*
X0078465Y0325938D02*
X0076382Y0325938D01*
X0076499Y0326736D02*
X0078349Y0326736D01*
X0078349Y0327535D02*
X0076499Y0327535D01*
X0076295Y0328333D02*
X0078553Y0328333D01*
X0078883Y0329132D02*
X0075964Y0329132D01*
X0075286Y0329930D02*
X0079561Y0329930D01*
X0080705Y0330729D02*
X0074143Y0330729D01*
X0073234Y0332955D02*
X0071613Y0332955D01*
X0070115Y0333575D01*
X0068969Y0334722D01*
X0068349Y0336219D01*
X0068349Y0337840D01*
X0068969Y0339338D01*
X0070115Y0340485D01*
X0071613Y0341105D01*
X0073234Y0341105D01*
X0074732Y0340485D01*
X0075878Y0339338D01*
X0076499Y0337840D01*
X0076499Y0336219D01*
X0075878Y0334722D01*
X0074732Y0333575D01*
X0073234Y0332955D01*
X0073643Y0333124D02*
X0081204Y0333124D01*
X0081613Y0332955D02*
X0080115Y0333575D01*
X0078969Y0334722D01*
X0078349Y0336219D01*
X0078349Y0337840D01*
X0078969Y0339338D01*
X0080115Y0340485D01*
X0081613Y0341105D01*
X0083234Y0341105D01*
X0084732Y0340485D01*
X0085878Y0339338D01*
X0086499Y0337840D01*
X0086499Y0336219D01*
X0085878Y0334722D01*
X0084732Y0333575D01*
X0083234Y0332955D01*
X0081613Y0332955D01*
X0083643Y0333124D02*
X0091204Y0333124D01*
X0091613Y0332955D02*
X0093234Y0332955D01*
X0094732Y0333575D01*
X0095878Y0334722D01*
X0096499Y0336219D01*
X0096499Y0337840D01*
X0095878Y0339338D01*
X0094732Y0340485D01*
X0093234Y0341105D01*
X0091613Y0341105D01*
X0090115Y0340485D01*
X0088969Y0339338D01*
X0088349Y0337840D01*
X0088349Y0336219D01*
X0088969Y0334722D01*
X0090115Y0333575D01*
X0091613Y0332955D01*
X0091613Y0331105D02*
X0090115Y0330485D01*
X0088969Y0329338D01*
X0088349Y0327840D01*
X0088349Y0326219D01*
X0088969Y0324722D01*
X0090115Y0323575D01*
X0091613Y0322955D01*
X0093234Y0322955D01*
X0094732Y0323575D01*
X0095878Y0324722D01*
X0096499Y0326219D01*
X0096499Y0327840D01*
X0095878Y0329338D01*
X0094732Y0330485D01*
X0093234Y0331105D01*
X0091613Y0331105D01*
X0090705Y0330729D02*
X0084143Y0330729D01*
X0085286Y0329930D02*
X0089561Y0329930D01*
X0088883Y0329132D02*
X0085964Y0329132D01*
X0086295Y0328333D02*
X0088553Y0328333D01*
X0088349Y0327535D02*
X0086499Y0327535D01*
X0086499Y0326736D02*
X0088349Y0326736D01*
X0088465Y0325938D02*
X0086382Y0325938D01*
X0086051Y0325139D02*
X0088796Y0325139D01*
X0089350Y0324341D02*
X0085497Y0324341D01*
X0084652Y0323542D02*
X0090196Y0323542D01*
X0089979Y0320348D02*
X0084868Y0320348D01*
X0085667Y0319549D02*
X0089180Y0319549D01*
X0088726Y0318751D02*
X0086121Y0318751D01*
X0086452Y0317952D02*
X0088395Y0317952D01*
X0088349Y0317154D02*
X0086499Y0317154D01*
X0086499Y0316355D02*
X0088349Y0316355D01*
X0088623Y0315557D02*
X0086224Y0315557D01*
X0085893Y0314758D02*
X0088954Y0314758D01*
X0089731Y0313960D02*
X0085117Y0313960D01*
X0079731Y0313960D02*
X0075117Y0313960D01*
X0075893Y0314758D02*
X0078954Y0314758D01*
X0078623Y0315557D02*
X0076224Y0315557D01*
X0076499Y0316355D02*
X0078349Y0316355D01*
X0078349Y0317154D02*
X0076499Y0317154D01*
X0076452Y0317952D02*
X0078395Y0317952D01*
X0078726Y0318751D02*
X0076121Y0318751D01*
X0075667Y0319549D02*
X0079180Y0319549D01*
X0079979Y0320348D02*
X0074868Y0320348D01*
X0071204Y0333124D02*
X0039937Y0333124D01*
X0039606Y0332326D02*
X0258435Y0332326D01*
X0258437Y0333124D02*
X0254175Y0333124D01*
X0254065Y0333068D02*
X0254664Y0333374D01*
X0255209Y0333769D01*
X0255684Y0334245D01*
X0256080Y0334789D01*
X0256385Y0335389D01*
X0256593Y0336029D01*
X0256689Y0336630D01*
X0252824Y0336630D01*
X0252824Y0337430D01*
X0256689Y0337430D01*
X0256593Y0338031D01*
X0256385Y0338671D01*
X0256080Y0339270D01*
X0255684Y0339815D01*
X0255209Y0340291D01*
X0254664Y0340686D01*
X0254065Y0340992D01*
X0253425Y0341200D01*
X0252824Y0341295D01*
X0252824Y0337430D01*
X0252024Y0337430D01*
X0252024Y0341295D01*
X0251423Y0341200D01*
X0250783Y0340992D01*
X0250183Y0340686D01*
X0249639Y0340291D01*
X0249163Y0339815D01*
X0248767Y0339270D01*
X0248462Y0338671D01*
X0248254Y0338031D01*
X0248159Y0337430D01*
X0252024Y0337430D01*
X0252024Y0336630D01*
X0252824Y0336630D01*
X0252824Y0332765D01*
X0253425Y0332860D01*
X0254065Y0333068D01*
X0252824Y0333124D02*
X0252024Y0333124D01*
X0252024Y0332765D02*
X0252024Y0336630D01*
X0248159Y0336630D01*
X0248254Y0336029D01*
X0248462Y0335389D01*
X0248767Y0334789D01*
X0249163Y0334245D01*
X0249639Y0333769D01*
X0250183Y0333374D01*
X0250783Y0333068D01*
X0251423Y0332860D01*
X0252024Y0332765D01*
X0252024Y0333923D02*
X0252824Y0333923D01*
X0252824Y0334721D02*
X0252024Y0334721D01*
X0252024Y0335520D02*
X0252824Y0335520D01*
X0252824Y0336318D02*
X0252024Y0336318D01*
X0252024Y0337117D02*
X0246499Y0337117D01*
X0246499Y0337840D02*
X0245878Y0339338D01*
X0244732Y0340485D01*
X0243234Y0341105D01*
X0241613Y0341105D01*
X0240115Y0340485D01*
X0238969Y0339338D01*
X0238349Y0337840D01*
X0238349Y0336219D01*
X0238969Y0334722D01*
X0240115Y0333575D01*
X0241613Y0332955D01*
X0243234Y0332955D01*
X0244732Y0333575D01*
X0245878Y0334722D01*
X0246499Y0336219D01*
X0246499Y0337840D01*
X0246468Y0337915D02*
X0248236Y0337915D01*
X0248484Y0338714D02*
X0246137Y0338714D01*
X0245704Y0339512D02*
X0248943Y0339512D01*
X0249666Y0340311D02*
X0244906Y0340311D01*
X0246499Y0336318D02*
X0248208Y0336318D01*
X0248419Y0335520D02*
X0246209Y0335520D01*
X0245878Y0334721D02*
X0248817Y0334721D01*
X0249485Y0333923D02*
X0245079Y0333923D01*
X0243643Y0333124D02*
X0250673Y0333124D01*
X0250266Y0330729D02*
X0244143Y0330729D01*
X0245286Y0329930D02*
X0249278Y0329930D01*
X0248697Y0329132D02*
X0245964Y0329132D01*
X0246295Y0328333D02*
X0248352Y0328333D01*
X0248175Y0327535D02*
X0246499Y0327535D01*
X0240705Y0330729D02*
X0234143Y0330729D01*
X0234732Y0330485D02*
X0233234Y0331105D01*
X0231613Y0331105D01*
X0230115Y0330485D01*
X0228969Y0329338D01*
X0228349Y0327840D01*
X0228349Y0326219D01*
X0228969Y0324722D01*
X0230115Y0323575D01*
X0231613Y0322955D01*
X0233234Y0322955D01*
X0234732Y0323575D01*
X0235878Y0324722D01*
X0236499Y0326219D01*
X0236499Y0327840D01*
X0235878Y0329338D01*
X0234732Y0330485D01*
X0235286Y0329930D02*
X0239561Y0329930D01*
X0238883Y0329132D02*
X0235964Y0329132D01*
X0236295Y0328333D02*
X0238553Y0328333D01*
X0238349Y0327535D02*
X0236499Y0327535D01*
X0236499Y0326736D02*
X0238349Y0326736D01*
X0238465Y0325938D02*
X0236382Y0325938D01*
X0236051Y0325139D02*
X0238796Y0325139D01*
X0239350Y0324341D02*
X0235497Y0324341D01*
X0234652Y0323542D02*
X0240196Y0323542D01*
X0239979Y0320348D02*
X0234868Y0320348D01*
X0235667Y0319549D02*
X0239180Y0319549D01*
X0238726Y0318751D02*
X0236121Y0318751D01*
X0236452Y0317952D02*
X0238395Y0317952D01*
X0238349Y0317154D02*
X0236499Y0317154D01*
X0236499Y0316355D02*
X0238349Y0316355D01*
X0238623Y0315557D02*
X0236224Y0315557D01*
X0235893Y0314758D02*
X0238954Y0314758D01*
X0239731Y0313960D02*
X0235117Y0313960D01*
X0229731Y0313960D02*
X0225117Y0313960D01*
X0225893Y0314758D02*
X0228954Y0314758D01*
X0228623Y0315557D02*
X0226224Y0315557D01*
X0226499Y0316355D02*
X0228349Y0316355D01*
X0228349Y0317154D02*
X0226499Y0317154D01*
X0226452Y0317952D02*
X0228395Y0317952D01*
X0228726Y0318751D02*
X0226121Y0318751D01*
X0225667Y0319549D02*
X0229180Y0319549D01*
X0229979Y0320348D02*
X0224868Y0320348D01*
X0223234Y0322955D02*
X0224732Y0323575D01*
X0225878Y0324722D01*
X0226499Y0326219D01*
X0226499Y0327840D01*
X0225878Y0329338D01*
X0224732Y0330485D01*
X0223234Y0331105D01*
X0221613Y0331105D01*
X0220115Y0330485D01*
X0218969Y0329338D01*
X0218349Y0327840D01*
X0218349Y0326219D01*
X0218969Y0324722D01*
X0220115Y0323575D01*
X0221613Y0322955D01*
X0223234Y0322955D01*
X0224652Y0323542D02*
X0230196Y0323542D01*
X0229350Y0324341D02*
X0225497Y0324341D01*
X0226051Y0325139D02*
X0228796Y0325139D01*
X0228465Y0325938D02*
X0226382Y0325938D01*
X0226499Y0326736D02*
X0228349Y0326736D01*
X0228349Y0327535D02*
X0226499Y0327535D01*
X0226295Y0328333D02*
X0228553Y0328333D01*
X0228883Y0329132D02*
X0225964Y0329132D01*
X0225286Y0329930D02*
X0229561Y0329930D01*
X0230705Y0330729D02*
X0224143Y0330729D01*
X0223234Y0332955D02*
X0221613Y0332955D01*
X0220115Y0333575D01*
X0218969Y0334722D01*
X0218349Y0336219D01*
X0218349Y0337840D01*
X0218969Y0339338D01*
X0220115Y0340485D01*
X0221613Y0341105D01*
X0223234Y0341105D01*
X0224732Y0340485D01*
X0225878Y0339338D01*
X0226499Y0337840D01*
X0226499Y0336219D01*
X0225878Y0334722D01*
X0224732Y0333575D01*
X0223234Y0332955D01*
X0223643Y0333124D02*
X0231204Y0333124D01*
X0231613Y0332955D02*
X0230115Y0333575D01*
X0228969Y0334722D01*
X0228349Y0336219D01*
X0228349Y0337840D01*
X0228969Y0339338D01*
X0230115Y0340485D01*
X0231613Y0341105D01*
X0233234Y0341105D01*
X0234732Y0340485D01*
X0235878Y0339338D01*
X0236499Y0337840D01*
X0236499Y0336219D01*
X0235878Y0334722D01*
X0234732Y0333575D01*
X0233234Y0332955D01*
X0231613Y0332955D01*
X0233643Y0333124D02*
X0241204Y0333124D01*
X0239768Y0333923D02*
X0235079Y0333923D01*
X0235878Y0334721D02*
X0238969Y0334721D01*
X0238638Y0335520D02*
X0236209Y0335520D01*
X0236499Y0336318D02*
X0238349Y0336318D01*
X0238349Y0337117D02*
X0236499Y0337117D01*
X0236468Y0337915D02*
X0238380Y0337915D01*
X0238710Y0338714D02*
X0236137Y0338714D01*
X0235704Y0339512D02*
X0239143Y0339512D01*
X0239942Y0340311D02*
X0234906Y0340311D01*
X0229942Y0340311D02*
X0224906Y0340311D01*
X0225704Y0339512D02*
X0229143Y0339512D01*
X0228710Y0338714D02*
X0226137Y0338714D01*
X0226468Y0337915D02*
X0228380Y0337915D01*
X0228349Y0337117D02*
X0226499Y0337117D01*
X0226499Y0336318D02*
X0228349Y0336318D01*
X0228638Y0335520D02*
X0226209Y0335520D01*
X0225878Y0334721D02*
X0228969Y0334721D01*
X0229768Y0333923D02*
X0225079Y0333923D01*
X0221204Y0333124D02*
X0213643Y0333124D01*
X0213234Y0332955D02*
X0214732Y0333575D01*
X0215878Y0334722D01*
X0216499Y0336219D01*
X0216499Y0337840D01*
X0215878Y0339338D01*
X0214732Y0340485D01*
X0213234Y0341105D01*
X0211613Y0341105D01*
X0210115Y0340485D01*
X0208969Y0339338D01*
X0208349Y0337840D01*
X0208349Y0336219D01*
X0208969Y0334722D01*
X0210115Y0333575D01*
X0211613Y0332955D01*
X0213234Y0332955D01*
X0213234Y0331105D02*
X0211613Y0331105D01*
X0210115Y0330485D01*
X0208969Y0329338D01*
X0208349Y0327840D01*
X0208349Y0326219D01*
X0208969Y0324722D01*
X0210115Y0323575D01*
X0211613Y0322955D01*
X0213234Y0322955D01*
X0214732Y0323575D01*
X0215878Y0324722D01*
X0216499Y0326219D01*
X0216499Y0327840D01*
X0215878Y0329338D01*
X0214732Y0330485D01*
X0213234Y0331105D01*
X0214143Y0330729D02*
X0220705Y0330729D01*
X0219561Y0329930D02*
X0215286Y0329930D01*
X0215964Y0329132D02*
X0218883Y0329132D01*
X0218553Y0328333D02*
X0216295Y0328333D01*
X0216499Y0327535D02*
X0218349Y0327535D01*
X0218349Y0326736D02*
X0216499Y0326736D01*
X0216382Y0325938D02*
X0218465Y0325938D01*
X0218796Y0325139D02*
X0216051Y0325139D01*
X0215497Y0324341D02*
X0219350Y0324341D01*
X0220196Y0323542D02*
X0214652Y0323542D01*
X0214868Y0320348D02*
X0219979Y0320348D01*
X0219180Y0319549D02*
X0215667Y0319549D01*
X0216121Y0318751D02*
X0218726Y0318751D01*
X0218395Y0317952D02*
X0216452Y0317952D01*
X0216499Y0317154D02*
X0218349Y0317154D01*
X0218349Y0316355D02*
X0216499Y0316355D01*
X0216224Y0315557D02*
X0218623Y0315557D01*
X0218954Y0314758D02*
X0215893Y0314758D01*
X0215117Y0313960D02*
X0219731Y0313960D01*
X0209979Y0320348D02*
X0204868Y0320348D01*
X0205667Y0319549D02*
X0209180Y0319549D01*
X0208726Y0318751D02*
X0206121Y0318751D01*
X0206452Y0317952D02*
X0208395Y0317952D01*
X0208349Y0317154D02*
X0206499Y0317154D01*
X0206499Y0316355D02*
X0208349Y0316355D01*
X0208623Y0315557D02*
X0206224Y0315557D01*
X0205893Y0314758D02*
X0208954Y0314758D01*
X0209731Y0313960D02*
X0205117Y0313960D01*
X0199731Y0313960D02*
X0195117Y0313960D01*
X0195893Y0314758D02*
X0198954Y0314758D01*
X0198623Y0315557D02*
X0196224Y0315557D01*
X0196499Y0316355D02*
X0198349Y0316355D01*
X0198349Y0317154D02*
X0196499Y0317154D01*
X0196452Y0317952D02*
X0198395Y0317952D01*
X0198726Y0318751D02*
X0196121Y0318751D01*
X0195667Y0319549D02*
X0199180Y0319549D01*
X0199979Y0320348D02*
X0194868Y0320348D01*
X0193234Y0322955D02*
X0194732Y0323575D01*
X0195878Y0324722D01*
X0196499Y0326219D01*
X0196499Y0327840D01*
X0195878Y0329338D01*
X0194732Y0330485D01*
X0193234Y0331105D01*
X0191613Y0331105D01*
X0190115Y0330485D01*
X0188969Y0329338D01*
X0188349Y0327840D01*
X0188349Y0326219D01*
X0188969Y0324722D01*
X0190115Y0323575D01*
X0191613Y0322955D01*
X0193234Y0322955D01*
X0194652Y0323542D02*
X0200196Y0323542D01*
X0200115Y0323575D02*
X0201613Y0322955D01*
X0203234Y0322955D01*
X0204732Y0323575D01*
X0205878Y0324722D01*
X0206499Y0326219D01*
X0206499Y0327840D01*
X0205878Y0329338D01*
X0204732Y0330485D01*
X0203234Y0331105D01*
X0201613Y0331105D01*
X0200115Y0330485D01*
X0198969Y0329338D01*
X0198349Y0327840D01*
X0198349Y0326219D01*
X0198969Y0324722D01*
X0200115Y0323575D01*
X0199350Y0324341D02*
X0195497Y0324341D01*
X0196051Y0325139D02*
X0198796Y0325139D01*
X0198465Y0325938D02*
X0196382Y0325938D01*
X0196499Y0326736D02*
X0198349Y0326736D01*
X0198349Y0327535D02*
X0196499Y0327535D01*
X0196295Y0328333D02*
X0198553Y0328333D01*
X0198883Y0329132D02*
X0195964Y0329132D01*
X0195286Y0329930D02*
X0199561Y0329930D01*
X0200705Y0330729D02*
X0194143Y0330729D01*
X0193234Y0332955D02*
X0191613Y0332955D01*
X0190115Y0333575D01*
X0188969Y0334722D01*
X0188349Y0336219D01*
X0188349Y0337840D01*
X0188969Y0339338D01*
X0190115Y0340485D01*
X0191613Y0341105D01*
X0193234Y0341105D01*
X0194732Y0340485D01*
X0195878Y0339338D01*
X0196499Y0337840D01*
X0196499Y0336219D01*
X0195878Y0334722D01*
X0194732Y0333575D01*
X0193234Y0332955D01*
X0193643Y0333124D02*
X0201204Y0333124D01*
X0201613Y0332955D02*
X0200115Y0333575D01*
X0198969Y0334722D01*
X0198349Y0336219D01*
X0198349Y0337840D01*
X0198969Y0339338D01*
X0200115Y0340485D01*
X0201613Y0341105D01*
X0203234Y0341105D01*
X0204732Y0340485D01*
X0205878Y0339338D01*
X0206499Y0337840D01*
X0206499Y0336219D01*
X0205878Y0334722D01*
X0204732Y0333575D01*
X0203234Y0332955D01*
X0201613Y0332955D01*
X0203643Y0333124D02*
X0211204Y0333124D01*
X0209768Y0333923D02*
X0205079Y0333923D01*
X0205878Y0334721D02*
X0208969Y0334721D01*
X0208638Y0335520D02*
X0206209Y0335520D01*
X0206499Y0336318D02*
X0208349Y0336318D01*
X0208349Y0337117D02*
X0206499Y0337117D01*
X0206468Y0337915D02*
X0208380Y0337915D01*
X0208710Y0338714D02*
X0206137Y0338714D01*
X0205704Y0339512D02*
X0209143Y0339512D01*
X0209942Y0340311D02*
X0204906Y0340311D01*
X0199942Y0340311D02*
X0194906Y0340311D01*
X0195704Y0339512D02*
X0199143Y0339512D01*
X0198710Y0338714D02*
X0196137Y0338714D01*
X0196468Y0337915D02*
X0198380Y0337915D01*
X0198349Y0337117D02*
X0196499Y0337117D01*
X0196499Y0336318D02*
X0198349Y0336318D01*
X0198638Y0335520D02*
X0196209Y0335520D01*
X0195878Y0334721D02*
X0198969Y0334721D01*
X0199768Y0333923D02*
X0195079Y0333923D01*
X0191204Y0333124D02*
X0183643Y0333124D01*
X0183234Y0332955D02*
X0184732Y0333575D01*
X0185878Y0334722D01*
X0186499Y0336219D01*
X0186499Y0337840D01*
X0185878Y0339338D01*
X0184732Y0340485D01*
X0183234Y0341105D01*
X0181613Y0341105D01*
X0180115Y0340485D01*
X0178969Y0339338D01*
X0178349Y0337840D01*
X0178349Y0336219D01*
X0178969Y0334722D01*
X0180115Y0333575D01*
X0181613Y0332955D01*
X0183234Y0332955D01*
X0183234Y0331105D02*
X0181613Y0331105D01*
X0180115Y0330485D01*
X0178969Y0329338D01*
X0178349Y0327840D01*
X0178349Y0326219D01*
X0178969Y0324722D01*
X0180115Y0323575D01*
X0181613Y0322955D01*
X0183234Y0322955D01*
X0184732Y0323575D01*
X0185878Y0324722D01*
X0186499Y0326219D01*
X0186499Y0327840D01*
X0185878Y0329338D01*
X0184732Y0330485D01*
X0183234Y0331105D01*
X0184143Y0330729D02*
X0190705Y0330729D01*
X0189561Y0329930D02*
X0185286Y0329930D01*
X0185964Y0329132D02*
X0188883Y0329132D01*
X0188553Y0328333D02*
X0186295Y0328333D01*
X0186499Y0327535D02*
X0188349Y0327535D01*
X0188349Y0326736D02*
X0186499Y0326736D01*
X0186382Y0325938D02*
X0188465Y0325938D01*
X0188796Y0325139D02*
X0186051Y0325139D01*
X0185497Y0324341D02*
X0189350Y0324341D01*
X0190196Y0323542D02*
X0184652Y0323542D01*
X0184868Y0320348D02*
X0189979Y0320348D01*
X0189180Y0319549D02*
X0185667Y0319549D01*
X0186121Y0318751D02*
X0188726Y0318751D01*
X0188395Y0317952D02*
X0186452Y0317952D01*
X0186499Y0317154D02*
X0188349Y0317154D01*
X0188349Y0316355D02*
X0186499Y0316355D01*
X0186224Y0315557D02*
X0188623Y0315557D01*
X0188954Y0314758D02*
X0185893Y0314758D01*
X0185117Y0313960D02*
X0189731Y0313960D01*
X0179979Y0320348D02*
X0174868Y0320348D01*
X0175667Y0319549D02*
X0179180Y0319549D01*
X0178726Y0318751D02*
X0176121Y0318751D01*
X0176452Y0317952D02*
X0178395Y0317952D01*
X0178349Y0317154D02*
X0176499Y0317154D01*
X0176499Y0316355D02*
X0178349Y0316355D01*
X0178623Y0315557D02*
X0176224Y0315557D01*
X0175893Y0314758D02*
X0178954Y0314758D01*
X0179731Y0313960D02*
X0175117Y0313960D01*
X0169731Y0313960D02*
X0165117Y0313960D01*
X0165893Y0314758D02*
X0168954Y0314758D01*
X0168623Y0315557D02*
X0166224Y0315557D01*
X0166499Y0316355D02*
X0168349Y0316355D01*
X0168349Y0317154D02*
X0166499Y0317154D01*
X0166452Y0317952D02*
X0168395Y0317952D01*
X0168726Y0318751D02*
X0166121Y0318751D01*
X0165667Y0319549D02*
X0169180Y0319549D01*
X0169979Y0320348D02*
X0164868Y0320348D01*
X0163234Y0322955D02*
X0164732Y0323575D01*
X0165878Y0324722D01*
X0166499Y0326219D01*
X0166499Y0327840D01*
X0165878Y0329338D01*
X0164732Y0330485D01*
X0163234Y0331105D01*
X0161613Y0331105D01*
X0160115Y0330485D01*
X0158969Y0329338D01*
X0158349Y0327840D01*
X0158349Y0326219D01*
X0158969Y0324722D01*
X0160115Y0323575D01*
X0161613Y0322955D01*
X0163234Y0322955D01*
X0164652Y0323542D02*
X0170196Y0323542D01*
X0170115Y0323575D02*
X0171613Y0322955D01*
X0173234Y0322955D01*
X0174732Y0323575D01*
X0175878Y0324722D01*
X0176499Y0326219D01*
X0176499Y0327840D01*
X0175878Y0329338D01*
X0174732Y0330485D01*
X0173234Y0331105D01*
X0171613Y0331105D01*
X0170115Y0330485D01*
X0168969Y0329338D01*
X0168349Y0327840D01*
X0168349Y0326219D01*
X0168969Y0324722D01*
X0170115Y0323575D01*
X0169350Y0324341D02*
X0165497Y0324341D01*
X0166051Y0325139D02*
X0168796Y0325139D01*
X0168465Y0325938D02*
X0166382Y0325938D01*
X0166499Y0326736D02*
X0168349Y0326736D01*
X0168349Y0327535D02*
X0166499Y0327535D01*
X0166295Y0328333D02*
X0168553Y0328333D01*
X0168883Y0329132D02*
X0165964Y0329132D01*
X0165286Y0329930D02*
X0169561Y0329930D01*
X0170705Y0330729D02*
X0164143Y0330729D01*
X0163234Y0332955D02*
X0161613Y0332955D01*
X0160115Y0333575D01*
X0158969Y0334722D01*
X0158349Y0336219D01*
X0158349Y0337840D01*
X0158969Y0339338D01*
X0160115Y0340485D01*
X0161613Y0341105D01*
X0163234Y0341105D01*
X0164732Y0340485D01*
X0165878Y0339338D01*
X0166499Y0337840D01*
X0166499Y0336219D01*
X0165878Y0334722D01*
X0164732Y0333575D01*
X0163234Y0332955D01*
X0163643Y0333124D02*
X0171204Y0333124D01*
X0171613Y0332955D02*
X0170115Y0333575D01*
X0168969Y0334722D01*
X0168349Y0336219D01*
X0168349Y0337840D01*
X0168969Y0339338D01*
X0170115Y0340485D01*
X0171613Y0341105D01*
X0173234Y0341105D01*
X0174732Y0340485D01*
X0175878Y0339338D01*
X0176499Y0337840D01*
X0176499Y0336219D01*
X0175878Y0334722D01*
X0174732Y0333575D01*
X0173234Y0332955D01*
X0171613Y0332955D01*
X0173643Y0333124D02*
X0181204Y0333124D01*
X0179768Y0333923D02*
X0175079Y0333923D01*
X0175878Y0334721D02*
X0178969Y0334721D01*
X0178638Y0335520D02*
X0176209Y0335520D01*
X0176499Y0336318D02*
X0178349Y0336318D01*
X0178349Y0337117D02*
X0176499Y0337117D01*
X0176468Y0337915D02*
X0178380Y0337915D01*
X0178710Y0338714D02*
X0176137Y0338714D01*
X0175704Y0339512D02*
X0179143Y0339512D01*
X0179942Y0340311D02*
X0174906Y0340311D01*
X0169942Y0340311D02*
X0164906Y0340311D01*
X0165704Y0339512D02*
X0169143Y0339512D01*
X0168710Y0338714D02*
X0166137Y0338714D01*
X0166468Y0337915D02*
X0168380Y0337915D01*
X0168349Y0337117D02*
X0166499Y0337117D01*
X0166499Y0336318D02*
X0168349Y0336318D01*
X0168638Y0335520D02*
X0166209Y0335520D01*
X0165878Y0334721D02*
X0168969Y0334721D01*
X0169768Y0333923D02*
X0165079Y0333923D01*
X0161204Y0333124D02*
X0153643Y0333124D01*
X0153234Y0332955D02*
X0154732Y0333575D01*
X0155878Y0334722D01*
X0156499Y0336219D01*
X0156499Y0337840D01*
X0155878Y0339338D01*
X0154732Y0340485D01*
X0153234Y0341105D01*
X0151613Y0341105D01*
X0150115Y0340485D01*
X0148969Y0339338D01*
X0148349Y0337840D01*
X0148349Y0336219D01*
X0148969Y0334722D01*
X0150115Y0333575D01*
X0151613Y0332955D01*
X0153234Y0332955D01*
X0153234Y0331105D02*
X0151613Y0331105D01*
X0150115Y0330485D01*
X0148969Y0329338D01*
X0148349Y0327840D01*
X0148349Y0326219D01*
X0148969Y0324722D01*
X0150115Y0323575D01*
X0151613Y0322955D01*
X0153234Y0322955D01*
X0154732Y0323575D01*
X0155878Y0324722D01*
X0156499Y0326219D01*
X0156499Y0327840D01*
X0155878Y0329338D01*
X0154732Y0330485D01*
X0153234Y0331105D01*
X0154143Y0330729D02*
X0160705Y0330729D01*
X0159561Y0329930D02*
X0155286Y0329930D01*
X0155964Y0329132D02*
X0158883Y0329132D01*
X0158553Y0328333D02*
X0156295Y0328333D01*
X0156499Y0327535D02*
X0158349Y0327535D01*
X0158349Y0326736D02*
X0156499Y0326736D01*
X0156382Y0325938D02*
X0158465Y0325938D01*
X0158796Y0325139D02*
X0156051Y0325139D01*
X0155497Y0324341D02*
X0159350Y0324341D01*
X0160196Y0323542D02*
X0154652Y0323542D01*
X0154868Y0320348D02*
X0159979Y0320348D01*
X0159180Y0319549D02*
X0155667Y0319549D01*
X0156121Y0318751D02*
X0158726Y0318751D01*
X0158395Y0317952D02*
X0156452Y0317952D01*
X0156499Y0317154D02*
X0158349Y0317154D01*
X0158349Y0316355D02*
X0156499Y0316355D01*
X0156224Y0315557D02*
X0158623Y0315557D01*
X0158954Y0314758D02*
X0155893Y0314758D01*
X0155117Y0313960D02*
X0159731Y0313960D01*
X0149979Y0320348D02*
X0144868Y0320348D01*
X0145667Y0319549D02*
X0149180Y0319549D01*
X0148726Y0318751D02*
X0146121Y0318751D01*
X0146452Y0317952D02*
X0148395Y0317952D01*
X0148349Y0317154D02*
X0146499Y0317154D01*
X0146499Y0316355D02*
X0148349Y0316355D01*
X0148623Y0315557D02*
X0146224Y0315557D01*
X0145893Y0314758D02*
X0148954Y0314758D01*
X0149731Y0313960D02*
X0145117Y0313960D01*
X0139731Y0313960D02*
X0135117Y0313960D01*
X0135893Y0314758D02*
X0138954Y0314758D01*
X0138623Y0315557D02*
X0136224Y0315557D01*
X0136499Y0316355D02*
X0138349Y0316355D01*
X0138349Y0317154D02*
X0136499Y0317154D01*
X0136452Y0317952D02*
X0138395Y0317952D01*
X0138726Y0318751D02*
X0136121Y0318751D01*
X0135667Y0319549D02*
X0139180Y0319549D01*
X0139979Y0320348D02*
X0134868Y0320348D01*
X0133234Y0322955D02*
X0134732Y0323575D01*
X0135878Y0324722D01*
X0136499Y0326219D01*
X0136499Y0327840D01*
X0135878Y0329338D01*
X0134732Y0330485D01*
X0133234Y0331105D01*
X0131613Y0331105D01*
X0130115Y0330485D01*
X0128969Y0329338D01*
X0128349Y0327840D01*
X0128349Y0326219D01*
X0128969Y0324722D01*
X0130115Y0323575D01*
X0131613Y0322955D01*
X0133234Y0322955D01*
X0134652Y0323542D02*
X0140196Y0323542D01*
X0140115Y0323575D02*
X0141613Y0322955D01*
X0143234Y0322955D01*
X0144732Y0323575D01*
X0145878Y0324722D01*
X0146499Y0326219D01*
X0146499Y0327840D01*
X0145878Y0329338D01*
X0144732Y0330485D01*
X0143234Y0331105D01*
X0141613Y0331105D01*
X0140115Y0330485D01*
X0138969Y0329338D01*
X0138349Y0327840D01*
X0138349Y0326219D01*
X0138969Y0324722D01*
X0140115Y0323575D01*
X0139350Y0324341D02*
X0135497Y0324341D01*
X0136051Y0325139D02*
X0138796Y0325139D01*
X0138465Y0325938D02*
X0136382Y0325938D01*
X0136499Y0326736D02*
X0138349Y0326736D01*
X0138349Y0327535D02*
X0136499Y0327535D01*
X0136295Y0328333D02*
X0138553Y0328333D01*
X0138883Y0329132D02*
X0135964Y0329132D01*
X0135286Y0329930D02*
X0139561Y0329930D01*
X0140705Y0330729D02*
X0134143Y0330729D01*
X0133234Y0332955D02*
X0131613Y0332955D01*
X0130115Y0333575D01*
X0128969Y0334722D01*
X0128349Y0336219D01*
X0128349Y0337840D01*
X0128969Y0339338D01*
X0130115Y0340485D01*
X0131613Y0341105D01*
X0133234Y0341105D01*
X0134732Y0340485D01*
X0135878Y0339338D01*
X0136499Y0337840D01*
X0136499Y0336219D01*
X0135878Y0334722D01*
X0134732Y0333575D01*
X0133234Y0332955D01*
X0133643Y0333124D02*
X0141204Y0333124D01*
X0141613Y0332955D02*
X0140115Y0333575D01*
X0138969Y0334722D01*
X0138349Y0336219D01*
X0138349Y0337840D01*
X0138969Y0339338D01*
X0140115Y0340485D01*
X0141613Y0341105D01*
X0143234Y0341105D01*
X0144732Y0340485D01*
X0145878Y0339338D01*
X0146499Y0337840D01*
X0146499Y0336219D01*
X0145878Y0334722D01*
X0144732Y0333575D01*
X0143234Y0332955D01*
X0141613Y0332955D01*
X0143643Y0333124D02*
X0151204Y0333124D01*
X0149768Y0333923D02*
X0145079Y0333923D01*
X0145878Y0334721D02*
X0148969Y0334721D01*
X0148638Y0335520D02*
X0146209Y0335520D01*
X0146499Y0336318D02*
X0148349Y0336318D01*
X0148349Y0337117D02*
X0146499Y0337117D01*
X0146468Y0337915D02*
X0148380Y0337915D01*
X0148710Y0338714D02*
X0146137Y0338714D01*
X0145704Y0339512D02*
X0149143Y0339512D01*
X0149942Y0340311D02*
X0144906Y0340311D01*
X0139942Y0340311D02*
X0134906Y0340311D01*
X0135704Y0339512D02*
X0139143Y0339512D01*
X0138710Y0338714D02*
X0136137Y0338714D01*
X0136468Y0337915D02*
X0138380Y0337915D01*
X0138349Y0337117D02*
X0136499Y0337117D01*
X0136499Y0336318D02*
X0138349Y0336318D01*
X0138638Y0335520D02*
X0136209Y0335520D01*
X0135878Y0334721D02*
X0138969Y0334721D01*
X0139768Y0333923D02*
X0135079Y0333923D01*
X0131204Y0333124D02*
X0123643Y0333124D01*
X0123234Y0332955D02*
X0124732Y0333575D01*
X0125878Y0334722D01*
X0126499Y0336219D01*
X0126499Y0337840D01*
X0125878Y0339338D01*
X0124732Y0340485D01*
X0123234Y0341105D01*
X0121613Y0341105D01*
X0120115Y0340485D01*
X0118969Y0339338D01*
X0118349Y0337840D01*
X0118349Y0336219D01*
X0118969Y0334722D01*
X0120115Y0333575D01*
X0121613Y0332955D01*
X0123234Y0332955D01*
X0123234Y0331105D02*
X0121613Y0331105D01*
X0120115Y0330485D01*
X0118969Y0329338D01*
X0118349Y0327840D01*
X0118349Y0326219D01*
X0118969Y0324722D01*
X0120115Y0323575D01*
X0121613Y0322955D01*
X0123234Y0322955D01*
X0124732Y0323575D01*
X0125878Y0324722D01*
X0126499Y0326219D01*
X0126499Y0327840D01*
X0125878Y0329338D01*
X0124732Y0330485D01*
X0123234Y0331105D01*
X0124143Y0330729D02*
X0130705Y0330729D01*
X0129561Y0329930D02*
X0125286Y0329930D01*
X0125964Y0329132D02*
X0128883Y0329132D01*
X0128553Y0328333D02*
X0126295Y0328333D01*
X0126499Y0327535D02*
X0128349Y0327535D01*
X0128349Y0326736D02*
X0126499Y0326736D01*
X0126382Y0325938D02*
X0128465Y0325938D01*
X0128796Y0325139D02*
X0126051Y0325139D01*
X0125497Y0324341D02*
X0129350Y0324341D01*
X0130196Y0323542D02*
X0124652Y0323542D01*
X0124868Y0320348D02*
X0129979Y0320348D01*
X0129180Y0319549D02*
X0125667Y0319549D01*
X0126121Y0318751D02*
X0128726Y0318751D01*
X0128395Y0317952D02*
X0126452Y0317952D01*
X0126499Y0317154D02*
X0128349Y0317154D01*
X0128349Y0316355D02*
X0126499Y0316355D01*
X0126224Y0315557D02*
X0128623Y0315557D01*
X0128954Y0314758D02*
X0125893Y0314758D01*
X0125117Y0313960D02*
X0129731Y0313960D01*
X0119979Y0320348D02*
X0114868Y0320348D01*
X0115667Y0319549D02*
X0119180Y0319549D01*
X0118726Y0318751D02*
X0116121Y0318751D01*
X0116452Y0317952D02*
X0118395Y0317952D01*
X0118349Y0317154D02*
X0116499Y0317154D01*
X0116499Y0316355D02*
X0118349Y0316355D01*
X0118623Y0315557D02*
X0116224Y0315557D01*
X0115893Y0314758D02*
X0118954Y0314758D01*
X0119731Y0313960D02*
X0115117Y0313960D01*
X0109731Y0313960D02*
X0105117Y0313960D01*
X0105893Y0314758D02*
X0108954Y0314758D01*
X0108623Y0315557D02*
X0106224Y0315557D01*
X0106499Y0316355D02*
X0108349Y0316355D01*
X0108349Y0317154D02*
X0106499Y0317154D01*
X0106452Y0317952D02*
X0108395Y0317952D01*
X0108726Y0318751D02*
X0106121Y0318751D01*
X0105667Y0319549D02*
X0109180Y0319549D01*
X0109979Y0320348D02*
X0104868Y0320348D01*
X0103234Y0322955D02*
X0104732Y0323575D01*
X0105878Y0324722D01*
X0106499Y0326219D01*
X0106499Y0327840D01*
X0105878Y0329338D01*
X0104732Y0330485D01*
X0103234Y0331105D01*
X0101613Y0331105D01*
X0100115Y0330485D01*
X0098969Y0329338D01*
X0098349Y0327840D01*
X0098349Y0326219D01*
X0098969Y0324722D01*
X0100115Y0323575D01*
X0101613Y0322955D01*
X0103234Y0322955D01*
X0104652Y0323542D02*
X0110196Y0323542D01*
X0110115Y0323575D02*
X0111613Y0322955D01*
X0113234Y0322955D01*
X0114732Y0323575D01*
X0115878Y0324722D01*
X0116499Y0326219D01*
X0116499Y0327840D01*
X0115878Y0329338D01*
X0114732Y0330485D01*
X0113234Y0331105D01*
X0111613Y0331105D01*
X0110115Y0330485D01*
X0108969Y0329338D01*
X0108349Y0327840D01*
X0108349Y0326219D01*
X0108969Y0324722D01*
X0110115Y0323575D01*
X0109350Y0324341D02*
X0105497Y0324341D01*
X0106051Y0325139D02*
X0108796Y0325139D01*
X0108465Y0325938D02*
X0106382Y0325938D01*
X0106499Y0326736D02*
X0108349Y0326736D01*
X0108349Y0327535D02*
X0106499Y0327535D01*
X0106295Y0328333D02*
X0108553Y0328333D01*
X0108883Y0329132D02*
X0105964Y0329132D01*
X0105286Y0329930D02*
X0109561Y0329930D01*
X0110705Y0330729D02*
X0104143Y0330729D01*
X0103234Y0332955D02*
X0101613Y0332955D01*
X0100115Y0333575D01*
X0098969Y0334722D01*
X0098349Y0336219D01*
X0098349Y0337840D01*
X0098969Y0339338D01*
X0100115Y0340485D01*
X0101613Y0341105D01*
X0103234Y0341105D01*
X0104732Y0340485D01*
X0105878Y0339338D01*
X0106499Y0337840D01*
X0106499Y0336219D01*
X0105878Y0334722D01*
X0104732Y0333575D01*
X0103234Y0332955D01*
X0103643Y0333124D02*
X0111204Y0333124D01*
X0111613Y0332955D02*
X0110115Y0333575D01*
X0108969Y0334722D01*
X0108349Y0336219D01*
X0108349Y0337840D01*
X0108969Y0339338D01*
X0110115Y0340485D01*
X0111613Y0341105D01*
X0113234Y0341105D01*
X0114732Y0340485D01*
X0115878Y0339338D01*
X0116499Y0337840D01*
X0116499Y0336219D01*
X0115878Y0334722D01*
X0114732Y0333575D01*
X0113234Y0332955D01*
X0111613Y0332955D01*
X0113643Y0333124D02*
X0121204Y0333124D01*
X0119768Y0333923D02*
X0115079Y0333923D01*
X0115878Y0334721D02*
X0118969Y0334721D01*
X0118638Y0335520D02*
X0116209Y0335520D01*
X0116499Y0336318D02*
X0118349Y0336318D01*
X0118349Y0337117D02*
X0116499Y0337117D01*
X0116468Y0337915D02*
X0118380Y0337915D01*
X0118710Y0338714D02*
X0116137Y0338714D01*
X0115704Y0339512D02*
X0119143Y0339512D01*
X0119942Y0340311D02*
X0114906Y0340311D01*
X0109942Y0340311D02*
X0104906Y0340311D01*
X0105704Y0339512D02*
X0109143Y0339512D01*
X0108710Y0338714D02*
X0106137Y0338714D01*
X0106468Y0337915D02*
X0108380Y0337915D01*
X0108349Y0337117D02*
X0106499Y0337117D01*
X0106499Y0336318D02*
X0108349Y0336318D01*
X0108638Y0335520D02*
X0106209Y0335520D01*
X0105878Y0334721D02*
X0108969Y0334721D01*
X0109768Y0333923D02*
X0105079Y0333923D01*
X0101204Y0333124D02*
X0093643Y0333124D01*
X0095079Y0333923D02*
X0099768Y0333923D01*
X0098969Y0334721D02*
X0095878Y0334721D01*
X0096209Y0335520D02*
X0098638Y0335520D01*
X0098349Y0336318D02*
X0096499Y0336318D01*
X0096499Y0337117D02*
X0098349Y0337117D01*
X0098380Y0337915D02*
X0096468Y0337915D01*
X0096137Y0338714D02*
X0098710Y0338714D01*
X0099143Y0339512D02*
X0095704Y0339512D01*
X0094906Y0340311D02*
X0099942Y0340311D01*
X0089942Y0340311D02*
X0084906Y0340311D01*
X0085704Y0339512D02*
X0089143Y0339512D01*
X0088710Y0338714D02*
X0086137Y0338714D01*
X0086468Y0337915D02*
X0088380Y0337915D01*
X0088349Y0337117D02*
X0086499Y0337117D01*
X0086499Y0336318D02*
X0088349Y0336318D01*
X0088638Y0335520D02*
X0086209Y0335520D01*
X0085878Y0334721D02*
X0088969Y0334721D01*
X0089768Y0333923D02*
X0085079Y0333923D01*
X0079768Y0333923D02*
X0075079Y0333923D01*
X0075878Y0334721D02*
X0078969Y0334721D01*
X0078638Y0335520D02*
X0076209Y0335520D01*
X0076499Y0336318D02*
X0078349Y0336318D01*
X0078349Y0337117D02*
X0076499Y0337117D01*
X0076468Y0337915D02*
X0078380Y0337915D01*
X0078710Y0338714D02*
X0076137Y0338714D01*
X0075704Y0339512D02*
X0079143Y0339512D01*
X0079942Y0340311D02*
X0074906Y0340311D01*
X0069942Y0340311D02*
X0065890Y0340311D01*
X0065878Y0340338D02*
X0064732Y0341485D01*
X0063234Y0342105D01*
X0061613Y0342105D01*
X0060115Y0341485D01*
X0058969Y0340338D01*
X0058349Y0338840D01*
X0058349Y0337219D01*
X0058969Y0335722D01*
X0060115Y0334575D01*
X0061613Y0333955D01*
X0063234Y0333955D01*
X0064732Y0334575D01*
X0065878Y0335722D01*
X0066499Y0337219D01*
X0066499Y0338840D01*
X0065878Y0340338D01*
X0066220Y0339512D02*
X0069143Y0339512D01*
X0068710Y0338714D02*
X0066499Y0338714D01*
X0066499Y0337915D02*
X0068380Y0337915D01*
X0068349Y0337117D02*
X0066456Y0337117D01*
X0066125Y0336318D02*
X0068349Y0336318D01*
X0068638Y0335520D02*
X0065676Y0335520D01*
X0064878Y0334721D02*
X0068969Y0334721D01*
X0069768Y0333923D02*
X0040267Y0333923D01*
X0040598Y0334721D02*
X0059969Y0334721D01*
X0059171Y0335520D02*
X0040820Y0335520D01*
X0040820Y0335258D02*
X0039464Y0331984D01*
X0036958Y0329478D01*
X0033684Y0328121D01*
X0030140Y0328121D01*
X0026865Y0329478D01*
X0024359Y0331984D01*
X0023003Y0335258D01*
X0023003Y0338802D01*
X0024359Y0342076D01*
X0026865Y0344582D01*
X0030140Y0345939D01*
X0033684Y0345939D01*
X0036958Y0344582D01*
X0039464Y0342076D01*
X0040820Y0338802D01*
X0040820Y0335258D01*
X0040820Y0336318D02*
X0058722Y0336318D01*
X0058391Y0337117D02*
X0040820Y0337117D01*
X0040820Y0337915D02*
X0058349Y0337915D01*
X0058349Y0338714D02*
X0040820Y0338714D01*
X0040526Y0339512D02*
X0058627Y0339512D01*
X0058958Y0340311D02*
X0040195Y0340311D01*
X0039865Y0341109D02*
X0059740Y0341109D01*
X0061137Y0341908D02*
X0039534Y0341908D01*
X0038834Y0342706D02*
X0258460Y0342706D01*
X0258458Y0341908D02*
X0063710Y0341908D01*
X0065107Y0341109D02*
X0251144Y0341109D01*
X0252024Y0341109D02*
X0252824Y0341109D01*
X0252824Y0340311D02*
X0252024Y0340311D01*
X0252024Y0339512D02*
X0252824Y0339512D01*
X0252824Y0338714D02*
X0252024Y0338714D01*
X0252024Y0337915D02*
X0252824Y0337915D01*
X0252824Y0337117D02*
X0258349Y0337117D01*
X0258349Y0336318D02*
X0256639Y0336318D01*
X0256428Y0335520D02*
X0258443Y0335520D01*
X0258441Y0334721D02*
X0256030Y0334721D01*
X0255362Y0333923D02*
X0258439Y0333923D01*
X0258380Y0337915D02*
X0256612Y0337915D01*
X0256364Y0338714D02*
X0258450Y0338714D01*
X0258452Y0339512D02*
X0255904Y0339512D01*
X0255181Y0340311D02*
X0258454Y0340311D01*
X0258456Y0341109D02*
X0253703Y0341109D01*
X0258462Y0343505D02*
X0038036Y0343505D01*
X0037237Y0344303D02*
X0258464Y0344303D01*
X0258466Y0345102D02*
X0035704Y0345102D01*
X0033776Y0345900D02*
X0258467Y0345900D01*
X0258469Y0346699D02*
X0024181Y0346699D01*
X0023383Y0345900D02*
X0030047Y0345900D01*
X0028120Y0345102D02*
X0022584Y0345102D01*
X0021786Y0344303D02*
X0026586Y0344303D01*
X0025788Y0343505D02*
X0020987Y0343505D01*
X0020189Y0342706D02*
X0024989Y0342706D01*
X0024290Y0341908D02*
X0019390Y0341908D01*
X0018592Y0341109D02*
X0023959Y0341109D01*
X0023628Y0340311D02*
X0017793Y0340311D01*
X0016995Y0339512D02*
X0023297Y0339512D01*
X0023003Y0338714D02*
X0016196Y0338714D01*
X0015398Y0337915D02*
X0023003Y0337915D01*
X0023003Y0337117D02*
X0014658Y0337117D01*
X0014658Y0336318D02*
X0023003Y0336318D01*
X0023003Y0335520D02*
X0014658Y0335520D01*
X0014658Y0334721D02*
X0023225Y0334721D01*
X0023556Y0333923D02*
X0014658Y0333923D01*
X0014658Y0333124D02*
X0023887Y0333124D01*
X0024218Y0332326D02*
X0014658Y0332326D01*
X0014658Y0331527D02*
X0024816Y0331527D01*
X0025614Y0330729D02*
X0014658Y0330729D01*
X0014658Y0329930D02*
X0026413Y0329930D01*
X0027701Y0329132D02*
X0014658Y0329132D01*
X0014658Y0328333D02*
X0029628Y0328333D01*
X0034195Y0328333D02*
X0058349Y0328333D01*
X0058349Y0327535D02*
X0014658Y0327535D01*
X0014658Y0326736D02*
X0058549Y0326736D01*
X0058880Y0325938D02*
X0014658Y0325938D01*
X0014658Y0325139D02*
X0059552Y0325139D01*
X0060682Y0324341D02*
X0014658Y0324341D01*
X0014658Y0321945D02*
X0061227Y0321945D01*
X0059777Y0321146D02*
X0014658Y0321146D01*
X0014658Y0320348D02*
X0058979Y0320348D01*
X0058642Y0319549D02*
X0014658Y0319549D01*
X0014658Y0318751D02*
X0058349Y0318751D01*
X0058349Y0317952D02*
X0014658Y0317952D01*
X0014658Y0317154D02*
X0058376Y0317154D01*
X0058706Y0316355D02*
X0014658Y0316355D01*
X0014658Y0315557D02*
X0059134Y0315557D01*
X0059932Y0314758D02*
X0014658Y0314758D01*
X0036123Y0329132D02*
X0058469Y0329132D01*
X0058800Y0329930D02*
X0037411Y0329930D01*
X0038209Y0330729D02*
X0059359Y0330729D01*
X0060218Y0331527D02*
X0039008Y0331527D01*
X0024980Y0347497D02*
X0258471Y0347497D01*
X0258473Y0348296D02*
X0025778Y0348296D01*
X0026577Y0349094D02*
X0258475Y0349094D01*
X0258477Y0349893D02*
X0027375Y0349893D01*
X0028174Y0350691D02*
X0258479Y0350691D01*
X0258481Y0351490D02*
X0028972Y0351490D01*
X0029771Y0352288D02*
X0258482Y0352288D01*
X0258484Y0353087D02*
X0030569Y0353087D01*
X0031368Y0353885D02*
X0258486Y0353885D01*
X0258430Y0329930D02*
X0255569Y0329930D01*
X0256151Y0329132D02*
X0258428Y0329132D01*
X0258426Y0328333D02*
X0256495Y0328333D01*
X0256672Y0327535D02*
X0258349Y0327535D01*
X0258360Y0300385D02*
X0200107Y0300385D01*
X0200713Y0299587D02*
X0258358Y0299587D01*
X0258356Y0298788D02*
X0200987Y0298788D01*
X0200987Y0297990D02*
X0258355Y0297990D01*
X0258326Y0286012D02*
X0242481Y0286012D01*
X0242868Y0285213D02*
X0258324Y0285213D01*
X0258323Y0284415D02*
X0242987Y0284415D01*
X0242887Y0283616D02*
X0258321Y0283616D01*
X0258321Y0282818D02*
X0242526Y0282818D01*
X0241596Y0282019D02*
X0258321Y0282019D01*
X0210196Y0323542D02*
X0204652Y0323542D01*
X0205497Y0324341D02*
X0209350Y0324341D01*
X0208796Y0325139D02*
X0206051Y0325139D01*
X0206382Y0325938D02*
X0208465Y0325938D01*
X0208349Y0326736D02*
X0206499Y0326736D01*
X0206499Y0327535D02*
X0208349Y0327535D01*
X0208553Y0328333D02*
X0206295Y0328333D01*
X0205964Y0329132D02*
X0208883Y0329132D01*
X0209561Y0329930D02*
X0205286Y0329930D01*
X0204143Y0330729D02*
X0210705Y0330729D01*
X0215079Y0333923D02*
X0219768Y0333923D01*
X0218969Y0334721D02*
X0215878Y0334721D01*
X0216209Y0335520D02*
X0218638Y0335520D01*
X0218349Y0336318D02*
X0216499Y0336318D01*
X0216499Y0337117D02*
X0218349Y0337117D01*
X0218380Y0337915D02*
X0216468Y0337915D01*
X0216137Y0338714D02*
X0218710Y0338714D01*
X0219143Y0339512D02*
X0215704Y0339512D01*
X0214906Y0340311D02*
X0219942Y0340311D01*
X0189942Y0340311D02*
X0184906Y0340311D01*
X0185704Y0339512D02*
X0189143Y0339512D01*
X0188710Y0338714D02*
X0186137Y0338714D01*
X0186468Y0337915D02*
X0188380Y0337915D01*
X0188349Y0337117D02*
X0186499Y0337117D01*
X0186499Y0336318D02*
X0188349Y0336318D01*
X0188638Y0335520D02*
X0186209Y0335520D01*
X0185878Y0334721D02*
X0188969Y0334721D01*
X0189768Y0333923D02*
X0185079Y0333923D01*
X0180705Y0330729D02*
X0174143Y0330729D01*
X0175286Y0329930D02*
X0179561Y0329930D01*
X0178883Y0329132D02*
X0175964Y0329132D01*
X0176295Y0328333D02*
X0178553Y0328333D01*
X0178349Y0327535D02*
X0176499Y0327535D01*
X0176499Y0326736D02*
X0178349Y0326736D01*
X0178465Y0325938D02*
X0176382Y0325938D01*
X0176051Y0325139D02*
X0178796Y0325139D01*
X0179350Y0324341D02*
X0175497Y0324341D01*
X0174652Y0323542D02*
X0180196Y0323542D01*
X0159768Y0333923D02*
X0155079Y0333923D01*
X0155878Y0334721D02*
X0158969Y0334721D01*
X0158638Y0335520D02*
X0156209Y0335520D01*
X0156499Y0336318D02*
X0158349Y0336318D01*
X0158349Y0337117D02*
X0156499Y0337117D01*
X0156468Y0337915D02*
X0158380Y0337915D01*
X0158710Y0338714D02*
X0156137Y0338714D01*
X0155704Y0339512D02*
X0159143Y0339512D01*
X0159942Y0340311D02*
X0154906Y0340311D01*
X0150705Y0330729D02*
X0144143Y0330729D01*
X0145286Y0329930D02*
X0149561Y0329930D01*
X0148883Y0329132D02*
X0145964Y0329132D01*
X0146295Y0328333D02*
X0148553Y0328333D01*
X0148349Y0327535D02*
X0146499Y0327535D01*
X0146499Y0326736D02*
X0148349Y0326736D01*
X0148465Y0325938D02*
X0146382Y0325938D01*
X0146051Y0325139D02*
X0148796Y0325139D01*
X0149350Y0324341D02*
X0145497Y0324341D01*
X0144652Y0323542D02*
X0150196Y0323542D01*
X0129768Y0333923D02*
X0125079Y0333923D01*
X0125878Y0334721D02*
X0128969Y0334721D01*
X0128638Y0335520D02*
X0126209Y0335520D01*
X0126499Y0336318D02*
X0128349Y0336318D01*
X0128349Y0337117D02*
X0126499Y0337117D01*
X0126468Y0337915D02*
X0128380Y0337915D01*
X0128710Y0338714D02*
X0126137Y0338714D01*
X0125704Y0339512D02*
X0129143Y0339512D01*
X0129942Y0340311D02*
X0124906Y0340311D01*
X0120705Y0330729D02*
X0114143Y0330729D01*
X0115286Y0329930D02*
X0119561Y0329930D01*
X0118883Y0329132D02*
X0115964Y0329132D01*
X0116295Y0328333D02*
X0118553Y0328333D01*
X0118349Y0327535D02*
X0116499Y0327535D01*
X0116499Y0326736D02*
X0118349Y0326736D01*
X0118465Y0325938D02*
X0116382Y0325938D01*
X0116051Y0325139D02*
X0118796Y0325139D01*
X0119350Y0324341D02*
X0115497Y0324341D01*
X0114652Y0323542D02*
X0120196Y0323542D01*
X0100196Y0323542D02*
X0094652Y0323542D01*
X0095497Y0324341D02*
X0099350Y0324341D01*
X0098796Y0325139D02*
X0096051Y0325139D01*
X0096382Y0325938D02*
X0098465Y0325938D01*
X0098349Y0326736D02*
X0096499Y0326736D01*
X0096499Y0327535D02*
X0098349Y0327535D01*
X0098553Y0328333D02*
X0096295Y0328333D01*
X0095964Y0329132D02*
X0098883Y0329132D01*
X0099561Y0329930D02*
X0095286Y0329930D01*
X0094143Y0330729D02*
X0100705Y0330729D01*
X0099979Y0320348D02*
X0094868Y0320348D01*
X0095667Y0319549D02*
X0099180Y0319549D01*
X0098726Y0318751D02*
X0096121Y0318751D01*
X0096452Y0317952D02*
X0098395Y0317952D01*
X0098349Y0317154D02*
X0096499Y0317154D01*
X0096499Y0316355D02*
X0098349Y0316355D01*
X0098623Y0315557D02*
X0096224Y0315557D01*
X0095893Y0314758D02*
X0098954Y0314758D01*
X0099731Y0313960D02*
X0095117Y0313960D01*
X0058498Y0286792D02*
X0056898Y0288392D01*
X0027122Y0282019D02*
X0014658Y0282019D01*
X0014658Y0281221D02*
X0026730Y0281221D01*
X0026609Y0280422D02*
X0014658Y0280422D01*
X0014658Y0279624D02*
X0026705Y0279624D01*
X0026609Y0278825D02*
X0014658Y0278825D01*
X0014658Y0278027D02*
X0026609Y0278027D01*
X0026869Y0277228D02*
X0014658Y0277228D01*
X0014658Y0276430D02*
X0027457Y0276430D01*
X0156272Y0174220D02*
X0258298Y0174220D01*
X0258298Y0173422D02*
X0156782Y0173422D01*
X0156987Y0172623D02*
X0258298Y0172623D01*
X0258298Y0171825D02*
X0156973Y0171825D01*
X0156945Y0171026D02*
X0258298Y0171026D01*
X0258297Y0170228D02*
X0156987Y0170228D01*
X0156809Y0169429D02*
X0258297Y0169429D01*
X0258297Y0168631D02*
X0156339Y0168631D01*
X0209609Y0127907D02*
X0014658Y0127907D01*
X0014658Y0128705D02*
X0016723Y0128705D01*
X0015746Y0129504D02*
X0014658Y0129504D01*
X0014658Y0130302D02*
X0015117Y0130302D01*
X0014786Y0131101D02*
X0014658Y0131101D01*
X0014658Y0133496D02*
X0014709Y0133496D01*
X0014658Y0134295D02*
X0015040Y0134295D01*
X0014658Y0135093D02*
X0015559Y0135093D01*
X0020872Y0128705D02*
X0209931Y0128705D01*
X0179372Y0099160D02*
X0258290Y0099160D01*
X0258290Y0098362D02*
X0179703Y0098362D01*
X0179713Y0097563D02*
X0258290Y0097563D01*
X0258290Y0096765D02*
X0179621Y0096765D01*
X0179290Y0095966D02*
X0258290Y0095966D01*
X0258290Y0095168D02*
X0178626Y0095168D01*
X0174219Y0091974D02*
X0258290Y0091974D01*
X0258290Y0092772D02*
X0173476Y0092772D01*
X0174550Y0091175D02*
X0258290Y0091175D01*
X0258290Y0090377D02*
X0237116Y0090377D01*
X0237717Y0089578D02*
X0258290Y0089578D01*
X0258290Y0088780D02*
X0237987Y0088780D01*
X0237987Y0087981D02*
X0258290Y0087981D01*
X0258290Y0087183D02*
X0237707Y0087183D01*
X0237092Y0086384D02*
X0258290Y0086384D01*
X0258290Y0085586D02*
X0235874Y0085586D01*
X0235495Y0084787D02*
X0258290Y0084787D01*
X0258290Y0083989D02*
X0234522Y0083989D01*
X0230715Y0087183D02*
X0173038Y0087183D01*
X0173945Y0087981D02*
X0231084Y0087981D01*
X0232035Y0088780D02*
X0174413Y0088780D01*
X0174698Y0089578D02*
X0232878Y0089578D01*
X0233479Y0090377D02*
X0174698Y0090377D01*
X0266231Y0090377D02*
X0360189Y0090377D01*
X0360189Y0091175D02*
X0266229Y0091175D01*
X0266228Y0091974D02*
X0360189Y0091974D01*
X0360189Y0092772D02*
X0266226Y0092772D01*
X0266225Y0093571D02*
X0360189Y0093571D01*
X0360189Y0094369D02*
X0266223Y0094369D01*
X0266222Y0095168D02*
X0360189Y0095168D01*
X0360189Y0095966D02*
X0266220Y0095966D01*
X0266219Y0096765D02*
X0287080Y0096765D01*
X0286919Y0096832D02*
X0288462Y0096192D01*
X0290133Y0096192D01*
X0291677Y0096832D01*
X0292858Y0098013D01*
X0293498Y0099557D01*
X0293498Y0101228D01*
X0292858Y0102771D01*
X0291677Y0103953D01*
X0290133Y0104592D01*
X0288462Y0104592D01*
X0286919Y0103953D01*
X0285737Y0102771D01*
X0285098Y0101228D01*
X0285098Y0099557D01*
X0285737Y0098013D01*
X0286919Y0096832D01*
X0286187Y0097563D02*
X0266217Y0097563D01*
X0266216Y0098362D02*
X0285593Y0098362D01*
X0285262Y0099160D02*
X0266214Y0099160D01*
X0266213Y0099959D02*
X0285098Y0099959D01*
X0285098Y0100757D02*
X0266211Y0100757D01*
X0266210Y0101556D02*
X0285234Y0101556D01*
X0285564Y0102354D02*
X0266208Y0102354D01*
X0266207Y0103153D02*
X0286119Y0103153D01*
X0286917Y0103951D02*
X0266206Y0103951D01*
X0266204Y0104750D02*
X0360189Y0104750D01*
X0360189Y0105548D02*
X0266203Y0105548D01*
X0266201Y0106347D02*
X0288088Y0106347D01*
X0288462Y0106192D02*
X0290133Y0106192D01*
X0291677Y0106832D01*
X0292858Y0108013D01*
X0293498Y0109557D01*
X0293498Y0111228D01*
X0292858Y0112771D01*
X0291677Y0113953D01*
X0290133Y0114592D01*
X0288462Y0114592D01*
X0286919Y0113953D01*
X0285737Y0112771D01*
X0285098Y0111228D01*
X0285098Y0109557D01*
X0285737Y0108013D01*
X0286919Y0106832D01*
X0288462Y0106192D01*
X0290507Y0106347D02*
X0298088Y0106347D01*
X0298462Y0106192D02*
X0296919Y0106832D01*
X0295737Y0108013D01*
X0295098Y0109557D01*
X0295098Y0111228D01*
X0295737Y0112771D01*
X0296919Y0113953D01*
X0298462Y0114592D01*
X0300133Y0114592D01*
X0301677Y0113953D01*
X0302858Y0112771D01*
X0303498Y0111228D01*
X0303498Y0109557D01*
X0302858Y0108013D01*
X0301677Y0106832D01*
X0300133Y0106192D01*
X0298462Y0106192D01*
X0298462Y0104592D02*
X0296919Y0103953D01*
X0295737Y0102771D01*
X0295098Y0101228D01*
X0295098Y0099557D01*
X0295737Y0098013D01*
X0296919Y0096832D01*
X0298462Y0096192D01*
X0300133Y0096192D01*
X0301677Y0096832D01*
X0302858Y0098013D01*
X0303498Y0099557D01*
X0303498Y0101228D01*
X0302858Y0102771D01*
X0301677Y0103953D01*
X0300133Y0104592D01*
X0298462Y0104592D01*
X0296917Y0103951D02*
X0291678Y0103951D01*
X0292477Y0103153D02*
X0296119Y0103153D01*
X0295564Y0102354D02*
X0293031Y0102354D01*
X0293362Y0101556D02*
X0295234Y0101556D01*
X0295098Y0100757D02*
X0293498Y0100757D01*
X0293498Y0099959D02*
X0295098Y0099959D01*
X0295262Y0099160D02*
X0293333Y0099160D01*
X0293003Y0098362D02*
X0295593Y0098362D01*
X0296187Y0097563D02*
X0292409Y0097563D01*
X0291516Y0096765D02*
X0297080Y0096765D01*
X0301516Y0096765D02*
X0307080Y0096765D01*
X0306919Y0096832D02*
X0308462Y0096192D01*
X0310133Y0096192D01*
X0311677Y0096832D01*
X0312858Y0098013D01*
X0313498Y0099557D01*
X0313498Y0101228D01*
X0312858Y0102771D01*
X0311677Y0103953D01*
X0310133Y0104592D01*
X0308462Y0104592D01*
X0306919Y0103953D01*
X0305737Y0102771D01*
X0305098Y0101228D01*
X0305098Y0099557D01*
X0305737Y0098013D01*
X0306919Y0096832D01*
X0306187Y0097563D02*
X0302409Y0097563D01*
X0303003Y0098362D02*
X0305593Y0098362D01*
X0305262Y0099160D02*
X0303333Y0099160D01*
X0303498Y0099959D02*
X0305098Y0099959D01*
X0305098Y0100757D02*
X0303498Y0100757D01*
X0303362Y0101556D02*
X0305234Y0101556D01*
X0305564Y0102354D02*
X0303031Y0102354D01*
X0302477Y0103153D02*
X0306119Y0103153D01*
X0306917Y0103951D02*
X0301678Y0103951D01*
X0300507Y0106347D02*
X0308088Y0106347D01*
X0308462Y0106192D02*
X0306919Y0106832D01*
X0305737Y0108013D01*
X0305098Y0109557D01*
X0305098Y0111228D01*
X0305737Y0112771D01*
X0306919Y0113953D01*
X0308462Y0114592D01*
X0310133Y0114592D01*
X0311677Y0113953D01*
X0312858Y0112771D01*
X0313498Y0111228D01*
X0313498Y0109557D01*
X0312858Y0108013D01*
X0311677Y0106832D01*
X0310133Y0106192D01*
X0308462Y0106192D01*
X0310507Y0106347D02*
X0360189Y0106347D01*
X0360189Y0107145D02*
X0311991Y0107145D01*
X0312789Y0107944D02*
X0360189Y0107944D01*
X0360189Y0108742D02*
X0313160Y0108742D01*
X0313491Y0109541D02*
X0360189Y0109541D01*
X0360189Y0110340D02*
X0313498Y0110340D01*
X0313498Y0111138D02*
X0360189Y0111138D01*
X0360189Y0111937D02*
X0313204Y0111937D01*
X0312873Y0112735D02*
X0360189Y0112735D01*
X0360189Y0113534D02*
X0312096Y0113534D01*
X0310761Y0114332D02*
X0360189Y0114332D01*
X0360189Y0115131D02*
X0266185Y0115131D01*
X0266183Y0115929D02*
X0360189Y0115929D01*
X0360189Y0116728D02*
X0266182Y0116728D01*
X0266180Y0117526D02*
X0360189Y0117526D01*
X0360189Y0118325D02*
X0266179Y0118325D01*
X0266177Y0119123D02*
X0360189Y0119123D01*
X0360189Y0119922D02*
X0266176Y0119922D01*
X0266174Y0120720D02*
X0360189Y0120720D01*
X0360189Y0121519D02*
X0266173Y0121519D01*
X0266171Y0122317D02*
X0360189Y0122317D01*
X0360189Y0123116D02*
X0266170Y0123116D01*
X0266168Y0123914D02*
X0360189Y0123914D01*
X0360189Y0124713D02*
X0266167Y0124713D01*
X0266165Y0125511D02*
X0360189Y0125511D01*
X0360189Y0126310D02*
X0266164Y0126310D01*
X0266164Y0126400D02*
X0291754Y0126400D01*
X0291754Y0130552D01*
X0292100Y0130695D01*
X0292994Y0131590D01*
X0293479Y0132759D01*
X0293479Y0134025D01*
X0292994Y0135194D01*
X0292100Y0136089D01*
X0291754Y0136232D01*
X0291754Y0138211D01*
X0307502Y0138211D01*
X0307502Y0126400D01*
X0360189Y0126400D01*
X0360189Y0072005D01*
X0359793Y0025464D01*
X0343240Y0008912D01*
X0266298Y0008912D01*
X0266298Y0039392D01*
X0298400Y0039392D01*
X0297917Y0038225D01*
X0297917Y0036959D01*
X0298401Y0035790D01*
X0299296Y0034895D01*
X0300465Y0034411D01*
X0301730Y0034411D01*
X0302900Y0034895D01*
X0303794Y0035790D01*
X0304279Y0036959D01*
X0304279Y0038225D01*
X0303795Y0039392D01*
X0308298Y0039392D01*
X0308298Y0054392D01*
X0266298Y0054392D01*
X0266164Y0126400D01*
X0266186Y0114332D02*
X0287834Y0114332D01*
X0286499Y0113534D02*
X0266188Y0113534D01*
X0266189Y0112735D02*
X0285722Y0112735D01*
X0285391Y0111937D02*
X0266191Y0111937D01*
X0266192Y0111138D02*
X0285098Y0111138D01*
X0285098Y0110340D02*
X0266194Y0110340D01*
X0266195Y0109541D02*
X0285104Y0109541D01*
X0285435Y0108742D02*
X0266197Y0108742D01*
X0266198Y0107944D02*
X0285806Y0107944D01*
X0286605Y0107145D02*
X0266200Y0107145D01*
X0266232Y0089578D02*
X0360189Y0089578D01*
X0360189Y0088780D02*
X0266234Y0088780D01*
X0266235Y0087981D02*
X0360189Y0087981D01*
X0360189Y0087183D02*
X0266237Y0087183D01*
X0266238Y0086384D02*
X0360189Y0086384D01*
X0360189Y0085586D02*
X0266240Y0085586D01*
X0266241Y0084787D02*
X0360189Y0084787D01*
X0360189Y0083989D02*
X0266243Y0083989D01*
X0266244Y0083190D02*
X0360189Y0083190D01*
X0360189Y0082392D02*
X0266246Y0082392D01*
X0266247Y0081593D02*
X0360189Y0081593D01*
X0360189Y0080795D02*
X0266249Y0080795D01*
X0266250Y0079996D02*
X0360189Y0079996D01*
X0360189Y0079198D02*
X0266252Y0079198D01*
X0266253Y0078399D02*
X0360189Y0078399D01*
X0360189Y0077601D02*
X0266255Y0077601D01*
X0266256Y0076802D02*
X0360189Y0076802D01*
X0360189Y0076004D02*
X0266257Y0076004D01*
X0266259Y0075205D02*
X0360189Y0075205D01*
X0360189Y0074406D02*
X0266260Y0074406D01*
X0266262Y0073608D02*
X0360189Y0073608D01*
X0360189Y0072809D02*
X0266263Y0072809D01*
X0266265Y0072011D02*
X0360189Y0072011D01*
X0360182Y0071212D02*
X0266266Y0071212D01*
X0266268Y0070414D02*
X0360175Y0070414D01*
X0360169Y0069615D02*
X0266269Y0069615D01*
X0266271Y0068817D02*
X0360162Y0068817D01*
X0360155Y0068018D02*
X0266272Y0068018D01*
X0266274Y0067220D02*
X0360148Y0067220D01*
X0360141Y0066421D02*
X0266275Y0066421D01*
X0266277Y0065623D02*
X0360135Y0065623D01*
X0360128Y0064824D02*
X0266278Y0064824D01*
X0266280Y0064026D02*
X0360121Y0064026D01*
X0360114Y0063227D02*
X0266281Y0063227D01*
X0266283Y0062429D02*
X0360107Y0062429D01*
X0360101Y0061630D02*
X0266284Y0061630D01*
X0266286Y0060832D02*
X0360094Y0060832D01*
X0360087Y0060033D02*
X0266287Y0060033D01*
X0266289Y0059235D02*
X0360080Y0059235D01*
X0360073Y0058436D02*
X0266290Y0058436D01*
X0266292Y0057638D02*
X0360067Y0057638D01*
X0360060Y0056839D02*
X0266293Y0056839D01*
X0266298Y0056839D02*
X0293298Y0056839D01*
X0293298Y0057392D02*
X0266298Y0057392D01*
X0266298Y0037392D01*
X0293298Y0037392D01*
X0293298Y0047129D01*
X0292530Y0046811D01*
X0291265Y0046811D01*
X0290096Y0047295D01*
X0289201Y0048190D01*
X0288717Y0049359D01*
X0288717Y0050625D01*
X0289201Y0051794D01*
X0290096Y0052689D01*
X0291265Y0053173D01*
X0292530Y0053173D01*
X0293298Y0052855D01*
X0293298Y0057392D01*
X0293298Y0056041D02*
X0266298Y0056041D01*
X0266295Y0056041D02*
X0360053Y0056041D01*
X0360046Y0055242D02*
X0266296Y0055242D01*
X0266298Y0055242D02*
X0293298Y0055242D01*
X0293298Y0054444D02*
X0266298Y0054444D01*
X0360040Y0054444D01*
X0360033Y0053645D02*
X0308298Y0053645D01*
X0308298Y0052847D02*
X0360026Y0052847D01*
X0360019Y0052048D02*
X0308298Y0052048D01*
X0308298Y0051250D02*
X0360012Y0051250D01*
X0360006Y0050451D02*
X0308298Y0050451D01*
X0308298Y0049653D02*
X0359999Y0049653D01*
X0359992Y0048854D02*
X0308298Y0048854D01*
X0308298Y0048056D02*
X0359985Y0048056D01*
X0359978Y0047257D02*
X0308298Y0047257D01*
X0308298Y0046459D02*
X0359972Y0046459D01*
X0359965Y0045660D02*
X0308298Y0045660D01*
X0308298Y0044862D02*
X0359958Y0044862D01*
X0359951Y0044063D02*
X0308298Y0044063D01*
X0308298Y0043265D02*
X0359944Y0043265D01*
X0359938Y0042466D02*
X0308298Y0042466D01*
X0308298Y0041668D02*
X0359931Y0041668D01*
X0359924Y0040869D02*
X0308298Y0040869D01*
X0308298Y0040071D02*
X0359917Y0040071D01*
X0359910Y0039272D02*
X0303845Y0039272D01*
X0304176Y0038473D02*
X0359904Y0038473D01*
X0359897Y0037675D02*
X0304279Y0037675D01*
X0304244Y0036876D02*
X0359890Y0036876D01*
X0359883Y0036078D02*
X0303914Y0036078D01*
X0303284Y0035279D02*
X0359876Y0035279D01*
X0359870Y0034481D02*
X0345755Y0034481D01*
X0344707Y0034915D02*
X0341163Y0034915D01*
X0337889Y0033559D01*
X0335383Y0031053D01*
X0334027Y0027778D01*
X0334027Y0024234D01*
X0335383Y0020960D01*
X0337889Y0018454D01*
X0341163Y0017098D01*
X0344707Y0017098D01*
X0347982Y0018454D01*
X0350488Y0020960D01*
X0351844Y0024234D01*
X0351844Y0027778D01*
X0350488Y0031053D01*
X0347982Y0033559D01*
X0344707Y0034915D01*
X0347683Y0033682D02*
X0359863Y0033682D01*
X0359856Y0032884D02*
X0348657Y0032884D01*
X0349455Y0032085D02*
X0359849Y0032085D01*
X0359842Y0031287D02*
X0350254Y0031287D01*
X0350722Y0030488D02*
X0359836Y0030488D01*
X0359829Y0029690D02*
X0351052Y0029690D01*
X0351383Y0028891D02*
X0359822Y0028891D01*
X0359815Y0028093D02*
X0351714Y0028093D01*
X0351844Y0027294D02*
X0359808Y0027294D01*
X0359802Y0026496D02*
X0351844Y0026496D01*
X0351844Y0025697D02*
X0359795Y0025697D01*
X0359227Y0024899D02*
X0351844Y0024899D01*
X0351789Y0024100D02*
X0358429Y0024100D01*
X0357630Y0023302D02*
X0351458Y0023302D01*
X0351127Y0022503D02*
X0356832Y0022503D01*
X0356033Y0021705D02*
X0350796Y0021705D01*
X0350434Y0020906D02*
X0355235Y0020906D01*
X0354436Y0020108D02*
X0349636Y0020108D01*
X0348837Y0019309D02*
X0353638Y0019309D01*
X0352839Y0018511D02*
X0348039Y0018511D01*
X0346191Y0017712D02*
X0352041Y0017712D01*
X0351242Y0016914D02*
X0266298Y0016914D01*
X0266298Y0017712D02*
X0339680Y0017712D01*
X0337832Y0018511D02*
X0266298Y0018511D01*
X0266298Y0019309D02*
X0337034Y0019309D01*
X0336235Y0020108D02*
X0266298Y0020108D01*
X0266298Y0020906D02*
X0335437Y0020906D01*
X0335075Y0021705D02*
X0266298Y0021705D01*
X0266298Y0022503D02*
X0334744Y0022503D01*
X0334413Y0023302D02*
X0266298Y0023302D01*
X0266298Y0024100D02*
X0334082Y0024100D01*
X0334027Y0024899D02*
X0266298Y0024899D01*
X0266298Y0025697D02*
X0334027Y0025697D01*
X0334027Y0026496D02*
X0266298Y0026496D01*
X0266298Y0027294D02*
X0334027Y0027294D01*
X0334157Y0028093D02*
X0266298Y0028093D01*
X0266298Y0028891D02*
X0334488Y0028891D01*
X0334819Y0029690D02*
X0266298Y0029690D01*
X0266298Y0030488D02*
X0335149Y0030488D01*
X0335617Y0031287D02*
X0266298Y0031287D01*
X0266298Y0032085D02*
X0336416Y0032085D01*
X0337214Y0032884D02*
X0266298Y0032884D01*
X0266298Y0033682D02*
X0338188Y0033682D01*
X0340116Y0034481D02*
X0301899Y0034481D01*
X0300296Y0034481D02*
X0266298Y0034481D01*
X0266298Y0035279D02*
X0298912Y0035279D01*
X0298282Y0036078D02*
X0266298Y0036078D01*
X0266298Y0036876D02*
X0297951Y0036876D01*
X0297917Y0037675D02*
X0266298Y0037675D01*
X0293298Y0037675D01*
X0293298Y0038473D02*
X0266298Y0038473D01*
X0298020Y0038473D01*
X0298350Y0039272D02*
X0266298Y0039272D01*
X0293298Y0039272D01*
X0293298Y0040071D02*
X0266298Y0040071D01*
X0266298Y0040869D02*
X0293298Y0040869D01*
X0293298Y0041668D02*
X0266298Y0041668D01*
X0266298Y0042466D02*
X0293298Y0042466D01*
X0293298Y0043265D02*
X0266298Y0043265D01*
X0266298Y0044063D02*
X0293298Y0044063D01*
X0293298Y0044862D02*
X0266298Y0044862D01*
X0266298Y0045660D02*
X0293298Y0045660D01*
X0293298Y0046459D02*
X0266298Y0046459D01*
X0266298Y0047257D02*
X0290188Y0047257D01*
X0289335Y0048056D02*
X0266298Y0048056D01*
X0266298Y0048854D02*
X0288926Y0048854D01*
X0288717Y0049653D02*
X0266298Y0049653D01*
X0266298Y0050451D02*
X0288717Y0050451D01*
X0288975Y0051250D02*
X0266298Y0051250D01*
X0266298Y0052048D02*
X0289455Y0052048D01*
X0290477Y0052847D02*
X0266298Y0052847D01*
X0266298Y0053645D02*
X0293298Y0053645D01*
X0298298Y0056392D02*
X0299098Y0056392D01*
X0304698Y0056392D02*
X0305098Y0057992D01*
X0288698Y0061992D02*
X0285898Y0066592D01*
X0311516Y0096765D02*
X0360189Y0096765D01*
X0360189Y0097563D02*
X0312409Y0097563D01*
X0313003Y0098362D02*
X0360189Y0098362D01*
X0360189Y0099160D02*
X0313333Y0099160D01*
X0313498Y0099959D02*
X0360189Y0099959D01*
X0360189Y0100757D02*
X0313498Y0100757D01*
X0313362Y0101556D02*
X0360189Y0101556D01*
X0360189Y0102354D02*
X0313031Y0102354D01*
X0312477Y0103153D02*
X0360189Y0103153D01*
X0360189Y0103951D02*
X0311678Y0103951D01*
X0306605Y0107145D02*
X0301991Y0107145D01*
X0302789Y0107944D02*
X0305806Y0107944D01*
X0305435Y0108742D02*
X0303160Y0108742D01*
X0303491Y0109541D02*
X0305104Y0109541D01*
X0305098Y0110340D02*
X0303498Y0110340D01*
X0303498Y0111138D02*
X0305098Y0111138D01*
X0305391Y0111937D02*
X0303204Y0111937D01*
X0302873Y0112735D02*
X0305722Y0112735D01*
X0306499Y0113534D02*
X0302096Y0113534D01*
X0300761Y0114332D02*
X0307834Y0114332D01*
X0297834Y0114332D02*
X0290761Y0114332D01*
X0292096Y0113534D02*
X0296499Y0113534D01*
X0295722Y0112735D02*
X0292873Y0112735D01*
X0293204Y0111937D02*
X0295391Y0111937D01*
X0295098Y0111138D02*
X0293498Y0111138D01*
X0293498Y0110340D02*
X0295098Y0110340D01*
X0295104Y0109541D02*
X0293491Y0109541D01*
X0293160Y0108742D02*
X0295435Y0108742D01*
X0295806Y0107944D02*
X0292789Y0107944D01*
X0291991Y0107145D02*
X0296605Y0107145D01*
X0291754Y0127108D02*
X0307502Y0127108D01*
X0307502Y0127907D02*
X0291754Y0127907D01*
X0291754Y0128705D02*
X0307502Y0128705D01*
X0307502Y0129504D02*
X0291754Y0129504D01*
X0291754Y0130302D02*
X0307502Y0130302D01*
X0307502Y0131101D02*
X0292505Y0131101D01*
X0293122Y0131899D02*
X0307502Y0131899D01*
X0307502Y0132698D02*
X0293453Y0132698D01*
X0293479Y0133496D02*
X0307502Y0133496D01*
X0307502Y0134295D02*
X0293367Y0134295D01*
X0293036Y0135093D02*
X0307502Y0135093D01*
X0307502Y0135892D02*
X0292297Y0135892D01*
X0291754Y0136690D02*
X0307502Y0136690D01*
X0307502Y0137489D02*
X0291754Y0137489D01*
X0277975Y0141164D02*
X0276991Y0141164D01*
X0258307Y0216542D02*
X0235250Y0216542D01*
X0235772Y0217340D02*
X0258307Y0217340D01*
X0258307Y0218139D02*
X0235987Y0218139D01*
X0235982Y0218937D02*
X0258308Y0218937D01*
X0258308Y0219736D02*
X0235652Y0219736D01*
X0234958Y0220534D02*
X0258308Y0220534D01*
X0266298Y0016115D02*
X0350444Y0016115D01*
X0349645Y0015317D02*
X0266298Y0015317D01*
X0266298Y0014518D02*
X0348847Y0014518D01*
X0348048Y0013720D02*
X0266298Y0013720D01*
X0266298Y0012921D02*
X0347250Y0012921D01*
X0346451Y0012123D02*
X0266298Y0012123D01*
X0266298Y0011324D02*
X0345653Y0011324D01*
X0344854Y0010526D02*
X0266298Y0010526D01*
X0266298Y0009727D02*
X0344056Y0009727D01*
X0343257Y0008929D02*
X0266298Y0008929D01*
X0016634Y0108742D02*
X0014658Y0108742D01*
X0014658Y0109541D02*
X0015709Y0109541D01*
X0015102Y0110340D02*
X0014658Y0110340D01*
X0014658Y0111138D02*
X0014771Y0111138D01*
X0014724Y0113534D02*
X0014658Y0113534D01*
X0014658Y0114332D02*
X0015055Y0114332D01*
X0014658Y0115131D02*
X0015596Y0115131D01*
X0016395Y0115929D02*
X0014658Y0115929D01*
D18*
X0262227Y0129353D02*
X0262227Y0302555D01*
X0263314Y0302555D01*
X0264959Y0303236D01*
X0266217Y0304495D01*
X0266899Y0306140D01*
X0266899Y0307920D01*
X0266217Y0309565D01*
X0264959Y0310824D01*
X0263314Y0311505D01*
X0262227Y0311505D01*
X0262227Y0312555D01*
X0263314Y0312555D01*
X0264959Y0313236D01*
X0266217Y0314495D01*
X0266899Y0316140D01*
X0266899Y0317920D01*
X0266217Y0319565D01*
X0264959Y0320824D01*
X0263314Y0321505D01*
X0262227Y0321505D01*
X0262227Y0322555D01*
X0263314Y0322555D01*
X0264959Y0323236D01*
X0266217Y0324495D01*
X0266899Y0326140D01*
X0266899Y0327920D01*
X0266217Y0329565D01*
X0264959Y0330824D01*
X0263314Y0331505D01*
X0262227Y0331505D01*
X0262227Y0332555D01*
X0263314Y0332555D01*
X0264959Y0333236D01*
X0266217Y0334495D01*
X0266899Y0336140D01*
X0266899Y0337920D01*
X0266217Y0339565D01*
X0264959Y0340824D01*
X0263314Y0341505D01*
X0262227Y0341505D01*
X0262227Y0353883D01*
X0342916Y0353883D01*
X0359789Y0337010D01*
X0359789Y0206266D01*
X0359760Y0206335D01*
X0358466Y0207629D01*
X0356776Y0208329D01*
X0354946Y0208329D01*
X0353255Y0207629D01*
X0351961Y0206335D01*
X0351261Y0204644D01*
X0351261Y0202814D01*
X0351961Y0201123D01*
X0353255Y0199829D01*
X0354946Y0199129D01*
X0356776Y0199129D01*
X0358466Y0199829D01*
X0359760Y0201123D01*
X0359789Y0201193D01*
X0359789Y0186488D01*
X0359522Y0186856D01*
X0358988Y0187390D01*
X0358376Y0187834D01*
X0357703Y0188177D01*
X0356985Y0188411D01*
X0356238Y0188529D01*
X0356061Y0188529D01*
X0356061Y0183929D01*
X0355661Y0183929D01*
X0355661Y0188529D01*
X0355483Y0188529D01*
X0354737Y0188411D01*
X0354018Y0188177D01*
X0353345Y0187834D01*
X0352734Y0187390D01*
X0352199Y0186856D01*
X0351755Y0186245D01*
X0351412Y0185572D01*
X0351179Y0184853D01*
X0351061Y0184107D01*
X0351061Y0183929D01*
X0355661Y0183929D01*
X0355661Y0183529D01*
X0356061Y0183529D01*
X0356061Y0178929D01*
X0356238Y0178929D01*
X0356985Y0179047D01*
X0357703Y0179281D01*
X0358376Y0179624D01*
X0358988Y0180068D01*
X0359522Y0180602D01*
X0359789Y0180970D01*
X0359789Y0166266D01*
X0359760Y0166335D01*
X0358466Y0167629D01*
X0356776Y0168329D01*
X0354946Y0168329D01*
X0353255Y0167629D01*
X0351961Y0166335D01*
X0351261Y0164644D01*
X0351261Y0162814D01*
X0351961Y0161123D01*
X0353255Y0159829D01*
X0354946Y0159129D01*
X0356776Y0159129D01*
X0358466Y0159829D01*
X0359760Y0161123D01*
X0359789Y0161193D01*
X0359789Y0146266D01*
X0359760Y0146335D01*
X0358466Y0147629D01*
X0356776Y0148329D01*
X0354946Y0148329D01*
X0353255Y0147629D01*
X0351961Y0146335D01*
X0351261Y0144644D01*
X0351261Y0142814D01*
X0351961Y0141123D01*
X0353255Y0139829D01*
X0354946Y0139129D01*
X0356776Y0139129D01*
X0358466Y0139829D01*
X0359760Y0141123D01*
X0359789Y0141193D01*
X0359789Y0129353D01*
X0356315Y0129353D01*
X0357466Y0129829D01*
X0358760Y0131123D01*
X0359461Y0132814D01*
X0359461Y0134644D01*
X0358760Y0136335D01*
X0357466Y0137629D01*
X0355776Y0138329D01*
X0353946Y0138329D01*
X0352255Y0137629D01*
X0350961Y0136335D01*
X0350261Y0134644D01*
X0350261Y0132814D01*
X0350961Y0131123D01*
X0352255Y0129829D01*
X0353406Y0129353D01*
X0262227Y0129353D01*
X0262227Y0130247D02*
X0288532Y0130247D01*
X0288269Y0130356D02*
X0289585Y0129811D01*
X0291010Y0129811D01*
X0292326Y0130356D01*
X0293334Y0131364D01*
X0293879Y0132680D01*
X0293879Y0134104D01*
X0293334Y0135421D01*
X0292326Y0136428D01*
X0291010Y0136973D01*
X0289585Y0136973D01*
X0288269Y0136428D01*
X0287262Y0135421D01*
X0286717Y0134104D01*
X0286717Y0132680D01*
X0287262Y0131364D01*
X0288269Y0130356D01*
X0287062Y0131846D02*
X0262227Y0131846D01*
X0262227Y0133444D02*
X0286717Y0133444D01*
X0287105Y0135043D02*
X0262227Y0135043D01*
X0262227Y0136641D02*
X0288784Y0136641D01*
X0291811Y0136641D02*
X0331147Y0136641D01*
X0331262Y0136364D02*
X0332269Y0135356D01*
X0333585Y0134811D01*
X0335010Y0134811D01*
X0336326Y0135356D01*
X0337334Y0136364D01*
X0337879Y0137680D01*
X0337879Y0139104D01*
X0337334Y0140421D01*
X0336326Y0141428D01*
X0335010Y0141973D01*
X0333585Y0141973D01*
X0332269Y0141428D01*
X0331262Y0140421D01*
X0330717Y0139104D01*
X0330717Y0137680D01*
X0331262Y0136364D01*
X0330717Y0138240D02*
X0262227Y0138240D01*
X0262227Y0139838D02*
X0331021Y0139838D01*
X0332290Y0141437D02*
X0262227Y0141437D01*
X0262227Y0143035D02*
X0351261Y0143035D01*
X0351261Y0144634D02*
X0322710Y0144634D01*
X0323047Y0144773D02*
X0323916Y0145642D01*
X0324387Y0146778D01*
X0324387Y0148007D01*
X0323916Y0149142D01*
X0323047Y0150011D01*
X0321912Y0150481D01*
X0320683Y0150481D01*
X0319548Y0150011D01*
X0318679Y0149142D01*
X0318209Y0148007D01*
X0318209Y0146778D01*
X0318679Y0145642D01*
X0319548Y0144773D01*
X0320683Y0144303D01*
X0321912Y0144303D01*
X0323047Y0144773D01*
X0324161Y0146232D02*
X0351918Y0146232D01*
X0353743Y0147831D02*
X0324387Y0147831D01*
X0323629Y0149429D02*
X0353221Y0149429D01*
X0353946Y0149129D02*
X0355776Y0149129D01*
X0357466Y0149829D01*
X0358760Y0151123D01*
X0359461Y0152814D01*
X0359461Y0154644D01*
X0358760Y0156335D01*
X0357466Y0157629D01*
X0355776Y0158329D01*
X0353946Y0158329D01*
X0352255Y0157629D01*
X0350961Y0156335D01*
X0350261Y0154644D01*
X0350261Y0152814D01*
X0350961Y0151123D01*
X0352255Y0149829D01*
X0353946Y0149129D01*
X0356500Y0149429D02*
X0359789Y0149429D01*
X0359789Y0147831D02*
X0357979Y0147831D01*
X0358665Y0151028D02*
X0359789Y0151028D01*
X0359789Y0152626D02*
X0359383Y0152626D01*
X0359461Y0154225D02*
X0359789Y0154225D01*
X0359789Y0155823D02*
X0358972Y0155823D01*
X0359789Y0157422D02*
X0357673Y0157422D01*
X0359789Y0159020D02*
X0262227Y0159020D01*
X0262227Y0157422D02*
X0352048Y0157422D01*
X0350749Y0155823D02*
X0262227Y0155823D01*
X0262227Y0154225D02*
X0350261Y0154225D01*
X0350338Y0152626D02*
X0262227Y0152626D01*
X0262227Y0151028D02*
X0302632Y0151028D01*
X0302679Y0151142D02*
X0302209Y0150007D01*
X0302209Y0148778D01*
X0302679Y0147642D01*
X0303548Y0146773D01*
X0304683Y0146303D01*
X0305912Y0146303D01*
X0307047Y0146773D01*
X0307209Y0146935D01*
X0307209Y0146778D01*
X0307679Y0145642D01*
X0308548Y0144773D01*
X0309683Y0144303D01*
X0310912Y0144303D01*
X0312047Y0144773D01*
X0312916Y0145642D01*
X0313387Y0146778D01*
X0313387Y0148007D01*
X0312916Y0149142D01*
X0312047Y0150011D01*
X0310912Y0150481D01*
X0309683Y0150481D01*
X0308548Y0150011D01*
X0308387Y0149850D01*
X0308387Y0150007D01*
X0307916Y0151142D01*
X0307047Y0152011D01*
X0305912Y0152481D01*
X0304683Y0152481D01*
X0303548Y0152011D01*
X0302679Y0151142D01*
X0302209Y0149429D02*
X0262227Y0149429D01*
X0262227Y0147831D02*
X0302601Y0147831D01*
X0307435Y0146232D02*
X0262227Y0146232D01*
X0262227Y0144634D02*
X0308885Y0144634D01*
X0311710Y0144634D02*
X0319885Y0144634D01*
X0318435Y0146232D02*
X0313161Y0146232D01*
X0313387Y0147831D02*
X0318209Y0147831D01*
X0318966Y0149429D02*
X0312629Y0149429D01*
X0307964Y0151028D02*
X0351057Y0151028D01*
X0351831Y0141437D02*
X0336305Y0141437D01*
X0337575Y0139838D02*
X0353246Y0139838D01*
X0353730Y0138240D02*
X0337879Y0138240D01*
X0337449Y0136641D02*
X0351267Y0136641D01*
X0350426Y0135043D02*
X0335569Y0135043D01*
X0333026Y0135043D02*
X0325957Y0135043D01*
X0325916Y0135142D02*
X0325047Y0136011D01*
X0323912Y0136481D01*
X0322683Y0136481D01*
X0321548Y0136011D01*
X0320679Y0135142D01*
X0320209Y0134007D01*
X0320209Y0132778D01*
X0320679Y0131642D01*
X0321548Y0130773D01*
X0322683Y0130303D01*
X0323912Y0130303D01*
X0325047Y0130773D01*
X0325916Y0131642D01*
X0326387Y0132778D01*
X0326387Y0134007D01*
X0325916Y0135142D01*
X0326387Y0133444D02*
X0350261Y0133444D01*
X0350662Y0131846D02*
X0326001Y0131846D01*
X0320595Y0131846D02*
X0293533Y0131846D01*
X0293879Y0133444D02*
X0320209Y0133444D01*
X0320638Y0135043D02*
X0293490Y0135043D01*
X0292063Y0130247D02*
X0351837Y0130247D01*
X0357884Y0130247D02*
X0359789Y0130247D01*
X0359789Y0131846D02*
X0359059Y0131846D01*
X0359461Y0133444D02*
X0359789Y0133444D01*
X0359789Y0135043D02*
X0359296Y0135043D01*
X0359789Y0136641D02*
X0358454Y0136641D01*
X0359789Y0138240D02*
X0355991Y0138240D01*
X0358475Y0139838D02*
X0359789Y0139838D01*
X0359789Y0160619D02*
X0359256Y0160619D01*
X0352465Y0160619D02*
X0262227Y0160619D01*
X0262227Y0162217D02*
X0351508Y0162217D01*
X0351261Y0163816D02*
X0307988Y0163816D01*
X0307916Y0163642D02*
X0308387Y0164778D01*
X0308387Y0166007D01*
X0307916Y0167142D01*
X0307047Y0168011D01*
X0305912Y0168481D01*
X0304683Y0168481D01*
X0303548Y0168011D01*
X0302679Y0167142D01*
X0302209Y0166007D01*
X0302209Y0164778D01*
X0302679Y0163642D01*
X0303548Y0162773D01*
X0304683Y0162303D01*
X0305912Y0162303D01*
X0307047Y0162773D01*
X0307916Y0163642D01*
X0308387Y0165414D02*
X0351580Y0165414D01*
X0352639Y0167013D02*
X0307970Y0167013D01*
X0302626Y0167013D02*
X0262227Y0167013D01*
X0262227Y0168611D02*
X0359789Y0168611D01*
X0359789Y0167013D02*
X0359082Y0167013D01*
X0357376Y0169624D02*
X0357988Y0170068D01*
X0358522Y0170602D01*
X0358966Y0171213D01*
X0359309Y0171887D01*
X0359542Y0172605D01*
X0359661Y0173351D01*
X0359661Y0173529D01*
X0355061Y0173529D01*
X0355061Y0173929D01*
X0359661Y0173929D01*
X0359661Y0174107D01*
X0359542Y0174853D01*
X0359309Y0175572D01*
X0358966Y0176245D01*
X0358522Y0176856D01*
X0357988Y0177390D01*
X0357376Y0177834D01*
X0356703Y0178177D01*
X0355985Y0178411D01*
X0355238Y0178529D01*
X0355061Y0178529D01*
X0355061Y0173929D01*
X0354661Y0173929D01*
X0354661Y0178529D01*
X0354483Y0178529D01*
X0353737Y0178411D01*
X0353018Y0178177D01*
X0352345Y0177834D01*
X0351734Y0177390D01*
X0351199Y0176856D01*
X0350755Y0176245D01*
X0350412Y0175572D01*
X0350179Y0174853D01*
X0350061Y0174107D01*
X0350061Y0173929D01*
X0354661Y0173929D01*
X0354661Y0173529D01*
X0355061Y0173529D01*
X0355061Y0168929D01*
X0355238Y0168929D01*
X0355985Y0169047D01*
X0356703Y0169281D01*
X0357376Y0169624D01*
X0358130Y0170210D02*
X0359789Y0170210D01*
X0359789Y0171809D02*
X0359269Y0171809D01*
X0359661Y0173407D02*
X0359789Y0173407D01*
X0359789Y0175006D02*
X0359493Y0175006D01*
X0359789Y0176604D02*
X0358705Y0176604D01*
X0359789Y0178203D02*
X0356626Y0178203D01*
X0355661Y0178929D02*
X0355661Y0183529D01*
X0351061Y0183529D01*
X0351061Y0183351D01*
X0351179Y0182605D01*
X0351412Y0181887D01*
X0351755Y0181213D01*
X0352199Y0180602D01*
X0352734Y0180068D01*
X0353345Y0179624D01*
X0354018Y0179281D01*
X0354737Y0179047D01*
X0355483Y0178929D01*
X0355661Y0178929D01*
X0355661Y0179801D02*
X0356061Y0179801D01*
X0356061Y0181400D02*
X0355661Y0181400D01*
X0355661Y0182998D02*
X0356061Y0182998D01*
X0356061Y0184597D02*
X0355661Y0184597D01*
X0355661Y0186195D02*
X0356061Y0186195D01*
X0356061Y0187794D02*
X0355661Y0187794D01*
X0355776Y0189129D02*
X0357466Y0189829D01*
X0358760Y0191123D01*
X0359461Y0192814D01*
X0359461Y0194644D01*
X0358760Y0196335D01*
X0357466Y0197629D01*
X0355776Y0198329D01*
X0353946Y0198329D01*
X0352255Y0197629D01*
X0350961Y0196335D01*
X0350261Y0194644D01*
X0350261Y0192814D01*
X0350961Y0191123D01*
X0352255Y0189829D01*
X0353946Y0189129D01*
X0355776Y0189129D01*
X0356411Y0189392D02*
X0359789Y0189392D01*
X0359789Y0187794D02*
X0358433Y0187794D01*
X0358628Y0190991D02*
X0359789Y0190991D01*
X0359789Y0192589D02*
X0359367Y0192589D01*
X0359461Y0194188D02*
X0359789Y0194188D01*
X0359789Y0195786D02*
X0358988Y0195786D01*
X0359789Y0197385D02*
X0357710Y0197385D01*
X0359789Y0198983D02*
X0262227Y0198983D01*
X0262227Y0197385D02*
X0352011Y0197385D01*
X0350734Y0195786D02*
X0262227Y0195786D01*
X0262227Y0194188D02*
X0350261Y0194188D01*
X0350354Y0192589D02*
X0262227Y0192589D01*
X0262227Y0190991D02*
X0351094Y0190991D01*
X0353311Y0189392D02*
X0262227Y0189392D01*
X0262227Y0187794D02*
X0353289Y0187794D01*
X0351730Y0186195D02*
X0262227Y0186195D01*
X0262227Y0184597D02*
X0351138Y0184597D01*
X0351117Y0182998D02*
X0312976Y0182998D01*
X0312916Y0183142D02*
X0312047Y0184011D01*
X0310912Y0184481D01*
X0309683Y0184481D01*
X0308548Y0184011D01*
X0307679Y0183142D01*
X0307209Y0182007D01*
X0307209Y0180778D01*
X0307679Y0179642D01*
X0308548Y0178773D01*
X0309683Y0178303D01*
X0310316Y0178303D01*
X0310316Y0177670D01*
X0310786Y0176535D01*
X0311655Y0175666D01*
X0312791Y0175196D01*
X0314020Y0175196D01*
X0315155Y0175666D01*
X0316024Y0176535D01*
X0316494Y0177670D01*
X0316494Y0178899D01*
X0316024Y0180034D01*
X0315155Y0180903D01*
X0314020Y0181374D01*
X0313387Y0181374D01*
X0313387Y0182007D01*
X0312916Y0183142D01*
X0313387Y0181400D02*
X0351660Y0181400D01*
X0353101Y0179801D02*
X0316121Y0179801D01*
X0316494Y0178203D02*
X0353095Y0178203D01*
X0354661Y0178203D02*
X0355061Y0178203D01*
X0355061Y0176604D02*
X0354661Y0176604D01*
X0354661Y0175006D02*
X0355061Y0175006D01*
X0354661Y0173529D02*
X0350061Y0173529D01*
X0350061Y0173351D01*
X0350179Y0172605D01*
X0350412Y0171887D01*
X0350755Y0171213D01*
X0351199Y0170602D01*
X0351734Y0170068D01*
X0352345Y0169624D01*
X0353018Y0169281D01*
X0353737Y0169047D01*
X0354483Y0168929D01*
X0354661Y0168929D01*
X0354661Y0173529D01*
X0354661Y0173407D02*
X0355061Y0173407D01*
X0355061Y0171809D02*
X0354661Y0171809D01*
X0354661Y0170210D02*
X0355061Y0170210D01*
X0351592Y0170210D02*
X0262227Y0170210D01*
X0262227Y0171809D02*
X0350452Y0171809D01*
X0350061Y0173407D02*
X0262227Y0173407D01*
X0262227Y0175006D02*
X0350228Y0175006D01*
X0351016Y0176604D02*
X0316053Y0176604D01*
X0310758Y0176604D02*
X0262227Y0176604D01*
X0262227Y0178203D02*
X0310316Y0178203D01*
X0307613Y0179801D02*
X0262227Y0179801D01*
X0262227Y0181400D02*
X0307209Y0181400D01*
X0307619Y0182998D02*
X0262227Y0182998D01*
X0262227Y0200582D02*
X0352503Y0200582D01*
X0351523Y0202180D02*
X0262227Y0202180D01*
X0262227Y0203779D02*
X0351261Y0203779D01*
X0351564Y0205377D02*
X0262227Y0205377D01*
X0262227Y0206976D02*
X0352602Y0206976D01*
X0359119Y0206976D02*
X0359789Y0206976D01*
X0359789Y0208574D02*
X0262227Y0208574D01*
X0262227Y0210173D02*
X0359789Y0210173D01*
X0359789Y0211771D02*
X0262227Y0211771D01*
X0262227Y0213370D02*
X0359789Y0213370D01*
X0359789Y0214968D02*
X0335464Y0214968D01*
X0335229Y0214871D02*
X0336625Y0215449D01*
X0337694Y0216518D01*
X0338273Y0217915D01*
X0338273Y0219427D01*
X0337694Y0220823D01*
X0336625Y0221892D01*
X0335229Y0222471D01*
X0333717Y0222471D01*
X0332320Y0221892D01*
X0331251Y0220823D01*
X0330723Y0219547D01*
X0330194Y0220823D01*
X0329125Y0221892D01*
X0327729Y0222471D01*
X0326217Y0222471D01*
X0324820Y0221892D01*
X0323751Y0220823D01*
X0323173Y0219427D01*
X0323173Y0217915D01*
X0323751Y0216518D01*
X0324820Y0215449D01*
X0326217Y0214871D01*
X0327729Y0214871D01*
X0329125Y0215449D01*
X0330194Y0216518D01*
X0330723Y0217794D01*
X0331251Y0216518D01*
X0332320Y0215449D01*
X0333717Y0214871D01*
X0335229Y0214871D01*
X0333482Y0214968D02*
X0327964Y0214968D01*
X0325982Y0214968D02*
X0262227Y0214968D01*
X0262227Y0216567D02*
X0323731Y0216567D01*
X0323173Y0218165D02*
X0262227Y0218165D01*
X0262227Y0219764D02*
X0323312Y0219764D01*
X0322503Y0221362D02*
X0324290Y0221362D01*
X0322674Y0221533D02*
X0323252Y0222930D01*
X0323252Y0224442D01*
X0322674Y0225838D01*
X0321605Y0226907D01*
X0320208Y0227486D01*
X0318696Y0227486D01*
X0317300Y0226907D01*
X0317005Y0226612D01*
X0317005Y0228063D01*
X0316426Y0229460D01*
X0315357Y0230529D01*
X0313961Y0231107D01*
X0312449Y0231107D01*
X0311052Y0230529D01*
X0309983Y0229460D01*
X0309405Y0228063D01*
X0309405Y0226551D01*
X0309983Y0225155D01*
X0311052Y0224086D01*
X0312449Y0223507D01*
X0313961Y0223507D01*
X0315357Y0224086D01*
X0315652Y0224381D01*
X0315652Y0222930D01*
X0316231Y0221533D01*
X0317300Y0220464D01*
X0318696Y0219886D01*
X0320208Y0219886D01*
X0321605Y0220464D01*
X0322674Y0221533D01*
X0323252Y0222961D02*
X0359789Y0222961D01*
X0359789Y0224559D02*
X0323204Y0224559D01*
X0322354Y0226158D02*
X0359789Y0226158D01*
X0359789Y0227756D02*
X0317005Y0227756D01*
X0316470Y0229355D02*
X0359789Y0229355D01*
X0359789Y0230953D02*
X0314332Y0230953D01*
X0312078Y0230953D02*
X0309523Y0230953D01*
X0309523Y0230465D02*
X0308944Y0229068D01*
X0307875Y0227999D01*
X0306479Y0227420D01*
X0304967Y0227420D01*
X0303570Y0227999D01*
X0302501Y0229068D01*
X0301923Y0230465D01*
X0301923Y0231976D01*
X0302501Y0233373D01*
X0303570Y0234442D01*
X0304967Y0235020D01*
X0306479Y0235020D01*
X0307875Y0234442D01*
X0308944Y0233373D01*
X0309523Y0231976D01*
X0309523Y0230465D01*
X0309940Y0229355D02*
X0309063Y0229355D01*
X0309405Y0227756D02*
X0307290Y0227756D01*
X0309568Y0226158D02*
X0262227Y0226158D01*
X0262227Y0227756D02*
X0304156Y0227756D01*
X0302382Y0229355D02*
X0262227Y0229355D01*
X0262227Y0230953D02*
X0301923Y0230953D01*
X0302161Y0232552D02*
X0262227Y0232552D01*
X0262227Y0234150D02*
X0303279Y0234150D01*
X0308167Y0234150D02*
X0359789Y0234150D01*
X0359789Y0232552D02*
X0309284Y0232552D01*
X0310578Y0224559D02*
X0262227Y0224559D01*
X0262227Y0222961D02*
X0315652Y0222961D01*
X0316402Y0221362D02*
X0262227Y0221362D01*
X0262227Y0235749D02*
X0359789Y0235749D01*
X0359789Y0237347D02*
X0262227Y0237347D01*
X0262227Y0238946D02*
X0359789Y0238946D01*
X0359789Y0240544D02*
X0262227Y0240544D01*
X0262227Y0242143D02*
X0359789Y0242143D01*
X0359789Y0243742D02*
X0262227Y0243742D01*
X0262227Y0245340D02*
X0359789Y0245340D01*
X0359789Y0246939D02*
X0262227Y0246939D01*
X0262227Y0248537D02*
X0359789Y0248537D01*
X0359789Y0250136D02*
X0347193Y0250136D01*
X0347726Y0250356D02*
X0348734Y0251364D01*
X0349279Y0252680D01*
X0349279Y0254104D01*
X0348734Y0255421D01*
X0347726Y0256428D01*
X0346410Y0256973D01*
X0344985Y0256973D01*
X0343669Y0256428D01*
X0342662Y0255421D01*
X0342117Y0254104D01*
X0342117Y0252680D01*
X0342662Y0251364D01*
X0343669Y0250356D01*
X0344985Y0249811D01*
X0346410Y0249811D01*
X0347726Y0250356D01*
X0348887Y0251734D02*
X0359789Y0251734D01*
X0359789Y0253333D02*
X0349279Y0253333D01*
X0348936Y0254931D02*
X0359789Y0254931D01*
X0359789Y0256530D02*
X0347481Y0256530D01*
X0343914Y0256530D02*
X0262227Y0256530D01*
X0262227Y0258128D02*
X0359789Y0258128D01*
X0359789Y0259727D02*
X0262227Y0259727D01*
X0262227Y0261325D02*
X0359789Y0261325D01*
X0359789Y0262924D02*
X0262227Y0262924D01*
X0262227Y0264522D02*
X0359789Y0264522D01*
X0359789Y0266121D02*
X0316395Y0266121D01*
X0316047Y0265773D02*
X0316916Y0266642D01*
X0317387Y0267778D01*
X0317387Y0269007D01*
X0316916Y0270142D01*
X0316047Y0271011D01*
X0314912Y0271481D01*
X0313683Y0271481D01*
X0312548Y0271011D01*
X0311679Y0270142D01*
X0311209Y0269007D01*
X0311209Y0267778D01*
X0311679Y0266642D01*
X0312548Y0265773D01*
X0313683Y0265303D01*
X0314912Y0265303D01*
X0316047Y0265773D01*
X0317362Y0267719D02*
X0359789Y0267719D01*
X0359789Y0269318D02*
X0317258Y0269318D01*
X0316142Y0270916D02*
X0359789Y0270916D01*
X0359789Y0272515D02*
X0262227Y0272515D01*
X0262227Y0274113D02*
X0359789Y0274113D01*
X0359789Y0275712D02*
X0262227Y0275712D01*
X0262227Y0277310D02*
X0359789Y0277310D01*
X0359789Y0278909D02*
X0337183Y0278909D01*
X0337047Y0278773D02*
X0337916Y0279642D01*
X0338387Y0280778D01*
X0338387Y0282007D01*
X0337916Y0283142D01*
X0337047Y0284011D01*
X0335912Y0284481D01*
X0334683Y0284481D01*
X0333548Y0284011D01*
X0332679Y0283142D01*
X0332209Y0282007D01*
X0332209Y0280778D01*
X0332679Y0279642D01*
X0333548Y0278773D01*
X0334683Y0278303D01*
X0335912Y0278303D01*
X0337047Y0278773D01*
X0338275Y0280507D02*
X0359789Y0280507D01*
X0359789Y0282106D02*
X0338346Y0282106D01*
X0337354Y0283704D02*
X0359789Y0283704D01*
X0359789Y0285303D02*
X0262227Y0285303D01*
X0262227Y0286901D02*
X0359789Y0286901D01*
X0359789Y0288500D02*
X0262227Y0288500D01*
X0262227Y0290098D02*
X0359789Y0290098D01*
X0359789Y0291697D02*
X0262227Y0291697D01*
X0262227Y0293295D02*
X0359789Y0293295D01*
X0359789Y0294894D02*
X0262227Y0294894D01*
X0262227Y0296492D02*
X0359789Y0296492D01*
X0359789Y0298091D02*
X0262227Y0298091D01*
X0262227Y0299689D02*
X0359789Y0299689D01*
X0359789Y0301288D02*
X0262227Y0301288D01*
X0264114Y0302886D02*
X0270733Y0302886D01*
X0271533Y0302555D02*
X0273314Y0302555D01*
X0274959Y0303236D01*
X0276217Y0304495D01*
X0276899Y0306140D01*
X0276899Y0307920D01*
X0276217Y0309565D01*
X0274959Y0310824D01*
X0273314Y0311505D01*
X0271533Y0311505D01*
X0269889Y0310824D01*
X0268630Y0309565D01*
X0267949Y0307920D01*
X0267949Y0306140D01*
X0268630Y0304495D01*
X0269889Y0303236D01*
X0271533Y0302555D01*
X0274114Y0302886D02*
X0280733Y0302886D01*
X0281533Y0302555D02*
X0283314Y0302555D01*
X0284959Y0303236D01*
X0286217Y0304495D01*
X0286899Y0306140D01*
X0286899Y0307920D01*
X0286217Y0309565D01*
X0284959Y0310824D01*
X0283314Y0311505D01*
X0281533Y0311505D01*
X0279889Y0310824D01*
X0278630Y0309565D01*
X0277949Y0307920D01*
X0277949Y0306140D01*
X0278630Y0304495D01*
X0279889Y0303236D01*
X0281533Y0302555D01*
X0284114Y0302886D02*
X0290733Y0302886D01*
X0291533Y0302555D02*
X0289889Y0303236D01*
X0288630Y0304495D01*
X0287949Y0306140D01*
X0287949Y0307920D01*
X0288630Y0309565D01*
X0289889Y0310824D01*
X0291533Y0311505D01*
X0293314Y0311505D01*
X0294959Y0310824D01*
X0296217Y0309565D01*
X0296899Y0307920D01*
X0296899Y0306140D01*
X0296217Y0304495D01*
X0294959Y0303236D01*
X0293314Y0302555D01*
X0291533Y0302555D01*
X0294114Y0302886D02*
X0300733Y0302886D01*
X0301533Y0302555D02*
X0303314Y0302555D01*
X0304959Y0303236D01*
X0306217Y0304495D01*
X0306899Y0306140D01*
X0306899Y0307920D01*
X0306217Y0309565D01*
X0304959Y0310824D01*
X0303314Y0311505D01*
X0301533Y0311505D01*
X0299889Y0310824D01*
X0298630Y0309565D01*
X0297949Y0307920D01*
X0297949Y0306140D01*
X0298630Y0304495D01*
X0299889Y0303236D01*
X0301533Y0302555D01*
X0304114Y0302886D02*
X0359789Y0302886D01*
X0359789Y0304485D02*
X0315207Y0304485D01*
X0314959Y0304236D02*
X0316217Y0305495D01*
X0316899Y0307140D01*
X0316899Y0308920D01*
X0316217Y0310565D01*
X0314959Y0311824D01*
X0313314Y0312505D01*
X0311533Y0312505D01*
X0309889Y0311824D01*
X0308630Y0310565D01*
X0307949Y0308920D01*
X0307949Y0307140D01*
X0308630Y0305495D01*
X0309889Y0304236D01*
X0311533Y0303555D01*
X0313314Y0303555D01*
X0314959Y0304236D01*
X0316461Y0306083D02*
X0359789Y0306083D01*
X0359789Y0307682D02*
X0316899Y0307682D01*
X0316749Y0309280D02*
X0359789Y0309280D01*
X0359789Y0310879D02*
X0315903Y0310879D01*
X0313380Y0312477D02*
X0359789Y0312477D01*
X0359789Y0314076D02*
X0314572Y0314076D01*
X0314959Y0314236D02*
X0316217Y0315495D01*
X0316899Y0317140D01*
X0316899Y0318920D01*
X0316217Y0320565D01*
X0314959Y0321824D01*
X0313314Y0322505D01*
X0311533Y0322505D01*
X0309889Y0321824D01*
X0308630Y0320565D01*
X0307949Y0318920D01*
X0307949Y0317140D01*
X0308630Y0315495D01*
X0309889Y0314236D01*
X0311533Y0313555D01*
X0313314Y0313555D01*
X0314959Y0314236D01*
X0316292Y0315675D02*
X0332666Y0315675D01*
X0332679Y0315642D02*
X0333548Y0314773D01*
X0334683Y0314303D01*
X0335912Y0314303D01*
X0337047Y0314773D01*
X0337916Y0315642D01*
X0338387Y0316778D01*
X0338387Y0318007D01*
X0337916Y0319142D01*
X0337047Y0320011D01*
X0335912Y0320481D01*
X0334683Y0320481D01*
X0333548Y0320011D01*
X0332679Y0319142D01*
X0332209Y0318007D01*
X0332209Y0316778D01*
X0332679Y0315642D01*
X0332209Y0317273D02*
X0316899Y0317273D01*
X0316899Y0318872D02*
X0332567Y0318872D01*
X0334657Y0320470D02*
X0316257Y0320470D01*
X0314367Y0322069D02*
X0359789Y0322069D01*
X0359789Y0323667D02*
X0313585Y0323667D01*
X0313314Y0323555D02*
X0314959Y0324236D01*
X0316217Y0325495D01*
X0316899Y0327140D01*
X0316899Y0328920D01*
X0316217Y0330565D01*
X0314959Y0331824D01*
X0313314Y0332505D01*
X0311533Y0332505D01*
X0309889Y0331824D01*
X0308630Y0330565D01*
X0307949Y0328920D01*
X0307949Y0327140D01*
X0308630Y0325495D01*
X0309889Y0324236D01*
X0311533Y0323555D01*
X0313314Y0323555D01*
X0311263Y0323667D02*
X0305389Y0323667D01*
X0304959Y0323236D02*
X0306217Y0324495D01*
X0306899Y0326140D01*
X0306899Y0327920D01*
X0306217Y0329565D01*
X0304959Y0330824D01*
X0303314Y0331505D01*
X0301533Y0331505D01*
X0299889Y0330824D01*
X0298630Y0329565D01*
X0297949Y0327920D01*
X0297949Y0326140D01*
X0298630Y0324495D01*
X0299889Y0323236D01*
X0301533Y0322555D01*
X0303314Y0322555D01*
X0304959Y0323236D01*
X0303314Y0321505D02*
X0301533Y0321505D01*
X0299889Y0320824D01*
X0298630Y0319565D01*
X0297949Y0317920D01*
X0297949Y0316140D01*
X0298630Y0314495D01*
X0299889Y0313236D01*
X0301533Y0312555D01*
X0303314Y0312555D01*
X0304959Y0313236D01*
X0306217Y0314495D01*
X0306899Y0316140D01*
X0306899Y0317920D01*
X0306217Y0319565D01*
X0304959Y0320824D01*
X0303314Y0321505D01*
X0305312Y0320470D02*
X0308591Y0320470D01*
X0307949Y0318872D02*
X0306505Y0318872D01*
X0306899Y0317273D02*
X0307949Y0317273D01*
X0308556Y0315675D02*
X0306706Y0315675D01*
X0305798Y0314076D02*
X0310275Y0314076D01*
X0311467Y0312477D02*
X0262227Y0312477D01*
X0264825Y0310879D02*
X0270022Y0310879D01*
X0268512Y0309280D02*
X0266335Y0309280D01*
X0266899Y0307682D02*
X0267949Y0307682D01*
X0267972Y0306083D02*
X0266875Y0306083D01*
X0266207Y0304485D02*
X0268640Y0304485D01*
X0276207Y0304485D02*
X0278640Y0304485D01*
X0277972Y0306083D02*
X0276875Y0306083D01*
X0276899Y0307682D02*
X0277949Y0307682D01*
X0278512Y0309280D02*
X0276335Y0309280D01*
X0274825Y0310879D02*
X0280022Y0310879D01*
X0281533Y0312555D02*
X0283314Y0312555D01*
X0284959Y0313236D01*
X0286217Y0314495D01*
X0286899Y0316140D01*
X0286899Y0317920D01*
X0286217Y0319565D01*
X0284959Y0320824D01*
X0283314Y0321505D01*
X0281533Y0321505D01*
X0279889Y0320824D01*
X0278630Y0319565D01*
X0277949Y0317920D01*
X0277949Y0316140D01*
X0278630Y0314495D01*
X0279889Y0313236D01*
X0281533Y0312555D01*
X0279049Y0314076D02*
X0275798Y0314076D01*
X0276217Y0314495D02*
X0276899Y0316140D01*
X0276899Y0317920D01*
X0276217Y0319565D01*
X0274959Y0320824D01*
X0273314Y0321505D01*
X0271533Y0321505D01*
X0269889Y0320824D01*
X0268630Y0319565D01*
X0267949Y0317920D01*
X0267949Y0316140D01*
X0268630Y0314495D01*
X0269889Y0313236D01*
X0271533Y0312555D01*
X0273314Y0312555D01*
X0274959Y0313236D01*
X0276217Y0314495D01*
X0276706Y0315675D02*
X0278141Y0315675D01*
X0277949Y0317273D02*
X0276899Y0317273D01*
X0276505Y0318872D02*
X0278343Y0318872D01*
X0279535Y0320470D02*
X0275312Y0320470D01*
X0274218Y0322697D02*
X0274874Y0323031D01*
X0275469Y0323464D01*
X0275990Y0323984D01*
X0276422Y0324580D01*
X0276756Y0325235D01*
X0276984Y0325935D01*
X0277099Y0326662D01*
X0277099Y0326892D01*
X0272561Y0326892D01*
X0272561Y0322355D01*
X0272792Y0322355D01*
X0273518Y0322470D01*
X0274218Y0322697D01*
X0275672Y0323667D02*
X0279458Y0323667D01*
X0279889Y0323236D02*
X0281533Y0322555D01*
X0283314Y0322555D01*
X0284959Y0323236D01*
X0286217Y0324495D01*
X0286899Y0326140D01*
X0286899Y0327920D01*
X0286217Y0329565D01*
X0284959Y0330824D01*
X0283314Y0331505D01*
X0281533Y0331505D01*
X0279889Y0330824D01*
X0278630Y0329565D01*
X0277949Y0327920D01*
X0277949Y0326140D01*
X0278630Y0324495D01*
X0279889Y0323236D01*
X0278311Y0325266D02*
X0276766Y0325266D01*
X0277099Y0326864D02*
X0277949Y0326864D01*
X0277099Y0327167D02*
X0277099Y0327398D01*
X0276984Y0328125D01*
X0276756Y0328824D01*
X0276422Y0329480D01*
X0275990Y0330075D01*
X0275469Y0330596D01*
X0274874Y0331028D01*
X0274218Y0331362D01*
X0273518Y0331590D01*
X0272792Y0331705D01*
X0272561Y0331705D01*
X0272561Y0327167D01*
X0277099Y0327167D01*
X0276874Y0328463D02*
X0278173Y0328463D01*
X0279126Y0330061D02*
X0276000Y0330061D01*
X0274874Y0333031D02*
X0275469Y0333464D01*
X0275990Y0333984D01*
X0276422Y0334580D01*
X0276756Y0335235D01*
X0276984Y0335935D01*
X0277099Y0336662D01*
X0277099Y0336892D01*
X0272561Y0336892D01*
X0272561Y0332355D01*
X0272792Y0332355D01*
X0273518Y0332470D01*
X0274218Y0332697D01*
X0274874Y0333031D01*
X0275186Y0333258D02*
X0279867Y0333258D01*
X0279889Y0333236D02*
X0281533Y0332555D01*
X0283314Y0332555D01*
X0284959Y0333236D01*
X0286217Y0334495D01*
X0286899Y0336140D01*
X0286899Y0337920D01*
X0286217Y0339565D01*
X0284959Y0340824D01*
X0283314Y0341505D01*
X0281533Y0341505D01*
X0279889Y0340824D01*
X0278630Y0339565D01*
X0277949Y0337920D01*
X0277949Y0336140D01*
X0278630Y0334495D01*
X0279889Y0333236D01*
X0278480Y0334857D02*
X0276563Y0334857D01*
X0277066Y0336455D02*
X0277949Y0336455D01*
X0277099Y0337167D02*
X0277099Y0337398D01*
X0276984Y0338125D01*
X0276756Y0338824D01*
X0276422Y0339480D01*
X0275990Y0340075D01*
X0275469Y0340596D01*
X0274874Y0341028D01*
X0274218Y0341362D01*
X0273518Y0341590D01*
X0272792Y0341705D01*
X0272561Y0341705D01*
X0272561Y0337167D01*
X0277099Y0337167D01*
X0276995Y0338054D02*
X0278004Y0338054D01*
X0278717Y0339652D02*
X0276297Y0339652D01*
X0274437Y0341251D02*
X0280920Y0341251D01*
X0283927Y0341251D02*
X0290920Y0341251D01*
X0291533Y0341505D02*
X0289889Y0340824D01*
X0288630Y0339565D01*
X0287949Y0337920D01*
X0287949Y0336140D01*
X0288630Y0334495D01*
X0289889Y0333236D01*
X0291533Y0332555D01*
X0293314Y0332555D01*
X0294959Y0333236D01*
X0296217Y0334495D01*
X0296899Y0336140D01*
X0296899Y0337920D01*
X0296217Y0339565D01*
X0294959Y0340824D01*
X0293314Y0341505D01*
X0291533Y0341505D01*
X0293927Y0341251D02*
X0300920Y0341251D01*
X0301533Y0341505D02*
X0299889Y0340824D01*
X0298630Y0339565D01*
X0297949Y0337920D01*
X0297949Y0336140D01*
X0298630Y0334495D01*
X0299889Y0333236D01*
X0301533Y0332555D01*
X0303314Y0332555D01*
X0304959Y0333236D01*
X0306217Y0334495D01*
X0306899Y0336140D01*
X0306899Y0337920D01*
X0306217Y0339565D01*
X0304959Y0340824D01*
X0303314Y0341505D01*
X0301533Y0341505D01*
X0303927Y0341251D02*
X0309316Y0341251D01*
X0309889Y0341824D02*
X0308630Y0340565D01*
X0307949Y0338920D01*
X0307949Y0337140D01*
X0308630Y0335495D01*
X0309889Y0334236D01*
X0311533Y0333555D01*
X0313314Y0333555D01*
X0314959Y0334236D01*
X0316217Y0335495D01*
X0316899Y0337140D01*
X0316899Y0338920D01*
X0316217Y0340565D01*
X0314959Y0341824D01*
X0313314Y0342505D01*
X0311533Y0342505D01*
X0309889Y0341824D01*
X0308252Y0339652D02*
X0306130Y0339652D01*
X0306843Y0338054D02*
X0307949Y0338054D01*
X0308232Y0336455D02*
X0306899Y0336455D01*
X0306367Y0334857D02*
X0309268Y0334857D01*
X0309725Y0331660D02*
X0273077Y0331660D01*
X0272561Y0331660D02*
X0272286Y0331660D01*
X0272286Y0331705D02*
X0272056Y0331705D01*
X0271329Y0331590D01*
X0270629Y0331362D01*
X0269973Y0331028D01*
X0269378Y0330596D01*
X0268858Y0330075D01*
X0268425Y0329480D01*
X0268091Y0328824D01*
X0267864Y0328125D01*
X0267749Y0327398D01*
X0267749Y0327167D01*
X0272286Y0327167D01*
X0272286Y0326892D01*
X0272561Y0326892D01*
X0272561Y0327167D01*
X0272286Y0327167D01*
X0272286Y0331705D01*
X0271770Y0331660D02*
X0262227Y0331660D01*
X0264980Y0333258D02*
X0269661Y0333258D01*
X0269378Y0333464D02*
X0269973Y0333031D01*
X0270629Y0332697D01*
X0271329Y0332470D01*
X0272056Y0332355D01*
X0272286Y0332355D01*
X0272286Y0336892D01*
X0272561Y0336892D01*
X0272561Y0337167D01*
X0272286Y0337167D01*
X0272286Y0336892D01*
X0267749Y0336892D01*
X0267749Y0336662D01*
X0267864Y0335935D01*
X0268091Y0335235D01*
X0268425Y0334580D01*
X0268858Y0333984D01*
X0269378Y0333464D01*
X0268284Y0334857D02*
X0266367Y0334857D01*
X0266899Y0336455D02*
X0267781Y0336455D01*
X0267749Y0337167D02*
X0272286Y0337167D01*
X0272286Y0341705D01*
X0272056Y0341705D01*
X0271329Y0341590D01*
X0270629Y0341362D01*
X0269973Y0341028D01*
X0269378Y0340596D01*
X0268858Y0340075D01*
X0268425Y0339480D01*
X0268091Y0338824D01*
X0267864Y0338125D01*
X0267749Y0337398D01*
X0267749Y0337167D01*
X0267852Y0338054D02*
X0266843Y0338054D01*
X0266130Y0339652D02*
X0268550Y0339652D01*
X0270410Y0341251D02*
X0263927Y0341251D01*
X0262227Y0342849D02*
X0335590Y0342849D01*
X0335044Y0342303D02*
X0333627Y0338882D01*
X0333627Y0335178D01*
X0335044Y0331757D01*
X0337663Y0329138D01*
X0341084Y0327721D01*
X0344787Y0327721D01*
X0348208Y0329138D01*
X0350827Y0331757D01*
X0352244Y0335178D01*
X0352244Y0338882D01*
X0350827Y0342303D01*
X0348208Y0344921D01*
X0344787Y0346339D01*
X0341084Y0346339D01*
X0337663Y0344921D01*
X0335044Y0342303D01*
X0334608Y0341251D02*
X0315531Y0341251D01*
X0316595Y0339652D02*
X0333946Y0339652D01*
X0333627Y0338054D02*
X0316899Y0338054D01*
X0316615Y0336455D02*
X0333627Y0336455D01*
X0333760Y0334857D02*
X0315579Y0334857D01*
X0315123Y0331660D02*
X0335141Y0331660D01*
X0334422Y0333258D02*
X0304980Y0333258D01*
X0305721Y0330061D02*
X0308421Y0330061D01*
X0307949Y0328463D02*
X0306674Y0328463D01*
X0306899Y0326864D02*
X0308063Y0326864D01*
X0308859Y0325266D02*
X0306537Y0325266D01*
X0310480Y0322069D02*
X0262227Y0322069D01*
X0265312Y0320470D02*
X0269535Y0320470D01*
X0268343Y0318872D02*
X0266505Y0318872D01*
X0266899Y0317273D02*
X0267949Y0317273D01*
X0268141Y0315675D02*
X0266706Y0315675D01*
X0265798Y0314076D02*
X0269049Y0314076D01*
X0271329Y0322470D02*
X0272056Y0322355D01*
X0272286Y0322355D01*
X0272286Y0326892D01*
X0267749Y0326892D01*
X0267749Y0326662D01*
X0267864Y0325935D01*
X0268091Y0325235D01*
X0268425Y0324580D01*
X0268858Y0323984D01*
X0269378Y0323464D01*
X0269973Y0323031D01*
X0270629Y0322697D01*
X0271329Y0322470D01*
X0272286Y0323667D02*
X0272561Y0323667D01*
X0272561Y0325266D02*
X0272286Y0325266D01*
X0272286Y0326864D02*
X0272561Y0326864D01*
X0272561Y0328463D02*
X0272286Y0328463D01*
X0272286Y0330061D02*
X0272561Y0330061D01*
X0272561Y0333258D02*
X0272286Y0333258D01*
X0272286Y0334857D02*
X0272561Y0334857D01*
X0272561Y0336455D02*
X0272286Y0336455D01*
X0272286Y0338054D02*
X0272561Y0338054D01*
X0272561Y0339652D02*
X0272286Y0339652D01*
X0272286Y0341251D02*
X0272561Y0341251D01*
X0262227Y0344448D02*
X0337189Y0344448D01*
X0340378Y0346046D02*
X0262227Y0346046D01*
X0262227Y0347645D02*
X0349154Y0347645D01*
X0347556Y0349243D02*
X0262227Y0349243D01*
X0262227Y0350842D02*
X0345957Y0350842D01*
X0344359Y0352440D02*
X0262227Y0352440D01*
X0265721Y0330061D02*
X0268847Y0330061D01*
X0267974Y0328463D02*
X0266674Y0328463D01*
X0266899Y0326864D02*
X0267749Y0326864D01*
X0268081Y0325266D02*
X0266537Y0325266D01*
X0265389Y0323667D02*
X0269175Y0323667D01*
X0285389Y0323667D02*
X0289458Y0323667D01*
X0289889Y0323236D02*
X0291533Y0322555D01*
X0293314Y0322555D01*
X0294959Y0323236D01*
X0296217Y0324495D01*
X0296899Y0326140D01*
X0296899Y0327920D01*
X0296217Y0329565D01*
X0294959Y0330824D01*
X0293314Y0331505D01*
X0291533Y0331505D01*
X0289889Y0330824D01*
X0288630Y0329565D01*
X0287949Y0327920D01*
X0287949Y0326140D01*
X0288630Y0324495D01*
X0289889Y0323236D01*
X0291533Y0321505D02*
X0289889Y0320824D01*
X0288630Y0319565D01*
X0287949Y0317920D01*
X0287949Y0316140D01*
X0288630Y0314495D01*
X0289889Y0313236D01*
X0291533Y0312555D01*
X0293314Y0312555D01*
X0294959Y0313236D01*
X0296217Y0314495D01*
X0296899Y0316140D01*
X0296899Y0317920D01*
X0296217Y0319565D01*
X0294959Y0320824D01*
X0293314Y0321505D01*
X0291533Y0321505D01*
X0289535Y0320470D02*
X0285312Y0320470D01*
X0286505Y0318872D02*
X0288343Y0318872D01*
X0287949Y0317273D02*
X0286899Y0317273D01*
X0286706Y0315675D02*
X0288141Y0315675D01*
X0289049Y0314076D02*
X0285798Y0314076D01*
X0284825Y0310879D02*
X0290022Y0310879D01*
X0288512Y0309280D02*
X0286335Y0309280D01*
X0286899Y0307682D02*
X0287949Y0307682D01*
X0287972Y0306083D02*
X0286875Y0306083D01*
X0286207Y0304485D02*
X0288640Y0304485D01*
X0296207Y0304485D02*
X0298640Y0304485D01*
X0297972Y0306083D02*
X0296875Y0306083D01*
X0296899Y0307682D02*
X0297949Y0307682D01*
X0298512Y0309280D02*
X0296335Y0309280D01*
X0294825Y0310879D02*
X0300022Y0310879D01*
X0299049Y0314076D02*
X0295798Y0314076D01*
X0296706Y0315675D02*
X0298141Y0315675D01*
X0297949Y0317273D02*
X0296899Y0317273D01*
X0296505Y0318872D02*
X0298343Y0318872D01*
X0299535Y0320470D02*
X0295312Y0320470D01*
X0295389Y0323667D02*
X0299458Y0323667D01*
X0298311Y0325266D02*
X0296537Y0325266D01*
X0296899Y0326864D02*
X0297949Y0326864D01*
X0298173Y0328463D02*
X0296674Y0328463D01*
X0295721Y0330061D02*
X0299126Y0330061D01*
X0299867Y0333258D02*
X0294980Y0333258D01*
X0296367Y0334857D02*
X0298480Y0334857D01*
X0297949Y0336455D02*
X0296899Y0336455D01*
X0296843Y0338054D02*
X0298004Y0338054D01*
X0298717Y0339652D02*
X0296130Y0339652D01*
X0288717Y0339652D02*
X0286130Y0339652D01*
X0286843Y0338054D02*
X0288004Y0338054D01*
X0287949Y0336455D02*
X0286899Y0336455D01*
X0286367Y0334857D02*
X0288480Y0334857D01*
X0289867Y0333258D02*
X0284980Y0333258D01*
X0285721Y0330061D02*
X0289126Y0330061D01*
X0288173Y0328463D02*
X0286674Y0328463D01*
X0286899Y0326864D02*
X0287949Y0326864D01*
X0288311Y0325266D02*
X0286537Y0325266D01*
X0304825Y0310879D02*
X0308944Y0310879D01*
X0308098Y0309280D02*
X0306335Y0309280D01*
X0306899Y0307682D02*
X0307949Y0307682D01*
X0308386Y0306083D02*
X0306875Y0306083D01*
X0306207Y0304485D02*
X0309640Y0304485D01*
X0315988Y0325266D02*
X0359789Y0325266D01*
X0359789Y0326864D02*
X0316784Y0326864D01*
X0316899Y0328463D02*
X0339294Y0328463D01*
X0336740Y0330061D02*
X0316426Y0330061D01*
X0335939Y0320470D02*
X0359789Y0320470D01*
X0359789Y0318872D02*
X0338028Y0318872D01*
X0338387Y0317273D02*
X0359789Y0317273D01*
X0359789Y0315675D02*
X0337930Y0315675D01*
X0346577Y0328463D02*
X0359789Y0328463D01*
X0359789Y0330061D02*
X0349131Y0330061D01*
X0350730Y0331660D02*
X0359789Y0331660D01*
X0359789Y0333258D02*
X0351449Y0333258D01*
X0352111Y0334857D02*
X0359789Y0334857D01*
X0359789Y0336455D02*
X0352244Y0336455D01*
X0352244Y0338054D02*
X0358745Y0338054D01*
X0357147Y0339652D02*
X0351925Y0339652D01*
X0351263Y0341251D02*
X0355548Y0341251D01*
X0353950Y0342849D02*
X0350281Y0342849D01*
X0348682Y0344448D02*
X0352351Y0344448D01*
X0350753Y0346046D02*
X0345493Y0346046D01*
X0333241Y0283704D02*
X0262227Y0283704D01*
X0262227Y0282106D02*
X0332250Y0282106D01*
X0332321Y0280507D02*
X0262227Y0280507D01*
X0262227Y0278909D02*
X0333413Y0278909D01*
X0312453Y0270916D02*
X0294038Y0270916D01*
X0294334Y0270621D02*
X0293326Y0271628D01*
X0292010Y0272173D01*
X0290585Y0272173D01*
X0289269Y0271628D01*
X0288262Y0270621D01*
X0287717Y0269304D01*
X0287717Y0267880D01*
X0288262Y0266564D01*
X0289269Y0265556D01*
X0290585Y0265011D01*
X0292010Y0265011D01*
X0293326Y0265556D01*
X0294334Y0266564D01*
X0294879Y0267880D01*
X0294879Y0269304D01*
X0294334Y0270621D01*
X0294873Y0269318D02*
X0311338Y0269318D01*
X0311233Y0267719D02*
X0294812Y0267719D01*
X0293891Y0266121D02*
X0312201Y0266121D01*
X0288705Y0266121D02*
X0262227Y0266121D01*
X0262227Y0267719D02*
X0287783Y0267719D01*
X0287722Y0269318D02*
X0262227Y0269318D01*
X0262227Y0270916D02*
X0288557Y0270916D01*
X0262227Y0254931D02*
X0342459Y0254931D01*
X0342117Y0253333D02*
X0262227Y0253333D01*
X0262227Y0251734D02*
X0342508Y0251734D01*
X0344202Y0250136D02*
X0262227Y0250136D01*
X0329655Y0221362D02*
X0331790Y0221362D01*
X0330812Y0219764D02*
X0330633Y0219764D01*
X0330214Y0216567D02*
X0331231Y0216567D01*
X0337714Y0216567D02*
X0352754Y0216567D01*
X0352679Y0216642D02*
X0353548Y0215773D01*
X0354683Y0215303D01*
X0355912Y0215303D01*
X0357047Y0215773D01*
X0357916Y0216642D01*
X0358387Y0217778D01*
X0358387Y0219007D01*
X0357916Y0220142D01*
X0357047Y0221011D01*
X0355912Y0221481D01*
X0354683Y0221481D01*
X0353548Y0221011D01*
X0352679Y0220142D01*
X0352209Y0219007D01*
X0352209Y0217778D01*
X0352679Y0216642D01*
X0352209Y0218165D02*
X0338273Y0218165D01*
X0338133Y0219764D02*
X0352522Y0219764D01*
X0354397Y0221362D02*
X0337155Y0221362D01*
X0356199Y0221362D02*
X0359789Y0221362D01*
X0359789Y0219764D02*
X0358073Y0219764D01*
X0358387Y0218165D02*
X0359789Y0218165D01*
X0359789Y0216567D02*
X0357841Y0216567D01*
X0359219Y0200582D02*
X0359789Y0200582D01*
X0359789Y0179801D02*
X0358620Y0179801D01*
X0302209Y0165414D02*
X0262227Y0165414D01*
X0262227Y0163816D02*
X0302607Y0163816D01*
M02*
