G75*
%MOIN*%
%OFA0B0*%
%FSLAX25Y25*%
%IPPOS*%
%LPD*%
%AMOC8*
5,1,8,0,0,1.08239X$1,22.5*
%
%ADD10C,0.00000*%
%ADD11C,0.29528*%
%ADD12OC8,0.07400*%
%ADD13C,0.04400*%
%ADD14R,0.07400X0.07400*%
%ADD15C,0.07400*%
%ADD16C,0.02978*%
%ADD17C,0.01000*%
%ADD18R,0.02978X0.02978*%
%ADD19R,0.03962X0.03962*%
%ADD20C,0.03962*%
%ADD21C,0.00800*%
D10*
X0010258Y0024038D02*
X0010258Y0338998D01*
X0029943Y0358683D01*
X0344904Y0358683D01*
X0364589Y0338998D01*
X0364589Y0024038D01*
X0344904Y0004353D01*
X0029943Y0004353D01*
X0010258Y0024038D01*
D11*
X0031912Y0026006D03*
X0342935Y0026006D03*
X0342935Y0337030D03*
X0031912Y0337030D03*
D12*
X0062424Y0338030D03*
X0062424Y0328030D03*
X0072424Y0327030D03*
X0072424Y0317030D03*
X0072424Y0307030D03*
X0062424Y0308030D03*
X0062424Y0318030D03*
X0082424Y0317030D03*
X0092424Y0317030D03*
X0102424Y0317030D03*
X0102424Y0327030D03*
X0092424Y0327030D03*
X0082424Y0327030D03*
X0082424Y0337030D03*
X0092424Y0337030D03*
X0102424Y0337030D03*
X0112424Y0337030D03*
X0122424Y0337030D03*
X0132424Y0337030D03*
X0142424Y0337030D03*
X0152424Y0337030D03*
X0162424Y0337030D03*
X0172424Y0337030D03*
X0182424Y0337030D03*
X0192424Y0337030D03*
X0202424Y0337030D03*
X0212424Y0337030D03*
X0222424Y0337030D03*
X0232424Y0337030D03*
X0242424Y0337030D03*
X0252424Y0337030D03*
X0262424Y0337030D03*
X0272424Y0337030D03*
X0282424Y0337030D03*
X0292424Y0337030D03*
X0302424Y0337030D03*
X0312424Y0338030D03*
X0312424Y0328030D03*
X0302424Y0327030D03*
X0302424Y0317030D03*
X0302424Y0307030D03*
X0292424Y0307030D03*
X0292424Y0317030D03*
X0292424Y0327030D03*
X0282424Y0327030D03*
X0282424Y0317030D03*
X0282424Y0307030D03*
X0272424Y0307030D03*
X0272424Y0317030D03*
X0272424Y0327030D03*
X0262424Y0327030D03*
X0262424Y0317030D03*
X0262424Y0307030D03*
X0252424Y0307030D03*
X0252424Y0317030D03*
X0252424Y0327030D03*
X0242424Y0327030D03*
X0242424Y0317030D03*
X0242424Y0307030D03*
X0232424Y0307030D03*
X0232424Y0317030D03*
X0232424Y0327030D03*
X0222424Y0327030D03*
X0222424Y0317030D03*
X0222424Y0307030D03*
X0212424Y0307030D03*
X0212424Y0317030D03*
X0212424Y0327030D03*
X0202424Y0327030D03*
X0202424Y0317030D03*
X0202424Y0307030D03*
X0192424Y0307030D03*
X0192424Y0317030D03*
X0192424Y0327030D03*
X0182424Y0327030D03*
X0182424Y0317030D03*
X0182424Y0307030D03*
X0172424Y0307030D03*
X0172424Y0317030D03*
X0172424Y0327030D03*
X0162424Y0327030D03*
X0162424Y0317030D03*
X0162424Y0307030D03*
X0152424Y0307030D03*
X0152424Y0317030D03*
X0152424Y0327030D03*
X0142424Y0327030D03*
X0142424Y0317030D03*
X0142424Y0307030D03*
X0132424Y0307030D03*
X0132424Y0317030D03*
X0132424Y0327030D03*
X0122424Y0327030D03*
X0122424Y0317030D03*
X0122424Y0307030D03*
X0112424Y0307030D03*
X0112424Y0317030D03*
X0112424Y0327030D03*
X0102424Y0307030D03*
X0092424Y0307030D03*
X0082424Y0307030D03*
X0072424Y0337030D03*
X0312424Y0318030D03*
X0312424Y0308030D03*
D13*
X0292435Y0288415D03*
X0282593Y0276112D03*
X0307691Y0260364D03*
X0290959Y0247569D03*
X0272258Y0240679D03*
X0281117Y0229852D03*
X0272258Y0220009D03*
X0277180Y0210167D03*
X0289975Y0208198D03*
X0301786Y0208198D03*
X0319452Y0223686D03*
X0313205Y0227307D03*
X0305723Y0231220D03*
X0326973Y0218671D03*
X0334473Y0218671D03*
X0334266Y0210167D03*
X0335250Y0195403D03*
X0276195Y0162923D03*
X0277180Y0147175D03*
X0228739Y0134522D03*
X0228837Y0127042D03*
X0212991Y0109424D03*
X0200195Y0126156D03*
X0182479Y0135998D03*
X0172636Y0144857D03*
X0162794Y0139935D03*
X0160825Y0127140D03*
X0160825Y0115329D03*
X0179934Y0103910D03*
X0176313Y0097663D03*
X0171298Y0090142D03*
X0171298Y0082642D03*
X0162794Y0082849D03*
X0148030Y0081865D03*
X0183847Y0111392D03*
X0193306Y0144857D03*
X0216435Y0178451D03*
X0218896Y0182880D03*
X0227754Y0172054D03*
X0212991Y0211424D03*
X0200195Y0228156D03*
X0182479Y0237998D03*
X0172636Y0246857D03*
X0162794Y0241935D03*
X0160825Y0229140D03*
X0160825Y0217329D03*
X0179934Y0205910D03*
X0176313Y0199663D03*
X0171298Y0192142D03*
X0171298Y0184642D03*
X0162794Y0184849D03*
X0148030Y0183865D03*
X0183847Y0213392D03*
X0193306Y0246857D03*
X0228739Y0236522D03*
X0228837Y0229042D03*
X0336235Y0266269D03*
X0340664Y0263809D03*
X0347061Y0275128D03*
X0218896Y0080880D03*
X0216435Y0076451D03*
X0227754Y0070054D03*
X0115550Y0140920D03*
X0099802Y0139935D03*
X0099802Y0241935D03*
X0115550Y0242920D03*
D14*
X0019798Y0246392D03*
X0019798Y0142392D03*
X0354861Y0133729D03*
D15*
X0355861Y0143729D03*
X0354861Y0153729D03*
X0355861Y0163729D03*
X0354861Y0173729D03*
X0355861Y0183729D03*
X0354861Y0193729D03*
X0355861Y0203729D03*
X0309298Y0110392D03*
X0309298Y0100392D03*
X0299298Y0100392D03*
X0299298Y0110392D03*
X0289298Y0110392D03*
X0289298Y0100392D03*
X0019798Y0102392D03*
X0018798Y0112392D03*
X0019798Y0122392D03*
X0018798Y0132392D03*
X0018798Y0092392D03*
X0019798Y0082392D03*
X0018798Y0072392D03*
X0018798Y0176392D03*
X0019798Y0186392D03*
X0018798Y0196392D03*
X0019798Y0206392D03*
X0018798Y0216392D03*
X0019798Y0226392D03*
X0018798Y0236392D03*
D16*
X0029548Y0264892D03*
X0032048Y0264892D03*
X0039298Y0274392D03*
X0040298Y0276392D03*
X0029298Y0278392D03*
X0029298Y0280392D03*
X0054798Y0309142D03*
X0054798Y0311642D03*
X0105298Y0255392D03*
X0107298Y0255392D03*
X0154298Y0172392D03*
X0154298Y0170392D03*
X0211298Y0146392D03*
X0211298Y0144392D03*
X0212298Y0127392D03*
X0212298Y0125392D03*
X0235298Y0088392D03*
X0233298Y0086392D03*
X0199298Y0067392D03*
X0197298Y0067392D03*
X0195298Y0067392D03*
X0305298Y0149392D03*
X0310298Y0147392D03*
X0321298Y0147392D03*
X0323298Y0133392D03*
X0305298Y0165392D03*
X0313405Y0178285D03*
X0310298Y0181392D03*
X0233298Y0205392D03*
X0233298Y0218392D03*
X0220298Y0205392D03*
X0218298Y0205392D03*
X0228508Y0190392D03*
X0228508Y0188392D03*
X0213298Y0227392D03*
X0211298Y0227392D03*
X0240298Y0284392D03*
X0240298Y0294392D03*
X0198298Y0298392D03*
X0314298Y0268392D03*
X0335298Y0281392D03*
X0348798Y0289142D03*
X0348798Y0291642D03*
X0335298Y0317392D03*
X0320798Y0308142D03*
X0320798Y0305642D03*
D17*
X0240298Y0294392D02*
X0240298Y0284392D01*
X0198298Y0298392D02*
X0192424Y0304266D01*
X0192424Y0307030D01*
X0233298Y0218392D02*
X0233298Y0205392D01*
X0323298Y0133392D02*
X0323298Y0130392D01*
D18*
X0355298Y0218392D03*
X0355298Y0241892D03*
X0355298Y0276892D03*
X0354189Y0282286D03*
X0356689Y0282286D03*
X0353406Y0300749D03*
X0350906Y0300749D03*
X0317656Y0296749D03*
X0315156Y0296749D03*
X0283698Y0296492D03*
X0283698Y0299392D03*
X0323406Y0329499D03*
X0325906Y0329499D03*
X0101298Y0181392D03*
X0098298Y0181392D03*
X0018906Y0279499D03*
X0016406Y0279499D03*
X0036941Y0295001D03*
X0036941Y0297501D03*
X0023656Y0316749D03*
X0021156Y0316749D03*
X0049906Y0330499D03*
X0052406Y0330499D03*
X0097298Y0077392D03*
X0100298Y0077392D03*
X0300098Y0023392D03*
X0302998Y0023392D03*
D19*
X0301098Y0037592D03*
X0291898Y0049992D03*
X0290298Y0133392D03*
X0334298Y0138392D03*
X0291298Y0268592D03*
X0056898Y0288392D03*
D20*
X0276991Y0141164D03*
X0288698Y0061992D03*
X0298298Y0056392D03*
X0304698Y0056392D03*
X0345698Y0253392D03*
D21*
X0334298Y0138392D02*
X0326298Y0130392D01*
X0323298Y0130392D01*
X0296298Y0130392D01*
X0294298Y0132392D01*
X0290298Y0133392D01*
M02*
