G75*
%MOIN*%
%OFA0B0*%
%FSLAX25Y25*%
%IPPOS*%
%LPD*%
%AMOC8*
5,1,8,0,0,1.08239X$1,22.5*
%
%ADD10C,0.00000*%
%ADD11R,0.05906X0.02362*%
%ADD12R,0.04724X0.03150*%
%ADD13R,0.03150X0.04724*%
D10*
X0001424Y0001600D02*
X0001784Y0091123D01*
X0104108Y0091123D01*
X0103748Y0001600D01*
X0001424Y0001600D01*
D11*
X0040119Y0053741D03*
X0040119Y0058741D03*
X0040119Y0063741D03*
X0040119Y0068741D03*
X0040119Y0073741D03*
X0040119Y0078741D03*
X0040119Y0083741D03*
X0061379Y0083741D03*
X0061379Y0078741D03*
X0061379Y0073741D03*
X0061379Y0068741D03*
X0061379Y0063702D03*
X0061379Y0058741D03*
X0061379Y0053741D03*
D12*
X0061119Y0047284D03*
X0061119Y0040198D03*
X0061191Y0033978D03*
X0061191Y0026891D03*
X0069719Y0026808D03*
X0069719Y0033894D03*
X0061440Y0018158D03*
X0061440Y0011072D03*
X0040024Y0026253D03*
X0032796Y0021379D03*
X0032796Y0014292D03*
X0013111Y0020591D03*
X0013111Y0027678D03*
X0013119Y0036198D03*
X0013119Y0043284D03*
X0013111Y0052875D03*
X0013111Y0059961D03*
X0013119Y0068198D03*
X0013119Y0075284D03*
X0040119Y0047284D03*
X0040119Y0040198D03*
X0040024Y0033339D03*
X0092245Y0035946D03*
X0092245Y0043032D03*
X0092245Y0053269D03*
X0092245Y0060355D03*
X0092029Y0069048D03*
X0092029Y0076134D03*
D13*
G36*
X0067596Y0016478D02*
X0067579Y0019627D01*
X0072302Y0019652D01*
X0072319Y0016503D01*
X0067596Y0016478D01*
G37*
G36*
X0067633Y0009392D02*
X0067616Y0012541D01*
X0072339Y0012566D01*
X0072356Y0009417D01*
X0067633Y0009392D01*
G37*
X0076891Y0017048D03*
X0083977Y0017048D03*
M02*
