G75*
%MOIN*%
%OFA0B0*%
%FSLAX25Y25*%
%IPPOS*%
%LPD*%
%AMOC8*
5,1,8,0,0,1.08239X$1,22.5*
%
%ADD10C,0.00000*%
%ADD11R,0.00394X0.00394*%
%ADD12R,0.07874X0.00394*%
%ADD13R,0.14173X0.00394*%
%ADD14R,0.18504X0.00394*%
%ADD15R,0.11417X0.00394*%
%ADD16R,0.09449X0.00394*%
%ADD17R,0.16142X0.00394*%
%ADD18R,0.27165X0.00394*%
%ADD19R,0.07480X0.00394*%
%ADD20R,0.14961X0.00394*%
%ADD21R,0.05906X0.00394*%
%ADD22R,0.31102X0.00394*%
%ADD23R,0.13780X0.00394*%
%ADD24R,0.11024X0.00394*%
%ADD25R,0.00787X0.00394*%
%ADD26R,0.08661X0.00394*%
%ADD27R,0.09843X0.00394*%
%ADD28R,0.09055X0.00394*%
%ADD29R,0.08268X0.00394*%
%ADD30R,0.07087X0.00394*%
%ADD31R,0.06693X0.00394*%
%ADD32R,0.06299X0.00394*%
%ADD33R,0.03150X0.00394*%
%ADD34R,0.02756X0.00394*%
%ADD35R,0.05512X0.00394*%
%ADD36R,0.05118X0.00394*%
%ADD37R,0.03937X0.00394*%
%ADD38R,0.02362X0.00394*%
%ADD39R,0.04724X0.00394*%
%ADD40R,0.01181X0.00394*%
%ADD41R,0.04331X0.00394*%
%ADD42R,0.03543X0.00394*%
%ADD43R,0.10630X0.00394*%
%ADD44R,0.12205X0.00394*%
%ADD45R,0.01969X0.00394*%
%ADD46R,0.13386X0.00394*%
%ADD47R,0.12598X0.00394*%
%ADD48R,0.10236X0.00394*%
%ADD49R,0.01575X0.00394*%
%ADD50R,0.15354X0.00394*%
%ADD51R,0.15748X0.00394*%
%ADD52R,0.14567X0.00394*%
%ADD53R,0.17717X0.00394*%
%ADD54R,0.11811X0.00394*%
%ADD55R,0.19685X0.00394*%
%ADD56R,0.17323X0.00394*%
%ADD57R,0.19291X0.00394*%
%ADD58R,0.26378X0.00394*%
%ADD59R,0.30315X0.00394*%
%ADD60R,0.29134X0.00394*%
%ADD61R,0.24803X0.00394*%
%ADD62R,0.21260X0.00394*%
D10*
X0001000Y0020685D02*
X0001000Y0335646D01*
X0020685Y0355331D01*
X0335646Y0355331D01*
X0355331Y0335646D01*
X0355331Y0020685D01*
X0335646Y0001000D01*
X0020685Y0001000D01*
X0001000Y0020685D01*
X0059855Y0018685D02*
X0059857Y0018852D01*
X0059863Y0019018D01*
X0059873Y0019185D01*
X0059888Y0019351D01*
X0059906Y0019516D01*
X0059929Y0019681D01*
X0059955Y0019846D01*
X0059985Y0020010D01*
X0060020Y0020173D01*
X0060059Y0020335D01*
X0060101Y0020496D01*
X0060147Y0020656D01*
X0060198Y0020815D01*
X0060252Y0020973D01*
X0060310Y0021129D01*
X0060372Y0021284D01*
X0060438Y0021437D01*
X0060507Y0021589D01*
X0060580Y0021738D01*
X0060657Y0021886D01*
X0060737Y0022032D01*
X0060821Y0022176D01*
X0060909Y0022318D01*
X0060999Y0022458D01*
X0061094Y0022595D01*
X0061191Y0022730D01*
X0061292Y0022863D01*
X0061396Y0022993D01*
X0061504Y0023121D01*
X0061614Y0023246D01*
X0061728Y0023368D01*
X0061844Y0023487D01*
X0061963Y0023603D01*
X0062085Y0023717D01*
X0062210Y0023827D01*
X0062338Y0023935D01*
X0062468Y0024039D01*
X0062601Y0024140D01*
X0062736Y0024237D01*
X0062873Y0024332D01*
X0063013Y0024422D01*
X0063155Y0024510D01*
X0063299Y0024594D01*
X0063445Y0024674D01*
X0063593Y0024751D01*
X0063742Y0024824D01*
X0063894Y0024893D01*
X0064047Y0024959D01*
X0064202Y0025021D01*
X0064358Y0025079D01*
X0064516Y0025133D01*
X0064675Y0025184D01*
X0064835Y0025230D01*
X0064996Y0025272D01*
X0065158Y0025311D01*
X0065321Y0025346D01*
X0065485Y0025376D01*
X0065650Y0025402D01*
X0065815Y0025425D01*
X0065980Y0025443D01*
X0066146Y0025458D01*
X0066313Y0025468D01*
X0066479Y0025474D01*
X0066646Y0025476D01*
X0066813Y0025474D01*
X0066979Y0025468D01*
X0067146Y0025458D01*
X0067312Y0025443D01*
X0067477Y0025425D01*
X0067642Y0025402D01*
X0067807Y0025376D01*
X0067971Y0025346D01*
X0068134Y0025311D01*
X0068296Y0025272D01*
X0068457Y0025230D01*
X0068617Y0025184D01*
X0068776Y0025133D01*
X0068934Y0025079D01*
X0069090Y0025021D01*
X0069245Y0024959D01*
X0069398Y0024893D01*
X0069550Y0024824D01*
X0069699Y0024751D01*
X0069847Y0024674D01*
X0069993Y0024594D01*
X0070137Y0024510D01*
X0070279Y0024422D01*
X0070419Y0024332D01*
X0070556Y0024237D01*
X0070691Y0024140D01*
X0070824Y0024039D01*
X0070954Y0023935D01*
X0071082Y0023827D01*
X0071207Y0023717D01*
X0071329Y0023603D01*
X0071448Y0023487D01*
X0071564Y0023368D01*
X0071678Y0023246D01*
X0071788Y0023121D01*
X0071896Y0022993D01*
X0072000Y0022863D01*
X0072101Y0022730D01*
X0072198Y0022595D01*
X0072293Y0022458D01*
X0072383Y0022318D01*
X0072471Y0022176D01*
X0072555Y0022032D01*
X0072635Y0021886D01*
X0072712Y0021738D01*
X0072785Y0021589D01*
X0072854Y0021437D01*
X0072920Y0021284D01*
X0072982Y0021129D01*
X0073040Y0020973D01*
X0073094Y0020815D01*
X0073145Y0020656D01*
X0073191Y0020496D01*
X0073233Y0020335D01*
X0073272Y0020173D01*
X0073307Y0020010D01*
X0073337Y0019846D01*
X0073363Y0019681D01*
X0073386Y0019516D01*
X0073404Y0019351D01*
X0073419Y0019185D01*
X0073429Y0019018D01*
X0073435Y0018852D01*
X0073437Y0018685D01*
X0073435Y0018518D01*
X0073429Y0018352D01*
X0073419Y0018185D01*
X0073404Y0018019D01*
X0073386Y0017854D01*
X0073363Y0017689D01*
X0073337Y0017524D01*
X0073307Y0017360D01*
X0073272Y0017197D01*
X0073233Y0017035D01*
X0073191Y0016874D01*
X0073145Y0016714D01*
X0073094Y0016555D01*
X0073040Y0016397D01*
X0072982Y0016241D01*
X0072920Y0016086D01*
X0072854Y0015933D01*
X0072785Y0015781D01*
X0072712Y0015632D01*
X0072635Y0015484D01*
X0072555Y0015338D01*
X0072471Y0015194D01*
X0072383Y0015052D01*
X0072293Y0014912D01*
X0072198Y0014775D01*
X0072101Y0014640D01*
X0072000Y0014507D01*
X0071896Y0014377D01*
X0071788Y0014249D01*
X0071678Y0014124D01*
X0071564Y0014002D01*
X0071448Y0013883D01*
X0071329Y0013767D01*
X0071207Y0013653D01*
X0071082Y0013543D01*
X0070954Y0013435D01*
X0070824Y0013331D01*
X0070691Y0013230D01*
X0070556Y0013133D01*
X0070419Y0013038D01*
X0070279Y0012948D01*
X0070137Y0012860D01*
X0069993Y0012776D01*
X0069847Y0012696D01*
X0069699Y0012619D01*
X0069550Y0012546D01*
X0069398Y0012477D01*
X0069245Y0012411D01*
X0069090Y0012349D01*
X0068934Y0012291D01*
X0068776Y0012237D01*
X0068617Y0012186D01*
X0068457Y0012140D01*
X0068296Y0012098D01*
X0068134Y0012059D01*
X0067971Y0012024D01*
X0067807Y0011994D01*
X0067642Y0011968D01*
X0067477Y0011945D01*
X0067312Y0011927D01*
X0067146Y0011912D01*
X0066979Y0011902D01*
X0066813Y0011896D01*
X0066646Y0011894D01*
X0066479Y0011896D01*
X0066313Y0011902D01*
X0066146Y0011912D01*
X0065980Y0011927D01*
X0065815Y0011945D01*
X0065650Y0011968D01*
X0065485Y0011994D01*
X0065321Y0012024D01*
X0065158Y0012059D01*
X0064996Y0012098D01*
X0064835Y0012140D01*
X0064675Y0012186D01*
X0064516Y0012237D01*
X0064358Y0012291D01*
X0064202Y0012349D01*
X0064047Y0012411D01*
X0063894Y0012477D01*
X0063742Y0012546D01*
X0063593Y0012619D01*
X0063445Y0012696D01*
X0063299Y0012776D01*
X0063155Y0012860D01*
X0063013Y0012948D01*
X0062873Y0013038D01*
X0062736Y0013133D01*
X0062601Y0013230D01*
X0062468Y0013331D01*
X0062338Y0013435D01*
X0062210Y0013543D01*
X0062085Y0013653D01*
X0061963Y0013767D01*
X0061844Y0013883D01*
X0061728Y0014002D01*
X0061614Y0014124D01*
X0061504Y0014249D01*
X0061396Y0014377D01*
X0061292Y0014507D01*
X0061191Y0014640D01*
X0061094Y0014775D01*
X0060999Y0014912D01*
X0060909Y0015052D01*
X0060821Y0015194D01*
X0060737Y0015338D01*
X0060657Y0015484D01*
X0060580Y0015632D01*
X0060507Y0015781D01*
X0060438Y0015933D01*
X0060372Y0016086D01*
X0060310Y0016241D01*
X0060252Y0016397D01*
X0060198Y0016555D01*
X0060147Y0016714D01*
X0060101Y0016874D01*
X0060059Y0017035D01*
X0060020Y0017197D01*
X0059985Y0017360D01*
X0059955Y0017524D01*
X0059929Y0017689D01*
X0059906Y0017854D01*
X0059888Y0018019D01*
X0059873Y0018185D01*
X0059863Y0018352D01*
X0059857Y0018518D01*
X0059855Y0018685D01*
X0194855Y0018685D02*
X0194857Y0018852D01*
X0194863Y0019018D01*
X0194873Y0019185D01*
X0194888Y0019351D01*
X0194906Y0019516D01*
X0194929Y0019681D01*
X0194955Y0019846D01*
X0194985Y0020010D01*
X0195020Y0020173D01*
X0195059Y0020335D01*
X0195101Y0020496D01*
X0195147Y0020656D01*
X0195198Y0020815D01*
X0195252Y0020973D01*
X0195310Y0021129D01*
X0195372Y0021284D01*
X0195438Y0021437D01*
X0195507Y0021589D01*
X0195580Y0021738D01*
X0195657Y0021886D01*
X0195737Y0022032D01*
X0195821Y0022176D01*
X0195909Y0022318D01*
X0195999Y0022458D01*
X0196094Y0022595D01*
X0196191Y0022730D01*
X0196292Y0022863D01*
X0196396Y0022993D01*
X0196504Y0023121D01*
X0196614Y0023246D01*
X0196728Y0023368D01*
X0196844Y0023487D01*
X0196963Y0023603D01*
X0197085Y0023717D01*
X0197210Y0023827D01*
X0197338Y0023935D01*
X0197468Y0024039D01*
X0197601Y0024140D01*
X0197736Y0024237D01*
X0197873Y0024332D01*
X0198013Y0024422D01*
X0198155Y0024510D01*
X0198299Y0024594D01*
X0198445Y0024674D01*
X0198593Y0024751D01*
X0198742Y0024824D01*
X0198894Y0024893D01*
X0199047Y0024959D01*
X0199202Y0025021D01*
X0199358Y0025079D01*
X0199516Y0025133D01*
X0199675Y0025184D01*
X0199835Y0025230D01*
X0199996Y0025272D01*
X0200158Y0025311D01*
X0200321Y0025346D01*
X0200485Y0025376D01*
X0200650Y0025402D01*
X0200815Y0025425D01*
X0200980Y0025443D01*
X0201146Y0025458D01*
X0201313Y0025468D01*
X0201479Y0025474D01*
X0201646Y0025476D01*
X0201813Y0025474D01*
X0201979Y0025468D01*
X0202146Y0025458D01*
X0202312Y0025443D01*
X0202477Y0025425D01*
X0202642Y0025402D01*
X0202807Y0025376D01*
X0202971Y0025346D01*
X0203134Y0025311D01*
X0203296Y0025272D01*
X0203457Y0025230D01*
X0203617Y0025184D01*
X0203776Y0025133D01*
X0203934Y0025079D01*
X0204090Y0025021D01*
X0204245Y0024959D01*
X0204398Y0024893D01*
X0204550Y0024824D01*
X0204699Y0024751D01*
X0204847Y0024674D01*
X0204993Y0024594D01*
X0205137Y0024510D01*
X0205279Y0024422D01*
X0205419Y0024332D01*
X0205556Y0024237D01*
X0205691Y0024140D01*
X0205824Y0024039D01*
X0205954Y0023935D01*
X0206082Y0023827D01*
X0206207Y0023717D01*
X0206329Y0023603D01*
X0206448Y0023487D01*
X0206564Y0023368D01*
X0206678Y0023246D01*
X0206788Y0023121D01*
X0206896Y0022993D01*
X0207000Y0022863D01*
X0207101Y0022730D01*
X0207198Y0022595D01*
X0207293Y0022458D01*
X0207383Y0022318D01*
X0207471Y0022176D01*
X0207555Y0022032D01*
X0207635Y0021886D01*
X0207712Y0021738D01*
X0207785Y0021589D01*
X0207854Y0021437D01*
X0207920Y0021284D01*
X0207982Y0021129D01*
X0208040Y0020973D01*
X0208094Y0020815D01*
X0208145Y0020656D01*
X0208191Y0020496D01*
X0208233Y0020335D01*
X0208272Y0020173D01*
X0208307Y0020010D01*
X0208337Y0019846D01*
X0208363Y0019681D01*
X0208386Y0019516D01*
X0208404Y0019351D01*
X0208419Y0019185D01*
X0208429Y0019018D01*
X0208435Y0018852D01*
X0208437Y0018685D01*
X0208435Y0018518D01*
X0208429Y0018352D01*
X0208419Y0018185D01*
X0208404Y0018019D01*
X0208386Y0017854D01*
X0208363Y0017689D01*
X0208337Y0017524D01*
X0208307Y0017360D01*
X0208272Y0017197D01*
X0208233Y0017035D01*
X0208191Y0016874D01*
X0208145Y0016714D01*
X0208094Y0016555D01*
X0208040Y0016397D01*
X0207982Y0016241D01*
X0207920Y0016086D01*
X0207854Y0015933D01*
X0207785Y0015781D01*
X0207712Y0015632D01*
X0207635Y0015484D01*
X0207555Y0015338D01*
X0207471Y0015194D01*
X0207383Y0015052D01*
X0207293Y0014912D01*
X0207198Y0014775D01*
X0207101Y0014640D01*
X0207000Y0014507D01*
X0206896Y0014377D01*
X0206788Y0014249D01*
X0206678Y0014124D01*
X0206564Y0014002D01*
X0206448Y0013883D01*
X0206329Y0013767D01*
X0206207Y0013653D01*
X0206082Y0013543D01*
X0205954Y0013435D01*
X0205824Y0013331D01*
X0205691Y0013230D01*
X0205556Y0013133D01*
X0205419Y0013038D01*
X0205279Y0012948D01*
X0205137Y0012860D01*
X0204993Y0012776D01*
X0204847Y0012696D01*
X0204699Y0012619D01*
X0204550Y0012546D01*
X0204398Y0012477D01*
X0204245Y0012411D01*
X0204090Y0012349D01*
X0203934Y0012291D01*
X0203776Y0012237D01*
X0203617Y0012186D01*
X0203457Y0012140D01*
X0203296Y0012098D01*
X0203134Y0012059D01*
X0202971Y0012024D01*
X0202807Y0011994D01*
X0202642Y0011968D01*
X0202477Y0011945D01*
X0202312Y0011927D01*
X0202146Y0011912D01*
X0201979Y0011902D01*
X0201813Y0011896D01*
X0201646Y0011894D01*
X0201479Y0011896D01*
X0201313Y0011902D01*
X0201146Y0011912D01*
X0200980Y0011927D01*
X0200815Y0011945D01*
X0200650Y0011968D01*
X0200485Y0011994D01*
X0200321Y0012024D01*
X0200158Y0012059D01*
X0199996Y0012098D01*
X0199835Y0012140D01*
X0199675Y0012186D01*
X0199516Y0012237D01*
X0199358Y0012291D01*
X0199202Y0012349D01*
X0199047Y0012411D01*
X0198894Y0012477D01*
X0198742Y0012546D01*
X0198593Y0012619D01*
X0198445Y0012696D01*
X0198299Y0012776D01*
X0198155Y0012860D01*
X0198013Y0012948D01*
X0197873Y0013038D01*
X0197736Y0013133D01*
X0197601Y0013230D01*
X0197468Y0013331D01*
X0197338Y0013435D01*
X0197210Y0013543D01*
X0197085Y0013653D01*
X0196963Y0013767D01*
X0196844Y0013883D01*
X0196728Y0014002D01*
X0196614Y0014124D01*
X0196504Y0014249D01*
X0196396Y0014377D01*
X0196292Y0014507D01*
X0196191Y0014640D01*
X0196094Y0014775D01*
X0195999Y0014912D01*
X0195909Y0015052D01*
X0195821Y0015194D01*
X0195737Y0015338D01*
X0195657Y0015484D01*
X0195580Y0015632D01*
X0195507Y0015781D01*
X0195438Y0015933D01*
X0195372Y0016086D01*
X0195310Y0016241D01*
X0195252Y0016397D01*
X0195198Y0016555D01*
X0195147Y0016714D01*
X0195101Y0016874D01*
X0195059Y0017035D01*
X0195020Y0017197D01*
X0194985Y0017360D01*
X0194955Y0017524D01*
X0194929Y0017689D01*
X0194906Y0017854D01*
X0194888Y0018019D01*
X0194873Y0018185D01*
X0194863Y0018352D01*
X0194857Y0018518D01*
X0194855Y0018685D01*
X0194855Y0273685D02*
X0194857Y0273852D01*
X0194863Y0274018D01*
X0194873Y0274185D01*
X0194888Y0274351D01*
X0194906Y0274516D01*
X0194929Y0274681D01*
X0194955Y0274846D01*
X0194985Y0275010D01*
X0195020Y0275173D01*
X0195059Y0275335D01*
X0195101Y0275496D01*
X0195147Y0275656D01*
X0195198Y0275815D01*
X0195252Y0275973D01*
X0195310Y0276129D01*
X0195372Y0276284D01*
X0195438Y0276437D01*
X0195507Y0276589D01*
X0195580Y0276738D01*
X0195657Y0276886D01*
X0195737Y0277032D01*
X0195821Y0277176D01*
X0195909Y0277318D01*
X0195999Y0277458D01*
X0196094Y0277595D01*
X0196191Y0277730D01*
X0196292Y0277863D01*
X0196396Y0277993D01*
X0196504Y0278121D01*
X0196614Y0278246D01*
X0196728Y0278368D01*
X0196844Y0278487D01*
X0196963Y0278603D01*
X0197085Y0278717D01*
X0197210Y0278827D01*
X0197338Y0278935D01*
X0197468Y0279039D01*
X0197601Y0279140D01*
X0197736Y0279237D01*
X0197873Y0279332D01*
X0198013Y0279422D01*
X0198155Y0279510D01*
X0198299Y0279594D01*
X0198445Y0279674D01*
X0198593Y0279751D01*
X0198742Y0279824D01*
X0198894Y0279893D01*
X0199047Y0279959D01*
X0199202Y0280021D01*
X0199358Y0280079D01*
X0199516Y0280133D01*
X0199675Y0280184D01*
X0199835Y0280230D01*
X0199996Y0280272D01*
X0200158Y0280311D01*
X0200321Y0280346D01*
X0200485Y0280376D01*
X0200650Y0280402D01*
X0200815Y0280425D01*
X0200980Y0280443D01*
X0201146Y0280458D01*
X0201313Y0280468D01*
X0201479Y0280474D01*
X0201646Y0280476D01*
X0201813Y0280474D01*
X0201979Y0280468D01*
X0202146Y0280458D01*
X0202312Y0280443D01*
X0202477Y0280425D01*
X0202642Y0280402D01*
X0202807Y0280376D01*
X0202971Y0280346D01*
X0203134Y0280311D01*
X0203296Y0280272D01*
X0203457Y0280230D01*
X0203617Y0280184D01*
X0203776Y0280133D01*
X0203934Y0280079D01*
X0204090Y0280021D01*
X0204245Y0279959D01*
X0204398Y0279893D01*
X0204550Y0279824D01*
X0204699Y0279751D01*
X0204847Y0279674D01*
X0204993Y0279594D01*
X0205137Y0279510D01*
X0205279Y0279422D01*
X0205419Y0279332D01*
X0205556Y0279237D01*
X0205691Y0279140D01*
X0205824Y0279039D01*
X0205954Y0278935D01*
X0206082Y0278827D01*
X0206207Y0278717D01*
X0206329Y0278603D01*
X0206448Y0278487D01*
X0206564Y0278368D01*
X0206678Y0278246D01*
X0206788Y0278121D01*
X0206896Y0277993D01*
X0207000Y0277863D01*
X0207101Y0277730D01*
X0207198Y0277595D01*
X0207293Y0277458D01*
X0207383Y0277318D01*
X0207471Y0277176D01*
X0207555Y0277032D01*
X0207635Y0276886D01*
X0207712Y0276738D01*
X0207785Y0276589D01*
X0207854Y0276437D01*
X0207920Y0276284D01*
X0207982Y0276129D01*
X0208040Y0275973D01*
X0208094Y0275815D01*
X0208145Y0275656D01*
X0208191Y0275496D01*
X0208233Y0275335D01*
X0208272Y0275173D01*
X0208307Y0275010D01*
X0208337Y0274846D01*
X0208363Y0274681D01*
X0208386Y0274516D01*
X0208404Y0274351D01*
X0208419Y0274185D01*
X0208429Y0274018D01*
X0208435Y0273852D01*
X0208437Y0273685D01*
X0208435Y0273518D01*
X0208429Y0273352D01*
X0208419Y0273185D01*
X0208404Y0273019D01*
X0208386Y0272854D01*
X0208363Y0272689D01*
X0208337Y0272524D01*
X0208307Y0272360D01*
X0208272Y0272197D01*
X0208233Y0272035D01*
X0208191Y0271874D01*
X0208145Y0271714D01*
X0208094Y0271555D01*
X0208040Y0271397D01*
X0207982Y0271241D01*
X0207920Y0271086D01*
X0207854Y0270933D01*
X0207785Y0270781D01*
X0207712Y0270632D01*
X0207635Y0270484D01*
X0207555Y0270338D01*
X0207471Y0270194D01*
X0207383Y0270052D01*
X0207293Y0269912D01*
X0207198Y0269775D01*
X0207101Y0269640D01*
X0207000Y0269507D01*
X0206896Y0269377D01*
X0206788Y0269249D01*
X0206678Y0269124D01*
X0206564Y0269002D01*
X0206448Y0268883D01*
X0206329Y0268767D01*
X0206207Y0268653D01*
X0206082Y0268543D01*
X0205954Y0268435D01*
X0205824Y0268331D01*
X0205691Y0268230D01*
X0205556Y0268133D01*
X0205419Y0268038D01*
X0205279Y0267948D01*
X0205137Y0267860D01*
X0204993Y0267776D01*
X0204847Y0267696D01*
X0204699Y0267619D01*
X0204550Y0267546D01*
X0204398Y0267477D01*
X0204245Y0267411D01*
X0204090Y0267349D01*
X0203934Y0267291D01*
X0203776Y0267237D01*
X0203617Y0267186D01*
X0203457Y0267140D01*
X0203296Y0267098D01*
X0203134Y0267059D01*
X0202971Y0267024D01*
X0202807Y0266994D01*
X0202642Y0266968D01*
X0202477Y0266945D01*
X0202312Y0266927D01*
X0202146Y0266912D01*
X0201979Y0266902D01*
X0201813Y0266896D01*
X0201646Y0266894D01*
X0201479Y0266896D01*
X0201313Y0266902D01*
X0201146Y0266912D01*
X0200980Y0266927D01*
X0200815Y0266945D01*
X0200650Y0266968D01*
X0200485Y0266994D01*
X0200321Y0267024D01*
X0200158Y0267059D01*
X0199996Y0267098D01*
X0199835Y0267140D01*
X0199675Y0267186D01*
X0199516Y0267237D01*
X0199358Y0267291D01*
X0199202Y0267349D01*
X0199047Y0267411D01*
X0198894Y0267477D01*
X0198742Y0267546D01*
X0198593Y0267619D01*
X0198445Y0267696D01*
X0198299Y0267776D01*
X0198155Y0267860D01*
X0198013Y0267948D01*
X0197873Y0268038D01*
X0197736Y0268133D01*
X0197601Y0268230D01*
X0197468Y0268331D01*
X0197338Y0268435D01*
X0197210Y0268543D01*
X0197085Y0268653D01*
X0196963Y0268767D01*
X0196844Y0268883D01*
X0196728Y0269002D01*
X0196614Y0269124D01*
X0196504Y0269249D01*
X0196396Y0269377D01*
X0196292Y0269507D01*
X0196191Y0269640D01*
X0196094Y0269775D01*
X0195999Y0269912D01*
X0195909Y0270052D01*
X0195821Y0270194D01*
X0195737Y0270338D01*
X0195657Y0270484D01*
X0195580Y0270632D01*
X0195507Y0270781D01*
X0195438Y0270933D01*
X0195372Y0271086D01*
X0195310Y0271241D01*
X0195252Y0271397D01*
X0195198Y0271555D01*
X0195147Y0271714D01*
X0195101Y0271874D01*
X0195059Y0272035D01*
X0195020Y0272197D01*
X0194985Y0272360D01*
X0194955Y0272524D01*
X0194929Y0272689D01*
X0194906Y0272854D01*
X0194888Y0273019D01*
X0194873Y0273185D01*
X0194863Y0273352D01*
X0194857Y0273518D01*
X0194855Y0273685D01*
X0059855Y0273685D02*
X0059857Y0273852D01*
X0059863Y0274018D01*
X0059873Y0274185D01*
X0059888Y0274351D01*
X0059906Y0274516D01*
X0059929Y0274681D01*
X0059955Y0274846D01*
X0059985Y0275010D01*
X0060020Y0275173D01*
X0060059Y0275335D01*
X0060101Y0275496D01*
X0060147Y0275656D01*
X0060198Y0275815D01*
X0060252Y0275973D01*
X0060310Y0276129D01*
X0060372Y0276284D01*
X0060438Y0276437D01*
X0060507Y0276589D01*
X0060580Y0276738D01*
X0060657Y0276886D01*
X0060737Y0277032D01*
X0060821Y0277176D01*
X0060909Y0277318D01*
X0060999Y0277458D01*
X0061094Y0277595D01*
X0061191Y0277730D01*
X0061292Y0277863D01*
X0061396Y0277993D01*
X0061504Y0278121D01*
X0061614Y0278246D01*
X0061728Y0278368D01*
X0061844Y0278487D01*
X0061963Y0278603D01*
X0062085Y0278717D01*
X0062210Y0278827D01*
X0062338Y0278935D01*
X0062468Y0279039D01*
X0062601Y0279140D01*
X0062736Y0279237D01*
X0062873Y0279332D01*
X0063013Y0279422D01*
X0063155Y0279510D01*
X0063299Y0279594D01*
X0063445Y0279674D01*
X0063593Y0279751D01*
X0063742Y0279824D01*
X0063894Y0279893D01*
X0064047Y0279959D01*
X0064202Y0280021D01*
X0064358Y0280079D01*
X0064516Y0280133D01*
X0064675Y0280184D01*
X0064835Y0280230D01*
X0064996Y0280272D01*
X0065158Y0280311D01*
X0065321Y0280346D01*
X0065485Y0280376D01*
X0065650Y0280402D01*
X0065815Y0280425D01*
X0065980Y0280443D01*
X0066146Y0280458D01*
X0066313Y0280468D01*
X0066479Y0280474D01*
X0066646Y0280476D01*
X0066813Y0280474D01*
X0066979Y0280468D01*
X0067146Y0280458D01*
X0067312Y0280443D01*
X0067477Y0280425D01*
X0067642Y0280402D01*
X0067807Y0280376D01*
X0067971Y0280346D01*
X0068134Y0280311D01*
X0068296Y0280272D01*
X0068457Y0280230D01*
X0068617Y0280184D01*
X0068776Y0280133D01*
X0068934Y0280079D01*
X0069090Y0280021D01*
X0069245Y0279959D01*
X0069398Y0279893D01*
X0069550Y0279824D01*
X0069699Y0279751D01*
X0069847Y0279674D01*
X0069993Y0279594D01*
X0070137Y0279510D01*
X0070279Y0279422D01*
X0070419Y0279332D01*
X0070556Y0279237D01*
X0070691Y0279140D01*
X0070824Y0279039D01*
X0070954Y0278935D01*
X0071082Y0278827D01*
X0071207Y0278717D01*
X0071329Y0278603D01*
X0071448Y0278487D01*
X0071564Y0278368D01*
X0071678Y0278246D01*
X0071788Y0278121D01*
X0071896Y0277993D01*
X0072000Y0277863D01*
X0072101Y0277730D01*
X0072198Y0277595D01*
X0072293Y0277458D01*
X0072383Y0277318D01*
X0072471Y0277176D01*
X0072555Y0277032D01*
X0072635Y0276886D01*
X0072712Y0276738D01*
X0072785Y0276589D01*
X0072854Y0276437D01*
X0072920Y0276284D01*
X0072982Y0276129D01*
X0073040Y0275973D01*
X0073094Y0275815D01*
X0073145Y0275656D01*
X0073191Y0275496D01*
X0073233Y0275335D01*
X0073272Y0275173D01*
X0073307Y0275010D01*
X0073337Y0274846D01*
X0073363Y0274681D01*
X0073386Y0274516D01*
X0073404Y0274351D01*
X0073419Y0274185D01*
X0073429Y0274018D01*
X0073435Y0273852D01*
X0073437Y0273685D01*
X0073435Y0273518D01*
X0073429Y0273352D01*
X0073419Y0273185D01*
X0073404Y0273019D01*
X0073386Y0272854D01*
X0073363Y0272689D01*
X0073337Y0272524D01*
X0073307Y0272360D01*
X0073272Y0272197D01*
X0073233Y0272035D01*
X0073191Y0271874D01*
X0073145Y0271714D01*
X0073094Y0271555D01*
X0073040Y0271397D01*
X0072982Y0271241D01*
X0072920Y0271086D01*
X0072854Y0270933D01*
X0072785Y0270781D01*
X0072712Y0270632D01*
X0072635Y0270484D01*
X0072555Y0270338D01*
X0072471Y0270194D01*
X0072383Y0270052D01*
X0072293Y0269912D01*
X0072198Y0269775D01*
X0072101Y0269640D01*
X0072000Y0269507D01*
X0071896Y0269377D01*
X0071788Y0269249D01*
X0071678Y0269124D01*
X0071564Y0269002D01*
X0071448Y0268883D01*
X0071329Y0268767D01*
X0071207Y0268653D01*
X0071082Y0268543D01*
X0070954Y0268435D01*
X0070824Y0268331D01*
X0070691Y0268230D01*
X0070556Y0268133D01*
X0070419Y0268038D01*
X0070279Y0267948D01*
X0070137Y0267860D01*
X0069993Y0267776D01*
X0069847Y0267696D01*
X0069699Y0267619D01*
X0069550Y0267546D01*
X0069398Y0267477D01*
X0069245Y0267411D01*
X0069090Y0267349D01*
X0068934Y0267291D01*
X0068776Y0267237D01*
X0068617Y0267186D01*
X0068457Y0267140D01*
X0068296Y0267098D01*
X0068134Y0267059D01*
X0067971Y0267024D01*
X0067807Y0266994D01*
X0067642Y0266968D01*
X0067477Y0266945D01*
X0067312Y0266927D01*
X0067146Y0266912D01*
X0066979Y0266902D01*
X0066813Y0266896D01*
X0066646Y0266894D01*
X0066479Y0266896D01*
X0066313Y0266902D01*
X0066146Y0266912D01*
X0065980Y0266927D01*
X0065815Y0266945D01*
X0065650Y0266968D01*
X0065485Y0266994D01*
X0065321Y0267024D01*
X0065158Y0267059D01*
X0064996Y0267098D01*
X0064835Y0267140D01*
X0064675Y0267186D01*
X0064516Y0267237D01*
X0064358Y0267291D01*
X0064202Y0267349D01*
X0064047Y0267411D01*
X0063894Y0267477D01*
X0063742Y0267546D01*
X0063593Y0267619D01*
X0063445Y0267696D01*
X0063299Y0267776D01*
X0063155Y0267860D01*
X0063013Y0267948D01*
X0062873Y0268038D01*
X0062736Y0268133D01*
X0062601Y0268230D01*
X0062468Y0268331D01*
X0062338Y0268435D01*
X0062210Y0268543D01*
X0062085Y0268653D01*
X0061963Y0268767D01*
X0061844Y0268883D01*
X0061728Y0269002D01*
X0061614Y0269124D01*
X0061504Y0269249D01*
X0061396Y0269377D01*
X0061292Y0269507D01*
X0061191Y0269640D01*
X0061094Y0269775D01*
X0060999Y0269912D01*
X0060909Y0270052D01*
X0060821Y0270194D01*
X0060737Y0270338D01*
X0060657Y0270484D01*
X0060580Y0270632D01*
X0060507Y0270781D01*
X0060438Y0270933D01*
X0060372Y0271086D01*
X0060310Y0271241D01*
X0060252Y0271397D01*
X0060198Y0271555D01*
X0060147Y0271714D01*
X0060101Y0271874D01*
X0060059Y0272035D01*
X0060020Y0272197D01*
X0059985Y0272360D01*
X0059955Y0272524D01*
X0059929Y0272689D01*
X0059906Y0272854D01*
X0059888Y0273019D01*
X0059873Y0273185D01*
X0059863Y0273352D01*
X0059857Y0273518D01*
X0059855Y0273685D01*
D11*
X0065354Y0119630D03*
X0071260Y0116874D03*
X0072441Y0116874D03*
X0079134Y0116874D03*
X0089764Y0118449D03*
X0095669Y0111362D03*
X0098425Y0086559D03*
X0092913Y0076717D03*
X0102362Y0072780D03*
X0083858Y0083803D03*
X0082283Y0083803D03*
X0079134Y0079472D03*
X0079921Y0074748D03*
X0081102Y0068843D03*
X0070866Y0071205D03*
X0070866Y0077504D03*
X0076772Y0085772D03*
X0077953Y0086953D03*
X0059055Y0085772D03*
X0053150Y0088134D03*
X0052362Y0083803D03*
X0051969Y0071992D03*
X0055512Y0069236D03*
X0036220Y0069630D03*
X0033858Y0085772D03*
X0029134Y0087346D03*
X0022441Y0090890D03*
X0022441Y0091283D03*
X0022441Y0091677D03*
X0022047Y0092465D03*
X0022047Y0092858D03*
X0020079Y0089315D03*
X0016929Y0087346D03*
X0015354Y0089709D03*
X0014961Y0090890D03*
X0014961Y0091283D03*
X0014961Y0091677D03*
X0015354Y0092465D03*
X0015354Y0092858D03*
X0016535Y0094827D03*
X0038976Y0099157D03*
X0051181Y0113331D03*
X0059843Y0113724D03*
X0121260Y0086559D03*
X0127165Y0083409D03*
X0127165Y0075929D03*
X0127165Y0072386D03*
X0121260Y0072780D03*
X0121654Y0069630D03*
X0105118Y0048370D03*
X0081890Y0040102D03*
X0079921Y0036165D03*
X0073622Y0039315D03*
X0068898Y0036165D03*
X0065354Y0040890D03*
X0060630Y0042465D03*
D12*
X0058858Y0041283D03*
X0067126Y0037740D03*
X0075394Y0036165D03*
X0091929Y0041283D03*
X0050197Y0070417D03*
X0032480Y0079472D03*
X0058858Y0115299D03*
X0075394Y0120417D03*
X0089567Y0116480D03*
X0091929Y0115299D03*
X0102953Y0086559D03*
X0115157Y0086559D03*
X0087598Y0084197D03*
D13*
X0083268Y0085378D03*
X0052165Y0071205D03*
X0065945Y0039315D03*
X0075394Y0036559D03*
X0065945Y0117268D03*
D14*
X0075591Y0036953D03*
D15*
X0080315Y0037346D03*
X0063780Y0039709D03*
X0050000Y0072386D03*
X0052362Y0086165D03*
X0063780Y0116874D03*
X0103150Y0084984D03*
D16*
X0083268Y0069630D03*
X0089567Y0040496D03*
X0069488Y0037346D03*
X0061220Y0116087D03*
D17*
X0079528Y0037740D03*
D18*
X0075197Y0038134D03*
D19*
X0086220Y0038528D03*
X0092913Y0041677D03*
X0093701Y0042071D03*
X0057087Y0073567D03*
X0056299Y0071992D03*
X0047244Y0073567D03*
X0056693Y0083803D03*
X0032283Y0079079D03*
X0056299Y0114118D03*
X0057874Y0114906D03*
X0092913Y0114906D03*
X0111811Y0082622D03*
D20*
X0083268Y0084984D03*
X0052559Y0084591D03*
X0074606Y0038528D03*
D21*
X0063780Y0038528D03*
X0054331Y0043646D03*
X0053150Y0044433D03*
X0052362Y0044827D03*
X0049606Y0046795D03*
X0038976Y0070024D03*
X0038976Y0070417D03*
X0038583Y0070811D03*
X0037795Y0071992D03*
X0037795Y0072386D03*
X0037008Y0073173D03*
X0037008Y0073567D03*
X0036614Y0073961D03*
X0036220Y0074354D03*
X0035827Y0075142D03*
X0037402Y0085772D03*
X0027953Y0084591D03*
X0027559Y0084984D03*
X0027165Y0085378D03*
X0026772Y0086165D03*
X0046457Y0082228D03*
X0052362Y0111756D03*
X0053150Y0112150D03*
X0054724Y0113331D03*
X0069291Y0119630D03*
X0092126Y0115693D03*
X0097244Y0112543D03*
X0098425Y0111756D03*
X0100394Y0110181D03*
X0088976Y0083016D03*
X0089370Y0082228D03*
X0089764Y0081441D03*
X0089764Y0081047D03*
X0090157Y0080260D03*
X0090157Y0079866D03*
X0090157Y0079079D03*
X0090157Y0078685D03*
X0090157Y0078291D03*
X0090157Y0077898D03*
X0090157Y0077504D03*
X0090157Y0077110D03*
X0098819Y0072780D03*
X0111811Y0070024D03*
X0100394Y0046402D03*
X0098425Y0044827D03*
D22*
X0075591Y0038921D03*
X0075591Y0117661D03*
D23*
X0068898Y0118449D03*
X0085039Y0117268D03*
X0082283Y0071598D03*
X0085039Y0039315D03*
D24*
X0087205Y0039709D03*
X0081693Y0072386D03*
X0051378Y0078685D03*
X0050984Y0084984D03*
X0032480Y0076323D03*
X0087205Y0116874D03*
X0115157Y0085378D03*
D25*
X0121457Y0080260D03*
X0121457Y0079472D03*
X0114764Y0070811D03*
X0108858Y0071598D03*
X0085236Y0083803D03*
X0073425Y0077504D03*
X0070669Y0073961D03*
X0075394Y0072386D03*
X0070669Y0088528D03*
X0048622Y0107031D03*
X0048622Y0110575D03*
X0021457Y0093646D03*
X0021063Y0094039D03*
X0019882Y0092465D03*
X0019882Y0092071D03*
X0019882Y0091677D03*
X0019882Y0090496D03*
X0019882Y0090102D03*
X0019882Y0089709D03*
X0021063Y0088528D03*
X0020669Y0088134D03*
X0021850Y0089315D03*
X0022244Y0089709D03*
X0022244Y0090102D03*
X0022244Y0090496D03*
X0022244Y0092071D03*
X0017520Y0092071D03*
X0017520Y0091677D03*
X0017520Y0090496D03*
X0017520Y0090102D03*
X0017520Y0089709D03*
X0016339Y0088528D03*
X0015945Y0088921D03*
X0016732Y0088134D03*
X0015157Y0090102D03*
X0015157Y0090496D03*
X0015157Y0092071D03*
X0015945Y0093646D03*
X0016339Y0094039D03*
X0031299Y0083409D03*
X0050984Y0047583D03*
X0093110Y0040102D03*
X0090354Y0114512D03*
D26*
X0083268Y0086953D03*
X0087992Y0040102D03*
X0060039Y0040890D03*
X0032480Y0078291D03*
X0032087Y0079866D03*
X0030512Y0082622D03*
D27*
X0032283Y0077504D03*
X0052362Y0086559D03*
X0054331Y0085378D03*
X0062205Y0116480D03*
X0103150Y0086165D03*
X0062205Y0040102D03*
D28*
X0061024Y0040496D03*
X0032283Y0077898D03*
X0032283Y0080260D03*
X0081890Y0085772D03*
X0103937Y0085378D03*
X0115354Y0086165D03*
X0089764Y0116087D03*
D29*
X0059843Y0115693D03*
X0052362Y0086953D03*
X0052362Y0069630D03*
X0057874Y0041677D03*
X0090945Y0040890D03*
X0111811Y0083016D03*
X0123228Y0083803D03*
D30*
X0123819Y0083016D03*
X0123819Y0082622D03*
X0112008Y0079472D03*
X0112008Y0078291D03*
X0112008Y0077110D03*
X0111614Y0076323D03*
X0112008Y0074748D03*
X0112008Y0072386D03*
X0112008Y0071205D03*
X0100197Y0083409D03*
X0078150Y0083803D03*
X0076575Y0077110D03*
X0077756Y0073173D03*
X0078150Y0072780D03*
X0058465Y0075929D03*
X0058071Y0074748D03*
X0057283Y0083409D03*
X0046654Y0073961D03*
X0047835Y0071992D03*
X0046260Y0080260D03*
X0037598Y0086559D03*
X0036811Y0085378D03*
X0057283Y0114512D03*
X0078937Y0120024D03*
X0055315Y0042858D03*
X0056496Y0042465D03*
X0057283Y0042071D03*
D31*
X0057874Y0074354D03*
X0058268Y0075142D03*
X0058268Y0075535D03*
X0058661Y0076323D03*
X0058661Y0076717D03*
X0058661Y0079472D03*
X0058661Y0080654D03*
X0058268Y0081835D03*
X0047244Y0083409D03*
X0045669Y0080654D03*
X0046457Y0074354D03*
X0036220Y0084197D03*
X0035827Y0083803D03*
X0035433Y0083409D03*
X0034646Y0081835D03*
X0036614Y0084984D03*
X0037402Y0086165D03*
X0037795Y0086953D03*
X0029134Y0074748D03*
X0028740Y0073961D03*
X0027559Y0072386D03*
X0027559Y0071992D03*
X0027165Y0071598D03*
X0026772Y0070811D03*
X0026378Y0070417D03*
X0026378Y0070024D03*
X0055512Y0113724D03*
X0071654Y0120024D03*
X0094488Y0114118D03*
X0095276Y0113724D03*
X0100000Y0083016D03*
X0099606Y0082622D03*
X0099606Y0082228D03*
X0099213Y0081835D03*
X0099213Y0080260D03*
X0099213Y0078685D03*
X0099213Y0077898D03*
X0099213Y0077110D03*
X0099213Y0076323D03*
X0099213Y0073961D03*
X0099213Y0071598D03*
X0099213Y0070417D03*
X0088976Y0073567D03*
X0088583Y0073173D03*
X0088189Y0072780D03*
X0077559Y0073567D03*
X0077165Y0073961D03*
X0076772Y0075142D03*
X0076378Y0076717D03*
X0076378Y0079866D03*
X0076378Y0080260D03*
X0076772Y0081835D03*
X0077165Y0082622D03*
X0077559Y0083016D03*
X0077559Y0083409D03*
X0111811Y0082228D03*
X0111811Y0081441D03*
X0111811Y0081047D03*
X0111811Y0080260D03*
X0111811Y0079866D03*
X0111811Y0079079D03*
X0111811Y0078685D03*
X0111811Y0077898D03*
X0111811Y0077504D03*
X0111811Y0076717D03*
X0111811Y0075535D03*
X0111811Y0075142D03*
X0111811Y0074354D03*
X0111811Y0073961D03*
X0111811Y0072780D03*
X0111811Y0071992D03*
X0111811Y0070417D03*
X0124016Y0082228D03*
X0123228Y0083409D03*
X0095276Y0042858D03*
X0094488Y0042465D03*
D32*
X0095866Y0043252D03*
X0096654Y0043646D03*
X0097441Y0044039D03*
X0097835Y0044433D03*
X0099803Y0070024D03*
X0099409Y0071205D03*
X0099409Y0072386D03*
X0099409Y0073173D03*
X0099409Y0073567D03*
X0099409Y0074354D03*
X0099409Y0074748D03*
X0099409Y0075535D03*
X0099409Y0075929D03*
X0099409Y0076717D03*
X0099409Y0078291D03*
X0099409Y0079079D03*
X0099409Y0079472D03*
X0099409Y0079866D03*
X0099409Y0080654D03*
X0102953Y0086953D03*
X0089567Y0081835D03*
X0089961Y0080654D03*
X0088780Y0083409D03*
X0083268Y0087346D03*
X0076969Y0082228D03*
X0076575Y0081441D03*
X0076575Y0081047D03*
X0076181Y0078685D03*
X0076181Y0078291D03*
X0076181Y0077898D03*
X0076575Y0076323D03*
X0076575Y0075929D03*
X0076969Y0074354D03*
X0083268Y0069236D03*
X0089173Y0073961D03*
X0089567Y0074354D03*
X0089567Y0074748D03*
X0089961Y0075142D03*
X0089961Y0075929D03*
X0089961Y0076323D03*
X0067913Y0076717D03*
X0067913Y0077110D03*
X0067913Y0075929D03*
X0067913Y0075535D03*
X0067913Y0075142D03*
X0067913Y0074748D03*
X0067913Y0074354D03*
X0067913Y0073567D03*
X0067913Y0073173D03*
X0067913Y0072386D03*
X0067913Y0071992D03*
X0067913Y0070811D03*
X0067913Y0070417D03*
X0067913Y0070024D03*
X0067913Y0078291D03*
X0067913Y0078685D03*
X0067913Y0079472D03*
X0067913Y0079866D03*
X0067913Y0080260D03*
X0067913Y0080654D03*
X0067913Y0081047D03*
X0067913Y0081441D03*
X0067913Y0081835D03*
X0067913Y0082228D03*
X0067913Y0083016D03*
X0067913Y0084197D03*
X0067913Y0084591D03*
X0067913Y0084984D03*
X0067913Y0085378D03*
X0067913Y0085772D03*
X0067913Y0086165D03*
X0067913Y0086953D03*
X0067913Y0087346D03*
X0067913Y0087740D03*
X0067913Y0088921D03*
X0067913Y0089315D03*
X0067913Y0090102D03*
X0067913Y0090496D03*
X0067913Y0090890D03*
X0067913Y0091283D03*
X0067913Y0092465D03*
X0067913Y0092858D03*
X0067913Y0093646D03*
X0067913Y0094039D03*
X0067913Y0094433D03*
X0057677Y0083016D03*
X0058071Y0082228D03*
X0058465Y0081441D03*
X0058465Y0081047D03*
X0052559Y0087346D03*
X0047047Y0083016D03*
X0046654Y0082622D03*
X0046260Y0081835D03*
X0046260Y0081047D03*
X0046260Y0074748D03*
X0037992Y0071598D03*
X0029331Y0075142D03*
X0028937Y0074354D03*
X0028150Y0073173D03*
X0028150Y0084197D03*
X0026969Y0085772D03*
X0026181Y0086559D03*
X0026181Y0086953D03*
X0053740Y0112543D03*
X0054134Y0112937D03*
X0094291Y0114512D03*
X0095866Y0113331D03*
X0096654Y0112937D03*
X0097835Y0112150D03*
X0115157Y0086953D03*
X0124213Y0086953D03*
X0124213Y0086165D03*
X0124213Y0085772D03*
X0124213Y0085378D03*
X0124213Y0081441D03*
X0124213Y0081047D03*
X0124213Y0079866D03*
X0124213Y0079079D03*
X0124213Y0078291D03*
X0124213Y0077898D03*
X0124213Y0077110D03*
X0124213Y0076717D03*
X0124213Y0076323D03*
X0124213Y0075142D03*
X0124213Y0074748D03*
X0124213Y0074354D03*
X0124213Y0073567D03*
X0124213Y0073173D03*
X0124213Y0071992D03*
X0124213Y0071598D03*
X0124213Y0071205D03*
X0124213Y0070417D03*
X0124213Y0070024D03*
X0053740Y0044039D03*
D33*
X0056496Y0043252D03*
X0037205Y0064512D03*
X0039961Y0071205D03*
X0038780Y0072780D03*
X0034843Y0074748D03*
X0029724Y0072780D03*
X0026181Y0072780D03*
X0036811Y0082622D03*
X0043898Y0078685D03*
X0047441Y0085378D03*
X0058465Y0084984D03*
X0066339Y0086559D03*
X0069488Y0082622D03*
X0066339Y0077898D03*
X0066339Y0076323D03*
X0066339Y0071598D03*
X0077756Y0079079D03*
X0069488Y0093252D03*
X0098228Y0110969D03*
X0113976Y0091283D03*
X0113976Y0065299D03*
X0104528Y0049157D03*
X0037205Y0092071D03*
X0018701Y0092858D03*
X0018701Y0090890D03*
X0018701Y0094827D03*
D34*
X0018898Y0091283D03*
X0040945Y0099157D03*
X0066142Y0093252D03*
X0069685Y0086559D03*
X0066142Y0082622D03*
X0069685Y0077898D03*
X0069685Y0076323D03*
X0069685Y0071598D03*
X0074409Y0079079D03*
X0088189Y0085772D03*
X0103543Y0083803D03*
X0113780Y0073173D03*
X0055512Y0073961D03*
X0036614Y0071205D03*
X0042913Y0055063D03*
X0053150Y0043252D03*
D35*
X0051772Y0045220D03*
X0051378Y0045614D03*
X0067520Y0071205D03*
X0067520Y0077504D03*
X0075787Y0079472D03*
X0076575Y0074748D03*
X0088780Y0083803D03*
X0111220Y0070811D03*
X0112402Y0071598D03*
X0123819Y0075929D03*
X0124606Y0072780D03*
X0124606Y0086559D03*
X0099016Y0111362D03*
X0051772Y0111362D03*
X0051378Y0110969D03*
X0049803Y0109787D03*
X0049016Y0109394D03*
X0030512Y0080654D03*
X0099016Y0045220D03*
X0099409Y0045614D03*
D36*
X0100000Y0046008D03*
X0101181Y0046795D03*
X0101575Y0047189D03*
X0101969Y0047583D03*
X0102362Y0047976D03*
X0111024Y0073567D03*
X0113780Y0083409D03*
X0124803Y0080260D03*
X0124803Y0079472D03*
X0099213Y0083803D03*
X0089764Y0076717D03*
X0076772Y0077504D03*
X0067323Y0073961D03*
X0067323Y0088528D03*
X0052362Y0069236D03*
X0049213Y0047189D03*
X0050394Y0046402D03*
X0050787Y0046008D03*
X0048425Y0108606D03*
X0048819Y0109000D03*
X0050394Y0110181D03*
X0100000Y0110575D03*
X0101181Y0109787D03*
X0101575Y0109394D03*
X0101969Y0109000D03*
D37*
X0107677Y0103094D03*
X0108465Y0101913D03*
X0108858Y0101520D03*
X0109252Y0100732D03*
X0109646Y0100339D03*
X0110039Y0099551D03*
X0110433Y0099157D03*
X0110827Y0098370D03*
X0111220Y0097583D03*
X0111614Y0096795D03*
X0112008Y0096008D03*
X0113583Y0093252D03*
X0125394Y0084197D03*
X0125394Y0081835D03*
X0123031Y0078685D03*
X0125394Y0075535D03*
X0125394Y0070811D03*
X0113583Y0064118D03*
X0112402Y0061362D03*
X0111614Y0059787D03*
X0111220Y0059000D03*
X0111220Y0058606D03*
X0110827Y0058213D03*
X0110433Y0057819D03*
X0110433Y0057425D03*
X0110039Y0057031D03*
X0109646Y0056244D03*
X0109252Y0055850D03*
X0108858Y0055063D03*
X0108465Y0054669D03*
X0107677Y0053488D03*
X0107283Y0053094D03*
X0102559Y0048370D03*
X0100591Y0071992D03*
X0097835Y0075142D03*
X0097835Y0081047D03*
X0100591Y0081441D03*
X0089567Y0072386D03*
X0077756Y0071205D03*
X0077756Y0075535D03*
X0069094Y0088134D03*
X0069094Y0091677D03*
X0059252Y0073961D03*
X0045079Y0081441D03*
X0034843Y0084591D03*
X0034449Y0078685D03*
X0030118Y0078685D03*
X0028937Y0081835D03*
X0029724Y0073567D03*
X0037598Y0063331D03*
X0039961Y0058606D03*
X0040354Y0057819D03*
X0040748Y0057031D03*
X0041142Y0056638D03*
X0041535Y0055850D03*
X0042323Y0054669D03*
X0042717Y0054276D03*
X0048228Y0047583D03*
X0018701Y0087740D03*
X0039961Y0097976D03*
X0040354Y0098764D03*
X0040748Y0099551D03*
X0041142Y0099945D03*
X0041535Y0100732D03*
X0041929Y0101126D03*
X0041929Y0101520D03*
X0042323Y0101913D03*
X0042717Y0102307D03*
X0043504Y0103488D03*
X0045866Y0107031D03*
X0051378Y0110575D03*
D38*
X0044685Y0103882D03*
X0038386Y0084591D03*
X0037992Y0074748D03*
X0035630Y0072780D03*
X0026181Y0073567D03*
X0047047Y0047976D03*
X0049803Y0047976D03*
X0081299Y0084197D03*
X0087205Y0082622D03*
X0087992Y0075535D03*
X0101378Y0075142D03*
X0101378Y0081047D03*
X0101378Y0070811D03*
X0114370Y0080654D03*
X0122244Y0077504D03*
X0126181Y0073961D03*
X0126181Y0084984D03*
D39*
X0113189Y0081835D03*
X0110827Y0075929D03*
X0098622Y0077504D03*
X0077362Y0080654D03*
X0077362Y0084197D03*
X0068701Y0079079D03*
X0067126Y0083803D03*
X0067126Y0092071D03*
X0059646Y0078685D03*
X0068701Y0072780D03*
X0049016Y0083803D03*
X0034843Y0081047D03*
X0029724Y0081047D03*
X0028150Y0083409D03*
X0026181Y0071205D03*
X0046260Y0049945D03*
X0046654Y0049551D03*
X0047047Y0049157D03*
X0047441Y0048764D03*
X0047835Y0048370D03*
X0043110Y0103094D03*
X0046260Y0106638D03*
X0047047Y0107425D03*
X0047441Y0107819D03*
X0047835Y0108213D03*
X0102559Y0108606D03*
X0102953Y0108213D03*
X0103346Y0107819D03*
X0103740Y0107425D03*
X0104134Y0107031D03*
X0104528Y0106638D03*
X0105315Y0105850D03*
X0109252Y0055457D03*
X0106890Y0052307D03*
X0105315Y0050732D03*
X0104921Y0050339D03*
X0104528Y0049945D03*
X0104134Y0049551D03*
X0103346Y0048764D03*
D40*
X0101969Y0049157D03*
X0090157Y0071598D03*
X0101969Y0077504D03*
X0070472Y0083803D03*
X0065354Y0079079D03*
X0065354Y0072780D03*
X0070472Y0092071D03*
X0040945Y0097583D03*
X0042520Y0103882D03*
X0022047Y0093252D03*
X0020472Y0094433D03*
X0016929Y0094433D03*
X0015354Y0093252D03*
X0015354Y0089315D03*
X0021260Y0088921D03*
X0040551Y0055063D03*
D41*
X0041732Y0055457D03*
X0042913Y0053882D03*
X0043307Y0053488D03*
X0043701Y0053094D03*
X0043701Y0052701D03*
X0044094Y0052307D03*
X0044488Y0051913D03*
X0044882Y0051520D03*
X0045276Y0051126D03*
X0045669Y0050732D03*
X0046063Y0050339D03*
X0058268Y0072386D03*
X0056693Y0082622D03*
X0066929Y0089709D03*
X0068898Y0083409D03*
X0046063Y0106244D03*
X0045669Y0105850D03*
X0045276Y0105457D03*
X0044882Y0105063D03*
X0044488Y0104669D03*
X0044094Y0104276D03*
X0042913Y0102701D03*
X0103150Y0087346D03*
X0111417Y0084984D03*
X0110630Y0080654D03*
X0115354Y0087346D03*
X0112205Y0095220D03*
X0109055Y0101126D03*
X0108268Y0102307D03*
X0107874Y0102701D03*
X0107480Y0103488D03*
X0107087Y0103882D03*
X0106693Y0104276D03*
X0106299Y0104669D03*
X0105906Y0105063D03*
X0105512Y0105457D03*
X0105118Y0106244D03*
X0123228Y0080654D03*
X0111811Y0060575D03*
X0108268Y0054276D03*
X0107874Y0053882D03*
X0107087Y0052701D03*
X0106299Y0051913D03*
X0105906Y0051520D03*
X0105512Y0051126D03*
D42*
X0109843Y0056638D03*
X0111417Y0059394D03*
X0111811Y0060181D03*
X0112205Y0060969D03*
X0112598Y0061756D03*
X0112598Y0062150D03*
X0112992Y0062543D03*
X0112992Y0062937D03*
X0113386Y0063331D03*
X0113386Y0063724D03*
X0113780Y0064512D03*
X0113780Y0064906D03*
X0110236Y0073173D03*
X0109055Y0083409D03*
X0113780Y0091677D03*
X0113780Y0092071D03*
X0113386Y0092465D03*
X0113386Y0092858D03*
X0112992Y0093646D03*
X0112992Y0094039D03*
X0112598Y0094433D03*
X0112598Y0094827D03*
X0112205Y0095614D03*
X0111811Y0096402D03*
X0111417Y0097189D03*
X0111024Y0097976D03*
X0110630Y0098764D03*
X0109843Y0099945D03*
X0090551Y0082622D03*
X0088976Y0079472D03*
X0091339Y0075535D03*
X0098031Y0070811D03*
X0122835Y0072386D03*
X0122835Y0073961D03*
X0125591Y0077504D03*
X0060236Y0078291D03*
X0056299Y0070417D03*
X0039370Y0059787D03*
X0039370Y0059394D03*
X0039764Y0059000D03*
X0040157Y0058213D03*
X0040551Y0057425D03*
X0041339Y0056244D03*
X0038976Y0060181D03*
X0038976Y0060575D03*
X0038583Y0060969D03*
X0038583Y0061362D03*
X0038189Y0061756D03*
X0038189Y0062150D03*
X0037795Y0062543D03*
X0037795Y0062937D03*
X0037402Y0063724D03*
X0037402Y0064118D03*
X0037008Y0064906D03*
X0037008Y0065299D03*
X0035433Y0080654D03*
X0029528Y0083803D03*
X0037008Y0091283D03*
X0037008Y0091677D03*
X0037402Y0092465D03*
X0037402Y0092858D03*
X0037795Y0093252D03*
X0037795Y0093646D03*
X0037795Y0094039D03*
X0038189Y0094433D03*
X0038189Y0094827D03*
X0038583Y0095220D03*
X0038583Y0095614D03*
X0038976Y0096008D03*
X0038976Y0096402D03*
X0039370Y0096795D03*
X0039370Y0097189D03*
X0040157Y0098370D03*
X0041339Y0100339D03*
D43*
X0032283Y0081441D03*
X0032283Y0076717D03*
X0051969Y0070024D03*
X0083071Y0070024D03*
X0083071Y0086559D03*
X0111811Y0083803D03*
X0119291Y0084984D03*
D44*
X0083071Y0086165D03*
X0083071Y0070417D03*
X0052362Y0085772D03*
X0048819Y0079472D03*
X0078740Y0119630D03*
D45*
X0084252Y0116480D03*
X0087795Y0115693D03*
X0101181Y0110969D03*
X0097244Y0081441D03*
X0092126Y0079472D03*
X0097244Y0071992D03*
X0109449Y0081835D03*
X0114567Y0075929D03*
X0122047Y0075535D03*
X0126378Y0078685D03*
X0122047Y0081835D03*
X0122047Y0070811D03*
X0074409Y0075535D03*
X0061024Y0077898D03*
X0060236Y0082622D03*
X0065748Y0088134D03*
X0065748Y0091677D03*
X0052362Y0087740D03*
X0048425Y0081441D03*
X0045276Y0083803D03*
X0038976Y0097583D03*
X0026378Y0083803D03*
X0018504Y0087346D03*
D46*
X0083268Y0070811D03*
D47*
X0052165Y0070811D03*
X0032087Y0075535D03*
X0032480Y0083016D03*
X0082480Y0118449D03*
D48*
X0102953Y0085772D03*
X0115157Y0085772D03*
X0085236Y0071205D03*
X0032480Y0077110D03*
D49*
X0029724Y0071205D03*
X0044685Y0072780D03*
X0065551Y0083409D03*
X0070276Y0089709D03*
X0073819Y0080654D03*
X0098228Y0085378D03*
X0114764Y0073567D03*
X0125787Y0072386D03*
X0126575Y0080654D03*
X0017913Y0092465D03*
D50*
X0052362Y0084197D03*
X0051969Y0071598D03*
D51*
X0050197Y0078291D03*
X0083268Y0071992D03*
X0083268Y0084591D03*
D52*
X0053150Y0072780D03*
D53*
X0051969Y0073173D03*
D54*
X0056102Y0080260D03*
X0032480Y0082228D03*
X0032480Y0075929D03*
D55*
X0052165Y0077110D03*
X0052165Y0077504D03*
D56*
X0050984Y0077898D03*
D57*
X0052362Y0079079D03*
X0052362Y0079866D03*
D58*
X0109843Y0084197D03*
D59*
X0112205Y0084591D03*
D60*
X0075394Y0118055D03*
D61*
X0075197Y0118843D03*
D62*
X0075394Y0119236D03*
M02*
