%
M48
M72
T01C0.01378
T02C0.01575
T03C0.02400
T04C0.03150
T05C0.03750
T06C0.11417
T07C0.13583
%
T01
X212165Y201165
X211165Y205165
X221165Y210165
X221165Y213165
X221165Y216165
X221165Y219165
X239165Y219165
X239165Y216165
X239165Y213165
X239165Y210165
X239165Y197165
X239165Y193165
X231165Y193165
X231165Y197165
X228165Y182165
X221165Y182165
X252665Y222165
X252665Y224165
X275165Y215165
X275165Y204165
X285165Y224165
X288165Y224165
X291165Y224165
X291165Y230165
X288165Y230165
X285165Y230165
X313165Y260665
X319165Y260665
X305165Y286165
X303165Y286165
X301165Y286165
X310665Y299415
X310665Y301915
X313274Y323272
X315774Y323272
X340774Y294522
X343274Y294522
X336165Y214165
X333165Y214165
X330165Y214165
X330165Y208165
X333165Y208165
X336165Y208165
X318165Y190165
X318165Y182165
X239165Y261165
X242165Y264165
X242165Y281165
X240165Y281165
X238165Y281165
X193165Y286165
X183165Y286165
X173165Y286165
X163165Y286165
X45665Y301915
X45665Y304415
X43274Y323272
X40774Y323272
X14524Y309522
X12024Y309522
X235165Y104165
X235165Y82165
X235165Y78165
X235165Y74165
X235165Y70165
X228165Y73165
X260165Y78387
X261165Y74165
X261165Y70165
X260165Y82165
X277165Y64165
X292165Y75165
X292165Y84165
X298165Y86165
X305165Y100165
X268165Y45665
X268165Y38665
T02
X256465Y236665
X253965Y236665
X247465Y236665
X244965Y236665
X249165Y259665
X249165Y262665
X252165Y262665
X252165Y259665
X255165Y259665
X255165Y262665
X287465Y262165
X287465Y259665
X287465Y257165
X287465Y254665
X287465Y252165
X287465Y249665
X287465Y264665
X287465Y267165
X290465Y268665
X290465Y271665
X290465Y274665
X290465Y277165
X290465Y279665
X290465Y282165
T03
X250878Y186909
X241035Y174606
X266134Y158858
X249402Y146063
X239559Y128346
X230701Y118504
X235622Y108661
X248417Y106693
X260228Y106693
X277895Y122180
X271647Y125802
X264165Y129715
X285415Y117165
X292915Y117165
X292709Y108661
X293693Y93898
X235622Y45669
X234638Y61417
X230701Y139173
X294677Y164764
X299106Y162303
X305504Y173622
T04
X169677Y270811
X161803Y270811
X153929Y270811
X153929Y278685
X161803Y278685
X169677Y278685
X146055Y278685
X138181Y278685
X130307Y278685
X122433Y278685
X114559Y278685
X114559Y270811
X122433Y270811
X130307Y270811
X138181Y270811
X146055Y270811
X106685Y270811
X98811Y270811
X98811Y278685
X106685Y278685
T05
X103165Y303677
X93165Y303677
X83165Y303677
X73165Y303677
X63165Y303677
X63165Y313677
X63165Y323677
X63165Y333677
X73165Y333677
X73165Y323677
X73165Y313677
X83165Y313677
X83165Y323677
X83165Y333677
X93165Y333677
X103165Y333677
X103165Y323677
X93165Y323677
X93165Y313677
X103165Y313677
X113165Y313677
X113165Y323677
X113165Y333677
X123165Y333677
X123165Y323677
X123165Y313677
X123165Y303677
X113165Y303677
X133165Y303677
X133165Y313677
X133165Y323677
X133165Y333677
X143165Y333677
X153165Y333677
X153165Y323677
X143165Y323677
X143165Y313677
X153165Y313677
X153165Y303677
X143165Y303677
X163165Y303677
X163165Y313677
X163165Y323677
X163165Y333677
X173165Y333677
X173165Y323677
X173165Y313677
X173165Y303677
X183165Y303677
X183165Y313677
X183165Y323677
X183165Y333677
X193165Y333677
X193165Y323677
X193165Y313677
X193165Y303677
X203165Y303677
X213165Y303677
X213165Y313677
X203165Y313677
X203165Y323677
X213165Y323677
X213165Y333677
X203165Y333677
X223165Y333677
X223165Y323677
X223165Y313677
X223165Y303677
X233165Y303677
X233165Y313677
X233165Y323677
X233165Y333677
X243165Y333677
X243165Y323677
X243165Y313677
X243165Y303677
X253165Y303677
X263165Y303677
X263165Y313677
X253165Y313677
X253165Y323677
X263165Y323677
X263165Y333677
X253165Y333677
X273165Y333677
X273165Y323677
X273165Y313677
X273165Y303677
X283165Y303677
X283165Y313677
X283165Y323677
X283165Y333677
X293165Y333677
X293165Y323677
X293165Y313677
X293165Y303677
X303165Y304677
X303165Y314677
X303165Y324677
X303165Y334677
X53165Y334677
X53165Y324677
X53165Y314677
X53165Y304677
T06
X22654Y22654
X22654Y333677
X333677Y333677
X333677Y22654
T07
X201646Y18685
X66646Y18685
X66646Y273685
X201646Y273685
M30
