G75*
%MOIN*%
%OFA0B0*%
%FSLAX25Y25*%
%IPPOS*%
%LPD*%
%AMOC8*
5,1,8,0,0,1.08239X$1,22.5*
%
%ADD10C,0.00000*%
%ADD11C,0.00800*%
%ADD12C,0.00500*%
%ADD13C,0.02000*%
%ADD14C,0.00787*%
%ADD15C,0.01969*%
%ADD16C,0.00600*%
%ADD17C,0.00300*%
%ADD18C,0.00394*%
%ADD19C,0.00900*%
%ADD20C,0.00400*%
%ADD21R,0.05709X0.02953*%
%ADD22R,0.05512X0.02559*%
%ADD23C,0.00200*%
%ADD24R,0.02953X0.05709*%
%ADD25C,0.00100*%
%ADD26R,0.02953X0.06693*%
%ADD27C,0.00700*%
%ADD28R,0.02000X0.02000*%
%ADD29R,0.02300X0.02300*%
D10*
X0020685Y0001812D02*
X0335646Y0001812D01*
X0355331Y0021497D01*
X0355331Y0336458D01*
X0335646Y0356143D01*
X0020685Y0356143D01*
X0001000Y0336458D01*
X0001000Y0021497D01*
X0020685Y0001812D01*
X0059855Y0019497D02*
X0059857Y0019664D01*
X0059863Y0019830D01*
X0059873Y0019997D01*
X0059888Y0020163D01*
X0059906Y0020328D01*
X0059929Y0020493D01*
X0059955Y0020658D01*
X0059985Y0020822D01*
X0060020Y0020985D01*
X0060059Y0021147D01*
X0060101Y0021308D01*
X0060147Y0021468D01*
X0060198Y0021627D01*
X0060252Y0021785D01*
X0060310Y0021941D01*
X0060372Y0022096D01*
X0060438Y0022249D01*
X0060507Y0022401D01*
X0060580Y0022550D01*
X0060657Y0022698D01*
X0060737Y0022844D01*
X0060821Y0022988D01*
X0060909Y0023130D01*
X0060999Y0023270D01*
X0061094Y0023407D01*
X0061191Y0023542D01*
X0061292Y0023675D01*
X0061396Y0023805D01*
X0061504Y0023933D01*
X0061614Y0024058D01*
X0061728Y0024180D01*
X0061844Y0024299D01*
X0061963Y0024415D01*
X0062085Y0024529D01*
X0062210Y0024639D01*
X0062338Y0024747D01*
X0062468Y0024851D01*
X0062601Y0024952D01*
X0062736Y0025049D01*
X0062873Y0025144D01*
X0063013Y0025234D01*
X0063155Y0025322D01*
X0063299Y0025406D01*
X0063445Y0025486D01*
X0063593Y0025563D01*
X0063742Y0025636D01*
X0063894Y0025705D01*
X0064047Y0025771D01*
X0064202Y0025833D01*
X0064358Y0025891D01*
X0064516Y0025945D01*
X0064675Y0025996D01*
X0064835Y0026042D01*
X0064996Y0026084D01*
X0065158Y0026123D01*
X0065321Y0026158D01*
X0065485Y0026188D01*
X0065650Y0026214D01*
X0065815Y0026237D01*
X0065980Y0026255D01*
X0066146Y0026270D01*
X0066313Y0026280D01*
X0066479Y0026286D01*
X0066646Y0026288D01*
X0066813Y0026286D01*
X0066979Y0026280D01*
X0067146Y0026270D01*
X0067312Y0026255D01*
X0067477Y0026237D01*
X0067642Y0026214D01*
X0067807Y0026188D01*
X0067971Y0026158D01*
X0068134Y0026123D01*
X0068296Y0026084D01*
X0068457Y0026042D01*
X0068617Y0025996D01*
X0068776Y0025945D01*
X0068934Y0025891D01*
X0069090Y0025833D01*
X0069245Y0025771D01*
X0069398Y0025705D01*
X0069550Y0025636D01*
X0069699Y0025563D01*
X0069847Y0025486D01*
X0069993Y0025406D01*
X0070137Y0025322D01*
X0070279Y0025234D01*
X0070419Y0025144D01*
X0070556Y0025049D01*
X0070691Y0024952D01*
X0070824Y0024851D01*
X0070954Y0024747D01*
X0071082Y0024639D01*
X0071207Y0024529D01*
X0071329Y0024415D01*
X0071448Y0024299D01*
X0071564Y0024180D01*
X0071678Y0024058D01*
X0071788Y0023933D01*
X0071896Y0023805D01*
X0072000Y0023675D01*
X0072101Y0023542D01*
X0072198Y0023407D01*
X0072293Y0023270D01*
X0072383Y0023130D01*
X0072471Y0022988D01*
X0072555Y0022844D01*
X0072635Y0022698D01*
X0072712Y0022550D01*
X0072785Y0022401D01*
X0072854Y0022249D01*
X0072920Y0022096D01*
X0072982Y0021941D01*
X0073040Y0021785D01*
X0073094Y0021627D01*
X0073145Y0021468D01*
X0073191Y0021308D01*
X0073233Y0021147D01*
X0073272Y0020985D01*
X0073307Y0020822D01*
X0073337Y0020658D01*
X0073363Y0020493D01*
X0073386Y0020328D01*
X0073404Y0020163D01*
X0073419Y0019997D01*
X0073429Y0019830D01*
X0073435Y0019664D01*
X0073437Y0019497D01*
X0073435Y0019330D01*
X0073429Y0019164D01*
X0073419Y0018997D01*
X0073404Y0018831D01*
X0073386Y0018666D01*
X0073363Y0018501D01*
X0073337Y0018336D01*
X0073307Y0018172D01*
X0073272Y0018009D01*
X0073233Y0017847D01*
X0073191Y0017686D01*
X0073145Y0017526D01*
X0073094Y0017367D01*
X0073040Y0017209D01*
X0072982Y0017053D01*
X0072920Y0016898D01*
X0072854Y0016745D01*
X0072785Y0016593D01*
X0072712Y0016444D01*
X0072635Y0016296D01*
X0072555Y0016150D01*
X0072471Y0016006D01*
X0072383Y0015864D01*
X0072293Y0015724D01*
X0072198Y0015587D01*
X0072101Y0015452D01*
X0072000Y0015319D01*
X0071896Y0015189D01*
X0071788Y0015061D01*
X0071678Y0014936D01*
X0071564Y0014814D01*
X0071448Y0014695D01*
X0071329Y0014579D01*
X0071207Y0014465D01*
X0071082Y0014355D01*
X0070954Y0014247D01*
X0070824Y0014143D01*
X0070691Y0014042D01*
X0070556Y0013945D01*
X0070419Y0013850D01*
X0070279Y0013760D01*
X0070137Y0013672D01*
X0069993Y0013588D01*
X0069847Y0013508D01*
X0069699Y0013431D01*
X0069550Y0013358D01*
X0069398Y0013289D01*
X0069245Y0013223D01*
X0069090Y0013161D01*
X0068934Y0013103D01*
X0068776Y0013049D01*
X0068617Y0012998D01*
X0068457Y0012952D01*
X0068296Y0012910D01*
X0068134Y0012871D01*
X0067971Y0012836D01*
X0067807Y0012806D01*
X0067642Y0012780D01*
X0067477Y0012757D01*
X0067312Y0012739D01*
X0067146Y0012724D01*
X0066979Y0012714D01*
X0066813Y0012708D01*
X0066646Y0012706D01*
X0066479Y0012708D01*
X0066313Y0012714D01*
X0066146Y0012724D01*
X0065980Y0012739D01*
X0065815Y0012757D01*
X0065650Y0012780D01*
X0065485Y0012806D01*
X0065321Y0012836D01*
X0065158Y0012871D01*
X0064996Y0012910D01*
X0064835Y0012952D01*
X0064675Y0012998D01*
X0064516Y0013049D01*
X0064358Y0013103D01*
X0064202Y0013161D01*
X0064047Y0013223D01*
X0063894Y0013289D01*
X0063742Y0013358D01*
X0063593Y0013431D01*
X0063445Y0013508D01*
X0063299Y0013588D01*
X0063155Y0013672D01*
X0063013Y0013760D01*
X0062873Y0013850D01*
X0062736Y0013945D01*
X0062601Y0014042D01*
X0062468Y0014143D01*
X0062338Y0014247D01*
X0062210Y0014355D01*
X0062085Y0014465D01*
X0061963Y0014579D01*
X0061844Y0014695D01*
X0061728Y0014814D01*
X0061614Y0014936D01*
X0061504Y0015061D01*
X0061396Y0015189D01*
X0061292Y0015319D01*
X0061191Y0015452D01*
X0061094Y0015587D01*
X0060999Y0015724D01*
X0060909Y0015864D01*
X0060821Y0016006D01*
X0060737Y0016150D01*
X0060657Y0016296D01*
X0060580Y0016444D01*
X0060507Y0016593D01*
X0060438Y0016745D01*
X0060372Y0016898D01*
X0060310Y0017053D01*
X0060252Y0017209D01*
X0060198Y0017367D01*
X0060147Y0017526D01*
X0060101Y0017686D01*
X0060059Y0017847D01*
X0060020Y0018009D01*
X0059985Y0018172D01*
X0059955Y0018336D01*
X0059929Y0018501D01*
X0059906Y0018666D01*
X0059888Y0018831D01*
X0059873Y0018997D01*
X0059863Y0019164D01*
X0059857Y0019330D01*
X0059855Y0019497D01*
X0194855Y0019497D02*
X0194857Y0019664D01*
X0194863Y0019830D01*
X0194873Y0019997D01*
X0194888Y0020163D01*
X0194906Y0020328D01*
X0194929Y0020493D01*
X0194955Y0020658D01*
X0194985Y0020822D01*
X0195020Y0020985D01*
X0195059Y0021147D01*
X0195101Y0021308D01*
X0195147Y0021468D01*
X0195198Y0021627D01*
X0195252Y0021785D01*
X0195310Y0021941D01*
X0195372Y0022096D01*
X0195438Y0022249D01*
X0195507Y0022401D01*
X0195580Y0022550D01*
X0195657Y0022698D01*
X0195737Y0022844D01*
X0195821Y0022988D01*
X0195909Y0023130D01*
X0195999Y0023270D01*
X0196094Y0023407D01*
X0196191Y0023542D01*
X0196292Y0023675D01*
X0196396Y0023805D01*
X0196504Y0023933D01*
X0196614Y0024058D01*
X0196728Y0024180D01*
X0196844Y0024299D01*
X0196963Y0024415D01*
X0197085Y0024529D01*
X0197210Y0024639D01*
X0197338Y0024747D01*
X0197468Y0024851D01*
X0197601Y0024952D01*
X0197736Y0025049D01*
X0197873Y0025144D01*
X0198013Y0025234D01*
X0198155Y0025322D01*
X0198299Y0025406D01*
X0198445Y0025486D01*
X0198593Y0025563D01*
X0198742Y0025636D01*
X0198894Y0025705D01*
X0199047Y0025771D01*
X0199202Y0025833D01*
X0199358Y0025891D01*
X0199516Y0025945D01*
X0199675Y0025996D01*
X0199835Y0026042D01*
X0199996Y0026084D01*
X0200158Y0026123D01*
X0200321Y0026158D01*
X0200485Y0026188D01*
X0200650Y0026214D01*
X0200815Y0026237D01*
X0200980Y0026255D01*
X0201146Y0026270D01*
X0201313Y0026280D01*
X0201479Y0026286D01*
X0201646Y0026288D01*
X0201813Y0026286D01*
X0201979Y0026280D01*
X0202146Y0026270D01*
X0202312Y0026255D01*
X0202477Y0026237D01*
X0202642Y0026214D01*
X0202807Y0026188D01*
X0202971Y0026158D01*
X0203134Y0026123D01*
X0203296Y0026084D01*
X0203457Y0026042D01*
X0203617Y0025996D01*
X0203776Y0025945D01*
X0203934Y0025891D01*
X0204090Y0025833D01*
X0204245Y0025771D01*
X0204398Y0025705D01*
X0204550Y0025636D01*
X0204699Y0025563D01*
X0204847Y0025486D01*
X0204993Y0025406D01*
X0205137Y0025322D01*
X0205279Y0025234D01*
X0205419Y0025144D01*
X0205556Y0025049D01*
X0205691Y0024952D01*
X0205824Y0024851D01*
X0205954Y0024747D01*
X0206082Y0024639D01*
X0206207Y0024529D01*
X0206329Y0024415D01*
X0206448Y0024299D01*
X0206564Y0024180D01*
X0206678Y0024058D01*
X0206788Y0023933D01*
X0206896Y0023805D01*
X0207000Y0023675D01*
X0207101Y0023542D01*
X0207198Y0023407D01*
X0207293Y0023270D01*
X0207383Y0023130D01*
X0207471Y0022988D01*
X0207555Y0022844D01*
X0207635Y0022698D01*
X0207712Y0022550D01*
X0207785Y0022401D01*
X0207854Y0022249D01*
X0207920Y0022096D01*
X0207982Y0021941D01*
X0208040Y0021785D01*
X0208094Y0021627D01*
X0208145Y0021468D01*
X0208191Y0021308D01*
X0208233Y0021147D01*
X0208272Y0020985D01*
X0208307Y0020822D01*
X0208337Y0020658D01*
X0208363Y0020493D01*
X0208386Y0020328D01*
X0208404Y0020163D01*
X0208419Y0019997D01*
X0208429Y0019830D01*
X0208435Y0019664D01*
X0208437Y0019497D01*
X0208435Y0019330D01*
X0208429Y0019164D01*
X0208419Y0018997D01*
X0208404Y0018831D01*
X0208386Y0018666D01*
X0208363Y0018501D01*
X0208337Y0018336D01*
X0208307Y0018172D01*
X0208272Y0018009D01*
X0208233Y0017847D01*
X0208191Y0017686D01*
X0208145Y0017526D01*
X0208094Y0017367D01*
X0208040Y0017209D01*
X0207982Y0017053D01*
X0207920Y0016898D01*
X0207854Y0016745D01*
X0207785Y0016593D01*
X0207712Y0016444D01*
X0207635Y0016296D01*
X0207555Y0016150D01*
X0207471Y0016006D01*
X0207383Y0015864D01*
X0207293Y0015724D01*
X0207198Y0015587D01*
X0207101Y0015452D01*
X0207000Y0015319D01*
X0206896Y0015189D01*
X0206788Y0015061D01*
X0206678Y0014936D01*
X0206564Y0014814D01*
X0206448Y0014695D01*
X0206329Y0014579D01*
X0206207Y0014465D01*
X0206082Y0014355D01*
X0205954Y0014247D01*
X0205824Y0014143D01*
X0205691Y0014042D01*
X0205556Y0013945D01*
X0205419Y0013850D01*
X0205279Y0013760D01*
X0205137Y0013672D01*
X0204993Y0013588D01*
X0204847Y0013508D01*
X0204699Y0013431D01*
X0204550Y0013358D01*
X0204398Y0013289D01*
X0204245Y0013223D01*
X0204090Y0013161D01*
X0203934Y0013103D01*
X0203776Y0013049D01*
X0203617Y0012998D01*
X0203457Y0012952D01*
X0203296Y0012910D01*
X0203134Y0012871D01*
X0202971Y0012836D01*
X0202807Y0012806D01*
X0202642Y0012780D01*
X0202477Y0012757D01*
X0202312Y0012739D01*
X0202146Y0012724D01*
X0201979Y0012714D01*
X0201813Y0012708D01*
X0201646Y0012706D01*
X0201479Y0012708D01*
X0201313Y0012714D01*
X0201146Y0012724D01*
X0200980Y0012739D01*
X0200815Y0012757D01*
X0200650Y0012780D01*
X0200485Y0012806D01*
X0200321Y0012836D01*
X0200158Y0012871D01*
X0199996Y0012910D01*
X0199835Y0012952D01*
X0199675Y0012998D01*
X0199516Y0013049D01*
X0199358Y0013103D01*
X0199202Y0013161D01*
X0199047Y0013223D01*
X0198894Y0013289D01*
X0198742Y0013358D01*
X0198593Y0013431D01*
X0198445Y0013508D01*
X0198299Y0013588D01*
X0198155Y0013672D01*
X0198013Y0013760D01*
X0197873Y0013850D01*
X0197736Y0013945D01*
X0197601Y0014042D01*
X0197468Y0014143D01*
X0197338Y0014247D01*
X0197210Y0014355D01*
X0197085Y0014465D01*
X0196963Y0014579D01*
X0196844Y0014695D01*
X0196728Y0014814D01*
X0196614Y0014936D01*
X0196504Y0015061D01*
X0196396Y0015189D01*
X0196292Y0015319D01*
X0196191Y0015452D01*
X0196094Y0015587D01*
X0195999Y0015724D01*
X0195909Y0015864D01*
X0195821Y0016006D01*
X0195737Y0016150D01*
X0195657Y0016296D01*
X0195580Y0016444D01*
X0195507Y0016593D01*
X0195438Y0016745D01*
X0195372Y0016898D01*
X0195310Y0017053D01*
X0195252Y0017209D01*
X0195198Y0017367D01*
X0195147Y0017526D01*
X0195101Y0017686D01*
X0195059Y0017847D01*
X0195020Y0018009D01*
X0194985Y0018172D01*
X0194955Y0018336D01*
X0194929Y0018501D01*
X0194906Y0018666D01*
X0194888Y0018831D01*
X0194873Y0018997D01*
X0194863Y0019164D01*
X0194857Y0019330D01*
X0194855Y0019497D01*
X0242118Y0055930D02*
X0286213Y0055930D01*
X0286213Y0100025D01*
X0242118Y0100025D01*
X0242118Y0055930D01*
X0245268Y0059080D02*
X0283063Y0059080D01*
X0283063Y0096875D01*
X0245268Y0096875D01*
X0245268Y0059080D01*
X0194855Y0274497D02*
X0194857Y0274664D01*
X0194863Y0274830D01*
X0194873Y0274997D01*
X0194888Y0275163D01*
X0194906Y0275328D01*
X0194929Y0275493D01*
X0194955Y0275658D01*
X0194985Y0275822D01*
X0195020Y0275985D01*
X0195059Y0276147D01*
X0195101Y0276308D01*
X0195147Y0276468D01*
X0195198Y0276627D01*
X0195252Y0276785D01*
X0195310Y0276941D01*
X0195372Y0277096D01*
X0195438Y0277249D01*
X0195507Y0277401D01*
X0195580Y0277550D01*
X0195657Y0277698D01*
X0195737Y0277844D01*
X0195821Y0277988D01*
X0195909Y0278130D01*
X0195999Y0278270D01*
X0196094Y0278407D01*
X0196191Y0278542D01*
X0196292Y0278675D01*
X0196396Y0278805D01*
X0196504Y0278933D01*
X0196614Y0279058D01*
X0196728Y0279180D01*
X0196844Y0279299D01*
X0196963Y0279415D01*
X0197085Y0279529D01*
X0197210Y0279639D01*
X0197338Y0279747D01*
X0197468Y0279851D01*
X0197601Y0279952D01*
X0197736Y0280049D01*
X0197873Y0280144D01*
X0198013Y0280234D01*
X0198155Y0280322D01*
X0198299Y0280406D01*
X0198445Y0280486D01*
X0198593Y0280563D01*
X0198742Y0280636D01*
X0198894Y0280705D01*
X0199047Y0280771D01*
X0199202Y0280833D01*
X0199358Y0280891D01*
X0199516Y0280945D01*
X0199675Y0280996D01*
X0199835Y0281042D01*
X0199996Y0281084D01*
X0200158Y0281123D01*
X0200321Y0281158D01*
X0200485Y0281188D01*
X0200650Y0281214D01*
X0200815Y0281237D01*
X0200980Y0281255D01*
X0201146Y0281270D01*
X0201313Y0281280D01*
X0201479Y0281286D01*
X0201646Y0281288D01*
X0201813Y0281286D01*
X0201979Y0281280D01*
X0202146Y0281270D01*
X0202312Y0281255D01*
X0202477Y0281237D01*
X0202642Y0281214D01*
X0202807Y0281188D01*
X0202971Y0281158D01*
X0203134Y0281123D01*
X0203296Y0281084D01*
X0203457Y0281042D01*
X0203617Y0280996D01*
X0203776Y0280945D01*
X0203934Y0280891D01*
X0204090Y0280833D01*
X0204245Y0280771D01*
X0204398Y0280705D01*
X0204550Y0280636D01*
X0204699Y0280563D01*
X0204847Y0280486D01*
X0204993Y0280406D01*
X0205137Y0280322D01*
X0205279Y0280234D01*
X0205419Y0280144D01*
X0205556Y0280049D01*
X0205691Y0279952D01*
X0205824Y0279851D01*
X0205954Y0279747D01*
X0206082Y0279639D01*
X0206207Y0279529D01*
X0206329Y0279415D01*
X0206448Y0279299D01*
X0206564Y0279180D01*
X0206678Y0279058D01*
X0206788Y0278933D01*
X0206896Y0278805D01*
X0207000Y0278675D01*
X0207101Y0278542D01*
X0207198Y0278407D01*
X0207293Y0278270D01*
X0207383Y0278130D01*
X0207471Y0277988D01*
X0207555Y0277844D01*
X0207635Y0277698D01*
X0207712Y0277550D01*
X0207785Y0277401D01*
X0207854Y0277249D01*
X0207920Y0277096D01*
X0207982Y0276941D01*
X0208040Y0276785D01*
X0208094Y0276627D01*
X0208145Y0276468D01*
X0208191Y0276308D01*
X0208233Y0276147D01*
X0208272Y0275985D01*
X0208307Y0275822D01*
X0208337Y0275658D01*
X0208363Y0275493D01*
X0208386Y0275328D01*
X0208404Y0275163D01*
X0208419Y0274997D01*
X0208429Y0274830D01*
X0208435Y0274664D01*
X0208437Y0274497D01*
X0208435Y0274330D01*
X0208429Y0274164D01*
X0208419Y0273997D01*
X0208404Y0273831D01*
X0208386Y0273666D01*
X0208363Y0273501D01*
X0208337Y0273336D01*
X0208307Y0273172D01*
X0208272Y0273009D01*
X0208233Y0272847D01*
X0208191Y0272686D01*
X0208145Y0272526D01*
X0208094Y0272367D01*
X0208040Y0272209D01*
X0207982Y0272053D01*
X0207920Y0271898D01*
X0207854Y0271745D01*
X0207785Y0271593D01*
X0207712Y0271444D01*
X0207635Y0271296D01*
X0207555Y0271150D01*
X0207471Y0271006D01*
X0207383Y0270864D01*
X0207293Y0270724D01*
X0207198Y0270587D01*
X0207101Y0270452D01*
X0207000Y0270319D01*
X0206896Y0270189D01*
X0206788Y0270061D01*
X0206678Y0269936D01*
X0206564Y0269814D01*
X0206448Y0269695D01*
X0206329Y0269579D01*
X0206207Y0269465D01*
X0206082Y0269355D01*
X0205954Y0269247D01*
X0205824Y0269143D01*
X0205691Y0269042D01*
X0205556Y0268945D01*
X0205419Y0268850D01*
X0205279Y0268760D01*
X0205137Y0268672D01*
X0204993Y0268588D01*
X0204847Y0268508D01*
X0204699Y0268431D01*
X0204550Y0268358D01*
X0204398Y0268289D01*
X0204245Y0268223D01*
X0204090Y0268161D01*
X0203934Y0268103D01*
X0203776Y0268049D01*
X0203617Y0267998D01*
X0203457Y0267952D01*
X0203296Y0267910D01*
X0203134Y0267871D01*
X0202971Y0267836D01*
X0202807Y0267806D01*
X0202642Y0267780D01*
X0202477Y0267757D01*
X0202312Y0267739D01*
X0202146Y0267724D01*
X0201979Y0267714D01*
X0201813Y0267708D01*
X0201646Y0267706D01*
X0201479Y0267708D01*
X0201313Y0267714D01*
X0201146Y0267724D01*
X0200980Y0267739D01*
X0200815Y0267757D01*
X0200650Y0267780D01*
X0200485Y0267806D01*
X0200321Y0267836D01*
X0200158Y0267871D01*
X0199996Y0267910D01*
X0199835Y0267952D01*
X0199675Y0267998D01*
X0199516Y0268049D01*
X0199358Y0268103D01*
X0199202Y0268161D01*
X0199047Y0268223D01*
X0198894Y0268289D01*
X0198742Y0268358D01*
X0198593Y0268431D01*
X0198445Y0268508D01*
X0198299Y0268588D01*
X0198155Y0268672D01*
X0198013Y0268760D01*
X0197873Y0268850D01*
X0197736Y0268945D01*
X0197601Y0269042D01*
X0197468Y0269143D01*
X0197338Y0269247D01*
X0197210Y0269355D01*
X0197085Y0269465D01*
X0196963Y0269579D01*
X0196844Y0269695D01*
X0196728Y0269814D01*
X0196614Y0269936D01*
X0196504Y0270061D01*
X0196396Y0270189D01*
X0196292Y0270319D01*
X0196191Y0270452D01*
X0196094Y0270587D01*
X0195999Y0270724D01*
X0195909Y0270864D01*
X0195821Y0271006D01*
X0195737Y0271150D01*
X0195657Y0271296D01*
X0195580Y0271444D01*
X0195507Y0271593D01*
X0195438Y0271745D01*
X0195372Y0271898D01*
X0195310Y0272053D01*
X0195252Y0272209D01*
X0195198Y0272367D01*
X0195147Y0272526D01*
X0195101Y0272686D01*
X0195059Y0272847D01*
X0195020Y0273009D01*
X0194985Y0273172D01*
X0194955Y0273336D01*
X0194929Y0273501D01*
X0194906Y0273666D01*
X0194888Y0273831D01*
X0194873Y0273997D01*
X0194863Y0274164D01*
X0194857Y0274330D01*
X0194855Y0274497D01*
X0178165Y0309490D02*
X0178165Y0329490D01*
X0059855Y0274497D02*
X0059857Y0274664D01*
X0059863Y0274830D01*
X0059873Y0274997D01*
X0059888Y0275163D01*
X0059906Y0275328D01*
X0059929Y0275493D01*
X0059955Y0275658D01*
X0059985Y0275822D01*
X0060020Y0275985D01*
X0060059Y0276147D01*
X0060101Y0276308D01*
X0060147Y0276468D01*
X0060198Y0276627D01*
X0060252Y0276785D01*
X0060310Y0276941D01*
X0060372Y0277096D01*
X0060438Y0277249D01*
X0060507Y0277401D01*
X0060580Y0277550D01*
X0060657Y0277698D01*
X0060737Y0277844D01*
X0060821Y0277988D01*
X0060909Y0278130D01*
X0060999Y0278270D01*
X0061094Y0278407D01*
X0061191Y0278542D01*
X0061292Y0278675D01*
X0061396Y0278805D01*
X0061504Y0278933D01*
X0061614Y0279058D01*
X0061728Y0279180D01*
X0061844Y0279299D01*
X0061963Y0279415D01*
X0062085Y0279529D01*
X0062210Y0279639D01*
X0062338Y0279747D01*
X0062468Y0279851D01*
X0062601Y0279952D01*
X0062736Y0280049D01*
X0062873Y0280144D01*
X0063013Y0280234D01*
X0063155Y0280322D01*
X0063299Y0280406D01*
X0063445Y0280486D01*
X0063593Y0280563D01*
X0063742Y0280636D01*
X0063894Y0280705D01*
X0064047Y0280771D01*
X0064202Y0280833D01*
X0064358Y0280891D01*
X0064516Y0280945D01*
X0064675Y0280996D01*
X0064835Y0281042D01*
X0064996Y0281084D01*
X0065158Y0281123D01*
X0065321Y0281158D01*
X0065485Y0281188D01*
X0065650Y0281214D01*
X0065815Y0281237D01*
X0065980Y0281255D01*
X0066146Y0281270D01*
X0066313Y0281280D01*
X0066479Y0281286D01*
X0066646Y0281288D01*
X0066813Y0281286D01*
X0066979Y0281280D01*
X0067146Y0281270D01*
X0067312Y0281255D01*
X0067477Y0281237D01*
X0067642Y0281214D01*
X0067807Y0281188D01*
X0067971Y0281158D01*
X0068134Y0281123D01*
X0068296Y0281084D01*
X0068457Y0281042D01*
X0068617Y0280996D01*
X0068776Y0280945D01*
X0068934Y0280891D01*
X0069090Y0280833D01*
X0069245Y0280771D01*
X0069398Y0280705D01*
X0069550Y0280636D01*
X0069699Y0280563D01*
X0069847Y0280486D01*
X0069993Y0280406D01*
X0070137Y0280322D01*
X0070279Y0280234D01*
X0070419Y0280144D01*
X0070556Y0280049D01*
X0070691Y0279952D01*
X0070824Y0279851D01*
X0070954Y0279747D01*
X0071082Y0279639D01*
X0071207Y0279529D01*
X0071329Y0279415D01*
X0071448Y0279299D01*
X0071564Y0279180D01*
X0071678Y0279058D01*
X0071788Y0278933D01*
X0071896Y0278805D01*
X0072000Y0278675D01*
X0072101Y0278542D01*
X0072198Y0278407D01*
X0072293Y0278270D01*
X0072383Y0278130D01*
X0072471Y0277988D01*
X0072555Y0277844D01*
X0072635Y0277698D01*
X0072712Y0277550D01*
X0072785Y0277401D01*
X0072854Y0277249D01*
X0072920Y0277096D01*
X0072982Y0276941D01*
X0073040Y0276785D01*
X0073094Y0276627D01*
X0073145Y0276468D01*
X0073191Y0276308D01*
X0073233Y0276147D01*
X0073272Y0275985D01*
X0073307Y0275822D01*
X0073337Y0275658D01*
X0073363Y0275493D01*
X0073386Y0275328D01*
X0073404Y0275163D01*
X0073419Y0274997D01*
X0073429Y0274830D01*
X0073435Y0274664D01*
X0073437Y0274497D01*
X0073435Y0274330D01*
X0073429Y0274164D01*
X0073419Y0273997D01*
X0073404Y0273831D01*
X0073386Y0273666D01*
X0073363Y0273501D01*
X0073337Y0273336D01*
X0073307Y0273172D01*
X0073272Y0273009D01*
X0073233Y0272847D01*
X0073191Y0272686D01*
X0073145Y0272526D01*
X0073094Y0272367D01*
X0073040Y0272209D01*
X0072982Y0272053D01*
X0072920Y0271898D01*
X0072854Y0271745D01*
X0072785Y0271593D01*
X0072712Y0271444D01*
X0072635Y0271296D01*
X0072555Y0271150D01*
X0072471Y0271006D01*
X0072383Y0270864D01*
X0072293Y0270724D01*
X0072198Y0270587D01*
X0072101Y0270452D01*
X0072000Y0270319D01*
X0071896Y0270189D01*
X0071788Y0270061D01*
X0071678Y0269936D01*
X0071564Y0269814D01*
X0071448Y0269695D01*
X0071329Y0269579D01*
X0071207Y0269465D01*
X0071082Y0269355D01*
X0070954Y0269247D01*
X0070824Y0269143D01*
X0070691Y0269042D01*
X0070556Y0268945D01*
X0070419Y0268850D01*
X0070279Y0268760D01*
X0070137Y0268672D01*
X0069993Y0268588D01*
X0069847Y0268508D01*
X0069699Y0268431D01*
X0069550Y0268358D01*
X0069398Y0268289D01*
X0069245Y0268223D01*
X0069090Y0268161D01*
X0068934Y0268103D01*
X0068776Y0268049D01*
X0068617Y0267998D01*
X0068457Y0267952D01*
X0068296Y0267910D01*
X0068134Y0267871D01*
X0067971Y0267836D01*
X0067807Y0267806D01*
X0067642Y0267780D01*
X0067477Y0267757D01*
X0067312Y0267739D01*
X0067146Y0267724D01*
X0066979Y0267714D01*
X0066813Y0267708D01*
X0066646Y0267706D01*
X0066479Y0267708D01*
X0066313Y0267714D01*
X0066146Y0267724D01*
X0065980Y0267739D01*
X0065815Y0267757D01*
X0065650Y0267780D01*
X0065485Y0267806D01*
X0065321Y0267836D01*
X0065158Y0267871D01*
X0064996Y0267910D01*
X0064835Y0267952D01*
X0064675Y0267998D01*
X0064516Y0268049D01*
X0064358Y0268103D01*
X0064202Y0268161D01*
X0064047Y0268223D01*
X0063894Y0268289D01*
X0063742Y0268358D01*
X0063593Y0268431D01*
X0063445Y0268508D01*
X0063299Y0268588D01*
X0063155Y0268672D01*
X0063013Y0268760D01*
X0062873Y0268850D01*
X0062736Y0268945D01*
X0062601Y0269042D01*
X0062468Y0269143D01*
X0062338Y0269247D01*
X0062210Y0269355D01*
X0062085Y0269465D01*
X0061963Y0269579D01*
X0061844Y0269695D01*
X0061728Y0269814D01*
X0061614Y0269936D01*
X0061504Y0270061D01*
X0061396Y0270189D01*
X0061292Y0270319D01*
X0061191Y0270452D01*
X0061094Y0270587D01*
X0060999Y0270724D01*
X0060909Y0270864D01*
X0060821Y0271006D01*
X0060737Y0271150D01*
X0060657Y0271296D01*
X0060580Y0271444D01*
X0060507Y0271593D01*
X0060438Y0271745D01*
X0060372Y0271898D01*
X0060310Y0272053D01*
X0060252Y0272209D01*
X0060198Y0272367D01*
X0060147Y0272526D01*
X0060101Y0272686D01*
X0060059Y0272847D01*
X0060020Y0273009D01*
X0059985Y0273172D01*
X0059955Y0273336D01*
X0059929Y0273501D01*
X0059906Y0273666D01*
X0059888Y0273831D01*
X0059873Y0273997D01*
X0059863Y0274164D01*
X0059857Y0274330D01*
X0059855Y0274497D01*
X0048165Y0299490D02*
X0308165Y0299490D01*
X0308165Y0339490D01*
X0048165Y0339490D01*
X0048165Y0299490D01*
D11*
X0308165Y0299490D01*
X0308165Y0339490D01*
X0048165Y0339490D01*
X0048165Y0299490D01*
X0227665Y0287478D02*
X0227665Y0282478D01*
X0230165Y0279978D01*
X0227665Y0277478D01*
X0227665Y0272478D01*
X0230165Y0269978D01*
X0227665Y0267478D01*
X0227665Y0262478D01*
X0230165Y0259978D01*
X0227665Y0257478D01*
X0227665Y0252478D01*
X0230165Y0249978D01*
X0227665Y0247478D01*
X0227665Y0242478D01*
X0230165Y0239978D01*
X0227665Y0237478D01*
X0227665Y0232478D01*
X0230165Y0229978D01*
X0235165Y0229978D01*
X0237665Y0232478D01*
X0237665Y0237478D01*
X0235165Y0239978D01*
X0237665Y0242478D01*
X0237665Y0247478D01*
X0235165Y0249978D01*
X0237665Y0252478D01*
X0237665Y0257478D01*
X0235165Y0259978D01*
X0237665Y0262478D01*
X0237665Y0267478D01*
X0235165Y0269978D01*
X0237665Y0272478D01*
X0237665Y0277478D01*
X0235165Y0279978D01*
X0237665Y0282478D01*
X0237665Y0287478D01*
X0235165Y0289978D01*
X0230165Y0289978D01*
X0227665Y0287478D01*
X0322665Y0175978D02*
X0327665Y0175978D01*
X0330165Y0173478D01*
X0330165Y0158478D01*
X0332665Y0155978D01*
X0337665Y0155978D01*
X0340165Y0158478D01*
X0340165Y0173478D01*
X0342665Y0175978D01*
X0347665Y0175978D01*
X0350165Y0173478D01*
X0350165Y0158478D01*
X0347665Y0155978D01*
X0342665Y0155978D01*
X0340165Y0158478D01*
X0330165Y0158478D02*
X0327665Y0155978D01*
X0322665Y0155978D01*
X0320165Y0158478D01*
X0320165Y0173478D01*
X0322665Y0175978D01*
X0330165Y0173478D02*
X0332665Y0175978D01*
X0337665Y0175978D01*
X0340165Y0173478D01*
X0327665Y0154659D02*
X0322665Y0154659D01*
X0322228Y0138427D02*
X0330102Y0138427D01*
X0330102Y0132915D01*
X0328921Y0130159D02*
X0326165Y0130159D01*
X0328528Y0127797D01*
X0323803Y0127797D01*
X0326165Y0130159D01*
X0323409Y0130159D01*
X0322228Y0132915D02*
X0322228Y0138427D01*
X0322228Y0125041D02*
X0322228Y0119529D01*
X0330102Y0119529D01*
X0330102Y0125041D01*
X0340165Y0118478D02*
X0342665Y0120978D01*
X0347665Y0120978D01*
X0350165Y0118478D01*
X0350165Y0113478D01*
X0347665Y0110978D01*
X0350165Y0108478D01*
X0350165Y0103478D01*
X0347665Y0100978D01*
X0350165Y0098478D01*
X0350165Y0093478D01*
X0347665Y0090978D01*
X0350165Y0088478D01*
X0350165Y0083478D01*
X0347665Y0080978D01*
X0350165Y0078478D01*
X0350165Y0073478D01*
X0347665Y0070978D01*
X0350165Y0068478D01*
X0350165Y0063478D01*
X0347665Y0060978D01*
X0350165Y0058478D01*
X0350165Y0053478D01*
X0347665Y0050978D01*
X0350165Y0048478D01*
X0350165Y0043478D01*
X0347665Y0040978D01*
X0342665Y0040978D01*
X0340165Y0043478D01*
X0340165Y0048478D01*
X0342665Y0050978D01*
X0340165Y0053478D01*
X0340165Y0058478D01*
X0342665Y0060978D01*
X0340165Y0063478D01*
X0340165Y0068478D01*
X0342665Y0070978D01*
X0340165Y0073478D01*
X0340165Y0078478D01*
X0342665Y0080978D01*
X0340165Y0083478D01*
X0340165Y0088478D01*
X0342665Y0090978D01*
X0340165Y0093478D01*
X0340165Y0098478D01*
X0342665Y0100978D01*
X0340165Y0103478D01*
X0340165Y0108478D01*
X0342665Y0110978D01*
X0340165Y0113478D01*
X0340165Y0118478D01*
X0313665Y0039978D02*
X0298665Y0039978D01*
X0296165Y0037478D01*
X0296165Y0032478D01*
X0298665Y0029978D01*
X0313665Y0029978D01*
X0316165Y0032478D01*
X0316165Y0037478D01*
X0313665Y0039978D01*
X0313665Y0029978D02*
X0316165Y0027478D01*
X0316165Y0022478D01*
X0313665Y0019978D01*
X0298665Y0019978D01*
X0296165Y0022478D01*
X0296165Y0027478D01*
X0298665Y0029978D01*
X0298665Y0019978D02*
X0296165Y0017478D01*
X0296165Y0012478D01*
X0298665Y0009978D01*
X0313665Y0009978D01*
X0316165Y0012478D01*
X0316165Y0017478D01*
X0313665Y0019978D01*
X0317484Y0017478D02*
X0317484Y0012478D01*
X0236165Y0010478D02*
X0233665Y0007978D01*
X0228665Y0007978D01*
X0226165Y0010478D01*
X0226165Y0015478D01*
X0228665Y0017978D01*
X0226165Y0020478D01*
X0226165Y0025478D01*
X0228665Y0027978D01*
X0226165Y0030478D01*
X0226165Y0035478D01*
X0228665Y0037978D01*
X0233665Y0037978D01*
X0236165Y0035478D01*
X0236165Y0030478D01*
X0233665Y0027978D01*
X0236165Y0025478D01*
X0236165Y0020478D01*
X0233665Y0017978D01*
X0236165Y0015478D01*
X0236165Y0010478D01*
D12*
X0249850Y0009907D02*
X0249850Y0017781D01*
X0256937Y0017781D01*
X0256937Y0026049D01*
X0286858Y0026049D01*
X0286858Y0017781D01*
X0293945Y0017781D01*
X0293945Y0009907D01*
X0249850Y0009907D01*
X0249850Y0017781D02*
X0249850Y0046127D01*
X0293945Y0046127D01*
X0293945Y0017781D01*
X0294493Y0013077D02*
X0294493Y0012022D01*
X0293015Y0012444D01*
X0294071Y0012761D02*
X0294915Y0012761D01*
X0294493Y0010861D02*
X0293015Y0010861D01*
X0294493Y0010861D02*
X0294532Y0010859D01*
X0294571Y0010854D01*
X0294608Y0010845D01*
X0294645Y0010833D01*
X0294681Y0010817D01*
X0294715Y0010798D01*
X0294747Y0010776D01*
X0294777Y0010751D01*
X0294805Y0010723D01*
X0294830Y0010693D01*
X0294852Y0010661D01*
X0294871Y0010627D01*
X0294887Y0010591D01*
X0294899Y0010554D01*
X0294908Y0010517D01*
X0294913Y0010478D01*
X0294915Y0010439D01*
X0294915Y0010228D01*
X0283850Y0048450D02*
X0283850Y0058293D01*
X0293693Y0058293D01*
X0293693Y0097663D02*
X0283850Y0097663D01*
X0283850Y0107505D01*
X0284638Y0111364D02*
X0290937Y0111364D01*
X0290937Y0099553D01*
X0284638Y0099553D01*
X0284638Y0111364D01*
X0294480Y0111364D02*
X0300780Y0111364D01*
X0300780Y0099553D01*
X0294480Y0099553D01*
X0294480Y0111364D01*
X0282472Y0135399D02*
X0261606Y0135399D01*
X0261606Y0175556D01*
X0282472Y0175556D01*
X0282472Y0135399D01*
X0295957Y0140064D02*
X0295957Y0143509D01*
X0302256Y0143509D02*
X0302256Y0140064D01*
X0302256Y0150241D02*
X0295957Y0150241D01*
X0295957Y0162053D01*
X0302256Y0162053D01*
X0302256Y0150241D01*
X0304441Y0171285D02*
X0292630Y0171285D01*
X0292630Y0177584D01*
X0304441Y0177584D01*
X0304441Y0171285D01*
X0320415Y0177228D02*
X0320626Y0177228D01*
X0320665Y0177230D01*
X0320704Y0177235D01*
X0320741Y0177244D01*
X0320778Y0177256D01*
X0320814Y0177272D01*
X0320848Y0177291D01*
X0320880Y0177313D01*
X0320910Y0177338D01*
X0320938Y0177366D01*
X0320963Y0177396D01*
X0320985Y0177428D01*
X0321004Y0177462D01*
X0321020Y0177498D01*
X0321032Y0177535D01*
X0321041Y0177572D01*
X0321046Y0177611D01*
X0321048Y0177650D01*
X0321049Y0177650D02*
X0321049Y0179128D01*
X0322209Y0179128D02*
X0322843Y0179128D01*
X0322843Y0179127D02*
X0322883Y0179125D01*
X0322923Y0179119D01*
X0322962Y0179110D01*
X0323000Y0179097D01*
X0323036Y0179080D01*
X0323071Y0179060D01*
X0323104Y0179037D01*
X0323134Y0179010D01*
X0323162Y0178981D01*
X0323187Y0178950D01*
X0323208Y0178916D01*
X0323227Y0178880D01*
X0323242Y0178843D01*
X0323253Y0178804D01*
X0323261Y0178765D01*
X0323265Y0178725D01*
X0323265Y0178685D01*
X0323261Y0178645D01*
X0323253Y0178606D01*
X0323242Y0178567D01*
X0323227Y0178530D01*
X0323208Y0178494D01*
X0323187Y0178460D01*
X0323162Y0178429D01*
X0323134Y0178400D01*
X0323104Y0178373D01*
X0323071Y0178350D01*
X0323036Y0178330D01*
X0323000Y0178313D01*
X0322962Y0178300D01*
X0322923Y0178291D01*
X0322883Y0178285D01*
X0322843Y0178283D01*
X0322420Y0178283D01*
X0322737Y0178283D02*
X0322782Y0178281D01*
X0322826Y0178275D01*
X0322870Y0178266D01*
X0322913Y0178253D01*
X0322954Y0178236D01*
X0322995Y0178216D01*
X0323033Y0178192D01*
X0323069Y0178166D01*
X0323102Y0178136D01*
X0323133Y0178104D01*
X0323162Y0178069D01*
X0323187Y0178032D01*
X0323208Y0177993D01*
X0323227Y0177952D01*
X0323242Y0177910D01*
X0323253Y0177866D01*
X0323261Y0177822D01*
X0323265Y0177777D01*
X0323265Y0177733D01*
X0323261Y0177688D01*
X0323253Y0177644D01*
X0323242Y0177600D01*
X0323227Y0177558D01*
X0323208Y0177517D01*
X0323187Y0177478D01*
X0323162Y0177441D01*
X0323133Y0177406D01*
X0323102Y0177374D01*
X0323069Y0177344D01*
X0323033Y0177318D01*
X0322995Y0177294D01*
X0322954Y0177274D01*
X0322913Y0177257D01*
X0322870Y0177244D01*
X0322826Y0177235D01*
X0322782Y0177229D01*
X0322737Y0177227D01*
X0322737Y0177228D02*
X0322209Y0177228D01*
X0261413Y0208072D02*
X0261413Y0219883D01*
X0254917Y0219883D01*
X0254917Y0208072D01*
X0261413Y0208072D01*
X0255976Y0218423D02*
X0255978Y0218473D01*
X0255984Y0218523D01*
X0255994Y0218572D01*
X0256007Y0218620D01*
X0256025Y0218667D01*
X0256046Y0218713D01*
X0256070Y0218756D01*
X0256098Y0218798D01*
X0256129Y0218837D01*
X0256163Y0218874D01*
X0256200Y0218908D01*
X0256239Y0218939D01*
X0256281Y0218967D01*
X0256324Y0218991D01*
X0256370Y0219012D01*
X0256417Y0219030D01*
X0256465Y0219043D01*
X0256514Y0219053D01*
X0256564Y0219059D01*
X0256614Y0219061D01*
X0256664Y0219059D01*
X0256714Y0219053D01*
X0256763Y0219043D01*
X0256811Y0219030D01*
X0256858Y0219012D01*
X0256904Y0218991D01*
X0256947Y0218967D01*
X0256989Y0218939D01*
X0257028Y0218908D01*
X0257065Y0218874D01*
X0257099Y0218837D01*
X0257130Y0218798D01*
X0257158Y0218756D01*
X0257182Y0218713D01*
X0257203Y0218667D01*
X0257221Y0218620D01*
X0257234Y0218572D01*
X0257244Y0218523D01*
X0257250Y0218473D01*
X0257252Y0218423D01*
X0257250Y0218373D01*
X0257244Y0218323D01*
X0257234Y0218274D01*
X0257221Y0218226D01*
X0257203Y0218179D01*
X0257182Y0218133D01*
X0257158Y0218090D01*
X0257130Y0218048D01*
X0257099Y0218009D01*
X0257065Y0217972D01*
X0257028Y0217938D01*
X0256989Y0217907D01*
X0256947Y0217879D01*
X0256904Y0217855D01*
X0256858Y0217834D01*
X0256811Y0217816D01*
X0256763Y0217803D01*
X0256714Y0217793D01*
X0256664Y0217787D01*
X0256614Y0217785D01*
X0256564Y0217787D01*
X0256514Y0217793D01*
X0256465Y0217803D01*
X0256417Y0217816D01*
X0256370Y0217834D01*
X0256324Y0217855D01*
X0256281Y0217879D01*
X0256239Y0217907D01*
X0256200Y0217938D01*
X0256163Y0217972D01*
X0256129Y0218009D01*
X0256098Y0218048D01*
X0256070Y0218090D01*
X0256046Y0218133D01*
X0256025Y0218179D01*
X0256007Y0218226D01*
X0255994Y0218274D01*
X0255984Y0218323D01*
X0255978Y0218373D01*
X0255976Y0218423D01*
X0226415Y0230228D02*
X0226415Y0230439D01*
X0226413Y0230478D01*
X0226408Y0230517D01*
X0226399Y0230554D01*
X0226387Y0230591D01*
X0226371Y0230627D01*
X0226352Y0230661D01*
X0226330Y0230693D01*
X0226305Y0230723D01*
X0226277Y0230751D01*
X0226247Y0230776D01*
X0226215Y0230798D01*
X0226181Y0230817D01*
X0226145Y0230833D01*
X0226108Y0230845D01*
X0226071Y0230854D01*
X0226032Y0230859D01*
X0225993Y0230861D01*
X0224515Y0230861D01*
X0224938Y0232022D02*
X0224515Y0232549D01*
X0226415Y0232549D01*
X0226415Y0232022D02*
X0226415Y0233077D01*
X0228161Y0178568D02*
X0228161Y0172269D01*
X0239972Y0172269D01*
X0239972Y0178568D01*
X0228161Y0178568D01*
X0227827Y0167466D02*
X0227827Y0147781D01*
X0231764Y0143135D02*
X0243575Y0143135D01*
X0243575Y0136836D01*
X0231764Y0136836D01*
X0231764Y0143135D01*
X0240622Y0132308D02*
X0252433Y0132308D01*
X0252433Y0126009D01*
X0240622Y0126009D01*
X0240622Y0132308D01*
X0243575Y0122466D02*
X0231764Y0122466D01*
X0231764Y0116167D01*
X0243575Y0116167D01*
X0243575Y0122466D01*
X0247866Y0120930D02*
X0260465Y0120930D01*
X0260465Y0115025D01*
X0247866Y0115025D01*
X0247866Y0120930D01*
X0243693Y0111364D02*
X0243693Y0099553D01*
X0237394Y0099553D01*
X0237394Y0111364D01*
X0243693Y0111364D01*
X0244480Y0107505D02*
X0244480Y0097663D01*
X0234638Y0097663D01*
X0233850Y0099553D02*
X0227551Y0099553D01*
X0227551Y0111364D01*
X0233850Y0111364D01*
X0233850Y0099553D01*
X0234638Y0058293D02*
X0244480Y0058293D01*
X0244480Y0048450D01*
X0243693Y0044592D02*
X0237394Y0044592D01*
X0237394Y0056403D01*
X0243693Y0056403D01*
X0243693Y0044592D01*
X0238815Y0037728D02*
X0238815Y0036672D01*
X0237760Y0037569D01*
X0236916Y0037253D02*
X0236918Y0037205D01*
X0236924Y0037158D01*
X0236933Y0037111D01*
X0236946Y0037064D01*
X0236962Y0037019D01*
X0236983Y0036976D01*
X0237006Y0036934D01*
X0237033Y0036894D01*
X0237062Y0036857D01*
X0237095Y0036821D01*
X0237130Y0036789D01*
X0237168Y0036759D01*
X0237208Y0036733D01*
X0237250Y0036709D01*
X0237293Y0036689D01*
X0237338Y0036673D01*
X0237759Y0037570D02*
X0237730Y0037598D01*
X0237698Y0037625D01*
X0237664Y0037648D01*
X0237628Y0037669D01*
X0237591Y0037687D01*
X0237552Y0037701D01*
X0237513Y0037713D01*
X0237472Y0037721D01*
X0237431Y0037726D01*
X0237390Y0037728D01*
X0237349Y0037726D01*
X0237308Y0037721D01*
X0237267Y0037712D01*
X0237228Y0037699D01*
X0237189Y0037683D01*
X0237153Y0037664D01*
X0237118Y0037642D01*
X0237085Y0037617D01*
X0237054Y0037589D01*
X0237026Y0037558D01*
X0237001Y0037525D01*
X0236979Y0037491D01*
X0236960Y0037454D01*
X0236944Y0037415D01*
X0236931Y0037376D01*
X0236922Y0037336D01*
X0236917Y0037294D01*
X0236915Y0037253D01*
X0236915Y0035512D02*
X0238393Y0035512D01*
X0238393Y0035511D02*
X0238432Y0035509D01*
X0238471Y0035504D01*
X0238508Y0035495D01*
X0238545Y0035483D01*
X0238581Y0035467D01*
X0238615Y0035448D01*
X0238647Y0035426D01*
X0238677Y0035401D01*
X0238705Y0035373D01*
X0238730Y0035343D01*
X0238752Y0035311D01*
X0238771Y0035277D01*
X0238787Y0035241D01*
X0238799Y0035204D01*
X0238808Y0035167D01*
X0238813Y0035128D01*
X0238815Y0035089D01*
X0238815Y0034878D01*
X0233850Y0044592D02*
X0227551Y0044592D01*
X0227551Y0056403D01*
X0233850Y0056403D01*
X0233850Y0044592D01*
X0243575Y0147781D02*
X0243575Y0167466D01*
X0245366Y0162643D02*
X0251665Y0162643D01*
X0251665Y0174454D01*
X0245366Y0174454D01*
X0245366Y0162643D01*
X0313016Y0242663D02*
X0341362Y0242663D01*
X0349236Y0242663D01*
X0349236Y0286757D01*
X0341362Y0286757D01*
X0341362Y0279671D01*
X0333094Y0279671D01*
X0333094Y0249749D01*
X0341362Y0249749D01*
X0341362Y0242663D01*
X0313016Y0242663D02*
X0313016Y0286757D01*
X0341362Y0286757D01*
X0323815Y0296822D02*
X0317516Y0296822D01*
X0317516Y0308633D01*
X0323815Y0308633D01*
X0323815Y0296822D01*
X0038815Y0296822D02*
X0032516Y0296822D01*
X0032516Y0308633D01*
X0038815Y0308633D01*
X0038815Y0296822D01*
D13*
X0248165Y0092978D02*
X0248167Y0093041D01*
X0248173Y0093103D01*
X0248183Y0093165D01*
X0248196Y0093227D01*
X0248214Y0093287D01*
X0248235Y0093346D01*
X0248260Y0093404D01*
X0248289Y0093460D01*
X0248321Y0093514D01*
X0248356Y0093566D01*
X0248394Y0093615D01*
X0248436Y0093663D01*
X0248480Y0093707D01*
X0248528Y0093749D01*
X0248577Y0093787D01*
X0248629Y0093822D01*
X0248683Y0093854D01*
X0248739Y0093883D01*
X0248797Y0093908D01*
X0248856Y0093929D01*
X0248916Y0093947D01*
X0248978Y0093960D01*
X0249040Y0093970D01*
X0249102Y0093976D01*
X0249165Y0093978D01*
X0249228Y0093976D01*
X0249290Y0093970D01*
X0249352Y0093960D01*
X0249414Y0093947D01*
X0249474Y0093929D01*
X0249533Y0093908D01*
X0249591Y0093883D01*
X0249647Y0093854D01*
X0249701Y0093822D01*
X0249753Y0093787D01*
X0249802Y0093749D01*
X0249850Y0093707D01*
X0249894Y0093663D01*
X0249936Y0093615D01*
X0249974Y0093566D01*
X0250009Y0093514D01*
X0250041Y0093460D01*
X0250070Y0093404D01*
X0250095Y0093346D01*
X0250116Y0093287D01*
X0250134Y0093227D01*
X0250147Y0093165D01*
X0250157Y0093103D01*
X0250163Y0093041D01*
X0250165Y0092978D01*
X0250163Y0092915D01*
X0250157Y0092853D01*
X0250147Y0092791D01*
X0250134Y0092729D01*
X0250116Y0092669D01*
X0250095Y0092610D01*
X0250070Y0092552D01*
X0250041Y0092496D01*
X0250009Y0092442D01*
X0249974Y0092390D01*
X0249936Y0092341D01*
X0249894Y0092293D01*
X0249850Y0092249D01*
X0249802Y0092207D01*
X0249753Y0092169D01*
X0249701Y0092134D01*
X0249647Y0092102D01*
X0249591Y0092073D01*
X0249533Y0092048D01*
X0249474Y0092027D01*
X0249414Y0092009D01*
X0249352Y0091996D01*
X0249290Y0091986D01*
X0249228Y0091980D01*
X0249165Y0091978D01*
X0249102Y0091980D01*
X0249040Y0091986D01*
X0248978Y0091996D01*
X0248916Y0092009D01*
X0248856Y0092027D01*
X0248797Y0092048D01*
X0248739Y0092073D01*
X0248683Y0092102D01*
X0248629Y0092134D01*
X0248577Y0092169D01*
X0248528Y0092207D01*
X0248480Y0092249D01*
X0248436Y0092293D01*
X0248394Y0092341D01*
X0248356Y0092390D01*
X0248321Y0092442D01*
X0248289Y0092496D01*
X0248260Y0092552D01*
X0248235Y0092610D01*
X0248214Y0092669D01*
X0248196Y0092729D01*
X0248183Y0092791D01*
X0248173Y0092853D01*
X0248167Y0092915D01*
X0248165Y0092978D01*
D14*
X0264165Y0109474D02*
X0264165Y0046482D01*
X0232669Y0077978D02*
X0295661Y0077978D01*
D15*
X0263378Y0173194D02*
X0263380Y0173250D01*
X0263386Y0173305D01*
X0263396Y0173359D01*
X0263409Y0173413D01*
X0263427Y0173466D01*
X0263448Y0173517D01*
X0263472Y0173567D01*
X0263500Y0173615D01*
X0263532Y0173661D01*
X0263566Y0173705D01*
X0263604Y0173746D01*
X0263644Y0173784D01*
X0263687Y0173819D01*
X0263732Y0173851D01*
X0263780Y0173880D01*
X0263829Y0173906D01*
X0263880Y0173928D01*
X0263932Y0173946D01*
X0263986Y0173960D01*
X0264041Y0173971D01*
X0264096Y0173978D01*
X0264151Y0173981D01*
X0264207Y0173980D01*
X0264262Y0173975D01*
X0264317Y0173966D01*
X0264371Y0173954D01*
X0264424Y0173937D01*
X0264476Y0173917D01*
X0264526Y0173893D01*
X0264574Y0173866D01*
X0264621Y0173836D01*
X0264665Y0173802D01*
X0264707Y0173765D01*
X0264745Y0173725D01*
X0264782Y0173683D01*
X0264815Y0173638D01*
X0264844Y0173592D01*
X0264871Y0173543D01*
X0264893Y0173492D01*
X0264913Y0173440D01*
X0264928Y0173386D01*
X0264940Y0173332D01*
X0264948Y0173277D01*
X0264952Y0173222D01*
X0264952Y0173166D01*
X0264948Y0173111D01*
X0264940Y0173056D01*
X0264928Y0173002D01*
X0264913Y0172948D01*
X0264893Y0172896D01*
X0264871Y0172845D01*
X0264844Y0172796D01*
X0264815Y0172750D01*
X0264782Y0172705D01*
X0264745Y0172663D01*
X0264707Y0172623D01*
X0264665Y0172586D01*
X0264621Y0172552D01*
X0264574Y0172522D01*
X0264526Y0172495D01*
X0264476Y0172471D01*
X0264424Y0172451D01*
X0264371Y0172434D01*
X0264317Y0172422D01*
X0264262Y0172413D01*
X0264207Y0172408D01*
X0264151Y0172407D01*
X0264096Y0172410D01*
X0264041Y0172417D01*
X0263986Y0172428D01*
X0263932Y0172442D01*
X0263880Y0172460D01*
X0263829Y0172482D01*
X0263780Y0172508D01*
X0263732Y0172537D01*
X0263687Y0172569D01*
X0263644Y0172604D01*
X0263604Y0172642D01*
X0263566Y0172683D01*
X0263532Y0172727D01*
X0263500Y0172773D01*
X0263472Y0172821D01*
X0263448Y0172871D01*
X0263427Y0172922D01*
X0263409Y0172975D01*
X0263396Y0173029D01*
X0263386Y0173083D01*
X0263380Y0173138D01*
X0263378Y0173194D01*
D16*
X0248665Y0243364D02*
X0248665Y0246592D01*
X0243665Y0246592D02*
X0243665Y0243364D01*
X0245276Y0254104D02*
X0259055Y0254104D01*
X0259055Y0269852D01*
X0245276Y0269852D01*
X0245276Y0254104D01*
X0253291Y0271104D02*
X0253291Y0286852D01*
X0269039Y0286852D01*
X0269039Y0271104D01*
X0253291Y0271104D01*
X0262665Y0252592D02*
X0262665Y0249364D01*
X0267665Y0249364D02*
X0267665Y0252592D01*
X0224165Y0286899D02*
X0044244Y0286899D01*
X0044244Y0006978D01*
X0082669Y0006978D01*
X0185661Y0006978D01*
X0224165Y0006978D01*
X0224165Y0286899D01*
X0222665Y0051592D02*
X0222665Y0048364D01*
X0217665Y0048364D02*
X0217665Y0051592D01*
X0240665Y0036592D02*
X0240665Y0033364D01*
X0245665Y0033364D02*
X0245665Y0036592D01*
X0245665Y0020592D02*
X0245665Y0017364D01*
X0240665Y0017364D02*
X0240665Y0020592D01*
D17*
X0258531Y0021030D02*
X0258531Y0023930D01*
X0259337Y0023930D01*
X0259337Y0023931D02*
X0259392Y0023929D01*
X0259447Y0023923D01*
X0259501Y0023914D01*
X0259554Y0023901D01*
X0259607Y0023884D01*
X0259658Y0023864D01*
X0259708Y0023841D01*
X0259756Y0023814D01*
X0259802Y0023783D01*
X0259846Y0023750D01*
X0259887Y0023714D01*
X0259926Y0023675D01*
X0259962Y0023634D01*
X0259995Y0023590D01*
X0260026Y0023544D01*
X0260053Y0023496D01*
X0260076Y0023446D01*
X0260096Y0023395D01*
X0260113Y0023342D01*
X0260126Y0023289D01*
X0260135Y0023235D01*
X0260141Y0023180D01*
X0260143Y0023125D01*
X0260141Y0023070D01*
X0260135Y0023015D01*
X0260126Y0022961D01*
X0260113Y0022908D01*
X0260096Y0022855D01*
X0260076Y0022804D01*
X0260053Y0022754D01*
X0260026Y0022706D01*
X0259995Y0022660D01*
X0259962Y0022616D01*
X0259926Y0022575D01*
X0259887Y0022536D01*
X0259846Y0022500D01*
X0259802Y0022467D01*
X0259756Y0022436D01*
X0259708Y0022409D01*
X0259658Y0022386D01*
X0259607Y0022366D01*
X0259554Y0022349D01*
X0259501Y0022336D01*
X0259447Y0022327D01*
X0259392Y0022321D01*
X0259337Y0022319D01*
X0258531Y0022319D01*
X0261365Y0022641D02*
X0262976Y0022641D01*
X0262976Y0023930D02*
X0262976Y0021030D01*
X0264341Y0021836D02*
X0264341Y0023125D01*
X0264340Y0023125D02*
X0264342Y0023180D01*
X0264348Y0023235D01*
X0264357Y0023289D01*
X0264370Y0023342D01*
X0264387Y0023395D01*
X0264407Y0023446D01*
X0264430Y0023496D01*
X0264457Y0023544D01*
X0264488Y0023590D01*
X0264521Y0023634D01*
X0264557Y0023675D01*
X0264596Y0023714D01*
X0264637Y0023750D01*
X0264681Y0023783D01*
X0264727Y0023814D01*
X0264775Y0023841D01*
X0264825Y0023864D01*
X0264876Y0023884D01*
X0264929Y0023901D01*
X0264982Y0023914D01*
X0265036Y0023923D01*
X0265091Y0023929D01*
X0265146Y0023931D01*
X0265201Y0023929D01*
X0265256Y0023923D01*
X0265310Y0023914D01*
X0265363Y0023901D01*
X0265416Y0023884D01*
X0265467Y0023864D01*
X0265517Y0023841D01*
X0265565Y0023814D01*
X0265611Y0023783D01*
X0265655Y0023750D01*
X0265696Y0023714D01*
X0265735Y0023675D01*
X0265771Y0023634D01*
X0265804Y0023590D01*
X0265835Y0023544D01*
X0265862Y0023496D01*
X0265885Y0023446D01*
X0265905Y0023395D01*
X0265922Y0023342D01*
X0265935Y0023289D01*
X0265944Y0023235D01*
X0265950Y0023180D01*
X0265952Y0023125D01*
X0265952Y0021836D01*
X0265950Y0021781D01*
X0265944Y0021726D01*
X0265935Y0021672D01*
X0265922Y0021619D01*
X0265905Y0021566D01*
X0265885Y0021515D01*
X0265862Y0021465D01*
X0265835Y0021417D01*
X0265804Y0021371D01*
X0265771Y0021327D01*
X0265735Y0021286D01*
X0265696Y0021247D01*
X0265655Y0021211D01*
X0265611Y0021178D01*
X0265565Y0021147D01*
X0265517Y0021120D01*
X0265467Y0021097D01*
X0265416Y0021077D01*
X0265363Y0021060D01*
X0265310Y0021047D01*
X0265256Y0021038D01*
X0265201Y0021032D01*
X0265146Y0021030D01*
X0265091Y0021032D01*
X0265036Y0021038D01*
X0264982Y0021047D01*
X0264929Y0021060D01*
X0264876Y0021077D01*
X0264825Y0021097D01*
X0264775Y0021120D01*
X0264727Y0021147D01*
X0264681Y0021178D01*
X0264637Y0021211D01*
X0264596Y0021247D01*
X0264557Y0021286D01*
X0264521Y0021327D01*
X0264488Y0021371D01*
X0264457Y0021417D01*
X0264430Y0021465D01*
X0264407Y0021515D01*
X0264387Y0021566D01*
X0264370Y0021619D01*
X0264357Y0021672D01*
X0264348Y0021726D01*
X0264342Y0021781D01*
X0264340Y0021836D01*
X0261365Y0021030D02*
X0261365Y0023930D01*
X0267029Y0023930D02*
X0268640Y0023930D01*
X0267834Y0023930D02*
X0267834Y0021030D01*
X0269717Y0021836D02*
X0269717Y0023125D01*
X0269716Y0023125D02*
X0269718Y0023180D01*
X0269724Y0023235D01*
X0269733Y0023289D01*
X0269746Y0023342D01*
X0269763Y0023395D01*
X0269783Y0023446D01*
X0269806Y0023496D01*
X0269833Y0023544D01*
X0269864Y0023590D01*
X0269897Y0023634D01*
X0269933Y0023675D01*
X0269972Y0023714D01*
X0270013Y0023750D01*
X0270057Y0023783D01*
X0270103Y0023814D01*
X0270151Y0023841D01*
X0270201Y0023864D01*
X0270252Y0023884D01*
X0270305Y0023901D01*
X0270358Y0023914D01*
X0270412Y0023923D01*
X0270467Y0023929D01*
X0270522Y0023931D01*
X0270577Y0023929D01*
X0270632Y0023923D01*
X0270686Y0023914D01*
X0270739Y0023901D01*
X0270792Y0023884D01*
X0270843Y0023864D01*
X0270893Y0023841D01*
X0270941Y0023814D01*
X0270987Y0023783D01*
X0271031Y0023750D01*
X0271072Y0023714D01*
X0271111Y0023675D01*
X0271147Y0023634D01*
X0271180Y0023590D01*
X0271211Y0023544D01*
X0271238Y0023496D01*
X0271261Y0023446D01*
X0271281Y0023395D01*
X0271298Y0023342D01*
X0271311Y0023289D01*
X0271320Y0023235D01*
X0271326Y0023180D01*
X0271328Y0023125D01*
X0271328Y0021836D01*
X0271326Y0021781D01*
X0271320Y0021726D01*
X0271311Y0021672D01*
X0271298Y0021619D01*
X0271281Y0021566D01*
X0271261Y0021515D01*
X0271238Y0021465D01*
X0271211Y0021417D01*
X0271180Y0021371D01*
X0271147Y0021327D01*
X0271111Y0021286D01*
X0271072Y0021247D01*
X0271031Y0021211D01*
X0270987Y0021178D01*
X0270941Y0021147D01*
X0270893Y0021120D01*
X0270843Y0021097D01*
X0270792Y0021077D01*
X0270739Y0021060D01*
X0270686Y0021047D01*
X0270632Y0021038D01*
X0270577Y0021032D01*
X0270522Y0021030D01*
X0270467Y0021032D01*
X0270412Y0021038D01*
X0270358Y0021047D01*
X0270305Y0021060D01*
X0270252Y0021077D01*
X0270201Y0021097D01*
X0270151Y0021120D01*
X0270103Y0021147D01*
X0270057Y0021178D01*
X0270013Y0021211D01*
X0269972Y0021247D01*
X0269933Y0021286D01*
X0269897Y0021327D01*
X0269864Y0021371D01*
X0269833Y0021417D01*
X0269806Y0021465D01*
X0269783Y0021515D01*
X0269763Y0021566D01*
X0269746Y0021619D01*
X0269733Y0021672D01*
X0269724Y0021726D01*
X0269718Y0021781D01*
X0269716Y0021836D01*
X0272693Y0021030D02*
X0273498Y0021030D01*
X0272693Y0021030D02*
X0272693Y0023930D01*
X0273498Y0023930D01*
X0273498Y0023931D02*
X0273553Y0023929D01*
X0273608Y0023923D01*
X0273662Y0023914D01*
X0273715Y0023901D01*
X0273768Y0023884D01*
X0273819Y0023864D01*
X0273869Y0023841D01*
X0273917Y0023814D01*
X0273963Y0023783D01*
X0274007Y0023750D01*
X0274048Y0023714D01*
X0274087Y0023675D01*
X0274123Y0023634D01*
X0274156Y0023590D01*
X0274187Y0023544D01*
X0274214Y0023496D01*
X0274237Y0023446D01*
X0274257Y0023395D01*
X0274274Y0023342D01*
X0274287Y0023289D01*
X0274296Y0023235D01*
X0274302Y0023180D01*
X0274304Y0023125D01*
X0274304Y0021836D01*
X0274302Y0021781D01*
X0274296Y0021726D01*
X0274287Y0021672D01*
X0274274Y0021619D01*
X0274257Y0021566D01*
X0274237Y0021515D01*
X0274214Y0021465D01*
X0274187Y0021417D01*
X0274156Y0021371D01*
X0274123Y0021327D01*
X0274087Y0021286D01*
X0274048Y0021247D01*
X0274007Y0021211D01*
X0273963Y0021178D01*
X0273917Y0021147D01*
X0273869Y0021120D01*
X0273819Y0021097D01*
X0273768Y0021077D01*
X0273715Y0021060D01*
X0273662Y0021047D01*
X0273608Y0021038D01*
X0273553Y0021032D01*
X0273498Y0021030D01*
X0275576Y0021030D02*
X0276220Y0021030D01*
X0275898Y0021030D02*
X0275898Y0023930D01*
X0275576Y0023930D02*
X0276220Y0023930D01*
X0277397Y0023125D02*
X0277397Y0021836D01*
X0277396Y0021836D02*
X0277398Y0021781D01*
X0277404Y0021726D01*
X0277413Y0021672D01*
X0277426Y0021619D01*
X0277443Y0021566D01*
X0277463Y0021515D01*
X0277486Y0021465D01*
X0277513Y0021417D01*
X0277544Y0021371D01*
X0277577Y0021327D01*
X0277613Y0021286D01*
X0277652Y0021247D01*
X0277693Y0021211D01*
X0277737Y0021178D01*
X0277783Y0021147D01*
X0277831Y0021120D01*
X0277881Y0021097D01*
X0277932Y0021077D01*
X0277985Y0021060D01*
X0278038Y0021047D01*
X0278092Y0021038D01*
X0278147Y0021032D01*
X0278202Y0021030D01*
X0278257Y0021032D01*
X0278312Y0021038D01*
X0278366Y0021047D01*
X0278419Y0021060D01*
X0278472Y0021077D01*
X0278523Y0021097D01*
X0278573Y0021120D01*
X0278621Y0021147D01*
X0278667Y0021178D01*
X0278711Y0021211D01*
X0278752Y0021247D01*
X0278791Y0021286D01*
X0278827Y0021327D01*
X0278860Y0021371D01*
X0278891Y0021417D01*
X0278918Y0021465D01*
X0278941Y0021515D01*
X0278961Y0021566D01*
X0278978Y0021619D01*
X0278991Y0021672D01*
X0279000Y0021726D01*
X0279006Y0021781D01*
X0279008Y0021836D01*
X0279008Y0023125D01*
X0279006Y0023180D01*
X0279000Y0023235D01*
X0278991Y0023289D01*
X0278978Y0023342D01*
X0278961Y0023395D01*
X0278941Y0023446D01*
X0278918Y0023496D01*
X0278891Y0023544D01*
X0278860Y0023590D01*
X0278827Y0023634D01*
X0278791Y0023675D01*
X0278752Y0023714D01*
X0278711Y0023750D01*
X0278667Y0023783D01*
X0278621Y0023814D01*
X0278573Y0023841D01*
X0278523Y0023864D01*
X0278472Y0023884D01*
X0278419Y0023901D01*
X0278366Y0023914D01*
X0278312Y0023923D01*
X0278257Y0023929D01*
X0278202Y0023931D01*
X0278147Y0023929D01*
X0278092Y0023923D01*
X0278038Y0023914D01*
X0277985Y0023901D01*
X0277932Y0023884D01*
X0277881Y0023864D01*
X0277831Y0023841D01*
X0277783Y0023814D01*
X0277737Y0023783D01*
X0277693Y0023750D01*
X0277652Y0023714D01*
X0277613Y0023675D01*
X0277577Y0023634D01*
X0277544Y0023590D01*
X0277513Y0023544D01*
X0277486Y0023496D01*
X0277463Y0023446D01*
X0277443Y0023395D01*
X0277426Y0023342D01*
X0277413Y0023289D01*
X0277404Y0023235D01*
X0277398Y0023180D01*
X0277396Y0023125D01*
X0280373Y0023930D02*
X0280373Y0021030D01*
X0281178Y0021030D01*
X0281233Y0021032D01*
X0281288Y0021038D01*
X0281342Y0021047D01*
X0281395Y0021060D01*
X0281448Y0021077D01*
X0281499Y0021097D01*
X0281549Y0021120D01*
X0281597Y0021147D01*
X0281643Y0021178D01*
X0281687Y0021211D01*
X0281728Y0021247D01*
X0281767Y0021286D01*
X0281803Y0021327D01*
X0281836Y0021371D01*
X0281867Y0021417D01*
X0281894Y0021465D01*
X0281917Y0021515D01*
X0281937Y0021566D01*
X0281954Y0021619D01*
X0281967Y0021672D01*
X0281976Y0021726D01*
X0281982Y0021781D01*
X0281984Y0021836D01*
X0281984Y0023125D01*
X0281982Y0023180D01*
X0281976Y0023235D01*
X0281967Y0023289D01*
X0281954Y0023342D01*
X0281937Y0023395D01*
X0281917Y0023446D01*
X0281894Y0023496D01*
X0281867Y0023544D01*
X0281836Y0023590D01*
X0281803Y0023634D01*
X0281767Y0023675D01*
X0281728Y0023714D01*
X0281687Y0023750D01*
X0281643Y0023783D01*
X0281597Y0023814D01*
X0281549Y0023841D01*
X0281499Y0023864D01*
X0281448Y0023884D01*
X0281395Y0023901D01*
X0281342Y0023914D01*
X0281288Y0023923D01*
X0281233Y0023929D01*
X0281178Y0023931D01*
X0281178Y0023930D02*
X0280373Y0023930D01*
X0283451Y0023930D02*
X0283451Y0021030D01*
X0284740Y0021030D01*
X0284418Y0022641D02*
X0283451Y0022641D01*
X0283451Y0023930D02*
X0284740Y0023930D01*
X0316815Y0123128D02*
X0316815Y0124155D01*
X0316815Y0123128D02*
X0320515Y0123128D01*
X0320515Y0124155D01*
X0320516Y0124155D02*
X0320514Y0124217D01*
X0320509Y0124279D01*
X0320499Y0124340D01*
X0320486Y0124401D01*
X0320469Y0124461D01*
X0320449Y0124520D01*
X0320425Y0124577D01*
X0320398Y0124633D01*
X0320368Y0124687D01*
X0320334Y0124739D01*
X0320297Y0124789D01*
X0320257Y0124837D01*
X0320215Y0124882D01*
X0320170Y0124924D01*
X0320122Y0124964D01*
X0320072Y0125001D01*
X0320020Y0125035D01*
X0319966Y0125065D01*
X0319910Y0125092D01*
X0319853Y0125116D01*
X0319794Y0125136D01*
X0319734Y0125153D01*
X0319673Y0125166D01*
X0319612Y0125176D01*
X0319550Y0125181D01*
X0319488Y0125183D01*
X0317843Y0125183D01*
X0317781Y0125181D01*
X0317719Y0125176D01*
X0317658Y0125166D01*
X0317597Y0125153D01*
X0317537Y0125136D01*
X0317478Y0125116D01*
X0317421Y0125092D01*
X0317365Y0125065D01*
X0317311Y0125035D01*
X0317259Y0125001D01*
X0317209Y0124964D01*
X0317161Y0124924D01*
X0317116Y0124882D01*
X0317074Y0124837D01*
X0317034Y0124789D01*
X0316997Y0124739D01*
X0316963Y0124687D01*
X0316933Y0124633D01*
X0316906Y0124577D01*
X0316882Y0124520D01*
X0316862Y0124461D01*
X0316845Y0124401D01*
X0316832Y0124340D01*
X0316822Y0124279D01*
X0316817Y0124217D01*
X0316815Y0124155D01*
X0317638Y0126848D02*
X0316815Y0127875D01*
X0320515Y0127875D01*
X0320515Y0126848D02*
X0320515Y0128903D01*
X0336421Y0253476D02*
X0336905Y0254362D01*
X0338113Y0254040D02*
X0338111Y0253968D01*
X0338105Y0253897D01*
X0338096Y0253826D01*
X0338083Y0253756D01*
X0338066Y0253686D01*
X0338046Y0253617D01*
X0338022Y0253550D01*
X0337994Y0253484D01*
X0337963Y0253419D01*
X0337929Y0253356D01*
X0337891Y0253295D01*
X0337850Y0253236D01*
X0337807Y0253180D01*
X0337760Y0253125D01*
X0337710Y0253074D01*
X0336905Y0254362D02*
X0336931Y0254402D01*
X0336960Y0254441D01*
X0336992Y0254478D01*
X0337027Y0254512D01*
X0337064Y0254543D01*
X0337103Y0254572D01*
X0337144Y0254598D01*
X0337187Y0254620D01*
X0337232Y0254639D01*
X0337278Y0254655D01*
X0337324Y0254668D01*
X0337372Y0254677D01*
X0337420Y0254682D01*
X0337469Y0254684D01*
X0337517Y0254682D01*
X0337565Y0254677D01*
X0337612Y0254668D01*
X0337659Y0254655D01*
X0337704Y0254639D01*
X0337748Y0254620D01*
X0337791Y0254598D01*
X0337832Y0254572D01*
X0337871Y0254543D01*
X0337907Y0254512D01*
X0337941Y0254478D01*
X0337972Y0254442D01*
X0338001Y0254403D01*
X0338027Y0254362D01*
X0338049Y0254319D01*
X0338068Y0254275D01*
X0338084Y0254230D01*
X0338097Y0254183D01*
X0338106Y0254136D01*
X0338111Y0254088D01*
X0338113Y0254040D01*
X0335455Y0254523D02*
X0335417Y0254470D01*
X0335383Y0254415D01*
X0335351Y0254359D01*
X0335322Y0254300D01*
X0335297Y0254241D01*
X0335275Y0254180D01*
X0335256Y0254118D01*
X0335241Y0254055D01*
X0335229Y0253992D01*
X0335220Y0253927D01*
X0335215Y0253863D01*
X0335213Y0253798D01*
X0335215Y0253750D01*
X0335220Y0253702D01*
X0335229Y0253655D01*
X0335242Y0253608D01*
X0335258Y0253563D01*
X0335277Y0253519D01*
X0335299Y0253476D01*
X0335325Y0253435D01*
X0335354Y0253396D01*
X0335385Y0253360D01*
X0335419Y0253326D01*
X0335455Y0253295D01*
X0335494Y0253266D01*
X0335535Y0253240D01*
X0335578Y0253218D01*
X0335622Y0253199D01*
X0335667Y0253183D01*
X0335714Y0253170D01*
X0335761Y0253161D01*
X0335809Y0253156D01*
X0335857Y0253154D01*
X0335857Y0253153D02*
X0335906Y0253155D01*
X0335954Y0253160D01*
X0336002Y0253169D01*
X0336048Y0253182D01*
X0336094Y0253198D01*
X0336139Y0253217D01*
X0336182Y0253239D01*
X0336223Y0253265D01*
X0336262Y0253294D01*
X0336299Y0253325D01*
X0336334Y0253359D01*
X0336366Y0253396D01*
X0336395Y0253435D01*
X0336421Y0253475D01*
X0337307Y0255953D02*
X0335213Y0255953D01*
X0335213Y0257564D02*
X0337307Y0257564D01*
X0337362Y0257562D01*
X0337417Y0257556D01*
X0337471Y0257547D01*
X0337524Y0257534D01*
X0337577Y0257517D01*
X0337628Y0257497D01*
X0337678Y0257474D01*
X0337726Y0257447D01*
X0337772Y0257416D01*
X0337816Y0257383D01*
X0337857Y0257347D01*
X0337896Y0257308D01*
X0337932Y0257267D01*
X0337965Y0257223D01*
X0337996Y0257177D01*
X0338023Y0257129D01*
X0338046Y0257079D01*
X0338066Y0257028D01*
X0338083Y0256975D01*
X0338096Y0256922D01*
X0338105Y0256868D01*
X0338111Y0256813D01*
X0338113Y0256758D01*
X0338111Y0256703D01*
X0338105Y0256648D01*
X0338096Y0256594D01*
X0338083Y0256541D01*
X0338066Y0256488D01*
X0338046Y0256437D01*
X0338023Y0256387D01*
X0337996Y0256339D01*
X0337965Y0256293D01*
X0337932Y0256249D01*
X0337896Y0256208D01*
X0337857Y0256169D01*
X0337816Y0256133D01*
X0337772Y0256100D01*
X0337726Y0256069D01*
X0337678Y0256042D01*
X0337628Y0256019D01*
X0337577Y0255999D01*
X0337524Y0255982D01*
X0337471Y0255969D01*
X0337417Y0255960D01*
X0337362Y0255954D01*
X0337307Y0255952D01*
X0338113Y0259025D02*
X0335213Y0259025D01*
X0338113Y0260636D01*
X0335213Y0260636D01*
X0336421Y0262308D02*
X0336905Y0263194D01*
X0338113Y0262872D02*
X0338111Y0262800D01*
X0338105Y0262729D01*
X0338096Y0262658D01*
X0338083Y0262588D01*
X0338066Y0262518D01*
X0338046Y0262449D01*
X0338022Y0262382D01*
X0337994Y0262316D01*
X0337963Y0262251D01*
X0337929Y0262188D01*
X0337891Y0262127D01*
X0337850Y0262068D01*
X0337807Y0262012D01*
X0337760Y0261957D01*
X0337710Y0261906D01*
X0336905Y0263194D02*
X0336931Y0263234D01*
X0336960Y0263273D01*
X0336992Y0263310D01*
X0337027Y0263344D01*
X0337064Y0263375D01*
X0337103Y0263404D01*
X0337144Y0263430D01*
X0337187Y0263452D01*
X0337232Y0263471D01*
X0337278Y0263487D01*
X0337324Y0263500D01*
X0337372Y0263509D01*
X0337420Y0263514D01*
X0337469Y0263516D01*
X0337517Y0263514D01*
X0337565Y0263509D01*
X0337612Y0263500D01*
X0337659Y0263487D01*
X0337704Y0263471D01*
X0337748Y0263452D01*
X0337791Y0263430D01*
X0337832Y0263404D01*
X0337871Y0263375D01*
X0337907Y0263344D01*
X0337941Y0263310D01*
X0337972Y0263274D01*
X0338001Y0263235D01*
X0338027Y0263194D01*
X0338049Y0263151D01*
X0338068Y0263107D01*
X0338084Y0263062D01*
X0338097Y0263015D01*
X0338106Y0262968D01*
X0338111Y0262920D01*
X0338113Y0262872D01*
X0335455Y0263355D02*
X0335417Y0263302D01*
X0335383Y0263247D01*
X0335351Y0263191D01*
X0335322Y0263132D01*
X0335297Y0263073D01*
X0335275Y0263012D01*
X0335256Y0262950D01*
X0335241Y0262887D01*
X0335229Y0262824D01*
X0335220Y0262759D01*
X0335215Y0262695D01*
X0335213Y0262630D01*
X0335215Y0262582D01*
X0335220Y0262534D01*
X0335229Y0262487D01*
X0335242Y0262440D01*
X0335258Y0262395D01*
X0335277Y0262351D01*
X0335299Y0262308D01*
X0335325Y0262267D01*
X0335354Y0262228D01*
X0335385Y0262192D01*
X0335419Y0262158D01*
X0335455Y0262127D01*
X0335494Y0262098D01*
X0335535Y0262072D01*
X0335578Y0262050D01*
X0335622Y0262031D01*
X0335667Y0262015D01*
X0335714Y0262002D01*
X0335761Y0261993D01*
X0335809Y0261988D01*
X0335857Y0261986D01*
X0335857Y0261985D02*
X0335906Y0261987D01*
X0335954Y0261992D01*
X0336002Y0262001D01*
X0336048Y0262014D01*
X0336094Y0262030D01*
X0336139Y0262049D01*
X0336182Y0262071D01*
X0336223Y0262097D01*
X0336262Y0262126D01*
X0336299Y0262157D01*
X0336334Y0262191D01*
X0336366Y0262228D01*
X0336395Y0262267D01*
X0336421Y0262307D01*
X0336502Y0264791D02*
X0336502Y0265758D01*
X0335213Y0266080D02*
X0335213Y0264791D01*
X0338113Y0264791D01*
X0338113Y0266080D01*
X0338113Y0267281D02*
X0335213Y0267281D01*
X0338113Y0268892D01*
X0335213Y0268892D01*
X0336421Y0270564D02*
X0336905Y0271450D01*
X0338113Y0271128D02*
X0338111Y0271056D01*
X0338105Y0270985D01*
X0338096Y0270914D01*
X0338083Y0270844D01*
X0338066Y0270774D01*
X0338046Y0270705D01*
X0338022Y0270638D01*
X0337994Y0270572D01*
X0337963Y0270507D01*
X0337929Y0270444D01*
X0337891Y0270383D01*
X0337850Y0270324D01*
X0337807Y0270268D01*
X0337760Y0270213D01*
X0337710Y0270162D01*
X0336905Y0271450D02*
X0336931Y0271490D01*
X0336960Y0271529D01*
X0336992Y0271566D01*
X0337027Y0271600D01*
X0337064Y0271631D01*
X0337103Y0271660D01*
X0337144Y0271686D01*
X0337187Y0271708D01*
X0337232Y0271727D01*
X0337278Y0271743D01*
X0337324Y0271756D01*
X0337372Y0271765D01*
X0337420Y0271770D01*
X0337469Y0271772D01*
X0337517Y0271770D01*
X0337565Y0271765D01*
X0337612Y0271756D01*
X0337659Y0271743D01*
X0337704Y0271727D01*
X0337748Y0271708D01*
X0337791Y0271686D01*
X0337832Y0271660D01*
X0337871Y0271631D01*
X0337907Y0271600D01*
X0337941Y0271566D01*
X0337972Y0271530D01*
X0338001Y0271491D01*
X0338027Y0271450D01*
X0338049Y0271407D01*
X0338068Y0271363D01*
X0338084Y0271318D01*
X0338097Y0271271D01*
X0338106Y0271224D01*
X0338111Y0271176D01*
X0338113Y0271128D01*
X0335455Y0271611D02*
X0335417Y0271558D01*
X0335383Y0271503D01*
X0335351Y0271447D01*
X0335322Y0271388D01*
X0335297Y0271329D01*
X0335275Y0271268D01*
X0335256Y0271206D01*
X0335241Y0271143D01*
X0335229Y0271080D01*
X0335220Y0271015D01*
X0335215Y0270951D01*
X0335213Y0270886D01*
X0335215Y0270838D01*
X0335220Y0270790D01*
X0335229Y0270743D01*
X0335242Y0270696D01*
X0335258Y0270651D01*
X0335277Y0270607D01*
X0335299Y0270564D01*
X0335325Y0270523D01*
X0335354Y0270484D01*
X0335385Y0270448D01*
X0335419Y0270414D01*
X0335455Y0270383D01*
X0335494Y0270354D01*
X0335535Y0270328D01*
X0335578Y0270306D01*
X0335622Y0270287D01*
X0335667Y0270271D01*
X0335714Y0270258D01*
X0335761Y0270249D01*
X0335809Y0270244D01*
X0335857Y0270242D01*
X0335857Y0270241D02*
X0335906Y0270243D01*
X0335954Y0270248D01*
X0336002Y0270257D01*
X0336048Y0270270D01*
X0336094Y0270286D01*
X0336139Y0270305D01*
X0336182Y0270327D01*
X0336223Y0270353D01*
X0336262Y0270382D01*
X0336299Y0270413D01*
X0336334Y0270447D01*
X0336366Y0270484D01*
X0336395Y0270523D01*
X0336421Y0270563D01*
X0336019Y0272945D02*
X0337307Y0272945D01*
X0337307Y0272944D02*
X0337362Y0272946D01*
X0337417Y0272952D01*
X0337471Y0272961D01*
X0337524Y0272974D01*
X0337577Y0272991D01*
X0337628Y0273011D01*
X0337678Y0273034D01*
X0337726Y0273061D01*
X0337772Y0273092D01*
X0337816Y0273125D01*
X0337857Y0273161D01*
X0337896Y0273200D01*
X0337932Y0273241D01*
X0337965Y0273285D01*
X0337996Y0273331D01*
X0338023Y0273379D01*
X0338046Y0273429D01*
X0338066Y0273480D01*
X0338083Y0273533D01*
X0338096Y0273586D01*
X0338105Y0273640D01*
X0338111Y0273695D01*
X0338113Y0273750D01*
X0338111Y0273805D01*
X0338105Y0273860D01*
X0338096Y0273914D01*
X0338083Y0273967D01*
X0338066Y0274020D01*
X0338046Y0274071D01*
X0338023Y0274121D01*
X0337996Y0274169D01*
X0337965Y0274215D01*
X0337932Y0274259D01*
X0337896Y0274300D01*
X0337857Y0274339D01*
X0337816Y0274375D01*
X0337772Y0274408D01*
X0337726Y0274439D01*
X0337678Y0274466D01*
X0337628Y0274489D01*
X0337577Y0274509D01*
X0337524Y0274526D01*
X0337471Y0274539D01*
X0337417Y0274548D01*
X0337362Y0274554D01*
X0337307Y0274556D01*
X0336019Y0274556D01*
X0335964Y0274554D01*
X0335909Y0274548D01*
X0335855Y0274539D01*
X0335802Y0274526D01*
X0335749Y0274509D01*
X0335698Y0274489D01*
X0335648Y0274466D01*
X0335600Y0274439D01*
X0335554Y0274408D01*
X0335510Y0274375D01*
X0335469Y0274339D01*
X0335430Y0274300D01*
X0335394Y0274259D01*
X0335361Y0274215D01*
X0335330Y0274169D01*
X0335303Y0274121D01*
X0335280Y0274071D01*
X0335260Y0274020D01*
X0335243Y0273967D01*
X0335230Y0273914D01*
X0335221Y0273860D01*
X0335215Y0273805D01*
X0335213Y0273750D01*
X0335215Y0273695D01*
X0335221Y0273640D01*
X0335230Y0273586D01*
X0335243Y0273533D01*
X0335260Y0273480D01*
X0335280Y0273429D01*
X0335303Y0273379D01*
X0335330Y0273331D01*
X0335361Y0273285D01*
X0335394Y0273241D01*
X0335430Y0273200D01*
X0335469Y0273161D01*
X0335510Y0273125D01*
X0335554Y0273092D01*
X0335600Y0273061D01*
X0335648Y0273034D01*
X0335698Y0273011D01*
X0335749Y0272991D01*
X0335802Y0272974D01*
X0335855Y0272961D01*
X0335909Y0272952D01*
X0335964Y0272946D01*
X0336019Y0272944D01*
X0336824Y0275941D02*
X0336824Y0276747D01*
X0336824Y0276908D02*
X0338113Y0277552D01*
X0338113Y0275941D02*
X0335213Y0275941D01*
X0335213Y0276747D01*
X0335215Y0276802D01*
X0335221Y0276857D01*
X0335230Y0276911D01*
X0335243Y0276964D01*
X0335260Y0277017D01*
X0335280Y0277068D01*
X0335303Y0277118D01*
X0335330Y0277166D01*
X0335361Y0277212D01*
X0335394Y0277256D01*
X0335430Y0277297D01*
X0335469Y0277336D01*
X0335510Y0277372D01*
X0335554Y0277405D01*
X0335600Y0277436D01*
X0335648Y0277463D01*
X0335698Y0277486D01*
X0335749Y0277506D01*
X0335802Y0277523D01*
X0335855Y0277536D01*
X0335909Y0277545D01*
X0335964Y0277551D01*
X0336019Y0277553D01*
X0336074Y0277551D01*
X0336129Y0277545D01*
X0336183Y0277536D01*
X0336236Y0277523D01*
X0336289Y0277506D01*
X0336340Y0277486D01*
X0336390Y0277463D01*
X0336438Y0277436D01*
X0336484Y0277405D01*
X0336528Y0277372D01*
X0336569Y0277336D01*
X0336608Y0277297D01*
X0336644Y0277256D01*
X0336677Y0277212D01*
X0336708Y0277166D01*
X0336735Y0277118D01*
X0336758Y0277068D01*
X0336778Y0277017D01*
X0336795Y0276964D01*
X0336808Y0276911D01*
X0336817Y0276857D01*
X0336823Y0276802D01*
X0336825Y0276747D01*
X0258408Y0288970D02*
X0256387Y0288970D01*
X0257398Y0288970D02*
X0257398Y0292607D01*
X0256387Y0291799D01*
X0253441Y0292607D02*
X0253441Y0288970D01*
X0255058Y0288970D01*
X0175963Y0246985D02*
X0174751Y0246985D01*
X0175963Y0246985D02*
X0176018Y0246983D01*
X0176073Y0246977D01*
X0176127Y0246968D01*
X0176181Y0246955D01*
X0176234Y0246938D01*
X0176285Y0246918D01*
X0176335Y0246894D01*
X0176383Y0246867D01*
X0176429Y0246837D01*
X0176473Y0246804D01*
X0176515Y0246768D01*
X0176554Y0246729D01*
X0176590Y0246687D01*
X0176623Y0246643D01*
X0176653Y0246597D01*
X0176680Y0246549D01*
X0176704Y0246499D01*
X0176724Y0246448D01*
X0176741Y0246395D01*
X0176754Y0246341D01*
X0176763Y0246287D01*
X0176769Y0246232D01*
X0176771Y0246177D01*
X0176769Y0246122D01*
X0176763Y0246067D01*
X0176754Y0246013D01*
X0176741Y0245959D01*
X0176724Y0245906D01*
X0176704Y0245855D01*
X0176680Y0245805D01*
X0176653Y0245757D01*
X0176623Y0245711D01*
X0176590Y0245667D01*
X0176554Y0245625D01*
X0176515Y0245586D01*
X0176473Y0245550D01*
X0176429Y0245517D01*
X0176383Y0245487D01*
X0176335Y0245460D01*
X0176285Y0245436D01*
X0176234Y0245416D01*
X0176181Y0245399D01*
X0176127Y0245386D01*
X0176073Y0245377D01*
X0176018Y0245371D01*
X0175963Y0245369D01*
X0175155Y0245369D01*
X0175761Y0245368D02*
X0175823Y0245366D01*
X0175885Y0245360D01*
X0175947Y0245351D01*
X0176007Y0245337D01*
X0176067Y0245320D01*
X0176126Y0245300D01*
X0176183Y0245276D01*
X0176239Y0245248D01*
X0176293Y0245217D01*
X0176345Y0245182D01*
X0176394Y0245145D01*
X0176441Y0245104D01*
X0176486Y0245061D01*
X0176528Y0245015D01*
X0176567Y0244967D01*
X0176603Y0244916D01*
X0176636Y0244863D01*
X0176665Y0244808D01*
X0176691Y0244752D01*
X0176714Y0244694D01*
X0176732Y0244634D01*
X0176748Y0244574D01*
X0176759Y0244513D01*
X0176767Y0244451D01*
X0176771Y0244389D01*
X0176771Y0244327D01*
X0176767Y0244265D01*
X0176759Y0244203D01*
X0176748Y0244142D01*
X0176732Y0244082D01*
X0176714Y0244022D01*
X0176691Y0243964D01*
X0176665Y0243908D01*
X0176636Y0243853D01*
X0176603Y0243800D01*
X0176567Y0243749D01*
X0176528Y0243701D01*
X0176486Y0243655D01*
X0176441Y0243612D01*
X0176394Y0243571D01*
X0176345Y0243534D01*
X0176293Y0243499D01*
X0176239Y0243468D01*
X0176183Y0243440D01*
X0176126Y0243416D01*
X0176067Y0243396D01*
X0176007Y0243379D01*
X0175947Y0243365D01*
X0175885Y0243356D01*
X0175823Y0243350D01*
X0175761Y0243348D01*
X0174751Y0243348D01*
X0173110Y0244358D02*
X0173110Y0246985D01*
X0171089Y0246985D02*
X0171089Y0244358D01*
X0171090Y0244358D02*
X0171092Y0244296D01*
X0171098Y0244234D01*
X0171107Y0244172D01*
X0171121Y0244112D01*
X0171138Y0244052D01*
X0171158Y0243993D01*
X0171182Y0243936D01*
X0171210Y0243880D01*
X0171241Y0243826D01*
X0171276Y0243774D01*
X0171313Y0243725D01*
X0171354Y0243678D01*
X0171397Y0243633D01*
X0171443Y0243591D01*
X0171491Y0243552D01*
X0171542Y0243516D01*
X0171595Y0243483D01*
X0171650Y0243454D01*
X0171706Y0243428D01*
X0171764Y0243405D01*
X0171824Y0243387D01*
X0171884Y0243371D01*
X0171945Y0243360D01*
X0172007Y0243352D01*
X0172069Y0243348D01*
X0172131Y0243348D01*
X0172193Y0243352D01*
X0172255Y0243360D01*
X0172316Y0243371D01*
X0172376Y0243387D01*
X0172436Y0243405D01*
X0172494Y0243428D01*
X0172550Y0243454D01*
X0172605Y0243483D01*
X0172658Y0243516D01*
X0172709Y0243552D01*
X0172757Y0243591D01*
X0172803Y0243633D01*
X0172846Y0243678D01*
X0172887Y0243725D01*
X0172924Y0243774D01*
X0172959Y0243826D01*
X0172990Y0243880D01*
X0173018Y0243936D01*
X0173042Y0243993D01*
X0173062Y0244052D01*
X0173079Y0244112D01*
X0173093Y0244172D01*
X0173102Y0244234D01*
X0173108Y0244296D01*
X0173110Y0244358D01*
D18*
X0185661Y0258474D02*
X0185661Y0284930D01*
X0082669Y0284930D01*
X0082669Y0258474D01*
X0051055Y0258474D01*
X0051055Y0035482D01*
X0082669Y0035482D01*
X0082669Y0006978D01*
X0185661Y0006978D02*
X0185661Y0035482D01*
X0217276Y0035482D01*
X0217276Y0258474D01*
X0185661Y0258474D01*
D19*
X0318615Y0306353D02*
X0322315Y0306353D01*
X0037715Y0299103D02*
X0034015Y0299103D01*
D20*
X0024514Y0301326D02*
X0024514Y0304228D01*
X0022965Y0303254D02*
X0022965Y0302231D01*
X0022963Y0302169D01*
X0022958Y0302108D01*
X0022948Y0302047D01*
X0022935Y0301986D01*
X0022919Y0301927D01*
X0022899Y0301869D01*
X0022875Y0301812D01*
X0022848Y0301756D01*
X0022818Y0301702D01*
X0022784Y0301650D01*
X0022748Y0301601D01*
X0022708Y0301553D01*
X0022666Y0301508D01*
X0022621Y0301466D01*
X0022573Y0301426D01*
X0022524Y0301390D01*
X0022472Y0301356D01*
X0022418Y0301326D01*
X0022362Y0301299D01*
X0022305Y0301275D01*
X0022247Y0301255D01*
X0022188Y0301239D01*
X0022127Y0301226D01*
X0022066Y0301216D01*
X0022005Y0301211D01*
X0021943Y0301209D01*
X0019388Y0301209D01*
X0019317Y0301228D02*
X0019317Y0304228D01*
X0018365Y0303254D02*
X0018365Y0302231D01*
X0018366Y0302231D02*
X0018368Y0302169D01*
X0018373Y0302108D01*
X0018383Y0302047D01*
X0018396Y0301986D01*
X0018412Y0301927D01*
X0018432Y0301869D01*
X0018456Y0301812D01*
X0018483Y0301756D01*
X0018513Y0301702D01*
X0018547Y0301650D01*
X0018584Y0301601D01*
X0018623Y0301553D01*
X0018665Y0301508D01*
X0018710Y0301466D01*
X0018758Y0301426D01*
X0018807Y0301390D01*
X0018859Y0301356D01*
X0018913Y0301326D01*
X0018969Y0301299D01*
X0019026Y0301275D01*
X0019084Y0301255D01*
X0019143Y0301239D01*
X0019204Y0301226D01*
X0019265Y0301216D01*
X0019326Y0301211D01*
X0019388Y0301209D01*
X0016715Y0299972D02*
X0016715Y0298950D01*
X0016713Y0298888D01*
X0016708Y0298827D01*
X0016698Y0298766D01*
X0016685Y0298705D01*
X0016669Y0298646D01*
X0016649Y0298588D01*
X0016625Y0298531D01*
X0016598Y0298475D01*
X0016568Y0298421D01*
X0016534Y0298369D01*
X0016498Y0298320D01*
X0016458Y0298272D01*
X0016416Y0298227D01*
X0016371Y0298185D01*
X0016323Y0298145D01*
X0016274Y0298109D01*
X0016222Y0298075D01*
X0016168Y0298045D01*
X0016112Y0298018D01*
X0016055Y0297994D01*
X0015997Y0297974D01*
X0015938Y0297958D01*
X0015877Y0297945D01*
X0015816Y0297935D01*
X0015755Y0297930D01*
X0015693Y0297928D01*
X0013138Y0297928D01*
X0013076Y0297930D01*
X0013015Y0297935D01*
X0012954Y0297945D01*
X0012893Y0297958D01*
X0012834Y0297974D01*
X0012776Y0297994D01*
X0012719Y0298018D01*
X0012663Y0298045D01*
X0012609Y0298075D01*
X0012557Y0298109D01*
X0012508Y0298145D01*
X0012460Y0298185D01*
X0012415Y0298227D01*
X0012373Y0298272D01*
X0012334Y0298320D01*
X0012297Y0298369D01*
X0012263Y0298421D01*
X0012233Y0298475D01*
X0012206Y0298531D01*
X0012182Y0298588D01*
X0012162Y0298646D01*
X0012146Y0298705D01*
X0012133Y0298766D01*
X0012123Y0298827D01*
X0012118Y0298888D01*
X0012116Y0298950D01*
X0012115Y0298950D02*
X0012115Y0299972D01*
X0010567Y0301228D02*
X0010567Y0304129D01*
X0012116Y0303735D02*
X0012118Y0303646D01*
X0012124Y0303557D01*
X0012133Y0303468D01*
X0012147Y0303380D01*
X0012164Y0303293D01*
X0012186Y0303206D01*
X0012211Y0303120D01*
X0012239Y0303036D01*
X0012272Y0302953D01*
X0012308Y0302871D01*
X0012347Y0302791D01*
X0012390Y0302713D01*
X0012436Y0302637D01*
X0012486Y0302563D01*
X0012538Y0302491D01*
X0012594Y0302421D01*
X0012653Y0302354D01*
X0012715Y0302290D01*
X0012779Y0302228D01*
X0012846Y0302169D01*
X0012916Y0302113D01*
X0012988Y0302061D01*
X0013062Y0302011D01*
X0013138Y0301965D01*
X0013216Y0301922D01*
X0013296Y0301883D01*
X0013378Y0301847D01*
X0013461Y0301814D01*
X0013545Y0301786D01*
X0013631Y0301761D01*
X0013718Y0301739D01*
X0013805Y0301722D01*
X0013893Y0301708D01*
X0013982Y0301699D01*
X0014071Y0301693D01*
X0014160Y0301691D01*
X0015438Y0301691D01*
X0015764Y0301228D02*
X0015764Y0304228D01*
X0015438Y0304246D02*
X0015182Y0304246D01*
X0015120Y0304244D01*
X0015059Y0304239D01*
X0014998Y0304229D01*
X0014937Y0304216D01*
X0014878Y0304200D01*
X0014820Y0304180D01*
X0014763Y0304156D01*
X0014707Y0304129D01*
X0014653Y0304099D01*
X0014601Y0304065D01*
X0014552Y0304029D01*
X0014504Y0303989D01*
X0014459Y0303947D01*
X0014417Y0303902D01*
X0014377Y0303854D01*
X0014341Y0303805D01*
X0014307Y0303753D01*
X0014277Y0303699D01*
X0014250Y0303643D01*
X0014226Y0303586D01*
X0014206Y0303528D01*
X0014190Y0303469D01*
X0014177Y0303408D01*
X0014167Y0303347D01*
X0014162Y0303286D01*
X0014160Y0303224D01*
X0014160Y0301691D01*
X0015438Y0301691D02*
X0015508Y0301693D01*
X0015579Y0301699D01*
X0015648Y0301708D01*
X0015717Y0301722D01*
X0015786Y0301739D01*
X0015853Y0301760D01*
X0015919Y0301785D01*
X0015983Y0301813D01*
X0016046Y0301845D01*
X0016107Y0301880D01*
X0016166Y0301919D01*
X0016223Y0301960D01*
X0016277Y0302005D01*
X0016329Y0302053D01*
X0016378Y0302103D01*
X0016425Y0302157D01*
X0016468Y0302212D01*
X0016508Y0302270D01*
X0016545Y0302330D01*
X0016578Y0302392D01*
X0016608Y0302456D01*
X0016635Y0302521D01*
X0016658Y0302587D01*
X0016677Y0302655D01*
X0016692Y0302724D01*
X0016704Y0302793D01*
X0016712Y0302863D01*
X0016716Y0302934D01*
X0016716Y0303004D01*
X0016712Y0303075D01*
X0016704Y0303145D01*
X0016692Y0303214D01*
X0016677Y0303283D01*
X0016658Y0303351D01*
X0016635Y0303417D01*
X0016608Y0303482D01*
X0016578Y0303546D01*
X0016545Y0303608D01*
X0016508Y0303668D01*
X0016468Y0303726D01*
X0016425Y0303781D01*
X0016378Y0303835D01*
X0016329Y0303885D01*
X0016277Y0303933D01*
X0016223Y0303978D01*
X0016166Y0304019D01*
X0016107Y0304058D01*
X0016046Y0304093D01*
X0015983Y0304125D01*
X0015919Y0304153D01*
X0015853Y0304178D01*
X0015786Y0304199D01*
X0015717Y0304216D01*
X0015648Y0304230D01*
X0015579Y0304239D01*
X0015508Y0304245D01*
X0015438Y0304247D01*
X0018365Y0305994D02*
X0021943Y0304972D01*
X0021943Y0307528D01*
X0020921Y0306761D02*
X0022965Y0306761D01*
X0039317Y0314978D02*
X0039317Y0317879D01*
X0044514Y0317978D02*
X0044514Y0314978D01*
X0047115Y0315981D02*
X0047115Y0317004D01*
X0047116Y0315981D02*
X0047118Y0315919D01*
X0047123Y0315858D01*
X0047133Y0315797D01*
X0047146Y0315736D01*
X0047162Y0315677D01*
X0047182Y0315619D01*
X0047206Y0315562D01*
X0047233Y0315506D01*
X0047263Y0315452D01*
X0047297Y0315400D01*
X0047334Y0315351D01*
X0047373Y0315303D01*
X0047415Y0315258D01*
X0047460Y0315216D01*
X0047508Y0315176D01*
X0047557Y0315140D01*
X0047609Y0315106D01*
X0047663Y0315076D01*
X0047719Y0315049D01*
X0047776Y0315025D01*
X0047834Y0315005D01*
X0047893Y0314989D01*
X0047954Y0314976D01*
X0048015Y0314966D01*
X0048076Y0314961D01*
X0048138Y0314959D01*
X0050693Y0314959D01*
X0050755Y0314961D01*
X0050816Y0314966D01*
X0050877Y0314976D01*
X0050938Y0314989D01*
X0050997Y0315005D01*
X0051055Y0315025D01*
X0051112Y0315049D01*
X0051168Y0315076D01*
X0051222Y0315106D01*
X0051274Y0315140D01*
X0051323Y0315176D01*
X0051371Y0315216D01*
X0051416Y0315258D01*
X0051458Y0315303D01*
X0051498Y0315351D01*
X0051534Y0315400D01*
X0051568Y0315452D01*
X0051598Y0315506D01*
X0051625Y0315562D01*
X0051649Y0315619D01*
X0051669Y0315677D01*
X0051685Y0315736D01*
X0051698Y0315797D01*
X0051708Y0315858D01*
X0051713Y0315919D01*
X0051715Y0315981D01*
X0051715Y0317004D01*
X0051715Y0318722D02*
X0049160Y0320894D01*
X0047116Y0320128D02*
X0047118Y0320054D01*
X0047123Y0319980D01*
X0047133Y0319906D01*
X0047146Y0319833D01*
X0047162Y0319760D01*
X0047183Y0319689D01*
X0047207Y0319619D01*
X0047234Y0319550D01*
X0047265Y0319482D01*
X0047299Y0319416D01*
X0047336Y0319352D01*
X0047377Y0319290D01*
X0047421Y0319229D01*
X0047467Y0319172D01*
X0047517Y0319116D01*
X0047569Y0319063D01*
X0047624Y0319013D01*
X0047681Y0318966D01*
X0047741Y0318922D01*
X0047803Y0318880D01*
X0047866Y0318842D01*
X0047932Y0318807D01*
X0047999Y0318776D01*
X0048068Y0318748D01*
X0048138Y0318723D01*
X0049159Y0320895D02*
X0049112Y0320942D01*
X0049062Y0320986D01*
X0049010Y0321028D01*
X0048956Y0321067D01*
X0048900Y0321102D01*
X0048842Y0321135D01*
X0048782Y0321165D01*
X0048721Y0321191D01*
X0048658Y0321214D01*
X0048594Y0321233D01*
X0048530Y0321249D01*
X0048464Y0321262D01*
X0048398Y0321271D01*
X0048332Y0321276D01*
X0048265Y0321278D01*
X0048198Y0321276D01*
X0048131Y0321270D01*
X0048065Y0321261D01*
X0048000Y0321247D01*
X0047935Y0321230D01*
X0047872Y0321209D01*
X0047810Y0321184D01*
X0047749Y0321156D01*
X0047690Y0321124D01*
X0047633Y0321089D01*
X0047578Y0321050D01*
X0047526Y0321009D01*
X0047476Y0320964D01*
X0047429Y0320917D01*
X0047384Y0320867D01*
X0047343Y0320815D01*
X0047304Y0320760D01*
X0047269Y0320703D01*
X0047237Y0320644D01*
X0047209Y0320583D01*
X0047184Y0320521D01*
X0047163Y0320458D01*
X0047146Y0320393D01*
X0047132Y0320328D01*
X0047123Y0320262D01*
X0047117Y0320195D01*
X0047115Y0320128D01*
X0051715Y0321278D02*
X0051715Y0318722D01*
X0236365Y0248171D02*
X0239943Y0247149D01*
X0239943Y0249704D01*
X0238921Y0248938D02*
X0240965Y0248938D01*
X0240965Y0245233D02*
X0238921Y0244211D01*
X0238921Y0243955D02*
X0238921Y0242678D01*
X0238921Y0243955D02*
X0238919Y0244025D01*
X0238913Y0244096D01*
X0238904Y0244165D01*
X0238890Y0244234D01*
X0238873Y0244303D01*
X0238852Y0244370D01*
X0238827Y0244436D01*
X0238799Y0244500D01*
X0238767Y0244563D01*
X0238732Y0244624D01*
X0238693Y0244683D01*
X0238652Y0244740D01*
X0238607Y0244794D01*
X0238559Y0244846D01*
X0238509Y0244895D01*
X0238455Y0244942D01*
X0238400Y0244985D01*
X0238342Y0245025D01*
X0238282Y0245062D01*
X0238220Y0245095D01*
X0238156Y0245125D01*
X0238091Y0245152D01*
X0238025Y0245175D01*
X0237957Y0245194D01*
X0237888Y0245209D01*
X0237819Y0245221D01*
X0237749Y0245229D01*
X0237678Y0245233D01*
X0237608Y0245233D01*
X0237537Y0245229D01*
X0237467Y0245221D01*
X0237398Y0245209D01*
X0237329Y0245194D01*
X0237261Y0245175D01*
X0237195Y0245152D01*
X0237130Y0245125D01*
X0237066Y0245095D01*
X0237004Y0245062D01*
X0236944Y0245025D01*
X0236886Y0244985D01*
X0236831Y0244942D01*
X0236777Y0244895D01*
X0236727Y0244846D01*
X0236679Y0244794D01*
X0236634Y0244740D01*
X0236593Y0244683D01*
X0236554Y0244624D01*
X0236519Y0244563D01*
X0236487Y0244500D01*
X0236459Y0244436D01*
X0236434Y0244370D01*
X0236413Y0244303D01*
X0236396Y0244234D01*
X0236382Y0244165D01*
X0236373Y0244096D01*
X0236367Y0244025D01*
X0236365Y0243955D01*
X0236365Y0242678D01*
X0240965Y0242678D01*
X0252567Y0243478D02*
X0252567Y0246379D01*
X0255365Y0248678D02*
X0255365Y0249955D01*
X0255365Y0248678D02*
X0259965Y0248678D01*
X0260365Y0249778D02*
X0264965Y0248500D01*
X0265388Y0247778D02*
X0266410Y0247778D01*
X0265388Y0247777D02*
X0265326Y0247775D01*
X0265265Y0247770D01*
X0265204Y0247760D01*
X0265143Y0247747D01*
X0265084Y0247731D01*
X0265026Y0247711D01*
X0264969Y0247687D01*
X0264913Y0247660D01*
X0264859Y0247630D01*
X0264807Y0247596D01*
X0264758Y0247559D01*
X0264710Y0247520D01*
X0264665Y0247478D01*
X0264623Y0247433D01*
X0264583Y0247385D01*
X0264547Y0247336D01*
X0264513Y0247284D01*
X0264483Y0247230D01*
X0264456Y0247174D01*
X0264432Y0247117D01*
X0264412Y0247059D01*
X0264396Y0247000D01*
X0264383Y0246939D01*
X0264373Y0246878D01*
X0264368Y0246817D01*
X0264366Y0246755D01*
X0264365Y0246755D02*
X0264365Y0244200D01*
X0264965Y0244481D02*
X0264963Y0244419D01*
X0264958Y0244358D01*
X0264948Y0244297D01*
X0264935Y0244236D01*
X0264919Y0244177D01*
X0264899Y0244119D01*
X0264875Y0244062D01*
X0264848Y0244006D01*
X0264818Y0243952D01*
X0264784Y0243900D01*
X0264748Y0243851D01*
X0264708Y0243803D01*
X0264666Y0243758D01*
X0264621Y0243716D01*
X0264573Y0243676D01*
X0264524Y0243640D01*
X0264472Y0243606D01*
X0264418Y0243576D01*
X0264362Y0243549D01*
X0264305Y0243525D01*
X0264247Y0243505D01*
X0264188Y0243489D01*
X0264127Y0243476D01*
X0264066Y0243466D01*
X0264005Y0243461D01*
X0263943Y0243459D01*
X0261388Y0243459D01*
X0261326Y0243461D01*
X0261265Y0243466D01*
X0261204Y0243476D01*
X0261143Y0243489D01*
X0261084Y0243505D01*
X0261026Y0243525D01*
X0260969Y0243549D01*
X0260913Y0243576D01*
X0260859Y0243606D01*
X0260807Y0243640D01*
X0260758Y0243676D01*
X0260710Y0243716D01*
X0260665Y0243758D01*
X0260623Y0243803D01*
X0260584Y0243851D01*
X0260547Y0243900D01*
X0260513Y0243952D01*
X0260483Y0244006D01*
X0260456Y0244062D01*
X0260432Y0244119D01*
X0260412Y0244177D01*
X0260396Y0244236D01*
X0260383Y0244297D01*
X0260373Y0244358D01*
X0260368Y0244419D01*
X0260366Y0244481D01*
X0260365Y0244481D02*
X0260365Y0245504D01*
X0260365Y0247222D02*
X0260365Y0249778D01*
X0259965Y0251233D02*
X0257921Y0250211D01*
X0257921Y0249955D02*
X0257921Y0248678D01*
X0257921Y0249955D02*
X0257919Y0250025D01*
X0257913Y0250096D01*
X0257904Y0250165D01*
X0257890Y0250234D01*
X0257873Y0250303D01*
X0257852Y0250370D01*
X0257827Y0250436D01*
X0257799Y0250500D01*
X0257767Y0250563D01*
X0257732Y0250624D01*
X0257693Y0250683D01*
X0257652Y0250740D01*
X0257607Y0250794D01*
X0257559Y0250846D01*
X0257509Y0250895D01*
X0257455Y0250942D01*
X0257400Y0250985D01*
X0257342Y0251025D01*
X0257282Y0251062D01*
X0257220Y0251095D01*
X0257156Y0251125D01*
X0257091Y0251152D01*
X0257025Y0251175D01*
X0256957Y0251194D01*
X0256888Y0251209D01*
X0256819Y0251221D01*
X0256749Y0251229D01*
X0256678Y0251233D01*
X0256608Y0251233D01*
X0256537Y0251229D01*
X0256467Y0251221D01*
X0256398Y0251209D01*
X0256329Y0251194D01*
X0256261Y0251175D01*
X0256195Y0251152D01*
X0256130Y0251125D01*
X0256066Y0251095D01*
X0256004Y0251062D01*
X0255944Y0251025D01*
X0255886Y0250985D01*
X0255831Y0250942D01*
X0255777Y0250895D01*
X0255727Y0250846D01*
X0255679Y0250794D01*
X0255634Y0250740D01*
X0255593Y0250683D01*
X0255554Y0250624D01*
X0255519Y0250563D01*
X0255487Y0250500D01*
X0255459Y0250436D01*
X0255434Y0250370D01*
X0255413Y0250303D01*
X0255396Y0250234D01*
X0255382Y0250165D01*
X0255373Y0250096D01*
X0255367Y0250025D01*
X0255365Y0249955D01*
X0255365Y0253149D02*
X0255365Y0254682D01*
X0255366Y0254682D02*
X0255368Y0254745D01*
X0255374Y0254808D01*
X0255383Y0254870D01*
X0255397Y0254931D01*
X0255414Y0254992D01*
X0255435Y0255051D01*
X0255460Y0255109D01*
X0255488Y0255166D01*
X0255519Y0255220D01*
X0255554Y0255272D01*
X0255592Y0255323D01*
X0255633Y0255371D01*
X0255677Y0255416D01*
X0255723Y0255458D01*
X0255772Y0255498D01*
X0255823Y0255534D01*
X0255877Y0255567D01*
X0255932Y0255597D01*
X0255990Y0255623D01*
X0256048Y0255646D01*
X0256108Y0255665D01*
X0256169Y0255680D01*
X0256231Y0255692D01*
X0256294Y0255700D01*
X0256357Y0255704D01*
X0256419Y0255704D01*
X0256482Y0255700D01*
X0256545Y0255692D01*
X0256607Y0255680D01*
X0256668Y0255665D01*
X0256728Y0255646D01*
X0256786Y0255623D01*
X0256844Y0255597D01*
X0256899Y0255567D01*
X0256953Y0255534D01*
X0257004Y0255498D01*
X0257053Y0255458D01*
X0257099Y0255416D01*
X0257143Y0255371D01*
X0257184Y0255323D01*
X0257222Y0255272D01*
X0257257Y0255220D01*
X0257288Y0255166D01*
X0257316Y0255109D01*
X0257341Y0255051D01*
X0257362Y0254992D01*
X0257379Y0254931D01*
X0257393Y0254870D01*
X0257402Y0254808D01*
X0257408Y0254745D01*
X0257410Y0254682D01*
X0257410Y0253660D01*
X0257410Y0254426D02*
X0257412Y0254496D01*
X0257418Y0254567D01*
X0257427Y0254636D01*
X0257441Y0254705D01*
X0257458Y0254774D01*
X0257479Y0254841D01*
X0257504Y0254907D01*
X0257532Y0254971D01*
X0257564Y0255034D01*
X0257599Y0255095D01*
X0257638Y0255154D01*
X0257679Y0255211D01*
X0257724Y0255265D01*
X0257772Y0255317D01*
X0257822Y0255366D01*
X0257876Y0255413D01*
X0257931Y0255456D01*
X0257989Y0255496D01*
X0258049Y0255533D01*
X0258111Y0255566D01*
X0258175Y0255596D01*
X0258240Y0255623D01*
X0258306Y0255646D01*
X0258374Y0255665D01*
X0258443Y0255680D01*
X0258512Y0255692D01*
X0258582Y0255700D01*
X0258653Y0255704D01*
X0258723Y0255704D01*
X0258794Y0255700D01*
X0258864Y0255692D01*
X0258933Y0255680D01*
X0259002Y0255665D01*
X0259070Y0255646D01*
X0259136Y0255623D01*
X0259201Y0255596D01*
X0259265Y0255566D01*
X0259327Y0255533D01*
X0259387Y0255496D01*
X0259445Y0255456D01*
X0259500Y0255413D01*
X0259554Y0255366D01*
X0259604Y0255317D01*
X0259652Y0255265D01*
X0259697Y0255211D01*
X0259738Y0255154D01*
X0259777Y0255095D01*
X0259812Y0255034D01*
X0259844Y0254971D01*
X0259872Y0254907D01*
X0259897Y0254841D01*
X0259918Y0254774D01*
X0259935Y0254705D01*
X0259949Y0254636D01*
X0259958Y0254567D01*
X0259964Y0254496D01*
X0259966Y0254426D01*
X0259965Y0254426D02*
X0259965Y0253149D01*
X0260365Y0247222D02*
X0260876Y0247222D01*
X0257764Y0246478D02*
X0257764Y0243478D01*
X0264965Y0244481D02*
X0264965Y0245504D01*
X0264366Y0244200D02*
X0264368Y0244138D01*
X0264373Y0244077D01*
X0264383Y0244016D01*
X0264396Y0243955D01*
X0264412Y0243896D01*
X0264432Y0243838D01*
X0264456Y0243781D01*
X0264483Y0243725D01*
X0264513Y0243671D01*
X0264547Y0243619D01*
X0264583Y0243570D01*
X0264623Y0243522D01*
X0264665Y0243477D01*
X0264710Y0243435D01*
X0264758Y0243395D01*
X0264807Y0243359D01*
X0264859Y0243325D01*
X0264913Y0243295D01*
X0264969Y0243268D01*
X0265026Y0243244D01*
X0265084Y0243224D01*
X0265143Y0243208D01*
X0265204Y0243195D01*
X0265265Y0243185D01*
X0265326Y0243180D01*
X0265388Y0243178D01*
X0266410Y0243178D01*
X0268128Y0243178D02*
X0270684Y0243178D01*
X0269406Y0243178D02*
X0269406Y0247778D01*
X0268128Y0246755D01*
X0275184Y0245478D02*
X0275182Y0245363D01*
X0275177Y0245249D01*
X0275168Y0245135D01*
X0275156Y0245021D01*
X0275141Y0244907D01*
X0275122Y0244794D01*
X0275099Y0244682D01*
X0275074Y0244570D01*
X0275044Y0244459D01*
X0275012Y0244349D01*
X0274976Y0244240D01*
X0274937Y0244132D01*
X0274895Y0244026D01*
X0274849Y0243921D01*
X0274801Y0243817D01*
X0274801Y0243816D02*
X0274780Y0243761D01*
X0274756Y0243708D01*
X0274729Y0243656D01*
X0274698Y0243606D01*
X0274665Y0243558D01*
X0274628Y0243512D01*
X0274589Y0243468D01*
X0274547Y0243427D01*
X0274503Y0243389D01*
X0274456Y0243353D01*
X0274407Y0243321D01*
X0274356Y0243291D01*
X0274304Y0243265D01*
X0274250Y0243242D01*
X0274195Y0243222D01*
X0274138Y0243206D01*
X0274081Y0243193D01*
X0274023Y0243184D01*
X0273965Y0243179D01*
X0273906Y0243177D01*
X0273847Y0243179D01*
X0273789Y0243184D01*
X0273731Y0243193D01*
X0273674Y0243206D01*
X0273617Y0243222D01*
X0273562Y0243242D01*
X0273508Y0243265D01*
X0273456Y0243291D01*
X0273405Y0243321D01*
X0273356Y0243353D01*
X0273309Y0243389D01*
X0273265Y0243427D01*
X0273223Y0243468D01*
X0273184Y0243512D01*
X0273147Y0243558D01*
X0273114Y0243606D01*
X0273083Y0243656D01*
X0273056Y0243708D01*
X0273032Y0243761D01*
X0273011Y0243816D01*
X0272884Y0244200D02*
X0274928Y0246755D01*
X0274801Y0247139D02*
X0274780Y0247194D01*
X0274756Y0247247D01*
X0274729Y0247299D01*
X0274698Y0247349D01*
X0274665Y0247397D01*
X0274628Y0247443D01*
X0274589Y0247487D01*
X0274547Y0247528D01*
X0274503Y0247566D01*
X0274456Y0247602D01*
X0274407Y0247634D01*
X0274356Y0247664D01*
X0274304Y0247690D01*
X0274250Y0247713D01*
X0274195Y0247733D01*
X0274138Y0247749D01*
X0274081Y0247762D01*
X0274023Y0247771D01*
X0273965Y0247776D01*
X0273906Y0247778D01*
X0273847Y0247776D01*
X0273789Y0247771D01*
X0273731Y0247762D01*
X0273674Y0247749D01*
X0273617Y0247733D01*
X0273562Y0247713D01*
X0273508Y0247690D01*
X0273456Y0247664D01*
X0273405Y0247634D01*
X0273356Y0247602D01*
X0273309Y0247566D01*
X0273265Y0247528D01*
X0273223Y0247487D01*
X0273184Y0247443D01*
X0273147Y0247397D01*
X0273114Y0247349D01*
X0273083Y0247299D01*
X0273056Y0247247D01*
X0273032Y0247194D01*
X0273011Y0247139D01*
X0274801Y0247139D02*
X0274849Y0247035D01*
X0274895Y0246930D01*
X0274937Y0246824D01*
X0274976Y0246716D01*
X0275012Y0246607D01*
X0275044Y0246497D01*
X0275074Y0246386D01*
X0275099Y0246274D01*
X0275122Y0246162D01*
X0275141Y0246049D01*
X0275156Y0245935D01*
X0275168Y0245821D01*
X0275177Y0245707D01*
X0275182Y0245593D01*
X0275184Y0245478D01*
X0272628Y0245478D02*
X0272630Y0245593D01*
X0272635Y0245707D01*
X0272644Y0245821D01*
X0272656Y0245935D01*
X0272671Y0246049D01*
X0272690Y0246162D01*
X0272713Y0246274D01*
X0272738Y0246386D01*
X0272768Y0246497D01*
X0272800Y0246607D01*
X0272836Y0246716D01*
X0272875Y0246824D01*
X0272917Y0246930D01*
X0272963Y0247035D01*
X0273011Y0247139D01*
X0272628Y0245478D02*
X0272630Y0245363D01*
X0272635Y0245249D01*
X0272644Y0245135D01*
X0272656Y0245021D01*
X0272671Y0244907D01*
X0272690Y0244794D01*
X0272713Y0244682D01*
X0272738Y0244570D01*
X0272768Y0244459D01*
X0272800Y0244349D01*
X0272836Y0244240D01*
X0272875Y0244132D01*
X0272917Y0244026D01*
X0272963Y0243921D01*
X0273011Y0243817D01*
X0270665Y0240576D02*
X0267665Y0240576D01*
X0267764Y0235379D02*
X0270665Y0235379D01*
X0275866Y0270879D02*
X0283465Y0270879D01*
X0283465Y0277076D02*
X0275866Y0277076D01*
X0275866Y0279379D02*
X0283465Y0279379D01*
X0283465Y0285576D02*
X0275866Y0285576D01*
X0311817Y0314978D02*
X0311817Y0317879D01*
X0317014Y0317978D02*
X0317014Y0314978D01*
X0319615Y0315981D02*
X0319615Y0317004D01*
X0319616Y0315981D02*
X0319618Y0315919D01*
X0319623Y0315858D01*
X0319633Y0315797D01*
X0319646Y0315736D01*
X0319662Y0315677D01*
X0319682Y0315619D01*
X0319706Y0315562D01*
X0319733Y0315506D01*
X0319763Y0315452D01*
X0319797Y0315400D01*
X0319834Y0315351D01*
X0319873Y0315303D01*
X0319915Y0315258D01*
X0319960Y0315216D01*
X0320008Y0315176D01*
X0320057Y0315140D01*
X0320109Y0315106D01*
X0320163Y0315076D01*
X0320219Y0315049D01*
X0320276Y0315025D01*
X0320334Y0315005D01*
X0320393Y0314989D01*
X0320454Y0314976D01*
X0320515Y0314966D01*
X0320576Y0314961D01*
X0320638Y0314959D01*
X0323193Y0314959D01*
X0323255Y0314961D01*
X0323316Y0314966D01*
X0323377Y0314976D01*
X0323438Y0314989D01*
X0323497Y0315005D01*
X0323555Y0315025D01*
X0323612Y0315049D01*
X0323668Y0315076D01*
X0323722Y0315106D01*
X0323774Y0315140D01*
X0323823Y0315176D01*
X0323871Y0315216D01*
X0323916Y0315258D01*
X0323958Y0315303D01*
X0323998Y0315351D01*
X0324034Y0315400D01*
X0324068Y0315452D01*
X0324098Y0315506D01*
X0324125Y0315562D01*
X0324149Y0315619D01*
X0324169Y0315677D01*
X0324185Y0315736D01*
X0324198Y0315797D01*
X0324208Y0315858D01*
X0324213Y0315919D01*
X0324215Y0315981D01*
X0324215Y0317004D01*
X0324215Y0318722D02*
X0324215Y0321278D01*
X0324215Y0320000D02*
X0319615Y0320000D01*
X0320638Y0318722D01*
X0330567Y0304129D02*
X0330567Y0301228D01*
X0332115Y0301691D02*
X0332115Y0303224D01*
X0332116Y0303224D02*
X0332118Y0303287D01*
X0332124Y0303350D01*
X0332133Y0303412D01*
X0332147Y0303473D01*
X0332164Y0303534D01*
X0332185Y0303593D01*
X0332210Y0303651D01*
X0332238Y0303708D01*
X0332269Y0303762D01*
X0332304Y0303814D01*
X0332342Y0303865D01*
X0332383Y0303913D01*
X0332427Y0303958D01*
X0332473Y0304000D01*
X0332522Y0304040D01*
X0332573Y0304076D01*
X0332627Y0304109D01*
X0332682Y0304139D01*
X0332740Y0304165D01*
X0332798Y0304188D01*
X0332858Y0304207D01*
X0332919Y0304222D01*
X0332981Y0304234D01*
X0333044Y0304242D01*
X0333107Y0304246D01*
X0333169Y0304246D01*
X0333232Y0304242D01*
X0333295Y0304234D01*
X0333357Y0304222D01*
X0333418Y0304207D01*
X0333478Y0304188D01*
X0333536Y0304165D01*
X0333594Y0304139D01*
X0333649Y0304109D01*
X0333703Y0304076D01*
X0333754Y0304040D01*
X0333803Y0304000D01*
X0333849Y0303958D01*
X0333893Y0303913D01*
X0333934Y0303865D01*
X0333972Y0303814D01*
X0334007Y0303762D01*
X0334038Y0303708D01*
X0334066Y0303651D01*
X0334091Y0303593D01*
X0334112Y0303534D01*
X0334129Y0303473D01*
X0334143Y0303412D01*
X0334152Y0303350D01*
X0334158Y0303287D01*
X0334160Y0303224D01*
X0334160Y0302202D01*
X0334160Y0302969D02*
X0334162Y0303039D01*
X0334168Y0303110D01*
X0334177Y0303179D01*
X0334191Y0303248D01*
X0334208Y0303317D01*
X0334229Y0303384D01*
X0334254Y0303450D01*
X0334282Y0303514D01*
X0334314Y0303577D01*
X0334349Y0303638D01*
X0334388Y0303697D01*
X0334429Y0303754D01*
X0334474Y0303808D01*
X0334522Y0303860D01*
X0334572Y0303909D01*
X0334626Y0303956D01*
X0334681Y0303999D01*
X0334739Y0304039D01*
X0334799Y0304076D01*
X0334861Y0304109D01*
X0334925Y0304139D01*
X0334990Y0304166D01*
X0335056Y0304189D01*
X0335124Y0304208D01*
X0335193Y0304223D01*
X0335262Y0304235D01*
X0335332Y0304243D01*
X0335403Y0304247D01*
X0335473Y0304247D01*
X0335544Y0304243D01*
X0335614Y0304235D01*
X0335683Y0304223D01*
X0335752Y0304208D01*
X0335820Y0304189D01*
X0335886Y0304166D01*
X0335951Y0304139D01*
X0336015Y0304109D01*
X0336077Y0304076D01*
X0336137Y0304039D01*
X0336195Y0303999D01*
X0336250Y0303956D01*
X0336304Y0303909D01*
X0336354Y0303860D01*
X0336402Y0303808D01*
X0336447Y0303754D01*
X0336488Y0303697D01*
X0336527Y0303638D01*
X0336562Y0303577D01*
X0336594Y0303514D01*
X0336622Y0303450D01*
X0336647Y0303384D01*
X0336668Y0303317D01*
X0336685Y0303248D01*
X0336699Y0303179D01*
X0336708Y0303110D01*
X0336714Y0303039D01*
X0336716Y0302969D01*
X0336715Y0302969D02*
X0336715Y0301691D01*
X0335764Y0301228D02*
X0335764Y0304228D01*
X0338365Y0304972D02*
X0338365Y0307528D01*
X0340410Y0306505D02*
X0340410Y0304972D01*
X0338365Y0304972D01*
X0339317Y0304228D02*
X0339317Y0301228D01*
X0339388Y0301209D02*
X0341943Y0301209D01*
X0342005Y0301211D01*
X0342066Y0301216D01*
X0342127Y0301226D01*
X0342188Y0301239D01*
X0342247Y0301255D01*
X0342305Y0301275D01*
X0342362Y0301299D01*
X0342418Y0301326D01*
X0342472Y0301356D01*
X0342524Y0301390D01*
X0342573Y0301426D01*
X0342621Y0301466D01*
X0342666Y0301508D01*
X0342708Y0301553D01*
X0342748Y0301601D01*
X0342784Y0301650D01*
X0342818Y0301702D01*
X0342848Y0301756D01*
X0342875Y0301812D01*
X0342899Y0301869D01*
X0342919Y0301927D01*
X0342935Y0301986D01*
X0342948Y0302047D01*
X0342958Y0302108D01*
X0342963Y0302169D01*
X0342965Y0302231D01*
X0342965Y0303254D01*
X0342965Y0304972D02*
X0342965Y0306505D01*
X0342963Y0306567D01*
X0342958Y0306628D01*
X0342948Y0306689D01*
X0342935Y0306750D01*
X0342919Y0306809D01*
X0342899Y0306867D01*
X0342875Y0306924D01*
X0342848Y0306980D01*
X0342818Y0307034D01*
X0342784Y0307086D01*
X0342748Y0307135D01*
X0342708Y0307183D01*
X0342666Y0307228D01*
X0342621Y0307270D01*
X0342573Y0307310D01*
X0342524Y0307346D01*
X0342472Y0307380D01*
X0342418Y0307410D01*
X0342362Y0307437D01*
X0342305Y0307461D01*
X0342247Y0307481D01*
X0342188Y0307497D01*
X0342127Y0307510D01*
X0342066Y0307520D01*
X0342005Y0307525D01*
X0341943Y0307527D01*
X0341943Y0307528D02*
X0341432Y0307528D01*
X0341432Y0307527D02*
X0341370Y0307525D01*
X0341309Y0307520D01*
X0341248Y0307510D01*
X0341187Y0307497D01*
X0341128Y0307481D01*
X0341070Y0307461D01*
X0341013Y0307437D01*
X0340957Y0307410D01*
X0340903Y0307380D01*
X0340851Y0307346D01*
X0340802Y0307310D01*
X0340754Y0307270D01*
X0340709Y0307228D01*
X0340667Y0307183D01*
X0340627Y0307135D01*
X0340591Y0307086D01*
X0340557Y0307034D01*
X0340527Y0306980D01*
X0340500Y0306924D01*
X0340476Y0306867D01*
X0340456Y0306809D01*
X0340440Y0306750D01*
X0340427Y0306689D01*
X0340417Y0306628D01*
X0340412Y0306567D01*
X0340410Y0306505D01*
X0338365Y0303254D02*
X0338365Y0302231D01*
X0338366Y0302231D02*
X0338368Y0302169D01*
X0338373Y0302108D01*
X0338383Y0302047D01*
X0338396Y0301986D01*
X0338412Y0301927D01*
X0338432Y0301869D01*
X0338456Y0301812D01*
X0338483Y0301756D01*
X0338513Y0301702D01*
X0338547Y0301650D01*
X0338584Y0301601D01*
X0338623Y0301553D01*
X0338665Y0301508D01*
X0338710Y0301466D01*
X0338758Y0301426D01*
X0338807Y0301390D01*
X0338859Y0301356D01*
X0338913Y0301326D01*
X0338969Y0301299D01*
X0339026Y0301275D01*
X0339084Y0301255D01*
X0339143Y0301239D01*
X0339204Y0301226D01*
X0339265Y0301216D01*
X0339326Y0301211D01*
X0339388Y0301209D01*
X0336715Y0299972D02*
X0336715Y0298950D01*
X0336713Y0298888D01*
X0336708Y0298827D01*
X0336698Y0298766D01*
X0336685Y0298705D01*
X0336669Y0298646D01*
X0336649Y0298588D01*
X0336625Y0298531D01*
X0336598Y0298475D01*
X0336568Y0298421D01*
X0336534Y0298369D01*
X0336498Y0298320D01*
X0336458Y0298272D01*
X0336416Y0298227D01*
X0336371Y0298185D01*
X0336323Y0298145D01*
X0336274Y0298109D01*
X0336222Y0298075D01*
X0336168Y0298045D01*
X0336112Y0298018D01*
X0336055Y0297994D01*
X0335997Y0297974D01*
X0335938Y0297958D01*
X0335877Y0297945D01*
X0335816Y0297935D01*
X0335755Y0297930D01*
X0335693Y0297928D01*
X0333138Y0297928D01*
X0333076Y0297930D01*
X0333015Y0297935D01*
X0332954Y0297945D01*
X0332893Y0297958D01*
X0332834Y0297974D01*
X0332776Y0297994D01*
X0332719Y0298018D01*
X0332663Y0298045D01*
X0332609Y0298075D01*
X0332557Y0298109D01*
X0332508Y0298145D01*
X0332460Y0298185D01*
X0332415Y0298227D01*
X0332373Y0298272D01*
X0332334Y0298320D01*
X0332297Y0298369D01*
X0332263Y0298421D01*
X0332233Y0298475D01*
X0332206Y0298531D01*
X0332182Y0298588D01*
X0332162Y0298646D01*
X0332146Y0298705D01*
X0332133Y0298766D01*
X0332123Y0298827D01*
X0332118Y0298888D01*
X0332116Y0298950D01*
X0332115Y0298950D02*
X0332115Y0299972D01*
X0344514Y0301326D02*
X0344514Y0304228D01*
X0228688Y0052278D02*
X0228432Y0052278D01*
X0228432Y0052277D02*
X0228370Y0052275D01*
X0228309Y0052270D01*
X0228248Y0052260D01*
X0228187Y0052247D01*
X0228128Y0052231D01*
X0228070Y0052211D01*
X0228013Y0052187D01*
X0227957Y0052160D01*
X0227903Y0052130D01*
X0227851Y0052096D01*
X0227802Y0052060D01*
X0227754Y0052020D01*
X0227709Y0051978D01*
X0227667Y0051933D01*
X0227627Y0051885D01*
X0227591Y0051836D01*
X0227557Y0051784D01*
X0227527Y0051730D01*
X0227500Y0051674D01*
X0227476Y0051617D01*
X0227456Y0051559D01*
X0227440Y0051500D01*
X0227427Y0051439D01*
X0227417Y0051378D01*
X0227412Y0051317D01*
X0227410Y0051255D01*
X0227410Y0049722D01*
X0228688Y0049722D01*
X0228758Y0049724D01*
X0228829Y0049730D01*
X0228898Y0049739D01*
X0228967Y0049753D01*
X0229036Y0049770D01*
X0229103Y0049791D01*
X0229169Y0049816D01*
X0229233Y0049844D01*
X0229296Y0049876D01*
X0229357Y0049911D01*
X0229416Y0049950D01*
X0229473Y0049991D01*
X0229527Y0050036D01*
X0229579Y0050084D01*
X0229628Y0050134D01*
X0229675Y0050188D01*
X0229718Y0050243D01*
X0229758Y0050301D01*
X0229795Y0050361D01*
X0229828Y0050423D01*
X0229858Y0050487D01*
X0229885Y0050552D01*
X0229908Y0050618D01*
X0229927Y0050686D01*
X0229942Y0050755D01*
X0229954Y0050824D01*
X0229962Y0050894D01*
X0229966Y0050965D01*
X0229966Y0051035D01*
X0229962Y0051106D01*
X0229954Y0051176D01*
X0229942Y0051245D01*
X0229927Y0051314D01*
X0229908Y0051382D01*
X0229885Y0051448D01*
X0229858Y0051513D01*
X0229828Y0051577D01*
X0229795Y0051639D01*
X0229758Y0051699D01*
X0229718Y0051757D01*
X0229675Y0051812D01*
X0229628Y0051866D01*
X0229579Y0051916D01*
X0229527Y0051964D01*
X0229473Y0052009D01*
X0229416Y0052050D01*
X0229357Y0052089D01*
X0229296Y0052124D01*
X0229233Y0052156D01*
X0229169Y0052184D01*
X0229103Y0052209D01*
X0229036Y0052230D01*
X0228967Y0052247D01*
X0228898Y0052261D01*
X0228829Y0052270D01*
X0228758Y0052276D01*
X0228688Y0052278D01*
X0227410Y0049723D02*
X0227321Y0049725D01*
X0227232Y0049731D01*
X0227143Y0049740D01*
X0227055Y0049754D01*
X0226968Y0049771D01*
X0226881Y0049793D01*
X0226795Y0049818D01*
X0226711Y0049846D01*
X0226628Y0049879D01*
X0226546Y0049915D01*
X0226466Y0049954D01*
X0226388Y0049997D01*
X0226312Y0050043D01*
X0226238Y0050093D01*
X0226166Y0050145D01*
X0226096Y0050201D01*
X0226029Y0050260D01*
X0225965Y0050322D01*
X0225903Y0050386D01*
X0225844Y0050453D01*
X0225788Y0050523D01*
X0225736Y0050595D01*
X0225686Y0050669D01*
X0225640Y0050745D01*
X0225597Y0050823D01*
X0225558Y0050903D01*
X0225522Y0050985D01*
X0225489Y0051068D01*
X0225461Y0051152D01*
X0225436Y0051238D01*
X0225414Y0051325D01*
X0225397Y0051412D01*
X0225383Y0051500D01*
X0225374Y0051589D01*
X0225368Y0051678D01*
X0225366Y0051767D01*
X0225365Y0046529D02*
X0225365Y0045251D01*
X0229965Y0045251D01*
X0227921Y0045251D02*
X0227921Y0046529D01*
X0227921Y0046784D02*
X0229965Y0047807D01*
X0227921Y0046529D02*
X0227919Y0046599D01*
X0227913Y0046670D01*
X0227904Y0046739D01*
X0227890Y0046808D01*
X0227873Y0046877D01*
X0227852Y0046944D01*
X0227827Y0047010D01*
X0227799Y0047074D01*
X0227767Y0047137D01*
X0227732Y0047198D01*
X0227693Y0047257D01*
X0227652Y0047314D01*
X0227607Y0047368D01*
X0227559Y0047420D01*
X0227509Y0047469D01*
X0227455Y0047516D01*
X0227400Y0047559D01*
X0227342Y0047599D01*
X0227282Y0047636D01*
X0227220Y0047669D01*
X0227156Y0047699D01*
X0227091Y0047726D01*
X0227025Y0047749D01*
X0226957Y0047768D01*
X0226888Y0047783D01*
X0226819Y0047795D01*
X0226749Y0047803D01*
X0226678Y0047807D01*
X0226608Y0047807D01*
X0226537Y0047803D01*
X0226467Y0047795D01*
X0226398Y0047783D01*
X0226329Y0047768D01*
X0226261Y0047749D01*
X0226195Y0047726D01*
X0226130Y0047699D01*
X0226066Y0047669D01*
X0226004Y0047636D01*
X0225944Y0047599D01*
X0225886Y0047559D01*
X0225831Y0047516D01*
X0225777Y0047469D01*
X0225727Y0047420D01*
X0225679Y0047368D01*
X0225634Y0047314D01*
X0225593Y0047257D01*
X0225554Y0047198D01*
X0225519Y0047137D01*
X0225487Y0047074D01*
X0225459Y0047010D01*
X0225434Y0046944D01*
X0225413Y0046877D01*
X0225396Y0046808D01*
X0225382Y0046739D01*
X0225373Y0046670D01*
X0225367Y0046599D01*
X0225365Y0046529D01*
X0248365Y0036000D02*
X0249388Y0034722D01*
X0248365Y0036000D02*
X0252965Y0036000D01*
X0252965Y0034722D02*
X0252965Y0037278D01*
X0252965Y0032807D02*
X0250921Y0031784D01*
X0250921Y0031529D02*
X0250921Y0030251D01*
X0250921Y0031529D02*
X0250919Y0031599D01*
X0250913Y0031670D01*
X0250904Y0031739D01*
X0250890Y0031808D01*
X0250873Y0031877D01*
X0250852Y0031944D01*
X0250827Y0032010D01*
X0250799Y0032074D01*
X0250767Y0032137D01*
X0250732Y0032198D01*
X0250693Y0032257D01*
X0250652Y0032314D01*
X0250607Y0032368D01*
X0250559Y0032420D01*
X0250509Y0032469D01*
X0250455Y0032516D01*
X0250400Y0032559D01*
X0250342Y0032599D01*
X0250282Y0032636D01*
X0250220Y0032669D01*
X0250156Y0032699D01*
X0250091Y0032726D01*
X0250025Y0032749D01*
X0249957Y0032768D01*
X0249888Y0032783D01*
X0249819Y0032795D01*
X0249749Y0032803D01*
X0249678Y0032807D01*
X0249608Y0032807D01*
X0249537Y0032803D01*
X0249467Y0032795D01*
X0249398Y0032783D01*
X0249329Y0032768D01*
X0249261Y0032749D01*
X0249195Y0032726D01*
X0249130Y0032699D01*
X0249066Y0032669D01*
X0249004Y0032636D01*
X0248944Y0032599D01*
X0248886Y0032559D01*
X0248831Y0032516D01*
X0248777Y0032469D01*
X0248727Y0032420D01*
X0248679Y0032368D01*
X0248634Y0032314D01*
X0248593Y0032257D01*
X0248554Y0032198D01*
X0248519Y0032137D01*
X0248487Y0032074D01*
X0248459Y0032010D01*
X0248434Y0031944D01*
X0248413Y0031877D01*
X0248396Y0031808D01*
X0248382Y0031739D01*
X0248373Y0031670D01*
X0248367Y0031599D01*
X0248365Y0031529D01*
X0248365Y0030251D01*
X0252965Y0030251D01*
X0252965Y0021278D02*
X0252965Y0018722D01*
X0250410Y0020894D01*
X0248366Y0020128D02*
X0248368Y0020054D01*
X0248373Y0019980D01*
X0248383Y0019906D01*
X0248396Y0019833D01*
X0248412Y0019760D01*
X0248433Y0019689D01*
X0248457Y0019619D01*
X0248484Y0019550D01*
X0248515Y0019482D01*
X0248549Y0019416D01*
X0248586Y0019352D01*
X0248627Y0019290D01*
X0248671Y0019229D01*
X0248717Y0019172D01*
X0248767Y0019116D01*
X0248819Y0019063D01*
X0248874Y0019013D01*
X0248931Y0018966D01*
X0248991Y0018922D01*
X0249053Y0018880D01*
X0249116Y0018842D01*
X0249182Y0018807D01*
X0249249Y0018776D01*
X0249318Y0018748D01*
X0249388Y0018723D01*
X0250409Y0020895D02*
X0250362Y0020942D01*
X0250312Y0020986D01*
X0250260Y0021028D01*
X0250206Y0021067D01*
X0250150Y0021102D01*
X0250092Y0021135D01*
X0250032Y0021165D01*
X0249971Y0021191D01*
X0249908Y0021214D01*
X0249844Y0021233D01*
X0249780Y0021249D01*
X0249714Y0021262D01*
X0249648Y0021271D01*
X0249582Y0021276D01*
X0249515Y0021278D01*
X0249448Y0021276D01*
X0249381Y0021270D01*
X0249315Y0021261D01*
X0249250Y0021247D01*
X0249185Y0021230D01*
X0249122Y0021209D01*
X0249060Y0021184D01*
X0248999Y0021156D01*
X0248940Y0021124D01*
X0248883Y0021089D01*
X0248828Y0021050D01*
X0248776Y0021009D01*
X0248726Y0020964D01*
X0248679Y0020917D01*
X0248634Y0020867D01*
X0248593Y0020815D01*
X0248554Y0020760D01*
X0248519Y0020703D01*
X0248487Y0020644D01*
X0248459Y0020583D01*
X0248434Y0020521D01*
X0248413Y0020458D01*
X0248396Y0020393D01*
X0248382Y0020328D01*
X0248373Y0020262D01*
X0248367Y0020195D01*
X0248365Y0020128D01*
X0248365Y0015529D02*
X0248365Y0014251D01*
X0252965Y0014251D01*
X0250921Y0014251D02*
X0250921Y0015529D01*
X0250921Y0015784D02*
X0252965Y0016807D01*
X0250921Y0015529D02*
X0250919Y0015599D01*
X0250913Y0015670D01*
X0250904Y0015739D01*
X0250890Y0015808D01*
X0250873Y0015877D01*
X0250852Y0015944D01*
X0250827Y0016010D01*
X0250799Y0016074D01*
X0250767Y0016137D01*
X0250732Y0016198D01*
X0250693Y0016257D01*
X0250652Y0016314D01*
X0250607Y0016368D01*
X0250559Y0016420D01*
X0250509Y0016469D01*
X0250455Y0016516D01*
X0250400Y0016559D01*
X0250342Y0016599D01*
X0250282Y0016636D01*
X0250220Y0016669D01*
X0250156Y0016699D01*
X0250091Y0016726D01*
X0250025Y0016749D01*
X0249957Y0016768D01*
X0249888Y0016783D01*
X0249819Y0016795D01*
X0249749Y0016803D01*
X0249678Y0016807D01*
X0249608Y0016807D01*
X0249537Y0016803D01*
X0249467Y0016795D01*
X0249398Y0016783D01*
X0249329Y0016768D01*
X0249261Y0016749D01*
X0249195Y0016726D01*
X0249130Y0016699D01*
X0249066Y0016669D01*
X0249004Y0016636D01*
X0248944Y0016599D01*
X0248886Y0016559D01*
X0248831Y0016516D01*
X0248777Y0016469D01*
X0248727Y0016420D01*
X0248679Y0016368D01*
X0248634Y0016314D01*
X0248593Y0016257D01*
X0248554Y0016198D01*
X0248519Y0016137D01*
X0248487Y0016074D01*
X0248459Y0016010D01*
X0248434Y0015944D01*
X0248413Y0015877D01*
X0248396Y0015808D01*
X0248382Y0015739D01*
X0248373Y0015670D01*
X0248367Y0015599D01*
X0248365Y0015529D01*
X0310632Y0046361D02*
X0312038Y0045594D01*
X0311527Y0043678D02*
X0311437Y0043680D01*
X0311348Y0043685D01*
X0311259Y0043695D01*
X0311170Y0043708D01*
X0311082Y0043724D01*
X0310994Y0043745D01*
X0310908Y0043769D01*
X0310822Y0043796D01*
X0310738Y0043827D01*
X0310655Y0043862D01*
X0310574Y0043900D01*
X0310494Y0043941D01*
X0310417Y0043985D01*
X0310341Y0044033D01*
X0310267Y0044084D01*
X0310195Y0044138D01*
X0310126Y0044195D01*
X0310058Y0044254D01*
X0309994Y0044317D01*
X0312038Y0045594D02*
X0312092Y0045560D01*
X0312143Y0045523D01*
X0312192Y0045483D01*
X0312239Y0045440D01*
X0312282Y0045394D01*
X0312323Y0045346D01*
X0312361Y0045295D01*
X0312396Y0045242D01*
X0312428Y0045187D01*
X0312456Y0045130D01*
X0312480Y0045072D01*
X0312501Y0045012D01*
X0312518Y0044951D01*
X0312532Y0044889D01*
X0312541Y0044826D01*
X0312547Y0044763D01*
X0312549Y0044700D01*
X0312547Y0044638D01*
X0312542Y0044577D01*
X0312532Y0044516D01*
X0312519Y0044455D01*
X0312503Y0044396D01*
X0312483Y0044338D01*
X0312459Y0044281D01*
X0312432Y0044225D01*
X0312402Y0044171D01*
X0312368Y0044119D01*
X0312332Y0044070D01*
X0312292Y0044022D01*
X0312250Y0043977D01*
X0312205Y0043935D01*
X0312157Y0043895D01*
X0312108Y0043859D01*
X0312056Y0043825D01*
X0312002Y0043795D01*
X0311946Y0043768D01*
X0311889Y0043744D01*
X0311831Y0043724D01*
X0311772Y0043708D01*
X0311711Y0043695D01*
X0311650Y0043685D01*
X0311589Y0043680D01*
X0311527Y0043678D01*
X0312293Y0047895D02*
X0312226Y0047943D01*
X0312158Y0047988D01*
X0312087Y0048030D01*
X0312014Y0048068D01*
X0311940Y0048104D01*
X0311865Y0048137D01*
X0311788Y0048166D01*
X0311710Y0048192D01*
X0311631Y0048215D01*
X0311551Y0048234D01*
X0311470Y0048250D01*
X0311389Y0048262D01*
X0311307Y0048271D01*
X0311225Y0048276D01*
X0311143Y0048278D01*
X0311143Y0048277D02*
X0311081Y0048275D01*
X0311020Y0048270D01*
X0310959Y0048260D01*
X0310898Y0048247D01*
X0310839Y0048231D01*
X0310781Y0048211D01*
X0310724Y0048187D01*
X0310668Y0048160D01*
X0310614Y0048130D01*
X0310562Y0048096D01*
X0310513Y0048060D01*
X0310465Y0048020D01*
X0310420Y0047978D01*
X0310378Y0047933D01*
X0310339Y0047885D01*
X0310302Y0047836D01*
X0310268Y0047784D01*
X0310238Y0047730D01*
X0310211Y0047674D01*
X0310187Y0047617D01*
X0310167Y0047559D01*
X0310151Y0047500D01*
X0310138Y0047439D01*
X0310128Y0047378D01*
X0310123Y0047317D01*
X0310121Y0047255D01*
X0310123Y0047192D01*
X0310129Y0047129D01*
X0310138Y0047066D01*
X0310152Y0047004D01*
X0310169Y0046943D01*
X0310190Y0046883D01*
X0310214Y0046825D01*
X0310242Y0046768D01*
X0310274Y0046713D01*
X0310309Y0046660D01*
X0310347Y0046609D01*
X0310388Y0046561D01*
X0310431Y0046515D01*
X0310478Y0046472D01*
X0310527Y0046432D01*
X0310578Y0046395D01*
X0310632Y0046361D01*
X0314560Y0046233D02*
X0315838Y0046233D01*
X0315901Y0046235D01*
X0315964Y0046241D01*
X0316026Y0046250D01*
X0316087Y0046264D01*
X0316148Y0046281D01*
X0316207Y0046302D01*
X0316265Y0046327D01*
X0316322Y0046355D01*
X0316376Y0046386D01*
X0316428Y0046421D01*
X0316479Y0046459D01*
X0316527Y0046500D01*
X0316572Y0046544D01*
X0316614Y0046590D01*
X0316654Y0046639D01*
X0316690Y0046690D01*
X0316723Y0046744D01*
X0316753Y0046799D01*
X0316779Y0046857D01*
X0316802Y0046915D01*
X0316821Y0046975D01*
X0316836Y0047036D01*
X0316848Y0047098D01*
X0316856Y0047161D01*
X0316860Y0047224D01*
X0316860Y0047286D01*
X0316856Y0047349D01*
X0316848Y0047412D01*
X0316836Y0047474D01*
X0316821Y0047535D01*
X0316802Y0047595D01*
X0316779Y0047653D01*
X0316753Y0047711D01*
X0316723Y0047766D01*
X0316690Y0047820D01*
X0316654Y0047871D01*
X0316614Y0047920D01*
X0316572Y0047966D01*
X0316527Y0048010D01*
X0316479Y0048051D01*
X0316428Y0048089D01*
X0316376Y0048124D01*
X0316322Y0048155D01*
X0316265Y0048183D01*
X0316207Y0048208D01*
X0316148Y0048229D01*
X0316087Y0048246D01*
X0316026Y0048260D01*
X0315964Y0048269D01*
X0315901Y0048275D01*
X0315838Y0048277D01*
X0315838Y0048278D02*
X0314560Y0048278D01*
X0314560Y0043678D01*
X0315838Y0043678D01*
X0315838Y0043677D02*
X0315908Y0043679D01*
X0315979Y0043685D01*
X0316048Y0043694D01*
X0316117Y0043708D01*
X0316186Y0043725D01*
X0316253Y0043746D01*
X0316319Y0043771D01*
X0316383Y0043799D01*
X0316446Y0043831D01*
X0316507Y0043866D01*
X0316566Y0043905D01*
X0316623Y0043946D01*
X0316677Y0043991D01*
X0316729Y0044039D01*
X0316778Y0044089D01*
X0316825Y0044143D01*
X0316868Y0044198D01*
X0316908Y0044256D01*
X0316945Y0044316D01*
X0316978Y0044378D01*
X0317008Y0044442D01*
X0317035Y0044507D01*
X0317058Y0044573D01*
X0317077Y0044641D01*
X0317092Y0044710D01*
X0317104Y0044779D01*
X0317112Y0044849D01*
X0317116Y0044920D01*
X0317116Y0044990D01*
X0317112Y0045061D01*
X0317104Y0045131D01*
X0317092Y0045200D01*
X0317077Y0045269D01*
X0317058Y0045337D01*
X0317035Y0045403D01*
X0317008Y0045468D01*
X0316978Y0045532D01*
X0316945Y0045594D01*
X0316908Y0045654D01*
X0316868Y0045712D01*
X0316825Y0045767D01*
X0316778Y0045821D01*
X0316729Y0045871D01*
X0316677Y0045919D01*
X0316623Y0045964D01*
X0316566Y0046005D01*
X0316507Y0046044D01*
X0316446Y0046079D01*
X0316383Y0046111D01*
X0316319Y0046139D01*
X0316253Y0046164D01*
X0316186Y0046185D01*
X0316117Y0046202D01*
X0316048Y0046216D01*
X0315979Y0046225D01*
X0315908Y0046231D01*
X0315838Y0046233D01*
X0318676Y0048278D02*
X0319699Y0043678D01*
X0320721Y0046744D01*
X0321743Y0043678D01*
X0322765Y0048278D01*
X0324243Y0048278D02*
X0326799Y0048278D01*
X0325521Y0048278D02*
X0325521Y0043678D01*
X0328430Y0044700D02*
X0328430Y0047255D01*
X0328432Y0047317D01*
X0328437Y0047378D01*
X0328447Y0047439D01*
X0328460Y0047500D01*
X0328476Y0047559D01*
X0328496Y0047617D01*
X0328520Y0047674D01*
X0328547Y0047730D01*
X0328577Y0047784D01*
X0328611Y0047836D01*
X0328647Y0047885D01*
X0328687Y0047933D01*
X0328729Y0047978D01*
X0328774Y0048020D01*
X0328822Y0048059D01*
X0328871Y0048096D01*
X0328923Y0048130D01*
X0328977Y0048160D01*
X0329033Y0048187D01*
X0329090Y0048211D01*
X0329148Y0048231D01*
X0329207Y0048247D01*
X0329268Y0048260D01*
X0329329Y0048270D01*
X0329390Y0048275D01*
X0329452Y0048277D01*
X0329452Y0048278D02*
X0330475Y0048278D01*
X0332410Y0048278D02*
X0332410Y0043678D01*
X0332410Y0045467D02*
X0334965Y0048278D01*
X0333432Y0046489D02*
X0334965Y0043678D01*
X0330475Y0043678D02*
X0329452Y0043678D01*
X0329390Y0043680D01*
X0329329Y0043685D01*
X0329268Y0043695D01*
X0329207Y0043708D01*
X0329148Y0043724D01*
X0329090Y0043744D01*
X0329033Y0043768D01*
X0328977Y0043795D01*
X0328923Y0043825D01*
X0328871Y0043859D01*
X0328822Y0043895D01*
X0328774Y0043935D01*
X0328729Y0043977D01*
X0328687Y0044022D01*
X0328647Y0044070D01*
X0328611Y0044119D01*
X0328577Y0044171D01*
X0328547Y0044225D01*
X0328520Y0044281D01*
X0328496Y0044338D01*
X0328476Y0044396D01*
X0328460Y0044455D01*
X0328447Y0044516D01*
X0328437Y0044577D01*
X0328432Y0044638D01*
X0328430Y0044700D01*
D21*
X0255170Y0242101D03*
X0255170Y0247801D03*
X0314420Y0313601D03*
X0314420Y0319301D03*
X0333170Y0305551D03*
X0333170Y0299851D03*
X0341911Y0299904D03*
X0341911Y0305604D03*
X0041920Y0313601D03*
X0041920Y0319301D03*
X0021911Y0305604D03*
X0021911Y0299904D03*
X0013170Y0299851D03*
X0013170Y0305551D03*
D22*
X0246159Y0247857D03*
X0246159Y0242057D03*
X0265159Y0248057D03*
X0265159Y0253857D03*
X0220171Y0052898D03*
X0220171Y0047098D03*
X0243171Y0037898D03*
X0243171Y0032098D03*
X0243171Y0021898D03*
X0243171Y0016098D03*
D23*
X0331016Y0127072D02*
X0337315Y0127072D01*
X0337315Y0138883D01*
X0331016Y0138883D01*
X0331016Y0127072D01*
X0283071Y0177828D02*
X0271260Y0177828D01*
X0271260Y0184127D01*
X0283071Y0184127D01*
X0283071Y0177828D01*
X0284016Y0192072D02*
X0290315Y0192072D01*
X0290315Y0203883D01*
X0284016Y0203883D01*
X0284016Y0192072D01*
X0278315Y0195072D02*
X0272016Y0195072D01*
X0272016Y0206883D01*
X0278315Y0206883D01*
X0278315Y0195072D01*
X0271315Y0195072D02*
X0265016Y0195072D01*
X0265016Y0206883D01*
X0271315Y0206883D01*
X0271315Y0195072D01*
X0264568Y0192029D02*
X0260114Y0187575D01*
X0251762Y0195926D01*
X0256217Y0200381D01*
X0264568Y0192029D01*
X0264071Y0200828D02*
X0252260Y0200828D01*
X0252260Y0207127D01*
X0264071Y0207127D01*
X0264071Y0200828D01*
X0265016Y0208072D02*
X0265016Y0219883D01*
X0271315Y0219883D01*
X0271315Y0208072D01*
X0265016Y0208072D01*
X0264571Y0220828D02*
X0252760Y0220828D01*
X0252760Y0227127D01*
X0264571Y0227127D01*
X0264571Y0220828D01*
X0247315Y0216072D02*
X0241016Y0216072D01*
X0241016Y0227883D01*
X0247315Y0227883D01*
X0247315Y0216072D01*
X0272260Y0249328D02*
X0272260Y0255627D01*
X0284071Y0255627D01*
X0284071Y0249328D01*
X0272260Y0249328D01*
X0272260Y0256328D02*
X0272260Y0262627D01*
X0284071Y0262627D01*
X0284071Y0256328D01*
X0272260Y0256328D01*
X0272260Y0263328D02*
X0272260Y0269627D01*
X0284071Y0269627D01*
X0284071Y0263328D01*
X0272260Y0263328D01*
X0269929Y0270108D02*
X0269929Y0277848D01*
X0289402Y0277848D01*
X0289402Y0270108D01*
X0269929Y0270108D01*
X0262695Y0269326D02*
X0261559Y0269326D01*
X0262127Y0269752D02*
X0262127Y0268332D01*
X0260139Y0268900D01*
X0260139Y0267189D02*
X0261985Y0267189D01*
X0262037Y0267187D01*
X0262088Y0267181D01*
X0262139Y0267172D01*
X0262190Y0267159D01*
X0262239Y0267142D01*
X0262286Y0267122D01*
X0262332Y0267098D01*
X0262377Y0267071D01*
X0262419Y0267041D01*
X0262459Y0267008D01*
X0262496Y0266972D01*
X0262531Y0266933D01*
X0262562Y0266892D01*
X0262591Y0266849D01*
X0262616Y0266804D01*
X0262638Y0266757D01*
X0262657Y0266708D01*
X0262672Y0266659D01*
X0262683Y0266608D01*
X0262691Y0266557D01*
X0262695Y0266505D01*
X0262695Y0266453D01*
X0262691Y0266401D01*
X0262683Y0266350D01*
X0262672Y0266299D01*
X0262657Y0266250D01*
X0262638Y0266201D01*
X0262616Y0266154D01*
X0262591Y0266109D01*
X0262562Y0266066D01*
X0262531Y0266025D01*
X0262496Y0265986D01*
X0262459Y0265950D01*
X0262419Y0265917D01*
X0262377Y0265887D01*
X0262332Y0265860D01*
X0262286Y0265836D01*
X0262239Y0265816D01*
X0262190Y0265799D01*
X0262139Y0265786D01*
X0262088Y0265777D01*
X0262037Y0265771D01*
X0261985Y0265769D01*
X0260139Y0265769D01*
X0250571Y0273328D02*
X0250571Y0279627D01*
X0238760Y0279627D01*
X0238760Y0273328D01*
X0250571Y0273328D01*
X0247260Y0287828D02*
X0247260Y0294127D01*
X0259071Y0294127D01*
X0259071Y0287828D01*
X0247260Y0287828D01*
X0269929Y0286348D02*
X0269929Y0278608D01*
X0289402Y0278608D01*
X0289402Y0286348D01*
X0269929Y0286348D01*
D24*
X0272042Y0237982D03*
X0266342Y0237982D03*
D25*
X0264734Y0229797D02*
X0264734Y0228297D01*
X0265150Y0228297D02*
X0264317Y0228297D01*
X0263771Y0228130D02*
X0263104Y0228130D01*
X0262283Y0228297D02*
X0262616Y0229797D01*
X0261950Y0229297D02*
X0262283Y0228297D01*
X0261616Y0228297D02*
X0261283Y0229797D01*
X0260810Y0229797D02*
X0260144Y0229797D01*
X0260144Y0228297D01*
X0260810Y0228297D01*
X0261616Y0228297D02*
X0261950Y0229297D01*
X0260644Y0229130D02*
X0260144Y0229130D01*
X0259562Y0228297D02*
X0258896Y0228297D01*
X0258896Y0229797D01*
X0257661Y0229171D02*
X0257632Y0229190D01*
X0257604Y0229213D01*
X0257580Y0229238D01*
X0257558Y0229265D01*
X0257539Y0229295D01*
X0257523Y0229326D01*
X0257510Y0229359D01*
X0257501Y0229393D01*
X0257496Y0229428D01*
X0257494Y0229463D01*
X0257495Y0229463D02*
X0257497Y0229498D01*
X0257502Y0229532D01*
X0257511Y0229566D01*
X0257524Y0229598D01*
X0257540Y0229630D01*
X0257559Y0229659D01*
X0257581Y0229686D01*
X0257605Y0229710D01*
X0257632Y0229732D01*
X0257662Y0229751D01*
X0257693Y0229767D01*
X0257725Y0229780D01*
X0257759Y0229789D01*
X0257793Y0229794D01*
X0257828Y0229796D01*
X0257828Y0229797D02*
X0257873Y0229795D01*
X0257917Y0229791D01*
X0257961Y0229783D01*
X0258004Y0229772D01*
X0258047Y0229757D01*
X0258088Y0229740D01*
X0258128Y0229720D01*
X0258166Y0229698D01*
X0258203Y0229672D01*
X0257453Y0228505D02*
X0257490Y0228471D01*
X0257529Y0228439D01*
X0257571Y0228410D01*
X0257614Y0228384D01*
X0257659Y0228361D01*
X0257706Y0228342D01*
X0257754Y0228326D01*
X0257803Y0228313D01*
X0257852Y0228304D01*
X0257903Y0228299D01*
X0257953Y0228297D01*
X0257988Y0228299D01*
X0258022Y0228304D01*
X0258056Y0228313D01*
X0258088Y0228326D01*
X0258120Y0228342D01*
X0258149Y0228361D01*
X0258176Y0228383D01*
X0258200Y0228407D01*
X0258222Y0228434D01*
X0258241Y0228464D01*
X0258257Y0228495D01*
X0258270Y0228527D01*
X0258279Y0228561D01*
X0258284Y0228595D01*
X0258286Y0228630D01*
X0258120Y0228922D02*
X0257661Y0229172D01*
X0258120Y0228922D02*
X0258149Y0228903D01*
X0258177Y0228880D01*
X0258201Y0228855D01*
X0258223Y0228828D01*
X0258242Y0228798D01*
X0258258Y0228767D01*
X0258271Y0228734D01*
X0258280Y0228700D01*
X0258285Y0228665D01*
X0258287Y0228630D01*
X0256955Y0228130D02*
X0256288Y0228130D01*
X0255751Y0228297D02*
X0255417Y0228963D01*
X0255334Y0228963D02*
X0254917Y0228963D01*
X0255334Y0228963D02*
X0255374Y0228965D01*
X0255413Y0228971D01*
X0255451Y0228980D01*
X0255489Y0228993D01*
X0255525Y0229009D01*
X0255559Y0229029D01*
X0255592Y0229052D01*
X0255622Y0229078D01*
X0255649Y0229107D01*
X0255674Y0229138D01*
X0255695Y0229172D01*
X0255713Y0229207D01*
X0255728Y0229244D01*
X0255739Y0229282D01*
X0255747Y0229321D01*
X0255751Y0229360D01*
X0255751Y0229400D01*
X0255747Y0229439D01*
X0255739Y0229478D01*
X0255728Y0229516D01*
X0255713Y0229553D01*
X0255695Y0229589D01*
X0255674Y0229622D01*
X0255649Y0229653D01*
X0255622Y0229682D01*
X0255592Y0229708D01*
X0255559Y0229731D01*
X0255525Y0229751D01*
X0255489Y0229767D01*
X0255451Y0229780D01*
X0255413Y0229789D01*
X0255374Y0229795D01*
X0255334Y0229797D01*
X0254917Y0229797D01*
X0254917Y0228297D01*
X0264317Y0229463D02*
X0264734Y0229797D01*
X0271984Y0218309D02*
X0273484Y0218309D01*
X0273484Y0217892D02*
X0273484Y0218726D01*
X0272318Y0217892D02*
X0271984Y0218309D01*
X0271984Y0216936D02*
X0271984Y0216519D01*
X0273484Y0216519D01*
X0272818Y0216519D02*
X0272818Y0216936D01*
X0272816Y0216976D01*
X0272810Y0217015D01*
X0272801Y0217053D01*
X0272788Y0217091D01*
X0272772Y0217127D01*
X0272752Y0217161D01*
X0272729Y0217194D01*
X0272703Y0217224D01*
X0272674Y0217251D01*
X0272643Y0217276D01*
X0272610Y0217297D01*
X0272574Y0217315D01*
X0272537Y0217330D01*
X0272499Y0217341D01*
X0272460Y0217349D01*
X0272421Y0217353D01*
X0272381Y0217353D01*
X0272342Y0217349D01*
X0272303Y0217341D01*
X0272265Y0217330D01*
X0272228Y0217315D01*
X0272193Y0217297D01*
X0272159Y0217276D01*
X0272128Y0217251D01*
X0272099Y0217224D01*
X0272073Y0217194D01*
X0272050Y0217161D01*
X0272030Y0217127D01*
X0272014Y0217091D01*
X0272001Y0217053D01*
X0271992Y0217015D01*
X0271986Y0216976D01*
X0271984Y0216936D01*
X0271984Y0215798D02*
X0273068Y0215798D01*
X0273108Y0215796D01*
X0273147Y0215790D01*
X0273185Y0215781D01*
X0273223Y0215768D01*
X0273259Y0215752D01*
X0273293Y0215732D01*
X0273326Y0215709D01*
X0273356Y0215683D01*
X0273383Y0215654D01*
X0273408Y0215623D01*
X0273429Y0215590D01*
X0273447Y0215554D01*
X0273462Y0215517D01*
X0273473Y0215479D01*
X0273481Y0215440D01*
X0273485Y0215401D01*
X0273485Y0215361D01*
X0273481Y0215322D01*
X0273473Y0215283D01*
X0273462Y0215245D01*
X0273447Y0215208D01*
X0273429Y0215173D01*
X0273408Y0215139D01*
X0273383Y0215108D01*
X0273356Y0215079D01*
X0273326Y0215053D01*
X0273293Y0215030D01*
X0273259Y0215010D01*
X0273223Y0214994D01*
X0273185Y0214981D01*
X0273147Y0214972D01*
X0273108Y0214966D01*
X0273068Y0214964D01*
X0271984Y0214964D01*
X0271984Y0213719D02*
X0273484Y0213719D01*
X0273484Y0214386D01*
X0273484Y0213138D02*
X0273484Y0212471D01*
X0271984Y0212471D01*
X0271984Y0211766D02*
X0273068Y0211766D01*
X0273108Y0211764D01*
X0273147Y0211758D01*
X0273185Y0211749D01*
X0273223Y0211736D01*
X0273259Y0211720D01*
X0273293Y0211700D01*
X0273326Y0211677D01*
X0273356Y0211651D01*
X0273383Y0211622D01*
X0273408Y0211591D01*
X0273429Y0211558D01*
X0273447Y0211522D01*
X0273462Y0211485D01*
X0273473Y0211447D01*
X0273481Y0211408D01*
X0273485Y0211369D01*
X0273485Y0211329D01*
X0273481Y0211290D01*
X0273473Y0211251D01*
X0273462Y0211213D01*
X0273447Y0211176D01*
X0273429Y0211141D01*
X0273408Y0211107D01*
X0273383Y0211076D01*
X0273356Y0211047D01*
X0273326Y0211021D01*
X0273293Y0210998D01*
X0273259Y0210978D01*
X0273223Y0210962D01*
X0273185Y0210949D01*
X0273147Y0210940D01*
X0273108Y0210934D01*
X0273068Y0210932D01*
X0271984Y0210932D01*
X0271984Y0209928D02*
X0271984Y0209511D01*
X0273484Y0209511D01*
X0273651Y0208898D02*
X0273651Y0208232D01*
X0273484Y0207694D02*
X0272818Y0207361D01*
X0272818Y0207277D02*
X0272818Y0206861D01*
X0272818Y0207277D02*
X0272816Y0207317D01*
X0272810Y0207356D01*
X0272801Y0207394D01*
X0272788Y0207432D01*
X0272772Y0207468D01*
X0272752Y0207502D01*
X0272729Y0207535D01*
X0272703Y0207565D01*
X0272674Y0207592D01*
X0272643Y0207617D01*
X0272610Y0207638D01*
X0272574Y0207656D01*
X0272537Y0207671D01*
X0272499Y0207682D01*
X0272460Y0207690D01*
X0272421Y0207694D01*
X0272381Y0207694D01*
X0272342Y0207690D01*
X0272303Y0207682D01*
X0272265Y0207671D01*
X0272228Y0207656D01*
X0272193Y0207638D01*
X0272159Y0207617D01*
X0272128Y0207592D01*
X0272099Y0207565D01*
X0272073Y0207535D01*
X0272050Y0207502D01*
X0272030Y0207468D01*
X0272014Y0207432D01*
X0272001Y0207394D01*
X0271992Y0207356D01*
X0271986Y0207317D01*
X0271984Y0207277D01*
X0271984Y0206861D01*
X0273484Y0206861D01*
X0272818Y0209511D02*
X0272818Y0209928D01*
X0272816Y0209968D01*
X0272810Y0210007D01*
X0272801Y0210045D01*
X0272788Y0210083D01*
X0272772Y0210119D01*
X0272752Y0210153D01*
X0272729Y0210186D01*
X0272703Y0210216D01*
X0272674Y0210243D01*
X0272643Y0210268D01*
X0272610Y0210289D01*
X0272574Y0210307D01*
X0272537Y0210322D01*
X0272499Y0210333D01*
X0272460Y0210341D01*
X0272421Y0210345D01*
X0272381Y0210345D01*
X0272342Y0210341D01*
X0272303Y0210333D01*
X0272265Y0210322D01*
X0272228Y0210307D01*
X0272193Y0210289D01*
X0272159Y0210268D01*
X0272128Y0210243D01*
X0272099Y0210216D01*
X0272073Y0210186D01*
X0272050Y0210153D01*
X0272030Y0210119D01*
X0272014Y0210083D01*
X0272001Y0210045D01*
X0271992Y0210007D01*
X0271986Y0209968D01*
X0271984Y0209928D01*
X0273251Y0201797D02*
X0273584Y0201797D01*
X0273251Y0201796D02*
X0273216Y0201794D01*
X0273182Y0201789D01*
X0273148Y0201780D01*
X0273116Y0201767D01*
X0273084Y0201751D01*
X0273055Y0201732D01*
X0273028Y0201710D01*
X0273004Y0201686D01*
X0272982Y0201659D01*
X0272963Y0201629D01*
X0272947Y0201598D01*
X0272934Y0201566D01*
X0272925Y0201532D01*
X0272920Y0201498D01*
X0272918Y0201463D01*
X0272917Y0201463D02*
X0272917Y0200630D01*
X0272918Y0200630D02*
X0272920Y0200595D01*
X0272925Y0200561D01*
X0272934Y0200527D01*
X0272947Y0200495D01*
X0272963Y0200464D01*
X0272982Y0200434D01*
X0273004Y0200407D01*
X0273028Y0200383D01*
X0273055Y0200361D01*
X0273085Y0200342D01*
X0273116Y0200326D01*
X0273148Y0200313D01*
X0273182Y0200304D01*
X0273216Y0200299D01*
X0273251Y0200297D01*
X0273584Y0200297D01*
X0274121Y0200297D02*
X0274954Y0200297D01*
X0275644Y0200630D02*
X0276311Y0201463D01*
X0276269Y0201588D02*
X0276257Y0201617D01*
X0276243Y0201646D01*
X0276225Y0201672D01*
X0276205Y0201697D01*
X0276182Y0201719D01*
X0276157Y0201739D01*
X0276130Y0201756D01*
X0276102Y0201770D01*
X0276072Y0201781D01*
X0276041Y0201789D01*
X0276010Y0201794D01*
X0275978Y0201796D01*
X0275946Y0201794D01*
X0275915Y0201789D01*
X0275884Y0201781D01*
X0275854Y0201770D01*
X0275826Y0201756D01*
X0275799Y0201739D01*
X0275774Y0201719D01*
X0275751Y0201697D01*
X0275731Y0201672D01*
X0275713Y0201646D01*
X0275699Y0201617D01*
X0275687Y0201588D01*
X0276269Y0201589D02*
X0276295Y0201532D01*
X0276318Y0201474D01*
X0276338Y0201415D01*
X0276355Y0201355D01*
X0276369Y0201294D01*
X0276380Y0201233D01*
X0276388Y0201171D01*
X0276392Y0201109D01*
X0276394Y0201047D01*
X0275561Y0201047D02*
X0275563Y0201109D01*
X0275567Y0201171D01*
X0275575Y0201233D01*
X0275586Y0201294D01*
X0275600Y0201355D01*
X0275617Y0201415D01*
X0275637Y0201474D01*
X0275660Y0201532D01*
X0275686Y0201589D01*
X0276394Y0201047D02*
X0276392Y0200985D01*
X0276388Y0200923D01*
X0276380Y0200861D01*
X0276369Y0200800D01*
X0276355Y0200739D01*
X0276338Y0200679D01*
X0276318Y0200620D01*
X0276295Y0200562D01*
X0276269Y0200505D01*
X0276257Y0200476D01*
X0276243Y0200447D01*
X0276225Y0200421D01*
X0276205Y0200396D01*
X0276182Y0200374D01*
X0276157Y0200354D01*
X0276130Y0200337D01*
X0276102Y0200323D01*
X0276072Y0200312D01*
X0276041Y0200304D01*
X0276010Y0200299D01*
X0275978Y0200297D01*
X0275946Y0200299D01*
X0275915Y0200304D01*
X0275884Y0200312D01*
X0275854Y0200323D01*
X0275826Y0200337D01*
X0275799Y0200354D01*
X0275774Y0200374D01*
X0275751Y0200396D01*
X0275731Y0200421D01*
X0275713Y0200447D01*
X0275699Y0200476D01*
X0275687Y0200505D01*
X0274829Y0201130D02*
X0274121Y0200297D01*
X0274120Y0201463D02*
X0274134Y0201501D01*
X0274152Y0201538D01*
X0274172Y0201573D01*
X0274195Y0201606D01*
X0274221Y0201637D01*
X0274249Y0201666D01*
X0274279Y0201693D01*
X0274312Y0201716D01*
X0274347Y0201737D01*
X0274383Y0201755D01*
X0274420Y0201770D01*
X0274459Y0201782D01*
X0274499Y0201790D01*
X0274539Y0201795D01*
X0274579Y0201797D01*
X0274616Y0201795D01*
X0274652Y0201790D01*
X0274688Y0201781D01*
X0274723Y0201768D01*
X0274756Y0201753D01*
X0274787Y0201734D01*
X0274817Y0201712D01*
X0274844Y0201687D01*
X0274869Y0201660D01*
X0274891Y0201630D01*
X0274910Y0201599D01*
X0274925Y0201566D01*
X0274938Y0201531D01*
X0274947Y0201495D01*
X0274952Y0201459D01*
X0274954Y0201422D01*
X0274955Y0201422D02*
X0274953Y0201386D01*
X0274948Y0201350D01*
X0274940Y0201315D01*
X0274929Y0201280D01*
X0274915Y0201247D01*
X0274898Y0201215D01*
X0274878Y0201185D01*
X0274855Y0201156D01*
X0274830Y0201130D01*
X0275561Y0201047D02*
X0275563Y0200985D01*
X0275567Y0200923D01*
X0275575Y0200861D01*
X0275586Y0200800D01*
X0275600Y0200739D01*
X0275617Y0200679D01*
X0275637Y0200620D01*
X0275660Y0200562D01*
X0275686Y0200505D01*
X0275676Y0198659D02*
X0276093Y0198659D01*
X0275676Y0198659D02*
X0275676Y0197159D01*
X0275676Y0197825D02*
X0276093Y0197825D01*
X0276176Y0197825D02*
X0276510Y0197159D01*
X0277047Y0196992D02*
X0277714Y0196992D01*
X0278327Y0197159D02*
X0278327Y0198659D01*
X0278744Y0198659D01*
X0278784Y0198657D01*
X0278823Y0198651D01*
X0278861Y0198642D01*
X0278899Y0198629D01*
X0278935Y0198613D01*
X0278969Y0198593D01*
X0279002Y0198570D01*
X0279032Y0198544D01*
X0279059Y0198515D01*
X0279084Y0198484D01*
X0279105Y0198451D01*
X0279123Y0198415D01*
X0279138Y0198378D01*
X0279149Y0198340D01*
X0279157Y0198301D01*
X0279161Y0198262D01*
X0279161Y0198222D01*
X0279157Y0198183D01*
X0279149Y0198144D01*
X0279138Y0198106D01*
X0279123Y0198069D01*
X0279105Y0198034D01*
X0279084Y0198000D01*
X0279059Y0197969D01*
X0279032Y0197940D01*
X0279002Y0197914D01*
X0278969Y0197891D01*
X0278935Y0197871D01*
X0278899Y0197855D01*
X0278861Y0197842D01*
X0278823Y0197833D01*
X0278784Y0197827D01*
X0278744Y0197825D01*
X0278327Y0197825D01*
X0279748Y0197575D02*
X0279748Y0198659D01*
X0280581Y0198659D02*
X0280581Y0197575D01*
X0280582Y0197575D02*
X0280580Y0197535D01*
X0280574Y0197496D01*
X0280565Y0197458D01*
X0280552Y0197420D01*
X0280536Y0197384D01*
X0280516Y0197350D01*
X0280493Y0197317D01*
X0280467Y0197287D01*
X0280438Y0197260D01*
X0280407Y0197235D01*
X0280374Y0197214D01*
X0280338Y0197196D01*
X0280301Y0197181D01*
X0280263Y0197170D01*
X0280224Y0197162D01*
X0280185Y0197158D01*
X0280145Y0197158D01*
X0280106Y0197162D01*
X0280067Y0197170D01*
X0280029Y0197181D01*
X0279992Y0197196D01*
X0279957Y0197214D01*
X0279923Y0197235D01*
X0279892Y0197260D01*
X0279863Y0197287D01*
X0279837Y0197317D01*
X0279814Y0197350D01*
X0279794Y0197384D01*
X0279778Y0197420D01*
X0279765Y0197458D01*
X0279756Y0197496D01*
X0279750Y0197535D01*
X0279748Y0197575D01*
X0281287Y0197159D02*
X0281953Y0197159D01*
X0282535Y0197159D02*
X0283201Y0197159D01*
X0283780Y0197159D02*
X0284197Y0197159D01*
X0284197Y0197158D02*
X0284235Y0197160D01*
X0284274Y0197165D01*
X0284311Y0197174D01*
X0284348Y0197186D01*
X0284383Y0197202D01*
X0284417Y0197220D01*
X0284448Y0197242D01*
X0284478Y0197267D01*
X0284505Y0197294D01*
X0284530Y0197324D01*
X0284552Y0197355D01*
X0284570Y0197389D01*
X0284586Y0197424D01*
X0284598Y0197461D01*
X0284607Y0197498D01*
X0284612Y0197537D01*
X0284614Y0197575D01*
X0284613Y0197575D02*
X0284613Y0198242D01*
X0284614Y0198242D02*
X0284612Y0198280D01*
X0284607Y0198319D01*
X0284598Y0198356D01*
X0284586Y0198393D01*
X0284570Y0198428D01*
X0284552Y0198462D01*
X0284530Y0198493D01*
X0284505Y0198523D01*
X0284478Y0198550D01*
X0284448Y0198575D01*
X0284417Y0198597D01*
X0284383Y0198615D01*
X0284348Y0198631D01*
X0284311Y0198643D01*
X0284274Y0198652D01*
X0284235Y0198657D01*
X0284197Y0198659D01*
X0283780Y0198659D01*
X0283780Y0197159D01*
X0282535Y0197159D02*
X0282535Y0198659D01*
X0281287Y0198659D02*
X0281287Y0197159D01*
X0285268Y0197575D02*
X0285268Y0198242D01*
X0285270Y0198282D01*
X0285276Y0198321D01*
X0285285Y0198359D01*
X0285298Y0198397D01*
X0285314Y0198433D01*
X0285334Y0198467D01*
X0285357Y0198500D01*
X0285383Y0198530D01*
X0285412Y0198557D01*
X0285443Y0198582D01*
X0285477Y0198603D01*
X0285512Y0198621D01*
X0285549Y0198636D01*
X0285587Y0198647D01*
X0285626Y0198655D01*
X0285665Y0198659D01*
X0285705Y0198659D01*
X0285744Y0198655D01*
X0285783Y0198647D01*
X0285821Y0198636D01*
X0285858Y0198621D01*
X0285894Y0198603D01*
X0285927Y0198582D01*
X0285958Y0198557D01*
X0285987Y0198530D01*
X0286013Y0198500D01*
X0286036Y0198467D01*
X0286056Y0198433D01*
X0286072Y0198397D01*
X0286085Y0198359D01*
X0286094Y0198321D01*
X0286100Y0198282D01*
X0286102Y0198242D01*
X0286101Y0198242D02*
X0286101Y0197575D01*
X0286102Y0197575D02*
X0286100Y0197535D01*
X0286094Y0197496D01*
X0286085Y0197458D01*
X0286072Y0197420D01*
X0286056Y0197384D01*
X0286036Y0197350D01*
X0286013Y0197317D01*
X0285987Y0197287D01*
X0285958Y0197260D01*
X0285927Y0197235D01*
X0285894Y0197214D01*
X0285858Y0197196D01*
X0285821Y0197181D01*
X0285783Y0197170D01*
X0285744Y0197162D01*
X0285705Y0197158D01*
X0285665Y0197158D01*
X0285626Y0197162D01*
X0285587Y0197170D01*
X0285549Y0197181D01*
X0285512Y0197196D01*
X0285477Y0197214D01*
X0285443Y0197235D01*
X0285412Y0197260D01*
X0285383Y0197287D01*
X0285357Y0197317D01*
X0285334Y0197350D01*
X0285314Y0197384D01*
X0285298Y0197420D01*
X0285285Y0197458D01*
X0285276Y0197496D01*
X0285270Y0197535D01*
X0285268Y0197575D01*
X0286650Y0198659D02*
X0286983Y0197159D01*
X0287317Y0198159D01*
X0287650Y0197159D01*
X0287983Y0198659D01*
X0288580Y0198659D02*
X0289413Y0197159D01*
X0289413Y0198659D01*
X0288580Y0198659D02*
X0288580Y0197159D01*
X0276093Y0197825D02*
X0276133Y0197827D01*
X0276172Y0197833D01*
X0276210Y0197842D01*
X0276248Y0197855D01*
X0276284Y0197871D01*
X0276318Y0197891D01*
X0276351Y0197914D01*
X0276381Y0197940D01*
X0276408Y0197969D01*
X0276433Y0198000D01*
X0276454Y0198034D01*
X0276472Y0198069D01*
X0276487Y0198106D01*
X0276498Y0198144D01*
X0276506Y0198183D01*
X0276510Y0198222D01*
X0276510Y0198262D01*
X0276506Y0198301D01*
X0276498Y0198340D01*
X0276487Y0198378D01*
X0276472Y0198415D01*
X0276454Y0198451D01*
X0276433Y0198484D01*
X0276408Y0198515D01*
X0276381Y0198544D01*
X0276351Y0198570D01*
X0276318Y0198593D01*
X0276284Y0198613D01*
X0276248Y0198629D01*
X0276210Y0198642D01*
X0276172Y0198651D01*
X0276133Y0198657D01*
X0276093Y0198659D01*
X0269394Y0200963D02*
X0269394Y0201380D01*
X0269395Y0201380D02*
X0269393Y0201420D01*
X0269387Y0201459D01*
X0269378Y0201497D01*
X0269365Y0201535D01*
X0269349Y0201571D01*
X0269329Y0201605D01*
X0269306Y0201638D01*
X0269280Y0201668D01*
X0269251Y0201695D01*
X0269220Y0201720D01*
X0269187Y0201741D01*
X0269151Y0201759D01*
X0269114Y0201774D01*
X0269076Y0201785D01*
X0269037Y0201793D01*
X0268998Y0201797D01*
X0268958Y0201797D01*
X0268919Y0201793D01*
X0268880Y0201785D01*
X0268842Y0201774D01*
X0268805Y0201759D01*
X0268770Y0201741D01*
X0268736Y0201720D01*
X0268705Y0201695D01*
X0268676Y0201668D01*
X0268650Y0201638D01*
X0268627Y0201605D01*
X0268607Y0201571D01*
X0268591Y0201535D01*
X0268578Y0201497D01*
X0268569Y0201459D01*
X0268563Y0201420D01*
X0268561Y0201380D01*
X0268561Y0201297D01*
X0268563Y0201262D01*
X0268568Y0201228D01*
X0268577Y0201194D01*
X0268590Y0201162D01*
X0268606Y0201131D01*
X0268625Y0201101D01*
X0268647Y0201074D01*
X0268671Y0201050D01*
X0268698Y0201028D01*
X0268728Y0201009D01*
X0268759Y0200993D01*
X0268791Y0200980D01*
X0268825Y0200971D01*
X0268859Y0200966D01*
X0268894Y0200964D01*
X0268894Y0200963D02*
X0269394Y0200963D01*
X0269395Y0200963D02*
X0269393Y0200913D01*
X0269388Y0200864D01*
X0269378Y0200815D01*
X0269365Y0200766D01*
X0269349Y0200719D01*
X0269329Y0200674D01*
X0269306Y0200630D01*
X0269279Y0200587D01*
X0269249Y0200547D01*
X0269217Y0200509D01*
X0269182Y0200474D01*
X0269144Y0200442D01*
X0269104Y0200412D01*
X0269062Y0200385D01*
X0269017Y0200362D01*
X0268972Y0200342D01*
X0268925Y0200326D01*
X0268876Y0200313D01*
X0268827Y0200303D01*
X0268778Y0200298D01*
X0268728Y0200296D01*
X0267954Y0200297D02*
X0267121Y0200297D01*
X0267538Y0200297D02*
X0267538Y0201797D01*
X0267121Y0201463D01*
X0266584Y0201797D02*
X0266251Y0201797D01*
X0266251Y0201796D02*
X0266216Y0201794D01*
X0266182Y0201789D01*
X0266148Y0201780D01*
X0266116Y0201767D01*
X0266084Y0201751D01*
X0266055Y0201732D01*
X0266028Y0201710D01*
X0266004Y0201686D01*
X0265982Y0201659D01*
X0265963Y0201629D01*
X0265947Y0201598D01*
X0265934Y0201566D01*
X0265925Y0201532D01*
X0265920Y0201498D01*
X0265918Y0201463D01*
X0265917Y0201463D02*
X0265917Y0200630D01*
X0265918Y0200630D02*
X0265920Y0200595D01*
X0265925Y0200561D01*
X0265934Y0200527D01*
X0265947Y0200495D01*
X0265963Y0200464D01*
X0265982Y0200434D01*
X0266004Y0200407D01*
X0266028Y0200383D01*
X0266055Y0200361D01*
X0266085Y0200342D01*
X0266116Y0200326D01*
X0266148Y0200313D01*
X0266182Y0200304D01*
X0266216Y0200299D01*
X0266251Y0200297D01*
X0266584Y0200297D01*
X0258846Y0202063D02*
X0258846Y0202396D01*
X0258846Y0202063D02*
X0258844Y0202028D01*
X0258839Y0201994D01*
X0258830Y0201960D01*
X0258817Y0201928D01*
X0258801Y0201897D01*
X0258782Y0201867D01*
X0258760Y0201840D01*
X0258736Y0201816D01*
X0258709Y0201794D01*
X0258680Y0201775D01*
X0258648Y0201759D01*
X0258616Y0201746D01*
X0258582Y0201737D01*
X0258548Y0201732D01*
X0258513Y0201730D01*
X0257680Y0201730D01*
X0257645Y0201732D01*
X0257611Y0201737D01*
X0257577Y0201746D01*
X0257545Y0201759D01*
X0257514Y0201775D01*
X0257484Y0201794D01*
X0257457Y0201816D01*
X0257433Y0201840D01*
X0257411Y0201867D01*
X0257392Y0201896D01*
X0257376Y0201928D01*
X0257363Y0201960D01*
X0257354Y0201994D01*
X0257349Y0202028D01*
X0257347Y0202063D01*
X0257346Y0202063D02*
X0257346Y0202396D01*
X0259013Y0202873D02*
X0259013Y0203539D01*
X0258221Y0204704D02*
X0258240Y0204733D01*
X0258263Y0204761D01*
X0258288Y0204785D01*
X0258315Y0204807D01*
X0258345Y0204826D01*
X0258376Y0204842D01*
X0258409Y0204855D01*
X0258443Y0204864D01*
X0258478Y0204869D01*
X0258513Y0204871D01*
X0258513Y0204870D02*
X0258548Y0204868D01*
X0258582Y0204863D01*
X0258616Y0204854D01*
X0258648Y0204841D01*
X0258680Y0204825D01*
X0258709Y0204806D01*
X0258736Y0204784D01*
X0258760Y0204760D01*
X0258782Y0204733D01*
X0258801Y0204704D01*
X0258817Y0204672D01*
X0258830Y0204640D01*
X0258839Y0204606D01*
X0258844Y0204572D01*
X0258846Y0204537D01*
X0258221Y0204704D02*
X0257971Y0204246D01*
X0257346Y0204412D02*
X0257348Y0204457D01*
X0257352Y0204501D01*
X0257360Y0204545D01*
X0257371Y0204588D01*
X0257386Y0204631D01*
X0257403Y0204672D01*
X0257423Y0204712D01*
X0257445Y0204750D01*
X0257471Y0204787D01*
X0257972Y0204246D02*
X0257953Y0204217D01*
X0257930Y0204189D01*
X0257905Y0204165D01*
X0257878Y0204143D01*
X0257848Y0204124D01*
X0257817Y0204108D01*
X0257784Y0204095D01*
X0257750Y0204086D01*
X0257715Y0204081D01*
X0257680Y0204079D01*
X0257645Y0204081D01*
X0257611Y0204086D01*
X0257577Y0204095D01*
X0257545Y0204108D01*
X0257514Y0204124D01*
X0257484Y0204143D01*
X0257457Y0204165D01*
X0257433Y0204189D01*
X0257411Y0204216D01*
X0257392Y0204246D01*
X0257376Y0204277D01*
X0257363Y0204309D01*
X0257354Y0204343D01*
X0257349Y0204377D01*
X0257347Y0204412D01*
X0258638Y0204037D02*
X0258672Y0204074D01*
X0258704Y0204113D01*
X0258733Y0204155D01*
X0258759Y0204198D01*
X0258782Y0204243D01*
X0258801Y0204290D01*
X0258817Y0204338D01*
X0258830Y0204387D01*
X0258839Y0204436D01*
X0258844Y0204487D01*
X0258846Y0204537D01*
X0258846Y0205480D02*
X0258846Y0206147D01*
X0258846Y0206728D02*
X0257346Y0206728D01*
X0257346Y0207395D01*
X0257346Y0207867D02*
X0258846Y0208201D01*
X0257846Y0208534D01*
X0258846Y0208867D01*
X0257346Y0209201D01*
X0257680Y0210901D02*
X0257346Y0211318D01*
X0258846Y0211318D01*
X0258846Y0210901D02*
X0258846Y0211735D01*
X0259013Y0210355D02*
X0259013Y0209689D01*
X0258846Y0207395D02*
X0258846Y0206728D01*
X0258013Y0206728D02*
X0258013Y0207228D01*
X0257346Y0205480D02*
X0258846Y0205480D01*
X0258720Y0195161D02*
X0258693Y0195186D01*
X0258663Y0195208D01*
X0258632Y0195227D01*
X0258599Y0195242D01*
X0258564Y0195255D01*
X0258528Y0195264D01*
X0258492Y0195269D01*
X0258455Y0195271D01*
X0258418Y0195269D01*
X0258382Y0195264D01*
X0258346Y0195255D01*
X0258311Y0195242D01*
X0258278Y0195227D01*
X0258247Y0195208D01*
X0258217Y0195186D01*
X0258190Y0195161D01*
X0258721Y0195161D02*
X0258745Y0195134D01*
X0258767Y0195105D01*
X0258787Y0195075D01*
X0258803Y0195042D01*
X0258817Y0195009D01*
X0258827Y0194974D01*
X0258834Y0194938D01*
X0258838Y0194902D01*
X0258839Y0194866D01*
X0258838Y0194866D02*
X0258927Y0193776D01*
X0259516Y0194365D01*
X0258102Y0194601D02*
X0258085Y0194637D01*
X0258071Y0194675D01*
X0258061Y0194714D01*
X0258054Y0194754D01*
X0258050Y0194794D01*
X0258049Y0194835D01*
X0258052Y0194875D01*
X0258058Y0194915D01*
X0258068Y0194954D01*
X0258081Y0194993D01*
X0258097Y0195030D01*
X0258116Y0195065D01*
X0258138Y0195099D01*
X0258163Y0195131D01*
X0258190Y0195161D01*
X0257820Y0193848D02*
X0257908Y0192758D01*
X0258498Y0193347D01*
X0257083Y0193583D02*
X0257066Y0193619D01*
X0257052Y0193657D01*
X0257042Y0193696D01*
X0257035Y0193736D01*
X0257031Y0193776D01*
X0257030Y0193817D01*
X0257033Y0193857D01*
X0257039Y0193897D01*
X0257049Y0193936D01*
X0257062Y0193975D01*
X0257078Y0194012D01*
X0257097Y0194047D01*
X0257119Y0194081D01*
X0257144Y0194113D01*
X0257171Y0194143D01*
X0257172Y0194142D02*
X0257199Y0194167D01*
X0257229Y0194189D01*
X0257260Y0194208D01*
X0257293Y0194223D01*
X0257328Y0194236D01*
X0257364Y0194245D01*
X0257400Y0194250D01*
X0257437Y0194252D01*
X0257474Y0194250D01*
X0257510Y0194245D01*
X0257546Y0194236D01*
X0257581Y0194223D01*
X0257614Y0194208D01*
X0257645Y0194189D01*
X0257675Y0194167D01*
X0257702Y0194142D01*
X0257702Y0194143D02*
X0257726Y0194116D01*
X0257748Y0194087D01*
X0257768Y0194057D01*
X0257784Y0194024D01*
X0257798Y0193991D01*
X0257808Y0193956D01*
X0257815Y0193920D01*
X0257819Y0193884D01*
X0257820Y0193848D01*
X0256468Y0193439D02*
X0256232Y0193203D01*
X0256233Y0193202D02*
X0256209Y0193177D01*
X0256189Y0193148D01*
X0256171Y0193118D01*
X0256157Y0193086D01*
X0256146Y0193053D01*
X0256139Y0193019D01*
X0256135Y0192984D01*
X0256135Y0192950D01*
X0256139Y0192915D01*
X0256146Y0192881D01*
X0256157Y0192848D01*
X0256171Y0192816D01*
X0256189Y0192786D01*
X0256209Y0192757D01*
X0256233Y0192732D01*
X0256232Y0192732D02*
X0256822Y0192142D01*
X0256822Y0192143D02*
X0256847Y0192119D01*
X0256876Y0192099D01*
X0256906Y0192081D01*
X0256938Y0192067D01*
X0256971Y0192056D01*
X0257005Y0192049D01*
X0257040Y0192045D01*
X0257074Y0192045D01*
X0257109Y0192049D01*
X0257143Y0192056D01*
X0257176Y0192067D01*
X0257208Y0192081D01*
X0257238Y0192099D01*
X0257267Y0192119D01*
X0257292Y0192143D01*
X0257293Y0192142D02*
X0257529Y0192378D01*
X0276346Y0182040D02*
X0276348Y0181990D01*
X0276353Y0181941D01*
X0276363Y0181892D01*
X0276376Y0181843D01*
X0276392Y0181796D01*
X0276412Y0181751D01*
X0276435Y0181706D01*
X0276462Y0181664D01*
X0276492Y0181624D01*
X0276524Y0181586D01*
X0276559Y0181551D01*
X0276597Y0181519D01*
X0276637Y0181489D01*
X0276680Y0181462D01*
X0276724Y0181439D01*
X0276769Y0181419D01*
X0276816Y0181403D01*
X0276865Y0181390D01*
X0276914Y0181380D01*
X0276963Y0181375D01*
X0277013Y0181373D01*
X0277430Y0181373D01*
X0277013Y0181373D02*
X0277013Y0181873D01*
X0277015Y0181908D01*
X0277020Y0181942D01*
X0277029Y0181976D01*
X0277042Y0182008D01*
X0277058Y0182040D01*
X0277077Y0182069D01*
X0277099Y0182096D01*
X0277123Y0182120D01*
X0277150Y0182142D01*
X0277180Y0182161D01*
X0277211Y0182177D01*
X0277243Y0182190D01*
X0277277Y0182199D01*
X0277311Y0182204D01*
X0277346Y0182206D01*
X0277346Y0182207D02*
X0277430Y0182207D01*
X0277470Y0182205D01*
X0277509Y0182199D01*
X0277547Y0182190D01*
X0277585Y0182177D01*
X0277621Y0182161D01*
X0277655Y0182141D01*
X0277688Y0182118D01*
X0277718Y0182092D01*
X0277745Y0182063D01*
X0277770Y0182032D01*
X0277791Y0181999D01*
X0277809Y0181963D01*
X0277824Y0181926D01*
X0277835Y0181888D01*
X0277843Y0181849D01*
X0277847Y0181810D01*
X0277847Y0181770D01*
X0277843Y0181731D01*
X0277835Y0181692D01*
X0277824Y0181654D01*
X0277809Y0181617D01*
X0277791Y0181582D01*
X0277770Y0181548D01*
X0277745Y0181517D01*
X0277718Y0181488D01*
X0277688Y0181462D01*
X0277655Y0181439D01*
X0277621Y0181419D01*
X0277585Y0181403D01*
X0277547Y0181390D01*
X0277509Y0181381D01*
X0277470Y0181375D01*
X0277430Y0181373D01*
X0277846Y0180767D02*
X0277846Y0179933D01*
X0277846Y0180350D02*
X0276346Y0180350D01*
X0276680Y0179933D01*
X0276346Y0179396D02*
X0276346Y0179063D01*
X0276347Y0179063D02*
X0276349Y0179028D01*
X0276354Y0178994D01*
X0276363Y0178960D01*
X0276376Y0178928D01*
X0276392Y0178896D01*
X0276411Y0178867D01*
X0276433Y0178840D01*
X0276457Y0178816D01*
X0276484Y0178794D01*
X0276514Y0178775D01*
X0276545Y0178759D01*
X0276577Y0178746D01*
X0276611Y0178737D01*
X0276645Y0178732D01*
X0276680Y0178730D01*
X0277513Y0178730D01*
X0277548Y0178732D01*
X0277582Y0178737D01*
X0277616Y0178746D01*
X0277648Y0178759D01*
X0277680Y0178775D01*
X0277709Y0178794D01*
X0277736Y0178816D01*
X0277760Y0178840D01*
X0277782Y0178867D01*
X0277801Y0178897D01*
X0277817Y0178928D01*
X0277830Y0178960D01*
X0277839Y0178994D01*
X0277844Y0179028D01*
X0277846Y0179063D01*
X0277846Y0179396D01*
X0246413Y0221159D02*
X0245580Y0221159D01*
X0245997Y0221159D02*
X0245997Y0222659D01*
X0245580Y0222325D01*
X0244848Y0221992D02*
X0244140Y0221159D01*
X0244973Y0221159D01*
X0244139Y0222325D02*
X0244153Y0222363D01*
X0244171Y0222400D01*
X0244191Y0222435D01*
X0244214Y0222468D01*
X0244240Y0222499D01*
X0244268Y0222528D01*
X0244298Y0222555D01*
X0244331Y0222578D01*
X0244366Y0222599D01*
X0244402Y0222617D01*
X0244439Y0222632D01*
X0244478Y0222644D01*
X0244518Y0222652D01*
X0244558Y0222657D01*
X0244598Y0222659D01*
X0244635Y0222657D01*
X0244671Y0222652D01*
X0244707Y0222643D01*
X0244742Y0222630D01*
X0244775Y0222615D01*
X0244806Y0222596D01*
X0244836Y0222574D01*
X0244863Y0222549D01*
X0244888Y0222522D01*
X0244910Y0222492D01*
X0244929Y0222461D01*
X0244944Y0222428D01*
X0244957Y0222393D01*
X0244966Y0222357D01*
X0244971Y0222321D01*
X0244973Y0222284D01*
X0244974Y0222284D02*
X0244972Y0222248D01*
X0244967Y0222212D01*
X0244959Y0222177D01*
X0244948Y0222142D01*
X0244934Y0222109D01*
X0244917Y0222077D01*
X0244897Y0222047D01*
X0244874Y0222018D01*
X0244849Y0221992D01*
X0243603Y0222659D02*
X0243270Y0222659D01*
X0243270Y0222658D02*
X0243235Y0222656D01*
X0243201Y0222651D01*
X0243167Y0222642D01*
X0243135Y0222629D01*
X0243103Y0222613D01*
X0243074Y0222594D01*
X0243047Y0222572D01*
X0243023Y0222548D01*
X0243001Y0222521D01*
X0242982Y0222491D01*
X0242966Y0222460D01*
X0242953Y0222428D01*
X0242944Y0222394D01*
X0242939Y0222360D01*
X0242937Y0222325D01*
X0242936Y0222325D02*
X0242936Y0221492D01*
X0242937Y0221492D02*
X0242939Y0221457D01*
X0242944Y0221423D01*
X0242953Y0221389D01*
X0242966Y0221357D01*
X0242982Y0221326D01*
X0243001Y0221296D01*
X0243023Y0221269D01*
X0243047Y0221245D01*
X0243074Y0221223D01*
X0243104Y0221204D01*
X0243135Y0221188D01*
X0243167Y0221175D01*
X0243201Y0221166D01*
X0243235Y0221161D01*
X0243270Y0221159D01*
X0243603Y0221159D01*
X0277346Y0250563D02*
X0277346Y0250896D01*
X0277347Y0250563D02*
X0277349Y0250528D01*
X0277354Y0250494D01*
X0277363Y0250460D01*
X0277376Y0250428D01*
X0277392Y0250396D01*
X0277411Y0250367D01*
X0277433Y0250340D01*
X0277457Y0250316D01*
X0277484Y0250294D01*
X0277514Y0250275D01*
X0277545Y0250259D01*
X0277577Y0250246D01*
X0277611Y0250237D01*
X0277645Y0250232D01*
X0277680Y0250230D01*
X0278513Y0250230D01*
X0278548Y0250232D01*
X0278582Y0250237D01*
X0278616Y0250246D01*
X0278648Y0250259D01*
X0278680Y0250275D01*
X0278709Y0250294D01*
X0278736Y0250316D01*
X0278760Y0250340D01*
X0278782Y0250367D01*
X0278801Y0250397D01*
X0278817Y0250428D01*
X0278830Y0250460D01*
X0278839Y0250494D01*
X0278844Y0250528D01*
X0278846Y0250563D01*
X0278846Y0250896D01*
X0278846Y0251433D02*
X0278846Y0252267D01*
X0278846Y0251850D02*
X0277346Y0251850D01*
X0277680Y0251433D01*
X0277680Y0252873D02*
X0277346Y0253290D01*
X0278846Y0253290D01*
X0278846Y0252873D02*
X0278846Y0253707D01*
X0278513Y0257230D02*
X0277680Y0257230D01*
X0277645Y0257232D01*
X0277611Y0257237D01*
X0277577Y0257246D01*
X0277545Y0257259D01*
X0277514Y0257275D01*
X0277484Y0257294D01*
X0277457Y0257316D01*
X0277433Y0257340D01*
X0277411Y0257367D01*
X0277392Y0257396D01*
X0277376Y0257428D01*
X0277363Y0257460D01*
X0277354Y0257494D01*
X0277349Y0257528D01*
X0277347Y0257563D01*
X0277346Y0257563D02*
X0277346Y0257896D01*
X0277680Y0258517D02*
X0277715Y0258519D01*
X0277749Y0258524D01*
X0277783Y0258533D01*
X0277815Y0258546D01*
X0277847Y0258562D01*
X0277876Y0258581D01*
X0277903Y0258603D01*
X0277927Y0258627D01*
X0277949Y0258654D01*
X0277968Y0258684D01*
X0277984Y0258715D01*
X0277997Y0258747D01*
X0278006Y0258781D01*
X0278011Y0258815D01*
X0278013Y0258850D01*
X0278011Y0258885D01*
X0278006Y0258919D01*
X0277997Y0258953D01*
X0277984Y0258985D01*
X0277968Y0259017D01*
X0277949Y0259046D01*
X0277927Y0259073D01*
X0277903Y0259097D01*
X0277876Y0259119D01*
X0277847Y0259138D01*
X0277815Y0259154D01*
X0277783Y0259167D01*
X0277749Y0259176D01*
X0277715Y0259181D01*
X0277680Y0259183D01*
X0277645Y0259181D01*
X0277611Y0259176D01*
X0277577Y0259167D01*
X0277545Y0259154D01*
X0277514Y0259138D01*
X0277484Y0259119D01*
X0277457Y0259097D01*
X0277433Y0259073D01*
X0277411Y0259046D01*
X0277392Y0259017D01*
X0277376Y0258985D01*
X0277363Y0258953D01*
X0277354Y0258919D01*
X0277349Y0258885D01*
X0277347Y0258850D01*
X0277349Y0258815D01*
X0277354Y0258781D01*
X0277363Y0258747D01*
X0277376Y0258715D01*
X0277392Y0258684D01*
X0277411Y0258654D01*
X0277433Y0258627D01*
X0277457Y0258603D01*
X0277484Y0258581D01*
X0277514Y0258562D01*
X0277545Y0258546D01*
X0277577Y0258533D01*
X0277611Y0258524D01*
X0277645Y0258519D01*
X0277680Y0258517D01*
X0278430Y0258433D02*
X0278470Y0258435D01*
X0278509Y0258441D01*
X0278547Y0258450D01*
X0278585Y0258463D01*
X0278621Y0258479D01*
X0278655Y0258499D01*
X0278688Y0258522D01*
X0278718Y0258548D01*
X0278745Y0258577D01*
X0278770Y0258608D01*
X0278791Y0258642D01*
X0278809Y0258677D01*
X0278824Y0258714D01*
X0278835Y0258752D01*
X0278843Y0258791D01*
X0278847Y0258830D01*
X0278847Y0258870D01*
X0278843Y0258909D01*
X0278835Y0258948D01*
X0278824Y0258986D01*
X0278809Y0259023D01*
X0278791Y0259059D01*
X0278770Y0259092D01*
X0278745Y0259123D01*
X0278718Y0259152D01*
X0278688Y0259178D01*
X0278655Y0259201D01*
X0278621Y0259221D01*
X0278585Y0259237D01*
X0278547Y0259250D01*
X0278509Y0259259D01*
X0278470Y0259265D01*
X0278430Y0259267D01*
X0278390Y0259265D01*
X0278351Y0259259D01*
X0278313Y0259250D01*
X0278275Y0259237D01*
X0278239Y0259221D01*
X0278205Y0259201D01*
X0278172Y0259178D01*
X0278142Y0259152D01*
X0278115Y0259123D01*
X0278090Y0259092D01*
X0278069Y0259059D01*
X0278051Y0259023D01*
X0278036Y0258986D01*
X0278025Y0258948D01*
X0278017Y0258909D01*
X0278013Y0258870D01*
X0278013Y0258830D01*
X0278017Y0258791D01*
X0278025Y0258752D01*
X0278036Y0258714D01*
X0278051Y0258677D01*
X0278069Y0258642D01*
X0278090Y0258608D01*
X0278115Y0258577D01*
X0278142Y0258548D01*
X0278172Y0258522D01*
X0278205Y0258499D01*
X0278239Y0258479D01*
X0278275Y0258463D01*
X0278313Y0258450D01*
X0278351Y0258441D01*
X0278390Y0258435D01*
X0278430Y0258433D01*
X0278846Y0257896D02*
X0278846Y0257563D01*
X0278844Y0257528D01*
X0278839Y0257494D01*
X0278830Y0257460D01*
X0278817Y0257428D01*
X0278801Y0257397D01*
X0278782Y0257367D01*
X0278760Y0257340D01*
X0278736Y0257316D01*
X0278709Y0257294D01*
X0278680Y0257275D01*
X0278648Y0257259D01*
X0278616Y0257246D01*
X0278582Y0257237D01*
X0278548Y0257232D01*
X0278513Y0257230D01*
X0278513Y0264230D02*
X0277680Y0264230D01*
X0277645Y0264232D01*
X0277611Y0264237D01*
X0277577Y0264246D01*
X0277545Y0264259D01*
X0277514Y0264275D01*
X0277484Y0264294D01*
X0277457Y0264316D01*
X0277433Y0264340D01*
X0277411Y0264367D01*
X0277392Y0264396D01*
X0277376Y0264428D01*
X0277363Y0264460D01*
X0277354Y0264494D01*
X0277349Y0264528D01*
X0277347Y0264563D01*
X0277346Y0264563D02*
X0277346Y0264896D01*
X0277763Y0265433D02*
X0277846Y0265433D01*
X0277846Y0265434D02*
X0277881Y0265436D01*
X0277915Y0265441D01*
X0277949Y0265450D01*
X0277981Y0265463D01*
X0278012Y0265479D01*
X0278042Y0265498D01*
X0278069Y0265520D01*
X0278093Y0265544D01*
X0278115Y0265571D01*
X0278134Y0265600D01*
X0278150Y0265632D01*
X0278163Y0265664D01*
X0278172Y0265698D01*
X0278177Y0265732D01*
X0278179Y0265767D01*
X0278180Y0265767D02*
X0278180Y0266267D01*
X0277763Y0266267D01*
X0277723Y0266265D01*
X0277684Y0266259D01*
X0277646Y0266250D01*
X0277608Y0266237D01*
X0277572Y0266221D01*
X0277538Y0266201D01*
X0277505Y0266178D01*
X0277475Y0266152D01*
X0277448Y0266123D01*
X0277423Y0266092D01*
X0277402Y0266059D01*
X0277384Y0266023D01*
X0277369Y0265986D01*
X0277358Y0265948D01*
X0277350Y0265909D01*
X0277346Y0265870D01*
X0277346Y0265830D01*
X0277350Y0265791D01*
X0277358Y0265752D01*
X0277369Y0265714D01*
X0277384Y0265677D01*
X0277402Y0265642D01*
X0277423Y0265608D01*
X0277448Y0265577D01*
X0277475Y0265548D01*
X0277505Y0265522D01*
X0277538Y0265499D01*
X0277572Y0265479D01*
X0277608Y0265463D01*
X0277646Y0265450D01*
X0277684Y0265441D01*
X0277723Y0265435D01*
X0277763Y0265433D01*
X0278180Y0266267D02*
X0278230Y0266265D01*
X0278279Y0266260D01*
X0278328Y0266250D01*
X0278377Y0266237D01*
X0278424Y0266221D01*
X0278469Y0266201D01*
X0278514Y0266178D01*
X0278556Y0266151D01*
X0278596Y0266121D01*
X0278634Y0266089D01*
X0278669Y0266054D01*
X0278701Y0266016D01*
X0278731Y0265976D01*
X0278758Y0265934D01*
X0278781Y0265889D01*
X0278801Y0265844D01*
X0278817Y0265797D01*
X0278830Y0265748D01*
X0278840Y0265699D01*
X0278845Y0265650D01*
X0278847Y0265600D01*
X0278846Y0264896D02*
X0278846Y0264563D01*
X0278844Y0264528D01*
X0278839Y0264494D01*
X0278830Y0264460D01*
X0278817Y0264428D01*
X0278801Y0264397D01*
X0278782Y0264367D01*
X0278760Y0264340D01*
X0278736Y0264316D01*
X0278709Y0264294D01*
X0278680Y0264275D01*
X0278648Y0264259D01*
X0278616Y0264246D01*
X0278582Y0264237D01*
X0278548Y0264232D01*
X0278513Y0264230D01*
X0277776Y0278528D02*
X0277359Y0278528D01*
X0277776Y0278527D02*
X0277816Y0278529D01*
X0277855Y0278535D01*
X0277893Y0278544D01*
X0277931Y0278557D01*
X0277967Y0278573D01*
X0278001Y0278593D01*
X0278034Y0278616D01*
X0278064Y0278642D01*
X0278091Y0278671D01*
X0278116Y0278702D01*
X0278137Y0278736D01*
X0278155Y0278771D01*
X0278170Y0278808D01*
X0278181Y0278846D01*
X0278189Y0278885D01*
X0278193Y0278924D01*
X0278193Y0278964D01*
X0278189Y0279003D01*
X0278181Y0279042D01*
X0278170Y0279080D01*
X0278155Y0279117D01*
X0278137Y0279153D01*
X0278116Y0279186D01*
X0278091Y0279217D01*
X0278064Y0279246D01*
X0278034Y0279272D01*
X0278001Y0279295D01*
X0277967Y0279315D01*
X0277931Y0279331D01*
X0277893Y0279344D01*
X0277855Y0279353D01*
X0277816Y0279359D01*
X0277776Y0279361D01*
X0277859Y0279361D02*
X0277526Y0279361D01*
X0277859Y0279361D02*
X0277894Y0279363D01*
X0277928Y0279368D01*
X0277962Y0279377D01*
X0277994Y0279390D01*
X0278026Y0279406D01*
X0278055Y0279425D01*
X0278082Y0279447D01*
X0278106Y0279471D01*
X0278128Y0279498D01*
X0278147Y0279528D01*
X0278163Y0279559D01*
X0278176Y0279591D01*
X0278185Y0279625D01*
X0278190Y0279659D01*
X0278192Y0279694D01*
X0278190Y0279729D01*
X0278185Y0279763D01*
X0278176Y0279797D01*
X0278163Y0279829D01*
X0278147Y0279861D01*
X0278128Y0279890D01*
X0278106Y0279917D01*
X0278082Y0279941D01*
X0278055Y0279963D01*
X0278026Y0279982D01*
X0277994Y0279998D01*
X0277962Y0280011D01*
X0277928Y0280020D01*
X0277894Y0280025D01*
X0277859Y0280027D01*
X0277859Y0280028D02*
X0277359Y0280028D01*
X0276336Y0280028D02*
X0276336Y0278528D01*
X0276752Y0278528D02*
X0275919Y0278528D01*
X0275382Y0278528D02*
X0275049Y0278528D01*
X0275014Y0278530D01*
X0274980Y0278535D01*
X0274946Y0278544D01*
X0274914Y0278557D01*
X0274883Y0278573D01*
X0274853Y0278592D01*
X0274826Y0278614D01*
X0274802Y0278638D01*
X0274780Y0278665D01*
X0274761Y0278695D01*
X0274745Y0278726D01*
X0274732Y0278758D01*
X0274723Y0278792D01*
X0274718Y0278826D01*
X0274716Y0278861D01*
X0274715Y0278861D02*
X0274715Y0279694D01*
X0274716Y0279694D02*
X0274718Y0279729D01*
X0274723Y0279763D01*
X0274732Y0279797D01*
X0274745Y0279829D01*
X0274761Y0279860D01*
X0274780Y0279890D01*
X0274802Y0279917D01*
X0274826Y0279941D01*
X0274853Y0279963D01*
X0274882Y0279982D01*
X0274914Y0279998D01*
X0274946Y0280011D01*
X0274980Y0280020D01*
X0275014Y0280025D01*
X0275049Y0280027D01*
X0275049Y0280028D02*
X0275382Y0280028D01*
X0275919Y0279694D02*
X0276336Y0280028D01*
X0276336Y0287028D02*
X0276336Y0288528D01*
X0275919Y0288194D01*
X0275382Y0288528D02*
X0275049Y0288528D01*
X0275049Y0288527D02*
X0275014Y0288525D01*
X0274980Y0288520D01*
X0274946Y0288511D01*
X0274914Y0288498D01*
X0274882Y0288482D01*
X0274853Y0288463D01*
X0274826Y0288441D01*
X0274802Y0288417D01*
X0274780Y0288390D01*
X0274761Y0288360D01*
X0274745Y0288329D01*
X0274732Y0288297D01*
X0274723Y0288263D01*
X0274718Y0288229D01*
X0274716Y0288194D01*
X0274715Y0288194D02*
X0274715Y0287361D01*
X0274716Y0287361D02*
X0274718Y0287326D01*
X0274723Y0287292D01*
X0274732Y0287258D01*
X0274745Y0287226D01*
X0274761Y0287195D01*
X0274780Y0287165D01*
X0274802Y0287138D01*
X0274826Y0287114D01*
X0274853Y0287092D01*
X0274883Y0287073D01*
X0274914Y0287057D01*
X0274946Y0287044D01*
X0274980Y0287035D01*
X0275014Y0287030D01*
X0275049Y0287028D01*
X0275382Y0287028D01*
X0275919Y0287028D02*
X0276752Y0287028D01*
X0277359Y0287028D02*
X0278192Y0287028D01*
X0277359Y0287028D02*
X0278067Y0287861D01*
X0277817Y0288528D02*
X0277777Y0288526D01*
X0277737Y0288521D01*
X0277697Y0288513D01*
X0277658Y0288501D01*
X0277621Y0288486D01*
X0277585Y0288468D01*
X0277550Y0288447D01*
X0277517Y0288424D01*
X0277487Y0288397D01*
X0277459Y0288368D01*
X0277433Y0288337D01*
X0277410Y0288304D01*
X0277390Y0288269D01*
X0277372Y0288232D01*
X0277358Y0288194D01*
X0278068Y0287861D02*
X0278093Y0287887D01*
X0278116Y0287916D01*
X0278136Y0287946D01*
X0278153Y0287978D01*
X0278167Y0288011D01*
X0278178Y0288046D01*
X0278186Y0288081D01*
X0278191Y0288117D01*
X0278193Y0288153D01*
X0278192Y0288153D02*
X0278190Y0288190D01*
X0278185Y0288226D01*
X0278176Y0288262D01*
X0278163Y0288297D01*
X0278148Y0288330D01*
X0278129Y0288361D01*
X0278107Y0288391D01*
X0278082Y0288418D01*
X0278055Y0288443D01*
X0278025Y0288465D01*
X0277994Y0288484D01*
X0277961Y0288499D01*
X0277926Y0288512D01*
X0277890Y0288521D01*
X0277854Y0288526D01*
X0277817Y0288528D01*
X0253846Y0289063D02*
X0253846Y0289396D01*
X0253846Y0289063D02*
X0253844Y0289028D01*
X0253839Y0288994D01*
X0253830Y0288960D01*
X0253817Y0288928D01*
X0253801Y0288897D01*
X0253782Y0288867D01*
X0253760Y0288840D01*
X0253736Y0288816D01*
X0253709Y0288794D01*
X0253680Y0288775D01*
X0253648Y0288759D01*
X0253616Y0288746D01*
X0253582Y0288737D01*
X0253548Y0288732D01*
X0253513Y0288730D01*
X0252680Y0288730D01*
X0252645Y0288732D01*
X0252611Y0288737D01*
X0252577Y0288746D01*
X0252545Y0288759D01*
X0252514Y0288775D01*
X0252484Y0288794D01*
X0252457Y0288816D01*
X0252433Y0288840D01*
X0252411Y0288867D01*
X0252392Y0288896D01*
X0252376Y0288928D01*
X0252363Y0288960D01*
X0252354Y0288994D01*
X0252349Y0289028D01*
X0252347Y0289063D01*
X0252346Y0289063D02*
X0252346Y0289396D01*
X0252680Y0289933D02*
X0252346Y0290350D01*
X0253846Y0290350D01*
X0253846Y0289933D02*
X0253846Y0290767D01*
X0253430Y0291373D02*
X0253470Y0291375D01*
X0253509Y0291381D01*
X0253547Y0291390D01*
X0253585Y0291403D01*
X0253621Y0291419D01*
X0253655Y0291439D01*
X0253688Y0291462D01*
X0253718Y0291488D01*
X0253745Y0291517D01*
X0253770Y0291548D01*
X0253791Y0291582D01*
X0253809Y0291617D01*
X0253824Y0291654D01*
X0253835Y0291692D01*
X0253843Y0291731D01*
X0253847Y0291770D01*
X0253847Y0291810D01*
X0253843Y0291849D01*
X0253835Y0291888D01*
X0253824Y0291926D01*
X0253809Y0291963D01*
X0253791Y0291999D01*
X0253770Y0292032D01*
X0253745Y0292063D01*
X0253718Y0292092D01*
X0253688Y0292118D01*
X0253655Y0292141D01*
X0253621Y0292161D01*
X0253585Y0292177D01*
X0253547Y0292190D01*
X0253509Y0292199D01*
X0253470Y0292205D01*
X0253430Y0292207D01*
X0253390Y0292205D01*
X0253351Y0292199D01*
X0253313Y0292190D01*
X0253275Y0292177D01*
X0253239Y0292161D01*
X0253205Y0292141D01*
X0253172Y0292118D01*
X0253142Y0292092D01*
X0253115Y0292063D01*
X0253090Y0292032D01*
X0253069Y0291999D01*
X0253051Y0291963D01*
X0253036Y0291926D01*
X0253025Y0291888D01*
X0253017Y0291849D01*
X0253013Y0291810D01*
X0253013Y0291770D01*
X0253017Y0291731D01*
X0253025Y0291692D01*
X0253036Y0291654D01*
X0253051Y0291617D01*
X0253069Y0291582D01*
X0253090Y0291548D01*
X0253115Y0291517D01*
X0253142Y0291488D01*
X0253172Y0291462D01*
X0253205Y0291439D01*
X0253239Y0291419D01*
X0253275Y0291403D01*
X0253313Y0291390D01*
X0253351Y0291381D01*
X0253390Y0291375D01*
X0253430Y0291373D01*
X0252680Y0291457D02*
X0252715Y0291459D01*
X0252749Y0291464D01*
X0252783Y0291473D01*
X0252815Y0291486D01*
X0252847Y0291502D01*
X0252876Y0291521D01*
X0252903Y0291543D01*
X0252927Y0291567D01*
X0252949Y0291594D01*
X0252968Y0291624D01*
X0252984Y0291655D01*
X0252997Y0291687D01*
X0253006Y0291721D01*
X0253011Y0291755D01*
X0253013Y0291790D01*
X0253011Y0291825D01*
X0253006Y0291859D01*
X0252997Y0291893D01*
X0252984Y0291925D01*
X0252968Y0291957D01*
X0252949Y0291986D01*
X0252927Y0292013D01*
X0252903Y0292037D01*
X0252876Y0292059D01*
X0252847Y0292078D01*
X0252815Y0292094D01*
X0252783Y0292107D01*
X0252749Y0292116D01*
X0252715Y0292121D01*
X0252680Y0292123D01*
X0252645Y0292121D01*
X0252611Y0292116D01*
X0252577Y0292107D01*
X0252545Y0292094D01*
X0252514Y0292078D01*
X0252484Y0292059D01*
X0252457Y0292037D01*
X0252433Y0292013D01*
X0252411Y0291986D01*
X0252392Y0291957D01*
X0252376Y0291925D01*
X0252363Y0291893D01*
X0252354Y0291859D01*
X0252349Y0291825D01*
X0252347Y0291790D01*
X0252349Y0291755D01*
X0252354Y0291721D01*
X0252363Y0291687D01*
X0252376Y0291655D01*
X0252392Y0291624D01*
X0252411Y0291594D01*
X0252433Y0291567D01*
X0252457Y0291543D01*
X0252484Y0291521D01*
X0252514Y0291502D01*
X0252545Y0291486D01*
X0252577Y0291473D01*
X0252611Y0291464D01*
X0252645Y0291459D01*
X0252680Y0291457D01*
X0245484Y0278309D02*
X0243984Y0278726D01*
X0243984Y0277892D01*
X0244151Y0277892D01*
X0243984Y0276869D02*
X0245484Y0276869D01*
X0245484Y0276452D02*
X0245484Y0277286D01*
X0245484Y0275915D02*
X0245484Y0275582D01*
X0245482Y0275547D01*
X0245477Y0275513D01*
X0245468Y0275479D01*
X0245455Y0275447D01*
X0245439Y0275416D01*
X0245420Y0275386D01*
X0245398Y0275359D01*
X0245374Y0275335D01*
X0245347Y0275313D01*
X0245318Y0275294D01*
X0245286Y0275278D01*
X0245254Y0275265D01*
X0245220Y0275256D01*
X0245186Y0275251D01*
X0245151Y0275249D01*
X0244318Y0275249D01*
X0244283Y0275251D01*
X0244249Y0275256D01*
X0244215Y0275265D01*
X0244183Y0275278D01*
X0244152Y0275294D01*
X0244122Y0275313D01*
X0244095Y0275335D01*
X0244071Y0275359D01*
X0244049Y0275386D01*
X0244030Y0275415D01*
X0244014Y0275447D01*
X0244001Y0275479D01*
X0243992Y0275513D01*
X0243987Y0275547D01*
X0243985Y0275582D01*
X0243984Y0275582D02*
X0243984Y0275915D01*
X0244318Y0276452D02*
X0243984Y0276869D01*
X0334148Y0133659D02*
X0334565Y0133659D01*
X0334148Y0133659D02*
X0334148Y0132159D01*
X0334148Y0132825D02*
X0334565Y0132825D01*
X0334648Y0132825D02*
X0334982Y0132159D01*
X0335580Y0132159D02*
X0336080Y0132159D01*
X0336115Y0132161D01*
X0336149Y0132166D01*
X0336183Y0132175D01*
X0336215Y0132188D01*
X0336247Y0132204D01*
X0336276Y0132223D01*
X0336303Y0132245D01*
X0336327Y0132269D01*
X0336349Y0132296D01*
X0336368Y0132326D01*
X0336384Y0132357D01*
X0336397Y0132389D01*
X0336406Y0132423D01*
X0336411Y0132457D01*
X0336413Y0132492D01*
X0336413Y0132659D01*
X0336411Y0132694D01*
X0336406Y0132728D01*
X0336397Y0132762D01*
X0336384Y0132794D01*
X0336368Y0132826D01*
X0336349Y0132855D01*
X0336327Y0132882D01*
X0336303Y0132906D01*
X0336276Y0132928D01*
X0336247Y0132947D01*
X0336215Y0132963D01*
X0336183Y0132976D01*
X0336149Y0132985D01*
X0336115Y0132990D01*
X0336080Y0132992D01*
X0335580Y0132992D01*
X0335580Y0133659D01*
X0336413Y0133659D01*
X0334565Y0133659D02*
X0334605Y0133657D01*
X0334644Y0133651D01*
X0334682Y0133642D01*
X0334720Y0133629D01*
X0334756Y0133613D01*
X0334790Y0133593D01*
X0334823Y0133570D01*
X0334853Y0133544D01*
X0334880Y0133515D01*
X0334905Y0133484D01*
X0334926Y0133451D01*
X0334944Y0133415D01*
X0334959Y0133378D01*
X0334970Y0133340D01*
X0334978Y0133301D01*
X0334982Y0133262D01*
X0334982Y0133222D01*
X0334978Y0133183D01*
X0334970Y0133144D01*
X0334959Y0133106D01*
X0334944Y0133069D01*
X0334926Y0133034D01*
X0334905Y0133000D01*
X0334880Y0132969D01*
X0334853Y0132940D01*
X0334823Y0132914D01*
X0334790Y0132891D01*
X0334756Y0132871D01*
X0334720Y0132855D01*
X0334682Y0132842D01*
X0334644Y0132833D01*
X0334605Y0132827D01*
X0334565Y0132825D01*
D26*
X0284889Y0273981D03*
X0284889Y0282481D03*
X0274442Y0282474D03*
X0274442Y0273974D03*
D27*
X0285173Y0240970D02*
X0285173Y0231915D01*
X0285173Y0224041D02*
X0285173Y0214986D01*
X0304465Y0214986D01*
X0311157Y0221679D01*
X0311157Y0224041D01*
X0316866Y0224970D02*
X0310173Y0218277D01*
X0310173Y0215915D01*
X0310173Y0208041D02*
X0310173Y0205679D01*
X0316866Y0198986D01*
X0336157Y0198986D01*
X0336157Y0208041D01*
X0336157Y0215915D02*
X0336157Y0224970D01*
X0316866Y0224970D01*
X0311157Y0231915D02*
X0311157Y0234277D01*
X0304465Y0240970D01*
X0285173Y0240970D01*
D28*
X0325165Y0170978D03*
X0325165Y0160978D03*
X0335165Y0160978D03*
X0335165Y0170978D03*
X0345165Y0170978D03*
X0345165Y0160978D03*
X0345165Y0115978D03*
X0345165Y0105978D03*
X0345165Y0095978D03*
X0345165Y0085978D03*
X0345165Y0075978D03*
X0345165Y0065978D03*
X0345165Y0055978D03*
X0345165Y0045978D03*
X0311165Y0034978D03*
X0301165Y0034978D03*
X0301165Y0024978D03*
X0301165Y0014978D03*
X0311165Y0014978D03*
X0311165Y0024978D03*
X0231165Y0022978D03*
X0231165Y0032978D03*
X0231165Y0012978D03*
D29*
X0232665Y0234978D03*
X0232665Y0244978D03*
X0232665Y0254978D03*
X0232665Y0264978D03*
X0232665Y0274978D03*
X0232665Y0284978D03*
M02*
