G75*
%MOIN*%
%OFA0B0*%
%FSLAX25Y25*%
%IPPOS*%
%LPD*%
%AMOC8*
5,1,8,0,0,1.08239X$1,22.5*
%
%ADD10C,0.00000*%
%ADD11C,0.07400*%
%ADD12C,0.10050*%
%ADD13C,0.07800*%
%ADD14C,0.01600*%
%ADD15C,0.02781*%
D10*
X0006800Y0006800D02*
X0006800Y0119005D01*
X0315855Y0119005D01*
X0315855Y0006800D01*
X0006800Y0006800D01*
D11*
X0020304Y0029713D03*
X0020304Y0039713D03*
X0019713Y0075422D03*
X0019713Y0085422D03*
X0161643Y0020383D03*
X0171643Y0020383D03*
X0199005Y0051013D03*
X0209005Y0051013D03*
X0209792Y0091957D03*
X0199792Y0091957D03*
X0283887Y0092154D03*
X0283887Y0082154D03*
X0284320Y0051800D03*
X0284320Y0041800D03*
D12*
X0088946Y0049925D02*
X0088946Y0059975D01*
X0073946Y0059975D02*
X0073946Y0049925D01*
X0055447Y0054772D02*
X0045397Y0054772D01*
X0045397Y0039772D02*
X0055447Y0039772D01*
X0058237Y0080240D02*
X0058237Y0090290D01*
X0043237Y0090290D02*
X0043237Y0080240D01*
D13*
X0158217Y0078850D02*
X0158217Y0071050D01*
X0232391Y0073176D02*
X0232391Y0080976D01*
X0246564Y0044361D02*
X0246564Y0036561D01*
D14*
X0241682Y0033975D02*
X0058762Y0033975D01*
X0059200Y0034156D02*
X0061063Y0036020D01*
X0062072Y0038455D01*
X0062072Y0041090D01*
X0061063Y0043525D01*
X0059200Y0045389D01*
X0056765Y0046397D01*
X0044079Y0046397D01*
X0041644Y0045389D01*
X0039781Y0043525D01*
X0038772Y0041090D01*
X0038772Y0038455D01*
X0039781Y0036020D01*
X0041644Y0034156D01*
X0044079Y0033147D01*
X0056765Y0033147D01*
X0059200Y0034156D01*
X0060617Y0035573D02*
X0241064Y0035573D01*
X0241064Y0035467D02*
X0241901Y0033446D01*
X0243448Y0031899D01*
X0245470Y0031061D01*
X0247658Y0031061D01*
X0249679Y0031899D01*
X0251226Y0033446D01*
X0252064Y0035467D01*
X0252064Y0045455D01*
X0251226Y0047477D01*
X0249679Y0049024D01*
X0247658Y0049861D01*
X0245470Y0049861D01*
X0243448Y0049024D01*
X0241901Y0047477D01*
X0241064Y0045455D01*
X0241064Y0035467D01*
X0241064Y0037172D02*
X0061541Y0037172D01*
X0062072Y0038770D02*
X0241064Y0038770D01*
X0241064Y0040369D02*
X0062072Y0040369D01*
X0061709Y0041967D02*
X0241064Y0041967D01*
X0241064Y0043566D02*
X0090906Y0043566D01*
X0090263Y0043300D02*
X0092698Y0044308D01*
X0094562Y0046172D01*
X0095571Y0048607D01*
X0095571Y0061292D01*
X0094562Y0063727D01*
X0092698Y0065591D01*
X0090263Y0066600D01*
X0087628Y0066600D01*
X0085193Y0065591D01*
X0083329Y0063727D01*
X0082321Y0061292D01*
X0082321Y0048607D01*
X0083329Y0046172D01*
X0085193Y0044308D01*
X0087628Y0043300D01*
X0090263Y0043300D01*
X0086985Y0043566D02*
X0075906Y0043566D01*
X0075263Y0043300D02*
X0077698Y0044308D01*
X0079562Y0046172D01*
X0080571Y0048607D01*
X0080571Y0061292D01*
X0079562Y0063727D01*
X0077698Y0065591D01*
X0075263Y0066600D01*
X0072628Y0066600D01*
X0070193Y0065591D01*
X0068329Y0063727D01*
X0067321Y0061292D01*
X0067321Y0048607D01*
X0068329Y0046172D01*
X0070193Y0044308D01*
X0072628Y0043300D01*
X0075263Y0043300D01*
X0071985Y0043566D02*
X0061023Y0043566D01*
X0059424Y0045164D02*
X0069337Y0045164D01*
X0068084Y0046763D02*
X0011600Y0046763D01*
X0011600Y0048361D02*
X0043563Y0048361D01*
X0044079Y0048147D02*
X0056765Y0048147D01*
X0059200Y0049156D01*
X0061063Y0051020D01*
X0062072Y0053455D01*
X0062072Y0056090D01*
X0061063Y0058525D01*
X0059200Y0060389D01*
X0056765Y0061397D01*
X0044079Y0061397D01*
X0041644Y0060389D01*
X0039781Y0058525D01*
X0038772Y0056090D01*
X0038772Y0053455D01*
X0039781Y0051020D01*
X0041644Y0049156D01*
X0044079Y0048147D01*
X0040841Y0049960D02*
X0011600Y0049960D01*
X0011600Y0051558D02*
X0039558Y0051558D01*
X0038895Y0053157D02*
X0011600Y0053157D01*
X0011600Y0054755D02*
X0038772Y0054755D01*
X0038881Y0056354D02*
X0011600Y0056354D01*
X0011600Y0057952D02*
X0039543Y0057952D01*
X0040806Y0059551D02*
X0011600Y0059551D01*
X0011600Y0061149D02*
X0043480Y0061149D01*
X0057364Y0061149D02*
X0067321Y0061149D01*
X0067321Y0059551D02*
X0060038Y0059551D01*
X0061301Y0057952D02*
X0067321Y0057952D01*
X0067321Y0056354D02*
X0061963Y0056354D01*
X0062072Y0054755D02*
X0067321Y0054755D01*
X0067321Y0053157D02*
X0061949Y0053157D01*
X0061287Y0051558D02*
X0067321Y0051558D01*
X0067321Y0049960D02*
X0060004Y0049960D01*
X0057281Y0048361D02*
X0067422Y0048361D01*
X0078554Y0045164D02*
X0084337Y0045164D01*
X0083084Y0046763D02*
X0079807Y0046763D01*
X0080469Y0048361D02*
X0082422Y0048361D01*
X0082321Y0049960D02*
X0080571Y0049960D01*
X0080571Y0051558D02*
X0082321Y0051558D01*
X0082321Y0053157D02*
X0080571Y0053157D01*
X0080571Y0054755D02*
X0082321Y0054755D01*
X0082321Y0056354D02*
X0080571Y0056354D01*
X0080571Y0057952D02*
X0082321Y0057952D01*
X0082321Y0059551D02*
X0080571Y0059551D01*
X0080571Y0061149D02*
X0082321Y0061149D01*
X0082924Y0062748D02*
X0079968Y0062748D01*
X0078943Y0064346D02*
X0083948Y0064346D01*
X0086047Y0065945D02*
X0076844Y0065945D01*
X0071047Y0065945D02*
X0011600Y0065945D01*
X0011600Y0067543D02*
X0153945Y0067543D01*
X0153555Y0067934D02*
X0155102Y0066387D01*
X0157123Y0065550D01*
X0159311Y0065550D01*
X0161333Y0066387D01*
X0162880Y0067934D01*
X0163717Y0069956D01*
X0163717Y0079944D01*
X0162880Y0081965D01*
X0161333Y0083512D01*
X0159311Y0084350D01*
X0157123Y0084350D01*
X0155102Y0083512D01*
X0153555Y0081965D01*
X0152717Y0079944D01*
X0152717Y0069956D01*
X0153555Y0067934D01*
X0153054Y0069142D02*
X0011600Y0069142D01*
X0011600Y0070740D02*
X0017166Y0070740D01*
X0016711Y0070929D02*
X0018659Y0070122D01*
X0020768Y0070122D01*
X0022716Y0070929D01*
X0024206Y0072420D01*
X0025013Y0074368D01*
X0025013Y0076476D01*
X0024206Y0078424D01*
X0022716Y0079915D01*
X0021492Y0080422D01*
X0022716Y0080929D01*
X0024206Y0082420D01*
X0025013Y0084368D01*
X0025013Y0086476D01*
X0024206Y0088424D01*
X0022716Y0089915D01*
X0020768Y0090722D01*
X0018659Y0090722D01*
X0016711Y0089915D01*
X0015220Y0088424D01*
X0014413Y0086476D01*
X0014413Y0084368D01*
X0015220Y0082420D01*
X0016711Y0080929D01*
X0017935Y0080422D01*
X0016711Y0079915D01*
X0015220Y0078424D01*
X0014413Y0076476D01*
X0014413Y0074368D01*
X0015220Y0072420D01*
X0016711Y0070929D01*
X0015301Y0072339D02*
X0011600Y0072339D01*
X0011600Y0073937D02*
X0014592Y0073937D01*
X0014413Y0075536D02*
X0011600Y0075536D01*
X0011600Y0077134D02*
X0014686Y0077134D01*
X0015529Y0078733D02*
X0011600Y0078733D01*
X0011600Y0080332D02*
X0017716Y0080332D01*
X0015710Y0081930D02*
X0011600Y0081930D01*
X0011600Y0083529D02*
X0014761Y0083529D01*
X0014413Y0085127D02*
X0011600Y0085127D01*
X0011600Y0086726D02*
X0014517Y0086726D01*
X0015179Y0088324D02*
X0011600Y0088324D01*
X0011600Y0089923D02*
X0016729Y0089923D01*
X0011600Y0091521D02*
X0036612Y0091521D01*
X0036612Y0091607D02*
X0036612Y0078922D01*
X0037621Y0076487D01*
X0039484Y0074623D01*
X0041919Y0073615D01*
X0044555Y0073615D01*
X0046990Y0074623D01*
X0048853Y0076487D01*
X0049862Y0078922D01*
X0049862Y0091607D01*
X0048853Y0094042D01*
X0046990Y0095906D01*
X0044555Y0096915D01*
X0041919Y0096915D01*
X0039484Y0095906D01*
X0037621Y0094042D01*
X0036612Y0091607D01*
X0037238Y0093120D02*
X0011600Y0093120D01*
X0011600Y0094718D02*
X0038296Y0094718D01*
X0040476Y0096317D02*
X0011600Y0096317D01*
X0011600Y0097915D02*
X0311055Y0097915D01*
X0311055Y0096317D02*
X0287220Y0096317D01*
X0286889Y0096647D02*
X0284941Y0097454D01*
X0282832Y0097454D01*
X0280884Y0096647D01*
X0279393Y0095157D01*
X0278587Y0093209D01*
X0278587Y0091100D01*
X0279393Y0089152D01*
X0280884Y0087661D01*
X0281831Y0087269D01*
X0281775Y0087251D01*
X0281004Y0086858D01*
X0280304Y0086349D01*
X0279691Y0085737D01*
X0279183Y0085037D01*
X0278790Y0084266D01*
X0278522Y0083442D01*
X0278387Y0082587D01*
X0278387Y0082354D01*
X0283687Y0082354D01*
X0283687Y0081954D01*
X0284087Y0081954D01*
X0284087Y0082354D01*
X0289387Y0082354D01*
X0289387Y0082587D01*
X0289251Y0083442D01*
X0288984Y0084266D01*
X0288591Y0085037D01*
X0288082Y0085737D01*
X0287470Y0086349D01*
X0286769Y0086858D01*
X0285998Y0087251D01*
X0285943Y0087269D01*
X0286889Y0087661D01*
X0288380Y0089152D01*
X0289187Y0091100D01*
X0289187Y0093209D01*
X0288380Y0095157D01*
X0286889Y0096647D01*
X0288561Y0094718D02*
X0311055Y0094718D01*
X0311055Y0093120D02*
X0289187Y0093120D01*
X0289187Y0091521D02*
X0311055Y0091521D01*
X0311055Y0089923D02*
X0288699Y0089923D01*
X0287552Y0088324D02*
X0311055Y0088324D01*
X0311055Y0086726D02*
X0286952Y0086726D01*
X0288525Y0085127D02*
X0311055Y0085127D01*
X0311055Y0083529D02*
X0289223Y0083529D01*
X0289387Y0081954D02*
X0284087Y0081954D01*
X0284087Y0076654D01*
X0284319Y0076654D01*
X0285175Y0076790D01*
X0285998Y0077057D01*
X0286769Y0077450D01*
X0287470Y0077959D01*
X0288082Y0078571D01*
X0288591Y0079272D01*
X0288984Y0080043D01*
X0289251Y0080866D01*
X0289387Y0081721D01*
X0289387Y0081954D01*
X0289387Y0081930D02*
X0311055Y0081930D01*
X0311055Y0080332D02*
X0289077Y0080332D01*
X0288199Y0078733D02*
X0311055Y0078733D01*
X0311055Y0077134D02*
X0286149Y0077134D01*
X0284087Y0077134D02*
X0283687Y0077134D01*
X0283687Y0076654D02*
X0283687Y0081954D01*
X0278387Y0081954D01*
X0278387Y0081721D01*
X0278522Y0080866D01*
X0278790Y0080043D01*
X0279183Y0079272D01*
X0279691Y0078571D01*
X0280304Y0077959D01*
X0281004Y0077450D01*
X0281775Y0077057D01*
X0282599Y0076790D01*
X0283454Y0076654D01*
X0283687Y0076654D01*
X0283687Y0078733D02*
X0284087Y0078733D01*
X0284087Y0080332D02*
X0283687Y0080332D01*
X0283687Y0081930D02*
X0284087Y0081930D01*
X0279574Y0078733D02*
X0237891Y0078733D01*
X0237891Y0077134D02*
X0281624Y0077134D01*
X0278696Y0080332D02*
X0237891Y0080332D01*
X0237891Y0081930D02*
X0278387Y0081930D01*
X0278550Y0083529D02*
X0237286Y0083529D01*
X0237053Y0084091D02*
X0235506Y0085638D01*
X0233485Y0086476D01*
X0231297Y0086476D01*
X0229275Y0085638D01*
X0227728Y0084091D01*
X0226891Y0082070D01*
X0226891Y0072082D01*
X0227728Y0070060D01*
X0229275Y0068513D01*
X0231297Y0067676D01*
X0233485Y0067676D01*
X0235506Y0068513D01*
X0237053Y0070060D01*
X0237891Y0072082D01*
X0237891Y0082070D01*
X0237053Y0084091D01*
X0236017Y0085127D02*
X0279248Y0085127D01*
X0280821Y0086726D02*
X0211011Y0086726D01*
X0210846Y0086657D02*
X0212794Y0087464D01*
X0214285Y0088955D01*
X0215092Y0090903D01*
X0215092Y0093012D01*
X0214285Y0094960D01*
X0212794Y0096451D01*
X0210846Y0097257D01*
X0208738Y0097257D01*
X0206790Y0096451D01*
X0205299Y0094960D01*
X0204792Y0093736D01*
X0204285Y0094960D01*
X0202794Y0096451D01*
X0200846Y0097257D01*
X0198738Y0097257D01*
X0196790Y0096451D01*
X0195299Y0094960D01*
X0194492Y0093012D01*
X0194492Y0090903D01*
X0195299Y0088955D01*
X0196790Y0087464D01*
X0198738Y0086657D01*
X0200846Y0086657D01*
X0202794Y0087464D01*
X0204285Y0088955D01*
X0204792Y0090179D01*
X0205299Y0088955D01*
X0206790Y0087464D01*
X0208738Y0086657D01*
X0210846Y0086657D01*
X0208573Y0086726D02*
X0201011Y0086726D01*
X0198573Y0086726D02*
X0064862Y0086726D01*
X0064862Y0088324D02*
X0195930Y0088324D01*
X0194898Y0089923D02*
X0064862Y0089923D01*
X0064862Y0091521D02*
X0194492Y0091521D01*
X0194537Y0093120D02*
X0064236Y0093120D01*
X0063853Y0094042D02*
X0061990Y0095906D01*
X0059555Y0096915D01*
X0056919Y0096915D01*
X0054484Y0095906D01*
X0052621Y0094042D01*
X0051612Y0091607D01*
X0051612Y0078922D01*
X0052621Y0076487D01*
X0054484Y0074623D01*
X0056919Y0073615D01*
X0059555Y0073615D01*
X0061990Y0074623D01*
X0063853Y0076487D01*
X0064862Y0078922D01*
X0064862Y0091607D01*
X0063853Y0094042D01*
X0063178Y0094718D02*
X0195199Y0094718D01*
X0196656Y0096317D02*
X0060998Y0096317D01*
X0055476Y0096317D02*
X0045998Y0096317D01*
X0048178Y0094718D02*
X0053296Y0094718D01*
X0052238Y0093120D02*
X0049236Y0093120D01*
X0049862Y0091521D02*
X0051612Y0091521D01*
X0051612Y0089923D02*
X0049862Y0089923D01*
X0049862Y0088324D02*
X0051612Y0088324D01*
X0051612Y0086726D02*
X0049862Y0086726D01*
X0049862Y0085127D02*
X0051612Y0085127D01*
X0051612Y0083529D02*
X0049862Y0083529D01*
X0049862Y0081930D02*
X0051612Y0081930D01*
X0051612Y0080332D02*
X0049862Y0080332D01*
X0049784Y0078733D02*
X0051690Y0078733D01*
X0052352Y0077134D02*
X0049122Y0077134D01*
X0047903Y0075536D02*
X0053571Y0075536D01*
X0056140Y0073937D02*
X0045334Y0073937D01*
X0041140Y0073937D02*
X0024835Y0073937D01*
X0025013Y0075536D02*
X0038571Y0075536D01*
X0037352Y0077134D02*
X0024741Y0077134D01*
X0023898Y0078733D02*
X0036690Y0078733D01*
X0036612Y0080332D02*
X0021710Y0080332D01*
X0023717Y0081930D02*
X0036612Y0081930D01*
X0036612Y0083529D02*
X0024666Y0083529D01*
X0025013Y0085127D02*
X0036612Y0085127D01*
X0036612Y0086726D02*
X0024910Y0086726D01*
X0024248Y0088324D02*
X0036612Y0088324D01*
X0036612Y0089923D02*
X0022698Y0089923D01*
X0011600Y0099514D02*
X0311055Y0099514D01*
X0311055Y0101112D02*
X0011600Y0101112D01*
X0011600Y0102711D02*
X0311055Y0102711D01*
X0311055Y0104309D02*
X0011600Y0104309D01*
X0011600Y0105908D02*
X0311055Y0105908D01*
X0311055Y0107506D02*
X0011600Y0107506D01*
X0011600Y0109105D02*
X0311055Y0109105D01*
X0311055Y0110703D02*
X0011600Y0110703D01*
X0011600Y0112302D02*
X0311055Y0112302D01*
X0311055Y0113900D02*
X0011600Y0113900D01*
X0011600Y0114205D02*
X0311055Y0114205D01*
X0311055Y0011600D01*
X0011600Y0011600D01*
X0011600Y0114205D01*
X0064862Y0085127D02*
X0228764Y0085127D01*
X0227495Y0083529D02*
X0161294Y0083529D01*
X0162895Y0081930D02*
X0226891Y0081930D01*
X0226891Y0080332D02*
X0163557Y0080332D01*
X0163717Y0078733D02*
X0226891Y0078733D01*
X0226891Y0077134D02*
X0163717Y0077134D01*
X0163717Y0075536D02*
X0226891Y0075536D01*
X0226891Y0073937D02*
X0163717Y0073937D01*
X0163717Y0072339D02*
X0226891Y0072339D01*
X0227446Y0070740D02*
X0163717Y0070740D01*
X0163380Y0069142D02*
X0228646Y0069142D01*
X0236135Y0069142D02*
X0311055Y0069142D01*
X0311055Y0070740D02*
X0237335Y0070740D01*
X0237891Y0072339D02*
X0311055Y0072339D01*
X0311055Y0073937D02*
X0237891Y0073937D01*
X0237891Y0075536D02*
X0311055Y0075536D01*
X0311055Y0067543D02*
X0162489Y0067543D01*
X0160266Y0065945D02*
X0311055Y0065945D01*
X0311055Y0064346D02*
X0093943Y0064346D01*
X0094968Y0062748D02*
X0311055Y0062748D01*
X0311055Y0061149D02*
X0095571Y0061149D01*
X0095571Y0059551D02*
X0311055Y0059551D01*
X0311055Y0057952D02*
X0095571Y0057952D01*
X0095571Y0056354D02*
X0281464Y0056354D01*
X0281317Y0056293D02*
X0279827Y0054802D01*
X0279020Y0052854D01*
X0279020Y0050746D01*
X0279827Y0048798D01*
X0281317Y0047307D01*
X0282264Y0046915D01*
X0282208Y0046897D01*
X0281437Y0046504D01*
X0280737Y0045995D01*
X0280125Y0045383D01*
X0279616Y0044683D01*
X0279223Y0043911D01*
X0278955Y0043088D01*
X0278820Y0042233D01*
X0278820Y0042000D01*
X0284120Y0042000D01*
X0284120Y0041600D01*
X0284520Y0041600D01*
X0284520Y0042000D01*
X0289820Y0042000D01*
X0289820Y0042233D01*
X0289684Y0043088D01*
X0289417Y0043911D01*
X0289024Y0044683D01*
X0288515Y0045383D01*
X0287903Y0045995D01*
X0287202Y0046504D01*
X0286431Y0046897D01*
X0286376Y0046915D01*
X0287322Y0047307D01*
X0288813Y0048798D01*
X0289620Y0050746D01*
X0289620Y0052854D01*
X0288813Y0054802D01*
X0287322Y0056293D01*
X0285374Y0057100D01*
X0283265Y0057100D01*
X0281317Y0056293D01*
X0279807Y0054755D02*
X0212757Y0054755D01*
X0213498Y0054015D02*
X0212007Y0055506D01*
X0210059Y0056313D01*
X0207950Y0056313D01*
X0206003Y0055506D01*
X0204512Y0054015D01*
X0204005Y0052791D01*
X0203498Y0054015D01*
X0202007Y0055506D01*
X0200059Y0056313D01*
X0197950Y0056313D01*
X0196003Y0055506D01*
X0194512Y0054015D01*
X0193705Y0052067D01*
X0193705Y0049958D01*
X0194512Y0048010D01*
X0196003Y0046519D01*
X0197950Y0045713D01*
X0200059Y0045713D01*
X0202007Y0046519D01*
X0203498Y0048010D01*
X0204005Y0049234D01*
X0204512Y0048010D01*
X0206003Y0046519D01*
X0207950Y0045713D01*
X0210059Y0045713D01*
X0212007Y0046519D01*
X0213498Y0048010D01*
X0214305Y0049958D01*
X0214305Y0052067D01*
X0213498Y0054015D01*
X0213853Y0053157D02*
X0279145Y0053157D01*
X0279020Y0051558D02*
X0214305Y0051558D01*
X0214305Y0049960D02*
X0279345Y0049960D01*
X0280263Y0048361D02*
X0250342Y0048361D01*
X0251522Y0046763D02*
X0281945Y0046763D01*
X0279966Y0045164D02*
X0252064Y0045164D01*
X0252064Y0043566D02*
X0279110Y0043566D01*
X0278820Y0041600D02*
X0278820Y0041367D01*
X0278955Y0040512D01*
X0279223Y0039689D01*
X0279616Y0038917D01*
X0280125Y0038217D01*
X0280737Y0037605D01*
X0281437Y0037096D01*
X0282208Y0036703D01*
X0283032Y0036435D01*
X0283887Y0036300D01*
X0284120Y0036300D01*
X0284120Y0041600D01*
X0278820Y0041600D01*
X0279002Y0040369D02*
X0252064Y0040369D01*
X0252064Y0041967D02*
X0284120Y0041967D01*
X0284520Y0041967D02*
X0311055Y0041967D01*
X0311055Y0040369D02*
X0289638Y0040369D01*
X0289684Y0040512D02*
X0289820Y0041367D01*
X0289820Y0041600D01*
X0284520Y0041600D01*
X0284520Y0036300D01*
X0284753Y0036300D01*
X0285608Y0036435D01*
X0286431Y0036703D01*
X0287202Y0037096D01*
X0287903Y0037605D01*
X0288515Y0038217D01*
X0289024Y0038917D01*
X0289417Y0039689D01*
X0289684Y0040512D01*
X0288917Y0038770D02*
X0311055Y0038770D01*
X0311055Y0037172D02*
X0287307Y0037172D01*
X0284520Y0037172D02*
X0284120Y0037172D01*
X0284120Y0038770D02*
X0284520Y0038770D01*
X0284520Y0040369D02*
X0284120Y0040369D01*
X0281333Y0037172D02*
X0252064Y0037172D01*
X0252064Y0038770D02*
X0279723Y0038770D01*
X0289529Y0043566D02*
X0311055Y0043566D01*
X0311055Y0045164D02*
X0288674Y0045164D01*
X0286694Y0046763D02*
X0311055Y0046763D01*
X0311055Y0048361D02*
X0288376Y0048361D01*
X0289294Y0049960D02*
X0311055Y0049960D01*
X0311055Y0051558D02*
X0289620Y0051558D01*
X0289494Y0053157D02*
X0311055Y0053157D01*
X0311055Y0054755D02*
X0288832Y0054755D01*
X0287175Y0056354D02*
X0311055Y0056354D01*
X0311055Y0035573D02*
X0252064Y0035573D01*
X0251445Y0033975D02*
X0311055Y0033975D01*
X0311055Y0032376D02*
X0250157Y0032376D01*
X0242971Y0032376D02*
X0025120Y0032376D01*
X0025008Y0032596D02*
X0024499Y0033296D01*
X0023887Y0033909D01*
X0023187Y0034417D01*
X0022415Y0034810D01*
X0022360Y0034828D01*
X0023306Y0035220D01*
X0024797Y0036711D01*
X0025604Y0038659D01*
X0025604Y0040768D01*
X0024797Y0042716D01*
X0023306Y0044206D01*
X0021358Y0045013D01*
X0019250Y0045013D01*
X0017302Y0044206D01*
X0015811Y0042716D01*
X0015004Y0040768D01*
X0015004Y0038659D01*
X0015811Y0036711D01*
X0017302Y0035220D01*
X0018248Y0034828D01*
X0018193Y0034810D01*
X0017421Y0034417D01*
X0016721Y0033909D01*
X0016109Y0033296D01*
X0015600Y0032596D01*
X0015207Y0031825D01*
X0014939Y0031001D01*
X0014804Y0030146D01*
X0014804Y0029913D01*
X0020104Y0029913D01*
X0020104Y0029513D01*
X0020504Y0029513D01*
X0020504Y0024213D01*
X0020737Y0024213D01*
X0021592Y0024349D01*
X0022415Y0024616D01*
X0023187Y0025009D01*
X0023887Y0025518D01*
X0024499Y0026130D01*
X0025008Y0026831D01*
X0025401Y0027602D01*
X0025668Y0028425D01*
X0025804Y0029281D01*
X0025804Y0029513D01*
X0020504Y0029513D01*
X0020504Y0029913D01*
X0025804Y0029913D01*
X0025804Y0030146D01*
X0025668Y0031001D01*
X0025401Y0031825D01*
X0025008Y0032596D01*
X0023796Y0033975D02*
X0042082Y0033975D01*
X0040227Y0035573D02*
X0023659Y0035573D01*
X0024988Y0037172D02*
X0039303Y0037172D01*
X0038772Y0038770D02*
X0025604Y0038770D01*
X0025604Y0040369D02*
X0038772Y0040369D01*
X0039135Y0041967D02*
X0025107Y0041967D01*
X0023947Y0043566D02*
X0039821Y0043566D01*
X0041420Y0045164D02*
X0011600Y0045164D01*
X0011600Y0043566D02*
X0016661Y0043566D01*
X0015501Y0041967D02*
X0011600Y0041967D01*
X0011600Y0040369D02*
X0015004Y0040369D01*
X0015004Y0038770D02*
X0011600Y0038770D01*
X0011600Y0037172D02*
X0015620Y0037172D01*
X0016949Y0035573D02*
X0011600Y0035573D01*
X0011600Y0033975D02*
X0016812Y0033975D01*
X0015488Y0032376D02*
X0011600Y0032376D01*
X0011600Y0030778D02*
X0014904Y0030778D01*
X0014804Y0029513D02*
X0014804Y0029281D01*
X0014939Y0028425D01*
X0015207Y0027602D01*
X0015600Y0026831D01*
X0016109Y0026130D01*
X0016721Y0025518D01*
X0017421Y0025009D01*
X0018193Y0024616D01*
X0019016Y0024349D01*
X0019871Y0024213D01*
X0020104Y0024213D01*
X0020104Y0029513D01*
X0014804Y0029513D01*
X0014820Y0029179D02*
X0011600Y0029179D01*
X0011600Y0027581D02*
X0015218Y0027581D01*
X0016257Y0025982D02*
X0011600Y0025982D01*
X0011600Y0024384D02*
X0018909Y0024384D01*
X0020104Y0024384D02*
X0020504Y0024384D01*
X0021699Y0024384D02*
X0157865Y0024384D01*
X0158060Y0024578D02*
X0157447Y0023966D01*
X0156938Y0023265D01*
X0156545Y0022494D01*
X0156278Y0021671D01*
X0156143Y0020816D01*
X0156143Y0020583D01*
X0161442Y0020583D01*
X0161442Y0020183D01*
X0156143Y0020183D01*
X0156143Y0019950D01*
X0156278Y0019095D01*
X0156545Y0018271D01*
X0156938Y0017500D01*
X0157447Y0016800D01*
X0158060Y0016188D01*
X0158760Y0015679D01*
X0159531Y0015286D01*
X0160355Y0015018D01*
X0161210Y0014883D01*
X0161442Y0014883D01*
X0161442Y0020183D01*
X0161843Y0020183D01*
X0161843Y0014883D01*
X0162075Y0014883D01*
X0162930Y0015018D01*
X0163754Y0015286D01*
X0164525Y0015679D01*
X0165226Y0016188D01*
X0165838Y0016800D01*
X0166347Y0017500D01*
X0166740Y0018271D01*
X0166757Y0018327D01*
X0167149Y0017380D01*
X0168640Y0015890D01*
X0170588Y0015083D01*
X0172697Y0015083D01*
X0174645Y0015890D01*
X0176136Y0017380D01*
X0176943Y0019328D01*
X0176943Y0021437D01*
X0176136Y0023385D01*
X0174645Y0024876D01*
X0172697Y0025683D01*
X0170588Y0025683D01*
X0168640Y0024876D01*
X0167149Y0023385D01*
X0166757Y0022439D01*
X0166740Y0022494D01*
X0166347Y0023265D01*
X0165838Y0023966D01*
X0165226Y0024578D01*
X0164525Y0025087D01*
X0163754Y0025480D01*
X0162930Y0025747D01*
X0162075Y0025883D01*
X0161843Y0025883D01*
X0161843Y0020583D01*
X0161442Y0020583D01*
X0161442Y0025883D01*
X0161210Y0025883D01*
X0160355Y0025747D01*
X0159531Y0025480D01*
X0158760Y0025087D01*
X0158060Y0024578D01*
X0156694Y0022785D02*
X0011600Y0022785D01*
X0011600Y0021187D02*
X0156201Y0021187D01*
X0156200Y0019588D02*
X0011600Y0019588D01*
X0011600Y0017990D02*
X0156689Y0017990D01*
X0157856Y0016391D02*
X0011600Y0016391D01*
X0011600Y0014793D02*
X0311055Y0014793D01*
X0311055Y0016391D02*
X0175146Y0016391D01*
X0176388Y0017990D02*
X0311055Y0017990D01*
X0311055Y0019588D02*
X0176943Y0019588D01*
X0176943Y0021187D02*
X0311055Y0021187D01*
X0311055Y0022785D02*
X0176384Y0022785D01*
X0175137Y0024384D02*
X0311055Y0024384D01*
X0311055Y0025982D02*
X0024351Y0025982D01*
X0025390Y0027581D02*
X0311055Y0027581D01*
X0311055Y0029179D02*
X0025788Y0029179D01*
X0025704Y0030778D02*
X0311055Y0030778D01*
X0311055Y0013194D02*
X0011600Y0013194D01*
X0020104Y0025982D02*
X0020504Y0025982D01*
X0020504Y0027581D02*
X0020104Y0027581D01*
X0020104Y0029179D02*
X0020504Y0029179D01*
X0011600Y0062748D02*
X0067924Y0062748D01*
X0068948Y0064346D02*
X0011600Y0064346D01*
X0022261Y0070740D02*
X0152717Y0070740D01*
X0152717Y0072339D02*
X0024126Y0072339D01*
X0060334Y0073937D02*
X0152717Y0073937D01*
X0152717Y0075536D02*
X0062903Y0075536D01*
X0064122Y0077134D02*
X0152717Y0077134D01*
X0152717Y0078733D02*
X0064784Y0078733D01*
X0064862Y0080332D02*
X0152878Y0080332D01*
X0153540Y0081930D02*
X0064862Y0081930D01*
X0064862Y0083529D02*
X0155141Y0083529D01*
X0156169Y0065945D02*
X0091844Y0065945D01*
X0095571Y0054755D02*
X0195252Y0054755D01*
X0194156Y0053157D02*
X0095571Y0053157D01*
X0095571Y0051558D02*
X0193705Y0051558D01*
X0193705Y0049960D02*
X0095571Y0049960D01*
X0095469Y0048361D02*
X0194366Y0048361D01*
X0195759Y0046763D02*
X0094807Y0046763D01*
X0093554Y0045164D02*
X0241064Y0045164D01*
X0241605Y0046763D02*
X0212250Y0046763D01*
X0213643Y0048361D02*
X0242785Y0048361D01*
X0205759Y0046763D02*
X0202250Y0046763D01*
X0203643Y0048361D02*
X0204366Y0048361D01*
X0204156Y0053157D02*
X0203853Y0053157D01*
X0202757Y0054755D02*
X0205252Y0054755D01*
X0168148Y0024384D02*
X0165420Y0024384D01*
X0166591Y0022785D02*
X0166901Y0022785D01*
X0161843Y0022785D02*
X0161442Y0022785D01*
X0161442Y0021187D02*
X0161843Y0021187D01*
X0161843Y0019588D02*
X0161442Y0019588D01*
X0161442Y0017990D02*
X0161843Y0017990D01*
X0161843Y0016391D02*
X0161442Y0016391D01*
X0165429Y0016391D02*
X0168139Y0016391D01*
X0166897Y0017990D02*
X0166596Y0017990D01*
X0161843Y0024384D02*
X0161442Y0024384D01*
X0203654Y0088324D02*
X0205930Y0088324D01*
X0204898Y0089923D02*
X0204686Y0089923D01*
X0204385Y0094718D02*
X0205199Y0094718D01*
X0206656Y0096317D02*
X0202928Y0096317D01*
X0212928Y0096317D02*
X0280554Y0096317D01*
X0279212Y0094718D02*
X0214385Y0094718D01*
X0215047Y0093120D02*
X0278587Y0093120D01*
X0278587Y0091521D02*
X0215092Y0091521D01*
X0214686Y0089923D02*
X0279074Y0089923D01*
X0280222Y0088324D02*
X0213654Y0088324D01*
D15*
X0176288Y0061721D03*
X0173926Y0061721D03*
X0162706Y0040461D03*
X0160343Y0040461D03*
X0142627Y0052272D03*
X0142627Y0054635D03*
X0142627Y0056997D03*
X0142627Y0059359D03*
X0253650Y0055225D03*
X0256013Y0055225D03*
M02*
