%
M48
M72
T01C0.01181
T02C0.04000
T03C0.05200
T04C0.06700
%
T01
X142627Y52272
X142627Y54635
X142627Y56997
X142627Y59359
X160343Y40461
X162706Y40461
X173926Y61721
X176288Y61721
X253650Y55225
X256013Y55225
T02
X20304Y29713
X20304Y39713
X19713Y75422
X19713Y85422
X161643Y20383
X171643Y20383
X199005Y51013
X209005Y51013
X209792Y91957
X199792Y91957
X283887Y92154
X283887Y82154
X284320Y51800
X284320Y41800
T03
X246564Y40461
X232391Y77076
X158217Y74950
T04
X88946Y54950
X73946Y54950
X50422Y54772
X50422Y39772
X43237Y85265
X58237Y85265
M30
