G75*
%MOIN*%
%OFA0B0*%
%FSLAX25Y25*%
%IPPOS*%
%LPD*%
%AMOC8*
5,1,8,0,0,1.08239X$1,22.5*
%
%ADD10R,0.03150X0.04724*%
%ADD11R,0.05787X0.05000*%
%ADD12R,0.11811X0.06299*%
%ADD13R,0.22500X0.19000*%
%ADD14R,0.04724X0.03150*%
%ADD15R,0.03445X0.00984*%
%ADD16R,0.13000X0.05000*%
%ADD17R,0.04724X0.05512*%
%ADD18R,0.13000X0.06000*%
%ADD19R,0.05512X0.04724*%
%ADD20R,0.04134X0.02362*%
%ADD21R,0.06102X0.02362*%
%ADD22R,0.04331X0.03937*%
%ADD23R,0.06299X0.07087*%
%ADD24R,0.10236X0.03150*%
%ADD25R,0.09134X0.15000*%
%ADD26R,0.62795X0.49409*%
%ADD27R,0.03543X0.55512*%
%ADD28R,0.02208X0.08583*%
%ADD29R,0.07087X0.10630*%
%ADD30R,0.04724X0.02362*%
%ADD31R,0.06299X0.05512*%
D10*
X0070783Y0034899D03*
X0077869Y0034899D03*
X0076184Y0056918D03*
X0069098Y0056918D03*
X0069394Y0065869D03*
X0076480Y0065869D03*
X0082594Y0065869D03*
X0089680Y0065869D03*
X0097328Y0099815D03*
X0104415Y0099815D03*
X0086828Y0111011D03*
X0079742Y0111011D03*
X0080117Y0122769D03*
X0073030Y0122769D03*
X0086068Y0131400D03*
X0093154Y0131400D03*
X0097350Y0131312D03*
X0104436Y0131312D03*
X0104143Y0138818D03*
X0097056Y0138818D03*
X0141564Y0114398D03*
X0148650Y0114398D03*
X0172272Y0072272D03*
X0179359Y0072272D03*
X0163217Y0042524D03*
X0156131Y0042524D03*
X0226603Y0123847D03*
X0233690Y0123847D03*
X0233690Y0134083D03*
X0226603Y0134083D03*
X0276923Y0062150D03*
X0284009Y0062150D03*
X0302805Y0068726D03*
X0309891Y0068726D03*
X0309991Y0076626D03*
X0302905Y0076626D03*
X0344713Y0033296D03*
X0351800Y0033296D03*
X0210068Y0340383D03*
X0202981Y0340383D03*
X0190383Y0340383D03*
X0183296Y0340383D03*
D11*
X0115542Y0340624D03*
X0099794Y0340624D03*
X0084046Y0340624D03*
X0068298Y0340624D03*
X0052550Y0340624D03*
X0052550Y0323694D03*
X0052928Y0315106D03*
X0068499Y0315156D03*
X0068298Y0323694D03*
X0084046Y0323694D03*
X0084099Y0315156D03*
X0099794Y0315033D03*
X0099794Y0323694D03*
X0115542Y0323694D03*
X0115542Y0315033D03*
X0115542Y0298104D03*
X0099794Y0298104D03*
X0084099Y0298227D03*
X0068499Y0298227D03*
X0052928Y0298176D03*
X0239217Y0228696D03*
X0254789Y0228746D03*
X0270389Y0228746D03*
X0270389Y0211817D03*
X0254789Y0211817D03*
X0239217Y0211767D03*
D12*
X0160205Y0171868D03*
X0160205Y0153915D03*
X0366054Y0089165D03*
X0366054Y0071213D03*
D13*
X0338896Y0080189D03*
X0133047Y0162891D03*
D14*
X0123513Y0144635D03*
X0123513Y0137548D03*
X0115863Y0137548D03*
X0115863Y0144635D03*
X0134477Y0120698D03*
X0134477Y0113611D03*
X0155737Y0113611D03*
X0155737Y0120698D03*
X0156169Y0137348D03*
X0156169Y0144435D03*
X0159599Y0182948D03*
X0159599Y0190035D03*
X0168199Y0190035D03*
X0168199Y0182948D03*
X0176999Y0182948D03*
X0176999Y0190035D03*
X0218335Y0131328D03*
X0218335Y0124241D03*
X0225422Y0111098D03*
X0229359Y0110855D03*
X0229359Y0103769D03*
X0225422Y0104011D03*
X0251406Y0063217D03*
X0251406Y0056131D03*
X0275728Y0052909D03*
X0275728Y0045823D03*
X0282908Y0045862D03*
X0282908Y0052949D03*
X0301548Y0053783D03*
X0301548Y0060869D03*
X0331948Y0063132D03*
X0331948Y0056046D03*
X0342748Y0056046D03*
X0342748Y0063132D03*
X0366348Y0061732D03*
X0366348Y0054646D03*
X0362824Y0032509D03*
X0362824Y0025422D03*
X0341564Y0026209D03*
X0341564Y0033296D03*
X0363348Y0100646D03*
X0363348Y0107732D03*
X0371948Y0107732D03*
X0371948Y0100646D03*
X0380348Y0100646D03*
X0380348Y0107732D03*
X0313472Y0311564D03*
X0313472Y0318650D03*
X0305598Y0318420D03*
X0305598Y0311334D03*
X0297076Y0313217D03*
X0297076Y0320304D03*
X0050162Y0081750D03*
X0050162Y0074663D03*
X0106524Y0061249D03*
X0106524Y0054162D03*
X0132902Y0054162D03*
X0132902Y0061249D03*
X0160871Y0061249D03*
X0160871Y0054162D03*
D15*
X0103679Y0116321D03*
X0103679Y0118290D03*
X0103679Y0120258D03*
X0103679Y0122227D03*
X0103679Y0124195D03*
X0087439Y0124195D03*
X0087439Y0122227D03*
X0087439Y0120258D03*
X0087439Y0118290D03*
X0087439Y0116321D03*
X0293288Y0047830D03*
X0293288Y0045861D03*
X0293288Y0043893D03*
X0293288Y0041924D03*
X0293288Y0039956D03*
X0309528Y0039956D03*
X0309528Y0041924D03*
X0309528Y0043893D03*
X0309528Y0045861D03*
X0309528Y0047830D03*
D16*
X0162994Y0220875D03*
X0162994Y0232675D03*
X0162994Y0244475D03*
X0162994Y0256275D03*
X0162994Y0268075D03*
X0162994Y0279875D03*
X0056994Y0279875D03*
X0056994Y0268075D03*
X0056994Y0256275D03*
X0056994Y0244475D03*
X0056994Y0232675D03*
X0056994Y0220875D03*
D17*
X0112806Y0099891D03*
X0124617Y0099891D03*
D18*
X0271943Y0142672D03*
X0271943Y0152672D03*
X0271943Y0162672D03*
X0271943Y0172672D03*
X0271943Y0182672D03*
X0271943Y0192672D03*
X0359743Y0192672D03*
X0359743Y0182672D03*
X0359743Y0172672D03*
X0359743Y0162672D03*
X0359743Y0152672D03*
X0359743Y0142672D03*
D19*
X0263671Y0070048D03*
X0263671Y0058237D03*
D20*
X0217074Y0107934D03*
X0217074Y0111674D03*
X0217074Y0115414D03*
X0206444Y0115414D03*
X0206444Y0111674D03*
X0206444Y0107934D03*
D21*
X0303850Y0291276D03*
X0303850Y0296276D03*
X0303850Y0301276D03*
X0303850Y0306276D03*
X0322748Y0306276D03*
X0322748Y0301276D03*
X0322748Y0296276D03*
X0322748Y0291276D03*
D22*
X0076013Y0041425D03*
X0069320Y0041425D03*
D23*
X0069677Y0049299D03*
X0080701Y0049299D03*
D24*
X0087860Y0162600D03*
X0068962Y0162600D03*
X0068962Y0192600D03*
X0087860Y0192600D03*
X0275025Y0109800D03*
X0293923Y0109800D03*
X0293923Y0079800D03*
X0275025Y0079800D03*
D25*
X0338791Y0292820D03*
X0381704Y0292820D03*
D26*
X0360247Y0340733D03*
D27*
X0369161Y0242609D03*
X0308137Y0242609D03*
D28*
X0204339Y0062290D03*
X0199339Y0062290D03*
X0194339Y0062290D03*
X0189339Y0062290D03*
X0184339Y0062290D03*
X0179339Y0062290D03*
X0174339Y0062290D03*
X0169339Y0062290D03*
X0169339Y0043672D03*
X0174339Y0043672D03*
X0179339Y0043672D03*
X0184339Y0043672D03*
X0189339Y0043672D03*
X0194339Y0043672D03*
X0199339Y0043672D03*
X0204339Y0043672D03*
D29*
X0203375Y0352194D03*
X0186052Y0352194D03*
X0136446Y0352194D03*
X0119123Y0352194D03*
D30*
X0115776Y0061446D03*
X0115776Y0057706D03*
X0115776Y0053965D03*
X0126406Y0053965D03*
X0126406Y0061446D03*
D31*
X0142351Y0059280D03*
X0142351Y0048257D03*
M02*
