%
M48
M72
T01C0.01181
T02C0.03200
T03C0.04000
T04C0.05200
T05C0.06700
%
T01
X65719Y18135
X68081Y18135
X82917Y29149
X82917Y31511
X82917Y33873
X77530Y47663
X75168Y47663
X98790Y47663
X101152Y47663
X117872Y65440
X120111Y65426
X101214Y76056
X98851Y76056
X109420Y98450
X111782Y98450
X127136Y98450
X129498Y98450
X140190Y84323
X140190Y81961
X89727Y103400
X87365Y103400
X53113Y65605
X50480Y65554
X98790Y16954
X101152Y16954
T02
X16000Y69979
X16000Y79979
X16000Y89979
T03
X14931Y19317
X14931Y29317
X110601Y106718
X110601Y116718
X73986Y113805
X63986Y113805
X15327Y114786
X15327Y124786
X227291Y126399
X227291Y116399
X227398Y93640
X227398Y83640
X227386Y60137
X227386Y50137
X227401Y28613
X227401Y18613
T04
X131860Y70104
X65490Y80698
X40916Y89002
X52727Y45301
T05
X144439Y27584
X159439Y27584
M30
