G75*
%MOIN*%
%OFA0B0*%
%FSLAX25Y25*%
%IPPOS*%
%LPD*%
%AMOC8*
5,1,8,0,0,1.08239X$1,22.5*
%
%ADD10R,0.03937X0.04331*%
%ADD11R,0.03268X0.01181*%
%ADD12R,0.03543X0.06299*%
%ADD13R,0.05906X0.05118*%
%ADD14R,0.00984X0.06102*%
%ADD15R,0.06102X0.00984*%
%ADD16R,0.01575X0.06890*%
%ADD17R,0.07087X0.03937*%
%ADD18R,0.03150X0.04724*%
%ADD19R,0.04724X0.03150*%
%ADD20R,0.06299X0.04921*%
%ADD21R,0.03937X0.00984*%
%ADD22R,0.00984X0.03937*%
%ADD23R,0.08661X0.02402*%
%ADD24R,0.00984X0.02756*%
%ADD25R,0.05118X0.05906*%
%ADD26R,0.01969X0.01969*%
%ADD27R,0.08661X0.03937*%
%ADD28R,0.04724X0.02362*%
D10*
X0194061Y0132271D03*
X0200754Y0132271D03*
X0236332Y0133042D03*
X0243025Y0133042D03*
X0271679Y0132488D03*
X0278372Y0132488D03*
D11*
X0275913Y0138330D03*
X0275913Y0140299D03*
X0275913Y0142267D03*
X0275913Y0144236D03*
X0267527Y0144236D03*
X0267527Y0142267D03*
X0267527Y0140299D03*
X0267527Y0138330D03*
X0237913Y0138330D03*
X0237913Y0140299D03*
X0237913Y0142267D03*
X0237913Y0144236D03*
X0229527Y0144236D03*
X0229527Y0142267D03*
X0229527Y0140299D03*
X0229527Y0138330D03*
X0197813Y0138430D03*
X0197813Y0140399D03*
X0197813Y0142367D03*
X0197813Y0144336D03*
X0189427Y0144336D03*
X0189427Y0142367D03*
X0189427Y0140399D03*
X0189427Y0138430D03*
D12*
X0193620Y0141383D03*
X0233720Y0141283D03*
X0271720Y0141283D03*
D13*
X0172633Y0141464D03*
X0172633Y0148944D03*
X0221941Y0148944D03*
X0221941Y0141464D03*
X0260311Y0141464D03*
X0260311Y0148944D03*
X0322870Y0173443D03*
X0322870Y0180923D03*
X0322870Y0202193D03*
X0322870Y0209673D03*
X0354120Y0319693D03*
X0354120Y0327173D03*
X0362870Y0327173D03*
X0362870Y0319693D03*
X0335370Y0333443D03*
X0335370Y0340923D03*
X0106120Y0310173D03*
X0106120Y0302693D03*
X0097370Y0302693D03*
X0097370Y0310173D03*
X0077370Y0296423D03*
X0077370Y0288943D03*
D14*
X0168756Y0244730D03*
X0170725Y0244730D03*
X0172693Y0244730D03*
X0174662Y0244730D03*
X0176630Y0244730D03*
X0178599Y0244730D03*
X0180567Y0244730D03*
X0182536Y0244730D03*
X0184504Y0244730D03*
X0186473Y0244730D03*
X0188441Y0244730D03*
X0190410Y0244730D03*
X0192378Y0244730D03*
X0194347Y0244730D03*
X0196315Y0244730D03*
X0198284Y0244730D03*
X0198284Y0200636D03*
X0196315Y0200636D03*
X0194347Y0200636D03*
X0192378Y0200636D03*
X0190410Y0200636D03*
X0188441Y0200636D03*
X0186473Y0200636D03*
X0184504Y0200636D03*
X0182536Y0200636D03*
X0180567Y0200636D03*
X0178599Y0200636D03*
X0176630Y0200636D03*
X0174662Y0200636D03*
X0172693Y0200636D03*
X0170725Y0200636D03*
X0168756Y0200636D03*
D15*
X0161473Y0207919D03*
X0161473Y0209888D03*
X0161473Y0211856D03*
X0161473Y0213825D03*
X0161473Y0215793D03*
X0161473Y0217762D03*
X0161473Y0219730D03*
X0161473Y0221699D03*
X0161473Y0223667D03*
X0161473Y0225636D03*
X0161473Y0227604D03*
X0161473Y0229573D03*
X0161473Y0231541D03*
X0161473Y0233510D03*
X0161473Y0235478D03*
X0161473Y0237447D03*
X0205567Y0237447D03*
X0205567Y0235478D03*
X0205567Y0233510D03*
X0205567Y0231541D03*
X0205567Y0229573D03*
X0205567Y0227604D03*
X0205567Y0225636D03*
X0205567Y0223667D03*
X0205567Y0221699D03*
X0205567Y0219730D03*
X0205567Y0217762D03*
X0205567Y0215793D03*
X0205567Y0213825D03*
X0205567Y0211856D03*
X0205567Y0209888D03*
X0205567Y0207919D03*
D16*
X0244386Y0200636D03*
X0246945Y0200636D03*
X0249504Y0200636D03*
X0252063Y0200636D03*
X0254622Y0200636D03*
X0257181Y0200636D03*
X0259741Y0200636D03*
X0262300Y0200636D03*
X0264859Y0200636D03*
X0267418Y0200636D03*
X0269977Y0200636D03*
X0272536Y0200636D03*
X0275095Y0200636D03*
X0277654Y0200636D03*
X0277654Y0228982D03*
X0275095Y0228982D03*
X0272536Y0228982D03*
X0269977Y0228982D03*
X0267418Y0228982D03*
X0264859Y0228982D03*
X0262300Y0228982D03*
X0259741Y0228982D03*
X0257181Y0228982D03*
X0254622Y0228982D03*
X0252063Y0228982D03*
X0249504Y0228982D03*
X0246945Y0228982D03*
X0244386Y0228982D03*
D17*
X0223520Y0227762D03*
X0223520Y0237604D03*
D18*
X0214544Y0246305D03*
X0207457Y0246305D03*
X0207457Y0256148D03*
X0214544Y0256148D03*
X0159583Y0256148D03*
X0152496Y0256148D03*
X0152496Y0246305D03*
X0159583Y0246305D03*
X0207457Y0199061D03*
X0214544Y0199061D03*
X0214544Y0189219D03*
X0207457Y0189219D03*
X0243540Y0187742D03*
X0250626Y0187742D03*
X0258146Y0187742D03*
X0265233Y0187742D03*
X0282752Y0235970D03*
X0289839Y0235970D03*
D19*
X0280961Y0249238D03*
X0280961Y0256325D03*
X0245528Y0252722D03*
X0245528Y0245636D03*
X0234701Y0243864D03*
X0234701Y0236778D03*
X0224859Y0245636D03*
X0224859Y0252722D03*
X0279977Y0191856D03*
X0279977Y0184770D03*
D20*
X0270449Y0246817D03*
X0270449Y0255478D03*
X0255882Y0255478D03*
X0255882Y0246817D03*
D21*
X0279977Y0192565D03*
D22*
X0257831Y0187742D03*
X0282437Y0235970D03*
X0206765Y0256078D03*
X0160046Y0256278D03*
X0206687Y0189214D03*
D23*
X0309120Y0207183D03*
D24*
X0308136Y0203541D03*
X0310104Y0203541D03*
X0312073Y0203541D03*
X0306167Y0203541D03*
X0306167Y0210825D03*
X0308136Y0210825D03*
X0310104Y0210825D03*
X0312073Y0210825D03*
D25*
X0314130Y0220933D03*
X0321610Y0220933D03*
X0305360Y0224683D03*
X0297880Y0224683D03*
X0297860Y0213433D03*
X0290380Y0213433D03*
X0287880Y0204683D03*
X0295360Y0204683D03*
X0292880Y0164683D03*
X0300360Y0164683D03*
X0310380Y0164683D03*
X0317860Y0164683D03*
X0309110Y0312183D03*
X0301630Y0312183D03*
D26*
X0322870Y0196317D03*
X0322870Y0188049D03*
D27*
X0312053Y0188226D03*
X0312053Y0181140D03*
X0291187Y0181140D03*
X0291187Y0188226D03*
D28*
X0336305Y0319693D03*
X0336305Y0323433D03*
X0336305Y0327173D03*
X0346935Y0327173D03*
X0346935Y0319693D03*
X0088935Y0310173D03*
X0088935Y0302693D03*
X0078305Y0302693D03*
X0078305Y0306433D03*
X0078305Y0310173D03*
M02*
