G75*
%MOIN*%
%OFA0B0*%
%FSLAX25Y25*%
%IPPOS*%
%LPD*%
%AMOC8*
5,1,8,0,0,1.08239X$1,22.5*
%
%ADD10R,0.05524X0.03950*%
%ADD11R,0.03950X0.05524*%
%ADD12R,0.04737X0.07887*%
%ADD13R,0.03950X0.04343*%
%ADD14C,0.01981*%
%ADD15C,0.00000*%
%ADD16C,0.30328*%
%ADD17OC8,0.08200*%
%ADD18R,0.06902X0.01784*%
%ADD19R,0.01784X0.06902*%
%ADD20R,0.07690X0.02375*%
%ADD21C,0.05200*%
%ADD22R,0.05721X0.07099*%
%ADD23R,0.01784X0.04737*%
%ADD24R,0.04737X0.01784*%
%ADD25R,0.08200X0.08200*%
%ADD26C,0.08200*%
%ADD27R,0.07887X0.04737*%
%ADD28R,0.02375X0.07690*%
%ADD29R,0.07099X0.05721*%
%ADD30R,0.04343X0.03950*%
%ADD31R,0.06312X0.05524*%
%ADD32R,0.05524X0.06312*%
%ADD33R,0.02570X0.01980*%
%ADD34R,0.01980X0.02570*%
%ADD35R,0.05918X0.06706*%
%ADD36R,0.06706X0.05918*%
%ADD37R,0.01784X0.02670*%
%ADD38R,0.02670X0.01784*%
%ADD39R,0.05918X0.03556*%
%ADD40C,0.04762*%
%ADD41R,0.04762X0.04762*%
%ADD42C,0.03778*%
%ADD43R,0.03778X0.03778*%
%ADD44C,0.04400*%
D10*
X0072758Y0072760D03*
X0072758Y0079847D03*
X0083093Y0063115D03*
X0083093Y0056028D03*
X0119510Y0055693D03*
X0119510Y0062780D03*
X0131321Y0095969D03*
X0131321Y0103056D03*
X0115573Y0131402D03*
X0115573Y0138489D03*
X0089983Y0138489D03*
X0089983Y0131402D03*
X0080140Y0117741D03*
X0080140Y0110654D03*
X0134430Y0197081D03*
X0134430Y0204167D03*
X0134134Y0213497D03*
X0134134Y0220583D03*
X0117542Y0221953D03*
X0117542Y0229040D03*
X0122955Y0252052D03*
X0122955Y0259138D03*
X0122955Y0266658D03*
X0122955Y0273745D03*
X0093920Y0229040D03*
X0093920Y0221953D03*
X0221872Y0112898D03*
X0221872Y0105812D03*
X0242594Y0054215D03*
X0242594Y0047128D03*
X0194313Y0049906D03*
X0194313Y0042819D03*
X0186439Y0042819D03*
X0186439Y0049906D03*
X0178565Y0049906D03*
X0178565Y0042819D03*
X0276991Y0135339D03*
X0276991Y0142426D03*
X0277180Y0150287D03*
X0277180Y0157374D03*
X0287022Y0157374D03*
X0287022Y0150287D03*
X0286833Y0142426D03*
X0286833Y0135339D03*
X0287022Y0205248D03*
X0287022Y0212334D03*
X0277180Y0212334D03*
X0277180Y0205248D03*
X0235471Y0225174D03*
X0235471Y0232260D03*
X0245861Y0254036D03*
X0245861Y0261123D03*
X0297357Y0280543D03*
X0297357Y0287630D03*
X0345585Y0263023D03*
X0345585Y0255937D03*
X0345585Y0248417D03*
X0345585Y0241330D03*
X0344109Y0212334D03*
X0344109Y0205248D03*
X0334266Y0205248D03*
X0334266Y0212334D03*
X0315729Y0066560D03*
X0315729Y0059473D03*
X0306394Y0036906D03*
X0306394Y0029819D03*
D11*
X0304362Y0064632D03*
X0297276Y0064632D03*
X0237227Y0081796D03*
X0230140Y0081796D03*
X0230140Y0107386D03*
X0237227Y0107386D03*
X0242983Y0151780D03*
X0250069Y0151780D03*
X0250069Y0161906D03*
X0242983Y0161906D03*
X0280605Y0222649D03*
X0287691Y0222649D03*
X0289463Y0232492D03*
X0296550Y0232492D03*
X0287691Y0243319D03*
X0280605Y0243319D03*
X0284089Y0278752D03*
X0277002Y0278752D03*
X0276676Y0288832D03*
X0283762Y0288832D03*
X0249836Y0291623D03*
X0242750Y0291623D03*
X0235077Y0260213D03*
X0227991Y0260213D03*
X0247857Y0353449D03*
X0254943Y0353449D03*
X0341361Y0288489D03*
X0348447Y0288489D03*
X0348557Y0277767D03*
X0341471Y0277767D03*
X0338762Y0146032D03*
X0331676Y0146032D03*
X0331676Y0136032D03*
X0338762Y0136032D03*
X0171170Y0125065D03*
X0164083Y0125065D03*
X0157154Y0124725D03*
X0150068Y0124725D03*
X0146676Y0109355D03*
X0139589Y0109355D03*
X0139589Y0085733D03*
X0146676Y0085733D03*
X0116577Y0114768D03*
X0109491Y0114768D03*
X0101971Y0114768D03*
X0094884Y0114768D03*
X0113998Y0146756D03*
X0121085Y0146756D03*
X0163180Y0144725D03*
X0170266Y0144725D03*
X0170266Y0152599D03*
X0163180Y0152599D03*
X0111243Y0237308D03*
X0104156Y0237308D03*
X0070967Y0249119D03*
X0063880Y0249119D03*
X0064215Y0285536D03*
X0071302Y0285536D03*
X0080947Y0295871D03*
X0088034Y0295871D03*
X0118841Y0288489D03*
X0125928Y0288489D03*
X0053942Y0289802D03*
X0046855Y0289802D03*
X0046918Y0299484D03*
X0054005Y0299484D03*
X0054090Y0309802D03*
X0047003Y0309802D03*
X0051006Y0190064D03*
X0058093Y0190064D03*
X0058093Y0182189D03*
X0051006Y0182189D03*
X0051006Y0174315D03*
X0058093Y0174315D03*
X0059762Y0131232D03*
X0052676Y0131232D03*
D12*
X0097857Y0134945D03*
X0107699Y0134945D03*
X0295723Y0221311D03*
X0305565Y0221311D03*
D13*
X0110652Y0221363D03*
X0104746Y0221363D03*
X0104746Y0229630D03*
X0110652Y0229630D03*
D14*
X0109668Y0216245D02*
X0109668Y0211717D01*
X0109668Y0211717D01*
X0109668Y0216245D01*
X0109668Y0216245D01*
X0109668Y0213697D02*
X0109668Y0213697D01*
X0109668Y0215677D02*
X0109668Y0215677D01*
X0111636Y0216245D02*
X0111636Y0211717D01*
X0111636Y0211717D01*
X0111636Y0216245D01*
X0111636Y0216245D01*
X0111636Y0213697D02*
X0111636Y0213697D01*
X0111636Y0215677D02*
X0111636Y0215677D01*
X0113605Y0216245D02*
X0113605Y0211717D01*
X0113605Y0211717D01*
X0113605Y0216245D01*
X0113605Y0216245D01*
X0113605Y0213697D02*
X0113605Y0213697D01*
X0113605Y0215677D02*
X0113605Y0215677D01*
X0115573Y0216245D02*
X0115573Y0211717D01*
X0115573Y0211717D01*
X0115573Y0216245D01*
X0115573Y0216245D01*
X0115573Y0213697D02*
X0115573Y0213697D01*
X0115573Y0215677D02*
X0115573Y0215677D01*
X0117542Y0216245D02*
X0117542Y0211717D01*
X0117542Y0211717D01*
X0117542Y0216245D01*
X0117542Y0216245D01*
X0117542Y0213697D02*
X0117542Y0213697D01*
X0117542Y0215677D02*
X0117542Y0215677D01*
X0119510Y0216245D02*
X0119510Y0211717D01*
X0119510Y0211717D01*
X0119510Y0216245D01*
X0119510Y0216245D01*
X0119510Y0213697D02*
X0119510Y0213697D01*
X0119510Y0215677D02*
X0119510Y0215677D01*
X0123447Y0207780D02*
X0127975Y0207780D01*
X0127975Y0207780D01*
X0123447Y0207780D01*
X0123447Y0207780D01*
X0123447Y0205812D02*
X0127975Y0205812D01*
X0127975Y0205812D01*
X0123447Y0205812D01*
X0123447Y0205812D01*
X0123447Y0203843D02*
X0127975Y0203843D01*
X0127975Y0203843D01*
X0123447Y0203843D01*
X0123447Y0203843D01*
X0123447Y0201875D02*
X0127975Y0201875D01*
X0127975Y0201875D01*
X0123447Y0201875D01*
X0123447Y0201875D01*
X0123447Y0199906D02*
X0127975Y0199906D01*
X0127975Y0199906D01*
X0123447Y0199906D01*
X0123447Y0199906D01*
X0123447Y0197938D02*
X0127975Y0197938D01*
X0127975Y0197938D01*
X0123447Y0197938D01*
X0123447Y0197938D01*
X0123447Y0195969D02*
X0127975Y0195969D01*
X0127975Y0195969D01*
X0123447Y0195969D01*
X0123447Y0195969D01*
X0123447Y0194001D02*
X0127975Y0194001D01*
X0127975Y0194001D01*
X0123447Y0194001D01*
X0123447Y0194001D01*
X0123447Y0192032D02*
X0127975Y0192032D01*
X0127975Y0192032D01*
X0123447Y0192032D01*
X0123447Y0192032D01*
X0123447Y0190064D02*
X0127975Y0190064D01*
X0127975Y0190064D01*
X0123447Y0190064D01*
X0123447Y0190064D01*
X0123447Y0188095D02*
X0127975Y0188095D01*
X0127975Y0188095D01*
X0123447Y0188095D01*
X0123447Y0188095D01*
X0123447Y0186127D02*
X0127975Y0186127D01*
X0127975Y0186127D01*
X0123447Y0186127D01*
X0123447Y0186127D01*
X0123447Y0184158D02*
X0127975Y0184158D01*
X0127975Y0184158D01*
X0123447Y0184158D01*
X0123447Y0184158D01*
X0123447Y0182189D02*
X0127975Y0182189D01*
X0127975Y0182189D01*
X0123447Y0182189D01*
X0123447Y0182189D01*
X0123447Y0180221D02*
X0127975Y0180221D01*
X0127975Y0180221D01*
X0123447Y0180221D01*
X0123447Y0180221D01*
X0123447Y0178252D02*
X0127975Y0178252D01*
X0127975Y0178252D01*
X0123447Y0178252D01*
X0123447Y0178252D01*
X0123447Y0176284D02*
X0127975Y0176284D01*
X0127975Y0176284D01*
X0123447Y0176284D01*
X0123447Y0176284D01*
X0123447Y0174315D02*
X0127975Y0174315D01*
X0127975Y0174315D01*
X0123447Y0174315D01*
X0123447Y0174315D01*
X0123447Y0172347D02*
X0127975Y0172347D01*
X0127975Y0172347D01*
X0123447Y0172347D01*
X0123447Y0172347D01*
X0123447Y0170378D02*
X0127975Y0170378D01*
X0127975Y0170378D01*
X0123447Y0170378D01*
X0123447Y0170378D01*
X0123447Y0168410D02*
X0127975Y0168410D01*
X0127975Y0168410D01*
X0123447Y0168410D01*
X0123447Y0168410D01*
X0123447Y0166441D02*
X0127975Y0166441D01*
X0127975Y0166441D01*
X0123447Y0166441D01*
X0123447Y0166441D01*
X0123447Y0164473D02*
X0127975Y0164473D01*
X0127975Y0164473D01*
X0123447Y0164473D01*
X0123447Y0164473D01*
X0123447Y0162504D02*
X0127975Y0162504D01*
X0127975Y0162504D01*
X0123447Y0162504D01*
X0123447Y0162504D01*
X0123447Y0160536D02*
X0127975Y0160536D01*
X0127975Y0160536D01*
X0123447Y0160536D01*
X0123447Y0160536D01*
X0119510Y0156599D02*
X0119510Y0152071D01*
X0119510Y0152071D01*
X0119510Y0156599D01*
X0119510Y0156599D01*
X0119510Y0154051D02*
X0119510Y0154051D01*
X0119510Y0156031D02*
X0119510Y0156031D01*
X0117542Y0156599D02*
X0117542Y0152071D01*
X0117542Y0152071D01*
X0117542Y0156599D01*
X0117542Y0156599D01*
X0117542Y0154051D02*
X0117542Y0154051D01*
X0117542Y0156031D02*
X0117542Y0156031D01*
X0115573Y0156599D02*
X0115573Y0152071D01*
X0115573Y0152071D01*
X0115573Y0156599D01*
X0115573Y0156599D01*
X0115573Y0154051D02*
X0115573Y0154051D01*
X0115573Y0156031D02*
X0115573Y0156031D01*
X0113605Y0156599D02*
X0113605Y0152071D01*
X0113605Y0152071D01*
X0113605Y0156599D01*
X0113605Y0156599D01*
X0113605Y0154051D02*
X0113605Y0154051D01*
X0113605Y0156031D02*
X0113605Y0156031D01*
X0111636Y0156599D02*
X0111636Y0152071D01*
X0111636Y0152071D01*
X0111636Y0156599D01*
X0111636Y0156599D01*
X0111636Y0154051D02*
X0111636Y0154051D01*
X0111636Y0156031D02*
X0111636Y0156031D01*
X0109668Y0156599D02*
X0109668Y0152071D01*
X0109668Y0152071D01*
X0109668Y0156599D01*
X0109668Y0156599D01*
X0109668Y0154051D02*
X0109668Y0154051D01*
X0109668Y0156031D02*
X0109668Y0156031D01*
X0107699Y0156599D02*
X0107699Y0152071D01*
X0107699Y0152071D01*
X0107699Y0156599D01*
X0107699Y0156599D01*
X0107699Y0154051D02*
X0107699Y0154051D01*
X0107699Y0156031D02*
X0107699Y0156031D01*
X0105731Y0156599D02*
X0105731Y0152071D01*
X0105731Y0152071D01*
X0105731Y0156599D01*
X0105731Y0156599D01*
X0105731Y0154051D02*
X0105731Y0154051D01*
X0105731Y0156031D02*
X0105731Y0156031D01*
X0103762Y0156599D02*
X0103762Y0152071D01*
X0103762Y0152071D01*
X0103762Y0156599D01*
X0103762Y0156599D01*
X0103762Y0154051D02*
X0103762Y0154051D01*
X0103762Y0156031D02*
X0103762Y0156031D01*
X0101794Y0156599D02*
X0101794Y0152071D01*
X0101794Y0152071D01*
X0101794Y0156599D01*
X0101794Y0156599D01*
X0101794Y0154051D02*
X0101794Y0154051D01*
X0101794Y0156031D02*
X0101794Y0156031D01*
X0099825Y0156599D02*
X0099825Y0152071D01*
X0099825Y0152071D01*
X0099825Y0156599D01*
X0099825Y0156599D01*
X0099825Y0154051D02*
X0099825Y0154051D01*
X0099825Y0156031D02*
X0099825Y0156031D01*
X0097857Y0156599D02*
X0097857Y0152071D01*
X0097857Y0152071D01*
X0097857Y0156599D01*
X0097857Y0156599D01*
X0097857Y0154051D02*
X0097857Y0154051D01*
X0097857Y0156031D02*
X0097857Y0156031D01*
X0095888Y0156599D02*
X0095888Y0152071D01*
X0095888Y0152071D01*
X0095888Y0156599D01*
X0095888Y0156599D01*
X0095888Y0154051D02*
X0095888Y0154051D01*
X0095888Y0156031D02*
X0095888Y0156031D01*
X0093920Y0156599D02*
X0093920Y0152071D01*
X0093920Y0152071D01*
X0093920Y0156599D01*
X0093920Y0156599D01*
X0093920Y0154051D02*
X0093920Y0154051D01*
X0093920Y0156031D02*
X0093920Y0156031D01*
X0091951Y0156599D02*
X0091951Y0152071D01*
X0091951Y0152071D01*
X0091951Y0156599D01*
X0091951Y0156599D01*
X0091951Y0154051D02*
X0091951Y0154051D01*
X0091951Y0156031D02*
X0091951Y0156031D01*
X0089983Y0156599D02*
X0089983Y0152071D01*
X0089983Y0152071D01*
X0089983Y0156599D01*
X0089983Y0156599D01*
X0089983Y0154051D02*
X0089983Y0154051D01*
X0089983Y0156031D02*
X0089983Y0156031D01*
X0088014Y0156599D02*
X0088014Y0152071D01*
X0088014Y0152071D01*
X0088014Y0156599D01*
X0088014Y0156599D01*
X0088014Y0154051D02*
X0088014Y0154051D01*
X0088014Y0156031D02*
X0088014Y0156031D01*
X0086046Y0156599D02*
X0086046Y0152071D01*
X0086046Y0152071D01*
X0086046Y0156599D01*
X0086046Y0156599D01*
X0086046Y0154051D02*
X0086046Y0154051D01*
X0086046Y0156031D02*
X0086046Y0156031D01*
X0084077Y0156599D02*
X0084077Y0152071D01*
X0084077Y0152071D01*
X0084077Y0156599D01*
X0084077Y0156599D01*
X0084077Y0154051D02*
X0084077Y0154051D01*
X0084077Y0156031D02*
X0084077Y0156031D01*
X0082109Y0156599D02*
X0082109Y0152071D01*
X0082109Y0152071D01*
X0082109Y0156599D01*
X0082109Y0156599D01*
X0082109Y0154051D02*
X0082109Y0154051D01*
X0082109Y0156031D02*
X0082109Y0156031D01*
X0080140Y0156599D02*
X0080140Y0152071D01*
X0080140Y0152071D01*
X0080140Y0156599D01*
X0080140Y0156599D01*
X0080140Y0154051D02*
X0080140Y0154051D01*
X0080140Y0156031D02*
X0080140Y0156031D01*
X0078172Y0156599D02*
X0078172Y0152071D01*
X0078172Y0152071D01*
X0078172Y0156599D01*
X0078172Y0156599D01*
X0078172Y0154051D02*
X0078172Y0154051D01*
X0078172Y0156031D02*
X0078172Y0156031D01*
X0076203Y0156599D02*
X0076203Y0152071D01*
X0076203Y0152071D01*
X0076203Y0156599D01*
X0076203Y0156599D01*
X0076203Y0154051D02*
X0076203Y0154051D01*
X0076203Y0156031D02*
X0076203Y0156031D01*
X0074235Y0156599D02*
X0074235Y0152071D01*
X0074235Y0152071D01*
X0074235Y0156599D01*
X0074235Y0156599D01*
X0074235Y0154051D02*
X0074235Y0154051D01*
X0074235Y0156031D02*
X0074235Y0156031D01*
X0072266Y0156599D02*
X0072266Y0152071D01*
X0072266Y0152071D01*
X0072266Y0156599D01*
X0072266Y0156599D01*
X0072266Y0154051D02*
X0072266Y0154051D01*
X0072266Y0156031D02*
X0072266Y0156031D01*
X0068329Y0160536D02*
X0063801Y0160536D01*
X0068329Y0160536D02*
X0068329Y0160536D01*
X0063801Y0160536D01*
X0063801Y0160536D01*
X0063801Y0162504D02*
X0068329Y0162504D01*
X0068329Y0162504D01*
X0063801Y0162504D01*
X0063801Y0162504D01*
X0063801Y0164473D02*
X0068329Y0164473D01*
X0068329Y0164473D01*
X0063801Y0164473D01*
X0063801Y0164473D01*
X0063801Y0166441D02*
X0068329Y0166441D01*
X0068329Y0166441D01*
X0063801Y0166441D01*
X0063801Y0166441D01*
X0063801Y0168410D02*
X0068329Y0168410D01*
X0068329Y0168410D01*
X0063801Y0168410D01*
X0063801Y0168410D01*
X0063801Y0170378D02*
X0068329Y0170378D01*
X0068329Y0170378D01*
X0063801Y0170378D01*
X0063801Y0170378D01*
X0063801Y0172347D02*
X0068329Y0172347D01*
X0068329Y0172347D01*
X0063801Y0172347D01*
X0063801Y0172347D01*
X0063801Y0174315D02*
X0068329Y0174315D01*
X0068329Y0174315D01*
X0063801Y0174315D01*
X0063801Y0174315D01*
X0063801Y0176284D02*
X0068329Y0176284D01*
X0068329Y0176284D01*
X0063801Y0176284D01*
X0063801Y0176284D01*
X0063801Y0178252D02*
X0068329Y0178252D01*
X0068329Y0178252D01*
X0063801Y0178252D01*
X0063801Y0178252D01*
X0063801Y0180221D02*
X0068329Y0180221D01*
X0068329Y0180221D01*
X0063801Y0180221D01*
X0063801Y0180221D01*
X0063801Y0182189D02*
X0068329Y0182189D01*
X0068329Y0182189D01*
X0063801Y0182189D01*
X0063801Y0182189D01*
X0063801Y0184158D02*
X0068329Y0184158D01*
X0068329Y0184158D01*
X0063801Y0184158D01*
X0063801Y0184158D01*
X0063801Y0186127D02*
X0068329Y0186127D01*
X0068329Y0186127D01*
X0063801Y0186127D01*
X0063801Y0186127D01*
X0063801Y0188095D02*
X0068329Y0188095D01*
X0068329Y0188095D01*
X0063801Y0188095D01*
X0063801Y0188095D01*
X0063801Y0190064D02*
X0068329Y0190064D01*
X0068329Y0190064D01*
X0063801Y0190064D01*
X0063801Y0190064D01*
X0063801Y0192032D02*
X0068329Y0192032D01*
X0068329Y0192032D01*
X0063801Y0192032D01*
X0063801Y0192032D01*
X0063801Y0194001D02*
X0068329Y0194001D01*
X0068329Y0194001D01*
X0063801Y0194001D01*
X0063801Y0194001D01*
X0063801Y0195969D02*
X0068329Y0195969D01*
X0068329Y0195969D01*
X0063801Y0195969D01*
X0063801Y0195969D01*
X0063801Y0197938D02*
X0068329Y0197938D01*
X0068329Y0197938D01*
X0063801Y0197938D01*
X0063801Y0197938D01*
X0063801Y0199906D02*
X0068329Y0199906D01*
X0068329Y0199906D01*
X0063801Y0199906D01*
X0063801Y0199906D01*
X0063801Y0201875D02*
X0068329Y0201875D01*
X0068329Y0201875D01*
X0063801Y0201875D01*
X0063801Y0201875D01*
X0063801Y0203843D02*
X0068329Y0203843D01*
X0068329Y0203843D01*
X0063801Y0203843D01*
X0063801Y0203843D01*
X0063801Y0205812D02*
X0068329Y0205812D01*
X0068329Y0205812D01*
X0063801Y0205812D01*
X0063801Y0205812D01*
X0063801Y0207780D02*
X0068329Y0207780D01*
X0068329Y0207780D01*
X0063801Y0207780D01*
X0063801Y0207780D01*
X0072266Y0211717D02*
X0072266Y0216245D01*
X0072266Y0211717D02*
X0072266Y0211717D01*
X0072266Y0216245D01*
X0072266Y0216245D01*
X0072266Y0213697D02*
X0072266Y0213697D01*
X0072266Y0215677D02*
X0072266Y0215677D01*
X0074235Y0216245D02*
X0074235Y0211717D01*
X0074235Y0211717D01*
X0074235Y0216245D01*
X0074235Y0216245D01*
X0074235Y0213697D02*
X0074235Y0213697D01*
X0074235Y0215677D02*
X0074235Y0215677D01*
X0076203Y0216245D02*
X0076203Y0211717D01*
X0076203Y0211717D01*
X0076203Y0216245D01*
X0076203Y0216245D01*
X0076203Y0213697D02*
X0076203Y0213697D01*
X0076203Y0215677D02*
X0076203Y0215677D01*
X0078172Y0216245D02*
X0078172Y0211717D01*
X0078172Y0211717D01*
X0078172Y0216245D01*
X0078172Y0216245D01*
X0078172Y0213697D02*
X0078172Y0213697D01*
X0078172Y0215677D02*
X0078172Y0215677D01*
X0080140Y0216245D02*
X0080140Y0211717D01*
X0080140Y0211717D01*
X0080140Y0216245D01*
X0080140Y0216245D01*
X0080140Y0213697D02*
X0080140Y0213697D01*
X0080140Y0215677D02*
X0080140Y0215677D01*
X0082109Y0216245D02*
X0082109Y0211717D01*
X0082109Y0211717D01*
X0082109Y0216245D01*
X0082109Y0216245D01*
X0082109Y0213697D02*
X0082109Y0213697D01*
X0082109Y0215677D02*
X0082109Y0215677D01*
X0084077Y0216245D02*
X0084077Y0211717D01*
X0084077Y0211717D01*
X0084077Y0216245D01*
X0084077Y0216245D01*
X0084077Y0213697D02*
X0084077Y0213697D01*
X0084077Y0215677D02*
X0084077Y0215677D01*
X0086046Y0216245D02*
X0086046Y0211717D01*
X0086046Y0211717D01*
X0086046Y0216245D01*
X0086046Y0216245D01*
X0086046Y0213697D02*
X0086046Y0213697D01*
X0086046Y0215677D02*
X0086046Y0215677D01*
X0088014Y0216245D02*
X0088014Y0211717D01*
X0088014Y0211717D01*
X0088014Y0216245D01*
X0088014Y0216245D01*
X0088014Y0213697D02*
X0088014Y0213697D01*
X0088014Y0215677D02*
X0088014Y0215677D01*
X0089983Y0216245D02*
X0089983Y0211717D01*
X0089983Y0211717D01*
X0089983Y0216245D01*
X0089983Y0216245D01*
X0089983Y0213697D02*
X0089983Y0213697D01*
X0089983Y0215677D02*
X0089983Y0215677D01*
X0091951Y0216245D02*
X0091951Y0211717D01*
X0091951Y0211717D01*
X0091951Y0216245D01*
X0091951Y0216245D01*
X0091951Y0213697D02*
X0091951Y0213697D01*
X0091951Y0215677D02*
X0091951Y0215677D01*
X0093920Y0216245D02*
X0093920Y0211717D01*
X0093920Y0211717D01*
X0093920Y0216245D01*
X0093920Y0216245D01*
X0093920Y0213697D02*
X0093920Y0213697D01*
X0093920Y0215677D02*
X0093920Y0215677D01*
X0095888Y0216245D02*
X0095888Y0211717D01*
X0095888Y0211717D01*
X0095888Y0216245D01*
X0095888Y0216245D01*
X0095888Y0213697D02*
X0095888Y0213697D01*
X0095888Y0215677D02*
X0095888Y0215677D01*
X0097857Y0216245D02*
X0097857Y0211717D01*
X0097857Y0211717D01*
X0097857Y0216245D01*
X0097857Y0216245D01*
X0097857Y0213697D02*
X0097857Y0213697D01*
X0097857Y0215677D02*
X0097857Y0215677D01*
X0099825Y0216245D02*
X0099825Y0211717D01*
X0099825Y0211717D01*
X0099825Y0216245D01*
X0099825Y0216245D01*
X0099825Y0213697D02*
X0099825Y0213697D01*
X0099825Y0215677D02*
X0099825Y0215677D01*
X0101794Y0216245D02*
X0101794Y0211717D01*
X0101794Y0211717D01*
X0101794Y0216245D01*
X0101794Y0216245D01*
X0101794Y0213697D02*
X0101794Y0213697D01*
X0101794Y0215677D02*
X0101794Y0215677D01*
X0103762Y0216245D02*
X0103762Y0211717D01*
X0103762Y0211717D01*
X0103762Y0216245D01*
X0103762Y0216245D01*
X0103762Y0213697D02*
X0103762Y0213697D01*
X0103762Y0215677D02*
X0103762Y0215677D01*
X0105731Y0216245D02*
X0105731Y0211717D01*
X0105731Y0211717D01*
X0105731Y0216245D01*
X0105731Y0216245D01*
X0105731Y0213697D02*
X0105731Y0213697D01*
X0105731Y0215677D02*
X0105731Y0215677D01*
X0107699Y0216245D02*
X0107699Y0211717D01*
X0107699Y0211717D01*
X0107699Y0216245D01*
X0107699Y0216245D01*
X0107699Y0213697D02*
X0107699Y0213697D01*
X0107699Y0215677D02*
X0107699Y0215677D01*
X0160849Y0119788D02*
X0160849Y0115260D01*
X0160849Y0119788D02*
X0160849Y0119788D01*
X0160849Y0115260D01*
X0160849Y0115260D01*
X0160849Y0117240D02*
X0160849Y0117240D01*
X0160849Y0119220D02*
X0160849Y0119220D01*
X0162817Y0119788D02*
X0162817Y0115260D01*
X0162817Y0119788D02*
X0162817Y0119788D01*
X0162817Y0115260D01*
X0162817Y0115260D01*
X0162817Y0117240D02*
X0162817Y0117240D01*
X0162817Y0119220D02*
X0162817Y0119220D01*
X0164786Y0119788D02*
X0164786Y0115260D01*
X0164786Y0119788D02*
X0164786Y0119788D01*
X0164786Y0115260D01*
X0164786Y0115260D01*
X0164786Y0117240D02*
X0164786Y0117240D01*
X0164786Y0119220D02*
X0164786Y0119220D01*
X0166754Y0119788D02*
X0166754Y0115260D01*
X0166754Y0119788D02*
X0166754Y0119788D01*
X0166754Y0115260D01*
X0166754Y0115260D01*
X0166754Y0117240D02*
X0166754Y0117240D01*
X0166754Y0119220D02*
X0166754Y0119220D01*
X0168723Y0119788D02*
X0168723Y0115260D01*
X0168723Y0119788D02*
X0168723Y0119788D01*
X0168723Y0115260D01*
X0168723Y0115260D01*
X0168723Y0117240D02*
X0168723Y0117240D01*
X0168723Y0119220D02*
X0168723Y0119220D01*
X0170691Y0119788D02*
X0170691Y0115260D01*
X0170691Y0119788D02*
X0170691Y0119788D01*
X0170691Y0115260D01*
X0170691Y0115260D01*
X0170691Y0117240D02*
X0170691Y0117240D01*
X0170691Y0119220D02*
X0170691Y0119220D01*
X0172660Y0119788D02*
X0172660Y0115260D01*
X0172660Y0119788D02*
X0172660Y0119788D01*
X0172660Y0115260D01*
X0172660Y0115260D01*
X0172660Y0117240D02*
X0172660Y0117240D01*
X0172660Y0119220D02*
X0172660Y0119220D01*
X0174628Y0119788D02*
X0174628Y0115260D01*
X0174628Y0119788D02*
X0174628Y0119788D01*
X0174628Y0115260D01*
X0174628Y0115260D01*
X0174628Y0117240D02*
X0174628Y0117240D01*
X0174628Y0119220D02*
X0174628Y0119220D01*
X0176597Y0119788D02*
X0176597Y0115260D01*
X0176597Y0119788D02*
X0176597Y0119788D01*
X0176597Y0115260D01*
X0176597Y0115260D01*
X0176597Y0117240D02*
X0176597Y0117240D01*
X0176597Y0119220D02*
X0176597Y0119220D01*
X0178565Y0119788D02*
X0178565Y0115260D01*
X0178565Y0119788D02*
X0178565Y0119788D01*
X0178565Y0115260D01*
X0178565Y0115260D01*
X0178565Y0117240D02*
X0178565Y0117240D01*
X0178565Y0119220D02*
X0178565Y0119220D01*
X0180534Y0119788D02*
X0180534Y0115260D01*
X0180534Y0119788D02*
X0180534Y0119788D01*
X0180534Y0115260D01*
X0180534Y0115260D01*
X0180534Y0117240D02*
X0180534Y0117240D01*
X0180534Y0119220D02*
X0180534Y0119220D01*
X0182502Y0119788D02*
X0182502Y0115260D01*
X0182502Y0119788D02*
X0182502Y0119788D01*
X0182502Y0115260D01*
X0182502Y0115260D01*
X0182502Y0117240D02*
X0182502Y0117240D01*
X0182502Y0119220D02*
X0182502Y0119220D01*
X0184471Y0119788D02*
X0184471Y0115260D01*
X0184471Y0119788D02*
X0184471Y0119788D01*
X0184471Y0115260D01*
X0184471Y0115260D01*
X0184471Y0117240D02*
X0184471Y0117240D01*
X0184471Y0119220D02*
X0184471Y0119220D01*
X0186439Y0119788D02*
X0186439Y0115260D01*
X0186439Y0119788D02*
X0186439Y0119788D01*
X0186439Y0115260D01*
X0186439Y0115260D01*
X0186439Y0117240D02*
X0186439Y0117240D01*
X0186439Y0119220D02*
X0186439Y0119220D01*
X0188408Y0119788D02*
X0188408Y0115260D01*
X0188408Y0119788D02*
X0188408Y0119788D01*
X0188408Y0115260D01*
X0188408Y0115260D01*
X0188408Y0117240D02*
X0188408Y0117240D01*
X0188408Y0119220D02*
X0188408Y0119220D01*
X0190376Y0119788D02*
X0190376Y0115260D01*
X0190376Y0119788D02*
X0190376Y0119788D01*
X0190376Y0115260D01*
X0190376Y0115260D01*
X0190376Y0117240D02*
X0190376Y0117240D01*
X0190376Y0119220D02*
X0190376Y0119220D01*
X0192345Y0119788D02*
X0192345Y0115260D01*
X0192345Y0119788D02*
X0192345Y0119788D01*
X0192345Y0115260D01*
X0192345Y0115260D01*
X0192345Y0117240D02*
X0192345Y0117240D01*
X0192345Y0119220D02*
X0192345Y0119220D01*
X0194313Y0119788D02*
X0194313Y0115260D01*
X0194313Y0119788D02*
X0194313Y0119788D01*
X0194313Y0115260D01*
X0194313Y0115260D01*
X0194313Y0117240D02*
X0194313Y0117240D01*
X0194313Y0119220D02*
X0194313Y0119220D01*
X0196282Y0119788D02*
X0196282Y0115260D01*
X0196282Y0119788D02*
X0196282Y0119788D01*
X0196282Y0115260D01*
X0196282Y0115260D01*
X0196282Y0117240D02*
X0196282Y0117240D01*
X0196282Y0119220D02*
X0196282Y0119220D01*
X0198250Y0119788D02*
X0198250Y0115260D01*
X0198250Y0119788D02*
X0198250Y0119788D01*
X0198250Y0115260D01*
X0198250Y0115260D01*
X0198250Y0117240D02*
X0198250Y0117240D01*
X0198250Y0119220D02*
X0198250Y0119220D01*
X0200219Y0119788D02*
X0200219Y0115260D01*
X0200219Y0119788D02*
X0200219Y0119788D01*
X0200219Y0115260D01*
X0200219Y0115260D01*
X0200219Y0117240D02*
X0200219Y0117240D01*
X0200219Y0119220D02*
X0200219Y0119220D01*
X0202187Y0119788D02*
X0202187Y0115260D01*
X0202187Y0119788D02*
X0202187Y0119788D01*
X0202187Y0115260D01*
X0202187Y0115260D01*
X0202187Y0117240D02*
X0202187Y0117240D01*
X0202187Y0119220D02*
X0202187Y0119220D01*
X0204156Y0119788D02*
X0204156Y0115260D01*
X0204156Y0119788D02*
X0204156Y0119788D01*
X0204156Y0115260D01*
X0204156Y0115260D01*
X0204156Y0117240D02*
X0204156Y0117240D01*
X0204156Y0119220D02*
X0204156Y0119220D01*
X0206124Y0119788D02*
X0206124Y0115260D01*
X0206124Y0119788D02*
X0206124Y0119788D01*
X0206124Y0115260D01*
X0206124Y0115260D01*
X0206124Y0117240D02*
X0206124Y0117240D01*
X0206124Y0119220D02*
X0206124Y0119220D01*
X0208093Y0119788D02*
X0208093Y0115260D01*
X0208093Y0119788D02*
X0208093Y0119788D01*
X0208093Y0115260D01*
X0208093Y0115260D01*
X0208093Y0117240D02*
X0208093Y0117240D01*
X0208093Y0119220D02*
X0208093Y0119220D01*
X0212030Y0111323D02*
X0216558Y0111323D01*
X0216558Y0111323D01*
X0212030Y0111323D01*
X0212030Y0111323D01*
X0212030Y0109355D02*
X0216558Y0109355D01*
X0216558Y0109355D01*
X0212030Y0109355D01*
X0212030Y0109355D01*
X0212030Y0107386D02*
X0216558Y0107386D01*
X0216558Y0107386D01*
X0212030Y0107386D01*
X0212030Y0107386D01*
X0212030Y0105418D02*
X0216558Y0105418D01*
X0216558Y0105418D01*
X0212030Y0105418D01*
X0212030Y0105418D01*
X0212030Y0103449D02*
X0216558Y0103449D01*
X0216558Y0103449D01*
X0212030Y0103449D01*
X0212030Y0103449D01*
X0212030Y0101481D02*
X0216558Y0101481D01*
X0216558Y0101481D01*
X0212030Y0101481D01*
X0212030Y0101481D01*
X0212030Y0099512D02*
X0216558Y0099512D01*
X0216558Y0099512D01*
X0212030Y0099512D01*
X0212030Y0099512D01*
X0212030Y0097544D02*
X0216558Y0097544D01*
X0216558Y0097544D01*
X0212030Y0097544D01*
X0212030Y0097544D01*
X0212030Y0095575D02*
X0216558Y0095575D01*
X0216558Y0095575D01*
X0212030Y0095575D01*
X0212030Y0095575D01*
X0212030Y0093607D02*
X0216558Y0093607D01*
X0216558Y0093607D01*
X0212030Y0093607D01*
X0212030Y0093607D01*
X0212030Y0091638D02*
X0216558Y0091638D01*
X0216558Y0091638D01*
X0212030Y0091638D01*
X0212030Y0091638D01*
X0212030Y0089670D02*
X0216558Y0089670D01*
X0216558Y0089670D01*
X0212030Y0089670D01*
X0212030Y0089670D01*
X0212030Y0087701D02*
X0216558Y0087701D01*
X0216558Y0087701D01*
X0212030Y0087701D01*
X0212030Y0087701D01*
X0212030Y0085733D02*
X0216558Y0085733D01*
X0216558Y0085733D01*
X0212030Y0085733D01*
X0212030Y0085733D01*
X0212030Y0083764D02*
X0216558Y0083764D01*
X0216558Y0083764D01*
X0212030Y0083764D01*
X0212030Y0083764D01*
X0212030Y0081796D02*
X0216558Y0081796D01*
X0216558Y0081796D01*
X0212030Y0081796D01*
X0212030Y0081796D01*
X0212030Y0079827D02*
X0216558Y0079827D01*
X0216558Y0079827D01*
X0212030Y0079827D01*
X0212030Y0079827D01*
X0212030Y0077859D02*
X0216558Y0077859D01*
X0216558Y0077859D01*
X0212030Y0077859D01*
X0212030Y0077859D01*
X0212030Y0075890D02*
X0216558Y0075890D01*
X0216558Y0075890D01*
X0212030Y0075890D01*
X0212030Y0075890D01*
X0212030Y0073922D02*
X0216558Y0073922D01*
X0216558Y0073922D01*
X0212030Y0073922D01*
X0212030Y0073922D01*
X0212030Y0071953D02*
X0216558Y0071953D01*
X0216558Y0071953D01*
X0212030Y0071953D01*
X0212030Y0071953D01*
X0212030Y0069985D02*
X0216558Y0069985D01*
X0216558Y0069985D01*
X0212030Y0069985D01*
X0212030Y0069985D01*
X0212030Y0068016D02*
X0216558Y0068016D01*
X0216558Y0068016D01*
X0212030Y0068016D01*
X0212030Y0068016D01*
X0212030Y0066048D02*
X0216558Y0066048D01*
X0216558Y0066048D01*
X0212030Y0066048D01*
X0212030Y0066048D01*
X0212030Y0064079D02*
X0216558Y0064079D01*
X0216558Y0064079D01*
X0212030Y0064079D01*
X0212030Y0064079D01*
X0208093Y0060142D02*
X0208093Y0055614D01*
X0208093Y0060142D02*
X0208093Y0060142D01*
X0208093Y0055614D01*
X0208093Y0055614D01*
X0208093Y0057594D02*
X0208093Y0057594D01*
X0208093Y0059574D02*
X0208093Y0059574D01*
X0206124Y0060142D02*
X0206124Y0055614D01*
X0206124Y0060142D02*
X0206124Y0060142D01*
X0206124Y0055614D01*
X0206124Y0055614D01*
X0206124Y0057594D02*
X0206124Y0057594D01*
X0206124Y0059574D02*
X0206124Y0059574D01*
X0204156Y0060142D02*
X0204156Y0055614D01*
X0204156Y0060142D02*
X0204156Y0060142D01*
X0204156Y0055614D01*
X0204156Y0055614D01*
X0204156Y0057594D02*
X0204156Y0057594D01*
X0204156Y0059574D02*
X0204156Y0059574D01*
X0202187Y0060142D02*
X0202187Y0055614D01*
X0202187Y0060142D02*
X0202187Y0060142D01*
X0202187Y0055614D01*
X0202187Y0055614D01*
X0202187Y0057594D02*
X0202187Y0057594D01*
X0202187Y0059574D02*
X0202187Y0059574D01*
X0200219Y0060142D02*
X0200219Y0055614D01*
X0200219Y0060142D02*
X0200219Y0060142D01*
X0200219Y0055614D01*
X0200219Y0055614D01*
X0200219Y0057594D02*
X0200219Y0057594D01*
X0200219Y0059574D02*
X0200219Y0059574D01*
X0198250Y0060142D02*
X0198250Y0055614D01*
X0198250Y0060142D02*
X0198250Y0060142D01*
X0198250Y0055614D01*
X0198250Y0055614D01*
X0198250Y0057594D02*
X0198250Y0057594D01*
X0198250Y0059574D02*
X0198250Y0059574D01*
X0196282Y0060142D02*
X0196282Y0055614D01*
X0196282Y0060142D02*
X0196282Y0060142D01*
X0196282Y0055614D01*
X0196282Y0055614D01*
X0196282Y0057594D02*
X0196282Y0057594D01*
X0196282Y0059574D02*
X0196282Y0059574D01*
X0194313Y0060142D02*
X0194313Y0055614D01*
X0194313Y0060142D02*
X0194313Y0060142D01*
X0194313Y0055614D01*
X0194313Y0055614D01*
X0194313Y0057594D02*
X0194313Y0057594D01*
X0194313Y0059574D02*
X0194313Y0059574D01*
X0192345Y0060142D02*
X0192345Y0055614D01*
X0192345Y0060142D02*
X0192345Y0060142D01*
X0192345Y0055614D01*
X0192345Y0055614D01*
X0192345Y0057594D02*
X0192345Y0057594D01*
X0192345Y0059574D02*
X0192345Y0059574D01*
X0190376Y0060142D02*
X0190376Y0055614D01*
X0190376Y0060142D02*
X0190376Y0060142D01*
X0190376Y0055614D01*
X0190376Y0055614D01*
X0190376Y0057594D02*
X0190376Y0057594D01*
X0190376Y0059574D02*
X0190376Y0059574D01*
X0188408Y0060142D02*
X0188408Y0055614D01*
X0188408Y0060142D02*
X0188408Y0060142D01*
X0188408Y0055614D01*
X0188408Y0055614D01*
X0188408Y0057594D02*
X0188408Y0057594D01*
X0188408Y0059574D02*
X0188408Y0059574D01*
X0186439Y0060142D02*
X0186439Y0055614D01*
X0186439Y0060142D02*
X0186439Y0060142D01*
X0186439Y0055614D01*
X0186439Y0055614D01*
X0186439Y0057594D02*
X0186439Y0057594D01*
X0186439Y0059574D02*
X0186439Y0059574D01*
X0184471Y0060142D02*
X0184471Y0055614D01*
X0184471Y0060142D02*
X0184471Y0060142D01*
X0184471Y0055614D01*
X0184471Y0055614D01*
X0184471Y0057594D02*
X0184471Y0057594D01*
X0184471Y0059574D02*
X0184471Y0059574D01*
X0182502Y0060142D02*
X0182502Y0055614D01*
X0182502Y0060142D02*
X0182502Y0060142D01*
X0182502Y0055614D01*
X0182502Y0055614D01*
X0182502Y0057594D02*
X0182502Y0057594D01*
X0182502Y0059574D02*
X0182502Y0059574D01*
X0180534Y0060142D02*
X0180534Y0055614D01*
X0180534Y0060142D02*
X0180534Y0060142D01*
X0180534Y0055614D01*
X0180534Y0055614D01*
X0180534Y0057594D02*
X0180534Y0057594D01*
X0180534Y0059574D02*
X0180534Y0059574D01*
X0178565Y0060142D02*
X0178565Y0055614D01*
X0178565Y0060142D02*
X0178565Y0060142D01*
X0178565Y0055614D01*
X0178565Y0055614D01*
X0178565Y0057594D02*
X0178565Y0057594D01*
X0178565Y0059574D02*
X0178565Y0059574D01*
X0176597Y0060142D02*
X0176597Y0055614D01*
X0176597Y0060142D02*
X0176597Y0060142D01*
X0176597Y0055614D01*
X0176597Y0055614D01*
X0176597Y0057594D02*
X0176597Y0057594D01*
X0176597Y0059574D02*
X0176597Y0059574D01*
X0174628Y0060142D02*
X0174628Y0055614D01*
X0174628Y0060142D02*
X0174628Y0060142D01*
X0174628Y0055614D01*
X0174628Y0055614D01*
X0174628Y0057594D02*
X0174628Y0057594D01*
X0174628Y0059574D02*
X0174628Y0059574D01*
X0172660Y0060142D02*
X0172660Y0055614D01*
X0172660Y0060142D02*
X0172660Y0060142D01*
X0172660Y0055614D01*
X0172660Y0055614D01*
X0172660Y0057594D02*
X0172660Y0057594D01*
X0172660Y0059574D02*
X0172660Y0059574D01*
X0170691Y0060142D02*
X0170691Y0055614D01*
X0170691Y0060142D02*
X0170691Y0060142D01*
X0170691Y0055614D01*
X0170691Y0055614D01*
X0170691Y0057594D02*
X0170691Y0057594D01*
X0170691Y0059574D02*
X0170691Y0059574D01*
X0168723Y0060142D02*
X0168723Y0055614D01*
X0168723Y0060142D02*
X0168723Y0060142D01*
X0168723Y0055614D01*
X0168723Y0055614D01*
X0168723Y0057594D02*
X0168723Y0057594D01*
X0168723Y0059574D02*
X0168723Y0059574D01*
X0166754Y0060142D02*
X0166754Y0055614D01*
X0166754Y0060142D02*
X0166754Y0060142D01*
X0166754Y0055614D01*
X0166754Y0055614D01*
X0166754Y0057594D02*
X0166754Y0057594D01*
X0166754Y0059574D02*
X0166754Y0059574D01*
X0164786Y0060142D02*
X0164786Y0055614D01*
X0164786Y0060142D02*
X0164786Y0060142D01*
X0164786Y0055614D01*
X0164786Y0055614D01*
X0164786Y0057594D02*
X0164786Y0057594D01*
X0164786Y0059574D02*
X0164786Y0059574D01*
X0162817Y0060142D02*
X0162817Y0055614D01*
X0162817Y0060142D02*
X0162817Y0060142D01*
X0162817Y0055614D01*
X0162817Y0055614D01*
X0162817Y0057594D02*
X0162817Y0057594D01*
X0162817Y0059574D02*
X0162817Y0059574D01*
X0160849Y0060142D02*
X0160849Y0055614D01*
X0160849Y0060142D02*
X0160849Y0060142D01*
X0160849Y0055614D01*
X0160849Y0055614D01*
X0160849Y0057594D02*
X0160849Y0057594D01*
X0160849Y0059574D02*
X0160849Y0059574D01*
X0156912Y0064079D02*
X0152384Y0064079D01*
X0156912Y0064079D02*
X0156912Y0064079D01*
X0152384Y0064079D01*
X0152384Y0064079D01*
X0152384Y0066048D02*
X0156912Y0066048D01*
X0156912Y0066048D01*
X0152384Y0066048D01*
X0152384Y0066048D01*
X0152384Y0068016D02*
X0156912Y0068016D01*
X0156912Y0068016D01*
X0152384Y0068016D01*
X0152384Y0068016D01*
X0152384Y0069985D02*
X0156912Y0069985D01*
X0156912Y0069985D01*
X0152384Y0069985D01*
X0152384Y0069985D01*
X0152384Y0071953D02*
X0156912Y0071953D01*
X0156912Y0071953D01*
X0152384Y0071953D01*
X0152384Y0071953D01*
X0152384Y0073922D02*
X0156912Y0073922D01*
X0156912Y0073922D01*
X0152384Y0073922D01*
X0152384Y0073922D01*
X0152384Y0075890D02*
X0156912Y0075890D01*
X0156912Y0075890D01*
X0152384Y0075890D01*
X0152384Y0075890D01*
X0152384Y0077859D02*
X0156912Y0077859D01*
X0156912Y0077859D01*
X0152384Y0077859D01*
X0152384Y0077859D01*
X0152384Y0079827D02*
X0156912Y0079827D01*
X0156912Y0079827D01*
X0152384Y0079827D01*
X0152384Y0079827D01*
X0152384Y0081796D02*
X0156912Y0081796D01*
X0156912Y0081796D01*
X0152384Y0081796D01*
X0152384Y0081796D01*
X0152384Y0083764D02*
X0156912Y0083764D01*
X0156912Y0083764D01*
X0152384Y0083764D01*
X0152384Y0083764D01*
X0152384Y0085733D02*
X0156912Y0085733D01*
X0156912Y0085733D01*
X0152384Y0085733D01*
X0152384Y0085733D01*
X0152384Y0087701D02*
X0156912Y0087701D01*
X0156912Y0087701D01*
X0152384Y0087701D01*
X0152384Y0087701D01*
X0152384Y0089670D02*
X0156912Y0089670D01*
X0156912Y0089670D01*
X0152384Y0089670D01*
X0152384Y0089670D01*
X0152384Y0091638D02*
X0156912Y0091638D01*
X0156912Y0091638D01*
X0152384Y0091638D01*
X0152384Y0091638D01*
X0152384Y0093607D02*
X0156912Y0093607D01*
X0156912Y0093607D01*
X0152384Y0093607D01*
X0152384Y0093607D01*
X0152384Y0095575D02*
X0156912Y0095575D01*
X0156912Y0095575D01*
X0152384Y0095575D01*
X0152384Y0095575D01*
X0152384Y0097544D02*
X0156912Y0097544D01*
X0156912Y0097544D01*
X0152384Y0097544D01*
X0152384Y0097544D01*
X0152384Y0099512D02*
X0156912Y0099512D01*
X0156912Y0099512D01*
X0152384Y0099512D01*
X0152384Y0099512D01*
X0152384Y0101481D02*
X0156912Y0101481D01*
X0156912Y0101481D01*
X0152384Y0101481D01*
X0152384Y0101481D01*
X0152384Y0103449D02*
X0156912Y0103449D01*
X0156912Y0103449D01*
X0152384Y0103449D01*
X0152384Y0103449D01*
X0152384Y0105418D02*
X0156912Y0105418D01*
X0156912Y0105418D01*
X0152384Y0105418D01*
X0152384Y0105418D01*
X0152384Y0107386D02*
X0156912Y0107386D01*
X0156912Y0107386D01*
X0152384Y0107386D01*
X0152384Y0107386D01*
X0152384Y0109355D02*
X0156912Y0109355D01*
X0156912Y0109355D01*
X0152384Y0109355D01*
X0152384Y0109355D01*
X0152384Y0111323D02*
X0156912Y0111323D01*
X0156912Y0111323D01*
X0152384Y0111323D01*
X0152384Y0111323D01*
D15*
X0015180Y0026678D02*
X0015180Y0341638D01*
X0034865Y0361323D01*
X0349825Y0361323D01*
X0369510Y0341638D01*
X0369510Y0026678D01*
X0349825Y0006993D01*
X0034865Y0006993D01*
X0015180Y0026678D01*
D16*
X0036833Y0028646D03*
X0036833Y0339670D03*
X0347857Y0339670D03*
X0347857Y0028646D03*
D17*
X0317345Y0309670D03*
X0307345Y0309670D03*
X0307345Y0319670D03*
X0317345Y0319670D03*
X0317345Y0329670D03*
X0317345Y0339670D03*
X0307345Y0339670D03*
X0307345Y0329670D03*
X0297345Y0329670D03*
X0297345Y0339670D03*
X0287345Y0339670D03*
X0287345Y0329670D03*
X0277345Y0329670D03*
X0277345Y0339670D03*
X0267345Y0339670D03*
X0257345Y0339670D03*
X0257345Y0329670D03*
X0267345Y0329670D03*
X0267345Y0319670D03*
X0257345Y0319670D03*
X0247345Y0319670D03*
X0247345Y0329670D03*
X0247345Y0339670D03*
X0237345Y0339670D03*
X0227345Y0339670D03*
X0227345Y0329670D03*
X0237345Y0329670D03*
X0237345Y0319670D03*
X0227345Y0319670D03*
X0217345Y0319670D03*
X0217345Y0329670D03*
X0217345Y0339670D03*
X0207345Y0339670D03*
X0197345Y0339670D03*
X0197345Y0329670D03*
X0207345Y0329670D03*
X0207345Y0319670D03*
X0197345Y0319670D03*
X0187345Y0319670D03*
X0187345Y0329670D03*
X0187345Y0339670D03*
X0177345Y0339670D03*
X0167345Y0339670D03*
X0167345Y0329670D03*
X0177345Y0329670D03*
X0177345Y0319670D03*
X0167345Y0319670D03*
X0157345Y0319670D03*
X0157345Y0329670D03*
X0157345Y0339670D03*
X0147345Y0339670D03*
X0137345Y0339670D03*
X0137345Y0329670D03*
X0147345Y0329670D03*
X0147345Y0319670D03*
X0137345Y0319670D03*
X0127345Y0319670D03*
X0117345Y0319670D03*
X0117345Y0329670D03*
X0117345Y0339670D03*
X0127345Y0339670D03*
X0127345Y0329670D03*
X0107345Y0329670D03*
X0107345Y0339670D03*
X0097345Y0339670D03*
X0087345Y0339670D03*
X0087345Y0329670D03*
X0097345Y0329670D03*
X0097345Y0319670D03*
X0087345Y0319670D03*
X0077345Y0319670D03*
X0077345Y0329670D03*
X0077345Y0339670D03*
X0067345Y0339670D03*
X0067345Y0329670D03*
X0067345Y0319670D03*
X0067345Y0309670D03*
X0077345Y0309670D03*
X0087345Y0309670D03*
X0097345Y0309670D03*
X0107345Y0309670D03*
X0107345Y0319670D03*
X0117345Y0309670D03*
X0127345Y0309670D03*
X0137345Y0309670D03*
X0147345Y0309670D03*
X0157345Y0309670D03*
X0167345Y0309670D03*
X0177345Y0309670D03*
X0187345Y0309670D03*
X0197345Y0309670D03*
X0207345Y0309670D03*
X0217345Y0309670D03*
X0227345Y0309670D03*
X0237345Y0309670D03*
X0247345Y0309670D03*
X0257345Y0309670D03*
X0267345Y0309670D03*
X0277345Y0309670D03*
X0277345Y0319670D03*
X0287345Y0319670D03*
X0297345Y0319670D03*
X0297345Y0309670D03*
X0287345Y0309670D03*
D18*
X0288597Y0196075D03*
X0288597Y0194106D03*
X0288597Y0192138D03*
X0288597Y0190169D03*
X0288597Y0188201D03*
X0288597Y0186232D03*
X0288597Y0184264D03*
X0288597Y0182295D03*
X0288597Y0180327D03*
X0288597Y0178358D03*
X0288597Y0176389D03*
X0288597Y0174421D03*
X0288597Y0172452D03*
X0288597Y0170484D03*
X0288597Y0168515D03*
X0288597Y0166547D03*
X0332691Y0166547D03*
X0332691Y0168515D03*
X0332691Y0170484D03*
X0332691Y0172452D03*
X0332691Y0174421D03*
X0332691Y0176389D03*
X0332691Y0178358D03*
X0332691Y0180327D03*
X0332691Y0182295D03*
X0332691Y0184264D03*
X0332691Y0186232D03*
X0332691Y0188201D03*
X0332691Y0190169D03*
X0332691Y0192138D03*
X0332691Y0194106D03*
X0332691Y0196075D03*
D19*
X0325408Y0203358D03*
X0323439Y0203358D03*
X0321471Y0203358D03*
X0319502Y0203358D03*
X0317534Y0203358D03*
X0315565Y0203358D03*
X0313597Y0203358D03*
X0311628Y0203358D03*
X0309660Y0203358D03*
X0307691Y0203358D03*
X0305723Y0203358D03*
X0303754Y0203358D03*
X0301786Y0203358D03*
X0299817Y0203358D03*
X0297849Y0203358D03*
X0295880Y0203358D03*
X0295880Y0159264D03*
X0297849Y0159264D03*
X0299817Y0159264D03*
X0301786Y0159264D03*
X0303754Y0159264D03*
X0305723Y0159264D03*
X0307691Y0159264D03*
X0309660Y0159264D03*
X0311628Y0159264D03*
X0313597Y0159264D03*
X0315565Y0159264D03*
X0317534Y0159264D03*
X0319502Y0159264D03*
X0321471Y0159264D03*
X0323439Y0159264D03*
X0325408Y0159264D03*
D20*
X0332691Y0242177D03*
X0332691Y0244736D03*
X0332691Y0247295D03*
X0332691Y0249854D03*
X0332691Y0252413D03*
X0332691Y0254972D03*
X0332691Y0257531D03*
X0332691Y0260090D03*
X0332691Y0262649D03*
X0332691Y0265208D03*
X0332691Y0267767D03*
X0332691Y0270327D03*
X0332691Y0272886D03*
X0332691Y0275445D03*
X0304345Y0275445D03*
X0304345Y0272886D03*
X0304345Y0270327D03*
X0304345Y0267767D03*
X0304345Y0265208D03*
X0304345Y0262649D03*
X0304345Y0260090D03*
X0304345Y0257531D03*
X0304345Y0254972D03*
X0304345Y0252413D03*
X0304345Y0249854D03*
X0304345Y0247295D03*
X0304345Y0244736D03*
X0304345Y0242177D03*
X0110061Y0252898D03*
X0110061Y0255457D03*
X0110061Y0258016D03*
X0110061Y0260575D03*
X0110061Y0263134D03*
X0110061Y0265693D03*
X0110061Y0268252D03*
X0110061Y0270812D03*
X0110061Y0273371D03*
X0110061Y0275930D03*
X0110061Y0278489D03*
X0110061Y0281048D03*
X0110061Y0283607D03*
X0110061Y0286166D03*
X0081715Y0286166D03*
X0081715Y0283607D03*
X0081715Y0281048D03*
X0081715Y0278489D03*
X0081715Y0275930D03*
X0081715Y0273371D03*
X0081715Y0270812D03*
X0081715Y0268252D03*
X0081715Y0265693D03*
X0081715Y0263134D03*
X0081715Y0260575D03*
X0081715Y0258016D03*
X0081715Y0255457D03*
X0081715Y0252898D03*
D21*
X0089983Y0264867D03*
X0089983Y0273725D03*
X0071282Y0289473D03*
X0091459Y0295871D03*
X0118526Y0279630D03*
X0122955Y0277170D03*
X0129353Y0288489D03*
X0060455Y0249119D03*
X0080140Y0121166D03*
X0091459Y0114768D03*
X0088998Y0110339D03*
X0094904Y0081796D03*
X0103762Y0081796D03*
X0079156Y0063095D03*
X0072758Y0083272D03*
X0119510Y0052268D03*
X0282101Y0149815D03*
X0281117Y0165563D03*
X0282101Y0212807D03*
X0277180Y0222649D03*
X0286038Y0232492D03*
X0277180Y0243319D03*
X0295880Y0250208D03*
X0312613Y0263004D03*
X0287514Y0278752D03*
X0297357Y0291055D03*
X0341156Y0268909D03*
X0345585Y0266449D03*
X0351983Y0277767D03*
X0310644Y0233860D03*
X0318126Y0229947D03*
X0324374Y0226326D03*
X0331894Y0221311D03*
X0339394Y0221311D03*
X0339187Y0212807D03*
X0340172Y0198043D03*
X0306707Y0210838D03*
X0294896Y0210838D03*
D22*
X0286510Y0253673D03*
X0277849Y0253673D03*
X0277849Y0268240D03*
X0286510Y0268240D03*
X0071754Y0275024D03*
X0063093Y0275024D03*
X0063093Y0260457D03*
X0071754Y0260457D03*
D23*
X0080632Y0295871D03*
X0118132Y0288489D03*
X0102286Y0114768D03*
X0110455Y0101087D03*
X0113014Y0100497D03*
X0115967Y0100497D03*
X0115967Y0074906D03*
X0113014Y0074906D03*
X0340762Y0277767D03*
D24*
X0345585Y0255622D03*
X0344113Y0204478D03*
X0277249Y0204556D03*
X0277049Y0157837D03*
X0297357Y0280228D03*
X0122955Y0266343D03*
X0109274Y0258174D03*
X0108683Y0255615D03*
X0108683Y0252662D03*
X0083093Y0252662D03*
X0083093Y0255615D03*
X0080140Y0109945D03*
X0072758Y0072445D03*
D25*
X0034865Y0113292D03*
X0023054Y0113292D03*
X0251400Y0026678D03*
X0251400Y0014867D03*
X0359782Y0158369D03*
D26*
X0360782Y0168369D03*
X0359782Y0178369D03*
X0360782Y0188369D03*
X0359782Y0198369D03*
X0360782Y0208369D03*
X0359782Y0218369D03*
X0360782Y0228369D03*
X0320219Y0112032D03*
X0310219Y0112032D03*
X0310219Y0102032D03*
X0320219Y0102032D03*
X0300219Y0102032D03*
X0300219Y0112032D03*
X0222219Y0172032D03*
X0212219Y0172032D03*
X0212219Y0182032D03*
X0222219Y0182032D03*
X0202219Y0182032D03*
X0202219Y0172032D03*
X0192219Y0172032D03*
X0182219Y0172032D03*
X0172345Y0172347D03*
X0172345Y0182347D03*
X0182219Y0182032D03*
X0192219Y0182032D03*
X0162345Y0182347D03*
X0162345Y0172347D03*
X0034865Y0173292D03*
X0034865Y0183292D03*
X0034865Y0193292D03*
X0034865Y0203292D03*
X0034865Y0213292D03*
X0034865Y0223292D03*
X0034865Y0233292D03*
X0034865Y0243292D03*
X0034865Y0253292D03*
X0034865Y0263292D03*
X0034865Y0273292D03*
X0034865Y0283292D03*
X0034865Y0293292D03*
X0034865Y0303292D03*
X0023054Y0303292D03*
X0023054Y0293292D03*
X0023054Y0283292D03*
X0023054Y0273292D03*
X0023054Y0263292D03*
X0023054Y0253292D03*
X0023054Y0243292D03*
X0023054Y0233292D03*
X0023054Y0223292D03*
X0023054Y0213292D03*
X0023054Y0203292D03*
X0023054Y0193292D03*
X0023054Y0183292D03*
X0023054Y0173292D03*
X0023054Y0163292D03*
X0023054Y0153292D03*
X0023054Y0143292D03*
X0023054Y0133292D03*
X0023054Y0123292D03*
X0034865Y0123292D03*
X0034865Y0133292D03*
X0034865Y0143292D03*
X0034865Y0153292D03*
X0034865Y0163292D03*
X0061400Y0026678D03*
X0071400Y0026678D03*
X0081400Y0026678D03*
X0091400Y0026678D03*
X0101400Y0026678D03*
X0111400Y0026678D03*
X0121400Y0026678D03*
X0131400Y0026678D03*
X0141400Y0026678D03*
X0151400Y0026678D03*
X0161400Y0026678D03*
X0171400Y0026678D03*
X0181400Y0026678D03*
X0191400Y0026678D03*
X0201400Y0026678D03*
X0211400Y0026678D03*
X0221400Y0026678D03*
X0231400Y0026678D03*
X0241400Y0026678D03*
X0241400Y0014867D03*
X0231400Y0014867D03*
X0221400Y0014867D03*
X0211400Y0014867D03*
X0201400Y0014867D03*
X0191400Y0014867D03*
X0181400Y0014867D03*
X0171400Y0014867D03*
X0161400Y0014867D03*
X0151400Y0014867D03*
X0141400Y0014867D03*
X0131400Y0014867D03*
X0121400Y0014867D03*
X0111400Y0014867D03*
X0101400Y0014867D03*
X0091400Y0014867D03*
X0081400Y0014867D03*
X0071400Y0014867D03*
X0061400Y0014867D03*
D27*
X0233683Y0089670D03*
X0233683Y0099512D03*
D28*
X0115731Y0101875D03*
X0113172Y0101875D03*
X0110613Y0101875D03*
X0108054Y0101875D03*
X0105494Y0101875D03*
X0102935Y0101875D03*
X0100376Y0101875D03*
X0097817Y0101875D03*
X0095258Y0101875D03*
X0092699Y0101875D03*
X0090140Y0101875D03*
X0087581Y0101875D03*
X0085022Y0101875D03*
X0082463Y0101875D03*
X0082463Y0073528D03*
X0085022Y0073528D03*
X0087581Y0073528D03*
X0090140Y0073528D03*
X0092699Y0073528D03*
X0095258Y0073528D03*
X0097817Y0073528D03*
X0100376Y0073528D03*
X0102935Y0073528D03*
X0105494Y0073528D03*
X0108054Y0073528D03*
X0110613Y0073528D03*
X0113172Y0073528D03*
X0115731Y0073528D03*
D29*
X0108172Y0063567D03*
X0108172Y0054906D03*
X0093605Y0054906D03*
X0093605Y0063567D03*
D30*
X0138998Y0096560D03*
X0138998Y0102465D03*
X0147266Y0102465D03*
X0147266Y0096560D03*
D31*
X0056219Y0140527D03*
X0056219Y0152338D03*
D32*
X0220827Y0050583D03*
X0232638Y0050583D03*
D33*
X0300498Y0050189D03*
X0300498Y0048221D03*
X0300498Y0046252D03*
X0300498Y0052158D03*
X0310538Y0052158D03*
X0310538Y0050189D03*
X0310538Y0048221D03*
X0310538Y0046252D03*
X0240491Y0241512D03*
X0240491Y0243481D03*
X0240491Y0245449D03*
X0240491Y0247418D03*
X0230451Y0247418D03*
X0230451Y0245449D03*
X0230451Y0243481D03*
X0230451Y0241512D03*
D34*
X0232518Y0239445D03*
X0234487Y0239445D03*
X0236455Y0239445D03*
X0238424Y0239445D03*
X0238424Y0249485D03*
X0236455Y0249485D03*
X0234487Y0249485D03*
X0232518Y0249485D03*
X0302565Y0054225D03*
X0304534Y0054225D03*
X0306502Y0054225D03*
X0308471Y0054225D03*
X0308471Y0044186D03*
X0306502Y0044186D03*
X0304534Y0044186D03*
X0302565Y0044186D03*
D35*
X0193138Y0268018D03*
X0185658Y0268018D03*
D36*
X0202867Y0255831D03*
X0202867Y0248351D03*
D37*
X0192975Y0250408D03*
X0191006Y0250408D03*
X0189038Y0250408D03*
X0189038Y0257593D03*
X0191006Y0257593D03*
X0192975Y0257593D03*
D38*
X0195583Y0256953D03*
X0195583Y0254985D03*
X0195583Y0253016D03*
X0195583Y0251048D03*
X0186430Y0251048D03*
X0186430Y0253016D03*
X0186430Y0254985D03*
X0186430Y0256953D03*
D39*
X0175288Y0255280D03*
X0175288Y0247800D03*
X0175288Y0262760D03*
D40*
X0134071Y0224023D03*
X0119510Y0233371D03*
X0115573Y0237308D03*
X0093920Y0233371D03*
X0101794Y0207780D03*
X0109668Y0207780D03*
X0119510Y0201875D03*
X0134619Y0193632D03*
X0105731Y0160536D03*
X0099825Y0160536D03*
X0125416Y0146756D03*
X0119510Y0131008D03*
X0135258Y0111323D03*
X0131321Y0107386D03*
X0147006Y0124284D03*
X0166754Y0111323D03*
X0160849Y0101481D03*
X0160849Y0093607D03*
X0135258Y0085733D03*
X0174880Y0125084D03*
X0208093Y0097544D03*
X0208093Y0091638D03*
X0221872Y0117229D03*
X0237620Y0111323D03*
X0237620Y0077859D03*
X0194313Y0039289D03*
X0186439Y0039289D03*
X0178565Y0039289D03*
X0186808Y0064079D03*
X0250219Y0156032D03*
X0281912Y0143804D03*
X0235219Y0221032D03*
X0233202Y0254408D03*
X0239772Y0254478D03*
X0273019Y0288832D03*
X0350619Y0256032D03*
X0353019Y0288832D03*
X0293619Y0064632D03*
X0303219Y0059032D03*
X0309619Y0059032D03*
X0086046Y0131008D03*
X0047476Y0174315D03*
X0047476Y0182189D03*
X0047476Y0190064D03*
X0073250Y0184158D03*
D41*
X0058487Y0169985D03*
X0058487Y0203843D03*
X0073082Y0202898D03*
X0078682Y0202898D03*
X0085082Y0202898D03*
X0090682Y0202898D03*
X0111913Y0202098D03*
X0111882Y0194098D03*
X0127384Y0213686D03*
X0133019Y0183232D03*
X0142619Y0183232D03*
X0171819Y0152932D03*
X0178219Y0145032D03*
X0158219Y0148032D03*
X0154943Y0118397D03*
X0168131Y0105695D03*
X0168131Y0100095D03*
X0181219Y0100032D03*
X0181219Y0107032D03*
X0165731Y0082495D03*
X0165731Y0076895D03*
X0165731Y0070495D03*
X0165731Y0064895D03*
X0164786Y0050300D03*
X0141164Y0050300D03*
X0141731Y0064895D03*
X0134531Y0064895D03*
X0139195Y0077859D03*
X0133731Y0079295D03*
X0127331Y0088895D03*
X0103419Y0120032D03*
X0128369Y0126087D03*
X0110455Y0146363D03*
X0063419Y0131232D03*
X0056219Y0113632D03*
X0049019Y0112832D03*
X0066619Y0071232D03*
X0198644Y0050300D03*
X0242619Y0058432D03*
X0222266Y0102268D03*
X0203219Y0145032D03*
X0214219Y0147032D03*
X0242219Y0206032D03*
X0235672Y0235178D03*
X0226272Y0247178D03*
X0211219Y0245032D03*
X0235652Y0290457D03*
X0255337Y0291441D03*
X0284219Y0293632D03*
X0296219Y0271232D03*
X0301819Y0191232D03*
X0308619Y0191232D03*
X0308219Y0179032D03*
X0312219Y0171032D03*
X0320219Y0168032D03*
X0302219Y0143032D03*
X0306219Y0137032D03*
X0295219Y0136032D03*
X0339219Y0141032D03*
X0296819Y0052632D03*
X0306019Y0040232D03*
X0306419Y0026632D03*
X0097082Y0241298D03*
X0087482Y0234898D03*
X0086046Y0229434D03*
X0073082Y0226898D03*
X0073082Y0234098D03*
X0058487Y0227465D03*
X0097857Y0278646D03*
X0091951Y0284552D03*
X0077819Y0298432D03*
X0057819Y0300032D03*
X0057819Y0309632D03*
X0057019Y0289632D03*
X0113605Y0290457D03*
X0138619Y0294432D03*
X0139419Y0288032D03*
X0145819Y0293632D03*
X0154619Y0294432D03*
X0129819Y0265632D03*
D42*
X0190574Y0253253D03*
X0195288Y0245280D03*
X0195288Y0261530D03*
D43*
X0201721Y0259430D03*
X0204221Y0259430D03*
X0181861Y0266888D03*
X0181861Y0269388D03*
X0176561Y0265538D03*
X0174061Y0265538D03*
D44*
X0223219Y0259032D03*
M02*
