  0
SECTION
  2
HEADER
  9
$ACADVER
  1
AC1009
  9
$FILLMODE
 70
1
  9
$EXTMIN
 10
-77.0000
 20
-77.0000
 30
0.0000
  9
$EXTMAX
 10
77.0000
 20
77.0000
 30
0.0000
  0
ENDSEC
  0
SECTION
  2
TABLES
  0
TABLE
  2
LTYPE
 70
1
  0
LTYPE
  2
CONTINUOUS
 70
64
  3
Solid line
 72
65
 73
0
 40
0
  0
ENDTAB
  0
TABLE
  2
LAYER
 70
255
  0
LAYER
  2
17
 70
64
 62
82
  6
CONTINUOUS
  0
LAYER
  2
20
 70
64
 62
30
  6
CONTINUOUS
  0
ENDTAB
  0
ENDSEC
  0
SECTION
  2
BLOCKS
  0
BLOCK
  8
0
  2
RECT
 70
64
 10
0.0000
 20
0.0000
 30
0.0000
  3
RECT
  0
SOLID
  8
0
 10
-0.5000
 20
-0.5000
 30
0.0000
 11
0.5000
 21
-0.5000
 31
0.0000
 12
-0.5000
 22
0.5000
 32
0.0000
 13
0.5000
 23
0.5000
 33
0.0000
  0
ENDBLK
  8
0
  0
BLOCK
  8
0
  2
PIE
 70
64
 10
0.0000
 20
0.0000
 30
0.0000
  3
PIE
  0
POLYLINE
  8
0
 66
1
 10
0.0000
 20
0.0000
 30
0.0000
 40
0.5000
 41
0.5000
 70
0
  0
VERTEX
  8
0
 10
0.0000
 20
-0.2500
 30
0.0000
 42
1.0000
  0
VERTEX
  8
0
 10
0.0000
 20
0.2500
 30
0.0000
 42
1.0000
  0
VERTEX
  8
0
 10
0.0000
 20
-0.2500
 30
0.0000
  0
SEQEND
  8
0
  0
ENDBLK
  8
0
  0
BLOCK
  8
0
  2
OCTAGONP
 70
64
 10
0.0000
 20
0.0000
 30
0.0000
  3
OCTAGONP
  0
POLYLINE
  8
0
 66
1
 10
0.0000
 20
0.0000
 30
0.0000
 40
0.5000
 41
0.5000
 70
0
  0
VERTEX
  8
0
 10
-0.2500
 20
-0.1036
 30
0.0000
  0
VERTEX
  8
0
 10
-0.2500
 20
0.1036
 30
0.0000
  0
VERTEX
  8
0
 10
-0.1036
 20
0.2500
 30
0.0000
  0
VERTEX
  8
0
 10
0.1036
 20
0.2500
 30
0.0000
  0
VERTEX
  8
0
 10
0.2500
 20
0.1036
 30
0.0000
  0
VERTEX
  8
0
 10
0.2500
 20
-0.1036
 30
0.0000
  0
VERTEX
  8
0
 10
0.1036
 20
-0.2500
 30
0.0000
  0
VERTEX
  8
0
 10
-0.1036
 20
-0.2500
 30
0.0000
  0
VERTEX
  8
0
 10
-0.2500
 20
-0.1036
 30
0.0000
  0
VERTEX
  8
0
 10
-0.2500
 20
0.1036
 30
0.0000
  0
SEQEND
  8
0
  0
ENDBLK
  8
0
  0
BLOCK
  8
0
  2
SQUAREP
 70
64
 10
0.0000
 20
0.0000
 30
0.0000
  3
SQUAREP
  0
SOLID
  8
0
 10
-0.5000
 20
-0.5000
 30
0.0000
 11
0.5000
 21
-0.5000
 31
0.0000
 12
-0.5000
 22
0.5000
 32
0.0000
 13
0.5000
 23
0.5000
 33
0.0000
  0
ENDBLK
  8
0
  0
BLOCK
  8
0
  2
ROUNDP
 70
64
 10
0.0000
 20
0.0000
 30
0.0000
  3
ROUNDP
  0
POLYLINE
  8
0
 66
1
 10
0.0000
 20
0.0000
 30
0.0000
 40
0.5000
 41
0.5000
 70
0
  0
VERTEX
  8
0
 10
0.0000
 20
-0.2500
 30
0.0000
 42
1.0000
  0
VERTEX
  8
0
 10
0.0000
 20
0.2500
 30
0.0000
 42
1.0000
  0
VERTEX
  8
0
 10
0.0000
 20
-0.2500
 30
0.0000
  0
SEQEND
  8
0
  0
ENDBLK
  8
0
  0
BLOCK
  8
0
  2
ANNULUSP
 70
64
 10
0.0000
 20
0.0000
 30
0.0000
  3
ANNULUSP
  0
POLYLINE
  8
0
 66
1
 10
0.0000
 20
0.0000
 30
0.0000
 40
0.5000
 41
0.5000
 70
0
  0
VERTEX
  8
0
 10
0.0000
 20
-0.2500
 30
0.0000
 42
1.0000
  0
VERTEX
  8
0
 10
0.0000
 20
0.2500
 30
0.0000
 42
1.0000
  0
VERTEX
  8
0
 10
0.0000
 20
-0.2500
 30
0.0000
  0
SEQEND
  8
0
  0
ENDBLK
  8
0
  0
BLOCK
  8
0
  2
THERMALP
 70
64
 10
0.0000
 20
0.0000
 30
0.0000
  3
THERMALP
  0
POLYLINE
  8
0
 66
1
 10
0.0000
 20
0.0000
 30
0.0000
 40
0.1000
 41
0.1000
 70
0
  0
VERTEX
  8
0
 10
-0.2379
 20
0.4500
 30
0.0000
  0
VERTEX
  8
0
 10
0.2379
 20
0.4500
 30
0.0000
  0
SEQEND
  8
0
  0
POLYLINE
  8
0
 66
1
 10
0.0000
 20
0.0000
 30
0.0000
 40
0.0500
 41
0.0500
 70
0
  0
VERTEX
  8
0
 10
0.2379
 20
0.4250
 30
0.0000
 42
1.0000
  0
VERTEX
  8
0
 10
0.2379
 20
0.4750
 30
0.0000
  0
SEQEND
  8
0
  0
POLYLINE
  8
0
 66
1
 10
0.0000
 20
0.0000
 30
0.0000
 40
0.0500
 41
0.0500
 70
0
  0
VERTEX
  8
0
 10
-0.2379
 20
0.4750
 30
0.0000
 42
1.0000
  0
VERTEX
  8
0
 10
-0.2379
 20
0.4250
 30
0.0000
  0
SEQEND
  8
0
  0
POLYLINE
  8
0
 66
1
 10
0.0000
 20
0.0000
 30
0.0000
 40
0.1000
 41
0.1000
 70
0
  0
VERTEX
  8
0
 10
0.4500
 20
0.2379
 30
0.0000
  0
VERTEX
  8
0
 10
0.4500
 20
-0.2379
 30
0.0000
  0
SEQEND
  8
0
  0
POLYLINE
  8
0
 66
1
 10
0.0000
 20
0.0000
 30
0.0000
 40
0.0500
 41
0.0500
 70
0
  0
VERTEX
  8
0
 10
0.4250
 20
-0.2379
 30
0.0000
 42
1.0000
  0
VERTEX
  8
0
 10
0.4750
 20
-0.2379
 30
0.0000
  0
SEQEND
  8
0
  0
POLYLINE
  8
0
 66
1
 10
0.0000
 20
0.0000
 30
0.0000
 40
0.0500
 41
0.0500
 70
0
  0
VERTEX
  8
0
 10
0.4750
 20
0.2379
 30
0.0000
 42
1.0000
  0
VERTEX
  8
0
 10
0.4250
 20
0.2379
 30
0.0000
  0
SEQEND
  8
0
  0
POLYLINE
  8
0
 66
1
 10
0.0000
 20
0.0000
 30
0.0000
 40
0.1000
 41
0.1000
 70
0
  0
VERTEX
  8
0
 10
0.2379
 20
-0.4500
 30
0.0000
  0
VERTEX
  8
0
 10
-0.2379
 20
-0.4500
 30
0.0000
  0
SEQEND
  8
0
  0
POLYLINE
  8
0
 66
1
 10
0.0000
 20
0.0000
 30
0.0000
 40
0.0500
 41
0.0500
 70
0
  0
VERTEX
  8
0
 10
-0.2379
 20
-0.4250
 30
0.0000
 42
1.0000
  0
VERTEX
  8
0
 10
-0.2379
 20
-0.4750
 30
0.0000
  0
SEQEND
  8
0
  0
POLYLINE
  8
0
 66
1
 10
0.0000
 20
0.0000
 30
0.0000
 40
0.0500
 41
0.0500
 70
0
  0
VERTEX
  8
0
 10
0.2379
 20
-0.4750
 30
0.0000
 42
1.0000
  0
VERTEX
  8
0
 10
0.2379
 20
-0.4250
 30
0.0000
  0
SEQEND
  8
0
  0
POLYLINE
  8
0
 66
1
 10
0.0000
 20
0.0000
 30
0.0000
 40
0.1000
 41
0.1000
 70
0
  0
VERTEX
  8
0
 10
-0.4500
 20
-0.2379
 30
0.0000
  0
VERTEX
  8
0
 10
-0.4500
 20
0.2379
 30
0.0000
  0
SEQEND
  8
0
  0
POLYLINE
  8
0
 66
1
 10
0.0000
 20
0.0000
 30
0.0000
 40
0.0500
 41
0.0500
 70
0
  0
VERTEX
  8
0
 10
-0.4250
 20
0.2379
 30
0.0000
 42
1.0000
  0
VERTEX
  8
0
 10
-0.4750
 20
0.2379
 30
0.0000
  0
SEQEND
  8
0
  0
POLYLINE
  8
0
 66
1
 10
0.0000
 20
0.0000
 30
0.0000
 40
0.0500
 41
0.0500
 70
0
  0
VERTEX
  8
0
 10
-0.4750
 20
-0.2379
 30
0.0000
 42
1.0000
  0
VERTEX
  8
0
 10
-0.4250
 20
-0.2379
 30
0.0000
  0
SEQEND
  8
0
  0
ENDBLK
  8
0
  0
BLOCK
  8
0
  2
OCTAGONV
 70
64
 10
0.0000
 20
0.0000
 30
0.0000
  3
OCTAGONV
  0
POLYLINE
  8
0
 66
1
 10
0.0000
 20
0.0000
 30
0.0000
 40
0.5000
 41
0.5000
 70
0
  0
VERTEX
  8
0
 10
-0.2500
 20
-0.1036
 30
0.0000
  0
VERTEX
  8
0
 10
-0.2500
 20
0.1036
 30
0.0000
  0
VERTEX
  8
0
 10
-0.1036
 20
0.2500
 30
0.0000
  0
VERTEX
  8
0
 10
0.1036
 20
0.2500
 30
0.0000
  0
VERTEX
  8
0
 10
0.2500
 20
0.1036
 30
0.0000
  0
VERTEX
  8
0
 10
0.2500
 20
-0.1036
 30
0.0000
  0
VERTEX
  8
0
 10
0.1036
 20
-0.2500
 30
0.0000
  0
VERTEX
  8
0
 10
-0.1036
 20
-0.2500
 30
0.0000
  0
VERTEX
  8
0
 10
-0.2500
 20
-0.1036
 30
0.0000
  0
VERTEX
  8
0
 10
-0.2500
 20
0.1036
 30
0.0000
  0
SEQEND
  8
0
  0
ENDBLK
  8
0
  0
BLOCK
  8
0
  2
SQUAREV
 70
64
 10
0.0000
 20
0.0000
 30
0.0000
  3
SQUAREV
  0
SOLID
  8
0
 10
-0.5000
 20
-0.5000
 30
0.0000
 11
0.5000
 21
-0.5000
 31
0.0000
 12
-0.5000
 22
0.5000
 32
0.0000
 13
0.5000
 23
0.5000
 33
0.0000
  0
ENDBLK
  8
0
  0
BLOCK
  8
0
  2
ROUNDV
 70
64
 10
0.0000
 20
0.0000
 30
0.0000
  3
ROUNDV
  0
POLYLINE
  8
0
 66
1
 10
0.0000
 20
0.0000
 30
0.0000
 40
0.5000
 41
0.5000
 70
0
  0
VERTEX
  8
0
 10
0.0000
 20
-0.2500
 30
0.0000
 42
1.0000
  0
VERTEX
  8
0
 10
0.0000
 20
0.2500
 30
0.0000
 42
1.0000
  0
VERTEX
  8
0
 10
0.0000
 20
-0.2500
 30
0.0000
  0
SEQEND
  8
0
  0
ENDBLK
  8
0
  0
BLOCK
  8
0
  2
ANNULUSV
 70
64
 10
0.0000
 20
0.0000
 30
0.0000
  3
ANNULUSV
  0
POLYLINE
  8
0
 66
1
 10
0.0000
 20
0.0000
 30
0.0000
 40
0.5000
 41
0.5000
 70
0
  0
VERTEX
  8
0
 10
0.0000
 20
-0.2500
 30
0.0000
 42
1.0000
  0
VERTEX
  8
0
 10
0.0000
 20
0.2500
 30
0.0000
 42
1.0000
  0
VERTEX
  8
0
 10
0.0000
 20
-0.2500
 30
0.0000
  0
SEQEND
  8
0
  0
ENDBLK
  8
0
  0
BLOCK
  8
0
  2
THERMALV
 70
64
 10
0.0000
 20
0.0000
 30
0.0000
  3
THERMALV
  0
POLYLINE
  8
0
 66
1
 10
0.0000
 20
0.0000
 30
0.0000
 40
0.1000
 41
0.1000
 70
0
  0
VERTEX
  8
0
 10
-0.2379
 20
0.4500
 30
0.0000
  0
VERTEX
  8
0
 10
0.2379
 20
0.4500
 30
0.0000
  0
SEQEND
  8
0
  0
POLYLINE
  8
0
 66
1
 10
0.0000
 20
0.0000
 30
0.0000
 40
0.0500
 41
0.0500
 70
0
  0
VERTEX
  8
0
 10
0.2379
 20
0.4250
 30
0.0000
 42
1.0000
  0
VERTEX
  8
0
 10
0.2379
 20
0.4750
 30
0.0000
  0
SEQEND
  8
0
  0
POLYLINE
  8
0
 66
1
 10
0.0000
 20
0.0000
 30
0.0000
 40
0.0500
 41
0.0500
 70
0
  0
VERTEX
  8
0
 10
-0.2379
 20
0.4750
 30
0.0000
 42
1.0000
  0
VERTEX
  8
0
 10
-0.2379
 20
0.4250
 30
0.0000
  0
SEQEND
  8
0
  0
POLYLINE
  8
0
 66
1
 10
0.0000
 20
0.0000
 30
0.0000
 40
0.1000
 41
0.1000
 70
0
  0
VERTEX
  8
0
 10
0.4500
 20
0.2379
 30
0.0000
  0
VERTEX
  8
0
 10
0.4500
 20
-0.2379
 30
0.0000
  0
SEQEND
  8
0
  0
POLYLINE
  8
0
 66
1
 10
0.0000
 20
0.0000
 30
0.0000
 40
0.0500
 41
0.0500
 70
0
  0
VERTEX
  8
0
 10
0.4250
 20
-0.2379
 30
0.0000
 42
1.0000
  0
VERTEX
  8
0
 10
0.4750
 20
-0.2379
 30
0.0000
  0
SEQEND
  8
0
  0
POLYLINE
  8
0
 66
1
 10
0.0000
 20
0.0000
 30
0.0000
 40
0.0500
 41
0.0500
 70
0
  0
VERTEX
  8
0
 10
0.4750
 20
0.2379
 30
0.0000
 42
1.0000
  0
VERTEX
  8
0
 10
0.4250
 20
0.2379
 30
0.0000
  0
SEQEND
  8
0
  0
POLYLINE
  8
0
 66
1
 10
0.0000
 20
0.0000
 30
0.0000
 40
0.1000
 41
0.1000
 70
0
  0
VERTEX
  8
0
 10
0.2379
 20
-0.4500
 30
0.0000
  0
VERTEX
  8
0
 10
-0.2379
 20
-0.4500
 30
0.0000
  0
SEQEND
  8
0
  0
POLYLINE
  8
0
 66
1
 10
0.0000
 20
0.0000
 30
0.0000
 40
0.0500
 41
0.0500
 70
0
  0
VERTEX
  8
0
 10
-0.2379
 20
-0.4250
 30
0.0000
 42
1.0000
  0
VERTEX
  8
0
 10
-0.2379
 20
-0.4750
 30
0.0000
  0
SEQEND
  8
0
  0
POLYLINE
  8
0
 66
1
 10
0.0000
 20
0.0000
 30
0.0000
 40
0.0500
 41
0.0500
 70
0
  0
VERTEX
  8
0
 10
0.2379
 20
-0.4750
 30
0.0000
 42
1.0000
  0
VERTEX
  8
0
 10
0.2379
 20
-0.4250
 30
0.0000
  0
SEQEND
  8
0
  0
POLYLINE
  8
0
 66
1
 10
0.0000
 20
0.0000
 30
0.0000
 40
0.1000
 41
0.1000
 70
0
  0
VERTEX
  8
0
 10
-0.4500
 20
-0.2379
 30
0.0000
  0
VERTEX
  8
0
 10
-0.4500
 20
0.2379
 30
0.0000
  0
SEQEND
  8
0
  0
POLYLINE
  8
0
 66
1
 10
0.0000
 20
0.0000
 30
0.0000
 40
0.0500
 41
0.0500
 70
0
  0
VERTEX
  8
0
 10
-0.4250
 20
0.2379
 30
0.0000
 42
1.0000
  0
VERTEX
  8
0
 10
-0.4750
 20
0.2379
 30
0.0000
  0
SEQEND
  8
0
  0
POLYLINE
  8
0
 66
1
 10
0.0000
 20
0.0000
 30
0.0000
 40
0.0500
 41
0.0500
 70
0
  0
VERTEX
  8
0
 10
-0.4750
 20
-0.2379
 30
0.0000
 42
1.0000
  0
VERTEX
  8
0
 10
-0.4250
 20
-0.2379
 30
0.0000
  0
SEQEND
  8
0
  0
ENDBLK
  8
0
  0
BLOCK
  8
0
  2
LONGP100
 70
64
 10
0.0000
 20
0.0000
 30
0.0000
  3
LONGP100
  0
POLYLINE
  8
0
 66
1
 10
0.0000
 20
0.0000
 30
0.0000
 40
1.0000
 41
1.0000
 70
0
  0
VERTEX
  8
0
 10
-0.5000
 20
0.0000
 30
0.0000
  0
VERTEX
  8
0
 10
0.5000
 20
0.0000
 30
0.0000
  0
SEQEND
  8
0
  0
POLYLINE
  8
0
 66
1
 10
0.0000
 20
0.0000
 30
0.0000
 40
0.5000
 41
0.5000
 70
0
  0
VERTEX
  8
0
 10
0.5000
 20
-0.2500
 30
0.0000
 42
1.0000
  0
VERTEX
  8
0
 10
0.5000
 20
0.2500
 30
0.0000
  0
SEQEND
  8
0
  0
POLYLINE
  8
0
 66
1
 10
0.0000
 20
0.0000
 30
0.0000
 40
0.5000
 41
0.5000
 70
0
  0
VERTEX
  8
0
 10
-0.5000
 20
0.2500
 30
0.0000
 42
1.0000
  0
VERTEX
  8
0
 10
-0.5000
 20
-0.2500
 30
0.0000
  0
SEQEND
  8
0
  0
ENDBLK
  8
0
  0
ENDSEC
  0
SECTION
  2
ENTITIES
  0
INSERT
  8
17
  2
ROUNDP
 10
-14.8750
 20
23.3250
 30
0.0000
 41
1.1176
 42
1.1176
 43
1.0000
 50
0.0000
  0
INSERT
  8
17
  2
ROUNDP
 10
-14.8750
 20
23.3250
 30
0.0000
 41
1.1176
 42
1.1176
 43
1.0000
 50
0.0000
  0
INSERT
  8
17
  2
ROUNDP
 10
-14.8500
 20
21.4250
 30
0.0000
 41
1.1176
 42
1.1176
 43
1.0000
 50
270.0000
  0
INSERT
  8
17
  2
ROUNDP
 10
-14.8500
 20
21.4250
 30
0.0000
 41
1.1176
 42
1.1176
 43
1.0000
 50
270.0000
  0
INSERT
  8
17
  2
ROUNDP
 10
-7.6000
 20
23.5500
 30
0.0000
 41
1.1176
 42
1.1176
 43
1.0000
 50
90.0000
  0
INSERT
  8
17
  2
ROUNDP
 10
-7.6000
 20
23.5500
 30
0.0000
 41
1.1176
 42
1.1176
 43
1.0000
 50
90.0000
  0
INSERT
  8
17
  2
ROUNDP
 10
-10.8500
 20
27.8000
 30
0.0000
 41
1.1176
 42
1.1176
 43
1.0000
 50
90.0000
  0
INSERT
  8
17
  2
ROUNDP
 10
-10.8500
 20
27.8000
 30
0.0000
 41
1.1176
 42
1.1176
 43
1.0000
 50
90.0000
  0
INSERT
  8
17
  2
ROUNDP
 10
-5.8500
 20
18.8000
 30
0.0000
 41
1.1176
 42
1.1176
 43
1.0000
 50
90.0000
  0
INSERT
  8
17
  2
ROUNDP
 10
-5.8500
 20
18.8000
 30
0.0000
 41
1.1176
 42
1.1176
 43
1.0000
 50
90.0000
  0
INSERT
  8
17
  2
ROUNDP
 10
-0.6000
 20
18.8000
 30
0.0000
 41
1.1176
 42
1.1176
 43
1.0000
 50
90.0000
  0
INSERT
  8
17
  2
ROUNDP
 10
-0.6000
 20
18.8000
 30
0.0000
 41
1.1176
 42
1.1176
 43
1.0000
 50
90.0000
  0
INSERT
  8
17
  2
ROUNDP
 10
1.9000
 20
20.0500
 30
0.0000
 41
1.1176
 42
1.1176
 43
1.0000
 50
90.0000
  0
INSERT
  8
17
  2
ROUNDP
 10
1.9000
 20
20.0500
 30
0.0000
 41
1.1176
 42
1.1176
 43
1.0000
 50
90.0000
  0
INSERT
  8
17
  2
ROUNDP
 10
2.4000
 20
23.3000
 30
0.0000
 41
1.1176
 42
1.1176
 43
1.0000
 50
90.0000
  0
INSERT
  8
17
  2
ROUNDP
 10
2.4000
 20
23.3000
 30
0.0000
 41
1.1176
 42
1.1176
 43
1.0000
 50
90.0000
  0
INSERT
  8
17
  2
ROUNDP
 10
2.4000
 20
26.3000
 30
0.0000
 41
1.1176
 42
1.1176
 43
1.0000
 50
90.0000
  0
INSERT
  8
17
  2
ROUNDP
 10
2.4000
 20
26.3000
 30
0.0000
 41
1.1176
 42
1.1176
 43
1.0000
 50
90.0000
  0
INSERT
  8
17
  2
ROUNDP
 10
-12.3500
 20
35.0500
 30
0.0000
 41
1.1176
 42
1.1176
 43
1.0000
 50
270.0000
  0
INSERT
  8
17
  2
ROUNDP
 10
-12.3500
 20
35.0500
 30
0.0000
 41
1.1176
 42
1.1176
 43
1.0000
 50
270.0000
  0
INSERT
  8
17
  2
ROUNDP
 10
-14.6000
 20
37.8000
 30
0.0000
 41
1.1176
 42
1.1176
 43
1.0000
 50
270.0000
  0
INSERT
  8
17
  2
ROUNDP
 10
-14.6000
 20
37.8000
 30
0.0000
 41
1.1176
 42
1.1176
 43
1.0000
 50
270.0000
  0
INSERT
  8
17
  2
ROUNDP
 10
-11.7250
 20
36.1750
 30
0.0000
 41
1.1176
 42
1.1176
 43
1.0000
 50
0.0000
  0
INSERT
  8
17
  2
ROUNDP
 10
-11.7250
 20
36.1750
 30
0.0000
 41
1.1176
 42
1.1176
 43
1.0000
 50
0.0000
  0
INSERT
  8
17
  2
ROUNDP
 10
1.9000
 20
34.5500
 30
0.0000
 41
1.1176
 42
1.1176
 43
1.0000
 50
90.0000
  0
INSERT
  8
17
  2
ROUNDP
 10
1.9000
 20
34.5500
 30
0.0000
 41
1.1176
 42
1.1176
 43
1.0000
 50
90.0000
  0
INSERT
  8
17
  2
ROUNDP
 10
5.6500
 20
34.8000
 30
0.0000
 41
1.1176
 42
1.1176
 43
1.0000
 50
270.0000
  0
INSERT
  8
17
  2
ROUNDP
 10
5.6500
 20
34.8000
 30
0.0000
 41
1.1176
 42
1.1176
 43
1.0000
 50
270.0000
  0
INSERT
  8
17
  2
ROUNDP
 10
13.9000
 20
19.8000
 30
0.0000
 41
1.1176
 42
1.1176
 43
1.0000
 50
270.0000
  0
INSERT
  8
17
  2
ROUNDP
 10
13.9000
 20
19.8000
 30
0.0000
 41
1.1176
 42
1.1176
 43
1.0000
 50
270.0000
  0
INSERT
  8
17
  2
ROUNDP
 10
17.9000
 20
20.0500
 30
0.0000
 41
1.1176
 42
1.1176
 43
1.0000
 50
270.0000
  0
INSERT
  8
17
  2
ROUNDP
 10
17.9000
 20
20.0500
 30
0.0000
 41
1.1176
 42
1.1176
 43
1.0000
 50
270.0000
  0
INSERT
  8
17
  2
ROUNDP
 10
-3.1000
 20
21.0500
 30
0.0000
 41
1.1176
 42
1.1176
 43
1.0000
 50
90.0000
  0
INSERT
  8
17
  2
ROUNDP
 10
-3.1000
 20
21.0500
 30
0.0000
 41
1.1176
 42
1.1176
 43
1.0000
 50
90.0000
  0
INSERT
  8
17
  2
ROUNDP
 10
-0.2600
 20
32.6975
 30
0.0000
 41
1.1176
 42
1.1176
 43
1.0000
 50
90.0000
  0
INSERT
  8
17
  2
ROUNDP
 10
-0.2600
 20
32.6975
 30
0.0000
 41
1.1176
 42
1.1176
 43
1.0000
 50
90.0000
  0
INSERT
  8
17
  2
ROUNDP
 10
-0.2600
 20
34.6025
 30
0.0000
 41
1.1176
 42
1.1176
 43
1.0000
 50
90.0000
  0
INSERT
  8
17
  2
ROUNDP
 10
-0.2600
 20
34.6025
 30
0.0000
 41
1.1176
 42
1.1176
 43
1.0000
 50
90.0000
  0
INSERT
  8
17
  2
ROUNDP
 10
-1.5338
 20
30.7873
 30
0.0000
 41
1.1176
 42
1.1176
 43
1.0000
 50
90.0000
  0
INSERT
  8
17
  2
ROUNDP
 10
-1.5338
 20
30.7873
 30
0.0000
 41
1.1176
 42
1.1176
 43
1.0000
 50
90.0000
  0
INSERT
  8
17
  2
ROUNDP
 10
-2.4536
 20
29.2004
 30
0.0000
 41
1.1176
 42
1.1176
 43
1.0000
 50
90.0000
  0
INSERT
  8
17
  2
ROUNDP
 10
-2.4536
 20
29.2004
 30
0.0000
 41
1.1176
 42
1.1176
 43
1.0000
 50
90.0000
  0
INSERT
  8
17
  2
ROUNDP
 10
-3.4476
 20
27.3000
 30
0.0000
 41
1.1176
 42
1.1176
 43
1.0000
 50
90.0000
  0
INSERT
  8
17
  2
ROUNDP
 10
-3.4476
 20
27.3000
 30
0.0000
 41
1.1176
 42
1.1176
 43
1.0000
 50
90.0000
  0
INSERT
  8
17
  2
ROUNDP
 10
0.1000
 20
-15.0000
 30
0.0000
 41
1.8796
 42
1.8796
 43
1.0000
 50
270.0000
  0
INSERT
  8
17
  2
ROUNDP
 10
0.1000
 20
-15.0000
 30
0.0000
 41
1.8796
 42
1.8796
 43
1.0000
 50
270.0000
  0
INSERT
  8
17
  2
ROUNDP
 10
-2.4400
 20
-15.0000
 30
0.0000
 41
1.8796
 42
1.8796
 43
1.0000
 50
270.0000
  0
INSERT
  8
17
  2
ROUNDP
 10
-2.4400
 20
-15.0000
 30
0.0000
 41
1.8796
 42
1.8796
 43
1.0000
 50
270.0000
  0
INSERT
  8
17
  2
ROUNDP
 10
-4.9800
 20
-15.0000
 30
0.0000
 41
1.8796
 42
1.8796
 43
1.0000
 50
270.0000
  0
INSERT
  8
17
  2
ROUNDP
 10
-4.9800
 20
-15.0000
 30
0.0000
 41
1.8796
 42
1.8796
 43
1.0000
 50
270.0000
  0
INSERT
  8
17
  2
ROUNDP
 10
-4.9000
 20
-12.2000
 30
0.0000
 41
1.8796
 42
1.8796
 43
1.0000
 50
90.0000
  0
INSERT
  8
17
  2
ROUNDP
 10
-4.9000
 20
-12.2000
 30
0.0000
 41
1.8796
 42
1.8796
 43
1.0000
 50
90.0000
  0
INSERT
  8
17
  2
ROUNDP
 10
-2.3600
 20
-12.2000
 30
0.0000
 41
1.8796
 42
1.8796
 43
1.0000
 50
90.0000
  0
INSERT
  8
17
  2
ROUNDP
 10
-2.3600
 20
-12.2000
 30
0.0000
 41
1.8796
 42
1.8796
 43
1.0000
 50
90.0000
  0
INSERT
  8
17
  2
ROUNDP
 10
0.1800
 20
-12.2000
 30
0.0000
 41
1.8796
 42
1.8796
 43
1.0000
 50
90.0000
  0
INSERT
  8
17
  2
ROUNDP
 10
0.1800
 20
-12.2000
 30
0.0000
 41
1.8796
 42
1.8796
 43
1.0000
 50
90.0000
  0
INSERT
  8
17
  2
ROUNDP
 10
-4.9000
 20
-17.8000
 30
0.0000
 41
1.8796
 42
1.8796
 43
1.0000
 50
90.0000
  0
INSERT
  8
17
  2
ROUNDP
 10
-4.9000
 20
-17.8000
 30
0.0000
 41
1.8796
 42
1.8796
 43
1.0000
 50
90.0000
  0
INSERT
  8
17
  2
ROUNDP
 10
-2.3600
 20
-17.8000
 30
0.0000
 41
1.8796
 42
1.8796
 43
1.0000
 50
90.0000
  0
INSERT
  8
17
  2
ROUNDP
 10
-2.3600
 20
-17.8000
 30
0.0000
 41
1.8796
 42
1.8796
 43
1.0000
 50
90.0000
  0
INSERT
  8
17
  2
ROUNDP
 10
0.1800
 20
-17.8000
 30
0.0000
 41
1.8796
 42
1.8796
 43
1.0000
 50
90.0000
  0
INSERT
  8
17
  2
ROUNDP
 10
0.1800
 20
-17.8000
 30
0.0000
 41
1.8796
 42
1.8796
 43
1.0000
 50
90.0000
  0
INSERT
  8
17
  2
ROUNDP
 10
22.6000
 20
3.5500
 30
0.0000
 41
1.8796
 42
1.8796
 43
1.0000
 50
0.0000
  0
INSERT
  8
17
  2
ROUNDP
 10
22.6000
 20
3.5500
 30
0.0000
 41
1.8796
 42
1.8796
 43
1.0000
 50
0.0000
  0
INSERT
  8
17
  2
ROUNDP
 10
22.6000
 20
1.0100
 30
0.0000
 41
1.8796
 42
1.8796
 43
1.0000
 50
0.0000
  0
INSERT
  8
17
  2
ROUNDP
 10
22.6000
 20
1.0100
 30
0.0000
 41
1.8796
 42
1.8796
 43
1.0000
 50
0.0000
  0
INSERT
  8
17
  2
ROUNDP
 10
22.6000
 20
-1.5300
 30
0.0000
 41
1.8796
 42
1.8796
 43
1.0000
 50
0.0000
  0
INSERT
  8
17
  2
ROUNDP
 10
22.6000
 20
-1.5300
 30
0.0000
 41
1.8796
 42
1.8796
 43
1.0000
 50
0.0000
  0
INSERT
  8
17
  2
ROUNDP
 10
25.3500
 20
3.5000
 30
0.0000
 41
1.8796
 42
1.8796
 43
1.0000
 50
0.0000
  0
INSERT
  8
17
  2
ROUNDP
 10
25.3500
 20
3.5000
 30
0.0000
 41
1.8796
 42
1.8796
 43
1.0000
 50
0.0000
  0
INSERT
  8
17
  2
ROUNDP
 10
25.3500
 20
0.9600
 30
0.0000
 41
1.8796
 42
1.8796
 43
1.0000
 50
0.0000
  0
INSERT
  8
17
  2
ROUNDP
 10
25.3500
 20
0.9600
 30
0.0000
 41
1.8796
 42
1.8796
 43
1.0000
 50
0.0000
  0
INSERT
  8
17
  2
ROUNDP
 10
25.3500
 20
-1.5800
 30
0.0000
 41
1.8796
 42
1.8796
 43
1.0000
 50
0.0000
  0
INSERT
  8
17
  2
ROUNDP
 10
25.3500
 20
-1.5800
 30
0.0000
 41
1.8796
 42
1.8796
 43
1.0000
 50
0.0000
  0
INSERT
  8
17
  2
ROUNDP
 10
9.1500
 20
1.8000
 30
0.0000
 41
1.8796
 42
1.8796
 43
1.0000
 50
180.0000
  0
INSERT
  8
17
  2
ROUNDP
 10
9.1500
 20
1.8000
 30
0.0000
 41
1.8796
 42
1.8796
 43
1.0000
 50
180.0000
  0
INSERT
  8
17
  2
ROUNDP
 10
9.1222
 20
-1.0000
 30
0.0000
 41
1.8796
 42
1.8796
 43
1.0000
 50
90.0000
  0
INSERT
  8
17
  2
ROUNDP
 10
9.1222
 20
-1.0000
 30
0.0000
 41
1.8796
 42
1.8796
 43
1.0000
 50
90.0000
  0
INSERT
  8
17
  2
ROUNDP
 10
12.0178
 20
-1.0000
 30
0.0000
 41
1.8796
 42
1.8796
 43
1.0000
 50
90.0000
  0
INSERT
  8
17
  2
ROUNDP
 10
12.0178
 20
-1.0000
 30
0.0000
 41
1.8796
 42
1.8796
 43
1.0000
 50
90.0000
  0
INSERT
  8
17
  2
ROUNDP
 10
6.6000
 20
-1.0778
 30
0.0000
 41
1.8796
 42
1.8796
 43
1.0000
 50
180.0000
  0
INSERT
  8
17
  2
ROUNDP
 10
6.6000
 20
-1.0778
 30
0.0000
 41
1.8796
 42
1.8796
 43
1.0000
 50
180.0000
  0
INSERT
  8
17
  2
ROUNDP
 10
6.6000
 20
1.8178
 30
0.0000
 41
1.8796
 42
1.8796
 43
1.0000
 50
180.0000
  0
INSERT
  8
17
  2
ROUNDP
 10
6.6000
 20
1.8178
 30
0.0000
 41
1.8796
 42
1.8796
 43
1.0000
 50
180.0000
  0
LINE
  8
20
 10
45.0000
 20
-40.0000
 30
0.0000
 11
40.0000
 21
-45.0000
 31
0.0000
  0
LINE
  8
20
 10
40.0000
 20
-45.0000
 30
0.0000
 11
-40.0000
 21
-45.0000
 31
0.0000
  0
LINE
  8
20
 10
-40.0000
 20
-45.0000
 30
0.0000
 11
-45.0000
 21
-40.0000
 31
0.0000
  0
LINE
  8
20
 10
-45.0000
 20
-40.0000
 30
0.0000
 11
-45.0000
 21
40.0000
 31
0.0000
  0
LINE
  8
20
 10
-45.0000
 20
40.0000
 30
0.0000
 11
-40.0000
 21
45.0000
 31
0.0000
  0
LINE
  8
20
 10
-40.0000
 20
45.0000
 30
0.0000
 11
40.0000
 21
45.0000
 31
0.0000
  0
LINE
  8
20
 10
40.0000
 20
45.0000
 30
0.0000
 11
45.0000
 21
40.0000
 31
0.0000
  0
LINE
  8
20
 10
45.0000
 20
40.0000
 30
0.0000
 11
45.0000
 21
-40.0000
 31
0.0000
  0
INSERT
  8
17
  2
ROUNDP
 10
-39.5000
 20
-39.5000
 30
0.0000
 41
7.5000
 42
7.5000
 43
1.0000
 50
90.0000
  0
INSERT
  8
17
  2
ROUNDP
 10
-39.5000
 20
-39.5000
 30
0.0000
 41
7.5000
 42
7.5000
 43
1.0000
 50
90.0000
  0
INSERT
  8
17
  2
ROUNDP
 10
39.5000
 20
-39.5000
 30
0.0000
 41
7.5000
 42
7.5000
 43
1.0000
 50
90.0000
  0
INSERT
  8
17
  2
ROUNDP
 10
39.5000
 20
-39.5000
 30
0.0000
 41
7.5000
 42
7.5000
 43
1.0000
 50
90.0000
  0
INSERT
  8
17
  2
ROUNDP
 10
39.5000
 20
39.5000
 30
0.0000
 41
7.5000
 42
7.5000
 43
1.0000
 50
90.0000
  0
INSERT
  8
17
  2
ROUNDP
 10
39.5000
 20
39.5000
 30
0.0000
 41
7.5000
 42
7.5000
 43
1.0000
 50
90.0000
  0
INSERT
  8
17
  2
ROUNDP
 10
-39.5000
 20
39.5000
 30
0.0000
 41
7.5000
 42
7.5000
 43
1.0000
 50
90.0000
  0
INSERT
  8
17
  2
ROUNDP
 10
-39.5000
 20
39.5000
 30
0.0000
 41
7.5000
 42
7.5000
 43
1.0000
 50
90.0000
  0
INSERT
  8
17
  2
OCTAGONP
 10
-32.1340
 20
-31.7500
 30
0.0000
 41
1.8796
 42
1.8796
 43
1.0000
 50
90.0000
  0
INSERT
  8
17
  2
OCTAGONP
 10
-32.1340
 20
-31.7500
 30
0.0000
 41
1.8796
 42
1.8796
 43
1.0000
 50
90.0000
  0
INSERT
  8
17
  2
OCTAGONP
 10
-34.6740
 20
-31.7500
 30
0.0000
 41
1.8796
 42
1.8796
 43
1.0000
 50
90.0000
  0
INSERT
  8
17
  2
OCTAGONP
 10
-34.6740
 20
-31.7500
 30
0.0000
 41
1.8796
 42
1.8796
 43
1.0000
 50
90.0000
  0
INSERT
  8
17
  2
OCTAGONP
 10
-37.2140
 20
-31.7500
 30
0.0000
 41
1.8796
 42
1.8796
 43
1.0000
 50
90.0000
  0
INSERT
  8
17
  2
OCTAGONP
 10
-37.2140
 20
-31.7500
 30
0.0000
 41
1.8796
 42
1.8796
 43
1.0000
 50
90.0000
  0
INSERT
  8
17
  2
OCTAGONP
 10
-39.7540
 20
-31.7500
 30
0.0000
 41
1.8796
 42
1.8796
 43
1.0000
 50
90.0000
  0
INSERT
  8
17
  2
OCTAGONP
 10
-39.7540
 20
-31.7500
 30
0.0000
 41
1.8796
 42
1.8796
 43
1.0000
 50
90.0000
  0
INSERT
  8
17
  2
OCTAGONP
 10
-31.8800
 20
-29.2100
 30
0.0000
 41
1.8796
 42
1.8796
 43
1.0000
 50
90.0000
  0
INSERT
  8
17
  2
OCTAGONP
 10
-31.8800
 20
-29.2100
 30
0.0000
 41
1.8796
 42
1.8796
 43
1.0000
 50
90.0000
  0
INSERT
  8
17
  2
OCTAGONP
 10
-34.4200
 20
-29.2100
 30
0.0000
 41
1.8796
 42
1.8796
 43
1.0000
 50
90.0000
  0
INSERT
  8
17
  2
OCTAGONP
 10
-34.4200
 20
-29.2100
 30
0.0000
 41
1.8796
 42
1.8796
 43
1.0000
 50
90.0000
  0
INSERT
  8
17
  2
OCTAGONP
 10
-36.9600
 20
-29.2100
 30
0.0000
 41
1.8796
 42
1.8796
 43
1.0000
 50
90.0000
  0
INSERT
  8
17
  2
OCTAGONP
 10
-36.9600
 20
-29.2100
 30
0.0000
 41
1.8796
 42
1.8796
 43
1.0000
 50
90.0000
  0
INSERT
  8
17
  2
OCTAGONP
 10
-39.5000
 20
-29.2100
 30
0.0000
 41
1.8796
 42
1.8796
 43
1.0000
 50
90.0000
  0
INSERT
  8
17
  2
OCTAGONP
 10
-39.5000
 20
-29.2100
 30
0.0000
 41
1.8796
 42
1.8796
 43
1.0000
 50
90.0000
  0
INSERT
  8
17
  2
OCTAGONP
 10
-31.8800
 20
-26.6700
 30
0.0000
 41
1.8796
 42
1.8796
 43
1.0000
 50
90.0000
  0
INSERT
  8
17
  2
OCTAGONP
 10
-31.8800
 20
-26.6700
 30
0.0000
 41
1.8796
 42
1.8796
 43
1.0000
 50
90.0000
  0
INSERT
  8
17
  2
OCTAGONP
 10
-34.4200
 20
-26.6700
 30
0.0000
 41
1.8796
 42
1.8796
 43
1.0000
 50
90.0000
  0
INSERT
  8
17
  2
OCTAGONP
 10
-34.4200
 20
-26.6700
 30
0.0000
 41
1.8796
 42
1.8796
 43
1.0000
 50
90.0000
  0
INSERT
  8
17
  2
OCTAGONP
 10
-36.9600
 20
-26.6700
 30
0.0000
 41
1.8796
 42
1.8796
 43
1.0000
 50
90.0000
  0
INSERT
  8
17
  2
OCTAGONP
 10
-36.9600
 20
-26.6700
 30
0.0000
 41
1.8796
 42
1.8796
 43
1.0000
 50
90.0000
  0
INSERT
  8
17
  2
OCTAGONP
 10
-39.5000
 20
-26.6700
 30
0.0000
 41
1.8796
 42
1.8796
 43
1.0000
 50
90.0000
  0
INSERT
  8
17
  2
OCTAGONP
 10
-39.5000
 20
-26.6700
 30
0.0000
 41
1.8796
 42
1.8796
 43
1.0000
 50
90.0000
  0
INSERT
  8
17
  2
OCTAGONP
 10
-31.8800
 20
-24.1300
 30
0.0000
 41
1.8796
 42
1.8796
 43
1.0000
 50
90.0000
  0
INSERT
  8
17
  2
OCTAGONP
 10
-31.8800
 20
-24.1300
 30
0.0000
 41
1.8796
 42
1.8796
 43
1.0000
 50
90.0000
  0
INSERT
  8
17
  2
OCTAGONP
 10
-34.4200
 20
-24.1300
 30
0.0000
 41
1.8796
 42
1.8796
 43
1.0000
 50
90.0000
  0
INSERT
  8
17
  2
OCTAGONP
 10
-34.4200
 20
-24.1300
 30
0.0000
 41
1.8796
 42
1.8796
 43
1.0000
 50
90.0000
  0
INSERT
  8
17
  2
OCTAGONP
 10
-36.9600
 20
-24.1300
 30
0.0000
 41
1.8796
 42
1.8796
 43
1.0000
 50
90.0000
  0
INSERT
  8
17
  2
OCTAGONP
 10
-36.9600
 20
-24.1300
 30
0.0000
 41
1.8796
 42
1.8796
 43
1.0000
 50
90.0000
  0
INSERT
  8
17
  2
OCTAGONP
 10
-39.5000
 20
-24.1300
 30
0.0000
 41
1.8796
 42
1.8796
 43
1.0000
 50
90.0000
  0
INSERT
  8
17
  2
OCTAGONP
 10
-39.5000
 20
-24.1300
 30
0.0000
 41
1.8796
 42
1.8796
 43
1.0000
 50
90.0000
  0
INSERT
  8
17
  2
OCTAGONP
 10
-31.8800
 20
-21.5900
 30
0.0000
 41
1.8796
 42
1.8796
 43
1.0000
 50
90.0000
  0
INSERT
  8
17
  2
OCTAGONP
 10
-31.8800
 20
-21.5900
 30
0.0000
 41
1.8796
 42
1.8796
 43
1.0000
 50
90.0000
  0
INSERT
  8
17
  2
OCTAGONP
 10
-34.4200
 20
-21.5900
 30
0.0000
 41
1.8796
 42
1.8796
 43
1.0000
 50
90.0000
  0
INSERT
  8
17
  2
OCTAGONP
 10
-34.4200
 20
-21.5900
 30
0.0000
 41
1.8796
 42
1.8796
 43
1.0000
 50
90.0000
  0
INSERT
  8
17
  2
OCTAGONP
 10
-36.9600
 20
-21.5900
 30
0.0000
 41
1.8796
 42
1.8796
 43
1.0000
 50
90.0000
  0
INSERT
  8
17
  2
OCTAGONP
 10
-36.9600
 20
-21.5900
 30
0.0000
 41
1.8796
 42
1.8796
 43
1.0000
 50
90.0000
  0
INSERT
  8
17
  2
OCTAGONP
 10
-39.5000
 20
-21.5900
 30
0.0000
 41
1.8796
 42
1.8796
 43
1.0000
 50
90.0000
  0
INSERT
  8
17
  2
OCTAGONP
 10
-39.5000
 20
-21.5900
 30
0.0000
 41
1.8796
 42
1.8796
 43
1.0000
 50
90.0000
  0
INSERT
  8
17
  2
OCTAGONP
 10
-31.8800
 20
-19.0500
 30
0.0000
 41
1.8796
 42
1.8796
 43
1.0000
 50
90.0000
  0
INSERT
  8
17
  2
OCTAGONP
 10
-31.8800
 20
-19.0500
 30
0.0000
 41
1.8796
 42
1.8796
 43
1.0000
 50
90.0000
  0
INSERT
  8
17
  2
OCTAGONP
 10
-34.4200
 20
-19.0500
 30
0.0000
 41
1.8796
 42
1.8796
 43
1.0000
 50
90.0000
  0
INSERT
  8
17
  2
OCTAGONP
 10
-34.4200
 20
-19.0500
 30
0.0000
 41
1.8796
 42
1.8796
 43
1.0000
 50
90.0000
  0
INSERT
  8
17
  2
OCTAGONP
 10
-36.9600
 20
-19.0500
 30
0.0000
 41
1.8796
 42
1.8796
 43
1.0000
 50
90.0000
  0
INSERT
  8
17
  2
OCTAGONP
 10
-36.9600
 20
-19.0500
 30
0.0000
 41
1.8796
 42
1.8796
 43
1.0000
 50
90.0000
  0
INSERT
  8
17
  2
OCTAGONP
 10
-39.5000
 20
-19.0500
 30
0.0000
 41
1.8796
 42
1.8796
 43
1.0000
 50
90.0000
  0
INSERT
  8
17
  2
OCTAGONP
 10
-39.5000
 20
-19.0500
 30
0.0000
 41
1.8796
 42
1.8796
 43
1.0000
 50
90.0000
  0
INSERT
  8
17
  2
OCTAGONP
 10
-31.8800
 20
-16.5100
 30
0.0000
 41
1.8796
 42
1.8796
 43
1.0000
 50
90.0000
  0
INSERT
  8
17
  2
OCTAGONP
 10
-31.8800
 20
-16.5100
 30
0.0000
 41
1.8796
 42
1.8796
 43
1.0000
 50
90.0000
  0
INSERT
  8
17
  2
OCTAGONP
 10
-34.4200
 20
-16.5100
 30
0.0000
 41
1.8796
 42
1.8796
 43
1.0000
 50
90.0000
  0
INSERT
  8
17
  2
OCTAGONP
 10
-34.4200
 20
-16.5100
 30
0.0000
 41
1.8796
 42
1.8796
 43
1.0000
 50
90.0000
  0
INSERT
  8
17
  2
OCTAGONP
 10
-36.9600
 20
-16.5100
 30
0.0000
 41
1.8796
 42
1.8796
 43
1.0000
 50
90.0000
  0
INSERT
  8
17
  2
OCTAGONP
 10
-36.9600
 20
-16.5100
 30
0.0000
 41
1.8796
 42
1.8796
 43
1.0000
 50
90.0000
  0
INSERT
  8
17
  2
OCTAGONP
 10
-39.5000
 20
-16.5100
 30
0.0000
 41
1.8796
 42
1.8796
 43
1.0000
 50
90.0000
  0
INSERT
  8
17
  2
OCTAGONP
 10
-39.5000
 20
-16.5100
 30
0.0000
 41
1.8796
 42
1.8796
 43
1.0000
 50
90.0000
  0
INSERT
  8
17
  2
OCTAGONP
 10
-31.8800
 20
-13.9700
 30
0.0000
 41
1.8796
 42
1.8796
 43
1.0000
 50
90.0000
  0
INSERT
  8
17
  2
OCTAGONP
 10
-31.8800
 20
-13.9700
 30
0.0000
 41
1.8796
 42
1.8796
 43
1.0000
 50
90.0000
  0
INSERT
  8
17
  2
OCTAGONP
 10
-34.4200
 20
-13.9700
 30
0.0000
 41
1.8796
 42
1.8796
 43
1.0000
 50
90.0000
  0
INSERT
  8
17
  2
OCTAGONP
 10
-34.4200
 20
-13.9700
 30
0.0000
 41
1.8796
 42
1.8796
 43
1.0000
 50
90.0000
  0
INSERT
  8
17
  2
OCTAGONP
 10
-36.9600
 20
-13.9700
 30
0.0000
 41
1.8796
 42
1.8796
 43
1.0000
 50
90.0000
  0
INSERT
  8
17
  2
OCTAGONP
 10
-36.9600
 20
-13.9700
 30
0.0000
 41
1.8796
 42
1.8796
 43
1.0000
 50
90.0000
  0
INSERT
  8
17
  2
OCTAGONP
 10
-39.5000
 20
-13.9700
 30
0.0000
 41
1.8796
 42
1.8796
 43
1.0000
 50
90.0000
  0
INSERT
  8
17
  2
OCTAGONP
 10
-39.5000
 20
-13.9700
 30
0.0000
 41
1.8796
 42
1.8796
 43
1.0000
 50
90.0000
  0
INSERT
  8
17
  2
OCTAGONP
 10
-31.8800
 20
-11.4300
 30
0.0000
 41
1.8796
 42
1.8796
 43
1.0000
 50
90.0000
  0
INSERT
  8
17
  2
OCTAGONP
 10
-31.8800
 20
-11.4300
 30
0.0000
 41
1.8796
 42
1.8796
 43
1.0000
 50
90.0000
  0
INSERT
  8
17
  2
OCTAGONP
 10
-34.4200
 20
-11.4300
 30
0.0000
 41
1.8796
 42
1.8796
 43
1.0000
 50
90.0000
  0
INSERT
  8
17
  2
OCTAGONP
 10
-34.4200
 20
-11.4300
 30
0.0000
 41
1.8796
 42
1.8796
 43
1.0000
 50
90.0000
  0
INSERT
  8
17
  2
OCTAGONP
 10
-36.9600
 20
-11.4300
 30
0.0000
 41
1.8796
 42
1.8796
 43
1.0000
 50
90.0000
  0
INSERT
  8
17
  2
OCTAGONP
 10
-36.9600
 20
-11.4300
 30
0.0000
 41
1.8796
 42
1.8796
 43
1.0000
 50
90.0000
  0
INSERT
  8
17
  2
OCTAGONP
 10
-39.5000
 20
-11.4300
 30
0.0000
 41
1.8796
 42
1.8796
 43
1.0000
 50
90.0000
  0
INSERT
  8
17
  2
OCTAGONP
 10
-39.5000
 20
-11.4300
 30
0.0000
 41
1.8796
 42
1.8796
 43
1.0000
 50
90.0000
  0
INSERT
  8
17
  2
OCTAGONP
 10
-31.8800
 20
-8.8900
 30
0.0000
 41
1.8796
 42
1.8796
 43
1.0000
 50
90.0000
  0
INSERT
  8
17
  2
OCTAGONP
 10
-31.8800
 20
-8.8900
 30
0.0000
 41
1.8796
 42
1.8796
 43
1.0000
 50
90.0000
  0
INSERT
  8
17
  2
OCTAGONP
 10
-34.4200
 20
-8.8900
 30
0.0000
 41
1.8796
 42
1.8796
 43
1.0000
 50
90.0000
  0
INSERT
  8
17
  2
OCTAGONP
 10
-34.4200
 20
-8.8900
 30
0.0000
 41
1.8796
 42
1.8796
 43
1.0000
 50
90.0000
  0
INSERT
  8
17
  2
OCTAGONP
 10
-36.9600
 20
-8.8900
 30
0.0000
 41
1.8796
 42
1.8796
 43
1.0000
 50
90.0000
  0
INSERT
  8
17
  2
OCTAGONP
 10
-36.9600
 20
-8.8900
 30
0.0000
 41
1.8796
 42
1.8796
 43
1.0000
 50
90.0000
  0
INSERT
  8
17
  2
OCTAGONP
 10
-39.5000
 20
-8.8900
 30
0.0000
 41
1.8796
 42
1.8796
 43
1.0000
 50
90.0000
  0
INSERT
  8
17
  2
OCTAGONP
 10
-39.5000
 20
-8.8900
 30
0.0000
 41
1.8796
 42
1.8796
 43
1.0000
 50
90.0000
  0
INSERT
  8
17
  2
OCTAGONP
 10
-31.8800
 20
-6.3500
 30
0.0000
 41
1.8796
 42
1.8796
 43
1.0000
 50
90.0000
  0
INSERT
  8
17
  2
OCTAGONP
 10
-31.8800
 20
-6.3500
 30
0.0000
 41
1.8796
 42
1.8796
 43
1.0000
 50
90.0000
  0
INSERT
  8
17
  2
OCTAGONP
 10
-34.4200
 20
-6.3500
 30
0.0000
 41
1.8796
 42
1.8796
 43
1.0000
 50
90.0000
  0
INSERT
  8
17
  2
OCTAGONP
 10
-34.4200
 20
-6.3500
 30
0.0000
 41
1.8796
 42
1.8796
 43
1.0000
 50
90.0000
  0
INSERT
  8
17
  2
OCTAGONP
 10
-36.9600
 20
-6.3500
 30
0.0000
 41
1.8796
 42
1.8796
 43
1.0000
 50
90.0000
  0
INSERT
  8
17
  2
OCTAGONP
 10
-36.9600
 20
-6.3500
 30
0.0000
 41
1.8796
 42
1.8796
 43
1.0000
 50
90.0000
  0
INSERT
  8
17
  2
OCTAGONP
 10
-39.5000
 20
-6.3500
 30
0.0000
 41
1.8796
 42
1.8796
 43
1.0000
 50
90.0000
  0
INSERT
  8
17
  2
OCTAGONP
 10
-39.5000
 20
-6.3500
 30
0.0000
 41
1.8796
 42
1.8796
 43
1.0000
 50
90.0000
  0
INSERT
  8
17
  2
OCTAGONP
 10
-31.8800
 20
-3.8100
 30
0.0000
 41
1.8796
 42
1.8796
 43
1.0000
 50
90.0000
  0
INSERT
  8
17
  2
OCTAGONP
 10
-31.8800
 20
-3.8100
 30
0.0000
 41
1.8796
 42
1.8796
 43
1.0000
 50
90.0000
  0
INSERT
  8
17
  2
OCTAGONP
 10
-34.4200
 20
-3.8100
 30
0.0000
 41
1.8796
 42
1.8796
 43
1.0000
 50
90.0000
  0
INSERT
  8
17
  2
OCTAGONP
 10
-34.4200
 20
-3.8100
 30
0.0000
 41
1.8796
 42
1.8796
 43
1.0000
 50
90.0000
  0
INSERT
  8
17
  2
OCTAGONP
 10
-36.9600
 20
-3.8100
 30
0.0000
 41
1.8796
 42
1.8796
 43
1.0000
 50
90.0000
  0
INSERT
  8
17
  2
OCTAGONP
 10
-36.9600
 20
-3.8100
 30
0.0000
 41
1.8796
 42
1.8796
 43
1.0000
 50
90.0000
  0
INSERT
  8
17
  2
OCTAGONP
 10
-39.5000
 20
-3.8100
 30
0.0000
 41
1.8796
 42
1.8796
 43
1.0000
 50
90.0000
  0
INSERT
  8
17
  2
OCTAGONP
 10
-39.5000
 20
-3.8100
 30
0.0000
 41
1.8796
 42
1.8796
 43
1.0000
 50
90.0000
  0
INSERT
  8
17
  2
OCTAGONP
 10
-31.8800
 20
-1.2700
 30
0.0000
 41
1.8796
 42
1.8796
 43
1.0000
 50
90.0000
  0
INSERT
  8
17
  2
OCTAGONP
 10
-31.8800
 20
-1.2700
 30
0.0000
 41
1.8796
 42
1.8796
 43
1.0000
 50
90.0000
  0
INSERT
  8
17
  2
OCTAGONP
 10
-34.4200
 20
-1.2700
 30
0.0000
 41
1.8796
 42
1.8796
 43
1.0000
 50
90.0000
  0
INSERT
  8
17
  2
OCTAGONP
 10
-34.4200
 20
-1.2700
 30
0.0000
 41
1.8796
 42
1.8796
 43
1.0000
 50
90.0000
  0
INSERT
  8
17
  2
OCTAGONP
 10
-36.9600
 20
-1.2700
 30
0.0000
 41
1.8796
 42
1.8796
 43
1.0000
 50
90.0000
  0
INSERT
  8
17
  2
OCTAGONP
 10
-36.9600
 20
-1.2700
 30
0.0000
 41
1.8796
 42
1.8796
 43
1.0000
 50
90.0000
  0
INSERT
  8
17
  2
OCTAGONP
 10
-39.5000
 20
-1.2700
 30
0.0000
 41
1.8796
 42
1.8796
 43
1.0000
 50
90.0000
  0
INSERT
  8
17
  2
OCTAGONP
 10
-39.5000
 20
-1.2700
 30
0.0000
 41
1.8796
 42
1.8796
 43
1.0000
 50
90.0000
  0
INSERT
  8
17
  2
OCTAGONP
 10
-31.8800
 20
1.2700
 30
0.0000
 41
1.8796
 42
1.8796
 43
1.0000
 50
90.0000
  0
INSERT
  8
17
  2
OCTAGONP
 10
-31.8800
 20
1.2700
 30
0.0000
 41
1.8796
 42
1.8796
 43
1.0000
 50
90.0000
  0
INSERT
  8
17
  2
OCTAGONP
 10
-34.4200
 20
1.2700
 30
0.0000
 41
1.8796
 42
1.8796
 43
1.0000
 50
90.0000
  0
INSERT
  8
17
  2
OCTAGONP
 10
-34.4200
 20
1.2700
 30
0.0000
 41
1.8796
 42
1.8796
 43
1.0000
 50
90.0000
  0
INSERT
  8
17
  2
OCTAGONP
 10
-36.9600
 20
1.2700
 30
0.0000
 41
1.8796
 42
1.8796
 43
1.0000
 50
90.0000
  0
INSERT
  8
17
  2
OCTAGONP
 10
-36.9600
 20
1.2700
 30
0.0000
 41
1.8796
 42
1.8796
 43
1.0000
 50
90.0000
  0
INSERT
  8
17
  2
OCTAGONP
 10
-39.5000
 20
1.2700
 30
0.0000
 41
1.8796
 42
1.8796
 43
1.0000
 50
90.0000
  0
INSERT
  8
17
  2
OCTAGONP
 10
-39.5000
 20
1.2700
 30
0.0000
 41
1.8796
 42
1.8796
 43
1.0000
 50
90.0000
  0
INSERT
  8
17
  2
OCTAGONP
 10
-31.8800
 20
3.8100
 30
0.0000
 41
1.8796
 42
1.8796
 43
1.0000
 50
90.0000
  0
INSERT
  8
17
  2
OCTAGONP
 10
-31.8800
 20
3.8100
 30
0.0000
 41
1.8796
 42
1.8796
 43
1.0000
 50
90.0000
  0
INSERT
  8
17
  2
OCTAGONP
 10
-34.4200
 20
3.8100
 30
0.0000
 41
1.8796
 42
1.8796
 43
1.0000
 50
90.0000
  0
INSERT
  8
17
  2
OCTAGONP
 10
-34.4200
 20
3.8100
 30
0.0000
 41
1.8796
 42
1.8796
 43
1.0000
 50
90.0000
  0
INSERT
  8
17
  2
OCTAGONP
 10
-36.9600
 20
3.8100
 30
0.0000
 41
1.8796
 42
1.8796
 43
1.0000
 50
90.0000
  0
INSERT
  8
17
  2
OCTAGONP
 10
-36.9600
 20
3.8100
 30
0.0000
 41
1.8796
 42
1.8796
 43
1.0000
 50
90.0000
  0
INSERT
  8
17
  2
OCTAGONP
 10
-39.5000
 20
3.8100
 30
0.0000
 41
1.8796
 42
1.8796
 43
1.0000
 50
90.0000
  0
INSERT
  8
17
  2
OCTAGONP
 10
-39.5000
 20
3.8100
 30
0.0000
 41
1.8796
 42
1.8796
 43
1.0000
 50
90.0000
  0
INSERT
  8
17
  2
OCTAGONP
 10
-31.8800
 20
6.3500
 30
0.0000
 41
1.8796
 42
1.8796
 43
1.0000
 50
90.0000
  0
INSERT
  8
17
  2
OCTAGONP
 10
-31.8800
 20
6.3500
 30
0.0000
 41
1.8796
 42
1.8796
 43
1.0000
 50
90.0000
  0
INSERT
  8
17
  2
OCTAGONP
 10
-34.4200
 20
6.3500
 30
0.0000
 41
1.8796
 42
1.8796
 43
1.0000
 50
90.0000
  0
INSERT
  8
17
  2
OCTAGONP
 10
-34.4200
 20
6.3500
 30
0.0000
 41
1.8796
 42
1.8796
 43
1.0000
 50
90.0000
  0
INSERT
  8
17
  2
OCTAGONP
 10
-36.9600
 20
6.3500
 30
0.0000
 41
1.8796
 42
1.8796
 43
1.0000
 50
90.0000
  0
INSERT
  8
17
  2
OCTAGONP
 10
-36.9600
 20
6.3500
 30
0.0000
 41
1.8796
 42
1.8796
 43
1.0000
 50
90.0000
  0
INSERT
  8
17
  2
OCTAGONP
 10
-39.5000
 20
6.3500
 30
0.0000
 41
1.8796
 42
1.8796
 43
1.0000
 50
90.0000
  0
INSERT
  8
17
  2
OCTAGONP
 10
-39.5000
 20
6.3500
 30
0.0000
 41
1.8796
 42
1.8796
 43
1.0000
 50
90.0000
  0
INSERT
  8
17
  2
OCTAGONP
 10
-31.8800
 20
8.8900
 30
0.0000
 41
1.8796
 42
1.8796
 43
1.0000
 50
90.0000
  0
INSERT
  8
17
  2
OCTAGONP
 10
-31.8800
 20
8.8900
 30
0.0000
 41
1.8796
 42
1.8796
 43
1.0000
 50
90.0000
  0
INSERT
  8
17
  2
OCTAGONP
 10
-34.4200
 20
8.8900
 30
0.0000
 41
1.8796
 42
1.8796
 43
1.0000
 50
90.0000
  0
INSERT
  8
17
  2
OCTAGONP
 10
-34.4200
 20
8.8900
 30
0.0000
 41
1.8796
 42
1.8796
 43
1.0000
 50
90.0000
  0
INSERT
  8
17
  2
OCTAGONP
 10
-36.9600
 20
8.8900
 30
0.0000
 41
1.8796
 42
1.8796
 43
1.0000
 50
90.0000
  0
INSERT
  8
17
  2
OCTAGONP
 10
-36.9600
 20
8.8900
 30
0.0000
 41
1.8796
 42
1.8796
 43
1.0000
 50
90.0000
  0
INSERT
  8
17
  2
OCTAGONP
 10
-39.5000
 20
8.8900
 30
0.0000
 41
1.8796
 42
1.8796
 43
1.0000
 50
90.0000
  0
INSERT
  8
17
  2
OCTAGONP
 10
-39.5000
 20
8.8900
 30
0.0000
 41
1.8796
 42
1.8796
 43
1.0000
 50
90.0000
  0
INSERT
  8
17
  2
OCTAGONP
 10
-31.8800
 20
11.4300
 30
0.0000
 41
1.8796
 42
1.8796
 43
1.0000
 50
90.0000
  0
INSERT
  8
17
  2
OCTAGONP
 10
-31.8800
 20
11.4300
 30
0.0000
 41
1.8796
 42
1.8796
 43
1.0000
 50
90.0000
  0
INSERT
  8
17
  2
OCTAGONP
 10
-34.4200
 20
11.4300
 30
0.0000
 41
1.8796
 42
1.8796
 43
1.0000
 50
90.0000
  0
INSERT
  8
17
  2
OCTAGONP
 10
-34.4200
 20
11.4300
 30
0.0000
 41
1.8796
 42
1.8796
 43
1.0000
 50
90.0000
  0
INSERT
  8
17
  2
OCTAGONP
 10
-36.9600
 20
11.4300
 30
0.0000
 41
1.8796
 42
1.8796
 43
1.0000
 50
90.0000
  0
INSERT
  8
17
  2
OCTAGONP
 10
-36.9600
 20
11.4300
 30
0.0000
 41
1.8796
 42
1.8796
 43
1.0000
 50
90.0000
  0
INSERT
  8
17
  2
OCTAGONP
 10
-39.5000
 20
11.4300
 30
0.0000
 41
1.8796
 42
1.8796
 43
1.0000
 50
90.0000
  0
INSERT
  8
17
  2
OCTAGONP
 10
-39.5000
 20
11.4300
 30
0.0000
 41
1.8796
 42
1.8796
 43
1.0000
 50
90.0000
  0
INSERT
  8
17
  2
OCTAGONP
 10
-31.8800
 20
13.9700
 30
0.0000
 41
1.8796
 42
1.8796
 43
1.0000
 50
90.0000
  0
INSERT
  8
17
  2
OCTAGONP
 10
-31.8800
 20
13.9700
 30
0.0000
 41
1.8796
 42
1.8796
 43
1.0000
 50
90.0000
  0
INSERT
  8
17
  2
OCTAGONP
 10
-34.4200
 20
13.9700
 30
0.0000
 41
1.8796
 42
1.8796
 43
1.0000
 50
90.0000
  0
INSERT
  8
17
  2
OCTAGONP
 10
-34.4200
 20
13.9700
 30
0.0000
 41
1.8796
 42
1.8796
 43
1.0000
 50
90.0000
  0
INSERT
  8
17
  2
OCTAGONP
 10
-36.9600
 20
13.9700
 30
0.0000
 41
1.8796
 42
1.8796
 43
1.0000
 50
90.0000
  0
INSERT
  8
17
  2
OCTAGONP
 10
-36.9600
 20
13.9700
 30
0.0000
 41
1.8796
 42
1.8796
 43
1.0000
 50
90.0000
  0
INSERT
  8
17
  2
OCTAGONP
 10
-39.5000
 20
13.9700
 30
0.0000
 41
1.8796
 42
1.8796
 43
1.0000
 50
90.0000
  0
INSERT
  8
17
  2
OCTAGONP
 10
-39.5000
 20
13.9700
 30
0.0000
 41
1.8796
 42
1.8796
 43
1.0000
 50
90.0000
  0
INSERT
  8
17
  2
OCTAGONP
 10
-31.8800
 20
16.5100
 30
0.0000
 41
1.8796
 42
1.8796
 43
1.0000
 50
90.0000
  0
INSERT
  8
17
  2
OCTAGONP
 10
-31.8800
 20
16.5100
 30
0.0000
 41
1.8796
 42
1.8796
 43
1.0000
 50
90.0000
  0
INSERT
  8
17
  2
OCTAGONP
 10
-34.4200
 20
16.5100
 30
0.0000
 41
1.8796
 42
1.8796
 43
1.0000
 50
90.0000
  0
INSERT
  8
17
  2
OCTAGONP
 10
-34.4200
 20
16.5100
 30
0.0000
 41
1.8796
 42
1.8796
 43
1.0000
 50
90.0000
  0
INSERT
  8
17
  2
OCTAGONP
 10
-36.9600
 20
16.5100
 30
0.0000
 41
1.8796
 42
1.8796
 43
1.0000
 50
90.0000
  0
INSERT
  8
17
  2
OCTAGONP
 10
-36.9600
 20
16.5100
 30
0.0000
 41
1.8796
 42
1.8796
 43
1.0000
 50
90.0000
  0
INSERT
  8
17
  2
OCTAGONP
 10
-39.5000
 20
16.5100
 30
0.0000
 41
1.8796
 42
1.8796
 43
1.0000
 50
90.0000
  0
INSERT
  8
17
  2
OCTAGONP
 10
-39.5000
 20
16.5100
 30
0.0000
 41
1.8796
 42
1.8796
 43
1.0000
 50
90.0000
  0
INSERT
  8
17
  2
OCTAGONP
 10
-31.8800
 20
19.0500
 30
0.0000
 41
1.8796
 42
1.8796
 43
1.0000
 50
90.0000
  0
INSERT
  8
17
  2
OCTAGONP
 10
-31.8800
 20
19.0500
 30
0.0000
 41
1.8796
 42
1.8796
 43
1.0000
 50
90.0000
  0
INSERT
  8
17
  2
OCTAGONP
 10
-34.4200
 20
19.0500
 30
0.0000
 41
1.8796
 42
1.8796
 43
1.0000
 50
90.0000
  0
INSERT
  8
17
  2
OCTAGONP
 10
-34.4200
 20
19.0500
 30
0.0000
 41
1.8796
 42
1.8796
 43
1.0000
 50
90.0000
  0
INSERT
  8
17
  2
OCTAGONP
 10
-36.9600
 20
19.0500
 30
0.0000
 41
1.8796
 42
1.8796
 43
1.0000
 50
90.0000
  0
INSERT
  8
17
  2
OCTAGONP
 10
-36.9600
 20
19.0500
 30
0.0000
 41
1.8796
 42
1.8796
 43
1.0000
 50
90.0000
  0
INSERT
  8
17
  2
OCTAGONP
 10
-39.5000
 20
19.0500
 30
0.0000
 41
1.8796
 42
1.8796
 43
1.0000
 50
90.0000
  0
INSERT
  8
17
  2
OCTAGONP
 10
-39.5000
 20
19.0500
 30
0.0000
 41
1.8796
 42
1.8796
 43
1.0000
 50
90.0000
  0
INSERT
  8
17
  2
OCTAGONP
 10
-31.8800
 20
21.5900
 30
0.0000
 41
1.8796
 42
1.8796
 43
1.0000
 50
90.0000
  0
INSERT
  8
17
  2
OCTAGONP
 10
-31.8800
 20
21.5900
 30
0.0000
 41
1.8796
 42
1.8796
 43
1.0000
 50
90.0000
  0
INSERT
  8
17
  2
OCTAGONP
 10
-34.4200
 20
21.5900
 30
0.0000
 41
1.8796
 42
1.8796
 43
1.0000
 50
90.0000
  0
INSERT
  8
17
  2
OCTAGONP
 10
-34.4200
 20
21.5900
 30
0.0000
 41
1.8796
 42
1.8796
 43
1.0000
 50
90.0000
  0
INSERT
  8
17
  2
OCTAGONP
 10
-36.9600
 20
21.5900
 30
0.0000
 41
1.8796
 42
1.8796
 43
1.0000
 50
90.0000
  0
INSERT
  8
17
  2
OCTAGONP
 10
-36.9600
 20
21.5900
 30
0.0000
 41
1.8796
 42
1.8796
 43
1.0000
 50
90.0000
  0
INSERT
  8
17
  2
OCTAGONP
 10
-39.5000
 20
21.5900
 30
0.0000
 41
1.8796
 42
1.8796
 43
1.0000
 50
90.0000
  0
INSERT
  8
17
  2
OCTAGONP
 10
-39.5000
 20
21.5900
 30
0.0000
 41
1.8796
 42
1.8796
 43
1.0000
 50
90.0000
  0
INSERT
  8
17
  2
OCTAGONP
 10
-31.8800
 20
24.1300
 30
0.0000
 41
1.8796
 42
1.8796
 43
1.0000
 50
90.0000
  0
INSERT
  8
17
  2
OCTAGONP
 10
-31.8800
 20
24.1300
 30
0.0000
 41
1.8796
 42
1.8796
 43
1.0000
 50
90.0000
  0
INSERT
  8
17
  2
OCTAGONP
 10
-34.4200
 20
24.1300
 30
0.0000
 41
1.8796
 42
1.8796
 43
1.0000
 50
90.0000
  0
INSERT
  8
17
  2
OCTAGONP
 10
-34.4200
 20
24.1300
 30
0.0000
 41
1.8796
 42
1.8796
 43
1.0000
 50
90.0000
  0
INSERT
  8
17
  2
OCTAGONP
 10
-36.9600
 20
24.1300
 30
0.0000
 41
1.8796
 42
1.8796
 43
1.0000
 50
90.0000
  0
INSERT
  8
17
  2
OCTAGONP
 10
-36.9600
 20
24.1300
 30
0.0000
 41
1.8796
 42
1.8796
 43
1.0000
 50
90.0000
  0
INSERT
  8
17
  2
OCTAGONP
 10
-39.5000
 20
24.1300
 30
0.0000
 41
1.8796
 42
1.8796
 43
1.0000
 50
90.0000
  0
INSERT
  8
17
  2
OCTAGONP
 10
-39.5000
 20
24.1300
 30
0.0000
 41
1.8796
 42
1.8796
 43
1.0000
 50
90.0000
  0
INSERT
  8
17
  2
OCTAGONP
 10
-31.8800
 20
26.6700
 30
0.0000
 41
1.8796
 42
1.8796
 43
1.0000
 50
90.0000
  0
INSERT
  8
17
  2
OCTAGONP
 10
-31.8800
 20
26.6700
 30
0.0000
 41
1.8796
 42
1.8796
 43
1.0000
 50
90.0000
  0
INSERT
  8
17
  2
OCTAGONP
 10
-34.4200
 20
26.6700
 30
0.0000
 41
1.8796
 42
1.8796
 43
1.0000
 50
90.0000
  0
INSERT
  8
17
  2
OCTAGONP
 10
-34.4200
 20
26.6700
 30
0.0000
 41
1.8796
 42
1.8796
 43
1.0000
 50
90.0000
  0
INSERT
  8
17
  2
OCTAGONP
 10
-36.9600
 20
26.6700
 30
0.0000
 41
1.8796
 42
1.8796
 43
1.0000
 50
90.0000
  0
INSERT
  8
17
  2
OCTAGONP
 10
-36.9600
 20
26.6700
 30
0.0000
 41
1.8796
 42
1.8796
 43
1.0000
 50
90.0000
  0
INSERT
  8
17
  2
OCTAGONP
 10
-39.5000
 20
26.6700
 30
0.0000
 41
1.8796
 42
1.8796
 43
1.0000
 50
90.0000
  0
INSERT
  8
17
  2
OCTAGONP
 10
-39.5000
 20
26.6700
 30
0.0000
 41
1.8796
 42
1.8796
 43
1.0000
 50
90.0000
  0
INSERT
  8
17
  2
OCTAGONP
 10
-31.8800
 20
29.2100
 30
0.0000
 41
1.8796
 42
1.8796
 43
1.0000
 50
90.0000
  0
INSERT
  8
17
  2
OCTAGONP
 10
-31.8800
 20
29.2100
 30
0.0000
 41
1.8796
 42
1.8796
 43
1.0000
 50
90.0000
  0
INSERT
  8
17
  2
OCTAGONP
 10
-34.4200
 20
29.2100
 30
0.0000
 41
1.8796
 42
1.8796
 43
1.0000
 50
90.0000
  0
INSERT
  8
17
  2
OCTAGONP
 10
-34.4200
 20
29.2100
 30
0.0000
 41
1.8796
 42
1.8796
 43
1.0000
 50
90.0000
  0
INSERT
  8
17
  2
OCTAGONP
 10
-36.9600
 20
29.2100
 30
0.0000
 41
1.8796
 42
1.8796
 43
1.0000
 50
90.0000
  0
INSERT
  8
17
  2
OCTAGONP
 10
-36.9600
 20
29.2100
 30
0.0000
 41
1.8796
 42
1.8796
 43
1.0000
 50
90.0000
  0
INSERT
  8
17
  2
OCTAGONP
 10
-39.5000
 20
29.2100
 30
0.0000
 41
1.8796
 42
1.8796
 43
1.0000
 50
90.0000
  0
INSERT
  8
17
  2
OCTAGONP
 10
-39.5000
 20
29.2100
 30
0.0000
 41
1.8796
 42
1.8796
 43
1.0000
 50
90.0000
  0
INSERT
  8
17
  2
OCTAGONP
 10
-32.1340
 20
31.7500
 30
0.0000
 41
1.8796
 42
1.8796
 43
1.0000
 50
90.0000
  0
INSERT
  8
17
  2
OCTAGONP
 10
-32.1340
 20
31.7500
 30
0.0000
 41
1.8796
 42
1.8796
 43
1.0000
 50
90.0000
  0
INSERT
  8
17
  2
OCTAGONP
 10
-34.6740
 20
31.7500
 30
0.0000
 41
1.8796
 42
1.8796
 43
1.0000
 50
90.0000
  0
INSERT
  8
17
  2
OCTAGONP
 10
-34.6740
 20
31.7500
 30
0.0000
 41
1.8796
 42
1.8796
 43
1.0000
 50
90.0000
  0
INSERT
  8
17
  2
OCTAGONP
 10
-37.2140
 20
31.7500
 30
0.0000
 41
1.8796
 42
1.8796
 43
1.0000
 50
90.0000
  0
INSERT
  8
17
  2
OCTAGONP
 10
-37.2140
 20
31.7500
 30
0.0000
 41
1.8796
 42
1.8796
 43
1.0000
 50
90.0000
  0
INSERT
  8
17
  2
OCTAGONP
 10
-39.7540
 20
31.7500
 30
0.0000
 41
1.8796
 42
1.8796
 43
1.0000
 50
90.0000
  0
INSERT
  8
17
  2
OCTAGONP
 10
-39.7540
 20
31.7500
 30
0.0000
 41
1.8796
 42
1.8796
 43
1.0000
 50
90.0000
  0
INSERT
  8
17
  2
LONGP100
 10
22.4100
 20
34.6000
 30
0.0000
 41
1.3208
 42
1.3208
 43
1.0000
 50
270.0000
  0
INSERT
  8
17
  2
LONGP100
 10
22.4100
 20
34.6000
 30
0.0000
 41
1.3208
 42
1.3208
 43
1.0000
 50
270.0000
  0
INSERT
  8
17
  2
LONGP100
 10
24.9500
 20
34.6000
 30
0.0000
 41
1.3208
 42
1.3208
 43
1.0000
 50
90.0000
  0
INSERT
  8
17
  2
LONGP100
 10
24.9500
 20
34.6000
 30
0.0000
 41
1.3208
 42
1.3208
 43
1.0000
 50
90.0000
  0
INSERT
  8
17
  2
LONGP100
 10
27.4900
 20
34.6000
 30
0.0000
 41
1.3208
 42
1.3208
 43
1.0000
 50
270.0000
  0
INSERT
  8
17
  2
LONGP100
 10
27.4900
 20
34.6000
 30
0.0000
 41
1.3208
 42
1.3208
 43
1.0000
 50
270.0000
  0
CIRCLE
  8
20
 10
-20.5000
 20
25.7500
 30
0.0000
 40
1.7500
  0
CIRCLE
  8
20
 10
-20.5000
 20
-8.7500
 30
0.0000
 40
1.7500
  0
CIRCLE
  8
20
 10
36.5000
 20
25.7500
 30
0.0000
 40
1.7500
  0
CIRCLE
  8
20
 10
36.5000
 20
-8.7500
 30
0.0000
 40
1.7500
  0
INSERT
  8
17
  2
ROUNDP
 10
17.5600
 20
42.1770
 30
0.0000
 41
1.8796
 42
1.8796
 43
1.0000
 50
270.0000
  0
INSERT
  8
17
  2
ROUNDP
 10
17.5600
 20
42.1770
 30
0.0000
 41
1.8796
 42
1.8796
 43
1.0000
 50
270.0000
  0
INSERT
  8
17
  2
ROUNDP
 10
15.0200
 20
41.9230
 30
0.0000
 41
1.8796
 42
1.8796
 43
1.0000
 50
270.0000
  0
INSERT
  8
17
  2
ROUNDP
 10
15.0200
 20
41.9230
 30
0.0000
 41
1.8796
 42
1.8796
 43
1.0000
 50
270.0000
  0
INSERT
  8
17
  2
ROUNDP
 10
12.4800
 20
42.1770
 30
0.0000
 41
1.8796
 42
1.8796
 43
1.0000
 50
270.0000
  0
INSERT
  8
17
  2
ROUNDP
 10
12.4800
 20
42.1770
 30
0.0000
 41
1.8796
 42
1.8796
 43
1.0000
 50
270.0000
  0
INSERT
  8
17
  2
ROUNDP
 10
9.9400
 20
41.9230
 30
0.0000
 41
1.8796
 42
1.8796
 43
1.0000
 50
270.0000
  0
INSERT
  8
17
  2
ROUNDP
 10
9.9400
 20
41.9230
 30
0.0000
 41
1.8796
 42
1.8796
 43
1.0000
 50
270.0000
  0
INSERT
  8
17
  2
ROUNDP
 10
7.4000
 20
42.1770
 30
0.0000
 41
1.8796
 42
1.8796
 43
1.0000
 50
270.0000
  0
INSERT
  8
17
  2
ROUNDP
 10
7.4000
 20
42.1770
 30
0.0000
 41
1.8796
 42
1.8796
 43
1.0000
 50
270.0000
  0
INSERT
  8
17
  2
ROUNDP
 10
4.8600
 20
41.9230
 30
0.0000
 41
1.8796
 42
1.8796
 43
1.0000
 50
270.0000
  0
INSERT
  8
17
  2
ROUNDP
 10
4.8600
 20
41.9230
 30
0.0000
 41
1.8796
 42
1.8796
 43
1.0000
 50
270.0000
  0
INSERT
  8
17
  2
ROUNDP
 10
2.3200
 20
42.1770
 30
0.0000
 41
1.8796
 42
1.8796
 43
1.0000
 50
270.0000
  0
INSERT
  8
17
  2
ROUNDP
 10
2.3200
 20
42.1770
 30
0.0000
 41
1.8796
 42
1.8796
 43
1.0000
 50
270.0000
  0
INSERT
  8
17
  2
SQUAREP
 10
20.1000
 20
41.9230
 30
0.0000
 41
1.8796
 42
1.8796
 43
1.0000
 50
270.0000
  0
INSERT
  8
17
  2
SQUAREP
 10
20.1000
 20
41.9230
 30
0.0000
 41
1.8796
 42
1.8796
 43
1.0000
 50
270.0000
  0
ENDSEC
  0
EOF
