%
M48
M72
T01C0.01181
T02C0.01378
T03C0.02400
T04C0.03750
T05C0.04000
T06C0.04724
T07C0.11417
%
T01
X16900Y50867
X25900Y50867
X34900Y50867
X43900Y50867
X52900Y50867
X61900Y50867
X70900Y50867
X79900Y50867
X88900Y50867
X98900Y54867
X99900Y58867
X104400Y58367
X103900Y65867
X98900Y65867
X107900Y74867
X119900Y69867
X119900Y67867
X122900Y72367
X122900Y74367
X128900Y74367
X128900Y72367
X133400Y72867
X133400Y74867
X137400Y74367
X137400Y72367
X141400Y72867
X141400Y74867
X145400Y73867
X145400Y71867
X149400Y72867
X149400Y74867
X152900Y71867
X152900Y69867
X138900Y47867
X138900Y42867
X141900Y28867
X136900Y24867
X135900Y20867
X79900Y77367
X61900Y77367
X52900Y77367
X43900Y77367
X34900Y77367
X25900Y77367
X16900Y77367
X16900Y127867
X18900Y127867
X17900Y133867
X19900Y133867
X24900Y133867
X26900Y133867
X31900Y133867
X33900Y133867
X38900Y133867
X40900Y133867
X48900Y132867
X43900Y148867
X41900Y148867
X31400Y155367
X31400Y157367
X29400Y157367
X27400Y157367
X27400Y155367
X29400Y155367
X19900Y160867
X17900Y160867
X17400Y166367
X19400Y166367
X19400Y147367
X17400Y147367
X31900Y184867
X33900Y184867
X12900Y197867
X12900Y199867
X12900Y201867
X37900Y209867
X39900Y209867
X43900Y209867
X43900Y211867
X45900Y211867
X45900Y209867
X67900Y233867
X67900Y235867
X67900Y237867
X80400Y233867
X80400Y231867
X79900Y207367
X77900Y207367
X63400Y185367
X61400Y185367
X61900Y181367
X63900Y181367
X63900Y174367
X61900Y174367
X60900Y167367
X62900Y167367
X62900Y160867
X60900Y160867
X61900Y153867
X63900Y153867
X68900Y153867
X70900Y153867
X75900Y153867
X77900Y153867
X82900Y153867
X84900Y153867
X86900Y162867
X87400Y167367
X87400Y169367
X97900Y167367
X99900Y167367
X99900Y160867
X97900Y160867
X97900Y153867
X99900Y153867
X104900Y153867
X106900Y153867
X111900Y153867
X113900Y153867
X118900Y153867
X120900Y153867
X122900Y163867
X123400Y169367
X121400Y169367
X111400Y175367
X111400Y177367
X109400Y177367
X107400Y177367
X107400Y175367
X109400Y175367
X99900Y174367
X99900Y180867
X97900Y180867
X97900Y184367
X99900Y184367
X113900Y206867
X115900Y206867
X136900Y214367
X138900Y214367
X155900Y214867
X157900Y214867
X174400Y214367
X176400Y214367
X197900Y207867
X197900Y205867
X215900Y211867
X215900Y213867
X232900Y211867
X232900Y209867
X249400Y214367
X251400Y214367
X267900Y214867
X269900Y214867
X287400Y214367
X289400Y214367
X305900Y214867
X307900Y214867
X327400Y214367
X330400Y214367
X345900Y214867
X347900Y214867
X336400Y185867
X334400Y185867
X334900Y181867
X336900Y181867
X344400Y178367
X346400Y178367
X348400Y178367
X348400Y176367
X346400Y176367
X344400Y176367
X336400Y168367
X334400Y168367
X333900Y161867
X334900Y154867
X336900Y154867
X341900Y154867
X343900Y154867
X348900Y154867
X350900Y154867
X355900Y154867
X357900Y154867
X358900Y161867
X358900Y169867
X360900Y169867
X320900Y169867
X318900Y169867
X319900Y161867
X318900Y154867
X316900Y154867
X311900Y154867
X309900Y154867
X304900Y154867
X302900Y154867
X297900Y154867
X295900Y154867
X296900Y161867
X294900Y161867
X294700Y168367
X297400Y168367
X304400Y176367
X304400Y178367
X306400Y178367
X308400Y178367
X308400Y176367
X306400Y176367
X296900Y182367
X294900Y182367
X294200Y186367
X296200Y186367
X281900Y169867
X279900Y169867
X280900Y161867
X279900Y154867
X277900Y154867
X272900Y154867
X270900Y154867
X265900Y154867
X263900Y154867
X258900Y154867
X256900Y154867
X255900Y161867
X255900Y168867
X257900Y168867
X265400Y176367
X265400Y178367
X267400Y178367
X269400Y178367
X269400Y176367
X267400Y176367
X258400Y182367
X256400Y182367
X255900Y185867
X257900Y185867
X242900Y169867
X240900Y169867
X241900Y161867
X240900Y154867
X238900Y154867
X233900Y154867
X231900Y154867
X226900Y154867
X224900Y154867
X219900Y154867
X217900Y154867
X216900Y161867
X218900Y161867
X218900Y168367
X216900Y168367
X205400Y169867
X203900Y168367
X204900Y161867
X203900Y154867
X201900Y154867
X196900Y154867
X194900Y154867
X189900Y154867
X187900Y154867
X182900Y154867
X180900Y154867
X180400Y161867
X180800Y169067
X182800Y169067
X190400Y176367
X190400Y178367
X192400Y178367
X194400Y178367
X194400Y176367
X192400Y176367
X182900Y182367
X180900Y182367
X180300Y186067
X182300Y186067
X169400Y170867
X167900Y169367
X167900Y161867
X167900Y154867
X165900Y154867
X160900Y154867
X158900Y154867
X153900Y154867
X151900Y154867
X146900Y154867
X144900Y154867
X144900Y161867
X142900Y161867
X144400Y168367
X146400Y168367
X154400Y176367
X154400Y178367
X156400Y178367
X158400Y178367
X158400Y176367
X156400Y176367
X146400Y182367
X144400Y182367
X145400Y185867
X143400Y185867
X117900Y234867
X115900Y233867
X105900Y234867
X105900Y236867
X105900Y232867
X106300Y259067
X104300Y259067
X108300Y259067
X110300Y259067
X112300Y259067
X114300Y259067
X116300Y259067
X118300Y259067
X120300Y259067
X122300Y259067
X135500Y277467
X135500Y279467
X135500Y281467
X149400Y281467
X149400Y279467
X149400Y277467
X150200Y272667
X152400Y272667
X157200Y272567
X159500Y272567
X164200Y272967
X164300Y270967
X174100Y271467
X174100Y273467
X174100Y275467
X174100Y277467
X176100Y277467
X178100Y277467
X178100Y275467
X176100Y275467
X176100Y273467
X178100Y273467
X178100Y271467
X176100Y271467
X176100Y269467
X178100Y269467
X174100Y269467
X183900Y280867
X183900Y282867
X168700Y288667
X152600Y289167
X149500Y286267
X189700Y263867
X191700Y263867
X193700Y263867
X195700Y263867
X197700Y263867
X199700Y263867
X201700Y263867
X203700Y263867
X205700Y263867
X207700Y263867
X216900Y185767
X218900Y185767
X219400Y181867
X217400Y181867
X226400Y178367
X228400Y178367
X230400Y178367
X230400Y176367
X228400Y176367
X226400Y176367
X181900Y115867
X173900Y104867
X171900Y104867
X164900Y104867
X162900Y104867
X155900Y104867
X153900Y104867
X146900Y104867
X144900Y104867
X137900Y104867
X135900Y104867
X128900Y104867
X126400Y104867
X120400Y104367
X118400Y104367
X110900Y104867
X108900Y104867
X101900Y104867
X99900Y104867
X101900Y100867
X94900Y113867
X92900Y113867
X90900Y113867
X100900Y120867
X109900Y120867
X118900Y121867
X127900Y121867
X136900Y121867
X145900Y121867
X154900Y121867
X163900Y121867
X194900Y96867
X196900Y96867
X198900Y96867
X215400Y102367
X215400Y105367
X258878Y68553
X261240Y68553
X244900Y53867
X244900Y51867
X244900Y49867
X220900Y16867
X218900Y16867
X216900Y16867
X260478Y101353
X262840Y101353
X301817Y110802
X304179Y110802
X315990Y96629
X318352Y96629
X302579Y78002
X300217Y78002
X314390Y63829
X316752Y63829
X118900Y92867
X116900Y92867
X95900Y80867
X75400Y175367
X75400Y177367
X73400Y177367
X71400Y177367
X71400Y175367
X73400Y175367
X88300Y265867
X88300Y267867
X88300Y269867
X88300Y271867
X88300Y273867
X90300Y273867
X92300Y273867
X92300Y271867
X90300Y271867
X90300Y269867
X92300Y269867
X92300Y267867
X90300Y267867
X90300Y265867
X92300Y265867
X91900Y278867
X93900Y278867
X82900Y285067
X66800Y285567
X66800Y287767
X63700Y282667
X63600Y277867
X63600Y275867
X63600Y273867
X64300Y269267
X66700Y269267
X71600Y269267
X74000Y269267
X77900Y269067
X78900Y267167
X51700Y273867
X51700Y275867
X51700Y277867
T02
X240900Y95867
X252900Y85867
X240900Y79867
X288900Y81867
X290900Y53263
X247900Y27867
T03
X232557Y16928
X221238Y23326
X223698Y27755
X217793Y56298
X204998Y73030
X188650Y58267
X184736Y50785
X181115Y44537
X176100Y37017
X176100Y29517
X167596Y29723
X152832Y28739
X165628Y62204
X165628Y74015
X167596Y86810
X177439Y91731
X187281Y82873
X198108Y91731
X233541Y81397
X245844Y71554
X120352Y87794
X104604Y86810
T04
X103100Y314178
X93100Y314178
X83100Y314178
X73100Y314178
X63100Y314178
X63100Y324178
X63100Y334178
X73100Y334178
X73100Y324178
X83100Y324178
X83100Y334178
X93100Y334178
X93100Y324178
X103100Y324178
X103100Y334178
X113100Y334178
X113100Y324178
X113100Y314178
X123100Y314178
X133100Y314178
X143100Y314178
X153100Y314178
X163100Y314178
X173100Y314178
X183100Y314178
X193100Y314178
X203100Y314178
X213100Y314178
X223100Y314178
X233100Y314178
X243100Y314178
X253100Y314178
X263100Y314178
X273100Y314178
X283100Y314178
X293100Y314178
X303100Y314178
X313100Y314178
X313100Y324178
X303100Y324178
X303100Y334178
X313100Y334178
X313100Y344178
X303100Y344178
X293100Y344178
X293100Y334178
X293100Y324178
X283100Y324178
X273100Y324178
X273100Y334178
X283100Y334178
X283100Y344178
X273100Y344178
X263100Y344178
X253100Y344178
X253100Y334178
X253100Y324178
X263100Y324178
X263100Y334178
X243100Y334178
X243100Y324178
X233100Y324178
X223100Y324178
X223100Y334178
X233100Y334178
X233100Y344178
X223100Y344178
X213100Y344178
X203100Y344178
X203100Y334178
X203100Y324178
X213100Y324178
X213100Y334178
X193100Y334178
X193100Y324178
X183100Y324178
X173100Y324178
X173100Y334178
X183100Y334178
X183100Y344178
X173100Y344178
X163100Y344178
X163100Y334178
X163100Y324178
X153100Y324178
X143100Y324178
X143100Y334178
X153100Y334178
X153100Y344178
X143100Y344178
X133100Y344178
X123100Y344178
X123100Y334178
X123100Y324178
X133100Y324178
X133100Y334178
X113100Y344178
X103100Y344178
X93100Y344178
X83100Y344178
X73100Y344178
X63100Y344178
X193100Y344178
X243100Y344178
T05
X57500Y112967
X47500Y111967
X37500Y112967
X27500Y111967
X17500Y112967
X38500Y93467
X48500Y92467
X58500Y93467
X68500Y92467
X78500Y93467
X88500Y92467
X96100Y18167
X106100Y17167
X116100Y18167
X126100Y17167
X86100Y17167
X76100Y18167
X66100Y17167
X56100Y18167
T06
X342500Y299067
X342500Y312846
T07
X32598Y33160
X343621Y33160
X343621Y344184
X32598Y344184
M30
