G75*
%MOIN*%
%OFA0B0*%
%FSLAX25Y25*%
%IPPOS*%
%LPD*%
%AMOC8*
5,1,8,0,0,1.08239X$1,22.5*
%
%ADD10C,0.05750*%
%ADD11C,0.04400*%
%ADD12C,0.06000*%
%ADD13C,0.07087*%
%ADD14C,0.00000*%
%ADD15C,0.15417*%
%ADD16C,0.02781*%
%ADD17C,0.03000*%
%ADD18C,0.00100*%
%ADD19C,0.01000*%
%ADD20C,0.02000*%
%ADD21C,0.02978*%
D10*
X0063100Y0314178D03*
X0073100Y0314178D03*
X0083100Y0314178D03*
X0093100Y0314178D03*
X0103100Y0314178D03*
X0113100Y0314178D03*
X0123100Y0314178D03*
X0133100Y0314178D03*
X0143100Y0314178D03*
X0153100Y0314178D03*
X0163100Y0314178D03*
X0173100Y0314178D03*
X0183100Y0314178D03*
X0193100Y0314178D03*
X0203100Y0314178D03*
X0213100Y0314178D03*
X0223100Y0314178D03*
X0233100Y0314178D03*
X0243100Y0314178D03*
X0253100Y0314178D03*
X0263100Y0314178D03*
X0273100Y0314178D03*
X0283100Y0314178D03*
X0293100Y0314178D03*
X0303100Y0314178D03*
X0313100Y0314178D03*
X0313100Y0324178D03*
X0303100Y0324178D03*
X0303100Y0334178D03*
X0313100Y0334178D03*
X0313100Y0344178D03*
X0303100Y0344178D03*
X0293100Y0344178D03*
X0293100Y0334178D03*
X0293100Y0324178D03*
X0283100Y0324178D03*
X0273100Y0324178D03*
X0273100Y0334178D03*
X0283100Y0334178D03*
X0283100Y0344178D03*
X0273100Y0344178D03*
X0263100Y0344178D03*
X0253100Y0344178D03*
X0253100Y0334178D03*
X0253100Y0324178D03*
X0263100Y0324178D03*
X0263100Y0334178D03*
X0243100Y0334178D03*
X0243100Y0324178D03*
X0233100Y0324178D03*
X0223100Y0324178D03*
X0223100Y0334178D03*
X0233100Y0334178D03*
X0233100Y0344178D03*
X0223100Y0344178D03*
X0213100Y0344178D03*
X0203100Y0344178D03*
X0203100Y0334178D03*
X0203100Y0324178D03*
X0213100Y0324178D03*
X0213100Y0334178D03*
X0193100Y0334178D03*
X0193100Y0324178D03*
X0183100Y0324178D03*
X0173100Y0324178D03*
X0173100Y0334178D03*
X0183100Y0334178D03*
X0183100Y0344178D03*
X0173100Y0344178D03*
X0163100Y0344178D03*
X0163100Y0334178D03*
X0163100Y0324178D03*
X0153100Y0324178D03*
X0143100Y0324178D03*
X0143100Y0334178D03*
X0153100Y0334178D03*
X0153100Y0344178D03*
X0143100Y0344178D03*
X0133100Y0344178D03*
X0123100Y0344178D03*
X0123100Y0334178D03*
X0123100Y0324178D03*
X0133100Y0324178D03*
X0133100Y0334178D03*
X0113100Y0334178D03*
X0113100Y0324178D03*
X0103100Y0324178D03*
X0093100Y0324178D03*
X0093100Y0334178D03*
X0103100Y0334178D03*
X0103100Y0344178D03*
X0093100Y0344178D03*
X0083100Y0344178D03*
X0073100Y0344178D03*
X0073100Y0334178D03*
X0073100Y0324178D03*
X0083100Y0324178D03*
X0083100Y0334178D03*
X0063100Y0334178D03*
X0063100Y0324178D03*
X0063100Y0344178D03*
X0113100Y0344178D03*
X0193100Y0344178D03*
X0243100Y0344178D03*
D11*
X0198108Y0091731D03*
X0187281Y0082873D03*
X0177439Y0091731D03*
X0167596Y0086810D03*
X0165628Y0074015D03*
X0165628Y0062204D03*
X0184736Y0050785D03*
X0181115Y0044537D03*
X0176100Y0037017D03*
X0176100Y0029517D03*
X0167596Y0029723D03*
X0152832Y0028739D03*
X0188650Y0058267D03*
X0204998Y0073030D03*
X0217793Y0056298D03*
X0223698Y0027755D03*
X0221238Y0023326D03*
X0232557Y0016928D03*
X0245844Y0071554D03*
X0233541Y0081397D03*
X0120352Y0087794D03*
X0104604Y0086810D03*
D12*
X0088500Y0092467D03*
X0078500Y0093467D03*
X0068500Y0092467D03*
X0058500Y0093467D03*
X0048500Y0092467D03*
X0038500Y0093467D03*
X0037500Y0112967D03*
X0027500Y0111967D03*
X0017500Y0112967D03*
X0047500Y0111967D03*
X0057500Y0112967D03*
X0056100Y0018167D03*
X0066100Y0017167D03*
X0076100Y0018167D03*
X0086100Y0017167D03*
X0096100Y0018167D03*
X0106100Y0017167D03*
X0116100Y0018167D03*
X0126100Y0017167D03*
D13*
X0342500Y0299067D03*
X0342500Y0312846D03*
D14*
X0365275Y0346152D02*
X0365275Y0031192D01*
X0345590Y0011507D01*
X0030629Y0011507D01*
X0010944Y0031192D01*
X0010944Y0346152D01*
X0030629Y0365837D01*
X0345590Y0365837D01*
X0365275Y0346152D01*
D15*
X0343621Y0344184D03*
X0032598Y0344184D03*
X0032598Y0033160D03*
X0343621Y0033160D03*
D16*
X0316752Y0063829D03*
X0314390Y0063829D03*
X0302579Y0078002D03*
X0300217Y0078002D03*
X0315990Y0096629D03*
X0318352Y0096629D03*
X0304179Y0110802D03*
X0301817Y0110802D03*
X0262840Y0101353D03*
X0260478Y0101353D03*
X0261240Y0068553D03*
X0258878Y0068553D03*
X0244900Y0053867D03*
X0244900Y0051867D03*
X0244900Y0049867D03*
X0220900Y0016867D03*
X0218900Y0016867D03*
X0216900Y0016867D03*
X0152900Y0069867D03*
X0152900Y0071867D03*
X0149400Y0072867D03*
X0149400Y0074867D03*
X0145400Y0073867D03*
X0145400Y0071867D03*
X0141400Y0072867D03*
X0141400Y0074867D03*
X0137400Y0074367D03*
X0137400Y0072367D03*
X0133400Y0072867D03*
X0133400Y0074867D03*
X0128900Y0074367D03*
X0128900Y0072367D03*
X0122900Y0072367D03*
X0122900Y0074367D03*
X0119900Y0069867D03*
X0119900Y0067867D03*
X0107900Y0074867D03*
X0103900Y0065867D03*
X0098900Y0065867D03*
X0099900Y0058867D03*
X0098900Y0054867D03*
X0104400Y0058367D03*
X0088900Y0050867D03*
X0079900Y0050867D03*
X0070900Y0050867D03*
X0061900Y0050867D03*
X0052900Y0050867D03*
X0043900Y0050867D03*
X0034900Y0050867D03*
X0025900Y0050867D03*
X0016900Y0050867D03*
X0016900Y0077367D03*
X0025900Y0077367D03*
X0034900Y0077367D03*
X0043900Y0077367D03*
X0052900Y0077367D03*
X0061900Y0077367D03*
X0079900Y0077367D03*
X0095900Y0080867D03*
X0101900Y0100867D03*
X0101900Y0104867D03*
X0099900Y0104867D03*
X0108900Y0104867D03*
X0110900Y0104867D03*
X0118400Y0104367D03*
X0120400Y0104367D03*
X0126400Y0104867D03*
X0128900Y0104867D03*
X0135900Y0104867D03*
X0137900Y0104867D03*
X0144900Y0104867D03*
X0146900Y0104867D03*
X0153900Y0104867D03*
X0155900Y0104867D03*
X0162900Y0104867D03*
X0164900Y0104867D03*
X0171900Y0104867D03*
X0173900Y0104867D03*
X0181900Y0115867D03*
X0163900Y0121867D03*
X0154900Y0121867D03*
X0145900Y0121867D03*
X0136900Y0121867D03*
X0127900Y0121867D03*
X0118900Y0121867D03*
X0109900Y0120867D03*
X0100900Y0120867D03*
X0094900Y0113867D03*
X0092900Y0113867D03*
X0090900Y0113867D03*
X0116900Y0092867D03*
X0118900Y0092867D03*
X0138900Y0047867D03*
X0138900Y0042867D03*
X0141900Y0028867D03*
X0136900Y0024867D03*
X0135900Y0020867D03*
X0194900Y0096867D03*
X0196900Y0096867D03*
X0198900Y0096867D03*
X0215400Y0102367D03*
X0215400Y0105367D03*
X0217900Y0154867D03*
X0219900Y0154867D03*
X0224900Y0154867D03*
X0226900Y0154867D03*
X0231900Y0154867D03*
X0233900Y0154867D03*
X0238900Y0154867D03*
X0240900Y0154867D03*
X0241900Y0161867D03*
X0240900Y0169867D03*
X0242900Y0169867D03*
X0255900Y0168867D03*
X0257900Y0168867D03*
X0255900Y0161867D03*
X0256900Y0154867D03*
X0258900Y0154867D03*
X0263900Y0154867D03*
X0265900Y0154867D03*
X0270900Y0154867D03*
X0272900Y0154867D03*
X0277900Y0154867D03*
X0279900Y0154867D03*
X0280900Y0161867D03*
X0279900Y0169867D03*
X0281900Y0169867D03*
X0294700Y0168367D03*
X0297400Y0168367D03*
X0296900Y0161867D03*
X0294900Y0161867D03*
X0295900Y0154867D03*
X0297900Y0154867D03*
X0302900Y0154867D03*
X0304900Y0154867D03*
X0309900Y0154867D03*
X0311900Y0154867D03*
X0316900Y0154867D03*
X0318900Y0154867D03*
X0319900Y0161867D03*
X0318900Y0169867D03*
X0320900Y0169867D03*
X0308400Y0176367D03*
X0308400Y0178367D03*
X0306400Y0178367D03*
X0304400Y0178367D03*
X0304400Y0176367D03*
X0306400Y0176367D03*
X0296900Y0182367D03*
X0294900Y0182367D03*
X0294200Y0186367D03*
X0296200Y0186367D03*
X0269400Y0178367D03*
X0267400Y0178367D03*
X0265400Y0178367D03*
X0265400Y0176367D03*
X0267400Y0176367D03*
X0269400Y0176367D03*
X0258400Y0182367D03*
X0256400Y0182367D03*
X0255900Y0185867D03*
X0257900Y0185867D03*
X0230400Y0178367D03*
X0228400Y0178367D03*
X0226400Y0178367D03*
X0226400Y0176367D03*
X0228400Y0176367D03*
X0230400Y0176367D03*
X0219400Y0181867D03*
X0217400Y0181867D03*
X0216900Y0185767D03*
X0218900Y0185767D03*
X0218900Y0168367D03*
X0216900Y0168367D03*
X0216900Y0161867D03*
X0218900Y0161867D03*
X0204900Y0161867D03*
X0203900Y0168367D03*
X0205400Y0169867D03*
X0194400Y0176367D03*
X0194400Y0178367D03*
X0192400Y0178367D03*
X0190400Y0178367D03*
X0190400Y0176367D03*
X0192400Y0176367D03*
X0182900Y0182367D03*
X0180900Y0182367D03*
X0180300Y0186067D03*
X0182300Y0186067D03*
X0182800Y0169067D03*
X0180800Y0169067D03*
X0180400Y0161867D03*
X0180900Y0154867D03*
X0182900Y0154867D03*
X0187900Y0154867D03*
X0189900Y0154867D03*
X0194900Y0154867D03*
X0196900Y0154867D03*
X0201900Y0154867D03*
X0203900Y0154867D03*
X0169400Y0170867D03*
X0167900Y0169367D03*
X0167900Y0161867D03*
X0167900Y0154867D03*
X0165900Y0154867D03*
X0160900Y0154867D03*
X0158900Y0154867D03*
X0153900Y0154867D03*
X0151900Y0154867D03*
X0146900Y0154867D03*
X0144900Y0154867D03*
X0144900Y0161867D03*
X0142900Y0161867D03*
X0144400Y0168367D03*
X0146400Y0168367D03*
X0154400Y0176367D03*
X0154400Y0178367D03*
X0156400Y0178367D03*
X0158400Y0178367D03*
X0158400Y0176367D03*
X0156400Y0176367D03*
X0146400Y0182367D03*
X0144400Y0182367D03*
X0145400Y0185867D03*
X0143400Y0185867D03*
X0123400Y0169367D03*
X0121400Y0169367D03*
X0122900Y0163867D03*
X0120900Y0153867D03*
X0118900Y0153867D03*
X0113900Y0153867D03*
X0111900Y0153867D03*
X0106900Y0153867D03*
X0104900Y0153867D03*
X0099900Y0153867D03*
X0097900Y0153867D03*
X0097900Y0160867D03*
X0099900Y0160867D03*
X0099900Y0167367D03*
X0097900Y0167367D03*
X0099900Y0174367D03*
X0099900Y0180867D03*
X0097900Y0180867D03*
X0097900Y0184367D03*
X0099900Y0184367D03*
X0107400Y0177367D03*
X0109400Y0177367D03*
X0111400Y0177367D03*
X0111400Y0175367D03*
X0109400Y0175367D03*
X0107400Y0175367D03*
X0087400Y0169367D03*
X0087400Y0167367D03*
X0086900Y0162867D03*
X0084900Y0153867D03*
X0082900Y0153867D03*
X0077900Y0153867D03*
X0075900Y0153867D03*
X0070900Y0153867D03*
X0068900Y0153867D03*
X0063900Y0153867D03*
X0061900Y0153867D03*
X0060900Y0160867D03*
X0062900Y0160867D03*
X0062900Y0167367D03*
X0060900Y0167367D03*
X0061900Y0174367D03*
X0063900Y0174367D03*
X0063900Y0181367D03*
X0061900Y0181367D03*
X0061400Y0185367D03*
X0063400Y0185367D03*
X0071400Y0177367D03*
X0073400Y0177367D03*
X0075400Y0177367D03*
X0075400Y0175367D03*
X0073400Y0175367D03*
X0071400Y0175367D03*
X0043900Y0148867D03*
X0041900Y0148867D03*
X0031400Y0155367D03*
X0031400Y0157367D03*
X0029400Y0157367D03*
X0027400Y0157367D03*
X0027400Y0155367D03*
X0029400Y0155367D03*
X0019900Y0160867D03*
X0017900Y0160867D03*
X0017400Y0166367D03*
X0019400Y0166367D03*
X0019400Y0147367D03*
X0017400Y0147367D03*
X0017900Y0133867D03*
X0019900Y0133867D03*
X0024900Y0133867D03*
X0026900Y0133867D03*
X0031900Y0133867D03*
X0033900Y0133867D03*
X0038900Y0133867D03*
X0040900Y0133867D03*
X0048900Y0132867D03*
X0018900Y0127867D03*
X0016900Y0127867D03*
X0031900Y0184867D03*
X0033900Y0184867D03*
X0012900Y0197867D03*
X0012900Y0199867D03*
X0012900Y0201867D03*
X0037900Y0209867D03*
X0039900Y0209867D03*
X0043900Y0209867D03*
X0043900Y0211867D03*
X0045900Y0211867D03*
X0045900Y0209867D03*
X0067900Y0233867D03*
X0067900Y0235867D03*
X0067900Y0237867D03*
X0080400Y0233867D03*
X0080400Y0231867D03*
X0079900Y0207367D03*
X0077900Y0207367D03*
X0105900Y0232867D03*
X0105900Y0234867D03*
X0105900Y0236867D03*
X0115900Y0233867D03*
X0117900Y0234867D03*
X0136900Y0214367D03*
X0138900Y0214367D03*
X0155900Y0214867D03*
X0157900Y0214867D03*
X0174400Y0214367D03*
X0176400Y0214367D03*
X0197900Y0207867D03*
X0197900Y0205867D03*
X0215900Y0211867D03*
X0215900Y0213867D03*
X0232900Y0211867D03*
X0232900Y0209867D03*
X0249400Y0214367D03*
X0251400Y0214367D03*
X0267900Y0214867D03*
X0269900Y0214867D03*
X0287400Y0214367D03*
X0289400Y0214367D03*
X0305900Y0214867D03*
X0307900Y0214867D03*
X0327400Y0214367D03*
X0330400Y0214367D03*
X0345900Y0214867D03*
X0347900Y0214867D03*
X0336400Y0185867D03*
X0334400Y0185867D03*
X0334900Y0181867D03*
X0336900Y0181867D03*
X0344400Y0178367D03*
X0346400Y0178367D03*
X0348400Y0178367D03*
X0348400Y0176367D03*
X0346400Y0176367D03*
X0344400Y0176367D03*
X0336400Y0168367D03*
X0334400Y0168367D03*
X0333900Y0161867D03*
X0334900Y0154867D03*
X0336900Y0154867D03*
X0341900Y0154867D03*
X0343900Y0154867D03*
X0348900Y0154867D03*
X0350900Y0154867D03*
X0355900Y0154867D03*
X0357900Y0154867D03*
X0358900Y0161867D03*
X0358900Y0169867D03*
X0360900Y0169867D03*
X0207700Y0263867D03*
X0205700Y0263867D03*
X0203700Y0263867D03*
X0201700Y0263867D03*
X0199700Y0263867D03*
X0197700Y0263867D03*
X0195700Y0263867D03*
X0193700Y0263867D03*
X0191700Y0263867D03*
X0189700Y0263867D03*
X0178100Y0269467D03*
X0178100Y0271467D03*
X0178100Y0273467D03*
X0178100Y0275467D03*
X0178100Y0277467D03*
X0176100Y0277467D03*
X0174100Y0277467D03*
X0174100Y0275467D03*
X0176100Y0275467D03*
X0176100Y0273467D03*
X0174100Y0273467D03*
X0174100Y0271467D03*
X0176100Y0271467D03*
X0176100Y0269467D03*
X0174100Y0269467D03*
X0164300Y0270967D03*
X0164200Y0272967D03*
X0159500Y0272567D03*
X0157200Y0272567D03*
X0152400Y0272667D03*
X0150200Y0272667D03*
X0149400Y0277467D03*
X0149400Y0279467D03*
X0149400Y0281467D03*
X0149500Y0286267D03*
X0152600Y0289167D03*
X0135500Y0281467D03*
X0135500Y0279467D03*
X0135500Y0277467D03*
X0122300Y0259067D03*
X0120300Y0259067D03*
X0118300Y0259067D03*
X0116300Y0259067D03*
X0114300Y0259067D03*
X0112300Y0259067D03*
X0110300Y0259067D03*
X0108300Y0259067D03*
X0106300Y0259067D03*
X0104300Y0259067D03*
X0092300Y0265867D03*
X0092300Y0267867D03*
X0092300Y0269867D03*
X0092300Y0271867D03*
X0092300Y0273867D03*
X0090300Y0273867D03*
X0088300Y0273867D03*
X0088300Y0271867D03*
X0090300Y0271867D03*
X0090300Y0269867D03*
X0088300Y0269867D03*
X0088300Y0267867D03*
X0090300Y0267867D03*
X0090300Y0265867D03*
X0088300Y0265867D03*
X0078900Y0267167D03*
X0077900Y0269067D03*
X0074000Y0269267D03*
X0071600Y0269267D03*
X0066700Y0269267D03*
X0064300Y0269267D03*
X0063600Y0273867D03*
X0063600Y0275867D03*
X0063600Y0277867D03*
X0063700Y0282667D03*
X0066800Y0285567D03*
X0066800Y0287767D03*
X0082900Y0285067D03*
X0091900Y0278867D03*
X0093900Y0278867D03*
X0051700Y0277867D03*
X0051700Y0275867D03*
X0051700Y0273867D03*
X0113900Y0206867D03*
X0115900Y0206867D03*
X0183900Y0280867D03*
X0183900Y0282867D03*
X0168700Y0288667D03*
D17*
X0030825Y0022859D02*
X0023095Y0022859D01*
X0025180Y0025858D02*
X0020096Y0025858D01*
X0023064Y0028856D02*
X0017098Y0028856D01*
X0014099Y0031855D02*
X0022189Y0031855D01*
X0022189Y0031790D02*
X0022898Y0029143D01*
X0024269Y0026769D01*
X0026207Y0024831D01*
X0028580Y0023461D01*
X0031227Y0022751D01*
X0033968Y0022751D01*
X0036615Y0023461D01*
X0038989Y0024831D01*
X0040927Y0026769D01*
X0042297Y0029143D01*
X0043006Y0031790D01*
X0043006Y0034530D01*
X0042297Y0037178D01*
X0040927Y0039551D01*
X0038989Y0041489D01*
X0036615Y0042859D01*
X0033968Y0043569D01*
X0031227Y0043569D01*
X0028580Y0042859D01*
X0026207Y0041489D01*
X0024269Y0039551D01*
X0022898Y0037178D01*
X0022189Y0034530D01*
X0022189Y0031790D01*
X0022276Y0034853D02*
X0013644Y0034853D01*
X0013644Y0032310D02*
X0031748Y0014207D01*
X0051999Y0014207D01*
X0051268Y0014938D01*
X0050400Y0017033D01*
X0050400Y0019300D01*
X0051268Y0021395D01*
X0052871Y0022999D01*
X0054966Y0023867D01*
X0057234Y0023867D01*
X0059329Y0022999D01*
X0060932Y0021395D01*
X0061323Y0020451D01*
X0062871Y0021999D01*
X0064966Y0022867D01*
X0067234Y0022867D01*
X0069329Y0021999D01*
X0070877Y0020451D01*
X0071268Y0021395D01*
X0072871Y0022999D01*
X0074966Y0023867D01*
X0077234Y0023867D01*
X0079329Y0022999D01*
X0080932Y0021395D01*
X0081323Y0020451D01*
X0082871Y0021999D01*
X0084966Y0022867D01*
X0087234Y0022867D01*
X0089329Y0021999D01*
X0090932Y0020395D01*
X0090993Y0020248D01*
X0091003Y0020278D01*
X0091396Y0021049D01*
X0091905Y0021750D01*
X0092517Y0022362D01*
X0093217Y0022871D01*
X0093989Y0023264D01*
X0094812Y0023531D01*
X0095667Y0023667D01*
X0096100Y0023667D01*
X0096100Y0018167D01*
X0096100Y0018167D01*
X0096100Y0023667D01*
X0096533Y0023667D01*
X0097388Y0023531D01*
X0098211Y0023264D01*
X0098983Y0022871D01*
X0099683Y0022362D01*
X0100295Y0021750D01*
X0100804Y0021049D01*
X0101197Y0020278D01*
X0101320Y0019900D01*
X0101396Y0020049D01*
X0101905Y0020750D01*
X0102517Y0021362D01*
X0103217Y0021871D01*
X0103989Y0022264D01*
X0104812Y0022531D01*
X0105667Y0022667D01*
X0106100Y0022667D01*
X0106100Y0017167D01*
X0106100Y0017167D01*
X0106100Y0022667D01*
X0106533Y0022667D01*
X0107388Y0022531D01*
X0108211Y0022264D01*
X0108983Y0021871D01*
X0109683Y0021362D01*
X0110295Y0020750D01*
X0110744Y0020132D01*
X0111268Y0021395D01*
X0112871Y0022999D01*
X0114966Y0023867D01*
X0117234Y0023867D01*
X0119329Y0022999D01*
X0120932Y0021395D01*
X0121323Y0020451D01*
X0122871Y0021999D01*
X0124966Y0022867D01*
X0127234Y0022867D01*
X0129329Y0021999D01*
X0130932Y0020395D01*
X0131800Y0018300D01*
X0131800Y0016033D01*
X0131044Y0014207D01*
X0213775Y0014207D01*
X0213432Y0014550D01*
X0212809Y0016053D01*
X0212809Y0017680D01*
X0213432Y0019184D01*
X0214583Y0020334D01*
X0216086Y0020957D01*
X0217714Y0020957D01*
X0217900Y0020880D01*
X0218086Y0020957D01*
X0219714Y0020957D01*
X0219900Y0020880D01*
X0220086Y0020957D01*
X0221714Y0020957D01*
X0223217Y0020334D01*
X0224368Y0019184D01*
X0224991Y0017680D01*
X0224991Y0016053D01*
X0224368Y0014550D01*
X0224025Y0014207D01*
X0344472Y0014207D01*
X0362575Y0032310D01*
X0362575Y0119067D01*
X0189900Y0119067D01*
X0189900Y0128667D01*
X0362575Y0128667D01*
X0362575Y0160050D01*
X0362368Y0159550D01*
X0361217Y0158399D01*
X0359714Y0157776D01*
X0358086Y0157776D01*
X0356583Y0158399D01*
X0355432Y0159550D01*
X0354809Y0161053D01*
X0354809Y0162680D01*
X0355432Y0164184D01*
X0356583Y0165334D01*
X0357868Y0165867D01*
X0356583Y0166399D01*
X0355432Y0167550D01*
X0354809Y0169053D01*
X0354809Y0170680D01*
X0355432Y0172184D01*
X0356583Y0173334D01*
X0358086Y0173957D01*
X0359714Y0173957D01*
X0359900Y0173880D01*
X0360086Y0173957D01*
X0361714Y0173957D01*
X0362575Y0173600D01*
X0362575Y0345034D01*
X0344472Y0363137D01*
X0058900Y0363137D01*
X0058900Y0350867D01*
X0161779Y0349666D01*
X0161991Y0349753D01*
X0164209Y0349753D01*
X0164497Y0349634D01*
X0171505Y0349552D01*
X0171991Y0349753D01*
X0174209Y0349753D01*
X0174787Y0349514D01*
X0181231Y0349439D01*
X0181991Y0349753D01*
X0184209Y0349753D01*
X0185077Y0349394D01*
X0190957Y0349325D01*
X0191991Y0349753D01*
X0194209Y0349753D01*
X0195367Y0349274D01*
X0200683Y0349212D01*
X0201991Y0349753D01*
X0204209Y0349753D01*
X0205657Y0349154D01*
X0210409Y0349098D01*
X0211991Y0349753D01*
X0214209Y0349753D01*
X0215947Y0349033D01*
X0220135Y0348985D01*
X0221991Y0349753D01*
X0224209Y0349753D01*
X0226237Y0348913D01*
X0229908Y0348870D01*
X0229942Y0348905D01*
X0231991Y0349753D01*
X0234209Y0349753D01*
X0236258Y0348905D01*
X0236368Y0348795D01*
X0239792Y0348755D01*
X0239942Y0348905D01*
X0241991Y0349753D01*
X0244209Y0349753D01*
X0246258Y0348905D01*
X0246486Y0348677D01*
X0250089Y0348635D01*
X0250283Y0348776D01*
X0251037Y0349160D01*
X0251841Y0349421D01*
X0252677Y0349553D01*
X0253100Y0349553D01*
X0253100Y0348600D01*
X0253100Y0348600D01*
X0253100Y0349553D01*
X0253523Y0349553D01*
X0254359Y0349421D01*
X0255163Y0349160D01*
X0255917Y0348776D01*
X0256209Y0348563D01*
X0259931Y0348520D01*
X0260283Y0348776D01*
X0261037Y0349160D01*
X0261841Y0349421D01*
X0262677Y0349553D01*
X0263100Y0349553D01*
X0263100Y0348483D01*
X0263100Y0348483D01*
X0263100Y0349553D01*
X0263523Y0349553D01*
X0264359Y0349421D01*
X0265163Y0349160D01*
X0265917Y0348776D01*
X0266372Y0348445D01*
X0269773Y0348405D01*
X0270283Y0348776D01*
X0271037Y0349160D01*
X0271841Y0349421D01*
X0272677Y0349553D01*
X0273100Y0349553D01*
X0273100Y0348366D01*
X0273100Y0348366D01*
X0273100Y0349553D01*
X0273523Y0349553D01*
X0274359Y0349421D01*
X0275163Y0349160D01*
X0275917Y0348776D01*
X0276536Y0348326D01*
X0279331Y0348294D01*
X0279942Y0348905D01*
X0281991Y0349753D01*
X0284209Y0349753D01*
X0286258Y0348905D01*
X0286958Y0348204D01*
X0289215Y0348178D01*
X0289942Y0348905D01*
X0291991Y0349753D01*
X0294209Y0349753D01*
X0296258Y0348905D01*
X0297076Y0348086D01*
X0299380Y0348059D01*
X0299598Y0348278D01*
X0300283Y0348776D01*
X0301037Y0349160D01*
X0301841Y0349421D01*
X0302677Y0349553D01*
X0303100Y0349553D01*
X0303100Y0348016D01*
X0303100Y0348016D01*
X0303100Y0349553D01*
X0303523Y0349553D01*
X0304359Y0349421D01*
X0305163Y0349160D01*
X0305917Y0348776D01*
X0306602Y0348278D01*
X0306908Y0347972D01*
X0309264Y0347944D01*
X0309598Y0348278D01*
X0310283Y0348776D01*
X0311037Y0349160D01*
X0311841Y0349421D01*
X0312677Y0349553D01*
X0313100Y0349553D01*
X0313100Y0347899D01*
X0313100Y0347899D01*
X0313100Y0349553D01*
X0313523Y0349553D01*
X0314359Y0349421D01*
X0315163Y0349160D01*
X0315917Y0348776D01*
X0316602Y0348278D01*
X0317200Y0347680D01*
X0317697Y0346996D01*
X0318081Y0346242D01*
X0318343Y0345437D01*
X0318475Y0344601D01*
X0318475Y0344179D01*
X0315689Y0344179D01*
X0315689Y0344178D01*
X0318475Y0344178D01*
X0318475Y0343755D01*
X0318343Y0342920D01*
X0318081Y0342115D01*
X0317697Y0341361D01*
X0317200Y0340677D01*
X0316602Y0340079D01*
X0315917Y0339581D01*
X0315412Y0339324D01*
X0315408Y0339257D01*
X0316258Y0338905D01*
X0317826Y0337336D01*
X0318675Y0335287D01*
X0318675Y0333070D01*
X0317826Y0331020D01*
X0316258Y0329452D01*
X0315337Y0329071D01*
X0315917Y0328776D01*
X0316602Y0328278D01*
X0317200Y0327680D01*
X0317697Y0326996D01*
X0318081Y0326242D01*
X0318343Y0325437D01*
X0318475Y0324601D01*
X0318475Y0324179D01*
X0314546Y0324179D01*
X0314546Y0324178D01*
X0318475Y0324178D01*
X0318475Y0323755D01*
X0318343Y0322920D01*
X0318081Y0322115D01*
X0317697Y0321361D01*
X0317200Y0320677D01*
X0316602Y0320079D01*
X0315917Y0319581D01*
X0315337Y0319286D01*
X0316258Y0318905D01*
X0317826Y0317336D01*
X0318675Y0315287D01*
X0318675Y0313070D01*
X0317826Y0311020D01*
X0316258Y0309452D01*
X0314209Y0308603D01*
X0311991Y0308603D01*
X0309942Y0309452D01*
X0308374Y0311020D01*
X0308100Y0311681D01*
X0307826Y0311020D01*
X0306258Y0309452D01*
X0304209Y0308603D01*
X0301991Y0308603D01*
X0299942Y0309452D01*
X0298374Y0311020D01*
X0297992Y0311941D01*
X0297697Y0311361D01*
X0297200Y0310677D01*
X0296602Y0310079D01*
X0295917Y0309581D01*
X0295163Y0309197D01*
X0294359Y0308936D01*
X0293523Y0308803D01*
X0293100Y0308803D01*
X0293100Y0312784D01*
X0293100Y0312784D01*
X0293100Y0308803D01*
X0292677Y0308803D01*
X0291841Y0308936D01*
X0291037Y0309197D01*
X0290283Y0309581D01*
X0289598Y0310079D01*
X0289000Y0310677D01*
X0288503Y0311361D01*
X0288208Y0311941D01*
X0287826Y0311020D01*
X0286258Y0309452D01*
X0284209Y0308603D01*
X0281991Y0308603D01*
X0279942Y0309452D01*
X0278374Y0311020D01*
X0278100Y0311681D01*
X0277826Y0311020D01*
X0276258Y0309452D01*
X0274209Y0308603D01*
X0271991Y0308603D01*
X0269942Y0309452D01*
X0268374Y0311020D01*
X0268100Y0311681D01*
X0267826Y0311020D01*
X0266258Y0309452D01*
X0264209Y0308603D01*
X0261991Y0308603D01*
X0259942Y0309452D01*
X0258374Y0311020D01*
X0258100Y0311681D01*
X0257826Y0311020D01*
X0256258Y0309452D01*
X0254209Y0308603D01*
X0251991Y0308603D01*
X0249942Y0309452D01*
X0248374Y0311020D01*
X0248100Y0311681D01*
X0247826Y0311020D01*
X0246258Y0309452D01*
X0244209Y0308603D01*
X0241991Y0308603D01*
X0239942Y0309452D01*
X0238374Y0311020D01*
X0238100Y0311681D01*
X0237826Y0311020D01*
X0236258Y0309452D01*
X0234209Y0308603D01*
X0231991Y0308603D01*
X0229942Y0309452D01*
X0228374Y0311020D01*
X0228100Y0311681D01*
X0227826Y0311020D01*
X0226258Y0309452D01*
X0224209Y0308603D01*
X0221991Y0308603D01*
X0219942Y0309452D01*
X0218374Y0311020D01*
X0218100Y0311681D01*
X0217826Y0311020D01*
X0216258Y0309452D01*
X0214209Y0308603D01*
X0211991Y0308603D01*
X0209942Y0309452D01*
X0208374Y0311020D01*
X0208100Y0311681D01*
X0207826Y0311020D01*
X0206258Y0309452D01*
X0204209Y0308603D01*
X0201991Y0308603D01*
X0199942Y0309452D01*
X0198374Y0311020D01*
X0198100Y0311681D01*
X0197826Y0311020D01*
X0196258Y0309452D01*
X0194209Y0308603D01*
X0191991Y0308603D01*
X0189942Y0309452D01*
X0188374Y0311020D01*
X0188100Y0311681D01*
X0187826Y0311020D01*
X0186258Y0309452D01*
X0184209Y0308603D01*
X0181991Y0308603D01*
X0179942Y0309452D01*
X0178374Y0311020D01*
X0178100Y0311681D01*
X0177826Y0311020D01*
X0176258Y0309452D01*
X0174209Y0308603D01*
X0171991Y0308603D01*
X0169942Y0309452D01*
X0168374Y0311020D01*
X0168100Y0311681D01*
X0167826Y0311020D01*
X0166258Y0309452D01*
X0164209Y0308603D01*
X0161991Y0308603D01*
X0159942Y0309452D01*
X0158374Y0311020D01*
X0158100Y0311681D01*
X0157826Y0311020D01*
X0156258Y0309452D01*
X0154209Y0308603D01*
X0151991Y0308603D01*
X0149942Y0309452D01*
X0148374Y0311020D01*
X0148100Y0311681D01*
X0147826Y0311020D01*
X0146258Y0309452D01*
X0144209Y0308603D01*
X0141991Y0308603D01*
X0139942Y0309452D01*
X0138374Y0311020D01*
X0138100Y0311681D01*
X0137826Y0311020D01*
X0136258Y0309452D01*
X0134209Y0308603D01*
X0131991Y0308603D01*
X0129942Y0309452D01*
X0128374Y0311020D01*
X0127992Y0311941D01*
X0127697Y0311361D01*
X0127200Y0310677D01*
X0126602Y0310079D01*
X0125917Y0309581D01*
X0125163Y0309197D01*
X0124359Y0308936D01*
X0123523Y0308803D01*
X0123100Y0308803D01*
X0123100Y0312113D01*
X0123100Y0312113D01*
X0123100Y0308803D01*
X0122677Y0308803D01*
X0121841Y0308936D01*
X0121037Y0309197D01*
X0120283Y0309581D01*
X0119598Y0310079D01*
X0119000Y0310677D01*
X0118503Y0311361D01*
X0118208Y0311941D01*
X0117826Y0311020D01*
X0116258Y0309452D01*
X0114209Y0308603D01*
X0111991Y0308603D01*
X0109942Y0309452D01*
X0108374Y0311020D01*
X0107992Y0311941D01*
X0107697Y0311361D01*
X0107200Y0310677D01*
X0106602Y0310079D01*
X0105917Y0309581D01*
X0105163Y0309197D01*
X0104359Y0308936D01*
X0103523Y0308803D01*
X0103100Y0308803D01*
X0103100Y0312033D01*
X0103100Y0312033D01*
X0103100Y0308803D01*
X0102677Y0308803D01*
X0101841Y0308936D01*
X0101037Y0309197D01*
X0100283Y0309581D01*
X0099598Y0310079D01*
X0099000Y0310677D01*
X0098503Y0311361D01*
X0098208Y0311941D01*
X0097826Y0311020D01*
X0096258Y0309452D01*
X0094209Y0308603D01*
X0091991Y0308603D01*
X0089942Y0309452D01*
X0088374Y0311020D01*
X0087992Y0311941D01*
X0087697Y0311361D01*
X0087200Y0310677D01*
X0086602Y0310079D01*
X0085917Y0309581D01*
X0085163Y0309197D01*
X0084359Y0308936D01*
X0083523Y0308803D01*
X0083100Y0308803D01*
X0083100Y0311954D01*
X0083100Y0311954D01*
X0083100Y0308803D01*
X0082677Y0308803D01*
X0081841Y0308936D01*
X0081037Y0309197D01*
X0080283Y0309581D01*
X0079598Y0310079D01*
X0079000Y0310677D01*
X0078503Y0311361D01*
X0078211Y0311935D01*
X0078205Y0311935D01*
X0077826Y0311020D01*
X0076258Y0309452D01*
X0074209Y0308603D01*
X0071991Y0308603D01*
X0069942Y0309452D01*
X0068374Y0311020D01*
X0068012Y0311895D01*
X0067969Y0311895D01*
X0067697Y0311361D01*
X0067200Y0310677D01*
X0066602Y0310079D01*
X0065917Y0309581D01*
X0065163Y0309197D01*
X0064359Y0308936D01*
X0063523Y0308803D01*
X0063100Y0308803D01*
X0063100Y0311875D01*
X0063100Y0311875D01*
X0063100Y0308803D01*
X0062677Y0308803D01*
X0061841Y0308936D01*
X0061037Y0309197D01*
X0060283Y0309581D01*
X0059598Y0310079D01*
X0059000Y0310677D01*
X0058503Y0311361D01*
X0058119Y0312115D01*
X0057857Y0312920D01*
X0057725Y0313755D01*
X0057725Y0314178D01*
X0060758Y0314178D01*
X0060758Y0314179D01*
X0057725Y0314179D01*
X0057725Y0314601D01*
X0057857Y0315437D01*
X0058119Y0316242D01*
X0058503Y0316996D01*
X0059000Y0317680D01*
X0059598Y0318278D01*
X0060283Y0318776D01*
X0060469Y0318870D01*
X0060446Y0319243D01*
X0059942Y0319452D01*
X0058374Y0321020D01*
X0057525Y0323070D01*
X0057525Y0325287D01*
X0058374Y0327336D01*
X0059857Y0328819D01*
X0059788Y0329941D01*
X0059598Y0330079D01*
X0059000Y0330677D01*
X0058503Y0331361D01*
X0058119Y0332115D01*
X0057857Y0332920D01*
X0057725Y0333755D01*
X0057725Y0334178D01*
X0059527Y0334178D01*
X0059527Y0334179D01*
X0057725Y0334179D01*
X0057725Y0334601D01*
X0057857Y0335437D01*
X0058119Y0336242D01*
X0058503Y0336996D01*
X0059000Y0337680D01*
X0059293Y0337973D01*
X0059154Y0340240D01*
X0058374Y0341020D01*
X0057525Y0343070D01*
X0057525Y0345287D01*
X0058374Y0347336D01*
X0058697Y0347660D01*
X0057745Y0363137D01*
X0031748Y0363137D01*
X0013644Y0345034D01*
X0013644Y0205957D01*
X0013714Y0205957D01*
X0015217Y0205334D01*
X0016368Y0204184D01*
X0016991Y0202680D01*
X0016991Y0201053D01*
X0016913Y0200867D01*
X0016991Y0200680D01*
X0016991Y0199053D01*
X0016913Y0198867D01*
X0016991Y0198680D01*
X0016991Y0197053D01*
X0016368Y0195550D01*
X0015217Y0194399D01*
X0013714Y0193776D01*
X0013644Y0193776D01*
X0013644Y0130396D01*
X0014583Y0131334D01*
X0016086Y0131957D01*
X0017714Y0131957D01*
X0017900Y0131880D01*
X0018086Y0131957D01*
X0019714Y0131957D01*
X0021217Y0131334D01*
X0022368Y0130184D01*
X0022991Y0128680D01*
X0022991Y0128667D01*
X0088100Y0128667D01*
X0088100Y0118067D01*
X0059269Y0118403D01*
X0060729Y0117799D01*
X0062332Y0116195D01*
X0063200Y0114100D01*
X0063200Y0111833D01*
X0062332Y0109738D01*
X0060729Y0108134D01*
X0058634Y0107267D01*
X0056366Y0107267D01*
X0054271Y0108134D01*
X0052723Y0109682D01*
X0052332Y0108738D01*
X0050729Y0107134D01*
X0048634Y0106267D01*
X0046366Y0106267D01*
X0044271Y0107134D01*
X0042668Y0108738D01*
X0042277Y0109682D01*
X0040729Y0108134D01*
X0038634Y0107267D01*
X0036366Y0107267D01*
X0034271Y0108134D01*
X0032723Y0109682D01*
X0032332Y0108738D01*
X0030729Y0107134D01*
X0028634Y0106267D01*
X0026366Y0106267D01*
X0024271Y0107134D01*
X0022668Y0108738D01*
X0022277Y0109682D01*
X0020729Y0108134D01*
X0018634Y0107267D01*
X0016366Y0107267D01*
X0014271Y0108134D01*
X0013644Y0108761D01*
X0013644Y0079896D01*
X0014583Y0080834D01*
X0016086Y0081457D01*
X0017714Y0081457D01*
X0019217Y0080834D01*
X0020368Y0079684D01*
X0020991Y0078180D01*
X0020991Y0076553D01*
X0020368Y0075050D01*
X0019217Y0073899D01*
X0017714Y0073276D01*
X0016086Y0073276D01*
X0014583Y0073899D01*
X0013644Y0074838D01*
X0013644Y0032310D01*
X0013644Y0037852D02*
X0023288Y0037852D01*
X0025568Y0040850D02*
X0013644Y0040850D01*
X0013644Y0043849D02*
X0134879Y0043849D01*
X0134809Y0043680D02*
X0134809Y0042053D01*
X0135432Y0040550D01*
X0136583Y0039399D01*
X0138086Y0038776D01*
X0139714Y0038776D01*
X0141217Y0039399D01*
X0142368Y0040550D01*
X0142991Y0042053D01*
X0142991Y0043680D01*
X0142368Y0045184D01*
X0142185Y0045367D01*
X0142368Y0045550D01*
X0142991Y0047053D01*
X0142991Y0048680D01*
X0142368Y0050184D01*
X0141217Y0051334D01*
X0139714Y0051957D01*
X0138086Y0051957D01*
X0136583Y0051334D01*
X0135432Y0050184D01*
X0134809Y0048680D01*
X0134809Y0047053D01*
X0135432Y0045550D01*
X0135615Y0045367D01*
X0135432Y0045184D01*
X0134809Y0043680D01*
X0135308Y0040850D02*
X0039628Y0040850D01*
X0041908Y0037852D02*
X0171200Y0037852D01*
X0171200Y0037991D02*
X0171200Y0036042D01*
X0171946Y0034241D01*
X0172920Y0033267D01*
X0171946Y0032292D01*
X0171200Y0030491D01*
X0171200Y0028542D01*
X0171946Y0026741D01*
X0173324Y0025363D01*
X0175125Y0024617D01*
X0177075Y0024617D01*
X0178876Y0025363D01*
X0180254Y0026741D01*
X0181000Y0028542D01*
X0181000Y0030491D01*
X0180254Y0032292D01*
X0179280Y0033267D01*
X0180254Y0034241D01*
X0181000Y0036042D01*
X0181000Y0037991D01*
X0180318Y0039637D01*
X0182090Y0039637D01*
X0183891Y0040383D01*
X0185269Y0041762D01*
X0186015Y0043562D01*
X0186015Y0045512D01*
X0185839Y0045938D01*
X0187512Y0046631D01*
X0188890Y0048009D01*
X0189636Y0049810D01*
X0189636Y0051759D01*
X0188970Y0053367D01*
X0189624Y0053367D01*
X0191425Y0054113D01*
X0192804Y0055491D01*
X0193550Y0057292D01*
X0193550Y0059241D01*
X0192804Y0061042D01*
X0191425Y0062421D01*
X0189624Y0063167D01*
X0187675Y0063167D01*
X0185874Y0062421D01*
X0184496Y0061042D01*
X0183750Y0059241D01*
X0183750Y0057292D01*
X0184415Y0055685D01*
X0183762Y0055685D01*
X0181961Y0054939D01*
X0180582Y0053560D01*
X0179836Y0051759D01*
X0179836Y0049810D01*
X0180013Y0049384D01*
X0178339Y0048691D01*
X0176961Y0047313D01*
X0176215Y0045512D01*
X0176215Y0043562D01*
X0176897Y0041917D01*
X0175125Y0041917D01*
X0173324Y0041171D01*
X0171946Y0039792D01*
X0171200Y0037991D01*
X0171692Y0034853D02*
X0042920Y0034853D01*
X0043006Y0031855D02*
X0139103Y0031855D01*
X0139583Y0032334D02*
X0138432Y0031184D01*
X0137809Y0029680D01*
X0137809Y0028918D01*
X0137714Y0028957D01*
X0136086Y0028957D01*
X0134583Y0028334D01*
X0133432Y0027184D01*
X0132809Y0025680D01*
X0132809Y0024053D01*
X0132954Y0023705D01*
X0132432Y0023184D01*
X0131809Y0021680D01*
X0131809Y0020053D01*
X0132432Y0018550D01*
X0133583Y0017399D01*
X0135086Y0016776D01*
X0136714Y0016776D01*
X0138217Y0017399D01*
X0139368Y0018550D01*
X0139991Y0020053D01*
X0139991Y0021680D01*
X0139846Y0022028D01*
X0140368Y0022550D01*
X0140991Y0024053D01*
X0140991Y0024816D01*
X0141086Y0024776D01*
X0142714Y0024776D01*
X0144217Y0025399D01*
X0145368Y0026550D01*
X0145991Y0028053D01*
X0145991Y0029680D01*
X0145368Y0031184D01*
X0144217Y0032334D01*
X0142714Y0032957D01*
X0141086Y0032957D01*
X0139583Y0032334D01*
X0135843Y0028856D02*
X0042132Y0028856D01*
X0040015Y0025858D02*
X0132883Y0025858D01*
X0132298Y0022859D02*
X0127252Y0022859D01*
X0124948Y0022859D02*
X0119468Y0022859D01*
X0112732Y0022859D02*
X0098998Y0022859D01*
X0096100Y0022859D02*
X0096100Y0022859D01*
X0093202Y0022859D02*
X0087252Y0022859D01*
X0084948Y0022859D02*
X0079468Y0022859D01*
X0072732Y0022859D02*
X0067252Y0022859D01*
X0064948Y0022859D02*
X0059468Y0022859D01*
X0052732Y0022859D02*
X0034370Y0022859D01*
X0029092Y0016862D02*
X0050471Y0016862D01*
X0050632Y0019861D02*
X0026094Y0019861D01*
X0013644Y0046847D02*
X0134895Y0046847D01*
X0135292Y0049846D02*
X0013644Y0049846D01*
X0013644Y0052844D02*
X0095310Y0052844D01*
X0095432Y0052550D02*
X0096583Y0051399D01*
X0098086Y0050776D01*
X0099714Y0050776D01*
X0101217Y0051399D01*
X0102368Y0052550D01*
X0102991Y0054053D01*
X0102991Y0054523D01*
X0103586Y0054276D01*
X0105214Y0054276D01*
X0106717Y0054899D01*
X0107868Y0056050D01*
X0108491Y0057553D01*
X0108491Y0059180D01*
X0107868Y0060684D01*
X0106717Y0061834D01*
X0105786Y0062220D01*
X0106217Y0062399D01*
X0107368Y0063550D01*
X0107991Y0065053D01*
X0107991Y0066680D01*
X0107368Y0068184D01*
X0106217Y0069334D01*
X0104714Y0069957D01*
X0103086Y0069957D01*
X0101583Y0069334D01*
X0101400Y0069152D01*
X0101217Y0069334D01*
X0099714Y0069957D01*
X0098086Y0069957D01*
X0096583Y0069334D01*
X0095432Y0068184D01*
X0094809Y0066680D01*
X0094809Y0065053D01*
X0095432Y0063550D01*
X0096583Y0062399D01*
X0097336Y0062087D01*
X0096432Y0061184D01*
X0095809Y0059680D01*
X0095809Y0058053D01*
X0095954Y0057705D01*
X0095432Y0057184D01*
X0094809Y0055680D01*
X0094809Y0054053D01*
X0095432Y0052550D01*
X0094877Y0055843D02*
X0013644Y0055843D01*
X0013644Y0058841D02*
X0095809Y0058841D01*
X0097088Y0061840D02*
X0013644Y0061840D01*
X0013644Y0064838D02*
X0094898Y0064838D01*
X0095289Y0067837D02*
X0013644Y0067837D01*
X0013644Y0070835D02*
X0106943Y0070835D01*
X0107086Y0070776D02*
X0108714Y0070776D01*
X0110217Y0071399D01*
X0111368Y0072550D01*
X0111991Y0074053D01*
X0111991Y0075680D01*
X0111368Y0077184D01*
X0110217Y0078334D01*
X0108714Y0078957D01*
X0107086Y0078957D01*
X0105583Y0078334D01*
X0104432Y0077184D01*
X0103809Y0075680D01*
X0103809Y0074053D01*
X0104432Y0072550D01*
X0105583Y0071399D01*
X0107086Y0070776D01*
X0108857Y0070835D02*
X0115874Y0070835D01*
X0115809Y0070680D02*
X0115809Y0069053D01*
X0115887Y0068867D01*
X0115809Y0068680D01*
X0115809Y0067053D01*
X0116432Y0065550D01*
X0117583Y0064399D01*
X0119086Y0063776D01*
X0120714Y0063776D01*
X0122217Y0064399D01*
X0123368Y0065550D01*
X0123991Y0067053D01*
X0123991Y0068391D01*
X0125217Y0068899D01*
X0125900Y0069582D01*
X0126583Y0068899D01*
X0128086Y0068276D01*
X0129714Y0068276D01*
X0131217Y0068899D01*
X0131531Y0069213D01*
X0132586Y0068776D01*
X0134214Y0068776D01*
X0134915Y0069067D01*
X0135083Y0068899D01*
X0136586Y0068276D01*
X0138214Y0068276D01*
X0139717Y0068899D01*
X0139885Y0069067D01*
X0140586Y0068776D01*
X0142214Y0068776D01*
X0142562Y0068920D01*
X0143083Y0068399D01*
X0144586Y0067776D01*
X0146214Y0067776D01*
X0147717Y0068399D01*
X0148238Y0068920D01*
X0148586Y0068776D01*
X0148924Y0068776D01*
X0149432Y0067550D01*
X0150583Y0066399D01*
X0152086Y0065776D01*
X0153714Y0065776D01*
X0155217Y0066399D01*
X0156368Y0067550D01*
X0156991Y0069053D01*
X0156991Y0070680D01*
X0156913Y0070867D01*
X0156991Y0071053D01*
X0156991Y0072680D01*
X0156368Y0074184D01*
X0155217Y0075334D01*
X0153714Y0075957D01*
X0153376Y0075957D01*
X0152868Y0077184D01*
X0151717Y0078334D01*
X0150214Y0078957D01*
X0148586Y0078957D01*
X0147083Y0078334D01*
X0146562Y0077813D01*
X0146214Y0077957D01*
X0144586Y0077957D01*
X0144238Y0077813D01*
X0143717Y0078334D01*
X0142214Y0078957D01*
X0140586Y0078957D01*
X0139083Y0078334D01*
X0138915Y0078167D01*
X0138214Y0078457D01*
X0136586Y0078457D01*
X0135885Y0078167D01*
X0135717Y0078334D01*
X0134214Y0078957D01*
X0132586Y0078957D01*
X0131083Y0078334D01*
X0130769Y0078020D01*
X0129714Y0078457D01*
X0128086Y0078457D01*
X0126583Y0077834D01*
X0125900Y0077152D01*
X0125217Y0077834D01*
X0123714Y0078457D01*
X0122086Y0078457D01*
X0120583Y0077834D01*
X0119432Y0076684D01*
X0118809Y0075180D01*
X0118809Y0073843D01*
X0117583Y0073334D01*
X0116432Y0072184D01*
X0115809Y0070680D01*
X0115809Y0067837D02*
X0107511Y0067837D01*
X0107902Y0064838D02*
X0117143Y0064838D01*
X0122657Y0064838D02*
X0362575Y0064838D01*
X0362575Y0061840D02*
X0192006Y0061840D01*
X0193550Y0058841D02*
X0362575Y0058841D01*
X0362575Y0055843D02*
X0294244Y0055843D01*
X0294451Y0055636D02*
X0293273Y0056814D01*
X0291733Y0057452D01*
X0290067Y0057452D01*
X0288527Y0056814D01*
X0287349Y0055636D01*
X0286711Y0054096D01*
X0286711Y0052430D01*
X0287349Y0050890D01*
X0288527Y0049712D01*
X0290067Y0049074D01*
X0291733Y0049074D01*
X0293273Y0049712D01*
X0294451Y0050890D01*
X0295089Y0052430D01*
X0295089Y0054096D01*
X0294451Y0055636D01*
X0295089Y0052844D02*
X0362575Y0052844D01*
X0362575Y0049846D02*
X0293407Y0049846D01*
X0288393Y0049846D02*
X0248991Y0049846D01*
X0248991Y0049053D02*
X0248991Y0050680D01*
X0248913Y0050867D01*
X0248991Y0051053D01*
X0248991Y0052680D01*
X0248913Y0052867D01*
X0248991Y0053053D01*
X0248991Y0054680D01*
X0248368Y0056184D01*
X0247217Y0057334D01*
X0245714Y0057957D01*
X0244086Y0057957D01*
X0242583Y0057334D01*
X0241432Y0056184D01*
X0240809Y0054680D01*
X0240809Y0053053D01*
X0240887Y0052867D01*
X0240809Y0052680D01*
X0240809Y0051053D01*
X0240887Y0050867D01*
X0240809Y0050680D01*
X0240809Y0049053D01*
X0241432Y0047550D01*
X0242583Y0046399D01*
X0244086Y0045776D01*
X0245714Y0045776D01*
X0247217Y0046399D01*
X0248368Y0047550D01*
X0248991Y0049053D01*
X0247666Y0046847D02*
X0362575Y0046847D01*
X0362575Y0043849D02*
X0186015Y0043849D01*
X0184358Y0040850D02*
X0336591Y0040850D01*
X0337230Y0041489D02*
X0335292Y0039551D01*
X0333922Y0037178D01*
X0333213Y0034530D01*
X0333213Y0031790D01*
X0333922Y0029143D01*
X0335292Y0026769D01*
X0337230Y0024831D01*
X0339604Y0023461D01*
X0342251Y0022751D01*
X0344992Y0022751D01*
X0347639Y0023461D01*
X0350012Y0024831D01*
X0351950Y0026769D01*
X0353321Y0029143D01*
X0354030Y0031790D01*
X0354030Y0034530D01*
X0353321Y0037178D01*
X0351950Y0039551D01*
X0350012Y0041489D01*
X0347639Y0042859D01*
X0344992Y0043569D01*
X0342251Y0043569D01*
X0339604Y0042859D01*
X0337230Y0041489D01*
X0334311Y0037852D02*
X0181000Y0037852D01*
X0180508Y0034853D02*
X0333299Y0034853D01*
X0333213Y0031855D02*
X0249218Y0031855D01*
X0248733Y0032056D02*
X0250273Y0031418D01*
X0251451Y0030240D01*
X0252089Y0028700D01*
X0252089Y0027033D01*
X0251451Y0025494D01*
X0250273Y0024315D01*
X0248733Y0023678D01*
X0247067Y0023678D01*
X0245527Y0024315D01*
X0244349Y0025494D01*
X0243711Y0027033D01*
X0243711Y0028700D01*
X0244349Y0030240D01*
X0245527Y0031418D01*
X0247067Y0032056D01*
X0248733Y0032056D01*
X0246582Y0031855D02*
X0180435Y0031855D01*
X0181000Y0028856D02*
X0243776Y0028856D01*
X0244198Y0025858D02*
X0179371Y0025858D01*
X0172829Y0025858D02*
X0144676Y0025858D01*
X0145991Y0028856D02*
X0171200Y0028856D01*
X0171765Y0031855D02*
X0144697Y0031855D01*
X0142492Y0040850D02*
X0173004Y0040850D01*
X0176215Y0043849D02*
X0142921Y0043849D01*
X0142905Y0046847D02*
X0176768Y0046847D01*
X0179836Y0049846D02*
X0142508Y0049846D01*
X0144440Y0067837D02*
X0123991Y0067837D01*
X0118789Y0073834D02*
X0111900Y0073834D01*
X0111513Y0076832D02*
X0119581Y0076832D01*
X0119714Y0088776D02*
X0118086Y0088776D01*
X0117900Y0088853D01*
X0117714Y0088776D01*
X0116086Y0088776D01*
X0114583Y0089399D01*
X0113432Y0090550D01*
X0112809Y0092053D01*
X0112809Y0093680D01*
X0113432Y0095184D01*
X0114583Y0096334D01*
X0116086Y0096957D01*
X0117714Y0096957D01*
X0117900Y0096880D01*
X0118086Y0096957D01*
X0119714Y0096957D01*
X0121217Y0096334D01*
X0122368Y0095184D01*
X0122991Y0093680D01*
X0122991Y0092053D01*
X0122368Y0090550D01*
X0121217Y0089399D01*
X0119714Y0088776D01*
X0119835Y0088826D02*
X0249936Y0088826D01*
X0249349Y0088240D02*
X0248711Y0086700D01*
X0248711Y0085033D01*
X0249349Y0083494D01*
X0250527Y0082315D01*
X0252067Y0081678D01*
X0253733Y0081678D01*
X0255273Y0082315D01*
X0256451Y0083494D01*
X0257089Y0085033D01*
X0257089Y0086700D01*
X0256451Y0088240D01*
X0255273Y0089418D01*
X0253733Y0090056D01*
X0252067Y0090056D01*
X0250527Y0089418D01*
X0249349Y0088240D01*
X0248711Y0085828D02*
X0013644Y0085828D01*
X0013644Y0088826D02*
X0035079Y0088826D01*
X0035271Y0088634D02*
X0037366Y0087767D01*
X0039634Y0087767D01*
X0041729Y0088634D01*
X0043277Y0090182D01*
X0043668Y0089238D01*
X0045271Y0087634D01*
X0047366Y0086767D01*
X0049634Y0086767D01*
X0051729Y0087634D01*
X0053332Y0089238D01*
X0053723Y0090182D01*
X0055271Y0088634D01*
X0057366Y0087767D01*
X0059634Y0087767D01*
X0061729Y0088634D01*
X0063277Y0090182D01*
X0063668Y0089238D01*
X0065271Y0087634D01*
X0067366Y0086767D01*
X0069634Y0086767D01*
X0071729Y0087634D01*
X0073332Y0089238D01*
X0073723Y0090182D01*
X0075271Y0088634D01*
X0077366Y0087767D01*
X0079634Y0087767D01*
X0081729Y0088634D01*
X0083277Y0090182D01*
X0083668Y0089238D01*
X0085271Y0087634D01*
X0087366Y0086767D01*
X0089634Y0086767D01*
X0091729Y0087634D01*
X0093332Y0089238D01*
X0094200Y0091333D01*
X0094200Y0093600D01*
X0093332Y0095695D01*
X0091729Y0097299D01*
X0089634Y0098167D01*
X0087366Y0098167D01*
X0085271Y0097299D01*
X0083723Y0095751D01*
X0083332Y0096695D01*
X0081729Y0098299D01*
X0079634Y0099167D01*
X0077366Y0099167D01*
X0075271Y0098299D01*
X0073668Y0096695D01*
X0073277Y0095751D01*
X0071729Y0097299D01*
X0069634Y0098167D01*
X0067366Y0098167D01*
X0065271Y0097299D01*
X0063723Y0095751D01*
X0063332Y0096695D01*
X0061729Y0098299D01*
X0059634Y0099167D01*
X0057366Y0099167D01*
X0055271Y0098299D01*
X0053668Y0096695D01*
X0053277Y0095751D01*
X0051729Y0097299D01*
X0049634Y0098167D01*
X0047366Y0098167D01*
X0045271Y0097299D01*
X0043723Y0095751D01*
X0043332Y0096695D01*
X0041729Y0098299D01*
X0039634Y0099167D01*
X0037366Y0099167D01*
X0035271Y0098299D01*
X0033668Y0096695D01*
X0032800Y0094600D01*
X0032800Y0092333D01*
X0033668Y0090238D01*
X0035271Y0088634D01*
X0033010Y0091825D02*
X0013644Y0091825D01*
X0013644Y0094823D02*
X0032892Y0094823D01*
X0034794Y0097822D02*
X0013644Y0097822D01*
X0013644Y0100821D02*
X0097809Y0100821D01*
X0097809Y0101305D02*
X0097809Y0100053D01*
X0098432Y0098550D01*
X0099583Y0097399D01*
X0101086Y0096776D01*
X0102714Y0096776D01*
X0104217Y0097399D01*
X0105368Y0098550D01*
X0105991Y0100053D01*
X0105991Y0101680D01*
X0105771Y0102211D01*
X0106583Y0101399D01*
X0108086Y0100776D01*
X0109714Y0100776D01*
X0109900Y0100853D01*
X0110086Y0100776D01*
X0111714Y0100776D01*
X0113217Y0101399D01*
X0114368Y0102550D01*
X0114546Y0102981D01*
X0114932Y0102050D01*
X0116083Y0100899D01*
X0117586Y0100276D01*
X0119214Y0100276D01*
X0119400Y0100353D01*
X0119586Y0100276D01*
X0121214Y0100276D01*
X0122717Y0100899D01*
X0123650Y0101832D01*
X0124083Y0101399D01*
X0125586Y0100776D01*
X0127214Y0100776D01*
X0127650Y0100957D01*
X0128086Y0100776D01*
X0129714Y0100776D01*
X0131217Y0101399D01*
X0132368Y0102550D01*
X0132400Y0102627D01*
X0132432Y0102550D01*
X0133583Y0101399D01*
X0135086Y0100776D01*
X0136714Y0100776D01*
X0136900Y0100853D01*
X0137086Y0100776D01*
X0138714Y0100776D01*
X0140217Y0101399D01*
X0141368Y0102550D01*
X0141400Y0102627D01*
X0141432Y0102550D01*
X0142583Y0101399D01*
X0144086Y0100776D01*
X0145714Y0100776D01*
X0145900Y0100853D01*
X0146086Y0100776D01*
X0147714Y0100776D01*
X0149217Y0101399D01*
X0150368Y0102550D01*
X0150400Y0102627D01*
X0150432Y0102550D01*
X0151583Y0101399D01*
X0153086Y0100776D01*
X0154714Y0100776D01*
X0154900Y0100853D01*
X0155086Y0100776D01*
X0156714Y0100776D01*
X0158217Y0101399D01*
X0159368Y0102550D01*
X0159400Y0102627D01*
X0159432Y0102550D01*
X0160583Y0101399D01*
X0162086Y0100776D01*
X0163714Y0100776D01*
X0163900Y0100853D01*
X0164086Y0100776D01*
X0165714Y0100776D01*
X0167217Y0101399D01*
X0168368Y0102550D01*
X0168400Y0102627D01*
X0168432Y0102550D01*
X0169583Y0101399D01*
X0171086Y0100776D01*
X0172714Y0100776D01*
X0172900Y0100853D01*
X0173086Y0100776D01*
X0174714Y0100776D01*
X0176217Y0101399D01*
X0177368Y0102550D01*
X0177991Y0104053D01*
X0177991Y0105680D01*
X0177368Y0107184D01*
X0176217Y0108334D01*
X0174714Y0108957D01*
X0173086Y0108957D01*
X0172900Y0108880D01*
X0172714Y0108957D01*
X0171086Y0108957D01*
X0169583Y0108334D01*
X0168432Y0107184D01*
X0168400Y0107106D01*
X0168368Y0107184D01*
X0167217Y0108334D01*
X0165714Y0108957D01*
X0164086Y0108957D01*
X0163900Y0108880D01*
X0163714Y0108957D01*
X0162086Y0108957D01*
X0160583Y0108334D01*
X0159432Y0107184D01*
X0159400Y0107106D01*
X0159368Y0107184D01*
X0158217Y0108334D01*
X0156714Y0108957D01*
X0155086Y0108957D01*
X0154900Y0108880D01*
X0154714Y0108957D01*
X0153086Y0108957D01*
X0151583Y0108334D01*
X0150432Y0107184D01*
X0150400Y0107106D01*
X0150368Y0107184D01*
X0149217Y0108334D01*
X0147714Y0108957D01*
X0146086Y0108957D01*
X0145900Y0108880D01*
X0145714Y0108957D01*
X0144086Y0108957D01*
X0142583Y0108334D01*
X0141432Y0107184D01*
X0141400Y0107106D01*
X0141368Y0107184D01*
X0140217Y0108334D01*
X0138714Y0108957D01*
X0137086Y0108957D01*
X0136900Y0108880D01*
X0136714Y0108957D01*
X0135086Y0108957D01*
X0133583Y0108334D01*
X0132432Y0107184D01*
X0132400Y0107106D01*
X0132368Y0107184D01*
X0131217Y0108334D01*
X0129714Y0108957D01*
X0128086Y0108957D01*
X0127650Y0108776D01*
X0127214Y0108957D01*
X0125586Y0108957D01*
X0124083Y0108334D01*
X0123150Y0107402D01*
X0122717Y0107834D01*
X0121214Y0108457D01*
X0119586Y0108457D01*
X0119400Y0108380D01*
X0119214Y0108457D01*
X0117586Y0108457D01*
X0116083Y0107834D01*
X0114932Y0106684D01*
X0114754Y0106252D01*
X0114368Y0107184D01*
X0113217Y0108334D01*
X0111714Y0108957D01*
X0110086Y0108957D01*
X0109900Y0108880D01*
X0109714Y0108957D01*
X0108086Y0108957D01*
X0106583Y0108334D01*
X0105432Y0107184D01*
X0105400Y0107106D01*
X0105368Y0107184D01*
X0104217Y0108334D01*
X0102714Y0108957D01*
X0101086Y0108957D01*
X0100900Y0108880D01*
X0100714Y0108957D01*
X0099086Y0108957D01*
X0097583Y0108334D01*
X0096432Y0107184D01*
X0095809Y0105680D01*
X0095809Y0104053D01*
X0096432Y0102550D01*
X0097583Y0101399D01*
X0097809Y0101305D01*
X0095906Y0103819D02*
X0013644Y0103819D01*
X0013644Y0106818D02*
X0025036Y0106818D01*
X0029964Y0106818D02*
X0045036Y0106818D01*
X0049964Y0106818D02*
X0096281Y0106818D01*
X0100086Y0116776D02*
X0098583Y0117399D01*
X0097432Y0118550D01*
X0096809Y0120053D01*
X0096809Y0121680D01*
X0097432Y0123184D01*
X0098583Y0124334D01*
X0100086Y0124957D01*
X0101714Y0124957D01*
X0103217Y0124334D01*
X0104368Y0123184D01*
X0104991Y0121680D01*
X0104991Y0120053D01*
X0104368Y0118550D01*
X0103217Y0117399D01*
X0101714Y0116776D01*
X0100086Y0116776D01*
X0097324Y0118812D02*
X0088100Y0118812D01*
X0088100Y0121810D02*
X0096863Y0121810D01*
X0099728Y0124809D02*
X0088100Y0124809D01*
X0088100Y0127807D02*
X0189900Y0127807D01*
X0189900Y0124809D02*
X0166743Y0124809D01*
X0166217Y0125334D02*
X0164714Y0125957D01*
X0163086Y0125957D01*
X0161583Y0125334D01*
X0160432Y0124184D01*
X0159809Y0122680D01*
X0159809Y0121053D01*
X0160432Y0119550D01*
X0161583Y0118399D01*
X0163086Y0117776D01*
X0164714Y0117776D01*
X0166217Y0118399D01*
X0167368Y0119550D01*
X0167991Y0121053D01*
X0167991Y0122680D01*
X0167368Y0124184D01*
X0166217Y0125334D01*
X0167991Y0121810D02*
X0189900Y0121810D01*
X0185368Y0118184D02*
X0184217Y0119334D01*
X0182714Y0119957D01*
X0181086Y0119957D01*
X0179583Y0119334D01*
X0178432Y0118184D01*
X0177809Y0116680D01*
X0177809Y0115053D01*
X0178432Y0113550D01*
X0179583Y0112399D01*
X0181086Y0111776D01*
X0182714Y0111776D01*
X0184217Y0112399D01*
X0185368Y0113550D01*
X0185991Y0115053D01*
X0185991Y0116680D01*
X0185368Y0118184D01*
X0184740Y0118812D02*
X0362575Y0118812D01*
X0362575Y0115813D02*
X0185991Y0115813D01*
X0184633Y0112815D02*
X0362575Y0112815D01*
X0362575Y0109816D02*
X0062365Y0109816D01*
X0063200Y0112815D02*
X0179167Y0112815D01*
X0177809Y0115813D02*
X0062491Y0115813D01*
X0051217Y0129399D02*
X0052368Y0130550D01*
X0052991Y0132053D01*
X0052991Y0133680D01*
X0052368Y0135184D01*
X0051217Y0136334D01*
X0049714Y0136957D01*
X0048086Y0136957D01*
X0046583Y0136334D01*
X0045432Y0135184D01*
X0044809Y0133680D01*
X0044809Y0132053D01*
X0045432Y0130550D01*
X0046583Y0129399D01*
X0048086Y0128776D01*
X0049714Y0128776D01*
X0051217Y0129399D01*
X0052474Y0130806D02*
X0362575Y0130806D01*
X0362575Y0133804D02*
X0052939Y0133804D01*
X0050087Y0136803D02*
X0362575Y0136803D01*
X0362575Y0139801D02*
X0013644Y0139801D01*
X0013644Y0136803D02*
X0047713Y0136803D01*
X0044861Y0133804D02*
X0013644Y0133804D01*
X0013644Y0130806D02*
X0014054Y0130806D01*
X0021746Y0130806D02*
X0045326Y0130806D01*
X0044714Y0144776D02*
X0046217Y0145399D01*
X0047368Y0146550D01*
X0047991Y0148053D01*
X0047991Y0149680D01*
X0047368Y0151184D01*
X0046217Y0152334D01*
X0044714Y0152957D01*
X0043086Y0152957D01*
X0042900Y0152880D01*
X0042714Y0152957D01*
X0041086Y0152957D01*
X0039583Y0152334D01*
X0038432Y0151184D01*
X0037809Y0149680D01*
X0037809Y0148053D01*
X0038432Y0146550D01*
X0039583Y0145399D01*
X0041086Y0144776D01*
X0042714Y0144776D01*
X0042900Y0144853D01*
X0043086Y0144776D01*
X0044714Y0144776D01*
X0046616Y0145798D02*
X0362575Y0145798D01*
X0362575Y0142800D02*
X0013644Y0142800D01*
X0013644Y0145798D02*
X0039184Y0145798D01*
X0037809Y0148797D02*
X0013644Y0148797D01*
X0013644Y0151795D02*
X0039044Y0151795D01*
X0046756Y0151795D02*
X0362575Y0151795D01*
X0362575Y0148797D02*
X0047991Y0148797D01*
X0057432Y0158550D02*
X0056809Y0160053D01*
X0056809Y0161680D01*
X0057432Y0163184D01*
X0058583Y0164334D01*
X0060086Y0164957D01*
X0061714Y0164957D01*
X0061900Y0164880D01*
X0062086Y0164957D01*
X0063714Y0164957D01*
X0065217Y0164334D01*
X0066368Y0163184D01*
X0066991Y0161680D01*
X0066991Y0160053D01*
X0066368Y0158550D01*
X0065217Y0157399D01*
X0063714Y0156776D01*
X0062086Y0156776D01*
X0061900Y0156853D01*
X0061714Y0156776D01*
X0060086Y0156776D01*
X0058583Y0157399D01*
X0057432Y0158550D01*
X0058190Y0157792D02*
X0022610Y0157792D01*
X0022217Y0157399D02*
X0023368Y0158550D01*
X0023991Y0160053D01*
X0023991Y0161680D01*
X0023368Y0163184D01*
X0022217Y0164334D01*
X0020714Y0164957D01*
X0019086Y0164957D01*
X0018900Y0164880D01*
X0018714Y0164957D01*
X0017086Y0164957D01*
X0015583Y0164334D01*
X0014432Y0163184D01*
X0013809Y0161680D01*
X0013809Y0160053D01*
X0014432Y0158550D01*
X0015583Y0157399D01*
X0017086Y0156776D01*
X0018714Y0156776D01*
X0018900Y0156853D01*
X0019086Y0156776D01*
X0020714Y0156776D01*
X0022217Y0157399D01*
X0023991Y0160791D02*
X0056809Y0160791D01*
X0058038Y0163789D02*
X0022762Y0163789D01*
X0015038Y0163789D02*
X0013644Y0163789D01*
X0013644Y0160791D02*
X0013809Y0160791D01*
X0013644Y0157792D02*
X0015190Y0157792D01*
X0013644Y0154794D02*
X0362575Y0154794D01*
X0362575Y0157792D02*
X0359753Y0157792D01*
X0358047Y0157792D02*
X0334753Y0157792D01*
X0334714Y0157776D02*
X0336217Y0158399D01*
X0337368Y0159550D01*
X0337991Y0161053D01*
X0337991Y0162680D01*
X0337368Y0164184D01*
X0336217Y0165334D01*
X0334714Y0165957D01*
X0333086Y0165957D01*
X0331583Y0165334D01*
X0330432Y0164184D01*
X0329809Y0162680D01*
X0329809Y0161053D01*
X0330432Y0159550D01*
X0331583Y0158399D01*
X0333086Y0157776D01*
X0334714Y0157776D01*
X0333047Y0157792D02*
X0320753Y0157792D01*
X0320714Y0157776D02*
X0322217Y0158399D01*
X0323368Y0159550D01*
X0323991Y0161053D01*
X0323991Y0162680D01*
X0323368Y0164184D01*
X0322217Y0165334D01*
X0321151Y0165776D01*
X0321714Y0165776D01*
X0323217Y0166399D01*
X0324368Y0167550D01*
X0324991Y0169053D01*
X0324991Y0170680D01*
X0324368Y0172184D01*
X0323217Y0173334D01*
X0321714Y0173957D01*
X0320086Y0173957D01*
X0319900Y0173880D01*
X0319714Y0173957D01*
X0318086Y0173957D01*
X0316583Y0173334D01*
X0315432Y0172184D01*
X0314809Y0170680D01*
X0314809Y0169053D01*
X0315432Y0167550D01*
X0316583Y0166399D01*
X0318086Y0165776D01*
X0318649Y0165776D01*
X0317583Y0165334D01*
X0316432Y0164184D01*
X0315809Y0162680D01*
X0315809Y0161053D01*
X0316432Y0159550D01*
X0317583Y0158399D01*
X0319086Y0157776D01*
X0320714Y0157776D01*
X0319047Y0157792D02*
X0297753Y0157792D01*
X0297714Y0157776D02*
X0299217Y0158399D01*
X0300368Y0159550D01*
X0300991Y0161053D01*
X0300991Y0162680D01*
X0300368Y0164184D01*
X0299217Y0165334D01*
X0297714Y0165957D01*
X0296086Y0165957D01*
X0295900Y0165880D01*
X0295714Y0165957D01*
X0294086Y0165957D01*
X0292583Y0165334D01*
X0291432Y0164184D01*
X0290809Y0162680D01*
X0290809Y0161053D01*
X0291432Y0159550D01*
X0292583Y0158399D01*
X0294086Y0157776D01*
X0295714Y0157776D01*
X0295900Y0157853D01*
X0296086Y0157776D01*
X0297714Y0157776D01*
X0296047Y0157792D02*
X0295753Y0157792D01*
X0294047Y0157792D02*
X0281753Y0157792D01*
X0281714Y0157776D02*
X0283217Y0158399D01*
X0284368Y0159550D01*
X0284991Y0161053D01*
X0284991Y0162680D01*
X0284368Y0164184D01*
X0283217Y0165334D01*
X0282151Y0165776D01*
X0282714Y0165776D01*
X0284217Y0166399D01*
X0285368Y0167550D01*
X0285991Y0169053D01*
X0285991Y0170680D01*
X0285368Y0172184D01*
X0284217Y0173334D01*
X0282714Y0173957D01*
X0281086Y0173957D01*
X0280900Y0173880D01*
X0280714Y0173957D01*
X0279086Y0173957D01*
X0277583Y0173334D01*
X0276432Y0172184D01*
X0275809Y0170680D01*
X0275809Y0169053D01*
X0276432Y0167550D01*
X0277583Y0166399D01*
X0279086Y0165776D01*
X0279649Y0165776D01*
X0278583Y0165334D01*
X0277432Y0164184D01*
X0276809Y0162680D01*
X0276809Y0161053D01*
X0277432Y0159550D01*
X0278583Y0158399D01*
X0280086Y0157776D01*
X0281714Y0157776D01*
X0280047Y0157792D02*
X0256753Y0157792D01*
X0256714Y0157776D02*
X0258217Y0158399D01*
X0259368Y0159550D01*
X0259991Y0161053D01*
X0259991Y0162680D01*
X0259368Y0164184D01*
X0258217Y0165334D01*
X0256714Y0165957D01*
X0255086Y0165957D01*
X0253583Y0165334D01*
X0252432Y0164184D01*
X0251809Y0162680D01*
X0251809Y0161053D01*
X0252432Y0159550D01*
X0253583Y0158399D01*
X0255086Y0157776D01*
X0256714Y0157776D01*
X0255047Y0157792D02*
X0242753Y0157792D01*
X0242714Y0157776D02*
X0244217Y0158399D01*
X0245368Y0159550D01*
X0245991Y0161053D01*
X0245991Y0162680D01*
X0245368Y0164184D01*
X0244217Y0165334D01*
X0243151Y0165776D01*
X0243714Y0165776D01*
X0245217Y0166399D01*
X0246368Y0167550D01*
X0246991Y0169053D01*
X0246991Y0170680D01*
X0246368Y0172184D01*
X0245217Y0173334D01*
X0243714Y0173957D01*
X0242086Y0173957D01*
X0241900Y0173880D01*
X0241714Y0173957D01*
X0240086Y0173957D01*
X0238583Y0173334D01*
X0237432Y0172184D01*
X0236809Y0170680D01*
X0236809Y0169053D01*
X0237432Y0167550D01*
X0238583Y0166399D01*
X0240086Y0165776D01*
X0240649Y0165776D01*
X0239583Y0165334D01*
X0238432Y0164184D01*
X0237809Y0162680D01*
X0237809Y0161053D01*
X0238432Y0159550D01*
X0239583Y0158399D01*
X0241086Y0157776D01*
X0242714Y0157776D01*
X0241047Y0157792D02*
X0219753Y0157792D01*
X0219714Y0157776D02*
X0221217Y0158399D01*
X0222368Y0159550D01*
X0222991Y0161053D01*
X0222991Y0162680D01*
X0222368Y0164184D01*
X0221217Y0165334D01*
X0219714Y0165957D01*
X0218086Y0165957D01*
X0217900Y0165880D01*
X0217714Y0165957D01*
X0216086Y0165957D01*
X0214583Y0165334D01*
X0213432Y0164184D01*
X0212809Y0162680D01*
X0212809Y0161053D01*
X0213432Y0159550D01*
X0214583Y0158399D01*
X0216086Y0157776D01*
X0217714Y0157776D01*
X0217900Y0157853D01*
X0218086Y0157776D01*
X0219714Y0157776D01*
X0218047Y0157792D02*
X0217753Y0157792D01*
X0216047Y0157792D02*
X0205753Y0157792D01*
X0205714Y0157776D02*
X0207217Y0158399D01*
X0208368Y0159550D01*
X0208991Y0161053D01*
X0208991Y0162680D01*
X0208368Y0164184D01*
X0207217Y0165334D01*
X0206818Y0165500D01*
X0207368Y0166050D01*
X0207470Y0166297D01*
X0207717Y0166399D01*
X0208868Y0167550D01*
X0209491Y0169053D01*
X0209491Y0170680D01*
X0208868Y0172184D01*
X0207717Y0173334D01*
X0206214Y0173957D01*
X0204586Y0173957D01*
X0203083Y0173334D01*
X0201932Y0172184D01*
X0201830Y0171937D01*
X0201583Y0171834D01*
X0200432Y0170684D01*
X0199809Y0169180D01*
X0199809Y0167553D01*
X0200432Y0166050D01*
X0201583Y0164899D01*
X0201982Y0164734D01*
X0201432Y0164184D01*
X0200809Y0162680D01*
X0200809Y0161053D01*
X0201432Y0159550D01*
X0202583Y0158399D01*
X0204086Y0157776D01*
X0205714Y0157776D01*
X0204047Y0157792D02*
X0181253Y0157792D01*
X0181214Y0157776D02*
X0182717Y0158399D01*
X0183868Y0159550D01*
X0184491Y0161053D01*
X0184491Y0162680D01*
X0183868Y0164184D01*
X0182717Y0165334D01*
X0181214Y0165957D01*
X0179586Y0165957D01*
X0178083Y0165334D01*
X0176932Y0164184D01*
X0176309Y0162680D01*
X0176309Y0161053D01*
X0176932Y0159550D01*
X0178083Y0158399D01*
X0179586Y0157776D01*
X0181214Y0157776D01*
X0179547Y0157792D02*
X0168753Y0157792D01*
X0168714Y0157776D02*
X0170217Y0158399D01*
X0171368Y0159550D01*
X0171991Y0161053D01*
X0171991Y0162680D01*
X0171368Y0164184D01*
X0170217Y0165334D01*
X0169536Y0165617D01*
X0170217Y0165899D01*
X0171368Y0167050D01*
X0171470Y0167297D01*
X0171717Y0167399D01*
X0172868Y0168550D01*
X0173491Y0170053D01*
X0173491Y0171680D01*
X0172868Y0173184D01*
X0171717Y0174334D01*
X0170214Y0174957D01*
X0168586Y0174957D01*
X0167083Y0174334D01*
X0165932Y0173184D01*
X0165830Y0172937D01*
X0165583Y0172834D01*
X0164432Y0171684D01*
X0163809Y0170180D01*
X0163809Y0168553D01*
X0164432Y0167050D01*
X0165583Y0165899D01*
X0166264Y0165617D01*
X0165583Y0165334D01*
X0164432Y0164184D01*
X0163809Y0162680D01*
X0163809Y0161053D01*
X0164432Y0159550D01*
X0165583Y0158399D01*
X0167086Y0157776D01*
X0168714Y0157776D01*
X0167047Y0157792D02*
X0145753Y0157792D01*
X0145714Y0157776D02*
X0147217Y0158399D01*
X0148368Y0159550D01*
X0148991Y0161053D01*
X0148991Y0162680D01*
X0148368Y0164184D01*
X0147217Y0165334D01*
X0145714Y0165957D01*
X0144086Y0165957D01*
X0143900Y0165880D01*
X0143714Y0165957D01*
X0142086Y0165957D01*
X0140583Y0165334D01*
X0139432Y0164184D01*
X0138809Y0162680D01*
X0138809Y0161053D01*
X0139432Y0159550D01*
X0140583Y0158399D01*
X0142086Y0157776D01*
X0143714Y0157776D01*
X0143900Y0157853D01*
X0144086Y0157776D01*
X0145714Y0157776D01*
X0144047Y0157792D02*
X0143753Y0157792D01*
X0142047Y0157792D02*
X0102610Y0157792D01*
X0102217Y0157399D02*
X0103368Y0158550D01*
X0103991Y0160053D01*
X0103991Y0161680D01*
X0103368Y0163184D01*
X0102217Y0164334D01*
X0100714Y0164957D01*
X0099086Y0164957D01*
X0098900Y0164880D01*
X0098714Y0164957D01*
X0097086Y0164957D01*
X0095583Y0164334D01*
X0094432Y0163184D01*
X0093809Y0161680D01*
X0093809Y0160053D01*
X0094432Y0158550D01*
X0095583Y0157399D01*
X0097086Y0156776D01*
X0098714Y0156776D01*
X0098900Y0156853D01*
X0099086Y0156776D01*
X0100714Y0156776D01*
X0102217Y0157399D01*
X0103991Y0160791D02*
X0120191Y0160791D01*
X0120583Y0160399D02*
X0122086Y0159776D01*
X0123714Y0159776D01*
X0125217Y0160399D01*
X0126368Y0161550D01*
X0126991Y0163053D01*
X0126991Y0164680D01*
X0126368Y0166184D01*
X0126185Y0166367D01*
X0126868Y0167050D01*
X0127491Y0168553D01*
X0127491Y0170180D01*
X0126868Y0171684D01*
X0125717Y0172834D01*
X0124214Y0173457D01*
X0122586Y0173457D01*
X0122400Y0173380D01*
X0122214Y0173457D01*
X0120586Y0173457D01*
X0119083Y0172834D01*
X0117932Y0171684D01*
X0117309Y0170180D01*
X0117309Y0168553D01*
X0117932Y0167050D01*
X0119083Y0165899D01*
X0119280Y0165817D01*
X0118809Y0164680D01*
X0118809Y0163053D01*
X0119432Y0161550D01*
X0120583Y0160399D01*
X0118809Y0163789D02*
X0102762Y0163789D01*
X0100714Y0170276D02*
X0099086Y0170276D01*
X0097583Y0170899D01*
X0096432Y0172050D01*
X0095809Y0173553D01*
X0095809Y0175180D01*
X0096432Y0176684D01*
X0096689Y0176941D01*
X0095583Y0177399D01*
X0094432Y0178550D01*
X0093809Y0180053D01*
X0093809Y0181680D01*
X0094432Y0183184D01*
X0095583Y0184334D01*
X0097086Y0184957D01*
X0098714Y0184957D01*
X0098900Y0184880D01*
X0099086Y0184957D01*
X0100714Y0184957D01*
X0102217Y0184334D01*
X0103368Y0183184D01*
X0103991Y0181680D01*
X0103991Y0180053D01*
X0103368Y0178550D01*
X0102435Y0177617D01*
X0103368Y0176684D01*
X0103991Y0175180D01*
X0103991Y0173553D01*
X0103368Y0172050D01*
X0102217Y0170899D01*
X0100714Y0170276D01*
X0103672Y0172785D02*
X0119033Y0172785D01*
X0117309Y0169786D02*
X0091491Y0169786D01*
X0091491Y0170180D02*
X0090868Y0171684D01*
X0089717Y0172834D01*
X0088214Y0173457D01*
X0086586Y0173457D01*
X0085083Y0172834D01*
X0083932Y0171684D01*
X0083309Y0170180D01*
X0083309Y0168553D01*
X0083387Y0168367D01*
X0083309Y0168180D01*
X0083309Y0166553D01*
X0083746Y0165498D01*
X0083432Y0165184D01*
X0082809Y0163680D01*
X0082809Y0162053D01*
X0083432Y0160550D01*
X0084583Y0159399D01*
X0086086Y0158776D01*
X0087714Y0158776D01*
X0089217Y0159399D01*
X0090368Y0160550D01*
X0090991Y0162053D01*
X0090991Y0163680D01*
X0090554Y0164735D01*
X0090868Y0165050D01*
X0091491Y0166553D01*
X0091491Y0168180D01*
X0091413Y0168367D01*
X0091491Y0168553D01*
X0091491Y0170180D01*
X0089767Y0172785D02*
X0096128Y0172785D01*
X0096059Y0175783D02*
X0067741Y0175783D01*
X0067991Y0175180D02*
X0067368Y0176684D01*
X0066217Y0177834D01*
X0066139Y0177867D01*
X0066217Y0177899D01*
X0067368Y0179050D01*
X0067991Y0180553D01*
X0067991Y0182180D01*
X0067368Y0183684D01*
X0066217Y0184834D01*
X0064714Y0185457D01*
X0063086Y0185457D01*
X0062900Y0185380D01*
X0062714Y0185457D01*
X0061086Y0185457D01*
X0059583Y0184834D01*
X0058432Y0183684D01*
X0057809Y0182180D01*
X0057809Y0180553D01*
X0058432Y0179050D01*
X0059583Y0177899D01*
X0059661Y0177867D01*
X0059583Y0177834D01*
X0058432Y0176684D01*
X0057809Y0175180D01*
X0057809Y0173553D01*
X0058432Y0172050D01*
X0059583Y0170899D01*
X0061086Y0170276D01*
X0062714Y0170276D01*
X0062900Y0170353D01*
X0063086Y0170276D01*
X0064714Y0170276D01*
X0066217Y0170899D01*
X0067368Y0172050D01*
X0067991Y0173553D01*
X0067991Y0175180D01*
X0067672Y0172785D02*
X0085033Y0172785D01*
X0083309Y0169786D02*
X0013644Y0169786D01*
X0013644Y0166788D02*
X0083309Y0166788D01*
X0082855Y0163789D02*
X0065762Y0163789D01*
X0066991Y0160791D02*
X0083332Y0160791D01*
X0090468Y0160791D02*
X0093809Y0160791D01*
X0095038Y0163789D02*
X0090945Y0163789D01*
X0091491Y0166788D02*
X0118194Y0166788D01*
X0125609Y0160791D02*
X0138918Y0160791D01*
X0139269Y0163789D02*
X0126991Y0163789D01*
X0126606Y0166788D02*
X0164694Y0166788D01*
X0164269Y0163789D02*
X0148531Y0163789D01*
X0148882Y0160791D02*
X0163918Y0160791D01*
X0171882Y0160791D02*
X0176418Y0160791D01*
X0176769Y0163789D02*
X0171531Y0163789D01*
X0171106Y0166788D02*
X0200126Y0166788D01*
X0200060Y0169786D02*
X0173380Y0169786D01*
X0173033Y0172785D02*
X0202533Y0172785D01*
X0208267Y0172785D02*
X0238033Y0172785D01*
X0236809Y0169786D02*
X0209491Y0169786D01*
X0208106Y0166788D02*
X0238194Y0166788D01*
X0238269Y0163789D02*
X0222531Y0163789D01*
X0222882Y0160791D02*
X0237918Y0160791D01*
X0245882Y0160791D02*
X0251918Y0160791D01*
X0252269Y0163789D02*
X0245531Y0163789D01*
X0245606Y0166788D02*
X0277194Y0166788D01*
X0277269Y0163789D02*
X0259531Y0163789D01*
X0259882Y0160791D02*
X0276918Y0160791D01*
X0284882Y0160791D02*
X0290918Y0160791D01*
X0291269Y0163789D02*
X0284531Y0163789D01*
X0284606Y0166788D02*
X0316194Y0166788D01*
X0316269Y0163789D02*
X0300531Y0163789D01*
X0300882Y0160791D02*
X0315918Y0160791D01*
X0323882Y0160791D02*
X0329918Y0160791D01*
X0330269Y0163789D02*
X0323531Y0163789D01*
X0323606Y0166788D02*
X0356194Y0166788D01*
X0355269Y0163789D02*
X0337531Y0163789D01*
X0337882Y0160791D02*
X0354918Y0160791D01*
X0354809Y0169786D02*
X0324991Y0169786D01*
X0323767Y0172785D02*
X0356033Y0172785D01*
X0362575Y0175783D02*
X0103741Y0175783D01*
X0103464Y0178782D02*
X0142365Y0178782D01*
X0142083Y0178899D02*
X0143586Y0178276D01*
X0145214Y0178276D01*
X0145400Y0178353D01*
X0145586Y0178276D01*
X0147214Y0178276D01*
X0148717Y0178899D01*
X0149868Y0180050D01*
X0150491Y0181553D01*
X0150491Y0183180D01*
X0149868Y0184684D01*
X0148717Y0185834D01*
X0147214Y0186457D01*
X0145586Y0186457D01*
X0145400Y0186380D01*
X0145214Y0186457D01*
X0143586Y0186457D01*
X0142083Y0185834D01*
X0140932Y0184684D01*
X0140309Y0183180D01*
X0140309Y0181553D01*
X0140932Y0180050D01*
X0142083Y0178899D01*
X0140309Y0181780D02*
X0103949Y0181780D01*
X0101144Y0184779D02*
X0141027Y0184779D01*
X0148435Y0178782D02*
X0178865Y0178782D01*
X0178583Y0178899D02*
X0180086Y0178276D01*
X0181714Y0178276D01*
X0181900Y0178353D01*
X0182086Y0178276D01*
X0183714Y0178276D01*
X0185217Y0178899D01*
X0186368Y0180050D01*
X0186991Y0181553D01*
X0186991Y0183180D01*
X0186368Y0184684D01*
X0185217Y0185834D01*
X0183714Y0186457D01*
X0182086Y0186457D01*
X0181900Y0186380D01*
X0181714Y0186457D01*
X0180086Y0186457D01*
X0178583Y0185834D01*
X0177432Y0184684D01*
X0176809Y0183180D01*
X0176809Y0181553D01*
X0177432Y0180050D01*
X0178583Y0178899D01*
X0176809Y0181780D02*
X0150491Y0181780D01*
X0149773Y0184779D02*
X0177527Y0184779D01*
X0186273Y0184779D02*
X0214527Y0184779D01*
X0215083Y0185334D02*
X0213932Y0184184D01*
X0213309Y0182680D01*
X0213309Y0181053D01*
X0213932Y0179550D01*
X0215083Y0178399D01*
X0216586Y0177776D01*
X0218214Y0177776D01*
X0218400Y0177853D01*
X0218586Y0177776D01*
X0220214Y0177776D01*
X0221717Y0178399D01*
X0222868Y0179550D01*
X0223491Y0181053D01*
X0223491Y0182680D01*
X0222868Y0184184D01*
X0221717Y0185334D01*
X0220214Y0185957D01*
X0218586Y0185957D01*
X0218400Y0185880D01*
X0218214Y0185957D01*
X0216586Y0185957D01*
X0215083Y0185334D01*
X0213309Y0181780D02*
X0186991Y0181780D01*
X0184935Y0178782D02*
X0214700Y0178782D01*
X0222100Y0178782D02*
X0254365Y0178782D01*
X0254083Y0178899D02*
X0255586Y0178276D01*
X0257214Y0178276D01*
X0257400Y0178353D01*
X0257586Y0178276D01*
X0259214Y0178276D01*
X0260717Y0178899D01*
X0261868Y0180050D01*
X0262491Y0181553D01*
X0262491Y0183180D01*
X0261868Y0184684D01*
X0260717Y0185834D01*
X0259214Y0186457D01*
X0257586Y0186457D01*
X0257400Y0186380D01*
X0257214Y0186457D01*
X0255586Y0186457D01*
X0254083Y0185834D01*
X0252932Y0184684D01*
X0252309Y0183180D01*
X0252309Y0181553D01*
X0252932Y0180050D01*
X0254083Y0178899D01*
X0252309Y0181780D02*
X0223491Y0181780D01*
X0222273Y0184779D02*
X0253027Y0184779D01*
X0261773Y0184779D02*
X0291527Y0184779D01*
X0291432Y0184684D02*
X0290809Y0183180D01*
X0290809Y0181553D01*
X0291432Y0180050D01*
X0292583Y0178899D01*
X0294086Y0178276D01*
X0295714Y0178276D01*
X0295900Y0178353D01*
X0296086Y0178276D01*
X0297714Y0178276D01*
X0299217Y0178899D01*
X0300368Y0180050D01*
X0300991Y0181553D01*
X0300991Y0183180D01*
X0300368Y0184684D01*
X0299217Y0185834D01*
X0297714Y0186457D01*
X0296086Y0186457D01*
X0295900Y0186380D01*
X0295714Y0186457D01*
X0294086Y0186457D01*
X0292583Y0185834D01*
X0291432Y0184684D01*
X0290809Y0181780D02*
X0262491Y0181780D01*
X0260435Y0178782D02*
X0292865Y0178782D01*
X0298935Y0178782D02*
X0332200Y0178782D01*
X0332583Y0178399D02*
X0334086Y0177776D01*
X0335714Y0177776D01*
X0335900Y0177853D01*
X0336086Y0177776D01*
X0337714Y0177776D01*
X0339217Y0178399D01*
X0340368Y0179550D01*
X0340991Y0181053D01*
X0340991Y0182680D01*
X0340368Y0184184D01*
X0339217Y0185334D01*
X0337714Y0185957D01*
X0336086Y0185957D01*
X0335900Y0185880D01*
X0335714Y0185957D01*
X0334086Y0185957D01*
X0332583Y0185334D01*
X0331432Y0184184D01*
X0330809Y0182680D01*
X0330809Y0181053D01*
X0331432Y0179550D01*
X0332583Y0178399D01*
X0330809Y0181780D02*
X0300991Y0181780D01*
X0300273Y0184779D02*
X0332027Y0184779D01*
X0339773Y0184779D02*
X0362575Y0184779D01*
X0362575Y0187777D02*
X0036774Y0187777D01*
X0036217Y0188334D02*
X0034714Y0188957D01*
X0033086Y0188957D01*
X0032900Y0188880D01*
X0032714Y0188957D01*
X0031086Y0188957D01*
X0029583Y0188334D01*
X0028432Y0187184D01*
X0027809Y0185680D01*
X0027809Y0184053D01*
X0028432Y0182550D01*
X0029583Y0181399D01*
X0031086Y0180776D01*
X0032714Y0180776D01*
X0032900Y0180853D01*
X0033086Y0180776D01*
X0034714Y0180776D01*
X0036217Y0181399D01*
X0037368Y0182550D01*
X0037991Y0184053D01*
X0037991Y0185680D01*
X0037368Y0187184D01*
X0036217Y0188334D01*
X0037991Y0184779D02*
X0059527Y0184779D01*
X0057809Y0181780D02*
X0036599Y0181780D01*
X0029201Y0181780D02*
X0013644Y0181780D01*
X0013644Y0178782D02*
X0058700Y0178782D01*
X0058059Y0175783D02*
X0013644Y0175783D01*
X0013644Y0172785D02*
X0058128Y0172785D01*
X0067100Y0178782D02*
X0094336Y0178782D01*
X0093851Y0181780D02*
X0067991Y0181780D01*
X0066273Y0184779D02*
X0096656Y0184779D01*
X0111583Y0203399D02*
X0110432Y0204550D01*
X0109809Y0206053D01*
X0109809Y0207680D01*
X0110432Y0209184D01*
X0111583Y0210334D01*
X0113086Y0210957D01*
X0114714Y0210957D01*
X0114900Y0210880D01*
X0115086Y0210957D01*
X0116714Y0210957D01*
X0118217Y0210334D01*
X0119368Y0209184D01*
X0119991Y0207680D01*
X0119991Y0206053D01*
X0119368Y0204550D01*
X0118217Y0203399D01*
X0116714Y0202776D01*
X0115086Y0202776D01*
X0114900Y0202853D01*
X0114714Y0202776D01*
X0113086Y0202776D01*
X0111583Y0203399D01*
X0109927Y0205768D02*
X0083666Y0205768D01*
X0083368Y0205050D02*
X0083991Y0206553D01*
X0083991Y0208180D01*
X0083368Y0209684D01*
X0082217Y0210834D01*
X0080714Y0211457D01*
X0079086Y0211457D01*
X0078900Y0211380D01*
X0078714Y0211457D01*
X0077086Y0211457D01*
X0075583Y0210834D01*
X0074432Y0209684D01*
X0073809Y0208180D01*
X0073809Y0206553D01*
X0074432Y0205050D01*
X0075583Y0203899D01*
X0077086Y0203276D01*
X0078714Y0203276D01*
X0078900Y0203353D01*
X0079086Y0203276D01*
X0080714Y0203276D01*
X0082217Y0203899D01*
X0083368Y0205050D01*
X0083748Y0208767D02*
X0110260Y0208767D01*
X0119540Y0208767D02*
X0189809Y0208767D01*
X0189700Y0208503D02*
X0189700Y0207230D01*
X0190187Y0206054D01*
X0191087Y0205154D01*
X0192263Y0204667D01*
X0193969Y0204667D01*
X0194432Y0203550D01*
X0195583Y0202399D01*
X0197086Y0201776D01*
X0198714Y0201776D01*
X0200217Y0202399D01*
X0201368Y0203550D01*
X0201991Y0205053D01*
X0201991Y0206680D01*
X0201913Y0206867D01*
X0201991Y0207053D01*
X0201991Y0208680D01*
X0201368Y0210184D01*
X0200217Y0211334D01*
X0198714Y0211957D01*
X0197086Y0211957D01*
X0195583Y0211334D01*
X0195315Y0211067D01*
X0192263Y0211067D01*
X0191087Y0210579D01*
X0190187Y0209679D01*
X0189700Y0208503D01*
X0190473Y0205768D02*
X0119873Y0205768D01*
X0133432Y0212050D02*
X0134583Y0210899D01*
X0136086Y0210276D01*
X0137714Y0210276D01*
X0137900Y0210353D01*
X0138086Y0210276D01*
X0139714Y0210276D01*
X0141217Y0210899D01*
X0142368Y0212050D01*
X0142991Y0213553D01*
X0142991Y0215180D01*
X0142368Y0216684D01*
X0141217Y0217834D01*
X0139714Y0218457D01*
X0138086Y0218457D01*
X0137900Y0218380D01*
X0137714Y0218457D01*
X0136086Y0218457D01*
X0134583Y0217834D01*
X0133432Y0216684D01*
X0132809Y0215180D01*
X0132809Y0213553D01*
X0133432Y0212050D01*
X0133716Y0211765D02*
X0049991Y0211765D01*
X0049991Y0211053D02*
X0049991Y0212680D01*
X0049368Y0214184D01*
X0048217Y0215334D01*
X0046714Y0215957D01*
X0045086Y0215957D01*
X0044900Y0215880D01*
X0044714Y0215957D01*
X0043086Y0215957D01*
X0041583Y0215334D01*
X0040432Y0214184D01*
X0040338Y0213957D01*
X0039086Y0213957D01*
X0038900Y0213880D01*
X0038714Y0213957D01*
X0037086Y0213957D01*
X0035583Y0213334D01*
X0034432Y0212184D01*
X0033809Y0210680D01*
X0033809Y0209053D01*
X0034432Y0207550D01*
X0035583Y0206399D01*
X0037086Y0205776D01*
X0038714Y0205776D01*
X0038900Y0205853D01*
X0039086Y0205776D01*
X0040714Y0205776D01*
X0041900Y0206268D01*
X0043086Y0205776D01*
X0044714Y0205776D01*
X0044900Y0205853D01*
X0045086Y0205776D01*
X0046714Y0205776D01*
X0048217Y0206399D01*
X0049368Y0207550D01*
X0049991Y0209053D01*
X0049991Y0210680D01*
X0049913Y0210867D01*
X0049991Y0211053D01*
X0049872Y0208767D02*
X0074052Y0208767D01*
X0074134Y0205768D02*
X0014169Y0205768D01*
X0013644Y0208767D02*
X0033928Y0208767D01*
X0034259Y0211765D02*
X0013644Y0211765D01*
X0013644Y0214764D02*
X0041012Y0214764D01*
X0048788Y0214764D02*
X0132809Y0214764D01*
X0134511Y0217762D02*
X0013644Y0217762D01*
X0013644Y0220761D02*
X0362575Y0220761D01*
X0362575Y0223759D02*
X0013644Y0223759D01*
X0013644Y0226758D02*
X0362575Y0226758D01*
X0362575Y0229756D02*
X0108575Y0229756D01*
X0108217Y0229399D02*
X0109368Y0230550D01*
X0109991Y0232053D01*
X0109991Y0233680D01*
X0109913Y0233867D01*
X0109991Y0234053D01*
X0109991Y0235680D01*
X0109913Y0235867D01*
X0109991Y0236053D01*
X0109991Y0237680D01*
X0109368Y0239184D01*
X0108217Y0240334D01*
X0106714Y0240957D01*
X0105086Y0240957D01*
X0103583Y0240334D01*
X0102432Y0239184D01*
X0101809Y0237680D01*
X0101809Y0236053D01*
X0101887Y0235867D01*
X0101809Y0235680D01*
X0101809Y0234053D01*
X0101887Y0233867D01*
X0101809Y0233680D01*
X0101809Y0232053D01*
X0102432Y0230550D01*
X0103583Y0229399D01*
X0105086Y0228776D01*
X0106714Y0228776D01*
X0108217Y0229399D01*
X0109991Y0232755D02*
X0111933Y0232755D01*
X0111809Y0233053D02*
X0112432Y0231550D01*
X0113583Y0230399D01*
X0115086Y0229776D01*
X0116714Y0229776D01*
X0118217Y0230399D01*
X0118594Y0230776D01*
X0118714Y0230776D01*
X0120217Y0231399D01*
X0121368Y0232550D01*
X0121991Y0234053D01*
X0121991Y0235680D01*
X0121368Y0237184D01*
X0120217Y0238334D01*
X0118714Y0238957D01*
X0117086Y0238957D01*
X0115583Y0238334D01*
X0115206Y0237957D01*
X0115086Y0237957D01*
X0113583Y0237334D01*
X0112432Y0236184D01*
X0111809Y0234680D01*
X0111809Y0233053D01*
X0112254Y0235754D02*
X0109960Y0235754D01*
X0109547Y0238752D02*
X0116591Y0238752D01*
X0119209Y0238752D02*
X0362575Y0238752D01*
X0362575Y0235754D02*
X0121960Y0235754D01*
X0121453Y0232755D02*
X0362575Y0232755D01*
X0362575Y0241751D02*
X0069213Y0241751D01*
X0068714Y0241957D02*
X0070217Y0241334D01*
X0071368Y0240184D01*
X0071991Y0238680D01*
X0071991Y0237053D01*
X0071913Y0236867D01*
X0071991Y0236680D01*
X0071991Y0235053D01*
X0071913Y0234867D01*
X0071991Y0234680D01*
X0071991Y0233053D01*
X0071368Y0231550D01*
X0070217Y0230399D01*
X0068714Y0229776D01*
X0067086Y0229776D01*
X0065583Y0230399D01*
X0064432Y0231550D01*
X0063809Y0233053D01*
X0063809Y0234680D01*
X0063887Y0234867D01*
X0063809Y0235053D01*
X0063809Y0236680D01*
X0063887Y0236867D01*
X0063809Y0237053D01*
X0063809Y0238680D01*
X0064432Y0240184D01*
X0065583Y0241334D01*
X0067086Y0241957D01*
X0068714Y0241957D01*
X0066587Y0241751D02*
X0013644Y0241751D01*
X0013644Y0244749D02*
X0362575Y0244749D01*
X0362575Y0247748D02*
X0013644Y0247748D01*
X0013644Y0250746D02*
X0362575Y0250746D01*
X0362575Y0253745D02*
X0013644Y0253745D01*
X0013644Y0256743D02*
X0362575Y0256743D01*
X0362575Y0259742D02*
X0013644Y0259742D01*
X0013644Y0262740D02*
X0362575Y0262740D01*
X0362575Y0265739D02*
X0013644Y0265739D01*
X0013644Y0268737D02*
X0362575Y0268737D01*
X0362575Y0271736D02*
X0013644Y0271736D01*
X0013644Y0274734D02*
X0362575Y0274734D01*
X0362575Y0277733D02*
X0186551Y0277733D01*
X0186217Y0277399D02*
X0187368Y0278550D01*
X0187991Y0280053D01*
X0187991Y0281680D01*
X0187913Y0281867D01*
X0187991Y0282053D01*
X0187991Y0283680D01*
X0187368Y0285184D01*
X0186217Y0286334D01*
X0184714Y0286957D01*
X0183086Y0286957D01*
X0181583Y0286334D01*
X0180432Y0285184D01*
X0179809Y0283680D01*
X0179809Y0282053D01*
X0179887Y0281867D01*
X0179809Y0281680D01*
X0179809Y0280053D01*
X0180432Y0278550D01*
X0181583Y0277399D01*
X0183086Y0276776D01*
X0184714Y0276776D01*
X0186217Y0277399D01*
X0187991Y0280731D02*
X0362575Y0280731D01*
X0362575Y0283730D02*
X0187970Y0283730D01*
X0185266Y0286728D02*
X0362575Y0286728D01*
X0362575Y0289727D02*
X0172688Y0289727D01*
X0172791Y0289480D02*
X0172168Y0290984D01*
X0171017Y0292134D01*
X0169514Y0292757D01*
X0167886Y0292757D01*
X0166383Y0292134D01*
X0165232Y0290984D01*
X0164609Y0289480D01*
X0164609Y0287853D01*
X0165232Y0286350D01*
X0166383Y0285199D01*
X0167886Y0284576D01*
X0169514Y0284576D01*
X0171017Y0285199D01*
X0172168Y0286350D01*
X0172791Y0287853D01*
X0172791Y0289480D01*
X0172325Y0286728D02*
X0182534Y0286728D01*
X0179830Y0283730D02*
X0152748Y0283730D01*
X0152968Y0283950D02*
X0153591Y0285453D01*
X0153591Y0287080D01*
X0152968Y0288584D01*
X0151817Y0289734D01*
X0150314Y0290357D01*
X0148686Y0290357D01*
X0147183Y0289734D01*
X0146032Y0288584D01*
X0145409Y0287080D01*
X0145409Y0285453D01*
X0146032Y0283950D01*
X0147183Y0282799D01*
X0148686Y0282176D01*
X0150314Y0282176D01*
X0151817Y0282799D01*
X0152968Y0283950D01*
X0153591Y0286728D02*
X0165075Y0286728D01*
X0164712Y0289727D02*
X0151825Y0289727D01*
X0147175Y0289727D02*
X0013644Y0289727D01*
X0013644Y0292725D02*
X0167809Y0292725D01*
X0169591Y0292725D02*
X0362575Y0292725D01*
X0362575Y0295724D02*
X0347873Y0295724D01*
X0347793Y0295530D02*
X0348743Y0297825D01*
X0348743Y0300309D01*
X0347793Y0302603D01*
X0346037Y0304359D01*
X0343742Y0305310D01*
X0341258Y0305310D01*
X0338963Y0304359D01*
X0337207Y0302603D01*
X0336257Y0300309D01*
X0336257Y0297825D01*
X0337207Y0295530D01*
X0338963Y0293774D01*
X0341258Y0292823D01*
X0343742Y0292823D01*
X0346037Y0293774D01*
X0347793Y0295530D01*
X0348743Y0298722D02*
X0362575Y0298722D01*
X0362575Y0301721D02*
X0348158Y0301721D01*
X0345168Y0304719D02*
X0362575Y0304719D01*
X0362575Y0307718D02*
X0345723Y0307718D01*
X0345667Y0307677D02*
X0346437Y0308237D01*
X0347110Y0308909D01*
X0347669Y0309679D01*
X0348101Y0310526D01*
X0348394Y0311431D01*
X0348543Y0312371D01*
X0348543Y0312846D01*
X0342500Y0312846D01*
X0342500Y0306803D01*
X0342976Y0306803D01*
X0343915Y0306952D01*
X0344820Y0307246D01*
X0345667Y0307677D01*
X0342500Y0307718D02*
X0342500Y0307718D01*
X0342500Y0306803D02*
X0342500Y0312846D01*
X0342500Y0312846D01*
X0342500Y0312846D01*
X0336457Y0312846D01*
X0336457Y0312371D01*
X0336605Y0311431D01*
X0336899Y0310526D01*
X0337331Y0309679D01*
X0337890Y0308909D01*
X0338563Y0308237D01*
X0339333Y0307677D01*
X0340180Y0307246D01*
X0341085Y0306952D01*
X0342024Y0306803D01*
X0342500Y0306803D01*
X0339277Y0307718D02*
X0013644Y0307718D01*
X0013644Y0310716D02*
X0058972Y0310716D01*
X0057731Y0313715D02*
X0013644Y0313715D01*
X0013644Y0316713D02*
X0058359Y0316713D01*
X0059682Y0319712D02*
X0013644Y0319712D01*
X0013644Y0322710D02*
X0057674Y0322710D01*
X0057700Y0325709D02*
X0013644Y0325709D01*
X0013644Y0328707D02*
X0059745Y0328707D01*
X0058327Y0331706D02*
X0013644Y0331706D01*
X0013644Y0334704D02*
X0028199Y0334704D01*
X0028580Y0334484D02*
X0031227Y0333775D01*
X0033968Y0333775D01*
X0036615Y0334484D01*
X0038989Y0335855D01*
X0040927Y0337793D01*
X0042297Y0340166D01*
X0043006Y0342813D01*
X0043006Y0345554D01*
X0042297Y0348201D01*
X0040927Y0350575D01*
X0038989Y0352513D01*
X0036615Y0353883D01*
X0033968Y0354592D01*
X0031227Y0354592D01*
X0028580Y0353883D01*
X0026207Y0352513D01*
X0024269Y0350575D01*
X0022898Y0348201D01*
X0022189Y0345554D01*
X0022189Y0342813D01*
X0022898Y0340166D01*
X0024269Y0337793D01*
X0026207Y0335855D01*
X0028580Y0334484D01*
X0024359Y0337703D02*
X0013644Y0337703D01*
X0013644Y0340701D02*
X0022755Y0340701D01*
X0022189Y0343700D02*
X0013644Y0343700D01*
X0015309Y0346698D02*
X0022496Y0346698D01*
X0023762Y0349697D02*
X0018307Y0349697D01*
X0021306Y0352695D02*
X0026523Y0352695D01*
X0024304Y0355694D02*
X0058203Y0355694D01*
X0058900Y0355694D02*
X0351915Y0355694D01*
X0350012Y0352513D02*
X0347639Y0353883D01*
X0344992Y0354592D01*
X0342251Y0354592D01*
X0339604Y0353883D01*
X0337230Y0352513D01*
X0335292Y0350575D01*
X0333922Y0348201D01*
X0333213Y0345554D01*
X0333213Y0342813D01*
X0333922Y0340166D01*
X0335292Y0337793D01*
X0337230Y0335855D01*
X0339604Y0334484D01*
X0342251Y0333775D01*
X0344992Y0333775D01*
X0347639Y0334484D01*
X0350012Y0335855D01*
X0351950Y0337793D01*
X0353321Y0340166D01*
X0354030Y0342813D01*
X0354030Y0345554D01*
X0353321Y0348201D01*
X0351950Y0350575D01*
X0350012Y0352513D01*
X0349696Y0352695D02*
X0354913Y0352695D01*
X0352457Y0349697D02*
X0357912Y0349697D01*
X0360910Y0346698D02*
X0353723Y0346698D01*
X0354030Y0343700D02*
X0362575Y0343700D01*
X0362575Y0340701D02*
X0353464Y0340701D01*
X0351861Y0337703D02*
X0362575Y0337703D01*
X0362575Y0334704D02*
X0348020Y0334704D01*
X0339223Y0334704D02*
X0318675Y0334704D01*
X0318110Y0331706D02*
X0362575Y0331706D01*
X0362575Y0328707D02*
X0316011Y0328707D01*
X0318254Y0325709D02*
X0362575Y0325709D01*
X0362575Y0322710D02*
X0318275Y0322710D01*
X0316097Y0319712D02*
X0362575Y0319712D01*
X0362575Y0316713D02*
X0347160Y0316713D01*
X0347110Y0316783D02*
X0346437Y0317456D01*
X0345667Y0318015D01*
X0344820Y0318447D01*
X0343915Y0318741D01*
X0342976Y0318889D01*
X0342500Y0318889D01*
X0342500Y0312846D01*
X0342500Y0312846D01*
X0336457Y0312846D01*
X0336457Y0313322D01*
X0336605Y0314261D01*
X0336899Y0315166D01*
X0337331Y0316014D01*
X0337890Y0316783D01*
X0338563Y0317456D01*
X0339333Y0318015D01*
X0340180Y0318447D01*
X0341085Y0318741D01*
X0342024Y0318889D01*
X0342500Y0318889D01*
X0342500Y0312846D01*
X0348543Y0312846D01*
X0348543Y0313322D01*
X0348394Y0314261D01*
X0348101Y0315166D01*
X0347669Y0316014D01*
X0347110Y0316783D01*
X0348481Y0313715D02*
X0362575Y0313715D01*
X0362575Y0310716D02*
X0348162Y0310716D01*
X0342500Y0310716D02*
X0342500Y0310716D01*
X0342500Y0312846D02*
X0342500Y0312846D01*
X0342500Y0313715D02*
X0342500Y0313715D01*
X0342500Y0316713D02*
X0342500Y0316713D01*
X0337840Y0316713D02*
X0318084Y0316713D01*
X0318675Y0313715D02*
X0336519Y0313715D01*
X0336838Y0310716D02*
X0317522Y0310716D01*
X0308678Y0310716D02*
X0307522Y0310716D01*
X0298678Y0310716D02*
X0297228Y0310716D01*
X0293100Y0310716D02*
X0293100Y0310716D01*
X0288972Y0310716D02*
X0287522Y0310716D01*
X0278678Y0310716D02*
X0277522Y0310716D01*
X0268678Y0310716D02*
X0267522Y0310716D01*
X0258678Y0310716D02*
X0257522Y0310716D01*
X0248678Y0310716D02*
X0247522Y0310716D01*
X0238678Y0310716D02*
X0237522Y0310716D01*
X0228678Y0310716D02*
X0227522Y0310716D01*
X0218678Y0310716D02*
X0217522Y0310716D01*
X0208678Y0310716D02*
X0207522Y0310716D01*
X0198678Y0310716D02*
X0197522Y0310716D01*
X0188678Y0310716D02*
X0187522Y0310716D01*
X0178678Y0310716D02*
X0177522Y0310716D01*
X0168678Y0310716D02*
X0167522Y0310716D01*
X0158678Y0310716D02*
X0157522Y0310716D01*
X0148678Y0310716D02*
X0147522Y0310716D01*
X0138678Y0310716D02*
X0137522Y0310716D01*
X0128678Y0310716D02*
X0127228Y0310716D01*
X0123100Y0310716D02*
X0123100Y0310716D01*
X0118972Y0310716D02*
X0117522Y0310716D01*
X0108678Y0310716D02*
X0107228Y0310716D01*
X0103100Y0310716D02*
X0103100Y0310716D01*
X0098972Y0310716D02*
X0097522Y0310716D01*
X0088678Y0310716D02*
X0087228Y0310716D01*
X0083100Y0310716D02*
X0083100Y0310716D01*
X0078972Y0310716D02*
X0077522Y0310716D01*
X0068678Y0310716D02*
X0067228Y0310716D01*
X0063100Y0310716D02*
X0063100Y0310716D01*
X0062886Y0286757D02*
X0061383Y0286134D01*
X0060232Y0284984D01*
X0059609Y0283480D01*
X0059609Y0281853D01*
X0060232Y0280350D01*
X0061383Y0279199D01*
X0062886Y0278576D01*
X0064514Y0278576D01*
X0066017Y0279199D01*
X0067168Y0280350D01*
X0067791Y0281853D01*
X0067791Y0283480D01*
X0067168Y0284984D01*
X0066017Y0286134D01*
X0064514Y0286757D01*
X0062886Y0286757D01*
X0062816Y0286728D02*
X0013644Y0286728D01*
X0013644Y0283730D02*
X0059713Y0283730D01*
X0060074Y0280731D02*
X0013644Y0280731D01*
X0013644Y0277733D02*
X0087942Y0277733D01*
X0087809Y0278053D02*
X0088432Y0276550D01*
X0089583Y0275399D01*
X0091086Y0274776D01*
X0092714Y0274776D01*
X0092900Y0274853D01*
X0093086Y0274776D01*
X0094714Y0274776D01*
X0096217Y0275399D01*
X0097368Y0276550D01*
X0097991Y0278053D01*
X0097991Y0279680D01*
X0097368Y0281184D01*
X0096217Y0282334D01*
X0094714Y0282957D01*
X0093086Y0282957D01*
X0092900Y0282880D01*
X0092714Y0282957D01*
X0091086Y0282957D01*
X0089583Y0282334D01*
X0088432Y0281184D01*
X0087809Y0279680D01*
X0087809Y0278053D01*
X0088245Y0280731D02*
X0067326Y0280731D01*
X0067687Y0283730D02*
X0079026Y0283730D01*
X0078809Y0284253D02*
X0079432Y0282750D01*
X0080583Y0281599D01*
X0082086Y0280976D01*
X0083714Y0280976D01*
X0085217Y0281599D01*
X0086368Y0282750D01*
X0086991Y0284253D01*
X0086991Y0285880D01*
X0086368Y0287384D01*
X0085217Y0288534D01*
X0083714Y0289157D01*
X0082086Y0289157D01*
X0080583Y0288534D01*
X0079432Y0287384D01*
X0078809Y0285880D01*
X0078809Y0284253D01*
X0079161Y0286728D02*
X0064584Y0286728D01*
X0086639Y0286728D02*
X0145409Y0286728D01*
X0146252Y0283730D02*
X0086774Y0283730D01*
X0097555Y0280731D02*
X0179809Y0280731D01*
X0181249Y0277733D02*
X0097858Y0277733D01*
X0102253Y0238752D02*
X0071961Y0238752D01*
X0071991Y0235754D02*
X0076754Y0235754D01*
X0076932Y0236184D02*
X0076309Y0234680D01*
X0076309Y0233053D01*
X0076387Y0232867D01*
X0076309Y0232680D01*
X0076309Y0231053D01*
X0076932Y0229550D01*
X0078083Y0228399D01*
X0079586Y0227776D01*
X0081214Y0227776D01*
X0082717Y0228399D01*
X0083868Y0229550D01*
X0084491Y0231053D01*
X0084491Y0232680D01*
X0084413Y0232867D01*
X0084491Y0233053D01*
X0084491Y0234680D01*
X0083868Y0236184D01*
X0082717Y0237334D01*
X0081214Y0237957D01*
X0079586Y0237957D01*
X0078083Y0237334D01*
X0076932Y0236184D01*
X0076340Y0232755D02*
X0071867Y0232755D01*
X0076846Y0229756D02*
X0013644Y0229756D01*
X0013644Y0232755D02*
X0063933Y0232755D01*
X0063809Y0235754D02*
X0013644Y0235754D01*
X0013644Y0238752D02*
X0063839Y0238752D01*
X0084046Y0235754D02*
X0101840Y0235754D01*
X0101809Y0232755D02*
X0084460Y0232755D01*
X0083954Y0229756D02*
X0103225Y0229756D01*
X0141289Y0217762D02*
X0153011Y0217762D01*
X0153583Y0218334D02*
X0152432Y0217184D01*
X0151809Y0215680D01*
X0151809Y0214053D01*
X0152432Y0212550D01*
X0153583Y0211399D01*
X0155086Y0210776D01*
X0156714Y0210776D01*
X0156900Y0210853D01*
X0157086Y0210776D01*
X0158714Y0210776D01*
X0160217Y0211399D01*
X0161368Y0212550D01*
X0161991Y0214053D01*
X0161991Y0215680D01*
X0161368Y0217184D01*
X0160217Y0218334D01*
X0158714Y0218957D01*
X0157086Y0218957D01*
X0156900Y0218880D01*
X0156714Y0218957D01*
X0155086Y0218957D01*
X0153583Y0218334D01*
X0151809Y0214764D02*
X0142991Y0214764D01*
X0142084Y0211765D02*
X0153216Y0211765D01*
X0160584Y0211765D02*
X0171216Y0211765D01*
X0170932Y0212050D02*
X0172083Y0210899D01*
X0173586Y0210276D01*
X0175214Y0210276D01*
X0175400Y0210353D01*
X0175586Y0210276D01*
X0177214Y0210276D01*
X0178717Y0210899D01*
X0179868Y0212050D01*
X0180491Y0213553D01*
X0180491Y0215180D01*
X0179868Y0216684D01*
X0178717Y0217834D01*
X0177214Y0218457D01*
X0175586Y0218457D01*
X0175400Y0218380D01*
X0175214Y0218457D01*
X0173586Y0218457D01*
X0172083Y0217834D01*
X0170932Y0216684D01*
X0170309Y0215180D01*
X0170309Y0213553D01*
X0170932Y0212050D01*
X0170309Y0214764D02*
X0161991Y0214764D01*
X0160789Y0217762D02*
X0172011Y0217762D01*
X0178789Y0217762D02*
X0214616Y0217762D01*
X0215086Y0217957D02*
X0213583Y0217334D01*
X0212432Y0216184D01*
X0211809Y0214680D01*
X0211809Y0213053D01*
X0211887Y0212867D01*
X0211809Y0212680D01*
X0211809Y0211053D01*
X0212432Y0209550D01*
X0213583Y0208399D01*
X0215086Y0207776D01*
X0216714Y0207776D01*
X0218217Y0208399D01*
X0219368Y0209550D01*
X0219991Y0211053D01*
X0219991Y0212680D01*
X0219913Y0212867D01*
X0219991Y0213053D01*
X0219991Y0214680D01*
X0219368Y0216184D01*
X0218217Y0217334D01*
X0216714Y0217957D01*
X0215086Y0217957D01*
X0217184Y0217762D02*
X0247011Y0217762D01*
X0247083Y0217834D02*
X0245932Y0216684D01*
X0245309Y0215180D01*
X0245309Y0213553D01*
X0245932Y0212050D01*
X0247083Y0210899D01*
X0248586Y0210276D01*
X0250214Y0210276D01*
X0250400Y0210353D01*
X0250586Y0210276D01*
X0252214Y0210276D01*
X0253717Y0210899D01*
X0254868Y0212050D01*
X0255491Y0213553D01*
X0255491Y0215180D01*
X0254868Y0216684D01*
X0253717Y0217834D01*
X0252214Y0218457D01*
X0250586Y0218457D01*
X0250400Y0218380D01*
X0250214Y0218457D01*
X0248586Y0218457D01*
X0247083Y0217834D01*
X0245309Y0214764D02*
X0235788Y0214764D01*
X0235217Y0215334D02*
X0233714Y0215957D01*
X0232086Y0215957D01*
X0230583Y0215334D01*
X0229432Y0214184D01*
X0228809Y0212680D01*
X0228809Y0211053D01*
X0228887Y0210867D01*
X0228809Y0210680D01*
X0228809Y0209053D01*
X0229432Y0207550D01*
X0230583Y0206399D01*
X0232086Y0205776D01*
X0233714Y0205776D01*
X0235217Y0206399D01*
X0236368Y0207550D01*
X0236991Y0209053D01*
X0236991Y0210680D01*
X0236913Y0210867D01*
X0236991Y0211053D01*
X0236991Y0212680D01*
X0236368Y0214184D01*
X0235217Y0215334D01*
X0236991Y0211765D02*
X0246216Y0211765D01*
X0254584Y0211765D02*
X0265216Y0211765D01*
X0265583Y0211399D02*
X0267086Y0210776D01*
X0268714Y0210776D01*
X0268900Y0210853D01*
X0269086Y0210776D01*
X0270714Y0210776D01*
X0272217Y0211399D01*
X0273368Y0212550D01*
X0273991Y0214053D01*
X0273991Y0215680D01*
X0273368Y0217184D01*
X0272217Y0218334D01*
X0270714Y0218957D01*
X0269086Y0218957D01*
X0268900Y0218880D01*
X0268714Y0218957D01*
X0267086Y0218957D01*
X0265583Y0218334D01*
X0264432Y0217184D01*
X0263809Y0215680D01*
X0263809Y0214053D01*
X0264432Y0212550D01*
X0265583Y0211399D01*
X0263809Y0214764D02*
X0255491Y0214764D01*
X0253789Y0217762D02*
X0265011Y0217762D01*
X0272789Y0217762D02*
X0285011Y0217762D01*
X0285083Y0217834D02*
X0283932Y0216684D01*
X0283309Y0215180D01*
X0283309Y0213553D01*
X0283932Y0212050D01*
X0285083Y0210899D01*
X0286586Y0210276D01*
X0288214Y0210276D01*
X0288400Y0210353D01*
X0288586Y0210276D01*
X0290214Y0210276D01*
X0291717Y0210899D01*
X0292868Y0212050D01*
X0293491Y0213553D01*
X0293491Y0215180D01*
X0292868Y0216684D01*
X0291717Y0217834D01*
X0290214Y0218457D01*
X0288586Y0218457D01*
X0288400Y0218380D01*
X0288214Y0218457D01*
X0286586Y0218457D01*
X0285083Y0217834D01*
X0283309Y0214764D02*
X0273991Y0214764D01*
X0272584Y0211765D02*
X0284216Y0211765D01*
X0292584Y0211765D02*
X0303216Y0211765D01*
X0303583Y0211399D02*
X0305086Y0210776D01*
X0306714Y0210776D01*
X0306900Y0210853D01*
X0307086Y0210776D01*
X0308714Y0210776D01*
X0310217Y0211399D01*
X0311368Y0212550D01*
X0311991Y0214053D01*
X0311991Y0215680D01*
X0311368Y0217184D01*
X0310217Y0218334D01*
X0308714Y0218957D01*
X0307086Y0218957D01*
X0306900Y0218880D01*
X0306714Y0218957D01*
X0305086Y0218957D01*
X0303583Y0218334D01*
X0302432Y0217184D01*
X0301809Y0215680D01*
X0301809Y0214053D01*
X0302432Y0212550D01*
X0303583Y0211399D01*
X0301809Y0214764D02*
X0293491Y0214764D01*
X0291789Y0217762D02*
X0303011Y0217762D01*
X0310789Y0217762D02*
X0325011Y0217762D01*
X0325083Y0217834D02*
X0323932Y0216684D01*
X0323309Y0215180D01*
X0323309Y0213553D01*
X0323932Y0212050D01*
X0325083Y0210899D01*
X0326586Y0210276D01*
X0328214Y0210276D01*
X0328900Y0210560D01*
X0329586Y0210276D01*
X0331214Y0210276D01*
X0332717Y0210899D01*
X0333868Y0212050D01*
X0334491Y0213553D01*
X0334491Y0215180D01*
X0333868Y0216684D01*
X0332717Y0217834D01*
X0331214Y0218457D01*
X0329586Y0218457D01*
X0328900Y0218173D01*
X0328214Y0218457D01*
X0326586Y0218457D01*
X0325083Y0217834D01*
X0323309Y0214764D02*
X0311991Y0214764D01*
X0310584Y0211765D02*
X0324216Y0211765D01*
X0332789Y0217762D02*
X0343011Y0217762D01*
X0343583Y0218334D02*
X0342432Y0217184D01*
X0341809Y0215680D01*
X0341809Y0214053D01*
X0342432Y0212550D01*
X0343583Y0211399D01*
X0345086Y0210776D01*
X0346714Y0210776D01*
X0346900Y0210853D01*
X0347086Y0210776D01*
X0348714Y0210776D01*
X0350217Y0211399D01*
X0351368Y0212550D01*
X0351991Y0214053D01*
X0351991Y0215680D01*
X0351368Y0217184D01*
X0350217Y0218334D01*
X0348714Y0218957D01*
X0347086Y0218957D01*
X0346900Y0218880D01*
X0346714Y0218957D01*
X0345086Y0218957D01*
X0343583Y0218334D01*
X0341809Y0214764D02*
X0334491Y0214764D01*
X0333584Y0211765D02*
X0343216Y0211765D01*
X0350584Y0211765D02*
X0362575Y0211765D01*
X0362575Y0208767D02*
X0236872Y0208767D01*
X0228928Y0208767D02*
X0218585Y0208767D01*
X0219991Y0211765D02*
X0228809Y0211765D01*
X0230012Y0214764D02*
X0219956Y0214764D01*
X0211844Y0214764D02*
X0180491Y0214764D01*
X0179584Y0211765D02*
X0196623Y0211765D01*
X0199177Y0211765D02*
X0211809Y0211765D01*
X0213215Y0208767D02*
X0201955Y0208767D01*
X0201991Y0205768D02*
X0362575Y0205768D01*
X0362575Y0202770D02*
X0200588Y0202770D01*
X0195212Y0202770D02*
X0016953Y0202770D01*
X0016991Y0199771D02*
X0362575Y0199771D01*
X0362575Y0196773D02*
X0016875Y0196773D01*
X0013644Y0193774D02*
X0362575Y0193774D01*
X0362575Y0190776D02*
X0013644Y0190776D01*
X0013644Y0187777D02*
X0029026Y0187777D01*
X0027809Y0184779D02*
X0013644Y0184779D01*
X0065610Y0157792D02*
X0095190Y0157792D01*
X0125767Y0172785D02*
X0165533Y0172785D01*
X0163809Y0169786D02*
X0127491Y0169786D01*
X0127086Y0125957D02*
X0125583Y0125334D01*
X0124432Y0124184D01*
X0123809Y0122680D01*
X0123809Y0121053D01*
X0124432Y0119550D01*
X0125583Y0118399D01*
X0127086Y0117776D01*
X0128714Y0117776D01*
X0130217Y0118399D01*
X0131368Y0119550D01*
X0131991Y0121053D01*
X0131991Y0122680D01*
X0131368Y0124184D01*
X0130217Y0125334D01*
X0128714Y0125957D01*
X0127086Y0125957D01*
X0125057Y0124809D02*
X0121743Y0124809D01*
X0121217Y0125334D02*
X0119714Y0125957D01*
X0118086Y0125957D01*
X0116583Y0125334D01*
X0115432Y0124184D01*
X0114809Y0122680D01*
X0114809Y0121053D01*
X0115432Y0119550D01*
X0116583Y0118399D01*
X0118086Y0117776D01*
X0119714Y0117776D01*
X0121217Y0118399D01*
X0122368Y0119550D01*
X0122991Y0121053D01*
X0122991Y0122680D01*
X0122368Y0124184D01*
X0121217Y0125334D01*
X0122991Y0121810D02*
X0123809Y0121810D01*
X0125170Y0118812D02*
X0121630Y0118812D01*
X0116170Y0118812D02*
X0113476Y0118812D01*
X0113368Y0118550D02*
X0113991Y0120053D01*
X0113991Y0121680D01*
X0113368Y0123184D01*
X0112217Y0124334D01*
X0110714Y0124957D01*
X0109086Y0124957D01*
X0107583Y0124334D01*
X0106432Y0123184D01*
X0105809Y0121680D01*
X0105809Y0120053D01*
X0106432Y0118550D01*
X0107583Y0117399D01*
X0109086Y0116776D01*
X0110714Y0116776D01*
X0112217Y0117399D01*
X0113368Y0118550D01*
X0113937Y0121810D02*
X0114809Y0121810D01*
X0116057Y0124809D02*
X0111072Y0124809D01*
X0108728Y0124809D02*
X0102072Y0124809D01*
X0104937Y0121810D02*
X0105863Y0121810D01*
X0106324Y0118812D02*
X0104476Y0118812D01*
X0114519Y0106818D02*
X0115066Y0106818D01*
X0116272Y0100821D02*
X0111821Y0100821D01*
X0109979Y0100821D02*
X0109821Y0100821D01*
X0107979Y0100821D02*
X0105991Y0100821D01*
X0104640Y0097822D02*
X0190868Y0097822D01*
X0190809Y0097680D02*
X0190809Y0096053D01*
X0191432Y0094550D01*
X0192583Y0093399D01*
X0194086Y0092776D01*
X0195714Y0092776D01*
X0195900Y0092853D01*
X0196086Y0092776D01*
X0197714Y0092776D01*
X0197900Y0092853D01*
X0198086Y0092776D01*
X0199714Y0092776D01*
X0201217Y0093399D01*
X0202368Y0094550D01*
X0202991Y0096053D01*
X0202991Y0097680D01*
X0202368Y0099184D01*
X0201217Y0100334D01*
X0199714Y0100957D01*
X0198086Y0100957D01*
X0197900Y0100880D01*
X0197714Y0100957D01*
X0196086Y0100957D01*
X0195900Y0100880D01*
X0195714Y0100957D01*
X0194086Y0100957D01*
X0192583Y0100334D01*
X0191432Y0099184D01*
X0190809Y0097680D01*
X0191319Y0094823D02*
X0122517Y0094823D01*
X0122896Y0091825D02*
X0239711Y0091825D01*
X0240067Y0091678D02*
X0241733Y0091678D01*
X0243273Y0092315D01*
X0244451Y0093494D01*
X0245089Y0095033D01*
X0245089Y0096700D01*
X0244451Y0098240D01*
X0243273Y0099418D01*
X0241733Y0100056D01*
X0240067Y0100056D01*
X0238527Y0099418D01*
X0237349Y0098240D01*
X0236711Y0096700D01*
X0236711Y0095033D01*
X0237349Y0093494D01*
X0238527Y0092315D01*
X0240067Y0091678D01*
X0242089Y0091825D02*
X0362575Y0091825D01*
X0362575Y0094823D02*
X0245002Y0094823D01*
X0244624Y0097822D02*
X0362575Y0097822D01*
X0362575Y0100821D02*
X0200044Y0100821D01*
X0202932Y0097822D02*
X0237176Y0097822D01*
X0236798Y0094823D02*
X0202481Y0094823D01*
X0193756Y0100821D02*
X0174821Y0100821D01*
X0172979Y0100821D02*
X0172821Y0100821D01*
X0170979Y0100821D02*
X0165821Y0100821D01*
X0163979Y0100821D02*
X0163821Y0100821D01*
X0161979Y0100821D02*
X0156821Y0100821D01*
X0154979Y0100821D02*
X0154821Y0100821D01*
X0152979Y0100821D02*
X0147821Y0100821D01*
X0145979Y0100821D02*
X0145821Y0100821D01*
X0143979Y0100821D02*
X0138821Y0100821D01*
X0136979Y0100821D02*
X0136821Y0100821D01*
X0134979Y0100821D02*
X0129821Y0100821D01*
X0127979Y0100821D02*
X0127321Y0100821D01*
X0125479Y0100821D02*
X0122528Y0100821D01*
X0113283Y0094823D02*
X0093693Y0094823D01*
X0094200Y0091825D02*
X0112904Y0091825D01*
X0115965Y0088826D02*
X0092921Y0088826D01*
X0095086Y0084957D02*
X0093583Y0084334D01*
X0092432Y0083184D01*
X0091809Y0081680D01*
X0091809Y0080053D01*
X0092432Y0078550D01*
X0093583Y0077399D01*
X0095086Y0076776D01*
X0096714Y0076776D01*
X0098217Y0077399D01*
X0099368Y0078550D01*
X0099991Y0080053D01*
X0099991Y0081680D01*
X0099368Y0083184D01*
X0098217Y0084334D01*
X0096714Y0084957D01*
X0095086Y0084957D01*
X0092285Y0082829D02*
X0013644Y0082829D01*
X0020221Y0079831D02*
X0022579Y0079831D01*
X0022432Y0079684D02*
X0021809Y0078180D01*
X0021809Y0076553D01*
X0022432Y0075050D01*
X0023583Y0073899D01*
X0025086Y0073276D01*
X0026714Y0073276D01*
X0028217Y0073899D01*
X0029368Y0075050D01*
X0029991Y0076553D01*
X0029991Y0078180D01*
X0029368Y0079684D01*
X0028217Y0080834D01*
X0026714Y0081457D01*
X0025086Y0081457D01*
X0023583Y0080834D01*
X0022432Y0079684D01*
X0021809Y0076832D02*
X0020991Y0076832D01*
X0019060Y0073834D02*
X0023740Y0073834D01*
X0028060Y0073834D02*
X0032740Y0073834D01*
X0032583Y0073899D02*
X0034086Y0073276D01*
X0035714Y0073276D01*
X0037217Y0073899D01*
X0038368Y0075050D01*
X0038991Y0076553D01*
X0038991Y0078180D01*
X0038368Y0079684D01*
X0037217Y0080834D01*
X0035714Y0081457D01*
X0034086Y0081457D01*
X0032583Y0080834D01*
X0031432Y0079684D01*
X0030809Y0078180D01*
X0030809Y0076553D01*
X0031432Y0075050D01*
X0032583Y0073899D01*
X0030809Y0076832D02*
X0029991Y0076832D01*
X0029221Y0079831D02*
X0031579Y0079831D01*
X0038221Y0079831D02*
X0040579Y0079831D01*
X0040432Y0079684D02*
X0039809Y0078180D01*
X0039809Y0076553D01*
X0040432Y0075050D01*
X0041583Y0073899D01*
X0043086Y0073276D01*
X0044714Y0073276D01*
X0046217Y0073899D01*
X0047368Y0075050D01*
X0047991Y0076553D01*
X0047991Y0078180D01*
X0047368Y0079684D01*
X0046217Y0080834D01*
X0044714Y0081457D01*
X0043086Y0081457D01*
X0041583Y0080834D01*
X0040432Y0079684D01*
X0039809Y0076832D02*
X0038991Y0076832D01*
X0037060Y0073834D02*
X0041740Y0073834D01*
X0046060Y0073834D02*
X0050740Y0073834D01*
X0050583Y0073899D02*
X0052086Y0073276D01*
X0053714Y0073276D01*
X0055217Y0073899D01*
X0056368Y0075050D01*
X0056991Y0076553D01*
X0056991Y0078180D01*
X0056368Y0079684D01*
X0055217Y0080834D01*
X0053714Y0081457D01*
X0052086Y0081457D01*
X0050583Y0080834D01*
X0049432Y0079684D01*
X0048809Y0078180D01*
X0048809Y0076553D01*
X0049432Y0075050D01*
X0050583Y0073899D01*
X0048809Y0076832D02*
X0047991Y0076832D01*
X0047221Y0079831D02*
X0049579Y0079831D01*
X0056221Y0079831D02*
X0058579Y0079831D01*
X0058432Y0079684D02*
X0057809Y0078180D01*
X0057809Y0076553D01*
X0058432Y0075050D01*
X0059583Y0073899D01*
X0061086Y0073276D01*
X0062714Y0073276D01*
X0064217Y0073899D01*
X0065368Y0075050D01*
X0065991Y0076553D01*
X0065991Y0078180D01*
X0065368Y0079684D01*
X0064217Y0080834D01*
X0062714Y0081457D01*
X0061086Y0081457D01*
X0059583Y0080834D01*
X0058432Y0079684D01*
X0057809Y0076832D02*
X0056991Y0076832D01*
X0055060Y0073834D02*
X0059740Y0073834D01*
X0064060Y0073834D02*
X0077740Y0073834D01*
X0077583Y0073899D02*
X0079086Y0073276D01*
X0080714Y0073276D01*
X0082217Y0073899D01*
X0083368Y0075050D01*
X0083991Y0076553D01*
X0083991Y0078180D01*
X0083368Y0079684D01*
X0082217Y0080834D01*
X0080714Y0081457D01*
X0079086Y0081457D01*
X0077583Y0080834D01*
X0076432Y0079684D01*
X0075809Y0078180D01*
X0075809Y0076553D01*
X0076432Y0075050D01*
X0077583Y0073899D01*
X0075809Y0076832D02*
X0065991Y0076832D01*
X0065221Y0079831D02*
X0076579Y0079831D01*
X0083221Y0079831D02*
X0091901Y0079831D01*
X0094950Y0076832D02*
X0083991Y0076832D01*
X0082060Y0073834D02*
X0103900Y0073834D01*
X0104287Y0076832D02*
X0096850Y0076832D01*
X0099899Y0079831D02*
X0236711Y0079831D01*
X0236711Y0079033D02*
X0237349Y0077494D01*
X0238527Y0076315D01*
X0240067Y0075678D01*
X0241733Y0075678D01*
X0243273Y0076315D01*
X0244451Y0077494D01*
X0245089Y0079033D01*
X0245089Y0080700D01*
X0244451Y0082240D01*
X0243273Y0083418D01*
X0241733Y0084056D01*
X0240067Y0084056D01*
X0238527Y0083418D01*
X0237349Y0082240D01*
X0236711Y0080700D01*
X0236711Y0079033D01*
X0238010Y0076832D02*
X0153013Y0076832D01*
X0156513Y0073834D02*
X0362575Y0073834D01*
X0362575Y0076832D02*
X0243790Y0076832D01*
X0245089Y0079831D02*
X0285209Y0079831D01*
X0285349Y0079494D02*
X0286527Y0078315D01*
X0288067Y0077678D01*
X0289733Y0077678D01*
X0291273Y0078315D01*
X0292451Y0079494D01*
X0293089Y0081033D01*
X0293089Y0082700D01*
X0292451Y0084240D01*
X0291273Y0085418D01*
X0289733Y0086056D01*
X0288067Y0086056D01*
X0286527Y0085418D01*
X0285349Y0084240D01*
X0284711Y0082700D01*
X0284711Y0081033D01*
X0285349Y0079494D01*
X0284765Y0082829D02*
X0255787Y0082829D01*
X0257089Y0085828D02*
X0287517Y0085828D01*
X0290283Y0085828D02*
X0362575Y0085828D01*
X0362575Y0088826D02*
X0255864Y0088826D01*
X0250013Y0082829D02*
X0243861Y0082829D01*
X0237939Y0082829D02*
X0099515Y0082829D01*
X0099160Y0097822D02*
X0090466Y0097822D01*
X0086534Y0097822D02*
X0082206Y0097822D01*
X0074794Y0097822D02*
X0070466Y0097822D01*
X0066534Y0097822D02*
X0062206Y0097822D01*
X0054794Y0097822D02*
X0050466Y0097822D01*
X0046534Y0097822D02*
X0042206Y0097822D01*
X0041921Y0088826D02*
X0044079Y0088826D01*
X0052921Y0088826D02*
X0055079Y0088826D01*
X0061921Y0088826D02*
X0064079Y0088826D01*
X0072921Y0088826D02*
X0075079Y0088826D01*
X0081921Y0088826D02*
X0084079Y0088826D01*
X0106704Y0061840D02*
X0185293Y0061840D01*
X0183750Y0058841D02*
X0108491Y0058841D01*
X0107661Y0055843D02*
X0184350Y0055843D01*
X0180286Y0052844D02*
X0102490Y0052844D01*
X0106100Y0019861D02*
X0106100Y0019861D01*
X0096100Y0019861D02*
X0096100Y0019861D01*
X0131154Y0019861D02*
X0131889Y0019861D01*
X0131800Y0016862D02*
X0134878Y0016862D01*
X0136921Y0016862D02*
X0212809Y0016862D01*
X0214109Y0019861D02*
X0139911Y0019861D01*
X0140496Y0022859D02*
X0341849Y0022859D01*
X0345394Y0022859D02*
X0353124Y0022859D01*
X0351039Y0025858D02*
X0356123Y0025858D01*
X0353155Y0028856D02*
X0359121Y0028856D01*
X0362120Y0031855D02*
X0354030Y0031855D01*
X0353944Y0034853D02*
X0362575Y0034853D01*
X0362575Y0037852D02*
X0352932Y0037852D01*
X0350651Y0040850D02*
X0362575Y0040850D01*
X0350126Y0019861D02*
X0223691Y0019861D01*
X0224991Y0016862D02*
X0347127Y0016862D01*
X0336204Y0025858D02*
X0251602Y0025858D01*
X0252024Y0028856D02*
X0334087Y0028856D01*
X0362575Y0067837D02*
X0156487Y0067837D01*
X0156926Y0070835D02*
X0362575Y0070835D01*
X0362575Y0079831D02*
X0292591Y0079831D01*
X0293035Y0082829D02*
X0362575Y0082829D01*
X0362575Y0103819D02*
X0177894Y0103819D01*
X0177519Y0106818D02*
X0362575Y0106818D01*
X0314809Y0169786D02*
X0285991Y0169786D01*
X0284767Y0172785D02*
X0316033Y0172785D01*
X0339600Y0178782D02*
X0362575Y0178782D01*
X0362575Y0181780D02*
X0340991Y0181780D01*
X0351991Y0214764D02*
X0362575Y0214764D01*
X0362575Y0217762D02*
X0350789Y0217762D01*
X0277033Y0172785D02*
X0245767Y0172785D01*
X0246991Y0169786D02*
X0275809Y0169786D01*
X0213269Y0163789D02*
X0208531Y0163789D01*
X0208882Y0160791D02*
X0212918Y0160791D01*
X0200918Y0160791D02*
X0184382Y0160791D01*
X0184031Y0163789D02*
X0201269Y0163789D01*
X0161057Y0124809D02*
X0157743Y0124809D01*
X0157217Y0125334D02*
X0155714Y0125957D01*
X0154086Y0125957D01*
X0152583Y0125334D01*
X0151432Y0124184D01*
X0150809Y0122680D01*
X0150809Y0121053D01*
X0151432Y0119550D01*
X0152583Y0118399D01*
X0154086Y0117776D01*
X0155714Y0117776D01*
X0157217Y0118399D01*
X0158368Y0119550D01*
X0158991Y0121053D01*
X0158991Y0122680D01*
X0158368Y0124184D01*
X0157217Y0125334D01*
X0158991Y0121810D02*
X0159809Y0121810D01*
X0161170Y0118812D02*
X0157630Y0118812D01*
X0152170Y0118812D02*
X0148630Y0118812D01*
X0148217Y0118399D02*
X0149368Y0119550D01*
X0149991Y0121053D01*
X0149991Y0122680D01*
X0149368Y0124184D01*
X0148217Y0125334D01*
X0146714Y0125957D01*
X0145086Y0125957D01*
X0143583Y0125334D01*
X0142432Y0124184D01*
X0141809Y0122680D01*
X0141809Y0121053D01*
X0142432Y0119550D01*
X0143583Y0118399D01*
X0145086Y0117776D01*
X0146714Y0117776D01*
X0148217Y0118399D01*
X0149991Y0121810D02*
X0150809Y0121810D01*
X0152057Y0124809D02*
X0148743Y0124809D01*
X0143057Y0124809D02*
X0139743Y0124809D01*
X0139217Y0125334D02*
X0137714Y0125957D01*
X0136086Y0125957D01*
X0134583Y0125334D01*
X0133432Y0124184D01*
X0132809Y0122680D01*
X0132809Y0121053D01*
X0133432Y0119550D01*
X0134583Y0118399D01*
X0136086Y0117776D01*
X0137714Y0117776D01*
X0139217Y0118399D01*
X0140368Y0119550D01*
X0140991Y0121053D01*
X0140991Y0122680D01*
X0140368Y0124184D01*
X0139217Y0125334D01*
X0140991Y0121810D02*
X0141809Y0121810D01*
X0143170Y0118812D02*
X0139630Y0118812D01*
X0134170Y0118812D02*
X0130630Y0118812D01*
X0131991Y0121810D02*
X0132809Y0121810D01*
X0134057Y0124809D02*
X0130743Y0124809D01*
X0166630Y0118812D02*
X0179060Y0118812D01*
X0149313Y0067837D02*
X0146360Y0067837D01*
X0117965Y0088826D02*
X0117835Y0088826D01*
X0189187Y0052844D02*
X0240877Y0052844D01*
X0240809Y0049846D02*
X0189636Y0049846D01*
X0187728Y0046847D02*
X0242134Y0046847D01*
X0241291Y0055843D02*
X0192949Y0055843D01*
X0248509Y0055843D02*
X0287556Y0055843D01*
X0286711Y0052844D02*
X0248923Y0052844D01*
X0014740Y0073834D02*
X0013644Y0073834D01*
X0013644Y0295724D02*
X0337127Y0295724D01*
X0336257Y0298722D02*
X0013644Y0298722D01*
X0013644Y0301721D02*
X0336842Y0301721D01*
X0339832Y0304719D02*
X0013644Y0304719D01*
X0036996Y0334704D02*
X0057741Y0334704D01*
X0059023Y0337703D02*
X0040837Y0337703D01*
X0042440Y0340701D02*
X0058693Y0340701D01*
X0057525Y0343700D02*
X0043006Y0343700D01*
X0042700Y0346698D02*
X0058109Y0346698D01*
X0058572Y0349697D02*
X0041434Y0349697D01*
X0038672Y0352695D02*
X0058387Y0352695D01*
X0058900Y0352695D02*
X0337547Y0352695D01*
X0334786Y0349697D02*
X0294345Y0349697D01*
X0291855Y0349697D02*
X0284345Y0349697D01*
X0281855Y0349697D02*
X0244345Y0349697D01*
X0241855Y0349697D02*
X0234345Y0349697D01*
X0231855Y0349697D02*
X0224345Y0349697D01*
X0221855Y0349697D02*
X0214345Y0349697D01*
X0211855Y0349697D02*
X0204345Y0349697D01*
X0201855Y0349697D02*
X0194345Y0349697D01*
X0191855Y0349697D02*
X0184345Y0349697D01*
X0181855Y0349697D02*
X0174345Y0349697D01*
X0171855Y0349697D02*
X0164345Y0349697D01*
X0161855Y0349697D02*
X0159104Y0349697D01*
X0058900Y0358692D02*
X0348916Y0358692D01*
X0345918Y0361691D02*
X0058900Y0361691D01*
X0057834Y0361691D02*
X0030301Y0361691D01*
X0027303Y0358692D02*
X0058018Y0358692D01*
X0317218Y0340701D02*
X0333779Y0340701D01*
X0333213Y0343700D02*
X0318466Y0343700D01*
X0317849Y0346698D02*
X0333519Y0346698D01*
X0335382Y0337703D02*
X0317460Y0337703D01*
D18*
X0138872Y0339178D02*
X0138100Y0338406D01*
X0136796Y0339710D01*
X0134398Y0340703D01*
X0131802Y0340703D01*
X0129404Y0339710D01*
X0127568Y0337875D01*
X0126575Y0335476D01*
X0126575Y0332881D01*
X0127568Y0330482D01*
X0129404Y0328647D01*
X0131802Y0327653D01*
X0134398Y0327653D01*
X0136796Y0328647D01*
X0138100Y0329951D01*
X0138872Y0329178D01*
X0137568Y0327875D01*
X0136575Y0325476D01*
X0136575Y0322881D01*
X0137568Y0320482D01*
X0138872Y0319178D01*
X0138100Y0318406D01*
X0136796Y0319710D01*
X0134398Y0320703D01*
X0131802Y0320703D01*
X0129404Y0319710D01*
X0127568Y0317875D01*
X0126575Y0315476D01*
X0126575Y0312881D01*
X0127568Y0310482D01*
X0129041Y0309010D01*
X0117103Y0308953D01*
X0118632Y0310482D01*
X0119625Y0312881D01*
X0119625Y0315476D01*
X0118632Y0317875D01*
X0116796Y0319710D01*
X0114398Y0320703D01*
X0111802Y0320703D01*
X0109404Y0319710D01*
X0107568Y0317875D01*
X0106575Y0315476D01*
X0106575Y0312881D01*
X0107568Y0310482D01*
X0109135Y0308915D01*
X0097007Y0308858D01*
X0098632Y0310482D01*
X0099625Y0312881D01*
X0099625Y0315476D01*
X0098632Y0317875D01*
X0096796Y0319710D01*
X0094398Y0320703D01*
X0091802Y0320703D01*
X0089404Y0319710D01*
X0087568Y0317875D01*
X0086575Y0315476D01*
X0086575Y0312881D01*
X0087568Y0310482D01*
X0089230Y0308821D01*
X0076911Y0308762D01*
X0078632Y0310482D01*
X0079625Y0312881D01*
X0079625Y0315476D01*
X0078632Y0317875D01*
X0076796Y0319710D01*
X0074398Y0320703D01*
X0071802Y0320703D01*
X0069404Y0319710D01*
X0067568Y0317875D01*
X0066575Y0315476D01*
X0066575Y0312881D01*
X0067568Y0310482D01*
X0069325Y0308726D01*
X0056900Y0308667D01*
X0057761Y0320290D01*
X0059404Y0318647D01*
X0061802Y0317653D01*
X0064398Y0317653D01*
X0066796Y0318647D01*
X0068632Y0320482D01*
X0069625Y0322881D01*
X0069625Y0325476D01*
X0068632Y0327875D01*
X0066796Y0329710D01*
X0064398Y0330703D01*
X0061802Y0330703D01*
X0059404Y0329710D01*
X0058383Y0328689D01*
X0059140Y0338910D01*
X0059404Y0338647D01*
X0061802Y0337653D01*
X0064398Y0337653D01*
X0066796Y0338647D01*
X0068632Y0340482D01*
X0069625Y0342881D01*
X0069625Y0345476D01*
X0068632Y0347875D01*
X0066796Y0349710D01*
X0064398Y0350703D01*
X0061802Y0350703D01*
X0059957Y0349939D01*
X0060100Y0351867D01*
X0101174Y0350443D01*
X0099404Y0349710D01*
X0097568Y0347875D01*
X0096575Y0345476D01*
X0096575Y0342881D01*
X0097568Y0340482D01*
X0099404Y0338647D01*
X0101802Y0337653D01*
X0104398Y0337653D01*
X0106796Y0338647D01*
X0108632Y0340482D01*
X0109625Y0342881D01*
X0109625Y0345476D01*
X0108632Y0347875D01*
X0106796Y0349710D01*
X0105378Y0350298D01*
X0119630Y0349804D01*
X0119404Y0349710D01*
X0117568Y0347875D01*
X0116575Y0345476D01*
X0116575Y0342881D01*
X0117568Y0340482D01*
X0119404Y0338647D01*
X0121802Y0337653D01*
X0124398Y0337653D01*
X0126796Y0338647D01*
X0128632Y0340482D01*
X0129625Y0342881D01*
X0129625Y0345476D01*
X0128632Y0347875D01*
X0126956Y0349550D01*
X0138832Y0349138D01*
X0137568Y0347875D01*
X0136575Y0345476D01*
X0136575Y0342881D01*
X0137568Y0340482D01*
X0138872Y0339178D01*
X0138854Y0339160D02*
X0137346Y0339160D01*
X0137444Y0339062D02*
X0138756Y0339062D01*
X0138657Y0338963D02*
X0137543Y0338963D01*
X0137642Y0338865D02*
X0138558Y0338865D01*
X0138460Y0338766D02*
X0137740Y0338766D01*
X0137839Y0338668D02*
X0138361Y0338668D01*
X0138263Y0338569D02*
X0137937Y0338569D01*
X0138036Y0338471D02*
X0138164Y0338471D01*
X0138792Y0339259D02*
X0137247Y0339259D01*
X0137149Y0339357D02*
X0138693Y0339357D01*
X0138595Y0339456D02*
X0137050Y0339456D01*
X0136952Y0339554D02*
X0138496Y0339554D01*
X0138398Y0339653D02*
X0136853Y0339653D01*
X0136697Y0339751D02*
X0138299Y0339751D01*
X0138201Y0339850D02*
X0136459Y0339850D01*
X0136221Y0339948D02*
X0138102Y0339948D01*
X0138004Y0340047D02*
X0135983Y0340047D01*
X0135745Y0340145D02*
X0137905Y0340145D01*
X0137807Y0340244D02*
X0135508Y0340244D01*
X0135270Y0340342D02*
X0137708Y0340342D01*
X0137610Y0340441D02*
X0135032Y0340441D01*
X0134794Y0340539D02*
X0137545Y0340539D01*
X0137504Y0340638D02*
X0134556Y0340638D01*
X0137055Y0341722D02*
X0129145Y0341722D01*
X0129186Y0341820D02*
X0137014Y0341820D01*
X0136973Y0341919D02*
X0129227Y0341919D01*
X0129267Y0342017D02*
X0136933Y0342017D01*
X0136892Y0342116D02*
X0129308Y0342116D01*
X0129349Y0342214D02*
X0136851Y0342214D01*
X0136810Y0342313D02*
X0129390Y0342313D01*
X0129431Y0342411D02*
X0136769Y0342411D01*
X0136729Y0342510D02*
X0129471Y0342510D01*
X0129512Y0342608D02*
X0136688Y0342608D01*
X0136647Y0342707D02*
X0129553Y0342707D01*
X0129594Y0342805D02*
X0136606Y0342805D01*
X0136575Y0342904D02*
X0129625Y0342904D01*
X0129625Y0343002D02*
X0136575Y0343002D01*
X0136575Y0343101D02*
X0129625Y0343101D01*
X0129625Y0343199D02*
X0136575Y0343199D01*
X0136575Y0343298D02*
X0129625Y0343298D01*
X0129625Y0343396D02*
X0136575Y0343396D01*
X0136575Y0343495D02*
X0129625Y0343495D01*
X0129625Y0343593D02*
X0136575Y0343593D01*
X0136575Y0343692D02*
X0129625Y0343692D01*
X0129625Y0343790D02*
X0136575Y0343790D01*
X0136575Y0343889D02*
X0129625Y0343889D01*
X0129625Y0343987D02*
X0136575Y0343987D01*
X0136575Y0344086D02*
X0129625Y0344086D01*
X0129625Y0344184D02*
X0136575Y0344184D01*
X0136575Y0344283D02*
X0129625Y0344283D01*
X0129625Y0344381D02*
X0136575Y0344381D01*
X0136575Y0344480D02*
X0129625Y0344480D01*
X0129625Y0344578D02*
X0136575Y0344578D01*
X0136575Y0344677D02*
X0129625Y0344677D01*
X0129625Y0344775D02*
X0136575Y0344775D01*
X0136575Y0344874D02*
X0129625Y0344874D01*
X0129625Y0344972D02*
X0136575Y0344972D01*
X0136575Y0345071D02*
X0129625Y0345071D01*
X0129625Y0345169D02*
X0136575Y0345169D01*
X0136575Y0345268D02*
X0129625Y0345268D01*
X0129625Y0345366D02*
X0136575Y0345366D01*
X0136575Y0345465D02*
X0129625Y0345465D01*
X0129589Y0345563D02*
X0136611Y0345563D01*
X0136652Y0345662D02*
X0129548Y0345662D01*
X0129507Y0345760D02*
X0136693Y0345760D01*
X0136733Y0345859D02*
X0129467Y0345859D01*
X0129426Y0345958D02*
X0136774Y0345958D01*
X0136815Y0346056D02*
X0129385Y0346056D01*
X0129344Y0346155D02*
X0136856Y0346155D01*
X0136897Y0346253D02*
X0129303Y0346253D01*
X0129262Y0346352D02*
X0136938Y0346352D01*
X0136978Y0346450D02*
X0129222Y0346450D01*
X0129181Y0346549D02*
X0137019Y0346549D01*
X0137060Y0346647D02*
X0129140Y0346647D01*
X0129099Y0346746D02*
X0137101Y0346746D01*
X0137142Y0346844D02*
X0129058Y0346844D01*
X0129018Y0346943D02*
X0137182Y0346943D01*
X0137223Y0347041D02*
X0128977Y0347041D01*
X0128936Y0347140D02*
X0137264Y0347140D01*
X0137305Y0347238D02*
X0128895Y0347238D01*
X0128854Y0347337D02*
X0137346Y0347337D01*
X0137386Y0347435D02*
X0128814Y0347435D01*
X0128773Y0347534D02*
X0137427Y0347534D01*
X0137468Y0347632D02*
X0128732Y0347632D01*
X0128691Y0347731D02*
X0137509Y0347731D01*
X0137550Y0347829D02*
X0128650Y0347829D01*
X0128578Y0347928D02*
X0137622Y0347928D01*
X0137720Y0348026D02*
X0128480Y0348026D01*
X0128381Y0348125D02*
X0137819Y0348125D01*
X0137917Y0348223D02*
X0128283Y0348223D01*
X0128184Y0348322D02*
X0138016Y0348322D01*
X0138114Y0348420D02*
X0128086Y0348420D01*
X0127987Y0348519D02*
X0138213Y0348519D01*
X0138311Y0348617D02*
X0127889Y0348617D01*
X0127790Y0348716D02*
X0138410Y0348716D01*
X0138508Y0348814D02*
X0127692Y0348814D01*
X0127593Y0348913D02*
X0138607Y0348913D01*
X0138705Y0349011D02*
X0127495Y0349011D01*
X0127396Y0349110D02*
X0138804Y0349110D01*
X0136810Y0349208D02*
X0127298Y0349208D01*
X0127199Y0349307D02*
X0133967Y0349307D01*
X0131125Y0349405D02*
X0127101Y0349405D01*
X0127002Y0349504D02*
X0128282Y0349504D01*
X0129104Y0341623D02*
X0137096Y0341623D01*
X0137137Y0341524D02*
X0129063Y0341524D01*
X0129022Y0341426D02*
X0137177Y0341426D01*
X0137218Y0341327D02*
X0128982Y0341327D01*
X0128941Y0341229D02*
X0137259Y0341229D01*
X0137300Y0341130D02*
X0128900Y0341130D01*
X0128859Y0341032D02*
X0137341Y0341032D01*
X0137382Y0340933D02*
X0128818Y0340933D01*
X0128778Y0340835D02*
X0137422Y0340835D01*
X0137463Y0340736D02*
X0128737Y0340736D01*
X0128696Y0340638D02*
X0131644Y0340638D01*
X0131406Y0340539D02*
X0128655Y0340539D01*
X0128590Y0340441D02*
X0131168Y0340441D01*
X0130930Y0340342D02*
X0128492Y0340342D01*
X0128393Y0340244D02*
X0130692Y0340244D01*
X0130455Y0340145D02*
X0128295Y0340145D01*
X0128196Y0340047D02*
X0130217Y0340047D01*
X0129979Y0339948D02*
X0128098Y0339948D01*
X0127999Y0339850D02*
X0129741Y0339850D01*
X0129503Y0339751D02*
X0127901Y0339751D01*
X0127802Y0339653D02*
X0129347Y0339653D01*
X0129248Y0339554D02*
X0127704Y0339554D01*
X0127605Y0339456D02*
X0129150Y0339456D01*
X0129051Y0339357D02*
X0127507Y0339357D01*
X0127408Y0339259D02*
X0128953Y0339259D01*
X0128854Y0339160D02*
X0127309Y0339160D01*
X0127211Y0339062D02*
X0128755Y0339062D01*
X0128657Y0338963D02*
X0127112Y0338963D01*
X0127014Y0338865D02*
X0128558Y0338865D01*
X0128460Y0338766D02*
X0126915Y0338766D01*
X0126817Y0338668D02*
X0128361Y0338668D01*
X0128263Y0338569D02*
X0126609Y0338569D01*
X0126371Y0338471D02*
X0128164Y0338471D01*
X0128066Y0338372D02*
X0126133Y0338372D01*
X0125895Y0338274D02*
X0127967Y0338274D01*
X0127869Y0338175D02*
X0125657Y0338175D01*
X0125419Y0338077D02*
X0127770Y0338077D01*
X0127672Y0337978D02*
X0125182Y0337978D01*
X0124944Y0337880D02*
X0127573Y0337880D01*
X0127530Y0337781D02*
X0124706Y0337781D01*
X0124468Y0337683D02*
X0127489Y0337683D01*
X0127448Y0337584D02*
X0118752Y0337584D01*
X0118793Y0337486D02*
X0127407Y0337486D01*
X0127366Y0337387D02*
X0118834Y0337387D01*
X0118874Y0337289D02*
X0127326Y0337289D01*
X0127285Y0337190D02*
X0118915Y0337190D01*
X0118956Y0337091D02*
X0127244Y0337091D01*
X0127203Y0336993D02*
X0118997Y0336993D01*
X0119038Y0336894D02*
X0127162Y0336894D01*
X0127122Y0336796D02*
X0119078Y0336796D01*
X0119119Y0336697D02*
X0127081Y0336697D01*
X0127040Y0336599D02*
X0119160Y0336599D01*
X0119201Y0336500D02*
X0126999Y0336500D01*
X0126958Y0336402D02*
X0119242Y0336402D01*
X0119282Y0336303D02*
X0126918Y0336303D01*
X0126877Y0336205D02*
X0119323Y0336205D01*
X0119364Y0336106D02*
X0126836Y0336106D01*
X0126795Y0336008D02*
X0119405Y0336008D01*
X0119446Y0335909D02*
X0126754Y0335909D01*
X0126714Y0335811D02*
X0119486Y0335811D01*
X0119527Y0335712D02*
X0126673Y0335712D01*
X0126632Y0335614D02*
X0119568Y0335614D01*
X0119609Y0335515D02*
X0126591Y0335515D01*
X0126575Y0335417D02*
X0119625Y0335417D01*
X0119625Y0335476D02*
X0118632Y0337875D01*
X0116796Y0339710D01*
X0114398Y0340703D01*
X0111802Y0340703D01*
X0109404Y0339710D01*
X0107568Y0337875D01*
X0106575Y0335476D01*
X0106575Y0332881D01*
X0107568Y0330482D01*
X0109404Y0328647D01*
X0111802Y0327653D01*
X0114398Y0327653D01*
X0116796Y0328647D01*
X0118632Y0330482D01*
X0119625Y0332881D01*
X0119625Y0335476D01*
X0119625Y0335318D02*
X0126575Y0335318D01*
X0126575Y0335220D02*
X0119625Y0335220D01*
X0119625Y0335121D02*
X0126575Y0335121D01*
X0126575Y0335023D02*
X0119625Y0335023D01*
X0119625Y0334924D02*
X0126575Y0334924D01*
X0126575Y0334826D02*
X0119625Y0334826D01*
X0119625Y0334727D02*
X0126575Y0334727D01*
X0126575Y0334629D02*
X0119625Y0334629D01*
X0119625Y0334530D02*
X0126575Y0334530D01*
X0126575Y0334432D02*
X0119625Y0334432D01*
X0119625Y0334333D02*
X0126575Y0334333D01*
X0126575Y0334235D02*
X0119625Y0334235D01*
X0119625Y0334136D02*
X0126575Y0334136D01*
X0126575Y0334038D02*
X0119625Y0334038D01*
X0119625Y0333939D02*
X0126575Y0333939D01*
X0126575Y0333841D02*
X0119625Y0333841D01*
X0119625Y0333742D02*
X0126575Y0333742D01*
X0126575Y0333644D02*
X0119625Y0333644D01*
X0119625Y0333545D02*
X0126575Y0333545D01*
X0126575Y0333447D02*
X0119625Y0333447D01*
X0119625Y0333348D02*
X0126575Y0333348D01*
X0126575Y0333250D02*
X0119625Y0333250D01*
X0119625Y0333151D02*
X0126575Y0333151D01*
X0126575Y0333053D02*
X0119625Y0333053D01*
X0119625Y0332954D02*
X0126575Y0332954D01*
X0126585Y0332855D02*
X0119615Y0332855D01*
X0119574Y0332757D02*
X0126626Y0332757D01*
X0126667Y0332658D02*
X0119533Y0332658D01*
X0119492Y0332560D02*
X0126708Y0332560D01*
X0126749Y0332461D02*
X0119451Y0332461D01*
X0119411Y0332363D02*
X0126789Y0332363D01*
X0126830Y0332264D02*
X0119370Y0332264D01*
X0119329Y0332166D02*
X0126871Y0332166D01*
X0126912Y0332067D02*
X0119288Y0332067D01*
X0119247Y0331969D02*
X0126953Y0331969D01*
X0126993Y0331870D02*
X0119207Y0331870D01*
X0119166Y0331772D02*
X0127034Y0331772D01*
X0127075Y0331673D02*
X0119125Y0331673D01*
X0119084Y0331575D02*
X0127116Y0331575D01*
X0127157Y0331476D02*
X0119043Y0331476D01*
X0119003Y0331378D02*
X0127197Y0331378D01*
X0127238Y0331279D02*
X0118962Y0331279D01*
X0118921Y0331181D02*
X0127279Y0331181D01*
X0127320Y0331082D02*
X0118880Y0331082D01*
X0118839Y0330984D02*
X0127361Y0330984D01*
X0127401Y0330885D02*
X0118799Y0330885D01*
X0118758Y0330787D02*
X0127442Y0330787D01*
X0127483Y0330688D02*
X0124435Y0330688D01*
X0124398Y0330703D02*
X0121802Y0330703D01*
X0119404Y0329710D01*
X0117568Y0327875D01*
X0116575Y0325476D01*
X0116575Y0322881D01*
X0117568Y0320482D01*
X0119404Y0318647D01*
X0121802Y0317653D01*
X0124398Y0317653D01*
X0126796Y0318647D01*
X0128632Y0320482D01*
X0129625Y0322881D01*
X0129625Y0325476D01*
X0128632Y0327875D01*
X0126796Y0329710D01*
X0124398Y0330703D01*
X0124672Y0330590D02*
X0127524Y0330590D01*
X0127565Y0330491D02*
X0124910Y0330491D01*
X0125148Y0330393D02*
X0127658Y0330393D01*
X0127757Y0330294D02*
X0125386Y0330294D01*
X0125624Y0330196D02*
X0127855Y0330196D01*
X0127954Y0330097D02*
X0125862Y0330097D01*
X0126099Y0329999D02*
X0128052Y0329999D01*
X0128151Y0329900D02*
X0126337Y0329900D01*
X0126575Y0329802D02*
X0128249Y0329802D01*
X0128348Y0329703D02*
X0126803Y0329703D01*
X0126902Y0329605D02*
X0128446Y0329605D01*
X0128545Y0329506D02*
X0127000Y0329506D01*
X0127099Y0329408D02*
X0128643Y0329408D01*
X0128742Y0329309D02*
X0127197Y0329309D01*
X0127296Y0329211D02*
X0128840Y0329211D01*
X0128939Y0329112D02*
X0127394Y0329112D01*
X0127493Y0329014D02*
X0129037Y0329014D01*
X0129136Y0328915D02*
X0127591Y0328915D01*
X0127690Y0328817D02*
X0129234Y0328817D01*
X0129333Y0328718D02*
X0127788Y0328718D01*
X0127887Y0328620D02*
X0129470Y0328620D01*
X0129708Y0328521D02*
X0127985Y0328521D01*
X0128084Y0328422D02*
X0129945Y0328422D01*
X0130183Y0328324D02*
X0128182Y0328324D01*
X0128281Y0328225D02*
X0130421Y0328225D01*
X0130659Y0328127D02*
X0128379Y0328127D01*
X0128478Y0328028D02*
X0130897Y0328028D01*
X0131135Y0327930D02*
X0128576Y0327930D01*
X0128650Y0327831D02*
X0131372Y0327831D01*
X0131610Y0327733D02*
X0128690Y0327733D01*
X0128731Y0327634D02*
X0137469Y0327634D01*
X0137428Y0327536D02*
X0128772Y0327536D01*
X0128813Y0327437D02*
X0137387Y0327437D01*
X0137346Y0327339D02*
X0128854Y0327339D01*
X0128894Y0327240D02*
X0137306Y0327240D01*
X0137265Y0327142D02*
X0128935Y0327142D01*
X0128976Y0327043D02*
X0137224Y0327043D01*
X0137183Y0326945D02*
X0129017Y0326945D01*
X0129058Y0326846D02*
X0137142Y0326846D01*
X0137102Y0326748D02*
X0129098Y0326748D01*
X0129139Y0326649D02*
X0137061Y0326649D01*
X0137020Y0326551D02*
X0129180Y0326551D01*
X0129221Y0326452D02*
X0136979Y0326452D01*
X0136938Y0326354D02*
X0129262Y0326354D01*
X0129302Y0326255D02*
X0136898Y0326255D01*
X0136857Y0326157D02*
X0129343Y0326157D01*
X0129384Y0326058D02*
X0136816Y0326058D01*
X0136775Y0325960D02*
X0129425Y0325960D01*
X0129466Y0325861D02*
X0136734Y0325861D01*
X0136694Y0325763D02*
X0129506Y0325763D01*
X0129547Y0325664D02*
X0136653Y0325664D01*
X0136612Y0325566D02*
X0129588Y0325566D01*
X0129625Y0325467D02*
X0136575Y0325467D01*
X0136575Y0325369D02*
X0129625Y0325369D01*
X0129625Y0325270D02*
X0136575Y0325270D01*
X0136575Y0325172D02*
X0129625Y0325172D01*
X0129625Y0325073D02*
X0136575Y0325073D01*
X0136575Y0324975D02*
X0129625Y0324975D01*
X0129625Y0324876D02*
X0136575Y0324876D01*
X0136575Y0324778D02*
X0129625Y0324778D01*
X0129625Y0324679D02*
X0136575Y0324679D01*
X0136575Y0324581D02*
X0129625Y0324581D01*
X0129625Y0324482D02*
X0136575Y0324482D01*
X0136575Y0324384D02*
X0129625Y0324384D01*
X0129625Y0324285D02*
X0136575Y0324285D01*
X0136575Y0324187D02*
X0129625Y0324187D01*
X0129625Y0324088D02*
X0136575Y0324088D01*
X0136575Y0323989D02*
X0129625Y0323989D01*
X0129625Y0323891D02*
X0136575Y0323891D01*
X0136575Y0323792D02*
X0129625Y0323792D01*
X0129625Y0323694D02*
X0136575Y0323694D01*
X0136575Y0323595D02*
X0129625Y0323595D01*
X0129625Y0323497D02*
X0136575Y0323497D01*
X0136575Y0323398D02*
X0129625Y0323398D01*
X0129625Y0323300D02*
X0136575Y0323300D01*
X0136575Y0323201D02*
X0129625Y0323201D01*
X0129625Y0323103D02*
X0136575Y0323103D01*
X0136575Y0323004D02*
X0129625Y0323004D01*
X0129625Y0322906D02*
X0136575Y0322906D01*
X0136605Y0322807D02*
X0129595Y0322807D01*
X0129554Y0322709D02*
X0136646Y0322709D01*
X0136687Y0322610D02*
X0129513Y0322610D01*
X0129472Y0322512D02*
X0136728Y0322512D01*
X0136769Y0322413D02*
X0129431Y0322413D01*
X0129391Y0322315D02*
X0136809Y0322315D01*
X0136850Y0322216D02*
X0129350Y0322216D01*
X0129309Y0322118D02*
X0136891Y0322118D01*
X0136932Y0322019D02*
X0129268Y0322019D01*
X0129227Y0321921D02*
X0136973Y0321921D01*
X0137013Y0321822D02*
X0129187Y0321822D01*
X0129146Y0321724D02*
X0137054Y0321724D01*
X0137095Y0321625D02*
X0129105Y0321625D01*
X0129064Y0321527D02*
X0137136Y0321527D01*
X0137177Y0321428D02*
X0129023Y0321428D01*
X0128983Y0321330D02*
X0137217Y0321330D01*
X0137258Y0321231D02*
X0128942Y0321231D01*
X0128901Y0321133D02*
X0137299Y0321133D01*
X0137340Y0321034D02*
X0128860Y0321034D01*
X0128819Y0320936D02*
X0137381Y0320936D01*
X0137421Y0320837D02*
X0128779Y0320837D01*
X0128738Y0320739D02*
X0137462Y0320739D01*
X0137503Y0320640D02*
X0134551Y0320640D01*
X0134789Y0320542D02*
X0137544Y0320542D01*
X0137608Y0320443D02*
X0135027Y0320443D01*
X0135264Y0320345D02*
X0137706Y0320345D01*
X0137805Y0320246D02*
X0135502Y0320246D01*
X0135740Y0320148D02*
X0137903Y0320148D01*
X0138002Y0320049D02*
X0135978Y0320049D01*
X0136216Y0319951D02*
X0138100Y0319951D01*
X0138199Y0319852D02*
X0136453Y0319852D01*
X0136691Y0319753D02*
X0138297Y0319753D01*
X0138396Y0319655D02*
X0136851Y0319655D01*
X0136950Y0319556D02*
X0138494Y0319556D01*
X0138593Y0319458D02*
X0137048Y0319458D01*
X0137147Y0319359D02*
X0138691Y0319359D01*
X0138790Y0319261D02*
X0137245Y0319261D01*
X0137344Y0319162D02*
X0138856Y0319162D01*
X0138758Y0319064D02*
X0137442Y0319064D01*
X0137541Y0318965D02*
X0138659Y0318965D01*
X0138561Y0318867D02*
X0137639Y0318867D01*
X0137738Y0318768D02*
X0138462Y0318768D01*
X0138364Y0318670D02*
X0137836Y0318670D01*
X0137935Y0318571D02*
X0138265Y0318571D01*
X0138167Y0318473D02*
X0138033Y0318473D01*
X0131649Y0320640D02*
X0128697Y0320640D01*
X0128656Y0320542D02*
X0131411Y0320542D01*
X0131173Y0320443D02*
X0128592Y0320443D01*
X0128494Y0320345D02*
X0130936Y0320345D01*
X0130698Y0320246D02*
X0128395Y0320246D01*
X0128297Y0320148D02*
X0130460Y0320148D01*
X0130222Y0320049D02*
X0128198Y0320049D01*
X0128100Y0319951D02*
X0129984Y0319951D01*
X0129747Y0319852D02*
X0128001Y0319852D01*
X0127903Y0319753D02*
X0129509Y0319753D01*
X0129349Y0319655D02*
X0127804Y0319655D01*
X0127706Y0319556D02*
X0129250Y0319556D01*
X0129152Y0319458D02*
X0127607Y0319458D01*
X0127509Y0319359D02*
X0129053Y0319359D01*
X0128955Y0319261D02*
X0127410Y0319261D01*
X0127312Y0319162D02*
X0128856Y0319162D01*
X0128758Y0319064D02*
X0127213Y0319064D01*
X0127115Y0318965D02*
X0128659Y0318965D01*
X0128561Y0318867D02*
X0127016Y0318867D01*
X0126918Y0318768D02*
X0128462Y0318768D01*
X0128364Y0318670D02*
X0126819Y0318670D01*
X0126614Y0318571D02*
X0128265Y0318571D01*
X0128167Y0318473D02*
X0126376Y0318473D01*
X0126138Y0318374D02*
X0128068Y0318374D01*
X0127970Y0318276D02*
X0125900Y0318276D01*
X0125663Y0318177D02*
X0127871Y0318177D01*
X0127773Y0318079D02*
X0125425Y0318079D01*
X0125187Y0317980D02*
X0127674Y0317980D01*
X0127576Y0317882D02*
X0124949Y0317882D01*
X0124711Y0317783D02*
X0127531Y0317783D01*
X0127490Y0317685D02*
X0124473Y0317685D01*
X0121727Y0317685D02*
X0118710Y0317685D01*
X0118669Y0317783D02*
X0121489Y0317783D01*
X0121251Y0317882D02*
X0118624Y0317882D01*
X0118526Y0317980D02*
X0121013Y0317980D01*
X0120775Y0318079D02*
X0118427Y0318079D01*
X0118329Y0318177D02*
X0120537Y0318177D01*
X0120300Y0318276D02*
X0118230Y0318276D01*
X0118132Y0318374D02*
X0120062Y0318374D01*
X0119824Y0318473D02*
X0118033Y0318473D01*
X0117935Y0318571D02*
X0119586Y0318571D01*
X0119381Y0318670D02*
X0117836Y0318670D01*
X0117738Y0318768D02*
X0119282Y0318768D01*
X0119184Y0318867D02*
X0117639Y0318867D01*
X0117541Y0318965D02*
X0119085Y0318965D01*
X0118987Y0319064D02*
X0117442Y0319064D01*
X0117344Y0319162D02*
X0118888Y0319162D01*
X0118790Y0319261D02*
X0117245Y0319261D01*
X0117147Y0319359D02*
X0118691Y0319359D01*
X0118593Y0319458D02*
X0117048Y0319458D01*
X0116950Y0319556D02*
X0118494Y0319556D01*
X0118396Y0319655D02*
X0116851Y0319655D01*
X0116691Y0319753D02*
X0118297Y0319753D01*
X0118199Y0319852D02*
X0116453Y0319852D01*
X0116216Y0319951D02*
X0118100Y0319951D01*
X0118002Y0320049D02*
X0115978Y0320049D01*
X0115740Y0320148D02*
X0117903Y0320148D01*
X0117805Y0320246D02*
X0115502Y0320246D01*
X0115264Y0320345D02*
X0117706Y0320345D01*
X0117608Y0320443D02*
X0115027Y0320443D01*
X0114789Y0320542D02*
X0117544Y0320542D01*
X0117503Y0320640D02*
X0114551Y0320640D01*
X0117054Y0321724D02*
X0109146Y0321724D01*
X0109187Y0321822D02*
X0117013Y0321822D01*
X0116973Y0321921D02*
X0109227Y0321921D01*
X0109268Y0322019D02*
X0116932Y0322019D01*
X0116891Y0322118D02*
X0109309Y0322118D01*
X0109350Y0322216D02*
X0116850Y0322216D01*
X0116809Y0322315D02*
X0109391Y0322315D01*
X0109431Y0322413D02*
X0116769Y0322413D01*
X0116728Y0322512D02*
X0109472Y0322512D01*
X0109513Y0322610D02*
X0116687Y0322610D01*
X0116646Y0322709D02*
X0109554Y0322709D01*
X0109595Y0322807D02*
X0116605Y0322807D01*
X0116575Y0322906D02*
X0109625Y0322906D01*
X0109625Y0322881D02*
X0108632Y0320482D01*
X0106796Y0318647D01*
X0104398Y0317653D01*
X0101802Y0317653D01*
X0099404Y0318647D01*
X0097568Y0320482D01*
X0096575Y0322881D01*
X0096575Y0325476D01*
X0097568Y0327875D01*
X0099404Y0329710D01*
X0101802Y0330703D01*
X0104398Y0330703D01*
X0106796Y0329710D01*
X0108632Y0327875D01*
X0109625Y0325476D01*
X0109625Y0322881D01*
X0109625Y0323004D02*
X0116575Y0323004D01*
X0116575Y0323103D02*
X0109625Y0323103D01*
X0109625Y0323201D02*
X0116575Y0323201D01*
X0116575Y0323300D02*
X0109625Y0323300D01*
X0109625Y0323398D02*
X0116575Y0323398D01*
X0116575Y0323497D02*
X0109625Y0323497D01*
X0109625Y0323595D02*
X0116575Y0323595D01*
X0116575Y0323694D02*
X0109625Y0323694D01*
X0109625Y0323792D02*
X0116575Y0323792D01*
X0116575Y0323891D02*
X0109625Y0323891D01*
X0109625Y0323989D02*
X0116575Y0323989D01*
X0116575Y0324088D02*
X0109625Y0324088D01*
X0109625Y0324187D02*
X0116575Y0324187D01*
X0116575Y0324285D02*
X0109625Y0324285D01*
X0109625Y0324384D02*
X0116575Y0324384D01*
X0116575Y0324482D02*
X0109625Y0324482D01*
X0109625Y0324581D02*
X0116575Y0324581D01*
X0116575Y0324679D02*
X0109625Y0324679D01*
X0109625Y0324778D02*
X0116575Y0324778D01*
X0116575Y0324876D02*
X0109625Y0324876D01*
X0109625Y0324975D02*
X0116575Y0324975D01*
X0116575Y0325073D02*
X0109625Y0325073D01*
X0109625Y0325172D02*
X0116575Y0325172D01*
X0116575Y0325270D02*
X0109625Y0325270D01*
X0109625Y0325369D02*
X0116575Y0325369D01*
X0116575Y0325467D02*
X0109625Y0325467D01*
X0109588Y0325566D02*
X0116612Y0325566D01*
X0116653Y0325664D02*
X0109547Y0325664D01*
X0109506Y0325763D02*
X0116694Y0325763D01*
X0116734Y0325861D02*
X0109466Y0325861D01*
X0109425Y0325960D02*
X0116775Y0325960D01*
X0116816Y0326058D02*
X0109384Y0326058D01*
X0109343Y0326157D02*
X0116857Y0326157D01*
X0116898Y0326255D02*
X0109302Y0326255D01*
X0109262Y0326354D02*
X0116938Y0326354D01*
X0116979Y0326452D02*
X0109221Y0326452D01*
X0109180Y0326551D02*
X0117020Y0326551D01*
X0117061Y0326649D02*
X0109139Y0326649D01*
X0109098Y0326748D02*
X0117102Y0326748D01*
X0117142Y0326846D02*
X0109058Y0326846D01*
X0109017Y0326945D02*
X0117183Y0326945D01*
X0117224Y0327043D02*
X0108976Y0327043D01*
X0108935Y0327142D02*
X0117265Y0327142D01*
X0117306Y0327240D02*
X0108894Y0327240D01*
X0108854Y0327339D02*
X0117346Y0327339D01*
X0117387Y0327437D02*
X0108813Y0327437D01*
X0108772Y0327536D02*
X0117428Y0327536D01*
X0117469Y0327634D02*
X0108731Y0327634D01*
X0108690Y0327733D02*
X0111610Y0327733D01*
X0111372Y0327831D02*
X0108650Y0327831D01*
X0108576Y0327930D02*
X0111135Y0327930D01*
X0110897Y0328028D02*
X0108478Y0328028D01*
X0108379Y0328127D02*
X0110659Y0328127D01*
X0110421Y0328225D02*
X0108281Y0328225D01*
X0108182Y0328324D02*
X0110183Y0328324D01*
X0109945Y0328422D02*
X0108084Y0328422D01*
X0107985Y0328521D02*
X0109708Y0328521D01*
X0109470Y0328620D02*
X0107887Y0328620D01*
X0107788Y0328718D02*
X0109333Y0328718D01*
X0109234Y0328817D02*
X0107690Y0328817D01*
X0107591Y0328915D02*
X0109136Y0328915D01*
X0109037Y0329014D02*
X0107493Y0329014D01*
X0107394Y0329112D02*
X0108939Y0329112D01*
X0108840Y0329211D02*
X0107296Y0329211D01*
X0107197Y0329309D02*
X0108742Y0329309D01*
X0108643Y0329408D02*
X0107099Y0329408D01*
X0107000Y0329506D02*
X0108545Y0329506D01*
X0108446Y0329605D02*
X0106902Y0329605D01*
X0106803Y0329703D02*
X0108348Y0329703D01*
X0108249Y0329802D02*
X0106575Y0329802D01*
X0106337Y0329900D02*
X0108151Y0329900D01*
X0108052Y0329999D02*
X0106099Y0329999D01*
X0105862Y0330097D02*
X0107954Y0330097D01*
X0107855Y0330196D02*
X0105624Y0330196D01*
X0105386Y0330294D02*
X0107757Y0330294D01*
X0107658Y0330393D02*
X0105148Y0330393D01*
X0104910Y0330491D02*
X0107565Y0330491D01*
X0107524Y0330590D02*
X0104672Y0330590D01*
X0104435Y0330688D02*
X0107483Y0330688D01*
X0107442Y0330787D02*
X0098758Y0330787D01*
X0098799Y0330885D02*
X0107401Y0330885D01*
X0107361Y0330984D02*
X0098839Y0330984D01*
X0098880Y0331082D02*
X0107320Y0331082D01*
X0107279Y0331181D02*
X0098921Y0331181D01*
X0098962Y0331279D02*
X0107238Y0331279D01*
X0107197Y0331378D02*
X0099003Y0331378D01*
X0099043Y0331476D02*
X0107157Y0331476D01*
X0107116Y0331575D02*
X0099084Y0331575D01*
X0099125Y0331673D02*
X0107075Y0331673D01*
X0107034Y0331772D02*
X0099166Y0331772D01*
X0099207Y0331870D02*
X0106993Y0331870D01*
X0106953Y0331969D02*
X0099247Y0331969D01*
X0099288Y0332067D02*
X0106912Y0332067D01*
X0106871Y0332166D02*
X0099329Y0332166D01*
X0099370Y0332264D02*
X0106830Y0332264D01*
X0106789Y0332363D02*
X0099411Y0332363D01*
X0099451Y0332461D02*
X0106749Y0332461D01*
X0106708Y0332560D02*
X0099492Y0332560D01*
X0099533Y0332658D02*
X0106667Y0332658D01*
X0106626Y0332757D02*
X0099574Y0332757D01*
X0099615Y0332855D02*
X0106585Y0332855D01*
X0106575Y0332954D02*
X0099625Y0332954D01*
X0099625Y0332881D02*
X0098632Y0330482D01*
X0096796Y0328647D01*
X0094398Y0327653D01*
X0091802Y0327653D01*
X0089404Y0328647D01*
X0087568Y0330482D01*
X0086575Y0332881D01*
X0086575Y0335476D01*
X0087568Y0337875D01*
X0089404Y0339710D01*
X0091802Y0340703D01*
X0094398Y0340703D01*
X0096796Y0339710D01*
X0098632Y0337875D01*
X0099625Y0335476D01*
X0099625Y0332881D01*
X0099625Y0333053D02*
X0106575Y0333053D01*
X0106575Y0333151D02*
X0099625Y0333151D01*
X0099625Y0333250D02*
X0106575Y0333250D01*
X0106575Y0333348D02*
X0099625Y0333348D01*
X0099625Y0333447D02*
X0106575Y0333447D01*
X0106575Y0333545D02*
X0099625Y0333545D01*
X0099625Y0333644D02*
X0106575Y0333644D01*
X0106575Y0333742D02*
X0099625Y0333742D01*
X0099625Y0333841D02*
X0106575Y0333841D01*
X0106575Y0333939D02*
X0099625Y0333939D01*
X0099625Y0334038D02*
X0106575Y0334038D01*
X0106575Y0334136D02*
X0099625Y0334136D01*
X0099625Y0334235D02*
X0106575Y0334235D01*
X0106575Y0334333D02*
X0099625Y0334333D01*
X0099625Y0334432D02*
X0106575Y0334432D01*
X0106575Y0334530D02*
X0099625Y0334530D01*
X0099625Y0334629D02*
X0106575Y0334629D01*
X0106575Y0334727D02*
X0099625Y0334727D01*
X0099625Y0334826D02*
X0106575Y0334826D01*
X0106575Y0334924D02*
X0099625Y0334924D01*
X0099625Y0335023D02*
X0106575Y0335023D01*
X0106575Y0335121D02*
X0099625Y0335121D01*
X0099625Y0335220D02*
X0106575Y0335220D01*
X0106575Y0335318D02*
X0099625Y0335318D01*
X0099625Y0335417D02*
X0106575Y0335417D01*
X0106591Y0335515D02*
X0099609Y0335515D01*
X0099568Y0335614D02*
X0106632Y0335614D01*
X0106673Y0335712D02*
X0099527Y0335712D01*
X0099486Y0335811D02*
X0106714Y0335811D01*
X0106754Y0335909D02*
X0099446Y0335909D01*
X0099405Y0336008D02*
X0106795Y0336008D01*
X0106836Y0336106D02*
X0099364Y0336106D01*
X0099323Y0336205D02*
X0106877Y0336205D01*
X0106918Y0336303D02*
X0099282Y0336303D01*
X0099242Y0336402D02*
X0106958Y0336402D01*
X0106999Y0336500D02*
X0099201Y0336500D01*
X0099160Y0336599D02*
X0107040Y0336599D01*
X0107081Y0336697D02*
X0099119Y0336697D01*
X0099078Y0336796D02*
X0107122Y0336796D01*
X0107162Y0336894D02*
X0099038Y0336894D01*
X0098997Y0336993D02*
X0107203Y0336993D01*
X0107244Y0337091D02*
X0098956Y0337091D01*
X0098915Y0337190D02*
X0107285Y0337190D01*
X0107326Y0337289D02*
X0098874Y0337289D01*
X0098834Y0337387D02*
X0107366Y0337387D01*
X0107407Y0337486D02*
X0098793Y0337486D01*
X0098752Y0337584D02*
X0107448Y0337584D01*
X0107489Y0337683D02*
X0104468Y0337683D01*
X0104706Y0337781D02*
X0107530Y0337781D01*
X0107573Y0337880D02*
X0104944Y0337880D01*
X0105182Y0337978D02*
X0107672Y0337978D01*
X0107770Y0338077D02*
X0105419Y0338077D01*
X0105657Y0338175D02*
X0107869Y0338175D01*
X0107967Y0338274D02*
X0105895Y0338274D01*
X0106133Y0338372D02*
X0108066Y0338372D01*
X0108164Y0338471D02*
X0106371Y0338471D01*
X0106609Y0338569D02*
X0108263Y0338569D01*
X0108361Y0338668D02*
X0106817Y0338668D01*
X0106915Y0338766D02*
X0108460Y0338766D01*
X0108558Y0338865D02*
X0107014Y0338865D01*
X0107112Y0338963D02*
X0108657Y0338963D01*
X0108755Y0339062D02*
X0107211Y0339062D01*
X0107309Y0339160D02*
X0108854Y0339160D01*
X0108953Y0339259D02*
X0107408Y0339259D01*
X0107507Y0339357D02*
X0109051Y0339357D01*
X0109150Y0339456D02*
X0107605Y0339456D01*
X0107704Y0339554D02*
X0109248Y0339554D01*
X0109347Y0339653D02*
X0107802Y0339653D01*
X0107901Y0339751D02*
X0109503Y0339751D01*
X0109741Y0339850D02*
X0107999Y0339850D01*
X0108098Y0339948D02*
X0109979Y0339948D01*
X0110217Y0340047D02*
X0108196Y0340047D01*
X0108295Y0340145D02*
X0110455Y0340145D01*
X0110692Y0340244D02*
X0108393Y0340244D01*
X0108492Y0340342D02*
X0110930Y0340342D01*
X0111168Y0340441D02*
X0108590Y0340441D01*
X0108655Y0340539D02*
X0111406Y0340539D01*
X0111644Y0340638D02*
X0108696Y0340638D01*
X0108737Y0340736D02*
X0117463Y0340736D01*
X0117504Y0340638D02*
X0114556Y0340638D01*
X0114794Y0340539D02*
X0117545Y0340539D01*
X0117610Y0340441D02*
X0115032Y0340441D01*
X0115270Y0340342D02*
X0117708Y0340342D01*
X0117807Y0340244D02*
X0115508Y0340244D01*
X0115745Y0340145D02*
X0117905Y0340145D01*
X0118004Y0340047D02*
X0115983Y0340047D01*
X0116221Y0339948D02*
X0118102Y0339948D01*
X0118201Y0339850D02*
X0116459Y0339850D01*
X0116697Y0339751D02*
X0118299Y0339751D01*
X0118398Y0339653D02*
X0116853Y0339653D01*
X0116952Y0339554D02*
X0118496Y0339554D01*
X0118595Y0339456D02*
X0117050Y0339456D01*
X0117149Y0339357D02*
X0118693Y0339357D01*
X0118792Y0339259D02*
X0117247Y0339259D01*
X0117346Y0339160D02*
X0118890Y0339160D01*
X0118989Y0339062D02*
X0117444Y0339062D01*
X0117543Y0338963D02*
X0119088Y0338963D01*
X0119186Y0338865D02*
X0117642Y0338865D01*
X0117740Y0338766D02*
X0119285Y0338766D01*
X0119383Y0338668D02*
X0117839Y0338668D01*
X0117937Y0338569D02*
X0119591Y0338569D01*
X0119829Y0338471D02*
X0118036Y0338471D01*
X0118134Y0338372D02*
X0120067Y0338372D01*
X0120305Y0338274D02*
X0118233Y0338274D01*
X0118331Y0338175D02*
X0120543Y0338175D01*
X0120781Y0338077D02*
X0118430Y0338077D01*
X0118528Y0337978D02*
X0121018Y0337978D01*
X0121256Y0337880D02*
X0118627Y0337880D01*
X0118670Y0337781D02*
X0121494Y0337781D01*
X0121732Y0337683D02*
X0118711Y0337683D01*
X0117422Y0340835D02*
X0108778Y0340835D01*
X0108818Y0340933D02*
X0117382Y0340933D01*
X0117341Y0341032D02*
X0108859Y0341032D01*
X0108900Y0341130D02*
X0117300Y0341130D01*
X0117259Y0341229D02*
X0108941Y0341229D01*
X0108982Y0341327D02*
X0117218Y0341327D01*
X0117177Y0341426D02*
X0109022Y0341426D01*
X0109063Y0341524D02*
X0117137Y0341524D01*
X0117096Y0341623D02*
X0109104Y0341623D01*
X0109145Y0341722D02*
X0117055Y0341722D01*
X0117014Y0341820D02*
X0109186Y0341820D01*
X0109227Y0341919D02*
X0116973Y0341919D01*
X0116933Y0342017D02*
X0109267Y0342017D01*
X0109308Y0342116D02*
X0116892Y0342116D01*
X0116851Y0342214D02*
X0109349Y0342214D01*
X0109390Y0342313D02*
X0116810Y0342313D01*
X0116769Y0342411D02*
X0109431Y0342411D01*
X0109471Y0342510D02*
X0116729Y0342510D01*
X0116688Y0342608D02*
X0109512Y0342608D01*
X0109553Y0342707D02*
X0116647Y0342707D01*
X0116606Y0342805D02*
X0109594Y0342805D01*
X0109625Y0342904D02*
X0116575Y0342904D01*
X0116575Y0343002D02*
X0109625Y0343002D01*
X0109625Y0343101D02*
X0116575Y0343101D01*
X0116575Y0343199D02*
X0109625Y0343199D01*
X0109625Y0343298D02*
X0116575Y0343298D01*
X0116575Y0343396D02*
X0109625Y0343396D01*
X0109625Y0343495D02*
X0116575Y0343495D01*
X0116575Y0343593D02*
X0109625Y0343593D01*
X0109625Y0343692D02*
X0116575Y0343692D01*
X0116575Y0343790D02*
X0109625Y0343790D01*
X0109625Y0343889D02*
X0116575Y0343889D01*
X0116575Y0343987D02*
X0109625Y0343987D01*
X0109625Y0344086D02*
X0116575Y0344086D01*
X0116575Y0344184D02*
X0109625Y0344184D01*
X0109625Y0344283D02*
X0116575Y0344283D01*
X0116575Y0344381D02*
X0109625Y0344381D01*
X0109625Y0344480D02*
X0116575Y0344480D01*
X0116575Y0344578D02*
X0109625Y0344578D01*
X0109625Y0344677D02*
X0116575Y0344677D01*
X0116575Y0344775D02*
X0109625Y0344775D01*
X0109625Y0344874D02*
X0116575Y0344874D01*
X0116575Y0344972D02*
X0109625Y0344972D01*
X0109625Y0345071D02*
X0116575Y0345071D01*
X0116575Y0345169D02*
X0109625Y0345169D01*
X0109625Y0345268D02*
X0116575Y0345268D01*
X0116575Y0345366D02*
X0109625Y0345366D01*
X0109625Y0345465D02*
X0116575Y0345465D01*
X0116611Y0345563D02*
X0109589Y0345563D01*
X0109548Y0345662D02*
X0116652Y0345662D01*
X0116693Y0345760D02*
X0109507Y0345760D01*
X0109467Y0345859D02*
X0116733Y0345859D01*
X0116774Y0345958D02*
X0109426Y0345958D01*
X0109385Y0346056D02*
X0116815Y0346056D01*
X0116856Y0346155D02*
X0109344Y0346155D01*
X0109303Y0346253D02*
X0116897Y0346253D01*
X0116938Y0346352D02*
X0109262Y0346352D01*
X0109222Y0346450D02*
X0116978Y0346450D01*
X0117019Y0346549D02*
X0109181Y0346549D01*
X0109140Y0346647D02*
X0117060Y0346647D01*
X0117101Y0346746D02*
X0109099Y0346746D01*
X0109058Y0346844D02*
X0117142Y0346844D01*
X0117182Y0346943D02*
X0109018Y0346943D01*
X0108977Y0347041D02*
X0117223Y0347041D01*
X0117264Y0347140D02*
X0108936Y0347140D01*
X0108895Y0347238D02*
X0117305Y0347238D01*
X0117346Y0347337D02*
X0108854Y0347337D01*
X0108814Y0347435D02*
X0117386Y0347435D01*
X0117427Y0347534D02*
X0108773Y0347534D01*
X0108732Y0347632D02*
X0117468Y0347632D01*
X0117509Y0347731D02*
X0108691Y0347731D01*
X0108650Y0347829D02*
X0117550Y0347829D01*
X0117622Y0347928D02*
X0108578Y0347928D01*
X0108480Y0348026D02*
X0117720Y0348026D01*
X0117819Y0348125D02*
X0108381Y0348125D01*
X0108283Y0348223D02*
X0117917Y0348223D01*
X0118016Y0348322D02*
X0108184Y0348322D01*
X0108086Y0348420D02*
X0118114Y0348420D01*
X0118213Y0348519D02*
X0107987Y0348519D01*
X0107889Y0348617D02*
X0118311Y0348617D01*
X0118410Y0348716D02*
X0107790Y0348716D01*
X0107692Y0348814D02*
X0118508Y0348814D01*
X0118607Y0348913D02*
X0107593Y0348913D01*
X0107495Y0349011D02*
X0118705Y0349011D01*
X0118804Y0349110D02*
X0107396Y0349110D01*
X0107298Y0349208D02*
X0118902Y0349208D01*
X0119001Y0349307D02*
X0107199Y0349307D01*
X0107101Y0349405D02*
X0119099Y0349405D01*
X0119198Y0349504D02*
X0107002Y0349504D01*
X0106904Y0349602D02*
X0119296Y0349602D01*
X0119395Y0349701D02*
X0106805Y0349701D01*
X0106580Y0349799D02*
X0119620Y0349799D01*
X0116911Y0349898D02*
X0106343Y0349898D01*
X0106105Y0349996D02*
X0114068Y0349996D01*
X0111225Y0350095D02*
X0105867Y0350095D01*
X0105629Y0350193D02*
X0108383Y0350193D01*
X0105540Y0350292D02*
X0105391Y0350292D01*
X0101047Y0350391D02*
X0085153Y0350391D01*
X0084916Y0350489D02*
X0099854Y0350489D01*
X0100095Y0349996D02*
X0086105Y0349996D01*
X0086343Y0349898D02*
X0099857Y0349898D01*
X0099620Y0349799D02*
X0086580Y0349799D01*
X0086796Y0349710D02*
X0084398Y0350703D01*
X0081802Y0350703D01*
X0079404Y0349710D01*
X0077568Y0347875D01*
X0076575Y0345476D01*
X0076575Y0342881D01*
X0077568Y0340482D01*
X0079404Y0338647D01*
X0081802Y0337653D01*
X0084398Y0337653D01*
X0086796Y0338647D01*
X0088632Y0340482D01*
X0089625Y0342881D01*
X0089625Y0345476D01*
X0088632Y0347875D01*
X0086796Y0349710D01*
X0086805Y0349701D02*
X0099395Y0349701D01*
X0099296Y0349602D02*
X0086904Y0349602D01*
X0087002Y0349504D02*
X0099198Y0349504D01*
X0099099Y0349405D02*
X0087101Y0349405D01*
X0087199Y0349307D02*
X0099001Y0349307D01*
X0098902Y0349208D02*
X0087298Y0349208D01*
X0087396Y0349110D02*
X0098804Y0349110D01*
X0098705Y0349011D02*
X0087495Y0349011D01*
X0087593Y0348913D02*
X0098607Y0348913D01*
X0098508Y0348814D02*
X0087692Y0348814D01*
X0087790Y0348716D02*
X0098410Y0348716D01*
X0098311Y0348617D02*
X0087889Y0348617D01*
X0087987Y0348519D02*
X0098213Y0348519D01*
X0098114Y0348420D02*
X0088086Y0348420D01*
X0088184Y0348322D02*
X0098016Y0348322D01*
X0097917Y0348223D02*
X0088283Y0348223D01*
X0088381Y0348125D02*
X0097819Y0348125D01*
X0097720Y0348026D02*
X0088480Y0348026D01*
X0088578Y0347928D02*
X0097622Y0347928D01*
X0097550Y0347829D02*
X0088650Y0347829D01*
X0088691Y0347731D02*
X0097509Y0347731D01*
X0097468Y0347632D02*
X0088732Y0347632D01*
X0088773Y0347534D02*
X0097427Y0347534D01*
X0097386Y0347435D02*
X0088814Y0347435D01*
X0088854Y0347337D02*
X0097346Y0347337D01*
X0097305Y0347238D02*
X0088895Y0347238D01*
X0088936Y0347140D02*
X0097264Y0347140D01*
X0097223Y0347041D02*
X0088977Y0347041D01*
X0089018Y0346943D02*
X0097182Y0346943D01*
X0097142Y0346844D02*
X0089058Y0346844D01*
X0089099Y0346746D02*
X0097101Y0346746D01*
X0097060Y0346647D02*
X0089140Y0346647D01*
X0089181Y0346549D02*
X0097019Y0346549D01*
X0096978Y0346450D02*
X0089222Y0346450D01*
X0089262Y0346352D02*
X0096938Y0346352D01*
X0096897Y0346253D02*
X0089303Y0346253D01*
X0089344Y0346155D02*
X0096856Y0346155D01*
X0096815Y0346056D02*
X0089385Y0346056D01*
X0089426Y0345958D02*
X0096774Y0345958D01*
X0096733Y0345859D02*
X0089467Y0345859D01*
X0089507Y0345760D02*
X0096693Y0345760D01*
X0096652Y0345662D02*
X0089548Y0345662D01*
X0089589Y0345563D02*
X0096611Y0345563D01*
X0096575Y0345465D02*
X0089625Y0345465D01*
X0089625Y0345366D02*
X0096575Y0345366D01*
X0096575Y0345268D02*
X0089625Y0345268D01*
X0089625Y0345169D02*
X0096575Y0345169D01*
X0096575Y0345071D02*
X0089625Y0345071D01*
X0089625Y0344972D02*
X0096575Y0344972D01*
X0096575Y0344874D02*
X0089625Y0344874D01*
X0089625Y0344775D02*
X0096575Y0344775D01*
X0096575Y0344677D02*
X0089625Y0344677D01*
X0089625Y0344578D02*
X0096575Y0344578D01*
X0096575Y0344480D02*
X0089625Y0344480D01*
X0089625Y0344381D02*
X0096575Y0344381D01*
X0096575Y0344283D02*
X0089625Y0344283D01*
X0089625Y0344184D02*
X0096575Y0344184D01*
X0096575Y0344086D02*
X0089625Y0344086D01*
X0089625Y0343987D02*
X0096575Y0343987D01*
X0096575Y0343889D02*
X0089625Y0343889D01*
X0089625Y0343790D02*
X0096575Y0343790D01*
X0096575Y0343692D02*
X0089625Y0343692D01*
X0089625Y0343593D02*
X0096575Y0343593D01*
X0096575Y0343495D02*
X0089625Y0343495D01*
X0089625Y0343396D02*
X0096575Y0343396D01*
X0096575Y0343298D02*
X0089625Y0343298D01*
X0089625Y0343199D02*
X0096575Y0343199D01*
X0096575Y0343101D02*
X0089625Y0343101D01*
X0089625Y0343002D02*
X0096575Y0343002D01*
X0096575Y0342904D02*
X0089625Y0342904D01*
X0089594Y0342805D02*
X0096606Y0342805D01*
X0096647Y0342707D02*
X0089553Y0342707D01*
X0089512Y0342608D02*
X0096688Y0342608D01*
X0096729Y0342510D02*
X0089471Y0342510D01*
X0089431Y0342411D02*
X0096769Y0342411D01*
X0096810Y0342313D02*
X0089390Y0342313D01*
X0089349Y0342214D02*
X0096851Y0342214D01*
X0096892Y0342116D02*
X0089308Y0342116D01*
X0089267Y0342017D02*
X0096933Y0342017D01*
X0096973Y0341919D02*
X0089227Y0341919D01*
X0089186Y0341820D02*
X0097014Y0341820D01*
X0097055Y0341722D02*
X0089145Y0341722D01*
X0089104Y0341623D02*
X0097096Y0341623D01*
X0097137Y0341524D02*
X0089063Y0341524D01*
X0089022Y0341426D02*
X0097177Y0341426D01*
X0097218Y0341327D02*
X0088982Y0341327D01*
X0088941Y0341229D02*
X0097259Y0341229D01*
X0097300Y0341130D02*
X0088900Y0341130D01*
X0088859Y0341032D02*
X0097341Y0341032D01*
X0097382Y0340933D02*
X0088818Y0340933D01*
X0088778Y0340835D02*
X0097422Y0340835D01*
X0097463Y0340736D02*
X0088737Y0340736D01*
X0088696Y0340638D02*
X0091644Y0340638D01*
X0091406Y0340539D02*
X0088655Y0340539D01*
X0088590Y0340441D02*
X0091168Y0340441D01*
X0090930Y0340342D02*
X0088492Y0340342D01*
X0088393Y0340244D02*
X0090692Y0340244D01*
X0090455Y0340145D02*
X0088295Y0340145D01*
X0088196Y0340047D02*
X0090217Y0340047D01*
X0089979Y0339948D02*
X0088098Y0339948D01*
X0087999Y0339850D02*
X0089741Y0339850D01*
X0089503Y0339751D02*
X0087901Y0339751D01*
X0087802Y0339653D02*
X0089347Y0339653D01*
X0089248Y0339554D02*
X0087704Y0339554D01*
X0087605Y0339456D02*
X0089150Y0339456D01*
X0089051Y0339357D02*
X0087507Y0339357D01*
X0087408Y0339259D02*
X0088953Y0339259D01*
X0088854Y0339160D02*
X0087309Y0339160D01*
X0087211Y0339062D02*
X0088755Y0339062D01*
X0088657Y0338963D02*
X0087112Y0338963D01*
X0087014Y0338865D02*
X0088558Y0338865D01*
X0088460Y0338766D02*
X0086915Y0338766D01*
X0086817Y0338668D02*
X0088361Y0338668D01*
X0088263Y0338569D02*
X0086609Y0338569D01*
X0086371Y0338471D02*
X0088164Y0338471D01*
X0088066Y0338372D02*
X0086133Y0338372D01*
X0085895Y0338274D02*
X0087967Y0338274D01*
X0087869Y0338175D02*
X0085657Y0338175D01*
X0085419Y0338077D02*
X0087770Y0338077D01*
X0087672Y0337978D02*
X0085182Y0337978D01*
X0084944Y0337880D02*
X0087573Y0337880D01*
X0087530Y0337781D02*
X0084706Y0337781D01*
X0084468Y0337683D02*
X0087489Y0337683D01*
X0087448Y0337584D02*
X0078752Y0337584D01*
X0078793Y0337486D02*
X0087407Y0337486D01*
X0087366Y0337387D02*
X0078834Y0337387D01*
X0078874Y0337289D02*
X0087326Y0337289D01*
X0087285Y0337190D02*
X0078915Y0337190D01*
X0078956Y0337091D02*
X0087244Y0337091D01*
X0087203Y0336993D02*
X0078997Y0336993D01*
X0079038Y0336894D02*
X0087162Y0336894D01*
X0087122Y0336796D02*
X0079078Y0336796D01*
X0079119Y0336697D02*
X0087081Y0336697D01*
X0087040Y0336599D02*
X0079160Y0336599D01*
X0079201Y0336500D02*
X0086999Y0336500D01*
X0086958Y0336402D02*
X0079242Y0336402D01*
X0079282Y0336303D02*
X0086918Y0336303D01*
X0086877Y0336205D02*
X0079323Y0336205D01*
X0079364Y0336106D02*
X0086836Y0336106D01*
X0086795Y0336008D02*
X0079405Y0336008D01*
X0079446Y0335909D02*
X0086754Y0335909D01*
X0086714Y0335811D02*
X0079486Y0335811D01*
X0079527Y0335712D02*
X0086673Y0335712D01*
X0086632Y0335614D02*
X0079568Y0335614D01*
X0079609Y0335515D02*
X0086591Y0335515D01*
X0086575Y0335417D02*
X0079625Y0335417D01*
X0079625Y0335476D02*
X0078632Y0337875D01*
X0076796Y0339710D01*
X0074398Y0340703D01*
X0071802Y0340703D01*
X0069404Y0339710D01*
X0067568Y0337875D01*
X0066575Y0335476D01*
X0066575Y0332881D01*
X0067568Y0330482D01*
X0069404Y0328647D01*
X0071802Y0327653D01*
X0074398Y0327653D01*
X0076796Y0328647D01*
X0078632Y0330482D01*
X0079625Y0332881D01*
X0079625Y0335476D01*
X0079625Y0335318D02*
X0086575Y0335318D01*
X0086575Y0335220D02*
X0079625Y0335220D01*
X0079625Y0335121D02*
X0086575Y0335121D01*
X0086575Y0335023D02*
X0079625Y0335023D01*
X0079625Y0334924D02*
X0086575Y0334924D01*
X0086575Y0334826D02*
X0079625Y0334826D01*
X0079625Y0334727D02*
X0086575Y0334727D01*
X0086575Y0334629D02*
X0079625Y0334629D01*
X0079625Y0334530D02*
X0086575Y0334530D01*
X0086575Y0334432D02*
X0079625Y0334432D01*
X0079625Y0334333D02*
X0086575Y0334333D01*
X0086575Y0334235D02*
X0079625Y0334235D01*
X0079625Y0334136D02*
X0086575Y0334136D01*
X0086575Y0334038D02*
X0079625Y0334038D01*
X0079625Y0333939D02*
X0086575Y0333939D01*
X0086575Y0333841D02*
X0079625Y0333841D01*
X0079625Y0333742D02*
X0086575Y0333742D01*
X0086575Y0333644D02*
X0079625Y0333644D01*
X0079625Y0333545D02*
X0086575Y0333545D01*
X0086575Y0333447D02*
X0079625Y0333447D01*
X0079625Y0333348D02*
X0086575Y0333348D01*
X0086575Y0333250D02*
X0079625Y0333250D01*
X0079625Y0333151D02*
X0086575Y0333151D01*
X0086575Y0333053D02*
X0079625Y0333053D01*
X0079625Y0332954D02*
X0086575Y0332954D01*
X0086585Y0332855D02*
X0079615Y0332855D01*
X0079574Y0332757D02*
X0086626Y0332757D01*
X0086667Y0332658D02*
X0079533Y0332658D01*
X0079492Y0332560D02*
X0086708Y0332560D01*
X0086749Y0332461D02*
X0079451Y0332461D01*
X0079411Y0332363D02*
X0086789Y0332363D01*
X0086830Y0332264D02*
X0079370Y0332264D01*
X0079329Y0332166D02*
X0086871Y0332166D01*
X0086912Y0332067D02*
X0079288Y0332067D01*
X0079247Y0331969D02*
X0086953Y0331969D01*
X0086993Y0331870D02*
X0079207Y0331870D01*
X0079166Y0331772D02*
X0087034Y0331772D01*
X0087075Y0331673D02*
X0079125Y0331673D01*
X0079084Y0331575D02*
X0087116Y0331575D01*
X0087157Y0331476D02*
X0079043Y0331476D01*
X0079003Y0331378D02*
X0087197Y0331378D01*
X0087238Y0331279D02*
X0078962Y0331279D01*
X0078921Y0331181D02*
X0087279Y0331181D01*
X0087320Y0331082D02*
X0078880Y0331082D01*
X0078839Y0330984D02*
X0087361Y0330984D01*
X0087401Y0330885D02*
X0078799Y0330885D01*
X0078758Y0330787D02*
X0087442Y0330787D01*
X0087483Y0330688D02*
X0084435Y0330688D01*
X0084398Y0330703D02*
X0081802Y0330703D01*
X0079404Y0329710D01*
X0077568Y0327875D01*
X0076575Y0325476D01*
X0076575Y0322881D01*
X0077568Y0320482D01*
X0079404Y0318647D01*
X0081802Y0317653D01*
X0084398Y0317653D01*
X0086796Y0318647D01*
X0088632Y0320482D01*
X0089625Y0322881D01*
X0089625Y0325476D01*
X0088632Y0327875D01*
X0086796Y0329710D01*
X0084398Y0330703D01*
X0084672Y0330590D02*
X0087524Y0330590D01*
X0087565Y0330491D02*
X0084910Y0330491D01*
X0085148Y0330393D02*
X0087658Y0330393D01*
X0087757Y0330294D02*
X0085386Y0330294D01*
X0085624Y0330196D02*
X0087855Y0330196D01*
X0087954Y0330097D02*
X0085862Y0330097D01*
X0086099Y0329999D02*
X0088052Y0329999D01*
X0088151Y0329900D02*
X0086337Y0329900D01*
X0086575Y0329802D02*
X0088249Y0329802D01*
X0088348Y0329703D02*
X0086803Y0329703D01*
X0086902Y0329605D02*
X0088446Y0329605D01*
X0088545Y0329506D02*
X0087000Y0329506D01*
X0087099Y0329408D02*
X0088643Y0329408D01*
X0088742Y0329309D02*
X0087197Y0329309D01*
X0087296Y0329211D02*
X0088840Y0329211D01*
X0088939Y0329112D02*
X0087394Y0329112D01*
X0087493Y0329014D02*
X0089037Y0329014D01*
X0089136Y0328915D02*
X0087591Y0328915D01*
X0087690Y0328817D02*
X0089234Y0328817D01*
X0089333Y0328718D02*
X0087788Y0328718D01*
X0087887Y0328620D02*
X0089470Y0328620D01*
X0089708Y0328521D02*
X0087985Y0328521D01*
X0088084Y0328422D02*
X0089945Y0328422D01*
X0090183Y0328324D02*
X0088182Y0328324D01*
X0088281Y0328225D02*
X0090421Y0328225D01*
X0090659Y0328127D02*
X0088379Y0328127D01*
X0088478Y0328028D02*
X0090897Y0328028D01*
X0091135Y0327930D02*
X0088576Y0327930D01*
X0088650Y0327831D02*
X0091372Y0327831D01*
X0091610Y0327733D02*
X0088690Y0327733D01*
X0088731Y0327634D02*
X0097469Y0327634D01*
X0097428Y0327536D02*
X0088772Y0327536D01*
X0088813Y0327437D02*
X0097387Y0327437D01*
X0097346Y0327339D02*
X0088854Y0327339D01*
X0088894Y0327240D02*
X0097306Y0327240D01*
X0097265Y0327142D02*
X0088935Y0327142D01*
X0088976Y0327043D02*
X0097224Y0327043D01*
X0097183Y0326945D02*
X0089017Y0326945D01*
X0089058Y0326846D02*
X0097142Y0326846D01*
X0097102Y0326748D02*
X0089098Y0326748D01*
X0089139Y0326649D02*
X0097061Y0326649D01*
X0097020Y0326551D02*
X0089180Y0326551D01*
X0089221Y0326452D02*
X0096979Y0326452D01*
X0096938Y0326354D02*
X0089262Y0326354D01*
X0089302Y0326255D02*
X0096898Y0326255D01*
X0096857Y0326157D02*
X0089343Y0326157D01*
X0089384Y0326058D02*
X0096816Y0326058D01*
X0096775Y0325960D02*
X0089425Y0325960D01*
X0089466Y0325861D02*
X0096734Y0325861D01*
X0096694Y0325763D02*
X0089506Y0325763D01*
X0089547Y0325664D02*
X0096653Y0325664D01*
X0096612Y0325566D02*
X0089588Y0325566D01*
X0089625Y0325467D02*
X0096575Y0325467D01*
X0096575Y0325369D02*
X0089625Y0325369D01*
X0089625Y0325270D02*
X0096575Y0325270D01*
X0096575Y0325172D02*
X0089625Y0325172D01*
X0089625Y0325073D02*
X0096575Y0325073D01*
X0096575Y0324975D02*
X0089625Y0324975D01*
X0089625Y0324876D02*
X0096575Y0324876D01*
X0096575Y0324778D02*
X0089625Y0324778D01*
X0089625Y0324679D02*
X0096575Y0324679D01*
X0096575Y0324581D02*
X0089625Y0324581D01*
X0089625Y0324482D02*
X0096575Y0324482D01*
X0096575Y0324384D02*
X0089625Y0324384D01*
X0089625Y0324285D02*
X0096575Y0324285D01*
X0096575Y0324187D02*
X0089625Y0324187D01*
X0089625Y0324088D02*
X0096575Y0324088D01*
X0096575Y0323989D02*
X0089625Y0323989D01*
X0089625Y0323891D02*
X0096575Y0323891D01*
X0096575Y0323792D02*
X0089625Y0323792D01*
X0089625Y0323694D02*
X0096575Y0323694D01*
X0096575Y0323595D02*
X0089625Y0323595D01*
X0089625Y0323497D02*
X0096575Y0323497D01*
X0096575Y0323398D02*
X0089625Y0323398D01*
X0089625Y0323300D02*
X0096575Y0323300D01*
X0096575Y0323201D02*
X0089625Y0323201D01*
X0089625Y0323103D02*
X0096575Y0323103D01*
X0096575Y0323004D02*
X0089625Y0323004D01*
X0089625Y0322906D02*
X0096575Y0322906D01*
X0096605Y0322807D02*
X0089595Y0322807D01*
X0089554Y0322709D02*
X0096646Y0322709D01*
X0096687Y0322610D02*
X0089513Y0322610D01*
X0089472Y0322512D02*
X0096728Y0322512D01*
X0096769Y0322413D02*
X0089431Y0322413D01*
X0089391Y0322315D02*
X0096809Y0322315D01*
X0096850Y0322216D02*
X0089350Y0322216D01*
X0089309Y0322118D02*
X0096891Y0322118D01*
X0096932Y0322019D02*
X0089268Y0322019D01*
X0089227Y0321921D02*
X0096973Y0321921D01*
X0097013Y0321822D02*
X0089187Y0321822D01*
X0089146Y0321724D02*
X0097054Y0321724D01*
X0097095Y0321625D02*
X0089105Y0321625D01*
X0089064Y0321527D02*
X0097136Y0321527D01*
X0097177Y0321428D02*
X0089023Y0321428D01*
X0088983Y0321330D02*
X0097217Y0321330D01*
X0097258Y0321231D02*
X0088942Y0321231D01*
X0088901Y0321133D02*
X0097299Y0321133D01*
X0097340Y0321034D02*
X0088860Y0321034D01*
X0088819Y0320936D02*
X0097381Y0320936D01*
X0097421Y0320837D02*
X0088779Y0320837D01*
X0088738Y0320739D02*
X0097462Y0320739D01*
X0097503Y0320640D02*
X0094551Y0320640D01*
X0094789Y0320542D02*
X0097544Y0320542D01*
X0097608Y0320443D02*
X0095027Y0320443D01*
X0095264Y0320345D02*
X0097706Y0320345D01*
X0097805Y0320246D02*
X0095502Y0320246D01*
X0095740Y0320148D02*
X0097903Y0320148D01*
X0098002Y0320049D02*
X0095978Y0320049D01*
X0096216Y0319951D02*
X0098100Y0319951D01*
X0098199Y0319852D02*
X0096453Y0319852D01*
X0096691Y0319753D02*
X0098297Y0319753D01*
X0098396Y0319655D02*
X0096851Y0319655D01*
X0096950Y0319556D02*
X0098494Y0319556D01*
X0098593Y0319458D02*
X0097048Y0319458D01*
X0097147Y0319359D02*
X0098691Y0319359D01*
X0098790Y0319261D02*
X0097245Y0319261D01*
X0097344Y0319162D02*
X0098888Y0319162D01*
X0098987Y0319064D02*
X0097442Y0319064D01*
X0097541Y0318965D02*
X0099085Y0318965D01*
X0099184Y0318867D02*
X0097639Y0318867D01*
X0097738Y0318768D02*
X0099282Y0318768D01*
X0099381Y0318670D02*
X0097836Y0318670D01*
X0097935Y0318571D02*
X0099586Y0318571D01*
X0099824Y0318473D02*
X0098033Y0318473D01*
X0098132Y0318374D02*
X0100062Y0318374D01*
X0100300Y0318276D02*
X0098230Y0318276D01*
X0098329Y0318177D02*
X0100537Y0318177D01*
X0100775Y0318079D02*
X0098427Y0318079D01*
X0098526Y0317980D02*
X0101013Y0317980D01*
X0101251Y0317882D02*
X0098624Y0317882D01*
X0098669Y0317783D02*
X0101489Y0317783D01*
X0101727Y0317685D02*
X0098710Y0317685D01*
X0098751Y0317586D02*
X0107449Y0317586D01*
X0107408Y0317488D02*
X0098792Y0317488D01*
X0098833Y0317389D02*
X0107367Y0317389D01*
X0107327Y0317291D02*
X0098873Y0317291D01*
X0098914Y0317192D02*
X0107286Y0317192D01*
X0107245Y0317094D02*
X0098955Y0317094D01*
X0098996Y0316995D02*
X0107204Y0316995D01*
X0107163Y0316897D02*
X0099037Y0316897D01*
X0099077Y0316798D02*
X0107123Y0316798D01*
X0107082Y0316700D02*
X0099118Y0316700D01*
X0099159Y0316601D02*
X0107041Y0316601D01*
X0107000Y0316503D02*
X0099200Y0316503D01*
X0099241Y0316404D02*
X0106959Y0316404D01*
X0106918Y0316306D02*
X0099282Y0316306D01*
X0099322Y0316207D02*
X0106878Y0316207D01*
X0106837Y0316109D02*
X0099363Y0316109D01*
X0099404Y0316010D02*
X0106796Y0316010D01*
X0106755Y0315912D02*
X0099445Y0315912D01*
X0099486Y0315813D02*
X0106714Y0315813D01*
X0106674Y0315715D02*
X0099526Y0315715D01*
X0099567Y0315616D02*
X0106633Y0315616D01*
X0106592Y0315518D02*
X0099608Y0315518D01*
X0099625Y0315419D02*
X0106575Y0315419D01*
X0106575Y0315320D02*
X0099625Y0315320D01*
X0099625Y0315222D02*
X0106575Y0315222D01*
X0106575Y0315123D02*
X0099625Y0315123D01*
X0099625Y0315025D02*
X0106575Y0315025D01*
X0106575Y0314926D02*
X0099625Y0314926D01*
X0099625Y0314828D02*
X0106575Y0314828D01*
X0106575Y0314729D02*
X0099625Y0314729D01*
X0099625Y0314631D02*
X0106575Y0314631D01*
X0106575Y0314532D02*
X0099625Y0314532D01*
X0099625Y0314434D02*
X0106575Y0314434D01*
X0106575Y0314335D02*
X0099625Y0314335D01*
X0099625Y0314237D02*
X0106575Y0314237D01*
X0106575Y0314138D02*
X0099625Y0314138D01*
X0099625Y0314040D02*
X0106575Y0314040D01*
X0106575Y0313941D02*
X0099625Y0313941D01*
X0099625Y0313843D02*
X0106575Y0313843D01*
X0106575Y0313744D02*
X0099625Y0313744D01*
X0099625Y0313646D02*
X0106575Y0313646D01*
X0106575Y0313547D02*
X0099625Y0313547D01*
X0099625Y0313449D02*
X0106575Y0313449D01*
X0106575Y0313350D02*
X0099625Y0313350D01*
X0099625Y0313252D02*
X0106575Y0313252D01*
X0106575Y0313153D02*
X0099625Y0313153D01*
X0099625Y0313055D02*
X0106575Y0313055D01*
X0106575Y0312956D02*
X0099625Y0312956D01*
X0099616Y0312858D02*
X0106584Y0312858D01*
X0106625Y0312759D02*
X0099575Y0312759D01*
X0099534Y0312661D02*
X0106666Y0312661D01*
X0106707Y0312562D02*
X0099493Y0312562D01*
X0099452Y0312464D02*
X0106748Y0312464D01*
X0106788Y0312365D02*
X0099411Y0312365D01*
X0099371Y0312267D02*
X0106829Y0312267D01*
X0106870Y0312168D02*
X0099330Y0312168D01*
X0099289Y0312070D02*
X0106911Y0312070D01*
X0106952Y0311971D02*
X0099248Y0311971D01*
X0099207Y0311873D02*
X0106993Y0311873D01*
X0107033Y0311774D02*
X0099167Y0311774D01*
X0099126Y0311676D02*
X0107074Y0311676D01*
X0107115Y0311577D02*
X0099085Y0311577D01*
X0099044Y0311479D02*
X0107156Y0311479D01*
X0107197Y0311380D02*
X0099003Y0311380D01*
X0098963Y0311282D02*
X0107237Y0311282D01*
X0107278Y0311183D02*
X0098922Y0311183D01*
X0098881Y0311084D02*
X0107319Y0311084D01*
X0107360Y0310986D02*
X0098840Y0310986D01*
X0098799Y0310887D02*
X0107401Y0310887D01*
X0107441Y0310789D02*
X0098759Y0310789D01*
X0098718Y0310690D02*
X0107482Y0310690D01*
X0107523Y0310592D02*
X0098677Y0310592D01*
X0098636Y0310493D02*
X0107564Y0310493D01*
X0107656Y0310395D02*
X0098544Y0310395D01*
X0098446Y0310296D02*
X0107754Y0310296D01*
X0107853Y0310198D02*
X0098347Y0310198D01*
X0098249Y0310099D02*
X0107951Y0310099D01*
X0108050Y0310001D02*
X0098150Y0310001D01*
X0098052Y0309902D02*
X0108148Y0309902D01*
X0108247Y0309804D02*
X0097953Y0309804D01*
X0097855Y0309705D02*
X0108345Y0309705D01*
X0108444Y0309607D02*
X0097756Y0309607D01*
X0097658Y0309508D02*
X0108542Y0309508D01*
X0108641Y0309410D02*
X0097559Y0309410D01*
X0097461Y0309311D02*
X0108739Y0309311D01*
X0108838Y0309213D02*
X0097362Y0309213D01*
X0097264Y0309114D02*
X0108936Y0309114D01*
X0109035Y0309016D02*
X0097165Y0309016D01*
X0097067Y0308917D02*
X0109133Y0308917D01*
X0117165Y0309016D02*
X0129035Y0309016D01*
X0128936Y0309114D02*
X0117264Y0309114D01*
X0117362Y0309213D02*
X0128838Y0309213D01*
X0128739Y0309311D02*
X0117461Y0309311D01*
X0117559Y0309410D02*
X0128641Y0309410D01*
X0128542Y0309508D02*
X0117658Y0309508D01*
X0117756Y0309607D02*
X0128444Y0309607D01*
X0128345Y0309705D02*
X0117855Y0309705D01*
X0117953Y0309804D02*
X0128247Y0309804D01*
X0128148Y0309902D02*
X0118052Y0309902D01*
X0118150Y0310001D02*
X0128050Y0310001D01*
X0127951Y0310099D02*
X0118249Y0310099D01*
X0118347Y0310198D02*
X0127853Y0310198D01*
X0127754Y0310296D02*
X0118446Y0310296D01*
X0118544Y0310395D02*
X0127656Y0310395D01*
X0127564Y0310493D02*
X0118636Y0310493D01*
X0118677Y0310592D02*
X0127523Y0310592D01*
X0127482Y0310690D02*
X0118718Y0310690D01*
X0118759Y0310789D02*
X0127441Y0310789D01*
X0127401Y0310887D02*
X0118799Y0310887D01*
X0118840Y0310986D02*
X0127360Y0310986D01*
X0127319Y0311084D02*
X0118881Y0311084D01*
X0118922Y0311183D02*
X0127278Y0311183D01*
X0127237Y0311282D02*
X0118963Y0311282D01*
X0119003Y0311380D02*
X0127197Y0311380D01*
X0127156Y0311479D02*
X0119044Y0311479D01*
X0119085Y0311577D02*
X0127115Y0311577D01*
X0127074Y0311676D02*
X0119126Y0311676D01*
X0119167Y0311774D02*
X0127033Y0311774D01*
X0126993Y0311873D02*
X0119207Y0311873D01*
X0119248Y0311971D02*
X0126952Y0311971D01*
X0126911Y0312070D02*
X0119289Y0312070D01*
X0119330Y0312168D02*
X0126870Y0312168D01*
X0126829Y0312267D02*
X0119371Y0312267D01*
X0119411Y0312365D02*
X0126788Y0312365D01*
X0126748Y0312464D02*
X0119452Y0312464D01*
X0119493Y0312562D02*
X0126707Y0312562D01*
X0126666Y0312661D02*
X0119534Y0312661D01*
X0119575Y0312759D02*
X0126625Y0312759D01*
X0126584Y0312858D02*
X0119616Y0312858D01*
X0119625Y0312956D02*
X0126575Y0312956D01*
X0126575Y0313055D02*
X0119625Y0313055D01*
X0119625Y0313153D02*
X0126575Y0313153D01*
X0126575Y0313252D02*
X0119625Y0313252D01*
X0119625Y0313350D02*
X0126575Y0313350D01*
X0126575Y0313449D02*
X0119625Y0313449D01*
X0119625Y0313547D02*
X0126575Y0313547D01*
X0126575Y0313646D02*
X0119625Y0313646D01*
X0119625Y0313744D02*
X0126575Y0313744D01*
X0126575Y0313843D02*
X0119625Y0313843D01*
X0119625Y0313941D02*
X0126575Y0313941D01*
X0126575Y0314040D02*
X0119625Y0314040D01*
X0119625Y0314138D02*
X0126575Y0314138D01*
X0126575Y0314237D02*
X0119625Y0314237D01*
X0119625Y0314335D02*
X0126575Y0314335D01*
X0126575Y0314434D02*
X0119625Y0314434D01*
X0119625Y0314532D02*
X0126575Y0314532D01*
X0126575Y0314631D02*
X0119625Y0314631D01*
X0119625Y0314729D02*
X0126575Y0314729D01*
X0126575Y0314828D02*
X0119625Y0314828D01*
X0119625Y0314926D02*
X0126575Y0314926D01*
X0126575Y0315025D02*
X0119625Y0315025D01*
X0119625Y0315123D02*
X0126575Y0315123D01*
X0126575Y0315222D02*
X0119625Y0315222D01*
X0119625Y0315320D02*
X0126575Y0315320D01*
X0126575Y0315419D02*
X0119625Y0315419D01*
X0119608Y0315518D02*
X0126592Y0315518D01*
X0126633Y0315616D02*
X0119567Y0315616D01*
X0119526Y0315715D02*
X0126674Y0315715D01*
X0126714Y0315813D02*
X0119486Y0315813D01*
X0119445Y0315912D02*
X0126755Y0315912D01*
X0126796Y0316010D02*
X0119404Y0316010D01*
X0119363Y0316109D02*
X0126837Y0316109D01*
X0126878Y0316207D02*
X0119322Y0316207D01*
X0119282Y0316306D02*
X0126918Y0316306D01*
X0126959Y0316404D02*
X0119241Y0316404D01*
X0119200Y0316503D02*
X0127000Y0316503D01*
X0127041Y0316601D02*
X0119159Y0316601D01*
X0119118Y0316700D02*
X0127082Y0316700D01*
X0127123Y0316798D02*
X0119077Y0316798D01*
X0119037Y0316897D02*
X0127163Y0316897D01*
X0127204Y0316995D02*
X0118996Y0316995D01*
X0118955Y0317094D02*
X0127245Y0317094D01*
X0127286Y0317192D02*
X0118914Y0317192D01*
X0118873Y0317291D02*
X0127327Y0317291D01*
X0127367Y0317389D02*
X0118833Y0317389D01*
X0118792Y0317488D02*
X0127408Y0317488D01*
X0127449Y0317586D02*
X0118751Y0317586D01*
X0117462Y0320739D02*
X0108738Y0320739D01*
X0108779Y0320837D02*
X0117421Y0320837D01*
X0117381Y0320936D02*
X0108819Y0320936D01*
X0108860Y0321034D02*
X0117340Y0321034D01*
X0117299Y0321133D02*
X0108901Y0321133D01*
X0108942Y0321231D02*
X0117258Y0321231D01*
X0117217Y0321330D02*
X0108983Y0321330D01*
X0109023Y0321428D02*
X0117177Y0321428D01*
X0117136Y0321527D02*
X0109064Y0321527D01*
X0109105Y0321625D02*
X0117095Y0321625D01*
X0111649Y0320640D02*
X0108697Y0320640D01*
X0108656Y0320542D02*
X0111411Y0320542D01*
X0111173Y0320443D02*
X0108592Y0320443D01*
X0108494Y0320345D02*
X0110936Y0320345D01*
X0110698Y0320246D02*
X0108395Y0320246D01*
X0108297Y0320148D02*
X0110460Y0320148D01*
X0110222Y0320049D02*
X0108198Y0320049D01*
X0108100Y0319951D02*
X0109984Y0319951D01*
X0109747Y0319852D02*
X0108001Y0319852D01*
X0107903Y0319753D02*
X0109509Y0319753D01*
X0109349Y0319655D02*
X0107804Y0319655D01*
X0107706Y0319556D02*
X0109250Y0319556D01*
X0109152Y0319458D02*
X0107607Y0319458D01*
X0107509Y0319359D02*
X0109053Y0319359D01*
X0108955Y0319261D02*
X0107410Y0319261D01*
X0107312Y0319162D02*
X0108856Y0319162D01*
X0108758Y0319064D02*
X0107213Y0319064D01*
X0107115Y0318965D02*
X0108659Y0318965D01*
X0108561Y0318867D02*
X0107016Y0318867D01*
X0106918Y0318768D02*
X0108462Y0318768D01*
X0108364Y0318670D02*
X0106819Y0318670D01*
X0106614Y0318571D02*
X0108265Y0318571D01*
X0108167Y0318473D02*
X0106376Y0318473D01*
X0106138Y0318374D02*
X0108068Y0318374D01*
X0107970Y0318276D02*
X0105900Y0318276D01*
X0105663Y0318177D02*
X0107871Y0318177D01*
X0107773Y0318079D02*
X0105425Y0318079D01*
X0105187Y0317980D02*
X0107674Y0317980D01*
X0107576Y0317882D02*
X0104949Y0317882D01*
X0104711Y0317783D02*
X0107531Y0317783D01*
X0107490Y0317685D02*
X0104473Y0317685D01*
X0097510Y0327733D02*
X0094590Y0327733D01*
X0094828Y0327831D02*
X0097550Y0327831D01*
X0097624Y0327930D02*
X0095065Y0327930D01*
X0095303Y0328028D02*
X0097722Y0328028D01*
X0097821Y0328127D02*
X0095541Y0328127D01*
X0095779Y0328225D02*
X0097919Y0328225D01*
X0098018Y0328324D02*
X0096017Y0328324D01*
X0096254Y0328422D02*
X0098116Y0328422D01*
X0098215Y0328521D02*
X0096492Y0328521D01*
X0096730Y0328620D02*
X0098313Y0328620D01*
X0098412Y0328718D02*
X0096867Y0328718D01*
X0096966Y0328817D02*
X0098510Y0328817D01*
X0098609Y0328915D02*
X0097064Y0328915D01*
X0097163Y0329014D02*
X0098707Y0329014D01*
X0098806Y0329112D02*
X0097261Y0329112D01*
X0097360Y0329211D02*
X0098904Y0329211D01*
X0099003Y0329309D02*
X0097458Y0329309D01*
X0097557Y0329408D02*
X0099101Y0329408D01*
X0099200Y0329506D02*
X0097655Y0329506D01*
X0097754Y0329605D02*
X0099298Y0329605D01*
X0099397Y0329703D02*
X0097852Y0329703D01*
X0097951Y0329802D02*
X0099625Y0329802D01*
X0099863Y0329900D02*
X0098049Y0329900D01*
X0098148Y0329999D02*
X0100101Y0329999D01*
X0100338Y0330097D02*
X0098246Y0330097D01*
X0098345Y0330196D02*
X0100576Y0330196D01*
X0100814Y0330294D02*
X0098443Y0330294D01*
X0098542Y0330393D02*
X0101052Y0330393D01*
X0101290Y0330491D02*
X0098635Y0330491D01*
X0098676Y0330590D02*
X0101528Y0330590D01*
X0101765Y0330688D02*
X0098717Y0330688D01*
X0098711Y0337683D02*
X0101732Y0337683D01*
X0101494Y0337781D02*
X0098670Y0337781D01*
X0098627Y0337880D02*
X0101256Y0337880D01*
X0101018Y0337978D02*
X0098528Y0337978D01*
X0098430Y0338077D02*
X0100781Y0338077D01*
X0100543Y0338175D02*
X0098331Y0338175D01*
X0098233Y0338274D02*
X0100305Y0338274D01*
X0100067Y0338372D02*
X0098134Y0338372D01*
X0098036Y0338471D02*
X0099829Y0338471D01*
X0099591Y0338569D02*
X0097937Y0338569D01*
X0097839Y0338668D02*
X0099383Y0338668D01*
X0099285Y0338766D02*
X0097740Y0338766D01*
X0097642Y0338865D02*
X0099186Y0338865D01*
X0099088Y0338963D02*
X0097543Y0338963D01*
X0097444Y0339062D02*
X0098989Y0339062D01*
X0098890Y0339160D02*
X0097346Y0339160D01*
X0097247Y0339259D02*
X0098792Y0339259D01*
X0098693Y0339357D02*
X0097149Y0339357D01*
X0097050Y0339456D02*
X0098595Y0339456D01*
X0098496Y0339554D02*
X0096952Y0339554D01*
X0096853Y0339653D02*
X0098398Y0339653D01*
X0098299Y0339751D02*
X0096697Y0339751D01*
X0096459Y0339850D02*
X0098201Y0339850D01*
X0098102Y0339948D02*
X0096221Y0339948D01*
X0095983Y0340047D02*
X0098004Y0340047D01*
X0097905Y0340145D02*
X0095745Y0340145D01*
X0095508Y0340244D02*
X0097807Y0340244D01*
X0097708Y0340342D02*
X0095270Y0340342D01*
X0095032Y0340441D02*
X0097610Y0340441D01*
X0097545Y0340539D02*
X0094794Y0340539D01*
X0094556Y0340638D02*
X0097504Y0340638D01*
X0100333Y0350095D02*
X0085867Y0350095D01*
X0085629Y0350193D02*
X0100571Y0350193D01*
X0100809Y0350292D02*
X0085391Y0350292D01*
X0085641Y0350982D02*
X0060034Y0350982D01*
X0060042Y0351080D02*
X0082798Y0351080D01*
X0081760Y0350686D02*
X0064440Y0350686D01*
X0064678Y0350588D02*
X0081522Y0350588D01*
X0081284Y0350489D02*
X0064916Y0350489D01*
X0065153Y0350391D02*
X0081047Y0350391D01*
X0080809Y0350292D02*
X0065391Y0350292D01*
X0065629Y0350193D02*
X0080571Y0350193D01*
X0080333Y0350095D02*
X0065867Y0350095D01*
X0066105Y0349996D02*
X0080095Y0349996D01*
X0079857Y0349898D02*
X0066343Y0349898D01*
X0066580Y0349799D02*
X0079620Y0349799D01*
X0079395Y0349701D02*
X0066805Y0349701D01*
X0066904Y0349602D02*
X0079296Y0349602D01*
X0079198Y0349504D02*
X0067002Y0349504D01*
X0067101Y0349405D02*
X0079099Y0349405D01*
X0079001Y0349307D02*
X0067199Y0349307D01*
X0067298Y0349208D02*
X0078902Y0349208D01*
X0078804Y0349110D02*
X0067396Y0349110D01*
X0067495Y0349011D02*
X0078705Y0349011D01*
X0078607Y0348913D02*
X0067593Y0348913D01*
X0067692Y0348814D02*
X0078508Y0348814D01*
X0078410Y0348716D02*
X0067790Y0348716D01*
X0067889Y0348617D02*
X0078311Y0348617D01*
X0078213Y0348519D02*
X0067987Y0348519D01*
X0068086Y0348420D02*
X0078114Y0348420D01*
X0078016Y0348322D02*
X0068184Y0348322D01*
X0068283Y0348223D02*
X0077917Y0348223D01*
X0077819Y0348125D02*
X0068381Y0348125D01*
X0068480Y0348026D02*
X0077720Y0348026D01*
X0077622Y0347928D02*
X0068578Y0347928D01*
X0068650Y0347829D02*
X0077550Y0347829D01*
X0077509Y0347731D02*
X0068691Y0347731D01*
X0068732Y0347632D02*
X0077468Y0347632D01*
X0077427Y0347534D02*
X0068773Y0347534D01*
X0068814Y0347435D02*
X0077386Y0347435D01*
X0077346Y0347337D02*
X0068854Y0347337D01*
X0068895Y0347238D02*
X0077305Y0347238D01*
X0077264Y0347140D02*
X0068936Y0347140D01*
X0068977Y0347041D02*
X0077223Y0347041D01*
X0077182Y0346943D02*
X0069018Y0346943D01*
X0069058Y0346844D02*
X0077142Y0346844D01*
X0077101Y0346746D02*
X0069099Y0346746D01*
X0069140Y0346647D02*
X0077060Y0346647D01*
X0077019Y0346549D02*
X0069181Y0346549D01*
X0069222Y0346450D02*
X0076978Y0346450D01*
X0076938Y0346352D02*
X0069262Y0346352D01*
X0069303Y0346253D02*
X0076897Y0346253D01*
X0076856Y0346155D02*
X0069344Y0346155D01*
X0069385Y0346056D02*
X0076815Y0346056D01*
X0076774Y0345958D02*
X0069426Y0345958D01*
X0069467Y0345859D02*
X0076733Y0345859D01*
X0076693Y0345760D02*
X0069507Y0345760D01*
X0069548Y0345662D02*
X0076652Y0345662D01*
X0076611Y0345563D02*
X0069589Y0345563D01*
X0069625Y0345465D02*
X0076575Y0345465D01*
X0076575Y0345366D02*
X0069625Y0345366D01*
X0069625Y0345268D02*
X0076575Y0345268D01*
X0076575Y0345169D02*
X0069625Y0345169D01*
X0069625Y0345071D02*
X0076575Y0345071D01*
X0076575Y0344972D02*
X0069625Y0344972D01*
X0069625Y0344874D02*
X0076575Y0344874D01*
X0076575Y0344775D02*
X0069625Y0344775D01*
X0069625Y0344677D02*
X0076575Y0344677D01*
X0076575Y0344578D02*
X0069625Y0344578D01*
X0069625Y0344480D02*
X0076575Y0344480D01*
X0076575Y0344381D02*
X0069625Y0344381D01*
X0069625Y0344283D02*
X0076575Y0344283D01*
X0076575Y0344184D02*
X0069625Y0344184D01*
X0069625Y0344086D02*
X0076575Y0344086D01*
X0076575Y0343987D02*
X0069625Y0343987D01*
X0069625Y0343889D02*
X0076575Y0343889D01*
X0076575Y0343790D02*
X0069625Y0343790D01*
X0069625Y0343692D02*
X0076575Y0343692D01*
X0076575Y0343593D02*
X0069625Y0343593D01*
X0069625Y0343495D02*
X0076575Y0343495D01*
X0076575Y0343396D02*
X0069625Y0343396D01*
X0069625Y0343298D02*
X0076575Y0343298D01*
X0076575Y0343199D02*
X0069625Y0343199D01*
X0069625Y0343101D02*
X0076575Y0343101D01*
X0076575Y0343002D02*
X0069625Y0343002D01*
X0069625Y0342904D02*
X0076575Y0342904D01*
X0076606Y0342805D02*
X0069594Y0342805D01*
X0069553Y0342707D02*
X0076647Y0342707D01*
X0076688Y0342608D02*
X0069512Y0342608D01*
X0069471Y0342510D02*
X0076729Y0342510D01*
X0076769Y0342411D02*
X0069431Y0342411D01*
X0069390Y0342313D02*
X0076810Y0342313D01*
X0076851Y0342214D02*
X0069349Y0342214D01*
X0069308Y0342116D02*
X0076892Y0342116D01*
X0076933Y0342017D02*
X0069267Y0342017D01*
X0069227Y0341919D02*
X0076973Y0341919D01*
X0077014Y0341820D02*
X0069186Y0341820D01*
X0069145Y0341722D02*
X0077055Y0341722D01*
X0077096Y0341623D02*
X0069104Y0341623D01*
X0069063Y0341524D02*
X0077137Y0341524D01*
X0077177Y0341426D02*
X0069022Y0341426D01*
X0068982Y0341327D02*
X0077218Y0341327D01*
X0077259Y0341229D02*
X0068941Y0341229D01*
X0068900Y0341130D02*
X0077300Y0341130D01*
X0077341Y0341032D02*
X0068859Y0341032D01*
X0068818Y0340933D02*
X0077382Y0340933D01*
X0077422Y0340835D02*
X0068778Y0340835D01*
X0068737Y0340736D02*
X0077463Y0340736D01*
X0077504Y0340638D02*
X0074556Y0340638D01*
X0074794Y0340539D02*
X0077545Y0340539D01*
X0077610Y0340441D02*
X0075032Y0340441D01*
X0075270Y0340342D02*
X0077708Y0340342D01*
X0077807Y0340244D02*
X0075508Y0340244D01*
X0075745Y0340145D02*
X0077905Y0340145D01*
X0078004Y0340047D02*
X0075983Y0340047D01*
X0076221Y0339948D02*
X0078102Y0339948D01*
X0078201Y0339850D02*
X0076459Y0339850D01*
X0076697Y0339751D02*
X0078299Y0339751D01*
X0078398Y0339653D02*
X0076853Y0339653D01*
X0076952Y0339554D02*
X0078496Y0339554D01*
X0078595Y0339456D02*
X0077050Y0339456D01*
X0077149Y0339357D02*
X0078693Y0339357D01*
X0078792Y0339259D02*
X0077247Y0339259D01*
X0077346Y0339160D02*
X0078890Y0339160D01*
X0078989Y0339062D02*
X0077444Y0339062D01*
X0077543Y0338963D02*
X0079088Y0338963D01*
X0079186Y0338865D02*
X0077642Y0338865D01*
X0077740Y0338766D02*
X0079285Y0338766D01*
X0079383Y0338668D02*
X0077839Y0338668D01*
X0077937Y0338569D02*
X0079591Y0338569D01*
X0079829Y0338471D02*
X0078036Y0338471D01*
X0078134Y0338372D02*
X0080067Y0338372D01*
X0080305Y0338274D02*
X0078233Y0338274D01*
X0078331Y0338175D02*
X0080543Y0338175D01*
X0080781Y0338077D02*
X0078430Y0338077D01*
X0078528Y0337978D02*
X0081018Y0337978D01*
X0081256Y0337880D02*
X0078627Y0337880D01*
X0078670Y0337781D02*
X0081494Y0337781D01*
X0081732Y0337683D02*
X0078711Y0337683D01*
X0078717Y0330688D02*
X0081765Y0330688D01*
X0081528Y0330590D02*
X0078676Y0330590D01*
X0078635Y0330491D02*
X0081290Y0330491D01*
X0081052Y0330393D02*
X0078542Y0330393D01*
X0078443Y0330294D02*
X0080814Y0330294D01*
X0080576Y0330196D02*
X0078345Y0330196D01*
X0078246Y0330097D02*
X0080338Y0330097D01*
X0080101Y0329999D02*
X0078148Y0329999D01*
X0078049Y0329900D02*
X0079863Y0329900D01*
X0079625Y0329802D02*
X0077951Y0329802D01*
X0077852Y0329703D02*
X0079397Y0329703D01*
X0079298Y0329605D02*
X0077754Y0329605D01*
X0077655Y0329506D02*
X0079200Y0329506D01*
X0079101Y0329408D02*
X0077557Y0329408D01*
X0077458Y0329309D02*
X0079003Y0329309D01*
X0078904Y0329211D02*
X0077360Y0329211D01*
X0077261Y0329112D02*
X0078806Y0329112D01*
X0078707Y0329014D02*
X0077163Y0329014D01*
X0077064Y0328915D02*
X0078609Y0328915D01*
X0078510Y0328817D02*
X0076966Y0328817D01*
X0076867Y0328718D02*
X0078412Y0328718D01*
X0078313Y0328620D02*
X0076730Y0328620D01*
X0076492Y0328521D02*
X0078215Y0328521D01*
X0078116Y0328422D02*
X0076254Y0328422D01*
X0076017Y0328324D02*
X0078018Y0328324D01*
X0077919Y0328225D02*
X0075779Y0328225D01*
X0075541Y0328127D02*
X0077821Y0328127D01*
X0077722Y0328028D02*
X0075303Y0328028D01*
X0075065Y0327930D02*
X0077624Y0327930D01*
X0077550Y0327831D02*
X0074828Y0327831D01*
X0074590Y0327733D02*
X0077510Y0327733D01*
X0077469Y0327634D02*
X0068731Y0327634D01*
X0068772Y0327536D02*
X0077428Y0327536D01*
X0077387Y0327437D02*
X0068813Y0327437D01*
X0068854Y0327339D02*
X0077346Y0327339D01*
X0077306Y0327240D02*
X0068894Y0327240D01*
X0068935Y0327142D02*
X0077265Y0327142D01*
X0077224Y0327043D02*
X0068976Y0327043D01*
X0069017Y0326945D02*
X0077183Y0326945D01*
X0077142Y0326846D02*
X0069058Y0326846D01*
X0069098Y0326748D02*
X0077102Y0326748D01*
X0077061Y0326649D02*
X0069139Y0326649D01*
X0069180Y0326551D02*
X0077020Y0326551D01*
X0076979Y0326452D02*
X0069221Y0326452D01*
X0069262Y0326354D02*
X0076938Y0326354D01*
X0076898Y0326255D02*
X0069302Y0326255D01*
X0069343Y0326157D02*
X0076857Y0326157D01*
X0076816Y0326058D02*
X0069384Y0326058D01*
X0069425Y0325960D02*
X0076775Y0325960D01*
X0076734Y0325861D02*
X0069466Y0325861D01*
X0069506Y0325763D02*
X0076694Y0325763D01*
X0076653Y0325664D02*
X0069547Y0325664D01*
X0069588Y0325566D02*
X0076612Y0325566D01*
X0076575Y0325467D02*
X0069625Y0325467D01*
X0069625Y0325369D02*
X0076575Y0325369D01*
X0076575Y0325270D02*
X0069625Y0325270D01*
X0069625Y0325172D02*
X0076575Y0325172D01*
X0076575Y0325073D02*
X0069625Y0325073D01*
X0069625Y0324975D02*
X0076575Y0324975D01*
X0076575Y0324876D02*
X0069625Y0324876D01*
X0069625Y0324778D02*
X0076575Y0324778D01*
X0076575Y0324679D02*
X0069625Y0324679D01*
X0069625Y0324581D02*
X0076575Y0324581D01*
X0076575Y0324482D02*
X0069625Y0324482D01*
X0069625Y0324384D02*
X0076575Y0324384D01*
X0076575Y0324285D02*
X0069625Y0324285D01*
X0069625Y0324187D02*
X0076575Y0324187D01*
X0076575Y0324088D02*
X0069625Y0324088D01*
X0069625Y0323989D02*
X0076575Y0323989D01*
X0076575Y0323891D02*
X0069625Y0323891D01*
X0069625Y0323792D02*
X0076575Y0323792D01*
X0076575Y0323694D02*
X0069625Y0323694D01*
X0069625Y0323595D02*
X0076575Y0323595D01*
X0076575Y0323497D02*
X0069625Y0323497D01*
X0069625Y0323398D02*
X0076575Y0323398D01*
X0076575Y0323300D02*
X0069625Y0323300D01*
X0069625Y0323201D02*
X0076575Y0323201D01*
X0076575Y0323103D02*
X0069625Y0323103D01*
X0069625Y0323004D02*
X0076575Y0323004D01*
X0076575Y0322906D02*
X0069625Y0322906D01*
X0069595Y0322807D02*
X0076605Y0322807D01*
X0076646Y0322709D02*
X0069554Y0322709D01*
X0069513Y0322610D02*
X0076687Y0322610D01*
X0076728Y0322512D02*
X0069472Y0322512D01*
X0069431Y0322413D02*
X0076769Y0322413D01*
X0076809Y0322315D02*
X0069391Y0322315D01*
X0069350Y0322216D02*
X0076850Y0322216D01*
X0076891Y0322118D02*
X0069309Y0322118D01*
X0069268Y0322019D02*
X0076932Y0322019D01*
X0076973Y0321921D02*
X0069227Y0321921D01*
X0069187Y0321822D02*
X0077013Y0321822D01*
X0077054Y0321724D02*
X0069146Y0321724D01*
X0069105Y0321625D02*
X0077095Y0321625D01*
X0077136Y0321527D02*
X0069064Y0321527D01*
X0069023Y0321428D02*
X0077177Y0321428D01*
X0077217Y0321330D02*
X0068983Y0321330D01*
X0068942Y0321231D02*
X0077258Y0321231D01*
X0077299Y0321133D02*
X0068901Y0321133D01*
X0068860Y0321034D02*
X0077340Y0321034D01*
X0077381Y0320936D02*
X0068819Y0320936D01*
X0068779Y0320837D02*
X0077421Y0320837D01*
X0077462Y0320739D02*
X0068738Y0320739D01*
X0068697Y0320640D02*
X0071649Y0320640D01*
X0071411Y0320542D02*
X0068656Y0320542D01*
X0068592Y0320443D02*
X0071173Y0320443D01*
X0070936Y0320345D02*
X0068494Y0320345D01*
X0068395Y0320246D02*
X0070698Y0320246D01*
X0070460Y0320148D02*
X0068297Y0320148D01*
X0068198Y0320049D02*
X0070222Y0320049D01*
X0069984Y0319951D02*
X0068100Y0319951D01*
X0068001Y0319852D02*
X0069747Y0319852D01*
X0069509Y0319753D02*
X0067903Y0319753D01*
X0067804Y0319655D02*
X0069349Y0319655D01*
X0069250Y0319556D02*
X0067706Y0319556D01*
X0067607Y0319458D02*
X0069152Y0319458D01*
X0069053Y0319359D02*
X0067509Y0319359D01*
X0067410Y0319261D02*
X0068955Y0319261D01*
X0068856Y0319162D02*
X0067312Y0319162D01*
X0067213Y0319064D02*
X0068758Y0319064D01*
X0068659Y0318965D02*
X0067115Y0318965D01*
X0067016Y0318867D02*
X0068561Y0318867D01*
X0068462Y0318768D02*
X0066918Y0318768D01*
X0066819Y0318670D02*
X0068364Y0318670D01*
X0068265Y0318571D02*
X0066614Y0318571D01*
X0066376Y0318473D02*
X0068167Y0318473D01*
X0068068Y0318374D02*
X0066138Y0318374D01*
X0065900Y0318276D02*
X0067970Y0318276D01*
X0067871Y0318177D02*
X0065663Y0318177D01*
X0065425Y0318079D02*
X0067773Y0318079D01*
X0067674Y0317980D02*
X0065187Y0317980D01*
X0064949Y0317882D02*
X0067576Y0317882D01*
X0067531Y0317783D02*
X0064711Y0317783D01*
X0064473Y0317685D02*
X0067490Y0317685D01*
X0067449Y0317586D02*
X0057561Y0317586D01*
X0057553Y0317488D02*
X0067408Y0317488D01*
X0067367Y0317389D02*
X0057546Y0317389D01*
X0057539Y0317291D02*
X0067327Y0317291D01*
X0067286Y0317192D02*
X0057532Y0317192D01*
X0057524Y0317094D02*
X0067245Y0317094D01*
X0067204Y0316995D02*
X0057517Y0316995D01*
X0057510Y0316897D02*
X0067163Y0316897D01*
X0067123Y0316798D02*
X0057502Y0316798D01*
X0057495Y0316700D02*
X0067082Y0316700D01*
X0067041Y0316601D02*
X0057488Y0316601D01*
X0057480Y0316503D02*
X0067000Y0316503D01*
X0066959Y0316404D02*
X0057473Y0316404D01*
X0057466Y0316306D02*
X0066918Y0316306D01*
X0066878Y0316207D02*
X0057459Y0316207D01*
X0057451Y0316109D02*
X0066837Y0316109D01*
X0066796Y0316010D02*
X0057444Y0316010D01*
X0057437Y0315912D02*
X0066755Y0315912D01*
X0066714Y0315813D02*
X0057429Y0315813D01*
X0057422Y0315715D02*
X0066674Y0315715D01*
X0066633Y0315616D02*
X0057415Y0315616D01*
X0057407Y0315518D02*
X0066592Y0315518D01*
X0066575Y0315419D02*
X0057400Y0315419D01*
X0057393Y0315320D02*
X0066575Y0315320D01*
X0066575Y0315222D02*
X0057386Y0315222D01*
X0057378Y0315123D02*
X0066575Y0315123D01*
X0066575Y0315025D02*
X0057371Y0315025D01*
X0057364Y0314926D02*
X0066575Y0314926D01*
X0066575Y0314828D02*
X0057356Y0314828D01*
X0057349Y0314729D02*
X0066575Y0314729D01*
X0066575Y0314631D02*
X0057342Y0314631D01*
X0057334Y0314532D02*
X0066575Y0314532D01*
X0066575Y0314434D02*
X0057327Y0314434D01*
X0057320Y0314335D02*
X0066575Y0314335D01*
X0066575Y0314237D02*
X0057313Y0314237D01*
X0057305Y0314138D02*
X0066575Y0314138D01*
X0066575Y0314040D02*
X0057298Y0314040D01*
X0057291Y0313941D02*
X0066575Y0313941D01*
X0066575Y0313843D02*
X0057283Y0313843D01*
X0057276Y0313744D02*
X0066575Y0313744D01*
X0066575Y0313646D02*
X0057269Y0313646D01*
X0057262Y0313547D02*
X0066575Y0313547D01*
X0066575Y0313449D02*
X0057254Y0313449D01*
X0057247Y0313350D02*
X0066575Y0313350D01*
X0066575Y0313252D02*
X0057240Y0313252D01*
X0057232Y0313153D02*
X0066575Y0313153D01*
X0066575Y0313055D02*
X0057225Y0313055D01*
X0057218Y0312956D02*
X0066575Y0312956D01*
X0066584Y0312858D02*
X0057210Y0312858D01*
X0057203Y0312759D02*
X0066625Y0312759D01*
X0066666Y0312661D02*
X0057196Y0312661D01*
X0057189Y0312562D02*
X0066707Y0312562D01*
X0066748Y0312464D02*
X0057181Y0312464D01*
X0057174Y0312365D02*
X0066788Y0312365D01*
X0066829Y0312267D02*
X0057167Y0312267D01*
X0057159Y0312168D02*
X0066870Y0312168D01*
X0066911Y0312070D02*
X0057152Y0312070D01*
X0057145Y0311971D02*
X0066952Y0311971D01*
X0066993Y0311873D02*
X0057137Y0311873D01*
X0057130Y0311774D02*
X0067033Y0311774D01*
X0067074Y0311676D02*
X0057123Y0311676D01*
X0057116Y0311577D02*
X0067115Y0311577D01*
X0067156Y0311479D02*
X0057108Y0311479D01*
X0057101Y0311380D02*
X0067197Y0311380D01*
X0067237Y0311282D02*
X0057094Y0311282D01*
X0057086Y0311183D02*
X0067278Y0311183D01*
X0067319Y0311084D02*
X0057079Y0311084D01*
X0057072Y0310986D02*
X0067360Y0310986D01*
X0067401Y0310887D02*
X0057064Y0310887D01*
X0057057Y0310789D02*
X0067441Y0310789D01*
X0067482Y0310690D02*
X0057050Y0310690D01*
X0057043Y0310592D02*
X0067523Y0310592D01*
X0067564Y0310493D02*
X0057035Y0310493D01*
X0057028Y0310395D02*
X0067656Y0310395D01*
X0067754Y0310296D02*
X0057021Y0310296D01*
X0057013Y0310198D02*
X0067853Y0310198D01*
X0067951Y0310099D02*
X0057006Y0310099D01*
X0056999Y0310001D02*
X0068050Y0310001D01*
X0068148Y0309902D02*
X0056992Y0309902D01*
X0056984Y0309804D02*
X0068247Y0309804D01*
X0068345Y0309705D02*
X0056977Y0309705D01*
X0056970Y0309607D02*
X0068444Y0309607D01*
X0068542Y0309508D02*
X0056962Y0309508D01*
X0056955Y0309410D02*
X0068641Y0309410D01*
X0068739Y0309311D02*
X0056948Y0309311D01*
X0056940Y0309213D02*
X0068838Y0309213D01*
X0068936Y0309114D02*
X0056933Y0309114D01*
X0056926Y0309016D02*
X0069035Y0309016D01*
X0069133Y0308917D02*
X0056919Y0308917D01*
X0056911Y0308819D02*
X0069232Y0308819D01*
X0068149Y0308720D02*
X0056904Y0308720D01*
X0057568Y0317685D02*
X0061727Y0317685D01*
X0061489Y0317783D02*
X0057575Y0317783D01*
X0057583Y0317882D02*
X0061251Y0317882D01*
X0061013Y0317980D02*
X0057590Y0317980D01*
X0057597Y0318079D02*
X0060775Y0318079D01*
X0060537Y0318177D02*
X0057604Y0318177D01*
X0057612Y0318276D02*
X0060300Y0318276D01*
X0060062Y0318374D02*
X0057619Y0318374D01*
X0057626Y0318473D02*
X0059824Y0318473D01*
X0059586Y0318571D02*
X0057634Y0318571D01*
X0057641Y0318670D02*
X0059381Y0318670D01*
X0059282Y0318768D02*
X0057648Y0318768D01*
X0057656Y0318867D02*
X0059184Y0318867D01*
X0059085Y0318965D02*
X0057663Y0318965D01*
X0057670Y0319064D02*
X0058987Y0319064D01*
X0058888Y0319162D02*
X0057677Y0319162D01*
X0057685Y0319261D02*
X0058790Y0319261D01*
X0058691Y0319359D02*
X0057692Y0319359D01*
X0057699Y0319458D02*
X0058593Y0319458D01*
X0058494Y0319556D02*
X0057707Y0319556D01*
X0057714Y0319655D02*
X0058396Y0319655D01*
X0058297Y0319753D02*
X0057721Y0319753D01*
X0057729Y0319852D02*
X0058199Y0319852D01*
X0058100Y0319951D02*
X0057736Y0319951D01*
X0057743Y0320049D02*
X0058002Y0320049D01*
X0057903Y0320148D02*
X0057750Y0320148D01*
X0057758Y0320246D02*
X0057805Y0320246D01*
X0068690Y0327733D02*
X0071610Y0327733D01*
X0071372Y0327831D02*
X0068650Y0327831D01*
X0068576Y0327930D02*
X0071135Y0327930D01*
X0070897Y0328028D02*
X0068478Y0328028D01*
X0068379Y0328127D02*
X0070659Y0328127D01*
X0070421Y0328225D02*
X0068281Y0328225D01*
X0068182Y0328324D02*
X0070183Y0328324D01*
X0069945Y0328422D02*
X0068084Y0328422D01*
X0067985Y0328521D02*
X0069708Y0328521D01*
X0069470Y0328620D02*
X0067887Y0328620D01*
X0067788Y0328718D02*
X0069333Y0328718D01*
X0069234Y0328817D02*
X0067690Y0328817D01*
X0067591Y0328915D02*
X0069136Y0328915D01*
X0069037Y0329014D02*
X0067493Y0329014D01*
X0067394Y0329112D02*
X0068939Y0329112D01*
X0068840Y0329211D02*
X0067296Y0329211D01*
X0067197Y0329309D02*
X0068742Y0329309D01*
X0068643Y0329408D02*
X0067099Y0329408D01*
X0067000Y0329506D02*
X0068545Y0329506D01*
X0068446Y0329605D02*
X0066902Y0329605D01*
X0066803Y0329703D02*
X0068348Y0329703D01*
X0068249Y0329802D02*
X0066575Y0329802D01*
X0066337Y0329900D02*
X0068151Y0329900D01*
X0068052Y0329999D02*
X0066099Y0329999D01*
X0065862Y0330097D02*
X0067954Y0330097D01*
X0067855Y0330196D02*
X0065624Y0330196D01*
X0065386Y0330294D02*
X0067757Y0330294D01*
X0067658Y0330393D02*
X0065148Y0330393D01*
X0064910Y0330491D02*
X0067565Y0330491D01*
X0067524Y0330590D02*
X0064672Y0330590D01*
X0064435Y0330688D02*
X0067483Y0330688D01*
X0067442Y0330787D02*
X0058539Y0330787D01*
X0058546Y0330885D02*
X0067401Y0330885D01*
X0067361Y0330984D02*
X0058553Y0330984D01*
X0058560Y0331082D02*
X0067320Y0331082D01*
X0067279Y0331181D02*
X0058568Y0331181D01*
X0058575Y0331279D02*
X0067238Y0331279D01*
X0067197Y0331378D02*
X0058582Y0331378D01*
X0058590Y0331476D02*
X0067157Y0331476D01*
X0067116Y0331575D02*
X0058597Y0331575D01*
X0058604Y0331673D02*
X0067075Y0331673D01*
X0067034Y0331772D02*
X0058611Y0331772D01*
X0058619Y0331870D02*
X0066993Y0331870D01*
X0066953Y0331969D02*
X0058626Y0331969D01*
X0058633Y0332067D02*
X0066912Y0332067D01*
X0066871Y0332166D02*
X0058641Y0332166D01*
X0058648Y0332264D02*
X0066830Y0332264D01*
X0066789Y0332363D02*
X0058655Y0332363D01*
X0058663Y0332461D02*
X0066749Y0332461D01*
X0066708Y0332560D02*
X0058670Y0332560D01*
X0058677Y0332658D02*
X0066667Y0332658D01*
X0066626Y0332757D02*
X0058684Y0332757D01*
X0058692Y0332855D02*
X0066585Y0332855D01*
X0066575Y0332954D02*
X0058699Y0332954D01*
X0058706Y0333053D02*
X0066575Y0333053D01*
X0066575Y0333151D02*
X0058714Y0333151D01*
X0058721Y0333250D02*
X0066575Y0333250D01*
X0066575Y0333348D02*
X0058728Y0333348D01*
X0058736Y0333447D02*
X0066575Y0333447D01*
X0066575Y0333545D02*
X0058743Y0333545D01*
X0058750Y0333644D02*
X0066575Y0333644D01*
X0066575Y0333742D02*
X0058757Y0333742D01*
X0058765Y0333841D02*
X0066575Y0333841D01*
X0066575Y0333939D02*
X0058772Y0333939D01*
X0058779Y0334038D02*
X0066575Y0334038D01*
X0066575Y0334136D02*
X0058787Y0334136D01*
X0058794Y0334235D02*
X0066575Y0334235D01*
X0066575Y0334333D02*
X0058801Y0334333D01*
X0058809Y0334432D02*
X0066575Y0334432D01*
X0066575Y0334530D02*
X0058816Y0334530D01*
X0058823Y0334629D02*
X0066575Y0334629D01*
X0066575Y0334727D02*
X0058830Y0334727D01*
X0058838Y0334826D02*
X0066575Y0334826D01*
X0066575Y0334924D02*
X0058845Y0334924D01*
X0058852Y0335023D02*
X0066575Y0335023D01*
X0066575Y0335121D02*
X0058860Y0335121D01*
X0058867Y0335220D02*
X0066575Y0335220D01*
X0066575Y0335318D02*
X0058874Y0335318D01*
X0058881Y0335417D02*
X0066575Y0335417D01*
X0066591Y0335515D02*
X0058889Y0335515D01*
X0058896Y0335614D02*
X0066632Y0335614D01*
X0066673Y0335712D02*
X0058903Y0335712D01*
X0058911Y0335811D02*
X0066714Y0335811D01*
X0066754Y0335909D02*
X0058918Y0335909D01*
X0058925Y0336008D02*
X0066795Y0336008D01*
X0066836Y0336106D02*
X0058933Y0336106D01*
X0058940Y0336205D02*
X0066877Y0336205D01*
X0066918Y0336303D02*
X0058947Y0336303D01*
X0058954Y0336402D02*
X0066958Y0336402D01*
X0066999Y0336500D02*
X0058962Y0336500D01*
X0058969Y0336599D02*
X0067040Y0336599D01*
X0067081Y0336697D02*
X0058976Y0336697D01*
X0058984Y0336796D02*
X0067122Y0336796D01*
X0067162Y0336894D02*
X0058991Y0336894D01*
X0058998Y0336993D02*
X0067203Y0336993D01*
X0067244Y0337091D02*
X0059006Y0337091D01*
X0059013Y0337190D02*
X0067285Y0337190D01*
X0067326Y0337289D02*
X0059020Y0337289D01*
X0059027Y0337387D02*
X0067366Y0337387D01*
X0067407Y0337486D02*
X0059035Y0337486D01*
X0059042Y0337584D02*
X0067448Y0337584D01*
X0067489Y0337683D02*
X0064468Y0337683D01*
X0064706Y0337781D02*
X0067530Y0337781D01*
X0067573Y0337880D02*
X0064944Y0337880D01*
X0065182Y0337978D02*
X0067672Y0337978D01*
X0067770Y0338077D02*
X0065419Y0338077D01*
X0065657Y0338175D02*
X0067869Y0338175D01*
X0067967Y0338274D02*
X0065895Y0338274D01*
X0066133Y0338372D02*
X0068066Y0338372D01*
X0068164Y0338471D02*
X0066371Y0338471D01*
X0066609Y0338569D02*
X0068263Y0338569D01*
X0068361Y0338668D02*
X0066817Y0338668D01*
X0066915Y0338766D02*
X0068460Y0338766D01*
X0068558Y0338865D02*
X0067014Y0338865D01*
X0067112Y0338963D02*
X0068657Y0338963D01*
X0068755Y0339062D02*
X0067211Y0339062D01*
X0067309Y0339160D02*
X0068854Y0339160D01*
X0068953Y0339259D02*
X0067408Y0339259D01*
X0067507Y0339357D02*
X0069051Y0339357D01*
X0069150Y0339456D02*
X0067605Y0339456D01*
X0067704Y0339554D02*
X0069248Y0339554D01*
X0069347Y0339653D02*
X0067802Y0339653D01*
X0067901Y0339751D02*
X0069503Y0339751D01*
X0069741Y0339850D02*
X0067999Y0339850D01*
X0068098Y0339948D02*
X0069979Y0339948D01*
X0070217Y0340047D02*
X0068196Y0340047D01*
X0068295Y0340145D02*
X0070455Y0340145D01*
X0070692Y0340244D02*
X0068393Y0340244D01*
X0068492Y0340342D02*
X0070930Y0340342D01*
X0071168Y0340441D02*
X0068590Y0340441D01*
X0068655Y0340539D02*
X0071406Y0340539D01*
X0071644Y0340638D02*
X0068696Y0340638D01*
X0061732Y0337683D02*
X0059049Y0337683D01*
X0059057Y0337781D02*
X0061494Y0337781D01*
X0061256Y0337880D02*
X0059064Y0337880D01*
X0059071Y0337978D02*
X0061018Y0337978D01*
X0060781Y0338077D02*
X0059079Y0338077D01*
X0059086Y0338175D02*
X0060543Y0338175D01*
X0060305Y0338274D02*
X0059093Y0338274D01*
X0059100Y0338372D02*
X0060067Y0338372D01*
X0059829Y0338471D02*
X0059108Y0338471D01*
X0059115Y0338569D02*
X0059591Y0338569D01*
X0059383Y0338668D02*
X0059122Y0338668D01*
X0059130Y0338766D02*
X0059285Y0338766D01*
X0059186Y0338865D02*
X0059137Y0338865D01*
X0058531Y0330688D02*
X0061765Y0330688D01*
X0061528Y0330590D02*
X0058524Y0330590D01*
X0058517Y0330491D02*
X0061290Y0330491D01*
X0061052Y0330393D02*
X0058509Y0330393D01*
X0058502Y0330294D02*
X0060814Y0330294D01*
X0060576Y0330196D02*
X0058495Y0330196D01*
X0058487Y0330097D02*
X0060338Y0330097D01*
X0060101Y0329999D02*
X0058480Y0329999D01*
X0058473Y0329900D02*
X0059863Y0329900D01*
X0059625Y0329802D02*
X0058466Y0329802D01*
X0058458Y0329703D02*
X0059397Y0329703D01*
X0059298Y0329605D02*
X0058451Y0329605D01*
X0058444Y0329506D02*
X0059200Y0329506D01*
X0059101Y0329408D02*
X0058436Y0329408D01*
X0058429Y0329309D02*
X0059003Y0329309D01*
X0058904Y0329211D02*
X0058422Y0329211D01*
X0058414Y0329112D02*
X0058806Y0329112D01*
X0058707Y0329014D02*
X0058407Y0329014D01*
X0058400Y0328915D02*
X0058609Y0328915D01*
X0058510Y0328817D02*
X0058393Y0328817D01*
X0058385Y0328718D02*
X0058412Y0328718D01*
X0074551Y0320640D02*
X0077503Y0320640D01*
X0077544Y0320542D02*
X0074789Y0320542D01*
X0075027Y0320443D02*
X0077608Y0320443D01*
X0077706Y0320345D02*
X0075264Y0320345D01*
X0075502Y0320246D02*
X0077805Y0320246D01*
X0077903Y0320148D02*
X0075740Y0320148D01*
X0075978Y0320049D02*
X0078002Y0320049D01*
X0078100Y0319951D02*
X0076216Y0319951D01*
X0076453Y0319852D02*
X0078199Y0319852D01*
X0078297Y0319753D02*
X0076691Y0319753D01*
X0076851Y0319655D02*
X0078396Y0319655D01*
X0078494Y0319556D02*
X0076950Y0319556D01*
X0077048Y0319458D02*
X0078593Y0319458D01*
X0078691Y0319359D02*
X0077147Y0319359D01*
X0077245Y0319261D02*
X0078790Y0319261D01*
X0078888Y0319162D02*
X0077344Y0319162D01*
X0077442Y0319064D02*
X0078987Y0319064D01*
X0079085Y0318965D02*
X0077541Y0318965D01*
X0077639Y0318867D02*
X0079184Y0318867D01*
X0079282Y0318768D02*
X0077738Y0318768D01*
X0077836Y0318670D02*
X0079381Y0318670D01*
X0079586Y0318571D02*
X0077935Y0318571D01*
X0078033Y0318473D02*
X0079824Y0318473D01*
X0080062Y0318374D02*
X0078132Y0318374D01*
X0078230Y0318276D02*
X0080300Y0318276D01*
X0080537Y0318177D02*
X0078329Y0318177D01*
X0078427Y0318079D02*
X0080775Y0318079D01*
X0081013Y0317980D02*
X0078526Y0317980D01*
X0078624Y0317882D02*
X0081251Y0317882D01*
X0081489Y0317783D02*
X0078669Y0317783D01*
X0078710Y0317685D02*
X0081727Y0317685D01*
X0084473Y0317685D02*
X0087490Y0317685D01*
X0087531Y0317783D02*
X0084711Y0317783D01*
X0084949Y0317882D02*
X0087576Y0317882D01*
X0087674Y0317980D02*
X0085187Y0317980D01*
X0085425Y0318079D02*
X0087773Y0318079D01*
X0087871Y0318177D02*
X0085663Y0318177D01*
X0085900Y0318276D02*
X0087970Y0318276D01*
X0088068Y0318374D02*
X0086138Y0318374D01*
X0086376Y0318473D02*
X0088167Y0318473D01*
X0088265Y0318571D02*
X0086614Y0318571D01*
X0086819Y0318670D02*
X0088364Y0318670D01*
X0088462Y0318768D02*
X0086918Y0318768D01*
X0087016Y0318867D02*
X0088561Y0318867D01*
X0088659Y0318965D02*
X0087115Y0318965D01*
X0087213Y0319064D02*
X0088758Y0319064D01*
X0088856Y0319162D02*
X0087312Y0319162D01*
X0087410Y0319261D02*
X0088955Y0319261D01*
X0089053Y0319359D02*
X0087509Y0319359D01*
X0087607Y0319458D02*
X0089152Y0319458D01*
X0089250Y0319556D02*
X0087706Y0319556D01*
X0087804Y0319655D02*
X0089349Y0319655D01*
X0089509Y0319753D02*
X0087903Y0319753D01*
X0088001Y0319852D02*
X0089747Y0319852D01*
X0089984Y0319951D02*
X0088100Y0319951D01*
X0088198Y0320049D02*
X0090222Y0320049D01*
X0090460Y0320148D02*
X0088297Y0320148D01*
X0088395Y0320246D02*
X0090698Y0320246D01*
X0090936Y0320345D02*
X0088494Y0320345D01*
X0088592Y0320443D02*
X0091173Y0320443D01*
X0091411Y0320542D02*
X0088656Y0320542D01*
X0088697Y0320640D02*
X0091649Y0320640D01*
X0087449Y0317586D02*
X0078751Y0317586D01*
X0078792Y0317488D02*
X0087408Y0317488D01*
X0087367Y0317389D02*
X0078833Y0317389D01*
X0078873Y0317291D02*
X0087327Y0317291D01*
X0087286Y0317192D02*
X0078914Y0317192D01*
X0078955Y0317094D02*
X0087245Y0317094D01*
X0087204Y0316995D02*
X0078996Y0316995D01*
X0079037Y0316897D02*
X0087163Y0316897D01*
X0087123Y0316798D02*
X0079077Y0316798D01*
X0079118Y0316700D02*
X0087082Y0316700D01*
X0087041Y0316601D02*
X0079159Y0316601D01*
X0079200Y0316503D02*
X0087000Y0316503D01*
X0086959Y0316404D02*
X0079241Y0316404D01*
X0079282Y0316306D02*
X0086918Y0316306D01*
X0086878Y0316207D02*
X0079322Y0316207D01*
X0079363Y0316109D02*
X0086837Y0316109D01*
X0086796Y0316010D02*
X0079404Y0316010D01*
X0079445Y0315912D02*
X0086755Y0315912D01*
X0086714Y0315813D02*
X0079486Y0315813D01*
X0079526Y0315715D02*
X0086674Y0315715D01*
X0086633Y0315616D02*
X0079567Y0315616D01*
X0079608Y0315518D02*
X0086592Y0315518D01*
X0086575Y0315419D02*
X0079625Y0315419D01*
X0079625Y0315320D02*
X0086575Y0315320D01*
X0086575Y0315222D02*
X0079625Y0315222D01*
X0079625Y0315123D02*
X0086575Y0315123D01*
X0086575Y0315025D02*
X0079625Y0315025D01*
X0079625Y0314926D02*
X0086575Y0314926D01*
X0086575Y0314828D02*
X0079625Y0314828D01*
X0079625Y0314729D02*
X0086575Y0314729D01*
X0086575Y0314631D02*
X0079625Y0314631D01*
X0079625Y0314532D02*
X0086575Y0314532D01*
X0086575Y0314434D02*
X0079625Y0314434D01*
X0079625Y0314335D02*
X0086575Y0314335D01*
X0086575Y0314237D02*
X0079625Y0314237D01*
X0079625Y0314138D02*
X0086575Y0314138D01*
X0086575Y0314040D02*
X0079625Y0314040D01*
X0079625Y0313941D02*
X0086575Y0313941D01*
X0086575Y0313843D02*
X0079625Y0313843D01*
X0079625Y0313744D02*
X0086575Y0313744D01*
X0086575Y0313646D02*
X0079625Y0313646D01*
X0079625Y0313547D02*
X0086575Y0313547D01*
X0086575Y0313449D02*
X0079625Y0313449D01*
X0079625Y0313350D02*
X0086575Y0313350D01*
X0086575Y0313252D02*
X0079625Y0313252D01*
X0079625Y0313153D02*
X0086575Y0313153D01*
X0086575Y0313055D02*
X0079625Y0313055D01*
X0079625Y0312956D02*
X0086575Y0312956D01*
X0086584Y0312858D02*
X0079616Y0312858D01*
X0079575Y0312759D02*
X0086625Y0312759D01*
X0086666Y0312661D02*
X0079534Y0312661D01*
X0079493Y0312562D02*
X0086707Y0312562D01*
X0086748Y0312464D02*
X0079452Y0312464D01*
X0079411Y0312365D02*
X0086788Y0312365D01*
X0086829Y0312267D02*
X0079371Y0312267D01*
X0079330Y0312168D02*
X0086870Y0312168D01*
X0086911Y0312070D02*
X0079289Y0312070D01*
X0079248Y0311971D02*
X0086952Y0311971D01*
X0086993Y0311873D02*
X0079207Y0311873D01*
X0079167Y0311774D02*
X0087033Y0311774D01*
X0087074Y0311676D02*
X0079126Y0311676D01*
X0079085Y0311577D02*
X0087115Y0311577D01*
X0087156Y0311479D02*
X0079044Y0311479D01*
X0079003Y0311380D02*
X0087197Y0311380D01*
X0087237Y0311282D02*
X0078963Y0311282D01*
X0078922Y0311183D02*
X0087278Y0311183D01*
X0087319Y0311084D02*
X0078881Y0311084D01*
X0078840Y0310986D02*
X0087360Y0310986D01*
X0087401Y0310887D02*
X0078799Y0310887D01*
X0078759Y0310789D02*
X0087441Y0310789D01*
X0087482Y0310690D02*
X0078718Y0310690D01*
X0078677Y0310592D02*
X0087523Y0310592D01*
X0087564Y0310493D02*
X0078636Y0310493D01*
X0078544Y0310395D02*
X0087656Y0310395D01*
X0087754Y0310296D02*
X0078446Y0310296D01*
X0078347Y0310198D02*
X0087853Y0310198D01*
X0087951Y0310099D02*
X0078249Y0310099D01*
X0078150Y0310001D02*
X0088050Y0310001D01*
X0088148Y0309902D02*
X0078052Y0309902D01*
X0077953Y0309804D02*
X0088247Y0309804D01*
X0088345Y0309705D02*
X0077855Y0309705D01*
X0077756Y0309607D02*
X0088444Y0309607D01*
X0088542Y0309508D02*
X0077658Y0309508D01*
X0077559Y0309410D02*
X0088641Y0309410D01*
X0088739Y0309311D02*
X0077461Y0309311D01*
X0077362Y0309213D02*
X0088838Y0309213D01*
X0088936Y0309114D02*
X0077264Y0309114D01*
X0077165Y0309016D02*
X0089035Y0309016D01*
X0089133Y0308917D02*
X0077067Y0308917D01*
X0076968Y0308819D02*
X0088837Y0308819D01*
X0114590Y0327733D02*
X0117510Y0327733D01*
X0117550Y0327831D02*
X0114828Y0327831D01*
X0115065Y0327930D02*
X0117624Y0327930D01*
X0117722Y0328028D02*
X0115303Y0328028D01*
X0115541Y0328127D02*
X0117821Y0328127D01*
X0117919Y0328225D02*
X0115779Y0328225D01*
X0116017Y0328324D02*
X0118018Y0328324D01*
X0118116Y0328422D02*
X0116254Y0328422D01*
X0116492Y0328521D02*
X0118215Y0328521D01*
X0118313Y0328620D02*
X0116730Y0328620D01*
X0116867Y0328718D02*
X0118412Y0328718D01*
X0118510Y0328817D02*
X0116966Y0328817D01*
X0117064Y0328915D02*
X0118609Y0328915D01*
X0118707Y0329014D02*
X0117163Y0329014D01*
X0117261Y0329112D02*
X0118806Y0329112D01*
X0118904Y0329211D02*
X0117360Y0329211D01*
X0117458Y0329309D02*
X0119003Y0329309D01*
X0119101Y0329408D02*
X0117557Y0329408D01*
X0117655Y0329506D02*
X0119200Y0329506D01*
X0119298Y0329605D02*
X0117754Y0329605D01*
X0117852Y0329703D02*
X0119397Y0329703D01*
X0119625Y0329802D02*
X0117951Y0329802D01*
X0118049Y0329900D02*
X0119863Y0329900D01*
X0120101Y0329999D02*
X0118148Y0329999D01*
X0118246Y0330097D02*
X0120338Y0330097D01*
X0120576Y0330196D02*
X0118345Y0330196D01*
X0118443Y0330294D02*
X0120814Y0330294D01*
X0121052Y0330393D02*
X0118542Y0330393D01*
X0118635Y0330491D02*
X0121290Y0330491D01*
X0121528Y0330590D02*
X0118676Y0330590D01*
X0118717Y0330688D02*
X0121765Y0330688D01*
X0134590Y0327733D02*
X0137510Y0327733D01*
X0137550Y0327831D02*
X0134828Y0327831D01*
X0135065Y0327930D02*
X0137624Y0327930D01*
X0137722Y0328028D02*
X0135303Y0328028D01*
X0135541Y0328127D02*
X0137821Y0328127D01*
X0137919Y0328225D02*
X0135779Y0328225D01*
X0136017Y0328324D02*
X0138018Y0328324D01*
X0138116Y0328422D02*
X0136254Y0328422D01*
X0136492Y0328521D02*
X0138215Y0328521D01*
X0138313Y0328620D02*
X0136730Y0328620D01*
X0136867Y0328718D02*
X0138412Y0328718D01*
X0138510Y0328817D02*
X0136966Y0328817D01*
X0137064Y0328915D02*
X0138609Y0328915D01*
X0138707Y0329014D02*
X0137163Y0329014D01*
X0137261Y0329112D02*
X0138806Y0329112D01*
X0138840Y0329211D02*
X0137360Y0329211D01*
X0137458Y0329309D02*
X0138742Y0329309D01*
X0138643Y0329408D02*
X0137557Y0329408D01*
X0137655Y0329506D02*
X0138545Y0329506D01*
X0138446Y0329605D02*
X0137754Y0329605D01*
X0137852Y0329703D02*
X0138348Y0329703D01*
X0138249Y0329802D02*
X0137951Y0329802D01*
X0138049Y0329900D02*
X0138151Y0329900D01*
X0097012Y0350588D02*
X0084678Y0350588D01*
X0084440Y0350686D02*
X0094169Y0350686D01*
X0091326Y0350785D02*
X0060020Y0350785D01*
X0060027Y0350883D02*
X0088483Y0350883D01*
X0079955Y0351179D02*
X0060049Y0351179D01*
X0060056Y0351277D02*
X0077112Y0351277D01*
X0074270Y0351376D02*
X0060064Y0351376D01*
X0060071Y0351474D02*
X0071427Y0351474D01*
X0068584Y0351573D02*
X0060078Y0351573D01*
X0060086Y0351671D02*
X0065741Y0351671D01*
X0062899Y0351770D02*
X0060093Y0351770D01*
X0060013Y0350686D02*
X0061760Y0350686D01*
X0061522Y0350588D02*
X0060005Y0350588D01*
X0059998Y0350489D02*
X0061284Y0350489D01*
X0061047Y0350391D02*
X0059991Y0350391D01*
X0059983Y0350292D02*
X0060809Y0350292D01*
X0060571Y0350193D02*
X0059976Y0350193D01*
X0059969Y0350095D02*
X0060333Y0350095D01*
X0060095Y0349996D02*
X0059961Y0349996D01*
D19*
X0168100Y0318667D02*
X0168100Y0309067D01*
X0167900Y0308867D01*
X0177900Y0308867D02*
X0178100Y0309067D01*
X0178100Y0319067D01*
X0198100Y0319067D02*
X0198100Y0308067D01*
X0197900Y0307867D01*
X0207900Y0307867D02*
X0208100Y0308067D01*
X0208100Y0318667D01*
X0203900Y0323867D02*
X0203100Y0324178D01*
X0248100Y0319067D02*
X0248100Y0308067D01*
X0247900Y0307867D01*
X0257900Y0307867D02*
X0258100Y0308067D01*
X0258100Y0317467D01*
X0263100Y0322467D01*
X0263100Y0324178D01*
X0263100Y0323267D01*
X0268100Y0318267D01*
X0268100Y0307067D01*
X0267900Y0306867D01*
X0277900Y0307867D02*
X0278100Y0308067D01*
X0278100Y0319067D01*
X0273100Y0323267D02*
X0268100Y0318267D01*
X0267900Y0318867D02*
X0268900Y0318867D01*
X0271900Y0321867D01*
X0271900Y0325867D01*
X0255900Y0325867D01*
X0252900Y0322867D01*
X0257900Y0317867D01*
X0258900Y0317867D01*
X0262900Y0321867D01*
X0264900Y0321867D01*
X0267900Y0318867D01*
X0267364Y0319402D02*
X0269436Y0319402D01*
X0270434Y0320401D02*
X0266366Y0320401D01*
X0265367Y0321399D02*
X0271433Y0321399D01*
X0271900Y0322398D02*
X0253369Y0322398D01*
X0253100Y0322467D02*
X0258100Y0317467D01*
X0257363Y0318404D02*
X0259437Y0318404D01*
X0260436Y0319402D02*
X0256364Y0319402D01*
X0255366Y0320401D02*
X0261434Y0320401D01*
X0262433Y0321399D02*
X0254367Y0321399D01*
X0253100Y0322467D02*
X0253100Y0324178D01*
X0253430Y0323396D02*
X0271900Y0323396D01*
X0271900Y0324395D02*
X0254428Y0324395D01*
X0255427Y0325393D02*
X0271900Y0325393D01*
X0273100Y0324178D02*
X0273100Y0323267D01*
X0268900Y0323867D02*
X0258900Y0323867D01*
X0197900Y0207867D02*
X0192900Y0207867D01*
D20*
X0198100Y0319067D02*
X0203100Y0324067D01*
X0203100Y0324178D01*
X0203100Y0323667D01*
X0208100Y0318667D01*
X0178100Y0319067D02*
X0173100Y0324067D01*
X0173100Y0324178D01*
X0173100Y0323667D01*
X0168100Y0318667D01*
X0248100Y0319067D02*
X0253100Y0324067D01*
X0253100Y0324178D01*
X0273100Y0324067D02*
X0273100Y0324178D01*
X0273100Y0324067D02*
X0278100Y0319067D01*
D21*
X0240900Y0095867D03*
X0252900Y0085867D03*
X0240900Y0079867D03*
X0288900Y0081867D03*
X0290900Y0053263D03*
X0247900Y0027867D03*
M02*
