G75*
%MOIN*%
%OFA0B0*%
%FSLAX25Y25*%
%IPPOS*%
%LPD*%
%AMOC8*
5,1,8,0,0,1.08239X$1,22.5*
%
%ADD10R,0.05118X0.05906*%
%ADD11R,0.00787X0.01575*%
%ADD12R,0.08760X0.05906*%
%ADD13R,0.04724X0.02362*%
%ADD14R,0.04724X0.03150*%
%ADD15R,0.02362X0.04724*%
%ADD16R,0.03150X0.04724*%
%ADD17R,0.12598X0.07087*%
%ADD18R,0.03937X0.01772*%
%ADD19R,0.01575X0.02756*%
%ADD20R,0.10000X0.05000*%
%ADD21R,0.03150X0.03543*%
%ADD22R,0.07087X0.10630*%
%ADD23R,0.02756X0.03543*%
%ADD24R,0.02402X0.04016*%
%ADD25R,0.15394X0.15000*%
%ADD26R,0.00984X0.06102*%
%ADD27R,0.06102X0.00984*%
%ADD28R,0.01575X0.06890*%
%ADD29R,0.07087X0.03937*%
%ADD30R,0.06299X0.04921*%
%ADD31R,0.03937X0.00984*%
%ADD32R,0.00984X0.03937*%
%ADD33R,0.02756X0.02000*%
%ADD34R,0.02362X0.03937*%
%ADD35R,0.04921X0.07087*%
%ADD36R,0.04724X0.05512*%
D10*
X0142502Y0115101D03*
X0149983Y0115101D03*
D11*
X0147739Y0121085D03*
X0145770Y0121085D03*
X0143802Y0121085D03*
X0141833Y0121085D03*
X0141833Y0131715D03*
X0143802Y0131715D03*
X0145770Y0131715D03*
X0147739Y0131715D03*
D12*
X0144835Y0126400D03*
D13*
X0080120Y0329146D03*
X0080120Y0336626D03*
X0069491Y0336626D03*
X0069491Y0332886D03*
X0069491Y0329146D03*
D14*
X0068556Y0322680D03*
X0068556Y0315593D03*
X0088556Y0329343D03*
X0088556Y0336430D03*
X0097306Y0336430D03*
X0097306Y0329343D03*
X0122857Y0323762D03*
X0122857Y0316676D03*
X0168132Y0271754D03*
X0168132Y0264668D03*
X0177975Y0262896D03*
X0177975Y0255809D03*
X0176794Y0245298D03*
X0183487Y0245298D03*
X0183487Y0238211D03*
X0176794Y0238211D03*
X0170101Y0238211D03*
X0170101Y0245298D03*
X0157306Y0255809D03*
X0157306Y0262896D03*
X0121872Y0259294D03*
X0121872Y0252207D03*
X0149431Y0225022D03*
X0149431Y0217935D03*
X0149431Y0209274D03*
X0149431Y0202187D03*
X0149431Y0193526D03*
X0149431Y0186439D03*
X0149431Y0176794D03*
X0149431Y0169707D03*
X0149235Y0161636D03*
X0149235Y0154550D03*
X0149235Y0147069D03*
X0149235Y0139983D03*
X0202975Y0123054D03*
X0202975Y0115967D03*
X0210061Y0115967D03*
X0210061Y0123054D03*
X0217739Y0123447D03*
X0217739Y0130534D03*
X0223841Y0139195D03*
X0223841Y0146282D03*
X0225219Y0123054D03*
X0225219Y0115967D03*
X0285455Y0130652D03*
X0285455Y0137739D03*
X0295455Y0137739D03*
X0295455Y0130652D03*
X0302455Y0152152D03*
X0302455Y0159239D03*
X0225219Y0196085D03*
X0225219Y0203172D03*
X0217739Y0203172D03*
X0217739Y0196085D03*
X0206518Y0211636D03*
X0206518Y0218723D03*
X0206912Y0249431D03*
X0213211Y0249431D03*
X0213211Y0256518D03*
X0206912Y0256518D03*
X0148605Y0073526D03*
X0148605Y0066439D03*
D15*
X0055327Y0315554D03*
X0051587Y0315554D03*
X0047847Y0315554D03*
X0047847Y0326183D03*
X0055327Y0326183D03*
D16*
X0055130Y0333369D03*
X0048044Y0333369D03*
X0048044Y0342119D03*
X0055130Y0342119D03*
X0041380Y0314619D03*
X0034294Y0314619D03*
X0124431Y0335061D03*
X0131518Y0335061D03*
X0144313Y0335455D03*
X0151400Y0335455D03*
X0152207Y0320790D03*
X0159294Y0320790D03*
X0144687Y0320790D03*
X0137601Y0320790D03*
X0166361Y0335455D03*
X0173447Y0335455D03*
X0188290Y0319313D03*
X0195376Y0319313D03*
X0195376Y0309471D03*
X0188290Y0309471D03*
X0188290Y0262227D03*
X0195376Y0262227D03*
X0195376Y0252384D03*
X0188290Y0252384D03*
X0164786Y0223447D03*
X0157699Y0223447D03*
X0157699Y0201794D03*
X0164786Y0201794D03*
X0164786Y0193920D03*
X0157699Y0193920D03*
X0157699Y0186046D03*
X0164786Y0186046D03*
X0164589Y0176991D03*
X0157502Y0176991D03*
X0157502Y0155337D03*
X0164589Y0155337D03*
X0164589Y0147463D03*
X0157502Y0147463D03*
X0157502Y0139589D03*
X0164589Y0139589D03*
X0191951Y0151203D03*
X0191951Y0157699D03*
X0199038Y0157699D03*
X0199038Y0151203D03*
X0211636Y0159077D03*
X0211636Y0165573D03*
X0204550Y0165573D03*
X0218723Y0159077D03*
X0210652Y0130337D03*
X0203565Y0130337D03*
X0162148Y0079983D03*
X0155061Y0079983D03*
X0154561Y0059983D03*
X0161648Y0059983D03*
X0259412Y0131695D03*
X0266498Y0131695D03*
X0269412Y0131695D03*
X0276498Y0131695D03*
X0276498Y0139195D03*
X0269412Y0139195D03*
X0266498Y0139195D03*
X0259412Y0139195D03*
X0259412Y0146695D03*
X0266498Y0146695D03*
X0269412Y0146695D03*
X0276498Y0146695D03*
X0276498Y0154195D03*
X0269412Y0154195D03*
X0266498Y0154195D03*
X0259412Y0154195D03*
X0286912Y0144195D03*
X0293998Y0144195D03*
X0232306Y0237620D03*
X0232306Y0243920D03*
X0225219Y0243920D03*
X0225219Y0237620D03*
X0243250Y0252384D03*
X0250337Y0252384D03*
X0250337Y0262227D03*
X0243250Y0262227D03*
X0281321Y0326400D03*
X0288408Y0326400D03*
X0132286Y0270199D03*
X0125199Y0270199D03*
D17*
X0127542Y0115928D03*
X0127542Y0137975D03*
D18*
X0285337Y0150357D03*
X0285337Y0152916D03*
X0285337Y0155475D03*
X0285337Y0158034D03*
X0295573Y0158034D03*
X0295573Y0155475D03*
X0295573Y0152916D03*
X0295573Y0150357D03*
D19*
X0216754Y0151597D03*
X0214195Y0151597D03*
X0211636Y0151597D03*
X0209077Y0151597D03*
X0209077Y0139195D03*
X0211636Y0139195D03*
X0214195Y0139195D03*
X0216754Y0139195D03*
D20*
X0213014Y0145494D03*
D21*
X0217739Y0210455D03*
X0225219Y0210455D03*
X0221479Y0218723D03*
D22*
X0282502Y0116361D03*
X0299825Y0116361D03*
D23*
X0163605Y0163408D03*
X0158487Y0163408D03*
X0161046Y0170888D03*
X0158683Y0209865D03*
X0163802Y0209865D03*
X0161243Y0217345D03*
D24*
X0141183Y0224609D03*
X0136183Y0224609D03*
X0131183Y0224609D03*
X0126183Y0224609D03*
X0126183Y0202601D03*
X0131183Y0202601D03*
X0136183Y0202601D03*
X0141183Y0202601D03*
X0135475Y0193309D03*
X0130475Y0193309D03*
X0125475Y0193309D03*
X0120475Y0193309D03*
X0120475Y0171302D03*
X0125475Y0171302D03*
X0130475Y0171302D03*
X0135475Y0171302D03*
D25*
X0127975Y0180573D03*
X0133683Y0215337D03*
D26*
X0204550Y0263802D03*
X0206518Y0263802D03*
X0208487Y0263802D03*
X0210455Y0263802D03*
X0212424Y0263802D03*
X0214392Y0263802D03*
X0216361Y0263802D03*
X0218329Y0263802D03*
X0220298Y0263802D03*
X0222266Y0263802D03*
X0224235Y0263802D03*
X0226203Y0263802D03*
X0228172Y0263802D03*
X0230140Y0263802D03*
X0232109Y0263802D03*
X0234077Y0263802D03*
X0234077Y0307896D03*
X0232109Y0307896D03*
X0230140Y0307896D03*
X0228172Y0307896D03*
X0226203Y0307896D03*
X0224235Y0307896D03*
X0222266Y0307896D03*
X0220298Y0307896D03*
X0218329Y0307896D03*
X0216361Y0307896D03*
X0214392Y0307896D03*
X0212424Y0307896D03*
X0210455Y0307896D03*
X0208487Y0307896D03*
X0206518Y0307896D03*
X0204550Y0307896D03*
D27*
X0197266Y0300613D03*
X0197266Y0298644D03*
X0197266Y0296676D03*
X0197266Y0294707D03*
X0197266Y0292739D03*
X0197266Y0290770D03*
X0197266Y0288802D03*
X0197266Y0286833D03*
X0197266Y0284865D03*
X0197266Y0282896D03*
X0197266Y0280928D03*
X0197266Y0278959D03*
X0197266Y0276991D03*
X0197266Y0275022D03*
X0197266Y0273054D03*
X0197266Y0271085D03*
X0241361Y0271085D03*
X0241361Y0273054D03*
X0241361Y0275022D03*
X0241361Y0276991D03*
X0241361Y0278959D03*
X0241361Y0280928D03*
X0241361Y0282896D03*
X0241361Y0284865D03*
X0241361Y0286833D03*
X0241361Y0288802D03*
X0241361Y0290770D03*
X0241361Y0292739D03*
X0241361Y0294707D03*
X0241361Y0296676D03*
X0241361Y0298644D03*
X0241361Y0300613D03*
D28*
X0158447Y0307896D03*
X0155888Y0307896D03*
X0153329Y0307896D03*
X0150770Y0307896D03*
X0148211Y0307896D03*
X0145652Y0307896D03*
X0143093Y0307896D03*
X0140534Y0307896D03*
X0137975Y0307896D03*
X0135416Y0307896D03*
X0132857Y0307896D03*
X0130298Y0307896D03*
X0127739Y0307896D03*
X0125180Y0307896D03*
X0125180Y0279550D03*
X0127739Y0279550D03*
X0130298Y0279550D03*
X0132857Y0279550D03*
X0135416Y0279550D03*
X0137975Y0279550D03*
X0140534Y0279550D03*
X0143093Y0279550D03*
X0145652Y0279550D03*
X0148211Y0279550D03*
X0150770Y0279550D03*
X0153329Y0279550D03*
X0155888Y0279550D03*
X0158447Y0279550D03*
D29*
X0179313Y0280770D03*
X0179313Y0270928D03*
D30*
X0146951Y0261715D03*
X0146951Y0253054D03*
X0132384Y0253054D03*
X0132384Y0261715D03*
D31*
X0122857Y0315967D03*
D32*
X0145002Y0320790D03*
X0196146Y0319318D03*
X0132601Y0270199D03*
X0196069Y0252454D03*
X0242787Y0252254D03*
D33*
X0163180Y0073920D03*
X0163180Y0069983D03*
X0163180Y0066046D03*
X0154030Y0066046D03*
X0154030Y0069983D03*
X0154030Y0073920D03*
D34*
X0180731Y0006715D03*
X0186636Y0006715D03*
X0192542Y0006715D03*
X0198447Y0006715D03*
X0204353Y0006715D03*
X0210258Y0006715D03*
X0216164Y0006715D03*
X0222069Y0006715D03*
D35*
X0231144Y0027187D03*
X0170475Y0027187D03*
D36*
X0166557Y0344313D03*
X0178369Y0344313D03*
X0153565Y0344313D03*
X0141754Y0344313D03*
X0128762Y0344313D03*
X0116951Y0344313D03*
M02*
