%
M48
M72
T01C0.03400
T02C0.07103
T03C0.08465
T04C0.11417
%
T01
X75724Y301945
X75724Y311945
X75724Y321945
X75724Y331945
X85724Y331945
X85724Y321945
X85724Y311945
X85724Y301945
T02
X31512Y285449
X31512Y151591
X405528Y151591
X405528Y285449
T03
X246079Y387811
X190961Y387811
T04
X38205Y121276
X121276Y38205
X315764Y38205
X398835Y121276
X398835Y315764
X315764Y398835
X121276Y398835
X38205Y315764
M30
