G75*
%MOIN*%
%OFA0B0*%
%FSLAX25Y25*%
%IPPOS*%
%LPD*%
%AMOC8*
5,1,8,0,0,1.08239X$1,22.5*
%
%ADD10C,0.00000*%
%ADD11C,0.00394*%
D10*
X0039902Y0020348D02*
X0020217Y0040033D01*
X0020217Y0354994D01*
X0039902Y0374679D01*
X0354862Y0374679D01*
X0374547Y0354994D01*
X0374547Y0040033D01*
X0354862Y0020348D01*
X0039902Y0020348D01*
X0080059Y0361687D02*
X0080061Y0361799D01*
X0080067Y0361910D01*
X0080077Y0362022D01*
X0080091Y0362133D01*
X0080108Y0362243D01*
X0080130Y0362353D01*
X0080156Y0362462D01*
X0080185Y0362570D01*
X0080218Y0362676D01*
X0080255Y0362782D01*
X0080296Y0362886D01*
X0080341Y0362989D01*
X0080389Y0363090D01*
X0080440Y0363189D01*
X0080495Y0363286D01*
X0080554Y0363381D01*
X0080615Y0363475D01*
X0080680Y0363566D01*
X0080749Y0363654D01*
X0080820Y0363740D01*
X0080894Y0363824D01*
X0080972Y0363904D01*
X0081052Y0363982D01*
X0081135Y0364058D01*
X0081220Y0364130D01*
X0081308Y0364199D01*
X0081398Y0364265D01*
X0081491Y0364327D01*
X0081586Y0364387D01*
X0081683Y0364443D01*
X0081781Y0364495D01*
X0081882Y0364544D01*
X0081984Y0364589D01*
X0082088Y0364631D01*
X0082193Y0364669D01*
X0082300Y0364703D01*
X0082407Y0364733D01*
X0082516Y0364760D01*
X0082625Y0364782D01*
X0082736Y0364801D01*
X0082846Y0364816D01*
X0082958Y0364827D01*
X0083069Y0364834D01*
X0083181Y0364837D01*
X0083293Y0364836D01*
X0083405Y0364831D01*
X0083516Y0364822D01*
X0083627Y0364809D01*
X0083738Y0364792D01*
X0083848Y0364772D01*
X0083957Y0364747D01*
X0084065Y0364719D01*
X0084172Y0364686D01*
X0084278Y0364650D01*
X0084382Y0364610D01*
X0084485Y0364567D01*
X0084587Y0364520D01*
X0084686Y0364469D01*
X0084784Y0364415D01*
X0084880Y0364357D01*
X0084974Y0364296D01*
X0085065Y0364232D01*
X0085154Y0364165D01*
X0085241Y0364094D01*
X0085325Y0364020D01*
X0085407Y0363944D01*
X0085485Y0363864D01*
X0085561Y0363782D01*
X0085634Y0363697D01*
X0085704Y0363610D01*
X0085770Y0363520D01*
X0085834Y0363428D01*
X0085894Y0363334D01*
X0085951Y0363238D01*
X0086004Y0363139D01*
X0086054Y0363039D01*
X0086100Y0362938D01*
X0086143Y0362834D01*
X0086182Y0362729D01*
X0086217Y0362623D01*
X0086248Y0362516D01*
X0086276Y0362407D01*
X0086299Y0362298D01*
X0086319Y0362188D01*
X0086335Y0362077D01*
X0086347Y0361966D01*
X0086355Y0361855D01*
X0086359Y0361743D01*
X0086359Y0361631D01*
X0086355Y0361519D01*
X0086347Y0361408D01*
X0086335Y0361297D01*
X0086319Y0361186D01*
X0086299Y0361076D01*
X0086276Y0360967D01*
X0086248Y0360858D01*
X0086217Y0360751D01*
X0086182Y0360645D01*
X0086143Y0360540D01*
X0086100Y0360436D01*
X0086054Y0360335D01*
X0086004Y0360235D01*
X0085951Y0360136D01*
X0085894Y0360040D01*
X0085834Y0359946D01*
X0085770Y0359854D01*
X0085704Y0359764D01*
X0085634Y0359677D01*
X0085561Y0359592D01*
X0085485Y0359510D01*
X0085407Y0359430D01*
X0085325Y0359354D01*
X0085241Y0359280D01*
X0085154Y0359209D01*
X0085065Y0359142D01*
X0084974Y0359078D01*
X0084880Y0359017D01*
X0084784Y0358959D01*
X0084686Y0358905D01*
X0084587Y0358854D01*
X0084485Y0358807D01*
X0084382Y0358764D01*
X0084278Y0358724D01*
X0084172Y0358688D01*
X0084065Y0358655D01*
X0083957Y0358627D01*
X0083848Y0358602D01*
X0083738Y0358582D01*
X0083627Y0358565D01*
X0083516Y0358552D01*
X0083405Y0358543D01*
X0083293Y0358538D01*
X0083181Y0358537D01*
X0083069Y0358540D01*
X0082958Y0358547D01*
X0082846Y0358558D01*
X0082736Y0358573D01*
X0082625Y0358592D01*
X0082516Y0358614D01*
X0082407Y0358641D01*
X0082300Y0358671D01*
X0082193Y0358705D01*
X0082088Y0358743D01*
X0081984Y0358785D01*
X0081882Y0358830D01*
X0081781Y0358879D01*
X0081683Y0358931D01*
X0081586Y0358987D01*
X0081491Y0359047D01*
X0081398Y0359109D01*
X0081308Y0359175D01*
X0081220Y0359244D01*
X0081135Y0359316D01*
X0081052Y0359392D01*
X0080972Y0359470D01*
X0080894Y0359550D01*
X0080820Y0359634D01*
X0080749Y0359720D01*
X0080680Y0359808D01*
X0080615Y0359899D01*
X0080554Y0359993D01*
X0080495Y0360088D01*
X0080440Y0360185D01*
X0080389Y0360284D01*
X0080341Y0360385D01*
X0080296Y0360488D01*
X0080255Y0360592D01*
X0080218Y0360698D01*
X0080185Y0360804D01*
X0080156Y0360912D01*
X0080130Y0361021D01*
X0080108Y0361131D01*
X0080091Y0361241D01*
X0080077Y0361352D01*
X0080067Y0361464D01*
X0080061Y0361575D01*
X0080059Y0361687D01*
D11*
X0088721Y0246923D02*
X0088721Y0215427D01*
X0094626Y0215427D01*
X0094626Y0246923D01*
X0088721Y0246923D01*
X0088721Y0113065D02*
X0088721Y0081569D01*
X0094626Y0081569D01*
X0094626Y0113065D01*
X0088721Y0113065D01*
X0366280Y0215427D02*
X0366280Y0246923D01*
X0372185Y0246923D01*
X0372185Y0215427D01*
X0366280Y0215427D01*
M02*
