G75*
%MOIN*%
%OFA0B0*%
%FSLAX25Y25*%
%IPPOS*%
%LPD*%
%AMOC8*
5,1,8,0,0,1.08239X$1,22.5*
%
%ADD10C,0.00000*%
%ADD11C,0.07099*%
%ADD12OC8,0.08200*%
%ADD13R,0.06902X0.01784*%
%ADD14R,0.01784X0.06902*%
%ADD15R,0.07690X0.02375*%
%ADD16R,0.04737X0.07887*%
%ADD17R,0.05524X0.03950*%
%ADD18R,0.03950X0.05524*%
%ADD19C,0.05200*%
%ADD20R,0.05721X0.07099*%
%ADD21R,0.01784X0.04737*%
%ADD22R,0.04737X0.01784*%
%ADD23R,0.08200X0.08200*%
%ADD24C,0.08200*%
%ADD25C,0.06000*%
%ADD26C,0.08600*%
%ADD27C,0.00394*%
%ADD28R,0.24422X0.24422*%
%ADD29C,0.30328*%
%ADD30C,0.03581*%
%ADD31C,0.04762*%
%ADD32C,0.15430*%
%ADD33C,0.14643*%
%ADD34C,0.03778*%
%ADD35C,0.10249*%
D10*
X0039902Y0020348D02*
X0020217Y0040033D01*
X0020217Y0354994D01*
X0039902Y0374679D01*
X0354862Y0374679D01*
X0374547Y0354994D01*
X0374547Y0040033D01*
X0354862Y0020348D01*
X0039902Y0020348D01*
X0080059Y0361687D02*
X0080061Y0361799D01*
X0080067Y0361910D01*
X0080077Y0362022D01*
X0080091Y0362133D01*
X0080108Y0362243D01*
X0080130Y0362353D01*
X0080156Y0362462D01*
X0080185Y0362570D01*
X0080218Y0362676D01*
X0080255Y0362782D01*
X0080296Y0362886D01*
X0080341Y0362989D01*
X0080389Y0363090D01*
X0080440Y0363189D01*
X0080495Y0363286D01*
X0080554Y0363381D01*
X0080615Y0363475D01*
X0080680Y0363566D01*
X0080749Y0363654D01*
X0080820Y0363740D01*
X0080894Y0363824D01*
X0080972Y0363904D01*
X0081052Y0363982D01*
X0081135Y0364058D01*
X0081220Y0364130D01*
X0081308Y0364199D01*
X0081398Y0364265D01*
X0081491Y0364327D01*
X0081586Y0364387D01*
X0081683Y0364443D01*
X0081781Y0364495D01*
X0081882Y0364544D01*
X0081984Y0364589D01*
X0082088Y0364631D01*
X0082193Y0364669D01*
X0082300Y0364703D01*
X0082407Y0364733D01*
X0082516Y0364760D01*
X0082625Y0364782D01*
X0082736Y0364801D01*
X0082846Y0364816D01*
X0082958Y0364827D01*
X0083069Y0364834D01*
X0083181Y0364837D01*
X0083293Y0364836D01*
X0083405Y0364831D01*
X0083516Y0364822D01*
X0083627Y0364809D01*
X0083738Y0364792D01*
X0083848Y0364772D01*
X0083957Y0364747D01*
X0084065Y0364719D01*
X0084172Y0364686D01*
X0084278Y0364650D01*
X0084382Y0364610D01*
X0084485Y0364567D01*
X0084587Y0364520D01*
X0084686Y0364469D01*
X0084784Y0364415D01*
X0084880Y0364357D01*
X0084974Y0364296D01*
X0085065Y0364232D01*
X0085154Y0364165D01*
X0085241Y0364094D01*
X0085325Y0364020D01*
X0085407Y0363944D01*
X0085485Y0363864D01*
X0085561Y0363782D01*
X0085634Y0363697D01*
X0085704Y0363610D01*
X0085770Y0363520D01*
X0085834Y0363428D01*
X0085894Y0363334D01*
X0085951Y0363238D01*
X0086004Y0363139D01*
X0086054Y0363039D01*
X0086100Y0362938D01*
X0086143Y0362834D01*
X0086182Y0362729D01*
X0086217Y0362623D01*
X0086248Y0362516D01*
X0086276Y0362407D01*
X0086299Y0362298D01*
X0086319Y0362188D01*
X0086335Y0362077D01*
X0086347Y0361966D01*
X0086355Y0361855D01*
X0086359Y0361743D01*
X0086359Y0361631D01*
X0086355Y0361519D01*
X0086347Y0361408D01*
X0086335Y0361297D01*
X0086319Y0361186D01*
X0086299Y0361076D01*
X0086276Y0360967D01*
X0086248Y0360858D01*
X0086217Y0360751D01*
X0086182Y0360645D01*
X0086143Y0360540D01*
X0086100Y0360436D01*
X0086054Y0360335D01*
X0086004Y0360235D01*
X0085951Y0360136D01*
X0085894Y0360040D01*
X0085834Y0359946D01*
X0085770Y0359854D01*
X0085704Y0359764D01*
X0085634Y0359677D01*
X0085561Y0359592D01*
X0085485Y0359510D01*
X0085407Y0359430D01*
X0085325Y0359354D01*
X0085241Y0359280D01*
X0085154Y0359209D01*
X0085065Y0359142D01*
X0084974Y0359078D01*
X0084880Y0359017D01*
X0084784Y0358959D01*
X0084686Y0358905D01*
X0084587Y0358854D01*
X0084485Y0358807D01*
X0084382Y0358764D01*
X0084278Y0358724D01*
X0084172Y0358688D01*
X0084065Y0358655D01*
X0083957Y0358627D01*
X0083848Y0358602D01*
X0083738Y0358582D01*
X0083627Y0358565D01*
X0083516Y0358552D01*
X0083405Y0358543D01*
X0083293Y0358538D01*
X0083181Y0358537D01*
X0083069Y0358540D01*
X0082958Y0358547D01*
X0082846Y0358558D01*
X0082736Y0358573D01*
X0082625Y0358592D01*
X0082516Y0358614D01*
X0082407Y0358641D01*
X0082300Y0358671D01*
X0082193Y0358705D01*
X0082088Y0358743D01*
X0081984Y0358785D01*
X0081882Y0358830D01*
X0081781Y0358879D01*
X0081683Y0358931D01*
X0081586Y0358987D01*
X0081491Y0359047D01*
X0081398Y0359109D01*
X0081308Y0359175D01*
X0081220Y0359244D01*
X0081135Y0359316D01*
X0081052Y0359392D01*
X0080972Y0359470D01*
X0080894Y0359550D01*
X0080820Y0359634D01*
X0080749Y0359720D01*
X0080680Y0359808D01*
X0080615Y0359899D01*
X0080554Y0359993D01*
X0080495Y0360088D01*
X0080440Y0360185D01*
X0080389Y0360284D01*
X0080341Y0360385D01*
X0080296Y0360488D01*
X0080255Y0360592D01*
X0080218Y0360698D01*
X0080185Y0360804D01*
X0080156Y0360912D01*
X0080130Y0361021D01*
X0080108Y0361131D01*
X0080091Y0361241D01*
X0080077Y0361352D01*
X0080067Y0361464D01*
X0080061Y0361575D01*
X0080059Y0361687D01*
D11*
X0083209Y0361687D03*
D12*
X0071857Y0322489D03*
X0071857Y0312489D03*
X0071857Y0302489D03*
X0071857Y0292489D03*
X0071857Y0282489D03*
X0071857Y0272489D03*
X0071857Y0262489D03*
X0071857Y0252489D03*
X0071857Y0242489D03*
X0071857Y0232489D03*
X0071857Y0222489D03*
X0071857Y0212489D03*
X0071857Y0202489D03*
X0071857Y0192489D03*
X0071857Y0182489D03*
X0071857Y0172489D03*
X0071857Y0162489D03*
X0071857Y0152489D03*
X0071857Y0142489D03*
X0071857Y0132489D03*
X0071857Y0122489D03*
X0071857Y0112489D03*
X0071857Y0102489D03*
X0071857Y0092489D03*
X0071857Y0082489D03*
X0071857Y0072489D03*
X0061857Y0072489D03*
X0061857Y0082489D03*
X0061857Y0092489D03*
X0061857Y0102489D03*
X0061857Y0112489D03*
X0061857Y0122489D03*
X0061857Y0132489D03*
X0061857Y0142489D03*
X0061857Y0152489D03*
X0061857Y0162489D03*
X0061857Y0172489D03*
X0061857Y0182489D03*
X0061857Y0192489D03*
X0061857Y0202489D03*
X0061857Y0212489D03*
X0061857Y0222489D03*
X0061857Y0232489D03*
X0061857Y0242489D03*
X0061857Y0252489D03*
X0061857Y0262489D03*
X0061857Y0272489D03*
X0061857Y0282489D03*
X0061857Y0292489D03*
X0061857Y0302489D03*
X0061857Y0312489D03*
X0061857Y0322489D03*
X0051857Y0322489D03*
X0051857Y0312489D03*
X0041857Y0312489D03*
X0041857Y0322489D03*
X0041857Y0302489D03*
X0051857Y0302489D03*
X0051857Y0292489D03*
X0051857Y0282489D03*
X0041857Y0282489D03*
X0041857Y0292489D03*
X0041857Y0272489D03*
X0051857Y0272489D03*
X0051857Y0262489D03*
X0041857Y0262489D03*
X0041857Y0252489D03*
X0051857Y0252489D03*
X0051857Y0242489D03*
X0051857Y0232489D03*
X0041857Y0232489D03*
X0041857Y0242489D03*
X0041857Y0222489D03*
X0051857Y0222489D03*
X0051857Y0212489D03*
X0041857Y0212489D03*
X0041857Y0202489D03*
X0051857Y0202489D03*
X0051857Y0192489D03*
X0051857Y0182489D03*
X0041857Y0182489D03*
X0041857Y0192489D03*
X0041857Y0172489D03*
X0051857Y0172489D03*
X0051857Y0162489D03*
X0041857Y0162489D03*
X0041857Y0152489D03*
X0051857Y0152489D03*
X0051857Y0142489D03*
X0051857Y0132489D03*
X0041857Y0132489D03*
X0041857Y0142489D03*
X0041857Y0122489D03*
X0051857Y0122489D03*
X0051857Y0112489D03*
X0041857Y0112489D03*
X0041857Y0102489D03*
X0051857Y0102489D03*
X0051857Y0092489D03*
X0041857Y0092489D03*
X0041857Y0082489D03*
X0051857Y0082489D03*
X0051857Y0072489D03*
X0041857Y0072489D03*
D13*
X0228342Y0238970D03*
X0228342Y0240939D03*
X0228342Y0242907D03*
X0228342Y0244876D03*
X0228342Y0246844D03*
X0228342Y0248813D03*
X0228342Y0250781D03*
X0228342Y0252750D03*
X0228342Y0254718D03*
X0228342Y0256687D03*
X0228342Y0258655D03*
X0228342Y0260624D03*
X0228342Y0262592D03*
X0228342Y0264561D03*
X0228342Y0266529D03*
X0228342Y0268498D03*
X0272437Y0268498D03*
X0272437Y0266529D03*
X0272437Y0264561D03*
X0272437Y0262592D03*
X0272437Y0260624D03*
X0272437Y0258655D03*
X0272437Y0256687D03*
X0272437Y0254718D03*
X0272437Y0252750D03*
X0272437Y0250781D03*
X0272437Y0248813D03*
X0272437Y0246844D03*
X0272437Y0244876D03*
X0272437Y0242907D03*
X0272437Y0240939D03*
X0272437Y0238970D03*
D14*
X0265153Y0231687D03*
X0263185Y0231687D03*
X0261216Y0231687D03*
X0259248Y0231687D03*
X0257279Y0231687D03*
X0255311Y0231687D03*
X0253342Y0231687D03*
X0251374Y0231687D03*
X0249405Y0231687D03*
X0247437Y0231687D03*
X0245468Y0231687D03*
X0243500Y0231687D03*
X0241531Y0231687D03*
X0239562Y0231687D03*
X0237594Y0231687D03*
X0235625Y0231687D03*
X0235625Y0275781D03*
X0237594Y0275781D03*
X0239562Y0275781D03*
X0241531Y0275781D03*
X0243500Y0275781D03*
X0245468Y0275781D03*
X0247437Y0275781D03*
X0249405Y0275781D03*
X0251374Y0275781D03*
X0253342Y0275781D03*
X0255311Y0275781D03*
X0257279Y0275781D03*
X0259248Y0275781D03*
X0261216Y0275781D03*
X0263185Y0275781D03*
X0265153Y0275781D03*
D15*
X0256688Y0314600D03*
X0256688Y0317159D03*
X0256688Y0319718D03*
X0256688Y0322277D03*
X0256688Y0324836D03*
X0256688Y0327395D03*
X0256688Y0329954D03*
X0256688Y0332513D03*
X0256688Y0335073D03*
X0256688Y0337632D03*
X0256688Y0340191D03*
X0256688Y0342750D03*
X0256688Y0345309D03*
X0256688Y0347868D03*
X0228342Y0347868D03*
X0228342Y0345309D03*
X0228342Y0342750D03*
X0228342Y0340191D03*
X0228342Y0337632D03*
X0228342Y0335073D03*
X0228342Y0332513D03*
X0228342Y0329954D03*
X0228342Y0327395D03*
X0228342Y0324836D03*
X0228342Y0322277D03*
X0228342Y0319718D03*
X0228342Y0317159D03*
X0228342Y0314600D03*
D16*
X0255468Y0293734D03*
X0265311Y0293734D03*
D17*
X0274011Y0284758D03*
X0274011Y0277671D03*
X0283854Y0277671D03*
X0283854Y0284758D03*
X0283854Y0229797D03*
X0283854Y0222710D03*
X0274011Y0222710D03*
X0274011Y0229797D03*
X0226767Y0277671D03*
X0226767Y0284758D03*
X0216925Y0284758D03*
X0216925Y0277671D03*
X0215448Y0313754D03*
X0215448Y0320840D03*
X0215448Y0328360D03*
X0215448Y0335447D03*
X0263677Y0352966D03*
X0263677Y0360053D03*
D18*
X0276944Y0351175D03*
X0284031Y0351175D03*
X0280429Y0315742D03*
X0273342Y0315742D03*
X0271570Y0304915D03*
X0264484Y0304915D03*
X0273342Y0295073D03*
X0280429Y0295073D03*
X0219562Y0350191D03*
X0212476Y0350191D03*
D19*
X0209051Y0350191D03*
X0215448Y0338872D03*
X0219877Y0341332D03*
X0248421Y0335427D03*
X0265153Y0322632D03*
X0274996Y0304915D03*
X0283854Y0315742D03*
X0283854Y0295073D03*
X0278933Y0285230D03*
X0266137Y0283262D03*
X0254326Y0283262D03*
X0242907Y0302370D03*
X0236660Y0298749D03*
X0229139Y0293734D03*
X0221639Y0293734D03*
X0221846Y0285230D03*
X0220862Y0270466D03*
X0250389Y0306284D03*
X0273519Y0351175D03*
X0263677Y0363478D03*
X0279917Y0237986D03*
X0278933Y0222238D03*
D20*
X0283185Y0326096D03*
X0274523Y0326096D03*
X0274523Y0340663D03*
X0283185Y0340663D03*
D21*
X0220271Y0350191D03*
D22*
X0215448Y0328045D03*
X0263677Y0352651D03*
X0283785Y0276979D03*
X0283985Y0230260D03*
X0216920Y0276901D03*
D23*
X0253442Y0367071D03*
D24*
X0243442Y0368071D03*
X0233442Y0367071D03*
X0223442Y0368071D03*
X0213442Y0367071D03*
X0203442Y0368071D03*
X0193442Y0367071D03*
X0183442Y0368071D03*
X0162618Y0026754D03*
X0172618Y0025754D03*
X0152618Y0025754D03*
X0142618Y0026754D03*
X0132618Y0025754D03*
X0122618Y0026754D03*
X0112618Y0025754D03*
X0102618Y0026754D03*
X0092618Y0025754D03*
X0082618Y0026754D03*
D25*
X0293681Y0052788D02*
X0293681Y0057988D01*
X0303681Y0057988D02*
X0303681Y0052788D01*
X0313681Y0052788D02*
X0313681Y0057988D01*
D26*
X0258799Y0039012D02*
X0258799Y0031212D01*
X0216280Y0030621D02*
X0216280Y0038421D01*
D27*
X0094626Y0081569D02*
X0088721Y0081569D01*
X0088721Y0113065D01*
X0094626Y0113065D01*
X0094626Y0081569D01*
X0094626Y0215427D02*
X0088721Y0215427D01*
X0088721Y0246923D01*
X0094626Y0246923D01*
X0094626Y0215427D01*
X0366280Y0215427D02*
X0366280Y0246923D01*
X0372185Y0246923D01*
X0372185Y0215427D01*
X0366280Y0215427D01*
D28*
X0347185Y0230663D03*
X0114311Y0230663D03*
X0114311Y0097514D03*
D29*
X0041870Y0042002D03*
X0041870Y0353025D03*
X0352894Y0353025D03*
X0352894Y0042002D03*
D30*
X0313721Y0076647D03*
X0313721Y0079010D03*
X0303681Y0084521D03*
X0303681Y0086884D03*
X0297776Y0087277D03*
X0297776Y0084915D03*
X0265886Y0113655D03*
X0265886Y0116018D03*
X0245807Y0110899D03*
X0243445Y0110899D03*
X0223760Y0098104D03*
X0223760Y0095742D03*
X0223760Y0093380D03*
X0223760Y0091018D03*
X0217755Y0084521D03*
X0217755Y0082159D03*
X0235374Y0066411D03*
X0237736Y0066411D03*
X0238721Y0073498D03*
X0238721Y0075860D03*
X0217854Y0050663D03*
X0215492Y0050663D03*
X0201122Y0051451D03*
X0201122Y0049088D03*
X0198406Y0054128D03*
X0198406Y0056490D03*
X0195413Y0058852D03*
X0195413Y0061214D03*
X0192658Y0063813D03*
X0192658Y0066175D03*
X0192067Y0041608D03*
X0194429Y0041608D03*
X0222579Y0025735D03*
X0224941Y0025735D03*
X0248760Y0028616D03*
X0248760Y0030978D03*
X0221398Y0111293D03*
X0221398Y0113655D03*
X0208406Y0108144D03*
X0206043Y0108144D03*
X0229665Y0137277D03*
X0229665Y0139640D03*
X0215492Y0154241D03*
X0215492Y0156603D03*
X0215492Y0158965D03*
X0228878Y0165230D03*
X0231240Y0165230D03*
X0223366Y0175073D03*
X0223366Y0177435D03*
X0233209Y0191608D03*
X0235583Y0191601D03*
X0243051Y0188262D03*
X0243051Y0185899D03*
X0210374Y0177435D03*
X0210374Y0175073D03*
X0202303Y0165230D03*
X0199941Y0165230D03*
X0191083Y0184718D03*
X0191083Y0187081D03*
X0194232Y0191608D03*
X0194232Y0193970D03*
X0194232Y0202710D03*
X0194232Y0205073D03*
X0210571Y0213262D03*
X0210571Y0215624D03*
X0213327Y0224088D03*
X0215177Y0226018D03*
X0206209Y0226304D03*
X0203846Y0226304D03*
X0201484Y0226304D03*
X0200303Y0228666D03*
X0202665Y0228666D03*
X0205028Y0228666D03*
X0210177Y0236962D03*
X0212539Y0236962D03*
X0206634Y0247514D03*
X0204272Y0247514D03*
X0210177Y0255978D03*
X0210177Y0258340D03*
X0212933Y0261293D03*
X0215295Y0261293D03*
X0216280Y0252948D03*
X0218642Y0252948D03*
X0234193Y0244167D03*
X0235768Y0242395D03*
X0239311Y0245151D03*
X0239311Y0247514D03*
X0242854Y0253025D03*
X0242854Y0255388D03*
X0251319Y0251844D03*
X0251319Y0249482D03*
X0248169Y0241805D03*
X0245807Y0241805D03*
X0256831Y0241214D03*
X0256831Y0238852D03*
X0264311Y0249482D03*
X0264311Y0251844D03*
X0266673Y0257750D03*
X0266673Y0260112D03*
X0280453Y0264836D03*
X0280453Y0267199D03*
X0280847Y0271923D03*
X0283209Y0271923D03*
X0293642Y0267199D03*
X0293642Y0264836D03*
X0293642Y0258931D03*
X0293642Y0256569D03*
X0285177Y0231372D03*
X0282815Y0231372D03*
X0250925Y0266018D03*
X0250925Y0268380D03*
X0194626Y0276844D03*
X0194626Y0279206D03*
X0194626Y0252632D03*
X0194626Y0250269D03*
X0186162Y0242907D03*
X0183799Y0242789D03*
X0183091Y0246569D03*
X0183091Y0248931D03*
X0186752Y0239049D03*
X0189114Y0239049D03*
X0181634Y0235506D03*
X0179272Y0235506D03*
X0161949Y0268380D03*
X0161949Y0280191D03*
X0161949Y0292002D03*
X0161949Y0303813D03*
X0161949Y0315624D03*
X0161949Y0327435D03*
X0161949Y0339246D03*
X0161949Y0351057D03*
X0150138Y0351057D03*
X0150138Y0339246D03*
X0150138Y0327435D03*
X0150138Y0315624D03*
X0150138Y0303813D03*
X0150138Y0292002D03*
X0150138Y0280191D03*
X0150138Y0268380D03*
X0126516Y0268380D03*
X0126516Y0280191D03*
X0126516Y0292002D03*
X0126516Y0303813D03*
X0126516Y0315624D03*
X0126516Y0327435D03*
X0114705Y0327435D03*
X0114705Y0315624D03*
X0102894Y0315624D03*
X0102894Y0327435D03*
X0091083Y0327435D03*
X0091083Y0315624D03*
X0091083Y0303813D03*
X0102894Y0303813D03*
X0114705Y0303813D03*
X0114705Y0292002D03*
X0102894Y0292002D03*
X0091083Y0292002D03*
X0091083Y0280191D03*
X0102894Y0280191D03*
X0114705Y0280191D03*
X0114705Y0268380D03*
X0102894Y0268380D03*
X0091083Y0268380D03*
X0091083Y0256569D03*
X0102894Y0256569D03*
X0102894Y0247710D03*
X0114705Y0247710D03*
X0114705Y0256569D03*
X0126516Y0256569D03*
X0126516Y0247710D03*
X0132421Y0244758D03*
X0132421Y0232947D03*
X0132421Y0221136D03*
X0120610Y0224088D03*
X0120610Y0235899D03*
X0105847Y0235899D03*
X0105847Y0224088D03*
X0091083Y0197514D03*
X0091083Y0173892D03*
X0102894Y0173892D03*
X0114705Y0173892D03*
X0126516Y0173892D03*
X0138327Y0173892D03*
X0138327Y0162081D03*
X0126516Y0162081D03*
X0114705Y0162081D03*
X0102894Y0162081D03*
X0091083Y0162081D03*
X0091083Y0150269D03*
X0102894Y0150269D03*
X0114705Y0150269D03*
X0126516Y0150269D03*
X0138327Y0150269D03*
X0138327Y0197514D03*
X0126516Y0197514D03*
X0138327Y0103025D03*
X0138327Y0091214D03*
X0138327Y0079403D03*
X0138327Y0067592D03*
X0138327Y0055781D03*
X0150138Y0055781D03*
X0150138Y0067592D03*
X0150138Y0079403D03*
X0150138Y0091214D03*
X0150138Y0103025D03*
X0161949Y0103025D03*
X0161949Y0091214D03*
X0161949Y0079403D03*
X0161949Y0067592D03*
X0161949Y0055781D03*
X0126516Y0055781D03*
X0114705Y0055781D03*
X0102894Y0055781D03*
X0091083Y0055781D03*
X0079272Y0055781D03*
X0091083Y0067592D03*
X0102894Y0067592D03*
X0114705Y0067592D03*
X0126516Y0067592D03*
X0126516Y0079403D03*
X0114705Y0079403D03*
X0102894Y0079403D03*
X0114705Y0091214D03*
X0114705Y0103025D03*
X0067461Y0055781D03*
X0250335Y0140624D03*
X0250335Y0142986D03*
X0180453Y0342395D03*
X0180453Y0344758D03*
X0194626Y0348892D03*
X0194626Y0351254D03*
X0198957Y0351254D03*
X0198957Y0348892D03*
X0223760Y0352041D03*
X0226122Y0352041D03*
X0245020Y0344402D03*
X0247382Y0344402D03*
X0292658Y0357356D03*
X0292658Y0359718D03*
X0322185Y0359718D03*
X0322185Y0357356D03*
X0126516Y0351057D03*
X0126516Y0339246D03*
X0114705Y0339246D03*
X0114705Y0351057D03*
X0102894Y0351057D03*
X0102894Y0339246D03*
X0091083Y0339246D03*
X0091083Y0351057D03*
D31*
X0204272Y0237277D03*
D32*
X0156043Y0362868D03*
X0113524Y0362868D03*
D33*
X0110374Y0197514D03*
X0351122Y0164128D03*
X0351122Y0297317D03*
D34*
X0194626Y0327986D03*
X0194626Y0330742D03*
D35*
X0095217Y0361687D03*
M02*
