G75*
%MOIN*%
%OFA0B0*%
%FSLAX25Y25*%
%IPPOS*%
%LPD*%
%AMOC8*
5,1,8,0,0,1.08239X$1,22.5*
%
%ADD10C,0.00000*%
%ADD11R,0.20472X0.10630*%
%ADD12R,0.09370X0.06496*%
%ADD13C,0.00246*%
%ADD14R,0.05906X0.05118*%
%ADD15R,0.05118X0.05906*%
%ADD16R,0.02756X0.01200*%
%ADD17R,0.04200X0.08600*%
%ADD18R,0.02756X0.01575*%
%ADD19R,0.05000X0.10000*%
%ADD20R,0.03543X0.03150*%
%ADD21R,0.06299X0.05118*%
%ADD22OC8,0.07400*%
%ADD23C,0.04400*%
%ADD24R,0.07400X0.07400*%
%ADD25C,0.07400*%
%ADD26R,0.06299X0.07098*%
%ADD27C,0.05200*%
%ADD28R,0.04724X0.04724*%
%ADD29R,0.06299X0.05906*%
%ADD30C,0.07800*%
%ADD31C,0.00394*%
%ADD32C,0.29528*%
%ADD33R,0.02362X0.03937*%
%ADD34R,0.04921X0.07087*%
%ADD35C,0.01000*%
%ADD36C,0.02781*%
%ADD37C,0.01200*%
%ADD38C,0.02000*%
%ADD39C,0.00600*%
%ADD40C,0.00787*%
%ADD41C,0.03962*%
%ADD42C,0.04000*%
%ADD43C,0.00300*%
%ADD44C,0.02400*%
%ADD45C,0.14630*%
%ADD46C,0.01600*%
%ADD47C,0.05000*%
%ADD48C,0.13843*%
%ADD49C,0.02978*%
%ADD50C,0.09449*%
D10*
X0039902Y0020348D02*
X0020217Y0040033D01*
X0020217Y0354994D01*
X0039902Y0374679D01*
X0354862Y0374679D01*
X0374547Y0354994D01*
X0374547Y0040033D01*
X0354862Y0020348D01*
X0039902Y0020348D01*
X0080059Y0361687D02*
X0080061Y0361799D01*
X0080067Y0361910D01*
X0080077Y0362022D01*
X0080091Y0362133D01*
X0080108Y0362243D01*
X0080130Y0362353D01*
X0080156Y0362462D01*
X0080185Y0362570D01*
X0080218Y0362676D01*
X0080255Y0362782D01*
X0080296Y0362886D01*
X0080341Y0362989D01*
X0080389Y0363090D01*
X0080440Y0363189D01*
X0080495Y0363286D01*
X0080554Y0363381D01*
X0080615Y0363475D01*
X0080680Y0363566D01*
X0080749Y0363654D01*
X0080820Y0363740D01*
X0080894Y0363824D01*
X0080972Y0363904D01*
X0081052Y0363982D01*
X0081135Y0364058D01*
X0081220Y0364130D01*
X0081308Y0364199D01*
X0081398Y0364265D01*
X0081491Y0364327D01*
X0081586Y0364387D01*
X0081683Y0364443D01*
X0081781Y0364495D01*
X0081882Y0364544D01*
X0081984Y0364589D01*
X0082088Y0364631D01*
X0082193Y0364669D01*
X0082300Y0364703D01*
X0082407Y0364733D01*
X0082516Y0364760D01*
X0082625Y0364782D01*
X0082736Y0364801D01*
X0082846Y0364816D01*
X0082958Y0364827D01*
X0083069Y0364834D01*
X0083181Y0364837D01*
X0083293Y0364836D01*
X0083405Y0364831D01*
X0083516Y0364822D01*
X0083627Y0364809D01*
X0083738Y0364792D01*
X0083848Y0364772D01*
X0083957Y0364747D01*
X0084065Y0364719D01*
X0084172Y0364686D01*
X0084278Y0364650D01*
X0084382Y0364610D01*
X0084485Y0364567D01*
X0084587Y0364520D01*
X0084686Y0364469D01*
X0084784Y0364415D01*
X0084880Y0364357D01*
X0084974Y0364296D01*
X0085065Y0364232D01*
X0085154Y0364165D01*
X0085241Y0364094D01*
X0085325Y0364020D01*
X0085407Y0363944D01*
X0085485Y0363864D01*
X0085561Y0363782D01*
X0085634Y0363697D01*
X0085704Y0363610D01*
X0085770Y0363520D01*
X0085834Y0363428D01*
X0085894Y0363334D01*
X0085951Y0363238D01*
X0086004Y0363139D01*
X0086054Y0363039D01*
X0086100Y0362938D01*
X0086143Y0362834D01*
X0086182Y0362729D01*
X0086217Y0362623D01*
X0086248Y0362516D01*
X0086276Y0362407D01*
X0086299Y0362298D01*
X0086319Y0362188D01*
X0086335Y0362077D01*
X0086347Y0361966D01*
X0086355Y0361855D01*
X0086359Y0361743D01*
X0086359Y0361631D01*
X0086355Y0361519D01*
X0086347Y0361408D01*
X0086335Y0361297D01*
X0086319Y0361186D01*
X0086299Y0361076D01*
X0086276Y0360967D01*
X0086248Y0360858D01*
X0086217Y0360751D01*
X0086182Y0360645D01*
X0086143Y0360540D01*
X0086100Y0360436D01*
X0086054Y0360335D01*
X0086004Y0360235D01*
X0085951Y0360136D01*
X0085894Y0360040D01*
X0085834Y0359946D01*
X0085770Y0359854D01*
X0085704Y0359764D01*
X0085634Y0359677D01*
X0085561Y0359592D01*
X0085485Y0359510D01*
X0085407Y0359430D01*
X0085325Y0359354D01*
X0085241Y0359280D01*
X0085154Y0359209D01*
X0085065Y0359142D01*
X0084974Y0359078D01*
X0084880Y0359017D01*
X0084784Y0358959D01*
X0084686Y0358905D01*
X0084587Y0358854D01*
X0084485Y0358807D01*
X0084382Y0358764D01*
X0084278Y0358724D01*
X0084172Y0358688D01*
X0084065Y0358655D01*
X0083957Y0358627D01*
X0083848Y0358602D01*
X0083738Y0358582D01*
X0083627Y0358565D01*
X0083516Y0358552D01*
X0083405Y0358543D01*
X0083293Y0358538D01*
X0083181Y0358537D01*
X0083069Y0358540D01*
X0082958Y0358547D01*
X0082846Y0358558D01*
X0082736Y0358573D01*
X0082625Y0358592D01*
X0082516Y0358614D01*
X0082407Y0358641D01*
X0082300Y0358671D01*
X0082193Y0358705D01*
X0082088Y0358743D01*
X0081984Y0358785D01*
X0081882Y0358830D01*
X0081781Y0358879D01*
X0081683Y0358931D01*
X0081586Y0358987D01*
X0081491Y0359047D01*
X0081398Y0359109D01*
X0081308Y0359175D01*
X0081220Y0359244D01*
X0081135Y0359316D01*
X0081052Y0359392D01*
X0080972Y0359470D01*
X0080894Y0359550D01*
X0080820Y0359634D01*
X0080749Y0359720D01*
X0080680Y0359808D01*
X0080615Y0359899D01*
X0080554Y0359993D01*
X0080495Y0360088D01*
X0080440Y0360185D01*
X0080389Y0360284D01*
X0080341Y0360385D01*
X0080296Y0360488D01*
X0080255Y0360592D01*
X0080218Y0360698D01*
X0080185Y0360804D01*
X0080156Y0360912D01*
X0080130Y0361021D01*
X0080108Y0361131D01*
X0080091Y0361241D01*
X0080077Y0361352D01*
X0080067Y0361464D01*
X0080061Y0361575D01*
X0080059Y0361687D01*
D11*
X0155365Y0252208D03*
X0155365Y0219530D03*
D12*
X0203229Y0227831D03*
D13*
X0203844Y0232383D02*
X0204582Y0232383D01*
X0203844Y0232383D02*
X0203844Y0233909D01*
X0204582Y0233909D01*
X0204582Y0232383D01*
X0204582Y0232628D02*
X0203844Y0232628D01*
X0203844Y0232873D02*
X0204582Y0232873D01*
X0204582Y0233118D02*
X0203844Y0233118D01*
X0203844Y0233363D02*
X0204582Y0233363D01*
X0204582Y0233608D02*
X0203844Y0233608D01*
X0203844Y0233853D02*
X0204582Y0233853D01*
X0205813Y0233909D02*
X0206551Y0233909D01*
X0206551Y0232383D01*
X0205813Y0232383D01*
X0205813Y0233909D01*
X0205813Y0232628D02*
X0206551Y0232628D01*
X0206551Y0232873D02*
X0205813Y0232873D01*
X0205813Y0233118D02*
X0206551Y0233118D01*
X0206551Y0233363D02*
X0205813Y0233363D01*
X0205813Y0233608D02*
X0206551Y0233608D01*
X0206551Y0233853D02*
X0205813Y0233853D01*
X0202614Y0232383D02*
X0201876Y0232383D01*
X0201876Y0233909D01*
X0202614Y0233909D01*
X0202614Y0232383D01*
X0202614Y0232628D02*
X0201876Y0232628D01*
X0201876Y0232873D02*
X0202614Y0232873D01*
X0202614Y0233118D02*
X0201876Y0233118D01*
X0201876Y0233363D02*
X0202614Y0233363D01*
X0202614Y0233608D02*
X0201876Y0233608D01*
X0201876Y0233853D02*
X0202614Y0233853D01*
X0200645Y0232383D02*
X0199907Y0232383D01*
X0199907Y0233909D01*
X0200645Y0233909D01*
X0200645Y0232383D01*
X0200645Y0232628D02*
X0199907Y0232628D01*
X0199907Y0232873D02*
X0200645Y0232873D01*
X0200645Y0233118D02*
X0199907Y0233118D01*
X0199907Y0233363D02*
X0200645Y0233363D01*
X0200645Y0233608D02*
X0199907Y0233608D01*
X0199907Y0233853D02*
X0200645Y0233853D01*
X0200645Y0221753D02*
X0199907Y0221753D01*
X0199907Y0223279D01*
X0200645Y0223279D01*
X0200645Y0221753D01*
X0200645Y0221998D02*
X0199907Y0221998D01*
X0199907Y0222243D02*
X0200645Y0222243D01*
X0200645Y0222488D02*
X0199907Y0222488D01*
X0199907Y0222733D02*
X0200645Y0222733D01*
X0200645Y0222978D02*
X0199907Y0222978D01*
X0199907Y0223223D02*
X0200645Y0223223D01*
X0201876Y0221753D02*
X0202614Y0221753D01*
X0201876Y0221753D02*
X0201876Y0223279D01*
X0202614Y0223279D01*
X0202614Y0221753D01*
X0202614Y0221998D02*
X0201876Y0221998D01*
X0201876Y0222243D02*
X0202614Y0222243D01*
X0202614Y0222488D02*
X0201876Y0222488D01*
X0201876Y0222733D02*
X0202614Y0222733D01*
X0202614Y0222978D02*
X0201876Y0222978D01*
X0201876Y0223223D02*
X0202614Y0223223D01*
X0203844Y0221753D02*
X0204582Y0221753D01*
X0203844Y0221753D02*
X0203844Y0223279D01*
X0204582Y0223279D01*
X0204582Y0221753D01*
X0204582Y0221998D02*
X0203844Y0221998D01*
X0203844Y0222243D02*
X0204582Y0222243D01*
X0204582Y0222488D02*
X0203844Y0222488D01*
X0203844Y0222733D02*
X0204582Y0222733D01*
X0204582Y0222978D02*
X0203844Y0222978D01*
X0203844Y0223223D02*
X0204582Y0223223D01*
X0205813Y0221753D02*
X0206551Y0221753D01*
X0205813Y0221753D02*
X0205813Y0223279D01*
X0206551Y0223279D01*
X0206551Y0221753D01*
X0206551Y0221998D02*
X0205813Y0221998D01*
X0205813Y0222243D02*
X0206551Y0222243D01*
X0206551Y0222488D02*
X0205813Y0222488D01*
X0205813Y0222733D02*
X0206551Y0222733D01*
X0206551Y0222978D02*
X0205813Y0222978D01*
X0205813Y0223223D02*
X0206551Y0223223D01*
D14*
X0223908Y0224980D03*
X0223908Y0232461D03*
X0231819Y0232441D03*
X0231819Y0224961D03*
X0239728Y0224987D03*
X0239728Y0232468D03*
X0229996Y0162371D03*
X0229996Y0154891D03*
X0206896Y0136924D03*
X0206896Y0129444D03*
X0207225Y0105349D03*
X0207225Y0097869D03*
X0207225Y0088436D03*
X0207225Y0080956D03*
X0244626Y0084482D03*
X0244626Y0091962D03*
X0244626Y0100466D03*
X0244626Y0107947D03*
X0200942Y0154941D03*
X0200942Y0162422D03*
X0201516Y0038262D03*
X0201516Y0030781D03*
X0193248Y0030781D03*
X0193248Y0038262D03*
X0295176Y0303771D03*
X0295176Y0311252D03*
X0304034Y0311291D03*
X0304034Y0303811D03*
X0313089Y0304008D03*
X0313089Y0311488D03*
X0321751Y0311685D03*
X0321751Y0304204D03*
D15*
X0290886Y0266018D03*
X0283406Y0266018D03*
X0283406Y0257750D03*
X0290886Y0257750D03*
X0261358Y0250663D03*
X0253878Y0250663D03*
X0253878Y0267199D03*
X0261358Y0267199D03*
X0205652Y0215706D03*
X0198172Y0215706D03*
X0213130Y0176254D03*
X0220610Y0176254D03*
X0220930Y0168350D03*
X0213449Y0168350D03*
X0255453Y0114836D03*
X0262933Y0114836D03*
X0262933Y0097907D03*
X0255453Y0097907D03*
X0255453Y0084521D03*
X0262933Y0084521D03*
X0286949Y0086096D03*
X0294429Y0086096D03*
X0294429Y0077829D03*
X0286949Y0077829D03*
X0302894Y0077829D03*
X0310374Y0077829D03*
X0230046Y0107987D03*
X0222565Y0107987D03*
D16*
X0220890Y0152898D03*
X0220890Y0154866D03*
X0220890Y0156835D03*
X0220890Y0158803D03*
X0220890Y0160772D03*
X0210064Y0160772D03*
X0210064Y0158803D03*
X0210064Y0156835D03*
X0210064Y0154866D03*
X0210064Y0152898D03*
D17*
X0215477Y0156835D03*
D18*
X0217723Y0098342D03*
X0217723Y0095783D03*
X0217723Y0093224D03*
X0217723Y0090664D03*
X0230124Y0090664D03*
X0230124Y0093224D03*
X0230124Y0095783D03*
X0230124Y0098342D03*
D19*
X0223825Y0094601D03*
D20*
X0225006Y0129641D03*
X0225006Y0137121D03*
X0216739Y0133381D03*
D21*
X0236424Y0129641D03*
X0236424Y0137121D03*
X0250400Y0136924D03*
X0250400Y0129444D03*
D22*
X0071857Y0132489D03*
X0071857Y0142489D03*
X0071857Y0152489D03*
X0071857Y0162489D03*
X0071857Y0172489D03*
X0071857Y0182489D03*
X0071857Y0192489D03*
X0071857Y0202489D03*
X0071857Y0212489D03*
X0071857Y0222489D03*
X0071857Y0232489D03*
X0071857Y0242489D03*
X0071857Y0252489D03*
X0071857Y0262489D03*
X0071857Y0272489D03*
X0071857Y0282489D03*
X0071857Y0292489D03*
X0071857Y0302489D03*
X0071857Y0312489D03*
X0071857Y0322489D03*
X0061857Y0322489D03*
X0061857Y0312489D03*
X0061857Y0302489D03*
X0061857Y0292489D03*
X0061857Y0282489D03*
X0061857Y0272489D03*
X0061857Y0262489D03*
X0061857Y0252489D03*
X0061857Y0242489D03*
X0061857Y0232489D03*
X0061857Y0222489D03*
X0061857Y0212489D03*
X0061857Y0202489D03*
X0061857Y0192489D03*
X0061857Y0182489D03*
X0061857Y0172489D03*
X0061857Y0162489D03*
X0061857Y0152489D03*
X0061857Y0142489D03*
X0061857Y0132489D03*
X0061857Y0122489D03*
X0061857Y0112489D03*
X0071857Y0112489D03*
X0071857Y0122489D03*
X0071857Y0102489D03*
X0071857Y0092489D03*
X0071857Y0082489D03*
X0071857Y0072489D03*
X0061857Y0072489D03*
X0061857Y0082489D03*
X0061857Y0092489D03*
X0061857Y0102489D03*
X0051857Y0102489D03*
X0051857Y0092489D03*
X0041857Y0092489D03*
X0041857Y0102489D03*
X0041857Y0112489D03*
X0041857Y0122489D03*
X0051857Y0122489D03*
X0051857Y0112489D03*
X0051857Y0132489D03*
X0051857Y0142489D03*
X0041857Y0142489D03*
X0041857Y0132489D03*
X0041857Y0152489D03*
X0051857Y0152489D03*
X0051857Y0162489D03*
X0051857Y0172489D03*
X0041857Y0172489D03*
X0041857Y0162489D03*
X0041857Y0182489D03*
X0041857Y0192489D03*
X0051857Y0192489D03*
X0051857Y0182489D03*
X0051857Y0202489D03*
X0041857Y0202489D03*
X0041857Y0212489D03*
X0041857Y0222489D03*
X0051857Y0222489D03*
X0051857Y0212489D03*
X0051857Y0232489D03*
X0051857Y0242489D03*
X0041857Y0242489D03*
X0041857Y0232489D03*
X0041857Y0252489D03*
X0051857Y0252489D03*
X0051857Y0262489D03*
X0051857Y0272489D03*
X0041857Y0272489D03*
X0041857Y0262489D03*
X0041857Y0282489D03*
X0041857Y0292489D03*
X0051857Y0292489D03*
X0051857Y0282489D03*
X0051857Y0302489D03*
X0041857Y0302489D03*
X0041857Y0312489D03*
X0041857Y0322489D03*
X0051857Y0322489D03*
X0051857Y0312489D03*
X0051857Y0082489D03*
X0041857Y0082489D03*
X0041857Y0072489D03*
X0051857Y0072489D03*
D23*
X0220862Y0270466D03*
X0221846Y0285230D03*
X0221639Y0293734D03*
X0229139Y0293734D03*
X0236660Y0298749D03*
X0242907Y0302370D03*
X0250389Y0306284D03*
X0265153Y0322632D03*
X0274996Y0304915D03*
X0283854Y0315742D03*
X0283854Y0295073D03*
X0278933Y0285230D03*
X0266137Y0283262D03*
X0254326Y0283262D03*
X0279917Y0237986D03*
X0278933Y0222238D03*
X0248421Y0335427D03*
X0273519Y0351175D03*
X0263677Y0363478D03*
X0219877Y0341332D03*
X0215448Y0338872D03*
X0209051Y0350191D03*
D24*
X0253442Y0367071D03*
D25*
X0243442Y0368071D03*
X0233442Y0367071D03*
X0223442Y0368071D03*
X0213442Y0367071D03*
X0203442Y0368071D03*
X0193442Y0367071D03*
X0183442Y0368071D03*
X0162618Y0026754D03*
X0172618Y0025754D03*
X0152618Y0025754D03*
X0142618Y0026754D03*
X0132618Y0025754D03*
X0122618Y0026754D03*
X0112618Y0025754D03*
X0102618Y0026754D03*
X0092618Y0025754D03*
X0082618Y0026754D03*
D26*
X0252020Y0258931D03*
X0263217Y0258931D03*
D27*
X0293681Y0057988D02*
X0293681Y0052788D01*
X0303681Y0052788D02*
X0303681Y0057988D01*
X0313681Y0057988D02*
X0313681Y0052788D01*
D28*
X0245906Y0037868D03*
X0245906Y0029994D03*
D29*
X0232815Y0033931D03*
D30*
X0216280Y0030621D02*
X0216280Y0038421D01*
X0258799Y0039012D02*
X0258799Y0031212D01*
D31*
X0094626Y0081569D02*
X0088721Y0081569D01*
X0088721Y0113065D01*
X0094626Y0113065D01*
X0094626Y0081569D01*
X0094626Y0215427D02*
X0088721Y0215427D01*
X0088721Y0246923D01*
X0094626Y0246923D01*
X0094626Y0215427D01*
X0366280Y0215427D02*
X0366280Y0246923D01*
X0372185Y0246923D01*
X0372185Y0215427D01*
X0366280Y0215427D01*
D32*
X0352894Y0353025D03*
X0352894Y0042002D03*
X0041870Y0042002D03*
X0041870Y0353025D03*
D33*
X0292658Y0364836D03*
X0298563Y0364836D03*
X0304469Y0364836D03*
X0310374Y0364836D03*
X0316280Y0364836D03*
X0322185Y0364836D03*
D34*
X0332441Y0344364D03*
X0283583Y0344364D03*
D35*
X0283406Y0266018D02*
X0283406Y0257750D01*
X0261358Y0260789D02*
X0261358Y0267199D01*
X0253878Y0257073D02*
X0253878Y0250663D01*
X0234119Y0239716D02*
X0239728Y0232468D01*
X0231819Y0232441D02*
X0231819Y0235249D01*
X0229909Y0237159D01*
X0210195Y0237159D01*
X0210021Y0237148D01*
X0206182Y0233146D01*
X0204213Y0233146D02*
X0204213Y0236730D01*
X0204202Y0236741D01*
X0206095Y0239716D02*
X0234119Y0239716D01*
X0212105Y0222516D02*
X0206182Y0222516D01*
X0204213Y0222516D02*
X0204213Y0227831D01*
X0203229Y0227831D02*
X0202245Y0228815D01*
X0202245Y0233146D01*
X0200245Y0233114D02*
X0200077Y0232947D01*
X0195807Y0232947D01*
X0193445Y0230584D01*
X0163130Y0230584D01*
X0155365Y0238350D01*
X0155365Y0252208D01*
X0167245Y0246867D02*
X0141836Y0246867D01*
X0141836Y0373179D01*
X0169775Y0373179D01*
X0169401Y0246837D01*
X0167245Y0246867D01*
X0169401Y0247010D02*
X0141836Y0247010D01*
X0141836Y0248009D02*
X0169404Y0248009D01*
X0169407Y0249007D02*
X0141836Y0249007D01*
X0141836Y0250006D02*
X0169410Y0250006D01*
X0169413Y0251004D02*
X0141836Y0251004D01*
X0141836Y0252003D02*
X0169416Y0252003D01*
X0169419Y0253001D02*
X0141836Y0253001D01*
X0141836Y0254000D02*
X0169422Y0254000D01*
X0169425Y0254998D02*
X0141836Y0254998D01*
X0141836Y0255997D02*
X0169428Y0255997D01*
X0169431Y0256995D02*
X0141836Y0256995D01*
X0141836Y0257994D02*
X0169434Y0257994D01*
X0169437Y0258992D02*
X0141836Y0258992D01*
X0141836Y0259991D02*
X0169440Y0259991D01*
X0169443Y0260989D02*
X0141836Y0260989D01*
X0141836Y0261988D02*
X0169446Y0261988D01*
X0169448Y0262986D02*
X0141836Y0262986D01*
X0141836Y0263985D02*
X0169451Y0263985D01*
X0169454Y0264984D02*
X0141836Y0264984D01*
X0141836Y0265982D02*
X0169457Y0265982D01*
X0169460Y0266981D02*
X0141836Y0266981D01*
X0141836Y0267979D02*
X0169463Y0267979D01*
X0169466Y0268978D02*
X0141836Y0268978D01*
X0141836Y0269976D02*
X0169469Y0269976D01*
X0169472Y0270975D02*
X0141836Y0270975D01*
X0141836Y0271973D02*
X0169475Y0271973D01*
X0169478Y0272972D02*
X0141836Y0272972D01*
X0141836Y0273970D02*
X0169481Y0273970D01*
X0169484Y0274969D02*
X0141836Y0274969D01*
X0141836Y0275967D02*
X0169487Y0275967D01*
X0169490Y0276966D02*
X0141836Y0276966D01*
X0141836Y0277964D02*
X0169493Y0277964D01*
X0169496Y0278963D02*
X0141836Y0278963D01*
X0141836Y0279961D02*
X0169499Y0279961D01*
X0169502Y0280960D02*
X0141836Y0280960D01*
X0141836Y0281958D02*
X0169505Y0281958D01*
X0169508Y0282957D02*
X0141836Y0282957D01*
X0141836Y0283955D02*
X0169511Y0283955D01*
X0169514Y0284954D02*
X0141836Y0284954D01*
X0141836Y0285952D02*
X0169516Y0285952D01*
X0169519Y0286951D02*
X0141836Y0286951D01*
X0141836Y0287949D02*
X0169522Y0287949D01*
X0169525Y0288948D02*
X0141836Y0288948D01*
X0141836Y0289946D02*
X0169528Y0289946D01*
X0169531Y0290945D02*
X0141836Y0290945D01*
X0141836Y0291943D02*
X0169534Y0291943D01*
X0169537Y0292942D02*
X0141836Y0292942D01*
X0141836Y0293940D02*
X0169540Y0293940D01*
X0169543Y0294939D02*
X0141836Y0294939D01*
X0141836Y0295937D02*
X0169546Y0295937D01*
X0169549Y0296936D02*
X0141836Y0296936D01*
X0141836Y0297934D02*
X0169552Y0297934D01*
X0169555Y0298933D02*
X0141836Y0298933D01*
X0141836Y0299931D02*
X0169558Y0299931D01*
X0169561Y0300930D02*
X0141836Y0300930D01*
X0141836Y0301928D02*
X0169564Y0301928D01*
X0169567Y0302927D02*
X0141836Y0302927D01*
X0141836Y0303925D02*
X0169570Y0303925D01*
X0169573Y0304924D02*
X0141836Y0304924D01*
X0141836Y0305922D02*
X0169576Y0305922D01*
X0169579Y0306921D02*
X0141836Y0306921D01*
X0141836Y0307919D02*
X0169582Y0307919D01*
X0169584Y0308918D02*
X0141836Y0308918D01*
X0141836Y0309917D02*
X0169587Y0309917D01*
X0169590Y0310915D02*
X0141836Y0310915D01*
X0141836Y0311914D02*
X0169593Y0311914D01*
X0169596Y0312912D02*
X0141836Y0312912D01*
X0141836Y0313911D02*
X0169599Y0313911D01*
X0169602Y0314909D02*
X0141836Y0314909D01*
X0141836Y0315908D02*
X0169605Y0315908D01*
X0169608Y0316906D02*
X0141836Y0316906D01*
X0141836Y0317905D02*
X0169611Y0317905D01*
X0169614Y0318903D02*
X0141836Y0318903D01*
X0141836Y0319902D02*
X0169617Y0319902D01*
X0169620Y0320900D02*
X0141836Y0320900D01*
X0141836Y0321899D02*
X0169623Y0321899D01*
X0169626Y0322897D02*
X0141836Y0322897D01*
X0141836Y0323896D02*
X0169629Y0323896D01*
X0169632Y0324894D02*
X0141836Y0324894D01*
X0141836Y0325893D02*
X0169635Y0325893D01*
X0169638Y0326891D02*
X0141836Y0326891D01*
X0141836Y0327890D02*
X0169641Y0327890D01*
X0169644Y0328888D02*
X0141836Y0328888D01*
X0141836Y0329887D02*
X0169647Y0329887D01*
X0169650Y0330885D02*
X0141836Y0330885D01*
X0141836Y0331884D02*
X0169652Y0331884D01*
X0169655Y0332882D02*
X0141836Y0332882D01*
X0141836Y0333881D02*
X0169658Y0333881D01*
X0169661Y0334879D02*
X0141836Y0334879D01*
X0141836Y0335878D02*
X0169664Y0335878D01*
X0169667Y0336876D02*
X0141836Y0336876D01*
X0141836Y0337875D02*
X0169670Y0337875D01*
X0169673Y0338873D02*
X0141836Y0338873D01*
X0141836Y0339872D02*
X0169676Y0339872D01*
X0169679Y0340870D02*
X0141836Y0340870D01*
X0141836Y0341869D02*
X0169682Y0341869D01*
X0169685Y0342867D02*
X0141836Y0342867D01*
X0141836Y0343866D02*
X0169688Y0343866D01*
X0169691Y0344864D02*
X0141836Y0344864D01*
X0141836Y0345863D02*
X0169694Y0345863D01*
X0169697Y0346861D02*
X0141836Y0346861D01*
X0141836Y0347860D02*
X0169700Y0347860D01*
X0169703Y0348858D02*
X0141836Y0348858D01*
X0141836Y0349857D02*
X0169706Y0349857D01*
X0169709Y0350855D02*
X0141836Y0350855D01*
X0141836Y0351854D02*
X0169712Y0351854D01*
X0169715Y0352852D02*
X0141836Y0352852D01*
X0141836Y0353851D02*
X0169718Y0353851D01*
X0169721Y0354850D02*
X0141836Y0354850D01*
X0141836Y0355848D02*
X0169723Y0355848D01*
X0169726Y0356847D02*
X0141836Y0356847D01*
X0141836Y0357845D02*
X0169729Y0357845D01*
X0169732Y0358844D02*
X0141836Y0358844D01*
X0141836Y0359842D02*
X0169735Y0359842D01*
X0169738Y0360841D02*
X0141836Y0360841D01*
X0141836Y0361839D02*
X0169741Y0361839D01*
X0169744Y0362838D02*
X0141836Y0362838D01*
X0141836Y0363836D02*
X0169747Y0363836D01*
X0169750Y0364835D02*
X0141836Y0364835D01*
X0141836Y0365833D02*
X0169753Y0365833D01*
X0169756Y0366832D02*
X0141836Y0366832D01*
X0141836Y0367830D02*
X0169759Y0367830D01*
X0169762Y0368829D02*
X0141836Y0368829D01*
X0141836Y0369827D02*
X0169765Y0369827D01*
X0169768Y0370826D02*
X0141836Y0370826D01*
X0141836Y0371824D02*
X0169771Y0371824D01*
X0169774Y0372823D02*
X0141836Y0372823D01*
X0203229Y0227831D02*
X0202245Y0226846D01*
X0202245Y0222516D01*
X0199804Y0222044D02*
X0199351Y0222044D01*
X0199351Y0216885D01*
X0198172Y0215706D01*
X0199351Y0222044D02*
X0170292Y0222044D01*
X0167942Y0219693D01*
X0155527Y0219693D01*
X0155365Y0219530D01*
X0205652Y0215706D02*
X0210292Y0215706D01*
X0210571Y0215624D01*
X0210571Y0213262D01*
X0207684Y0215706D02*
X0205652Y0215706D01*
X0213130Y0176254D02*
X0206240Y0169364D01*
X0206240Y0160309D01*
X0207746Y0158803D01*
X0210064Y0158803D01*
X0214311Y0159990D02*
X0215492Y0158965D01*
X0214311Y0159990D02*
X0214311Y0166035D01*
X0213445Y0166276D01*
X0213449Y0168350D01*
X0213195Y0136924D02*
X0206896Y0136924D01*
X0213195Y0136924D02*
X0216739Y0133381D01*
X0216739Y0120807D01*
X0213524Y0117592D01*
X0213524Y0097514D01*
X0215099Y0095939D01*
X0217567Y0095939D01*
X0217723Y0095783D01*
X0217723Y0098342D02*
X0223719Y0098342D01*
X0223760Y0098104D01*
X0230124Y0098342D02*
X0230124Y0107909D01*
X0230046Y0107987D01*
X0222565Y0107987D02*
X0221398Y0107987D01*
X0221398Y0113655D01*
X0225006Y0129641D02*
X0236424Y0129641D01*
X0250203Y0129641D01*
X0250400Y0129444D01*
X0250400Y0136924D02*
X0250400Y0141096D01*
X0250400Y0143051D01*
X0250335Y0142986D01*
X0250400Y0143051D02*
X0250532Y0143183D01*
X0236424Y0137121D02*
X0229902Y0137121D01*
X0225006Y0137121D01*
X0241083Y0114836D02*
X0237146Y0110899D01*
X0237146Y0099088D01*
X0233996Y0095939D01*
X0230281Y0095939D01*
X0230124Y0095783D01*
X0230124Y0093224D02*
X0243365Y0093224D01*
X0244626Y0091962D01*
X0244626Y0099482D01*
X0253878Y0099482D01*
X0255453Y0097907D01*
X0262933Y0097907D02*
X0262933Y0114836D01*
X0255453Y0114836D02*
X0241083Y0114836D01*
X0244626Y0100466D02*
X0244626Y0099482D01*
X0244626Y0084482D02*
X0231673Y0084482D01*
X0230059Y0086096D01*
X0230059Y0090599D01*
X0230124Y0090664D01*
X0217723Y0090664D02*
X0217723Y0085047D01*
X0217854Y0084915D01*
X0217854Y0084621D01*
X0217755Y0084521D01*
X0208902Y0079010D02*
X0259587Y0079010D01*
X0262933Y0082750D01*
X0262933Y0084521D01*
X0255453Y0084521D02*
X0255413Y0084482D01*
X0244626Y0084482D01*
X0217723Y0093224D02*
X0217682Y0093183D01*
X0207225Y0093183D01*
X0207225Y0088436D01*
X0207327Y0080978D02*
X0207225Y0080956D01*
X0208902Y0079010D01*
X0207225Y0093183D02*
X0207225Y0097869D01*
X0207421Y0045151D02*
X0238622Y0045151D01*
X0245906Y0037868D01*
X0256043Y0037868D01*
X0258360Y0035552D01*
X0258360Y0036050D01*
X0290689Y0068380D01*
X0287146Y0071923D01*
X0287146Y0077632D01*
X0286949Y0077829D01*
X0286949Y0086096D01*
X0294429Y0077829D02*
X0302894Y0077829D01*
X0301319Y0068380D02*
X0290689Y0068380D01*
X0301319Y0068380D02*
X0303681Y0066018D01*
X0303681Y0055388D01*
X0293681Y0055388D02*
X0270059Y0031018D01*
X0264114Y0025073D01*
X0235768Y0025073D01*
X0232815Y0028025D01*
X0232815Y0033931D01*
X0216870Y0033931D01*
X0216280Y0034521D01*
X0212539Y0030781D01*
X0201516Y0030781D01*
X0193248Y0030781D01*
X0201516Y0038262D02*
X0201516Y0039246D01*
X0207421Y0045151D01*
X0258360Y0035552D02*
X0258799Y0035112D01*
D36*
X0248760Y0030978D03*
X0248760Y0028616D03*
X0224941Y0025735D03*
X0222579Y0025735D03*
X0201122Y0049088D03*
X0201122Y0051451D03*
X0198406Y0054128D03*
X0198406Y0056490D03*
X0195413Y0058852D03*
X0195413Y0061214D03*
X0192658Y0063813D03*
X0192658Y0066175D03*
X0215492Y0050663D03*
X0217854Y0050663D03*
X0235374Y0066411D03*
X0237736Y0066411D03*
X0238721Y0073498D03*
X0238721Y0075860D03*
X0223760Y0091018D03*
X0223760Y0093380D03*
X0223760Y0095742D03*
X0223760Y0098104D03*
X0221398Y0111293D03*
X0221398Y0113655D03*
X0208406Y0108144D03*
X0206043Y0108144D03*
X0217755Y0084521D03*
X0217755Y0082159D03*
X0243445Y0110899D03*
X0245807Y0110899D03*
X0265886Y0113655D03*
X0265886Y0116018D03*
X0250335Y0140624D03*
X0250335Y0142986D03*
X0229665Y0139640D03*
X0229665Y0137277D03*
X0215492Y0154241D03*
X0215492Y0156603D03*
X0215492Y0158965D03*
X0228878Y0165230D03*
X0231240Y0165230D03*
X0223366Y0175073D03*
X0223366Y0177435D03*
X0233209Y0191608D03*
X0235583Y0191601D03*
X0243051Y0188262D03*
X0243051Y0185899D03*
X0210374Y0177435D03*
X0210374Y0175073D03*
X0202303Y0165230D03*
X0199941Y0165230D03*
X0191083Y0184718D03*
X0191083Y0187081D03*
X0194232Y0191608D03*
X0194232Y0193970D03*
X0194232Y0202710D03*
X0194232Y0205073D03*
X0210571Y0213262D03*
X0210571Y0215624D03*
X0213327Y0224088D03*
X0215177Y0226018D03*
X0206209Y0226304D03*
X0203846Y0226304D03*
X0201484Y0226304D03*
X0200303Y0228666D03*
X0202665Y0228666D03*
X0205028Y0228666D03*
X0210177Y0236962D03*
X0212539Y0236962D03*
X0206634Y0247514D03*
X0204272Y0247514D03*
X0210177Y0255978D03*
X0210177Y0258340D03*
X0212933Y0261293D03*
X0215295Y0261293D03*
X0216280Y0252948D03*
X0218642Y0252948D03*
X0234193Y0244167D03*
X0235768Y0242395D03*
X0239311Y0245151D03*
X0239311Y0247514D03*
X0242854Y0253025D03*
X0242854Y0255388D03*
X0251319Y0251844D03*
X0251319Y0249482D03*
X0248169Y0241805D03*
X0245807Y0241805D03*
X0256831Y0241214D03*
X0256831Y0238852D03*
X0264311Y0249482D03*
X0264311Y0251844D03*
X0266673Y0257750D03*
X0266673Y0260112D03*
X0280453Y0264836D03*
X0280453Y0267199D03*
X0280847Y0271923D03*
X0283209Y0271923D03*
X0293642Y0267199D03*
X0293642Y0264836D03*
X0293642Y0258931D03*
X0293642Y0256569D03*
X0285177Y0231372D03*
X0282815Y0231372D03*
X0250925Y0266018D03*
X0250925Y0268380D03*
X0194626Y0276844D03*
X0194626Y0279206D03*
X0194626Y0252632D03*
X0194626Y0250269D03*
X0186162Y0242907D03*
X0183799Y0242789D03*
X0183091Y0246569D03*
X0183091Y0248931D03*
X0186752Y0239049D03*
X0189114Y0239049D03*
X0181634Y0235506D03*
X0179272Y0235506D03*
X0161949Y0268380D03*
X0161949Y0280191D03*
X0161949Y0292002D03*
X0161949Y0303813D03*
X0161949Y0315624D03*
X0161949Y0327435D03*
X0161949Y0339246D03*
X0161949Y0351057D03*
X0150138Y0351057D03*
X0150138Y0339246D03*
X0150138Y0327435D03*
X0150138Y0315624D03*
X0150138Y0303813D03*
X0150138Y0292002D03*
X0150138Y0280191D03*
X0150138Y0268380D03*
X0126516Y0268380D03*
X0126516Y0280191D03*
X0126516Y0292002D03*
X0126516Y0303813D03*
X0126516Y0315624D03*
X0126516Y0327435D03*
X0114705Y0327435D03*
X0114705Y0315624D03*
X0102894Y0315624D03*
X0102894Y0327435D03*
X0091083Y0327435D03*
X0091083Y0315624D03*
X0091083Y0303813D03*
X0102894Y0303813D03*
X0114705Y0303813D03*
X0114705Y0292002D03*
X0102894Y0292002D03*
X0091083Y0292002D03*
X0091083Y0280191D03*
X0102894Y0280191D03*
X0114705Y0280191D03*
X0114705Y0268380D03*
X0102894Y0268380D03*
X0091083Y0268380D03*
X0091083Y0256569D03*
X0102894Y0256569D03*
X0102894Y0247710D03*
X0114705Y0247710D03*
X0114705Y0256569D03*
X0126516Y0256569D03*
X0126516Y0247710D03*
X0132421Y0244758D03*
X0132421Y0232947D03*
X0132421Y0221136D03*
X0120610Y0224088D03*
X0120610Y0235899D03*
X0105847Y0235899D03*
X0105847Y0224088D03*
X0091083Y0197514D03*
X0091083Y0173892D03*
X0102894Y0173892D03*
X0114705Y0173892D03*
X0126516Y0173892D03*
X0138327Y0173892D03*
X0138327Y0162081D03*
X0126516Y0162081D03*
X0114705Y0162081D03*
X0102894Y0162081D03*
X0091083Y0162081D03*
X0091083Y0150269D03*
X0102894Y0150269D03*
X0114705Y0150269D03*
X0126516Y0150269D03*
X0138327Y0150269D03*
X0138327Y0197514D03*
X0126516Y0197514D03*
X0138327Y0103025D03*
X0138327Y0091214D03*
X0138327Y0079403D03*
X0138327Y0067592D03*
X0138327Y0055781D03*
X0150138Y0055781D03*
X0150138Y0067592D03*
X0150138Y0079403D03*
X0150138Y0091214D03*
X0150138Y0103025D03*
X0161949Y0103025D03*
X0161949Y0091214D03*
X0161949Y0079403D03*
X0161949Y0067592D03*
X0161949Y0055781D03*
X0192067Y0041608D03*
X0194429Y0041608D03*
X0126516Y0055781D03*
X0114705Y0055781D03*
X0102894Y0055781D03*
X0091083Y0055781D03*
X0079272Y0055781D03*
X0091083Y0067592D03*
X0102894Y0067592D03*
X0114705Y0067592D03*
X0126516Y0067592D03*
X0126516Y0079403D03*
X0114705Y0079403D03*
X0102894Y0079403D03*
X0114705Y0091214D03*
X0114705Y0103025D03*
X0067461Y0055781D03*
X0297776Y0084915D03*
X0297776Y0087277D03*
X0303681Y0086884D03*
X0303681Y0084521D03*
X0313721Y0079010D03*
X0313721Y0076647D03*
X0180453Y0342395D03*
X0180453Y0344758D03*
X0194626Y0348892D03*
X0194626Y0351254D03*
X0198957Y0351254D03*
X0198957Y0348892D03*
X0223760Y0352041D03*
X0226122Y0352041D03*
X0245020Y0344402D03*
X0247382Y0344402D03*
X0292658Y0357356D03*
X0292658Y0359718D03*
X0322185Y0359718D03*
X0322185Y0357356D03*
X0126516Y0351057D03*
X0126516Y0339246D03*
X0114705Y0339246D03*
X0114705Y0351057D03*
X0102894Y0351057D03*
X0102894Y0339246D03*
X0091083Y0339246D03*
X0091083Y0351057D03*
D37*
X0093108Y0355931D02*
X0085911Y0355931D01*
X0085911Y0354733D02*
X0136786Y0354733D01*
X0136786Y0355931D02*
X0097326Y0355931D01*
X0096435Y0355562D02*
X0098686Y0356495D01*
X0100409Y0358218D01*
X0101341Y0360469D01*
X0101341Y0362905D01*
X0100409Y0365156D01*
X0098686Y0366879D01*
X0096435Y0367811D01*
X0093998Y0367811D01*
X0091747Y0366879D01*
X0090025Y0365156D01*
X0089092Y0362905D01*
X0089092Y0360469D01*
X0090025Y0358218D01*
X0091747Y0356495D01*
X0093998Y0355562D01*
X0096435Y0355562D01*
X0099321Y0357130D02*
X0136786Y0357130D01*
X0136786Y0358328D02*
X0100455Y0358328D01*
X0100951Y0359527D02*
X0136786Y0359527D01*
X0136786Y0360725D02*
X0101341Y0360725D01*
X0101341Y0361924D02*
X0136786Y0361924D01*
X0136786Y0363122D02*
X0101251Y0363122D01*
X0100755Y0364321D02*
X0136786Y0364321D01*
X0136786Y0365519D02*
X0100045Y0365519D01*
X0098847Y0366718D02*
X0136786Y0366718D01*
X0136786Y0367917D02*
X0085911Y0367917D01*
X0085911Y0369115D02*
X0136786Y0369115D01*
X0136786Y0370314D02*
X0085911Y0370314D01*
X0085911Y0371512D02*
X0136786Y0371512D01*
X0136786Y0372711D02*
X0085911Y0372711D01*
X0085911Y0373079D02*
X0136786Y0373079D01*
X0136786Y0217169D01*
X0136618Y0216308D01*
X0136618Y0215559D01*
X0096423Y0215559D01*
X0096423Y0247667D01*
X0095370Y0248720D01*
X0087976Y0248720D01*
X0086924Y0247667D01*
X0086924Y0215559D01*
X0085911Y0215559D01*
X0085911Y0357672D01*
X0087235Y0358996D01*
X0087958Y0360742D01*
X0087958Y0362632D01*
X0087235Y0364377D01*
X0085911Y0365702D01*
X0085911Y0373079D01*
X0085911Y0366718D02*
X0091587Y0366718D01*
X0090388Y0365519D02*
X0086093Y0365519D01*
X0087259Y0364321D02*
X0089679Y0364321D01*
X0089182Y0363122D02*
X0087755Y0363122D01*
X0087958Y0361924D02*
X0089092Y0361924D01*
X0089092Y0360725D02*
X0087951Y0360725D01*
X0087455Y0359527D02*
X0089482Y0359527D01*
X0089979Y0358328D02*
X0086567Y0358328D01*
X0085911Y0357130D02*
X0091112Y0357130D01*
X0085911Y0353534D02*
X0136786Y0353534D01*
X0136786Y0352336D02*
X0085911Y0352336D01*
X0085911Y0351137D02*
X0136786Y0351137D01*
X0136786Y0349939D02*
X0085911Y0349939D01*
X0085911Y0348740D02*
X0136786Y0348740D01*
X0136786Y0347542D02*
X0085911Y0347542D01*
X0085911Y0346343D02*
X0136786Y0346343D01*
X0136786Y0345145D02*
X0085911Y0345145D01*
X0085911Y0343946D02*
X0136786Y0343946D01*
X0136786Y0342748D02*
X0085911Y0342748D01*
X0085911Y0341549D02*
X0136786Y0341549D01*
X0136786Y0340351D02*
X0085911Y0340351D01*
X0085911Y0339152D02*
X0136786Y0339152D01*
X0136786Y0337954D02*
X0085911Y0337954D01*
X0085911Y0336755D02*
X0136786Y0336755D01*
X0136786Y0335557D02*
X0085911Y0335557D01*
X0085911Y0334358D02*
X0136786Y0334358D01*
X0136786Y0333160D02*
X0085911Y0333160D01*
X0085911Y0331961D02*
X0136786Y0331961D01*
X0136786Y0330763D02*
X0085911Y0330763D01*
X0085911Y0329564D02*
X0136786Y0329564D01*
X0136786Y0328366D02*
X0085911Y0328366D01*
X0085911Y0327167D02*
X0136786Y0327167D01*
X0136786Y0325969D02*
X0085911Y0325969D01*
X0085911Y0324770D02*
X0136786Y0324770D01*
X0136786Y0323572D02*
X0085911Y0323572D01*
X0085911Y0322373D02*
X0136786Y0322373D01*
X0136786Y0321175D02*
X0085911Y0321175D01*
X0085911Y0319976D02*
X0136786Y0319976D01*
X0136786Y0318778D02*
X0085911Y0318778D01*
X0085911Y0317579D02*
X0136786Y0317579D01*
X0136786Y0316381D02*
X0085911Y0316381D01*
X0085911Y0315182D02*
X0136786Y0315182D01*
X0136786Y0313984D02*
X0085911Y0313984D01*
X0085911Y0312785D02*
X0136786Y0312785D01*
X0136786Y0311586D02*
X0085911Y0311586D01*
X0085911Y0310388D02*
X0136786Y0310388D01*
X0136786Y0309189D02*
X0085911Y0309189D01*
X0085911Y0307991D02*
X0136786Y0307991D01*
X0136786Y0306792D02*
X0085911Y0306792D01*
X0085911Y0305594D02*
X0136786Y0305594D01*
X0136786Y0304395D02*
X0085911Y0304395D01*
X0085911Y0303197D02*
X0136786Y0303197D01*
X0136786Y0301998D02*
X0085911Y0301998D01*
X0085911Y0300800D02*
X0136786Y0300800D01*
X0136786Y0299601D02*
X0085911Y0299601D01*
X0085911Y0298403D02*
X0136786Y0298403D01*
X0136786Y0297204D02*
X0085911Y0297204D01*
X0085911Y0296006D02*
X0136786Y0296006D01*
X0136786Y0294807D02*
X0085911Y0294807D01*
X0085911Y0293609D02*
X0136786Y0293609D01*
X0136786Y0292410D02*
X0085911Y0292410D01*
X0085911Y0291212D02*
X0136786Y0291212D01*
X0136786Y0290013D02*
X0085911Y0290013D01*
X0085911Y0288815D02*
X0136786Y0288815D01*
X0136786Y0287616D02*
X0085911Y0287616D01*
X0085911Y0286418D02*
X0136786Y0286418D01*
X0136786Y0285219D02*
X0085911Y0285219D01*
X0085911Y0284021D02*
X0136786Y0284021D01*
X0136786Y0282822D02*
X0085911Y0282822D01*
X0085911Y0281624D02*
X0136786Y0281624D01*
X0136786Y0280425D02*
X0085911Y0280425D01*
X0085911Y0279227D02*
X0136786Y0279227D01*
X0136786Y0278028D02*
X0085911Y0278028D01*
X0085911Y0276830D02*
X0136786Y0276830D01*
X0136786Y0275631D02*
X0085911Y0275631D01*
X0085911Y0274433D02*
X0136786Y0274433D01*
X0136786Y0273234D02*
X0085911Y0273234D01*
X0085911Y0272036D02*
X0136786Y0272036D01*
X0136786Y0270837D02*
X0085911Y0270837D01*
X0085911Y0269639D02*
X0136786Y0269639D01*
X0136786Y0268440D02*
X0085911Y0268440D01*
X0085911Y0267242D02*
X0136786Y0267242D01*
X0136786Y0266043D02*
X0085911Y0266043D01*
X0085911Y0264845D02*
X0136786Y0264845D01*
X0136786Y0263646D02*
X0085911Y0263646D01*
X0085911Y0262448D02*
X0136786Y0262448D01*
X0136786Y0261249D02*
X0085911Y0261249D01*
X0085911Y0260050D02*
X0136786Y0260050D01*
X0136786Y0258852D02*
X0085911Y0258852D01*
X0085911Y0257653D02*
X0136786Y0257653D01*
X0136786Y0256455D02*
X0085911Y0256455D01*
X0085911Y0255256D02*
X0136786Y0255256D01*
X0136786Y0254058D02*
X0085911Y0254058D01*
X0085911Y0252859D02*
X0136786Y0252859D01*
X0136786Y0251661D02*
X0085911Y0251661D01*
X0085911Y0250462D02*
X0136786Y0250462D01*
X0136786Y0249264D02*
X0085911Y0249264D01*
X0085911Y0248065D02*
X0087322Y0248065D01*
X0086924Y0246867D02*
X0085911Y0246867D01*
X0085911Y0245668D02*
X0086924Y0245668D01*
X0086924Y0244470D02*
X0085911Y0244470D01*
X0085911Y0243271D02*
X0086924Y0243271D01*
X0086924Y0242073D02*
X0085911Y0242073D01*
X0085911Y0240874D02*
X0086924Y0240874D01*
X0086924Y0239676D02*
X0085911Y0239676D01*
X0085911Y0238477D02*
X0086924Y0238477D01*
X0086924Y0237279D02*
X0085911Y0237279D01*
X0085911Y0236080D02*
X0086924Y0236080D01*
X0086924Y0234882D02*
X0085911Y0234882D01*
X0085911Y0233683D02*
X0086924Y0233683D01*
X0086924Y0232485D02*
X0085911Y0232485D01*
X0085911Y0231286D02*
X0086924Y0231286D01*
X0086924Y0230088D02*
X0085911Y0230088D01*
X0085911Y0228889D02*
X0086924Y0228889D01*
X0086924Y0227691D02*
X0085911Y0227691D01*
X0085911Y0226492D02*
X0086924Y0226492D01*
X0086924Y0225294D02*
X0085911Y0225294D01*
X0085911Y0224095D02*
X0086924Y0224095D01*
X0086924Y0222897D02*
X0085911Y0222897D01*
X0085911Y0221698D02*
X0086924Y0221698D01*
X0086924Y0220500D02*
X0085911Y0220500D01*
X0085911Y0219301D02*
X0086924Y0219301D01*
X0086924Y0218103D02*
X0085911Y0218103D01*
X0085911Y0216904D02*
X0086924Y0216904D01*
X0086924Y0215706D02*
X0085911Y0215706D01*
X0096423Y0215706D02*
X0136618Y0215706D01*
X0136734Y0216904D02*
X0096423Y0216904D01*
X0096423Y0218103D02*
X0136786Y0218103D01*
X0136786Y0219301D02*
X0096423Y0219301D01*
X0096423Y0220500D02*
X0136786Y0220500D01*
X0136786Y0221698D02*
X0096423Y0221698D01*
X0096423Y0222897D02*
X0136786Y0222897D01*
X0136786Y0224095D02*
X0096423Y0224095D01*
X0096423Y0225294D02*
X0136786Y0225294D01*
X0136786Y0226492D02*
X0096423Y0226492D01*
X0096423Y0227691D02*
X0136786Y0227691D01*
X0136786Y0228889D02*
X0096423Y0228889D01*
X0096423Y0230088D02*
X0136786Y0230088D01*
X0136786Y0231286D02*
X0096423Y0231286D01*
X0096423Y0232485D02*
X0136786Y0232485D01*
X0136786Y0233683D02*
X0096423Y0233683D01*
X0096423Y0234882D02*
X0136786Y0234882D01*
X0136786Y0236080D02*
X0096423Y0236080D01*
X0096423Y0237279D02*
X0136786Y0237279D01*
X0136786Y0238477D02*
X0096423Y0238477D01*
X0096423Y0239676D02*
X0136786Y0239676D01*
X0136786Y0240874D02*
X0096423Y0240874D01*
X0096423Y0242073D02*
X0136786Y0242073D01*
X0136786Y0243271D02*
X0096423Y0243271D01*
X0096423Y0244470D02*
X0136786Y0244470D01*
X0136786Y0245668D02*
X0096423Y0245668D01*
X0096423Y0246867D02*
X0136786Y0246867D01*
X0136786Y0248065D02*
X0096025Y0248065D01*
X0061857Y0202489D02*
X0051857Y0202489D01*
X0051857Y0192489D02*
X0061857Y0192489D01*
X0071857Y0142489D02*
X0061857Y0132489D01*
X0051857Y0142489D01*
X0051379Y0142489D01*
X0041808Y0132917D01*
X0041857Y0132489D02*
X0051857Y0122489D01*
X0061857Y0132489D01*
X0071857Y0122489D01*
X0061857Y0112489D01*
X0061839Y0112489D01*
X0051911Y0122417D01*
X0051911Y0122529D01*
X0051897Y0122529D01*
X0041857Y0112489D01*
X0200942Y0154941D02*
X0202986Y0152898D01*
X0210064Y0152898D01*
X0210064Y0154866D02*
X0209988Y0154941D01*
X0200942Y0154941D01*
X0202836Y0156835D01*
X0210064Y0156835D01*
X0220890Y0156835D02*
X0228052Y0156835D01*
X0229996Y0154891D01*
X0228002Y0152898D01*
X0220890Y0152898D01*
X0220890Y0154866D02*
X0229183Y0154866D01*
X0229996Y0154891D01*
X0220930Y0160811D02*
X0220930Y0168350D01*
X0220930Y0160811D02*
X0220890Y0160772D01*
X0223704Y0209279D02*
X0224147Y0209327D01*
X0224147Y0224741D01*
X0223908Y0224980D01*
X0223542Y0232095D02*
X0218871Y0232095D01*
X0212497Y0222516D01*
X0213762Y0224391D01*
X0212105Y0222516D01*
X0204213Y0227831D02*
X0203229Y0227831D01*
X0212521Y0237198D02*
X0212611Y0237198D01*
X0212521Y0237198D02*
X0212769Y0237121D01*
X0223542Y0232095D02*
X0223908Y0232461D01*
X0231819Y0224961D02*
X0231819Y0209325D01*
X0231773Y0209279D01*
X0313089Y0304008D02*
X0313089Y0304204D01*
D38*
X0313089Y0311488D02*
X0313089Y0336137D01*
X0310374Y0338852D01*
X0310374Y0364836D01*
X0304469Y0364836D02*
X0304469Y0311291D01*
X0304034Y0311291D01*
X0295176Y0311252D02*
X0295176Y0344126D01*
X0298563Y0347514D01*
X0298563Y0364836D01*
X0292658Y0364836D02*
X0292658Y0357356D01*
X0316280Y0364836D02*
X0316280Y0341608D01*
X0321751Y0336137D01*
X0321751Y0311685D01*
X0322185Y0357356D02*
X0322185Y0364836D01*
X0239728Y0224987D02*
X0239728Y0217234D01*
X0231819Y0209325D01*
X0231773Y0209279D02*
X0224589Y0209279D01*
X0224147Y0209327D01*
X0223704Y0209279D02*
X0184529Y0209279D01*
X0184529Y0155260D02*
X0184529Y0136547D01*
X0191476Y0129600D01*
X0191476Y0129444D01*
X0206896Y0129444D01*
X0191476Y0129444D02*
X0191476Y0085899D01*
X0196398Y0080978D01*
X0207327Y0080978D01*
D39*
X0229902Y0137121D02*
X0229665Y0137357D01*
X0229665Y0139640D01*
X0250335Y0140624D02*
X0250335Y0142986D01*
X0250335Y0141162D01*
X0250400Y0141096D01*
X0210374Y0175073D02*
X0210374Y0177435D01*
X0194232Y0191608D02*
X0194232Y0193970D01*
X0199804Y0222044D02*
X0200276Y0222516D01*
X0252020Y0258931D02*
X0253878Y0257073D01*
X0261358Y0260789D02*
X0263217Y0258931D01*
X0256831Y0241214D02*
X0256831Y0238852D01*
X0293642Y0256569D02*
X0293642Y0258931D01*
D40*
X0285177Y0231372D02*
X0283233Y0231372D01*
X0283036Y0231175D01*
X0256634Y0231175D01*
X0253878Y0233931D01*
X0253878Y0250663D01*
X0251319Y0249482D02*
X0250925Y0250269D01*
X0194626Y0250269D01*
X0206095Y0239716D02*
X0204202Y0237823D01*
X0204202Y0236741D01*
X0282815Y0231372D02*
X0283233Y0231372D01*
X0245020Y0344402D02*
X0244664Y0344758D01*
X0180453Y0344758D01*
X0303681Y0086884D02*
X0303681Y0084521D01*
X0303681Y0078616D01*
X0302894Y0077829D01*
D41*
X0204272Y0237277D03*
D42*
X0184529Y0209279D02*
X0184529Y0155260D01*
X0200623Y0155260D01*
X0200942Y0154941D01*
X0200875Y0154874D01*
X0229996Y0154891D02*
X0230139Y0154641D01*
X0184529Y0209279D02*
X0158576Y0209279D01*
X0155312Y0212543D01*
X0155312Y0219478D01*
X0155365Y0219530D01*
X0295176Y0303771D02*
X0303995Y0303771D01*
X0304034Y0303811D01*
X0312892Y0303811D01*
X0313089Y0304008D01*
X0321554Y0304008D01*
X0321751Y0304204D01*
D43*
X0170807Y0224679D02*
X0170807Y0123104D01*
X0165492Y0117789D01*
X0069823Y0117789D01*
X0067461Y0120151D01*
X0067461Y0124285D01*
X0070413Y0127238D01*
X0078681Y0127238D01*
X0082225Y0130781D01*
X0137146Y0130781D01*
X0141280Y0134915D01*
X0141280Y0224679D01*
X0170807Y0224679D01*
X0170807Y0224530D02*
X0141280Y0224530D01*
X0141280Y0224231D02*
X0170807Y0224231D01*
X0170807Y0223933D02*
X0141280Y0223933D01*
X0141280Y0223634D02*
X0170807Y0223634D01*
X0170807Y0223336D02*
X0141280Y0223336D01*
X0141280Y0223037D02*
X0170807Y0223037D01*
X0170807Y0222739D02*
X0141280Y0222739D01*
X0141280Y0222440D02*
X0170807Y0222440D01*
X0170807Y0222142D02*
X0141280Y0222142D01*
X0141280Y0221843D02*
X0170807Y0221843D01*
X0170807Y0221545D02*
X0141280Y0221545D01*
X0141280Y0221246D02*
X0170807Y0221246D01*
X0170807Y0220948D02*
X0141280Y0220948D01*
X0141280Y0220649D02*
X0170807Y0220649D01*
X0170807Y0220351D02*
X0141280Y0220351D01*
X0141280Y0220052D02*
X0170807Y0220052D01*
X0170807Y0219754D02*
X0141280Y0219754D01*
X0141280Y0219455D02*
X0170807Y0219455D01*
X0170807Y0219157D02*
X0141280Y0219157D01*
X0141280Y0218858D02*
X0170807Y0218858D01*
X0170807Y0218560D02*
X0141280Y0218560D01*
X0141280Y0218261D02*
X0170807Y0218261D01*
X0170807Y0217963D02*
X0141280Y0217963D01*
X0141280Y0217664D02*
X0170807Y0217664D01*
X0170807Y0217366D02*
X0141280Y0217366D01*
X0141280Y0217067D02*
X0170807Y0217067D01*
X0170807Y0216769D02*
X0141280Y0216769D01*
X0141280Y0216470D02*
X0170807Y0216470D01*
X0170807Y0216172D02*
X0141280Y0216172D01*
X0141280Y0215873D02*
X0170807Y0215873D01*
X0170807Y0215575D02*
X0141280Y0215575D01*
X0141280Y0215276D02*
X0170807Y0215276D01*
X0170807Y0214978D02*
X0141280Y0214978D01*
X0141280Y0214679D02*
X0170807Y0214679D01*
X0170807Y0214381D02*
X0141280Y0214381D01*
X0141280Y0214082D02*
X0170807Y0214082D01*
X0170807Y0213784D02*
X0141280Y0213784D01*
X0141280Y0213485D02*
X0170807Y0213485D01*
X0170807Y0213187D02*
X0141280Y0213187D01*
X0141280Y0212888D02*
X0170807Y0212888D01*
X0170807Y0212590D02*
X0141280Y0212590D01*
X0141280Y0212291D02*
X0170807Y0212291D01*
X0170807Y0211992D02*
X0141280Y0211992D01*
X0141280Y0211694D02*
X0170807Y0211694D01*
X0170807Y0211395D02*
X0141280Y0211395D01*
X0141280Y0211097D02*
X0170807Y0211097D01*
X0170807Y0210798D02*
X0141280Y0210798D01*
X0141280Y0210500D02*
X0170807Y0210500D01*
X0170807Y0210201D02*
X0141280Y0210201D01*
X0141280Y0209903D02*
X0170807Y0209903D01*
X0170807Y0209604D02*
X0141280Y0209604D01*
X0141280Y0209306D02*
X0170807Y0209306D01*
X0170807Y0209007D02*
X0141280Y0209007D01*
X0141280Y0208709D02*
X0170807Y0208709D01*
X0170807Y0208410D02*
X0141280Y0208410D01*
X0141280Y0208112D02*
X0170807Y0208112D01*
X0170807Y0207813D02*
X0141280Y0207813D01*
X0141280Y0207515D02*
X0170807Y0207515D01*
X0170807Y0207216D02*
X0141280Y0207216D01*
X0141280Y0206918D02*
X0170807Y0206918D01*
X0170807Y0206619D02*
X0141280Y0206619D01*
X0141280Y0206321D02*
X0170807Y0206321D01*
X0170807Y0206022D02*
X0141280Y0206022D01*
X0141280Y0205724D02*
X0170807Y0205724D01*
X0170807Y0205425D02*
X0141280Y0205425D01*
X0141280Y0205127D02*
X0170807Y0205127D01*
X0170807Y0204828D02*
X0141280Y0204828D01*
X0141280Y0204530D02*
X0170807Y0204530D01*
X0170807Y0204231D02*
X0141280Y0204231D01*
X0141280Y0203933D02*
X0170807Y0203933D01*
X0170807Y0203634D02*
X0141280Y0203634D01*
X0141280Y0203336D02*
X0170807Y0203336D01*
X0170807Y0203037D02*
X0141280Y0203037D01*
X0141280Y0202739D02*
X0170807Y0202739D01*
X0170807Y0202440D02*
X0141280Y0202440D01*
X0141280Y0202142D02*
X0170807Y0202142D01*
X0170807Y0201843D02*
X0141280Y0201843D01*
X0141280Y0201545D02*
X0170807Y0201545D01*
X0170807Y0201246D02*
X0141280Y0201246D01*
X0141280Y0200948D02*
X0170807Y0200948D01*
X0170807Y0200649D02*
X0141280Y0200649D01*
X0141280Y0200351D02*
X0170807Y0200351D01*
X0170807Y0200052D02*
X0141280Y0200052D01*
X0141280Y0199754D02*
X0170807Y0199754D01*
X0170807Y0199455D02*
X0141280Y0199455D01*
X0141280Y0199157D02*
X0170807Y0199157D01*
X0170807Y0198858D02*
X0141280Y0198858D01*
X0141280Y0198559D02*
X0170807Y0198559D01*
X0170807Y0198261D02*
X0141280Y0198261D01*
X0141280Y0197962D02*
X0170807Y0197962D01*
X0170807Y0197664D02*
X0141280Y0197664D01*
X0141280Y0197365D02*
X0170807Y0197365D01*
X0170807Y0197067D02*
X0141280Y0197067D01*
X0141280Y0196768D02*
X0170807Y0196768D01*
X0170807Y0196470D02*
X0141280Y0196470D01*
X0141280Y0196171D02*
X0170807Y0196171D01*
X0170807Y0195873D02*
X0141280Y0195873D01*
X0141280Y0195574D02*
X0170807Y0195574D01*
X0170807Y0195276D02*
X0141280Y0195276D01*
X0141280Y0194977D02*
X0170807Y0194977D01*
X0170807Y0194679D02*
X0141280Y0194679D01*
X0141280Y0194380D02*
X0170807Y0194380D01*
X0170807Y0194082D02*
X0141280Y0194082D01*
X0141280Y0193783D02*
X0170807Y0193783D01*
X0170807Y0193485D02*
X0141280Y0193485D01*
X0141280Y0193186D02*
X0170807Y0193186D01*
X0170807Y0192888D02*
X0141280Y0192888D01*
X0141280Y0192589D02*
X0170807Y0192589D01*
X0170807Y0192291D02*
X0141280Y0192291D01*
X0141280Y0191992D02*
X0170807Y0191992D01*
X0170807Y0191694D02*
X0141280Y0191694D01*
X0141280Y0191395D02*
X0170807Y0191395D01*
X0170807Y0191097D02*
X0141280Y0191097D01*
X0141280Y0190798D02*
X0170807Y0190798D01*
X0170807Y0190500D02*
X0141280Y0190500D01*
X0141280Y0190201D02*
X0170807Y0190201D01*
X0170807Y0189903D02*
X0141280Y0189903D01*
X0141280Y0189604D02*
X0170807Y0189604D01*
X0170807Y0189306D02*
X0141280Y0189306D01*
X0141280Y0189007D02*
X0170807Y0189007D01*
X0170807Y0188709D02*
X0141280Y0188709D01*
X0141280Y0188410D02*
X0170807Y0188410D01*
X0170807Y0188112D02*
X0141280Y0188112D01*
X0141280Y0187813D02*
X0170807Y0187813D01*
X0170807Y0187515D02*
X0141280Y0187515D01*
X0141280Y0187216D02*
X0170807Y0187216D01*
X0170807Y0186918D02*
X0141280Y0186918D01*
X0141280Y0186619D02*
X0170807Y0186619D01*
X0170807Y0186321D02*
X0141280Y0186321D01*
X0141280Y0186022D02*
X0170807Y0186022D01*
X0170807Y0185723D02*
X0141280Y0185723D01*
X0141280Y0185425D02*
X0170807Y0185425D01*
X0170807Y0185126D02*
X0141280Y0185126D01*
X0141280Y0184828D02*
X0170807Y0184828D01*
X0170807Y0184529D02*
X0141280Y0184529D01*
X0141280Y0184231D02*
X0170807Y0184231D01*
X0170807Y0183932D02*
X0141280Y0183932D01*
X0141280Y0183634D02*
X0170807Y0183634D01*
X0170807Y0183335D02*
X0141280Y0183335D01*
X0141280Y0183037D02*
X0170807Y0183037D01*
X0170807Y0182738D02*
X0141280Y0182738D01*
X0141280Y0182440D02*
X0170807Y0182440D01*
X0170807Y0182141D02*
X0141280Y0182141D01*
X0141280Y0181843D02*
X0170807Y0181843D01*
X0170807Y0181544D02*
X0141280Y0181544D01*
X0141280Y0181246D02*
X0170807Y0181246D01*
X0170807Y0180947D02*
X0141280Y0180947D01*
X0141280Y0180649D02*
X0170807Y0180649D01*
X0170807Y0180350D02*
X0141280Y0180350D01*
X0141280Y0180052D02*
X0170807Y0180052D01*
X0170807Y0179753D02*
X0141280Y0179753D01*
X0141280Y0179455D02*
X0170807Y0179455D01*
X0170807Y0179156D02*
X0141280Y0179156D01*
X0141280Y0178858D02*
X0170807Y0178858D01*
X0170807Y0178559D02*
X0141280Y0178559D01*
X0141280Y0178261D02*
X0170807Y0178261D01*
X0170807Y0177962D02*
X0141280Y0177962D01*
X0141280Y0177664D02*
X0170807Y0177664D01*
X0170807Y0177365D02*
X0141280Y0177365D01*
X0141280Y0177067D02*
X0170807Y0177067D01*
X0170807Y0176768D02*
X0141280Y0176768D01*
X0141280Y0176470D02*
X0170807Y0176470D01*
X0170807Y0176171D02*
X0141280Y0176171D01*
X0141280Y0175873D02*
X0170807Y0175873D01*
X0170807Y0175574D02*
X0141280Y0175574D01*
X0141280Y0175276D02*
X0170807Y0175276D01*
X0170807Y0174977D02*
X0141280Y0174977D01*
X0141280Y0174679D02*
X0170807Y0174679D01*
X0170807Y0174380D02*
X0141280Y0174380D01*
X0141280Y0174082D02*
X0170807Y0174082D01*
X0170807Y0173783D02*
X0141280Y0173783D01*
X0141280Y0173485D02*
X0170807Y0173485D01*
X0170807Y0173186D02*
X0141280Y0173186D01*
X0141280Y0172888D02*
X0170807Y0172888D01*
X0170807Y0172589D02*
X0141280Y0172589D01*
X0141280Y0172290D02*
X0170807Y0172290D01*
X0170807Y0171992D02*
X0141280Y0171992D01*
X0141280Y0171693D02*
X0170807Y0171693D01*
X0170807Y0171395D02*
X0141280Y0171395D01*
X0141280Y0171096D02*
X0170807Y0171096D01*
X0170807Y0170798D02*
X0141280Y0170798D01*
X0141280Y0170499D02*
X0170807Y0170499D01*
X0170807Y0170201D02*
X0141280Y0170201D01*
X0141280Y0169902D02*
X0170807Y0169902D01*
X0170807Y0169604D02*
X0141280Y0169604D01*
X0141280Y0169305D02*
X0170807Y0169305D01*
X0170807Y0169007D02*
X0141280Y0169007D01*
X0141280Y0168708D02*
X0170807Y0168708D01*
X0170807Y0168410D02*
X0141280Y0168410D01*
X0141280Y0168111D02*
X0170807Y0168111D01*
X0170807Y0167813D02*
X0141280Y0167813D01*
X0141280Y0167514D02*
X0170807Y0167514D01*
X0170807Y0167216D02*
X0141280Y0167216D01*
X0141280Y0166917D02*
X0170807Y0166917D01*
X0170807Y0166619D02*
X0141280Y0166619D01*
X0141280Y0166320D02*
X0170807Y0166320D01*
X0170807Y0166022D02*
X0141280Y0166022D01*
X0141280Y0165723D02*
X0170807Y0165723D01*
X0170807Y0165425D02*
X0141280Y0165425D01*
X0141280Y0165126D02*
X0170807Y0165126D01*
X0170807Y0164828D02*
X0141280Y0164828D01*
X0141280Y0164529D02*
X0170807Y0164529D01*
X0170807Y0164231D02*
X0141280Y0164231D01*
X0141280Y0163932D02*
X0170807Y0163932D01*
X0170807Y0163634D02*
X0141280Y0163634D01*
X0141280Y0163335D02*
X0170807Y0163335D01*
X0170807Y0163037D02*
X0141280Y0163037D01*
X0141280Y0162738D02*
X0170807Y0162738D01*
X0170807Y0162440D02*
X0141280Y0162440D01*
X0141280Y0162141D02*
X0170807Y0162141D01*
X0170807Y0161843D02*
X0141280Y0161843D01*
X0141280Y0161544D02*
X0170807Y0161544D01*
X0170807Y0161246D02*
X0141280Y0161246D01*
X0141280Y0160947D02*
X0170807Y0160947D01*
X0170807Y0160649D02*
X0141280Y0160649D01*
X0141280Y0160350D02*
X0170807Y0160350D01*
X0170807Y0160052D02*
X0141280Y0160052D01*
X0141280Y0159753D02*
X0170807Y0159753D01*
X0170807Y0159455D02*
X0141280Y0159455D01*
X0141280Y0159156D02*
X0170807Y0159156D01*
X0170807Y0158857D02*
X0141280Y0158857D01*
X0141280Y0158559D02*
X0170807Y0158559D01*
X0170807Y0158260D02*
X0141280Y0158260D01*
X0141280Y0157962D02*
X0170807Y0157962D01*
X0170807Y0157663D02*
X0141280Y0157663D01*
X0141280Y0157365D02*
X0170807Y0157365D01*
X0170807Y0157066D02*
X0141280Y0157066D01*
X0141280Y0156768D02*
X0170807Y0156768D01*
X0170807Y0156469D02*
X0141280Y0156469D01*
X0141280Y0156171D02*
X0170807Y0156171D01*
X0170807Y0155872D02*
X0141280Y0155872D01*
X0141280Y0155574D02*
X0170807Y0155574D01*
X0170807Y0155275D02*
X0141280Y0155275D01*
X0141280Y0154977D02*
X0170807Y0154977D01*
X0170807Y0154678D02*
X0141280Y0154678D01*
X0141280Y0154380D02*
X0170807Y0154380D01*
X0170807Y0154081D02*
X0141280Y0154081D01*
X0141280Y0153783D02*
X0170807Y0153783D01*
X0170807Y0153484D02*
X0141280Y0153484D01*
X0141280Y0153186D02*
X0170807Y0153186D01*
X0170807Y0152887D02*
X0141280Y0152887D01*
X0141280Y0152589D02*
X0170807Y0152589D01*
X0170807Y0152290D02*
X0141280Y0152290D01*
X0141280Y0151992D02*
X0170807Y0151992D01*
X0170807Y0151693D02*
X0141280Y0151693D01*
X0141280Y0151395D02*
X0170807Y0151395D01*
X0170807Y0151096D02*
X0141280Y0151096D01*
X0141280Y0150798D02*
X0170807Y0150798D01*
X0170807Y0150499D02*
X0141280Y0150499D01*
X0141280Y0150201D02*
X0170807Y0150201D01*
X0170807Y0149902D02*
X0141280Y0149902D01*
X0141280Y0149604D02*
X0170807Y0149604D01*
X0170807Y0149305D02*
X0141280Y0149305D01*
X0141280Y0149007D02*
X0170807Y0149007D01*
X0170807Y0148708D02*
X0141280Y0148708D01*
X0141280Y0148410D02*
X0170807Y0148410D01*
X0170807Y0148111D02*
X0141280Y0148111D01*
X0141280Y0147813D02*
X0170807Y0147813D01*
X0170807Y0147514D02*
X0141280Y0147514D01*
X0141280Y0147216D02*
X0170807Y0147216D01*
X0170807Y0146917D02*
X0141280Y0146917D01*
X0141280Y0146619D02*
X0170807Y0146619D01*
X0170807Y0146320D02*
X0141280Y0146320D01*
X0141280Y0146021D02*
X0170807Y0146021D01*
X0170807Y0145723D02*
X0141280Y0145723D01*
X0141280Y0145424D02*
X0170807Y0145424D01*
X0170807Y0145126D02*
X0141280Y0145126D01*
X0141280Y0144827D02*
X0170807Y0144827D01*
X0170807Y0144529D02*
X0141280Y0144529D01*
X0141280Y0144230D02*
X0170807Y0144230D01*
X0170807Y0143932D02*
X0141280Y0143932D01*
X0141280Y0143633D02*
X0170807Y0143633D01*
X0170807Y0143335D02*
X0141280Y0143335D01*
X0141280Y0143036D02*
X0170807Y0143036D01*
X0170807Y0142738D02*
X0141280Y0142738D01*
X0141280Y0142439D02*
X0170807Y0142439D01*
X0170807Y0142141D02*
X0141280Y0142141D01*
X0141280Y0141842D02*
X0170807Y0141842D01*
X0170807Y0141544D02*
X0141280Y0141544D01*
X0141280Y0141245D02*
X0170807Y0141245D01*
X0170807Y0140947D02*
X0141280Y0140947D01*
X0141280Y0140648D02*
X0170807Y0140648D01*
X0170807Y0140350D02*
X0141280Y0140350D01*
X0141280Y0140051D02*
X0170807Y0140051D01*
X0170807Y0139753D02*
X0141280Y0139753D01*
X0141280Y0139454D02*
X0170807Y0139454D01*
X0170807Y0139156D02*
X0141280Y0139156D01*
X0141280Y0138857D02*
X0170807Y0138857D01*
X0170807Y0138559D02*
X0141280Y0138559D01*
X0141280Y0138260D02*
X0170807Y0138260D01*
X0170807Y0137962D02*
X0141280Y0137962D01*
X0141280Y0137663D02*
X0170807Y0137663D01*
X0170807Y0137365D02*
X0141280Y0137365D01*
X0141280Y0137066D02*
X0170807Y0137066D01*
X0170807Y0136768D02*
X0141280Y0136768D01*
X0141280Y0136469D02*
X0170807Y0136469D01*
X0170807Y0136171D02*
X0141280Y0136171D01*
X0141280Y0135872D02*
X0170807Y0135872D01*
X0170807Y0135574D02*
X0141280Y0135574D01*
X0141280Y0135275D02*
X0170807Y0135275D01*
X0170807Y0134977D02*
X0141280Y0134977D01*
X0141043Y0134678D02*
X0170807Y0134678D01*
X0170807Y0134380D02*
X0140744Y0134380D01*
X0140446Y0134081D02*
X0170807Y0134081D01*
X0170807Y0133783D02*
X0140147Y0133783D01*
X0139848Y0133484D02*
X0170807Y0133484D01*
X0170807Y0133186D02*
X0139550Y0133186D01*
X0139251Y0132887D02*
X0170807Y0132887D01*
X0170807Y0132588D02*
X0138953Y0132588D01*
X0138654Y0132290D02*
X0170807Y0132290D01*
X0170807Y0131991D02*
X0138356Y0131991D01*
X0138057Y0131693D02*
X0170807Y0131693D01*
X0170807Y0131394D02*
X0137759Y0131394D01*
X0137460Y0131096D02*
X0170807Y0131096D01*
X0170807Y0130797D02*
X0137162Y0130797D01*
X0137165Y0129006D02*
X0084309Y0129006D01*
X0084834Y0128708D02*
X0135868Y0128708D01*
X0134571Y0128409D02*
X0085360Y0128409D01*
X0085885Y0128111D02*
X0133274Y0128111D01*
X0131977Y0127812D02*
X0086411Y0127812D01*
X0086936Y0127514D02*
X0130680Y0127514D01*
X0129384Y0127215D02*
X0087461Y0127215D01*
X0087987Y0126917D02*
X0128087Y0126917D01*
X0126790Y0126618D02*
X0088512Y0126618D01*
X0089037Y0126320D02*
X0125493Y0126320D01*
X0124196Y0126021D02*
X0089563Y0126021D01*
X0090088Y0125723D02*
X0122899Y0125723D01*
X0121602Y0125424D02*
X0090614Y0125424D01*
X0091139Y0125126D02*
X0120305Y0125126D01*
X0119008Y0124827D02*
X0091664Y0124827D01*
X0092190Y0124529D02*
X0117711Y0124529D01*
X0116414Y0124230D02*
X0092715Y0124230D01*
X0093241Y0123932D02*
X0115117Y0123932D01*
X0113820Y0123633D02*
X0093766Y0123633D01*
X0094291Y0123335D02*
X0112523Y0123335D01*
X0111226Y0123036D02*
X0094817Y0123036D01*
X0095342Y0122738D02*
X0109929Y0122738D01*
X0108632Y0122439D02*
X0095867Y0122439D01*
X0096393Y0122141D02*
X0107335Y0122141D01*
X0106038Y0121842D02*
X0096918Y0121842D01*
X0097444Y0121544D02*
X0104741Y0121544D01*
X0103444Y0121245D02*
X0097969Y0121245D01*
X0098494Y0120947D02*
X0102147Y0120947D01*
X0100850Y0120648D02*
X0099020Y0120648D01*
X0099545Y0120350D02*
X0099553Y0120350D01*
X0099547Y0120348D02*
X0082225Y0130191D01*
X0078484Y0118183D01*
X0076319Y0108340D01*
X0074558Y0108331D01*
X0076707Y0110480D01*
X0076707Y0114497D01*
X0073865Y0117339D01*
X0069848Y0117339D01*
X0067007Y0114497D01*
X0067007Y0110480D01*
X0069182Y0108304D01*
X0054457Y0108230D01*
X0056707Y0110480D01*
X0056707Y0114497D01*
X0053865Y0117339D01*
X0049848Y0117339D01*
X0047007Y0114497D01*
X0047007Y0110480D01*
X0049282Y0108204D01*
X0037146Y0108144D01*
X0037392Y0120094D01*
X0039848Y0117639D01*
X0043865Y0117639D01*
X0046707Y0120480D01*
X0046707Y0124497D01*
X0043865Y0127339D01*
X0039848Y0127339D01*
X0037493Y0124984D01*
X0037796Y0139690D01*
X0039848Y0137639D01*
X0043865Y0137639D01*
X0046707Y0140480D01*
X0046707Y0144497D01*
X0044787Y0146417D01*
X0059103Y0146594D01*
X0057007Y0144497D01*
X0057007Y0140480D01*
X0059848Y0137639D01*
X0063865Y0137639D01*
X0066707Y0140480D01*
X0066707Y0144497D01*
X0064543Y0146661D01*
X0069823Y0146726D01*
X0142854Y0146726D01*
X0145217Y0144364D01*
X0149154Y0131766D01*
X0099547Y0120348D01*
X0083784Y0129305D02*
X0138462Y0129305D01*
X0139759Y0129603D02*
X0083258Y0129603D01*
X0082733Y0129902D02*
X0141056Y0129902D01*
X0142353Y0130200D02*
X0076427Y0130200D01*
X0076707Y0130480D02*
X0073865Y0127639D01*
X0069848Y0127639D01*
X0067007Y0130480D01*
X0067007Y0134497D01*
X0069848Y0137339D01*
X0073865Y0137339D01*
X0076707Y0134497D01*
X0076707Y0130480D01*
X0076707Y0130499D02*
X0143650Y0130499D01*
X0144947Y0130797D02*
X0076707Y0130797D01*
X0076707Y0131096D02*
X0146244Y0131096D01*
X0147541Y0131394D02*
X0076707Y0131394D01*
X0076707Y0131693D02*
X0148838Y0131693D01*
X0149083Y0131991D02*
X0076707Y0131991D01*
X0076707Y0132290D02*
X0148990Y0132290D01*
X0148896Y0132588D02*
X0076707Y0132588D01*
X0076707Y0132887D02*
X0148803Y0132887D01*
X0148710Y0133186D02*
X0076707Y0133186D01*
X0076707Y0133484D02*
X0148617Y0133484D01*
X0148523Y0133783D02*
X0076707Y0133783D01*
X0076707Y0134081D02*
X0148430Y0134081D01*
X0148337Y0134380D02*
X0076707Y0134380D01*
X0076526Y0134678D02*
X0148243Y0134678D01*
X0148150Y0134977D02*
X0076227Y0134977D01*
X0075929Y0135275D02*
X0148057Y0135275D01*
X0147964Y0135574D02*
X0075630Y0135574D01*
X0075332Y0135872D02*
X0147870Y0135872D01*
X0147777Y0136171D02*
X0075033Y0136171D01*
X0074735Y0136469D02*
X0147684Y0136469D01*
X0147590Y0136768D02*
X0074436Y0136768D01*
X0074138Y0137066D02*
X0147497Y0137066D01*
X0147404Y0137365D02*
X0037748Y0137365D01*
X0037754Y0137663D02*
X0039823Y0137663D01*
X0039524Y0137962D02*
X0037761Y0137962D01*
X0037767Y0138260D02*
X0039226Y0138260D01*
X0038927Y0138559D02*
X0037773Y0138559D01*
X0037779Y0138857D02*
X0038629Y0138857D01*
X0038330Y0139156D02*
X0037785Y0139156D01*
X0037791Y0139454D02*
X0038032Y0139454D01*
X0037742Y0137066D02*
X0049575Y0137066D01*
X0049848Y0137339D02*
X0047007Y0134497D01*
X0047007Y0130480D01*
X0049848Y0127639D01*
X0053865Y0127639D01*
X0056707Y0130480D01*
X0056707Y0134497D01*
X0053865Y0137339D01*
X0049848Y0137339D01*
X0049277Y0136768D02*
X0037736Y0136768D01*
X0037730Y0136469D02*
X0048978Y0136469D01*
X0048680Y0136171D02*
X0037724Y0136171D01*
X0037717Y0135872D02*
X0048381Y0135872D01*
X0048083Y0135574D02*
X0037711Y0135574D01*
X0037705Y0135275D02*
X0047784Y0135275D01*
X0047486Y0134977D02*
X0037699Y0134977D01*
X0037693Y0134678D02*
X0047187Y0134678D01*
X0047007Y0134380D02*
X0037687Y0134380D01*
X0037681Y0134081D02*
X0047007Y0134081D01*
X0047007Y0133783D02*
X0037674Y0133783D01*
X0037668Y0133484D02*
X0047007Y0133484D01*
X0047007Y0133186D02*
X0037662Y0133186D01*
X0037656Y0132887D02*
X0047007Y0132887D01*
X0047007Y0132588D02*
X0037650Y0132588D01*
X0037644Y0132290D02*
X0047007Y0132290D01*
X0047007Y0131991D02*
X0037637Y0131991D01*
X0037631Y0131693D02*
X0047007Y0131693D01*
X0047007Y0131394D02*
X0037625Y0131394D01*
X0037619Y0131096D02*
X0047007Y0131096D01*
X0047007Y0130797D02*
X0037613Y0130797D01*
X0037607Y0130499D02*
X0047007Y0130499D01*
X0047286Y0130200D02*
X0037601Y0130200D01*
X0037594Y0129902D02*
X0047584Y0129902D01*
X0047883Y0129603D02*
X0037588Y0129603D01*
X0037582Y0129305D02*
X0048181Y0129305D01*
X0048480Y0129006D02*
X0037576Y0129006D01*
X0037570Y0128708D02*
X0048778Y0128708D01*
X0049077Y0128409D02*
X0037564Y0128409D01*
X0037557Y0128111D02*
X0049375Y0128111D01*
X0049674Y0127812D02*
X0037551Y0127812D01*
X0037545Y0127514D02*
X0081391Y0127514D01*
X0081484Y0127812D02*
X0074039Y0127812D01*
X0074338Y0128111D02*
X0081577Y0128111D01*
X0081670Y0128409D02*
X0074636Y0128409D01*
X0074935Y0128708D02*
X0081763Y0128708D01*
X0081856Y0129006D02*
X0075233Y0129006D01*
X0075532Y0129305D02*
X0081949Y0129305D01*
X0082042Y0129603D02*
X0075830Y0129603D01*
X0076129Y0129902D02*
X0082135Y0129902D01*
X0081644Y0130200D02*
X0170807Y0130200D01*
X0170807Y0129902D02*
X0081345Y0129902D01*
X0081047Y0129603D02*
X0170807Y0129603D01*
X0170807Y0129305D02*
X0080748Y0129305D01*
X0080450Y0129006D02*
X0170807Y0129006D01*
X0170807Y0128708D02*
X0080151Y0128708D01*
X0079853Y0128409D02*
X0170807Y0128409D01*
X0170807Y0128111D02*
X0079554Y0128111D01*
X0079256Y0127812D02*
X0170807Y0127812D01*
X0170807Y0127514D02*
X0078957Y0127514D01*
X0081205Y0126917D02*
X0064287Y0126917D01*
X0063989Y0127215D02*
X0081298Y0127215D01*
X0081112Y0126618D02*
X0064586Y0126618D01*
X0064884Y0126320D02*
X0081019Y0126320D01*
X0080926Y0126021D02*
X0065183Y0126021D01*
X0065481Y0125723D02*
X0080833Y0125723D01*
X0080740Y0125424D02*
X0065780Y0125424D01*
X0066078Y0125126D02*
X0080647Y0125126D01*
X0080554Y0124827D02*
X0066377Y0124827D01*
X0066675Y0124529D02*
X0080461Y0124529D01*
X0080368Y0124230D02*
X0066707Y0124230D01*
X0066707Y0124497D02*
X0063865Y0127339D01*
X0059848Y0127339D01*
X0057007Y0124497D01*
X0057007Y0120480D01*
X0059848Y0117639D01*
X0063865Y0117639D01*
X0066707Y0120480D01*
X0066707Y0124497D01*
X0066707Y0123932D02*
X0080275Y0123932D01*
X0080182Y0123633D02*
X0066707Y0123633D01*
X0066707Y0123335D02*
X0080089Y0123335D01*
X0079996Y0123036D02*
X0066707Y0123036D01*
X0066707Y0122738D02*
X0079903Y0122738D01*
X0079810Y0122439D02*
X0066707Y0122439D01*
X0066707Y0122141D02*
X0079717Y0122141D01*
X0079624Y0121842D02*
X0066707Y0121842D01*
X0066707Y0121544D02*
X0079531Y0121544D01*
X0079438Y0121245D02*
X0066707Y0121245D01*
X0066707Y0120947D02*
X0079345Y0120947D01*
X0079252Y0120648D02*
X0066707Y0120648D01*
X0066576Y0120350D02*
X0079159Y0120350D01*
X0079066Y0120051D02*
X0066278Y0120051D01*
X0065979Y0119752D02*
X0078973Y0119752D01*
X0078880Y0119454D02*
X0065681Y0119454D01*
X0065382Y0119155D02*
X0078787Y0119155D01*
X0078694Y0118857D02*
X0065084Y0118857D01*
X0064785Y0118558D02*
X0078601Y0118558D01*
X0078508Y0118260D02*
X0064487Y0118260D01*
X0064188Y0117961D02*
X0078436Y0117961D01*
X0078370Y0117663D02*
X0063890Y0117663D01*
X0059823Y0117663D02*
X0043890Y0117663D01*
X0044188Y0117961D02*
X0059525Y0117961D01*
X0059226Y0118260D02*
X0044487Y0118260D01*
X0044785Y0118558D02*
X0058928Y0118558D01*
X0058629Y0118857D02*
X0045084Y0118857D01*
X0045382Y0119155D02*
X0058331Y0119155D01*
X0058032Y0119454D02*
X0045681Y0119454D01*
X0045979Y0119752D02*
X0057734Y0119752D01*
X0057435Y0120051D02*
X0046278Y0120051D01*
X0046576Y0120350D02*
X0057137Y0120350D01*
X0057007Y0120648D02*
X0046707Y0120648D01*
X0046707Y0120947D02*
X0057007Y0120947D01*
X0057007Y0121245D02*
X0046707Y0121245D01*
X0046707Y0121544D02*
X0057007Y0121544D01*
X0057007Y0121842D02*
X0046707Y0121842D01*
X0046707Y0122141D02*
X0057007Y0122141D01*
X0057007Y0122439D02*
X0046707Y0122439D01*
X0046707Y0122738D02*
X0057007Y0122738D01*
X0057007Y0123036D02*
X0046707Y0123036D01*
X0046707Y0123335D02*
X0057007Y0123335D01*
X0057007Y0123633D02*
X0046707Y0123633D01*
X0046707Y0123932D02*
X0057007Y0123932D01*
X0057007Y0124230D02*
X0046707Y0124230D01*
X0046675Y0124529D02*
X0057038Y0124529D01*
X0057336Y0124827D02*
X0046377Y0124827D01*
X0046078Y0125126D02*
X0057635Y0125126D01*
X0057933Y0125424D02*
X0045780Y0125424D01*
X0045481Y0125723D02*
X0058232Y0125723D01*
X0058530Y0126021D02*
X0045183Y0126021D01*
X0044884Y0126320D02*
X0058829Y0126320D01*
X0059127Y0126618D02*
X0044586Y0126618D01*
X0044287Y0126917D02*
X0059426Y0126917D01*
X0059724Y0127215D02*
X0043989Y0127215D01*
X0039724Y0127215D02*
X0037539Y0127215D01*
X0037533Y0126917D02*
X0039426Y0126917D01*
X0039127Y0126618D02*
X0037527Y0126618D01*
X0037521Y0126320D02*
X0038829Y0126320D01*
X0038530Y0126021D02*
X0037514Y0126021D01*
X0037508Y0125723D02*
X0038232Y0125723D01*
X0037933Y0125424D02*
X0037502Y0125424D01*
X0037496Y0125126D02*
X0037635Y0125126D01*
X0037435Y0120051D02*
X0037391Y0120051D01*
X0037385Y0119752D02*
X0037734Y0119752D01*
X0038032Y0119454D02*
X0037379Y0119454D01*
X0037373Y0119155D02*
X0038331Y0119155D01*
X0038629Y0118857D02*
X0037367Y0118857D01*
X0037361Y0118558D02*
X0038928Y0118558D01*
X0039226Y0118260D02*
X0037354Y0118260D01*
X0037348Y0117961D02*
X0039525Y0117961D01*
X0039823Y0117663D02*
X0037342Y0117663D01*
X0037336Y0117364D02*
X0078304Y0117364D01*
X0078239Y0117066D02*
X0074138Y0117066D01*
X0074437Y0116767D02*
X0078173Y0116767D01*
X0078107Y0116469D02*
X0074735Y0116469D01*
X0075034Y0116170D02*
X0078042Y0116170D01*
X0077976Y0115872D02*
X0075332Y0115872D01*
X0075631Y0115573D02*
X0077910Y0115573D01*
X0077845Y0115275D02*
X0075929Y0115275D01*
X0076228Y0114976D02*
X0077779Y0114976D01*
X0077713Y0114678D02*
X0076526Y0114678D01*
X0076707Y0114379D02*
X0077648Y0114379D01*
X0077582Y0114081D02*
X0076707Y0114081D01*
X0076707Y0113782D02*
X0077516Y0113782D01*
X0077451Y0113484D02*
X0076707Y0113484D01*
X0076707Y0113185D02*
X0077385Y0113185D01*
X0077319Y0112887D02*
X0076707Y0112887D01*
X0076707Y0112588D02*
X0077254Y0112588D01*
X0077188Y0112290D02*
X0076707Y0112290D01*
X0076707Y0111991D02*
X0077122Y0111991D01*
X0077057Y0111693D02*
X0076707Y0111693D01*
X0076707Y0111394D02*
X0076991Y0111394D01*
X0076925Y0111096D02*
X0076707Y0111096D01*
X0076707Y0110797D02*
X0076860Y0110797D01*
X0076794Y0110499D02*
X0076707Y0110499D01*
X0076728Y0110200D02*
X0076427Y0110200D01*
X0076662Y0109902D02*
X0076129Y0109902D01*
X0075830Y0109603D02*
X0076597Y0109603D01*
X0076531Y0109305D02*
X0075532Y0109305D01*
X0075233Y0109006D02*
X0076465Y0109006D01*
X0076400Y0108708D02*
X0074934Y0108708D01*
X0074636Y0108409D02*
X0076334Y0108409D01*
X0069077Y0108409D02*
X0054636Y0108409D01*
X0054934Y0108708D02*
X0068779Y0108708D01*
X0068480Y0109006D02*
X0055233Y0109006D01*
X0055532Y0109305D02*
X0068182Y0109305D01*
X0067883Y0109603D02*
X0055830Y0109603D01*
X0056129Y0109902D02*
X0067585Y0109902D01*
X0067286Y0110200D02*
X0056427Y0110200D01*
X0056707Y0110499D02*
X0067007Y0110499D01*
X0067007Y0110797D02*
X0056707Y0110797D01*
X0056707Y0111096D02*
X0067007Y0111096D01*
X0067007Y0111394D02*
X0056707Y0111394D01*
X0056707Y0111693D02*
X0067007Y0111693D01*
X0067007Y0111991D02*
X0056707Y0111991D01*
X0056707Y0112290D02*
X0067007Y0112290D01*
X0067007Y0112588D02*
X0056707Y0112588D01*
X0056707Y0112887D02*
X0067007Y0112887D01*
X0067007Y0113185D02*
X0056707Y0113185D01*
X0056707Y0113484D02*
X0067007Y0113484D01*
X0067007Y0113782D02*
X0056707Y0113782D01*
X0056707Y0114081D02*
X0067007Y0114081D01*
X0067007Y0114379D02*
X0056707Y0114379D01*
X0056526Y0114678D02*
X0067187Y0114678D01*
X0067485Y0114976D02*
X0056228Y0114976D01*
X0055929Y0115275D02*
X0067784Y0115275D01*
X0068082Y0115573D02*
X0055631Y0115573D01*
X0055332Y0115872D02*
X0068381Y0115872D01*
X0068679Y0116170D02*
X0055034Y0116170D01*
X0054735Y0116469D02*
X0068978Y0116469D01*
X0069276Y0116767D02*
X0054437Y0116767D01*
X0054138Y0117066D02*
X0069575Y0117066D01*
X0069651Y0117961D02*
X0165664Y0117961D01*
X0165963Y0118260D02*
X0069352Y0118260D01*
X0069054Y0118558D02*
X0166262Y0118558D01*
X0166560Y0118857D02*
X0068755Y0118857D01*
X0068457Y0119155D02*
X0166859Y0119155D01*
X0167157Y0119454D02*
X0068158Y0119454D01*
X0067860Y0119752D02*
X0167456Y0119752D01*
X0167754Y0120051D02*
X0067561Y0120051D01*
X0067461Y0120350D02*
X0168053Y0120350D01*
X0168351Y0120648D02*
X0067461Y0120648D01*
X0067461Y0120947D02*
X0168650Y0120947D01*
X0168948Y0121245D02*
X0067461Y0121245D01*
X0067461Y0121544D02*
X0169247Y0121544D01*
X0169545Y0121842D02*
X0067461Y0121842D01*
X0067461Y0122141D02*
X0169844Y0122141D01*
X0170142Y0122439D02*
X0067461Y0122439D01*
X0067461Y0122738D02*
X0170441Y0122738D01*
X0170739Y0123036D02*
X0067461Y0123036D01*
X0067461Y0123335D02*
X0170807Y0123335D01*
X0170807Y0123633D02*
X0067461Y0123633D01*
X0067461Y0123932D02*
X0170807Y0123932D01*
X0170807Y0124230D02*
X0067461Y0124230D01*
X0067704Y0124529D02*
X0170807Y0124529D01*
X0170807Y0124827D02*
X0068003Y0124827D01*
X0068301Y0125126D02*
X0170807Y0125126D01*
X0170807Y0125424D02*
X0068600Y0125424D01*
X0068898Y0125723D02*
X0170807Y0125723D01*
X0170807Y0126021D02*
X0069197Y0126021D01*
X0069495Y0126320D02*
X0170807Y0126320D01*
X0170807Y0126618D02*
X0069794Y0126618D01*
X0070092Y0126917D02*
X0170807Y0126917D01*
X0170807Y0127215D02*
X0070391Y0127215D01*
X0069674Y0127812D02*
X0054039Y0127812D01*
X0054338Y0128111D02*
X0069375Y0128111D01*
X0069077Y0128409D02*
X0054636Y0128409D01*
X0054935Y0128708D02*
X0068778Y0128708D01*
X0068480Y0129006D02*
X0055233Y0129006D01*
X0055532Y0129305D02*
X0068181Y0129305D01*
X0067883Y0129603D02*
X0055830Y0129603D01*
X0056129Y0129902D02*
X0067584Y0129902D01*
X0067286Y0130200D02*
X0056427Y0130200D01*
X0056707Y0130499D02*
X0067007Y0130499D01*
X0067007Y0130797D02*
X0056707Y0130797D01*
X0056707Y0131096D02*
X0067007Y0131096D01*
X0067007Y0131394D02*
X0056707Y0131394D01*
X0056707Y0131693D02*
X0067007Y0131693D01*
X0067007Y0131991D02*
X0056707Y0131991D01*
X0056707Y0132290D02*
X0067007Y0132290D01*
X0067007Y0132588D02*
X0056707Y0132588D01*
X0056707Y0132887D02*
X0067007Y0132887D01*
X0067007Y0133186D02*
X0056707Y0133186D01*
X0056707Y0133484D02*
X0067007Y0133484D01*
X0067007Y0133783D02*
X0056707Y0133783D01*
X0056707Y0134081D02*
X0067007Y0134081D01*
X0067007Y0134380D02*
X0056707Y0134380D01*
X0056526Y0134678D02*
X0067187Y0134678D01*
X0067486Y0134977D02*
X0056227Y0134977D01*
X0055929Y0135275D02*
X0067784Y0135275D01*
X0068083Y0135574D02*
X0055630Y0135574D01*
X0055332Y0135872D02*
X0068381Y0135872D01*
X0068680Y0136171D02*
X0055033Y0136171D01*
X0054735Y0136469D02*
X0068978Y0136469D01*
X0069277Y0136768D02*
X0054436Y0136768D01*
X0054138Y0137066D02*
X0069575Y0137066D01*
X0066577Y0140350D02*
X0146471Y0140350D01*
X0146378Y0140648D02*
X0066707Y0140648D01*
X0066707Y0140947D02*
X0146285Y0140947D01*
X0146191Y0141245D02*
X0066707Y0141245D01*
X0066707Y0141544D02*
X0146098Y0141544D01*
X0146005Y0141842D02*
X0066707Y0141842D01*
X0066707Y0142141D02*
X0145911Y0142141D01*
X0145818Y0142439D02*
X0066707Y0142439D01*
X0066707Y0142738D02*
X0145725Y0142738D01*
X0145632Y0143036D02*
X0066707Y0143036D01*
X0066707Y0143335D02*
X0145538Y0143335D01*
X0145445Y0143633D02*
X0066707Y0143633D01*
X0066707Y0143932D02*
X0145352Y0143932D01*
X0145258Y0144230D02*
X0066707Y0144230D01*
X0066675Y0144529D02*
X0145052Y0144529D01*
X0144753Y0144827D02*
X0066377Y0144827D01*
X0066078Y0145126D02*
X0144455Y0145126D01*
X0144156Y0145424D02*
X0065780Y0145424D01*
X0065481Y0145723D02*
X0143858Y0145723D01*
X0143559Y0146021D02*
X0065183Y0146021D01*
X0064884Y0146320D02*
X0143261Y0146320D01*
X0142962Y0146619D02*
X0064585Y0146619D01*
X0058829Y0146320D02*
X0044884Y0146320D01*
X0045183Y0146021D02*
X0058531Y0146021D01*
X0058232Y0145723D02*
X0045481Y0145723D01*
X0045780Y0145424D02*
X0057934Y0145424D01*
X0057635Y0145126D02*
X0046078Y0145126D01*
X0046377Y0144827D02*
X0057337Y0144827D01*
X0057038Y0144529D02*
X0046675Y0144529D01*
X0046707Y0144230D02*
X0057007Y0144230D01*
X0057007Y0143932D02*
X0046707Y0143932D01*
X0046707Y0143633D02*
X0057007Y0143633D01*
X0057007Y0143335D02*
X0046707Y0143335D01*
X0046707Y0143036D02*
X0057007Y0143036D01*
X0057007Y0142738D02*
X0046707Y0142738D01*
X0046707Y0142439D02*
X0057007Y0142439D01*
X0057007Y0142141D02*
X0046707Y0142141D01*
X0046707Y0141842D02*
X0057007Y0141842D01*
X0057007Y0141544D02*
X0046707Y0141544D01*
X0046707Y0141245D02*
X0057007Y0141245D01*
X0057007Y0140947D02*
X0046707Y0140947D01*
X0046707Y0140648D02*
X0057007Y0140648D01*
X0057136Y0140350D02*
X0046577Y0140350D01*
X0046278Y0140051D02*
X0057435Y0140051D01*
X0057733Y0139753D02*
X0045980Y0139753D01*
X0045681Y0139454D02*
X0058032Y0139454D01*
X0058330Y0139156D02*
X0045383Y0139156D01*
X0045084Y0138857D02*
X0058629Y0138857D01*
X0058927Y0138559D02*
X0044786Y0138559D01*
X0044487Y0138260D02*
X0059226Y0138260D01*
X0059524Y0137962D02*
X0044189Y0137962D01*
X0043890Y0137663D02*
X0059823Y0137663D01*
X0063890Y0137663D02*
X0147311Y0137663D01*
X0147217Y0137962D02*
X0064189Y0137962D01*
X0064487Y0138260D02*
X0147124Y0138260D01*
X0147031Y0138559D02*
X0064786Y0138559D01*
X0065084Y0138857D02*
X0146938Y0138857D01*
X0146844Y0139156D02*
X0065383Y0139156D01*
X0065681Y0139454D02*
X0146751Y0139454D01*
X0146658Y0139753D02*
X0065980Y0139753D01*
X0066278Y0140051D02*
X0146564Y0140051D01*
X0170807Y0130499D02*
X0081942Y0130499D01*
X0049575Y0117066D02*
X0037330Y0117066D01*
X0037324Y0116767D02*
X0049276Y0116767D01*
X0048978Y0116469D02*
X0037317Y0116469D01*
X0037311Y0116170D02*
X0048679Y0116170D01*
X0048381Y0115872D02*
X0037305Y0115872D01*
X0037299Y0115573D02*
X0048082Y0115573D01*
X0047784Y0115275D02*
X0037293Y0115275D01*
X0037287Y0114976D02*
X0047485Y0114976D01*
X0047187Y0114678D02*
X0037280Y0114678D01*
X0037274Y0114379D02*
X0047007Y0114379D01*
X0047007Y0114081D02*
X0037268Y0114081D01*
X0037262Y0113782D02*
X0047007Y0113782D01*
X0047007Y0113484D02*
X0037256Y0113484D01*
X0037250Y0113185D02*
X0047007Y0113185D01*
X0047007Y0112887D02*
X0037244Y0112887D01*
X0037237Y0112588D02*
X0047007Y0112588D01*
X0047007Y0112290D02*
X0037231Y0112290D01*
X0037225Y0111991D02*
X0047007Y0111991D01*
X0047007Y0111693D02*
X0037219Y0111693D01*
X0037213Y0111394D02*
X0047007Y0111394D01*
X0047007Y0111096D02*
X0037207Y0111096D01*
X0037200Y0110797D02*
X0047007Y0110797D01*
X0047007Y0110499D02*
X0037194Y0110499D01*
X0037188Y0110200D02*
X0047286Y0110200D01*
X0047585Y0109902D02*
X0037182Y0109902D01*
X0037176Y0109603D02*
X0047883Y0109603D01*
X0048182Y0109305D02*
X0037170Y0109305D01*
X0037164Y0109006D02*
X0048480Y0109006D01*
X0048779Y0108708D02*
X0037157Y0108708D01*
X0037151Y0108409D02*
X0049077Y0108409D01*
D44*
X0117057Y0248785D02*
X0116828Y0249014D01*
D45*
X0113524Y0362868D03*
X0156043Y0362868D03*
D46*
X0229996Y0154891D02*
X0228027Y0152811D01*
D47*
X0229996Y0154891D02*
X0296098Y0154891D01*
X0313130Y0170742D01*
X0313130Y0303573D01*
X0312892Y0303811D01*
D48*
X0351122Y0297317D03*
X0351122Y0164128D03*
X0110374Y0197514D03*
D49*
X0194626Y0327986D03*
X0194626Y0330742D03*
D50*
X0095217Y0361687D03*
M02*
