%
M48
M72
T01C0.01181
T02C0.01378
T03C0.02362
T04C0.02400
T05C0.03200
T06C0.03750
T07C0.04000
T08C0.05200
T09C0.06299
T10C0.09843
T11C0.10630
T12C0.11417
%
T01
X67461Y55781
X79272Y55781
X91083Y55781
X102894Y55781
X114705Y55781
X126516Y55781
X138327Y55781
X150138Y55781
X150138Y67592
X138327Y67592
X126516Y67592
X114705Y67592
X102894Y67592
X91083Y67592
X102894Y79403
X114705Y79403
X126516Y79403
X138327Y79403
X150138Y79403
X150138Y91214
X138327Y91214
X138327Y103025
X150138Y103025
X161949Y103025
X161949Y91214
X161949Y79403
X161949Y67592
X161949Y55781
X192658Y63813
X192658Y66175
X195413Y61214
X195413Y58852
X198406Y56490
X198406Y54128
X201122Y51451
X201122Y49088
X194429Y41608
X192067Y41608
X215492Y50663
X217854Y50663
X235374Y66411
X237736Y66411
X238721Y73498
X238721Y75860
X223760Y91018
X223760Y93380
X223760Y95742
X223760Y98104
X221398Y111293
X221398Y113655
X208406Y108144
X206043Y108144
X217755Y84521
X217755Y82159
X243445Y110899
X245807Y110899
X265886Y113655
X265886Y116018
X250335Y140624
X250335Y142986
X229665Y139640
X229665Y137277
X215492Y154241
X215492Y156603
X215492Y158965
X228878Y165230
X231240Y165230
X223366Y175073
X223366Y177435
X233209Y191608
X235583Y191601
X243051Y188262
X243051Y185899
X210374Y177435
X210374Y175073
X202303Y165230
X199941Y165230
X191083Y184718
X191083Y187081
X194232Y191608
X194232Y193970
X194232Y202710
X194232Y205073
X210571Y213262
X210571Y215624
X213327Y224088
X215177Y226018
X206209Y226304
X203846Y226304
X201484Y226304
X200303Y228666
X202665Y228666
X205028Y228666
X210177Y236962
X212539Y236962
X206634Y247514
X204272Y247514
X210177Y255978
X210177Y258340
X212933Y261293
X215295Y261293
X216280Y252948
X218642Y252948
X234193Y244167
X235768Y242395
X239311Y245151
X239311Y247514
X242854Y253025
X242854Y255388
X251319Y251844
X251319Y249482
X248169Y241805
X245807Y241805
X256831Y241214
X256831Y238852
X264311Y249482
X264311Y251844
X266673Y257750
X266673Y260112
X280453Y264836
X280453Y267199
X280847Y271923
X283209Y271923
X293642Y267199
X293642Y264836
X293642Y258931
X293642Y256569
X285177Y231372
X282815Y231372
X250925Y266018
X250925Y268380
X194626Y276844
X194626Y279206
X194626Y252632
X194626Y250269
X186162Y242907
X183799Y242789
X183091Y246569
X183091Y248931
X186752Y239049
X189114Y239049
X181634Y235506
X179272Y235506
X161949Y268380
X161949Y280191
X161949Y292002
X161949Y303813
X161949Y315624
X161949Y327435
X161949Y339246
X161949Y351057
X150138Y351057
X150138Y339246
X150138Y327435
X150138Y315624
X150138Y303813
X150138Y292002
X150138Y280191
X150138Y268380
X126516Y268380
X126516Y280191
X126516Y292002
X126516Y303813
X126516Y315624
X126516Y327435
X114705Y327435
X114705Y315624
X102894Y315624
X102894Y327435
X91083Y327435
X91083Y315624
X91083Y303813
X102894Y303813
X114705Y303813
X114705Y292002
X102894Y292002
X91083Y292002
X91083Y280191
X102894Y280191
X114705Y280191
X114705Y268380
X102894Y268380
X91083Y268380
X91083Y256569
X102894Y256569
X102894Y247710
X114705Y247710
X114705Y256569
X126516Y256569
X126516Y247710
X132421Y244758
X132421Y232947
X132421Y221136
X120610Y224088
X120610Y235899
X105847Y235899
X105847Y224088
X91083Y197514
X91083Y173892
X102894Y173892
X114705Y173892
X126516Y173892
X138327Y173892
X138327Y162081
X126516Y162081
X114705Y162081
X102894Y162081
X91083Y162081
X91083Y150269
X102894Y150269
X114705Y150269
X126516Y150269
X138327Y150269
X138327Y197514
X126516Y197514
X114705Y103025
X114705Y91214
X222579Y25735
X224941Y25735
X248760Y28616
X248760Y30978
X297776Y84915
X297776Y87277
X303681Y86884
X303681Y84521
X313721Y79010
X313721Y76647
X180453Y342395
X180453Y344758
X194626Y348892
X194626Y351254
X198957Y351254
X198957Y348892
X223760Y352041
X226122Y352041
X245020Y344402
X247382Y344402
X292658Y357356
X292658Y359718
X322185Y359718
X322185Y357356
X126516Y351057
X126516Y339246
X114705Y339246
X114705Y351057
X102894Y351057
X102894Y339246
X91083Y339246
X91083Y351057
T02
X194626Y330742
X194626Y327986
T03
X204272Y237277
T04
X220862Y270466
X221846Y285230
X221639Y293734
X229139Y293734
X236660Y298749
X242907Y302370
X250389Y306284
X265153Y322632
X274996Y304915
X283854Y315742
X283854Y295073
X278933Y285230
X266137Y283262
X254326Y283262
X279917Y237986
X278933Y222238
X248421Y335427
X273519Y351175
X263677Y363478
X219877Y341332
X215448Y338872
X209051Y350191
T05
X293681Y55388
X303681Y55388
X313681Y55388
T06
X71857Y72489
X71857Y82489
X71857Y92489
X71857Y102489
X71857Y112489
X71857Y122489
X71857Y132489
X71857Y142489
X71857Y152489
X71857Y162489
X71857Y172489
X71857Y182489
X71857Y192489
X71857Y202489
X71857Y212489
X71857Y222489
X71857Y232489
X71857Y242489
X71857Y252489
X71857Y262489
X71857Y272489
X71857Y282489
X71857Y292489
X71857Y302489
X71857Y312489
X71857Y322489
X61857Y322489
X61857Y312489
X61857Y302489
X61857Y292489
X61857Y282489
X61857Y272489
X61857Y262489
X61857Y252489
X61857Y242489
X61857Y232489
X61857Y222489
X61857Y212489
X61857Y202489
X61857Y192489
X61857Y182489
X61857Y172489
X61857Y162489
X61857Y152489
X61857Y142489
X61857Y132489
X61857Y122489
X61857Y112489
X61857Y102489
X61857Y92489
X61857Y82489
X61857Y72489
X51857Y72489
X41857Y72489
X41857Y82489
X51857Y82489
X51857Y92489
X51857Y102489
X41857Y102489
X41857Y92489
X41857Y112489
X41857Y122489
X51857Y122489
X51857Y112489
X51857Y132489
X51857Y142489
X41857Y142489
X41857Y132489
X41857Y152489
X51857Y152489
X51857Y162489
X51857Y172489
X41857Y172489
X41857Y162489
X41857Y182489
X41857Y192489
X51857Y192489
X51857Y182489
X51857Y202489
X41857Y202489
X41857Y212489
X41857Y222489
X51857Y222489
X51857Y212489
X51857Y232489
X51857Y242489
X41857Y242489
X41857Y232489
X41857Y252489
X51857Y252489
X51857Y262489
X51857Y272489
X41857Y272489
X41857Y262489
X41857Y282489
X41857Y292489
X51857Y292489
X51857Y282489
X51857Y302489
X41857Y302489
X41857Y312489
X41857Y322489
X51857Y322489
X51857Y312489
T07
X183442Y368071
X193442Y367071
X203442Y368071
X213442Y367071
X223442Y368071
X233442Y367071
X243442Y368071
X253442Y367071
X172618Y25754
X162618Y26754
X152618Y25754
X142618Y26754
X132618Y25754
X122618Y26754
X112618Y25754
X102618Y26754
X92618Y25754
X82618Y26754
T08
X216280Y34521
X258799Y35112
T09
X95217Y361687
X83209Y361687
T10
X110374Y197514
X351122Y164128
X351122Y297317
T11
X156043Y362868
X113524Y362868
T12
X41870Y42002
X41870Y353025
X352894Y353025
X352894Y42002
M30
