G75*
%MOIN*%
%OFA0B0*%
%FSLAX25Y25*%
%IPPOS*%
%LPD*%
%AMOC8*
5,1,8,0,0,1.08239X$1,22.5*
%
%ADD10C,0.00000*%
%ADD11C,0.05750*%
%ADD12C,0.04400*%
%ADD13C,0.06000*%
%ADD14C,0.05200*%
%ADD15C,0.07800*%
%ADD16C,0.00394*%
%ADD17C,0.15417*%
%ADD18C,0.02781*%
%ADD19C,0.03962*%
%ADD20C,0.00787*%
%ADD21C,0.01000*%
%ADD22C,0.14630*%
%ADD23C,0.13843*%
%ADD24C,0.02978*%
%ADD25C,0.00600*%
%ADD26C,0.09449*%
D10*
X0039902Y0020348D02*
X0020217Y0040033D01*
X0020217Y0354994D01*
X0039902Y0374679D01*
X0354862Y0374679D01*
X0374547Y0354994D01*
X0374547Y0040033D01*
X0354862Y0020348D01*
X0039902Y0020348D01*
X0080059Y0361687D02*
X0080061Y0361799D01*
X0080067Y0361910D01*
X0080077Y0362022D01*
X0080091Y0362133D01*
X0080108Y0362243D01*
X0080130Y0362353D01*
X0080156Y0362462D01*
X0080185Y0362570D01*
X0080218Y0362676D01*
X0080255Y0362782D01*
X0080296Y0362886D01*
X0080341Y0362989D01*
X0080389Y0363090D01*
X0080440Y0363189D01*
X0080495Y0363286D01*
X0080554Y0363381D01*
X0080615Y0363475D01*
X0080680Y0363566D01*
X0080749Y0363654D01*
X0080820Y0363740D01*
X0080894Y0363824D01*
X0080972Y0363904D01*
X0081052Y0363982D01*
X0081135Y0364058D01*
X0081220Y0364130D01*
X0081308Y0364199D01*
X0081398Y0364265D01*
X0081491Y0364327D01*
X0081586Y0364387D01*
X0081683Y0364443D01*
X0081781Y0364495D01*
X0081882Y0364544D01*
X0081984Y0364589D01*
X0082088Y0364631D01*
X0082193Y0364669D01*
X0082300Y0364703D01*
X0082407Y0364733D01*
X0082516Y0364760D01*
X0082625Y0364782D01*
X0082736Y0364801D01*
X0082846Y0364816D01*
X0082958Y0364827D01*
X0083069Y0364834D01*
X0083181Y0364837D01*
X0083293Y0364836D01*
X0083405Y0364831D01*
X0083516Y0364822D01*
X0083627Y0364809D01*
X0083738Y0364792D01*
X0083848Y0364772D01*
X0083957Y0364747D01*
X0084065Y0364719D01*
X0084172Y0364686D01*
X0084278Y0364650D01*
X0084382Y0364610D01*
X0084485Y0364567D01*
X0084587Y0364520D01*
X0084686Y0364469D01*
X0084784Y0364415D01*
X0084880Y0364357D01*
X0084974Y0364296D01*
X0085065Y0364232D01*
X0085154Y0364165D01*
X0085241Y0364094D01*
X0085325Y0364020D01*
X0085407Y0363944D01*
X0085485Y0363864D01*
X0085561Y0363782D01*
X0085634Y0363697D01*
X0085704Y0363610D01*
X0085770Y0363520D01*
X0085834Y0363428D01*
X0085894Y0363334D01*
X0085951Y0363238D01*
X0086004Y0363139D01*
X0086054Y0363039D01*
X0086100Y0362938D01*
X0086143Y0362834D01*
X0086182Y0362729D01*
X0086217Y0362623D01*
X0086248Y0362516D01*
X0086276Y0362407D01*
X0086299Y0362298D01*
X0086319Y0362188D01*
X0086335Y0362077D01*
X0086347Y0361966D01*
X0086355Y0361855D01*
X0086359Y0361743D01*
X0086359Y0361631D01*
X0086355Y0361519D01*
X0086347Y0361408D01*
X0086335Y0361297D01*
X0086319Y0361186D01*
X0086299Y0361076D01*
X0086276Y0360967D01*
X0086248Y0360858D01*
X0086217Y0360751D01*
X0086182Y0360645D01*
X0086143Y0360540D01*
X0086100Y0360436D01*
X0086054Y0360335D01*
X0086004Y0360235D01*
X0085951Y0360136D01*
X0085894Y0360040D01*
X0085834Y0359946D01*
X0085770Y0359854D01*
X0085704Y0359764D01*
X0085634Y0359677D01*
X0085561Y0359592D01*
X0085485Y0359510D01*
X0085407Y0359430D01*
X0085325Y0359354D01*
X0085241Y0359280D01*
X0085154Y0359209D01*
X0085065Y0359142D01*
X0084974Y0359078D01*
X0084880Y0359017D01*
X0084784Y0358959D01*
X0084686Y0358905D01*
X0084587Y0358854D01*
X0084485Y0358807D01*
X0084382Y0358764D01*
X0084278Y0358724D01*
X0084172Y0358688D01*
X0084065Y0358655D01*
X0083957Y0358627D01*
X0083848Y0358602D01*
X0083738Y0358582D01*
X0083627Y0358565D01*
X0083516Y0358552D01*
X0083405Y0358543D01*
X0083293Y0358538D01*
X0083181Y0358537D01*
X0083069Y0358540D01*
X0082958Y0358547D01*
X0082846Y0358558D01*
X0082736Y0358573D01*
X0082625Y0358592D01*
X0082516Y0358614D01*
X0082407Y0358641D01*
X0082300Y0358671D01*
X0082193Y0358705D01*
X0082088Y0358743D01*
X0081984Y0358785D01*
X0081882Y0358830D01*
X0081781Y0358879D01*
X0081683Y0358931D01*
X0081586Y0358987D01*
X0081491Y0359047D01*
X0081398Y0359109D01*
X0081308Y0359175D01*
X0081220Y0359244D01*
X0081135Y0359316D01*
X0081052Y0359392D01*
X0080972Y0359470D01*
X0080894Y0359550D01*
X0080820Y0359634D01*
X0080749Y0359720D01*
X0080680Y0359808D01*
X0080615Y0359899D01*
X0080554Y0359993D01*
X0080495Y0360088D01*
X0080440Y0360185D01*
X0080389Y0360284D01*
X0080341Y0360385D01*
X0080296Y0360488D01*
X0080255Y0360592D01*
X0080218Y0360698D01*
X0080185Y0360804D01*
X0080156Y0360912D01*
X0080130Y0361021D01*
X0080108Y0361131D01*
X0080091Y0361241D01*
X0080077Y0361352D01*
X0080067Y0361464D01*
X0080061Y0361575D01*
X0080059Y0361687D01*
D11*
X0071857Y0322489D03*
X0071857Y0312489D03*
X0071857Y0302489D03*
X0071857Y0292489D03*
X0071857Y0282489D03*
X0071857Y0272489D03*
X0071857Y0262489D03*
X0071857Y0252489D03*
X0071857Y0242489D03*
X0071857Y0232489D03*
X0071857Y0222489D03*
X0071857Y0212489D03*
X0071857Y0202489D03*
X0071857Y0192489D03*
X0071857Y0182489D03*
X0071857Y0172489D03*
X0071857Y0162489D03*
X0071857Y0152489D03*
X0071857Y0142489D03*
X0071857Y0132489D03*
X0071857Y0122489D03*
X0071857Y0112489D03*
X0071857Y0102489D03*
X0071857Y0092489D03*
X0071857Y0082489D03*
X0071857Y0072489D03*
X0061857Y0072489D03*
X0061857Y0082489D03*
X0061857Y0092489D03*
X0061857Y0102489D03*
X0061857Y0112489D03*
X0061857Y0122489D03*
X0061857Y0132489D03*
X0061857Y0142489D03*
X0061857Y0152489D03*
X0061857Y0162489D03*
X0061857Y0172489D03*
X0061857Y0182489D03*
X0061857Y0192489D03*
X0061857Y0202489D03*
X0061857Y0212489D03*
X0061857Y0222489D03*
X0061857Y0232489D03*
X0061857Y0242489D03*
X0061857Y0252489D03*
X0061857Y0262489D03*
X0061857Y0272489D03*
X0061857Y0282489D03*
X0061857Y0292489D03*
X0061857Y0302489D03*
X0061857Y0312489D03*
X0061857Y0322489D03*
X0051857Y0322489D03*
X0051857Y0312489D03*
X0041857Y0312489D03*
X0041857Y0322489D03*
X0041857Y0302489D03*
X0051857Y0302489D03*
X0051857Y0292489D03*
X0051857Y0282489D03*
X0041857Y0282489D03*
X0041857Y0292489D03*
X0041857Y0272489D03*
X0051857Y0272489D03*
X0051857Y0262489D03*
X0041857Y0262489D03*
X0041857Y0252489D03*
X0051857Y0252489D03*
X0051857Y0242489D03*
X0051857Y0232489D03*
X0041857Y0232489D03*
X0041857Y0242489D03*
X0041857Y0222489D03*
X0051857Y0222489D03*
X0051857Y0212489D03*
X0041857Y0212489D03*
X0041857Y0202489D03*
X0051857Y0202489D03*
X0051857Y0192489D03*
X0051857Y0182489D03*
X0041857Y0182489D03*
X0041857Y0192489D03*
X0041857Y0172489D03*
X0051857Y0172489D03*
X0051857Y0162489D03*
X0041857Y0162489D03*
X0041857Y0152489D03*
X0051857Y0152489D03*
X0051857Y0142489D03*
X0051857Y0132489D03*
X0041857Y0132489D03*
X0041857Y0142489D03*
X0041857Y0122489D03*
X0051857Y0122489D03*
X0051857Y0112489D03*
X0041857Y0112489D03*
X0041857Y0102489D03*
X0051857Y0102489D03*
X0051857Y0092489D03*
X0041857Y0092489D03*
X0041857Y0082489D03*
X0051857Y0082489D03*
X0051857Y0072489D03*
X0041857Y0072489D03*
D12*
X0220862Y0270466D03*
X0221846Y0285230D03*
X0221639Y0293734D03*
X0229139Y0293734D03*
X0236660Y0298749D03*
X0242907Y0302370D03*
X0250389Y0306284D03*
X0265153Y0322632D03*
X0274996Y0304915D03*
X0283854Y0315742D03*
X0283854Y0295073D03*
X0278933Y0285230D03*
X0266137Y0283262D03*
X0254326Y0283262D03*
X0279917Y0237986D03*
X0278933Y0222238D03*
X0248421Y0335427D03*
X0273519Y0351175D03*
X0263677Y0363478D03*
X0219877Y0341332D03*
X0215448Y0338872D03*
X0209051Y0350191D03*
D13*
X0213442Y0367071D03*
X0203442Y0368071D03*
X0193442Y0367071D03*
X0183442Y0368071D03*
X0223442Y0368071D03*
X0233442Y0367071D03*
X0243442Y0368071D03*
X0253442Y0367071D03*
X0172618Y0025754D03*
X0162618Y0026754D03*
X0152618Y0025754D03*
X0142618Y0026754D03*
X0132618Y0025754D03*
X0122618Y0026754D03*
X0112618Y0025754D03*
X0102618Y0026754D03*
X0092618Y0025754D03*
X0082618Y0026754D03*
D14*
X0293681Y0055388D03*
X0303681Y0055388D03*
X0313681Y0055388D03*
D15*
X0258799Y0035112D03*
X0216280Y0034521D03*
D16*
X0094626Y0081569D02*
X0088721Y0081569D01*
X0088721Y0113065D01*
X0094626Y0113065D01*
X0094626Y0081569D01*
X0094626Y0215427D02*
X0088721Y0215427D01*
X0088721Y0246923D01*
X0094626Y0246923D01*
X0094626Y0215427D01*
X0366280Y0215427D02*
X0366280Y0246923D01*
X0372185Y0246923D01*
X0372185Y0215427D01*
X0366280Y0215427D01*
D17*
X0352894Y0353025D03*
X0352894Y0042002D03*
X0041870Y0042002D03*
X0041870Y0353025D03*
D18*
X0091083Y0351057D03*
X0102894Y0351057D03*
X0114705Y0351057D03*
X0126516Y0351057D03*
X0126516Y0339246D03*
X0114705Y0339246D03*
X0102894Y0339246D03*
X0091083Y0339246D03*
X0091083Y0327435D03*
X0102894Y0327435D03*
X0114705Y0327435D03*
X0126516Y0327435D03*
X0126516Y0315624D03*
X0114705Y0315624D03*
X0102894Y0315624D03*
X0102894Y0303813D03*
X0114705Y0303813D03*
X0126516Y0303813D03*
X0126516Y0292002D03*
X0114705Y0292002D03*
X0102894Y0292002D03*
X0091083Y0292002D03*
X0091083Y0303813D03*
X0091083Y0315624D03*
X0091083Y0280191D03*
X0102894Y0280191D03*
X0114705Y0280191D03*
X0126516Y0280191D03*
X0126516Y0268380D03*
X0114705Y0268380D03*
X0102894Y0268380D03*
X0091083Y0268380D03*
X0091083Y0256569D03*
X0102894Y0256569D03*
X0102894Y0247710D03*
X0114705Y0247710D03*
X0114705Y0256569D03*
X0126516Y0256569D03*
X0126516Y0247710D03*
X0132421Y0244758D03*
X0132421Y0232947D03*
X0132421Y0221136D03*
X0120610Y0224088D03*
X0120610Y0235899D03*
X0105847Y0235899D03*
X0105847Y0224088D03*
X0091083Y0197514D03*
X0091083Y0173892D03*
X0102894Y0173892D03*
X0114705Y0173892D03*
X0126516Y0173892D03*
X0138327Y0173892D03*
X0138327Y0162081D03*
X0126516Y0162081D03*
X0114705Y0162081D03*
X0102894Y0162081D03*
X0091083Y0162081D03*
X0091083Y0150269D03*
X0102894Y0150269D03*
X0114705Y0150269D03*
X0126516Y0150269D03*
X0138327Y0150269D03*
X0138327Y0197514D03*
X0126516Y0197514D03*
X0179272Y0235506D03*
X0181634Y0235506D03*
X0186752Y0239049D03*
X0189114Y0239049D03*
X0186162Y0242907D03*
X0183799Y0242789D03*
X0183091Y0246569D03*
X0183091Y0248931D03*
X0194626Y0250269D03*
X0194626Y0252632D03*
X0204272Y0247514D03*
X0206634Y0247514D03*
X0210177Y0255978D03*
X0210177Y0258340D03*
X0212933Y0261293D03*
X0215295Y0261293D03*
X0216280Y0252948D03*
X0218642Y0252948D03*
X0212539Y0236962D03*
X0210177Y0236962D03*
X0205028Y0228666D03*
X0202665Y0228666D03*
X0200303Y0228666D03*
X0201484Y0226304D03*
X0203846Y0226304D03*
X0206209Y0226304D03*
X0213327Y0224088D03*
X0215177Y0226018D03*
X0210571Y0215624D03*
X0210571Y0213262D03*
X0194232Y0205073D03*
X0194232Y0202710D03*
X0194232Y0193970D03*
X0194232Y0191608D03*
X0191083Y0187081D03*
X0191083Y0184718D03*
X0210374Y0177435D03*
X0210374Y0175073D03*
X0202303Y0165230D03*
X0199941Y0165230D03*
X0215492Y0158965D03*
X0215492Y0156603D03*
X0215492Y0154241D03*
X0228878Y0165230D03*
X0231240Y0165230D03*
X0223366Y0175073D03*
X0223366Y0177435D03*
X0233209Y0191608D03*
X0235583Y0191601D03*
X0243051Y0188262D03*
X0243051Y0185899D03*
X0250335Y0142986D03*
X0250335Y0140624D03*
X0229665Y0139640D03*
X0229665Y0137277D03*
X0221398Y0113655D03*
X0221398Y0111293D03*
X0208406Y0108144D03*
X0206043Y0108144D03*
X0223760Y0098104D03*
X0223760Y0095742D03*
X0223760Y0093380D03*
X0223760Y0091018D03*
X0217755Y0084521D03*
X0217755Y0082159D03*
X0235374Y0066411D03*
X0237736Y0066411D03*
X0238721Y0073498D03*
X0238721Y0075860D03*
X0217854Y0050663D03*
X0215492Y0050663D03*
X0201122Y0051451D03*
X0201122Y0049088D03*
X0198406Y0054128D03*
X0198406Y0056490D03*
X0195413Y0058852D03*
X0195413Y0061214D03*
X0192658Y0063813D03*
X0192658Y0066175D03*
X0192067Y0041608D03*
X0194429Y0041608D03*
X0222579Y0025735D03*
X0224941Y0025735D03*
X0248760Y0028616D03*
X0248760Y0030978D03*
X0297776Y0084915D03*
X0297776Y0087277D03*
X0303681Y0086884D03*
X0303681Y0084521D03*
X0313721Y0079010D03*
X0313721Y0076647D03*
X0265886Y0113655D03*
X0265886Y0116018D03*
X0245807Y0110899D03*
X0243445Y0110899D03*
X0161949Y0103025D03*
X0161949Y0091214D03*
X0161949Y0079403D03*
X0161949Y0067592D03*
X0161949Y0055781D03*
X0150138Y0055781D03*
X0138327Y0055781D03*
X0126516Y0055781D03*
X0114705Y0055781D03*
X0102894Y0055781D03*
X0091083Y0055781D03*
X0079272Y0055781D03*
X0091083Y0067592D03*
X0102894Y0067592D03*
X0114705Y0067592D03*
X0126516Y0067592D03*
X0138327Y0067592D03*
X0150138Y0067592D03*
X0150138Y0079403D03*
X0138327Y0079403D03*
X0126516Y0079403D03*
X0114705Y0079403D03*
X0102894Y0079403D03*
X0114705Y0091214D03*
X0114705Y0103025D03*
X0138327Y0103025D03*
X0138327Y0091214D03*
X0150138Y0091214D03*
X0150138Y0103025D03*
X0067461Y0055781D03*
X0235768Y0242395D03*
X0234193Y0244167D03*
X0239311Y0245151D03*
X0239311Y0247514D03*
X0242854Y0253025D03*
X0242854Y0255388D03*
X0251319Y0251844D03*
X0251319Y0249482D03*
X0248169Y0241805D03*
X0245807Y0241805D03*
X0256831Y0241214D03*
X0256831Y0238852D03*
X0264311Y0249482D03*
X0264311Y0251844D03*
X0266673Y0257750D03*
X0266673Y0260112D03*
X0280453Y0264836D03*
X0280453Y0267199D03*
X0280847Y0271923D03*
X0283209Y0271923D03*
X0293642Y0267199D03*
X0293642Y0264836D03*
X0293642Y0258931D03*
X0293642Y0256569D03*
X0285177Y0231372D03*
X0282815Y0231372D03*
X0250925Y0266018D03*
X0250925Y0268380D03*
X0194626Y0276844D03*
X0194626Y0279206D03*
X0161949Y0280191D03*
X0161949Y0292002D03*
X0161949Y0303813D03*
X0161949Y0315624D03*
X0161949Y0327435D03*
X0161949Y0339246D03*
X0161949Y0351057D03*
X0150138Y0351057D03*
X0150138Y0339246D03*
X0150138Y0327435D03*
X0150138Y0315624D03*
X0150138Y0303813D03*
X0150138Y0292002D03*
X0150138Y0280191D03*
X0150138Y0268380D03*
X0161949Y0268380D03*
X0180453Y0342395D03*
X0180453Y0344758D03*
X0194626Y0348892D03*
X0194626Y0351254D03*
X0198957Y0351254D03*
X0198957Y0348892D03*
X0223760Y0352041D03*
X0226122Y0352041D03*
X0245020Y0344402D03*
X0247382Y0344402D03*
X0292658Y0357356D03*
X0292658Y0359718D03*
X0322185Y0359718D03*
X0322185Y0357356D03*
D19*
X0204272Y0237277D03*
D20*
X0201713Y0237277D01*
X0196595Y0232159D01*
X0196595Y0206774D01*
X0197185Y0206158D01*
X0197185Y0121673D01*
X0192658Y0117120D01*
X0192658Y0066175D01*
X0192658Y0063813D01*
X0195413Y0061214D02*
X0195413Y0058852D01*
X0195413Y0061214D02*
X0195492Y0116411D01*
X0207776Y0129221D01*
X0207776Y0221812D01*
X0210177Y0224200D01*
X0210177Y0236962D01*
X0210177Y0255978D01*
X0210177Y0258340D01*
X0212933Y0261096D02*
X0212933Y0241129D01*
X0215911Y0238151D01*
X0215911Y0226673D01*
X0213327Y0224088D01*
X0213327Y0160684D01*
X0212717Y0160154D01*
X0212717Y0123046D01*
X0200610Y0111096D01*
X0201122Y0051451D01*
X0201122Y0049088D01*
X0201122Y0048892D01*
X0200925Y0048695D01*
X0198406Y0054128D02*
X0198406Y0056490D01*
X0198327Y0114521D01*
X0210374Y0126569D01*
X0210374Y0175073D01*
X0194232Y0191608D02*
X0190775Y0191608D01*
X0188063Y0188897D01*
X0076133Y0188897D01*
X0076102Y0188868D01*
X0074802Y0187671D01*
X0066673Y0187671D01*
X0066673Y0187672D01*
X0061857Y0192489D01*
X0061857Y0202489D02*
X0061857Y0202539D01*
X0066870Y0207553D01*
X0076319Y0207553D01*
X0078878Y0210112D01*
X0170610Y0210112D01*
X0176516Y0216018D01*
X0176516Y0232947D01*
X0178878Y0235309D01*
X0191083Y0235309D01*
X0194626Y0238852D01*
X0194626Y0250269D01*
X0186162Y0250839D02*
X0186162Y0354994D01*
X0189114Y0351254D02*
X0197973Y0360112D01*
X0215482Y0360112D01*
X0223442Y0368071D01*
X0225746Y0352024D02*
X0225746Y0292328D01*
X0226516Y0291558D01*
X0226516Y0247907D01*
X0235768Y0238655D01*
X0242854Y0253025D02*
X0243051Y0193577D01*
X0243051Y0185899D01*
X0256831Y0149482D02*
X0256831Y0238852D01*
X0266673Y0260112D02*
X0266673Y0269561D01*
X0269036Y0271923D01*
X0283209Y0271923D01*
X0293642Y0256569D02*
X0303681Y0246923D01*
X0303681Y0086884D01*
X0250335Y0142986D02*
X0238721Y0131372D01*
X0238721Y0075860D01*
X0238721Y0073498D01*
X0235374Y0066411D02*
X0224941Y0055584D01*
X0224941Y0025735D01*
X0224941Y0025269D01*
X0217854Y0050663D02*
X0217854Y0051057D01*
X0217755Y0051157D01*
X0217755Y0084521D01*
X0217755Y0086436D01*
X0218642Y0087323D01*
X0218642Y0252948D01*
X0216280Y0252948D01*
X0215295Y0261293D02*
X0212933Y0261293D01*
X0204272Y0247514D02*
X0204272Y0238458D01*
X0198957Y0238458D02*
X0198957Y0348892D01*
X0198957Y0351254D01*
X0189114Y0351254D02*
X0189114Y0239049D01*
X0193445Y0232947D02*
X0198957Y0238458D01*
X0193445Y0232947D02*
X0180453Y0232947D01*
X0178878Y0231372D01*
X0178878Y0215230D01*
X0171398Y0207750D01*
X0080059Y0207750D01*
X0074798Y0202489D01*
X0071857Y0202489D01*
X0071857Y0212489D02*
X0169444Y0212489D01*
X0174154Y0216805D01*
X0174154Y0234128D01*
X0180453Y0240427D01*
X0180453Y0342395D01*
X0180453Y0344758D01*
X0183442Y0368071D02*
X0183127Y0246730D01*
X0183091Y0246569D01*
X0194232Y0205781D02*
X0194626Y0205388D01*
X0194232Y0205073D01*
X0194232Y0205781D02*
X0085149Y0205781D01*
X0071857Y0192489D01*
X0076842Y0187081D02*
X0191083Y0187081D01*
X0250335Y0142986D02*
X0256831Y0149482D01*
X0076842Y0187081D02*
X0071857Y0182489D01*
X0225746Y0352024D02*
X0226122Y0352041D01*
D21*
X0194626Y0350269D02*
X0194626Y0348892D01*
X0194626Y0327986D01*
X0194626Y0279206D01*
X0194626Y0276844D01*
X0194626Y0252632D01*
X0194626Y0250269D01*
X0186162Y0250839D02*
X0186093Y0250120D01*
X0186093Y0242858D01*
X0204272Y0238458D02*
X0204272Y0237277D01*
X0235768Y0238655D02*
X0235583Y0191606D01*
X0235583Y0191606D01*
X0235583Y0191601D01*
X0235583Y0191606D02*
X0235374Y0138262D01*
X0235374Y0066411D01*
D22*
X0156043Y0362868D03*
X0113524Y0362868D03*
D23*
X0110374Y0197514D03*
X0351122Y0164128D03*
X0351122Y0297317D03*
D24*
X0194626Y0327986D03*
X0194626Y0330742D03*
D25*
X0186162Y0354994D02*
X0193442Y0363061D01*
X0193442Y0367071D01*
X0232815Y0366445D02*
X0232815Y0245939D01*
X0235768Y0242986D01*
X0235768Y0242395D01*
X0239311Y0247514D02*
X0239311Y0296733D01*
X0239960Y0297382D01*
X0239960Y0300116D01*
X0239311Y0300764D01*
X0239311Y0363941D01*
X0243442Y0368071D01*
X0233442Y0367071D02*
X0232815Y0366445D01*
X0253442Y0367071D02*
X0253442Y0307898D01*
X0253689Y0307650D01*
X0253689Y0290435D01*
X0248169Y0284915D01*
X0248169Y0241805D01*
X0189114Y0239049D02*
X0189114Y0238852D01*
X0186162Y0242907D02*
X0186093Y0242858D01*
D26*
X0095217Y0361687D03*
M02*
