G75*
%MOIN*%
%OFA0B0*%
%FSLAX25Y25*%
%IPPOS*%
%LPD*%
%AMOC8*
5,1,8,0,0,1.08239X$1,22.5*
%
%ADD10C,0.00000*%
%ADD11C,0.01000*%
%ADD12C,0.00200*%
%ADD13C,0.00100*%
%ADD14C,0.00800*%
%ADD15C,0.00500*%
%ADD16C,0.00400*%
%ADD17C,0.00600*%
%ADD18C,0.00394*%
D10*
X0039902Y0020348D02*
X0020217Y0040033D01*
X0020217Y0354994D01*
X0039902Y0374679D01*
X0354862Y0374679D01*
X0374547Y0354994D01*
X0374547Y0040033D01*
X0354862Y0020348D01*
X0039902Y0020348D01*
X0046857Y0197489D02*
X0066857Y0197489D01*
X0067382Y0318025D02*
X0327382Y0318025D01*
X0327382Y0358025D01*
X0067382Y0358025D01*
X0067382Y0318025D01*
X0080059Y0361687D02*
X0080061Y0361799D01*
X0080067Y0361910D01*
X0080077Y0362022D01*
X0080091Y0362133D01*
X0080108Y0362243D01*
X0080130Y0362353D01*
X0080156Y0362462D01*
X0080185Y0362570D01*
X0080218Y0362676D01*
X0080255Y0362782D01*
X0080296Y0362886D01*
X0080341Y0362989D01*
X0080389Y0363090D01*
X0080440Y0363189D01*
X0080495Y0363286D01*
X0080554Y0363381D01*
X0080615Y0363475D01*
X0080680Y0363566D01*
X0080749Y0363654D01*
X0080820Y0363740D01*
X0080894Y0363824D01*
X0080972Y0363904D01*
X0081052Y0363982D01*
X0081135Y0364058D01*
X0081220Y0364130D01*
X0081308Y0364199D01*
X0081398Y0364265D01*
X0081491Y0364327D01*
X0081586Y0364387D01*
X0081683Y0364443D01*
X0081781Y0364495D01*
X0081882Y0364544D01*
X0081984Y0364589D01*
X0082088Y0364631D01*
X0082193Y0364669D01*
X0082300Y0364703D01*
X0082407Y0364733D01*
X0082516Y0364760D01*
X0082625Y0364782D01*
X0082736Y0364801D01*
X0082846Y0364816D01*
X0082958Y0364827D01*
X0083069Y0364834D01*
X0083181Y0364837D01*
X0083293Y0364836D01*
X0083405Y0364831D01*
X0083516Y0364822D01*
X0083627Y0364809D01*
X0083738Y0364792D01*
X0083848Y0364772D01*
X0083957Y0364747D01*
X0084065Y0364719D01*
X0084172Y0364686D01*
X0084278Y0364650D01*
X0084382Y0364610D01*
X0084485Y0364567D01*
X0084587Y0364520D01*
X0084686Y0364469D01*
X0084784Y0364415D01*
X0084880Y0364357D01*
X0084974Y0364296D01*
X0085065Y0364232D01*
X0085154Y0364165D01*
X0085241Y0364094D01*
X0085325Y0364020D01*
X0085407Y0363944D01*
X0085485Y0363864D01*
X0085561Y0363782D01*
X0085634Y0363697D01*
X0085704Y0363610D01*
X0085770Y0363520D01*
X0085834Y0363428D01*
X0085894Y0363334D01*
X0085951Y0363238D01*
X0086004Y0363139D01*
X0086054Y0363039D01*
X0086100Y0362938D01*
X0086143Y0362834D01*
X0086182Y0362729D01*
X0086217Y0362623D01*
X0086248Y0362516D01*
X0086276Y0362407D01*
X0086299Y0362298D01*
X0086319Y0362188D01*
X0086335Y0362077D01*
X0086347Y0361966D01*
X0086355Y0361855D01*
X0086359Y0361743D01*
X0086359Y0361631D01*
X0086355Y0361519D01*
X0086347Y0361408D01*
X0086335Y0361297D01*
X0086319Y0361186D01*
X0086299Y0361076D01*
X0086276Y0360967D01*
X0086248Y0360858D01*
X0086217Y0360751D01*
X0086182Y0360645D01*
X0086143Y0360540D01*
X0086100Y0360436D01*
X0086054Y0360335D01*
X0086004Y0360235D01*
X0085951Y0360136D01*
X0085894Y0360040D01*
X0085834Y0359946D01*
X0085770Y0359854D01*
X0085704Y0359764D01*
X0085634Y0359677D01*
X0085561Y0359592D01*
X0085485Y0359510D01*
X0085407Y0359430D01*
X0085325Y0359354D01*
X0085241Y0359280D01*
X0085154Y0359209D01*
X0085065Y0359142D01*
X0084974Y0359078D01*
X0084880Y0359017D01*
X0084784Y0358959D01*
X0084686Y0358905D01*
X0084587Y0358854D01*
X0084485Y0358807D01*
X0084382Y0358764D01*
X0084278Y0358724D01*
X0084172Y0358688D01*
X0084065Y0358655D01*
X0083957Y0358627D01*
X0083848Y0358602D01*
X0083738Y0358582D01*
X0083627Y0358565D01*
X0083516Y0358552D01*
X0083405Y0358543D01*
X0083293Y0358538D01*
X0083181Y0358537D01*
X0083069Y0358540D01*
X0082958Y0358547D01*
X0082846Y0358558D01*
X0082736Y0358573D01*
X0082625Y0358592D01*
X0082516Y0358614D01*
X0082407Y0358641D01*
X0082300Y0358671D01*
X0082193Y0358705D01*
X0082088Y0358743D01*
X0081984Y0358785D01*
X0081882Y0358830D01*
X0081781Y0358879D01*
X0081683Y0358931D01*
X0081586Y0358987D01*
X0081491Y0359047D01*
X0081398Y0359109D01*
X0081308Y0359175D01*
X0081220Y0359244D01*
X0081135Y0359316D01*
X0081052Y0359392D01*
X0080972Y0359470D01*
X0080894Y0359550D01*
X0080820Y0359634D01*
X0080749Y0359720D01*
X0080680Y0359808D01*
X0080615Y0359899D01*
X0080554Y0359993D01*
X0080495Y0360088D01*
X0080440Y0360185D01*
X0080389Y0360284D01*
X0080341Y0360385D01*
X0080296Y0360488D01*
X0080255Y0360592D01*
X0080218Y0360698D01*
X0080185Y0360804D01*
X0080156Y0360912D01*
X0080130Y0361021D01*
X0080108Y0361131D01*
X0080091Y0361241D01*
X0080077Y0361352D01*
X0080067Y0361464D01*
X0080061Y0361575D01*
X0080059Y0361687D01*
D11*
X0191870Y0242789D02*
X0242264Y0242789D01*
X0242405Y0242787D01*
X0242546Y0242781D01*
X0242687Y0242772D01*
X0242827Y0242758D01*
X0242967Y0242740D01*
X0243106Y0242719D01*
X0243245Y0242694D01*
X0243383Y0242665D01*
X0243520Y0242632D01*
X0243657Y0242596D01*
X0243792Y0242556D01*
X0243926Y0242512D01*
X0244059Y0242464D01*
X0244190Y0242413D01*
X0244320Y0242358D01*
X0244448Y0242299D01*
X0244575Y0242238D01*
X0244700Y0242172D01*
X0244823Y0242103D01*
X0244944Y0242031D01*
X0245063Y0241956D01*
X0245180Y0241877D01*
X0245295Y0241795D01*
X0245408Y0241710D01*
X0245518Y0241622D01*
X0245625Y0241531D01*
X0245730Y0241436D01*
X0245833Y0241339D01*
X0245932Y0241240D01*
X0246029Y0241137D01*
X0246124Y0241032D01*
X0246215Y0240925D01*
X0246303Y0240815D01*
X0246388Y0240702D01*
X0246470Y0240587D01*
X0246549Y0240470D01*
X0246624Y0240351D01*
X0246696Y0240230D01*
X0246765Y0240107D01*
X0246831Y0239982D01*
X0246892Y0239855D01*
X0246951Y0239727D01*
X0247006Y0239597D01*
X0247057Y0239466D01*
X0247105Y0239333D01*
X0247149Y0239199D01*
X0247189Y0239064D01*
X0247225Y0238927D01*
X0247258Y0238790D01*
X0247287Y0238652D01*
X0247312Y0238513D01*
X0247333Y0238374D01*
X0247351Y0238234D01*
X0247365Y0238094D01*
X0247374Y0237953D01*
X0247380Y0237812D01*
X0247382Y0237671D01*
X0247382Y0210112D01*
X0247380Y0209977D01*
X0247374Y0209842D01*
X0247365Y0209708D01*
X0247351Y0209574D01*
X0247334Y0209440D01*
X0247313Y0209306D01*
X0247288Y0209174D01*
X0247259Y0209042D01*
X0247227Y0208911D01*
X0247191Y0208781D01*
X0247151Y0208652D01*
X0247107Y0208525D01*
X0247060Y0208398D01*
X0247009Y0208273D01*
X0246955Y0208150D01*
X0246897Y0208028D01*
X0246836Y0207907D01*
X0246771Y0207789D01*
X0246703Y0207673D01*
X0246632Y0207558D01*
X0246558Y0207446D01*
X0246480Y0207335D01*
X0246399Y0207227D01*
X0246315Y0207122D01*
X0246228Y0207018D01*
X0246138Y0206918D01*
X0246046Y0206820D01*
X0245950Y0206724D01*
X0245852Y0206632D01*
X0245752Y0206542D01*
X0245648Y0206455D01*
X0245543Y0206371D01*
X0245435Y0206290D01*
X0245324Y0206212D01*
X0245212Y0206138D01*
X0245097Y0206067D01*
X0244981Y0205999D01*
X0244863Y0205934D01*
X0244742Y0205873D01*
X0244620Y0205815D01*
X0244497Y0205761D01*
X0244372Y0205710D01*
X0244245Y0205663D01*
X0244118Y0205619D01*
X0243989Y0205579D01*
X0243859Y0205543D01*
X0243728Y0205511D01*
X0243596Y0205482D01*
X0243464Y0205457D01*
X0243330Y0205436D01*
X0243196Y0205419D01*
X0243062Y0205405D01*
X0242928Y0205396D01*
X0242793Y0205390D01*
X0242658Y0205388D01*
X0192264Y0205388D01*
X0192140Y0205390D01*
X0192017Y0205396D01*
X0191893Y0205405D01*
X0191771Y0205419D01*
X0191648Y0205436D01*
X0191526Y0205458D01*
X0191405Y0205483D01*
X0191285Y0205512D01*
X0191166Y0205544D01*
X0191047Y0205581D01*
X0190930Y0205621D01*
X0190815Y0205664D01*
X0190700Y0205712D01*
X0190588Y0205763D01*
X0190477Y0205817D01*
X0190367Y0205875D01*
X0190260Y0205936D01*
X0190154Y0206001D01*
X0190051Y0206069D01*
X0189950Y0206140D01*
X0189851Y0206214D01*
X0189754Y0206291D01*
X0189660Y0206372D01*
X0189569Y0206455D01*
X0189480Y0206541D01*
X0189394Y0206630D01*
X0189311Y0206721D01*
X0189230Y0206815D01*
X0189153Y0206912D01*
X0189079Y0207011D01*
X0189008Y0207112D01*
X0188940Y0207215D01*
X0188875Y0207321D01*
X0188814Y0207428D01*
X0188756Y0207538D01*
X0188702Y0207649D01*
X0188651Y0207761D01*
X0188603Y0207876D01*
X0188560Y0207991D01*
X0188520Y0208108D01*
X0188483Y0208227D01*
X0188451Y0208346D01*
X0188422Y0208466D01*
X0188397Y0208587D01*
X0188375Y0208709D01*
X0188358Y0208832D01*
X0188344Y0208954D01*
X0188335Y0209078D01*
X0188329Y0209201D01*
X0188327Y0209325D01*
X0188327Y0239246D01*
X0188329Y0239362D01*
X0188335Y0239478D01*
X0188344Y0239593D01*
X0188357Y0239708D01*
X0188374Y0239823D01*
X0188395Y0239937D01*
X0188420Y0240051D01*
X0188448Y0240163D01*
X0188480Y0240274D01*
X0188515Y0240385D01*
X0188554Y0240494D01*
X0188597Y0240602D01*
X0188643Y0240708D01*
X0188692Y0240813D01*
X0188745Y0240916D01*
X0188802Y0241018D01*
X0188861Y0241117D01*
X0188924Y0241214D01*
X0188990Y0241310D01*
X0189059Y0241403D01*
X0189131Y0241494D01*
X0189206Y0241582D01*
X0189284Y0241668D01*
X0189365Y0241751D01*
X0189448Y0241832D01*
X0189534Y0241910D01*
X0189622Y0241985D01*
X0189713Y0242057D01*
X0189806Y0242126D01*
X0189902Y0242192D01*
X0189999Y0242255D01*
X0190099Y0242314D01*
X0190200Y0242371D01*
X0190303Y0242424D01*
X0190408Y0242473D01*
X0190514Y0242519D01*
X0190622Y0242562D01*
X0190731Y0242601D01*
X0190842Y0242636D01*
X0190953Y0242668D01*
X0191065Y0242696D01*
X0191179Y0242721D01*
X0191293Y0242742D01*
X0191408Y0242759D01*
X0191523Y0242772D01*
X0191638Y0242781D01*
X0191754Y0242787D01*
X0191870Y0242789D01*
X0194626Y0183340D02*
X0239508Y0183340D01*
X0239649Y0183338D01*
X0239790Y0183332D01*
X0239931Y0183323D01*
X0240071Y0183309D01*
X0240211Y0183291D01*
X0240350Y0183270D01*
X0240489Y0183245D01*
X0240627Y0183216D01*
X0240764Y0183183D01*
X0240901Y0183147D01*
X0241036Y0183107D01*
X0241170Y0183063D01*
X0241303Y0183015D01*
X0241434Y0182964D01*
X0241564Y0182909D01*
X0241692Y0182850D01*
X0241819Y0182789D01*
X0241944Y0182723D01*
X0242067Y0182654D01*
X0242188Y0182582D01*
X0242307Y0182507D01*
X0242424Y0182428D01*
X0242539Y0182346D01*
X0242652Y0182261D01*
X0242762Y0182173D01*
X0242869Y0182082D01*
X0242974Y0181987D01*
X0243077Y0181890D01*
X0243176Y0181791D01*
X0243273Y0181688D01*
X0243368Y0181583D01*
X0243459Y0181476D01*
X0243547Y0181366D01*
X0243632Y0181253D01*
X0243714Y0181138D01*
X0243793Y0181021D01*
X0243868Y0180902D01*
X0243940Y0180781D01*
X0244009Y0180658D01*
X0244075Y0180533D01*
X0244136Y0180406D01*
X0244195Y0180278D01*
X0244250Y0180148D01*
X0244301Y0180017D01*
X0244349Y0179884D01*
X0244393Y0179750D01*
X0244433Y0179615D01*
X0244469Y0179478D01*
X0244502Y0179341D01*
X0244531Y0179203D01*
X0244556Y0179064D01*
X0244577Y0178925D01*
X0244595Y0178785D01*
X0244609Y0178645D01*
X0244618Y0178504D01*
X0244624Y0178363D01*
X0244626Y0178222D01*
X0244626Y0152238D01*
X0244624Y0152103D01*
X0244618Y0151968D01*
X0244609Y0151834D01*
X0244595Y0151700D01*
X0244578Y0151566D01*
X0244557Y0151432D01*
X0244532Y0151300D01*
X0244503Y0151168D01*
X0244471Y0151037D01*
X0244435Y0150907D01*
X0244395Y0150778D01*
X0244351Y0150651D01*
X0244304Y0150524D01*
X0244253Y0150399D01*
X0244199Y0150276D01*
X0244141Y0150154D01*
X0244080Y0150033D01*
X0244015Y0149915D01*
X0243947Y0149799D01*
X0243876Y0149684D01*
X0243802Y0149572D01*
X0243724Y0149461D01*
X0243643Y0149353D01*
X0243559Y0149248D01*
X0243472Y0149144D01*
X0243382Y0149044D01*
X0243290Y0148946D01*
X0243194Y0148850D01*
X0243096Y0148758D01*
X0242996Y0148668D01*
X0242892Y0148581D01*
X0242787Y0148497D01*
X0242679Y0148416D01*
X0242568Y0148338D01*
X0242456Y0148264D01*
X0242341Y0148193D01*
X0242225Y0148125D01*
X0242107Y0148060D01*
X0241986Y0147999D01*
X0241864Y0147941D01*
X0241741Y0147887D01*
X0241616Y0147836D01*
X0241489Y0147789D01*
X0241362Y0147745D01*
X0241233Y0147705D01*
X0241103Y0147669D01*
X0240972Y0147637D01*
X0240840Y0147608D01*
X0240708Y0147583D01*
X0240574Y0147562D01*
X0240440Y0147545D01*
X0240306Y0147531D01*
X0240172Y0147522D01*
X0240037Y0147516D01*
X0239902Y0147514D01*
X0195020Y0147514D01*
X0194896Y0147516D01*
X0194773Y0147522D01*
X0194649Y0147531D01*
X0194527Y0147545D01*
X0194404Y0147562D01*
X0194282Y0147584D01*
X0194161Y0147609D01*
X0194041Y0147638D01*
X0193922Y0147670D01*
X0193803Y0147707D01*
X0193686Y0147747D01*
X0193571Y0147790D01*
X0193456Y0147838D01*
X0193344Y0147889D01*
X0193233Y0147943D01*
X0193123Y0148001D01*
X0193016Y0148062D01*
X0192910Y0148127D01*
X0192807Y0148195D01*
X0192706Y0148266D01*
X0192607Y0148340D01*
X0192510Y0148417D01*
X0192416Y0148498D01*
X0192325Y0148581D01*
X0192236Y0148667D01*
X0192150Y0148756D01*
X0192067Y0148847D01*
X0191986Y0148941D01*
X0191909Y0149038D01*
X0191835Y0149137D01*
X0191764Y0149238D01*
X0191696Y0149341D01*
X0191631Y0149447D01*
X0191570Y0149554D01*
X0191512Y0149664D01*
X0191458Y0149775D01*
X0191407Y0149887D01*
X0191359Y0150002D01*
X0191316Y0150117D01*
X0191276Y0150234D01*
X0191239Y0150353D01*
X0191207Y0150472D01*
X0191178Y0150592D01*
X0191153Y0150713D01*
X0191131Y0150835D01*
X0191114Y0150958D01*
X0191100Y0151080D01*
X0191091Y0151204D01*
X0191085Y0151327D01*
X0191083Y0151451D01*
X0191083Y0179797D01*
X0191085Y0179913D01*
X0191091Y0180029D01*
X0191100Y0180144D01*
X0191113Y0180259D01*
X0191130Y0180374D01*
X0191151Y0180488D01*
X0191176Y0180602D01*
X0191204Y0180714D01*
X0191236Y0180825D01*
X0191271Y0180936D01*
X0191310Y0181045D01*
X0191353Y0181153D01*
X0191399Y0181259D01*
X0191448Y0181364D01*
X0191501Y0181467D01*
X0191558Y0181569D01*
X0191617Y0181668D01*
X0191680Y0181765D01*
X0191746Y0181861D01*
X0191815Y0181954D01*
X0191887Y0182045D01*
X0191962Y0182133D01*
X0192040Y0182219D01*
X0192121Y0182302D01*
X0192204Y0182383D01*
X0192290Y0182461D01*
X0192378Y0182536D01*
X0192469Y0182608D01*
X0192562Y0182677D01*
X0192658Y0182743D01*
X0192755Y0182806D01*
X0192855Y0182865D01*
X0192956Y0182922D01*
X0193059Y0182975D01*
X0193164Y0183024D01*
X0193270Y0183070D01*
X0193378Y0183113D01*
X0193487Y0183152D01*
X0193598Y0183187D01*
X0193709Y0183219D01*
X0193821Y0183247D01*
X0193935Y0183272D01*
X0194049Y0183293D01*
X0194164Y0183310D01*
X0194279Y0183323D01*
X0194394Y0183332D01*
X0194510Y0183338D01*
X0194626Y0183340D01*
X0202500Y0143183D02*
X0269823Y0143183D01*
X0269964Y0143181D01*
X0270105Y0143175D01*
X0270246Y0143166D01*
X0270386Y0143152D01*
X0270526Y0143134D01*
X0270665Y0143113D01*
X0270804Y0143088D01*
X0270942Y0143059D01*
X0271079Y0143026D01*
X0271216Y0142990D01*
X0271351Y0142950D01*
X0271485Y0142906D01*
X0271618Y0142858D01*
X0271749Y0142807D01*
X0271879Y0142752D01*
X0272007Y0142693D01*
X0272134Y0142632D01*
X0272259Y0142566D01*
X0272382Y0142497D01*
X0272503Y0142425D01*
X0272622Y0142350D01*
X0272739Y0142271D01*
X0272854Y0142189D01*
X0272967Y0142104D01*
X0273077Y0142016D01*
X0273184Y0141925D01*
X0273289Y0141830D01*
X0273392Y0141733D01*
X0273491Y0141634D01*
X0273588Y0141531D01*
X0273683Y0141426D01*
X0273774Y0141319D01*
X0273862Y0141209D01*
X0273947Y0141096D01*
X0274029Y0140981D01*
X0274108Y0140864D01*
X0274183Y0140745D01*
X0274255Y0140624D01*
X0274324Y0140501D01*
X0274390Y0140376D01*
X0274451Y0140249D01*
X0274510Y0140121D01*
X0274565Y0139991D01*
X0274616Y0139860D01*
X0274664Y0139727D01*
X0274708Y0139593D01*
X0274748Y0139458D01*
X0274784Y0139321D01*
X0274817Y0139184D01*
X0274846Y0139046D01*
X0274871Y0138907D01*
X0274892Y0138768D01*
X0274910Y0138628D01*
X0274924Y0138488D01*
X0274933Y0138347D01*
X0274939Y0138206D01*
X0274941Y0138065D01*
X0274941Y0120742D01*
X0198957Y0120742D01*
X0198957Y0139640D01*
X0198959Y0139756D01*
X0198965Y0139872D01*
X0198974Y0139987D01*
X0198987Y0140102D01*
X0199004Y0140217D01*
X0199025Y0140331D01*
X0199050Y0140445D01*
X0199078Y0140557D01*
X0199110Y0140668D01*
X0199145Y0140779D01*
X0199184Y0140888D01*
X0199227Y0140996D01*
X0199273Y0141102D01*
X0199322Y0141207D01*
X0199375Y0141310D01*
X0199432Y0141412D01*
X0199491Y0141511D01*
X0199554Y0141608D01*
X0199620Y0141704D01*
X0199689Y0141797D01*
X0199761Y0141888D01*
X0199836Y0141976D01*
X0199914Y0142062D01*
X0199995Y0142145D01*
X0200078Y0142226D01*
X0200164Y0142304D01*
X0200252Y0142379D01*
X0200343Y0142451D01*
X0200436Y0142520D01*
X0200532Y0142586D01*
X0200629Y0142649D01*
X0200729Y0142708D01*
X0200830Y0142765D01*
X0200933Y0142818D01*
X0201038Y0142867D01*
X0201144Y0142913D01*
X0201252Y0142956D01*
X0201361Y0142995D01*
X0201472Y0143030D01*
X0201583Y0143062D01*
X0201695Y0143090D01*
X0201809Y0143115D01*
X0201923Y0143136D01*
X0202038Y0143153D01*
X0202153Y0143166D01*
X0202268Y0143175D01*
X0202384Y0143181D01*
X0202500Y0143183D01*
X0198957Y0120742D02*
X0198957Y0077435D01*
X0198959Y0077311D01*
X0198965Y0077188D01*
X0198974Y0077064D01*
X0198988Y0076942D01*
X0199005Y0076819D01*
X0199027Y0076697D01*
X0199052Y0076576D01*
X0199081Y0076456D01*
X0199113Y0076337D01*
X0199150Y0076218D01*
X0199190Y0076101D01*
X0199233Y0075986D01*
X0199281Y0075871D01*
X0199332Y0075759D01*
X0199386Y0075648D01*
X0199444Y0075538D01*
X0199505Y0075431D01*
X0199570Y0075325D01*
X0199638Y0075222D01*
X0199709Y0075121D01*
X0199783Y0075022D01*
X0199860Y0074925D01*
X0199941Y0074831D01*
X0200024Y0074740D01*
X0200110Y0074651D01*
X0200199Y0074565D01*
X0200290Y0074482D01*
X0200384Y0074401D01*
X0200481Y0074324D01*
X0200580Y0074250D01*
X0200681Y0074179D01*
X0200784Y0074111D01*
X0200890Y0074046D01*
X0200997Y0073985D01*
X0201107Y0073927D01*
X0201218Y0073873D01*
X0201330Y0073822D01*
X0201445Y0073774D01*
X0201560Y0073731D01*
X0201677Y0073691D01*
X0201796Y0073654D01*
X0201915Y0073622D01*
X0202035Y0073593D01*
X0202156Y0073568D01*
X0202278Y0073546D01*
X0202401Y0073529D01*
X0202523Y0073515D01*
X0202647Y0073506D01*
X0202770Y0073500D01*
X0202894Y0073498D01*
X0244232Y0073498D01*
X0244626Y0073498D02*
X0270217Y0073498D01*
X0270352Y0073500D01*
X0270487Y0073506D01*
X0270621Y0073515D01*
X0270755Y0073529D01*
X0270889Y0073546D01*
X0271023Y0073567D01*
X0271155Y0073592D01*
X0271287Y0073621D01*
X0271418Y0073653D01*
X0271548Y0073689D01*
X0271677Y0073729D01*
X0271804Y0073773D01*
X0271931Y0073820D01*
X0272056Y0073871D01*
X0272179Y0073925D01*
X0272301Y0073983D01*
X0272422Y0074044D01*
X0272540Y0074109D01*
X0272656Y0074177D01*
X0272771Y0074248D01*
X0272883Y0074322D01*
X0272994Y0074400D01*
X0273102Y0074481D01*
X0273207Y0074565D01*
X0273311Y0074652D01*
X0273411Y0074742D01*
X0273509Y0074834D01*
X0273605Y0074930D01*
X0273697Y0075028D01*
X0273787Y0075128D01*
X0273874Y0075232D01*
X0273958Y0075337D01*
X0274039Y0075445D01*
X0274117Y0075556D01*
X0274191Y0075668D01*
X0274262Y0075783D01*
X0274330Y0075899D01*
X0274395Y0076017D01*
X0274456Y0076138D01*
X0274514Y0076260D01*
X0274568Y0076383D01*
X0274619Y0076508D01*
X0274666Y0076635D01*
X0274710Y0076762D01*
X0274750Y0076891D01*
X0274786Y0077021D01*
X0274818Y0077152D01*
X0274847Y0077284D01*
X0274872Y0077416D01*
X0274893Y0077550D01*
X0274910Y0077684D01*
X0274924Y0077818D01*
X0274933Y0077952D01*
X0274939Y0078087D01*
X0274941Y0078222D01*
X0274941Y0120742D01*
X0283996Y0095151D02*
X0316673Y0095151D01*
X0316814Y0095149D01*
X0316955Y0095143D01*
X0317096Y0095134D01*
X0317236Y0095120D01*
X0317376Y0095102D01*
X0317515Y0095081D01*
X0317654Y0095056D01*
X0317792Y0095027D01*
X0317929Y0094994D01*
X0318066Y0094958D01*
X0318201Y0094918D01*
X0318335Y0094874D01*
X0318468Y0094826D01*
X0318599Y0094775D01*
X0318729Y0094720D01*
X0318857Y0094661D01*
X0318984Y0094600D01*
X0319109Y0094534D01*
X0319232Y0094465D01*
X0319353Y0094393D01*
X0319472Y0094318D01*
X0319589Y0094239D01*
X0319704Y0094157D01*
X0319817Y0094072D01*
X0319927Y0093984D01*
X0320034Y0093893D01*
X0320139Y0093798D01*
X0320242Y0093701D01*
X0320341Y0093602D01*
X0320438Y0093499D01*
X0320533Y0093394D01*
X0320624Y0093287D01*
X0320712Y0093177D01*
X0320797Y0093064D01*
X0320879Y0092949D01*
X0320958Y0092832D01*
X0321033Y0092713D01*
X0321105Y0092592D01*
X0321174Y0092469D01*
X0321240Y0092344D01*
X0321301Y0092217D01*
X0321360Y0092089D01*
X0321415Y0091959D01*
X0321466Y0091828D01*
X0321514Y0091695D01*
X0321558Y0091561D01*
X0321598Y0091426D01*
X0321634Y0091289D01*
X0321667Y0091152D01*
X0321696Y0091014D01*
X0321721Y0090875D01*
X0321742Y0090736D01*
X0321760Y0090596D01*
X0321774Y0090456D01*
X0321783Y0090315D01*
X0321789Y0090174D01*
X0321791Y0090033D01*
X0321791Y0045939D01*
X0321789Y0045804D01*
X0321783Y0045669D01*
X0321774Y0045535D01*
X0321760Y0045401D01*
X0321743Y0045267D01*
X0321722Y0045133D01*
X0321697Y0045001D01*
X0321668Y0044869D01*
X0321636Y0044738D01*
X0321600Y0044608D01*
X0321560Y0044479D01*
X0321516Y0044352D01*
X0321469Y0044225D01*
X0321418Y0044100D01*
X0321364Y0043977D01*
X0321306Y0043855D01*
X0321245Y0043734D01*
X0321180Y0043616D01*
X0321112Y0043500D01*
X0321041Y0043385D01*
X0320967Y0043273D01*
X0320889Y0043162D01*
X0320808Y0043054D01*
X0320724Y0042949D01*
X0320637Y0042845D01*
X0320547Y0042745D01*
X0320455Y0042647D01*
X0320359Y0042551D01*
X0320261Y0042459D01*
X0320161Y0042369D01*
X0320057Y0042282D01*
X0319952Y0042198D01*
X0319844Y0042117D01*
X0319733Y0042039D01*
X0319621Y0041965D01*
X0319506Y0041894D01*
X0319390Y0041826D01*
X0319272Y0041761D01*
X0319151Y0041700D01*
X0319029Y0041642D01*
X0318906Y0041588D01*
X0318781Y0041537D01*
X0318654Y0041490D01*
X0318527Y0041446D01*
X0318398Y0041406D01*
X0318268Y0041370D01*
X0318137Y0041338D01*
X0318005Y0041309D01*
X0317873Y0041284D01*
X0317739Y0041263D01*
X0317605Y0041246D01*
X0317471Y0041232D01*
X0317337Y0041223D01*
X0317202Y0041217D01*
X0317067Y0041215D01*
X0317067Y0041214D02*
X0284390Y0041214D01*
X0284266Y0041216D01*
X0284143Y0041222D01*
X0284019Y0041231D01*
X0283897Y0041245D01*
X0283774Y0041262D01*
X0283652Y0041284D01*
X0283531Y0041309D01*
X0283411Y0041338D01*
X0283292Y0041370D01*
X0283173Y0041407D01*
X0283056Y0041447D01*
X0282941Y0041490D01*
X0282826Y0041538D01*
X0282714Y0041589D01*
X0282603Y0041643D01*
X0282493Y0041701D01*
X0282386Y0041762D01*
X0282280Y0041827D01*
X0282177Y0041895D01*
X0282076Y0041966D01*
X0281977Y0042040D01*
X0281880Y0042117D01*
X0281786Y0042198D01*
X0281695Y0042281D01*
X0281606Y0042367D01*
X0281520Y0042456D01*
X0281437Y0042547D01*
X0281356Y0042641D01*
X0281279Y0042738D01*
X0281205Y0042837D01*
X0281134Y0042938D01*
X0281066Y0043041D01*
X0281001Y0043147D01*
X0280940Y0043254D01*
X0280882Y0043364D01*
X0280828Y0043475D01*
X0280777Y0043587D01*
X0280729Y0043702D01*
X0280686Y0043817D01*
X0280646Y0043934D01*
X0280609Y0044053D01*
X0280577Y0044172D01*
X0280548Y0044292D01*
X0280523Y0044413D01*
X0280501Y0044535D01*
X0280484Y0044658D01*
X0280470Y0044780D01*
X0280461Y0044904D01*
X0280455Y0045027D01*
X0280453Y0045151D01*
X0280453Y0091608D01*
X0280455Y0091724D01*
X0280461Y0091840D01*
X0280470Y0091955D01*
X0280483Y0092070D01*
X0280500Y0092185D01*
X0280521Y0092299D01*
X0280546Y0092413D01*
X0280574Y0092525D01*
X0280606Y0092636D01*
X0280641Y0092747D01*
X0280680Y0092856D01*
X0280723Y0092964D01*
X0280769Y0093070D01*
X0280818Y0093175D01*
X0280871Y0093278D01*
X0280928Y0093379D01*
X0280987Y0093479D01*
X0281050Y0093576D01*
X0281116Y0093672D01*
X0281185Y0093765D01*
X0281257Y0093856D01*
X0281332Y0093944D01*
X0281410Y0094030D01*
X0281491Y0094113D01*
X0281574Y0094194D01*
X0281660Y0094272D01*
X0281748Y0094347D01*
X0281839Y0094419D01*
X0281932Y0094488D01*
X0282028Y0094554D01*
X0282125Y0094617D01*
X0282225Y0094676D01*
X0282326Y0094733D01*
X0282429Y0094786D01*
X0282534Y0094835D01*
X0282640Y0094881D01*
X0282748Y0094924D01*
X0282857Y0094963D01*
X0282968Y0094998D01*
X0283079Y0095030D01*
X0283191Y0095058D01*
X0283305Y0095083D01*
X0283419Y0095104D01*
X0283534Y0095121D01*
X0283649Y0095134D01*
X0283764Y0095143D01*
X0283880Y0095149D01*
X0283996Y0095151D01*
X0261555Y0048301D02*
X0186358Y0048301D01*
X0186242Y0048299D01*
X0186126Y0048293D01*
X0186011Y0048284D01*
X0185896Y0048271D01*
X0185781Y0048254D01*
X0185667Y0048233D01*
X0185553Y0048208D01*
X0185441Y0048180D01*
X0185330Y0048148D01*
X0185219Y0048113D01*
X0185110Y0048074D01*
X0185002Y0048031D01*
X0184896Y0047985D01*
X0184791Y0047936D01*
X0184688Y0047883D01*
X0184587Y0047826D01*
X0184487Y0047767D01*
X0184390Y0047704D01*
X0184294Y0047638D01*
X0184201Y0047569D01*
X0184110Y0047497D01*
X0184022Y0047422D01*
X0183936Y0047344D01*
X0183853Y0047263D01*
X0183772Y0047180D01*
X0183694Y0047094D01*
X0183619Y0047006D01*
X0183547Y0046915D01*
X0183478Y0046822D01*
X0183412Y0046726D01*
X0183349Y0046629D01*
X0183290Y0046529D01*
X0183233Y0046428D01*
X0183180Y0046325D01*
X0183131Y0046220D01*
X0183085Y0046114D01*
X0183042Y0046006D01*
X0183003Y0045897D01*
X0182968Y0045786D01*
X0182936Y0045675D01*
X0182908Y0045563D01*
X0182883Y0045449D01*
X0182862Y0045335D01*
X0182845Y0045220D01*
X0182832Y0045105D01*
X0182823Y0044990D01*
X0182817Y0044874D01*
X0182815Y0044758D01*
X0183209Y0026647D01*
X0183211Y0026523D01*
X0183217Y0026400D01*
X0183226Y0026276D01*
X0183240Y0026154D01*
X0183257Y0026031D01*
X0183279Y0025909D01*
X0183304Y0025788D01*
X0183333Y0025668D01*
X0183365Y0025549D01*
X0183402Y0025430D01*
X0183442Y0025313D01*
X0183485Y0025198D01*
X0183533Y0025083D01*
X0183584Y0024971D01*
X0183638Y0024860D01*
X0183696Y0024750D01*
X0183757Y0024643D01*
X0183822Y0024537D01*
X0183890Y0024434D01*
X0183961Y0024333D01*
X0184035Y0024234D01*
X0184112Y0024137D01*
X0184193Y0024043D01*
X0184276Y0023952D01*
X0184362Y0023863D01*
X0184451Y0023777D01*
X0184542Y0023694D01*
X0184636Y0023613D01*
X0184733Y0023536D01*
X0184832Y0023462D01*
X0184933Y0023391D01*
X0185036Y0023323D01*
X0185142Y0023258D01*
X0185249Y0023197D01*
X0185359Y0023139D01*
X0185470Y0023085D01*
X0185582Y0023034D01*
X0185697Y0022986D01*
X0185812Y0022943D01*
X0185929Y0022903D01*
X0186048Y0022866D01*
X0186167Y0022834D01*
X0186287Y0022805D01*
X0186408Y0022780D01*
X0186530Y0022758D01*
X0186653Y0022741D01*
X0186775Y0022727D01*
X0186899Y0022718D01*
X0187022Y0022712D01*
X0187146Y0022710D01*
X0262343Y0022710D01*
X0262343Y0022711D02*
X0262478Y0022713D01*
X0262613Y0022719D01*
X0262747Y0022728D01*
X0262881Y0022742D01*
X0263015Y0022759D01*
X0263149Y0022780D01*
X0263281Y0022805D01*
X0263413Y0022834D01*
X0263544Y0022866D01*
X0263674Y0022902D01*
X0263803Y0022942D01*
X0263930Y0022986D01*
X0264057Y0023033D01*
X0264182Y0023084D01*
X0264305Y0023138D01*
X0264427Y0023196D01*
X0264548Y0023257D01*
X0264666Y0023322D01*
X0264782Y0023390D01*
X0264897Y0023461D01*
X0265009Y0023535D01*
X0265120Y0023613D01*
X0265228Y0023694D01*
X0265333Y0023778D01*
X0265437Y0023865D01*
X0265537Y0023955D01*
X0265635Y0024047D01*
X0265731Y0024143D01*
X0265823Y0024241D01*
X0265913Y0024341D01*
X0266000Y0024445D01*
X0266084Y0024550D01*
X0266165Y0024658D01*
X0266243Y0024769D01*
X0266317Y0024881D01*
X0266388Y0024996D01*
X0266456Y0025112D01*
X0266521Y0025230D01*
X0266582Y0025351D01*
X0266640Y0025473D01*
X0266694Y0025596D01*
X0266745Y0025721D01*
X0266792Y0025848D01*
X0266836Y0025975D01*
X0266876Y0026104D01*
X0266912Y0026234D01*
X0266944Y0026365D01*
X0266973Y0026497D01*
X0266998Y0026629D01*
X0267019Y0026763D01*
X0267036Y0026897D01*
X0267050Y0027031D01*
X0267059Y0027165D01*
X0267065Y0027300D01*
X0267067Y0027435D01*
X0266673Y0043183D01*
X0266671Y0043324D01*
X0266665Y0043465D01*
X0266656Y0043606D01*
X0266642Y0043746D01*
X0266624Y0043886D01*
X0266603Y0044025D01*
X0266578Y0044164D01*
X0266549Y0044302D01*
X0266516Y0044439D01*
X0266480Y0044576D01*
X0266440Y0044711D01*
X0266396Y0044845D01*
X0266348Y0044978D01*
X0266297Y0045109D01*
X0266242Y0045239D01*
X0266183Y0045367D01*
X0266122Y0045494D01*
X0266056Y0045619D01*
X0265987Y0045742D01*
X0265915Y0045863D01*
X0265840Y0045982D01*
X0265761Y0046099D01*
X0265679Y0046214D01*
X0265594Y0046327D01*
X0265506Y0046437D01*
X0265415Y0046544D01*
X0265320Y0046649D01*
X0265223Y0046752D01*
X0265124Y0046851D01*
X0265021Y0046948D01*
X0264916Y0047043D01*
X0264809Y0047134D01*
X0264699Y0047222D01*
X0264586Y0047307D01*
X0264471Y0047389D01*
X0264354Y0047468D01*
X0264235Y0047543D01*
X0264114Y0047615D01*
X0263991Y0047684D01*
X0263866Y0047750D01*
X0263739Y0047811D01*
X0263611Y0047870D01*
X0263481Y0047925D01*
X0263350Y0047976D01*
X0263217Y0048024D01*
X0263083Y0048068D01*
X0262948Y0048108D01*
X0262811Y0048144D01*
X0262674Y0048177D01*
X0262536Y0048206D01*
X0262397Y0048231D01*
X0262258Y0048252D01*
X0262118Y0048270D01*
X0261978Y0048284D01*
X0261837Y0048293D01*
X0261696Y0048299D01*
X0261555Y0048301D01*
X0240295Y0039640D02*
X0231831Y0039640D01*
X0231831Y0037277D01*
X0231831Y0030584D02*
X0231831Y0028222D01*
X0240295Y0028222D01*
D12*
X0239937Y0049582D02*
X0239570Y0049949D01*
X0239937Y0049582D02*
X0240671Y0049582D01*
X0241038Y0049949D01*
X0241038Y0050316D01*
X0240671Y0050683D01*
X0239937Y0050683D01*
X0239570Y0051050D01*
X0239570Y0051417D01*
X0239937Y0051784D01*
X0240671Y0051784D01*
X0241038Y0051417D01*
X0241780Y0051417D02*
X0241780Y0049949D01*
X0242147Y0049582D01*
X0242881Y0049582D01*
X0243248Y0049949D01*
X0243248Y0051417D01*
X0242881Y0051784D01*
X0242147Y0051784D01*
X0241780Y0051417D01*
X0243990Y0051784D02*
X0245091Y0051784D01*
X0245458Y0051417D01*
X0245458Y0050683D01*
X0245091Y0050316D01*
X0243990Y0050316D01*
X0243990Y0049582D02*
X0243990Y0051784D01*
X0244724Y0050316D02*
X0245458Y0049582D01*
X0248410Y0049949D02*
X0248410Y0051417D01*
X0248777Y0051784D01*
X0249511Y0051784D01*
X0249878Y0051417D01*
X0250620Y0051050D02*
X0251354Y0051784D01*
X0252088Y0051050D01*
X0252088Y0049582D01*
X0252830Y0049582D02*
X0252830Y0051784D01*
X0252088Y0050683D02*
X0250620Y0050683D01*
X0250620Y0051050D02*
X0250620Y0049582D01*
X0249878Y0049949D02*
X0249511Y0049582D01*
X0248777Y0049582D01*
X0248410Y0049949D01*
X0252830Y0049582D02*
X0254298Y0049582D01*
X0255040Y0049582D02*
X0255774Y0049582D01*
X0255407Y0049582D02*
X0255407Y0051784D01*
X0255040Y0051784D02*
X0255774Y0051784D01*
X0256513Y0051784D02*
X0256513Y0049582D01*
X0257614Y0049582D01*
X0257981Y0049949D01*
X0257981Y0050316D01*
X0257614Y0050683D01*
X0256513Y0050683D01*
X0257614Y0050683D02*
X0257981Y0051050D01*
X0257981Y0051417D01*
X0257614Y0051784D01*
X0256513Y0051784D01*
X0258723Y0051784D02*
X0259824Y0051784D01*
X0260191Y0051417D01*
X0260191Y0050683D01*
X0259824Y0050316D01*
X0258723Y0050316D01*
X0259457Y0050316D02*
X0260191Y0049582D01*
X0260933Y0049582D02*
X0260933Y0051050D01*
X0261667Y0051784D01*
X0262401Y0051050D01*
X0262401Y0049582D01*
X0262401Y0050683D02*
X0260933Y0050683D01*
X0263143Y0051784D02*
X0264610Y0051784D01*
X0263876Y0051784D02*
X0263876Y0049582D01*
X0265352Y0049582D02*
X0266086Y0049582D01*
X0265719Y0049582D02*
X0265719Y0051784D01*
X0265352Y0051784D02*
X0266086Y0051784D01*
X0266826Y0051417D02*
X0266826Y0049949D01*
X0267193Y0049582D01*
X0267927Y0049582D01*
X0268294Y0049949D01*
X0268294Y0051417D01*
X0267927Y0051784D01*
X0267193Y0051784D01*
X0266826Y0051417D01*
X0269036Y0051784D02*
X0270503Y0049582D01*
X0270503Y0051784D01*
X0269036Y0051784D02*
X0269036Y0049582D01*
X0258723Y0049582D02*
X0258723Y0051784D01*
X0238829Y0051784D02*
X0238829Y0049582D01*
X0237361Y0051784D01*
X0237361Y0049582D01*
X0236619Y0049582D02*
X0235151Y0049582D01*
X0235151Y0051784D01*
X0236619Y0051784D01*
X0235885Y0050683D02*
X0235151Y0050683D01*
X0234409Y0050316D02*
X0234409Y0049949D01*
X0234042Y0049582D01*
X0233308Y0049582D01*
X0232941Y0049949D01*
X0233308Y0050683D02*
X0234042Y0050683D01*
X0234409Y0050316D01*
X0234409Y0051417D02*
X0234042Y0051784D01*
X0233308Y0051784D01*
X0232941Y0051417D01*
X0232941Y0051050D01*
X0233308Y0050683D01*
X0229989Y0050683D02*
X0229622Y0050316D01*
X0228521Y0050316D01*
X0228521Y0049582D02*
X0228521Y0051784D01*
X0229622Y0051784D01*
X0229989Y0051417D01*
X0229989Y0050683D01*
X0227779Y0051784D02*
X0227779Y0049582D01*
X0226311Y0049582D02*
X0226311Y0051784D01*
X0227045Y0051050D01*
X0227779Y0051784D01*
X0225569Y0051784D02*
X0224101Y0051784D01*
X0224101Y0049582D01*
X0225569Y0049582D01*
X0224835Y0050683D02*
X0224101Y0050683D01*
X0223359Y0051784D02*
X0221891Y0051784D01*
X0222625Y0051784D02*
X0222625Y0049582D01*
X0283702Y0039579D02*
X0285170Y0039579D01*
X0284436Y0039579D02*
X0284436Y0037377D01*
X0285912Y0037377D02*
X0287380Y0037377D01*
X0288122Y0037377D02*
X0288122Y0039579D01*
X0288856Y0038845D01*
X0289590Y0039579D01*
X0289590Y0037377D01*
X0290332Y0037377D02*
X0290332Y0039579D01*
X0291433Y0039579D01*
X0291800Y0039212D01*
X0291800Y0038478D01*
X0291433Y0038111D01*
X0290332Y0038111D01*
X0292542Y0038478D02*
X0293276Y0038478D01*
X0292542Y0037377D02*
X0294010Y0037377D01*
X0294752Y0037377D02*
X0294752Y0039579D01*
X0295853Y0039579D01*
X0296220Y0039212D01*
X0296220Y0038478D01*
X0295853Y0038111D01*
X0294752Y0038111D01*
X0295486Y0038111D02*
X0296220Y0037377D01*
X0296962Y0037377D02*
X0296962Y0038845D01*
X0297696Y0039579D01*
X0298430Y0038845D01*
X0298430Y0037377D01*
X0298430Y0038478D02*
X0296962Y0038478D01*
X0299172Y0039579D02*
X0300640Y0039579D01*
X0299906Y0039579D02*
X0299906Y0037377D01*
X0301382Y0037744D02*
X0301382Y0039579D01*
X0302849Y0039579D02*
X0302849Y0037744D01*
X0302482Y0037377D01*
X0301748Y0037377D01*
X0301382Y0037744D01*
X0303591Y0037377D02*
X0303591Y0039579D01*
X0304692Y0039579D01*
X0305059Y0039212D01*
X0305059Y0038478D01*
X0304692Y0038111D01*
X0303591Y0038111D01*
X0304325Y0038111D02*
X0305059Y0037377D01*
X0305801Y0037377D02*
X0307269Y0037377D01*
X0306535Y0038478D02*
X0305801Y0038478D01*
X0305801Y0039579D02*
X0305801Y0037377D01*
X0305801Y0039579D02*
X0307269Y0039579D01*
X0310221Y0039212D02*
X0310221Y0038845D01*
X0310588Y0038478D01*
X0311322Y0038478D01*
X0311689Y0038111D01*
X0311689Y0037744D01*
X0311322Y0037377D01*
X0310588Y0037377D01*
X0310221Y0037744D01*
X0310221Y0039212D02*
X0310588Y0039579D01*
X0311322Y0039579D01*
X0311689Y0039212D01*
X0312431Y0039579D02*
X0312431Y0037377D01*
X0313899Y0037377D01*
X0314641Y0037377D02*
X0314641Y0039579D01*
X0316109Y0037377D01*
X0316109Y0039579D01*
X0316851Y0039212D02*
X0316851Y0038845D01*
X0317218Y0038478D01*
X0317952Y0038478D01*
X0318319Y0038111D01*
X0318319Y0037744D01*
X0317952Y0037377D01*
X0317218Y0037377D01*
X0316851Y0037744D01*
X0316851Y0039212D02*
X0317218Y0039579D01*
X0317952Y0039579D01*
X0318319Y0039212D01*
X0319061Y0039212D02*
X0319061Y0037744D01*
X0319428Y0037377D01*
X0320161Y0037377D01*
X0320528Y0037744D01*
X0320528Y0039212D01*
X0320161Y0039579D01*
X0319428Y0039579D01*
X0319061Y0039212D01*
X0321270Y0039579D02*
X0321270Y0037377D01*
X0321270Y0038111D02*
X0322371Y0038111D01*
X0322738Y0038478D01*
X0322738Y0039212D01*
X0322371Y0039579D01*
X0321270Y0039579D01*
X0322004Y0038111D02*
X0322738Y0037377D01*
X0313899Y0039579D02*
X0312431Y0039579D01*
X0312431Y0038478D02*
X0313165Y0038478D01*
X0299763Y0042889D02*
X0298295Y0042889D01*
X0298295Y0043256D01*
X0299763Y0044724D01*
X0299763Y0045091D01*
X0298295Y0045091D01*
X0297553Y0045091D02*
X0296085Y0045091D01*
X0296085Y0043990D01*
X0296819Y0044357D01*
X0297186Y0044357D01*
X0297553Y0043990D01*
X0297553Y0043256D01*
X0297186Y0042889D01*
X0296452Y0042889D01*
X0296085Y0043256D01*
X0295343Y0043256D02*
X0294976Y0042889D01*
X0294242Y0042889D01*
X0293875Y0043256D01*
X0293133Y0042889D02*
X0291666Y0042889D01*
X0292399Y0042889D02*
X0292399Y0045091D01*
X0291666Y0044357D01*
X0290924Y0045091D02*
X0290924Y0042889D01*
X0289456Y0042889D02*
X0289456Y0045091D01*
X0290190Y0044357D01*
X0290924Y0045091D01*
X0293875Y0044724D02*
X0294242Y0045091D01*
X0294976Y0045091D01*
X0295343Y0044724D01*
X0295343Y0044357D01*
X0294976Y0043990D01*
X0295343Y0043623D01*
X0295343Y0043256D01*
X0294976Y0043990D02*
X0294609Y0043990D01*
X0294010Y0039579D02*
X0292542Y0039579D01*
X0292542Y0037377D01*
X0287380Y0039579D02*
X0285912Y0039579D01*
X0285912Y0037377D01*
X0285912Y0038478D02*
X0286646Y0038478D01*
X0287246Y0042889D02*
X0288714Y0042889D01*
X0287246Y0042889D02*
X0287246Y0045091D01*
X0228771Y0117299D02*
X0229138Y0117666D01*
X0229138Y0119134D01*
X0228771Y0119500D01*
X0228037Y0119500D01*
X0227670Y0119134D01*
X0227670Y0118767D01*
X0228037Y0118400D01*
X0229138Y0118400D01*
X0228771Y0117299D02*
X0228037Y0117299D01*
X0227670Y0117666D01*
X0226928Y0117666D02*
X0226561Y0117299D01*
X0225828Y0117299D01*
X0225461Y0117666D01*
X0226928Y0119134D01*
X0226928Y0117666D01*
X0225461Y0117666D02*
X0225461Y0119134D01*
X0225828Y0119500D01*
X0226561Y0119500D01*
X0226928Y0119134D01*
X0224719Y0119134D02*
X0224352Y0119500D01*
X0223618Y0119500D01*
X0223251Y0119134D01*
X0222509Y0119134D02*
X0222142Y0119500D01*
X0221408Y0119500D01*
X0221041Y0119134D01*
X0221041Y0118767D01*
X0221408Y0118400D01*
X0222509Y0118400D01*
X0222509Y0117666D02*
X0222509Y0119134D01*
X0222509Y0117666D02*
X0222142Y0117299D01*
X0221408Y0117299D01*
X0221041Y0117666D01*
X0220299Y0117299D02*
X0218831Y0117299D01*
X0220299Y0118767D01*
X0220299Y0119134D01*
X0219932Y0119500D01*
X0219198Y0119500D01*
X0218831Y0119134D01*
X0218089Y0119134D02*
X0217722Y0119500D01*
X0216988Y0119500D01*
X0216621Y0119134D01*
X0216621Y0117666D01*
X0216988Y0117299D01*
X0217722Y0117299D01*
X0218089Y0117666D01*
X0218089Y0119134D01*
X0217355Y0118033D02*
X0218089Y0117299D01*
X0215879Y0117666D02*
X0215512Y0117299D01*
X0214411Y0117299D01*
X0214411Y0119500D01*
X0215512Y0119500D01*
X0215879Y0119134D01*
X0215879Y0118767D01*
X0215512Y0118400D01*
X0214411Y0118400D01*
X0215512Y0118400D02*
X0215879Y0118033D01*
X0215879Y0117666D01*
X0215727Y0122417D02*
X0215727Y0123518D01*
X0215360Y0123885D01*
X0214259Y0123885D01*
X0214259Y0122417D01*
X0213517Y0122417D02*
X0212049Y0122417D01*
X0212049Y0124619D01*
X0213517Y0124619D01*
X0212783Y0123518D02*
X0212049Y0123518D01*
X0216469Y0122784D02*
X0216836Y0123151D01*
X0217937Y0123151D01*
X0217937Y0123518D02*
X0217937Y0122417D01*
X0216836Y0122417D01*
X0216469Y0122784D01*
X0216836Y0123885D02*
X0217570Y0123885D01*
X0217937Y0123518D01*
X0218679Y0123885D02*
X0219780Y0123885D01*
X0220146Y0123518D01*
X0220146Y0122784D01*
X0219780Y0122417D01*
X0218679Y0122417D01*
X0218679Y0124619D01*
X0220888Y0124619D02*
X0221255Y0124619D01*
X0221255Y0122417D01*
X0220888Y0122417D02*
X0221622Y0122417D01*
X0222362Y0122784D02*
X0222362Y0123518D01*
X0222729Y0123885D01*
X0223463Y0123885D01*
X0223830Y0123518D01*
X0223830Y0123151D01*
X0222362Y0123151D01*
X0222362Y0122784D02*
X0222729Y0122417D01*
X0223463Y0122417D01*
X0226781Y0122417D02*
X0226781Y0124619D01*
X0226781Y0122417D02*
X0228249Y0122417D01*
X0228991Y0122784D02*
X0229358Y0122417D01*
X0230092Y0122417D01*
X0230459Y0122784D01*
X0230459Y0123518D01*
X0230092Y0123885D01*
X0229358Y0123885D01*
X0228991Y0123518D01*
X0228991Y0122784D01*
X0231201Y0122784D02*
X0231201Y0123518D01*
X0231568Y0123885D01*
X0232669Y0123885D01*
X0232669Y0122050D01*
X0232302Y0121683D01*
X0231935Y0121683D01*
X0231568Y0122417D02*
X0232669Y0122417D01*
X0233411Y0122417D02*
X0234145Y0122417D01*
X0233778Y0122417D02*
X0233778Y0123885D01*
X0233411Y0123885D01*
X0233778Y0124619D02*
X0233778Y0124986D01*
X0234884Y0123518D02*
X0234884Y0122784D01*
X0235251Y0122417D01*
X0236352Y0122417D01*
X0236352Y0123885D02*
X0235251Y0123885D01*
X0234884Y0123518D01*
X0231568Y0122417D02*
X0231201Y0122784D01*
X0224719Y0119134D02*
X0224719Y0118767D01*
X0223251Y0117299D01*
X0224719Y0117299D01*
X0240470Y0145214D02*
X0241571Y0145214D01*
X0241938Y0145581D01*
X0241938Y0145948D01*
X0241571Y0146315D01*
X0240470Y0146315D01*
X0240470Y0147415D02*
X0240470Y0145214D01*
X0241571Y0146315D02*
X0241938Y0146681D01*
X0241938Y0147048D01*
X0241571Y0147415D01*
X0240470Y0147415D01*
X0242680Y0146681D02*
X0242680Y0145214D01*
X0242680Y0146315D02*
X0244148Y0146315D01*
X0244148Y0146681D02*
X0244148Y0145214D01*
X0244148Y0146681D02*
X0243414Y0147415D01*
X0242680Y0146681D01*
X0244890Y0147415D02*
X0246358Y0147415D01*
X0245624Y0147415D02*
X0245624Y0145214D01*
X0247834Y0145214D02*
X0247834Y0147415D01*
X0247100Y0147415D02*
X0248568Y0147415D01*
X0249310Y0147415D02*
X0249310Y0145214D01*
X0250778Y0145214D01*
X0251520Y0145214D02*
X0251520Y0147415D01*
X0252621Y0147415D01*
X0252988Y0147048D01*
X0252988Y0146315D01*
X0252621Y0145948D01*
X0251520Y0145948D01*
X0252254Y0145948D02*
X0252988Y0145214D01*
X0254463Y0145214D02*
X0254463Y0146315D01*
X0255197Y0147048D01*
X0255197Y0147415D01*
X0254463Y0146315D02*
X0253730Y0147048D01*
X0253730Y0147415D01*
X0250778Y0147415D02*
X0249310Y0147415D01*
X0249310Y0146315D02*
X0250044Y0146315D01*
X0258149Y0146315D02*
X0259250Y0146315D01*
X0259617Y0145948D01*
X0259617Y0145581D01*
X0259250Y0145214D01*
X0258149Y0145214D01*
X0258149Y0147415D01*
X0259250Y0147415D01*
X0259617Y0147048D01*
X0259617Y0146681D01*
X0259250Y0146315D01*
X0260359Y0146315D02*
X0261827Y0146315D01*
X0261827Y0146681D02*
X0261827Y0145214D01*
X0262569Y0145214D02*
X0264037Y0145214D01*
X0264779Y0145214D02*
X0264779Y0146681D01*
X0265513Y0147415D01*
X0266247Y0146681D01*
X0266247Y0145214D01*
X0266989Y0145214D02*
X0266989Y0147415D01*
X0268457Y0145214D01*
X0268457Y0147415D01*
X0269199Y0147048D02*
X0269199Y0145581D01*
X0269566Y0145214D01*
X0270300Y0145214D01*
X0270667Y0145581D01*
X0271409Y0145214D02*
X0271409Y0147415D01*
X0272876Y0147415D01*
X0273618Y0147415D02*
X0274719Y0147415D01*
X0275086Y0147048D01*
X0275086Y0146315D01*
X0274719Y0145948D01*
X0273618Y0145948D01*
X0274352Y0145948D02*
X0275086Y0145214D01*
X0273618Y0145214D02*
X0273618Y0147415D01*
X0272143Y0146315D02*
X0271409Y0146315D01*
X0270667Y0147048D02*
X0270300Y0147415D01*
X0269566Y0147415D01*
X0269199Y0147048D01*
X0271409Y0145214D02*
X0272876Y0145214D01*
X0266247Y0146315D02*
X0264779Y0146315D01*
X0262569Y0147415D02*
X0262569Y0145214D01*
X0261827Y0146681D02*
X0261093Y0147415D01*
X0260359Y0146681D01*
X0260359Y0145214D01*
X0221189Y0184621D02*
X0221189Y0186823D01*
X0221189Y0185722D02*
X0219721Y0185722D01*
X0218979Y0184988D02*
X0218612Y0184621D01*
X0217878Y0184621D01*
X0217511Y0184988D01*
X0217511Y0186456D01*
X0217878Y0186823D01*
X0218612Y0186823D01*
X0218979Y0186456D01*
X0219721Y0186823D02*
X0219721Y0184621D01*
X0216769Y0186823D02*
X0215301Y0186823D01*
X0216035Y0186823D02*
X0216035Y0184621D01*
X0214562Y0184621D02*
X0213828Y0184621D01*
X0214195Y0184621D02*
X0214195Y0186823D01*
X0213828Y0186823D02*
X0214562Y0186823D01*
X0213086Y0186823D02*
X0213086Y0184621D01*
X0212352Y0185355D01*
X0211618Y0184621D01*
X0211618Y0186823D01*
X0210876Y0186456D02*
X0210509Y0186823D01*
X0209775Y0186823D01*
X0209408Y0186456D01*
X0209408Y0186089D01*
X0209775Y0185722D01*
X0210509Y0185722D01*
X0210876Y0185355D01*
X0210876Y0184988D01*
X0210509Y0184621D01*
X0209775Y0184621D01*
X0209408Y0184988D01*
X0206456Y0184621D02*
X0205722Y0185355D01*
X0206089Y0185355D02*
X0204988Y0185355D01*
X0204988Y0184621D02*
X0204988Y0186823D01*
X0206089Y0186823D01*
X0206456Y0186456D01*
X0206456Y0185722D01*
X0206089Y0185355D01*
X0204246Y0184621D02*
X0202778Y0184621D01*
X0202778Y0186823D01*
X0204246Y0186823D01*
X0203512Y0185722D02*
X0202778Y0185722D01*
X0202036Y0186823D02*
X0200568Y0186823D01*
X0201302Y0186823D02*
X0201302Y0184621D01*
X0199826Y0184621D02*
X0199826Y0186089D01*
X0199092Y0186823D01*
X0198358Y0186089D01*
X0198358Y0184621D01*
X0197616Y0184621D02*
X0196149Y0184621D01*
X0196149Y0186823D01*
X0197616Y0186823D01*
X0196883Y0185722D02*
X0196149Y0185722D01*
X0195407Y0185722D02*
X0193939Y0185722D01*
X0193939Y0184621D02*
X0193939Y0186823D01*
X0195407Y0186823D02*
X0195407Y0184621D01*
X0198358Y0185722D02*
X0199826Y0185722D01*
X0199853Y0181312D02*
X0199119Y0181312D01*
X0198752Y0180945D01*
X0198752Y0180578D01*
X0199119Y0180211D01*
X0199853Y0180211D01*
X0200220Y0179844D01*
X0200220Y0179477D01*
X0199853Y0179110D01*
X0199119Y0179110D01*
X0198752Y0179477D01*
X0198010Y0180211D02*
X0197643Y0179844D01*
X0196542Y0179844D01*
X0196542Y0179110D02*
X0196542Y0181312D01*
X0197643Y0181312D01*
X0198010Y0180945D01*
X0198010Y0180211D01*
X0199853Y0181312D02*
X0200220Y0180945D01*
X0200962Y0180945D02*
X0201329Y0181312D01*
X0202063Y0181312D01*
X0202430Y0180945D01*
X0202430Y0180578D01*
X0200962Y0179110D01*
X0202430Y0179110D01*
X0203172Y0179477D02*
X0203539Y0179110D01*
X0204273Y0179110D01*
X0204640Y0179477D01*
X0204640Y0180211D01*
X0204273Y0180578D01*
X0203906Y0180578D01*
X0203172Y0180211D01*
X0203172Y0181312D01*
X0204640Y0181312D01*
X0205382Y0180945D02*
X0205749Y0181312D01*
X0206483Y0181312D01*
X0206850Y0180945D01*
X0206850Y0179477D01*
X0206483Y0179110D01*
X0205749Y0179110D01*
X0205382Y0179477D01*
X0205749Y0180211D02*
X0206850Y0180211D01*
X0207592Y0180945D02*
X0207959Y0181312D01*
X0208693Y0181312D01*
X0209060Y0180945D01*
X0209060Y0180578D01*
X0207592Y0179110D01*
X0209060Y0179110D01*
X0209802Y0179110D02*
X0209802Y0179477D01*
X0211269Y0180945D01*
X0211269Y0181312D01*
X0209802Y0181312D01*
X0205749Y0180211D02*
X0205382Y0180578D01*
X0205382Y0180945D01*
X0195800Y0181312D02*
X0194332Y0181312D01*
X0195066Y0181312D02*
X0195066Y0179110D01*
X0213203Y0201551D02*
X0213937Y0201551D01*
X0214304Y0201918D01*
X0215046Y0201918D02*
X0215413Y0201551D01*
X0216147Y0201551D01*
X0216514Y0201918D01*
X0216514Y0203385D01*
X0216147Y0203752D01*
X0215413Y0203752D01*
X0215046Y0203385D01*
X0215046Y0201918D01*
X0214304Y0203385D02*
X0213937Y0203752D01*
X0213203Y0203752D01*
X0212836Y0203385D01*
X0212836Y0201918D01*
X0213203Y0201551D01*
X0217256Y0201918D02*
X0217623Y0201551D01*
X0218357Y0201551D01*
X0218724Y0201918D01*
X0218724Y0203752D01*
X0219466Y0203752D02*
X0219466Y0201551D01*
X0220934Y0201551D01*
X0221676Y0201918D02*
X0222043Y0201551D01*
X0222777Y0201551D01*
X0223144Y0201918D01*
X0223144Y0203385D01*
X0222777Y0203752D01*
X0222043Y0203752D01*
X0221676Y0203385D01*
X0221676Y0201918D01*
X0223886Y0201551D02*
X0223886Y0203752D01*
X0224620Y0203019D01*
X0225354Y0203752D01*
X0225354Y0201551D01*
X0226096Y0201551D02*
X0227197Y0201551D01*
X0227564Y0201918D01*
X0227564Y0202285D01*
X0227197Y0202652D01*
X0226096Y0202652D01*
X0226096Y0203752D02*
X0227197Y0203752D01*
X0227564Y0203385D01*
X0227564Y0203019D01*
X0227197Y0202652D01*
X0226096Y0203752D02*
X0226096Y0201551D01*
X0230515Y0201918D02*
X0230882Y0201551D01*
X0231616Y0201551D01*
X0231983Y0201918D01*
X0232725Y0201918D02*
X0233092Y0201551D01*
X0233826Y0201551D01*
X0234193Y0201918D01*
X0234193Y0203385D01*
X0233826Y0203752D01*
X0233092Y0203752D01*
X0232725Y0203385D01*
X0232725Y0201918D01*
X0231983Y0203385D02*
X0231616Y0203752D01*
X0230882Y0203752D01*
X0230515Y0203385D01*
X0230515Y0201918D01*
X0234935Y0201918D02*
X0235302Y0201551D01*
X0236036Y0201551D01*
X0236403Y0201918D01*
X0236403Y0203752D01*
X0237145Y0203752D02*
X0238613Y0201551D01*
X0238613Y0203752D01*
X0239355Y0203752D02*
X0240823Y0203752D01*
X0240089Y0203752D02*
X0240089Y0201551D01*
X0241565Y0201551D02*
X0243033Y0201551D01*
X0243775Y0201551D02*
X0243775Y0203752D01*
X0244876Y0203752D01*
X0245243Y0203385D01*
X0245243Y0202652D01*
X0244876Y0202285D01*
X0243775Y0202285D01*
X0244509Y0202285D02*
X0245243Y0201551D01*
X0243033Y0203752D02*
X0241565Y0203752D01*
X0241565Y0201551D01*
X0241565Y0202652D02*
X0242299Y0202652D01*
X0242998Y0207062D02*
X0242631Y0207429D01*
X0242998Y0207062D02*
X0243732Y0207062D01*
X0244099Y0207429D01*
X0244099Y0207796D01*
X0243732Y0208163D01*
X0243365Y0208163D01*
X0243732Y0208163D02*
X0244099Y0208530D01*
X0244099Y0208897D01*
X0243732Y0209264D01*
X0242998Y0209264D01*
X0242631Y0208897D01*
X0241889Y0208163D02*
X0240421Y0208163D01*
X0241522Y0209264D01*
X0241522Y0207062D01*
X0239679Y0207429D02*
X0239679Y0208897D01*
X0239312Y0209264D01*
X0238578Y0209264D01*
X0238211Y0208897D01*
X0238211Y0208530D01*
X0238578Y0208163D01*
X0239679Y0208163D01*
X0239679Y0207429D02*
X0239312Y0207062D01*
X0238578Y0207062D01*
X0238211Y0207429D01*
X0237469Y0207062D02*
X0236001Y0207062D01*
X0237469Y0208530D01*
X0237469Y0208897D01*
X0237102Y0209264D01*
X0236368Y0209264D01*
X0236001Y0208897D01*
X0235259Y0208897D02*
X0234892Y0209264D01*
X0234159Y0209264D01*
X0233792Y0208897D01*
X0233792Y0207429D01*
X0234159Y0207062D01*
X0234892Y0207062D01*
X0235259Y0207429D01*
X0233050Y0209264D02*
X0231582Y0209264D01*
X0232316Y0209264D02*
X0232316Y0207062D01*
X0230840Y0207062D02*
X0229372Y0207062D01*
X0229372Y0209264D01*
X0234935Y0203752D02*
X0234935Y0201918D01*
X0237145Y0201551D02*
X0237145Y0203752D01*
X0217256Y0203752D02*
X0217256Y0201918D01*
D13*
X0222485Y0236540D02*
X0222235Y0236790D01*
X0222485Y0236540D02*
X0222986Y0236540D01*
X0223236Y0236790D01*
X0223236Y0237040D01*
X0222986Y0237291D01*
X0222485Y0237291D01*
X0222235Y0237541D01*
X0222235Y0237791D01*
X0222485Y0238041D01*
X0222986Y0238041D01*
X0223236Y0237791D01*
X0223708Y0237791D02*
X0223708Y0236790D01*
X0223959Y0236540D01*
X0224459Y0236540D01*
X0224709Y0236790D01*
X0225182Y0236540D02*
X0226183Y0236540D01*
X0225182Y0236540D02*
X0225182Y0238041D01*
X0224709Y0237791D02*
X0224459Y0238041D01*
X0223959Y0238041D01*
X0223708Y0237791D01*
X0229715Y0237791D02*
X0229715Y0237541D01*
X0229966Y0237291D01*
X0230466Y0237291D01*
X0230716Y0237040D01*
X0230716Y0236790D01*
X0230466Y0236540D01*
X0229966Y0236540D01*
X0229715Y0236790D01*
X0229715Y0237791D02*
X0229966Y0238041D01*
X0230466Y0238041D01*
X0230716Y0237791D01*
X0231189Y0238041D02*
X0231939Y0238041D01*
X0232190Y0237791D01*
X0232190Y0236790D01*
X0231939Y0236540D01*
X0231189Y0236540D01*
X0231189Y0238041D01*
X0232662Y0237541D02*
X0233162Y0238041D01*
X0233663Y0237541D01*
X0233663Y0236540D01*
X0233663Y0237291D02*
X0232662Y0237291D01*
X0232662Y0237541D02*
X0232662Y0236540D01*
X0236802Y0236540D02*
X0236802Y0237541D01*
X0237302Y0238041D01*
X0237803Y0237541D01*
X0237803Y0236540D01*
X0238275Y0236540D02*
X0239276Y0236540D01*
X0239749Y0236540D02*
X0240749Y0236540D01*
X0241222Y0236540D02*
X0241222Y0238041D01*
X0241972Y0238041D01*
X0242223Y0237791D01*
X0242223Y0237291D01*
X0241972Y0237040D01*
X0241222Y0237040D01*
X0241722Y0237040D02*
X0242223Y0236540D01*
X0243196Y0236540D02*
X0243196Y0238041D01*
X0243696Y0238041D02*
X0242695Y0238041D01*
X0240749Y0238041D02*
X0239749Y0238041D01*
X0239749Y0236540D01*
X0239749Y0237291D02*
X0240249Y0237291D01*
X0238275Y0238041D02*
X0238275Y0236540D01*
X0237803Y0237291D02*
X0236802Y0237291D01*
X0229374Y0114025D02*
X0228623Y0114025D01*
X0228623Y0112524D01*
X0229374Y0112524D01*
X0229624Y0112774D01*
X0229624Y0113775D01*
X0229374Y0114025D01*
X0228151Y0113775D02*
X0227901Y0114025D01*
X0227400Y0114025D01*
X0227150Y0113775D01*
X0227150Y0112774D01*
X0227400Y0112524D01*
X0227901Y0112524D01*
X0228151Y0112774D01*
X0226678Y0112274D02*
X0225677Y0112274D01*
X0225205Y0112774D02*
X0224954Y0112524D01*
X0224454Y0112524D01*
X0224204Y0112774D01*
X0224204Y0113775D01*
X0224454Y0114025D01*
X0224954Y0114025D01*
X0225205Y0113775D01*
X0210333Y0112988D02*
X0210083Y0113238D01*
X0209332Y0113238D01*
X0209332Y0111737D01*
X0210083Y0111737D01*
X0210333Y0111987D01*
X0210333Y0112988D01*
X0208860Y0113238D02*
X0208860Y0112237D01*
X0208359Y0111737D01*
X0207859Y0112237D01*
X0207859Y0113238D01*
X0207386Y0111487D02*
X0206386Y0111487D01*
X0205913Y0111987D02*
X0205663Y0111737D01*
X0205163Y0111737D01*
X0204912Y0111987D01*
X0204912Y0112988D01*
X0205163Y0113238D01*
X0205663Y0113238D01*
X0205913Y0112988D01*
X0204888Y0076205D02*
X0205138Y0075955D01*
X0205138Y0075454D01*
X0204888Y0075204D01*
X0204137Y0075204D01*
X0204137Y0074704D02*
X0204137Y0076205D01*
X0204888Y0076205D01*
X0204638Y0075204D02*
X0205138Y0074704D01*
X0205611Y0074454D02*
X0206611Y0074454D01*
X0207084Y0075204D02*
X0207584Y0074704D01*
X0208085Y0075204D01*
X0208085Y0076205D01*
X0208557Y0076205D02*
X0209308Y0076205D01*
X0209558Y0075955D01*
X0209558Y0074954D01*
X0209308Y0074704D01*
X0208557Y0074704D01*
X0208557Y0076205D01*
X0207084Y0076205D02*
X0207084Y0075204D01*
X0211212Y0045128D02*
X0211212Y0044127D01*
X0211712Y0043627D01*
X0212212Y0044127D01*
X0212212Y0045128D01*
X0212685Y0043376D02*
X0213686Y0043376D01*
X0214158Y0043877D02*
X0214408Y0043627D01*
X0214909Y0043627D01*
X0215159Y0043877D01*
X0215631Y0043877D02*
X0215881Y0044127D01*
X0216632Y0044127D01*
X0216632Y0044377D02*
X0216632Y0043627D01*
X0215881Y0043627D01*
X0215631Y0043877D01*
X0215881Y0044627D02*
X0216382Y0044627D01*
X0216632Y0044377D01*
X0217105Y0043627D02*
X0217605Y0043627D01*
X0217355Y0043627D02*
X0217355Y0045128D01*
X0217105Y0045128D01*
X0218087Y0044627D02*
X0218337Y0044627D01*
X0218337Y0043627D01*
X0218087Y0043627D02*
X0218587Y0043627D01*
X0219069Y0043627D02*
X0219820Y0043627D01*
X0220070Y0043877D01*
X0220070Y0044377D01*
X0219820Y0044627D01*
X0219069Y0044627D01*
X0219069Y0045128D02*
X0219069Y0043627D01*
X0220542Y0043627D02*
X0220542Y0044627D01*
X0220542Y0044127D02*
X0221043Y0044627D01*
X0221293Y0044627D01*
X0222020Y0044627D02*
X0222520Y0044627D01*
X0222771Y0044377D01*
X0222771Y0043627D01*
X0222020Y0043627D01*
X0221770Y0043877D01*
X0222020Y0044127D01*
X0222771Y0044127D01*
X0223243Y0044627D02*
X0223744Y0044627D01*
X0223493Y0044878D02*
X0223493Y0043877D01*
X0223744Y0043627D01*
X0224225Y0043877D02*
X0224225Y0044377D01*
X0224475Y0044627D01*
X0224976Y0044627D01*
X0225226Y0044377D01*
X0225226Y0044127D01*
X0224225Y0044127D01*
X0224225Y0043877D02*
X0224475Y0043627D01*
X0224976Y0043627D01*
X0218337Y0045128D02*
X0218337Y0045378D01*
X0215159Y0044878D02*
X0214909Y0045128D01*
X0214408Y0045128D01*
X0214158Y0044878D01*
X0214158Y0043877D01*
X0256881Y0044914D02*
X0257381Y0044414D01*
X0257882Y0044914D01*
X0257882Y0045915D01*
X0256881Y0045915D02*
X0256881Y0044914D01*
X0258354Y0044164D02*
X0259355Y0044164D01*
X0259827Y0044414D02*
X0260328Y0044414D01*
X0260078Y0044414D02*
X0260078Y0045415D01*
X0259827Y0045415D01*
X0260078Y0045915D02*
X0260078Y0046165D01*
X0260809Y0045415D02*
X0261560Y0045415D01*
X0261810Y0045165D01*
X0261810Y0044414D01*
X0260809Y0044414D02*
X0260809Y0045415D01*
X0288377Y0069217D02*
X0288377Y0070218D01*
X0288877Y0070718D01*
X0289378Y0070218D01*
X0289378Y0069217D01*
X0289850Y0069217D02*
X0289850Y0070718D01*
X0290601Y0070718D01*
X0290851Y0070468D01*
X0290851Y0069467D01*
X0290601Y0069217D01*
X0289850Y0069217D01*
X0289378Y0069968D02*
X0288377Y0069968D01*
X0289063Y0071723D02*
X0290064Y0071723D01*
X0290536Y0071973D02*
X0290536Y0073474D01*
X0290536Y0072724D02*
X0291537Y0072724D01*
X0292009Y0072974D02*
X0292259Y0072974D01*
X0292259Y0071973D01*
X0292009Y0071973D02*
X0292510Y0071973D01*
X0292991Y0072223D02*
X0293242Y0071973D01*
X0293992Y0071973D01*
X0293992Y0071723D02*
X0293992Y0072974D01*
X0293242Y0072974D01*
X0292991Y0072724D01*
X0292991Y0072223D01*
X0293492Y0071473D02*
X0293742Y0071473D01*
X0293992Y0071723D01*
X0294465Y0071973D02*
X0294465Y0073474D01*
X0294715Y0072974D02*
X0295215Y0072974D01*
X0295466Y0072724D01*
X0295466Y0071973D01*
X0294465Y0072724D02*
X0294715Y0072974D01*
X0294270Y0070718D02*
X0294270Y0069718D01*
X0294770Y0069217D01*
X0295271Y0069718D01*
X0295271Y0070718D01*
X0295993Y0070218D02*
X0295743Y0069968D01*
X0295743Y0069467D01*
X0295993Y0069217D01*
X0296494Y0069217D01*
X0296744Y0069467D01*
X0296744Y0069968D01*
X0296494Y0070218D01*
X0295993Y0070218D01*
X0297216Y0070718D02*
X0297467Y0070718D01*
X0297467Y0069217D01*
X0297717Y0069217D02*
X0297216Y0069217D01*
X0298449Y0069467D02*
X0298699Y0069217D01*
X0298449Y0069467D02*
X0298449Y0070468D01*
X0298199Y0070218D02*
X0298699Y0070218D01*
X0299431Y0070218D02*
X0299931Y0070218D01*
X0300182Y0069968D01*
X0300182Y0069217D01*
X0299431Y0069217D01*
X0299181Y0069467D01*
X0299431Y0069718D01*
X0300182Y0069718D01*
X0300654Y0069968D02*
X0300654Y0069467D01*
X0300904Y0069217D01*
X0301655Y0069217D01*
X0301655Y0068967D02*
X0301655Y0070218D01*
X0300904Y0070218D01*
X0300654Y0069968D01*
X0301154Y0068717D02*
X0301405Y0068717D01*
X0301655Y0068967D01*
X0302127Y0069467D02*
X0302377Y0069217D01*
X0302878Y0069217D01*
X0303128Y0069718D02*
X0302127Y0069718D01*
X0302127Y0069968D02*
X0302377Y0070218D01*
X0302878Y0070218D01*
X0303128Y0069968D01*
X0303128Y0069718D01*
X0303601Y0068967D02*
X0304601Y0068967D01*
X0305074Y0069217D02*
X0305074Y0070718D01*
X0305824Y0070718D01*
X0306075Y0070468D01*
X0306075Y0069467D01*
X0305824Y0069217D01*
X0305074Y0069217D01*
X0306547Y0069467D02*
X0306797Y0069217D01*
X0307298Y0069217D01*
X0307548Y0069718D02*
X0306547Y0069718D01*
X0306547Y0069968D02*
X0306797Y0070218D01*
X0307298Y0070218D01*
X0307548Y0069968D01*
X0307548Y0069718D01*
X0308020Y0070218D02*
X0308521Y0069217D01*
X0309021Y0070218D01*
X0309494Y0070218D02*
X0309744Y0070218D01*
X0309744Y0069217D01*
X0309494Y0069217D02*
X0309994Y0069217D01*
X0310476Y0069467D02*
X0310726Y0069217D01*
X0311477Y0069217D01*
X0311477Y0070718D01*
X0311477Y0070218D02*
X0310726Y0070218D01*
X0310476Y0069968D01*
X0310476Y0069467D01*
X0309744Y0070718D02*
X0309744Y0070969D01*
X0309874Y0071973D02*
X0310125Y0072223D01*
X0310375Y0071973D01*
X0310625Y0072223D01*
X0310625Y0072974D01*
X0309624Y0072974D02*
X0309624Y0072223D01*
X0309874Y0071973D01*
X0309152Y0072223D02*
X0309152Y0072724D01*
X0308902Y0072974D01*
X0308401Y0072974D01*
X0308151Y0072724D01*
X0308151Y0072223D01*
X0308401Y0071973D01*
X0308902Y0071973D01*
X0309152Y0072223D01*
X0307679Y0071973D02*
X0306678Y0071973D01*
X0306678Y0073474D01*
X0306205Y0071723D02*
X0305204Y0071723D01*
X0304732Y0071973D02*
X0304232Y0072473D01*
X0304482Y0072473D02*
X0303731Y0072473D01*
X0303731Y0071973D02*
X0303731Y0073474D01*
X0304482Y0073474D01*
X0304732Y0073224D01*
X0304732Y0072724D01*
X0304482Y0072473D01*
X0306547Y0069968D02*
X0306547Y0069467D01*
X0302127Y0069467D02*
X0302127Y0069968D01*
X0293797Y0068967D02*
X0292797Y0068967D01*
X0292324Y0069467D02*
X0292074Y0069217D01*
X0291574Y0069217D01*
X0291323Y0069467D01*
X0291323Y0070468D01*
X0291574Y0070718D01*
X0292074Y0070718D01*
X0292324Y0070468D01*
X0291537Y0071973D02*
X0291537Y0073474D01*
X0292259Y0073474D02*
X0292259Y0073725D01*
X0288590Y0073224D02*
X0288590Y0072724D01*
X0288340Y0072473D01*
X0287589Y0072473D01*
X0287589Y0071973D02*
X0287589Y0073474D01*
X0288340Y0073474D01*
X0288590Y0073224D01*
X0288090Y0072473D02*
X0288590Y0071973D01*
X0290244Y0090620D02*
X0291245Y0090620D01*
X0291717Y0090871D02*
X0292218Y0090871D01*
X0291967Y0090871D02*
X0291967Y0091872D01*
X0291717Y0091872D01*
X0291967Y0092372D02*
X0291967Y0092622D01*
X0292699Y0091872D02*
X0293450Y0091872D01*
X0293700Y0091621D01*
X0293700Y0090871D01*
X0292699Y0090871D02*
X0292699Y0091872D01*
X0289771Y0092122D02*
X0289771Y0091621D01*
X0289521Y0091371D01*
X0288771Y0091371D01*
X0289271Y0091371D02*
X0289771Y0090871D01*
X0288771Y0090871D02*
X0288771Y0092372D01*
X0289521Y0092372D01*
X0289771Y0092122D01*
X0311949Y0069968D02*
X0312199Y0070218D01*
X0312700Y0070218D01*
X0312950Y0069968D01*
X0312950Y0069718D01*
X0311949Y0069718D01*
X0311949Y0069968D02*
X0311949Y0069467D01*
X0312199Y0069217D01*
X0312700Y0069217D01*
X0313422Y0069217D02*
X0313422Y0070218D01*
X0313422Y0069718D02*
X0313923Y0070218D01*
X0314173Y0070218D01*
X0263775Y0078272D02*
X0262774Y0078272D01*
X0263775Y0079273D01*
X0263775Y0079523D01*
X0263524Y0079774D01*
X0263024Y0079774D01*
X0262774Y0079523D01*
X0262301Y0079523D02*
X0262301Y0079273D01*
X0262051Y0079023D01*
X0261301Y0079023D01*
X0260828Y0079523D02*
X0260578Y0079774D01*
X0260078Y0079774D01*
X0259827Y0079523D01*
X0259827Y0078522D01*
X0260078Y0078272D01*
X0260578Y0078272D01*
X0260828Y0078522D01*
X0261301Y0078272D02*
X0262051Y0078272D01*
X0262301Y0078522D01*
X0262301Y0078773D01*
X0262051Y0079023D01*
X0262301Y0079523D02*
X0262051Y0079774D01*
X0261301Y0079774D01*
X0261301Y0078272D01*
X0259355Y0078022D02*
X0258354Y0078022D01*
X0257882Y0078272D02*
X0257381Y0078773D01*
X0257631Y0078773D02*
X0256881Y0078773D01*
X0256881Y0078272D02*
X0256881Y0079774D01*
X0257631Y0079774D01*
X0257882Y0079523D01*
X0257882Y0079023D01*
X0257631Y0078773D01*
X0258354Y0091408D02*
X0259355Y0091408D01*
X0259827Y0091908D02*
X0259827Y0092909D01*
X0260078Y0093159D01*
X0260578Y0093159D01*
X0260828Y0092909D01*
X0261301Y0093159D02*
X0262051Y0093159D01*
X0262301Y0092909D01*
X0262301Y0092659D01*
X0262051Y0092409D01*
X0261301Y0092409D01*
X0260828Y0091908D02*
X0260578Y0091658D01*
X0260078Y0091658D01*
X0259827Y0091908D01*
X0261301Y0091658D02*
X0262051Y0091658D01*
X0262301Y0091908D01*
X0262301Y0092158D01*
X0262051Y0092409D01*
X0262774Y0092659D02*
X0263274Y0093159D01*
X0263274Y0091658D01*
X0262774Y0091658D02*
X0263775Y0091658D01*
X0261301Y0091658D02*
X0261301Y0093159D01*
X0257882Y0092909D02*
X0257882Y0092409D01*
X0257631Y0092158D01*
X0256881Y0092158D01*
X0256881Y0091658D02*
X0256881Y0093159D01*
X0257631Y0093159D01*
X0257882Y0092909D01*
X0257381Y0092158D02*
X0257882Y0091658D01*
X0258354Y0108337D02*
X0259355Y0108337D01*
X0259827Y0108837D02*
X0260078Y0108587D01*
X0260578Y0108587D01*
X0260828Y0108837D01*
X0261301Y0108587D02*
X0262051Y0108587D01*
X0262301Y0108837D01*
X0262301Y0109088D01*
X0262051Y0109338D01*
X0261301Y0109338D01*
X0260828Y0109838D02*
X0260578Y0110088D01*
X0260078Y0110088D01*
X0259827Y0109838D01*
X0259827Y0108837D01*
X0261301Y0108587D02*
X0261301Y0110088D01*
X0262051Y0110088D01*
X0262301Y0109838D01*
X0262301Y0109588D01*
X0262051Y0109338D01*
X0257882Y0109338D02*
X0257631Y0109088D01*
X0256881Y0109088D01*
X0257381Y0109088D02*
X0257882Y0108587D01*
X0257882Y0109338D02*
X0257882Y0109838D01*
X0257631Y0110088D01*
X0256881Y0110088D01*
X0256881Y0108587D01*
D14*
X0221463Y0127869D02*
X0218313Y0127869D01*
X0218313Y0130231D01*
X0218313Y0136531D02*
X0218313Y0138893D01*
X0221463Y0138893D01*
X0208741Y0222319D02*
X0208741Y0233342D01*
X0197717Y0233342D02*
X0197717Y0222319D01*
X0076857Y0327489D02*
X0076857Y0067489D01*
X0036857Y0067489D01*
X0036857Y0327489D01*
X0076857Y0327489D01*
X0178442Y0365071D02*
X0178442Y0370071D01*
X0180942Y0372571D01*
X0185942Y0372571D01*
X0188442Y0370071D01*
X0190942Y0372571D01*
X0195942Y0372571D01*
X0198442Y0370071D01*
X0200942Y0372571D01*
X0205942Y0372571D01*
X0208442Y0370071D01*
X0210942Y0372571D01*
X0215942Y0372571D01*
X0218442Y0370071D01*
X0220942Y0372571D01*
X0225942Y0372571D01*
X0228442Y0370071D01*
X0230942Y0372571D01*
X0235942Y0372571D01*
X0238442Y0370071D01*
X0240942Y0372571D01*
X0245942Y0372571D01*
X0248442Y0370071D01*
X0250942Y0372571D01*
X0255942Y0372571D01*
X0258442Y0370071D01*
X0258442Y0365071D01*
X0255942Y0362571D01*
X0250942Y0362571D01*
X0248442Y0365071D01*
X0245942Y0362571D01*
X0240942Y0362571D01*
X0238442Y0365071D01*
X0235942Y0362571D01*
X0230942Y0362571D01*
X0228442Y0365071D01*
X0225942Y0362571D01*
X0220942Y0362571D01*
X0218442Y0365071D01*
X0215942Y0362571D01*
X0210942Y0362571D01*
X0208442Y0365071D01*
X0205942Y0362571D01*
X0200942Y0362571D01*
X0198442Y0365071D01*
X0195942Y0362571D01*
X0190942Y0362571D01*
X0188442Y0365071D01*
X0185942Y0362571D01*
X0180942Y0362571D01*
X0178442Y0365071D01*
X0175118Y0031254D02*
X0170118Y0031254D01*
X0167618Y0028754D01*
X0165118Y0031254D01*
X0160118Y0031254D01*
X0157618Y0028754D01*
X0155118Y0031254D01*
X0150118Y0031254D01*
X0147618Y0028754D01*
X0145118Y0031254D01*
X0140118Y0031254D01*
X0137618Y0028754D01*
X0135118Y0031254D01*
X0130118Y0031254D01*
X0127618Y0028754D01*
X0125118Y0031254D01*
X0120118Y0031254D01*
X0117618Y0028754D01*
X0115118Y0031254D01*
X0110118Y0031254D01*
X0107618Y0028754D01*
X0105118Y0031254D01*
X0100118Y0031254D01*
X0097618Y0028754D01*
X0095118Y0031254D01*
X0090118Y0031254D01*
X0087618Y0028754D01*
X0085118Y0031254D01*
X0080118Y0031254D01*
X0077618Y0028754D01*
X0077618Y0023754D01*
X0080118Y0021254D01*
X0085118Y0021254D01*
X0087618Y0023754D01*
X0090118Y0021254D01*
X0095118Y0021254D01*
X0097618Y0023754D01*
X0100118Y0021254D01*
X0105118Y0021254D01*
X0107618Y0023754D01*
X0110118Y0021254D01*
X0115118Y0021254D01*
X0117618Y0023754D01*
X0120118Y0021254D01*
X0125118Y0021254D01*
X0127618Y0023754D01*
X0130118Y0021254D01*
X0135118Y0021254D01*
X0137618Y0023754D01*
X0140118Y0021254D01*
X0145118Y0021254D01*
X0147618Y0023754D01*
X0150118Y0021254D01*
X0155118Y0021254D01*
X0157618Y0023754D01*
X0160118Y0021254D01*
X0165118Y0021254D01*
X0167618Y0023754D01*
X0170118Y0021254D01*
X0175118Y0021254D01*
X0177618Y0023754D01*
X0177618Y0028754D01*
X0175118Y0031254D01*
D15*
X0217132Y0088302D02*
X0217132Y0100901D01*
X0230912Y0100901D01*
X0230912Y0088302D01*
X0217132Y0088302D01*
X0279665Y0331766D02*
X0279665Y0339640D01*
X0287146Y0339640D01*
X0287146Y0347907D01*
X0328878Y0347907D01*
X0328878Y0339640D01*
X0335965Y0339640D01*
X0335965Y0331766D01*
X0279665Y0331766D01*
X0279665Y0339640D02*
X0279665Y0367986D01*
X0335965Y0367986D01*
X0335965Y0339640D01*
D16*
X0255742Y0339356D02*
X0254207Y0340890D01*
X0255742Y0342425D01*
X0251138Y0342425D01*
X0251138Y0343960D02*
X0251138Y0347029D01*
X0251138Y0345494D02*
X0255742Y0345494D01*
X0254974Y0348564D02*
X0251905Y0348564D01*
X0251138Y0349331D01*
X0251138Y0350865D01*
X0251905Y0351633D01*
X0251138Y0353167D02*
X0255742Y0353167D01*
X0254207Y0353167D02*
X0251138Y0356237D01*
X0253440Y0353935D02*
X0255742Y0356237D01*
X0254974Y0351633D02*
X0255742Y0350865D01*
X0255742Y0349331D01*
X0254974Y0348564D01*
X0255742Y0339356D02*
X0251138Y0339356D01*
X0251905Y0337821D02*
X0252672Y0337821D01*
X0253440Y0337054D01*
X0253440Y0334752D01*
X0254207Y0333217D02*
X0254974Y0333217D01*
X0255742Y0332450D01*
X0255742Y0330915D01*
X0254974Y0330148D01*
X0253440Y0330915D02*
X0253440Y0332450D01*
X0254207Y0333217D01*
X0255742Y0334752D02*
X0255742Y0337054D01*
X0254974Y0337821D01*
X0254207Y0337821D01*
X0253440Y0337054D01*
X0251905Y0337821D02*
X0251138Y0337054D01*
X0251138Y0334752D01*
X0255742Y0334752D01*
X0251905Y0333217D02*
X0251138Y0332450D01*
X0251138Y0330915D01*
X0251905Y0330148D01*
X0252672Y0330148D01*
X0253440Y0330915D01*
D17*
X0295433Y0061888D02*
X0311929Y0061888D01*
X0309209Y0055888D02*
X0308154Y0055888D01*
X0313183Y0059859D02*
X0313079Y0060074D01*
X0312970Y0060287D01*
X0312856Y0060497D01*
X0312737Y0060704D01*
X0312614Y0060909D01*
X0312486Y0061111D01*
X0312353Y0061310D01*
X0312216Y0061505D01*
X0312075Y0061698D01*
X0311929Y0061887D01*
X0313181Y0050916D02*
X0313069Y0050686D01*
X0312952Y0050459D01*
X0312830Y0050235D01*
X0312702Y0050014D01*
X0312568Y0049797D01*
X0312430Y0049582D01*
X0312286Y0049371D01*
X0312137Y0049164D01*
X0311983Y0048960D01*
X0311825Y0048760D01*
X0311661Y0048564D01*
X0311493Y0048372D01*
X0311320Y0048184D01*
X0311142Y0048000D01*
X0310961Y0047821D01*
X0310774Y0047646D01*
X0310584Y0047476D01*
X0310390Y0047311D01*
X0310191Y0047150D01*
X0309989Y0046994D01*
X0309783Y0046843D01*
X0309573Y0046697D01*
X0309360Y0046557D01*
X0309144Y0046421D01*
X0308924Y0046291D01*
X0308701Y0046166D01*
X0308476Y0046047D01*
X0308247Y0045933D01*
X0308016Y0045825D01*
X0307782Y0045722D01*
X0307546Y0045625D01*
X0307307Y0045534D01*
X0307067Y0045449D01*
X0306824Y0045369D01*
X0306579Y0045296D01*
X0306333Y0045228D01*
X0306085Y0045167D01*
X0305836Y0045112D01*
X0305586Y0045062D01*
X0305334Y0045019D01*
X0305081Y0044982D01*
X0304828Y0044951D01*
X0304574Y0044926D01*
X0304319Y0044907D01*
X0304064Y0044895D01*
X0303809Y0044889D01*
X0303553Y0044889D01*
X0303298Y0044895D01*
X0303043Y0044907D01*
X0302788Y0044926D01*
X0302534Y0044951D01*
X0302281Y0044982D01*
X0302028Y0045019D01*
X0301776Y0045062D01*
X0301526Y0045112D01*
X0301277Y0045167D01*
X0301029Y0045228D01*
X0300783Y0045296D01*
X0300538Y0045369D01*
X0300295Y0045449D01*
X0300055Y0045534D01*
X0299816Y0045625D01*
X0299580Y0045722D01*
X0299346Y0045825D01*
X0299115Y0045933D01*
X0298886Y0046047D01*
X0298661Y0046166D01*
X0298438Y0046291D01*
X0298218Y0046421D01*
X0298002Y0046557D01*
X0297789Y0046697D01*
X0297579Y0046843D01*
X0297373Y0046994D01*
X0297171Y0047150D01*
X0296972Y0047311D01*
X0296778Y0047476D01*
X0296588Y0047646D01*
X0296401Y0047821D01*
X0296220Y0048000D01*
X0296042Y0048184D01*
X0295869Y0048372D01*
X0295701Y0048564D01*
X0295537Y0048760D01*
X0295379Y0048960D01*
X0295225Y0049164D01*
X0295076Y0049371D01*
X0294932Y0049582D01*
X0294794Y0049797D01*
X0294660Y0050014D01*
X0294532Y0050235D01*
X0294410Y0050459D01*
X0294293Y0050686D01*
X0294181Y0050916D01*
X0298154Y0055888D02*
X0299209Y0055888D01*
X0294135Y0059765D02*
X0294242Y0059990D01*
X0294354Y0060213D01*
X0294471Y0060433D01*
X0294593Y0060650D01*
X0294721Y0060865D01*
X0294854Y0061076D01*
X0294991Y0061284D01*
X0295134Y0061488D01*
X0295281Y0061690D01*
X0295433Y0061887D01*
D18*
X0339311Y0057356D02*
X0339311Y0337452D01*
X0362933Y0337452D01*
X0362933Y0057356D01*
X0339311Y0057356D01*
X0347622Y0164107D02*
X0347624Y0164225D01*
X0347630Y0164343D01*
X0347640Y0164461D01*
X0347654Y0164578D01*
X0347672Y0164695D01*
X0347694Y0164812D01*
X0347719Y0164927D01*
X0347749Y0165041D01*
X0347783Y0165155D01*
X0347820Y0165267D01*
X0347861Y0165378D01*
X0347906Y0165487D01*
X0347954Y0165595D01*
X0348006Y0165701D01*
X0348062Y0165806D01*
X0348121Y0165908D01*
X0348183Y0166008D01*
X0348249Y0166106D01*
X0348318Y0166202D01*
X0348391Y0166296D01*
X0348466Y0166387D01*
X0348545Y0166475D01*
X0348626Y0166561D01*
X0348711Y0166644D01*
X0348798Y0166724D01*
X0348887Y0166801D01*
X0348980Y0166875D01*
X0349074Y0166945D01*
X0349171Y0167013D01*
X0349271Y0167077D01*
X0349372Y0167138D01*
X0349475Y0167195D01*
X0349581Y0167249D01*
X0349688Y0167300D01*
X0349796Y0167346D01*
X0349906Y0167389D01*
X0350018Y0167428D01*
X0350131Y0167464D01*
X0350245Y0167495D01*
X0350360Y0167523D01*
X0350475Y0167547D01*
X0350592Y0167567D01*
X0350709Y0167583D01*
X0350827Y0167595D01*
X0350945Y0167603D01*
X0351063Y0167607D01*
X0351181Y0167607D01*
X0351299Y0167603D01*
X0351417Y0167595D01*
X0351535Y0167583D01*
X0351652Y0167567D01*
X0351769Y0167547D01*
X0351884Y0167523D01*
X0351999Y0167495D01*
X0352113Y0167464D01*
X0352226Y0167428D01*
X0352338Y0167389D01*
X0352448Y0167346D01*
X0352556Y0167300D01*
X0352663Y0167249D01*
X0352769Y0167195D01*
X0352872Y0167138D01*
X0352973Y0167077D01*
X0353073Y0167013D01*
X0353170Y0166945D01*
X0353264Y0166875D01*
X0353357Y0166801D01*
X0353446Y0166724D01*
X0353533Y0166644D01*
X0353618Y0166561D01*
X0353699Y0166475D01*
X0353778Y0166387D01*
X0353853Y0166296D01*
X0353926Y0166202D01*
X0353995Y0166106D01*
X0354061Y0166008D01*
X0354123Y0165908D01*
X0354182Y0165806D01*
X0354238Y0165701D01*
X0354290Y0165595D01*
X0354338Y0165487D01*
X0354383Y0165378D01*
X0354424Y0165267D01*
X0354461Y0165155D01*
X0354495Y0165041D01*
X0354525Y0164927D01*
X0354550Y0164812D01*
X0354572Y0164695D01*
X0354590Y0164578D01*
X0354604Y0164461D01*
X0354614Y0164343D01*
X0354620Y0164225D01*
X0354622Y0164107D01*
X0354620Y0163989D01*
X0354614Y0163871D01*
X0354604Y0163753D01*
X0354590Y0163636D01*
X0354572Y0163519D01*
X0354550Y0163402D01*
X0354525Y0163287D01*
X0354495Y0163173D01*
X0354461Y0163059D01*
X0354424Y0162947D01*
X0354383Y0162836D01*
X0354338Y0162727D01*
X0354290Y0162619D01*
X0354238Y0162513D01*
X0354182Y0162408D01*
X0354123Y0162306D01*
X0354061Y0162206D01*
X0353995Y0162108D01*
X0353926Y0162012D01*
X0353853Y0161918D01*
X0353778Y0161827D01*
X0353699Y0161739D01*
X0353618Y0161653D01*
X0353533Y0161570D01*
X0353446Y0161490D01*
X0353357Y0161413D01*
X0353264Y0161339D01*
X0353170Y0161269D01*
X0353073Y0161201D01*
X0352973Y0161137D01*
X0352872Y0161076D01*
X0352769Y0161019D01*
X0352663Y0160965D01*
X0352556Y0160914D01*
X0352448Y0160868D01*
X0352338Y0160825D01*
X0352226Y0160786D01*
X0352113Y0160750D01*
X0351999Y0160719D01*
X0351884Y0160691D01*
X0351769Y0160667D01*
X0351652Y0160647D01*
X0351535Y0160631D01*
X0351417Y0160619D01*
X0351299Y0160611D01*
X0351181Y0160607D01*
X0351063Y0160607D01*
X0350945Y0160611D01*
X0350827Y0160619D01*
X0350709Y0160631D01*
X0350592Y0160647D01*
X0350475Y0160667D01*
X0350360Y0160691D01*
X0350245Y0160719D01*
X0350131Y0160750D01*
X0350018Y0160786D01*
X0349906Y0160825D01*
X0349796Y0160868D01*
X0349688Y0160914D01*
X0349581Y0160965D01*
X0349475Y0161019D01*
X0349372Y0161076D01*
X0349271Y0161137D01*
X0349171Y0161201D01*
X0349074Y0161269D01*
X0348980Y0161339D01*
X0348887Y0161413D01*
X0348798Y0161490D01*
X0348711Y0161570D01*
X0348626Y0161653D01*
X0348545Y0161739D01*
X0348466Y0161827D01*
X0348391Y0161918D01*
X0348318Y0162012D01*
X0348249Y0162108D01*
X0348183Y0162206D01*
X0348121Y0162306D01*
X0348062Y0162408D01*
X0348006Y0162513D01*
X0347954Y0162619D01*
X0347906Y0162727D01*
X0347861Y0162836D01*
X0347820Y0162947D01*
X0347783Y0163059D01*
X0347749Y0163173D01*
X0347719Y0163287D01*
X0347694Y0163402D01*
X0347672Y0163519D01*
X0347654Y0163636D01*
X0347640Y0163753D01*
X0347630Y0163871D01*
X0347624Y0163989D01*
X0347622Y0164107D01*
X0366280Y0215427D02*
X0366280Y0246923D01*
X0372185Y0246923D01*
X0372185Y0215427D01*
X0366280Y0215427D01*
X0347622Y0297295D02*
X0347624Y0297413D01*
X0347630Y0297531D01*
X0347640Y0297649D01*
X0347654Y0297766D01*
X0347672Y0297883D01*
X0347694Y0298000D01*
X0347719Y0298115D01*
X0347749Y0298229D01*
X0347783Y0298343D01*
X0347820Y0298455D01*
X0347861Y0298566D01*
X0347906Y0298675D01*
X0347954Y0298783D01*
X0348006Y0298889D01*
X0348062Y0298994D01*
X0348121Y0299096D01*
X0348183Y0299196D01*
X0348249Y0299294D01*
X0348318Y0299390D01*
X0348391Y0299484D01*
X0348466Y0299575D01*
X0348545Y0299663D01*
X0348626Y0299749D01*
X0348711Y0299832D01*
X0348798Y0299912D01*
X0348887Y0299989D01*
X0348980Y0300063D01*
X0349074Y0300133D01*
X0349171Y0300201D01*
X0349271Y0300265D01*
X0349372Y0300326D01*
X0349475Y0300383D01*
X0349581Y0300437D01*
X0349688Y0300488D01*
X0349796Y0300534D01*
X0349906Y0300577D01*
X0350018Y0300616D01*
X0350131Y0300652D01*
X0350245Y0300683D01*
X0350360Y0300711D01*
X0350475Y0300735D01*
X0350592Y0300755D01*
X0350709Y0300771D01*
X0350827Y0300783D01*
X0350945Y0300791D01*
X0351063Y0300795D01*
X0351181Y0300795D01*
X0351299Y0300791D01*
X0351417Y0300783D01*
X0351535Y0300771D01*
X0351652Y0300755D01*
X0351769Y0300735D01*
X0351884Y0300711D01*
X0351999Y0300683D01*
X0352113Y0300652D01*
X0352226Y0300616D01*
X0352338Y0300577D01*
X0352448Y0300534D01*
X0352556Y0300488D01*
X0352663Y0300437D01*
X0352769Y0300383D01*
X0352872Y0300326D01*
X0352973Y0300265D01*
X0353073Y0300201D01*
X0353170Y0300133D01*
X0353264Y0300063D01*
X0353357Y0299989D01*
X0353446Y0299912D01*
X0353533Y0299832D01*
X0353618Y0299749D01*
X0353699Y0299663D01*
X0353778Y0299575D01*
X0353853Y0299484D01*
X0353926Y0299390D01*
X0353995Y0299294D01*
X0354061Y0299196D01*
X0354123Y0299096D01*
X0354182Y0298994D01*
X0354238Y0298889D01*
X0354290Y0298783D01*
X0354338Y0298675D01*
X0354383Y0298566D01*
X0354424Y0298455D01*
X0354461Y0298343D01*
X0354495Y0298229D01*
X0354525Y0298115D01*
X0354550Y0298000D01*
X0354572Y0297883D01*
X0354590Y0297766D01*
X0354604Y0297649D01*
X0354614Y0297531D01*
X0354620Y0297413D01*
X0354622Y0297295D01*
X0354620Y0297177D01*
X0354614Y0297059D01*
X0354604Y0296941D01*
X0354590Y0296824D01*
X0354572Y0296707D01*
X0354550Y0296590D01*
X0354525Y0296475D01*
X0354495Y0296361D01*
X0354461Y0296247D01*
X0354424Y0296135D01*
X0354383Y0296024D01*
X0354338Y0295915D01*
X0354290Y0295807D01*
X0354238Y0295701D01*
X0354182Y0295596D01*
X0354123Y0295494D01*
X0354061Y0295394D01*
X0353995Y0295296D01*
X0353926Y0295200D01*
X0353853Y0295106D01*
X0353778Y0295015D01*
X0353699Y0294927D01*
X0353618Y0294841D01*
X0353533Y0294758D01*
X0353446Y0294678D01*
X0353357Y0294601D01*
X0353264Y0294527D01*
X0353170Y0294457D01*
X0353073Y0294389D01*
X0352973Y0294325D01*
X0352872Y0294264D01*
X0352769Y0294207D01*
X0352663Y0294153D01*
X0352556Y0294102D01*
X0352448Y0294056D01*
X0352338Y0294013D01*
X0352226Y0293974D01*
X0352113Y0293938D01*
X0351999Y0293907D01*
X0351884Y0293879D01*
X0351769Y0293855D01*
X0351652Y0293835D01*
X0351535Y0293819D01*
X0351417Y0293807D01*
X0351299Y0293799D01*
X0351181Y0293795D01*
X0351063Y0293795D01*
X0350945Y0293799D01*
X0350827Y0293807D01*
X0350709Y0293819D01*
X0350592Y0293835D01*
X0350475Y0293855D01*
X0350360Y0293879D01*
X0350245Y0293907D01*
X0350131Y0293938D01*
X0350018Y0293974D01*
X0349906Y0294013D01*
X0349796Y0294056D01*
X0349688Y0294102D01*
X0349581Y0294153D01*
X0349475Y0294207D01*
X0349372Y0294264D01*
X0349271Y0294325D01*
X0349171Y0294389D01*
X0349074Y0294457D01*
X0348980Y0294527D01*
X0348887Y0294601D01*
X0348798Y0294678D01*
X0348711Y0294758D01*
X0348626Y0294841D01*
X0348545Y0294927D01*
X0348466Y0295015D01*
X0348391Y0295106D01*
X0348318Y0295200D01*
X0348249Y0295296D01*
X0348183Y0295394D01*
X0348121Y0295494D01*
X0348062Y0295596D01*
X0348006Y0295701D01*
X0347954Y0295807D01*
X0347906Y0295915D01*
X0347861Y0296024D01*
X0347820Y0296135D01*
X0347783Y0296247D01*
X0347749Y0296361D01*
X0347719Y0296475D01*
X0347694Y0296590D01*
X0347672Y0296707D01*
X0347654Y0296824D01*
X0347640Y0296941D01*
X0347630Y0297059D01*
X0347624Y0297177D01*
X0347622Y0297295D01*
X0122185Y0337474D02*
X0098563Y0337474D01*
X0098563Y0057378D01*
X0122185Y0057378D01*
X0122185Y0337474D01*
X0094626Y0246923D02*
X0088721Y0246923D01*
X0088721Y0215427D01*
X0094626Y0215427D01*
X0094626Y0246923D01*
X0106874Y0197426D02*
X0106876Y0197544D01*
X0106882Y0197662D01*
X0106892Y0197780D01*
X0106906Y0197897D01*
X0106924Y0198014D01*
X0106946Y0198131D01*
X0106971Y0198246D01*
X0107001Y0198360D01*
X0107035Y0198474D01*
X0107072Y0198586D01*
X0107113Y0198697D01*
X0107158Y0198806D01*
X0107206Y0198914D01*
X0107258Y0199020D01*
X0107314Y0199125D01*
X0107373Y0199227D01*
X0107435Y0199327D01*
X0107501Y0199425D01*
X0107570Y0199521D01*
X0107643Y0199615D01*
X0107718Y0199706D01*
X0107797Y0199794D01*
X0107878Y0199880D01*
X0107963Y0199963D01*
X0108050Y0200043D01*
X0108139Y0200120D01*
X0108232Y0200194D01*
X0108326Y0200264D01*
X0108423Y0200332D01*
X0108523Y0200396D01*
X0108624Y0200457D01*
X0108727Y0200514D01*
X0108833Y0200568D01*
X0108940Y0200619D01*
X0109048Y0200665D01*
X0109158Y0200708D01*
X0109270Y0200747D01*
X0109383Y0200783D01*
X0109497Y0200814D01*
X0109612Y0200842D01*
X0109727Y0200866D01*
X0109844Y0200886D01*
X0109961Y0200902D01*
X0110079Y0200914D01*
X0110197Y0200922D01*
X0110315Y0200926D01*
X0110433Y0200926D01*
X0110551Y0200922D01*
X0110669Y0200914D01*
X0110787Y0200902D01*
X0110904Y0200886D01*
X0111021Y0200866D01*
X0111136Y0200842D01*
X0111251Y0200814D01*
X0111365Y0200783D01*
X0111478Y0200747D01*
X0111590Y0200708D01*
X0111700Y0200665D01*
X0111808Y0200619D01*
X0111915Y0200568D01*
X0112021Y0200514D01*
X0112124Y0200457D01*
X0112225Y0200396D01*
X0112325Y0200332D01*
X0112422Y0200264D01*
X0112516Y0200194D01*
X0112609Y0200120D01*
X0112698Y0200043D01*
X0112785Y0199963D01*
X0112870Y0199880D01*
X0112951Y0199794D01*
X0113030Y0199706D01*
X0113105Y0199615D01*
X0113178Y0199521D01*
X0113247Y0199425D01*
X0113313Y0199327D01*
X0113375Y0199227D01*
X0113434Y0199125D01*
X0113490Y0199020D01*
X0113542Y0198914D01*
X0113590Y0198806D01*
X0113635Y0198697D01*
X0113676Y0198586D01*
X0113713Y0198474D01*
X0113747Y0198360D01*
X0113777Y0198246D01*
X0113802Y0198131D01*
X0113824Y0198014D01*
X0113842Y0197897D01*
X0113856Y0197780D01*
X0113866Y0197662D01*
X0113872Y0197544D01*
X0113874Y0197426D01*
X0113872Y0197308D01*
X0113866Y0197190D01*
X0113856Y0197072D01*
X0113842Y0196955D01*
X0113824Y0196838D01*
X0113802Y0196721D01*
X0113777Y0196606D01*
X0113747Y0196492D01*
X0113713Y0196378D01*
X0113676Y0196266D01*
X0113635Y0196155D01*
X0113590Y0196046D01*
X0113542Y0195938D01*
X0113490Y0195832D01*
X0113434Y0195727D01*
X0113375Y0195625D01*
X0113313Y0195525D01*
X0113247Y0195427D01*
X0113178Y0195331D01*
X0113105Y0195237D01*
X0113030Y0195146D01*
X0112951Y0195058D01*
X0112870Y0194972D01*
X0112785Y0194889D01*
X0112698Y0194809D01*
X0112609Y0194732D01*
X0112516Y0194658D01*
X0112422Y0194588D01*
X0112325Y0194520D01*
X0112225Y0194456D01*
X0112124Y0194395D01*
X0112021Y0194338D01*
X0111915Y0194284D01*
X0111808Y0194233D01*
X0111700Y0194187D01*
X0111590Y0194144D01*
X0111478Y0194105D01*
X0111365Y0194069D01*
X0111251Y0194038D01*
X0111136Y0194010D01*
X0111021Y0193986D01*
X0110904Y0193966D01*
X0110787Y0193950D01*
X0110669Y0193938D01*
X0110551Y0193930D01*
X0110433Y0193926D01*
X0110315Y0193926D01*
X0110197Y0193930D01*
X0110079Y0193938D01*
X0109961Y0193950D01*
X0109844Y0193966D01*
X0109727Y0193986D01*
X0109612Y0194010D01*
X0109497Y0194038D01*
X0109383Y0194069D01*
X0109270Y0194105D01*
X0109158Y0194144D01*
X0109048Y0194187D01*
X0108940Y0194233D01*
X0108833Y0194284D01*
X0108727Y0194338D01*
X0108624Y0194395D01*
X0108523Y0194456D01*
X0108423Y0194520D01*
X0108326Y0194588D01*
X0108232Y0194658D01*
X0108139Y0194732D01*
X0108050Y0194809D01*
X0107963Y0194889D01*
X0107878Y0194972D01*
X0107797Y0195058D01*
X0107718Y0195146D01*
X0107643Y0195237D01*
X0107570Y0195331D01*
X0107501Y0195427D01*
X0107435Y0195525D01*
X0107373Y0195625D01*
X0107314Y0195727D01*
X0107258Y0195832D01*
X0107206Y0195938D01*
X0107158Y0196046D01*
X0107113Y0196155D01*
X0107072Y0196266D01*
X0107035Y0196378D01*
X0107001Y0196492D01*
X0106971Y0196606D01*
X0106946Y0196721D01*
X0106924Y0196838D01*
X0106906Y0196955D01*
X0106892Y0197072D01*
X0106882Y0197190D01*
X0106876Y0197308D01*
X0106874Y0197426D01*
X0094626Y0113065D02*
X0088721Y0113065D01*
X0088721Y0081569D01*
X0094626Y0081569D01*
X0094626Y0113065D01*
M02*
