G75*
%MOIN*%
%OFA0B0*%
%FSLAX25Y25*%
%IPPOS*%
%LPD*%
%AMOC8*
5,1,8,0,0,1.08239X$1,22.5*
%
%ADD10R,0.03150X0.04724*%
%ADD11R,0.05787X0.05000*%
%ADD12R,0.11811X0.06299*%
%ADD13R,0.22500X0.19000*%
%ADD14R,0.04724X0.03150*%
%ADD15R,0.07087X0.06299*%
%ADD16R,0.03445X0.00984*%
%ADD17R,0.13000X0.05000*%
%ADD18R,0.04724X0.05512*%
%ADD19R,0.13000X0.06000*%
%ADD20R,0.05512X0.04724*%
%ADD21R,0.04134X0.02362*%
%ADD22R,0.06102X0.02362*%
%ADD23R,0.04331X0.03937*%
%ADD24R,0.06299X0.07087*%
%ADD25R,0.10236X0.03150*%
%ADD26R,0.09134X0.15000*%
%ADD27R,0.62795X0.49409*%
%ADD28R,0.03543X0.55512*%
%ADD29R,0.02208X0.08583*%
%ADD30R,0.07087X0.10630*%
%ADD31R,0.04724X0.02362*%
%ADD32R,0.06299X0.05512*%
D10*
X0102279Y0038233D03*
X0109365Y0038233D03*
X0107680Y0060252D03*
X0100594Y0060252D03*
X0100890Y0069203D03*
X0107976Y0069203D03*
X0114090Y0069203D03*
X0121176Y0069203D03*
X0096541Y0103149D03*
X0089454Y0103149D03*
X0078954Y0114345D03*
X0071868Y0114345D03*
X0072243Y0126103D03*
X0065156Y0126103D03*
X0078194Y0134734D03*
X0085280Y0134734D03*
X0089476Y0134646D03*
X0096562Y0134646D03*
X0096269Y0142152D03*
X0089182Y0142152D03*
X0133690Y0117732D03*
X0140776Y0117732D03*
X0191957Y0079543D03*
X0199044Y0079543D03*
X0182902Y0049795D03*
X0175816Y0049795D03*
X0175422Y0025606D03*
X0182509Y0025606D03*
X0195107Y0025606D03*
X0202194Y0025606D03*
X0214792Y0025606D03*
X0221879Y0025606D03*
X0269049Y0065484D03*
X0276135Y0065484D03*
X0294931Y0072060D03*
X0302017Y0072060D03*
X0302117Y0079960D03*
X0295031Y0079960D03*
X0284871Y0036630D03*
X0277784Y0036630D03*
X0340776Y0036630D03*
X0347863Y0036630D03*
X0225816Y0127181D03*
X0218729Y0127181D03*
X0218729Y0137417D03*
X0225816Y0137417D03*
X0285658Y0288598D03*
X0292745Y0288598D03*
X0202194Y0343717D03*
X0195107Y0343717D03*
X0182509Y0343717D03*
X0175422Y0343717D03*
D11*
X0107668Y0343957D03*
X0091920Y0343957D03*
X0076172Y0343957D03*
X0060424Y0343957D03*
X0044676Y0343957D03*
X0044676Y0327028D03*
X0045054Y0318439D03*
X0060625Y0318490D03*
X0060424Y0327028D03*
X0076172Y0327028D03*
X0076225Y0318490D03*
X0091920Y0318367D03*
X0091920Y0327028D03*
X0107668Y0327028D03*
X0107668Y0318367D03*
X0107668Y0301438D03*
X0091920Y0301438D03*
X0076225Y0301561D03*
X0060625Y0301561D03*
X0045054Y0301510D03*
X0231343Y0232030D03*
X0246915Y0232080D03*
X0262515Y0232080D03*
X0262515Y0215151D03*
X0246915Y0215151D03*
X0231343Y0215101D03*
D12*
X0152331Y0175202D03*
X0152331Y0157249D03*
X0358180Y0092499D03*
X0358180Y0074546D03*
D13*
X0331022Y0083523D03*
X0125173Y0166225D03*
D14*
X0054099Y0074060D03*
X0054099Y0081146D03*
X0072666Y0100016D03*
X0072666Y0107102D03*
X0107989Y0140882D03*
X0107989Y0147969D03*
X0115639Y0147969D03*
X0115639Y0140882D03*
X0126603Y0124031D03*
X0126603Y0116945D03*
X0147863Y0116945D03*
X0147863Y0124031D03*
X0148294Y0140682D03*
X0148294Y0147769D03*
X0210461Y0134661D03*
X0210461Y0127575D03*
X0216367Y0114431D03*
X0222272Y0114189D03*
X0216367Y0107345D03*
X0222272Y0107102D03*
X0243532Y0066551D03*
X0243532Y0059465D03*
X0267854Y0056243D03*
X0267854Y0049157D03*
X0275034Y0049196D03*
X0275034Y0056283D03*
X0293674Y0057117D03*
X0293674Y0064203D03*
X0324074Y0066466D03*
X0324074Y0059380D03*
X0334874Y0059380D03*
X0334874Y0066466D03*
X0358474Y0065066D03*
X0358474Y0057980D03*
X0354950Y0035843D03*
X0354950Y0028756D03*
X0333690Y0029543D03*
X0333690Y0036630D03*
X0180556Y0061433D03*
X0180556Y0068520D03*
X0152587Y0064583D03*
X0152587Y0057496D03*
X0126209Y0057496D03*
X0126209Y0064583D03*
X0289202Y0316551D03*
X0289202Y0323638D03*
X0297724Y0321754D03*
X0305598Y0321984D03*
X0305598Y0314898D03*
X0297724Y0314668D03*
D15*
X0169125Y0195337D03*
X0160325Y0195337D03*
X0151725Y0195337D03*
X0151725Y0184313D03*
X0160325Y0184313D03*
X0169125Y0184313D03*
X0355474Y0113035D03*
X0364074Y0113035D03*
X0372474Y0113035D03*
X0372474Y0102011D03*
X0364074Y0102011D03*
X0355474Y0102011D03*
D16*
X0301654Y0051164D03*
X0301654Y0049195D03*
X0301654Y0047227D03*
X0301654Y0045258D03*
X0301654Y0043290D03*
X0285414Y0043290D03*
X0285414Y0045258D03*
X0285414Y0047227D03*
X0285414Y0049195D03*
X0285414Y0051164D03*
X0095805Y0119655D03*
X0095805Y0121624D03*
X0095805Y0123592D03*
X0095805Y0125561D03*
X0095805Y0127529D03*
X0079565Y0127529D03*
X0079565Y0125561D03*
X0079565Y0123592D03*
X0079565Y0121624D03*
X0079565Y0119655D03*
D17*
X0049120Y0224209D03*
X0049120Y0236009D03*
X0049120Y0247809D03*
X0049120Y0259609D03*
X0049120Y0271409D03*
X0049120Y0283209D03*
X0155120Y0283209D03*
X0155120Y0271409D03*
X0155120Y0259609D03*
X0155120Y0247809D03*
X0155120Y0236009D03*
X0155120Y0224209D03*
D18*
X0116743Y0103224D03*
X0104931Y0103224D03*
D19*
X0264069Y0146006D03*
X0264069Y0156006D03*
X0264069Y0166006D03*
X0264069Y0176006D03*
X0264069Y0186006D03*
X0264069Y0196006D03*
X0351869Y0196006D03*
X0351869Y0186006D03*
X0351869Y0176006D03*
X0351869Y0166006D03*
X0351869Y0156006D03*
X0351869Y0146006D03*
D20*
X0255797Y0073382D03*
X0255797Y0061571D03*
D21*
X0209200Y0111268D03*
X0209200Y0115008D03*
X0209200Y0118748D03*
X0198570Y0118748D03*
X0198570Y0115008D03*
X0198570Y0111268D03*
D22*
X0295976Y0294610D03*
X0295976Y0299610D03*
X0295976Y0304610D03*
X0295976Y0309610D03*
X0314874Y0309610D03*
X0314874Y0304610D03*
X0314874Y0299610D03*
X0314874Y0294610D03*
D23*
X0107509Y0044759D03*
X0100816Y0044759D03*
D24*
X0101173Y0052633D03*
X0112197Y0052633D03*
D25*
X0079986Y0165934D03*
X0061088Y0165934D03*
X0061088Y0195934D03*
X0079986Y0195934D03*
X0267151Y0113134D03*
X0286049Y0113134D03*
X0286049Y0083134D03*
X0267151Y0083134D03*
D26*
X0330917Y0296154D03*
X0373830Y0296154D03*
D27*
X0352373Y0344067D03*
D28*
X0361287Y0245943D03*
X0300263Y0245943D03*
D29*
X0224024Y0069561D03*
X0219024Y0069561D03*
X0214024Y0069561D03*
X0209024Y0069561D03*
X0204024Y0069561D03*
X0199024Y0069561D03*
X0194024Y0069561D03*
X0189024Y0069561D03*
X0189024Y0050943D03*
X0194024Y0050943D03*
X0199024Y0050943D03*
X0204024Y0050943D03*
X0209024Y0050943D03*
X0214024Y0050943D03*
X0219024Y0050943D03*
X0224024Y0050943D03*
D30*
X0195501Y0355528D03*
X0178178Y0355528D03*
X0128572Y0355528D03*
X0111249Y0355528D03*
D31*
X0135461Y0064780D03*
X0135461Y0061039D03*
X0135461Y0057299D03*
X0146091Y0057299D03*
X0146091Y0064780D03*
D32*
X0162036Y0062614D03*
X0162036Y0051591D03*
M02*
