G75*
%MOIN*%
%OFA0B0*%
%FSLAX25Y25*%
%IPPOS*%
%LPD*%
%AMOC8*
5,1,8,0,0,1.08239X$1,22.5*
%
%ADD10C,0.00000*%
D10*
X0013611Y0013008D02*
X0052981Y0013008D01*
X0052981Y0009071D01*
X0364005Y0009071D01*
X0364005Y0013008D01*
X0403375Y0013008D01*
X0403375Y0052378D01*
X0407312Y0052378D01*
X0407312Y0363402D01*
X0403375Y0363402D01*
X0403375Y0402772D01*
X0364005Y0402772D01*
X0364005Y0406709D01*
X0052981Y0406709D01*
X0052981Y0402772D01*
X0013611Y0402772D01*
X0013611Y0363402D01*
X0009674Y0363402D01*
X0009674Y0052378D01*
X0013611Y0052378D01*
X0013611Y0013008D01*
X0017351Y0020882D02*
X0017353Y0021010D01*
X0017359Y0021138D01*
X0017369Y0021265D01*
X0017383Y0021393D01*
X0017400Y0021519D01*
X0017422Y0021645D01*
X0017448Y0021771D01*
X0017477Y0021895D01*
X0017510Y0022019D01*
X0017547Y0022141D01*
X0017588Y0022262D01*
X0017633Y0022382D01*
X0017681Y0022501D01*
X0017733Y0022618D01*
X0017789Y0022733D01*
X0017848Y0022847D01*
X0017910Y0022958D01*
X0017976Y0023068D01*
X0018045Y0023175D01*
X0018118Y0023281D01*
X0018194Y0023384D01*
X0018273Y0023484D01*
X0018355Y0023583D01*
X0018440Y0023678D01*
X0018528Y0023771D01*
X0018619Y0023861D01*
X0018712Y0023948D01*
X0018809Y0024033D01*
X0018907Y0024114D01*
X0019009Y0024192D01*
X0019112Y0024267D01*
X0019218Y0024339D01*
X0019326Y0024408D01*
X0019436Y0024473D01*
X0019549Y0024534D01*
X0019663Y0024593D01*
X0019778Y0024647D01*
X0019896Y0024698D01*
X0020014Y0024746D01*
X0020135Y0024789D01*
X0020256Y0024829D01*
X0020379Y0024865D01*
X0020503Y0024898D01*
X0020628Y0024926D01*
X0020753Y0024951D01*
X0020879Y0024971D01*
X0021006Y0024988D01*
X0021134Y0025001D01*
X0021261Y0025010D01*
X0021389Y0025015D01*
X0021517Y0025016D01*
X0021645Y0025013D01*
X0021773Y0025006D01*
X0021900Y0024995D01*
X0022027Y0024980D01*
X0022154Y0024962D01*
X0022280Y0024939D01*
X0022405Y0024912D01*
X0022529Y0024882D01*
X0022652Y0024848D01*
X0022775Y0024810D01*
X0022896Y0024768D01*
X0023015Y0024722D01*
X0023133Y0024673D01*
X0023250Y0024620D01*
X0023365Y0024564D01*
X0023478Y0024504D01*
X0023589Y0024441D01*
X0023698Y0024374D01*
X0023805Y0024304D01*
X0023910Y0024230D01*
X0024012Y0024154D01*
X0024112Y0024074D01*
X0024210Y0023991D01*
X0024305Y0023905D01*
X0024397Y0023816D01*
X0024486Y0023725D01*
X0024573Y0023631D01*
X0024656Y0023534D01*
X0024737Y0023434D01*
X0024814Y0023333D01*
X0024889Y0023228D01*
X0024960Y0023122D01*
X0025027Y0023013D01*
X0025092Y0022903D01*
X0025152Y0022790D01*
X0025210Y0022676D01*
X0025263Y0022560D01*
X0025313Y0022442D01*
X0025360Y0022323D01*
X0025403Y0022202D01*
X0025442Y0022080D01*
X0025477Y0021957D01*
X0025508Y0021833D01*
X0025536Y0021708D01*
X0025559Y0021582D01*
X0025579Y0021456D01*
X0025595Y0021329D01*
X0025607Y0021202D01*
X0025615Y0021074D01*
X0025619Y0020946D01*
X0025619Y0020818D01*
X0025615Y0020690D01*
X0025607Y0020562D01*
X0025595Y0020435D01*
X0025579Y0020308D01*
X0025559Y0020182D01*
X0025536Y0020056D01*
X0025508Y0019931D01*
X0025477Y0019807D01*
X0025442Y0019684D01*
X0025403Y0019562D01*
X0025360Y0019441D01*
X0025313Y0019322D01*
X0025263Y0019204D01*
X0025210Y0019088D01*
X0025152Y0018974D01*
X0025092Y0018861D01*
X0025027Y0018751D01*
X0024960Y0018642D01*
X0024889Y0018536D01*
X0024814Y0018431D01*
X0024737Y0018330D01*
X0024656Y0018230D01*
X0024573Y0018133D01*
X0024486Y0018039D01*
X0024397Y0017948D01*
X0024305Y0017859D01*
X0024210Y0017773D01*
X0024112Y0017690D01*
X0024012Y0017610D01*
X0023910Y0017534D01*
X0023805Y0017460D01*
X0023698Y0017390D01*
X0023589Y0017323D01*
X0023478Y0017260D01*
X0023365Y0017200D01*
X0023250Y0017144D01*
X0023133Y0017091D01*
X0023015Y0017042D01*
X0022896Y0016996D01*
X0022775Y0016954D01*
X0022652Y0016916D01*
X0022529Y0016882D01*
X0022405Y0016852D01*
X0022280Y0016825D01*
X0022154Y0016802D01*
X0022027Y0016784D01*
X0021900Y0016769D01*
X0021773Y0016758D01*
X0021645Y0016751D01*
X0021517Y0016748D01*
X0021389Y0016749D01*
X0021261Y0016754D01*
X0021134Y0016763D01*
X0021006Y0016776D01*
X0020879Y0016793D01*
X0020753Y0016813D01*
X0020628Y0016838D01*
X0020503Y0016866D01*
X0020379Y0016899D01*
X0020256Y0016935D01*
X0020135Y0016975D01*
X0020014Y0017018D01*
X0019896Y0017066D01*
X0019778Y0017117D01*
X0019663Y0017171D01*
X0019549Y0017230D01*
X0019436Y0017291D01*
X0019326Y0017356D01*
X0019218Y0017425D01*
X0019112Y0017497D01*
X0019009Y0017572D01*
X0018907Y0017650D01*
X0018809Y0017731D01*
X0018712Y0017816D01*
X0018619Y0017903D01*
X0018528Y0017993D01*
X0018440Y0018086D01*
X0018355Y0018181D01*
X0018273Y0018280D01*
X0018194Y0018380D01*
X0018118Y0018483D01*
X0018045Y0018589D01*
X0017976Y0018696D01*
X0017910Y0018806D01*
X0017848Y0018917D01*
X0017789Y0019031D01*
X0017733Y0019146D01*
X0017681Y0019263D01*
X0017633Y0019382D01*
X0017588Y0019502D01*
X0017547Y0019623D01*
X0017510Y0019745D01*
X0017477Y0019869D01*
X0017448Y0019993D01*
X0017422Y0020119D01*
X0017400Y0020245D01*
X0017383Y0020371D01*
X0017369Y0020499D01*
X0017359Y0020626D01*
X0017353Y0020754D01*
X0017351Y0020882D01*
X0022469Y0109465D02*
X0022471Y0109616D01*
X0022477Y0109766D01*
X0022487Y0109917D01*
X0022501Y0110067D01*
X0022519Y0110216D01*
X0022540Y0110366D01*
X0022566Y0110514D01*
X0022596Y0110662D01*
X0022629Y0110809D01*
X0022667Y0110955D01*
X0022708Y0111100D01*
X0022753Y0111244D01*
X0022802Y0111386D01*
X0022855Y0111527D01*
X0022911Y0111667D01*
X0022971Y0111805D01*
X0023034Y0111942D01*
X0023102Y0112077D01*
X0023172Y0112210D01*
X0023246Y0112341D01*
X0023324Y0112470D01*
X0023405Y0112597D01*
X0023489Y0112722D01*
X0023577Y0112845D01*
X0023668Y0112965D01*
X0023762Y0113083D01*
X0023859Y0113198D01*
X0023959Y0113311D01*
X0024062Y0113421D01*
X0024168Y0113528D01*
X0024277Y0113633D01*
X0024388Y0113734D01*
X0024502Y0113833D01*
X0024618Y0113928D01*
X0024738Y0114021D01*
X0024859Y0114110D01*
X0024983Y0114196D01*
X0025109Y0114279D01*
X0025237Y0114358D01*
X0025367Y0114434D01*
X0025499Y0114507D01*
X0025633Y0114575D01*
X0025769Y0114641D01*
X0025907Y0114703D01*
X0026046Y0114761D01*
X0026186Y0114815D01*
X0026328Y0114866D01*
X0026471Y0114913D01*
X0026616Y0114956D01*
X0026761Y0114995D01*
X0026908Y0115031D01*
X0027055Y0115062D01*
X0027203Y0115090D01*
X0027352Y0115114D01*
X0027501Y0115134D01*
X0027651Y0115150D01*
X0027801Y0115162D01*
X0027952Y0115170D01*
X0028103Y0115174D01*
X0028253Y0115174D01*
X0028404Y0115170D01*
X0028555Y0115162D01*
X0028705Y0115150D01*
X0028855Y0115134D01*
X0029004Y0115114D01*
X0029153Y0115090D01*
X0029301Y0115062D01*
X0029448Y0115031D01*
X0029595Y0114995D01*
X0029740Y0114956D01*
X0029885Y0114913D01*
X0030028Y0114866D01*
X0030170Y0114815D01*
X0030310Y0114761D01*
X0030449Y0114703D01*
X0030587Y0114641D01*
X0030723Y0114575D01*
X0030857Y0114507D01*
X0030989Y0114434D01*
X0031119Y0114358D01*
X0031247Y0114279D01*
X0031373Y0114196D01*
X0031497Y0114110D01*
X0031618Y0114021D01*
X0031738Y0113928D01*
X0031854Y0113833D01*
X0031968Y0113734D01*
X0032079Y0113633D01*
X0032188Y0113528D01*
X0032294Y0113421D01*
X0032397Y0113311D01*
X0032497Y0113198D01*
X0032594Y0113083D01*
X0032688Y0112965D01*
X0032779Y0112845D01*
X0032867Y0112722D01*
X0032951Y0112597D01*
X0033032Y0112470D01*
X0033110Y0112341D01*
X0033184Y0112210D01*
X0033254Y0112077D01*
X0033322Y0111942D01*
X0033385Y0111805D01*
X0033445Y0111667D01*
X0033501Y0111527D01*
X0033554Y0111386D01*
X0033603Y0111244D01*
X0033648Y0111100D01*
X0033689Y0110955D01*
X0033727Y0110809D01*
X0033760Y0110662D01*
X0033790Y0110514D01*
X0033816Y0110366D01*
X0033837Y0110216D01*
X0033855Y0110067D01*
X0033869Y0109917D01*
X0033879Y0109766D01*
X0033885Y0109616D01*
X0033887Y0109465D01*
X0033885Y0109314D01*
X0033879Y0109164D01*
X0033869Y0109013D01*
X0033855Y0108863D01*
X0033837Y0108714D01*
X0033816Y0108564D01*
X0033790Y0108416D01*
X0033760Y0108268D01*
X0033727Y0108121D01*
X0033689Y0107975D01*
X0033648Y0107830D01*
X0033603Y0107686D01*
X0033554Y0107544D01*
X0033501Y0107403D01*
X0033445Y0107263D01*
X0033385Y0107125D01*
X0033322Y0106988D01*
X0033254Y0106853D01*
X0033184Y0106720D01*
X0033110Y0106589D01*
X0033032Y0106460D01*
X0032951Y0106333D01*
X0032867Y0106208D01*
X0032779Y0106085D01*
X0032688Y0105965D01*
X0032594Y0105847D01*
X0032497Y0105732D01*
X0032397Y0105619D01*
X0032294Y0105509D01*
X0032188Y0105402D01*
X0032079Y0105297D01*
X0031968Y0105196D01*
X0031854Y0105097D01*
X0031738Y0105002D01*
X0031618Y0104909D01*
X0031497Y0104820D01*
X0031373Y0104734D01*
X0031247Y0104651D01*
X0031119Y0104572D01*
X0030989Y0104496D01*
X0030857Y0104423D01*
X0030723Y0104355D01*
X0030587Y0104289D01*
X0030449Y0104227D01*
X0030310Y0104169D01*
X0030170Y0104115D01*
X0030028Y0104064D01*
X0029885Y0104017D01*
X0029740Y0103974D01*
X0029595Y0103935D01*
X0029448Y0103899D01*
X0029301Y0103868D01*
X0029153Y0103840D01*
X0029004Y0103816D01*
X0028855Y0103796D01*
X0028705Y0103780D01*
X0028555Y0103768D01*
X0028404Y0103760D01*
X0028253Y0103756D01*
X0028103Y0103756D01*
X0027952Y0103760D01*
X0027801Y0103768D01*
X0027651Y0103780D01*
X0027501Y0103796D01*
X0027352Y0103816D01*
X0027203Y0103840D01*
X0027055Y0103868D01*
X0026908Y0103899D01*
X0026761Y0103935D01*
X0026616Y0103974D01*
X0026471Y0104017D01*
X0026328Y0104064D01*
X0026186Y0104115D01*
X0026046Y0104169D01*
X0025907Y0104227D01*
X0025769Y0104289D01*
X0025633Y0104355D01*
X0025499Y0104423D01*
X0025367Y0104496D01*
X0025237Y0104572D01*
X0025109Y0104651D01*
X0024983Y0104734D01*
X0024859Y0104820D01*
X0024738Y0104909D01*
X0024618Y0105002D01*
X0024502Y0105097D01*
X0024388Y0105196D01*
X0024277Y0105297D01*
X0024168Y0105402D01*
X0024062Y0105509D01*
X0023959Y0105619D01*
X0023859Y0105732D01*
X0023762Y0105847D01*
X0023668Y0105965D01*
X0023577Y0106085D01*
X0023489Y0106208D01*
X0023405Y0106333D01*
X0023324Y0106460D01*
X0023246Y0106589D01*
X0023172Y0106720D01*
X0023102Y0106853D01*
X0023034Y0106988D01*
X0022971Y0107125D01*
X0022911Y0107263D01*
X0022855Y0107403D01*
X0022802Y0107544D01*
X0022753Y0107686D01*
X0022708Y0107830D01*
X0022667Y0107975D01*
X0022629Y0108121D01*
X0022596Y0108268D01*
X0022566Y0108416D01*
X0022540Y0108564D01*
X0022519Y0108714D01*
X0022501Y0108863D01*
X0022487Y0109013D01*
X0022477Y0109164D01*
X0022471Y0109314D01*
X0022469Y0109465D01*
X0020973Y0207890D02*
X0020975Y0208023D01*
X0020981Y0208156D01*
X0020991Y0208289D01*
X0021005Y0208421D01*
X0021023Y0208553D01*
X0021044Y0208684D01*
X0021070Y0208815D01*
X0021100Y0208945D01*
X0021133Y0209074D01*
X0021171Y0209201D01*
X0021212Y0209328D01*
X0021257Y0209453D01*
X0021305Y0209577D01*
X0021358Y0209700D01*
X0021414Y0209820D01*
X0021473Y0209939D01*
X0021536Y0210057D01*
X0021603Y0210172D01*
X0021673Y0210285D01*
X0021746Y0210396D01*
X0021823Y0210505D01*
X0021903Y0210612D01*
X0021986Y0210716D01*
X0022072Y0210817D01*
X0022161Y0210916D01*
X0022253Y0211012D01*
X0022347Y0211106D01*
X0022445Y0211196D01*
X0022545Y0211284D01*
X0022648Y0211368D01*
X0022753Y0211450D01*
X0022861Y0211528D01*
X0022971Y0211603D01*
X0023083Y0211675D01*
X0023198Y0211743D01*
X0023314Y0211808D01*
X0023432Y0211869D01*
X0023552Y0211927D01*
X0023673Y0211981D01*
X0023797Y0212031D01*
X0023921Y0212078D01*
X0024047Y0212121D01*
X0024174Y0212160D01*
X0024303Y0212196D01*
X0024432Y0212227D01*
X0024562Y0212255D01*
X0024693Y0212279D01*
X0024825Y0212299D01*
X0024957Y0212315D01*
X0025090Y0212327D01*
X0025222Y0212335D01*
X0025355Y0212339D01*
X0025489Y0212339D01*
X0025622Y0212335D01*
X0025754Y0212327D01*
X0025887Y0212315D01*
X0026019Y0212299D01*
X0026151Y0212279D01*
X0026282Y0212255D01*
X0026412Y0212227D01*
X0026541Y0212196D01*
X0026670Y0212160D01*
X0026797Y0212121D01*
X0026923Y0212078D01*
X0027047Y0212031D01*
X0027171Y0211981D01*
X0027292Y0211927D01*
X0027412Y0211869D01*
X0027530Y0211808D01*
X0027647Y0211743D01*
X0027761Y0211675D01*
X0027873Y0211603D01*
X0027983Y0211528D01*
X0028091Y0211450D01*
X0028196Y0211368D01*
X0028299Y0211284D01*
X0028399Y0211196D01*
X0028497Y0211106D01*
X0028591Y0211012D01*
X0028683Y0210916D01*
X0028772Y0210817D01*
X0028858Y0210716D01*
X0028941Y0210612D01*
X0029021Y0210505D01*
X0029098Y0210396D01*
X0029171Y0210285D01*
X0029241Y0210172D01*
X0029308Y0210057D01*
X0029371Y0209939D01*
X0029430Y0209820D01*
X0029486Y0209700D01*
X0029539Y0209577D01*
X0029587Y0209453D01*
X0029632Y0209328D01*
X0029673Y0209201D01*
X0029711Y0209074D01*
X0029744Y0208945D01*
X0029774Y0208815D01*
X0029800Y0208684D01*
X0029821Y0208553D01*
X0029839Y0208421D01*
X0029853Y0208289D01*
X0029863Y0208156D01*
X0029869Y0208023D01*
X0029871Y0207890D01*
X0029869Y0207757D01*
X0029863Y0207624D01*
X0029853Y0207491D01*
X0029839Y0207359D01*
X0029821Y0207227D01*
X0029800Y0207096D01*
X0029774Y0206965D01*
X0029744Y0206835D01*
X0029711Y0206706D01*
X0029673Y0206579D01*
X0029632Y0206452D01*
X0029587Y0206327D01*
X0029539Y0206203D01*
X0029486Y0206080D01*
X0029430Y0205960D01*
X0029371Y0205841D01*
X0029308Y0205723D01*
X0029241Y0205608D01*
X0029171Y0205495D01*
X0029098Y0205384D01*
X0029021Y0205275D01*
X0028941Y0205168D01*
X0028858Y0205064D01*
X0028772Y0204963D01*
X0028683Y0204864D01*
X0028591Y0204768D01*
X0028497Y0204674D01*
X0028399Y0204584D01*
X0028299Y0204496D01*
X0028196Y0204412D01*
X0028091Y0204330D01*
X0027983Y0204252D01*
X0027873Y0204177D01*
X0027761Y0204105D01*
X0027646Y0204037D01*
X0027530Y0203972D01*
X0027412Y0203911D01*
X0027292Y0203853D01*
X0027171Y0203799D01*
X0027047Y0203749D01*
X0026923Y0203702D01*
X0026797Y0203659D01*
X0026670Y0203620D01*
X0026541Y0203584D01*
X0026412Y0203553D01*
X0026282Y0203525D01*
X0026151Y0203501D01*
X0026019Y0203481D01*
X0025887Y0203465D01*
X0025754Y0203453D01*
X0025622Y0203445D01*
X0025489Y0203441D01*
X0025355Y0203441D01*
X0025222Y0203445D01*
X0025090Y0203453D01*
X0024957Y0203465D01*
X0024825Y0203481D01*
X0024693Y0203501D01*
X0024562Y0203525D01*
X0024432Y0203553D01*
X0024303Y0203584D01*
X0024174Y0203620D01*
X0024047Y0203659D01*
X0023921Y0203702D01*
X0023797Y0203749D01*
X0023673Y0203799D01*
X0023552Y0203853D01*
X0023432Y0203911D01*
X0023314Y0203972D01*
X0023197Y0204037D01*
X0023083Y0204105D01*
X0022971Y0204177D01*
X0022861Y0204252D01*
X0022753Y0204330D01*
X0022648Y0204412D01*
X0022545Y0204496D01*
X0022445Y0204584D01*
X0022347Y0204674D01*
X0022253Y0204768D01*
X0022161Y0204864D01*
X0022072Y0204963D01*
X0021986Y0205064D01*
X0021903Y0205168D01*
X0021823Y0205275D01*
X0021746Y0205384D01*
X0021673Y0205495D01*
X0021603Y0205608D01*
X0021536Y0205723D01*
X0021473Y0205841D01*
X0021414Y0205960D01*
X0021358Y0206080D01*
X0021305Y0206203D01*
X0021257Y0206327D01*
X0021212Y0206452D01*
X0021171Y0206579D01*
X0021133Y0206706D01*
X0021100Y0206835D01*
X0021070Y0206965D01*
X0021044Y0207096D01*
X0021023Y0207227D01*
X0021005Y0207359D01*
X0020991Y0207491D01*
X0020981Y0207624D01*
X0020975Y0207757D01*
X0020973Y0207890D01*
X0022469Y0305134D02*
X0022471Y0305285D01*
X0022477Y0305435D01*
X0022487Y0305586D01*
X0022501Y0305736D01*
X0022519Y0305885D01*
X0022540Y0306035D01*
X0022566Y0306183D01*
X0022596Y0306331D01*
X0022629Y0306478D01*
X0022667Y0306624D01*
X0022708Y0306769D01*
X0022753Y0306913D01*
X0022802Y0307055D01*
X0022855Y0307196D01*
X0022911Y0307336D01*
X0022971Y0307474D01*
X0023034Y0307611D01*
X0023102Y0307746D01*
X0023172Y0307879D01*
X0023246Y0308010D01*
X0023324Y0308139D01*
X0023405Y0308266D01*
X0023489Y0308391D01*
X0023577Y0308514D01*
X0023668Y0308634D01*
X0023762Y0308752D01*
X0023859Y0308867D01*
X0023959Y0308980D01*
X0024062Y0309090D01*
X0024168Y0309197D01*
X0024277Y0309302D01*
X0024388Y0309403D01*
X0024502Y0309502D01*
X0024618Y0309597D01*
X0024738Y0309690D01*
X0024859Y0309779D01*
X0024983Y0309865D01*
X0025109Y0309948D01*
X0025237Y0310027D01*
X0025367Y0310103D01*
X0025499Y0310176D01*
X0025633Y0310244D01*
X0025769Y0310310D01*
X0025907Y0310372D01*
X0026046Y0310430D01*
X0026186Y0310484D01*
X0026328Y0310535D01*
X0026471Y0310582D01*
X0026616Y0310625D01*
X0026761Y0310664D01*
X0026908Y0310700D01*
X0027055Y0310731D01*
X0027203Y0310759D01*
X0027352Y0310783D01*
X0027501Y0310803D01*
X0027651Y0310819D01*
X0027801Y0310831D01*
X0027952Y0310839D01*
X0028103Y0310843D01*
X0028253Y0310843D01*
X0028404Y0310839D01*
X0028555Y0310831D01*
X0028705Y0310819D01*
X0028855Y0310803D01*
X0029004Y0310783D01*
X0029153Y0310759D01*
X0029301Y0310731D01*
X0029448Y0310700D01*
X0029595Y0310664D01*
X0029740Y0310625D01*
X0029885Y0310582D01*
X0030028Y0310535D01*
X0030170Y0310484D01*
X0030310Y0310430D01*
X0030449Y0310372D01*
X0030587Y0310310D01*
X0030723Y0310244D01*
X0030857Y0310176D01*
X0030989Y0310103D01*
X0031119Y0310027D01*
X0031247Y0309948D01*
X0031373Y0309865D01*
X0031497Y0309779D01*
X0031618Y0309690D01*
X0031738Y0309597D01*
X0031854Y0309502D01*
X0031968Y0309403D01*
X0032079Y0309302D01*
X0032188Y0309197D01*
X0032294Y0309090D01*
X0032397Y0308980D01*
X0032497Y0308867D01*
X0032594Y0308752D01*
X0032688Y0308634D01*
X0032779Y0308514D01*
X0032867Y0308391D01*
X0032951Y0308266D01*
X0033032Y0308139D01*
X0033110Y0308010D01*
X0033184Y0307879D01*
X0033254Y0307746D01*
X0033322Y0307611D01*
X0033385Y0307474D01*
X0033445Y0307336D01*
X0033501Y0307196D01*
X0033554Y0307055D01*
X0033603Y0306913D01*
X0033648Y0306769D01*
X0033689Y0306624D01*
X0033727Y0306478D01*
X0033760Y0306331D01*
X0033790Y0306183D01*
X0033816Y0306035D01*
X0033837Y0305885D01*
X0033855Y0305736D01*
X0033869Y0305586D01*
X0033879Y0305435D01*
X0033885Y0305285D01*
X0033887Y0305134D01*
X0033885Y0304983D01*
X0033879Y0304833D01*
X0033869Y0304682D01*
X0033855Y0304532D01*
X0033837Y0304383D01*
X0033816Y0304233D01*
X0033790Y0304085D01*
X0033760Y0303937D01*
X0033727Y0303790D01*
X0033689Y0303644D01*
X0033648Y0303499D01*
X0033603Y0303355D01*
X0033554Y0303213D01*
X0033501Y0303072D01*
X0033445Y0302932D01*
X0033385Y0302794D01*
X0033322Y0302657D01*
X0033254Y0302522D01*
X0033184Y0302389D01*
X0033110Y0302258D01*
X0033032Y0302129D01*
X0032951Y0302002D01*
X0032867Y0301877D01*
X0032779Y0301754D01*
X0032688Y0301634D01*
X0032594Y0301516D01*
X0032497Y0301401D01*
X0032397Y0301288D01*
X0032294Y0301178D01*
X0032188Y0301071D01*
X0032079Y0300966D01*
X0031968Y0300865D01*
X0031854Y0300766D01*
X0031738Y0300671D01*
X0031618Y0300578D01*
X0031497Y0300489D01*
X0031373Y0300403D01*
X0031247Y0300320D01*
X0031119Y0300241D01*
X0030989Y0300165D01*
X0030857Y0300092D01*
X0030723Y0300024D01*
X0030587Y0299958D01*
X0030449Y0299896D01*
X0030310Y0299838D01*
X0030170Y0299784D01*
X0030028Y0299733D01*
X0029885Y0299686D01*
X0029740Y0299643D01*
X0029595Y0299604D01*
X0029448Y0299568D01*
X0029301Y0299537D01*
X0029153Y0299509D01*
X0029004Y0299485D01*
X0028855Y0299465D01*
X0028705Y0299449D01*
X0028555Y0299437D01*
X0028404Y0299429D01*
X0028253Y0299425D01*
X0028103Y0299425D01*
X0027952Y0299429D01*
X0027801Y0299437D01*
X0027651Y0299449D01*
X0027501Y0299465D01*
X0027352Y0299485D01*
X0027203Y0299509D01*
X0027055Y0299537D01*
X0026908Y0299568D01*
X0026761Y0299604D01*
X0026616Y0299643D01*
X0026471Y0299686D01*
X0026328Y0299733D01*
X0026186Y0299784D01*
X0026046Y0299838D01*
X0025907Y0299896D01*
X0025769Y0299958D01*
X0025633Y0300024D01*
X0025499Y0300092D01*
X0025367Y0300165D01*
X0025237Y0300241D01*
X0025109Y0300320D01*
X0024983Y0300403D01*
X0024859Y0300489D01*
X0024738Y0300578D01*
X0024618Y0300671D01*
X0024502Y0300766D01*
X0024388Y0300865D01*
X0024277Y0300966D01*
X0024168Y0301071D01*
X0024062Y0301178D01*
X0023959Y0301288D01*
X0023859Y0301401D01*
X0023762Y0301516D01*
X0023668Y0301634D01*
X0023577Y0301754D01*
X0023489Y0301877D01*
X0023405Y0302002D01*
X0023324Y0302129D01*
X0023246Y0302258D01*
X0023172Y0302389D01*
X0023102Y0302522D01*
X0023034Y0302657D01*
X0022971Y0302794D01*
X0022911Y0302932D01*
X0022855Y0303072D01*
X0022802Y0303213D01*
X0022753Y0303355D01*
X0022708Y0303499D01*
X0022667Y0303644D01*
X0022629Y0303790D01*
X0022596Y0303937D01*
X0022566Y0304085D01*
X0022540Y0304233D01*
X0022519Y0304383D01*
X0022501Y0304532D01*
X0022487Y0304682D01*
X0022477Y0304833D01*
X0022471Y0304983D01*
X0022469Y0305134D01*
X0105540Y0388205D02*
X0105542Y0388356D01*
X0105548Y0388506D01*
X0105558Y0388657D01*
X0105572Y0388807D01*
X0105590Y0388956D01*
X0105611Y0389106D01*
X0105637Y0389254D01*
X0105667Y0389402D01*
X0105700Y0389549D01*
X0105738Y0389695D01*
X0105779Y0389840D01*
X0105824Y0389984D01*
X0105873Y0390126D01*
X0105926Y0390267D01*
X0105982Y0390407D01*
X0106042Y0390545D01*
X0106105Y0390682D01*
X0106173Y0390817D01*
X0106243Y0390950D01*
X0106317Y0391081D01*
X0106395Y0391210D01*
X0106476Y0391337D01*
X0106560Y0391462D01*
X0106648Y0391585D01*
X0106739Y0391705D01*
X0106833Y0391823D01*
X0106930Y0391938D01*
X0107030Y0392051D01*
X0107133Y0392161D01*
X0107239Y0392268D01*
X0107348Y0392373D01*
X0107459Y0392474D01*
X0107573Y0392573D01*
X0107689Y0392668D01*
X0107809Y0392761D01*
X0107930Y0392850D01*
X0108054Y0392936D01*
X0108180Y0393019D01*
X0108308Y0393098D01*
X0108438Y0393174D01*
X0108570Y0393247D01*
X0108704Y0393315D01*
X0108840Y0393381D01*
X0108978Y0393443D01*
X0109117Y0393501D01*
X0109257Y0393555D01*
X0109399Y0393606D01*
X0109542Y0393653D01*
X0109687Y0393696D01*
X0109832Y0393735D01*
X0109979Y0393771D01*
X0110126Y0393802D01*
X0110274Y0393830D01*
X0110423Y0393854D01*
X0110572Y0393874D01*
X0110722Y0393890D01*
X0110872Y0393902D01*
X0111023Y0393910D01*
X0111174Y0393914D01*
X0111324Y0393914D01*
X0111475Y0393910D01*
X0111626Y0393902D01*
X0111776Y0393890D01*
X0111926Y0393874D01*
X0112075Y0393854D01*
X0112224Y0393830D01*
X0112372Y0393802D01*
X0112519Y0393771D01*
X0112666Y0393735D01*
X0112811Y0393696D01*
X0112956Y0393653D01*
X0113099Y0393606D01*
X0113241Y0393555D01*
X0113381Y0393501D01*
X0113520Y0393443D01*
X0113658Y0393381D01*
X0113794Y0393315D01*
X0113928Y0393247D01*
X0114060Y0393174D01*
X0114190Y0393098D01*
X0114318Y0393019D01*
X0114444Y0392936D01*
X0114568Y0392850D01*
X0114689Y0392761D01*
X0114809Y0392668D01*
X0114925Y0392573D01*
X0115039Y0392474D01*
X0115150Y0392373D01*
X0115259Y0392268D01*
X0115365Y0392161D01*
X0115468Y0392051D01*
X0115568Y0391938D01*
X0115665Y0391823D01*
X0115759Y0391705D01*
X0115850Y0391585D01*
X0115938Y0391462D01*
X0116022Y0391337D01*
X0116103Y0391210D01*
X0116181Y0391081D01*
X0116255Y0390950D01*
X0116325Y0390817D01*
X0116393Y0390682D01*
X0116456Y0390545D01*
X0116516Y0390407D01*
X0116572Y0390267D01*
X0116625Y0390126D01*
X0116674Y0389984D01*
X0116719Y0389840D01*
X0116760Y0389695D01*
X0116798Y0389549D01*
X0116831Y0389402D01*
X0116861Y0389254D01*
X0116887Y0389106D01*
X0116908Y0388956D01*
X0116926Y0388807D01*
X0116940Y0388657D01*
X0116950Y0388506D01*
X0116956Y0388356D01*
X0116958Y0388205D01*
X0116956Y0388054D01*
X0116950Y0387904D01*
X0116940Y0387753D01*
X0116926Y0387603D01*
X0116908Y0387454D01*
X0116887Y0387304D01*
X0116861Y0387156D01*
X0116831Y0387008D01*
X0116798Y0386861D01*
X0116760Y0386715D01*
X0116719Y0386570D01*
X0116674Y0386426D01*
X0116625Y0386284D01*
X0116572Y0386143D01*
X0116516Y0386003D01*
X0116456Y0385865D01*
X0116393Y0385728D01*
X0116325Y0385593D01*
X0116255Y0385460D01*
X0116181Y0385329D01*
X0116103Y0385200D01*
X0116022Y0385073D01*
X0115938Y0384948D01*
X0115850Y0384825D01*
X0115759Y0384705D01*
X0115665Y0384587D01*
X0115568Y0384472D01*
X0115468Y0384359D01*
X0115365Y0384249D01*
X0115259Y0384142D01*
X0115150Y0384037D01*
X0115039Y0383936D01*
X0114925Y0383837D01*
X0114809Y0383742D01*
X0114689Y0383649D01*
X0114568Y0383560D01*
X0114444Y0383474D01*
X0114318Y0383391D01*
X0114190Y0383312D01*
X0114060Y0383236D01*
X0113928Y0383163D01*
X0113794Y0383095D01*
X0113658Y0383029D01*
X0113520Y0382967D01*
X0113381Y0382909D01*
X0113241Y0382855D01*
X0113099Y0382804D01*
X0112956Y0382757D01*
X0112811Y0382714D01*
X0112666Y0382675D01*
X0112519Y0382639D01*
X0112372Y0382608D01*
X0112224Y0382580D01*
X0112075Y0382556D01*
X0111926Y0382536D01*
X0111776Y0382520D01*
X0111626Y0382508D01*
X0111475Y0382500D01*
X0111324Y0382496D01*
X0111174Y0382496D01*
X0111023Y0382500D01*
X0110872Y0382508D01*
X0110722Y0382520D01*
X0110572Y0382536D01*
X0110423Y0382556D01*
X0110274Y0382580D01*
X0110126Y0382608D01*
X0109979Y0382639D01*
X0109832Y0382675D01*
X0109687Y0382714D01*
X0109542Y0382757D01*
X0109399Y0382804D01*
X0109257Y0382855D01*
X0109117Y0382909D01*
X0108978Y0382967D01*
X0108840Y0383029D01*
X0108704Y0383095D01*
X0108570Y0383163D01*
X0108438Y0383236D01*
X0108308Y0383312D01*
X0108180Y0383391D01*
X0108054Y0383474D01*
X0107930Y0383560D01*
X0107809Y0383649D01*
X0107689Y0383742D01*
X0107573Y0383837D01*
X0107459Y0383936D01*
X0107348Y0384037D01*
X0107239Y0384142D01*
X0107133Y0384249D01*
X0107030Y0384359D01*
X0106930Y0384472D01*
X0106833Y0384587D01*
X0106739Y0384705D01*
X0106648Y0384825D01*
X0106560Y0384948D01*
X0106476Y0385073D01*
X0106395Y0385200D01*
X0106317Y0385329D01*
X0106243Y0385460D01*
X0106173Y0385593D01*
X0106105Y0385728D01*
X0106042Y0385865D01*
X0105982Y0386003D01*
X0105926Y0386143D01*
X0105873Y0386284D01*
X0105824Y0386426D01*
X0105779Y0386570D01*
X0105738Y0386715D01*
X0105700Y0386861D01*
X0105667Y0387008D01*
X0105637Y0387156D01*
X0105611Y0387304D01*
X0105590Y0387454D01*
X0105572Y0387603D01*
X0105558Y0387753D01*
X0105548Y0387904D01*
X0105542Y0388054D01*
X0105540Y0388205D01*
X0017351Y0394898D02*
X0017353Y0395026D01*
X0017359Y0395154D01*
X0017369Y0395281D01*
X0017383Y0395409D01*
X0017400Y0395535D01*
X0017422Y0395661D01*
X0017448Y0395787D01*
X0017477Y0395911D01*
X0017510Y0396035D01*
X0017547Y0396157D01*
X0017588Y0396278D01*
X0017633Y0396398D01*
X0017681Y0396517D01*
X0017733Y0396634D01*
X0017789Y0396749D01*
X0017848Y0396863D01*
X0017910Y0396974D01*
X0017976Y0397084D01*
X0018045Y0397191D01*
X0018118Y0397297D01*
X0018194Y0397400D01*
X0018273Y0397500D01*
X0018355Y0397599D01*
X0018440Y0397694D01*
X0018528Y0397787D01*
X0018619Y0397877D01*
X0018712Y0397964D01*
X0018809Y0398049D01*
X0018907Y0398130D01*
X0019009Y0398208D01*
X0019112Y0398283D01*
X0019218Y0398355D01*
X0019326Y0398424D01*
X0019436Y0398489D01*
X0019549Y0398550D01*
X0019663Y0398609D01*
X0019778Y0398663D01*
X0019896Y0398714D01*
X0020014Y0398762D01*
X0020135Y0398805D01*
X0020256Y0398845D01*
X0020379Y0398881D01*
X0020503Y0398914D01*
X0020628Y0398942D01*
X0020753Y0398967D01*
X0020879Y0398987D01*
X0021006Y0399004D01*
X0021134Y0399017D01*
X0021261Y0399026D01*
X0021389Y0399031D01*
X0021517Y0399032D01*
X0021645Y0399029D01*
X0021773Y0399022D01*
X0021900Y0399011D01*
X0022027Y0398996D01*
X0022154Y0398978D01*
X0022280Y0398955D01*
X0022405Y0398928D01*
X0022529Y0398898D01*
X0022652Y0398864D01*
X0022775Y0398826D01*
X0022896Y0398784D01*
X0023015Y0398738D01*
X0023133Y0398689D01*
X0023250Y0398636D01*
X0023365Y0398580D01*
X0023478Y0398520D01*
X0023589Y0398457D01*
X0023698Y0398390D01*
X0023805Y0398320D01*
X0023910Y0398246D01*
X0024012Y0398170D01*
X0024112Y0398090D01*
X0024210Y0398007D01*
X0024305Y0397921D01*
X0024397Y0397832D01*
X0024486Y0397741D01*
X0024573Y0397647D01*
X0024656Y0397550D01*
X0024737Y0397450D01*
X0024814Y0397349D01*
X0024889Y0397244D01*
X0024960Y0397138D01*
X0025027Y0397029D01*
X0025092Y0396919D01*
X0025152Y0396806D01*
X0025210Y0396692D01*
X0025263Y0396576D01*
X0025313Y0396458D01*
X0025360Y0396339D01*
X0025403Y0396218D01*
X0025442Y0396096D01*
X0025477Y0395973D01*
X0025508Y0395849D01*
X0025536Y0395724D01*
X0025559Y0395598D01*
X0025579Y0395472D01*
X0025595Y0395345D01*
X0025607Y0395218D01*
X0025615Y0395090D01*
X0025619Y0394962D01*
X0025619Y0394834D01*
X0025615Y0394706D01*
X0025607Y0394578D01*
X0025595Y0394451D01*
X0025579Y0394324D01*
X0025559Y0394198D01*
X0025536Y0394072D01*
X0025508Y0393947D01*
X0025477Y0393823D01*
X0025442Y0393700D01*
X0025403Y0393578D01*
X0025360Y0393457D01*
X0025313Y0393338D01*
X0025263Y0393220D01*
X0025210Y0393104D01*
X0025152Y0392990D01*
X0025092Y0392877D01*
X0025027Y0392767D01*
X0024960Y0392658D01*
X0024889Y0392552D01*
X0024814Y0392447D01*
X0024737Y0392346D01*
X0024656Y0392246D01*
X0024573Y0392149D01*
X0024486Y0392055D01*
X0024397Y0391964D01*
X0024305Y0391875D01*
X0024210Y0391789D01*
X0024112Y0391706D01*
X0024012Y0391626D01*
X0023910Y0391550D01*
X0023805Y0391476D01*
X0023698Y0391406D01*
X0023589Y0391339D01*
X0023478Y0391276D01*
X0023365Y0391216D01*
X0023250Y0391160D01*
X0023133Y0391107D01*
X0023015Y0391058D01*
X0022896Y0391012D01*
X0022775Y0390970D01*
X0022652Y0390932D01*
X0022529Y0390898D01*
X0022405Y0390868D01*
X0022280Y0390841D01*
X0022154Y0390818D01*
X0022027Y0390800D01*
X0021900Y0390785D01*
X0021773Y0390774D01*
X0021645Y0390767D01*
X0021517Y0390764D01*
X0021389Y0390765D01*
X0021261Y0390770D01*
X0021134Y0390779D01*
X0021006Y0390792D01*
X0020879Y0390809D01*
X0020753Y0390829D01*
X0020628Y0390854D01*
X0020503Y0390882D01*
X0020379Y0390915D01*
X0020256Y0390951D01*
X0020135Y0390991D01*
X0020014Y0391034D01*
X0019896Y0391082D01*
X0019778Y0391133D01*
X0019663Y0391187D01*
X0019549Y0391246D01*
X0019436Y0391307D01*
X0019326Y0391372D01*
X0019218Y0391441D01*
X0019112Y0391513D01*
X0019009Y0391588D01*
X0018907Y0391666D01*
X0018809Y0391747D01*
X0018712Y0391832D01*
X0018619Y0391919D01*
X0018528Y0392009D01*
X0018440Y0392102D01*
X0018355Y0392197D01*
X0018273Y0392296D01*
X0018194Y0392396D01*
X0018118Y0392499D01*
X0018045Y0392605D01*
X0017976Y0392712D01*
X0017910Y0392822D01*
X0017848Y0392933D01*
X0017789Y0393047D01*
X0017733Y0393162D01*
X0017681Y0393279D01*
X0017633Y0393398D01*
X0017588Y0393518D01*
X0017547Y0393639D01*
X0017510Y0393761D01*
X0017477Y0393885D01*
X0017448Y0394009D01*
X0017422Y0394135D01*
X0017400Y0394261D01*
X0017383Y0394387D01*
X0017369Y0394515D01*
X0017359Y0394642D01*
X0017353Y0394770D01*
X0017351Y0394898D01*
X0300028Y0388205D02*
X0300030Y0388356D01*
X0300036Y0388506D01*
X0300046Y0388657D01*
X0300060Y0388807D01*
X0300078Y0388956D01*
X0300099Y0389106D01*
X0300125Y0389254D01*
X0300155Y0389402D01*
X0300188Y0389549D01*
X0300226Y0389695D01*
X0300267Y0389840D01*
X0300312Y0389984D01*
X0300361Y0390126D01*
X0300414Y0390267D01*
X0300470Y0390407D01*
X0300530Y0390545D01*
X0300593Y0390682D01*
X0300661Y0390817D01*
X0300731Y0390950D01*
X0300805Y0391081D01*
X0300883Y0391210D01*
X0300964Y0391337D01*
X0301048Y0391462D01*
X0301136Y0391585D01*
X0301227Y0391705D01*
X0301321Y0391823D01*
X0301418Y0391938D01*
X0301518Y0392051D01*
X0301621Y0392161D01*
X0301727Y0392268D01*
X0301836Y0392373D01*
X0301947Y0392474D01*
X0302061Y0392573D01*
X0302177Y0392668D01*
X0302297Y0392761D01*
X0302418Y0392850D01*
X0302542Y0392936D01*
X0302668Y0393019D01*
X0302796Y0393098D01*
X0302926Y0393174D01*
X0303058Y0393247D01*
X0303192Y0393315D01*
X0303328Y0393381D01*
X0303466Y0393443D01*
X0303605Y0393501D01*
X0303745Y0393555D01*
X0303887Y0393606D01*
X0304030Y0393653D01*
X0304175Y0393696D01*
X0304320Y0393735D01*
X0304467Y0393771D01*
X0304614Y0393802D01*
X0304762Y0393830D01*
X0304911Y0393854D01*
X0305060Y0393874D01*
X0305210Y0393890D01*
X0305360Y0393902D01*
X0305511Y0393910D01*
X0305662Y0393914D01*
X0305812Y0393914D01*
X0305963Y0393910D01*
X0306114Y0393902D01*
X0306264Y0393890D01*
X0306414Y0393874D01*
X0306563Y0393854D01*
X0306712Y0393830D01*
X0306860Y0393802D01*
X0307007Y0393771D01*
X0307154Y0393735D01*
X0307299Y0393696D01*
X0307444Y0393653D01*
X0307587Y0393606D01*
X0307729Y0393555D01*
X0307869Y0393501D01*
X0308008Y0393443D01*
X0308146Y0393381D01*
X0308282Y0393315D01*
X0308416Y0393247D01*
X0308548Y0393174D01*
X0308678Y0393098D01*
X0308806Y0393019D01*
X0308932Y0392936D01*
X0309056Y0392850D01*
X0309177Y0392761D01*
X0309297Y0392668D01*
X0309413Y0392573D01*
X0309527Y0392474D01*
X0309638Y0392373D01*
X0309747Y0392268D01*
X0309853Y0392161D01*
X0309956Y0392051D01*
X0310056Y0391938D01*
X0310153Y0391823D01*
X0310247Y0391705D01*
X0310338Y0391585D01*
X0310426Y0391462D01*
X0310510Y0391337D01*
X0310591Y0391210D01*
X0310669Y0391081D01*
X0310743Y0390950D01*
X0310813Y0390817D01*
X0310881Y0390682D01*
X0310944Y0390545D01*
X0311004Y0390407D01*
X0311060Y0390267D01*
X0311113Y0390126D01*
X0311162Y0389984D01*
X0311207Y0389840D01*
X0311248Y0389695D01*
X0311286Y0389549D01*
X0311319Y0389402D01*
X0311349Y0389254D01*
X0311375Y0389106D01*
X0311396Y0388956D01*
X0311414Y0388807D01*
X0311428Y0388657D01*
X0311438Y0388506D01*
X0311444Y0388356D01*
X0311446Y0388205D01*
X0311444Y0388054D01*
X0311438Y0387904D01*
X0311428Y0387753D01*
X0311414Y0387603D01*
X0311396Y0387454D01*
X0311375Y0387304D01*
X0311349Y0387156D01*
X0311319Y0387008D01*
X0311286Y0386861D01*
X0311248Y0386715D01*
X0311207Y0386570D01*
X0311162Y0386426D01*
X0311113Y0386284D01*
X0311060Y0386143D01*
X0311004Y0386003D01*
X0310944Y0385865D01*
X0310881Y0385728D01*
X0310813Y0385593D01*
X0310743Y0385460D01*
X0310669Y0385329D01*
X0310591Y0385200D01*
X0310510Y0385073D01*
X0310426Y0384948D01*
X0310338Y0384825D01*
X0310247Y0384705D01*
X0310153Y0384587D01*
X0310056Y0384472D01*
X0309956Y0384359D01*
X0309853Y0384249D01*
X0309747Y0384142D01*
X0309638Y0384037D01*
X0309527Y0383936D01*
X0309413Y0383837D01*
X0309297Y0383742D01*
X0309177Y0383649D01*
X0309056Y0383560D01*
X0308932Y0383474D01*
X0308806Y0383391D01*
X0308678Y0383312D01*
X0308548Y0383236D01*
X0308416Y0383163D01*
X0308282Y0383095D01*
X0308146Y0383029D01*
X0308008Y0382967D01*
X0307869Y0382909D01*
X0307729Y0382855D01*
X0307587Y0382804D01*
X0307444Y0382757D01*
X0307299Y0382714D01*
X0307154Y0382675D01*
X0307007Y0382639D01*
X0306860Y0382608D01*
X0306712Y0382580D01*
X0306563Y0382556D01*
X0306414Y0382536D01*
X0306264Y0382520D01*
X0306114Y0382508D01*
X0305963Y0382500D01*
X0305812Y0382496D01*
X0305662Y0382496D01*
X0305511Y0382500D01*
X0305360Y0382508D01*
X0305210Y0382520D01*
X0305060Y0382536D01*
X0304911Y0382556D01*
X0304762Y0382580D01*
X0304614Y0382608D01*
X0304467Y0382639D01*
X0304320Y0382675D01*
X0304175Y0382714D01*
X0304030Y0382757D01*
X0303887Y0382804D01*
X0303745Y0382855D01*
X0303605Y0382909D01*
X0303466Y0382967D01*
X0303328Y0383029D01*
X0303192Y0383095D01*
X0303058Y0383163D01*
X0302926Y0383236D01*
X0302796Y0383312D01*
X0302668Y0383391D01*
X0302542Y0383474D01*
X0302418Y0383560D01*
X0302297Y0383649D01*
X0302177Y0383742D01*
X0302061Y0383837D01*
X0301947Y0383936D01*
X0301836Y0384037D01*
X0301727Y0384142D01*
X0301621Y0384249D01*
X0301518Y0384359D01*
X0301418Y0384472D01*
X0301321Y0384587D01*
X0301227Y0384705D01*
X0301136Y0384825D01*
X0301048Y0384948D01*
X0300964Y0385073D01*
X0300883Y0385200D01*
X0300805Y0385329D01*
X0300731Y0385460D01*
X0300661Y0385593D01*
X0300593Y0385728D01*
X0300530Y0385865D01*
X0300470Y0386003D01*
X0300414Y0386143D01*
X0300361Y0386284D01*
X0300312Y0386426D01*
X0300267Y0386570D01*
X0300226Y0386715D01*
X0300188Y0386861D01*
X0300155Y0387008D01*
X0300125Y0387156D01*
X0300099Y0387304D01*
X0300078Y0387454D01*
X0300060Y0387603D01*
X0300046Y0387753D01*
X0300036Y0387904D01*
X0300030Y0388054D01*
X0300028Y0388205D01*
X0383099Y0305134D02*
X0383101Y0305285D01*
X0383107Y0305435D01*
X0383117Y0305586D01*
X0383131Y0305736D01*
X0383149Y0305885D01*
X0383170Y0306035D01*
X0383196Y0306183D01*
X0383226Y0306331D01*
X0383259Y0306478D01*
X0383297Y0306624D01*
X0383338Y0306769D01*
X0383383Y0306913D01*
X0383432Y0307055D01*
X0383485Y0307196D01*
X0383541Y0307336D01*
X0383601Y0307474D01*
X0383664Y0307611D01*
X0383732Y0307746D01*
X0383802Y0307879D01*
X0383876Y0308010D01*
X0383954Y0308139D01*
X0384035Y0308266D01*
X0384119Y0308391D01*
X0384207Y0308514D01*
X0384298Y0308634D01*
X0384392Y0308752D01*
X0384489Y0308867D01*
X0384589Y0308980D01*
X0384692Y0309090D01*
X0384798Y0309197D01*
X0384907Y0309302D01*
X0385018Y0309403D01*
X0385132Y0309502D01*
X0385248Y0309597D01*
X0385368Y0309690D01*
X0385489Y0309779D01*
X0385613Y0309865D01*
X0385739Y0309948D01*
X0385867Y0310027D01*
X0385997Y0310103D01*
X0386129Y0310176D01*
X0386263Y0310244D01*
X0386399Y0310310D01*
X0386537Y0310372D01*
X0386676Y0310430D01*
X0386816Y0310484D01*
X0386958Y0310535D01*
X0387101Y0310582D01*
X0387246Y0310625D01*
X0387391Y0310664D01*
X0387538Y0310700D01*
X0387685Y0310731D01*
X0387833Y0310759D01*
X0387982Y0310783D01*
X0388131Y0310803D01*
X0388281Y0310819D01*
X0388431Y0310831D01*
X0388582Y0310839D01*
X0388733Y0310843D01*
X0388883Y0310843D01*
X0389034Y0310839D01*
X0389185Y0310831D01*
X0389335Y0310819D01*
X0389485Y0310803D01*
X0389634Y0310783D01*
X0389783Y0310759D01*
X0389931Y0310731D01*
X0390078Y0310700D01*
X0390225Y0310664D01*
X0390370Y0310625D01*
X0390515Y0310582D01*
X0390658Y0310535D01*
X0390800Y0310484D01*
X0390940Y0310430D01*
X0391079Y0310372D01*
X0391217Y0310310D01*
X0391353Y0310244D01*
X0391487Y0310176D01*
X0391619Y0310103D01*
X0391749Y0310027D01*
X0391877Y0309948D01*
X0392003Y0309865D01*
X0392127Y0309779D01*
X0392248Y0309690D01*
X0392368Y0309597D01*
X0392484Y0309502D01*
X0392598Y0309403D01*
X0392709Y0309302D01*
X0392818Y0309197D01*
X0392924Y0309090D01*
X0393027Y0308980D01*
X0393127Y0308867D01*
X0393224Y0308752D01*
X0393318Y0308634D01*
X0393409Y0308514D01*
X0393497Y0308391D01*
X0393581Y0308266D01*
X0393662Y0308139D01*
X0393740Y0308010D01*
X0393814Y0307879D01*
X0393884Y0307746D01*
X0393952Y0307611D01*
X0394015Y0307474D01*
X0394075Y0307336D01*
X0394131Y0307196D01*
X0394184Y0307055D01*
X0394233Y0306913D01*
X0394278Y0306769D01*
X0394319Y0306624D01*
X0394357Y0306478D01*
X0394390Y0306331D01*
X0394420Y0306183D01*
X0394446Y0306035D01*
X0394467Y0305885D01*
X0394485Y0305736D01*
X0394499Y0305586D01*
X0394509Y0305435D01*
X0394515Y0305285D01*
X0394517Y0305134D01*
X0394515Y0304983D01*
X0394509Y0304833D01*
X0394499Y0304682D01*
X0394485Y0304532D01*
X0394467Y0304383D01*
X0394446Y0304233D01*
X0394420Y0304085D01*
X0394390Y0303937D01*
X0394357Y0303790D01*
X0394319Y0303644D01*
X0394278Y0303499D01*
X0394233Y0303355D01*
X0394184Y0303213D01*
X0394131Y0303072D01*
X0394075Y0302932D01*
X0394015Y0302794D01*
X0393952Y0302657D01*
X0393884Y0302522D01*
X0393814Y0302389D01*
X0393740Y0302258D01*
X0393662Y0302129D01*
X0393581Y0302002D01*
X0393497Y0301877D01*
X0393409Y0301754D01*
X0393318Y0301634D01*
X0393224Y0301516D01*
X0393127Y0301401D01*
X0393027Y0301288D01*
X0392924Y0301178D01*
X0392818Y0301071D01*
X0392709Y0300966D01*
X0392598Y0300865D01*
X0392484Y0300766D01*
X0392368Y0300671D01*
X0392248Y0300578D01*
X0392127Y0300489D01*
X0392003Y0300403D01*
X0391877Y0300320D01*
X0391749Y0300241D01*
X0391619Y0300165D01*
X0391487Y0300092D01*
X0391353Y0300024D01*
X0391217Y0299958D01*
X0391079Y0299896D01*
X0390940Y0299838D01*
X0390800Y0299784D01*
X0390658Y0299733D01*
X0390515Y0299686D01*
X0390370Y0299643D01*
X0390225Y0299604D01*
X0390078Y0299568D01*
X0389931Y0299537D01*
X0389783Y0299509D01*
X0389634Y0299485D01*
X0389485Y0299465D01*
X0389335Y0299449D01*
X0389185Y0299437D01*
X0389034Y0299429D01*
X0388883Y0299425D01*
X0388733Y0299425D01*
X0388582Y0299429D01*
X0388431Y0299437D01*
X0388281Y0299449D01*
X0388131Y0299465D01*
X0387982Y0299485D01*
X0387833Y0299509D01*
X0387685Y0299537D01*
X0387538Y0299568D01*
X0387391Y0299604D01*
X0387246Y0299643D01*
X0387101Y0299686D01*
X0386958Y0299733D01*
X0386816Y0299784D01*
X0386676Y0299838D01*
X0386537Y0299896D01*
X0386399Y0299958D01*
X0386263Y0300024D01*
X0386129Y0300092D01*
X0385997Y0300165D01*
X0385867Y0300241D01*
X0385739Y0300320D01*
X0385613Y0300403D01*
X0385489Y0300489D01*
X0385368Y0300578D01*
X0385248Y0300671D01*
X0385132Y0300766D01*
X0385018Y0300865D01*
X0384907Y0300966D01*
X0384798Y0301071D01*
X0384692Y0301178D01*
X0384589Y0301288D01*
X0384489Y0301401D01*
X0384392Y0301516D01*
X0384298Y0301634D01*
X0384207Y0301754D01*
X0384119Y0301877D01*
X0384035Y0302002D01*
X0383954Y0302129D01*
X0383876Y0302258D01*
X0383802Y0302389D01*
X0383732Y0302522D01*
X0383664Y0302657D01*
X0383601Y0302794D01*
X0383541Y0302932D01*
X0383485Y0303072D01*
X0383432Y0303213D01*
X0383383Y0303355D01*
X0383338Y0303499D01*
X0383297Y0303644D01*
X0383259Y0303790D01*
X0383226Y0303937D01*
X0383196Y0304085D01*
X0383170Y0304233D01*
X0383149Y0304383D01*
X0383131Y0304532D01*
X0383117Y0304682D01*
X0383107Y0304833D01*
X0383101Y0304983D01*
X0383099Y0305134D01*
X0391367Y0394898D02*
X0391369Y0395026D01*
X0391375Y0395154D01*
X0391385Y0395281D01*
X0391399Y0395409D01*
X0391416Y0395535D01*
X0391438Y0395661D01*
X0391464Y0395787D01*
X0391493Y0395911D01*
X0391526Y0396035D01*
X0391563Y0396157D01*
X0391604Y0396278D01*
X0391649Y0396398D01*
X0391697Y0396517D01*
X0391749Y0396634D01*
X0391805Y0396749D01*
X0391864Y0396863D01*
X0391926Y0396974D01*
X0391992Y0397084D01*
X0392061Y0397191D01*
X0392134Y0397297D01*
X0392210Y0397400D01*
X0392289Y0397500D01*
X0392371Y0397599D01*
X0392456Y0397694D01*
X0392544Y0397787D01*
X0392635Y0397877D01*
X0392728Y0397964D01*
X0392825Y0398049D01*
X0392923Y0398130D01*
X0393025Y0398208D01*
X0393128Y0398283D01*
X0393234Y0398355D01*
X0393342Y0398424D01*
X0393452Y0398489D01*
X0393565Y0398550D01*
X0393679Y0398609D01*
X0393794Y0398663D01*
X0393912Y0398714D01*
X0394030Y0398762D01*
X0394151Y0398805D01*
X0394272Y0398845D01*
X0394395Y0398881D01*
X0394519Y0398914D01*
X0394644Y0398942D01*
X0394769Y0398967D01*
X0394895Y0398987D01*
X0395022Y0399004D01*
X0395150Y0399017D01*
X0395277Y0399026D01*
X0395405Y0399031D01*
X0395533Y0399032D01*
X0395661Y0399029D01*
X0395789Y0399022D01*
X0395916Y0399011D01*
X0396043Y0398996D01*
X0396170Y0398978D01*
X0396296Y0398955D01*
X0396421Y0398928D01*
X0396545Y0398898D01*
X0396668Y0398864D01*
X0396791Y0398826D01*
X0396912Y0398784D01*
X0397031Y0398738D01*
X0397149Y0398689D01*
X0397266Y0398636D01*
X0397381Y0398580D01*
X0397494Y0398520D01*
X0397605Y0398457D01*
X0397714Y0398390D01*
X0397821Y0398320D01*
X0397926Y0398246D01*
X0398028Y0398170D01*
X0398128Y0398090D01*
X0398226Y0398007D01*
X0398321Y0397921D01*
X0398413Y0397832D01*
X0398502Y0397741D01*
X0398589Y0397647D01*
X0398672Y0397550D01*
X0398753Y0397450D01*
X0398830Y0397349D01*
X0398905Y0397244D01*
X0398976Y0397138D01*
X0399043Y0397029D01*
X0399108Y0396919D01*
X0399168Y0396806D01*
X0399226Y0396692D01*
X0399279Y0396576D01*
X0399329Y0396458D01*
X0399376Y0396339D01*
X0399419Y0396218D01*
X0399458Y0396096D01*
X0399493Y0395973D01*
X0399524Y0395849D01*
X0399552Y0395724D01*
X0399575Y0395598D01*
X0399595Y0395472D01*
X0399611Y0395345D01*
X0399623Y0395218D01*
X0399631Y0395090D01*
X0399635Y0394962D01*
X0399635Y0394834D01*
X0399631Y0394706D01*
X0399623Y0394578D01*
X0399611Y0394451D01*
X0399595Y0394324D01*
X0399575Y0394198D01*
X0399552Y0394072D01*
X0399524Y0393947D01*
X0399493Y0393823D01*
X0399458Y0393700D01*
X0399419Y0393578D01*
X0399376Y0393457D01*
X0399329Y0393338D01*
X0399279Y0393220D01*
X0399226Y0393104D01*
X0399168Y0392990D01*
X0399108Y0392877D01*
X0399043Y0392767D01*
X0398976Y0392658D01*
X0398905Y0392552D01*
X0398830Y0392447D01*
X0398753Y0392346D01*
X0398672Y0392246D01*
X0398589Y0392149D01*
X0398502Y0392055D01*
X0398413Y0391964D01*
X0398321Y0391875D01*
X0398226Y0391789D01*
X0398128Y0391706D01*
X0398028Y0391626D01*
X0397926Y0391550D01*
X0397821Y0391476D01*
X0397714Y0391406D01*
X0397605Y0391339D01*
X0397494Y0391276D01*
X0397381Y0391216D01*
X0397266Y0391160D01*
X0397149Y0391107D01*
X0397031Y0391058D01*
X0396912Y0391012D01*
X0396791Y0390970D01*
X0396668Y0390932D01*
X0396545Y0390898D01*
X0396421Y0390868D01*
X0396296Y0390841D01*
X0396170Y0390818D01*
X0396043Y0390800D01*
X0395916Y0390785D01*
X0395789Y0390774D01*
X0395661Y0390767D01*
X0395533Y0390764D01*
X0395405Y0390765D01*
X0395277Y0390770D01*
X0395150Y0390779D01*
X0395022Y0390792D01*
X0394895Y0390809D01*
X0394769Y0390829D01*
X0394644Y0390854D01*
X0394519Y0390882D01*
X0394395Y0390915D01*
X0394272Y0390951D01*
X0394151Y0390991D01*
X0394030Y0391034D01*
X0393912Y0391082D01*
X0393794Y0391133D01*
X0393679Y0391187D01*
X0393565Y0391246D01*
X0393452Y0391307D01*
X0393342Y0391372D01*
X0393234Y0391441D01*
X0393128Y0391513D01*
X0393025Y0391588D01*
X0392923Y0391666D01*
X0392825Y0391747D01*
X0392728Y0391832D01*
X0392635Y0391919D01*
X0392544Y0392009D01*
X0392456Y0392102D01*
X0392371Y0392197D01*
X0392289Y0392296D01*
X0392210Y0392396D01*
X0392134Y0392499D01*
X0392061Y0392605D01*
X0391992Y0392712D01*
X0391926Y0392822D01*
X0391864Y0392933D01*
X0391805Y0393047D01*
X0391749Y0393162D01*
X0391697Y0393279D01*
X0391649Y0393398D01*
X0391604Y0393518D01*
X0391563Y0393639D01*
X0391526Y0393761D01*
X0391493Y0393885D01*
X0391464Y0394009D01*
X0391438Y0394135D01*
X0391416Y0394261D01*
X0391399Y0394387D01*
X0391385Y0394515D01*
X0391375Y0394642D01*
X0391369Y0394770D01*
X0391367Y0394898D01*
X0387115Y0207890D02*
X0387117Y0208023D01*
X0387123Y0208156D01*
X0387133Y0208289D01*
X0387147Y0208421D01*
X0387165Y0208553D01*
X0387186Y0208684D01*
X0387212Y0208815D01*
X0387242Y0208945D01*
X0387275Y0209074D01*
X0387313Y0209201D01*
X0387354Y0209328D01*
X0387399Y0209453D01*
X0387447Y0209577D01*
X0387500Y0209700D01*
X0387556Y0209820D01*
X0387615Y0209939D01*
X0387678Y0210057D01*
X0387745Y0210172D01*
X0387815Y0210285D01*
X0387888Y0210396D01*
X0387965Y0210505D01*
X0388045Y0210612D01*
X0388128Y0210716D01*
X0388214Y0210817D01*
X0388303Y0210916D01*
X0388395Y0211012D01*
X0388489Y0211106D01*
X0388587Y0211196D01*
X0388687Y0211284D01*
X0388790Y0211368D01*
X0388895Y0211450D01*
X0389003Y0211528D01*
X0389113Y0211603D01*
X0389225Y0211675D01*
X0389340Y0211743D01*
X0389456Y0211808D01*
X0389574Y0211869D01*
X0389694Y0211927D01*
X0389815Y0211981D01*
X0389939Y0212031D01*
X0390063Y0212078D01*
X0390189Y0212121D01*
X0390316Y0212160D01*
X0390445Y0212196D01*
X0390574Y0212227D01*
X0390704Y0212255D01*
X0390835Y0212279D01*
X0390967Y0212299D01*
X0391099Y0212315D01*
X0391232Y0212327D01*
X0391364Y0212335D01*
X0391497Y0212339D01*
X0391631Y0212339D01*
X0391764Y0212335D01*
X0391896Y0212327D01*
X0392029Y0212315D01*
X0392161Y0212299D01*
X0392293Y0212279D01*
X0392424Y0212255D01*
X0392554Y0212227D01*
X0392683Y0212196D01*
X0392812Y0212160D01*
X0392939Y0212121D01*
X0393065Y0212078D01*
X0393189Y0212031D01*
X0393313Y0211981D01*
X0393434Y0211927D01*
X0393554Y0211869D01*
X0393672Y0211808D01*
X0393789Y0211743D01*
X0393903Y0211675D01*
X0394015Y0211603D01*
X0394125Y0211528D01*
X0394233Y0211450D01*
X0394338Y0211368D01*
X0394441Y0211284D01*
X0394541Y0211196D01*
X0394639Y0211106D01*
X0394733Y0211012D01*
X0394825Y0210916D01*
X0394914Y0210817D01*
X0395000Y0210716D01*
X0395083Y0210612D01*
X0395163Y0210505D01*
X0395240Y0210396D01*
X0395313Y0210285D01*
X0395383Y0210172D01*
X0395450Y0210057D01*
X0395513Y0209939D01*
X0395572Y0209820D01*
X0395628Y0209700D01*
X0395681Y0209577D01*
X0395729Y0209453D01*
X0395774Y0209328D01*
X0395815Y0209201D01*
X0395853Y0209074D01*
X0395886Y0208945D01*
X0395916Y0208815D01*
X0395942Y0208684D01*
X0395963Y0208553D01*
X0395981Y0208421D01*
X0395995Y0208289D01*
X0396005Y0208156D01*
X0396011Y0208023D01*
X0396013Y0207890D01*
X0396011Y0207757D01*
X0396005Y0207624D01*
X0395995Y0207491D01*
X0395981Y0207359D01*
X0395963Y0207227D01*
X0395942Y0207096D01*
X0395916Y0206965D01*
X0395886Y0206835D01*
X0395853Y0206706D01*
X0395815Y0206579D01*
X0395774Y0206452D01*
X0395729Y0206327D01*
X0395681Y0206203D01*
X0395628Y0206080D01*
X0395572Y0205960D01*
X0395513Y0205841D01*
X0395450Y0205723D01*
X0395383Y0205608D01*
X0395313Y0205495D01*
X0395240Y0205384D01*
X0395163Y0205275D01*
X0395083Y0205168D01*
X0395000Y0205064D01*
X0394914Y0204963D01*
X0394825Y0204864D01*
X0394733Y0204768D01*
X0394639Y0204674D01*
X0394541Y0204584D01*
X0394441Y0204496D01*
X0394338Y0204412D01*
X0394233Y0204330D01*
X0394125Y0204252D01*
X0394015Y0204177D01*
X0393903Y0204105D01*
X0393788Y0204037D01*
X0393672Y0203972D01*
X0393554Y0203911D01*
X0393434Y0203853D01*
X0393313Y0203799D01*
X0393189Y0203749D01*
X0393065Y0203702D01*
X0392939Y0203659D01*
X0392812Y0203620D01*
X0392683Y0203584D01*
X0392554Y0203553D01*
X0392424Y0203525D01*
X0392293Y0203501D01*
X0392161Y0203481D01*
X0392029Y0203465D01*
X0391896Y0203453D01*
X0391764Y0203445D01*
X0391631Y0203441D01*
X0391497Y0203441D01*
X0391364Y0203445D01*
X0391232Y0203453D01*
X0391099Y0203465D01*
X0390967Y0203481D01*
X0390835Y0203501D01*
X0390704Y0203525D01*
X0390574Y0203553D01*
X0390445Y0203584D01*
X0390316Y0203620D01*
X0390189Y0203659D01*
X0390063Y0203702D01*
X0389939Y0203749D01*
X0389815Y0203799D01*
X0389694Y0203853D01*
X0389574Y0203911D01*
X0389456Y0203972D01*
X0389339Y0204037D01*
X0389225Y0204105D01*
X0389113Y0204177D01*
X0389003Y0204252D01*
X0388895Y0204330D01*
X0388790Y0204412D01*
X0388687Y0204496D01*
X0388587Y0204584D01*
X0388489Y0204674D01*
X0388395Y0204768D01*
X0388303Y0204864D01*
X0388214Y0204963D01*
X0388128Y0205064D01*
X0388045Y0205168D01*
X0387965Y0205275D01*
X0387888Y0205384D01*
X0387815Y0205495D01*
X0387745Y0205608D01*
X0387678Y0205723D01*
X0387615Y0205841D01*
X0387556Y0205960D01*
X0387500Y0206080D01*
X0387447Y0206203D01*
X0387399Y0206327D01*
X0387354Y0206452D01*
X0387313Y0206579D01*
X0387275Y0206706D01*
X0387242Y0206835D01*
X0387212Y0206965D01*
X0387186Y0207096D01*
X0387165Y0207227D01*
X0387147Y0207359D01*
X0387133Y0207491D01*
X0387123Y0207624D01*
X0387117Y0207757D01*
X0387115Y0207890D01*
X0383099Y0110646D02*
X0383101Y0110797D01*
X0383107Y0110947D01*
X0383117Y0111098D01*
X0383131Y0111248D01*
X0383149Y0111397D01*
X0383170Y0111547D01*
X0383196Y0111695D01*
X0383226Y0111843D01*
X0383259Y0111990D01*
X0383297Y0112136D01*
X0383338Y0112281D01*
X0383383Y0112425D01*
X0383432Y0112567D01*
X0383485Y0112708D01*
X0383541Y0112848D01*
X0383601Y0112986D01*
X0383664Y0113123D01*
X0383732Y0113258D01*
X0383802Y0113391D01*
X0383876Y0113522D01*
X0383954Y0113651D01*
X0384035Y0113778D01*
X0384119Y0113903D01*
X0384207Y0114026D01*
X0384298Y0114146D01*
X0384392Y0114264D01*
X0384489Y0114379D01*
X0384589Y0114492D01*
X0384692Y0114602D01*
X0384798Y0114709D01*
X0384907Y0114814D01*
X0385018Y0114915D01*
X0385132Y0115014D01*
X0385248Y0115109D01*
X0385368Y0115202D01*
X0385489Y0115291D01*
X0385613Y0115377D01*
X0385739Y0115460D01*
X0385867Y0115539D01*
X0385997Y0115615D01*
X0386129Y0115688D01*
X0386263Y0115756D01*
X0386399Y0115822D01*
X0386537Y0115884D01*
X0386676Y0115942D01*
X0386816Y0115996D01*
X0386958Y0116047D01*
X0387101Y0116094D01*
X0387246Y0116137D01*
X0387391Y0116176D01*
X0387538Y0116212D01*
X0387685Y0116243D01*
X0387833Y0116271D01*
X0387982Y0116295D01*
X0388131Y0116315D01*
X0388281Y0116331D01*
X0388431Y0116343D01*
X0388582Y0116351D01*
X0388733Y0116355D01*
X0388883Y0116355D01*
X0389034Y0116351D01*
X0389185Y0116343D01*
X0389335Y0116331D01*
X0389485Y0116315D01*
X0389634Y0116295D01*
X0389783Y0116271D01*
X0389931Y0116243D01*
X0390078Y0116212D01*
X0390225Y0116176D01*
X0390370Y0116137D01*
X0390515Y0116094D01*
X0390658Y0116047D01*
X0390800Y0115996D01*
X0390940Y0115942D01*
X0391079Y0115884D01*
X0391217Y0115822D01*
X0391353Y0115756D01*
X0391487Y0115688D01*
X0391619Y0115615D01*
X0391749Y0115539D01*
X0391877Y0115460D01*
X0392003Y0115377D01*
X0392127Y0115291D01*
X0392248Y0115202D01*
X0392368Y0115109D01*
X0392484Y0115014D01*
X0392598Y0114915D01*
X0392709Y0114814D01*
X0392818Y0114709D01*
X0392924Y0114602D01*
X0393027Y0114492D01*
X0393127Y0114379D01*
X0393224Y0114264D01*
X0393318Y0114146D01*
X0393409Y0114026D01*
X0393497Y0113903D01*
X0393581Y0113778D01*
X0393662Y0113651D01*
X0393740Y0113522D01*
X0393814Y0113391D01*
X0393884Y0113258D01*
X0393952Y0113123D01*
X0394015Y0112986D01*
X0394075Y0112848D01*
X0394131Y0112708D01*
X0394184Y0112567D01*
X0394233Y0112425D01*
X0394278Y0112281D01*
X0394319Y0112136D01*
X0394357Y0111990D01*
X0394390Y0111843D01*
X0394420Y0111695D01*
X0394446Y0111547D01*
X0394467Y0111397D01*
X0394485Y0111248D01*
X0394499Y0111098D01*
X0394509Y0110947D01*
X0394515Y0110797D01*
X0394517Y0110646D01*
X0394515Y0110495D01*
X0394509Y0110345D01*
X0394499Y0110194D01*
X0394485Y0110044D01*
X0394467Y0109895D01*
X0394446Y0109745D01*
X0394420Y0109597D01*
X0394390Y0109449D01*
X0394357Y0109302D01*
X0394319Y0109156D01*
X0394278Y0109011D01*
X0394233Y0108867D01*
X0394184Y0108725D01*
X0394131Y0108584D01*
X0394075Y0108444D01*
X0394015Y0108306D01*
X0393952Y0108169D01*
X0393884Y0108034D01*
X0393814Y0107901D01*
X0393740Y0107770D01*
X0393662Y0107641D01*
X0393581Y0107514D01*
X0393497Y0107389D01*
X0393409Y0107266D01*
X0393318Y0107146D01*
X0393224Y0107028D01*
X0393127Y0106913D01*
X0393027Y0106800D01*
X0392924Y0106690D01*
X0392818Y0106583D01*
X0392709Y0106478D01*
X0392598Y0106377D01*
X0392484Y0106278D01*
X0392368Y0106183D01*
X0392248Y0106090D01*
X0392127Y0106001D01*
X0392003Y0105915D01*
X0391877Y0105832D01*
X0391749Y0105753D01*
X0391619Y0105677D01*
X0391487Y0105604D01*
X0391353Y0105536D01*
X0391217Y0105470D01*
X0391079Y0105408D01*
X0390940Y0105350D01*
X0390800Y0105296D01*
X0390658Y0105245D01*
X0390515Y0105198D01*
X0390370Y0105155D01*
X0390225Y0105116D01*
X0390078Y0105080D01*
X0389931Y0105049D01*
X0389783Y0105021D01*
X0389634Y0104997D01*
X0389485Y0104977D01*
X0389335Y0104961D01*
X0389185Y0104949D01*
X0389034Y0104941D01*
X0388883Y0104937D01*
X0388733Y0104937D01*
X0388582Y0104941D01*
X0388431Y0104949D01*
X0388281Y0104961D01*
X0388131Y0104977D01*
X0387982Y0104997D01*
X0387833Y0105021D01*
X0387685Y0105049D01*
X0387538Y0105080D01*
X0387391Y0105116D01*
X0387246Y0105155D01*
X0387101Y0105198D01*
X0386958Y0105245D01*
X0386816Y0105296D01*
X0386676Y0105350D01*
X0386537Y0105408D01*
X0386399Y0105470D01*
X0386263Y0105536D01*
X0386129Y0105604D01*
X0385997Y0105677D01*
X0385867Y0105753D01*
X0385739Y0105832D01*
X0385613Y0105915D01*
X0385489Y0106001D01*
X0385368Y0106090D01*
X0385248Y0106183D01*
X0385132Y0106278D01*
X0385018Y0106377D01*
X0384907Y0106478D01*
X0384798Y0106583D01*
X0384692Y0106690D01*
X0384589Y0106800D01*
X0384489Y0106913D01*
X0384392Y0107028D01*
X0384298Y0107146D01*
X0384207Y0107266D01*
X0384119Y0107389D01*
X0384035Y0107514D01*
X0383954Y0107641D01*
X0383876Y0107770D01*
X0383802Y0107901D01*
X0383732Y0108034D01*
X0383664Y0108169D01*
X0383601Y0108306D01*
X0383541Y0108444D01*
X0383485Y0108584D01*
X0383432Y0108725D01*
X0383383Y0108867D01*
X0383338Y0109011D01*
X0383297Y0109156D01*
X0383259Y0109302D01*
X0383226Y0109449D01*
X0383196Y0109597D01*
X0383170Y0109745D01*
X0383149Y0109895D01*
X0383131Y0110044D01*
X0383117Y0110194D01*
X0383107Y0110345D01*
X0383101Y0110495D01*
X0383099Y0110646D01*
X0300028Y0027575D02*
X0300030Y0027726D01*
X0300036Y0027876D01*
X0300046Y0028027D01*
X0300060Y0028177D01*
X0300078Y0028326D01*
X0300099Y0028476D01*
X0300125Y0028624D01*
X0300155Y0028772D01*
X0300188Y0028919D01*
X0300226Y0029065D01*
X0300267Y0029210D01*
X0300312Y0029354D01*
X0300361Y0029496D01*
X0300414Y0029637D01*
X0300470Y0029777D01*
X0300530Y0029915D01*
X0300593Y0030052D01*
X0300661Y0030187D01*
X0300731Y0030320D01*
X0300805Y0030451D01*
X0300883Y0030580D01*
X0300964Y0030707D01*
X0301048Y0030832D01*
X0301136Y0030955D01*
X0301227Y0031075D01*
X0301321Y0031193D01*
X0301418Y0031308D01*
X0301518Y0031421D01*
X0301621Y0031531D01*
X0301727Y0031638D01*
X0301836Y0031743D01*
X0301947Y0031844D01*
X0302061Y0031943D01*
X0302177Y0032038D01*
X0302297Y0032131D01*
X0302418Y0032220D01*
X0302542Y0032306D01*
X0302668Y0032389D01*
X0302796Y0032468D01*
X0302926Y0032544D01*
X0303058Y0032617D01*
X0303192Y0032685D01*
X0303328Y0032751D01*
X0303466Y0032813D01*
X0303605Y0032871D01*
X0303745Y0032925D01*
X0303887Y0032976D01*
X0304030Y0033023D01*
X0304175Y0033066D01*
X0304320Y0033105D01*
X0304467Y0033141D01*
X0304614Y0033172D01*
X0304762Y0033200D01*
X0304911Y0033224D01*
X0305060Y0033244D01*
X0305210Y0033260D01*
X0305360Y0033272D01*
X0305511Y0033280D01*
X0305662Y0033284D01*
X0305812Y0033284D01*
X0305963Y0033280D01*
X0306114Y0033272D01*
X0306264Y0033260D01*
X0306414Y0033244D01*
X0306563Y0033224D01*
X0306712Y0033200D01*
X0306860Y0033172D01*
X0307007Y0033141D01*
X0307154Y0033105D01*
X0307299Y0033066D01*
X0307444Y0033023D01*
X0307587Y0032976D01*
X0307729Y0032925D01*
X0307869Y0032871D01*
X0308008Y0032813D01*
X0308146Y0032751D01*
X0308282Y0032685D01*
X0308416Y0032617D01*
X0308548Y0032544D01*
X0308678Y0032468D01*
X0308806Y0032389D01*
X0308932Y0032306D01*
X0309056Y0032220D01*
X0309177Y0032131D01*
X0309297Y0032038D01*
X0309413Y0031943D01*
X0309527Y0031844D01*
X0309638Y0031743D01*
X0309747Y0031638D01*
X0309853Y0031531D01*
X0309956Y0031421D01*
X0310056Y0031308D01*
X0310153Y0031193D01*
X0310247Y0031075D01*
X0310338Y0030955D01*
X0310426Y0030832D01*
X0310510Y0030707D01*
X0310591Y0030580D01*
X0310669Y0030451D01*
X0310743Y0030320D01*
X0310813Y0030187D01*
X0310881Y0030052D01*
X0310944Y0029915D01*
X0311004Y0029777D01*
X0311060Y0029637D01*
X0311113Y0029496D01*
X0311162Y0029354D01*
X0311207Y0029210D01*
X0311248Y0029065D01*
X0311286Y0028919D01*
X0311319Y0028772D01*
X0311349Y0028624D01*
X0311375Y0028476D01*
X0311396Y0028326D01*
X0311414Y0028177D01*
X0311428Y0028027D01*
X0311438Y0027876D01*
X0311444Y0027726D01*
X0311446Y0027575D01*
X0311444Y0027424D01*
X0311438Y0027274D01*
X0311428Y0027123D01*
X0311414Y0026973D01*
X0311396Y0026824D01*
X0311375Y0026674D01*
X0311349Y0026526D01*
X0311319Y0026378D01*
X0311286Y0026231D01*
X0311248Y0026085D01*
X0311207Y0025940D01*
X0311162Y0025796D01*
X0311113Y0025654D01*
X0311060Y0025513D01*
X0311004Y0025373D01*
X0310944Y0025235D01*
X0310881Y0025098D01*
X0310813Y0024963D01*
X0310743Y0024830D01*
X0310669Y0024699D01*
X0310591Y0024570D01*
X0310510Y0024443D01*
X0310426Y0024318D01*
X0310338Y0024195D01*
X0310247Y0024075D01*
X0310153Y0023957D01*
X0310056Y0023842D01*
X0309956Y0023729D01*
X0309853Y0023619D01*
X0309747Y0023512D01*
X0309638Y0023407D01*
X0309527Y0023306D01*
X0309413Y0023207D01*
X0309297Y0023112D01*
X0309177Y0023019D01*
X0309056Y0022930D01*
X0308932Y0022844D01*
X0308806Y0022761D01*
X0308678Y0022682D01*
X0308548Y0022606D01*
X0308416Y0022533D01*
X0308282Y0022465D01*
X0308146Y0022399D01*
X0308008Y0022337D01*
X0307869Y0022279D01*
X0307729Y0022225D01*
X0307587Y0022174D01*
X0307444Y0022127D01*
X0307299Y0022084D01*
X0307154Y0022045D01*
X0307007Y0022009D01*
X0306860Y0021978D01*
X0306712Y0021950D01*
X0306563Y0021926D01*
X0306414Y0021906D01*
X0306264Y0021890D01*
X0306114Y0021878D01*
X0305963Y0021870D01*
X0305812Y0021866D01*
X0305662Y0021866D01*
X0305511Y0021870D01*
X0305360Y0021878D01*
X0305210Y0021890D01*
X0305060Y0021906D01*
X0304911Y0021926D01*
X0304762Y0021950D01*
X0304614Y0021978D01*
X0304467Y0022009D01*
X0304320Y0022045D01*
X0304175Y0022084D01*
X0304030Y0022127D01*
X0303887Y0022174D01*
X0303745Y0022225D01*
X0303605Y0022279D01*
X0303466Y0022337D01*
X0303328Y0022399D01*
X0303192Y0022465D01*
X0303058Y0022533D01*
X0302926Y0022606D01*
X0302796Y0022682D01*
X0302668Y0022761D01*
X0302542Y0022844D01*
X0302418Y0022930D01*
X0302297Y0023019D01*
X0302177Y0023112D01*
X0302061Y0023207D01*
X0301947Y0023306D01*
X0301836Y0023407D01*
X0301727Y0023512D01*
X0301621Y0023619D01*
X0301518Y0023729D01*
X0301418Y0023842D01*
X0301321Y0023957D01*
X0301227Y0024075D01*
X0301136Y0024195D01*
X0301048Y0024318D01*
X0300964Y0024443D01*
X0300883Y0024570D01*
X0300805Y0024699D01*
X0300731Y0024830D01*
X0300661Y0024963D01*
X0300593Y0025098D01*
X0300530Y0025235D01*
X0300470Y0025373D01*
X0300414Y0025513D01*
X0300361Y0025654D01*
X0300312Y0025796D01*
X0300267Y0025940D01*
X0300226Y0026085D01*
X0300188Y0026231D01*
X0300155Y0026378D01*
X0300125Y0026526D01*
X0300099Y0026674D01*
X0300078Y0026824D01*
X0300060Y0026973D01*
X0300046Y0027123D01*
X0300036Y0027274D01*
X0300030Y0027424D01*
X0300028Y0027575D01*
X0391367Y0020882D02*
X0391369Y0021010D01*
X0391375Y0021138D01*
X0391385Y0021265D01*
X0391399Y0021393D01*
X0391416Y0021519D01*
X0391438Y0021645D01*
X0391464Y0021771D01*
X0391493Y0021895D01*
X0391526Y0022019D01*
X0391563Y0022141D01*
X0391604Y0022262D01*
X0391649Y0022382D01*
X0391697Y0022501D01*
X0391749Y0022618D01*
X0391805Y0022733D01*
X0391864Y0022847D01*
X0391926Y0022958D01*
X0391992Y0023068D01*
X0392061Y0023175D01*
X0392134Y0023281D01*
X0392210Y0023384D01*
X0392289Y0023484D01*
X0392371Y0023583D01*
X0392456Y0023678D01*
X0392544Y0023771D01*
X0392635Y0023861D01*
X0392728Y0023948D01*
X0392825Y0024033D01*
X0392923Y0024114D01*
X0393025Y0024192D01*
X0393128Y0024267D01*
X0393234Y0024339D01*
X0393342Y0024408D01*
X0393452Y0024473D01*
X0393565Y0024534D01*
X0393679Y0024593D01*
X0393794Y0024647D01*
X0393912Y0024698D01*
X0394030Y0024746D01*
X0394151Y0024789D01*
X0394272Y0024829D01*
X0394395Y0024865D01*
X0394519Y0024898D01*
X0394644Y0024926D01*
X0394769Y0024951D01*
X0394895Y0024971D01*
X0395022Y0024988D01*
X0395150Y0025001D01*
X0395277Y0025010D01*
X0395405Y0025015D01*
X0395533Y0025016D01*
X0395661Y0025013D01*
X0395789Y0025006D01*
X0395916Y0024995D01*
X0396043Y0024980D01*
X0396170Y0024962D01*
X0396296Y0024939D01*
X0396421Y0024912D01*
X0396545Y0024882D01*
X0396668Y0024848D01*
X0396791Y0024810D01*
X0396912Y0024768D01*
X0397031Y0024722D01*
X0397149Y0024673D01*
X0397266Y0024620D01*
X0397381Y0024564D01*
X0397494Y0024504D01*
X0397605Y0024441D01*
X0397714Y0024374D01*
X0397821Y0024304D01*
X0397926Y0024230D01*
X0398028Y0024154D01*
X0398128Y0024074D01*
X0398226Y0023991D01*
X0398321Y0023905D01*
X0398413Y0023816D01*
X0398502Y0023725D01*
X0398589Y0023631D01*
X0398672Y0023534D01*
X0398753Y0023434D01*
X0398830Y0023333D01*
X0398905Y0023228D01*
X0398976Y0023122D01*
X0399043Y0023013D01*
X0399108Y0022903D01*
X0399168Y0022790D01*
X0399226Y0022676D01*
X0399279Y0022560D01*
X0399329Y0022442D01*
X0399376Y0022323D01*
X0399419Y0022202D01*
X0399458Y0022080D01*
X0399493Y0021957D01*
X0399524Y0021833D01*
X0399552Y0021708D01*
X0399575Y0021582D01*
X0399595Y0021456D01*
X0399611Y0021329D01*
X0399623Y0021202D01*
X0399631Y0021074D01*
X0399635Y0020946D01*
X0399635Y0020818D01*
X0399631Y0020690D01*
X0399623Y0020562D01*
X0399611Y0020435D01*
X0399595Y0020308D01*
X0399575Y0020182D01*
X0399552Y0020056D01*
X0399524Y0019931D01*
X0399493Y0019807D01*
X0399458Y0019684D01*
X0399419Y0019562D01*
X0399376Y0019441D01*
X0399329Y0019322D01*
X0399279Y0019204D01*
X0399226Y0019088D01*
X0399168Y0018974D01*
X0399108Y0018861D01*
X0399043Y0018751D01*
X0398976Y0018642D01*
X0398905Y0018536D01*
X0398830Y0018431D01*
X0398753Y0018330D01*
X0398672Y0018230D01*
X0398589Y0018133D01*
X0398502Y0018039D01*
X0398413Y0017948D01*
X0398321Y0017859D01*
X0398226Y0017773D01*
X0398128Y0017690D01*
X0398028Y0017610D01*
X0397926Y0017534D01*
X0397821Y0017460D01*
X0397714Y0017390D01*
X0397605Y0017323D01*
X0397494Y0017260D01*
X0397381Y0017200D01*
X0397266Y0017144D01*
X0397149Y0017091D01*
X0397031Y0017042D01*
X0396912Y0016996D01*
X0396791Y0016954D01*
X0396668Y0016916D01*
X0396545Y0016882D01*
X0396421Y0016852D01*
X0396296Y0016825D01*
X0396170Y0016802D01*
X0396043Y0016784D01*
X0395916Y0016769D01*
X0395789Y0016758D01*
X0395661Y0016751D01*
X0395533Y0016748D01*
X0395405Y0016749D01*
X0395277Y0016754D01*
X0395150Y0016763D01*
X0395022Y0016776D01*
X0394895Y0016793D01*
X0394769Y0016813D01*
X0394644Y0016838D01*
X0394519Y0016866D01*
X0394395Y0016899D01*
X0394272Y0016935D01*
X0394151Y0016975D01*
X0394030Y0017018D01*
X0393912Y0017066D01*
X0393794Y0017117D01*
X0393679Y0017171D01*
X0393565Y0017230D01*
X0393452Y0017291D01*
X0393342Y0017356D01*
X0393234Y0017425D01*
X0393128Y0017497D01*
X0393025Y0017572D01*
X0392923Y0017650D01*
X0392825Y0017731D01*
X0392728Y0017816D01*
X0392635Y0017903D01*
X0392544Y0017993D01*
X0392456Y0018086D01*
X0392371Y0018181D01*
X0392289Y0018280D01*
X0392210Y0018380D01*
X0392134Y0018483D01*
X0392061Y0018589D01*
X0391992Y0018696D01*
X0391926Y0018806D01*
X0391864Y0018917D01*
X0391805Y0019031D01*
X0391749Y0019146D01*
X0391697Y0019263D01*
X0391649Y0019382D01*
X0391604Y0019502D01*
X0391563Y0019623D01*
X0391526Y0019745D01*
X0391493Y0019869D01*
X0391464Y0019993D01*
X0391438Y0020119D01*
X0391416Y0020245D01*
X0391399Y0020371D01*
X0391385Y0020499D01*
X0391375Y0020626D01*
X0391369Y0020754D01*
X0391367Y0020882D01*
X0133099Y0027575D02*
X0133101Y0027726D01*
X0133107Y0027876D01*
X0133117Y0028027D01*
X0133131Y0028177D01*
X0133149Y0028326D01*
X0133170Y0028476D01*
X0133196Y0028624D01*
X0133226Y0028772D01*
X0133259Y0028919D01*
X0133297Y0029065D01*
X0133338Y0029210D01*
X0133383Y0029354D01*
X0133432Y0029496D01*
X0133485Y0029637D01*
X0133541Y0029777D01*
X0133601Y0029915D01*
X0133664Y0030052D01*
X0133732Y0030187D01*
X0133802Y0030320D01*
X0133876Y0030451D01*
X0133954Y0030580D01*
X0134035Y0030707D01*
X0134119Y0030832D01*
X0134207Y0030955D01*
X0134298Y0031075D01*
X0134392Y0031193D01*
X0134489Y0031308D01*
X0134589Y0031421D01*
X0134692Y0031531D01*
X0134798Y0031638D01*
X0134907Y0031743D01*
X0135018Y0031844D01*
X0135132Y0031943D01*
X0135248Y0032038D01*
X0135368Y0032131D01*
X0135489Y0032220D01*
X0135613Y0032306D01*
X0135739Y0032389D01*
X0135867Y0032468D01*
X0135997Y0032544D01*
X0136129Y0032617D01*
X0136263Y0032685D01*
X0136399Y0032751D01*
X0136537Y0032813D01*
X0136676Y0032871D01*
X0136816Y0032925D01*
X0136958Y0032976D01*
X0137101Y0033023D01*
X0137246Y0033066D01*
X0137391Y0033105D01*
X0137538Y0033141D01*
X0137685Y0033172D01*
X0137833Y0033200D01*
X0137982Y0033224D01*
X0138131Y0033244D01*
X0138281Y0033260D01*
X0138431Y0033272D01*
X0138582Y0033280D01*
X0138733Y0033284D01*
X0138883Y0033284D01*
X0139034Y0033280D01*
X0139185Y0033272D01*
X0139335Y0033260D01*
X0139485Y0033244D01*
X0139634Y0033224D01*
X0139783Y0033200D01*
X0139931Y0033172D01*
X0140078Y0033141D01*
X0140225Y0033105D01*
X0140370Y0033066D01*
X0140515Y0033023D01*
X0140658Y0032976D01*
X0140800Y0032925D01*
X0140940Y0032871D01*
X0141079Y0032813D01*
X0141217Y0032751D01*
X0141353Y0032685D01*
X0141487Y0032617D01*
X0141619Y0032544D01*
X0141749Y0032468D01*
X0141877Y0032389D01*
X0142003Y0032306D01*
X0142127Y0032220D01*
X0142248Y0032131D01*
X0142368Y0032038D01*
X0142484Y0031943D01*
X0142598Y0031844D01*
X0142709Y0031743D01*
X0142818Y0031638D01*
X0142924Y0031531D01*
X0143027Y0031421D01*
X0143127Y0031308D01*
X0143224Y0031193D01*
X0143318Y0031075D01*
X0143409Y0030955D01*
X0143497Y0030832D01*
X0143581Y0030707D01*
X0143662Y0030580D01*
X0143740Y0030451D01*
X0143814Y0030320D01*
X0143884Y0030187D01*
X0143952Y0030052D01*
X0144015Y0029915D01*
X0144075Y0029777D01*
X0144131Y0029637D01*
X0144184Y0029496D01*
X0144233Y0029354D01*
X0144278Y0029210D01*
X0144319Y0029065D01*
X0144357Y0028919D01*
X0144390Y0028772D01*
X0144420Y0028624D01*
X0144446Y0028476D01*
X0144467Y0028326D01*
X0144485Y0028177D01*
X0144499Y0028027D01*
X0144509Y0027876D01*
X0144515Y0027726D01*
X0144517Y0027575D01*
X0144515Y0027424D01*
X0144509Y0027274D01*
X0144499Y0027123D01*
X0144485Y0026973D01*
X0144467Y0026824D01*
X0144446Y0026674D01*
X0144420Y0026526D01*
X0144390Y0026378D01*
X0144357Y0026231D01*
X0144319Y0026085D01*
X0144278Y0025940D01*
X0144233Y0025796D01*
X0144184Y0025654D01*
X0144131Y0025513D01*
X0144075Y0025373D01*
X0144015Y0025235D01*
X0143952Y0025098D01*
X0143884Y0024963D01*
X0143814Y0024830D01*
X0143740Y0024699D01*
X0143662Y0024570D01*
X0143581Y0024443D01*
X0143497Y0024318D01*
X0143409Y0024195D01*
X0143318Y0024075D01*
X0143224Y0023957D01*
X0143127Y0023842D01*
X0143027Y0023729D01*
X0142924Y0023619D01*
X0142818Y0023512D01*
X0142709Y0023407D01*
X0142598Y0023306D01*
X0142484Y0023207D01*
X0142368Y0023112D01*
X0142248Y0023019D01*
X0142127Y0022930D01*
X0142003Y0022844D01*
X0141877Y0022761D01*
X0141749Y0022682D01*
X0141619Y0022606D01*
X0141487Y0022533D01*
X0141353Y0022465D01*
X0141217Y0022399D01*
X0141079Y0022337D01*
X0140940Y0022279D01*
X0140800Y0022225D01*
X0140658Y0022174D01*
X0140515Y0022127D01*
X0140370Y0022084D01*
X0140225Y0022045D01*
X0140078Y0022009D01*
X0139931Y0021978D01*
X0139783Y0021950D01*
X0139634Y0021926D01*
X0139485Y0021906D01*
X0139335Y0021890D01*
X0139185Y0021878D01*
X0139034Y0021870D01*
X0138883Y0021866D01*
X0138733Y0021866D01*
X0138582Y0021870D01*
X0138431Y0021878D01*
X0138281Y0021890D01*
X0138131Y0021906D01*
X0137982Y0021926D01*
X0137833Y0021950D01*
X0137685Y0021978D01*
X0137538Y0022009D01*
X0137391Y0022045D01*
X0137246Y0022084D01*
X0137101Y0022127D01*
X0136958Y0022174D01*
X0136816Y0022225D01*
X0136676Y0022279D01*
X0136537Y0022337D01*
X0136399Y0022399D01*
X0136263Y0022465D01*
X0136129Y0022533D01*
X0135997Y0022606D01*
X0135867Y0022682D01*
X0135739Y0022761D01*
X0135613Y0022844D01*
X0135489Y0022930D01*
X0135368Y0023019D01*
X0135248Y0023112D01*
X0135132Y0023207D01*
X0135018Y0023306D01*
X0134907Y0023407D01*
X0134798Y0023512D01*
X0134692Y0023619D01*
X0134589Y0023729D01*
X0134489Y0023842D01*
X0134392Y0023957D01*
X0134298Y0024075D01*
X0134207Y0024195D01*
X0134119Y0024318D01*
X0134035Y0024443D01*
X0133954Y0024570D01*
X0133876Y0024699D01*
X0133802Y0024830D01*
X0133732Y0024963D01*
X0133664Y0025098D01*
X0133601Y0025235D01*
X0133541Y0025373D01*
X0133485Y0025513D01*
X0133432Y0025654D01*
X0133383Y0025796D01*
X0133338Y0025940D01*
X0133297Y0026085D01*
X0133259Y0026231D01*
X0133226Y0026378D01*
X0133196Y0026526D01*
X0133170Y0026674D01*
X0133149Y0026824D01*
X0133131Y0026973D01*
X0133117Y0027123D01*
X0133107Y0027274D01*
X0133101Y0027424D01*
X0133099Y0027575D01*
M02*
