G75*
%MOIN*%
%OFA0B0*%
%FSLAX25Y25*%
%IPPOS*%
%LPD*%
%AMOC8*
5,1,8,0,0,1.08239X$1,22.5*
%
%ADD10C,0.00000*%
%ADD11C,0.29528*%
%ADD12OC8,0.07400*%
%ADD13C,0.04400*%
%ADD14R,0.07400X0.07400*%
%ADD15C,0.07400*%
%ADD16R,0.06299X0.07087*%
%ADD17R,0.05906X0.05118*%
%ADD18R,0.07087X0.06299*%
%ADD19R,0.05118X0.02756*%
%ADD20R,0.02756X0.05118*%
%ADD21R,0.03150X0.04724*%
%ADD22R,0.04724X0.03150*%
%ADD23R,0.02953X0.01181*%
%ADD24R,0.09449X0.13780*%
%ADD25R,0.02362X0.03937*%
%ADD26R,0.04921X0.07087*%
%ADD27R,0.04724X0.02362*%
%ADD28R,0.04724X0.05512*%
%ADD29C,0.01000*%
%ADD30C,0.02978*%
%ADD31R,0.02978X0.02978*%
%ADD32C,0.01200*%
%ADD33C,0.02400*%
%ADD34C,0.02000*%
%ADD35C,0.06000*%
%ADD36C,0.01600*%
%ADD37C,0.00600*%
D10*
X0087864Y0091801D02*
X0091801Y0087864D01*
X0137077Y0087864D01*
X0137079Y0088054D01*
X0137086Y0088244D01*
X0137098Y0088434D01*
X0137114Y0088624D01*
X0137134Y0088813D01*
X0137160Y0089002D01*
X0137189Y0089190D01*
X0137224Y0089377D01*
X0137263Y0089563D01*
X0137306Y0089748D01*
X0137354Y0089933D01*
X0137406Y0090116D01*
X0137462Y0090297D01*
X0137523Y0090477D01*
X0137589Y0090656D01*
X0137658Y0090833D01*
X0137732Y0091009D01*
X0137810Y0091182D01*
X0137893Y0091354D01*
X0137979Y0091523D01*
X0138069Y0091691D01*
X0138164Y0091856D01*
X0138262Y0092019D01*
X0138365Y0092179D01*
X0138471Y0092337D01*
X0138581Y0092492D01*
X0138694Y0092645D01*
X0138812Y0092795D01*
X0138933Y0092941D01*
X0139057Y0093085D01*
X0139185Y0093226D01*
X0139316Y0093364D01*
X0139451Y0093499D01*
X0139589Y0093630D01*
X0139730Y0093758D01*
X0139874Y0093882D01*
X0140020Y0094003D01*
X0140170Y0094121D01*
X0140323Y0094234D01*
X0140478Y0094344D01*
X0140636Y0094450D01*
X0140796Y0094553D01*
X0140959Y0094651D01*
X0141124Y0094746D01*
X0141292Y0094836D01*
X0141461Y0094922D01*
X0141633Y0095005D01*
X0141806Y0095083D01*
X0141982Y0095157D01*
X0142159Y0095226D01*
X0142338Y0095292D01*
X0142518Y0095353D01*
X0142699Y0095409D01*
X0142882Y0095461D01*
X0143067Y0095509D01*
X0143252Y0095552D01*
X0143438Y0095591D01*
X0143625Y0095626D01*
X0143813Y0095655D01*
X0144002Y0095681D01*
X0144191Y0095701D01*
X0144381Y0095717D01*
X0144571Y0095729D01*
X0144761Y0095736D01*
X0144951Y0095738D01*
X0400856Y0095738D01*
X0401046Y0095736D01*
X0401236Y0095729D01*
X0401426Y0095717D01*
X0401616Y0095701D01*
X0401805Y0095681D01*
X0401994Y0095655D01*
X0402182Y0095626D01*
X0402369Y0095591D01*
X0402555Y0095552D01*
X0402740Y0095509D01*
X0402925Y0095461D01*
X0403108Y0095409D01*
X0403289Y0095353D01*
X0403469Y0095292D01*
X0403648Y0095226D01*
X0403825Y0095157D01*
X0404001Y0095083D01*
X0404174Y0095005D01*
X0404346Y0094922D01*
X0404515Y0094836D01*
X0404683Y0094746D01*
X0404848Y0094651D01*
X0405011Y0094553D01*
X0405171Y0094450D01*
X0405329Y0094344D01*
X0405484Y0094234D01*
X0405637Y0094121D01*
X0405787Y0094003D01*
X0405933Y0093882D01*
X0406077Y0093758D01*
X0406218Y0093630D01*
X0406356Y0093499D01*
X0406491Y0093364D01*
X0406622Y0093226D01*
X0406750Y0093085D01*
X0406874Y0092941D01*
X0406995Y0092795D01*
X0407113Y0092645D01*
X0407226Y0092492D01*
X0407336Y0092337D01*
X0407442Y0092179D01*
X0407545Y0092019D01*
X0407643Y0091856D01*
X0407738Y0091691D01*
X0407828Y0091523D01*
X0407914Y0091354D01*
X0407997Y0091182D01*
X0408075Y0091009D01*
X0408149Y0090833D01*
X0408218Y0090656D01*
X0408284Y0090477D01*
X0408345Y0090297D01*
X0408401Y0090116D01*
X0408453Y0089933D01*
X0408501Y0089748D01*
X0408544Y0089563D01*
X0408583Y0089377D01*
X0408618Y0089190D01*
X0408647Y0089002D01*
X0408673Y0088813D01*
X0408693Y0088624D01*
X0408709Y0088434D01*
X0408721Y0088244D01*
X0408728Y0088054D01*
X0408730Y0087864D01*
X0454006Y0087864D01*
X0457943Y0091801D01*
X0457943Y0137077D01*
X0457753Y0137079D01*
X0457563Y0137086D01*
X0457373Y0137098D01*
X0457183Y0137114D01*
X0456994Y0137134D01*
X0456805Y0137160D01*
X0456617Y0137189D01*
X0456430Y0137224D01*
X0456244Y0137263D01*
X0456059Y0137306D01*
X0455874Y0137354D01*
X0455691Y0137406D01*
X0455510Y0137462D01*
X0455330Y0137523D01*
X0455151Y0137589D01*
X0454974Y0137658D01*
X0454798Y0137732D01*
X0454625Y0137810D01*
X0454453Y0137893D01*
X0454284Y0137979D01*
X0454116Y0138069D01*
X0453951Y0138164D01*
X0453788Y0138262D01*
X0453628Y0138365D01*
X0453470Y0138471D01*
X0453315Y0138581D01*
X0453162Y0138694D01*
X0453012Y0138812D01*
X0452866Y0138933D01*
X0452722Y0139057D01*
X0452581Y0139185D01*
X0452443Y0139316D01*
X0452308Y0139451D01*
X0452177Y0139589D01*
X0452049Y0139730D01*
X0451925Y0139874D01*
X0451804Y0140020D01*
X0451686Y0140170D01*
X0451573Y0140323D01*
X0451463Y0140478D01*
X0451357Y0140636D01*
X0451254Y0140796D01*
X0451156Y0140959D01*
X0451061Y0141124D01*
X0450971Y0141292D01*
X0450885Y0141461D01*
X0450802Y0141633D01*
X0450724Y0141806D01*
X0450650Y0141982D01*
X0450581Y0142159D01*
X0450515Y0142338D01*
X0450454Y0142518D01*
X0450398Y0142699D01*
X0450346Y0142882D01*
X0450298Y0143067D01*
X0450255Y0143252D01*
X0450216Y0143438D01*
X0450181Y0143625D01*
X0450152Y0143813D01*
X0450126Y0144002D01*
X0450106Y0144191D01*
X0450090Y0144381D01*
X0450078Y0144571D01*
X0450071Y0144761D01*
X0450069Y0144951D01*
X0450069Y0400856D01*
X0450071Y0401046D01*
X0450078Y0401236D01*
X0450090Y0401426D01*
X0450106Y0401616D01*
X0450126Y0401805D01*
X0450152Y0401994D01*
X0450181Y0402182D01*
X0450216Y0402369D01*
X0450255Y0402555D01*
X0450298Y0402740D01*
X0450346Y0402925D01*
X0450398Y0403108D01*
X0450454Y0403289D01*
X0450515Y0403469D01*
X0450581Y0403648D01*
X0450650Y0403825D01*
X0450724Y0404001D01*
X0450802Y0404174D01*
X0450885Y0404346D01*
X0450971Y0404515D01*
X0451061Y0404683D01*
X0451156Y0404848D01*
X0451254Y0405011D01*
X0451357Y0405171D01*
X0451463Y0405329D01*
X0451573Y0405484D01*
X0451686Y0405637D01*
X0451804Y0405787D01*
X0451925Y0405933D01*
X0452049Y0406077D01*
X0452177Y0406218D01*
X0452308Y0406356D01*
X0452443Y0406491D01*
X0452581Y0406622D01*
X0452722Y0406750D01*
X0452866Y0406874D01*
X0453012Y0406995D01*
X0453162Y0407113D01*
X0453315Y0407226D01*
X0453470Y0407336D01*
X0453628Y0407442D01*
X0453788Y0407545D01*
X0453951Y0407643D01*
X0454116Y0407738D01*
X0454284Y0407828D01*
X0454453Y0407914D01*
X0454625Y0407997D01*
X0454798Y0408075D01*
X0454974Y0408149D01*
X0455151Y0408218D01*
X0455330Y0408284D01*
X0455510Y0408345D01*
X0455691Y0408401D01*
X0455874Y0408453D01*
X0456059Y0408501D01*
X0456244Y0408544D01*
X0456430Y0408583D01*
X0456617Y0408618D01*
X0456805Y0408647D01*
X0456994Y0408673D01*
X0457183Y0408693D01*
X0457373Y0408709D01*
X0457563Y0408721D01*
X0457753Y0408728D01*
X0457943Y0408730D01*
X0457943Y0454006D01*
X0454006Y0457943D01*
X0408730Y0457943D01*
X0408728Y0457753D01*
X0408721Y0457563D01*
X0408709Y0457373D01*
X0408693Y0457183D01*
X0408673Y0456994D01*
X0408647Y0456805D01*
X0408618Y0456617D01*
X0408583Y0456430D01*
X0408544Y0456244D01*
X0408501Y0456059D01*
X0408453Y0455874D01*
X0408401Y0455691D01*
X0408345Y0455510D01*
X0408284Y0455330D01*
X0408218Y0455151D01*
X0408149Y0454974D01*
X0408075Y0454798D01*
X0407997Y0454625D01*
X0407914Y0454453D01*
X0407828Y0454284D01*
X0407738Y0454116D01*
X0407643Y0453951D01*
X0407545Y0453788D01*
X0407442Y0453628D01*
X0407336Y0453470D01*
X0407226Y0453315D01*
X0407113Y0453162D01*
X0406995Y0453012D01*
X0406874Y0452866D01*
X0406750Y0452722D01*
X0406622Y0452581D01*
X0406491Y0452443D01*
X0406356Y0452308D01*
X0406218Y0452177D01*
X0406077Y0452049D01*
X0405933Y0451925D01*
X0405787Y0451804D01*
X0405637Y0451686D01*
X0405484Y0451573D01*
X0405329Y0451463D01*
X0405171Y0451357D01*
X0405011Y0451254D01*
X0404848Y0451156D01*
X0404683Y0451061D01*
X0404515Y0450971D01*
X0404346Y0450885D01*
X0404174Y0450802D01*
X0404001Y0450724D01*
X0403825Y0450650D01*
X0403648Y0450581D01*
X0403469Y0450515D01*
X0403289Y0450454D01*
X0403108Y0450398D01*
X0402925Y0450346D01*
X0402740Y0450298D01*
X0402555Y0450255D01*
X0402369Y0450216D01*
X0402182Y0450181D01*
X0401994Y0450152D01*
X0401805Y0450126D01*
X0401616Y0450106D01*
X0401426Y0450090D01*
X0401236Y0450078D01*
X0401046Y0450071D01*
X0400856Y0450069D01*
X0144951Y0450069D01*
X0144761Y0450071D01*
X0144571Y0450078D01*
X0144381Y0450090D01*
X0144191Y0450106D01*
X0144002Y0450126D01*
X0143813Y0450152D01*
X0143625Y0450181D01*
X0143438Y0450216D01*
X0143252Y0450255D01*
X0143067Y0450298D01*
X0142882Y0450346D01*
X0142699Y0450398D01*
X0142518Y0450454D01*
X0142338Y0450515D01*
X0142159Y0450581D01*
X0141982Y0450650D01*
X0141806Y0450724D01*
X0141633Y0450802D01*
X0141461Y0450885D01*
X0141292Y0450971D01*
X0141124Y0451061D01*
X0140959Y0451156D01*
X0140796Y0451254D01*
X0140636Y0451357D01*
X0140478Y0451463D01*
X0140323Y0451573D01*
X0140170Y0451686D01*
X0140020Y0451804D01*
X0139874Y0451925D01*
X0139730Y0452049D01*
X0139589Y0452177D01*
X0139451Y0452308D01*
X0139316Y0452443D01*
X0139185Y0452581D01*
X0139057Y0452722D01*
X0138933Y0452866D01*
X0138812Y0453012D01*
X0138694Y0453162D01*
X0138581Y0453315D01*
X0138471Y0453470D01*
X0138365Y0453628D01*
X0138262Y0453788D01*
X0138164Y0453951D01*
X0138069Y0454116D01*
X0137979Y0454284D01*
X0137893Y0454453D01*
X0137810Y0454625D01*
X0137732Y0454798D01*
X0137658Y0454974D01*
X0137589Y0455151D01*
X0137523Y0455330D01*
X0137462Y0455510D01*
X0137406Y0455691D01*
X0137354Y0455874D01*
X0137306Y0456059D01*
X0137263Y0456244D01*
X0137224Y0456430D01*
X0137189Y0456617D01*
X0137160Y0456805D01*
X0137134Y0456994D01*
X0137114Y0457183D01*
X0137098Y0457373D01*
X0137086Y0457563D01*
X0137079Y0457753D01*
X0137077Y0457943D01*
X0091801Y0457943D01*
X0087864Y0454006D01*
X0087864Y0408730D01*
X0088054Y0408728D01*
X0088244Y0408721D01*
X0088434Y0408709D01*
X0088624Y0408693D01*
X0088813Y0408673D01*
X0089002Y0408647D01*
X0089190Y0408618D01*
X0089377Y0408583D01*
X0089563Y0408544D01*
X0089748Y0408501D01*
X0089933Y0408453D01*
X0090116Y0408401D01*
X0090297Y0408345D01*
X0090477Y0408284D01*
X0090656Y0408218D01*
X0090833Y0408149D01*
X0091009Y0408075D01*
X0091182Y0407997D01*
X0091354Y0407914D01*
X0091523Y0407828D01*
X0091691Y0407738D01*
X0091856Y0407643D01*
X0092019Y0407545D01*
X0092179Y0407442D01*
X0092337Y0407336D01*
X0092492Y0407226D01*
X0092645Y0407113D01*
X0092795Y0406995D01*
X0092941Y0406874D01*
X0093085Y0406750D01*
X0093226Y0406622D01*
X0093364Y0406491D01*
X0093499Y0406356D01*
X0093630Y0406218D01*
X0093758Y0406077D01*
X0093882Y0405933D01*
X0094003Y0405787D01*
X0094121Y0405637D01*
X0094234Y0405484D01*
X0094344Y0405329D01*
X0094450Y0405171D01*
X0094553Y0405011D01*
X0094651Y0404848D01*
X0094746Y0404683D01*
X0094836Y0404515D01*
X0094922Y0404346D01*
X0095005Y0404174D01*
X0095083Y0404001D01*
X0095157Y0403825D01*
X0095226Y0403648D01*
X0095292Y0403469D01*
X0095353Y0403289D01*
X0095409Y0403108D01*
X0095461Y0402925D01*
X0095509Y0402740D01*
X0095552Y0402555D01*
X0095591Y0402369D01*
X0095626Y0402182D01*
X0095655Y0401994D01*
X0095681Y0401805D01*
X0095701Y0401616D01*
X0095717Y0401426D01*
X0095729Y0401236D01*
X0095736Y0401046D01*
X0095738Y0400856D01*
X0095738Y0144951D01*
X0095736Y0144761D01*
X0095729Y0144571D01*
X0095717Y0144381D01*
X0095701Y0144191D01*
X0095681Y0144002D01*
X0095655Y0143813D01*
X0095626Y0143625D01*
X0095591Y0143438D01*
X0095552Y0143252D01*
X0095509Y0143067D01*
X0095461Y0142882D01*
X0095409Y0142699D01*
X0095353Y0142518D01*
X0095292Y0142338D01*
X0095226Y0142159D01*
X0095157Y0141982D01*
X0095083Y0141806D01*
X0095005Y0141633D01*
X0094922Y0141461D01*
X0094836Y0141292D01*
X0094746Y0141124D01*
X0094651Y0140959D01*
X0094553Y0140796D01*
X0094450Y0140636D01*
X0094344Y0140478D01*
X0094234Y0140323D01*
X0094121Y0140170D01*
X0094003Y0140020D01*
X0093882Y0139874D01*
X0093758Y0139730D01*
X0093630Y0139589D01*
X0093499Y0139451D01*
X0093364Y0139316D01*
X0093226Y0139185D01*
X0093085Y0139057D01*
X0092941Y0138933D01*
X0092795Y0138812D01*
X0092645Y0138694D01*
X0092492Y0138581D01*
X0092337Y0138471D01*
X0092179Y0138365D01*
X0092019Y0138262D01*
X0091856Y0138164D01*
X0091691Y0138069D01*
X0091523Y0137979D01*
X0091354Y0137893D01*
X0091182Y0137810D01*
X0091009Y0137732D01*
X0090833Y0137658D01*
X0090656Y0137589D01*
X0090477Y0137523D01*
X0090297Y0137462D01*
X0090116Y0137406D01*
X0089933Y0137354D01*
X0089748Y0137306D01*
X0089563Y0137263D01*
X0089377Y0137224D01*
X0089190Y0137189D01*
X0089002Y0137160D01*
X0088813Y0137134D01*
X0088624Y0137114D01*
X0088434Y0137098D01*
X0088244Y0137086D01*
X0088054Y0137079D01*
X0087864Y0137077D01*
X0087864Y0091801D01*
X0217391Y0109596D02*
X0217393Y0109733D01*
X0217399Y0109870D01*
X0217409Y0110006D01*
X0217423Y0110142D01*
X0217441Y0110278D01*
X0217462Y0110413D01*
X0217488Y0110547D01*
X0217518Y0110681D01*
X0217551Y0110814D01*
X0217589Y0110945D01*
X0217630Y0111076D01*
X0217675Y0111205D01*
X0217723Y0111333D01*
X0217776Y0111460D01*
X0217832Y0111584D01*
X0217891Y0111708D01*
X0217955Y0111829D01*
X0218021Y0111948D01*
X0218091Y0112066D01*
X0218165Y0112181D01*
X0218242Y0112295D01*
X0218322Y0112406D01*
X0218405Y0112514D01*
X0218492Y0112620D01*
X0218581Y0112724D01*
X0218674Y0112825D01*
X0218769Y0112923D01*
X0218867Y0113018D01*
X0218968Y0113111D01*
X0219072Y0113200D01*
X0219178Y0113287D01*
X0219286Y0113370D01*
X0219397Y0113450D01*
X0219511Y0113527D01*
X0219626Y0113601D01*
X0219743Y0113671D01*
X0219863Y0113737D01*
X0219984Y0113801D01*
X0220108Y0113860D01*
X0220232Y0113916D01*
X0220359Y0113969D01*
X0220487Y0114017D01*
X0220616Y0114062D01*
X0220747Y0114103D01*
X0220878Y0114141D01*
X0221011Y0114174D01*
X0221145Y0114204D01*
X0221279Y0114230D01*
X0221414Y0114251D01*
X0221550Y0114269D01*
X0221686Y0114283D01*
X0221822Y0114293D01*
X0221959Y0114299D01*
X0222096Y0114301D01*
X0222233Y0114299D01*
X0222370Y0114293D01*
X0222506Y0114283D01*
X0222642Y0114269D01*
X0222778Y0114251D01*
X0222913Y0114230D01*
X0223047Y0114204D01*
X0223181Y0114174D01*
X0223314Y0114141D01*
X0223445Y0114103D01*
X0223576Y0114062D01*
X0223705Y0114017D01*
X0223833Y0113969D01*
X0223960Y0113916D01*
X0224084Y0113860D01*
X0224208Y0113801D01*
X0224329Y0113737D01*
X0224448Y0113671D01*
X0224566Y0113601D01*
X0224681Y0113527D01*
X0224795Y0113450D01*
X0224906Y0113370D01*
X0225014Y0113287D01*
X0225120Y0113200D01*
X0225224Y0113111D01*
X0225325Y0113018D01*
X0225423Y0112923D01*
X0225518Y0112825D01*
X0225611Y0112724D01*
X0225700Y0112620D01*
X0225787Y0112514D01*
X0225870Y0112406D01*
X0225950Y0112295D01*
X0226027Y0112181D01*
X0226101Y0112066D01*
X0226171Y0111948D01*
X0226237Y0111829D01*
X0226301Y0111708D01*
X0226360Y0111584D01*
X0226416Y0111460D01*
X0226469Y0111333D01*
X0226517Y0111205D01*
X0226562Y0111076D01*
X0226603Y0110945D01*
X0226641Y0110814D01*
X0226674Y0110681D01*
X0226704Y0110547D01*
X0226730Y0110413D01*
X0226751Y0110278D01*
X0226769Y0110142D01*
X0226783Y0110006D01*
X0226793Y0109870D01*
X0226799Y0109733D01*
X0226801Y0109596D01*
X0226799Y0109459D01*
X0226793Y0109322D01*
X0226783Y0109186D01*
X0226769Y0109050D01*
X0226751Y0108914D01*
X0226730Y0108779D01*
X0226704Y0108645D01*
X0226674Y0108511D01*
X0226641Y0108378D01*
X0226603Y0108247D01*
X0226562Y0108116D01*
X0226517Y0107987D01*
X0226469Y0107859D01*
X0226416Y0107732D01*
X0226360Y0107608D01*
X0226301Y0107484D01*
X0226237Y0107363D01*
X0226171Y0107243D01*
X0226101Y0107126D01*
X0226027Y0107011D01*
X0225950Y0106897D01*
X0225870Y0106786D01*
X0225787Y0106678D01*
X0225700Y0106572D01*
X0225611Y0106468D01*
X0225518Y0106367D01*
X0225423Y0106269D01*
X0225325Y0106174D01*
X0225224Y0106081D01*
X0225120Y0105992D01*
X0225014Y0105905D01*
X0224906Y0105822D01*
X0224795Y0105742D01*
X0224681Y0105665D01*
X0224566Y0105591D01*
X0224449Y0105521D01*
X0224329Y0105455D01*
X0224208Y0105391D01*
X0224084Y0105332D01*
X0223960Y0105276D01*
X0223833Y0105223D01*
X0223705Y0105175D01*
X0223576Y0105130D01*
X0223445Y0105089D01*
X0223314Y0105051D01*
X0223181Y0105018D01*
X0223047Y0104988D01*
X0222913Y0104962D01*
X0222778Y0104941D01*
X0222642Y0104923D01*
X0222506Y0104909D01*
X0222370Y0104899D01*
X0222233Y0104893D01*
X0222096Y0104891D01*
X0221959Y0104893D01*
X0221822Y0104899D01*
X0221686Y0104909D01*
X0221550Y0104923D01*
X0221414Y0104941D01*
X0221279Y0104962D01*
X0221145Y0104988D01*
X0221011Y0105018D01*
X0220878Y0105051D01*
X0220747Y0105089D01*
X0220616Y0105130D01*
X0220487Y0105175D01*
X0220359Y0105223D01*
X0220232Y0105276D01*
X0220108Y0105332D01*
X0219984Y0105391D01*
X0219863Y0105455D01*
X0219743Y0105521D01*
X0219626Y0105591D01*
X0219511Y0105665D01*
X0219397Y0105742D01*
X0219286Y0105822D01*
X0219178Y0105905D01*
X0219072Y0105992D01*
X0218968Y0106081D01*
X0218867Y0106174D01*
X0218769Y0106269D01*
X0218674Y0106367D01*
X0218581Y0106468D01*
X0218492Y0106572D01*
X0218405Y0106678D01*
X0218322Y0106786D01*
X0218242Y0106897D01*
X0218165Y0107011D01*
X0218091Y0107126D01*
X0218021Y0107243D01*
X0217955Y0107363D01*
X0217891Y0107484D01*
X0217832Y0107608D01*
X0217776Y0107732D01*
X0217723Y0107859D01*
X0217675Y0107987D01*
X0217630Y0108116D01*
X0217589Y0108247D01*
X0217551Y0108378D01*
X0217518Y0108511D01*
X0217488Y0108645D01*
X0217462Y0108779D01*
X0217441Y0108914D01*
X0217423Y0109050D01*
X0217409Y0109186D01*
X0217399Y0109322D01*
X0217393Y0109459D01*
X0217391Y0109596D01*
X0217391Y0196211D02*
X0217393Y0196348D01*
X0217399Y0196485D01*
X0217409Y0196621D01*
X0217423Y0196757D01*
X0217441Y0196893D01*
X0217462Y0197028D01*
X0217488Y0197162D01*
X0217518Y0197296D01*
X0217551Y0197429D01*
X0217589Y0197560D01*
X0217630Y0197691D01*
X0217675Y0197820D01*
X0217723Y0197948D01*
X0217776Y0198075D01*
X0217832Y0198199D01*
X0217891Y0198323D01*
X0217955Y0198444D01*
X0218021Y0198563D01*
X0218091Y0198681D01*
X0218165Y0198796D01*
X0218242Y0198910D01*
X0218322Y0199021D01*
X0218405Y0199129D01*
X0218492Y0199235D01*
X0218581Y0199339D01*
X0218674Y0199440D01*
X0218769Y0199538D01*
X0218867Y0199633D01*
X0218968Y0199726D01*
X0219072Y0199815D01*
X0219178Y0199902D01*
X0219286Y0199985D01*
X0219397Y0200065D01*
X0219511Y0200142D01*
X0219626Y0200216D01*
X0219743Y0200286D01*
X0219863Y0200352D01*
X0219984Y0200416D01*
X0220108Y0200475D01*
X0220232Y0200531D01*
X0220359Y0200584D01*
X0220487Y0200632D01*
X0220616Y0200677D01*
X0220747Y0200718D01*
X0220878Y0200756D01*
X0221011Y0200789D01*
X0221145Y0200819D01*
X0221279Y0200845D01*
X0221414Y0200866D01*
X0221550Y0200884D01*
X0221686Y0200898D01*
X0221822Y0200908D01*
X0221959Y0200914D01*
X0222096Y0200916D01*
X0222233Y0200914D01*
X0222370Y0200908D01*
X0222506Y0200898D01*
X0222642Y0200884D01*
X0222778Y0200866D01*
X0222913Y0200845D01*
X0223047Y0200819D01*
X0223181Y0200789D01*
X0223314Y0200756D01*
X0223445Y0200718D01*
X0223576Y0200677D01*
X0223705Y0200632D01*
X0223833Y0200584D01*
X0223960Y0200531D01*
X0224084Y0200475D01*
X0224208Y0200416D01*
X0224329Y0200352D01*
X0224448Y0200286D01*
X0224566Y0200216D01*
X0224681Y0200142D01*
X0224795Y0200065D01*
X0224906Y0199985D01*
X0225014Y0199902D01*
X0225120Y0199815D01*
X0225224Y0199726D01*
X0225325Y0199633D01*
X0225423Y0199538D01*
X0225518Y0199440D01*
X0225611Y0199339D01*
X0225700Y0199235D01*
X0225787Y0199129D01*
X0225870Y0199021D01*
X0225950Y0198910D01*
X0226027Y0198796D01*
X0226101Y0198681D01*
X0226171Y0198563D01*
X0226237Y0198444D01*
X0226301Y0198323D01*
X0226360Y0198199D01*
X0226416Y0198075D01*
X0226469Y0197948D01*
X0226517Y0197820D01*
X0226562Y0197691D01*
X0226603Y0197560D01*
X0226641Y0197429D01*
X0226674Y0197296D01*
X0226704Y0197162D01*
X0226730Y0197028D01*
X0226751Y0196893D01*
X0226769Y0196757D01*
X0226783Y0196621D01*
X0226793Y0196485D01*
X0226799Y0196348D01*
X0226801Y0196211D01*
X0226799Y0196074D01*
X0226793Y0195937D01*
X0226783Y0195801D01*
X0226769Y0195665D01*
X0226751Y0195529D01*
X0226730Y0195394D01*
X0226704Y0195260D01*
X0226674Y0195126D01*
X0226641Y0194993D01*
X0226603Y0194862D01*
X0226562Y0194731D01*
X0226517Y0194602D01*
X0226469Y0194474D01*
X0226416Y0194347D01*
X0226360Y0194223D01*
X0226301Y0194099D01*
X0226237Y0193978D01*
X0226171Y0193858D01*
X0226101Y0193741D01*
X0226027Y0193626D01*
X0225950Y0193512D01*
X0225870Y0193401D01*
X0225787Y0193293D01*
X0225700Y0193187D01*
X0225611Y0193083D01*
X0225518Y0192982D01*
X0225423Y0192884D01*
X0225325Y0192789D01*
X0225224Y0192696D01*
X0225120Y0192607D01*
X0225014Y0192520D01*
X0224906Y0192437D01*
X0224795Y0192357D01*
X0224681Y0192280D01*
X0224566Y0192206D01*
X0224449Y0192136D01*
X0224329Y0192070D01*
X0224208Y0192006D01*
X0224084Y0191947D01*
X0223960Y0191891D01*
X0223833Y0191838D01*
X0223705Y0191790D01*
X0223576Y0191745D01*
X0223445Y0191704D01*
X0223314Y0191666D01*
X0223181Y0191633D01*
X0223047Y0191603D01*
X0222913Y0191577D01*
X0222778Y0191556D01*
X0222642Y0191538D01*
X0222506Y0191524D01*
X0222370Y0191514D01*
X0222233Y0191508D01*
X0222096Y0191506D01*
X0221959Y0191508D01*
X0221822Y0191514D01*
X0221686Y0191524D01*
X0221550Y0191538D01*
X0221414Y0191556D01*
X0221279Y0191577D01*
X0221145Y0191603D01*
X0221011Y0191633D01*
X0220878Y0191666D01*
X0220747Y0191704D01*
X0220616Y0191745D01*
X0220487Y0191790D01*
X0220359Y0191838D01*
X0220232Y0191891D01*
X0220108Y0191947D01*
X0219984Y0192006D01*
X0219863Y0192070D01*
X0219743Y0192136D01*
X0219626Y0192206D01*
X0219511Y0192280D01*
X0219397Y0192357D01*
X0219286Y0192437D01*
X0219178Y0192520D01*
X0219072Y0192607D01*
X0218968Y0192696D01*
X0218867Y0192789D01*
X0218769Y0192884D01*
X0218674Y0192982D01*
X0218581Y0193083D01*
X0218492Y0193187D01*
X0218405Y0193293D01*
X0218322Y0193401D01*
X0218242Y0193512D01*
X0218165Y0193626D01*
X0218091Y0193741D01*
X0218021Y0193858D01*
X0217955Y0193978D01*
X0217891Y0194099D01*
X0217832Y0194223D01*
X0217776Y0194347D01*
X0217723Y0194474D01*
X0217675Y0194602D01*
X0217630Y0194731D01*
X0217589Y0194862D01*
X0217551Y0194993D01*
X0217518Y0195126D01*
X0217488Y0195260D01*
X0217462Y0195394D01*
X0217441Y0195529D01*
X0217423Y0195665D01*
X0217409Y0195801D01*
X0217399Y0195937D01*
X0217393Y0196074D01*
X0217391Y0196211D01*
X0176643Y0219833D02*
X0176645Y0219970D01*
X0176651Y0220107D01*
X0176661Y0220243D01*
X0176675Y0220379D01*
X0176693Y0220515D01*
X0176714Y0220650D01*
X0176740Y0220784D01*
X0176770Y0220918D01*
X0176803Y0221051D01*
X0176841Y0221182D01*
X0176882Y0221313D01*
X0176927Y0221442D01*
X0176975Y0221570D01*
X0177028Y0221697D01*
X0177084Y0221821D01*
X0177143Y0221945D01*
X0177207Y0222066D01*
X0177273Y0222185D01*
X0177343Y0222303D01*
X0177417Y0222418D01*
X0177494Y0222532D01*
X0177574Y0222643D01*
X0177657Y0222751D01*
X0177744Y0222857D01*
X0177833Y0222961D01*
X0177926Y0223062D01*
X0178021Y0223160D01*
X0178119Y0223255D01*
X0178220Y0223348D01*
X0178324Y0223437D01*
X0178430Y0223524D01*
X0178538Y0223607D01*
X0178649Y0223687D01*
X0178763Y0223764D01*
X0178878Y0223838D01*
X0178995Y0223908D01*
X0179115Y0223974D01*
X0179236Y0224038D01*
X0179360Y0224097D01*
X0179484Y0224153D01*
X0179611Y0224206D01*
X0179739Y0224254D01*
X0179868Y0224299D01*
X0179999Y0224340D01*
X0180130Y0224378D01*
X0180263Y0224411D01*
X0180397Y0224441D01*
X0180531Y0224467D01*
X0180666Y0224488D01*
X0180802Y0224506D01*
X0180938Y0224520D01*
X0181074Y0224530D01*
X0181211Y0224536D01*
X0181348Y0224538D01*
X0181485Y0224536D01*
X0181622Y0224530D01*
X0181758Y0224520D01*
X0181894Y0224506D01*
X0182030Y0224488D01*
X0182165Y0224467D01*
X0182299Y0224441D01*
X0182433Y0224411D01*
X0182566Y0224378D01*
X0182697Y0224340D01*
X0182828Y0224299D01*
X0182957Y0224254D01*
X0183085Y0224206D01*
X0183212Y0224153D01*
X0183336Y0224097D01*
X0183460Y0224038D01*
X0183581Y0223974D01*
X0183700Y0223908D01*
X0183818Y0223838D01*
X0183933Y0223764D01*
X0184047Y0223687D01*
X0184158Y0223607D01*
X0184266Y0223524D01*
X0184372Y0223437D01*
X0184476Y0223348D01*
X0184577Y0223255D01*
X0184675Y0223160D01*
X0184770Y0223062D01*
X0184863Y0222961D01*
X0184952Y0222857D01*
X0185039Y0222751D01*
X0185122Y0222643D01*
X0185202Y0222532D01*
X0185279Y0222418D01*
X0185353Y0222303D01*
X0185423Y0222185D01*
X0185489Y0222066D01*
X0185553Y0221945D01*
X0185612Y0221821D01*
X0185668Y0221697D01*
X0185721Y0221570D01*
X0185769Y0221442D01*
X0185814Y0221313D01*
X0185855Y0221182D01*
X0185893Y0221051D01*
X0185926Y0220918D01*
X0185956Y0220784D01*
X0185982Y0220650D01*
X0186003Y0220515D01*
X0186021Y0220379D01*
X0186035Y0220243D01*
X0186045Y0220107D01*
X0186051Y0219970D01*
X0186053Y0219833D01*
X0186051Y0219696D01*
X0186045Y0219559D01*
X0186035Y0219423D01*
X0186021Y0219287D01*
X0186003Y0219151D01*
X0185982Y0219016D01*
X0185956Y0218882D01*
X0185926Y0218748D01*
X0185893Y0218615D01*
X0185855Y0218484D01*
X0185814Y0218353D01*
X0185769Y0218224D01*
X0185721Y0218096D01*
X0185668Y0217969D01*
X0185612Y0217845D01*
X0185553Y0217721D01*
X0185489Y0217600D01*
X0185423Y0217480D01*
X0185353Y0217363D01*
X0185279Y0217248D01*
X0185202Y0217134D01*
X0185122Y0217023D01*
X0185039Y0216915D01*
X0184952Y0216809D01*
X0184863Y0216705D01*
X0184770Y0216604D01*
X0184675Y0216506D01*
X0184577Y0216411D01*
X0184476Y0216318D01*
X0184372Y0216229D01*
X0184266Y0216142D01*
X0184158Y0216059D01*
X0184047Y0215979D01*
X0183933Y0215902D01*
X0183818Y0215828D01*
X0183701Y0215758D01*
X0183581Y0215692D01*
X0183460Y0215628D01*
X0183336Y0215569D01*
X0183212Y0215513D01*
X0183085Y0215460D01*
X0182957Y0215412D01*
X0182828Y0215367D01*
X0182697Y0215326D01*
X0182566Y0215288D01*
X0182433Y0215255D01*
X0182299Y0215225D01*
X0182165Y0215199D01*
X0182030Y0215178D01*
X0181894Y0215160D01*
X0181758Y0215146D01*
X0181622Y0215136D01*
X0181485Y0215130D01*
X0181348Y0215128D01*
X0181211Y0215130D01*
X0181074Y0215136D01*
X0180938Y0215146D01*
X0180802Y0215160D01*
X0180666Y0215178D01*
X0180531Y0215199D01*
X0180397Y0215225D01*
X0180263Y0215255D01*
X0180130Y0215288D01*
X0179999Y0215326D01*
X0179868Y0215367D01*
X0179739Y0215412D01*
X0179611Y0215460D01*
X0179484Y0215513D01*
X0179360Y0215569D01*
X0179236Y0215628D01*
X0179115Y0215692D01*
X0178995Y0215758D01*
X0178878Y0215828D01*
X0178763Y0215902D01*
X0178649Y0215979D01*
X0178538Y0216059D01*
X0178430Y0216142D01*
X0178324Y0216229D01*
X0178220Y0216318D01*
X0178119Y0216411D01*
X0178021Y0216506D01*
X0177926Y0216604D01*
X0177833Y0216705D01*
X0177744Y0216809D01*
X0177657Y0216915D01*
X0177574Y0217023D01*
X0177494Y0217134D01*
X0177417Y0217248D01*
X0177343Y0217363D01*
X0177273Y0217480D01*
X0177207Y0217600D01*
X0177143Y0217721D01*
X0177084Y0217845D01*
X0177028Y0217969D01*
X0176975Y0218096D01*
X0176927Y0218224D01*
X0176882Y0218353D01*
X0176841Y0218484D01*
X0176803Y0218615D01*
X0176770Y0218748D01*
X0176740Y0218882D01*
X0176714Y0219016D01*
X0176693Y0219151D01*
X0176675Y0219287D01*
X0176661Y0219423D01*
X0176651Y0219559D01*
X0176645Y0219696D01*
X0176643Y0219833D01*
X0304006Y0196211D02*
X0304008Y0196348D01*
X0304014Y0196485D01*
X0304024Y0196621D01*
X0304038Y0196757D01*
X0304056Y0196893D01*
X0304077Y0197028D01*
X0304103Y0197162D01*
X0304133Y0197296D01*
X0304166Y0197429D01*
X0304204Y0197560D01*
X0304245Y0197691D01*
X0304290Y0197820D01*
X0304338Y0197948D01*
X0304391Y0198075D01*
X0304447Y0198199D01*
X0304506Y0198323D01*
X0304570Y0198444D01*
X0304636Y0198563D01*
X0304706Y0198681D01*
X0304780Y0198796D01*
X0304857Y0198910D01*
X0304937Y0199021D01*
X0305020Y0199129D01*
X0305107Y0199235D01*
X0305196Y0199339D01*
X0305289Y0199440D01*
X0305384Y0199538D01*
X0305482Y0199633D01*
X0305583Y0199726D01*
X0305687Y0199815D01*
X0305793Y0199902D01*
X0305901Y0199985D01*
X0306012Y0200065D01*
X0306126Y0200142D01*
X0306241Y0200216D01*
X0306358Y0200286D01*
X0306478Y0200352D01*
X0306599Y0200416D01*
X0306723Y0200475D01*
X0306847Y0200531D01*
X0306974Y0200584D01*
X0307102Y0200632D01*
X0307231Y0200677D01*
X0307362Y0200718D01*
X0307493Y0200756D01*
X0307626Y0200789D01*
X0307760Y0200819D01*
X0307894Y0200845D01*
X0308029Y0200866D01*
X0308165Y0200884D01*
X0308301Y0200898D01*
X0308437Y0200908D01*
X0308574Y0200914D01*
X0308711Y0200916D01*
X0308848Y0200914D01*
X0308985Y0200908D01*
X0309121Y0200898D01*
X0309257Y0200884D01*
X0309393Y0200866D01*
X0309528Y0200845D01*
X0309662Y0200819D01*
X0309796Y0200789D01*
X0309929Y0200756D01*
X0310060Y0200718D01*
X0310191Y0200677D01*
X0310320Y0200632D01*
X0310448Y0200584D01*
X0310575Y0200531D01*
X0310699Y0200475D01*
X0310823Y0200416D01*
X0310944Y0200352D01*
X0311063Y0200286D01*
X0311181Y0200216D01*
X0311296Y0200142D01*
X0311410Y0200065D01*
X0311521Y0199985D01*
X0311629Y0199902D01*
X0311735Y0199815D01*
X0311839Y0199726D01*
X0311940Y0199633D01*
X0312038Y0199538D01*
X0312133Y0199440D01*
X0312226Y0199339D01*
X0312315Y0199235D01*
X0312402Y0199129D01*
X0312485Y0199021D01*
X0312565Y0198910D01*
X0312642Y0198796D01*
X0312716Y0198681D01*
X0312786Y0198563D01*
X0312852Y0198444D01*
X0312916Y0198323D01*
X0312975Y0198199D01*
X0313031Y0198075D01*
X0313084Y0197948D01*
X0313132Y0197820D01*
X0313177Y0197691D01*
X0313218Y0197560D01*
X0313256Y0197429D01*
X0313289Y0197296D01*
X0313319Y0197162D01*
X0313345Y0197028D01*
X0313366Y0196893D01*
X0313384Y0196757D01*
X0313398Y0196621D01*
X0313408Y0196485D01*
X0313414Y0196348D01*
X0313416Y0196211D01*
X0313414Y0196074D01*
X0313408Y0195937D01*
X0313398Y0195801D01*
X0313384Y0195665D01*
X0313366Y0195529D01*
X0313345Y0195394D01*
X0313319Y0195260D01*
X0313289Y0195126D01*
X0313256Y0194993D01*
X0313218Y0194862D01*
X0313177Y0194731D01*
X0313132Y0194602D01*
X0313084Y0194474D01*
X0313031Y0194347D01*
X0312975Y0194223D01*
X0312916Y0194099D01*
X0312852Y0193978D01*
X0312786Y0193858D01*
X0312716Y0193741D01*
X0312642Y0193626D01*
X0312565Y0193512D01*
X0312485Y0193401D01*
X0312402Y0193293D01*
X0312315Y0193187D01*
X0312226Y0193083D01*
X0312133Y0192982D01*
X0312038Y0192884D01*
X0311940Y0192789D01*
X0311839Y0192696D01*
X0311735Y0192607D01*
X0311629Y0192520D01*
X0311521Y0192437D01*
X0311410Y0192357D01*
X0311296Y0192280D01*
X0311181Y0192206D01*
X0311064Y0192136D01*
X0310944Y0192070D01*
X0310823Y0192006D01*
X0310699Y0191947D01*
X0310575Y0191891D01*
X0310448Y0191838D01*
X0310320Y0191790D01*
X0310191Y0191745D01*
X0310060Y0191704D01*
X0309929Y0191666D01*
X0309796Y0191633D01*
X0309662Y0191603D01*
X0309528Y0191577D01*
X0309393Y0191556D01*
X0309257Y0191538D01*
X0309121Y0191524D01*
X0308985Y0191514D01*
X0308848Y0191508D01*
X0308711Y0191506D01*
X0308574Y0191508D01*
X0308437Y0191514D01*
X0308301Y0191524D01*
X0308165Y0191538D01*
X0308029Y0191556D01*
X0307894Y0191577D01*
X0307760Y0191603D01*
X0307626Y0191633D01*
X0307493Y0191666D01*
X0307362Y0191704D01*
X0307231Y0191745D01*
X0307102Y0191790D01*
X0306974Y0191838D01*
X0306847Y0191891D01*
X0306723Y0191947D01*
X0306599Y0192006D01*
X0306478Y0192070D01*
X0306358Y0192136D01*
X0306241Y0192206D01*
X0306126Y0192280D01*
X0306012Y0192357D01*
X0305901Y0192437D01*
X0305793Y0192520D01*
X0305687Y0192607D01*
X0305583Y0192696D01*
X0305482Y0192789D01*
X0305384Y0192884D01*
X0305289Y0192982D01*
X0305196Y0193083D01*
X0305107Y0193187D01*
X0305020Y0193293D01*
X0304937Y0193401D01*
X0304857Y0193512D01*
X0304780Y0193626D01*
X0304706Y0193741D01*
X0304636Y0193858D01*
X0304570Y0193978D01*
X0304506Y0194099D01*
X0304447Y0194223D01*
X0304391Y0194347D01*
X0304338Y0194474D01*
X0304290Y0194602D01*
X0304245Y0194731D01*
X0304204Y0194862D01*
X0304166Y0194993D01*
X0304133Y0195126D01*
X0304103Y0195260D01*
X0304077Y0195394D01*
X0304056Y0195529D01*
X0304038Y0195665D01*
X0304024Y0195801D01*
X0304014Y0195937D01*
X0304008Y0196074D01*
X0304006Y0196211D01*
X0304006Y0109596D02*
X0304008Y0109733D01*
X0304014Y0109870D01*
X0304024Y0110006D01*
X0304038Y0110142D01*
X0304056Y0110278D01*
X0304077Y0110413D01*
X0304103Y0110547D01*
X0304133Y0110681D01*
X0304166Y0110814D01*
X0304204Y0110945D01*
X0304245Y0111076D01*
X0304290Y0111205D01*
X0304338Y0111333D01*
X0304391Y0111460D01*
X0304447Y0111584D01*
X0304506Y0111708D01*
X0304570Y0111829D01*
X0304636Y0111948D01*
X0304706Y0112066D01*
X0304780Y0112181D01*
X0304857Y0112295D01*
X0304937Y0112406D01*
X0305020Y0112514D01*
X0305107Y0112620D01*
X0305196Y0112724D01*
X0305289Y0112825D01*
X0305384Y0112923D01*
X0305482Y0113018D01*
X0305583Y0113111D01*
X0305687Y0113200D01*
X0305793Y0113287D01*
X0305901Y0113370D01*
X0306012Y0113450D01*
X0306126Y0113527D01*
X0306241Y0113601D01*
X0306358Y0113671D01*
X0306478Y0113737D01*
X0306599Y0113801D01*
X0306723Y0113860D01*
X0306847Y0113916D01*
X0306974Y0113969D01*
X0307102Y0114017D01*
X0307231Y0114062D01*
X0307362Y0114103D01*
X0307493Y0114141D01*
X0307626Y0114174D01*
X0307760Y0114204D01*
X0307894Y0114230D01*
X0308029Y0114251D01*
X0308165Y0114269D01*
X0308301Y0114283D01*
X0308437Y0114293D01*
X0308574Y0114299D01*
X0308711Y0114301D01*
X0308848Y0114299D01*
X0308985Y0114293D01*
X0309121Y0114283D01*
X0309257Y0114269D01*
X0309393Y0114251D01*
X0309528Y0114230D01*
X0309662Y0114204D01*
X0309796Y0114174D01*
X0309929Y0114141D01*
X0310060Y0114103D01*
X0310191Y0114062D01*
X0310320Y0114017D01*
X0310448Y0113969D01*
X0310575Y0113916D01*
X0310699Y0113860D01*
X0310823Y0113801D01*
X0310944Y0113737D01*
X0311063Y0113671D01*
X0311181Y0113601D01*
X0311296Y0113527D01*
X0311410Y0113450D01*
X0311521Y0113370D01*
X0311629Y0113287D01*
X0311735Y0113200D01*
X0311839Y0113111D01*
X0311940Y0113018D01*
X0312038Y0112923D01*
X0312133Y0112825D01*
X0312226Y0112724D01*
X0312315Y0112620D01*
X0312402Y0112514D01*
X0312485Y0112406D01*
X0312565Y0112295D01*
X0312642Y0112181D01*
X0312716Y0112066D01*
X0312786Y0111948D01*
X0312852Y0111829D01*
X0312916Y0111708D01*
X0312975Y0111584D01*
X0313031Y0111460D01*
X0313084Y0111333D01*
X0313132Y0111205D01*
X0313177Y0111076D01*
X0313218Y0110945D01*
X0313256Y0110814D01*
X0313289Y0110681D01*
X0313319Y0110547D01*
X0313345Y0110413D01*
X0313366Y0110278D01*
X0313384Y0110142D01*
X0313398Y0110006D01*
X0313408Y0109870D01*
X0313414Y0109733D01*
X0313416Y0109596D01*
X0313414Y0109459D01*
X0313408Y0109322D01*
X0313398Y0109186D01*
X0313384Y0109050D01*
X0313366Y0108914D01*
X0313345Y0108779D01*
X0313319Y0108645D01*
X0313289Y0108511D01*
X0313256Y0108378D01*
X0313218Y0108247D01*
X0313177Y0108116D01*
X0313132Y0107987D01*
X0313084Y0107859D01*
X0313031Y0107732D01*
X0312975Y0107608D01*
X0312916Y0107484D01*
X0312852Y0107363D01*
X0312786Y0107243D01*
X0312716Y0107126D01*
X0312642Y0107011D01*
X0312565Y0106897D01*
X0312485Y0106786D01*
X0312402Y0106678D01*
X0312315Y0106572D01*
X0312226Y0106468D01*
X0312133Y0106367D01*
X0312038Y0106269D01*
X0311940Y0106174D01*
X0311839Y0106081D01*
X0311735Y0105992D01*
X0311629Y0105905D01*
X0311521Y0105822D01*
X0311410Y0105742D01*
X0311296Y0105665D01*
X0311181Y0105591D01*
X0311064Y0105521D01*
X0310944Y0105455D01*
X0310823Y0105391D01*
X0310699Y0105332D01*
X0310575Y0105276D01*
X0310448Y0105223D01*
X0310320Y0105175D01*
X0310191Y0105130D01*
X0310060Y0105089D01*
X0309929Y0105051D01*
X0309796Y0105018D01*
X0309662Y0104988D01*
X0309528Y0104962D01*
X0309393Y0104941D01*
X0309257Y0104923D01*
X0309121Y0104909D01*
X0308985Y0104899D01*
X0308848Y0104893D01*
X0308711Y0104891D01*
X0308574Y0104893D01*
X0308437Y0104899D01*
X0308301Y0104909D01*
X0308165Y0104923D01*
X0308029Y0104941D01*
X0307894Y0104962D01*
X0307760Y0104988D01*
X0307626Y0105018D01*
X0307493Y0105051D01*
X0307362Y0105089D01*
X0307231Y0105130D01*
X0307102Y0105175D01*
X0306974Y0105223D01*
X0306847Y0105276D01*
X0306723Y0105332D01*
X0306599Y0105391D01*
X0306478Y0105455D01*
X0306358Y0105521D01*
X0306241Y0105591D01*
X0306126Y0105665D01*
X0306012Y0105742D01*
X0305901Y0105822D01*
X0305793Y0105905D01*
X0305687Y0105992D01*
X0305583Y0106081D01*
X0305482Y0106174D01*
X0305384Y0106269D01*
X0305289Y0106367D01*
X0305196Y0106468D01*
X0305107Y0106572D01*
X0305020Y0106678D01*
X0304937Y0106786D01*
X0304857Y0106897D01*
X0304780Y0107011D01*
X0304706Y0107126D01*
X0304636Y0107243D01*
X0304570Y0107363D01*
X0304506Y0107484D01*
X0304447Y0107608D01*
X0304391Y0107732D01*
X0304338Y0107859D01*
X0304290Y0107987D01*
X0304245Y0108116D01*
X0304204Y0108247D01*
X0304166Y0108378D01*
X0304133Y0108511D01*
X0304103Y0108645D01*
X0304077Y0108779D01*
X0304056Y0108914D01*
X0304038Y0109050D01*
X0304024Y0109186D01*
X0304014Y0109322D01*
X0304008Y0109459D01*
X0304006Y0109596D01*
X0394557Y0219833D02*
X0394559Y0219970D01*
X0394565Y0220107D01*
X0394575Y0220243D01*
X0394589Y0220379D01*
X0394607Y0220515D01*
X0394628Y0220650D01*
X0394654Y0220784D01*
X0394684Y0220918D01*
X0394717Y0221051D01*
X0394755Y0221182D01*
X0394796Y0221313D01*
X0394841Y0221442D01*
X0394889Y0221570D01*
X0394942Y0221697D01*
X0394998Y0221821D01*
X0395057Y0221945D01*
X0395121Y0222066D01*
X0395187Y0222185D01*
X0395257Y0222303D01*
X0395331Y0222418D01*
X0395408Y0222532D01*
X0395488Y0222643D01*
X0395571Y0222751D01*
X0395658Y0222857D01*
X0395747Y0222961D01*
X0395840Y0223062D01*
X0395935Y0223160D01*
X0396033Y0223255D01*
X0396134Y0223348D01*
X0396238Y0223437D01*
X0396344Y0223524D01*
X0396452Y0223607D01*
X0396563Y0223687D01*
X0396677Y0223764D01*
X0396792Y0223838D01*
X0396909Y0223908D01*
X0397029Y0223974D01*
X0397150Y0224038D01*
X0397274Y0224097D01*
X0397398Y0224153D01*
X0397525Y0224206D01*
X0397653Y0224254D01*
X0397782Y0224299D01*
X0397913Y0224340D01*
X0398044Y0224378D01*
X0398177Y0224411D01*
X0398311Y0224441D01*
X0398445Y0224467D01*
X0398580Y0224488D01*
X0398716Y0224506D01*
X0398852Y0224520D01*
X0398988Y0224530D01*
X0399125Y0224536D01*
X0399262Y0224538D01*
X0399399Y0224536D01*
X0399536Y0224530D01*
X0399672Y0224520D01*
X0399808Y0224506D01*
X0399944Y0224488D01*
X0400079Y0224467D01*
X0400213Y0224441D01*
X0400347Y0224411D01*
X0400480Y0224378D01*
X0400611Y0224340D01*
X0400742Y0224299D01*
X0400871Y0224254D01*
X0400999Y0224206D01*
X0401126Y0224153D01*
X0401250Y0224097D01*
X0401374Y0224038D01*
X0401495Y0223974D01*
X0401614Y0223908D01*
X0401732Y0223838D01*
X0401847Y0223764D01*
X0401961Y0223687D01*
X0402072Y0223607D01*
X0402180Y0223524D01*
X0402286Y0223437D01*
X0402390Y0223348D01*
X0402491Y0223255D01*
X0402589Y0223160D01*
X0402684Y0223062D01*
X0402777Y0222961D01*
X0402866Y0222857D01*
X0402953Y0222751D01*
X0403036Y0222643D01*
X0403116Y0222532D01*
X0403193Y0222418D01*
X0403267Y0222303D01*
X0403337Y0222185D01*
X0403403Y0222066D01*
X0403467Y0221945D01*
X0403526Y0221821D01*
X0403582Y0221697D01*
X0403635Y0221570D01*
X0403683Y0221442D01*
X0403728Y0221313D01*
X0403769Y0221182D01*
X0403807Y0221051D01*
X0403840Y0220918D01*
X0403870Y0220784D01*
X0403896Y0220650D01*
X0403917Y0220515D01*
X0403935Y0220379D01*
X0403949Y0220243D01*
X0403959Y0220107D01*
X0403965Y0219970D01*
X0403967Y0219833D01*
X0403965Y0219696D01*
X0403959Y0219559D01*
X0403949Y0219423D01*
X0403935Y0219287D01*
X0403917Y0219151D01*
X0403896Y0219016D01*
X0403870Y0218882D01*
X0403840Y0218748D01*
X0403807Y0218615D01*
X0403769Y0218484D01*
X0403728Y0218353D01*
X0403683Y0218224D01*
X0403635Y0218096D01*
X0403582Y0217969D01*
X0403526Y0217845D01*
X0403467Y0217721D01*
X0403403Y0217600D01*
X0403337Y0217480D01*
X0403267Y0217363D01*
X0403193Y0217248D01*
X0403116Y0217134D01*
X0403036Y0217023D01*
X0402953Y0216915D01*
X0402866Y0216809D01*
X0402777Y0216705D01*
X0402684Y0216604D01*
X0402589Y0216506D01*
X0402491Y0216411D01*
X0402390Y0216318D01*
X0402286Y0216229D01*
X0402180Y0216142D01*
X0402072Y0216059D01*
X0401961Y0215979D01*
X0401847Y0215902D01*
X0401732Y0215828D01*
X0401615Y0215758D01*
X0401495Y0215692D01*
X0401374Y0215628D01*
X0401250Y0215569D01*
X0401126Y0215513D01*
X0400999Y0215460D01*
X0400871Y0215412D01*
X0400742Y0215367D01*
X0400611Y0215326D01*
X0400480Y0215288D01*
X0400347Y0215255D01*
X0400213Y0215225D01*
X0400079Y0215199D01*
X0399944Y0215178D01*
X0399808Y0215160D01*
X0399672Y0215146D01*
X0399536Y0215136D01*
X0399399Y0215130D01*
X0399262Y0215128D01*
X0399125Y0215130D01*
X0398988Y0215136D01*
X0398852Y0215146D01*
X0398716Y0215160D01*
X0398580Y0215178D01*
X0398445Y0215199D01*
X0398311Y0215225D01*
X0398177Y0215255D01*
X0398044Y0215288D01*
X0397913Y0215326D01*
X0397782Y0215367D01*
X0397653Y0215412D01*
X0397525Y0215460D01*
X0397398Y0215513D01*
X0397274Y0215569D01*
X0397150Y0215628D01*
X0397029Y0215692D01*
X0396909Y0215758D01*
X0396792Y0215828D01*
X0396677Y0215902D01*
X0396563Y0215979D01*
X0396452Y0216059D01*
X0396344Y0216142D01*
X0396238Y0216229D01*
X0396134Y0216318D01*
X0396033Y0216411D01*
X0395935Y0216506D01*
X0395840Y0216604D01*
X0395747Y0216705D01*
X0395658Y0216809D01*
X0395571Y0216915D01*
X0395488Y0217023D01*
X0395408Y0217134D01*
X0395331Y0217248D01*
X0395257Y0217363D01*
X0395187Y0217480D01*
X0395121Y0217600D01*
X0395057Y0217721D01*
X0394998Y0217845D01*
X0394942Y0217969D01*
X0394889Y0218096D01*
X0394841Y0218224D01*
X0394796Y0218353D01*
X0394755Y0218484D01*
X0394717Y0218615D01*
X0394684Y0218748D01*
X0394654Y0218882D01*
X0394628Y0219016D01*
X0394607Y0219151D01*
X0394589Y0219287D01*
X0394575Y0219423D01*
X0394565Y0219559D01*
X0394559Y0219696D01*
X0394557Y0219833D01*
D11*
X0428415Y0117392D03*
X0117392Y0117392D03*
X0117392Y0428415D03*
X0428415Y0428415D03*
D12*
X0397904Y0429415D03*
X0387904Y0428415D03*
X0387904Y0418415D03*
X0397904Y0419415D03*
X0397904Y0409415D03*
X0387904Y0408415D03*
X0397904Y0399415D03*
X0387904Y0398415D03*
X0377904Y0398415D03*
X0377904Y0408415D03*
X0377904Y0418415D03*
X0377904Y0428415D03*
X0367904Y0428415D03*
X0367904Y0418415D03*
X0367904Y0408415D03*
X0367904Y0398415D03*
X0357904Y0398415D03*
X0357904Y0408415D03*
X0357904Y0418415D03*
X0357904Y0428415D03*
X0347904Y0428415D03*
X0347904Y0418415D03*
X0347904Y0408415D03*
X0347904Y0398415D03*
X0337904Y0398415D03*
X0327904Y0398415D03*
X0327904Y0408415D03*
X0337904Y0408415D03*
X0337904Y0418415D03*
X0327904Y0418415D03*
X0327904Y0428415D03*
X0337904Y0428415D03*
X0317904Y0428415D03*
X0317904Y0418415D03*
X0317904Y0408415D03*
X0317904Y0398415D03*
X0307904Y0398415D03*
X0307904Y0408415D03*
X0307904Y0418415D03*
X0307904Y0428415D03*
X0297904Y0428415D03*
X0297904Y0418415D03*
X0297904Y0408415D03*
X0297904Y0398415D03*
X0287904Y0398415D03*
X0287904Y0408415D03*
X0287904Y0418415D03*
X0287904Y0428415D03*
X0277904Y0428415D03*
X0267904Y0428415D03*
X0267904Y0418415D03*
X0277904Y0418415D03*
X0277904Y0408415D03*
X0267904Y0408415D03*
X0267904Y0398415D03*
X0277904Y0398415D03*
X0257904Y0398415D03*
X0257904Y0408415D03*
X0257904Y0418415D03*
X0257904Y0428415D03*
X0247904Y0428415D03*
X0247904Y0418415D03*
X0247904Y0408415D03*
X0247904Y0398415D03*
X0237904Y0398415D03*
X0237904Y0408415D03*
X0237904Y0418415D03*
X0237904Y0428415D03*
X0227904Y0428415D03*
X0227904Y0418415D03*
X0227904Y0408415D03*
X0227904Y0398415D03*
X0217904Y0398415D03*
X0207904Y0398415D03*
X0207904Y0408415D03*
X0217904Y0408415D03*
X0217904Y0418415D03*
X0207904Y0418415D03*
X0207904Y0428415D03*
X0217904Y0428415D03*
X0197904Y0428415D03*
X0197904Y0418415D03*
X0197904Y0408415D03*
X0197904Y0398415D03*
X0187904Y0398415D03*
X0187904Y0408415D03*
X0187904Y0418415D03*
X0187904Y0428415D03*
X0177904Y0428415D03*
X0177904Y0418415D03*
X0177904Y0408415D03*
X0177904Y0398415D03*
X0167904Y0398415D03*
X0167904Y0408415D03*
X0167904Y0418415D03*
X0167904Y0428415D03*
X0157904Y0428415D03*
X0147904Y0429415D03*
X0147904Y0419415D03*
X0147904Y0409415D03*
X0157904Y0408415D03*
X0147904Y0399415D03*
X0157904Y0398415D03*
X0157904Y0418415D03*
D13*
X0111860Y0366900D03*
X0110876Y0351152D03*
X0124656Y0305876D03*
X0111860Y0303907D03*
X0106939Y0294065D03*
X0115797Y0284222D03*
X0106939Y0273396D03*
X0125640Y0266506D03*
X0142372Y0253711D03*
X0170915Y0247805D03*
X0175344Y0250266D03*
X0181742Y0238947D03*
X0220689Y0273396D03*
X0229547Y0284222D03*
X0220689Y0294065D03*
X0225610Y0303907D03*
X0238406Y0305876D03*
X0250217Y0305876D03*
X0261635Y0286767D03*
X0254154Y0282854D03*
X0267883Y0290389D03*
X0275404Y0295404D03*
X0282904Y0295404D03*
X0282697Y0303907D03*
X0283681Y0318671D03*
X0331939Y0294065D03*
X0336860Y0303907D03*
X0349656Y0305876D03*
X0361467Y0305876D03*
X0379133Y0290389D03*
X0372885Y0286767D03*
X0365404Y0282854D03*
X0350640Y0266506D03*
X0367372Y0253711D03*
X0395915Y0247805D03*
X0400344Y0250266D03*
X0406742Y0238947D03*
X0352116Y0225659D03*
X0342274Y0237963D03*
X0331939Y0273396D03*
X0340797Y0284222D03*
X0386654Y0295404D03*
X0394154Y0295404D03*
X0393947Y0303907D03*
X0394931Y0318671D03*
X0335876Y0351152D03*
X0336860Y0366900D03*
X0239390Y0266506D03*
X0256122Y0253711D03*
X0231024Y0237963D03*
X0240866Y0225659D03*
X0284665Y0247805D03*
X0289094Y0250266D03*
X0295492Y0238947D03*
X0224626Y0351152D03*
X0225610Y0366900D03*
X0169931Y0318671D03*
X0168947Y0303907D03*
X0169154Y0295404D03*
X0161654Y0295404D03*
X0154133Y0290389D03*
X0147885Y0286767D03*
X0140404Y0282854D03*
X0136467Y0305876D03*
X0117274Y0237963D03*
X0127116Y0225659D03*
D14*
X0191154Y0239154D03*
X0304904Y0239154D03*
X0416154Y0239154D03*
D15*
X0417154Y0249154D03*
X0416154Y0259154D03*
X0417154Y0269154D03*
X0416154Y0279154D03*
X0417154Y0289154D03*
X0416154Y0299154D03*
X0417154Y0309154D03*
X0427404Y0324154D03*
X0428404Y0334154D03*
X0437404Y0334154D03*
X0438404Y0344154D03*
X0427404Y0344154D03*
X0438404Y0324154D03*
X0327154Y0324154D03*
X0326154Y0334154D03*
X0317154Y0334154D03*
X0316154Y0344154D03*
X0327154Y0344154D03*
X0316154Y0324154D03*
X0305904Y0309154D03*
X0304904Y0299154D03*
X0305904Y0289154D03*
X0304904Y0279154D03*
X0305904Y0269154D03*
X0304904Y0259154D03*
X0305904Y0249154D03*
X0213404Y0324154D03*
X0212404Y0334154D03*
X0203404Y0334154D03*
X0202404Y0344154D03*
X0213404Y0344154D03*
X0202404Y0324154D03*
X0192154Y0309154D03*
X0191154Y0299154D03*
X0192154Y0289154D03*
X0191154Y0279154D03*
X0192154Y0269154D03*
X0191154Y0259154D03*
X0192154Y0249154D03*
D16*
X0187000Y0356760D03*
X0198024Y0356760D03*
X0199274Y0385510D03*
X0188250Y0385510D03*
X0302000Y0385510D03*
X0313024Y0385510D03*
X0311774Y0356760D03*
X0300750Y0356760D03*
X0412000Y0356760D03*
X0423024Y0356760D03*
X0424274Y0385510D03*
X0413250Y0385510D03*
D17*
X0416262Y0346750D03*
X0416262Y0339270D03*
X0372512Y0355520D03*
X0372512Y0363000D03*
X0332904Y0381663D03*
X0332904Y0389144D03*
X0305012Y0346750D03*
X0305012Y0339270D03*
X0261262Y0355520D03*
X0261262Y0363000D03*
X0191262Y0346750D03*
X0191262Y0339270D03*
X0147512Y0355520D03*
X0147512Y0363000D03*
D18*
X0137512Y0367272D03*
X0137512Y0356248D03*
X0251262Y0356248D03*
X0251262Y0367272D03*
X0362512Y0367272D03*
X0362512Y0356248D03*
D19*
X0322512Y0360530D03*
X0322512Y0368010D03*
X0322512Y0375490D03*
X0435012Y0374240D03*
X0435012Y0366760D03*
X0435012Y0359280D03*
X0209012Y0359280D03*
X0209012Y0366760D03*
X0209012Y0374240D03*
D20*
X0246282Y0389260D03*
X0253762Y0389260D03*
X0261243Y0389260D03*
X0360032Y0389260D03*
X0367512Y0389260D03*
X0374993Y0389260D03*
X0147493Y0389260D03*
X0140012Y0389260D03*
X0132532Y0389260D03*
D21*
X0128556Y0383010D03*
X0121469Y0383010D03*
X0122306Y0373010D03*
X0115219Y0373010D03*
X0152754Y0389262D03*
X0159840Y0389262D03*
X0165717Y0389545D03*
X0172803Y0389545D03*
X0195219Y0375510D03*
X0197306Y0366760D03*
X0202306Y0375510D03*
X0190219Y0366760D03*
X0228969Y0373010D03*
X0236056Y0373010D03*
X0235219Y0383010D03*
X0242306Y0383010D03*
X0266754Y0389262D03*
X0273840Y0389262D03*
X0279467Y0389545D03*
X0286553Y0389545D03*
X0308969Y0375510D03*
X0316056Y0375510D03*
X0311056Y0366760D03*
X0303969Y0366760D03*
X0340219Y0373010D03*
X0347306Y0373010D03*
X0346469Y0383010D03*
X0353556Y0383010D03*
X0380504Y0389262D03*
X0387590Y0389262D03*
X0393217Y0389545D03*
X0400303Y0389545D03*
X0420219Y0375510D03*
X0422306Y0366760D03*
X0415219Y0366760D03*
X0427306Y0375510D03*
X0368947Y0324154D03*
X0361860Y0324154D03*
X0265197Y0315404D03*
X0258110Y0315404D03*
X0151447Y0324154D03*
X0144360Y0324154D03*
D22*
X0127512Y0355717D03*
X0127512Y0362803D03*
X0119154Y0399360D03*
X0112404Y0399360D03*
X0112404Y0406447D03*
X0119154Y0406447D03*
X0136654Y0413110D03*
X0136654Y0420197D03*
X0210510Y0385588D03*
X0210510Y0378502D03*
X0241262Y0362803D03*
X0241262Y0355717D03*
X0324260Y0379752D03*
X0324260Y0386838D03*
X0352512Y0362803D03*
X0352512Y0355717D03*
X0409404Y0409860D03*
X0409404Y0416947D03*
X0428154Y0405197D03*
X0434904Y0407697D03*
X0434904Y0400610D03*
X0428154Y0398110D03*
X0435510Y0385588D03*
X0435510Y0378502D03*
D23*
X0405278Y0379368D03*
X0405278Y0376809D03*
X0405278Y0374250D03*
X0405278Y0371691D03*
X0405278Y0369132D03*
X0405278Y0366573D03*
X0405278Y0364014D03*
X0405278Y0361455D03*
X0405278Y0358896D03*
X0405278Y0356337D03*
X0382247Y0356337D03*
X0382247Y0358896D03*
X0382247Y0361455D03*
X0382247Y0364014D03*
X0382247Y0366573D03*
X0382247Y0369132D03*
X0382247Y0371691D03*
X0382247Y0374250D03*
X0382247Y0376809D03*
X0382247Y0379368D03*
X0382247Y0381927D03*
X0382247Y0384486D03*
X0405278Y0384486D03*
X0405278Y0381927D03*
X0294028Y0381927D03*
X0294028Y0379368D03*
X0294028Y0376809D03*
X0294028Y0374250D03*
X0294028Y0371691D03*
X0294028Y0369132D03*
X0294028Y0366573D03*
X0294028Y0364014D03*
X0294028Y0361455D03*
X0294028Y0358896D03*
X0294028Y0356337D03*
X0270997Y0356337D03*
X0270997Y0358896D03*
X0270997Y0361455D03*
X0270997Y0364014D03*
X0270997Y0366573D03*
X0270997Y0369132D03*
X0270997Y0371691D03*
X0270997Y0374250D03*
X0270997Y0376809D03*
X0270997Y0379368D03*
X0270997Y0381927D03*
X0270997Y0384486D03*
X0294028Y0384486D03*
X0180278Y0384486D03*
X0180278Y0381927D03*
X0180278Y0379368D03*
X0180278Y0376809D03*
X0180278Y0374250D03*
X0180278Y0371691D03*
X0180278Y0369132D03*
X0180278Y0366573D03*
X0180278Y0364014D03*
X0180278Y0361455D03*
X0180278Y0358896D03*
X0180278Y0356337D03*
X0157247Y0356337D03*
X0157247Y0358896D03*
X0157247Y0361455D03*
X0157247Y0364014D03*
X0157247Y0366573D03*
X0157247Y0369132D03*
X0157247Y0371691D03*
X0157247Y0374250D03*
X0157247Y0376809D03*
X0157247Y0379368D03*
X0157247Y0381927D03*
X0157247Y0384486D03*
D24*
X0168762Y0370510D03*
X0282512Y0370510D03*
X0393762Y0370510D03*
D25*
X0391607Y0346760D03*
X0397512Y0346760D03*
X0385701Y0346760D03*
X0379796Y0346760D03*
X0373890Y0346760D03*
X0367985Y0346760D03*
X0362079Y0346760D03*
X0356174Y0346760D03*
X0286262Y0346760D03*
X0280357Y0346760D03*
X0274451Y0346760D03*
X0268546Y0346760D03*
X0262640Y0346760D03*
X0256735Y0346760D03*
X0250829Y0346760D03*
X0244924Y0346760D03*
X0172512Y0346760D03*
X0166607Y0346760D03*
X0160701Y0346760D03*
X0154796Y0346760D03*
X0148890Y0346760D03*
X0142985Y0346760D03*
X0137079Y0346760D03*
X0131174Y0346760D03*
D26*
X0122099Y0326288D03*
X0182768Y0326288D03*
X0235849Y0326288D03*
X0296518Y0326288D03*
X0347099Y0326288D03*
X0407768Y0326288D03*
D27*
X0411339Y0397913D03*
X0411339Y0401654D03*
X0411339Y0405394D03*
X0421969Y0405394D03*
X0421969Y0397913D03*
X0135719Y0399163D03*
X0135719Y0402904D03*
X0135719Y0406644D03*
X0125089Y0406644D03*
X0125089Y0399163D03*
D28*
X0141998Y0331654D03*
X0153809Y0331654D03*
X0251998Y0324154D03*
X0263809Y0324154D03*
X0364498Y0332904D03*
X0376309Y0332904D03*
D29*
X0381654Y0332904D01*
X0391654Y0332904D01*
X0415404Y0309154D01*
X0417154Y0309154D01*
X0411654Y0310358D02*
X0411654Y0301654D01*
X0414154Y0299154D01*
X0416154Y0299154D01*
X0407904Y0304154D02*
X0405404Y0304154D01*
X0407904Y0304154D02*
X0407904Y0267404D01*
X0416154Y0259154D01*
X0417154Y0269154D02*
X0409854Y0276454D01*
X0409854Y0307904D01*
X0407904Y0307904D01*
X0411654Y0310358D02*
X0392858Y0329154D01*
X0381681Y0329154D01*
X0381654Y0329126D01*
X0368947Y0328455D02*
X0368947Y0324154D01*
X0368947Y0328455D02*
X0364498Y0332904D01*
X0355404Y0332904D02*
X0335404Y0332904D01*
X0331654Y0329154D01*
X0315082Y0329154D01*
X0313132Y0331104D01*
X0299658Y0331104D01*
X0298979Y0331782D01*
X0287253Y0331782D01*
X0283342Y0335693D01*
X0269248Y0335693D01*
X0269116Y0335560D01*
X0266856Y0335560D01*
X0266149Y0334854D01*
X0252354Y0334854D01*
X0246654Y0329154D01*
X0245404Y0329154D01*
X0248336Y0327448D02*
X0249097Y0328209D01*
X0252548Y0328209D01*
X0254154Y0329815D01*
X0251998Y0324154D02*
X0257086Y0319066D01*
X0260224Y0319066D01*
X0263886Y0315404D01*
X0265197Y0315404D01*
X0258110Y0315404D02*
X0253416Y0320098D01*
X0249097Y0320098D01*
X0248336Y0320859D01*
X0248336Y0327448D01*
X0245404Y0319154D02*
X0256634Y0307923D01*
X0291249Y0307923D01*
X0294154Y0304154D02*
X0296654Y0304154D01*
X0296654Y0267404D01*
X0304904Y0259154D01*
X0305904Y0249154D02*
X0294854Y0260204D01*
X0294854Y0299154D01*
X0292904Y0299154D01*
X0292904Y0294154D02*
X0290404Y0294154D01*
X0292904Y0294154D02*
X0292904Y0251154D01*
X0304904Y0239154D01*
X0305904Y0269154D02*
X0298604Y0276454D01*
X0298604Y0307904D01*
X0296654Y0307904D01*
X0300404Y0310358D02*
X0300404Y0301654D01*
X0302904Y0299154D01*
X0304904Y0299154D01*
X0304154Y0309154D02*
X0280404Y0332904D01*
X0270404Y0332904D01*
X0266654Y0332904D01*
X0266654Y0326998D01*
X0263809Y0324154D01*
X0270404Y0329126D02*
X0270431Y0329154D01*
X0281608Y0329154D01*
X0300404Y0310358D01*
X0304154Y0309154D02*
X0305904Y0309154D01*
X0306262Y0335510D02*
X0306262Y0338010D01*
X0305007Y0339265D01*
X0305012Y0339270D01*
X0305007Y0339265D02*
X0303762Y0338020D01*
X0303762Y0335510D01*
X0292904Y0334571D02*
X0291915Y0333582D01*
X0287998Y0333582D01*
X0282870Y0338710D01*
X0270574Y0338710D01*
X0270285Y0338421D01*
X0267171Y0338421D01*
X0265404Y0336654D01*
X0249154Y0336654D01*
X0250404Y0343399D02*
X0250829Y0343825D01*
X0250829Y0346760D01*
X0254181Y0343399D02*
X0256735Y0345952D01*
X0256735Y0346760D01*
X0252512Y0351760D02*
X0252512Y0354998D01*
X0251262Y0356248D01*
X0250012Y0354998D01*
X0250012Y0351760D01*
X0244924Y0346760D02*
X0244207Y0346043D01*
X0239143Y0346043D01*
X0238382Y0345282D01*
X0238382Y0334632D01*
X0237709Y0333959D01*
X0241262Y0340510D02*
X0241262Y0343163D01*
X0241170Y0343254D01*
X0220404Y0346770D02*
X0220404Y0319154D01*
X0215404Y0314154D01*
X0215404Y0257904D01*
X0209154Y0251654D01*
X0206365Y0250498D02*
X0212709Y0244154D01*
X0212904Y0244154D01*
X0206365Y0250498D02*
X0206365Y0259415D01*
X0213604Y0266654D01*
X0213604Y0317282D01*
X0218404Y0322082D01*
X0218404Y0346225D01*
X0214154Y0350475D01*
X0214154Y0373848D01*
X0217562Y0377256D01*
X0217562Y0386135D01*
X0222904Y0391477D01*
X0222904Y0400486D01*
X0225832Y0403415D01*
X0240741Y0403415D01*
X0242904Y0405578D01*
X0242904Y0410486D01*
X0245832Y0413415D01*
X0269975Y0413415D01*
X0272904Y0410486D01*
X0272904Y0405578D01*
X0275066Y0403415D01*
X0279975Y0403415D01*
X0284975Y0398415D01*
X0287904Y0398415D01*
X0277904Y0398415D02*
X0272904Y0398415D01*
X0272904Y0400486D01*
X0269975Y0403415D01*
X0245832Y0403415D01*
X0242904Y0400486D01*
X0242904Y0394203D01*
X0241541Y0392840D01*
X0226813Y0392840D01*
X0219362Y0385390D01*
X0219362Y0376511D01*
X0215954Y0373102D01*
X0215954Y0351220D01*
X0220404Y0346770D01*
X0210262Y0356760D02*
X0210262Y0358030D01*
X0209012Y0359280D01*
X0207762Y0358030D01*
X0207762Y0356760D01*
X0202512Y0355510D02*
X0200012Y0355510D01*
X0198393Y0357129D01*
X0198024Y0356760D01*
X0198393Y0357129D02*
X0199274Y0358010D01*
X0202512Y0358010D01*
X0201262Y0365510D02*
X0201211Y0365604D01*
X0201156Y0365697D01*
X0201098Y0365787D01*
X0201037Y0365875D01*
X0200973Y0365960D01*
X0200905Y0366044D01*
X0200835Y0366124D01*
X0200761Y0366202D01*
X0200685Y0366278D01*
X0200606Y0366350D01*
X0200525Y0366420D01*
X0200441Y0366487D01*
X0200355Y0366550D01*
X0200266Y0366610D01*
X0200176Y0366667D01*
X0200083Y0366721D01*
X0199988Y0366771D01*
X0199892Y0366818D01*
X0199794Y0366861D01*
X0199694Y0366901D01*
X0199593Y0366937D01*
X0199491Y0366969D01*
X0199388Y0366998D01*
X0199284Y0367023D01*
X0199179Y0367043D01*
X0199073Y0367061D01*
X0198967Y0367074D01*
X0198860Y0367083D01*
X0198753Y0367088D01*
X0198646Y0367090D01*
X0198539Y0367088D01*
X0198432Y0367081D01*
X0198325Y0367071D01*
X0198219Y0367057D01*
X0198113Y0367039D01*
X0198008Y0367017D01*
X0197904Y0366992D01*
X0197801Y0366962D01*
X0197699Y0366929D01*
X0197599Y0366892D01*
X0197499Y0366852D01*
X0197402Y0366808D01*
X0197306Y0366760D01*
X0198752Y0368010D01*
X0201262Y0368010D01*
X0200524Y0384260D02*
X0203762Y0384260D01*
X0203762Y0386760D02*
X0200524Y0386760D01*
X0199274Y0385510D01*
X0200524Y0384260D01*
X0182030Y0388777D02*
X0180278Y0387026D01*
X0180278Y0381927D02*
X0177630Y0381927D01*
X0175404Y0384154D01*
X0177918Y0376809D02*
X0176513Y0375404D01*
X0177918Y0376809D02*
X0180278Y0376809D01*
X0171262Y0375510D02*
X0168762Y0373010D01*
X0166262Y0375510D01*
X0166262Y0373010D02*
X0168762Y0370510D01*
X0168762Y0365510D01*
X0168762Y0368010D01*
X0168762Y0370510D01*
X0168762Y0373010D01*
X0168762Y0370510D02*
X0168762Y0375510D01*
X0171262Y0373010D02*
X0168762Y0370510D01*
X0166262Y0370510D01*
X0168762Y0370510D02*
X0166262Y0368010D01*
X0168762Y0368010D02*
X0166262Y0365510D01*
X0168762Y0368010D02*
X0171262Y0365510D01*
X0171262Y0368010D02*
X0168762Y0370510D01*
X0171262Y0370510D01*
X0161262Y0374260D02*
X0161262Y0377904D01*
X0161262Y0387840D01*
X0159840Y0389262D01*
X0150012Y0390510D02*
X0148743Y0390510D01*
X0147493Y0389260D01*
X0148743Y0388010D01*
X0150012Y0388010D01*
X0161262Y0379260D02*
X0161262Y0377904D01*
X0138762Y0354998D02*
X0137512Y0356248D01*
X0136262Y0354998D01*
X0136262Y0351760D01*
X0138762Y0351760D02*
X0138762Y0354998D01*
X0127420Y0343871D02*
X0127420Y0339504D01*
X0141998Y0331654D02*
X0146852Y0331654D01*
X0150908Y0335709D01*
X0156710Y0335709D01*
X0160766Y0331654D01*
X0171654Y0331654D01*
X0175404Y0327904D01*
X0175404Y0324154D01*
X0187904Y0311654D01*
X0189654Y0311654D01*
X0192154Y0309154D01*
X0190404Y0309154D01*
X0186654Y0310358D02*
X0186654Y0301654D01*
X0189154Y0299154D01*
X0191154Y0299154D01*
X0182904Y0304154D02*
X0180404Y0304154D01*
X0182904Y0304154D02*
X0182904Y0267404D01*
X0191154Y0259154D01*
X0192154Y0269154D02*
X0184854Y0276454D01*
X0184854Y0307904D01*
X0181654Y0307904D01*
X0177499Y0307923D02*
X0142884Y0307923D01*
X0131654Y0319154D01*
X0141654Y0325404D02*
X0143110Y0325404D01*
X0144360Y0324154D01*
X0151447Y0324154D02*
X0153809Y0326516D01*
X0153809Y0331654D01*
X0156681Y0322904D02*
X0174108Y0322904D01*
X0186654Y0310358D01*
X0181104Y0299154D02*
X0179154Y0299154D01*
X0181104Y0299154D02*
X0181104Y0260204D01*
X0192154Y0249154D01*
X0191154Y0239154D02*
X0179154Y0251154D01*
X0179154Y0294154D01*
X0176654Y0294154D01*
X0156654Y0322876D02*
X0156681Y0322904D01*
X0180780Y0347527D02*
X0181445Y0348193D01*
X0186559Y0348193D01*
X0188001Y0346750D01*
X0191262Y0346750D01*
X0191262Y0339270D02*
X0191257Y0339265D01*
X0192512Y0338010D01*
X0192512Y0335510D01*
X0190012Y0335510D02*
X0190012Y0338020D01*
X0191257Y0339265D01*
X0180012Y0351760D02*
X0178762Y0351760D01*
X0176262Y0351760D01*
X0227968Y0390051D02*
X0241298Y0390051D01*
X0244366Y0393119D01*
X0262607Y0393119D01*
X0267904Y0398415D01*
X0263762Y0390010D02*
X0262493Y0390510D01*
X0261243Y0389260D01*
X0262493Y0388010D01*
X0263762Y0387510D01*
X0273840Y0389262D02*
X0275012Y0388090D01*
X0275012Y0379154D01*
X0275012Y0379260D01*
X0275012Y0379154D02*
X0275012Y0374260D01*
X0280012Y0373010D02*
X0282512Y0370510D01*
X0282512Y0365510D01*
X0282512Y0368010D01*
X0282512Y0370510D01*
X0282512Y0373010D01*
X0280012Y0375510D01*
X0282512Y0375510D02*
X0282512Y0370510D01*
X0285012Y0373010D01*
X0282512Y0373010D02*
X0285012Y0375510D01*
X0285012Y0370510D02*
X0282512Y0370510D01*
X0280012Y0370510D01*
X0282512Y0370510D02*
X0280012Y0368010D01*
X0282512Y0368010D02*
X0280012Y0365510D01*
X0282512Y0368010D02*
X0285012Y0365510D01*
X0285012Y0368010D02*
X0282512Y0370510D01*
X0290263Y0375404D02*
X0291668Y0376809D01*
X0294028Y0376809D01*
X0294028Y0381927D02*
X0291380Y0381927D01*
X0289154Y0384154D01*
X0294028Y0387026D02*
X0295780Y0388777D01*
X0313024Y0385510D02*
X0314274Y0384260D01*
X0317512Y0384260D01*
X0317512Y0386760D02*
X0314274Y0386760D01*
X0313024Y0385510D01*
X0312502Y0368010D02*
X0311056Y0366760D01*
X0312502Y0368010D02*
X0315012Y0368010D01*
X0315012Y0365510D02*
X0314961Y0365604D01*
X0314906Y0365697D01*
X0314848Y0365787D01*
X0314787Y0365875D01*
X0314723Y0365960D01*
X0314655Y0366044D01*
X0314585Y0366124D01*
X0314511Y0366202D01*
X0314435Y0366278D01*
X0314356Y0366350D01*
X0314275Y0366420D01*
X0314191Y0366487D01*
X0314105Y0366550D01*
X0314016Y0366610D01*
X0313926Y0366667D01*
X0313833Y0366721D01*
X0313738Y0366771D01*
X0313642Y0366818D01*
X0313544Y0366861D01*
X0313444Y0366901D01*
X0313343Y0366937D01*
X0313241Y0366969D01*
X0313138Y0366998D01*
X0313034Y0367023D01*
X0312929Y0367043D01*
X0312823Y0367061D01*
X0312717Y0367074D01*
X0312610Y0367083D01*
X0312503Y0367088D01*
X0312396Y0367090D01*
X0312289Y0367088D01*
X0312182Y0367081D01*
X0312075Y0367071D01*
X0311969Y0367057D01*
X0311863Y0367039D01*
X0311758Y0367017D01*
X0311654Y0366992D01*
X0311551Y0366962D01*
X0311449Y0366929D01*
X0311349Y0366892D01*
X0311249Y0366852D01*
X0311152Y0366808D01*
X0311056Y0366760D01*
X0313024Y0358010D02*
X0312143Y0357129D01*
X0313762Y0355510D01*
X0316262Y0355510D01*
X0316262Y0358010D02*
X0313024Y0358010D01*
X0312143Y0357129D02*
X0311774Y0356760D01*
X0321262Y0358010D02*
X0321262Y0359280D01*
X0322512Y0360530D01*
X0323762Y0359280D01*
X0323762Y0358010D01*
X0298762Y0351760D02*
X0287512Y0340510D01*
X0269829Y0340510D01*
X0269540Y0340221D01*
X0263086Y0340221D01*
X0262512Y0340795D01*
X0262512Y0340510D01*
X0292512Y0351760D02*
X0293762Y0351760D01*
X0352420Y0339504D02*
X0352420Y0339352D01*
X0352512Y0339260D01*
X0356174Y0346760D02*
X0357005Y0346760D01*
X0361262Y0342503D01*
X0362079Y0345865D02*
X0365040Y0342904D01*
X0367985Y0344072D02*
X0369154Y0342904D01*
X0367985Y0344072D02*
X0367985Y0346760D01*
X0362079Y0346760D02*
X0362079Y0345865D01*
X0361262Y0351760D02*
X0361262Y0354998D01*
X0362512Y0356248D01*
X0363762Y0354998D01*
X0363762Y0351760D01*
X0386262Y0374260D02*
X0386262Y0377904D01*
X0386262Y0387934D01*
X0387590Y0389262D01*
X0386262Y0379260D02*
X0386262Y0377904D01*
X0391262Y0375510D02*
X0393762Y0373010D01*
X0393762Y0370510D01*
X0393762Y0365510D01*
X0393762Y0368010D01*
X0393762Y0370510D01*
X0393762Y0375510D01*
X0393762Y0373010D02*
X0396262Y0375510D01*
X0396262Y0373010D02*
X0393762Y0370510D01*
X0391262Y0373010D01*
X0391262Y0370510D02*
X0393762Y0370510D01*
X0396262Y0370510D01*
X0393762Y0370510D02*
X0396262Y0368010D01*
X0393762Y0368010D02*
X0391262Y0365510D01*
X0391262Y0368010D02*
X0393762Y0370510D01*
X0393762Y0368010D02*
X0396262Y0365510D01*
X0401513Y0375404D02*
X0402918Y0376809D01*
X0405278Y0376809D01*
X0405278Y0381927D02*
X0402630Y0381927D01*
X0400404Y0384154D01*
X0405278Y0387026D02*
X0407030Y0388777D01*
X0411339Y0405394D02*
X0411348Y0405404D01*
X0425524Y0386760D02*
X0424274Y0385510D01*
X0425524Y0384260D01*
X0428762Y0384260D01*
X0428762Y0386760D02*
X0425524Y0386760D01*
X0426262Y0368010D02*
X0423752Y0368010D01*
X0422306Y0366760D01*
X0422402Y0366808D01*
X0422499Y0366852D01*
X0422599Y0366892D01*
X0422699Y0366929D01*
X0422801Y0366962D01*
X0422904Y0366992D01*
X0423008Y0367017D01*
X0423113Y0367039D01*
X0423219Y0367057D01*
X0423325Y0367071D01*
X0423432Y0367081D01*
X0423539Y0367088D01*
X0423646Y0367090D01*
X0423753Y0367088D01*
X0423860Y0367083D01*
X0423967Y0367074D01*
X0424073Y0367061D01*
X0424179Y0367043D01*
X0424284Y0367023D01*
X0424388Y0366998D01*
X0424491Y0366969D01*
X0424593Y0366937D01*
X0424694Y0366901D01*
X0424794Y0366861D01*
X0424892Y0366818D01*
X0424988Y0366771D01*
X0425083Y0366721D01*
X0425176Y0366667D01*
X0425266Y0366610D01*
X0425355Y0366550D01*
X0425441Y0366487D01*
X0425525Y0366420D01*
X0425606Y0366350D01*
X0425685Y0366278D01*
X0425761Y0366202D01*
X0425835Y0366124D01*
X0425905Y0366044D01*
X0425973Y0365960D01*
X0426037Y0365875D01*
X0426098Y0365787D01*
X0426156Y0365697D01*
X0426211Y0365604D01*
X0426262Y0365510D01*
X0427512Y0358010D02*
X0424274Y0358010D01*
X0423393Y0357129D01*
X0425012Y0355510D01*
X0427512Y0355510D01*
X0423393Y0357129D02*
X0423024Y0356760D01*
X0433762Y0356760D02*
X0433762Y0358030D01*
X0435012Y0359280D01*
X0436262Y0358030D01*
X0436262Y0356760D01*
X0417512Y0338010D02*
X0416257Y0339265D01*
X0416262Y0339270D01*
X0416257Y0339265D02*
X0415012Y0338020D01*
X0415012Y0335510D01*
X0417512Y0335510D02*
X0417512Y0338010D01*
X0405012Y0351760D02*
X0403762Y0351760D01*
X0377512Y0388010D02*
X0376654Y0388010D01*
X0376243Y0388010D01*
X0374993Y0389260D01*
X0376243Y0390510D01*
X0377512Y0390510D01*
X0361860Y0324154D02*
X0365404Y0320610D01*
X0365404Y0319313D01*
X0356654Y0319154D02*
X0367884Y0307923D01*
X0402499Y0307923D01*
X0404154Y0299154D02*
X0406104Y0299154D01*
X0406104Y0260204D01*
X0417154Y0249154D01*
X0416154Y0239154D02*
X0404154Y0251154D01*
X0404154Y0294154D01*
X0401654Y0294154D01*
X0291654Y0171654D02*
X0284154Y0171654D01*
X0284154Y0161654D01*
X0291654Y0161654D01*
X0291654Y0171654D01*
X0291654Y0170787D02*
X0284154Y0170787D01*
X0284154Y0169789D02*
X0291654Y0169789D01*
X0291654Y0168790D02*
X0284154Y0168790D01*
X0284154Y0167792D02*
X0291654Y0167792D01*
X0291654Y0166793D02*
X0284154Y0166793D01*
X0284154Y0165795D02*
X0291654Y0165795D01*
X0291654Y0164796D02*
X0284154Y0164796D01*
X0284154Y0163798D02*
X0291654Y0163798D01*
X0291654Y0162799D02*
X0284154Y0162799D01*
X0284154Y0161801D02*
X0291654Y0161801D01*
X0242904Y0195404D02*
X0235404Y0195404D01*
X0235404Y0204154D01*
X0242904Y0204154D01*
X0242904Y0195404D01*
X0242904Y0195750D02*
X0235404Y0195750D01*
X0235404Y0196749D02*
X0242904Y0196749D01*
X0242904Y0197747D02*
X0235404Y0197747D01*
X0235404Y0198746D02*
X0242904Y0198746D01*
X0242904Y0199744D02*
X0235404Y0199744D01*
X0235404Y0200743D02*
X0242904Y0200743D01*
X0242904Y0201741D02*
X0235404Y0201741D01*
X0235404Y0202740D02*
X0242904Y0202740D01*
X0242904Y0203738D02*
X0235404Y0203738D01*
X0135719Y0406644D02*
X0135709Y0406654D01*
X0135719Y0411978D02*
X0136654Y0413110D01*
D30*
X0140404Y0405404D03*
X0140404Y0402904D03*
X0132904Y0394154D03*
X0130404Y0394154D03*
X0132904Y0384816D03*
X0127904Y0372904D03*
X0131654Y0367904D03*
X0145404Y0370899D03*
X0150404Y0370899D03*
X0161654Y0366654D03*
X0161262Y0358010D03*
X0152478Y0350829D03*
X0153762Y0343010D03*
X0169154Y0336371D03*
X0175404Y0327904D03*
X0175982Y0346816D03*
X0176262Y0351760D03*
X0178762Y0351760D03*
X0185404Y0350981D03*
X0185404Y0345404D03*
X0176262Y0369260D03*
X0176513Y0375404D03*
X0175404Y0384154D03*
X0182030Y0388777D03*
X0186262Y0375510D03*
X0209012Y0363010D03*
X0235404Y0377904D03*
X0241654Y0372904D03*
X0245404Y0367904D03*
X0259154Y0370899D03*
X0264154Y0370899D03*
X0275404Y0366654D03*
X0275012Y0358010D03*
X0266228Y0350829D03*
X0254181Y0343399D03*
X0250404Y0343399D03*
X0249154Y0336654D03*
X0242904Y0336654D03*
X0237709Y0333959D03*
X0245404Y0329154D03*
X0245404Y0319154D03*
X0270404Y0329126D03*
X0270404Y0332904D03*
X0289154Y0337621D03*
X0292904Y0334571D03*
X0289732Y0346816D03*
X0292512Y0351760D03*
X0290012Y0369260D03*
X0290263Y0375404D03*
X0300012Y0375510D03*
X0289154Y0384154D03*
X0295780Y0388777D03*
X0322512Y0364260D03*
X0346654Y0377904D03*
X0352904Y0372904D03*
X0356654Y0367904D03*
X0370404Y0370899D03*
X0375404Y0370899D03*
X0386654Y0366654D03*
X0386262Y0358010D03*
X0377478Y0350829D03*
X0369154Y0342904D03*
X0365040Y0342904D03*
X0361262Y0342503D03*
X0355404Y0332904D03*
X0357904Y0329126D03*
X0356654Y0319154D03*
X0381654Y0329126D03*
X0381654Y0332904D03*
X0394154Y0336371D03*
X0400982Y0346816D03*
X0401262Y0351760D03*
X0403762Y0351760D03*
X0401262Y0369260D03*
X0401513Y0375404D03*
X0400404Y0384154D03*
X0407030Y0388777D03*
X0406654Y0399154D03*
X0406654Y0401654D03*
X0414154Y0411654D03*
X0416654Y0411654D03*
X0441654Y0404154D03*
X0444154Y0406654D03*
X0411262Y0375510D03*
X0435012Y0363010D03*
X0407904Y0307904D03*
X0405404Y0304154D03*
X0402499Y0307923D03*
X0404154Y0299154D03*
X0401654Y0294154D03*
X0350404Y0252904D03*
X0350404Y0244154D03*
X0290404Y0294154D03*
X0292904Y0299154D03*
X0294154Y0304154D03*
X0296654Y0307904D03*
X0291249Y0307923D03*
X0304154Y0326654D03*
X0357904Y0384816D03*
X0246654Y0384816D03*
X0227968Y0390051D03*
X0156654Y0322876D03*
X0134154Y0332904D03*
X0130115Y0332904D03*
X0131654Y0319154D03*
X0127420Y0343871D03*
X0121654Y0377904D03*
X0107904Y0399154D03*
X0105404Y0399154D03*
X0177499Y0307923D03*
X0181654Y0307904D03*
X0180404Y0304154D03*
X0179154Y0299154D03*
X0176654Y0294154D03*
X0206654Y0307904D03*
X0197654Y0261654D03*
X0209154Y0251654D03*
X0212904Y0244154D03*
X0239154Y0244154D03*
X0239154Y0251654D03*
X0240404Y0201654D03*
X0240404Y0199154D03*
X0240404Y0196654D03*
X0237904Y0196654D03*
X0237904Y0199154D03*
X0237904Y0201654D03*
X0286654Y0169154D03*
X0289154Y0169154D03*
X0289154Y0166654D03*
X0289154Y0164154D03*
X0286654Y0164154D03*
X0286654Y0166654D03*
X0251654Y0140404D03*
X0249154Y0142904D03*
X0126654Y0246654D03*
X0126654Y0252904D03*
D31*
X0141654Y0325404D03*
X0138762Y0351760D03*
X0136262Y0351760D03*
X0127420Y0350266D03*
X0166262Y0365510D03*
X0166262Y0368010D03*
X0166262Y0370510D03*
X0166262Y0373010D03*
X0166262Y0375510D03*
X0168762Y0375510D03*
X0168762Y0373010D03*
X0168762Y0370510D03*
X0168762Y0368010D03*
X0168762Y0365510D03*
X0171262Y0365510D03*
X0171262Y0368010D03*
X0171262Y0370510D03*
X0171262Y0373010D03*
X0171262Y0375510D03*
X0191262Y0375510D03*
X0201262Y0368010D03*
X0201262Y0365510D03*
X0202512Y0358010D03*
X0202512Y0355510D03*
X0207762Y0356760D03*
X0210262Y0356760D03*
X0192512Y0335510D03*
X0190012Y0335510D03*
X0203762Y0384260D03*
X0203762Y0386760D03*
X0241170Y0350266D03*
X0250012Y0351760D03*
X0252512Y0351760D03*
X0241170Y0343254D03*
X0254154Y0329815D03*
X0267512Y0343010D03*
X0280012Y0365510D03*
X0280012Y0368010D03*
X0280012Y0370510D03*
X0280012Y0373010D03*
X0280012Y0375510D03*
X0282512Y0375510D03*
X0282512Y0373010D03*
X0282512Y0370510D03*
X0282512Y0368010D03*
X0282512Y0365510D03*
X0285012Y0365510D03*
X0285012Y0368010D03*
X0285012Y0370510D03*
X0285012Y0373010D03*
X0285012Y0375510D03*
X0305012Y0375510D03*
X0315012Y0368010D03*
X0315012Y0365510D03*
X0316262Y0358010D03*
X0316262Y0355510D03*
X0321262Y0358010D03*
X0323762Y0358010D03*
X0331262Y0378010D03*
X0333762Y0378010D03*
X0317512Y0384260D03*
X0317512Y0386760D03*
X0352420Y0350266D03*
X0361262Y0351760D03*
X0363762Y0351760D03*
X0352420Y0339504D03*
X0365404Y0319313D03*
X0378762Y0343010D03*
X0391262Y0365510D03*
X0391262Y0368010D03*
X0391262Y0370510D03*
X0391262Y0373010D03*
X0391262Y0375510D03*
X0393762Y0375510D03*
X0393762Y0373010D03*
X0393762Y0370510D03*
X0393762Y0368010D03*
X0393762Y0365510D03*
X0396262Y0365510D03*
X0396262Y0368010D03*
X0396262Y0370510D03*
X0396262Y0373010D03*
X0396262Y0375510D03*
X0377512Y0388010D03*
X0377512Y0390510D03*
X0408262Y0420010D03*
X0410762Y0420010D03*
X0433762Y0397760D03*
X0436262Y0397760D03*
X0428762Y0386760D03*
X0428762Y0384260D03*
X0416262Y0375510D03*
X0426262Y0368010D03*
X0426262Y0365510D03*
X0427512Y0358010D03*
X0427512Y0355510D03*
X0433762Y0356760D03*
X0436262Y0356760D03*
X0417512Y0335510D03*
X0415012Y0335510D03*
X0306262Y0335510D03*
X0303762Y0335510D03*
X0263762Y0387510D03*
X0263762Y0390010D03*
X0150012Y0390510D03*
X0150012Y0388010D03*
X0138012Y0423260D03*
X0135512Y0423260D03*
X0113262Y0409510D03*
X0110762Y0409510D03*
X0262904Y0206654D03*
X0265404Y0206654D03*
X0267904Y0206654D03*
X0270404Y0206654D03*
X0272904Y0206654D03*
X0272904Y0204154D03*
X0272904Y0201654D03*
X0272904Y0199154D03*
X0270404Y0199154D03*
X0270404Y0201654D03*
X0270404Y0204154D03*
X0269154Y0180404D03*
X0269154Y0177904D03*
X0266654Y0177904D03*
X0266654Y0180404D03*
X0264154Y0180404D03*
X0264154Y0177904D03*
X0261654Y0180404D03*
X0259154Y0180404D03*
X0256654Y0180404D03*
X0265404Y0161654D03*
X0267904Y0161654D03*
X0270404Y0161654D03*
X0270404Y0159154D03*
X0267904Y0159154D03*
X0265404Y0159154D03*
X0265404Y0144154D03*
X0267904Y0144154D03*
X0270404Y0144154D03*
X0270404Y0141654D03*
X0267904Y0141654D03*
X0265404Y0141654D03*
X0286654Y0134154D03*
X0289154Y0134154D03*
X0291654Y0152904D03*
X0291654Y0155404D03*
D32*
X0262512Y0340510D02*
X0241262Y0340510D01*
X0244924Y0346760D02*
X0233762Y0346760D01*
X0231262Y0349260D01*
X0231262Y0361760D01*
X0230012Y0363010D01*
X0221262Y0363010D01*
X0221262Y0378010D01*
X0226262Y0378010D01*
X0230012Y0381760D01*
X0230012Y0388010D01*
X0242512Y0388010D01*
X0242502Y0388000D01*
X0242306Y0383010D01*
X0243585Y0381927D01*
X0270997Y0381927D01*
X0270997Y0379368D02*
X0273654Y0379368D01*
X0273762Y0379260D01*
X0275012Y0379260D01*
X0270997Y0376809D02*
X0240052Y0376809D01*
X0236056Y0373010D01*
X0236262Y0373000D01*
X0236262Y0359260D01*
X0246262Y0359260D01*
X0246262Y0350551D01*
X0247505Y0349308D01*
X0247505Y0348018D01*
X0248762Y0346760D01*
X0250829Y0346760D01*
X0256262Y0348482D02*
X0256262Y0361760D01*
X0242502Y0361760D01*
X0241262Y0362803D01*
X0241262Y0368010D01*
X0247512Y0374260D01*
X0267512Y0374260D01*
X0267512Y0371760D01*
X0270928Y0371760D01*
X0270997Y0371691D01*
X0270997Y0369132D02*
X0273634Y0369132D01*
X0275012Y0370510D01*
X0275012Y0374260D01*
X0271006Y0374260D01*
X0270997Y0374250D01*
X0267512Y0368010D02*
X0268949Y0366573D01*
X0270997Y0366573D01*
X0270997Y0364014D02*
X0261026Y0364014D01*
X0261262Y0363000D01*
X0265012Y0359260D02*
X0265012Y0356760D01*
X0263772Y0355520D01*
X0261262Y0355520D01*
X0265012Y0359260D02*
X0267207Y0361455D01*
X0270997Y0361455D01*
X0270997Y0358896D02*
X0268398Y0358896D01*
X0267512Y0358010D01*
X0267512Y0354260D01*
X0271262Y0350510D01*
X0271262Y0344260D01*
X0272512Y0343010D01*
X0285012Y0343010D01*
X0286262Y0344260D01*
X0286262Y0346760D01*
X0280357Y0346760D02*
X0280357Y0354605D01*
X0282089Y0356337D01*
X0294028Y0356337D01*
X0294028Y0358896D02*
X0280898Y0358896D01*
X0274451Y0352449D01*
X0274451Y0346760D01*
X0268546Y0346760D02*
X0268546Y0344044D01*
X0267512Y0343010D01*
X0262512Y0340510D02*
X0262512Y0346632D01*
X0262640Y0346760D01*
X0256735Y0346760D02*
X0256262Y0348482D01*
X0245012Y0346849D02*
X0244924Y0346760D01*
X0241252Y0350348D02*
X0241252Y0355510D01*
X0233762Y0355510D01*
X0233262Y0356010D01*
X0233262Y0367588D01*
X0232091Y0368760D01*
X0229262Y0368760D01*
X0228762Y0369260D01*
X0228772Y0369270D01*
X0228969Y0373010D01*
X0228772Y0376760D01*
X0235219Y0383010D01*
X0235219Y0378088D01*
X0235404Y0377904D01*
X0241262Y0381770D02*
X0242306Y0383010D01*
X0246654Y0384816D02*
X0246654Y0388888D01*
X0246282Y0389260D01*
X0253762Y0389260D02*
X0253762Y0385510D01*
X0254786Y0384486D01*
X0270997Y0384486D01*
X0273840Y0389262D02*
X0279184Y0389262D01*
X0279467Y0389545D01*
X0286553Y0389545D02*
X0292461Y0389545D01*
X0295427Y0392510D01*
X0319505Y0392510D01*
X0319562Y0392453D01*
X0319605Y0392453D01*
X0322246Y0389813D01*
X0327202Y0389813D01*
X0328022Y0388993D01*
X0328022Y0384683D01*
X0324260Y0380921D01*
X0324260Y0379752D01*
X0324260Y0377238D01*
X0322512Y0375490D01*
X0322493Y0375510D01*
X0316056Y0375510D01*
X0316654Y0374912D01*
X0316654Y0371654D01*
X0318262Y0370045D01*
X0318262Y0361760D01*
X0305012Y0361760D01*
X0298762Y0361760D01*
X0298762Y0363010D01*
X0297758Y0364014D01*
X0294028Y0364014D01*
X0294028Y0366573D02*
X0302335Y0366573D01*
X0303969Y0366760D01*
X0305012Y0361760D02*
X0306262Y0360510D01*
X0306262Y0351760D01*
X0305012Y0351760D01*
X0305012Y0346750D01*
X0305012Y0351760D02*
X0298762Y0351760D01*
X0293762Y0351760D02*
X0298762Y0356760D01*
X0300750Y0356760D01*
X0296056Y0361455D01*
X0294028Y0361455D01*
X0294028Y0369132D02*
X0297384Y0369132D01*
X0297512Y0369260D01*
X0297512Y0371760D01*
X0308762Y0371760D01*
X0308772Y0371770D01*
X0308969Y0375510D01*
X0305012Y0375510D01*
X0307901Y0375510D02*
X0308969Y0375510D01*
X0316056Y0375510D02*
X0316252Y0376770D01*
X0322512Y0368010D02*
X0322512Y0364260D01*
X0332512Y0363010D02*
X0332512Y0370404D01*
X0335012Y0372904D01*
X0336654Y0372904D01*
X0336651Y0372906D01*
X0336651Y0376651D01*
X0341262Y0381262D01*
X0341262Y0388010D01*
X0353762Y0388010D01*
X0353752Y0388000D01*
X0353556Y0383010D01*
X0354835Y0381927D01*
X0382247Y0381927D01*
X0382247Y0379368D02*
X0384904Y0379368D01*
X0385012Y0379260D01*
X0386262Y0379260D01*
X0382247Y0376809D02*
X0351302Y0376809D01*
X0347306Y0373010D01*
X0347512Y0373000D01*
X0347512Y0359260D01*
X0357512Y0359260D01*
X0357512Y0350551D01*
X0358755Y0349308D01*
X0358755Y0348018D01*
X0360012Y0346760D01*
X0362079Y0346760D01*
X0367512Y0348482D02*
X0367512Y0361760D01*
X0353752Y0361760D01*
X0352512Y0362803D01*
X0352512Y0368010D01*
X0358762Y0374260D01*
X0378762Y0374260D01*
X0378762Y0371760D01*
X0382178Y0371760D01*
X0382247Y0371691D01*
X0382247Y0369132D02*
X0384884Y0369132D01*
X0386262Y0370510D01*
X0386262Y0374260D01*
X0382256Y0374260D01*
X0382247Y0374250D01*
X0378762Y0368010D02*
X0380199Y0366573D01*
X0382247Y0366573D01*
X0382247Y0364014D02*
X0372276Y0364014D01*
X0372512Y0363000D01*
X0376262Y0359260D02*
X0376262Y0356760D01*
X0375022Y0355520D01*
X0372512Y0355520D01*
X0376262Y0359260D02*
X0378457Y0361455D01*
X0382247Y0361455D01*
X0382247Y0358896D02*
X0379648Y0358896D01*
X0378762Y0358010D01*
X0378762Y0354260D01*
X0382512Y0350510D01*
X0382512Y0344260D01*
X0383762Y0343010D01*
X0396262Y0343010D01*
X0397512Y0344260D01*
X0397512Y0346760D01*
X0391607Y0346760D02*
X0391607Y0354605D01*
X0393339Y0356337D01*
X0405278Y0356337D01*
X0405278Y0358896D02*
X0392148Y0358896D01*
X0385701Y0352449D01*
X0385701Y0346760D01*
X0379796Y0346760D02*
X0379796Y0344044D01*
X0378762Y0343010D01*
X0373890Y0346760D02*
X0373762Y0346632D01*
X0373762Y0339260D01*
X0397512Y0339260D01*
X0410012Y0351760D01*
X0416262Y0351760D01*
X0416262Y0346750D01*
X0416262Y0351760D02*
X0417512Y0351760D01*
X0417512Y0360510D01*
X0416262Y0361760D01*
X0430012Y0361760D01*
X0430012Y0372803D01*
X0431469Y0374260D01*
X0434993Y0374260D01*
X0435012Y0374240D01*
X0435012Y0378004D01*
X0435510Y0378502D01*
X0435510Y0379671D01*
X0439272Y0383433D01*
X0439272Y0387743D01*
X0434505Y0392510D01*
X0406677Y0392510D01*
X0403711Y0389545D01*
X0400303Y0389545D01*
X0405278Y0387026D02*
X0405278Y0384486D01*
X0407030Y0388777D02*
X0408762Y0390510D01*
X0411272Y0390510D01*
X0411329Y0390453D01*
X0430027Y0390453D01*
X0434892Y0385588D01*
X0435510Y0385588D01*
X0427502Y0376770D02*
X0427306Y0375510D01*
X0430012Y0372803D01*
X0435012Y0366760D02*
X0435012Y0363010D01*
X0420022Y0371770D02*
X0420219Y0375510D01*
X0416262Y0375510D01*
X0419151Y0375510D02*
X0420219Y0375510D01*
X0420022Y0371770D02*
X0420012Y0371760D01*
X0408762Y0371760D01*
X0408762Y0369260D01*
X0408634Y0369132D01*
X0405278Y0369132D01*
X0405278Y0366573D02*
X0413585Y0366573D01*
X0415219Y0366760D01*
X0416262Y0361760D02*
X0410012Y0361760D01*
X0410012Y0363010D01*
X0409008Y0364014D01*
X0405278Y0364014D01*
X0405278Y0361455D02*
X0407306Y0361455D01*
X0412000Y0356760D01*
X0410012Y0356760D01*
X0405012Y0351760D01*
X0401262Y0369260D02*
X0403693Y0371691D01*
X0405278Y0371691D01*
X0405278Y0374250D02*
X0410002Y0374250D01*
X0411262Y0375510D01*
X0408359Y0379368D02*
X0413250Y0384260D01*
X0413250Y0385510D01*
X0408359Y0379368D02*
X0405278Y0379368D01*
X0393217Y0389545D02*
X0392934Y0389262D01*
X0387590Y0389262D01*
X0382247Y0384486D02*
X0368536Y0384486D01*
X0367512Y0385510D01*
X0367512Y0389260D01*
X0360032Y0389260D02*
X0357904Y0387132D01*
X0357904Y0384816D01*
X0353556Y0383010D02*
X0352512Y0381770D01*
X0346469Y0383010D02*
X0346469Y0378088D01*
X0346654Y0377904D01*
X0346469Y0383010D02*
X0340022Y0376760D01*
X0340219Y0373010D01*
X0340022Y0369270D01*
X0340012Y0369260D01*
X0340512Y0368760D01*
X0343341Y0368760D01*
X0344512Y0367588D01*
X0344512Y0356010D01*
X0345012Y0355510D01*
X0352502Y0355510D01*
X0352502Y0350348D01*
X0352420Y0350266D01*
X0356174Y0346760D02*
X0345012Y0346760D01*
X0342512Y0349260D01*
X0342512Y0361760D01*
X0341262Y0363010D01*
X0332512Y0363010D01*
X0331262Y0378010D02*
X0332904Y0379651D01*
X0332904Y0381663D01*
X0333762Y0380805D01*
X0333762Y0378010D01*
X0332904Y0389144D02*
X0330700Y0389144D01*
X0328031Y0391813D01*
X0324506Y0391813D01*
X0317904Y0398415D01*
X0318777Y0390453D02*
X0300079Y0390453D01*
X0300022Y0390510D01*
X0297512Y0390510D01*
X0295780Y0388777D01*
X0294028Y0387026D02*
X0294028Y0384486D01*
X0294028Y0379368D02*
X0297109Y0379368D01*
X0302000Y0384260D01*
X0302000Y0385510D01*
X0300012Y0375510D02*
X0298752Y0374250D01*
X0294028Y0374250D01*
X0294028Y0371691D02*
X0292443Y0371691D01*
X0290012Y0369260D01*
X0275012Y0358010D02*
X0273339Y0356337D01*
X0270997Y0356337D01*
X0267512Y0368010D02*
X0252000Y0368010D01*
X0251262Y0367272D01*
X0241262Y0355717D02*
X0241252Y0355510D01*
X0241252Y0350348D02*
X0241170Y0350266D01*
X0209012Y0363010D02*
X0209012Y0366760D01*
X0204512Y0361760D02*
X0204512Y0373303D01*
X0205449Y0374240D01*
X0209012Y0374240D01*
X0209012Y0377004D01*
X0210510Y0378502D01*
X0210510Y0379671D01*
X0214272Y0383433D01*
X0214272Y0387743D01*
X0209505Y0392510D01*
X0181677Y0392510D01*
X0178711Y0389545D01*
X0172803Y0389545D01*
X0165717Y0389545D02*
X0165434Y0389262D01*
X0159840Y0389262D01*
X0157247Y0384486D02*
X0140736Y0384486D01*
X0140012Y0385211D01*
X0140012Y0389260D01*
X0140404Y0388869D01*
X0132904Y0388888D02*
X0132904Y0384816D01*
X0132904Y0388888D02*
X0132532Y0389260D01*
X0128762Y0388010D02*
X0128752Y0388000D01*
X0128556Y0383010D01*
X0129835Y0381927D01*
X0157247Y0381927D01*
X0157247Y0379368D02*
X0159904Y0379368D01*
X0160012Y0379260D01*
X0161262Y0379260D01*
X0157247Y0376809D02*
X0126302Y0376809D01*
X0122306Y0373010D01*
X0122512Y0373000D01*
X0122512Y0359260D01*
X0132512Y0359260D01*
X0132512Y0350551D01*
X0133755Y0349308D01*
X0133755Y0348018D01*
X0135012Y0346760D01*
X0137079Y0346760D01*
X0142512Y0348482D02*
X0142512Y0361760D01*
X0128752Y0361760D01*
X0127512Y0362803D01*
X0127512Y0368010D01*
X0133762Y0374260D01*
X0153762Y0374260D01*
X0153762Y0371760D01*
X0157178Y0371760D01*
X0157247Y0371691D01*
X0157247Y0369132D02*
X0159884Y0369132D01*
X0161262Y0370510D01*
X0161262Y0374260D01*
X0157256Y0374260D01*
X0157247Y0374250D01*
X0153762Y0368010D02*
X0155199Y0366573D01*
X0157247Y0366573D01*
X0157247Y0364014D02*
X0147276Y0364014D01*
X0147512Y0363000D01*
X0151262Y0359260D02*
X0151262Y0356760D01*
X0150022Y0355520D01*
X0147512Y0355520D01*
X0151262Y0359260D02*
X0153457Y0361455D01*
X0157247Y0361455D01*
X0157247Y0358896D02*
X0154648Y0358896D01*
X0153762Y0358010D01*
X0153762Y0354260D01*
X0157512Y0350510D01*
X0157512Y0344260D01*
X0158762Y0343010D01*
X0171262Y0343010D01*
X0172512Y0344260D01*
X0172512Y0346760D01*
X0166607Y0346760D02*
X0166607Y0354605D01*
X0168339Y0356337D01*
X0180278Y0356337D01*
X0180278Y0358896D02*
X0167148Y0358896D01*
X0160701Y0352449D01*
X0160701Y0346760D01*
X0154796Y0346760D02*
X0154796Y0344044D01*
X0153762Y0343010D01*
X0148890Y0346760D02*
X0148762Y0346632D01*
X0148762Y0339260D01*
X0172512Y0339260D01*
X0180780Y0347527D01*
X0180012Y0351760D02*
X0185012Y0356760D01*
X0187000Y0356760D01*
X0182306Y0361455D01*
X0180278Y0361455D01*
X0180278Y0364014D02*
X0184008Y0364014D01*
X0185012Y0363010D01*
X0185012Y0361760D01*
X0191262Y0361760D01*
X0204512Y0361760D01*
X0204512Y0373303D02*
X0202306Y0375510D01*
X0195219Y0375510D02*
X0191262Y0375510D01*
X0194151Y0375510D02*
X0195219Y0375510D01*
X0195022Y0371770D01*
X0195012Y0371760D01*
X0183762Y0371760D01*
X0183762Y0369260D01*
X0183634Y0369132D01*
X0180278Y0369132D01*
X0180278Y0366573D02*
X0188585Y0366573D01*
X0190219Y0366760D01*
X0191262Y0361760D02*
X0192512Y0360510D01*
X0192512Y0348010D01*
X0191262Y0348010D01*
X0191262Y0346750D01*
X0176262Y0369260D02*
X0178693Y0371691D01*
X0180278Y0371691D01*
X0180278Y0374250D02*
X0185002Y0374250D01*
X0186262Y0375510D01*
X0183359Y0379368D02*
X0188250Y0384260D01*
X0188250Y0385510D01*
X0183762Y0390510D02*
X0205588Y0390510D01*
X0210510Y0385588D01*
X0183762Y0390510D02*
X0182030Y0388777D01*
X0180278Y0387026D02*
X0180278Y0384486D01*
X0180278Y0379368D02*
X0183359Y0379368D01*
X0161262Y0358010D02*
X0159589Y0356337D01*
X0157247Y0356337D01*
X0153762Y0368010D02*
X0138250Y0368010D01*
X0137512Y0367272D01*
X0127512Y0355717D02*
X0127502Y0355510D01*
X0127502Y0350348D01*
X0127420Y0350266D01*
X0131174Y0346760D02*
X0120012Y0346760D01*
X0117512Y0349260D01*
X0117512Y0361760D01*
X0116262Y0363010D01*
X0107512Y0363010D01*
X0107512Y0378010D01*
X0112512Y0378010D01*
X0116262Y0381760D01*
X0116262Y0388010D01*
X0128762Y0388010D01*
X0128556Y0383010D02*
X0127512Y0381770D01*
X0121469Y0383010D02*
X0121469Y0378088D01*
X0121654Y0377904D01*
X0121469Y0383010D02*
X0115022Y0376760D01*
X0115219Y0373010D01*
X0115022Y0369270D01*
X0115012Y0369260D01*
X0115512Y0368760D01*
X0118341Y0368760D01*
X0119512Y0367588D01*
X0119512Y0356010D01*
X0120012Y0355510D01*
X0127502Y0355510D01*
X0131262Y0346849D02*
X0131174Y0346760D01*
X0127512Y0339260D02*
X0148762Y0339260D01*
X0142985Y0346760D02*
X0142512Y0348482D01*
X0150012Y0388010D02*
X0151502Y0388010D01*
X0152754Y0389262D01*
X0151506Y0390510D01*
X0150012Y0390510D01*
X0263762Y0390010D02*
X0265010Y0389262D01*
X0266754Y0389262D01*
X0265502Y0388010D01*
X0263762Y0387510D01*
X0318777Y0390453D02*
X0322392Y0386838D01*
X0324260Y0386838D01*
X0352512Y0355717D02*
X0352502Y0355510D01*
X0356262Y0346849D02*
X0356174Y0346760D01*
X0352512Y0339260D02*
X0373762Y0339260D01*
X0367985Y0346760D02*
X0367512Y0348482D01*
X0382247Y0356337D02*
X0384589Y0356337D01*
X0386262Y0358010D01*
X0378762Y0368010D02*
X0363250Y0368010D01*
X0362512Y0367272D01*
X0376654Y0388010D02*
X0379252Y0388010D01*
X0380504Y0389262D01*
X0378760Y0389262D01*
X0377512Y0390510D01*
D33*
X0406654Y0399154D02*
X0406654Y0401654D01*
X0411339Y0401654D01*
X0411339Y0405394D02*
X0411339Y0407925D01*
X0409404Y0409860D01*
X0411348Y0405404D02*
X0416654Y0405404D01*
X0416654Y0411654D01*
X0414154Y0411654D01*
X0416654Y0405404D02*
X0416654Y0397904D01*
X0416644Y0397913D01*
X0411339Y0397913D01*
X0421969Y0397913D02*
X0427957Y0397913D01*
X0428154Y0398110D01*
X0433762Y0397760D02*
X0434904Y0398901D01*
X0434904Y0400610D01*
X0434904Y0399119D01*
X0436262Y0397760D01*
X0432404Y0405197D02*
X0428154Y0405197D01*
X0427957Y0405394D01*
X0421969Y0405394D01*
X0432404Y0405197D02*
X0434904Y0407697D01*
X0410762Y0420010D02*
X0409404Y0418651D01*
X0409404Y0416947D01*
X0408262Y0418285D01*
X0408262Y0420010D01*
X0206654Y0307904D02*
X0201654Y0302904D01*
X0201654Y0222904D01*
X0207904Y0216654D01*
X0275404Y0216654D01*
X0286654Y0205404D01*
X0286654Y0169154D01*
X0132904Y0394154D02*
X0130404Y0394154D01*
X0130404Y0399154D01*
X0135719Y0399154D01*
X0135719Y0402904D02*
X0140404Y0402904D01*
X0140404Y0405404D01*
X0135719Y0406644D02*
X0135719Y0411978D01*
X0135709Y0406654D02*
X0130404Y0406654D01*
X0130404Y0399154D01*
X0125089Y0399163D02*
X0119350Y0399163D01*
X0119154Y0399360D01*
X0112404Y0399360D01*
X0112197Y0399154D01*
X0105404Y0399154D01*
X0112404Y0406447D02*
X0113262Y0407306D01*
X0113262Y0409510D01*
X0112404Y0407869D02*
X0110762Y0409510D01*
X0112404Y0407869D02*
X0112404Y0406447D01*
X0119154Y0406447D02*
X0119350Y0406644D01*
X0125089Y0406644D01*
X0136654Y0420197D02*
X0135512Y0421338D01*
X0135512Y0423260D01*
X0136654Y0421901D02*
X0136654Y0420197D01*
X0136654Y0421901D02*
X0138012Y0423260D01*
D34*
X0135719Y0399163D02*
X0135719Y0399154D01*
X0185404Y0355163D02*
X0185404Y0350981D01*
X0185404Y0355163D02*
X0187000Y0356760D01*
X0185404Y0345404D02*
X0186510Y0344298D01*
X0186510Y0333489D01*
X0194154Y0325845D01*
X0194154Y0314932D01*
X0197654Y0311432D01*
X0197654Y0261654D01*
X0197654Y0220654D01*
X0205404Y0212904D01*
X0237904Y0212904D01*
X0237904Y0199154D01*
X0205404Y0306654D02*
X0206654Y0307904D01*
D35*
X0317904Y0398415D02*
X0317904Y0408415D01*
D36*
X0434904Y0407697D02*
X0443110Y0407697D01*
X0444154Y0406654D01*
X0441654Y0404154D01*
D37*
X0127512Y0339260D02*
X0127420Y0339352D01*
X0127420Y0339504D01*
M02*
