G75*
%MOIN*%
%OFA0B0*%
%FSLAX25Y25*%
%IPPOS*%
%LPD*%
%AMOC8*
5,1,8,0,0,1.08239X$1,22.5*
%
%ADD10R,0.04724X0.02362*%
%ADD11R,0.04724X0.03150*%
%ADD12R,0.03150X0.04724*%
%ADD13R,0.02756X0.03543*%
%ADD14R,0.02402X0.04016*%
%ADD15R,0.15394X0.15000*%
%ADD16R,0.10630X0.07087*%
%ADD17R,0.06102X0.00984*%
%ADD18R,0.00984X0.06102*%
%ADD19R,0.06890X0.01575*%
%ADD20R,0.03937X0.07087*%
%ADD21R,0.04921X0.06299*%
%ADD22R,0.00984X0.03937*%
%ADD23R,0.03937X0.00984*%
%ADD24R,0.05512X0.04724*%
%ADD25R,0.04724X0.05512*%
D10*
X0173113Y0129146D03*
X0173113Y0132886D03*
X0173113Y0136626D03*
X0183743Y0136626D03*
X0183743Y0129146D03*
X0184136Y0153457D03*
X0184136Y0160937D03*
X0173506Y0160937D03*
X0173506Y0157197D03*
X0173506Y0153457D03*
D11*
X0171571Y0165404D03*
X0171571Y0172491D03*
X0190321Y0160741D03*
X0197071Y0160741D03*
X0197071Y0153654D03*
X0190321Y0153654D03*
X0189678Y0136430D03*
X0196428Y0136430D03*
X0196428Y0129343D03*
X0189678Y0129343D03*
X0172178Y0122680D03*
X0172178Y0115593D03*
X0259274Y0147542D03*
X0259274Y0154628D03*
X0269117Y0154628D03*
X0269117Y0147542D03*
X0269117Y0202502D03*
X0269117Y0209589D03*
X0259274Y0209589D03*
X0259274Y0202502D03*
X0316361Y0202502D03*
X0316361Y0209589D03*
X0326203Y0209589D03*
X0326203Y0202502D03*
X0327680Y0238585D03*
X0327680Y0245672D03*
X0327680Y0253191D03*
X0327680Y0260278D03*
X0355731Y0273447D03*
X0355731Y0280534D03*
X0298644Y0304943D03*
X0298644Y0312030D03*
X0294707Y0318723D03*
X0294707Y0325809D03*
X0290770Y0312030D03*
X0290770Y0304943D03*
X0277089Y0272680D03*
X0277089Y0265593D03*
X0074117Y0187620D03*
X0074117Y0180534D03*
X0074117Y0171872D03*
X0074117Y0164786D03*
X0074117Y0156124D03*
X0074117Y0149038D03*
D12*
X0058762Y0150613D03*
X0065849Y0150613D03*
X0065849Y0172266D03*
X0058762Y0172266D03*
X0058762Y0180140D03*
X0065849Y0180140D03*
X0065849Y0188014D03*
X0058762Y0188014D03*
X0232109Y0190376D03*
X0239195Y0190376D03*
X0239195Y0178565D03*
X0232109Y0178565D03*
X0262699Y0219904D03*
X0269786Y0219904D03*
X0271557Y0229746D03*
X0278644Y0229746D03*
X0269786Y0240573D03*
X0262699Y0240573D03*
X0266183Y0276006D03*
X0259097Y0276006D03*
X0323565Y0275022D03*
X0330652Y0275022D03*
D13*
X0064865Y0164195D03*
X0059746Y0164195D03*
X0062306Y0156715D03*
D14*
X0082365Y0149451D03*
X0087365Y0149451D03*
X0092365Y0149451D03*
X0097365Y0149451D03*
X0097365Y0171459D03*
X0092365Y0171459D03*
X0087365Y0171459D03*
X0082365Y0171459D03*
D15*
X0089865Y0158723D03*
D16*
X0111636Y0150219D03*
X0111636Y0167542D03*
D17*
X0270691Y0167739D03*
X0270691Y0169707D03*
X0270691Y0171676D03*
X0270691Y0173644D03*
X0270691Y0175613D03*
X0270691Y0177581D03*
X0270691Y0179550D03*
X0270691Y0181518D03*
X0270691Y0183487D03*
X0270691Y0185455D03*
X0270691Y0187424D03*
X0270691Y0189392D03*
X0270691Y0191361D03*
X0270691Y0193329D03*
X0270691Y0165770D03*
X0270691Y0163802D03*
X0314786Y0163802D03*
X0314786Y0165770D03*
X0314786Y0167739D03*
X0314786Y0169707D03*
X0314786Y0171676D03*
X0314786Y0173644D03*
X0314786Y0175613D03*
X0314786Y0177581D03*
X0314786Y0179550D03*
X0314786Y0181518D03*
X0314786Y0183487D03*
X0314786Y0185455D03*
X0314786Y0187424D03*
X0314786Y0189392D03*
X0314786Y0191361D03*
X0314786Y0193329D03*
D18*
X0307502Y0200613D03*
X0305534Y0200613D03*
X0303565Y0200613D03*
X0301597Y0200613D03*
X0299628Y0200613D03*
X0297660Y0200613D03*
X0295691Y0200613D03*
X0293723Y0200613D03*
X0291754Y0200613D03*
X0289786Y0200613D03*
X0287817Y0200613D03*
X0285849Y0200613D03*
X0283880Y0200613D03*
X0281912Y0200613D03*
X0279943Y0200613D03*
X0277975Y0200613D03*
X0277975Y0156518D03*
X0279943Y0156518D03*
X0281912Y0156518D03*
X0283880Y0156518D03*
X0285849Y0156518D03*
X0287817Y0156518D03*
X0289786Y0156518D03*
X0291754Y0156518D03*
X0293723Y0156518D03*
X0295691Y0156518D03*
X0297660Y0156518D03*
X0299628Y0156518D03*
X0301597Y0156518D03*
X0303565Y0156518D03*
X0305534Y0156518D03*
X0307502Y0156518D03*
D19*
X0314786Y0239431D03*
X0314786Y0241991D03*
X0314786Y0244550D03*
X0314786Y0247109D03*
X0314786Y0249668D03*
X0314786Y0252227D03*
X0314786Y0254786D03*
X0314786Y0257345D03*
X0314786Y0259904D03*
X0314786Y0262463D03*
X0314786Y0265022D03*
X0314786Y0267581D03*
X0314786Y0270140D03*
X0314786Y0272699D03*
X0286439Y0272699D03*
X0286439Y0270140D03*
X0286439Y0267581D03*
X0286439Y0265022D03*
X0286439Y0262463D03*
X0286439Y0259904D03*
X0286439Y0257345D03*
X0286439Y0254786D03*
X0286439Y0252227D03*
X0286439Y0249668D03*
X0286439Y0247109D03*
X0286439Y0244550D03*
X0286439Y0241991D03*
X0286439Y0239431D03*
D20*
X0287660Y0218565D03*
X0277817Y0218565D03*
D21*
X0268605Y0250928D03*
X0259943Y0250928D03*
X0259943Y0265494D03*
X0268605Y0265494D03*
D22*
X0322857Y0275022D03*
D23*
X0327680Y0252876D03*
X0326208Y0201732D03*
X0277089Y0265278D03*
X0259343Y0201810D03*
X0259143Y0155091D03*
D24*
X0355731Y0251400D03*
X0355731Y0263211D03*
D25*
X0259274Y0190376D03*
X0259274Y0178565D03*
X0247463Y0178565D03*
X0247463Y0190376D03*
M02*
