G75*
%MOIN*%
%OFA0B0*%
%FSLAX25Y25*%
%IPPOS*%
%LPD*%
%AMOC8*
5,1,8,0,0,1.08239X$1,22.5*
%
%ADD10R,0.03937X0.02362*%
%ADD11R,0.07087X0.04921*%
%ADD12R,0.01969X0.08858*%
%ADD13R,0.07874X0.09843*%
%ADD14R,0.03150X0.04724*%
%ADD15R,0.04724X0.07874*%
%ADD16R,0.07874X0.04724*%
%ADD17R,0.04724X0.03150*%
%ADD18R,0.04724X0.05512*%
%ADD19R,0.05512X0.04724*%
D10*
X0393100Y0303533D03*
X0393100Y0309439D03*
X0393100Y0315344D03*
X0393100Y0321250D03*
X0393100Y0327156D03*
X0393100Y0333061D03*
X0393100Y0338967D03*
X0393100Y0344872D03*
D11*
X0413573Y0355128D03*
X0413573Y0294459D03*
D12*
X0297037Y0130108D03*
X0293888Y0130108D03*
X0290738Y0130108D03*
X0287589Y0130108D03*
X0284439Y0130108D03*
D13*
X0273219Y0129990D03*
X0273219Y0108652D03*
X0308258Y0108652D03*
X0308258Y0129990D03*
D14*
X0206486Y0118494D03*
X0213573Y0118494D03*
X0281226Y0246073D03*
X0288313Y0246073D03*
X0290596Y0259636D03*
X0297683Y0259636D03*
X0277691Y0271384D03*
X0270604Y0271384D03*
D15*
X0278719Y0236167D03*
X0291317Y0236167D03*
D16*
X0188041Y0281250D03*
X0188041Y0293848D03*
D17*
X0198219Y0291329D03*
X0198219Y0284242D03*
X0214234Y0283018D03*
X0214234Y0275931D03*
X0224809Y0296522D03*
X0224809Y0303608D03*
D18*
X0271333Y0259730D03*
X0283144Y0259730D03*
X0284722Y0271321D03*
X0296533Y0271321D03*
D19*
X0224856Y0276624D03*
X0224856Y0288435D03*
X0213998Y0290722D03*
X0213998Y0302533D03*
M02*
