G75*
%MOIN*%
%OFA0B0*%
%FSLAX25Y25*%
%IPPOS*%
%LPD*%
%AMOC8*
5,1,8,0,0,1.08239X$1,22.5*
%
%ADD10C,0.00600*%
%ADD11C,0.10039*%
%ADD12C,0.05600*%
%ADD13C,0.02978*%
%ADD14R,0.02978X0.02978*%
D10*
X0035757Y0001300D02*
X0035757Y0159568D01*
X0219221Y0159568D01*
X0219221Y0001300D01*
X0035757Y0001300D01*
X0040357Y0012835D02*
X0040357Y0063896D01*
X0040540Y0063836D01*
X0041177Y0063735D01*
X0044000Y0063735D01*
X0044000Y0067535D01*
X0044600Y0067535D01*
X0044600Y0063735D01*
X0047423Y0063735D01*
X0048060Y0063836D01*
X0048674Y0064036D01*
X0049249Y0064329D01*
X0049771Y0064708D01*
X0050227Y0065164D01*
X0050607Y0065687D01*
X0050900Y0066262D01*
X0051099Y0066875D01*
X0051200Y0067513D01*
X0051200Y0067535D01*
X0044600Y0067535D01*
X0044600Y0068135D01*
X0051200Y0068135D01*
X0051200Y0068158D01*
X0051099Y0068796D01*
X0050900Y0069409D01*
X0050607Y0069984D01*
X0050227Y0070506D01*
X0049771Y0070963D01*
X0049249Y0071342D01*
X0048674Y0071635D01*
X0048060Y0071834D01*
X0047423Y0071935D01*
X0044600Y0071935D01*
X0044600Y0068135D01*
X0044000Y0068135D01*
X0044000Y0071935D01*
X0041177Y0071935D01*
X0040540Y0071834D01*
X0040357Y0071775D01*
X0040357Y0074304D01*
X0040764Y0074135D01*
X0047836Y0074135D01*
X0049196Y0074699D01*
X0050237Y0075740D01*
X0050800Y0077099D01*
X0050800Y0078571D01*
X0050237Y0079931D01*
X0049196Y0080972D01*
X0047836Y0081535D01*
X0040764Y0081535D01*
X0040357Y0081367D01*
X0040357Y0084304D01*
X0040764Y0084135D01*
X0047836Y0084135D01*
X0049196Y0084699D01*
X0050237Y0085740D01*
X0050800Y0087099D01*
X0050800Y0088571D01*
X0050237Y0089931D01*
X0049196Y0090972D01*
X0047836Y0091535D01*
X0040764Y0091535D01*
X0040357Y0091367D01*
X0040357Y0094304D01*
X0040764Y0094135D01*
X0047836Y0094135D01*
X0049196Y0094699D01*
X0050237Y0095740D01*
X0050800Y0097099D01*
X0050800Y0098571D01*
X0050237Y0099931D01*
X0049196Y0100972D01*
X0047836Y0101535D01*
X0040764Y0101535D01*
X0040357Y0101367D01*
X0040357Y0147835D01*
X0214621Y0147835D01*
X0214621Y0012835D01*
X0108623Y0012835D01*
X0109561Y0013140D01*
X0110447Y0013592D01*
X0111252Y0014176D01*
X0111955Y0014880D01*
X0112540Y0015685D01*
X0112991Y0016571D01*
X0113299Y0017517D01*
X0113454Y0018499D01*
X0113454Y0023717D01*
X0107435Y0023717D01*
X0107435Y0024317D01*
X0106835Y0024317D01*
X0106835Y0035356D01*
X0106637Y0035356D01*
X0105655Y0035200D01*
X0104709Y0034893D01*
X0103822Y0034441D01*
X0103018Y0033857D01*
X0102314Y0033153D01*
X0101730Y0032348D01*
X0101278Y0031462D01*
X0100971Y0030516D01*
X0100815Y0029534D01*
X0100815Y0024317D01*
X0106835Y0024317D01*
X0106835Y0023717D01*
X0100815Y0023717D01*
X0100815Y0018499D01*
X0100971Y0017517D01*
X0101278Y0016571D01*
X0101730Y0015685D01*
X0102314Y0014880D01*
X0103018Y0014176D01*
X0103822Y0013592D01*
X0104709Y0013140D01*
X0105647Y0012835D01*
X0040357Y0012835D01*
X0040357Y0013274D02*
X0104447Y0013274D01*
X0103436Y0013872D02*
X0040357Y0013872D01*
X0040357Y0014471D02*
X0102723Y0014471D01*
X0102177Y0015069D02*
X0040357Y0015069D01*
X0040357Y0015668D02*
X0101742Y0015668D01*
X0101433Y0016266D02*
X0040357Y0016266D01*
X0040357Y0016865D02*
X0101182Y0016865D01*
X0100988Y0017463D02*
X0040357Y0017463D01*
X0040357Y0018062D02*
X0100884Y0018062D01*
X0100815Y0018660D02*
X0040357Y0018660D01*
X0040357Y0019259D02*
X0100815Y0019259D01*
X0100815Y0019857D02*
X0040357Y0019857D01*
X0040357Y0020456D02*
X0100815Y0020456D01*
X0100815Y0021054D02*
X0040357Y0021054D01*
X0040357Y0021653D02*
X0100815Y0021653D01*
X0100815Y0022251D02*
X0040357Y0022251D01*
X0040357Y0022850D02*
X0100815Y0022850D01*
X0100815Y0023448D02*
X0040357Y0023448D01*
X0040357Y0024047D02*
X0106835Y0024047D01*
X0106835Y0024645D02*
X0107435Y0024645D01*
X0107435Y0024317D02*
X0107435Y0035356D01*
X0107632Y0035356D01*
X0108615Y0035200D01*
X0109561Y0034893D01*
X0110447Y0034441D01*
X0111252Y0033857D01*
X0111955Y0033153D01*
X0112540Y0032348D01*
X0112991Y0031462D01*
X0113299Y0030516D01*
X0113454Y0029534D01*
X0113454Y0024317D01*
X0107435Y0024317D01*
X0107435Y0024047D02*
X0116806Y0024047D01*
X0116806Y0024645D02*
X0113454Y0024645D01*
X0113454Y0025244D02*
X0116806Y0025244D01*
X0116806Y0025842D02*
X0113454Y0025842D01*
X0113454Y0026441D02*
X0116806Y0026441D01*
X0116806Y0027039D02*
X0113454Y0027039D01*
X0113454Y0027638D02*
X0116806Y0027638D01*
X0116806Y0028236D02*
X0113454Y0028236D01*
X0113454Y0028835D02*
X0116806Y0028835D01*
X0116806Y0029433D02*
X0113454Y0029433D01*
X0113375Y0030032D02*
X0116806Y0030032D01*
X0116806Y0030214D02*
X0116806Y0017819D01*
X0117707Y0015644D01*
X0119372Y0013978D01*
X0121548Y0013077D01*
X0123903Y0013077D01*
X0126078Y0013978D01*
X0127744Y0015644D01*
X0128645Y0017819D01*
X0128645Y0030214D01*
X0127744Y0032389D01*
X0126078Y0034055D01*
X0123903Y0034956D01*
X0121548Y0034956D01*
X0119372Y0034055D01*
X0117707Y0032389D01*
X0116806Y0030214D01*
X0116978Y0030631D02*
X0113262Y0030631D01*
X0113067Y0031229D02*
X0117226Y0031229D01*
X0117474Y0031828D02*
X0112805Y0031828D01*
X0112483Y0032426D02*
X0117743Y0032426D01*
X0118342Y0033025D02*
X0112048Y0033025D01*
X0111485Y0033623D02*
X0118940Y0033623D01*
X0119775Y0034222D02*
X0110749Y0034222D01*
X0109703Y0034820D02*
X0121220Y0034820D01*
X0124231Y0034820D02*
X0136810Y0034820D01*
X0137138Y0034956D02*
X0134963Y0034055D01*
X0133297Y0032389D01*
X0132396Y0030214D01*
X0132396Y0017819D01*
X0133297Y0015644D01*
X0134963Y0013978D01*
X0137138Y0013077D01*
X0139493Y0013077D01*
X0141669Y0013978D01*
X0143334Y0015644D01*
X0144235Y0017819D01*
X0144235Y0030214D01*
X0143334Y0032389D01*
X0141669Y0034055D01*
X0139493Y0034956D01*
X0137138Y0034956D01*
X0135365Y0034222D02*
X0125675Y0034222D01*
X0126510Y0033623D02*
X0134531Y0033623D01*
X0133932Y0033025D02*
X0127109Y0033025D01*
X0127707Y0032426D02*
X0133334Y0032426D01*
X0133065Y0031828D02*
X0127976Y0031828D01*
X0128224Y0031229D02*
X0132817Y0031229D01*
X0132569Y0030631D02*
X0128472Y0030631D01*
X0128645Y0030032D02*
X0132396Y0030032D01*
X0132396Y0029433D02*
X0128645Y0029433D01*
X0128645Y0028835D02*
X0132396Y0028835D01*
X0132396Y0028236D02*
X0128645Y0028236D01*
X0128645Y0027638D02*
X0132396Y0027638D01*
X0132396Y0027039D02*
X0128645Y0027039D01*
X0128645Y0026441D02*
X0132396Y0026441D01*
X0132396Y0025842D02*
X0128645Y0025842D01*
X0128645Y0025244D02*
X0132396Y0025244D01*
X0132396Y0024645D02*
X0128645Y0024645D01*
X0128645Y0024047D02*
X0132396Y0024047D01*
X0132396Y0023448D02*
X0128645Y0023448D01*
X0128645Y0022850D02*
X0132396Y0022850D01*
X0132396Y0022251D02*
X0128645Y0022251D01*
X0128645Y0021653D02*
X0132396Y0021653D01*
X0132396Y0021054D02*
X0128645Y0021054D01*
X0128645Y0020456D02*
X0132396Y0020456D01*
X0132396Y0019857D02*
X0128645Y0019857D01*
X0128645Y0019259D02*
X0132396Y0019259D01*
X0132396Y0018660D02*
X0128645Y0018660D01*
X0128645Y0018062D02*
X0132396Y0018062D01*
X0132544Y0017463D02*
X0128497Y0017463D01*
X0128249Y0016865D02*
X0132791Y0016865D01*
X0133039Y0016266D02*
X0128002Y0016266D01*
X0127754Y0015668D02*
X0133287Y0015668D01*
X0133872Y0015069D02*
X0127169Y0015069D01*
X0126571Y0014471D02*
X0134470Y0014471D01*
X0135219Y0013872D02*
X0125822Y0013872D01*
X0124377Y0013274D02*
X0136664Y0013274D01*
X0139968Y0013274D02*
X0214621Y0013274D01*
X0214621Y0013872D02*
X0141413Y0013872D01*
X0142161Y0014471D02*
X0214621Y0014471D01*
X0214621Y0015069D02*
X0142760Y0015069D01*
X0143344Y0015668D02*
X0214621Y0015668D01*
X0214621Y0016266D02*
X0143592Y0016266D01*
X0143840Y0016865D02*
X0214621Y0016865D01*
X0214621Y0017463D02*
X0144088Y0017463D01*
X0144235Y0018062D02*
X0214621Y0018062D01*
X0214621Y0018660D02*
X0144235Y0018660D01*
X0144235Y0019259D02*
X0214621Y0019259D01*
X0214621Y0019857D02*
X0144235Y0019857D01*
X0144235Y0020456D02*
X0214621Y0020456D01*
X0214621Y0021054D02*
X0144235Y0021054D01*
X0144235Y0021653D02*
X0214621Y0021653D01*
X0214621Y0022251D02*
X0144235Y0022251D01*
X0144235Y0022850D02*
X0214621Y0022850D01*
X0214621Y0023448D02*
X0144235Y0023448D01*
X0144235Y0024047D02*
X0214621Y0024047D01*
X0214621Y0024645D02*
X0144235Y0024645D01*
X0144235Y0025244D02*
X0214621Y0025244D01*
X0214621Y0025842D02*
X0144235Y0025842D01*
X0144235Y0026441D02*
X0214621Y0026441D01*
X0214621Y0027039D02*
X0144235Y0027039D01*
X0144235Y0027638D02*
X0214621Y0027638D01*
X0214621Y0028236D02*
X0144235Y0028236D01*
X0144235Y0028835D02*
X0214621Y0028835D01*
X0214621Y0029433D02*
X0144235Y0029433D01*
X0144235Y0030032D02*
X0214621Y0030032D01*
X0214621Y0030631D02*
X0144063Y0030631D01*
X0143815Y0031229D02*
X0214621Y0031229D01*
X0214621Y0031828D02*
X0143567Y0031828D01*
X0143298Y0032426D02*
X0214621Y0032426D01*
X0214621Y0033025D02*
X0142699Y0033025D01*
X0142101Y0033623D02*
X0214621Y0033623D01*
X0214621Y0034222D02*
X0141266Y0034222D01*
X0139821Y0034820D02*
X0214621Y0034820D01*
X0214621Y0035419D02*
X0040357Y0035419D01*
X0040357Y0036017D02*
X0214621Y0036017D01*
X0214621Y0036616D02*
X0040357Y0036616D01*
X0040357Y0037214D02*
X0214621Y0037214D01*
X0214621Y0037813D02*
X0040357Y0037813D01*
X0040357Y0038411D02*
X0214621Y0038411D01*
X0214621Y0039010D02*
X0040357Y0039010D01*
X0040357Y0039608D02*
X0191808Y0039608D01*
X0191539Y0039695D02*
X0192485Y0039388D01*
X0193468Y0039232D01*
X0198685Y0039232D01*
X0198685Y0045252D01*
X0187646Y0045252D01*
X0187646Y0045055D01*
X0187801Y0044072D01*
X0188109Y0043126D01*
X0188560Y0042240D01*
X0189145Y0041435D01*
X0189848Y0040732D01*
X0190653Y0040147D01*
X0191539Y0039695D01*
X0190571Y0040207D02*
X0040357Y0040207D01*
X0040357Y0040805D02*
X0189775Y0040805D01*
X0189176Y0041404D02*
X0040357Y0041404D01*
X0040357Y0042002D02*
X0188733Y0042002D01*
X0188376Y0042601D02*
X0040357Y0042601D01*
X0040357Y0043199D02*
X0188085Y0043199D01*
X0187890Y0043798D02*
X0040357Y0043798D01*
X0040357Y0044396D02*
X0187750Y0044396D01*
X0187655Y0044995D02*
X0040357Y0044995D01*
X0040357Y0045593D02*
X0198685Y0045593D01*
X0198685Y0045852D02*
X0198685Y0045252D01*
X0199285Y0045252D01*
X0199285Y0045852D01*
X0198685Y0045852D01*
X0198685Y0051872D01*
X0193468Y0051872D01*
X0192485Y0051716D01*
X0191539Y0051409D01*
X0190653Y0050957D01*
X0189848Y0050372D01*
X0189145Y0049669D01*
X0188560Y0048864D01*
X0188109Y0047978D01*
X0187801Y0047032D01*
X0187646Y0046049D01*
X0187646Y0045852D01*
X0198685Y0045852D01*
X0198685Y0046192D02*
X0199285Y0046192D01*
X0199285Y0045852D02*
X0199285Y0051872D01*
X0204502Y0051872D01*
X0205485Y0051716D01*
X0206431Y0051409D01*
X0207317Y0050957D01*
X0208122Y0050372D01*
X0208825Y0049669D01*
X0209410Y0048864D01*
X0209861Y0047978D01*
X0210169Y0047032D01*
X0210324Y0046049D01*
X0210324Y0045852D01*
X0199285Y0045852D01*
X0199285Y0045593D02*
X0214621Y0045593D01*
X0214621Y0044995D02*
X0210315Y0044995D01*
X0210324Y0045055D02*
X0210169Y0044072D01*
X0209861Y0043126D01*
X0209410Y0042240D01*
X0208825Y0041435D01*
X0208122Y0040732D01*
X0207317Y0040147D01*
X0206431Y0039695D01*
X0205485Y0039388D01*
X0204502Y0039232D01*
X0199285Y0039232D01*
X0199285Y0045252D01*
X0210324Y0045252D01*
X0210324Y0045055D01*
X0210220Y0044396D02*
X0214621Y0044396D01*
X0214621Y0043798D02*
X0210080Y0043798D01*
X0209885Y0043199D02*
X0214621Y0043199D01*
X0214621Y0042601D02*
X0209594Y0042601D01*
X0209237Y0042002D02*
X0214621Y0042002D01*
X0214621Y0041404D02*
X0208794Y0041404D01*
X0208195Y0040805D02*
X0214621Y0040805D01*
X0214621Y0040207D02*
X0207399Y0040207D01*
X0206163Y0039608D02*
X0214621Y0039608D01*
X0214621Y0046192D02*
X0210302Y0046192D01*
X0210207Y0046790D02*
X0214621Y0046790D01*
X0214621Y0047389D02*
X0210053Y0047389D01*
X0209857Y0047987D02*
X0214621Y0047987D01*
X0214621Y0048586D02*
X0209552Y0048586D01*
X0209177Y0049184D02*
X0214621Y0049184D01*
X0214621Y0049783D02*
X0208711Y0049783D01*
X0208109Y0050381D02*
X0214621Y0050381D01*
X0214621Y0050980D02*
X0207272Y0050980D01*
X0205908Y0051578D02*
X0214621Y0051578D01*
X0214621Y0052177D02*
X0040357Y0052177D01*
X0040357Y0052775D02*
X0214621Y0052775D01*
X0214621Y0053374D02*
X0040357Y0053374D01*
X0040357Y0053972D02*
X0214621Y0053972D01*
X0214621Y0054571D02*
X0040357Y0054571D01*
X0040357Y0055169D02*
X0214621Y0055169D01*
X0214621Y0055768D02*
X0206498Y0055768D01*
X0207358Y0056124D02*
X0209023Y0057789D01*
X0209924Y0059965D01*
X0209924Y0062320D01*
X0209023Y0064496D01*
X0207358Y0066161D01*
X0205182Y0067062D01*
X0192788Y0067062D01*
X0190612Y0066161D01*
X0188947Y0064496D01*
X0188046Y0062320D01*
X0188046Y0059965D01*
X0188947Y0057789D01*
X0190612Y0056124D01*
X0192788Y0055223D01*
X0205182Y0055223D01*
X0207358Y0056124D01*
X0207600Y0056366D02*
X0214621Y0056366D01*
X0214621Y0056965D02*
X0208199Y0056965D01*
X0208797Y0057564D02*
X0214621Y0057564D01*
X0214621Y0058162D02*
X0209178Y0058162D01*
X0209425Y0058761D02*
X0214621Y0058761D01*
X0214621Y0059359D02*
X0209673Y0059359D01*
X0209921Y0059958D02*
X0214621Y0059958D01*
X0214621Y0060556D02*
X0209924Y0060556D01*
X0209924Y0061155D02*
X0214621Y0061155D01*
X0214621Y0061753D02*
X0209924Y0061753D01*
X0209911Y0062352D02*
X0214621Y0062352D01*
X0214621Y0062950D02*
X0209663Y0062950D01*
X0209415Y0063549D02*
X0214621Y0063549D01*
X0214621Y0064147D02*
X0209168Y0064147D01*
X0208773Y0064746D02*
X0214621Y0064746D01*
X0214621Y0065344D02*
X0208175Y0065344D01*
X0207576Y0065943D02*
X0214621Y0065943D01*
X0214621Y0066541D02*
X0206440Y0066541D01*
X0205182Y0070813D02*
X0207358Y0071715D01*
X0209023Y0073380D01*
X0209924Y0075556D01*
X0209924Y0077911D01*
X0209023Y0080086D01*
X0207358Y0081752D01*
X0205182Y0082653D01*
X0192788Y0082653D01*
X0190612Y0081752D01*
X0188947Y0080086D01*
X0188046Y0077911D01*
X0188046Y0075556D01*
X0188947Y0073380D01*
X0190612Y0071715D01*
X0192788Y0070813D01*
X0205182Y0070813D01*
X0206428Y0071329D02*
X0214621Y0071329D01*
X0214621Y0070731D02*
X0136571Y0070731D01*
X0136571Y0071329D02*
X0191542Y0071329D01*
X0190399Y0071928D02*
X0136224Y0071928D01*
X0136571Y0071581D02*
X0135171Y0072980D01*
X0133490Y0072980D01*
X0112238Y0094232D01*
X0108408Y0094232D01*
X0107219Y0095421D01*
X0105240Y0095421D01*
X0103840Y0094022D01*
X0103840Y0092043D01*
X0105240Y0090643D01*
X0107219Y0090643D01*
X0108408Y0091832D01*
X0111244Y0091832D01*
X0131793Y0071283D01*
X0131793Y0069602D01*
X0132982Y0068413D01*
X0132982Y0061746D01*
X0131793Y0060557D01*
X0131793Y0058578D01*
X0133192Y0057179D01*
X0135171Y0057179D01*
X0136571Y0058578D01*
X0136571Y0060557D01*
X0135382Y0061746D01*
X0135382Y0068413D01*
X0136571Y0069602D01*
X0136571Y0071581D01*
X0135625Y0072526D02*
X0189800Y0072526D01*
X0189202Y0073125D02*
X0133345Y0073125D01*
X0132747Y0073723D02*
X0188805Y0073723D01*
X0188557Y0074322D02*
X0132148Y0074322D01*
X0131550Y0074920D02*
X0188309Y0074920D01*
X0188061Y0075519D02*
X0130951Y0075519D01*
X0130353Y0076117D02*
X0188046Y0076117D01*
X0188046Y0076716D02*
X0129754Y0076716D01*
X0129156Y0077314D02*
X0188046Y0077314D01*
X0188047Y0077913D02*
X0128557Y0077913D01*
X0127959Y0078511D02*
X0188295Y0078511D01*
X0188542Y0079110D02*
X0127360Y0079110D01*
X0126762Y0079708D02*
X0188790Y0079708D01*
X0189168Y0080307D02*
X0126163Y0080307D01*
X0125565Y0080905D02*
X0189766Y0080905D01*
X0190365Y0081504D02*
X0124966Y0081504D01*
X0124368Y0082102D02*
X0191459Y0082102D01*
X0206511Y0082102D02*
X0214621Y0082102D01*
X0214621Y0081504D02*
X0207605Y0081504D01*
X0208204Y0080905D02*
X0214621Y0080905D01*
X0214621Y0080307D02*
X0208803Y0080307D01*
X0209180Y0079708D02*
X0214621Y0079708D01*
X0214621Y0079110D02*
X0209428Y0079110D01*
X0209676Y0078511D02*
X0214621Y0078511D01*
X0214621Y0077913D02*
X0209923Y0077913D01*
X0209924Y0077314D02*
X0214621Y0077314D01*
X0214621Y0076716D02*
X0209924Y0076716D01*
X0209924Y0076117D02*
X0214621Y0076117D01*
X0214621Y0075519D02*
X0209909Y0075519D01*
X0209661Y0074920D02*
X0214621Y0074920D01*
X0214621Y0074322D02*
X0209413Y0074322D01*
X0209165Y0073723D02*
X0214621Y0073723D01*
X0214621Y0073125D02*
X0208768Y0073125D01*
X0208170Y0072526D02*
X0214621Y0072526D01*
X0214621Y0071928D02*
X0207571Y0071928D01*
X0214621Y0070132D02*
X0136571Y0070132D01*
X0136503Y0069534D02*
X0214621Y0069534D01*
X0214621Y0068935D02*
X0135904Y0068935D01*
X0135382Y0068337D02*
X0214621Y0068337D01*
X0214621Y0067738D02*
X0135382Y0067738D01*
X0135382Y0067140D02*
X0214621Y0067140D01*
X0199285Y0051578D02*
X0198685Y0051578D01*
X0198685Y0050980D02*
X0199285Y0050980D01*
X0199285Y0050381D02*
X0198685Y0050381D01*
X0198685Y0049783D02*
X0199285Y0049783D01*
X0199285Y0049184D02*
X0198685Y0049184D01*
X0198685Y0048586D02*
X0199285Y0048586D01*
X0199285Y0047987D02*
X0198685Y0047987D01*
X0198685Y0047389D02*
X0199285Y0047389D01*
X0199285Y0046790D02*
X0198685Y0046790D01*
X0198685Y0044995D02*
X0199285Y0044995D01*
X0199285Y0044396D02*
X0198685Y0044396D01*
X0198685Y0043798D02*
X0199285Y0043798D01*
X0199285Y0043199D02*
X0198685Y0043199D01*
X0198685Y0042601D02*
X0199285Y0042601D01*
X0199285Y0042002D02*
X0198685Y0042002D01*
X0198685Y0041404D02*
X0199285Y0041404D01*
X0199285Y0040805D02*
X0198685Y0040805D01*
X0198685Y0040207D02*
X0199285Y0040207D01*
X0199285Y0039608D02*
X0198685Y0039608D01*
X0187668Y0046192D02*
X0040357Y0046192D01*
X0040357Y0046790D02*
X0187763Y0046790D01*
X0187917Y0047389D02*
X0040357Y0047389D01*
X0040357Y0047987D02*
X0188113Y0047987D01*
X0188418Y0048586D02*
X0040357Y0048586D01*
X0040357Y0049184D02*
X0188793Y0049184D01*
X0189259Y0049783D02*
X0040357Y0049783D01*
X0040357Y0050381D02*
X0189861Y0050381D01*
X0190698Y0050980D02*
X0040357Y0050980D01*
X0040357Y0051578D02*
X0192062Y0051578D01*
X0191472Y0055768D02*
X0040357Y0055768D01*
X0040357Y0056366D02*
X0190370Y0056366D01*
X0189771Y0056965D02*
X0040357Y0056965D01*
X0040357Y0057564D02*
X0132808Y0057564D01*
X0132209Y0058162D02*
X0040357Y0058162D01*
X0040357Y0058761D02*
X0131793Y0058761D01*
X0131793Y0059359D02*
X0040357Y0059359D01*
X0040357Y0059958D02*
X0131793Y0059958D01*
X0131793Y0060556D02*
X0040357Y0060556D01*
X0040357Y0061155D02*
X0132390Y0061155D01*
X0132982Y0061753D02*
X0040357Y0061753D01*
X0040357Y0062352D02*
X0132982Y0062352D01*
X0132982Y0062950D02*
X0040357Y0062950D01*
X0040357Y0063549D02*
X0132982Y0063549D01*
X0132982Y0064147D02*
X0048892Y0064147D01*
X0049809Y0064746D02*
X0132982Y0064746D01*
X0132982Y0065344D02*
X0050358Y0065344D01*
X0050737Y0065943D02*
X0132982Y0065943D01*
X0132982Y0066541D02*
X0050990Y0066541D01*
X0051141Y0067140D02*
X0132982Y0067140D01*
X0132982Y0067738D02*
X0044600Y0067738D01*
X0044600Y0067140D02*
X0044000Y0067140D01*
X0044000Y0066541D02*
X0044600Y0066541D01*
X0044600Y0065943D02*
X0044000Y0065943D01*
X0044000Y0065344D02*
X0044600Y0065344D01*
X0044600Y0064746D02*
X0044000Y0064746D01*
X0044000Y0064147D02*
X0044600Y0064147D01*
X0044600Y0068337D02*
X0044000Y0068337D01*
X0044000Y0068935D02*
X0044600Y0068935D01*
X0044600Y0069534D02*
X0044000Y0069534D01*
X0044000Y0070132D02*
X0044600Y0070132D01*
X0044600Y0070731D02*
X0044000Y0070731D01*
X0044000Y0071329D02*
X0044600Y0071329D01*
X0044600Y0071928D02*
X0044000Y0071928D01*
X0041129Y0071928D02*
X0040357Y0071928D01*
X0040357Y0072526D02*
X0130550Y0072526D01*
X0131148Y0071928D02*
X0047471Y0071928D01*
X0049266Y0071329D02*
X0131747Y0071329D01*
X0131793Y0070731D02*
X0050003Y0070731D01*
X0050499Y0070132D02*
X0131793Y0070132D01*
X0131861Y0069534D02*
X0050836Y0069534D01*
X0051054Y0068935D02*
X0132459Y0068935D01*
X0132982Y0068337D02*
X0051172Y0068337D01*
X0048286Y0074322D02*
X0128754Y0074322D01*
X0128156Y0074920D02*
X0059212Y0074920D01*
X0059187Y0074895D02*
X0060587Y0076295D01*
X0060587Y0076478D01*
X0070586Y0076478D01*
X0071775Y0075289D01*
X0073754Y0075289D01*
X0075154Y0076688D01*
X0075154Y0078667D01*
X0073754Y0080067D01*
X0071775Y0080067D01*
X0070586Y0078878D01*
X0059982Y0078878D01*
X0059187Y0079673D01*
X0057208Y0079673D01*
X0055809Y0078274D01*
X0055809Y0076295D01*
X0057208Y0074895D01*
X0059187Y0074895D01*
X0059811Y0075519D02*
X0071545Y0075519D01*
X0070947Y0076117D02*
X0060409Y0076117D01*
X0058591Y0077678D02*
X0072765Y0077678D01*
X0074583Y0076117D02*
X0126959Y0076117D01*
X0127557Y0075519D02*
X0073984Y0075519D01*
X0075154Y0076716D02*
X0126360Y0076716D01*
X0125762Y0077314D02*
X0075154Y0077314D01*
X0075154Y0077913D02*
X0125163Y0077913D01*
X0124565Y0078511D02*
X0075154Y0078511D01*
X0074711Y0079110D02*
X0123966Y0079110D01*
X0123368Y0079708D02*
X0074113Y0079708D01*
X0071417Y0079708D02*
X0050329Y0079708D01*
X0050577Y0079110D02*
X0056645Y0079110D01*
X0056046Y0078511D02*
X0050800Y0078511D01*
X0050800Y0077913D02*
X0055809Y0077913D01*
X0055809Y0077314D02*
X0050800Y0077314D01*
X0050641Y0076716D02*
X0055809Y0076716D01*
X0055986Y0076117D02*
X0050393Y0076117D01*
X0050016Y0075519D02*
X0056584Y0075519D01*
X0057183Y0074920D02*
X0049418Y0074920D01*
X0049861Y0080307D02*
X0122769Y0080307D01*
X0122171Y0080905D02*
X0049263Y0080905D01*
X0047912Y0081504D02*
X0121572Y0081504D01*
X0120974Y0082102D02*
X0040357Y0082102D01*
X0040357Y0081504D02*
X0040688Y0081504D01*
X0040357Y0082701D02*
X0120375Y0082701D01*
X0119777Y0083300D02*
X0040357Y0083300D01*
X0040357Y0083898D02*
X0119178Y0083898D01*
X0118580Y0084497D02*
X0048708Y0084497D01*
X0049592Y0085095D02*
X0117981Y0085095D01*
X0117383Y0085694D02*
X0050191Y0085694D01*
X0050466Y0086292D02*
X0116784Y0086292D01*
X0116186Y0086891D02*
X0050713Y0086891D01*
X0050800Y0087489D02*
X0115587Y0087489D01*
X0114989Y0088088D02*
X0050800Y0088088D01*
X0050752Y0088686D02*
X0114390Y0088686D01*
X0113792Y0089285D02*
X0050505Y0089285D01*
X0050257Y0089883D02*
X0113193Y0089883D01*
X0112595Y0090482D02*
X0049686Y0090482D01*
X0048935Y0091080D02*
X0104803Y0091080D01*
X0104204Y0091679D02*
X0040357Y0091679D01*
X0040357Y0092277D02*
X0103840Y0092277D01*
X0103840Y0092876D02*
X0040357Y0092876D01*
X0040357Y0093474D02*
X0103840Y0093474D01*
X0103891Y0094073D02*
X0040357Y0094073D01*
X0049129Y0094671D02*
X0104490Y0094671D01*
X0105088Y0095270D02*
X0049767Y0095270D01*
X0050290Y0095868D02*
X0214621Y0095868D01*
X0214621Y0095270D02*
X0107370Y0095270D01*
X0107969Y0094671D02*
X0214621Y0094671D01*
X0214621Y0094073D02*
X0112398Y0094073D01*
X0112996Y0093474D02*
X0214621Y0093474D01*
X0214621Y0092876D02*
X0113595Y0092876D01*
X0114193Y0092277D02*
X0214621Y0092277D01*
X0214621Y0091679D02*
X0114792Y0091679D01*
X0115390Y0091080D02*
X0214621Y0091080D01*
X0214621Y0090482D02*
X0115989Y0090482D01*
X0116587Y0089883D02*
X0214621Y0089883D01*
X0214621Y0089285D02*
X0117186Y0089285D01*
X0117784Y0088686D02*
X0214621Y0088686D01*
X0214621Y0088088D02*
X0118383Y0088088D01*
X0118981Y0087489D02*
X0214621Y0087489D01*
X0214621Y0086891D02*
X0119580Y0086891D01*
X0120178Y0086292D02*
X0214621Y0086292D01*
X0214621Y0085694D02*
X0120777Y0085694D01*
X0121375Y0085095D02*
X0214621Y0085095D01*
X0214621Y0084497D02*
X0121974Y0084497D01*
X0122572Y0083898D02*
X0214621Y0083898D01*
X0214621Y0083300D02*
X0123171Y0083300D01*
X0123769Y0082701D02*
X0214621Y0082701D01*
X0214621Y0096467D02*
X0206218Y0096467D01*
X0205878Y0096356D02*
X0206824Y0096664D01*
X0207711Y0097115D01*
X0208515Y0097700D01*
X0209219Y0098403D01*
X0209803Y0099208D01*
X0210255Y0100095D01*
X0210562Y0101041D01*
X0210718Y0102023D01*
X0210718Y0102220D01*
X0199679Y0102220D01*
X0199679Y0096201D01*
X0204896Y0096201D01*
X0205878Y0096356D01*
X0207612Y0097065D02*
X0214621Y0097065D01*
X0214621Y0097664D02*
X0208465Y0097664D01*
X0209078Y0098262D02*
X0214621Y0098262D01*
X0214621Y0098861D02*
X0209551Y0098861D01*
X0209931Y0099459D02*
X0214621Y0099459D01*
X0214621Y0100058D02*
X0210236Y0100058D01*
X0210438Y0100656D02*
X0214621Y0100656D01*
X0214621Y0101255D02*
X0210596Y0101255D01*
X0210691Y0101853D02*
X0214621Y0101853D01*
X0214621Y0102452D02*
X0199679Y0102452D01*
X0199679Y0102220D02*
X0199679Y0102820D01*
X0210718Y0102820D01*
X0210718Y0103018D01*
X0210562Y0104000D01*
X0210255Y0104946D01*
X0209803Y0105833D01*
X0209219Y0106637D01*
X0208515Y0107341D01*
X0207711Y0107926D01*
X0206824Y0108377D01*
X0205878Y0108685D01*
X0204896Y0108840D01*
X0199679Y0108840D01*
X0199679Y0102821D01*
X0199079Y0102821D01*
X0199079Y0108840D01*
X0193862Y0108840D01*
X0192879Y0108685D01*
X0191933Y0108377D01*
X0191047Y0107926D01*
X0190242Y0107341D01*
X0189539Y0106637D01*
X0188954Y0105833D01*
X0188502Y0104946D01*
X0188195Y0104000D01*
X0188039Y0103018D01*
X0188039Y0102820D01*
X0199079Y0102820D01*
X0199079Y0102220D01*
X0199679Y0102220D01*
X0199679Y0101853D02*
X0199079Y0101853D01*
X0199079Y0102220D02*
X0199079Y0096201D01*
X0193862Y0096201D01*
X0192879Y0096356D01*
X0191933Y0096664D01*
X0191047Y0097115D01*
X0190242Y0097700D01*
X0189539Y0098403D01*
X0188954Y0099208D01*
X0188502Y0100095D01*
X0188195Y0101041D01*
X0188039Y0102023D01*
X0188039Y0102220D01*
X0199079Y0102220D01*
X0199079Y0102452D02*
X0040357Y0102452D01*
X0040357Y0103050D02*
X0188045Y0103050D01*
X0188139Y0103649D02*
X0040357Y0103649D01*
X0040357Y0104247D02*
X0188275Y0104247D01*
X0188470Y0104846D02*
X0040357Y0104846D01*
X0040357Y0105444D02*
X0188756Y0105444D01*
X0189107Y0106043D02*
X0040357Y0106043D01*
X0040357Y0106641D02*
X0189543Y0106641D01*
X0190141Y0107240D02*
X0040357Y0107240D01*
X0040357Y0107838D02*
X0190927Y0107838D01*
X0192117Y0108437D02*
X0040357Y0108437D01*
X0040357Y0109035D02*
X0214621Y0109035D01*
X0214621Y0108437D02*
X0206640Y0108437D01*
X0207830Y0107838D02*
X0214621Y0107838D01*
X0214621Y0107240D02*
X0208616Y0107240D01*
X0209215Y0106641D02*
X0214621Y0106641D01*
X0214621Y0106043D02*
X0209651Y0106043D01*
X0210001Y0105444D02*
X0214621Y0105444D01*
X0214621Y0104846D02*
X0210288Y0104846D01*
X0210482Y0104247D02*
X0214621Y0104247D01*
X0214621Y0103649D02*
X0210618Y0103649D01*
X0210713Y0103050D02*
X0214621Y0103050D01*
X0214621Y0109634D02*
X0040357Y0109634D01*
X0040357Y0110233D02*
X0214621Y0110233D01*
X0214621Y0110831D02*
X0040357Y0110831D01*
X0040357Y0111430D02*
X0214621Y0111430D01*
X0214621Y0112028D02*
X0040357Y0112028D01*
X0040357Y0112627D02*
X0192131Y0112627D01*
X0193182Y0112191D02*
X0205576Y0112191D01*
X0207752Y0113093D01*
X0209417Y0114758D01*
X0210318Y0116934D01*
X0210318Y0119289D01*
X0209417Y0121464D01*
X0207752Y0123129D01*
X0205576Y0124031D01*
X0193182Y0124031D01*
X0191006Y0123129D01*
X0189341Y0121464D01*
X0188439Y0119289D01*
X0188439Y0116934D01*
X0189341Y0114758D01*
X0191006Y0113093D01*
X0193182Y0112191D01*
X0190873Y0113225D02*
X0040357Y0113225D01*
X0040357Y0113824D02*
X0190275Y0113824D01*
X0189676Y0114422D02*
X0040357Y0114422D01*
X0040357Y0115021D02*
X0189232Y0115021D01*
X0188984Y0115619D02*
X0040357Y0115619D01*
X0040357Y0116218D02*
X0188736Y0116218D01*
X0188488Y0116816D02*
X0040357Y0116816D01*
X0040357Y0117415D02*
X0188439Y0117415D01*
X0188439Y0118013D02*
X0040357Y0118013D01*
X0040357Y0118612D02*
X0188439Y0118612D01*
X0188439Y0119210D02*
X0040357Y0119210D01*
X0040357Y0119809D02*
X0188655Y0119809D01*
X0188903Y0120407D02*
X0040357Y0120407D01*
X0040357Y0121006D02*
X0189151Y0121006D01*
X0189481Y0121604D02*
X0040357Y0121604D01*
X0040357Y0122203D02*
X0190079Y0122203D01*
X0190678Y0122801D02*
X0040357Y0122801D01*
X0040357Y0123400D02*
X0191658Y0123400D01*
X0193103Y0123998D02*
X0040357Y0123998D01*
X0040357Y0124597D02*
X0137854Y0124597D01*
X0138291Y0124528D02*
X0138488Y0124528D01*
X0138488Y0135567D01*
X0132469Y0135567D01*
X0132469Y0130350D01*
X0132624Y0129367D01*
X0132932Y0128421D01*
X0133383Y0127535D01*
X0133968Y0126730D01*
X0134671Y0126027D01*
X0135476Y0125442D01*
X0136362Y0124991D01*
X0137308Y0124683D01*
X0138291Y0124528D01*
X0138488Y0124597D02*
X0139088Y0124597D01*
X0139088Y0124528D02*
X0139286Y0124528D01*
X0140268Y0124683D01*
X0141214Y0124991D01*
X0142100Y0125442D01*
X0142905Y0126027D01*
X0143609Y0126730D01*
X0144193Y0127535D01*
X0144645Y0128421D01*
X0144952Y0129367D01*
X0145108Y0130350D01*
X0145108Y0135567D01*
X0139088Y0135567D01*
X0139088Y0124528D01*
X0139723Y0124597D02*
X0214621Y0124597D01*
X0214621Y0125195D02*
X0141616Y0125195D01*
X0142584Y0125794D02*
X0214621Y0125794D01*
X0214621Y0126392D02*
X0143271Y0126392D01*
X0143798Y0126991D02*
X0214621Y0126991D01*
X0214621Y0127589D02*
X0144221Y0127589D01*
X0144526Y0128188D02*
X0192201Y0128188D01*
X0193182Y0127782D02*
X0205576Y0127782D01*
X0207752Y0128683D01*
X0209417Y0130348D01*
X0210318Y0132524D01*
X0210318Y0134879D01*
X0209417Y0137055D01*
X0207752Y0138720D01*
X0205576Y0139621D01*
X0193182Y0139621D01*
X0191006Y0138720D01*
X0189341Y0137055D01*
X0188439Y0134879D01*
X0188439Y0132524D01*
X0189341Y0130348D01*
X0191006Y0128683D01*
X0193182Y0127782D01*
X0190903Y0128786D02*
X0144763Y0128786D01*
X0144955Y0129385D02*
X0190304Y0129385D01*
X0189706Y0129983D02*
X0145050Y0129983D01*
X0145108Y0130582D02*
X0189244Y0130582D01*
X0188996Y0131180D02*
X0145108Y0131180D01*
X0145108Y0131779D02*
X0188748Y0131779D01*
X0188500Y0132377D02*
X0145108Y0132377D01*
X0145108Y0132976D02*
X0188439Y0132976D01*
X0188439Y0133574D02*
X0145108Y0133574D01*
X0145108Y0134173D02*
X0188439Y0134173D01*
X0188439Y0134771D02*
X0145108Y0134771D01*
X0145108Y0135370D02*
X0188643Y0135370D01*
X0188891Y0135969D02*
X0139088Y0135969D01*
X0139088Y0136167D02*
X0145108Y0136167D01*
X0145108Y0141384D01*
X0144952Y0142366D01*
X0144645Y0143313D01*
X0144193Y0144199D01*
X0143609Y0145004D01*
X0142905Y0145707D01*
X0142100Y0146292D01*
X0141214Y0146743D01*
X0140268Y0147051D01*
X0139286Y0147206D01*
X0139088Y0147206D01*
X0139088Y0136167D01*
X0138488Y0136167D01*
X0138488Y0135567D01*
X0139088Y0135567D01*
X0139088Y0136167D01*
X0139088Y0136567D02*
X0138488Y0136567D01*
X0138488Y0136167D02*
X0138488Y0147206D01*
X0138291Y0147206D01*
X0137308Y0147051D01*
X0136362Y0146743D01*
X0135476Y0146292D01*
X0134671Y0145707D01*
X0133968Y0145004D01*
X0133383Y0144199D01*
X0132932Y0143313D01*
X0132624Y0142366D01*
X0132469Y0141384D01*
X0132469Y0136167D01*
X0138488Y0136167D01*
X0138488Y0135969D02*
X0129117Y0135969D01*
X0129117Y0136567D02*
X0132469Y0136567D01*
X0132469Y0137166D02*
X0129117Y0137166D01*
X0129117Y0137764D02*
X0132469Y0137764D01*
X0132469Y0138363D02*
X0129117Y0138363D01*
X0129117Y0138961D02*
X0132469Y0138961D01*
X0132469Y0139560D02*
X0129117Y0139560D01*
X0129117Y0140158D02*
X0132469Y0140158D01*
X0132469Y0140757D02*
X0129117Y0140757D01*
X0129117Y0141355D02*
X0132469Y0141355D01*
X0132559Y0141954D02*
X0129117Y0141954D01*
X0129117Y0142064D02*
X0128216Y0144240D01*
X0126551Y0145905D01*
X0124375Y0146806D01*
X0122020Y0146806D01*
X0119844Y0145905D01*
X0118179Y0144240D01*
X0117278Y0142064D01*
X0117278Y0129670D01*
X0118179Y0127494D01*
X0119844Y0125829D01*
X0122020Y0124928D01*
X0124375Y0124928D01*
X0126551Y0125829D01*
X0128216Y0127494D01*
X0129117Y0129670D01*
X0129117Y0142064D01*
X0128915Y0142552D02*
X0132684Y0142552D01*
X0132879Y0143151D02*
X0128667Y0143151D01*
X0128419Y0143749D02*
X0133154Y0143749D01*
X0133491Y0144348D02*
X0128108Y0144348D01*
X0127510Y0144946D02*
X0133926Y0144946D01*
X0134509Y0145545D02*
X0126911Y0145545D01*
X0125976Y0146143D02*
X0135272Y0146143D01*
X0136359Y0146742D02*
X0124531Y0146742D01*
X0121864Y0146742D02*
X0108941Y0146742D01*
X0108785Y0146806D02*
X0106430Y0146806D01*
X0104254Y0145905D01*
X0102589Y0144240D01*
X0101687Y0142064D01*
X0101687Y0129670D01*
X0102589Y0127494D01*
X0104254Y0125829D01*
X0106430Y0124928D01*
X0108785Y0124928D01*
X0110960Y0125829D01*
X0112626Y0127494D01*
X0113527Y0129670D01*
X0113527Y0142064D01*
X0112626Y0144240D01*
X0110960Y0145905D01*
X0108785Y0146806D01*
X0110385Y0146143D02*
X0120419Y0146143D01*
X0119484Y0145545D02*
X0111321Y0145545D01*
X0111919Y0144946D02*
X0118886Y0144946D01*
X0118287Y0144348D02*
X0112518Y0144348D01*
X0112829Y0143749D02*
X0117976Y0143749D01*
X0117728Y0143151D02*
X0113077Y0143151D01*
X0113325Y0142552D02*
X0117480Y0142552D01*
X0117278Y0141954D02*
X0113527Y0141954D01*
X0113527Y0141355D02*
X0117278Y0141355D01*
X0117278Y0140757D02*
X0113527Y0140757D01*
X0113527Y0140158D02*
X0117278Y0140158D01*
X0117278Y0139560D02*
X0113527Y0139560D01*
X0113527Y0138961D02*
X0117278Y0138961D01*
X0117278Y0138363D02*
X0113527Y0138363D01*
X0113527Y0137764D02*
X0117278Y0137764D01*
X0117278Y0137166D02*
X0113527Y0137166D01*
X0113527Y0136567D02*
X0117278Y0136567D01*
X0117278Y0135969D02*
X0113527Y0135969D01*
X0113527Y0135370D02*
X0117278Y0135370D01*
X0117278Y0134771D02*
X0113527Y0134771D01*
X0113527Y0134173D02*
X0117278Y0134173D01*
X0117278Y0133574D02*
X0113527Y0133574D01*
X0113527Y0132976D02*
X0117278Y0132976D01*
X0117278Y0132377D02*
X0113527Y0132377D01*
X0113527Y0131779D02*
X0117278Y0131779D01*
X0117278Y0131180D02*
X0113527Y0131180D01*
X0113527Y0130582D02*
X0117278Y0130582D01*
X0117278Y0129983D02*
X0113527Y0129983D01*
X0113409Y0129385D02*
X0117396Y0129385D01*
X0117644Y0128786D02*
X0113161Y0128786D01*
X0112913Y0128188D02*
X0117892Y0128188D01*
X0118140Y0127589D02*
X0112665Y0127589D01*
X0112122Y0126991D02*
X0118682Y0126991D01*
X0119281Y0126392D02*
X0111524Y0126392D01*
X0110876Y0125794D02*
X0119929Y0125794D01*
X0121374Y0125195D02*
X0109431Y0125195D01*
X0105783Y0125195D02*
X0040357Y0125195D01*
X0040357Y0125794D02*
X0104338Y0125794D01*
X0103690Y0126392D02*
X0040357Y0126392D01*
X0040357Y0126991D02*
X0103092Y0126991D01*
X0102549Y0127589D02*
X0040357Y0127589D01*
X0040357Y0128188D02*
X0102301Y0128188D01*
X0102053Y0128786D02*
X0040357Y0128786D01*
X0040357Y0129385D02*
X0101805Y0129385D01*
X0101687Y0129983D02*
X0040357Y0129983D01*
X0040357Y0130582D02*
X0101687Y0130582D01*
X0101687Y0131180D02*
X0040357Y0131180D01*
X0040357Y0131779D02*
X0101687Y0131779D01*
X0101687Y0132377D02*
X0040357Y0132377D01*
X0040357Y0132976D02*
X0101687Y0132976D01*
X0101687Y0133574D02*
X0040357Y0133574D01*
X0040357Y0134173D02*
X0101687Y0134173D01*
X0101687Y0134771D02*
X0040357Y0134771D01*
X0040357Y0135370D02*
X0101687Y0135370D01*
X0101687Y0135969D02*
X0040357Y0135969D01*
X0040357Y0136567D02*
X0101687Y0136567D01*
X0101687Y0137166D02*
X0040357Y0137166D01*
X0040357Y0137764D02*
X0101687Y0137764D01*
X0101687Y0138363D02*
X0040357Y0138363D01*
X0040357Y0138961D02*
X0101687Y0138961D01*
X0101687Y0139560D02*
X0040357Y0139560D01*
X0040357Y0140158D02*
X0101687Y0140158D01*
X0101687Y0140757D02*
X0040357Y0140757D01*
X0040357Y0141355D02*
X0101687Y0141355D01*
X0101687Y0141954D02*
X0040357Y0141954D01*
X0040357Y0142552D02*
X0101890Y0142552D01*
X0102137Y0143151D02*
X0040357Y0143151D01*
X0040357Y0143749D02*
X0102385Y0143749D01*
X0102696Y0144348D02*
X0040357Y0144348D01*
X0040357Y0144946D02*
X0103295Y0144946D01*
X0103893Y0145545D02*
X0040357Y0145545D01*
X0040357Y0146143D02*
X0104829Y0146143D01*
X0106274Y0146742D02*
X0040357Y0146742D01*
X0040357Y0147340D02*
X0214621Y0147340D01*
X0214621Y0146742D02*
X0141217Y0146742D01*
X0142305Y0146143D02*
X0214621Y0146143D01*
X0214621Y0145545D02*
X0143067Y0145545D01*
X0143650Y0144946D02*
X0214621Y0144946D01*
X0214621Y0144348D02*
X0144085Y0144348D01*
X0144422Y0143749D02*
X0214621Y0143749D01*
X0214621Y0143151D02*
X0144697Y0143151D01*
X0144892Y0142552D02*
X0214621Y0142552D01*
X0214621Y0141954D02*
X0145018Y0141954D01*
X0145108Y0141355D02*
X0214621Y0141355D01*
X0214621Y0140757D02*
X0145108Y0140757D01*
X0145108Y0140158D02*
X0214621Y0140158D01*
X0214621Y0139560D02*
X0205725Y0139560D01*
X0207170Y0138961D02*
X0214621Y0138961D01*
X0214621Y0138363D02*
X0208109Y0138363D01*
X0208708Y0137764D02*
X0214621Y0137764D01*
X0214621Y0137166D02*
X0209306Y0137166D01*
X0209619Y0136567D02*
X0214621Y0136567D01*
X0214621Y0135969D02*
X0209867Y0135969D01*
X0210115Y0135370D02*
X0214621Y0135370D01*
X0214621Y0134771D02*
X0210318Y0134771D01*
X0210318Y0134173D02*
X0214621Y0134173D01*
X0214621Y0133574D02*
X0210318Y0133574D01*
X0210318Y0132976D02*
X0214621Y0132976D01*
X0214621Y0132377D02*
X0210257Y0132377D01*
X0210009Y0131779D02*
X0214621Y0131779D01*
X0214621Y0131180D02*
X0209762Y0131180D01*
X0209514Y0130582D02*
X0214621Y0130582D01*
X0214621Y0129983D02*
X0209052Y0129983D01*
X0208453Y0129385D02*
X0214621Y0129385D01*
X0214621Y0128786D02*
X0207855Y0128786D01*
X0206556Y0128188D02*
X0214621Y0128188D01*
X0214621Y0123998D02*
X0205654Y0123998D01*
X0207099Y0123400D02*
X0214621Y0123400D01*
X0214621Y0122801D02*
X0208080Y0122801D01*
X0208678Y0122203D02*
X0214621Y0122203D01*
X0214621Y0121604D02*
X0209277Y0121604D01*
X0209607Y0121006D02*
X0214621Y0121006D01*
X0214621Y0120407D02*
X0209855Y0120407D01*
X0210103Y0119809D02*
X0214621Y0119809D01*
X0214621Y0119210D02*
X0210318Y0119210D01*
X0210318Y0118612D02*
X0214621Y0118612D01*
X0214621Y0118013D02*
X0210318Y0118013D01*
X0210318Y0117415D02*
X0214621Y0117415D01*
X0214621Y0116816D02*
X0210269Y0116816D01*
X0210022Y0116218D02*
X0214621Y0116218D01*
X0214621Y0115619D02*
X0209774Y0115619D01*
X0209526Y0115021D02*
X0214621Y0115021D01*
X0214621Y0114422D02*
X0209081Y0114422D01*
X0208483Y0113824D02*
X0214621Y0113824D01*
X0214621Y0113225D02*
X0207884Y0113225D01*
X0206627Y0112627D02*
X0214621Y0112627D01*
X0199679Y0108437D02*
X0199079Y0108437D01*
X0199079Y0107838D02*
X0199679Y0107838D01*
X0199679Y0107240D02*
X0199079Y0107240D01*
X0199079Y0106641D02*
X0199679Y0106641D01*
X0199679Y0106043D02*
X0199079Y0106043D01*
X0199079Y0105444D02*
X0199679Y0105444D01*
X0199679Y0104846D02*
X0199079Y0104846D01*
X0199079Y0104247D02*
X0199679Y0104247D01*
X0199679Y0103649D02*
X0199079Y0103649D01*
X0199079Y0103050D02*
X0199679Y0103050D01*
X0199679Y0101255D02*
X0199079Y0101255D01*
X0199079Y0100656D02*
X0199679Y0100656D01*
X0199679Y0100058D02*
X0199079Y0100058D01*
X0199079Y0099459D02*
X0199679Y0099459D01*
X0199679Y0098861D02*
X0199079Y0098861D01*
X0199079Y0098262D02*
X0199679Y0098262D01*
X0199679Y0097664D02*
X0199079Y0097664D01*
X0199079Y0097065D02*
X0199679Y0097065D01*
X0199679Y0096467D02*
X0199079Y0096467D01*
X0192540Y0096467D02*
X0050538Y0096467D01*
X0050786Y0097065D02*
X0191145Y0097065D01*
X0190292Y0097664D02*
X0050800Y0097664D01*
X0050800Y0098262D02*
X0189680Y0098262D01*
X0189206Y0098861D02*
X0050680Y0098861D01*
X0050432Y0099459D02*
X0188826Y0099459D01*
X0188521Y0100058D02*
X0050110Y0100058D01*
X0049512Y0100656D02*
X0188320Y0100656D01*
X0188161Y0101255D02*
X0048513Y0101255D01*
X0040357Y0101853D02*
X0188066Y0101853D01*
X0139088Y0125195D02*
X0138488Y0125195D01*
X0138488Y0125794D02*
X0139088Y0125794D01*
X0139088Y0126392D02*
X0138488Y0126392D01*
X0138488Y0126991D02*
X0139088Y0126991D01*
X0139088Y0127589D02*
X0138488Y0127589D01*
X0138488Y0128188D02*
X0139088Y0128188D01*
X0139088Y0128786D02*
X0138488Y0128786D01*
X0138488Y0129385D02*
X0139088Y0129385D01*
X0139088Y0129983D02*
X0138488Y0129983D01*
X0138488Y0130582D02*
X0139088Y0130582D01*
X0139088Y0131180D02*
X0138488Y0131180D01*
X0138488Y0131779D02*
X0139088Y0131779D01*
X0139088Y0132377D02*
X0138488Y0132377D01*
X0138488Y0132976D02*
X0139088Y0132976D01*
X0139088Y0133574D02*
X0138488Y0133574D01*
X0138488Y0134173D02*
X0139088Y0134173D01*
X0139088Y0134771D02*
X0138488Y0134771D01*
X0138488Y0135370D02*
X0139088Y0135370D01*
X0139088Y0137166D02*
X0138488Y0137166D01*
X0138488Y0137764D02*
X0139088Y0137764D01*
X0139088Y0138363D02*
X0138488Y0138363D01*
X0138488Y0138961D02*
X0139088Y0138961D01*
X0139088Y0139560D02*
X0138488Y0139560D01*
X0138488Y0140158D02*
X0139088Y0140158D01*
X0139088Y0140757D02*
X0138488Y0140757D01*
X0138488Y0141355D02*
X0139088Y0141355D01*
X0139088Y0141954D02*
X0138488Y0141954D01*
X0138488Y0142552D02*
X0139088Y0142552D01*
X0139088Y0143151D02*
X0138488Y0143151D01*
X0138488Y0143749D02*
X0139088Y0143749D01*
X0139088Y0144348D02*
X0138488Y0144348D01*
X0138488Y0144946D02*
X0139088Y0144946D01*
X0139088Y0145545D02*
X0138488Y0145545D01*
X0138488Y0146143D02*
X0139088Y0146143D01*
X0139088Y0146742D02*
X0138488Y0146742D01*
X0145108Y0139560D02*
X0193033Y0139560D01*
X0191588Y0138961D02*
X0145108Y0138961D01*
X0145108Y0138363D02*
X0190648Y0138363D01*
X0190050Y0137764D02*
X0145108Y0137764D01*
X0145108Y0137166D02*
X0189451Y0137166D01*
X0189139Y0136567D02*
X0145108Y0136567D01*
X0132813Y0128786D02*
X0128751Y0128786D01*
X0128503Y0128188D02*
X0133050Y0128188D01*
X0133355Y0127589D02*
X0128256Y0127589D01*
X0127713Y0126991D02*
X0133778Y0126991D01*
X0134306Y0126392D02*
X0127114Y0126392D01*
X0126466Y0125794D02*
X0134992Y0125794D01*
X0135960Y0125195D02*
X0125022Y0125195D01*
X0128999Y0129385D02*
X0132621Y0129385D01*
X0132527Y0129983D02*
X0129117Y0129983D01*
X0129117Y0130582D02*
X0132469Y0130582D01*
X0132469Y0131180D02*
X0129117Y0131180D01*
X0129117Y0131779D02*
X0132469Y0131779D01*
X0132469Y0132377D02*
X0129117Y0132377D01*
X0129117Y0132976D02*
X0132469Y0132976D01*
X0132469Y0133574D02*
X0129117Y0133574D01*
X0129117Y0134173D02*
X0132469Y0134173D01*
X0132469Y0134771D02*
X0129117Y0134771D01*
X0129117Y0135370D02*
X0132469Y0135370D01*
X0111741Y0093032D02*
X0106229Y0093032D01*
X0107656Y0091080D02*
X0111996Y0091080D01*
X0111398Y0091679D02*
X0108254Y0091679D01*
X0111741Y0093032D02*
X0134182Y0070591D01*
X0134182Y0059568D01*
X0135974Y0061155D02*
X0188046Y0061155D01*
X0188046Y0061753D02*
X0135382Y0061753D01*
X0135382Y0062352D02*
X0188059Y0062352D01*
X0188307Y0062950D02*
X0135382Y0062950D01*
X0135382Y0063549D02*
X0188555Y0063549D01*
X0188802Y0064147D02*
X0135382Y0064147D01*
X0135382Y0064746D02*
X0189197Y0064746D01*
X0189795Y0065344D02*
X0135382Y0065344D01*
X0135382Y0065943D02*
X0190394Y0065943D01*
X0191530Y0066541D02*
X0135382Y0066541D01*
X0136571Y0060556D02*
X0188046Y0060556D01*
X0188049Y0059958D02*
X0136571Y0059958D01*
X0136571Y0059359D02*
X0188297Y0059359D01*
X0188545Y0058761D02*
X0136571Y0058761D01*
X0136155Y0058162D02*
X0188792Y0058162D01*
X0189173Y0057564D02*
X0135556Y0057564D01*
X0129951Y0073125D02*
X0040357Y0073125D01*
X0040357Y0073723D02*
X0129353Y0073723D01*
X0107435Y0034820D02*
X0106835Y0034820D01*
X0106835Y0034222D02*
X0107435Y0034222D01*
X0107435Y0033623D02*
X0106835Y0033623D01*
X0106835Y0033025D02*
X0107435Y0033025D01*
X0107435Y0032426D02*
X0106835Y0032426D01*
X0106835Y0031828D02*
X0107435Y0031828D01*
X0107435Y0031229D02*
X0106835Y0031229D01*
X0106835Y0030631D02*
X0107435Y0030631D01*
X0107435Y0030032D02*
X0106835Y0030032D01*
X0106835Y0029433D02*
X0107435Y0029433D01*
X0107435Y0028835D02*
X0106835Y0028835D01*
X0106835Y0028236D02*
X0107435Y0028236D01*
X0107435Y0027638D02*
X0106835Y0027638D01*
X0106835Y0027039D02*
X0107435Y0027039D01*
X0107435Y0026441D02*
X0106835Y0026441D01*
X0106835Y0025842D02*
X0107435Y0025842D01*
X0107435Y0025244D02*
X0106835Y0025244D01*
X0100815Y0025244D02*
X0040357Y0025244D01*
X0040357Y0025842D02*
X0100815Y0025842D01*
X0100815Y0026441D02*
X0040357Y0026441D01*
X0040357Y0027039D02*
X0100815Y0027039D01*
X0100815Y0027638D02*
X0040357Y0027638D01*
X0040357Y0028236D02*
X0100815Y0028236D01*
X0100815Y0028835D02*
X0040357Y0028835D01*
X0040357Y0029433D02*
X0100815Y0029433D01*
X0100894Y0030032D02*
X0040357Y0030032D01*
X0040357Y0030631D02*
X0101008Y0030631D01*
X0101202Y0031229D02*
X0040357Y0031229D01*
X0040357Y0031828D02*
X0101464Y0031828D01*
X0101786Y0032426D02*
X0040357Y0032426D01*
X0040357Y0033025D02*
X0102221Y0033025D01*
X0102784Y0033623D02*
X0040357Y0033623D01*
X0040357Y0034222D02*
X0103520Y0034222D01*
X0104566Y0034820D02*
X0040357Y0034820D01*
X0040357Y0024645D02*
X0100815Y0024645D01*
X0113454Y0023448D02*
X0116806Y0023448D01*
X0116806Y0022850D02*
X0113454Y0022850D01*
X0113454Y0022251D02*
X0116806Y0022251D01*
X0116806Y0021653D02*
X0113454Y0021653D01*
X0113454Y0021054D02*
X0116806Y0021054D01*
X0116806Y0020456D02*
X0113454Y0020456D01*
X0113454Y0019857D02*
X0116806Y0019857D01*
X0116806Y0019259D02*
X0113454Y0019259D01*
X0113454Y0018660D02*
X0116806Y0018660D01*
X0116806Y0018062D02*
X0113385Y0018062D01*
X0113281Y0017463D02*
X0116953Y0017463D01*
X0117201Y0016865D02*
X0113087Y0016865D01*
X0112836Y0016266D02*
X0117449Y0016266D01*
X0117697Y0015668D02*
X0112527Y0015668D01*
X0112093Y0015069D02*
X0118281Y0015069D01*
X0118880Y0014471D02*
X0111546Y0014471D01*
X0110833Y0013872D02*
X0119628Y0013872D01*
X0121073Y0013274D02*
X0109823Y0013274D01*
X0058198Y0077284D02*
X0058591Y0077678D01*
X0059750Y0079110D02*
X0070818Y0079110D01*
D11*
X0107135Y0029036D02*
X0107135Y0018997D01*
X0122725Y0018997D02*
X0122725Y0029036D01*
X0138316Y0029036D02*
X0138316Y0018997D01*
X0193965Y0045552D02*
X0204005Y0045552D01*
X0204005Y0061143D02*
X0193965Y0061143D01*
X0193965Y0076733D02*
X0204005Y0076733D01*
X0204398Y0102520D02*
X0194359Y0102520D01*
X0194359Y0118111D02*
X0204398Y0118111D01*
X0204398Y0133702D02*
X0194359Y0133702D01*
X0138788Y0130847D02*
X0138788Y0140887D01*
X0123198Y0140887D02*
X0123198Y0130847D01*
X0107607Y0130847D02*
X0107607Y0140887D01*
D12*
X0047100Y0097835D02*
X0041500Y0097835D01*
X0041500Y0087835D02*
X0047100Y0087835D01*
X0047100Y0077835D02*
X0041500Y0077835D01*
X0041500Y0067835D02*
X0047100Y0067835D01*
D13*
X0058198Y0077284D03*
X0072765Y0077678D03*
X0087725Y0100906D03*
X0106229Y0093032D03*
X0134182Y0070591D03*
X0134182Y0059568D03*
X0160166Y0055237D03*
D14*
X0126308Y0049725D03*
X0101111Y0056024D03*
X0127095Y0092245D03*
X0109379Y0100513D03*
X0179064Y0092245D03*
M02*
