%
M48
M72
T01C0.01378
T02C0.03600
T03C0.06693
%
T01
X101111Y56024
X126308Y49725
X134182Y59568
X134182Y70591
X160166Y55237
X179064Y92245
X127095Y92245
X109379Y100513
X106229Y93032
X87725Y100906
X72765Y77678
X58198Y77284
T02
X44300Y77835
X44300Y67835
X44300Y87835
X44300Y97835
T03
X107607Y135867
X123198Y135867
X138788Y135867
X199379Y133702
X199379Y118111
X199379Y102520
X198985Y76733
X198985Y61143
X198985Y45552
X138316Y24017
X122725Y24017
X107135Y24017
M30
