G75*
%MOIN*%
%OFA0B0*%
%FSLAX25Y25*%
%IPPOS*%
%LPD*%
%AMOC8*
5,1,8,0,0,1.08239X$1,22.5*
%
%ADD10C,0.00600*%
D10*
X0035757Y0001300D02*
X0035757Y0159568D01*
X0219221Y0159568D01*
X0219221Y0001300D01*
X0035757Y0001300D01*
X0077789Y0023101D02*
X0077789Y0026657D01*
X0077791Y0026731D01*
X0077797Y0026806D01*
X0077807Y0026879D01*
X0077820Y0026953D01*
X0077837Y0027025D01*
X0077859Y0027096D01*
X0077883Y0027167D01*
X0077912Y0027235D01*
X0077944Y0027303D01*
X0077980Y0027368D01*
X0078018Y0027431D01*
X0078061Y0027493D01*
X0078106Y0027552D01*
X0078154Y0027608D01*
X0078205Y0027663D01*
X0078259Y0027714D01*
X0078316Y0027762D01*
X0078375Y0027807D01*
X0078437Y0027850D01*
X0078500Y0027888D01*
X0078565Y0027924D01*
X0078633Y0027956D01*
X0078701Y0027985D01*
X0078772Y0028009D01*
X0078843Y0028031D01*
X0078915Y0028048D01*
X0078989Y0028061D01*
X0079062Y0028071D01*
X0079137Y0028077D01*
X0079211Y0028079D01*
X0080633Y0028079D01*
X0083138Y0028079D02*
X0083138Y0021679D01*
X0080633Y0021679D02*
X0079211Y0021679D01*
X0079137Y0021681D01*
X0079062Y0021687D01*
X0078989Y0021697D01*
X0078915Y0021710D01*
X0078843Y0021727D01*
X0078772Y0021749D01*
X0078701Y0021773D01*
X0078633Y0021802D01*
X0078565Y0021834D01*
X0078500Y0021870D01*
X0078437Y0021908D01*
X0078375Y0021951D01*
X0078316Y0021996D01*
X0078259Y0022044D01*
X0078205Y0022095D01*
X0078154Y0022149D01*
X0078106Y0022206D01*
X0078061Y0022265D01*
X0078018Y0022327D01*
X0077980Y0022390D01*
X0077944Y0022455D01*
X0077912Y0022523D01*
X0077883Y0022591D01*
X0077859Y0022662D01*
X0077837Y0022733D01*
X0077820Y0022805D01*
X0077807Y0022879D01*
X0077797Y0022952D01*
X0077791Y0023027D01*
X0077789Y0023101D01*
X0083138Y0025234D02*
X0086694Y0025234D01*
X0090208Y0025234D02*
X0091631Y0025234D01*
X0091631Y0025235D02*
X0091705Y0025237D01*
X0091780Y0025243D01*
X0091853Y0025253D01*
X0091927Y0025266D01*
X0091999Y0025283D01*
X0092070Y0025305D01*
X0092141Y0025329D01*
X0092209Y0025358D01*
X0092277Y0025390D01*
X0092342Y0025426D01*
X0092405Y0025464D01*
X0092467Y0025507D01*
X0092526Y0025552D01*
X0092583Y0025600D01*
X0092637Y0025651D01*
X0092688Y0025705D01*
X0092736Y0025762D01*
X0092781Y0025821D01*
X0092824Y0025883D01*
X0092862Y0025946D01*
X0092898Y0026011D01*
X0092930Y0026079D01*
X0092959Y0026147D01*
X0092983Y0026218D01*
X0093005Y0026289D01*
X0093022Y0026361D01*
X0093035Y0026435D01*
X0093045Y0026508D01*
X0093051Y0026583D01*
X0093053Y0026657D01*
X0093051Y0026731D01*
X0093045Y0026806D01*
X0093035Y0026879D01*
X0093022Y0026953D01*
X0093005Y0027025D01*
X0092983Y0027096D01*
X0092959Y0027167D01*
X0092930Y0027235D01*
X0092898Y0027303D01*
X0092862Y0027368D01*
X0092824Y0027431D01*
X0092781Y0027493D01*
X0092736Y0027552D01*
X0092688Y0027609D01*
X0092637Y0027663D01*
X0092583Y0027714D01*
X0092526Y0027762D01*
X0092467Y0027807D01*
X0092405Y0027850D01*
X0092342Y0027888D01*
X0092277Y0027924D01*
X0092209Y0027956D01*
X0092141Y0027985D01*
X0092070Y0028009D01*
X0091999Y0028031D01*
X0091927Y0028048D01*
X0091853Y0028061D01*
X0091780Y0028071D01*
X0091705Y0028077D01*
X0091631Y0028079D01*
X0089497Y0028079D01*
X0086694Y0028079D02*
X0086694Y0021679D01*
X0089497Y0021679D02*
X0091275Y0021679D01*
X0091358Y0021681D01*
X0091441Y0021687D01*
X0091524Y0021697D01*
X0091607Y0021710D01*
X0091688Y0021728D01*
X0091769Y0021749D01*
X0091848Y0021774D01*
X0091926Y0021803D01*
X0092003Y0021835D01*
X0092078Y0021871D01*
X0092152Y0021910D01*
X0092223Y0021953D01*
X0092293Y0021999D01*
X0092360Y0022049D01*
X0092425Y0022101D01*
X0092487Y0022156D01*
X0092547Y0022215D01*
X0092604Y0022276D01*
X0092658Y0022339D01*
X0092709Y0022405D01*
X0092756Y0022474D01*
X0092801Y0022544D01*
X0092842Y0022617D01*
X0092879Y0022691D01*
X0092914Y0022767D01*
X0092944Y0022845D01*
X0092971Y0022923D01*
X0092994Y0023004D01*
X0093014Y0023085D01*
X0093029Y0023167D01*
X0093041Y0023249D01*
X0093049Y0023332D01*
X0093053Y0023415D01*
X0093053Y0023499D01*
X0093049Y0023582D01*
X0093041Y0023665D01*
X0093029Y0023747D01*
X0093014Y0023829D01*
X0092994Y0023910D01*
X0092971Y0023991D01*
X0092944Y0024069D01*
X0092914Y0024147D01*
X0092879Y0024223D01*
X0092842Y0024297D01*
X0092801Y0024370D01*
X0092756Y0024440D01*
X0092709Y0024509D01*
X0092658Y0024575D01*
X0092604Y0024638D01*
X0092547Y0024699D01*
X0092487Y0024758D01*
X0092425Y0024813D01*
X0092360Y0024865D01*
X0092293Y0024915D01*
X0092223Y0024961D01*
X0092152Y0025004D01*
X0092078Y0025043D01*
X0092003Y0025079D01*
X0091926Y0025111D01*
X0091848Y0025140D01*
X0091769Y0025165D01*
X0091688Y0025186D01*
X0091607Y0025204D01*
X0091524Y0025217D01*
X0091441Y0025227D01*
X0091358Y0025233D01*
X0091275Y0025235D01*
X0169128Y0044361D02*
X0169128Y0047916D01*
X0169130Y0047990D01*
X0169136Y0048065D01*
X0169146Y0048138D01*
X0169159Y0048212D01*
X0169176Y0048284D01*
X0169198Y0048355D01*
X0169222Y0048426D01*
X0169251Y0048494D01*
X0169283Y0048562D01*
X0169319Y0048627D01*
X0169357Y0048690D01*
X0169400Y0048752D01*
X0169445Y0048811D01*
X0169493Y0048867D01*
X0169544Y0048922D01*
X0169598Y0048973D01*
X0169655Y0049021D01*
X0169714Y0049066D01*
X0169776Y0049109D01*
X0169839Y0049147D01*
X0169904Y0049183D01*
X0169972Y0049215D01*
X0170040Y0049244D01*
X0170111Y0049268D01*
X0170182Y0049290D01*
X0170254Y0049307D01*
X0170328Y0049320D01*
X0170401Y0049330D01*
X0170476Y0049336D01*
X0170550Y0049338D01*
X0170550Y0049339D02*
X0171972Y0049339D01*
X0174477Y0049339D02*
X0174477Y0042939D01*
X0171972Y0042939D02*
X0170550Y0042939D01*
X0170476Y0042941D01*
X0170401Y0042947D01*
X0170328Y0042957D01*
X0170254Y0042970D01*
X0170182Y0042987D01*
X0170111Y0043009D01*
X0170040Y0043033D01*
X0169972Y0043062D01*
X0169904Y0043094D01*
X0169839Y0043130D01*
X0169776Y0043168D01*
X0169714Y0043211D01*
X0169655Y0043256D01*
X0169598Y0043304D01*
X0169544Y0043355D01*
X0169493Y0043409D01*
X0169445Y0043466D01*
X0169400Y0043525D01*
X0169357Y0043587D01*
X0169319Y0043650D01*
X0169283Y0043715D01*
X0169251Y0043783D01*
X0169222Y0043851D01*
X0169198Y0043922D01*
X0169176Y0043993D01*
X0169159Y0044065D01*
X0169146Y0044139D01*
X0169136Y0044212D01*
X0169130Y0044287D01*
X0169128Y0044361D01*
X0174477Y0046494D02*
X0178032Y0046494D01*
X0180836Y0044361D02*
X0184391Y0044361D01*
X0183325Y0045783D02*
X0183325Y0042939D01*
X0180836Y0044361D02*
X0182258Y0049339D01*
X0178032Y0049339D02*
X0178032Y0042939D01*
X0177245Y0129946D02*
X0177245Y0136346D01*
X0180048Y0134924D02*
X0181826Y0136346D01*
X0181826Y0129946D01*
X0180048Y0129946D02*
X0183604Y0129946D01*
X0177245Y0133502D02*
X0173689Y0133502D01*
X0169762Y0136346D02*
X0169688Y0136344D01*
X0169613Y0136338D01*
X0169540Y0136328D01*
X0169466Y0136315D01*
X0169394Y0136298D01*
X0169323Y0136276D01*
X0169252Y0136252D01*
X0169184Y0136223D01*
X0169116Y0136191D01*
X0169051Y0136155D01*
X0168988Y0136117D01*
X0168926Y0136074D01*
X0168867Y0136029D01*
X0168810Y0135981D01*
X0168756Y0135930D01*
X0168705Y0135875D01*
X0168657Y0135819D01*
X0168612Y0135760D01*
X0168569Y0135698D01*
X0168531Y0135635D01*
X0168495Y0135570D01*
X0168463Y0135502D01*
X0168434Y0135434D01*
X0168410Y0135363D01*
X0168388Y0135292D01*
X0168371Y0135220D01*
X0168358Y0135146D01*
X0168348Y0135073D01*
X0168342Y0134998D01*
X0168340Y0134924D01*
X0168340Y0131369D01*
X0168342Y0131295D01*
X0168348Y0131220D01*
X0168358Y0131147D01*
X0168371Y0131073D01*
X0168388Y0131001D01*
X0168410Y0130930D01*
X0168434Y0130859D01*
X0168463Y0130791D01*
X0168495Y0130723D01*
X0168531Y0130658D01*
X0168569Y0130595D01*
X0168612Y0130533D01*
X0168657Y0130474D01*
X0168705Y0130417D01*
X0168756Y0130363D01*
X0168810Y0130312D01*
X0168867Y0130264D01*
X0168926Y0130219D01*
X0168988Y0130176D01*
X0169051Y0130138D01*
X0169116Y0130102D01*
X0169184Y0130070D01*
X0169252Y0130041D01*
X0169323Y0130017D01*
X0169394Y0129995D01*
X0169466Y0129978D01*
X0169540Y0129965D01*
X0169613Y0129955D01*
X0169688Y0129949D01*
X0169762Y0129947D01*
X0169762Y0129946D02*
X0171185Y0129946D01*
X0173689Y0129946D02*
X0173689Y0136346D01*
X0171185Y0136346D02*
X0169762Y0136346D01*
X0093053Y0131521D02*
X0089497Y0131521D01*
X0092519Y0135077D01*
X0091453Y0137922D02*
X0091364Y0137920D01*
X0091275Y0137914D01*
X0091186Y0137905D01*
X0091098Y0137891D01*
X0091011Y0137874D01*
X0090924Y0137853D01*
X0090838Y0137828D01*
X0090754Y0137800D01*
X0090671Y0137767D01*
X0090589Y0137732D01*
X0090509Y0137692D01*
X0090431Y0137650D01*
X0090354Y0137604D01*
X0090280Y0137555D01*
X0090208Y0137502D01*
X0090138Y0137447D01*
X0090071Y0137388D01*
X0090006Y0137327D01*
X0089944Y0137263D01*
X0089885Y0137196D01*
X0089829Y0137127D01*
X0089776Y0137055D01*
X0089726Y0136981D01*
X0089679Y0136905D01*
X0089636Y0136828D01*
X0089596Y0136748D01*
X0089559Y0136667D01*
X0089526Y0136584D01*
X0089497Y0136499D01*
X0092520Y0135076D02*
X0092577Y0135134D01*
X0092633Y0135195D01*
X0092685Y0135258D01*
X0092734Y0135323D01*
X0092780Y0135391D01*
X0092822Y0135461D01*
X0092862Y0135533D01*
X0092897Y0135606D01*
X0092930Y0135682D01*
X0092958Y0135758D01*
X0092983Y0135836D01*
X0093004Y0135915D01*
X0093022Y0135995D01*
X0093035Y0136076D01*
X0093045Y0136157D01*
X0093051Y0136239D01*
X0093053Y0136321D01*
X0093051Y0136400D01*
X0093045Y0136478D01*
X0093036Y0136556D01*
X0093022Y0136633D01*
X0093005Y0136710D01*
X0092984Y0136785D01*
X0092959Y0136860D01*
X0092931Y0136933D01*
X0092899Y0137005D01*
X0092864Y0137075D01*
X0092825Y0137144D01*
X0092783Y0137210D01*
X0092738Y0137274D01*
X0092690Y0137336D01*
X0092639Y0137395D01*
X0092584Y0137452D01*
X0092527Y0137507D01*
X0092468Y0137558D01*
X0092406Y0137606D01*
X0092342Y0137651D01*
X0092276Y0137693D01*
X0092207Y0137732D01*
X0092137Y0137767D01*
X0092065Y0137799D01*
X0091992Y0137827D01*
X0091917Y0137852D01*
X0091842Y0137873D01*
X0091765Y0137890D01*
X0091688Y0137904D01*
X0091610Y0137913D01*
X0091532Y0137919D01*
X0091453Y0137921D01*
X0086694Y0137921D02*
X0086694Y0131521D01*
X0086694Y0135077D02*
X0083138Y0135077D01*
X0079211Y0137921D02*
X0079137Y0137919D01*
X0079062Y0137913D01*
X0078989Y0137903D01*
X0078915Y0137890D01*
X0078843Y0137873D01*
X0078772Y0137851D01*
X0078701Y0137827D01*
X0078633Y0137798D01*
X0078565Y0137766D01*
X0078500Y0137730D01*
X0078437Y0137692D01*
X0078375Y0137649D01*
X0078316Y0137604D01*
X0078259Y0137556D01*
X0078205Y0137505D01*
X0078154Y0137450D01*
X0078106Y0137394D01*
X0078061Y0137335D01*
X0078018Y0137273D01*
X0077980Y0137210D01*
X0077944Y0137145D01*
X0077912Y0137077D01*
X0077883Y0137009D01*
X0077859Y0136938D01*
X0077837Y0136867D01*
X0077820Y0136795D01*
X0077807Y0136721D01*
X0077797Y0136648D01*
X0077791Y0136573D01*
X0077789Y0136499D01*
X0077789Y0132943D01*
X0077791Y0132869D01*
X0077797Y0132794D01*
X0077807Y0132721D01*
X0077820Y0132647D01*
X0077837Y0132575D01*
X0077859Y0132504D01*
X0077883Y0132433D01*
X0077912Y0132365D01*
X0077944Y0132297D01*
X0077980Y0132232D01*
X0078018Y0132169D01*
X0078061Y0132107D01*
X0078106Y0132048D01*
X0078154Y0131991D01*
X0078205Y0131937D01*
X0078259Y0131886D01*
X0078316Y0131838D01*
X0078375Y0131793D01*
X0078437Y0131750D01*
X0078500Y0131712D01*
X0078565Y0131676D01*
X0078633Y0131644D01*
X0078701Y0131615D01*
X0078772Y0131591D01*
X0078843Y0131569D01*
X0078915Y0131552D01*
X0078989Y0131539D01*
X0079062Y0131529D01*
X0079137Y0131523D01*
X0079211Y0131521D01*
X0080633Y0131521D01*
X0083138Y0131521D02*
X0083138Y0137921D01*
X0080633Y0137921D02*
X0079211Y0137921D01*
M02*
