G75*
%MOIN*%
%OFA0B0*%
%FSLAX25Y25*%
%IPPOS*%
%LPD*%
%AMOC8*
5,1,8,0,0,1.08239X$1,22.5*
%
%ADD10C,0.00000*%
%ADD11C,0.29528*%
%ADD12OC8,0.07400*%
%ADD13R,0.06102X0.00984*%
%ADD14R,0.00984X0.06102*%
%ADD15R,0.06890X0.01575*%
%ADD16R,0.03937X0.07087*%
%ADD17R,0.04724X0.03150*%
%ADD18C,0.00800*%
%ADD19R,0.03150X0.04724*%
%ADD20C,0.04400*%
%ADD21C,0.02400*%
%ADD22R,0.04921X0.06299*%
%ADD23R,0.00984X0.03937*%
%ADD24R,0.03937X0.00984*%
%ADD25R,0.07400X0.07400*%
%ADD26C,0.07400*%
%ADD27R,0.02402X0.08661*%
%ADD28R,0.02756X0.00984*%
%ADD29R,0.05118X0.05906*%
%ADD30R,0.05906X0.05118*%
%ADD31R,0.01969X0.01969*%
%ADD32R,0.08661X0.03937*%
%ADD33R,0.07087X0.06299*%
%ADD34C,0.02978*%
%ADD35C,0.01000*%
%ADD36R,0.02978X0.02978*%
%ADD37C,0.03000*%
%ADD38C,0.03600*%
%ADD39C,0.01600*%
%ADD40C,0.02000*%
%ADD41C,0.04000*%
D10*
X0087864Y0091801D02*
X0091801Y0087864D01*
X0137077Y0087864D01*
X0137079Y0088054D01*
X0137086Y0088244D01*
X0137098Y0088434D01*
X0137114Y0088624D01*
X0137134Y0088813D01*
X0137160Y0089002D01*
X0137189Y0089190D01*
X0137224Y0089377D01*
X0137263Y0089563D01*
X0137306Y0089748D01*
X0137354Y0089933D01*
X0137406Y0090116D01*
X0137462Y0090297D01*
X0137523Y0090477D01*
X0137589Y0090656D01*
X0137658Y0090833D01*
X0137732Y0091009D01*
X0137810Y0091182D01*
X0137893Y0091354D01*
X0137979Y0091523D01*
X0138069Y0091691D01*
X0138164Y0091856D01*
X0138262Y0092019D01*
X0138365Y0092179D01*
X0138471Y0092337D01*
X0138581Y0092492D01*
X0138694Y0092645D01*
X0138812Y0092795D01*
X0138933Y0092941D01*
X0139057Y0093085D01*
X0139185Y0093226D01*
X0139316Y0093364D01*
X0139451Y0093499D01*
X0139589Y0093630D01*
X0139730Y0093758D01*
X0139874Y0093882D01*
X0140020Y0094003D01*
X0140170Y0094121D01*
X0140323Y0094234D01*
X0140478Y0094344D01*
X0140636Y0094450D01*
X0140796Y0094553D01*
X0140959Y0094651D01*
X0141124Y0094746D01*
X0141292Y0094836D01*
X0141461Y0094922D01*
X0141633Y0095005D01*
X0141806Y0095083D01*
X0141982Y0095157D01*
X0142159Y0095226D01*
X0142338Y0095292D01*
X0142518Y0095353D01*
X0142699Y0095409D01*
X0142882Y0095461D01*
X0143067Y0095509D01*
X0143252Y0095552D01*
X0143438Y0095591D01*
X0143625Y0095626D01*
X0143813Y0095655D01*
X0144002Y0095681D01*
X0144191Y0095701D01*
X0144381Y0095717D01*
X0144571Y0095729D01*
X0144761Y0095736D01*
X0144951Y0095738D01*
X0400856Y0095738D01*
X0401046Y0095736D01*
X0401236Y0095729D01*
X0401426Y0095717D01*
X0401616Y0095701D01*
X0401805Y0095681D01*
X0401994Y0095655D01*
X0402182Y0095626D01*
X0402369Y0095591D01*
X0402555Y0095552D01*
X0402740Y0095509D01*
X0402925Y0095461D01*
X0403108Y0095409D01*
X0403289Y0095353D01*
X0403469Y0095292D01*
X0403648Y0095226D01*
X0403825Y0095157D01*
X0404001Y0095083D01*
X0404174Y0095005D01*
X0404346Y0094922D01*
X0404515Y0094836D01*
X0404683Y0094746D01*
X0404848Y0094651D01*
X0405011Y0094553D01*
X0405171Y0094450D01*
X0405329Y0094344D01*
X0405484Y0094234D01*
X0405637Y0094121D01*
X0405787Y0094003D01*
X0405933Y0093882D01*
X0406077Y0093758D01*
X0406218Y0093630D01*
X0406356Y0093499D01*
X0406491Y0093364D01*
X0406622Y0093226D01*
X0406750Y0093085D01*
X0406874Y0092941D01*
X0406995Y0092795D01*
X0407113Y0092645D01*
X0407226Y0092492D01*
X0407336Y0092337D01*
X0407442Y0092179D01*
X0407545Y0092019D01*
X0407643Y0091856D01*
X0407738Y0091691D01*
X0407828Y0091523D01*
X0407914Y0091354D01*
X0407997Y0091182D01*
X0408075Y0091009D01*
X0408149Y0090833D01*
X0408218Y0090656D01*
X0408284Y0090477D01*
X0408345Y0090297D01*
X0408401Y0090116D01*
X0408453Y0089933D01*
X0408501Y0089748D01*
X0408544Y0089563D01*
X0408583Y0089377D01*
X0408618Y0089190D01*
X0408647Y0089002D01*
X0408673Y0088813D01*
X0408693Y0088624D01*
X0408709Y0088434D01*
X0408721Y0088244D01*
X0408728Y0088054D01*
X0408730Y0087864D01*
X0454006Y0087864D01*
X0457943Y0091801D01*
X0457943Y0137077D01*
X0457753Y0137079D01*
X0457563Y0137086D01*
X0457373Y0137098D01*
X0457183Y0137114D01*
X0456994Y0137134D01*
X0456805Y0137160D01*
X0456617Y0137189D01*
X0456430Y0137224D01*
X0456244Y0137263D01*
X0456059Y0137306D01*
X0455874Y0137354D01*
X0455691Y0137406D01*
X0455510Y0137462D01*
X0455330Y0137523D01*
X0455151Y0137589D01*
X0454974Y0137658D01*
X0454798Y0137732D01*
X0454625Y0137810D01*
X0454453Y0137893D01*
X0454284Y0137979D01*
X0454116Y0138069D01*
X0453951Y0138164D01*
X0453788Y0138262D01*
X0453628Y0138365D01*
X0453470Y0138471D01*
X0453315Y0138581D01*
X0453162Y0138694D01*
X0453012Y0138812D01*
X0452866Y0138933D01*
X0452722Y0139057D01*
X0452581Y0139185D01*
X0452443Y0139316D01*
X0452308Y0139451D01*
X0452177Y0139589D01*
X0452049Y0139730D01*
X0451925Y0139874D01*
X0451804Y0140020D01*
X0451686Y0140170D01*
X0451573Y0140323D01*
X0451463Y0140478D01*
X0451357Y0140636D01*
X0451254Y0140796D01*
X0451156Y0140959D01*
X0451061Y0141124D01*
X0450971Y0141292D01*
X0450885Y0141461D01*
X0450802Y0141633D01*
X0450724Y0141806D01*
X0450650Y0141982D01*
X0450581Y0142159D01*
X0450515Y0142338D01*
X0450454Y0142518D01*
X0450398Y0142699D01*
X0450346Y0142882D01*
X0450298Y0143067D01*
X0450255Y0143252D01*
X0450216Y0143438D01*
X0450181Y0143625D01*
X0450152Y0143813D01*
X0450126Y0144002D01*
X0450106Y0144191D01*
X0450090Y0144381D01*
X0450078Y0144571D01*
X0450071Y0144761D01*
X0450069Y0144951D01*
X0450069Y0400856D01*
X0450071Y0401046D01*
X0450078Y0401236D01*
X0450090Y0401426D01*
X0450106Y0401616D01*
X0450126Y0401805D01*
X0450152Y0401994D01*
X0450181Y0402182D01*
X0450216Y0402369D01*
X0450255Y0402555D01*
X0450298Y0402740D01*
X0450346Y0402925D01*
X0450398Y0403108D01*
X0450454Y0403289D01*
X0450515Y0403469D01*
X0450581Y0403648D01*
X0450650Y0403825D01*
X0450724Y0404001D01*
X0450802Y0404174D01*
X0450885Y0404346D01*
X0450971Y0404515D01*
X0451061Y0404683D01*
X0451156Y0404848D01*
X0451254Y0405011D01*
X0451357Y0405171D01*
X0451463Y0405329D01*
X0451573Y0405484D01*
X0451686Y0405637D01*
X0451804Y0405787D01*
X0451925Y0405933D01*
X0452049Y0406077D01*
X0452177Y0406218D01*
X0452308Y0406356D01*
X0452443Y0406491D01*
X0452581Y0406622D01*
X0452722Y0406750D01*
X0452866Y0406874D01*
X0453012Y0406995D01*
X0453162Y0407113D01*
X0453315Y0407226D01*
X0453470Y0407336D01*
X0453628Y0407442D01*
X0453788Y0407545D01*
X0453951Y0407643D01*
X0454116Y0407738D01*
X0454284Y0407828D01*
X0454453Y0407914D01*
X0454625Y0407997D01*
X0454798Y0408075D01*
X0454974Y0408149D01*
X0455151Y0408218D01*
X0455330Y0408284D01*
X0455510Y0408345D01*
X0455691Y0408401D01*
X0455874Y0408453D01*
X0456059Y0408501D01*
X0456244Y0408544D01*
X0456430Y0408583D01*
X0456617Y0408618D01*
X0456805Y0408647D01*
X0456994Y0408673D01*
X0457183Y0408693D01*
X0457373Y0408709D01*
X0457563Y0408721D01*
X0457753Y0408728D01*
X0457943Y0408730D01*
X0457943Y0454006D01*
X0454006Y0457943D01*
X0408730Y0457943D01*
X0408728Y0457753D01*
X0408721Y0457563D01*
X0408709Y0457373D01*
X0408693Y0457183D01*
X0408673Y0456994D01*
X0408647Y0456805D01*
X0408618Y0456617D01*
X0408583Y0456430D01*
X0408544Y0456244D01*
X0408501Y0456059D01*
X0408453Y0455874D01*
X0408401Y0455691D01*
X0408345Y0455510D01*
X0408284Y0455330D01*
X0408218Y0455151D01*
X0408149Y0454974D01*
X0408075Y0454798D01*
X0407997Y0454625D01*
X0407914Y0454453D01*
X0407828Y0454284D01*
X0407738Y0454116D01*
X0407643Y0453951D01*
X0407545Y0453788D01*
X0407442Y0453628D01*
X0407336Y0453470D01*
X0407226Y0453315D01*
X0407113Y0453162D01*
X0406995Y0453012D01*
X0406874Y0452866D01*
X0406750Y0452722D01*
X0406622Y0452581D01*
X0406491Y0452443D01*
X0406356Y0452308D01*
X0406218Y0452177D01*
X0406077Y0452049D01*
X0405933Y0451925D01*
X0405787Y0451804D01*
X0405637Y0451686D01*
X0405484Y0451573D01*
X0405329Y0451463D01*
X0405171Y0451357D01*
X0405011Y0451254D01*
X0404848Y0451156D01*
X0404683Y0451061D01*
X0404515Y0450971D01*
X0404346Y0450885D01*
X0404174Y0450802D01*
X0404001Y0450724D01*
X0403825Y0450650D01*
X0403648Y0450581D01*
X0403469Y0450515D01*
X0403289Y0450454D01*
X0403108Y0450398D01*
X0402925Y0450346D01*
X0402740Y0450298D01*
X0402555Y0450255D01*
X0402369Y0450216D01*
X0402182Y0450181D01*
X0401994Y0450152D01*
X0401805Y0450126D01*
X0401616Y0450106D01*
X0401426Y0450090D01*
X0401236Y0450078D01*
X0401046Y0450071D01*
X0400856Y0450069D01*
X0144951Y0450069D01*
X0144761Y0450071D01*
X0144571Y0450078D01*
X0144381Y0450090D01*
X0144191Y0450106D01*
X0144002Y0450126D01*
X0143813Y0450152D01*
X0143625Y0450181D01*
X0143438Y0450216D01*
X0143252Y0450255D01*
X0143067Y0450298D01*
X0142882Y0450346D01*
X0142699Y0450398D01*
X0142518Y0450454D01*
X0142338Y0450515D01*
X0142159Y0450581D01*
X0141982Y0450650D01*
X0141806Y0450724D01*
X0141633Y0450802D01*
X0141461Y0450885D01*
X0141292Y0450971D01*
X0141124Y0451061D01*
X0140959Y0451156D01*
X0140796Y0451254D01*
X0140636Y0451357D01*
X0140478Y0451463D01*
X0140323Y0451573D01*
X0140170Y0451686D01*
X0140020Y0451804D01*
X0139874Y0451925D01*
X0139730Y0452049D01*
X0139589Y0452177D01*
X0139451Y0452308D01*
X0139316Y0452443D01*
X0139185Y0452581D01*
X0139057Y0452722D01*
X0138933Y0452866D01*
X0138812Y0453012D01*
X0138694Y0453162D01*
X0138581Y0453315D01*
X0138471Y0453470D01*
X0138365Y0453628D01*
X0138262Y0453788D01*
X0138164Y0453951D01*
X0138069Y0454116D01*
X0137979Y0454284D01*
X0137893Y0454453D01*
X0137810Y0454625D01*
X0137732Y0454798D01*
X0137658Y0454974D01*
X0137589Y0455151D01*
X0137523Y0455330D01*
X0137462Y0455510D01*
X0137406Y0455691D01*
X0137354Y0455874D01*
X0137306Y0456059D01*
X0137263Y0456244D01*
X0137224Y0456430D01*
X0137189Y0456617D01*
X0137160Y0456805D01*
X0137134Y0456994D01*
X0137114Y0457183D01*
X0137098Y0457373D01*
X0137086Y0457563D01*
X0137079Y0457753D01*
X0137077Y0457943D01*
X0091801Y0457943D01*
X0087864Y0454006D01*
X0087864Y0408730D01*
X0088054Y0408728D01*
X0088244Y0408721D01*
X0088434Y0408709D01*
X0088624Y0408693D01*
X0088813Y0408673D01*
X0089002Y0408647D01*
X0089190Y0408618D01*
X0089377Y0408583D01*
X0089563Y0408544D01*
X0089748Y0408501D01*
X0089933Y0408453D01*
X0090116Y0408401D01*
X0090297Y0408345D01*
X0090477Y0408284D01*
X0090656Y0408218D01*
X0090833Y0408149D01*
X0091009Y0408075D01*
X0091182Y0407997D01*
X0091354Y0407914D01*
X0091523Y0407828D01*
X0091691Y0407738D01*
X0091856Y0407643D01*
X0092019Y0407545D01*
X0092179Y0407442D01*
X0092337Y0407336D01*
X0092492Y0407226D01*
X0092645Y0407113D01*
X0092795Y0406995D01*
X0092941Y0406874D01*
X0093085Y0406750D01*
X0093226Y0406622D01*
X0093364Y0406491D01*
X0093499Y0406356D01*
X0093630Y0406218D01*
X0093758Y0406077D01*
X0093882Y0405933D01*
X0094003Y0405787D01*
X0094121Y0405637D01*
X0094234Y0405484D01*
X0094344Y0405329D01*
X0094450Y0405171D01*
X0094553Y0405011D01*
X0094651Y0404848D01*
X0094746Y0404683D01*
X0094836Y0404515D01*
X0094922Y0404346D01*
X0095005Y0404174D01*
X0095083Y0404001D01*
X0095157Y0403825D01*
X0095226Y0403648D01*
X0095292Y0403469D01*
X0095353Y0403289D01*
X0095409Y0403108D01*
X0095461Y0402925D01*
X0095509Y0402740D01*
X0095552Y0402555D01*
X0095591Y0402369D01*
X0095626Y0402182D01*
X0095655Y0401994D01*
X0095681Y0401805D01*
X0095701Y0401616D01*
X0095717Y0401426D01*
X0095729Y0401236D01*
X0095736Y0401046D01*
X0095738Y0400856D01*
X0095738Y0144951D01*
X0095736Y0144761D01*
X0095729Y0144571D01*
X0095717Y0144381D01*
X0095701Y0144191D01*
X0095681Y0144002D01*
X0095655Y0143813D01*
X0095626Y0143625D01*
X0095591Y0143438D01*
X0095552Y0143252D01*
X0095509Y0143067D01*
X0095461Y0142882D01*
X0095409Y0142699D01*
X0095353Y0142518D01*
X0095292Y0142338D01*
X0095226Y0142159D01*
X0095157Y0141982D01*
X0095083Y0141806D01*
X0095005Y0141633D01*
X0094922Y0141461D01*
X0094836Y0141292D01*
X0094746Y0141124D01*
X0094651Y0140959D01*
X0094553Y0140796D01*
X0094450Y0140636D01*
X0094344Y0140478D01*
X0094234Y0140323D01*
X0094121Y0140170D01*
X0094003Y0140020D01*
X0093882Y0139874D01*
X0093758Y0139730D01*
X0093630Y0139589D01*
X0093499Y0139451D01*
X0093364Y0139316D01*
X0093226Y0139185D01*
X0093085Y0139057D01*
X0092941Y0138933D01*
X0092795Y0138812D01*
X0092645Y0138694D01*
X0092492Y0138581D01*
X0092337Y0138471D01*
X0092179Y0138365D01*
X0092019Y0138262D01*
X0091856Y0138164D01*
X0091691Y0138069D01*
X0091523Y0137979D01*
X0091354Y0137893D01*
X0091182Y0137810D01*
X0091009Y0137732D01*
X0090833Y0137658D01*
X0090656Y0137589D01*
X0090477Y0137523D01*
X0090297Y0137462D01*
X0090116Y0137406D01*
X0089933Y0137354D01*
X0089748Y0137306D01*
X0089563Y0137263D01*
X0089377Y0137224D01*
X0089190Y0137189D01*
X0089002Y0137160D01*
X0088813Y0137134D01*
X0088624Y0137114D01*
X0088434Y0137098D01*
X0088244Y0137086D01*
X0088054Y0137079D01*
X0087864Y0137077D01*
X0087864Y0091801D01*
X0217391Y0109596D02*
X0217393Y0109733D01*
X0217399Y0109870D01*
X0217409Y0110006D01*
X0217423Y0110142D01*
X0217441Y0110278D01*
X0217462Y0110413D01*
X0217488Y0110547D01*
X0217518Y0110681D01*
X0217551Y0110814D01*
X0217589Y0110945D01*
X0217630Y0111076D01*
X0217675Y0111205D01*
X0217723Y0111333D01*
X0217776Y0111460D01*
X0217832Y0111584D01*
X0217891Y0111708D01*
X0217955Y0111829D01*
X0218021Y0111948D01*
X0218091Y0112066D01*
X0218165Y0112181D01*
X0218242Y0112295D01*
X0218322Y0112406D01*
X0218405Y0112514D01*
X0218492Y0112620D01*
X0218581Y0112724D01*
X0218674Y0112825D01*
X0218769Y0112923D01*
X0218867Y0113018D01*
X0218968Y0113111D01*
X0219072Y0113200D01*
X0219178Y0113287D01*
X0219286Y0113370D01*
X0219397Y0113450D01*
X0219511Y0113527D01*
X0219626Y0113601D01*
X0219743Y0113671D01*
X0219863Y0113737D01*
X0219984Y0113801D01*
X0220108Y0113860D01*
X0220232Y0113916D01*
X0220359Y0113969D01*
X0220487Y0114017D01*
X0220616Y0114062D01*
X0220747Y0114103D01*
X0220878Y0114141D01*
X0221011Y0114174D01*
X0221145Y0114204D01*
X0221279Y0114230D01*
X0221414Y0114251D01*
X0221550Y0114269D01*
X0221686Y0114283D01*
X0221822Y0114293D01*
X0221959Y0114299D01*
X0222096Y0114301D01*
X0222233Y0114299D01*
X0222370Y0114293D01*
X0222506Y0114283D01*
X0222642Y0114269D01*
X0222778Y0114251D01*
X0222913Y0114230D01*
X0223047Y0114204D01*
X0223181Y0114174D01*
X0223314Y0114141D01*
X0223445Y0114103D01*
X0223576Y0114062D01*
X0223705Y0114017D01*
X0223833Y0113969D01*
X0223960Y0113916D01*
X0224084Y0113860D01*
X0224208Y0113801D01*
X0224329Y0113737D01*
X0224448Y0113671D01*
X0224566Y0113601D01*
X0224681Y0113527D01*
X0224795Y0113450D01*
X0224906Y0113370D01*
X0225014Y0113287D01*
X0225120Y0113200D01*
X0225224Y0113111D01*
X0225325Y0113018D01*
X0225423Y0112923D01*
X0225518Y0112825D01*
X0225611Y0112724D01*
X0225700Y0112620D01*
X0225787Y0112514D01*
X0225870Y0112406D01*
X0225950Y0112295D01*
X0226027Y0112181D01*
X0226101Y0112066D01*
X0226171Y0111948D01*
X0226237Y0111829D01*
X0226301Y0111708D01*
X0226360Y0111584D01*
X0226416Y0111460D01*
X0226469Y0111333D01*
X0226517Y0111205D01*
X0226562Y0111076D01*
X0226603Y0110945D01*
X0226641Y0110814D01*
X0226674Y0110681D01*
X0226704Y0110547D01*
X0226730Y0110413D01*
X0226751Y0110278D01*
X0226769Y0110142D01*
X0226783Y0110006D01*
X0226793Y0109870D01*
X0226799Y0109733D01*
X0226801Y0109596D01*
X0226799Y0109459D01*
X0226793Y0109322D01*
X0226783Y0109186D01*
X0226769Y0109050D01*
X0226751Y0108914D01*
X0226730Y0108779D01*
X0226704Y0108645D01*
X0226674Y0108511D01*
X0226641Y0108378D01*
X0226603Y0108247D01*
X0226562Y0108116D01*
X0226517Y0107987D01*
X0226469Y0107859D01*
X0226416Y0107732D01*
X0226360Y0107608D01*
X0226301Y0107484D01*
X0226237Y0107363D01*
X0226171Y0107243D01*
X0226101Y0107126D01*
X0226027Y0107011D01*
X0225950Y0106897D01*
X0225870Y0106786D01*
X0225787Y0106678D01*
X0225700Y0106572D01*
X0225611Y0106468D01*
X0225518Y0106367D01*
X0225423Y0106269D01*
X0225325Y0106174D01*
X0225224Y0106081D01*
X0225120Y0105992D01*
X0225014Y0105905D01*
X0224906Y0105822D01*
X0224795Y0105742D01*
X0224681Y0105665D01*
X0224566Y0105591D01*
X0224449Y0105521D01*
X0224329Y0105455D01*
X0224208Y0105391D01*
X0224084Y0105332D01*
X0223960Y0105276D01*
X0223833Y0105223D01*
X0223705Y0105175D01*
X0223576Y0105130D01*
X0223445Y0105089D01*
X0223314Y0105051D01*
X0223181Y0105018D01*
X0223047Y0104988D01*
X0222913Y0104962D01*
X0222778Y0104941D01*
X0222642Y0104923D01*
X0222506Y0104909D01*
X0222370Y0104899D01*
X0222233Y0104893D01*
X0222096Y0104891D01*
X0221959Y0104893D01*
X0221822Y0104899D01*
X0221686Y0104909D01*
X0221550Y0104923D01*
X0221414Y0104941D01*
X0221279Y0104962D01*
X0221145Y0104988D01*
X0221011Y0105018D01*
X0220878Y0105051D01*
X0220747Y0105089D01*
X0220616Y0105130D01*
X0220487Y0105175D01*
X0220359Y0105223D01*
X0220232Y0105276D01*
X0220108Y0105332D01*
X0219984Y0105391D01*
X0219863Y0105455D01*
X0219743Y0105521D01*
X0219626Y0105591D01*
X0219511Y0105665D01*
X0219397Y0105742D01*
X0219286Y0105822D01*
X0219178Y0105905D01*
X0219072Y0105992D01*
X0218968Y0106081D01*
X0218867Y0106174D01*
X0218769Y0106269D01*
X0218674Y0106367D01*
X0218581Y0106468D01*
X0218492Y0106572D01*
X0218405Y0106678D01*
X0218322Y0106786D01*
X0218242Y0106897D01*
X0218165Y0107011D01*
X0218091Y0107126D01*
X0218021Y0107243D01*
X0217955Y0107363D01*
X0217891Y0107484D01*
X0217832Y0107608D01*
X0217776Y0107732D01*
X0217723Y0107859D01*
X0217675Y0107987D01*
X0217630Y0108116D01*
X0217589Y0108247D01*
X0217551Y0108378D01*
X0217518Y0108511D01*
X0217488Y0108645D01*
X0217462Y0108779D01*
X0217441Y0108914D01*
X0217423Y0109050D01*
X0217409Y0109186D01*
X0217399Y0109322D01*
X0217393Y0109459D01*
X0217391Y0109596D01*
X0217391Y0196211D02*
X0217393Y0196348D01*
X0217399Y0196485D01*
X0217409Y0196621D01*
X0217423Y0196757D01*
X0217441Y0196893D01*
X0217462Y0197028D01*
X0217488Y0197162D01*
X0217518Y0197296D01*
X0217551Y0197429D01*
X0217589Y0197560D01*
X0217630Y0197691D01*
X0217675Y0197820D01*
X0217723Y0197948D01*
X0217776Y0198075D01*
X0217832Y0198199D01*
X0217891Y0198323D01*
X0217955Y0198444D01*
X0218021Y0198563D01*
X0218091Y0198681D01*
X0218165Y0198796D01*
X0218242Y0198910D01*
X0218322Y0199021D01*
X0218405Y0199129D01*
X0218492Y0199235D01*
X0218581Y0199339D01*
X0218674Y0199440D01*
X0218769Y0199538D01*
X0218867Y0199633D01*
X0218968Y0199726D01*
X0219072Y0199815D01*
X0219178Y0199902D01*
X0219286Y0199985D01*
X0219397Y0200065D01*
X0219511Y0200142D01*
X0219626Y0200216D01*
X0219743Y0200286D01*
X0219863Y0200352D01*
X0219984Y0200416D01*
X0220108Y0200475D01*
X0220232Y0200531D01*
X0220359Y0200584D01*
X0220487Y0200632D01*
X0220616Y0200677D01*
X0220747Y0200718D01*
X0220878Y0200756D01*
X0221011Y0200789D01*
X0221145Y0200819D01*
X0221279Y0200845D01*
X0221414Y0200866D01*
X0221550Y0200884D01*
X0221686Y0200898D01*
X0221822Y0200908D01*
X0221959Y0200914D01*
X0222096Y0200916D01*
X0222233Y0200914D01*
X0222370Y0200908D01*
X0222506Y0200898D01*
X0222642Y0200884D01*
X0222778Y0200866D01*
X0222913Y0200845D01*
X0223047Y0200819D01*
X0223181Y0200789D01*
X0223314Y0200756D01*
X0223445Y0200718D01*
X0223576Y0200677D01*
X0223705Y0200632D01*
X0223833Y0200584D01*
X0223960Y0200531D01*
X0224084Y0200475D01*
X0224208Y0200416D01*
X0224329Y0200352D01*
X0224448Y0200286D01*
X0224566Y0200216D01*
X0224681Y0200142D01*
X0224795Y0200065D01*
X0224906Y0199985D01*
X0225014Y0199902D01*
X0225120Y0199815D01*
X0225224Y0199726D01*
X0225325Y0199633D01*
X0225423Y0199538D01*
X0225518Y0199440D01*
X0225611Y0199339D01*
X0225700Y0199235D01*
X0225787Y0199129D01*
X0225870Y0199021D01*
X0225950Y0198910D01*
X0226027Y0198796D01*
X0226101Y0198681D01*
X0226171Y0198563D01*
X0226237Y0198444D01*
X0226301Y0198323D01*
X0226360Y0198199D01*
X0226416Y0198075D01*
X0226469Y0197948D01*
X0226517Y0197820D01*
X0226562Y0197691D01*
X0226603Y0197560D01*
X0226641Y0197429D01*
X0226674Y0197296D01*
X0226704Y0197162D01*
X0226730Y0197028D01*
X0226751Y0196893D01*
X0226769Y0196757D01*
X0226783Y0196621D01*
X0226793Y0196485D01*
X0226799Y0196348D01*
X0226801Y0196211D01*
X0226799Y0196074D01*
X0226793Y0195937D01*
X0226783Y0195801D01*
X0226769Y0195665D01*
X0226751Y0195529D01*
X0226730Y0195394D01*
X0226704Y0195260D01*
X0226674Y0195126D01*
X0226641Y0194993D01*
X0226603Y0194862D01*
X0226562Y0194731D01*
X0226517Y0194602D01*
X0226469Y0194474D01*
X0226416Y0194347D01*
X0226360Y0194223D01*
X0226301Y0194099D01*
X0226237Y0193978D01*
X0226171Y0193858D01*
X0226101Y0193741D01*
X0226027Y0193626D01*
X0225950Y0193512D01*
X0225870Y0193401D01*
X0225787Y0193293D01*
X0225700Y0193187D01*
X0225611Y0193083D01*
X0225518Y0192982D01*
X0225423Y0192884D01*
X0225325Y0192789D01*
X0225224Y0192696D01*
X0225120Y0192607D01*
X0225014Y0192520D01*
X0224906Y0192437D01*
X0224795Y0192357D01*
X0224681Y0192280D01*
X0224566Y0192206D01*
X0224449Y0192136D01*
X0224329Y0192070D01*
X0224208Y0192006D01*
X0224084Y0191947D01*
X0223960Y0191891D01*
X0223833Y0191838D01*
X0223705Y0191790D01*
X0223576Y0191745D01*
X0223445Y0191704D01*
X0223314Y0191666D01*
X0223181Y0191633D01*
X0223047Y0191603D01*
X0222913Y0191577D01*
X0222778Y0191556D01*
X0222642Y0191538D01*
X0222506Y0191524D01*
X0222370Y0191514D01*
X0222233Y0191508D01*
X0222096Y0191506D01*
X0221959Y0191508D01*
X0221822Y0191514D01*
X0221686Y0191524D01*
X0221550Y0191538D01*
X0221414Y0191556D01*
X0221279Y0191577D01*
X0221145Y0191603D01*
X0221011Y0191633D01*
X0220878Y0191666D01*
X0220747Y0191704D01*
X0220616Y0191745D01*
X0220487Y0191790D01*
X0220359Y0191838D01*
X0220232Y0191891D01*
X0220108Y0191947D01*
X0219984Y0192006D01*
X0219863Y0192070D01*
X0219743Y0192136D01*
X0219626Y0192206D01*
X0219511Y0192280D01*
X0219397Y0192357D01*
X0219286Y0192437D01*
X0219178Y0192520D01*
X0219072Y0192607D01*
X0218968Y0192696D01*
X0218867Y0192789D01*
X0218769Y0192884D01*
X0218674Y0192982D01*
X0218581Y0193083D01*
X0218492Y0193187D01*
X0218405Y0193293D01*
X0218322Y0193401D01*
X0218242Y0193512D01*
X0218165Y0193626D01*
X0218091Y0193741D01*
X0218021Y0193858D01*
X0217955Y0193978D01*
X0217891Y0194099D01*
X0217832Y0194223D01*
X0217776Y0194347D01*
X0217723Y0194474D01*
X0217675Y0194602D01*
X0217630Y0194731D01*
X0217589Y0194862D01*
X0217551Y0194993D01*
X0217518Y0195126D01*
X0217488Y0195260D01*
X0217462Y0195394D01*
X0217441Y0195529D01*
X0217423Y0195665D01*
X0217409Y0195801D01*
X0217399Y0195937D01*
X0217393Y0196074D01*
X0217391Y0196211D01*
X0176643Y0219833D02*
X0176645Y0219970D01*
X0176651Y0220107D01*
X0176661Y0220243D01*
X0176675Y0220379D01*
X0176693Y0220515D01*
X0176714Y0220650D01*
X0176740Y0220784D01*
X0176770Y0220918D01*
X0176803Y0221051D01*
X0176841Y0221182D01*
X0176882Y0221313D01*
X0176927Y0221442D01*
X0176975Y0221570D01*
X0177028Y0221697D01*
X0177084Y0221821D01*
X0177143Y0221945D01*
X0177207Y0222066D01*
X0177273Y0222185D01*
X0177343Y0222303D01*
X0177417Y0222418D01*
X0177494Y0222532D01*
X0177574Y0222643D01*
X0177657Y0222751D01*
X0177744Y0222857D01*
X0177833Y0222961D01*
X0177926Y0223062D01*
X0178021Y0223160D01*
X0178119Y0223255D01*
X0178220Y0223348D01*
X0178324Y0223437D01*
X0178430Y0223524D01*
X0178538Y0223607D01*
X0178649Y0223687D01*
X0178763Y0223764D01*
X0178878Y0223838D01*
X0178995Y0223908D01*
X0179115Y0223974D01*
X0179236Y0224038D01*
X0179360Y0224097D01*
X0179484Y0224153D01*
X0179611Y0224206D01*
X0179739Y0224254D01*
X0179868Y0224299D01*
X0179999Y0224340D01*
X0180130Y0224378D01*
X0180263Y0224411D01*
X0180397Y0224441D01*
X0180531Y0224467D01*
X0180666Y0224488D01*
X0180802Y0224506D01*
X0180938Y0224520D01*
X0181074Y0224530D01*
X0181211Y0224536D01*
X0181348Y0224538D01*
X0181485Y0224536D01*
X0181622Y0224530D01*
X0181758Y0224520D01*
X0181894Y0224506D01*
X0182030Y0224488D01*
X0182165Y0224467D01*
X0182299Y0224441D01*
X0182433Y0224411D01*
X0182566Y0224378D01*
X0182697Y0224340D01*
X0182828Y0224299D01*
X0182957Y0224254D01*
X0183085Y0224206D01*
X0183212Y0224153D01*
X0183336Y0224097D01*
X0183460Y0224038D01*
X0183581Y0223974D01*
X0183700Y0223908D01*
X0183818Y0223838D01*
X0183933Y0223764D01*
X0184047Y0223687D01*
X0184158Y0223607D01*
X0184266Y0223524D01*
X0184372Y0223437D01*
X0184476Y0223348D01*
X0184577Y0223255D01*
X0184675Y0223160D01*
X0184770Y0223062D01*
X0184863Y0222961D01*
X0184952Y0222857D01*
X0185039Y0222751D01*
X0185122Y0222643D01*
X0185202Y0222532D01*
X0185279Y0222418D01*
X0185353Y0222303D01*
X0185423Y0222185D01*
X0185489Y0222066D01*
X0185553Y0221945D01*
X0185612Y0221821D01*
X0185668Y0221697D01*
X0185721Y0221570D01*
X0185769Y0221442D01*
X0185814Y0221313D01*
X0185855Y0221182D01*
X0185893Y0221051D01*
X0185926Y0220918D01*
X0185956Y0220784D01*
X0185982Y0220650D01*
X0186003Y0220515D01*
X0186021Y0220379D01*
X0186035Y0220243D01*
X0186045Y0220107D01*
X0186051Y0219970D01*
X0186053Y0219833D01*
X0186051Y0219696D01*
X0186045Y0219559D01*
X0186035Y0219423D01*
X0186021Y0219287D01*
X0186003Y0219151D01*
X0185982Y0219016D01*
X0185956Y0218882D01*
X0185926Y0218748D01*
X0185893Y0218615D01*
X0185855Y0218484D01*
X0185814Y0218353D01*
X0185769Y0218224D01*
X0185721Y0218096D01*
X0185668Y0217969D01*
X0185612Y0217845D01*
X0185553Y0217721D01*
X0185489Y0217600D01*
X0185423Y0217480D01*
X0185353Y0217363D01*
X0185279Y0217248D01*
X0185202Y0217134D01*
X0185122Y0217023D01*
X0185039Y0216915D01*
X0184952Y0216809D01*
X0184863Y0216705D01*
X0184770Y0216604D01*
X0184675Y0216506D01*
X0184577Y0216411D01*
X0184476Y0216318D01*
X0184372Y0216229D01*
X0184266Y0216142D01*
X0184158Y0216059D01*
X0184047Y0215979D01*
X0183933Y0215902D01*
X0183818Y0215828D01*
X0183701Y0215758D01*
X0183581Y0215692D01*
X0183460Y0215628D01*
X0183336Y0215569D01*
X0183212Y0215513D01*
X0183085Y0215460D01*
X0182957Y0215412D01*
X0182828Y0215367D01*
X0182697Y0215326D01*
X0182566Y0215288D01*
X0182433Y0215255D01*
X0182299Y0215225D01*
X0182165Y0215199D01*
X0182030Y0215178D01*
X0181894Y0215160D01*
X0181758Y0215146D01*
X0181622Y0215136D01*
X0181485Y0215130D01*
X0181348Y0215128D01*
X0181211Y0215130D01*
X0181074Y0215136D01*
X0180938Y0215146D01*
X0180802Y0215160D01*
X0180666Y0215178D01*
X0180531Y0215199D01*
X0180397Y0215225D01*
X0180263Y0215255D01*
X0180130Y0215288D01*
X0179999Y0215326D01*
X0179868Y0215367D01*
X0179739Y0215412D01*
X0179611Y0215460D01*
X0179484Y0215513D01*
X0179360Y0215569D01*
X0179236Y0215628D01*
X0179115Y0215692D01*
X0178995Y0215758D01*
X0178878Y0215828D01*
X0178763Y0215902D01*
X0178649Y0215979D01*
X0178538Y0216059D01*
X0178430Y0216142D01*
X0178324Y0216229D01*
X0178220Y0216318D01*
X0178119Y0216411D01*
X0178021Y0216506D01*
X0177926Y0216604D01*
X0177833Y0216705D01*
X0177744Y0216809D01*
X0177657Y0216915D01*
X0177574Y0217023D01*
X0177494Y0217134D01*
X0177417Y0217248D01*
X0177343Y0217363D01*
X0177273Y0217480D01*
X0177207Y0217600D01*
X0177143Y0217721D01*
X0177084Y0217845D01*
X0177028Y0217969D01*
X0176975Y0218096D01*
X0176927Y0218224D01*
X0176882Y0218353D01*
X0176841Y0218484D01*
X0176803Y0218615D01*
X0176770Y0218748D01*
X0176740Y0218882D01*
X0176714Y0219016D01*
X0176693Y0219151D01*
X0176675Y0219287D01*
X0176661Y0219423D01*
X0176651Y0219559D01*
X0176645Y0219696D01*
X0176643Y0219833D01*
X0304006Y0196211D02*
X0304008Y0196348D01*
X0304014Y0196485D01*
X0304024Y0196621D01*
X0304038Y0196757D01*
X0304056Y0196893D01*
X0304077Y0197028D01*
X0304103Y0197162D01*
X0304133Y0197296D01*
X0304166Y0197429D01*
X0304204Y0197560D01*
X0304245Y0197691D01*
X0304290Y0197820D01*
X0304338Y0197948D01*
X0304391Y0198075D01*
X0304447Y0198199D01*
X0304506Y0198323D01*
X0304570Y0198444D01*
X0304636Y0198563D01*
X0304706Y0198681D01*
X0304780Y0198796D01*
X0304857Y0198910D01*
X0304937Y0199021D01*
X0305020Y0199129D01*
X0305107Y0199235D01*
X0305196Y0199339D01*
X0305289Y0199440D01*
X0305384Y0199538D01*
X0305482Y0199633D01*
X0305583Y0199726D01*
X0305687Y0199815D01*
X0305793Y0199902D01*
X0305901Y0199985D01*
X0306012Y0200065D01*
X0306126Y0200142D01*
X0306241Y0200216D01*
X0306358Y0200286D01*
X0306478Y0200352D01*
X0306599Y0200416D01*
X0306723Y0200475D01*
X0306847Y0200531D01*
X0306974Y0200584D01*
X0307102Y0200632D01*
X0307231Y0200677D01*
X0307362Y0200718D01*
X0307493Y0200756D01*
X0307626Y0200789D01*
X0307760Y0200819D01*
X0307894Y0200845D01*
X0308029Y0200866D01*
X0308165Y0200884D01*
X0308301Y0200898D01*
X0308437Y0200908D01*
X0308574Y0200914D01*
X0308711Y0200916D01*
X0308848Y0200914D01*
X0308985Y0200908D01*
X0309121Y0200898D01*
X0309257Y0200884D01*
X0309393Y0200866D01*
X0309528Y0200845D01*
X0309662Y0200819D01*
X0309796Y0200789D01*
X0309929Y0200756D01*
X0310060Y0200718D01*
X0310191Y0200677D01*
X0310320Y0200632D01*
X0310448Y0200584D01*
X0310575Y0200531D01*
X0310699Y0200475D01*
X0310823Y0200416D01*
X0310944Y0200352D01*
X0311063Y0200286D01*
X0311181Y0200216D01*
X0311296Y0200142D01*
X0311410Y0200065D01*
X0311521Y0199985D01*
X0311629Y0199902D01*
X0311735Y0199815D01*
X0311839Y0199726D01*
X0311940Y0199633D01*
X0312038Y0199538D01*
X0312133Y0199440D01*
X0312226Y0199339D01*
X0312315Y0199235D01*
X0312402Y0199129D01*
X0312485Y0199021D01*
X0312565Y0198910D01*
X0312642Y0198796D01*
X0312716Y0198681D01*
X0312786Y0198563D01*
X0312852Y0198444D01*
X0312916Y0198323D01*
X0312975Y0198199D01*
X0313031Y0198075D01*
X0313084Y0197948D01*
X0313132Y0197820D01*
X0313177Y0197691D01*
X0313218Y0197560D01*
X0313256Y0197429D01*
X0313289Y0197296D01*
X0313319Y0197162D01*
X0313345Y0197028D01*
X0313366Y0196893D01*
X0313384Y0196757D01*
X0313398Y0196621D01*
X0313408Y0196485D01*
X0313414Y0196348D01*
X0313416Y0196211D01*
X0313414Y0196074D01*
X0313408Y0195937D01*
X0313398Y0195801D01*
X0313384Y0195665D01*
X0313366Y0195529D01*
X0313345Y0195394D01*
X0313319Y0195260D01*
X0313289Y0195126D01*
X0313256Y0194993D01*
X0313218Y0194862D01*
X0313177Y0194731D01*
X0313132Y0194602D01*
X0313084Y0194474D01*
X0313031Y0194347D01*
X0312975Y0194223D01*
X0312916Y0194099D01*
X0312852Y0193978D01*
X0312786Y0193858D01*
X0312716Y0193741D01*
X0312642Y0193626D01*
X0312565Y0193512D01*
X0312485Y0193401D01*
X0312402Y0193293D01*
X0312315Y0193187D01*
X0312226Y0193083D01*
X0312133Y0192982D01*
X0312038Y0192884D01*
X0311940Y0192789D01*
X0311839Y0192696D01*
X0311735Y0192607D01*
X0311629Y0192520D01*
X0311521Y0192437D01*
X0311410Y0192357D01*
X0311296Y0192280D01*
X0311181Y0192206D01*
X0311064Y0192136D01*
X0310944Y0192070D01*
X0310823Y0192006D01*
X0310699Y0191947D01*
X0310575Y0191891D01*
X0310448Y0191838D01*
X0310320Y0191790D01*
X0310191Y0191745D01*
X0310060Y0191704D01*
X0309929Y0191666D01*
X0309796Y0191633D01*
X0309662Y0191603D01*
X0309528Y0191577D01*
X0309393Y0191556D01*
X0309257Y0191538D01*
X0309121Y0191524D01*
X0308985Y0191514D01*
X0308848Y0191508D01*
X0308711Y0191506D01*
X0308574Y0191508D01*
X0308437Y0191514D01*
X0308301Y0191524D01*
X0308165Y0191538D01*
X0308029Y0191556D01*
X0307894Y0191577D01*
X0307760Y0191603D01*
X0307626Y0191633D01*
X0307493Y0191666D01*
X0307362Y0191704D01*
X0307231Y0191745D01*
X0307102Y0191790D01*
X0306974Y0191838D01*
X0306847Y0191891D01*
X0306723Y0191947D01*
X0306599Y0192006D01*
X0306478Y0192070D01*
X0306358Y0192136D01*
X0306241Y0192206D01*
X0306126Y0192280D01*
X0306012Y0192357D01*
X0305901Y0192437D01*
X0305793Y0192520D01*
X0305687Y0192607D01*
X0305583Y0192696D01*
X0305482Y0192789D01*
X0305384Y0192884D01*
X0305289Y0192982D01*
X0305196Y0193083D01*
X0305107Y0193187D01*
X0305020Y0193293D01*
X0304937Y0193401D01*
X0304857Y0193512D01*
X0304780Y0193626D01*
X0304706Y0193741D01*
X0304636Y0193858D01*
X0304570Y0193978D01*
X0304506Y0194099D01*
X0304447Y0194223D01*
X0304391Y0194347D01*
X0304338Y0194474D01*
X0304290Y0194602D01*
X0304245Y0194731D01*
X0304204Y0194862D01*
X0304166Y0194993D01*
X0304133Y0195126D01*
X0304103Y0195260D01*
X0304077Y0195394D01*
X0304056Y0195529D01*
X0304038Y0195665D01*
X0304024Y0195801D01*
X0304014Y0195937D01*
X0304008Y0196074D01*
X0304006Y0196211D01*
X0304006Y0109596D02*
X0304008Y0109733D01*
X0304014Y0109870D01*
X0304024Y0110006D01*
X0304038Y0110142D01*
X0304056Y0110278D01*
X0304077Y0110413D01*
X0304103Y0110547D01*
X0304133Y0110681D01*
X0304166Y0110814D01*
X0304204Y0110945D01*
X0304245Y0111076D01*
X0304290Y0111205D01*
X0304338Y0111333D01*
X0304391Y0111460D01*
X0304447Y0111584D01*
X0304506Y0111708D01*
X0304570Y0111829D01*
X0304636Y0111948D01*
X0304706Y0112066D01*
X0304780Y0112181D01*
X0304857Y0112295D01*
X0304937Y0112406D01*
X0305020Y0112514D01*
X0305107Y0112620D01*
X0305196Y0112724D01*
X0305289Y0112825D01*
X0305384Y0112923D01*
X0305482Y0113018D01*
X0305583Y0113111D01*
X0305687Y0113200D01*
X0305793Y0113287D01*
X0305901Y0113370D01*
X0306012Y0113450D01*
X0306126Y0113527D01*
X0306241Y0113601D01*
X0306358Y0113671D01*
X0306478Y0113737D01*
X0306599Y0113801D01*
X0306723Y0113860D01*
X0306847Y0113916D01*
X0306974Y0113969D01*
X0307102Y0114017D01*
X0307231Y0114062D01*
X0307362Y0114103D01*
X0307493Y0114141D01*
X0307626Y0114174D01*
X0307760Y0114204D01*
X0307894Y0114230D01*
X0308029Y0114251D01*
X0308165Y0114269D01*
X0308301Y0114283D01*
X0308437Y0114293D01*
X0308574Y0114299D01*
X0308711Y0114301D01*
X0308848Y0114299D01*
X0308985Y0114293D01*
X0309121Y0114283D01*
X0309257Y0114269D01*
X0309393Y0114251D01*
X0309528Y0114230D01*
X0309662Y0114204D01*
X0309796Y0114174D01*
X0309929Y0114141D01*
X0310060Y0114103D01*
X0310191Y0114062D01*
X0310320Y0114017D01*
X0310448Y0113969D01*
X0310575Y0113916D01*
X0310699Y0113860D01*
X0310823Y0113801D01*
X0310944Y0113737D01*
X0311063Y0113671D01*
X0311181Y0113601D01*
X0311296Y0113527D01*
X0311410Y0113450D01*
X0311521Y0113370D01*
X0311629Y0113287D01*
X0311735Y0113200D01*
X0311839Y0113111D01*
X0311940Y0113018D01*
X0312038Y0112923D01*
X0312133Y0112825D01*
X0312226Y0112724D01*
X0312315Y0112620D01*
X0312402Y0112514D01*
X0312485Y0112406D01*
X0312565Y0112295D01*
X0312642Y0112181D01*
X0312716Y0112066D01*
X0312786Y0111948D01*
X0312852Y0111829D01*
X0312916Y0111708D01*
X0312975Y0111584D01*
X0313031Y0111460D01*
X0313084Y0111333D01*
X0313132Y0111205D01*
X0313177Y0111076D01*
X0313218Y0110945D01*
X0313256Y0110814D01*
X0313289Y0110681D01*
X0313319Y0110547D01*
X0313345Y0110413D01*
X0313366Y0110278D01*
X0313384Y0110142D01*
X0313398Y0110006D01*
X0313408Y0109870D01*
X0313414Y0109733D01*
X0313416Y0109596D01*
X0313414Y0109459D01*
X0313408Y0109322D01*
X0313398Y0109186D01*
X0313384Y0109050D01*
X0313366Y0108914D01*
X0313345Y0108779D01*
X0313319Y0108645D01*
X0313289Y0108511D01*
X0313256Y0108378D01*
X0313218Y0108247D01*
X0313177Y0108116D01*
X0313132Y0107987D01*
X0313084Y0107859D01*
X0313031Y0107732D01*
X0312975Y0107608D01*
X0312916Y0107484D01*
X0312852Y0107363D01*
X0312786Y0107243D01*
X0312716Y0107126D01*
X0312642Y0107011D01*
X0312565Y0106897D01*
X0312485Y0106786D01*
X0312402Y0106678D01*
X0312315Y0106572D01*
X0312226Y0106468D01*
X0312133Y0106367D01*
X0312038Y0106269D01*
X0311940Y0106174D01*
X0311839Y0106081D01*
X0311735Y0105992D01*
X0311629Y0105905D01*
X0311521Y0105822D01*
X0311410Y0105742D01*
X0311296Y0105665D01*
X0311181Y0105591D01*
X0311064Y0105521D01*
X0310944Y0105455D01*
X0310823Y0105391D01*
X0310699Y0105332D01*
X0310575Y0105276D01*
X0310448Y0105223D01*
X0310320Y0105175D01*
X0310191Y0105130D01*
X0310060Y0105089D01*
X0309929Y0105051D01*
X0309796Y0105018D01*
X0309662Y0104988D01*
X0309528Y0104962D01*
X0309393Y0104941D01*
X0309257Y0104923D01*
X0309121Y0104909D01*
X0308985Y0104899D01*
X0308848Y0104893D01*
X0308711Y0104891D01*
X0308574Y0104893D01*
X0308437Y0104899D01*
X0308301Y0104909D01*
X0308165Y0104923D01*
X0308029Y0104941D01*
X0307894Y0104962D01*
X0307760Y0104988D01*
X0307626Y0105018D01*
X0307493Y0105051D01*
X0307362Y0105089D01*
X0307231Y0105130D01*
X0307102Y0105175D01*
X0306974Y0105223D01*
X0306847Y0105276D01*
X0306723Y0105332D01*
X0306599Y0105391D01*
X0306478Y0105455D01*
X0306358Y0105521D01*
X0306241Y0105591D01*
X0306126Y0105665D01*
X0306012Y0105742D01*
X0305901Y0105822D01*
X0305793Y0105905D01*
X0305687Y0105992D01*
X0305583Y0106081D01*
X0305482Y0106174D01*
X0305384Y0106269D01*
X0305289Y0106367D01*
X0305196Y0106468D01*
X0305107Y0106572D01*
X0305020Y0106678D01*
X0304937Y0106786D01*
X0304857Y0106897D01*
X0304780Y0107011D01*
X0304706Y0107126D01*
X0304636Y0107243D01*
X0304570Y0107363D01*
X0304506Y0107484D01*
X0304447Y0107608D01*
X0304391Y0107732D01*
X0304338Y0107859D01*
X0304290Y0107987D01*
X0304245Y0108116D01*
X0304204Y0108247D01*
X0304166Y0108378D01*
X0304133Y0108511D01*
X0304103Y0108645D01*
X0304077Y0108779D01*
X0304056Y0108914D01*
X0304038Y0109050D01*
X0304024Y0109186D01*
X0304014Y0109322D01*
X0304008Y0109459D01*
X0304006Y0109596D01*
X0394557Y0219833D02*
X0394559Y0219970D01*
X0394565Y0220107D01*
X0394575Y0220243D01*
X0394589Y0220379D01*
X0394607Y0220515D01*
X0394628Y0220650D01*
X0394654Y0220784D01*
X0394684Y0220918D01*
X0394717Y0221051D01*
X0394755Y0221182D01*
X0394796Y0221313D01*
X0394841Y0221442D01*
X0394889Y0221570D01*
X0394942Y0221697D01*
X0394998Y0221821D01*
X0395057Y0221945D01*
X0395121Y0222066D01*
X0395187Y0222185D01*
X0395257Y0222303D01*
X0395331Y0222418D01*
X0395408Y0222532D01*
X0395488Y0222643D01*
X0395571Y0222751D01*
X0395658Y0222857D01*
X0395747Y0222961D01*
X0395840Y0223062D01*
X0395935Y0223160D01*
X0396033Y0223255D01*
X0396134Y0223348D01*
X0396238Y0223437D01*
X0396344Y0223524D01*
X0396452Y0223607D01*
X0396563Y0223687D01*
X0396677Y0223764D01*
X0396792Y0223838D01*
X0396909Y0223908D01*
X0397029Y0223974D01*
X0397150Y0224038D01*
X0397274Y0224097D01*
X0397398Y0224153D01*
X0397525Y0224206D01*
X0397653Y0224254D01*
X0397782Y0224299D01*
X0397913Y0224340D01*
X0398044Y0224378D01*
X0398177Y0224411D01*
X0398311Y0224441D01*
X0398445Y0224467D01*
X0398580Y0224488D01*
X0398716Y0224506D01*
X0398852Y0224520D01*
X0398988Y0224530D01*
X0399125Y0224536D01*
X0399262Y0224538D01*
X0399399Y0224536D01*
X0399536Y0224530D01*
X0399672Y0224520D01*
X0399808Y0224506D01*
X0399944Y0224488D01*
X0400079Y0224467D01*
X0400213Y0224441D01*
X0400347Y0224411D01*
X0400480Y0224378D01*
X0400611Y0224340D01*
X0400742Y0224299D01*
X0400871Y0224254D01*
X0400999Y0224206D01*
X0401126Y0224153D01*
X0401250Y0224097D01*
X0401374Y0224038D01*
X0401495Y0223974D01*
X0401614Y0223908D01*
X0401732Y0223838D01*
X0401847Y0223764D01*
X0401961Y0223687D01*
X0402072Y0223607D01*
X0402180Y0223524D01*
X0402286Y0223437D01*
X0402390Y0223348D01*
X0402491Y0223255D01*
X0402589Y0223160D01*
X0402684Y0223062D01*
X0402777Y0222961D01*
X0402866Y0222857D01*
X0402953Y0222751D01*
X0403036Y0222643D01*
X0403116Y0222532D01*
X0403193Y0222418D01*
X0403267Y0222303D01*
X0403337Y0222185D01*
X0403403Y0222066D01*
X0403467Y0221945D01*
X0403526Y0221821D01*
X0403582Y0221697D01*
X0403635Y0221570D01*
X0403683Y0221442D01*
X0403728Y0221313D01*
X0403769Y0221182D01*
X0403807Y0221051D01*
X0403840Y0220918D01*
X0403870Y0220784D01*
X0403896Y0220650D01*
X0403917Y0220515D01*
X0403935Y0220379D01*
X0403949Y0220243D01*
X0403959Y0220107D01*
X0403965Y0219970D01*
X0403967Y0219833D01*
X0403965Y0219696D01*
X0403959Y0219559D01*
X0403949Y0219423D01*
X0403935Y0219287D01*
X0403917Y0219151D01*
X0403896Y0219016D01*
X0403870Y0218882D01*
X0403840Y0218748D01*
X0403807Y0218615D01*
X0403769Y0218484D01*
X0403728Y0218353D01*
X0403683Y0218224D01*
X0403635Y0218096D01*
X0403582Y0217969D01*
X0403526Y0217845D01*
X0403467Y0217721D01*
X0403403Y0217600D01*
X0403337Y0217480D01*
X0403267Y0217363D01*
X0403193Y0217248D01*
X0403116Y0217134D01*
X0403036Y0217023D01*
X0402953Y0216915D01*
X0402866Y0216809D01*
X0402777Y0216705D01*
X0402684Y0216604D01*
X0402589Y0216506D01*
X0402491Y0216411D01*
X0402390Y0216318D01*
X0402286Y0216229D01*
X0402180Y0216142D01*
X0402072Y0216059D01*
X0401961Y0215979D01*
X0401847Y0215902D01*
X0401732Y0215828D01*
X0401615Y0215758D01*
X0401495Y0215692D01*
X0401374Y0215628D01*
X0401250Y0215569D01*
X0401126Y0215513D01*
X0400999Y0215460D01*
X0400871Y0215412D01*
X0400742Y0215367D01*
X0400611Y0215326D01*
X0400480Y0215288D01*
X0400347Y0215255D01*
X0400213Y0215225D01*
X0400079Y0215199D01*
X0399944Y0215178D01*
X0399808Y0215160D01*
X0399672Y0215146D01*
X0399536Y0215136D01*
X0399399Y0215130D01*
X0399262Y0215128D01*
X0399125Y0215130D01*
X0398988Y0215136D01*
X0398852Y0215146D01*
X0398716Y0215160D01*
X0398580Y0215178D01*
X0398445Y0215199D01*
X0398311Y0215225D01*
X0398177Y0215255D01*
X0398044Y0215288D01*
X0397913Y0215326D01*
X0397782Y0215367D01*
X0397653Y0215412D01*
X0397525Y0215460D01*
X0397398Y0215513D01*
X0397274Y0215569D01*
X0397150Y0215628D01*
X0397029Y0215692D01*
X0396909Y0215758D01*
X0396792Y0215828D01*
X0396677Y0215902D01*
X0396563Y0215979D01*
X0396452Y0216059D01*
X0396344Y0216142D01*
X0396238Y0216229D01*
X0396134Y0216318D01*
X0396033Y0216411D01*
X0395935Y0216506D01*
X0395840Y0216604D01*
X0395747Y0216705D01*
X0395658Y0216809D01*
X0395571Y0216915D01*
X0395488Y0217023D01*
X0395408Y0217134D01*
X0395331Y0217248D01*
X0395257Y0217363D01*
X0395187Y0217480D01*
X0395121Y0217600D01*
X0395057Y0217721D01*
X0394998Y0217845D01*
X0394942Y0217969D01*
X0394889Y0218096D01*
X0394841Y0218224D01*
X0394796Y0218353D01*
X0394755Y0218484D01*
X0394717Y0218615D01*
X0394684Y0218748D01*
X0394654Y0218882D01*
X0394628Y0219016D01*
X0394607Y0219151D01*
X0394589Y0219287D01*
X0394575Y0219423D01*
X0394565Y0219559D01*
X0394559Y0219696D01*
X0394557Y0219833D01*
D11*
X0428415Y0117392D03*
X0117392Y0117392D03*
X0117392Y0428415D03*
X0428415Y0428415D03*
D12*
X0397904Y0429415D03*
X0387904Y0428415D03*
X0387904Y0418415D03*
X0397904Y0419415D03*
X0397904Y0409415D03*
X0387904Y0408415D03*
X0397904Y0399415D03*
X0387904Y0398415D03*
X0377904Y0398415D03*
X0377904Y0408415D03*
X0377904Y0418415D03*
X0377904Y0428415D03*
X0367904Y0428415D03*
X0367904Y0418415D03*
X0367904Y0408415D03*
X0367904Y0398415D03*
X0357904Y0398415D03*
X0357904Y0408415D03*
X0357904Y0418415D03*
X0357904Y0428415D03*
X0347904Y0428415D03*
X0347904Y0418415D03*
X0347904Y0408415D03*
X0347904Y0398415D03*
X0337904Y0398415D03*
X0327904Y0398415D03*
X0327904Y0408415D03*
X0337904Y0408415D03*
X0337904Y0418415D03*
X0327904Y0418415D03*
X0327904Y0428415D03*
X0337904Y0428415D03*
X0317904Y0428415D03*
X0317904Y0418415D03*
X0317904Y0408415D03*
X0317904Y0398415D03*
X0307904Y0398415D03*
X0307904Y0408415D03*
X0307904Y0418415D03*
X0307904Y0428415D03*
X0297904Y0428415D03*
X0297904Y0418415D03*
X0297904Y0408415D03*
X0297904Y0398415D03*
X0287904Y0398415D03*
X0287904Y0408415D03*
X0287904Y0418415D03*
X0287904Y0428415D03*
X0277904Y0428415D03*
X0267904Y0428415D03*
X0267904Y0418415D03*
X0277904Y0418415D03*
X0277904Y0408415D03*
X0267904Y0408415D03*
X0267904Y0398415D03*
X0277904Y0398415D03*
X0257904Y0398415D03*
X0257904Y0408415D03*
X0257904Y0418415D03*
X0257904Y0428415D03*
X0247904Y0428415D03*
X0247904Y0418415D03*
X0247904Y0408415D03*
X0247904Y0398415D03*
X0237904Y0398415D03*
X0237904Y0408415D03*
X0237904Y0418415D03*
X0237904Y0428415D03*
X0227904Y0428415D03*
X0227904Y0418415D03*
X0227904Y0408415D03*
X0227904Y0398415D03*
X0217904Y0398415D03*
X0207904Y0398415D03*
X0207904Y0408415D03*
X0217904Y0408415D03*
X0217904Y0418415D03*
X0207904Y0418415D03*
X0207904Y0428415D03*
X0217904Y0428415D03*
X0197904Y0428415D03*
X0197904Y0418415D03*
X0197904Y0408415D03*
X0197904Y0398415D03*
X0187904Y0398415D03*
X0187904Y0408415D03*
X0187904Y0418415D03*
X0187904Y0428415D03*
X0177904Y0428415D03*
X0177904Y0418415D03*
X0177904Y0408415D03*
X0177904Y0398415D03*
X0167904Y0398415D03*
X0167904Y0408415D03*
X0167904Y0418415D03*
X0167904Y0428415D03*
X0157904Y0428415D03*
X0147904Y0429415D03*
X0147904Y0419415D03*
X0147904Y0409415D03*
X0157904Y0408415D03*
X0147904Y0399415D03*
X0157904Y0398415D03*
X0157904Y0418415D03*
D13*
X0162451Y0350167D03*
X0162451Y0348199D03*
X0162451Y0346230D03*
X0162451Y0344262D03*
X0162451Y0342293D03*
X0162451Y0340325D03*
X0162451Y0338356D03*
X0162451Y0336388D03*
X0162451Y0334419D03*
X0162451Y0332451D03*
X0162451Y0330482D03*
X0162451Y0328514D03*
X0162451Y0326545D03*
X0162451Y0324577D03*
X0162451Y0322608D03*
X0162451Y0320640D03*
X0118356Y0320640D03*
X0118356Y0322608D03*
X0118356Y0324577D03*
X0118356Y0326545D03*
X0118356Y0328514D03*
X0118356Y0330482D03*
X0118356Y0332451D03*
X0118356Y0334419D03*
X0118356Y0336388D03*
X0118356Y0338356D03*
X0118356Y0340325D03*
X0118356Y0342293D03*
X0118356Y0344262D03*
X0118356Y0346230D03*
X0118356Y0348199D03*
X0118356Y0350167D03*
X0232106Y0350167D03*
X0232106Y0348199D03*
X0232106Y0346230D03*
X0232106Y0344262D03*
X0232106Y0342293D03*
X0232106Y0340325D03*
X0232106Y0338356D03*
X0232106Y0336388D03*
X0232106Y0334419D03*
X0232106Y0332451D03*
X0232106Y0330482D03*
X0232106Y0328514D03*
X0232106Y0326545D03*
X0232106Y0324577D03*
X0232106Y0322608D03*
X0232106Y0320640D03*
X0276201Y0320640D03*
X0276201Y0322608D03*
X0276201Y0324577D03*
X0276201Y0326545D03*
X0276201Y0328514D03*
X0276201Y0330482D03*
X0276201Y0332451D03*
X0276201Y0334419D03*
X0276201Y0336388D03*
X0276201Y0338356D03*
X0276201Y0340325D03*
X0276201Y0342293D03*
X0276201Y0344262D03*
X0276201Y0346230D03*
X0276201Y0348199D03*
X0276201Y0350167D03*
X0343356Y0350167D03*
X0343356Y0348199D03*
X0343356Y0346230D03*
X0343356Y0344262D03*
X0343356Y0342293D03*
X0343356Y0340325D03*
X0343356Y0338356D03*
X0343356Y0336388D03*
X0343356Y0334419D03*
X0343356Y0332451D03*
X0343356Y0330482D03*
X0343356Y0328514D03*
X0343356Y0326545D03*
X0343356Y0324577D03*
X0343356Y0322608D03*
X0343356Y0320640D03*
X0387451Y0320640D03*
X0387451Y0322608D03*
X0387451Y0324577D03*
X0387451Y0326545D03*
X0387451Y0328514D03*
X0387451Y0330482D03*
X0387451Y0332451D03*
X0387451Y0334419D03*
X0387451Y0336388D03*
X0387451Y0338356D03*
X0387451Y0340325D03*
X0387451Y0342293D03*
X0387451Y0344262D03*
X0387451Y0346230D03*
X0387451Y0348199D03*
X0387451Y0350167D03*
D14*
X0380167Y0357451D03*
X0378199Y0357451D03*
X0376230Y0357451D03*
X0374262Y0357451D03*
X0372293Y0357451D03*
X0370325Y0357451D03*
X0368356Y0357451D03*
X0366388Y0357451D03*
X0364419Y0357451D03*
X0362451Y0357451D03*
X0360482Y0357451D03*
X0358514Y0357451D03*
X0356545Y0357451D03*
X0354577Y0357451D03*
X0352608Y0357451D03*
X0350640Y0357451D03*
X0350640Y0313356D03*
X0352608Y0313356D03*
X0354577Y0313356D03*
X0356545Y0313356D03*
X0358514Y0313356D03*
X0360482Y0313356D03*
X0362451Y0313356D03*
X0364419Y0313356D03*
X0366388Y0313356D03*
X0368356Y0313356D03*
X0370325Y0313356D03*
X0372293Y0313356D03*
X0374262Y0313356D03*
X0376230Y0313356D03*
X0378199Y0313356D03*
X0380167Y0313356D03*
X0268917Y0313356D03*
X0266949Y0313356D03*
X0264980Y0313356D03*
X0263012Y0313356D03*
X0261043Y0313356D03*
X0259075Y0313356D03*
X0257106Y0313356D03*
X0255138Y0313356D03*
X0253169Y0313356D03*
X0251201Y0313356D03*
X0249232Y0313356D03*
X0247264Y0313356D03*
X0245295Y0313356D03*
X0243327Y0313356D03*
X0241358Y0313356D03*
X0239390Y0313356D03*
X0239390Y0357451D03*
X0241358Y0357451D03*
X0243327Y0357451D03*
X0245295Y0357451D03*
X0247264Y0357451D03*
X0249232Y0357451D03*
X0251201Y0357451D03*
X0253169Y0357451D03*
X0255138Y0357451D03*
X0257106Y0357451D03*
X0259075Y0357451D03*
X0261043Y0357451D03*
X0263012Y0357451D03*
X0264980Y0357451D03*
X0266949Y0357451D03*
X0268917Y0357451D03*
X0155167Y0357451D03*
X0153199Y0357451D03*
X0151230Y0357451D03*
X0149262Y0357451D03*
X0147293Y0357451D03*
X0145325Y0357451D03*
X0143356Y0357451D03*
X0141388Y0357451D03*
X0139419Y0357451D03*
X0137451Y0357451D03*
X0135482Y0357451D03*
X0133514Y0357451D03*
X0131545Y0357451D03*
X0129577Y0357451D03*
X0127608Y0357451D03*
X0125640Y0357451D03*
X0125640Y0313356D03*
X0127608Y0313356D03*
X0129577Y0313356D03*
X0131545Y0313356D03*
X0133514Y0313356D03*
X0135482Y0313356D03*
X0137451Y0313356D03*
X0139419Y0313356D03*
X0141388Y0313356D03*
X0143356Y0313356D03*
X0145325Y0313356D03*
X0147293Y0313356D03*
X0149262Y0313356D03*
X0151230Y0313356D03*
X0153199Y0313356D03*
X0155167Y0313356D03*
D15*
X0162451Y0274537D03*
X0162451Y0271978D03*
X0162451Y0269419D03*
X0162451Y0266860D03*
X0162451Y0264301D03*
X0162451Y0261742D03*
X0162451Y0259183D03*
X0162451Y0256624D03*
X0162451Y0254065D03*
X0162451Y0251506D03*
X0162451Y0248947D03*
X0162451Y0246388D03*
X0162451Y0243829D03*
X0162451Y0241270D03*
X0134104Y0241270D03*
X0134104Y0243829D03*
X0134104Y0246388D03*
X0134104Y0248947D03*
X0134104Y0251506D03*
X0134104Y0254065D03*
X0134104Y0256624D03*
X0134104Y0259183D03*
X0134104Y0261742D03*
X0134104Y0264301D03*
X0134104Y0266860D03*
X0134104Y0269419D03*
X0134104Y0271978D03*
X0134104Y0274537D03*
X0247854Y0274537D03*
X0247854Y0271978D03*
X0247854Y0269419D03*
X0247854Y0266860D03*
X0247854Y0264301D03*
X0247854Y0261742D03*
X0247854Y0259183D03*
X0247854Y0256624D03*
X0247854Y0254065D03*
X0247854Y0251506D03*
X0247854Y0248947D03*
X0247854Y0246388D03*
X0247854Y0243829D03*
X0247854Y0241270D03*
X0276201Y0241270D03*
X0276201Y0243829D03*
X0276201Y0246388D03*
X0276201Y0248947D03*
X0276201Y0251506D03*
X0276201Y0254065D03*
X0276201Y0256624D03*
X0276201Y0259183D03*
X0276201Y0261742D03*
X0276201Y0264301D03*
X0276201Y0266860D03*
X0276201Y0269419D03*
X0276201Y0271978D03*
X0276201Y0274537D03*
X0359104Y0274537D03*
X0359104Y0271978D03*
X0359104Y0269419D03*
X0359104Y0266860D03*
X0359104Y0264301D03*
X0359104Y0261742D03*
X0359104Y0259183D03*
X0359104Y0256624D03*
X0359104Y0254065D03*
X0359104Y0251506D03*
X0359104Y0248947D03*
X0359104Y0246388D03*
X0359104Y0243829D03*
X0359104Y0241270D03*
X0387451Y0241270D03*
X0387451Y0243829D03*
X0387451Y0246388D03*
X0387451Y0248947D03*
X0387451Y0251506D03*
X0387451Y0254065D03*
X0387451Y0256624D03*
X0387451Y0259183D03*
X0387451Y0261742D03*
X0387451Y0264301D03*
X0387451Y0266860D03*
X0387451Y0269419D03*
X0387451Y0271978D03*
X0387451Y0274537D03*
D16*
X0360325Y0295404D03*
X0350482Y0295404D03*
X0249075Y0295404D03*
X0239232Y0295404D03*
X0135325Y0295404D03*
X0125482Y0295404D03*
D17*
X0116781Y0304380D03*
X0116781Y0311467D03*
X0106939Y0311467D03*
X0106939Y0304380D03*
X0106939Y0359341D03*
X0106939Y0366427D03*
X0116781Y0366427D03*
X0116781Y0359341D03*
X0164026Y0311467D03*
X0173868Y0311467D03*
X0173868Y0304380D03*
X0164026Y0304380D03*
X0175344Y0275384D03*
X0175344Y0268297D03*
X0175344Y0260778D03*
X0175344Y0253691D03*
X0127116Y0236171D03*
X0127116Y0229085D03*
X0220689Y0304380D03*
X0220689Y0311467D03*
X0230531Y0311467D03*
X0230531Y0304380D03*
X0277776Y0304380D03*
X0277776Y0311467D03*
X0287618Y0311467D03*
X0287618Y0304380D03*
X0289094Y0275384D03*
X0289094Y0268297D03*
X0289094Y0260778D03*
X0289094Y0253691D03*
X0240866Y0236171D03*
X0240866Y0229085D03*
X0280404Y0147697D03*
X0280404Y0140610D03*
X0352116Y0229085D03*
X0352116Y0236171D03*
X0400344Y0253691D03*
X0400344Y0260778D03*
X0400344Y0268297D03*
X0400344Y0275384D03*
X0398868Y0304380D03*
X0398868Y0311467D03*
X0389026Y0311467D03*
X0389026Y0304380D03*
X0341781Y0304380D03*
X0341781Y0311467D03*
X0331939Y0311467D03*
X0331939Y0304380D03*
X0331939Y0359341D03*
X0331939Y0366427D03*
X0341781Y0366427D03*
X0341781Y0359341D03*
X0230531Y0359341D03*
X0230531Y0366427D03*
X0220689Y0366427D03*
X0220689Y0359341D03*
D18*
X0219705Y0358041D02*
X0231516Y0358041D01*
X0231516Y0350167D01*
X0231516Y0348199D02*
X0227910Y0348199D01*
X0227344Y0348433D02*
X0223642Y0352136D01*
X0227344Y0348433D02*
X0227383Y0348398D01*
X0227423Y0348364D01*
X0227466Y0348334D01*
X0227510Y0348306D01*
X0227556Y0348282D01*
X0227604Y0348260D01*
X0227653Y0348241D01*
X0227703Y0348226D01*
X0227754Y0348214D01*
X0227806Y0348206D01*
X0227858Y0348201D01*
X0227910Y0348199D01*
X0231516Y0358041D02*
X0231516Y0359026D01*
X0208304Y0329254D02*
X0180556Y0329254D01*
X0176517Y0325215D01*
X0174290Y0325215D01*
X0172715Y0326790D01*
X0172715Y0332810D01*
X0169154Y0336371D01*
X0167631Y0320640D02*
X0163041Y0320640D01*
X0167631Y0320640D02*
X0167683Y0320638D01*
X0167735Y0320633D01*
X0167787Y0320625D01*
X0167838Y0320613D01*
X0167888Y0320598D01*
X0167937Y0320579D01*
X0167985Y0320557D01*
X0168031Y0320533D01*
X0168075Y0320505D01*
X0168118Y0320475D01*
X0168158Y0320441D01*
X0168197Y0320406D01*
X0168197Y0320405D02*
X0169931Y0318671D01*
X0174852Y0312766D02*
X0155167Y0312766D01*
X0153199Y0311289D02*
X0153199Y0307352D01*
X0160581Y0299970D01*
X0164587Y0299970D01*
X0169154Y0295404D01*
X0162571Y0296760D02*
X0160346Y0296760D01*
X0151230Y0305876D01*
X0151230Y0311781D01*
X0149262Y0313750D02*
X0149262Y0301407D01*
X0167963Y0282707D01*
X0167963Y0269459D01*
X0165010Y0269459D01*
X0165010Y0266506D02*
X0169931Y0266506D01*
X0169931Y0270935D01*
X0173868Y0274872D01*
X0175344Y0268967D02*
X0175344Y0261093D01*
X0174360Y0261093D02*
X0171407Y0264045D01*
X0164518Y0264045D01*
X0164026Y0261585D02*
X0168947Y0261585D01*
X0168947Y0251742D01*
X0164026Y0251742D01*
X0168123Y0246329D02*
X0168215Y0246335D01*
X0168307Y0246345D01*
X0168398Y0246359D01*
X0168489Y0246377D01*
X0168579Y0246398D01*
X0168668Y0246423D01*
X0168756Y0246451D01*
X0168843Y0246483D01*
X0168928Y0246519D01*
X0169012Y0246558D01*
X0169094Y0246601D01*
X0169174Y0246647D01*
X0169252Y0246696D01*
X0169328Y0246749D01*
X0169402Y0246804D01*
X0169473Y0246863D01*
X0169542Y0246924D01*
X0169609Y0246989D01*
X0169673Y0247056D01*
X0169673Y0247055D02*
X0170915Y0248297D01*
X0168123Y0246329D02*
X0162549Y0246329D01*
X0164026Y0243868D02*
X0167631Y0243868D01*
X0168197Y0243634D02*
X0170915Y0240915D01*
X0168197Y0243634D02*
X0168158Y0243669D01*
X0168118Y0243703D01*
X0168075Y0243733D01*
X0168031Y0243761D01*
X0167985Y0243785D01*
X0167937Y0243807D01*
X0167888Y0243826D01*
X0167838Y0243841D01*
X0167787Y0243853D01*
X0167735Y0243861D01*
X0167683Y0243866D01*
X0167631Y0243868D01*
X0164026Y0240915D02*
X0156152Y0240915D01*
X0156152Y0259616D01*
X0162057Y0259616D01*
X0160831Y0272161D02*
X0154433Y0272161D01*
X0145325Y0281270D01*
X0145325Y0312766D01*
X0143356Y0311781D02*
X0143356Y0288159D01*
X0132764Y0277567D01*
X0132530Y0277001D02*
X0132530Y0274380D01*
X0132530Y0272161D02*
X0127608Y0272161D01*
X0127608Y0278317D01*
X0130230Y0278317D01*
X0130795Y0278551D02*
X0141388Y0289144D01*
X0141388Y0311781D01*
X0139419Y0310466D02*
X0139419Y0306860D01*
X0133514Y0306860D01*
X0133514Y0312766D01*
X0131545Y0312766D02*
X0131545Y0298002D01*
X0135482Y0298002D01*
X0134498Y0295049D02*
X0126624Y0284222D01*
X0130230Y0278317D02*
X0130282Y0278319D01*
X0130334Y0278324D01*
X0130386Y0278332D01*
X0130437Y0278344D01*
X0130487Y0278359D01*
X0130536Y0278378D01*
X0130584Y0278400D01*
X0130630Y0278424D01*
X0130674Y0278452D01*
X0130717Y0278482D01*
X0130757Y0278516D01*
X0130796Y0278551D01*
X0132764Y0277567D02*
X0132729Y0277528D01*
X0132695Y0277488D01*
X0132665Y0277445D01*
X0132637Y0277401D01*
X0132613Y0277355D01*
X0132591Y0277307D01*
X0132572Y0277258D01*
X0132557Y0277208D01*
X0132545Y0277157D01*
X0132537Y0277105D01*
X0132532Y0277053D01*
X0132530Y0277001D01*
X0127374Y0264771D02*
X0127413Y0264736D01*
X0127453Y0264702D01*
X0127496Y0264672D01*
X0127540Y0264644D01*
X0127586Y0264620D01*
X0127634Y0264598D01*
X0127683Y0264579D01*
X0127733Y0264564D01*
X0127784Y0264552D01*
X0127836Y0264544D01*
X0127888Y0264539D01*
X0127940Y0264537D01*
X0134498Y0264537D01*
X0133514Y0261585D02*
X0116781Y0261585D01*
X0117766Y0263553D02*
X0117766Y0274380D01*
X0125640Y0266506D02*
X0127374Y0264772D01*
X0125971Y0259616D02*
X0133514Y0259616D01*
X0125971Y0259616D02*
X0125919Y0259614D01*
X0125867Y0259609D01*
X0125815Y0259601D01*
X0125764Y0259589D01*
X0125714Y0259574D01*
X0125665Y0259555D01*
X0125617Y0259533D01*
X0125571Y0259509D01*
X0125527Y0259481D01*
X0125484Y0259451D01*
X0125444Y0259417D01*
X0125405Y0259382D01*
X0121703Y0255679D01*
X0113176Y0255679D01*
X0112610Y0255445D02*
X0107923Y0250758D01*
X0105463Y0248297D02*
X0105463Y0239278D01*
X0105697Y0238713D02*
X0106447Y0237963D01*
X0105697Y0238712D02*
X0105662Y0238751D01*
X0105628Y0238791D01*
X0105598Y0238834D01*
X0105570Y0238878D01*
X0105546Y0238924D01*
X0105524Y0238972D01*
X0105505Y0239021D01*
X0105490Y0239071D01*
X0105478Y0239122D01*
X0105470Y0239174D01*
X0105465Y0239226D01*
X0105463Y0239278D01*
X0112610Y0255445D02*
X0112649Y0255480D01*
X0112689Y0255514D01*
X0112732Y0255544D01*
X0112776Y0255572D01*
X0112822Y0255596D01*
X0112870Y0255618D01*
X0112919Y0255637D01*
X0112969Y0255652D01*
X0113020Y0255664D01*
X0113072Y0255672D01*
X0113124Y0255677D01*
X0113176Y0255679D01*
X0129085Y0236486D02*
X0133693Y0241095D01*
X0135482Y0251742D02*
X0140072Y0251742D01*
X0140638Y0251976D02*
X0142372Y0253711D01*
X0140638Y0251976D02*
X0140599Y0251941D01*
X0140559Y0251907D01*
X0140516Y0251877D01*
X0140472Y0251849D01*
X0140426Y0251825D01*
X0140378Y0251803D01*
X0140329Y0251784D01*
X0140279Y0251769D01*
X0140228Y0251757D01*
X0140176Y0251749D01*
X0140124Y0251744D01*
X0140072Y0251742D01*
X0160581Y0274380D02*
X0160581Y0282746D01*
X0147293Y0296033D01*
X0147293Y0314242D01*
X0129577Y0312766D02*
X0129577Y0298002D01*
X0125640Y0298002D01*
X0125640Y0296033D02*
X0117766Y0296033D01*
X0124656Y0305876D02*
X0127608Y0308829D01*
X0127608Y0311781D01*
X0125640Y0312766D02*
X0106447Y0312766D01*
X0114160Y0348199D02*
X0117766Y0348199D01*
X0117766Y0350167D02*
X0117766Y0358041D01*
X0117766Y0359026D01*
X0117766Y0358041D02*
X0105955Y0358041D01*
X0109892Y0352136D02*
X0113594Y0348433D01*
X0113633Y0348398D01*
X0113673Y0348364D01*
X0113716Y0348334D01*
X0113760Y0348306D01*
X0113806Y0348282D01*
X0113854Y0348260D01*
X0113903Y0348241D01*
X0113953Y0348226D01*
X0114004Y0348214D01*
X0114056Y0348206D01*
X0114108Y0348201D01*
X0114160Y0348199D01*
X0176329Y0261585D02*
X0176329Y0261093D01*
X0219213Y0248297D02*
X0219213Y0239278D01*
X0219447Y0238713D02*
X0220197Y0237963D01*
X0219447Y0238712D02*
X0219412Y0238751D01*
X0219378Y0238791D01*
X0219348Y0238834D01*
X0219320Y0238878D01*
X0219296Y0238924D01*
X0219274Y0238972D01*
X0219255Y0239021D01*
X0219240Y0239071D01*
X0219228Y0239122D01*
X0219220Y0239174D01*
X0219215Y0239226D01*
X0219213Y0239278D01*
X0221673Y0250758D02*
X0226360Y0255445D01*
X0226926Y0255679D02*
X0235453Y0255679D01*
X0239155Y0259382D01*
X0239721Y0259616D02*
X0247264Y0259616D01*
X0247264Y0261585D02*
X0230531Y0261585D01*
X0231516Y0263553D02*
X0231516Y0274380D01*
X0241358Y0272161D02*
X0241358Y0278317D01*
X0243980Y0278317D01*
X0244545Y0278551D02*
X0255138Y0289144D01*
X0255138Y0311781D01*
X0257106Y0311781D02*
X0257106Y0288159D01*
X0246514Y0277567D01*
X0246280Y0277001D02*
X0246280Y0274380D01*
X0246280Y0272161D02*
X0241358Y0272161D01*
X0239390Y0266506D02*
X0241124Y0264772D01*
X0241690Y0264537D02*
X0248248Y0264537D01*
X0241690Y0264537D02*
X0241638Y0264539D01*
X0241586Y0264544D01*
X0241534Y0264552D01*
X0241483Y0264564D01*
X0241433Y0264579D01*
X0241384Y0264598D01*
X0241336Y0264620D01*
X0241290Y0264644D01*
X0241246Y0264672D01*
X0241203Y0264702D01*
X0241163Y0264736D01*
X0241124Y0264771D01*
X0239721Y0259616D02*
X0239669Y0259614D01*
X0239617Y0259609D01*
X0239565Y0259601D01*
X0239514Y0259589D01*
X0239464Y0259574D01*
X0239415Y0259555D01*
X0239367Y0259533D01*
X0239321Y0259509D01*
X0239277Y0259481D01*
X0239234Y0259451D01*
X0239194Y0259417D01*
X0239155Y0259382D01*
X0249232Y0251742D02*
X0253822Y0251742D01*
X0254388Y0251976D02*
X0256122Y0253711D01*
X0254388Y0251976D02*
X0254349Y0251941D01*
X0254309Y0251907D01*
X0254266Y0251877D01*
X0254222Y0251849D01*
X0254176Y0251825D01*
X0254128Y0251803D01*
X0254079Y0251784D01*
X0254029Y0251769D01*
X0253978Y0251757D01*
X0253926Y0251749D01*
X0253874Y0251744D01*
X0253822Y0251742D01*
X0247443Y0241095D02*
X0242835Y0236486D01*
X0226926Y0255679D02*
X0226874Y0255677D01*
X0226822Y0255672D01*
X0226770Y0255664D01*
X0226719Y0255652D01*
X0226669Y0255637D01*
X0226620Y0255618D01*
X0226572Y0255596D01*
X0226526Y0255572D01*
X0226482Y0255544D01*
X0226439Y0255514D01*
X0226399Y0255480D01*
X0226360Y0255445D01*
X0246280Y0277001D02*
X0246282Y0277053D01*
X0246287Y0277105D01*
X0246295Y0277157D01*
X0246307Y0277208D01*
X0246322Y0277258D01*
X0246341Y0277307D01*
X0246363Y0277355D01*
X0246387Y0277401D01*
X0246415Y0277445D01*
X0246445Y0277488D01*
X0246479Y0277528D01*
X0246514Y0277567D01*
X0244546Y0278551D02*
X0244507Y0278516D01*
X0244467Y0278482D01*
X0244424Y0278452D01*
X0244380Y0278424D01*
X0244334Y0278400D01*
X0244286Y0278378D01*
X0244237Y0278359D01*
X0244187Y0278344D01*
X0244136Y0278332D01*
X0244084Y0278324D01*
X0244032Y0278319D01*
X0243980Y0278317D01*
X0240374Y0284222D02*
X0248248Y0295049D01*
X0249232Y0298002D02*
X0245295Y0298002D01*
X0245295Y0312766D01*
X0243327Y0312766D02*
X0243327Y0298002D01*
X0239390Y0298002D01*
X0239390Y0296033D02*
X0231516Y0296033D01*
X0238406Y0305876D02*
X0241358Y0308829D01*
X0241358Y0311781D01*
X0239390Y0312766D02*
X0220197Y0312766D01*
X0213404Y0324154D02*
X0208304Y0329254D01*
X0247264Y0312766D02*
X0247264Y0306860D01*
X0253169Y0306860D01*
X0253169Y0310466D01*
X0259075Y0312766D02*
X0259075Y0281270D01*
X0268183Y0272161D01*
X0274581Y0272161D01*
X0274331Y0274380D02*
X0274331Y0282746D01*
X0261043Y0296033D01*
X0261043Y0314242D01*
X0263012Y0313750D02*
X0263012Y0301407D01*
X0281713Y0282707D01*
X0281713Y0269459D01*
X0278760Y0269459D01*
X0278760Y0266506D02*
X0283681Y0266506D01*
X0283681Y0270935D01*
X0287618Y0274872D01*
X0289094Y0268967D02*
X0289094Y0261093D01*
X0288110Y0261093D02*
X0285157Y0264045D01*
X0278268Y0264045D01*
X0277776Y0261585D02*
X0282697Y0261585D01*
X0282697Y0251742D01*
X0277776Y0251742D01*
X0281873Y0246329D02*
X0281965Y0246335D01*
X0282057Y0246345D01*
X0282148Y0246359D01*
X0282239Y0246377D01*
X0282329Y0246398D01*
X0282418Y0246423D01*
X0282506Y0246451D01*
X0282593Y0246483D01*
X0282678Y0246519D01*
X0282762Y0246558D01*
X0282844Y0246601D01*
X0282924Y0246647D01*
X0283002Y0246696D01*
X0283078Y0246749D01*
X0283152Y0246804D01*
X0283223Y0246863D01*
X0283292Y0246924D01*
X0283359Y0246989D01*
X0283423Y0247056D01*
X0283423Y0247055D02*
X0284665Y0248297D01*
X0281873Y0246329D02*
X0276299Y0246329D01*
X0277776Y0243868D02*
X0281381Y0243868D01*
X0281947Y0243634D02*
X0284665Y0240915D01*
X0281947Y0243634D02*
X0281908Y0243669D01*
X0281868Y0243703D01*
X0281825Y0243733D01*
X0281781Y0243761D01*
X0281735Y0243785D01*
X0281687Y0243807D01*
X0281638Y0243826D01*
X0281588Y0243841D01*
X0281537Y0243853D01*
X0281485Y0243861D01*
X0281433Y0243866D01*
X0281381Y0243868D01*
X0277776Y0240915D02*
X0269902Y0240915D01*
X0269902Y0259616D01*
X0275807Y0259616D01*
X0290079Y0261093D02*
X0290079Y0261585D01*
X0282904Y0295404D02*
X0278337Y0299970D01*
X0274331Y0299970D01*
X0266949Y0307352D01*
X0266949Y0311289D01*
X0264980Y0311781D02*
X0264980Y0305876D01*
X0274096Y0296760D01*
X0276321Y0296760D01*
X0268917Y0312766D02*
X0288602Y0312766D01*
X0283681Y0318671D02*
X0281947Y0320405D01*
X0281381Y0320640D02*
X0276791Y0320640D01*
X0281381Y0320640D02*
X0281433Y0320638D01*
X0281485Y0320633D01*
X0281537Y0320625D01*
X0281588Y0320613D01*
X0281638Y0320598D01*
X0281687Y0320579D01*
X0281735Y0320557D01*
X0281781Y0320533D01*
X0281825Y0320505D01*
X0281868Y0320475D01*
X0281908Y0320441D01*
X0281947Y0320406D01*
X0290215Y0333457D02*
X0299707Y0323965D01*
X0305267Y0323965D01*
X0310556Y0329254D01*
X0322054Y0329254D01*
X0327154Y0324154D01*
X0331447Y0312766D02*
X0350640Y0312766D01*
X0352608Y0311781D02*
X0352608Y0308829D01*
X0349656Y0305876D01*
X0354577Y0312766D02*
X0354577Y0298002D01*
X0350640Y0298002D01*
X0350640Y0296033D02*
X0342766Y0296033D01*
X0351624Y0284222D02*
X0359498Y0295049D01*
X0360482Y0298002D02*
X0356545Y0298002D01*
X0356545Y0312766D01*
X0358514Y0312766D02*
X0358514Y0306860D01*
X0364419Y0306860D01*
X0364419Y0310466D01*
X0366388Y0311781D02*
X0366388Y0289144D01*
X0355795Y0278551D01*
X0355230Y0278317D02*
X0352608Y0278317D01*
X0352608Y0272161D01*
X0357530Y0272161D01*
X0357530Y0274380D02*
X0357530Y0277001D01*
X0357764Y0277567D02*
X0368356Y0288159D01*
X0368356Y0311781D01*
X0370325Y0312766D02*
X0370325Y0281270D01*
X0379433Y0272161D01*
X0385831Y0272161D01*
X0385581Y0274380D02*
X0385581Y0282746D01*
X0372293Y0296033D01*
X0372293Y0314242D01*
X0374262Y0313750D02*
X0374262Y0301407D01*
X0392963Y0282707D01*
X0392963Y0269459D01*
X0390010Y0269459D01*
X0390010Y0266506D02*
X0394931Y0266506D01*
X0394931Y0270935D01*
X0398868Y0274872D01*
X0400344Y0268967D02*
X0400344Y0261093D01*
X0399360Y0261093D02*
X0396407Y0264045D01*
X0389518Y0264045D01*
X0389026Y0261585D02*
X0393947Y0261585D01*
X0393947Y0251742D01*
X0389026Y0251742D01*
X0393123Y0246329D02*
X0393215Y0246335D01*
X0393307Y0246345D01*
X0393398Y0246359D01*
X0393489Y0246377D01*
X0393579Y0246398D01*
X0393668Y0246423D01*
X0393756Y0246451D01*
X0393843Y0246483D01*
X0393928Y0246519D01*
X0394012Y0246558D01*
X0394094Y0246601D01*
X0394174Y0246647D01*
X0394252Y0246696D01*
X0394328Y0246749D01*
X0394402Y0246804D01*
X0394473Y0246863D01*
X0394542Y0246924D01*
X0394609Y0246989D01*
X0394673Y0247056D01*
X0394673Y0247055D02*
X0395915Y0248297D01*
X0393123Y0246329D02*
X0387549Y0246329D01*
X0389026Y0243868D02*
X0392631Y0243868D01*
X0393197Y0243634D02*
X0395915Y0240915D01*
X0393197Y0243634D02*
X0393158Y0243669D01*
X0393118Y0243703D01*
X0393075Y0243733D01*
X0393031Y0243761D01*
X0392985Y0243785D01*
X0392937Y0243807D01*
X0392888Y0243826D01*
X0392838Y0243841D01*
X0392787Y0243853D01*
X0392735Y0243861D01*
X0392683Y0243866D01*
X0392631Y0243868D01*
X0389026Y0240915D02*
X0381152Y0240915D01*
X0381152Y0259616D01*
X0387057Y0259616D01*
X0401329Y0261093D02*
X0401329Y0261585D01*
X0367372Y0253711D02*
X0365638Y0251976D01*
X0365072Y0251742D02*
X0360482Y0251742D01*
X0365072Y0251742D02*
X0365124Y0251744D01*
X0365176Y0251749D01*
X0365228Y0251757D01*
X0365279Y0251769D01*
X0365329Y0251784D01*
X0365378Y0251803D01*
X0365426Y0251825D01*
X0365472Y0251849D01*
X0365516Y0251877D01*
X0365559Y0251907D01*
X0365599Y0251941D01*
X0365638Y0251976D01*
X0358514Y0259616D02*
X0350971Y0259616D01*
X0350405Y0259382D02*
X0346703Y0255679D01*
X0338176Y0255679D01*
X0337610Y0255445D02*
X0332923Y0250758D01*
X0330463Y0248297D02*
X0330463Y0239278D01*
X0330697Y0238713D02*
X0331447Y0237963D01*
X0330697Y0238712D02*
X0330662Y0238751D01*
X0330628Y0238791D01*
X0330598Y0238834D01*
X0330570Y0238878D01*
X0330546Y0238924D01*
X0330524Y0238972D01*
X0330505Y0239021D01*
X0330490Y0239071D01*
X0330478Y0239122D01*
X0330470Y0239174D01*
X0330465Y0239226D01*
X0330463Y0239278D01*
X0337610Y0255445D02*
X0337649Y0255480D01*
X0337689Y0255514D01*
X0337732Y0255544D01*
X0337776Y0255572D01*
X0337822Y0255596D01*
X0337870Y0255618D01*
X0337919Y0255637D01*
X0337969Y0255652D01*
X0338020Y0255664D01*
X0338072Y0255672D01*
X0338124Y0255677D01*
X0338176Y0255679D01*
X0341781Y0261585D02*
X0358514Y0261585D01*
X0359498Y0264537D02*
X0352940Y0264537D01*
X0352374Y0264772D02*
X0350640Y0266506D01*
X0352374Y0264771D02*
X0352413Y0264736D01*
X0352453Y0264702D01*
X0352496Y0264672D01*
X0352540Y0264644D01*
X0352586Y0264620D01*
X0352634Y0264598D01*
X0352683Y0264579D01*
X0352733Y0264564D01*
X0352784Y0264552D01*
X0352836Y0264544D01*
X0352888Y0264539D01*
X0352940Y0264537D01*
X0350971Y0259616D02*
X0350919Y0259614D01*
X0350867Y0259609D01*
X0350815Y0259601D01*
X0350764Y0259589D01*
X0350714Y0259574D01*
X0350665Y0259555D01*
X0350617Y0259533D01*
X0350571Y0259509D01*
X0350527Y0259481D01*
X0350484Y0259451D01*
X0350444Y0259417D01*
X0350405Y0259382D01*
X0342766Y0263553D02*
X0342766Y0274380D01*
X0355230Y0278317D02*
X0355282Y0278319D01*
X0355334Y0278324D01*
X0355386Y0278332D01*
X0355437Y0278344D01*
X0355487Y0278359D01*
X0355536Y0278378D01*
X0355584Y0278400D01*
X0355630Y0278424D01*
X0355674Y0278452D01*
X0355717Y0278482D01*
X0355757Y0278516D01*
X0355796Y0278551D01*
X0357764Y0277567D02*
X0357729Y0277528D01*
X0357695Y0277488D01*
X0357665Y0277445D01*
X0357637Y0277401D01*
X0357613Y0277355D01*
X0357591Y0277307D01*
X0357572Y0277258D01*
X0357557Y0277208D01*
X0357545Y0277157D01*
X0357537Y0277105D01*
X0357532Y0277053D01*
X0357530Y0277001D01*
X0385346Y0296760D02*
X0387571Y0296760D01*
X0385346Y0296760D02*
X0376230Y0305876D01*
X0376230Y0311781D01*
X0378199Y0311289D02*
X0378199Y0307352D01*
X0385581Y0299970D01*
X0389587Y0299970D01*
X0394154Y0295404D01*
X0399852Y0312766D02*
X0380167Y0312766D01*
X0388041Y0320640D02*
X0392631Y0320640D01*
X0393197Y0320405D02*
X0394931Y0318671D01*
X0393197Y0320406D02*
X0393158Y0320441D01*
X0393118Y0320475D01*
X0393075Y0320505D01*
X0393031Y0320533D01*
X0392985Y0320557D01*
X0392937Y0320579D01*
X0392888Y0320598D01*
X0392838Y0320613D01*
X0392787Y0320625D01*
X0392735Y0320633D01*
X0392683Y0320638D01*
X0392631Y0320640D01*
X0394154Y0336371D02*
X0404532Y0336371D01*
X0411649Y0329254D01*
X0433304Y0329254D01*
X0438404Y0324154D01*
X0358693Y0241095D02*
X0354085Y0236486D01*
X0290215Y0333457D02*
X0290215Y0336560D01*
X0289154Y0337621D01*
X0330955Y0358041D02*
X0342766Y0358041D01*
X0342766Y0350167D01*
X0342766Y0348199D02*
X0339160Y0348199D01*
X0338594Y0348433D02*
X0334892Y0352136D01*
X0338594Y0348433D02*
X0338633Y0348398D01*
X0338673Y0348364D01*
X0338716Y0348334D01*
X0338760Y0348306D01*
X0338806Y0348282D01*
X0338854Y0348260D01*
X0338903Y0348241D01*
X0338953Y0348226D01*
X0339004Y0348214D01*
X0339056Y0348206D01*
X0339108Y0348201D01*
X0339160Y0348199D01*
X0342766Y0358041D02*
X0342766Y0359026D01*
D19*
X0342451Y0294065D03*
X0335364Y0294065D03*
X0344222Y0284222D03*
X0351309Y0284222D03*
X0342451Y0273396D03*
X0335364Y0273396D03*
X0338848Y0237963D03*
X0331762Y0237963D03*
X0292067Y0238947D03*
X0284980Y0238947D03*
X0240059Y0284222D03*
X0232972Y0284222D03*
X0231201Y0294065D03*
X0224114Y0294065D03*
X0224114Y0273396D03*
X0231201Y0273396D03*
X0227598Y0237963D03*
X0220512Y0237963D03*
X0178317Y0238947D03*
X0171230Y0238947D03*
X0126309Y0284222D03*
X0119222Y0284222D03*
X0117451Y0294065D03*
X0110364Y0294065D03*
X0110364Y0273396D03*
X0117451Y0273396D03*
X0113848Y0237963D03*
X0106762Y0237963D03*
G36*
X0245115Y0149704D02*
X0247342Y0151931D01*
X0250681Y0148592D01*
X0248454Y0146365D01*
X0245115Y0149704D01*
G37*
G36*
X0250126Y0154715D02*
X0252353Y0156942D01*
X0255692Y0153603D01*
X0253465Y0151376D01*
X0250126Y0154715D01*
G37*
G36*
X0260692Y0148603D02*
X0258465Y0146376D01*
X0255126Y0149715D01*
X0257353Y0151942D01*
X0260692Y0148603D01*
G37*
G36*
X0255681Y0143592D02*
X0253454Y0141365D01*
X0250115Y0144704D01*
X0252342Y0146931D01*
X0255681Y0143592D01*
G37*
X0396230Y0238947D03*
X0403317Y0238947D03*
D20*
X0406742Y0238947D03*
X0400344Y0250266D03*
X0395915Y0247805D03*
X0367372Y0253711D03*
X0350640Y0266506D03*
X0365404Y0282854D03*
X0372885Y0286767D03*
X0379133Y0290389D03*
X0386654Y0295404D03*
X0394154Y0295404D03*
X0393947Y0303907D03*
X0394931Y0318671D03*
X0361467Y0305876D03*
X0349656Y0305876D03*
X0336860Y0303907D03*
X0331939Y0294065D03*
X0340797Y0284222D03*
X0331939Y0273396D03*
X0342274Y0237963D03*
X0352116Y0225659D03*
X0295492Y0238947D03*
X0289094Y0250266D03*
X0284665Y0247805D03*
X0256122Y0253711D03*
X0239390Y0266506D03*
X0220689Y0273396D03*
X0229547Y0284222D03*
X0220689Y0294065D03*
X0225610Y0303907D03*
X0238406Y0305876D03*
X0250217Y0305876D03*
X0261635Y0286767D03*
X0254154Y0282854D03*
X0267883Y0290389D03*
X0275404Y0295404D03*
X0282904Y0295404D03*
X0282697Y0303907D03*
X0283681Y0318671D03*
X0335876Y0351152D03*
X0336860Y0366900D03*
X0225610Y0366900D03*
X0224626Y0351152D03*
X0169931Y0318671D03*
X0168947Y0303907D03*
X0169154Y0295404D03*
X0161654Y0295404D03*
X0154133Y0290389D03*
X0147885Y0286767D03*
X0140404Y0282854D03*
X0125640Y0266506D03*
X0142372Y0253711D03*
X0170915Y0247805D03*
X0175344Y0250266D03*
X0181742Y0238947D03*
X0231024Y0237963D03*
X0240866Y0225659D03*
X0136467Y0305876D03*
X0124656Y0305876D03*
X0111860Y0303907D03*
X0106939Y0294065D03*
X0115797Y0284222D03*
X0106939Y0273396D03*
X0117274Y0237963D03*
X0127116Y0225659D03*
X0110876Y0351152D03*
X0111860Y0366900D03*
D21*
X0106939Y0366900D02*
X0116860Y0366900D01*
X0101654Y0359154D02*
X0101654Y0397904D01*
X0104154Y0397904D01*
X0105404Y0399154D01*
X0107904Y0399154D01*
X0106860Y0303907D02*
X0116781Y0303907D01*
X0110876Y0294065D02*
X0106939Y0294065D01*
X0146304Y0286804D02*
X0148804Y0286804D01*
X0163947Y0303907D02*
X0173868Y0303907D01*
X0220610Y0303907D02*
X0230531Y0303907D01*
X0224626Y0294065D02*
X0220689Y0294065D01*
X0260054Y0286804D02*
X0262554Y0286804D01*
X0277697Y0303907D02*
X0287618Y0303907D01*
X0331860Y0303907D02*
X0341781Y0303907D01*
X0335876Y0294065D02*
X0331939Y0294065D01*
X0371304Y0286804D02*
X0373804Y0286804D01*
X0388947Y0303907D02*
X0398868Y0303907D01*
X0341860Y0366900D02*
X0331939Y0366900D01*
X0230610Y0366900D02*
X0220689Y0366900D01*
D22*
X0221358Y0263041D03*
X0230020Y0263041D03*
X0230020Y0248474D03*
X0221358Y0248474D03*
X0116270Y0248474D03*
X0107608Y0248474D03*
X0107608Y0263041D03*
X0116270Y0263041D03*
X0332608Y0263041D03*
X0341270Y0263041D03*
X0341270Y0248474D03*
X0332608Y0248474D03*
D23*
X0284272Y0238947D03*
X0395522Y0238947D03*
X0170522Y0238947D03*
D24*
X0175344Y0261093D03*
X0127116Y0236486D03*
X0107008Y0312159D03*
X0106808Y0358878D03*
X0173873Y0312237D03*
X0220758Y0312159D03*
X0220558Y0358878D03*
X0287623Y0312237D03*
X0332008Y0312159D03*
X0331808Y0358878D03*
X0398873Y0312237D03*
X0400344Y0261093D03*
X0352116Y0236486D03*
X0289094Y0261093D03*
X0240866Y0236486D03*
D25*
X0191154Y0239154D03*
X0304904Y0239154D03*
X0416154Y0239154D03*
D26*
X0417154Y0249154D03*
X0416154Y0259154D03*
X0417154Y0269154D03*
X0416154Y0279154D03*
X0417154Y0289154D03*
X0416154Y0299154D03*
X0417154Y0309154D03*
X0427404Y0324154D03*
X0428404Y0334154D03*
X0437404Y0334154D03*
X0438404Y0344154D03*
X0427404Y0344154D03*
X0438404Y0324154D03*
X0327154Y0324154D03*
X0326154Y0334154D03*
X0317154Y0334154D03*
X0316154Y0344154D03*
X0327154Y0344154D03*
X0316154Y0324154D03*
X0305904Y0309154D03*
X0304904Y0299154D03*
X0305904Y0289154D03*
X0304904Y0279154D03*
X0305904Y0269154D03*
X0304904Y0259154D03*
X0305904Y0249154D03*
X0213404Y0324154D03*
X0212404Y0334154D03*
X0203404Y0334154D03*
X0202404Y0344154D03*
X0213404Y0344154D03*
X0202404Y0324154D03*
X0192154Y0309154D03*
X0191154Y0299154D03*
X0192154Y0289154D03*
X0191154Y0279154D03*
X0192154Y0269154D03*
X0191154Y0259154D03*
X0192154Y0249154D03*
D27*
X0267904Y0151654D03*
D28*
X0271545Y0152638D03*
X0271545Y0154606D03*
X0271545Y0150669D03*
X0271545Y0148701D03*
X0264262Y0148701D03*
X0264262Y0150669D03*
X0264262Y0152638D03*
X0264262Y0154606D03*
D29*
X0280413Y0154154D03*
X0287894Y0154154D03*
X0247894Y0164154D03*
X0240413Y0164154D03*
D30*
X0246654Y0175413D03*
X0246654Y0182894D03*
X0265404Y0192913D03*
X0265404Y0200394D03*
X0287904Y0145394D03*
X0287904Y0137913D03*
D31*
X0279537Y0192904D03*
X0271270Y0192904D03*
D32*
X0278337Y0176447D03*
X0278337Y0169360D03*
X0257470Y0169360D03*
X0257470Y0176447D03*
D33*
X0256654Y0192392D03*
X0247904Y0192392D03*
X0247904Y0203415D03*
X0256654Y0203415D03*
D34*
X0240404Y0201654D03*
X0240404Y0199154D03*
X0240404Y0196654D03*
X0237904Y0196654D03*
X0237904Y0199154D03*
X0237904Y0201654D03*
X0239154Y0244154D03*
X0239154Y0251654D03*
X0212904Y0244154D03*
X0209154Y0251654D03*
X0197654Y0261654D03*
X0176654Y0294154D03*
X0179154Y0299154D03*
X0180404Y0304154D03*
X0181654Y0307904D03*
X0177499Y0307923D03*
X0175404Y0327904D03*
X0169154Y0336371D03*
X0175982Y0346816D03*
X0176262Y0351760D03*
X0178762Y0351760D03*
X0185404Y0350981D03*
X0185404Y0345404D03*
X0176262Y0369260D03*
X0176513Y0375404D03*
X0175404Y0384154D03*
X0182030Y0388777D03*
X0186262Y0375510D03*
X0209012Y0363010D03*
X0235404Y0377904D03*
X0241654Y0372904D03*
X0245404Y0367904D03*
X0259154Y0370899D03*
X0264154Y0370899D03*
X0275404Y0366654D03*
X0275012Y0358010D03*
X0266228Y0350829D03*
X0254181Y0343399D03*
X0250404Y0343399D03*
X0249154Y0336654D03*
X0242904Y0336654D03*
X0237709Y0333959D03*
X0245404Y0329154D03*
X0245404Y0319154D03*
X0270404Y0329126D03*
X0270404Y0332904D03*
X0289154Y0337621D03*
X0292904Y0334571D03*
X0289732Y0346816D03*
X0292512Y0351760D03*
X0290012Y0369260D03*
X0290263Y0375404D03*
X0300012Y0375510D03*
X0289154Y0384154D03*
X0295780Y0388777D03*
X0322512Y0364260D03*
X0346654Y0377904D03*
X0352904Y0372904D03*
X0356654Y0367904D03*
X0370404Y0370899D03*
X0375404Y0370899D03*
X0386654Y0366654D03*
X0386262Y0358010D03*
X0377478Y0350829D03*
X0369154Y0342904D03*
X0365040Y0342904D03*
X0361262Y0342503D03*
X0355404Y0332904D03*
X0357904Y0329126D03*
X0356654Y0319154D03*
X0381654Y0329126D03*
X0381654Y0332904D03*
X0394154Y0336371D03*
X0400982Y0346816D03*
X0401262Y0351760D03*
X0403762Y0351760D03*
X0401262Y0369260D03*
X0401513Y0375404D03*
X0400404Y0384154D03*
X0407030Y0388777D03*
X0406654Y0399154D03*
X0406654Y0401654D03*
X0414154Y0411654D03*
X0416654Y0411654D03*
X0441654Y0404154D03*
X0444154Y0406654D03*
X0411262Y0375510D03*
X0435012Y0363010D03*
X0407904Y0307904D03*
X0405404Y0304154D03*
X0402499Y0307923D03*
X0404154Y0299154D03*
X0401654Y0294154D03*
X0350404Y0252904D03*
X0350404Y0244154D03*
X0290404Y0294154D03*
X0292904Y0299154D03*
X0294154Y0304154D03*
X0296654Y0307904D03*
X0291249Y0307923D03*
X0304154Y0326654D03*
X0357904Y0384816D03*
X0246654Y0384816D03*
X0227968Y0390051D03*
X0161654Y0366654D03*
X0161262Y0358010D03*
X0152478Y0350829D03*
X0153762Y0343010D03*
X0156654Y0322876D03*
X0134154Y0332904D03*
X0130115Y0332904D03*
X0131654Y0319154D03*
X0127420Y0343871D03*
X0131654Y0367904D03*
X0127904Y0372904D03*
X0121654Y0377904D03*
X0132904Y0384816D03*
X0132904Y0394154D03*
X0130404Y0394154D03*
X0140404Y0402904D03*
X0140404Y0405404D03*
X0107904Y0399154D03*
X0105404Y0399154D03*
X0145404Y0370899D03*
X0150404Y0370899D03*
X0206654Y0307904D03*
X0126654Y0252904D03*
X0126654Y0246654D03*
X0249154Y0142904D03*
X0251654Y0140404D03*
X0286654Y0164154D03*
X0289154Y0164154D03*
X0289154Y0166654D03*
X0289154Y0169154D03*
X0286654Y0169154D03*
X0286654Y0166654D03*
D35*
X0282904Y0166793D02*
X0272904Y0166793D01*
X0272904Y0166654D02*
X0272904Y0171654D01*
X0282904Y0171654D01*
X0282904Y0145954D01*
X0278649Y0145954D01*
X0277204Y0147399D01*
X0277204Y0151149D01*
X0276654Y0151699D01*
X0276654Y0152904D01*
X0275404Y0152904D01*
X0275404Y0164154D01*
X0272904Y0166654D01*
X0272904Y0167792D02*
X0282904Y0167792D01*
X0291654Y0167792D01*
X0291654Y0168790D02*
X0282904Y0168790D01*
X0272904Y0168790D01*
X0272904Y0169789D02*
X0282904Y0169789D01*
X0291654Y0169789D01*
X0291654Y0170787D02*
X0282904Y0170787D01*
X0272904Y0170787D01*
X0272904Y0174154D02*
X0282904Y0174154D01*
X0282904Y0195404D01*
X0276654Y0195404D01*
X0276654Y0191654D01*
X0270904Y0185904D01*
X0243904Y0185904D01*
X0243904Y0180404D01*
X0250154Y0180404D01*
X0250154Y0183654D01*
X0272904Y0183654D01*
X0272904Y0174154D01*
X0272904Y0174781D02*
X0282904Y0174781D01*
X0282904Y0175780D02*
X0272904Y0175780D01*
X0272904Y0176778D02*
X0282904Y0176778D01*
X0282904Y0177777D02*
X0272904Y0177777D01*
X0272904Y0178776D02*
X0282904Y0178776D01*
X0282904Y0179774D02*
X0272904Y0179774D01*
X0272904Y0180773D02*
X0282904Y0180773D01*
X0282904Y0181771D02*
X0272904Y0181771D01*
X0272904Y0182770D02*
X0282904Y0182770D01*
X0282904Y0183768D02*
X0243904Y0183768D01*
X0243904Y0182770D02*
X0250154Y0182770D01*
X0250154Y0181771D02*
X0243904Y0181771D01*
X0243904Y0180773D02*
X0250154Y0180773D01*
X0252904Y0180773D02*
X0270404Y0180773D01*
X0270404Y0181654D02*
X0270404Y0175404D01*
X0262904Y0175404D01*
X0261654Y0174154D01*
X0252904Y0174154D01*
X0252904Y0181654D01*
X0270404Y0181654D01*
X0270404Y0179774D02*
X0252904Y0179774D01*
X0252904Y0178776D02*
X0270404Y0178776D01*
X0270404Y0177777D02*
X0252904Y0177777D01*
X0252904Y0176778D02*
X0270404Y0176778D01*
X0270404Y0175780D02*
X0252904Y0175780D01*
X0252904Y0174781D02*
X0262281Y0174781D01*
X0261654Y0171654D02*
X0261654Y0155904D01*
X0265154Y0155904D01*
X0265154Y0152504D01*
X0260404Y0152504D01*
X0253754Y0159154D01*
X0252904Y0159154D01*
X0252904Y0168404D01*
X0250994Y0168404D01*
X0250991Y0168406D01*
X0244796Y0168406D01*
X0244793Y0168404D01*
X0243654Y0168404D01*
X0242904Y0169154D01*
X0242904Y0177904D01*
X0250404Y0177904D01*
X0250404Y0171654D01*
X0261654Y0171654D01*
X0261654Y0170787D02*
X0242904Y0170787D01*
X0242904Y0169789D02*
X0261654Y0169789D01*
X0261654Y0168790D02*
X0243267Y0168790D01*
X0242904Y0171786D02*
X0250404Y0171786D01*
X0250404Y0172784D02*
X0242904Y0172784D01*
X0242904Y0173783D02*
X0250404Y0173783D01*
X0250404Y0174781D02*
X0242904Y0174781D01*
X0242904Y0175780D02*
X0250404Y0175780D01*
X0250404Y0176778D02*
X0242904Y0176778D01*
X0242904Y0177777D02*
X0250404Y0177777D01*
X0243904Y0184767D02*
X0282904Y0184767D01*
X0282904Y0185765D02*
X0243904Y0185765D01*
X0244154Y0187904D02*
X0244154Y0195404D01*
X0274154Y0195404D01*
X0274154Y0192904D01*
X0269154Y0187904D01*
X0244154Y0187904D01*
X0244154Y0188761D02*
X0270011Y0188761D01*
X0271009Y0189759D02*
X0244154Y0189759D01*
X0244154Y0190758D02*
X0272008Y0190758D01*
X0273006Y0191756D02*
X0244154Y0191756D01*
X0244154Y0192755D02*
X0274005Y0192755D01*
X0274154Y0193753D02*
X0244154Y0193753D01*
X0244154Y0194752D02*
X0274154Y0194752D01*
X0276654Y0194752D02*
X0282904Y0194752D01*
X0282904Y0193753D02*
X0276654Y0193753D01*
X0276654Y0192755D02*
X0282904Y0192755D01*
X0282904Y0191756D02*
X0276654Y0191756D01*
X0275758Y0190758D02*
X0282904Y0190758D01*
X0282904Y0189759D02*
X0274759Y0189759D01*
X0273761Y0188761D02*
X0282904Y0188761D01*
X0282904Y0187762D02*
X0272762Y0187762D01*
X0271764Y0186764D02*
X0282904Y0186764D01*
X0274154Y0197904D02*
X0244154Y0197904D01*
X0244154Y0207904D01*
X0274154Y0207904D01*
X0274154Y0197904D01*
X0274154Y0198746D02*
X0244154Y0198746D01*
X0244154Y0199744D02*
X0274154Y0199744D01*
X0274154Y0200743D02*
X0244154Y0200743D01*
X0244154Y0201741D02*
X0274154Y0201741D01*
X0274154Y0202740D02*
X0244154Y0202740D01*
X0244154Y0203738D02*
X0274154Y0203738D01*
X0274154Y0204737D02*
X0244154Y0204737D01*
X0244154Y0205735D02*
X0274154Y0205735D01*
X0274154Y0206734D02*
X0244154Y0206734D01*
X0244154Y0207732D02*
X0274154Y0207732D01*
X0284154Y0232904D02*
X0395404Y0232904D01*
X0395404Y0235285D01*
X0395522Y0235403D01*
X0395522Y0238947D01*
X0400344Y0261093D02*
X0397283Y0264154D01*
X0381654Y0264154D01*
X0374154Y0256654D01*
X0374154Y0249154D01*
X0366154Y0241154D01*
X0358404Y0241154D01*
X0357904Y0240654D01*
X0357904Y0240404D01*
X0353986Y0236486D01*
X0352116Y0236486D01*
X0350404Y0244154D02*
X0352638Y0246388D01*
X0359104Y0246388D01*
X0359104Y0248947D02*
X0354360Y0248947D01*
X0350404Y0252904D01*
X0400404Y0269154D02*
X0407904Y0269154D01*
X0407904Y0302709D01*
X0410693Y0305498D01*
X0410693Y0308193D01*
X0411654Y0309154D01*
X0411654Y0310404D01*
X0410404Y0311654D01*
X0402530Y0311654D01*
X0402530Y0307955D01*
X0402499Y0307923D01*
X0402530Y0311654D02*
X0399456Y0311654D01*
X0398873Y0312237D01*
X0393481Y0315171D02*
X0418421Y0315171D01*
X0427404Y0324154D01*
X0425279Y0331029D02*
X0412279Y0331029D01*
X0406551Y0336756D01*
X0406551Y0352915D01*
X0404918Y0354549D01*
X0385142Y0354549D01*
X0378633Y0348040D01*
X0376323Y0348040D01*
X0374262Y0350101D01*
X0374262Y0357451D01*
X0376230Y0357451D02*
X0376230Y0365072D01*
X0370404Y0370899D01*
X0367301Y0374756D02*
X0367301Y0362256D01*
X0367755Y0361802D01*
X0370176Y0361802D01*
X0370325Y0361654D01*
X0370325Y0357451D01*
X0372293Y0357451D02*
X0372293Y0318514D01*
X0372904Y0317904D01*
X0390749Y0317904D01*
X0393481Y0315171D01*
X0381654Y0329126D02*
X0380665Y0330115D01*
X0380498Y0330115D01*
X0375973Y0334640D01*
X0375973Y0345037D01*
X0377166Y0346230D01*
X0387451Y0346230D01*
X0387451Y0344262D02*
X0383012Y0344262D01*
X0381654Y0342904D01*
X0381654Y0332904D01*
X0387451Y0336388D02*
X0387468Y0336371D01*
X0394154Y0336371D01*
X0400982Y0346816D02*
X0397631Y0350167D01*
X0387451Y0350167D01*
X0380167Y0353518D02*
X0380167Y0357451D01*
X0378199Y0357451D02*
X0378199Y0368104D01*
X0375404Y0370899D01*
X0369899Y0377354D02*
X0367301Y0374756D01*
X0364419Y0374419D02*
X0369154Y0379154D01*
X0412619Y0379154D01*
X0416262Y0375510D01*
X0417508Y0378299D02*
X0407030Y0388777D01*
X0417508Y0378299D02*
X0418290Y0378299D01*
X0419051Y0377537D01*
X0419051Y0352506D01*
X0426122Y0352506D01*
X0432404Y0346225D01*
X0432404Y0339154D01*
X0437404Y0334154D01*
X0428404Y0334154D02*
X0425279Y0331029D01*
X0386654Y0366654D02*
X0386654Y0376654D01*
X0385954Y0377354D01*
X0369899Y0377354D01*
X0364419Y0374419D02*
X0364419Y0357451D01*
X0364419Y0360864D01*
X0362451Y0362106D02*
X0362451Y0357451D01*
X0360482Y0357451D02*
X0360482Y0361529D01*
X0356897Y0365115D01*
X0355498Y0365115D01*
X0353865Y0366748D01*
X0353865Y0371943D01*
X0352904Y0372904D01*
X0356654Y0367904D02*
X0362451Y0362106D01*
X0358514Y0357451D02*
X0358514Y0353828D01*
X0358473Y0353787D01*
X0358473Y0329695D01*
X0357904Y0329126D01*
X0355404Y0332904D02*
X0356545Y0334045D01*
X0356545Y0357451D01*
X0377478Y0350829D02*
X0380167Y0353518D01*
X0356654Y0319154D02*
X0349154Y0319154D01*
X0347904Y0317904D01*
X0347904Y0312904D01*
X0350404Y0312904D01*
X0347904Y0312904D02*
X0332753Y0312904D01*
X0332008Y0312159D01*
X0332008Y0314466D01*
X0332008Y0358678D01*
X0331808Y0358878D01*
X0331532Y0359154D01*
X0326551Y0360037D02*
X0325118Y0361471D01*
X0321357Y0361471D01*
X0317801Y0365027D01*
X0317801Y0370037D01*
X0309540Y0378299D01*
X0306258Y0378299D01*
X0295780Y0388777D01*
X0301369Y0379154D02*
X0257904Y0379154D01*
X0253169Y0374419D01*
X0253169Y0357451D01*
X0253169Y0360864D01*
X0251201Y0362106D02*
X0251201Y0357451D01*
X0249232Y0357451D02*
X0249232Y0361529D01*
X0245647Y0365115D01*
X0244248Y0365115D01*
X0242615Y0366748D01*
X0242615Y0371943D01*
X0241654Y0372904D01*
X0238865Y0374059D02*
X0238865Y0367953D01*
X0243503Y0363315D01*
X0244901Y0363315D01*
X0247264Y0360952D01*
X0247264Y0356654D01*
X0247264Y0353828D01*
X0247223Y0353787D01*
X0247223Y0338584D01*
X0249154Y0336654D01*
X0245295Y0339045D02*
X0242904Y0336654D01*
X0242904Y0331654D01*
X0245404Y0329154D01*
X0245295Y0339045D02*
X0245295Y0357451D01*
X0247264Y0357451D02*
X0247264Y0356654D01*
X0251201Y0362106D02*
X0245404Y0367904D01*
X0238865Y0374059D02*
X0245759Y0380954D01*
X0257904Y0380954D01*
X0257904Y0398415D01*
X0258649Y0377354D02*
X0256051Y0374756D01*
X0256051Y0362256D01*
X0256505Y0361802D01*
X0258926Y0361802D01*
X0259075Y0361654D01*
X0259075Y0357451D01*
X0261043Y0357451D02*
X0261043Y0318514D01*
X0261654Y0317904D01*
X0279499Y0317904D01*
X0282231Y0315171D01*
X0307171Y0315171D01*
X0316154Y0324154D01*
X0314029Y0331029D02*
X0301029Y0331029D01*
X0295301Y0336756D01*
X0295301Y0352915D01*
X0293668Y0354549D01*
X0273892Y0354549D01*
X0267383Y0348040D01*
X0265073Y0348040D01*
X0263012Y0350101D01*
X0263012Y0357451D01*
X0264980Y0357451D02*
X0264980Y0365072D01*
X0259154Y0370899D01*
X0264154Y0370899D02*
X0266949Y0368104D01*
X0266949Y0357451D01*
X0268917Y0357451D02*
X0268917Y0353518D01*
X0266228Y0350829D01*
X0265916Y0346230D02*
X0264723Y0345037D01*
X0264723Y0334640D01*
X0269248Y0330115D01*
X0269415Y0330115D01*
X0270404Y0329126D01*
X0270404Y0332904D02*
X0270404Y0342904D01*
X0271762Y0344262D01*
X0276201Y0344262D01*
X0276201Y0346230D02*
X0265916Y0346230D01*
X0276201Y0350167D02*
X0286381Y0350167D01*
X0289732Y0346816D01*
X0289154Y0337621D02*
X0287920Y0336388D01*
X0276201Y0336388D01*
X0276218Y0336371D01*
X0292904Y0334571D02*
X0294940Y0334571D01*
X0300283Y0329229D01*
X0301579Y0329229D01*
X0304154Y0326654D01*
X0314029Y0331029D02*
X0317154Y0334154D01*
X0326154Y0334154D02*
X0326154Y0338082D01*
X0322154Y0342082D01*
X0322154Y0351585D01*
X0326551Y0355983D01*
X0326551Y0360037D01*
X0305012Y0375510D02*
X0301369Y0379154D01*
X0275404Y0376654D02*
X0275404Y0366654D01*
X0275404Y0376654D02*
X0274704Y0377354D01*
X0258649Y0377354D01*
X0220758Y0358678D02*
X0220758Y0314466D01*
X0208216Y0314466D01*
X0197904Y0304154D01*
X0187037Y0304154D01*
X0185693Y0305498D01*
X0182904Y0302709D01*
X0182904Y0269154D01*
X0175404Y0269154D01*
X0172283Y0264154D02*
X0175344Y0261093D01*
X0172283Y0264154D02*
X0156654Y0264154D01*
X0149154Y0256654D01*
X0149154Y0249154D01*
X0141154Y0241154D01*
X0133404Y0241154D01*
X0132904Y0240654D01*
X0132904Y0240404D01*
X0128986Y0236486D01*
X0127116Y0236486D01*
X0126654Y0246654D02*
X0133839Y0246654D01*
X0134104Y0246388D01*
X0134104Y0248947D02*
X0133633Y0249419D01*
X0130121Y0249419D01*
X0129359Y0250180D01*
X0129359Y0250198D01*
X0126654Y0252904D01*
X0170404Y0238829D02*
X0170404Y0232904D01*
X0284154Y0232904D01*
X0284154Y0235285D01*
X0284272Y0235403D01*
X0284272Y0238947D01*
X0289094Y0261093D02*
X0286033Y0264154D01*
X0270404Y0264154D01*
X0262904Y0256654D01*
X0262904Y0249154D01*
X0254904Y0241154D01*
X0247154Y0241154D01*
X0246654Y0240654D01*
X0246654Y0240404D01*
X0242736Y0236486D01*
X0240866Y0236486D01*
X0239154Y0244154D02*
X0241388Y0246388D01*
X0247854Y0246388D01*
X0247854Y0248947D02*
X0241860Y0248947D01*
X0239154Y0251654D01*
X0235404Y0204154D02*
X0242904Y0204154D01*
X0242904Y0195404D01*
X0235404Y0195404D01*
X0235404Y0204154D01*
X0235404Y0203738D02*
X0242904Y0203738D01*
X0242904Y0202740D02*
X0235404Y0202740D01*
X0235404Y0201741D02*
X0242904Y0201741D01*
X0242904Y0200743D02*
X0235404Y0200743D01*
X0235404Y0199744D02*
X0242904Y0199744D01*
X0242904Y0198746D02*
X0235404Y0198746D01*
X0235404Y0197747D02*
X0242904Y0197747D01*
X0242904Y0196749D02*
X0235404Y0196749D01*
X0235404Y0195750D02*
X0242904Y0195750D01*
X0246142Y0192392D02*
X0240404Y0186654D01*
X0240404Y0164163D01*
X0240413Y0164154D01*
X0240404Y0164144D01*
X0240404Y0156654D01*
X0247898Y0149159D01*
X0247898Y0149148D01*
X0252909Y0154159D02*
X0247894Y0159174D01*
X0247894Y0164154D01*
X0252904Y0163798D02*
X0261654Y0163798D01*
X0261654Y0164796D02*
X0252904Y0164796D01*
X0252904Y0165795D02*
X0261654Y0165795D01*
X0261654Y0166793D02*
X0252904Y0166793D01*
X0252904Y0167792D02*
X0261654Y0167792D01*
X0261654Y0162799D02*
X0252904Y0162799D01*
X0252904Y0161801D02*
X0261654Y0161801D01*
X0261654Y0160802D02*
X0252904Y0160802D01*
X0252904Y0159804D02*
X0261654Y0159804D01*
X0261654Y0158805D02*
X0254102Y0158805D01*
X0255100Y0157807D02*
X0261654Y0157807D01*
X0261654Y0156808D02*
X0256099Y0156808D01*
X0257097Y0155810D02*
X0265154Y0155810D01*
X0265154Y0154811D02*
X0258096Y0154811D01*
X0259094Y0153813D02*
X0265154Y0153813D01*
X0265154Y0152814D02*
X0260093Y0152814D01*
X0257909Y0149159D02*
X0252909Y0154159D01*
X0257909Y0149159D02*
X0258367Y0148701D01*
X0264262Y0148701D01*
X0265659Y0146909D02*
X0266178Y0146909D01*
X0266940Y0147670D01*
X0266940Y0148190D01*
X0267154Y0148404D01*
X0267154Y0157904D01*
X0264154Y0157904D01*
X0264154Y0162904D01*
X0271654Y0162904D01*
X0271654Y0157904D01*
X0272904Y0156654D01*
X0272904Y0154438D01*
X0270800Y0154438D01*
X0270792Y0154430D01*
X0269629Y0154430D01*
X0269602Y0154404D01*
X0268904Y0154404D01*
X0268904Y0153705D01*
X0268867Y0153668D01*
X0268867Y0147670D01*
X0269629Y0146909D01*
X0269998Y0146909D01*
X0271654Y0145404D01*
X0271654Y0140404D01*
X0264154Y0140404D01*
X0264154Y0145404D01*
X0265659Y0146909D01*
X0265573Y0146823D02*
X0270092Y0146823D01*
X0271190Y0145825D02*
X0264575Y0145825D01*
X0264154Y0144826D02*
X0271654Y0144826D01*
X0271654Y0143828D02*
X0264154Y0143828D01*
X0264154Y0142829D02*
X0271654Y0142829D01*
X0271654Y0141831D02*
X0264154Y0141831D01*
X0264154Y0140832D02*
X0271654Y0140832D01*
X0273604Y0144704D02*
X0277697Y0140610D01*
X0280404Y0140610D01*
X0277904Y0144154D02*
X0286663Y0144154D01*
X0287904Y0145394D01*
X0282904Y0146823D02*
X0277780Y0146823D01*
X0277204Y0147822D02*
X0282904Y0147822D01*
X0282904Y0148820D02*
X0277204Y0148820D01*
X0277204Y0149819D02*
X0282904Y0149819D01*
X0282904Y0150817D02*
X0277204Y0150817D01*
X0276654Y0151816D02*
X0282904Y0151816D01*
X0282904Y0152814D02*
X0276654Y0152814D01*
X0275404Y0153813D02*
X0282904Y0153813D01*
X0282904Y0154811D02*
X0275404Y0154811D01*
X0275404Y0155810D02*
X0282904Y0155810D01*
X0282904Y0156808D02*
X0275404Y0156808D01*
X0275404Y0157807D02*
X0282904Y0157807D01*
X0282904Y0158805D02*
X0275404Y0158805D01*
X0275404Y0159804D02*
X0282904Y0159804D01*
X0282904Y0160802D02*
X0275404Y0160802D01*
X0275404Y0161801D02*
X0282904Y0161801D01*
X0291654Y0161801D01*
X0291654Y0161654D02*
X0282904Y0161654D01*
X0282904Y0171654D01*
X0291654Y0171654D01*
X0291654Y0161654D01*
X0291654Y0162799D02*
X0282904Y0162799D01*
X0275404Y0162799D01*
X0275404Y0163798D02*
X0282904Y0163798D01*
X0291654Y0163798D01*
X0291654Y0164796D02*
X0282904Y0164796D01*
X0274761Y0164796D01*
X0273762Y0165795D02*
X0282904Y0165795D01*
X0291654Y0165795D01*
X0291654Y0166793D02*
X0282904Y0166793D01*
X0271654Y0162799D02*
X0264154Y0162799D01*
X0264154Y0161801D02*
X0271654Y0161801D01*
X0271654Y0160802D02*
X0264154Y0160802D01*
X0264154Y0159804D02*
X0271654Y0159804D01*
X0271654Y0158805D02*
X0264154Y0158805D01*
X0267154Y0157807D02*
X0271750Y0157807D01*
X0272749Y0156808D02*
X0267154Y0156808D01*
X0267154Y0155810D02*
X0272904Y0155810D01*
X0272904Y0154811D02*
X0267154Y0154811D01*
X0267154Y0153813D02*
X0268904Y0153813D01*
X0268867Y0152814D02*
X0267154Y0152814D01*
X0267154Y0151816D02*
X0268867Y0151816D01*
X0268867Y0150817D02*
X0267154Y0150817D01*
X0267154Y0149819D02*
X0268867Y0149819D01*
X0268867Y0148820D02*
X0267154Y0148820D01*
X0266940Y0147822D02*
X0268867Y0147822D01*
X0271545Y0148701D02*
X0273604Y0148701D01*
X0273604Y0144704D01*
X0275404Y0146654D02*
X0275404Y0150404D01*
X0275138Y0150669D01*
X0271545Y0150669D01*
X0271545Y0152638D02*
X0278898Y0152638D01*
X0280413Y0154154D01*
X0287894Y0154154D02*
X0289144Y0155404D01*
X0291654Y0155404D01*
X0290404Y0154154D02*
X0287894Y0154154D01*
X0290404Y0154154D02*
X0291654Y0152904D01*
X0287904Y0137913D02*
X0287904Y0137904D01*
X0286654Y0136654D01*
X0286654Y0134154D01*
X0287904Y0135404D02*
X0287904Y0137904D01*
X0287904Y0135404D02*
X0289154Y0134154D01*
X0277904Y0144154D02*
X0275404Y0146654D01*
X0247904Y0192392D02*
X0246142Y0192392D01*
X0289154Y0269154D02*
X0296654Y0269154D01*
X0296654Y0302709D01*
X0299443Y0305498D01*
X0300787Y0304154D01*
X0309154Y0304154D01*
X0319466Y0314466D01*
X0332008Y0314466D01*
X0300404Y0310404D02*
X0300404Y0309154D01*
X0299443Y0308193D01*
X0299443Y0305498D01*
X0300404Y0310404D02*
X0299154Y0311654D01*
X0291280Y0311654D01*
X0291280Y0307955D01*
X0291249Y0307923D01*
X0291280Y0311654D02*
X0288206Y0311654D01*
X0287623Y0312237D01*
X0245404Y0319154D02*
X0237904Y0319154D01*
X0236654Y0317904D01*
X0236654Y0312904D01*
X0239154Y0312904D01*
X0236654Y0312904D02*
X0221503Y0312904D01*
X0220758Y0312159D01*
X0220758Y0314466D01*
X0202404Y0324154D02*
X0193421Y0315171D01*
X0168481Y0315171D01*
X0165749Y0317904D01*
X0147904Y0317904D01*
X0147293Y0318514D01*
X0147293Y0357451D01*
X0145325Y0357451D02*
X0145325Y0361654D01*
X0145176Y0361802D01*
X0142755Y0361802D01*
X0142301Y0362256D01*
X0142301Y0374756D01*
X0144899Y0377354D01*
X0160954Y0377354D01*
X0161654Y0376654D01*
X0161654Y0366654D01*
X0153199Y0368104D02*
X0153199Y0357451D01*
X0155167Y0357451D02*
X0155167Y0353518D01*
X0152478Y0350829D01*
X0151323Y0348040D02*
X0149262Y0350101D01*
X0149262Y0357451D01*
X0151230Y0357451D02*
X0151230Y0365072D01*
X0145404Y0370899D01*
X0150404Y0370899D02*
X0153199Y0368104D01*
X0144154Y0379154D02*
X0187619Y0379154D01*
X0191262Y0375510D01*
X0192508Y0378299D02*
X0195790Y0378299D01*
X0204051Y0370037D01*
X0204051Y0364027D01*
X0207857Y0360221D01*
X0211618Y0360221D01*
X0213051Y0358787D01*
X0213051Y0354733D01*
X0208404Y0350085D01*
X0208404Y0342082D01*
X0212404Y0338082D01*
X0212404Y0334154D01*
X0203404Y0334154D02*
X0200279Y0331029D01*
X0187279Y0331029D01*
X0181551Y0336756D01*
X0181551Y0352915D01*
X0179918Y0354549D01*
X0160142Y0354549D01*
X0153633Y0348040D01*
X0151323Y0348040D01*
X0152166Y0346230D02*
X0150973Y0345037D01*
X0150973Y0328390D01*
X0155498Y0323865D01*
X0155665Y0323865D01*
X0156654Y0322876D01*
X0162468Y0336371D02*
X0162451Y0336388D01*
X0162468Y0336371D02*
X0169154Y0336371D01*
X0175404Y0339154D02*
X0170295Y0344262D01*
X0162451Y0344262D01*
X0162451Y0346230D02*
X0152166Y0346230D01*
X0162451Y0350167D02*
X0172631Y0350167D01*
X0175982Y0346816D01*
X0175404Y0339154D02*
X0175404Y0327904D01*
X0173873Y0312237D02*
X0174456Y0311654D01*
X0177530Y0311654D01*
X0177530Y0307955D01*
X0177499Y0307923D01*
X0177530Y0311654D02*
X0185404Y0311654D01*
X0186654Y0310404D01*
X0186654Y0309154D01*
X0185693Y0308193D01*
X0185693Y0305498D01*
X0131654Y0319154D02*
X0124154Y0319154D01*
X0122904Y0317904D01*
X0122904Y0312904D01*
X0125404Y0312904D01*
X0122904Y0312904D02*
X0107753Y0312904D01*
X0107008Y0312159D01*
X0107008Y0358678D01*
X0106808Y0358878D01*
X0106532Y0359154D01*
X0101654Y0359154D01*
X0128865Y0366748D02*
X0130498Y0365115D01*
X0131897Y0365115D01*
X0135482Y0361529D01*
X0135482Y0357451D01*
X0133514Y0357451D02*
X0133454Y0357391D01*
X0133454Y0335908D01*
X0134154Y0335208D01*
X0134154Y0332904D01*
X0130115Y0332904D02*
X0130115Y0335115D01*
X0131654Y0336654D01*
X0131654Y0357343D01*
X0131545Y0357451D01*
X0137451Y0357451D02*
X0137451Y0362106D01*
X0131654Y0367904D01*
X0128865Y0366748D02*
X0128865Y0371943D01*
X0127904Y0372904D01*
X0139419Y0374419D02*
X0139419Y0357451D01*
X0139419Y0360864D01*
X0139419Y0374419D02*
X0144154Y0379154D01*
X0182030Y0388777D02*
X0192508Y0378299D01*
X0220282Y0359154D02*
X0220558Y0358878D01*
X0220758Y0358678D01*
X0170522Y0238947D02*
X0170404Y0238829D01*
D36*
X0141654Y0325404D03*
X0138762Y0351760D03*
X0136262Y0351760D03*
X0127420Y0350266D03*
X0166262Y0365510D03*
X0166262Y0368010D03*
X0166262Y0370510D03*
X0166262Y0373010D03*
X0166262Y0375510D03*
X0168762Y0375510D03*
X0168762Y0373010D03*
X0168762Y0370510D03*
X0168762Y0368010D03*
X0168762Y0365510D03*
X0171262Y0365510D03*
X0171262Y0368010D03*
X0171262Y0370510D03*
X0171262Y0373010D03*
X0171262Y0375510D03*
X0191262Y0375510D03*
X0201262Y0368010D03*
X0201262Y0365510D03*
X0202512Y0358010D03*
X0202512Y0355510D03*
X0207762Y0356760D03*
X0210262Y0356760D03*
X0192512Y0335510D03*
X0190012Y0335510D03*
X0203762Y0384260D03*
X0203762Y0386760D03*
X0241170Y0350266D03*
X0250012Y0351760D03*
X0252512Y0351760D03*
X0241170Y0343254D03*
X0254154Y0329815D03*
X0267512Y0343010D03*
X0280012Y0365510D03*
X0280012Y0368010D03*
X0280012Y0370510D03*
X0280012Y0373010D03*
X0280012Y0375510D03*
X0282512Y0375510D03*
X0282512Y0373010D03*
X0282512Y0370510D03*
X0282512Y0368010D03*
X0282512Y0365510D03*
X0285012Y0365510D03*
X0285012Y0368010D03*
X0285012Y0370510D03*
X0285012Y0373010D03*
X0285012Y0375510D03*
X0305012Y0375510D03*
X0315012Y0368010D03*
X0315012Y0365510D03*
X0316262Y0358010D03*
X0316262Y0355510D03*
X0321262Y0358010D03*
X0323762Y0358010D03*
X0331262Y0378010D03*
X0333762Y0378010D03*
X0317512Y0384260D03*
X0317512Y0386760D03*
X0352420Y0350266D03*
X0361262Y0351760D03*
X0363762Y0351760D03*
X0352420Y0339504D03*
X0365404Y0319313D03*
X0378762Y0343010D03*
X0391262Y0365510D03*
X0391262Y0368010D03*
X0391262Y0370510D03*
X0391262Y0373010D03*
X0391262Y0375510D03*
X0393762Y0375510D03*
X0393762Y0373010D03*
X0393762Y0370510D03*
X0393762Y0368010D03*
X0393762Y0365510D03*
X0396262Y0365510D03*
X0396262Y0368010D03*
X0396262Y0370510D03*
X0396262Y0373010D03*
X0396262Y0375510D03*
X0377512Y0388010D03*
X0377512Y0390510D03*
X0408262Y0420010D03*
X0410762Y0420010D03*
X0433762Y0397760D03*
X0436262Y0397760D03*
X0428762Y0386760D03*
X0428762Y0384260D03*
X0416262Y0375510D03*
X0426262Y0368010D03*
X0426262Y0365510D03*
X0427512Y0358010D03*
X0427512Y0355510D03*
X0433762Y0356760D03*
X0436262Y0356760D03*
X0417512Y0335510D03*
X0415012Y0335510D03*
X0306262Y0335510D03*
X0303762Y0335510D03*
X0263762Y0387510D03*
X0263762Y0390010D03*
X0150012Y0390510D03*
X0150012Y0388010D03*
X0138012Y0423260D03*
X0135512Y0423260D03*
X0113262Y0409510D03*
X0110762Y0409510D03*
X0262904Y0206654D03*
X0265404Y0206654D03*
X0267904Y0206654D03*
X0270404Y0206654D03*
X0272904Y0206654D03*
X0272904Y0204154D03*
X0272904Y0201654D03*
X0272904Y0199154D03*
X0270404Y0199154D03*
X0270404Y0201654D03*
X0270404Y0204154D03*
X0269154Y0180404D03*
X0269154Y0177904D03*
X0266654Y0177904D03*
X0266654Y0180404D03*
X0264154Y0180404D03*
X0264154Y0177904D03*
X0261654Y0180404D03*
X0259154Y0180404D03*
X0256654Y0180404D03*
X0265404Y0161654D03*
X0267904Y0161654D03*
X0270404Y0161654D03*
X0270404Y0159154D03*
X0267904Y0159154D03*
X0265404Y0159154D03*
X0265404Y0144154D03*
X0267904Y0144154D03*
X0270404Y0144154D03*
X0270404Y0141654D03*
X0267904Y0141654D03*
X0265404Y0141654D03*
X0286654Y0134154D03*
X0289154Y0134154D03*
X0291654Y0152904D03*
X0291654Y0155404D03*
D37*
X0252898Y0144148D02*
X0251654Y0142904D01*
D38*
X0249154Y0142904D01*
X0251654Y0140404D01*
X0251654Y0142904D01*
X0251654Y0142904D01*
D39*
X0395404Y0232904D02*
X0431654Y0232904D01*
X0439154Y0240404D01*
X0439154Y0317408D01*
X0443704Y0321958D01*
X0443704Y0346349D01*
X0439154Y0350899D01*
X0439154Y0354411D01*
X0439351Y0354608D01*
X0439351Y0401851D01*
X0444154Y0406654D01*
D40*
X0237904Y0201654D02*
X0237904Y0199154D01*
D41*
X0237904Y0201654D02*
X0237904Y0194154D01*
X0239665Y0192392D01*
X0253642Y0192392D01*
X0254154Y0192904D01*
X0256142Y0192904D01*
X0256654Y0192392D01*
X0241654Y0192392D02*
X0240404Y0193642D01*
X0240404Y0201654D01*
M02*
