%
M48
M72
T01C0.01378
T02C0.02400
T03C0.03750
T04C0.04000
T05C0.09409
T06C0.11417
%
T01
X237904Y196654
X237904Y199154
X237904Y201654
X240404Y201654
X240404Y199154
X240404Y196654
X256654Y180404
X259154Y180404
X261654Y180404
X264154Y180404
X266654Y180404
X269154Y180404
X269154Y177904
X266654Y177904
X264154Y177904
X265404Y161654
X267904Y161654
X270404Y161654
X270404Y159154
X267904Y159154
X265404Y159154
X265404Y144154
X267904Y144154
X270404Y144154
X270404Y141654
X267904Y141654
X265404Y141654
X251654Y140404
X249154Y142904
X286654Y134154
X289154Y134154
X291654Y152904
X291654Y155404
X289154Y164154
X289154Y166654
X289154Y169154
X286654Y169154
X286654Y166654
X286654Y164154
X272904Y199154
X272904Y201654
X272904Y204154
X272904Y206654
X270404Y206654
X267904Y206654
X265404Y206654
X262904Y206654
X270404Y204154
X270404Y201654
X270404Y199154
X239154Y244154
X239154Y251654
X212904Y244154
X209154Y251654
X197654Y261654
X176654Y294154
X179154Y299154
X180404Y304154
X181654Y307904
X177499Y307923
X175404Y327904
X169154Y336371
X175982Y346816
X176262Y351760
X178762Y351760
X185404Y350981
X185404Y345404
X190012Y335510
X192512Y335510
X202512Y355510
X202512Y358010
X207762Y356760
X210262Y356760
X209012Y363010
X201262Y365510
X201262Y368010
X191262Y375510
X186262Y375510
X176513Y375404
X171262Y375510
X168762Y375510
X166262Y375510
X166262Y373010
X166262Y370510
X166262Y368010
X166262Y365510
X168762Y365510
X168762Y368010
X168762Y370510
X168762Y373010
X171262Y373010
X171262Y370510
X171262Y368010
X171262Y365510
X176262Y369260
X161654Y366654
X161262Y358010
X152478Y350829
X153762Y343010
X138762Y351760
X136262Y351760
X127420Y350266
X127420Y343871
X130115Y332904
X134154Y332904
X141654Y325404
X131654Y319154
X156654Y322876
X150404Y370899
X145404Y370899
X131654Y367904
X127904Y372904
X121654Y377904
X132904Y384816
X132904Y394154
X130404Y394154
X140404Y402904
X140404Y405404
X150012Y390510
X150012Y388010
X175404Y384154
X182030Y388777
X203762Y386760
X203762Y384260
X227968Y390051
X235404Y377904
X241654Y372904
X245404Y367904
X259154Y370899
X264154Y370899
X275404Y366654
X280012Y365510
X280012Y368010
X280012Y370510
X280012Y373010
X280012Y375510
X282512Y375510
X282512Y373010
X282512Y370510
X282512Y368010
X282512Y365510
X285012Y365510
X285012Y368010
X285012Y370510
X285012Y373010
X285012Y375510
X290263Y375404
X290012Y369260
X300012Y375510
X305012Y375510
X315012Y368010
X315012Y365510
X316262Y358010
X316262Y355510
X321262Y358010
X323762Y358010
X322512Y364260
X331262Y378010
X333762Y378010
X346654Y377904
X352904Y372904
X356654Y367904
X370404Y370899
X375404Y370899
X386654Y366654
X391262Y365510
X391262Y368010
X391262Y370510
X391262Y373010
X391262Y375510
X393762Y375510
X393762Y373010
X393762Y370510
X393762Y368010
X393762Y365510
X396262Y365510
X396262Y368010
X396262Y370510
X396262Y373010
X396262Y375510
X401513Y375404
X401262Y369260
X411262Y375510
X416262Y375510
X426262Y368010
X426262Y365510
X427512Y358010
X427512Y355510
X433762Y356760
X436262Y356760
X435012Y363010
X428762Y384260
X428762Y386760
X433762Y397760
X436262Y397760
X441654Y404154
X444154Y406654
X416654Y411654
X414154Y411654
X410762Y420010
X408262Y420010
X406654Y401654
X406654Y399154
X407030Y388777
X400404Y384154
X377512Y388010
X377512Y390510
X357904Y384816
X386262Y358010
X377478Y350829
X378762Y343010
X369154Y342904
X365040Y342904
X361262Y342503
X361262Y351760
X363762Y351760
X352420Y350266
X352420Y339504
X355404Y332904
X357904Y329126
X356654Y319154
X365404Y319313
X381654Y329126
X381654Y332904
X394154Y336371
X400982Y346816
X401262Y351760
X403762Y351760
X415012Y335510
X417512Y335510
X407904Y307904
X405404Y304154
X402499Y307923
X404154Y299154
X401654Y294154
X350404Y252904
X350404Y244154
X290404Y294154
X292904Y299154
X294154Y304154
X296654Y307904
X291249Y307923
X304154Y326654
X303762Y335510
X306262Y335510
X292904Y334571
X289154Y337621
X289732Y346816
X292512Y351760
X275012Y358010
X266228Y350829
X267512Y343010
X270404Y332904
X270404Y329126
X254154Y329815
X249154Y336654
X242904Y336654
X237709Y333959
X245404Y329154
X245404Y319154
X241170Y343254
X250404Y343399
X254181Y343399
X252512Y351760
X250012Y351760
X241170Y350266
X246654Y384816
X263762Y387510
X263762Y390010
X289154Y384154
X295780Y388777
X317512Y386760
X317512Y384260
X206654Y307904
X126654Y252904
X126654Y246654
X107904Y399154
X105404Y399154
X110762Y409510
X113262Y409510
X135512Y423260
X138012Y423260
T02
X111860Y366900
X110876Y351152
X124656Y305876
X111860Y303907
X106939Y294065
X115797Y284222
X106939Y273396
X125640Y266506
X142372Y253711
X170915Y247805
X175344Y250266
X181742Y238947
X220689Y273396
X229547Y284222
X220689Y294065
X225610Y303907
X238406Y305876
X250217Y305876
X261635Y286767
X254154Y282854
X267883Y290389
X275404Y295404
X282904Y295404
X282697Y303907
X283681Y318671
X331939Y294065
X336860Y303907
X349656Y305876
X361467Y305876
X379133Y290389
X372885Y286767
X365404Y282854
X350640Y266506
X367372Y253711
X395915Y247805
X400344Y250266
X406742Y238947
X352116Y225659
X342274Y237963
X331939Y273396
X340797Y284222
X386654Y295404
X394154Y295404
X393947Y303907
X394931Y318671
X335876Y351152
X336860Y366900
X239390Y266506
X256122Y253711
X231024Y237963
X240866Y225659
X284665Y247805
X289094Y250266
X295492Y238947
X224626Y351152
X225610Y366900
X169931Y318671
X168947Y303907
X169154Y295404
X161654Y295404
X154133Y290389
X147885Y286767
X140404Y282854
X136467Y305876
X117274Y237963
X127116Y225659
T03
X157904Y398415
X147904Y399415
X157904Y408415
X147904Y409415
X147904Y419415
X157904Y418415
X167904Y418415
X177904Y418415
X187904Y418415
X197904Y418415
X207904Y418415
X217904Y418415
X227904Y418415
X237904Y418415
X247904Y418415
X257904Y418415
X267904Y418415
X277904Y418415
X287904Y418415
X297904Y418415
X307904Y418415
X317904Y418415
X327904Y418415
X337904Y418415
X347904Y418415
X357904Y418415
X367904Y418415
X377904Y418415
X387904Y418415
X397904Y419415
X397904Y409415
X387904Y408415
X397904Y399415
X387904Y398415
X377904Y398415
X377904Y408415
X367904Y408415
X367904Y398415
X357904Y398415
X357904Y408415
X347904Y408415
X347904Y398415
X337904Y398415
X327904Y398415
X327904Y408415
X337904Y408415
X317904Y408415
X317904Y398415
X307904Y398415
X307904Y408415
X297904Y408415
X297904Y398415
X287904Y398415
X287904Y408415
X277904Y408415
X267904Y408415
X267904Y398415
X277904Y398415
X257904Y398415
X257904Y408415
X247904Y408415
X247904Y398415
X237904Y398415
X237904Y408415
X227904Y408415
X227904Y398415
X217904Y398415
X207904Y398415
X207904Y408415
X217904Y408415
X197904Y408415
X197904Y398415
X187904Y398415
X187904Y408415
X177904Y408415
X177904Y398415
X167904Y398415
X167904Y408415
X167904Y428415
X177904Y428415
X187904Y428415
X197904Y428415
X207904Y428415
X217904Y428415
X227904Y428415
X237904Y428415
X247904Y428415
X257904Y428415
X267904Y428415
X277904Y428415
X287904Y428415
X297904Y428415
X307904Y428415
X317904Y428415
X327904Y428415
X337904Y428415
X347904Y428415
X357904Y428415
X367904Y428415
X377904Y428415
X387904Y428415
X397904Y429415
X157904Y428415
X147904Y429415
T04
X202404Y344154
X203404Y334154
X212404Y334154
X213404Y344154
X213404Y324154
X202404Y324154
X192154Y309154
X191154Y299154
X192154Y289154
X191154Y279154
X192154Y269154
X191154Y259154
X192154Y249154
X191154Y239154
X304904Y239154
X305904Y249154
X304904Y259154
X305904Y269154
X304904Y279154
X305904Y289154
X304904Y299154
X305904Y309154
X316154Y324154
X317154Y334154
X326154Y334154
X327154Y344154
X316154Y344154
X327154Y324154
X417154Y309154
X416154Y299154
X417154Y289154
X416154Y279154
X417154Y269154
X416154Y259154
X417154Y249154
X416154Y239154
X427404Y324154
X428404Y334154
X437404Y334154
X438404Y344154
X427404Y344154
X438404Y324154
T05
X399262Y219833
X308711Y196211
X308711Y109596
X222096Y109596
X222096Y196211
X181348Y219833
T06
X117392Y117392
X117392Y428415
X428415Y428415
X428415Y117392
M30
