G75*
%MOIN*%
%OFA0B0*%
%FSLAX25Y25*%
%IPPOS*%
%LPD*%
%AMOC8*
5,1,8,0,0,1.08239X$1,22.5*
%
%ADD10C,0.00000*%
%ADD11C,0.00500*%
%ADD12C,0.02000*%
%ADD13C,0.01969*%
%ADD14C,0.00200*%
%ADD15C,0.00400*%
%ADD16C,0.00100*%
%ADD17C,0.00300*%
%ADD18C,0.00600*%
D10*
X0087864Y0091801D02*
X0091801Y0087864D01*
X0137077Y0087864D01*
X0137079Y0088054D01*
X0137086Y0088244D01*
X0137098Y0088434D01*
X0137114Y0088624D01*
X0137134Y0088813D01*
X0137160Y0089002D01*
X0137189Y0089190D01*
X0137224Y0089377D01*
X0137263Y0089563D01*
X0137306Y0089748D01*
X0137354Y0089933D01*
X0137406Y0090116D01*
X0137462Y0090297D01*
X0137523Y0090477D01*
X0137589Y0090656D01*
X0137658Y0090833D01*
X0137732Y0091009D01*
X0137810Y0091182D01*
X0137893Y0091354D01*
X0137979Y0091523D01*
X0138069Y0091691D01*
X0138164Y0091856D01*
X0138262Y0092019D01*
X0138365Y0092179D01*
X0138471Y0092337D01*
X0138581Y0092492D01*
X0138694Y0092645D01*
X0138812Y0092795D01*
X0138933Y0092941D01*
X0139057Y0093085D01*
X0139185Y0093226D01*
X0139316Y0093364D01*
X0139451Y0093499D01*
X0139589Y0093630D01*
X0139730Y0093758D01*
X0139874Y0093882D01*
X0140020Y0094003D01*
X0140170Y0094121D01*
X0140323Y0094234D01*
X0140478Y0094344D01*
X0140636Y0094450D01*
X0140796Y0094553D01*
X0140959Y0094651D01*
X0141124Y0094746D01*
X0141292Y0094836D01*
X0141461Y0094922D01*
X0141633Y0095005D01*
X0141806Y0095083D01*
X0141982Y0095157D01*
X0142159Y0095226D01*
X0142338Y0095292D01*
X0142518Y0095353D01*
X0142699Y0095409D01*
X0142882Y0095461D01*
X0143067Y0095509D01*
X0143252Y0095552D01*
X0143438Y0095591D01*
X0143625Y0095626D01*
X0143813Y0095655D01*
X0144002Y0095681D01*
X0144191Y0095701D01*
X0144381Y0095717D01*
X0144571Y0095729D01*
X0144761Y0095736D01*
X0144951Y0095738D01*
X0400856Y0095738D01*
X0401046Y0095736D01*
X0401236Y0095729D01*
X0401426Y0095717D01*
X0401616Y0095701D01*
X0401805Y0095681D01*
X0401994Y0095655D01*
X0402182Y0095626D01*
X0402369Y0095591D01*
X0402555Y0095552D01*
X0402740Y0095509D01*
X0402925Y0095461D01*
X0403108Y0095409D01*
X0403289Y0095353D01*
X0403469Y0095292D01*
X0403648Y0095226D01*
X0403825Y0095157D01*
X0404001Y0095083D01*
X0404174Y0095005D01*
X0404346Y0094922D01*
X0404515Y0094836D01*
X0404683Y0094746D01*
X0404848Y0094651D01*
X0405011Y0094553D01*
X0405171Y0094450D01*
X0405329Y0094344D01*
X0405484Y0094234D01*
X0405637Y0094121D01*
X0405787Y0094003D01*
X0405933Y0093882D01*
X0406077Y0093758D01*
X0406218Y0093630D01*
X0406356Y0093499D01*
X0406491Y0093364D01*
X0406622Y0093226D01*
X0406750Y0093085D01*
X0406874Y0092941D01*
X0406995Y0092795D01*
X0407113Y0092645D01*
X0407226Y0092492D01*
X0407336Y0092337D01*
X0407442Y0092179D01*
X0407545Y0092019D01*
X0407643Y0091856D01*
X0407738Y0091691D01*
X0407828Y0091523D01*
X0407914Y0091354D01*
X0407997Y0091182D01*
X0408075Y0091009D01*
X0408149Y0090833D01*
X0408218Y0090656D01*
X0408284Y0090477D01*
X0408345Y0090297D01*
X0408401Y0090116D01*
X0408453Y0089933D01*
X0408501Y0089748D01*
X0408544Y0089563D01*
X0408583Y0089377D01*
X0408618Y0089190D01*
X0408647Y0089002D01*
X0408673Y0088813D01*
X0408693Y0088624D01*
X0408709Y0088434D01*
X0408721Y0088244D01*
X0408728Y0088054D01*
X0408730Y0087864D01*
X0454006Y0087864D01*
X0457943Y0091801D01*
X0457943Y0137077D01*
X0457753Y0137079D01*
X0457563Y0137086D01*
X0457373Y0137098D01*
X0457183Y0137114D01*
X0456994Y0137134D01*
X0456805Y0137160D01*
X0456617Y0137189D01*
X0456430Y0137224D01*
X0456244Y0137263D01*
X0456059Y0137306D01*
X0455874Y0137354D01*
X0455691Y0137406D01*
X0455510Y0137462D01*
X0455330Y0137523D01*
X0455151Y0137589D01*
X0454974Y0137658D01*
X0454798Y0137732D01*
X0454625Y0137810D01*
X0454453Y0137893D01*
X0454284Y0137979D01*
X0454116Y0138069D01*
X0453951Y0138164D01*
X0453788Y0138262D01*
X0453628Y0138365D01*
X0453470Y0138471D01*
X0453315Y0138581D01*
X0453162Y0138694D01*
X0453012Y0138812D01*
X0452866Y0138933D01*
X0452722Y0139057D01*
X0452581Y0139185D01*
X0452443Y0139316D01*
X0452308Y0139451D01*
X0452177Y0139589D01*
X0452049Y0139730D01*
X0451925Y0139874D01*
X0451804Y0140020D01*
X0451686Y0140170D01*
X0451573Y0140323D01*
X0451463Y0140478D01*
X0451357Y0140636D01*
X0451254Y0140796D01*
X0451156Y0140959D01*
X0451061Y0141124D01*
X0450971Y0141292D01*
X0450885Y0141461D01*
X0450802Y0141633D01*
X0450724Y0141806D01*
X0450650Y0141982D01*
X0450581Y0142159D01*
X0450515Y0142338D01*
X0450454Y0142518D01*
X0450398Y0142699D01*
X0450346Y0142882D01*
X0450298Y0143067D01*
X0450255Y0143252D01*
X0450216Y0143438D01*
X0450181Y0143625D01*
X0450152Y0143813D01*
X0450126Y0144002D01*
X0450106Y0144191D01*
X0450090Y0144381D01*
X0450078Y0144571D01*
X0450071Y0144761D01*
X0450069Y0144951D01*
X0450069Y0400856D01*
X0450071Y0401046D01*
X0450078Y0401236D01*
X0450090Y0401426D01*
X0450106Y0401616D01*
X0450126Y0401805D01*
X0450152Y0401994D01*
X0450181Y0402182D01*
X0450216Y0402369D01*
X0450255Y0402555D01*
X0450298Y0402740D01*
X0450346Y0402925D01*
X0450398Y0403108D01*
X0450454Y0403289D01*
X0450515Y0403469D01*
X0450581Y0403648D01*
X0450650Y0403825D01*
X0450724Y0404001D01*
X0450802Y0404174D01*
X0450885Y0404346D01*
X0450971Y0404515D01*
X0451061Y0404683D01*
X0451156Y0404848D01*
X0451254Y0405011D01*
X0451357Y0405171D01*
X0451463Y0405329D01*
X0451573Y0405484D01*
X0451686Y0405637D01*
X0451804Y0405787D01*
X0451925Y0405933D01*
X0452049Y0406077D01*
X0452177Y0406218D01*
X0452308Y0406356D01*
X0452443Y0406491D01*
X0452581Y0406622D01*
X0452722Y0406750D01*
X0452866Y0406874D01*
X0453012Y0406995D01*
X0453162Y0407113D01*
X0453315Y0407226D01*
X0453470Y0407336D01*
X0453628Y0407442D01*
X0453788Y0407545D01*
X0453951Y0407643D01*
X0454116Y0407738D01*
X0454284Y0407828D01*
X0454453Y0407914D01*
X0454625Y0407997D01*
X0454798Y0408075D01*
X0454974Y0408149D01*
X0455151Y0408218D01*
X0455330Y0408284D01*
X0455510Y0408345D01*
X0455691Y0408401D01*
X0455874Y0408453D01*
X0456059Y0408501D01*
X0456244Y0408544D01*
X0456430Y0408583D01*
X0456617Y0408618D01*
X0456805Y0408647D01*
X0456994Y0408673D01*
X0457183Y0408693D01*
X0457373Y0408709D01*
X0457563Y0408721D01*
X0457753Y0408728D01*
X0457943Y0408730D01*
X0457943Y0454006D01*
X0454006Y0457943D01*
X0408730Y0457943D01*
X0408728Y0457753D01*
X0408721Y0457563D01*
X0408709Y0457373D01*
X0408693Y0457183D01*
X0408673Y0456994D01*
X0408647Y0456805D01*
X0408618Y0456617D01*
X0408583Y0456430D01*
X0408544Y0456244D01*
X0408501Y0456059D01*
X0408453Y0455874D01*
X0408401Y0455691D01*
X0408345Y0455510D01*
X0408284Y0455330D01*
X0408218Y0455151D01*
X0408149Y0454974D01*
X0408075Y0454798D01*
X0407997Y0454625D01*
X0407914Y0454453D01*
X0407828Y0454284D01*
X0407738Y0454116D01*
X0407643Y0453951D01*
X0407545Y0453788D01*
X0407442Y0453628D01*
X0407336Y0453470D01*
X0407226Y0453315D01*
X0407113Y0453162D01*
X0406995Y0453012D01*
X0406874Y0452866D01*
X0406750Y0452722D01*
X0406622Y0452581D01*
X0406491Y0452443D01*
X0406356Y0452308D01*
X0406218Y0452177D01*
X0406077Y0452049D01*
X0405933Y0451925D01*
X0405787Y0451804D01*
X0405637Y0451686D01*
X0405484Y0451573D01*
X0405329Y0451463D01*
X0405171Y0451357D01*
X0405011Y0451254D01*
X0404848Y0451156D01*
X0404683Y0451061D01*
X0404515Y0450971D01*
X0404346Y0450885D01*
X0404174Y0450802D01*
X0404001Y0450724D01*
X0403825Y0450650D01*
X0403648Y0450581D01*
X0403469Y0450515D01*
X0403289Y0450454D01*
X0403108Y0450398D01*
X0402925Y0450346D01*
X0402740Y0450298D01*
X0402555Y0450255D01*
X0402369Y0450216D01*
X0402182Y0450181D01*
X0401994Y0450152D01*
X0401805Y0450126D01*
X0401616Y0450106D01*
X0401426Y0450090D01*
X0401236Y0450078D01*
X0401046Y0450071D01*
X0400856Y0450069D01*
X0144951Y0450069D01*
X0144761Y0450071D01*
X0144571Y0450078D01*
X0144381Y0450090D01*
X0144191Y0450106D01*
X0144002Y0450126D01*
X0143813Y0450152D01*
X0143625Y0450181D01*
X0143438Y0450216D01*
X0143252Y0450255D01*
X0143067Y0450298D01*
X0142882Y0450346D01*
X0142699Y0450398D01*
X0142518Y0450454D01*
X0142338Y0450515D01*
X0142159Y0450581D01*
X0141982Y0450650D01*
X0141806Y0450724D01*
X0141633Y0450802D01*
X0141461Y0450885D01*
X0141292Y0450971D01*
X0141124Y0451061D01*
X0140959Y0451156D01*
X0140796Y0451254D01*
X0140636Y0451357D01*
X0140478Y0451463D01*
X0140323Y0451573D01*
X0140170Y0451686D01*
X0140020Y0451804D01*
X0139874Y0451925D01*
X0139730Y0452049D01*
X0139589Y0452177D01*
X0139451Y0452308D01*
X0139316Y0452443D01*
X0139185Y0452581D01*
X0139057Y0452722D01*
X0138933Y0452866D01*
X0138812Y0453012D01*
X0138694Y0453162D01*
X0138581Y0453315D01*
X0138471Y0453470D01*
X0138365Y0453628D01*
X0138262Y0453788D01*
X0138164Y0453951D01*
X0138069Y0454116D01*
X0137979Y0454284D01*
X0137893Y0454453D01*
X0137810Y0454625D01*
X0137732Y0454798D01*
X0137658Y0454974D01*
X0137589Y0455151D01*
X0137523Y0455330D01*
X0137462Y0455510D01*
X0137406Y0455691D01*
X0137354Y0455874D01*
X0137306Y0456059D01*
X0137263Y0456244D01*
X0137224Y0456430D01*
X0137189Y0456617D01*
X0137160Y0456805D01*
X0137134Y0456994D01*
X0137114Y0457183D01*
X0137098Y0457373D01*
X0137086Y0457563D01*
X0137079Y0457753D01*
X0137077Y0457943D01*
X0091801Y0457943D01*
X0087864Y0454006D01*
X0087864Y0408730D01*
X0088054Y0408728D01*
X0088244Y0408721D01*
X0088434Y0408709D01*
X0088624Y0408693D01*
X0088813Y0408673D01*
X0089002Y0408647D01*
X0089190Y0408618D01*
X0089377Y0408583D01*
X0089563Y0408544D01*
X0089748Y0408501D01*
X0089933Y0408453D01*
X0090116Y0408401D01*
X0090297Y0408345D01*
X0090477Y0408284D01*
X0090656Y0408218D01*
X0090833Y0408149D01*
X0091009Y0408075D01*
X0091182Y0407997D01*
X0091354Y0407914D01*
X0091523Y0407828D01*
X0091691Y0407738D01*
X0091856Y0407643D01*
X0092019Y0407545D01*
X0092179Y0407442D01*
X0092337Y0407336D01*
X0092492Y0407226D01*
X0092645Y0407113D01*
X0092795Y0406995D01*
X0092941Y0406874D01*
X0093085Y0406750D01*
X0093226Y0406622D01*
X0093364Y0406491D01*
X0093499Y0406356D01*
X0093630Y0406218D01*
X0093758Y0406077D01*
X0093882Y0405933D01*
X0094003Y0405787D01*
X0094121Y0405637D01*
X0094234Y0405484D01*
X0094344Y0405329D01*
X0094450Y0405171D01*
X0094553Y0405011D01*
X0094651Y0404848D01*
X0094746Y0404683D01*
X0094836Y0404515D01*
X0094922Y0404346D01*
X0095005Y0404174D01*
X0095083Y0404001D01*
X0095157Y0403825D01*
X0095226Y0403648D01*
X0095292Y0403469D01*
X0095353Y0403289D01*
X0095409Y0403108D01*
X0095461Y0402925D01*
X0095509Y0402740D01*
X0095552Y0402555D01*
X0095591Y0402369D01*
X0095626Y0402182D01*
X0095655Y0401994D01*
X0095681Y0401805D01*
X0095701Y0401616D01*
X0095717Y0401426D01*
X0095729Y0401236D01*
X0095736Y0401046D01*
X0095738Y0400856D01*
X0095738Y0144951D01*
X0095736Y0144761D01*
X0095729Y0144571D01*
X0095717Y0144381D01*
X0095701Y0144191D01*
X0095681Y0144002D01*
X0095655Y0143813D01*
X0095626Y0143625D01*
X0095591Y0143438D01*
X0095552Y0143252D01*
X0095509Y0143067D01*
X0095461Y0142882D01*
X0095409Y0142699D01*
X0095353Y0142518D01*
X0095292Y0142338D01*
X0095226Y0142159D01*
X0095157Y0141982D01*
X0095083Y0141806D01*
X0095005Y0141633D01*
X0094922Y0141461D01*
X0094836Y0141292D01*
X0094746Y0141124D01*
X0094651Y0140959D01*
X0094553Y0140796D01*
X0094450Y0140636D01*
X0094344Y0140478D01*
X0094234Y0140323D01*
X0094121Y0140170D01*
X0094003Y0140020D01*
X0093882Y0139874D01*
X0093758Y0139730D01*
X0093630Y0139589D01*
X0093499Y0139451D01*
X0093364Y0139316D01*
X0093226Y0139185D01*
X0093085Y0139057D01*
X0092941Y0138933D01*
X0092795Y0138812D01*
X0092645Y0138694D01*
X0092492Y0138581D01*
X0092337Y0138471D01*
X0092179Y0138365D01*
X0092019Y0138262D01*
X0091856Y0138164D01*
X0091691Y0138069D01*
X0091523Y0137979D01*
X0091354Y0137893D01*
X0091182Y0137810D01*
X0091009Y0137732D01*
X0090833Y0137658D01*
X0090656Y0137589D01*
X0090477Y0137523D01*
X0090297Y0137462D01*
X0090116Y0137406D01*
X0089933Y0137354D01*
X0089748Y0137306D01*
X0089563Y0137263D01*
X0089377Y0137224D01*
X0089190Y0137189D01*
X0089002Y0137160D01*
X0088813Y0137134D01*
X0088624Y0137114D01*
X0088434Y0137098D01*
X0088244Y0137086D01*
X0088054Y0137079D01*
X0087864Y0137077D01*
X0087864Y0091801D01*
X0217391Y0109596D02*
X0217393Y0109733D01*
X0217399Y0109870D01*
X0217409Y0110006D01*
X0217423Y0110142D01*
X0217441Y0110278D01*
X0217462Y0110413D01*
X0217488Y0110547D01*
X0217518Y0110681D01*
X0217551Y0110814D01*
X0217589Y0110945D01*
X0217630Y0111076D01*
X0217675Y0111205D01*
X0217723Y0111333D01*
X0217776Y0111460D01*
X0217832Y0111584D01*
X0217891Y0111708D01*
X0217955Y0111829D01*
X0218021Y0111948D01*
X0218091Y0112066D01*
X0218165Y0112181D01*
X0218242Y0112295D01*
X0218322Y0112406D01*
X0218405Y0112514D01*
X0218492Y0112620D01*
X0218581Y0112724D01*
X0218674Y0112825D01*
X0218769Y0112923D01*
X0218867Y0113018D01*
X0218968Y0113111D01*
X0219072Y0113200D01*
X0219178Y0113287D01*
X0219286Y0113370D01*
X0219397Y0113450D01*
X0219511Y0113527D01*
X0219626Y0113601D01*
X0219743Y0113671D01*
X0219863Y0113737D01*
X0219984Y0113801D01*
X0220108Y0113860D01*
X0220232Y0113916D01*
X0220359Y0113969D01*
X0220487Y0114017D01*
X0220616Y0114062D01*
X0220747Y0114103D01*
X0220878Y0114141D01*
X0221011Y0114174D01*
X0221145Y0114204D01*
X0221279Y0114230D01*
X0221414Y0114251D01*
X0221550Y0114269D01*
X0221686Y0114283D01*
X0221822Y0114293D01*
X0221959Y0114299D01*
X0222096Y0114301D01*
X0222233Y0114299D01*
X0222370Y0114293D01*
X0222506Y0114283D01*
X0222642Y0114269D01*
X0222778Y0114251D01*
X0222913Y0114230D01*
X0223047Y0114204D01*
X0223181Y0114174D01*
X0223314Y0114141D01*
X0223445Y0114103D01*
X0223576Y0114062D01*
X0223705Y0114017D01*
X0223833Y0113969D01*
X0223960Y0113916D01*
X0224084Y0113860D01*
X0224208Y0113801D01*
X0224329Y0113737D01*
X0224448Y0113671D01*
X0224566Y0113601D01*
X0224681Y0113527D01*
X0224795Y0113450D01*
X0224906Y0113370D01*
X0225014Y0113287D01*
X0225120Y0113200D01*
X0225224Y0113111D01*
X0225325Y0113018D01*
X0225423Y0112923D01*
X0225518Y0112825D01*
X0225611Y0112724D01*
X0225700Y0112620D01*
X0225787Y0112514D01*
X0225870Y0112406D01*
X0225950Y0112295D01*
X0226027Y0112181D01*
X0226101Y0112066D01*
X0226171Y0111948D01*
X0226237Y0111829D01*
X0226301Y0111708D01*
X0226360Y0111584D01*
X0226416Y0111460D01*
X0226469Y0111333D01*
X0226517Y0111205D01*
X0226562Y0111076D01*
X0226603Y0110945D01*
X0226641Y0110814D01*
X0226674Y0110681D01*
X0226704Y0110547D01*
X0226730Y0110413D01*
X0226751Y0110278D01*
X0226769Y0110142D01*
X0226783Y0110006D01*
X0226793Y0109870D01*
X0226799Y0109733D01*
X0226801Y0109596D01*
X0226799Y0109459D01*
X0226793Y0109322D01*
X0226783Y0109186D01*
X0226769Y0109050D01*
X0226751Y0108914D01*
X0226730Y0108779D01*
X0226704Y0108645D01*
X0226674Y0108511D01*
X0226641Y0108378D01*
X0226603Y0108247D01*
X0226562Y0108116D01*
X0226517Y0107987D01*
X0226469Y0107859D01*
X0226416Y0107732D01*
X0226360Y0107608D01*
X0226301Y0107484D01*
X0226237Y0107363D01*
X0226171Y0107243D01*
X0226101Y0107126D01*
X0226027Y0107011D01*
X0225950Y0106897D01*
X0225870Y0106786D01*
X0225787Y0106678D01*
X0225700Y0106572D01*
X0225611Y0106468D01*
X0225518Y0106367D01*
X0225423Y0106269D01*
X0225325Y0106174D01*
X0225224Y0106081D01*
X0225120Y0105992D01*
X0225014Y0105905D01*
X0224906Y0105822D01*
X0224795Y0105742D01*
X0224681Y0105665D01*
X0224566Y0105591D01*
X0224449Y0105521D01*
X0224329Y0105455D01*
X0224208Y0105391D01*
X0224084Y0105332D01*
X0223960Y0105276D01*
X0223833Y0105223D01*
X0223705Y0105175D01*
X0223576Y0105130D01*
X0223445Y0105089D01*
X0223314Y0105051D01*
X0223181Y0105018D01*
X0223047Y0104988D01*
X0222913Y0104962D01*
X0222778Y0104941D01*
X0222642Y0104923D01*
X0222506Y0104909D01*
X0222370Y0104899D01*
X0222233Y0104893D01*
X0222096Y0104891D01*
X0221959Y0104893D01*
X0221822Y0104899D01*
X0221686Y0104909D01*
X0221550Y0104923D01*
X0221414Y0104941D01*
X0221279Y0104962D01*
X0221145Y0104988D01*
X0221011Y0105018D01*
X0220878Y0105051D01*
X0220747Y0105089D01*
X0220616Y0105130D01*
X0220487Y0105175D01*
X0220359Y0105223D01*
X0220232Y0105276D01*
X0220108Y0105332D01*
X0219984Y0105391D01*
X0219863Y0105455D01*
X0219743Y0105521D01*
X0219626Y0105591D01*
X0219511Y0105665D01*
X0219397Y0105742D01*
X0219286Y0105822D01*
X0219178Y0105905D01*
X0219072Y0105992D01*
X0218968Y0106081D01*
X0218867Y0106174D01*
X0218769Y0106269D01*
X0218674Y0106367D01*
X0218581Y0106468D01*
X0218492Y0106572D01*
X0218405Y0106678D01*
X0218322Y0106786D01*
X0218242Y0106897D01*
X0218165Y0107011D01*
X0218091Y0107126D01*
X0218021Y0107243D01*
X0217955Y0107363D01*
X0217891Y0107484D01*
X0217832Y0107608D01*
X0217776Y0107732D01*
X0217723Y0107859D01*
X0217675Y0107987D01*
X0217630Y0108116D01*
X0217589Y0108247D01*
X0217551Y0108378D01*
X0217518Y0108511D01*
X0217488Y0108645D01*
X0217462Y0108779D01*
X0217441Y0108914D01*
X0217423Y0109050D01*
X0217409Y0109186D01*
X0217399Y0109322D01*
X0217393Y0109459D01*
X0217391Y0109596D01*
X0217391Y0196211D02*
X0217393Y0196348D01*
X0217399Y0196485D01*
X0217409Y0196621D01*
X0217423Y0196757D01*
X0217441Y0196893D01*
X0217462Y0197028D01*
X0217488Y0197162D01*
X0217518Y0197296D01*
X0217551Y0197429D01*
X0217589Y0197560D01*
X0217630Y0197691D01*
X0217675Y0197820D01*
X0217723Y0197948D01*
X0217776Y0198075D01*
X0217832Y0198199D01*
X0217891Y0198323D01*
X0217955Y0198444D01*
X0218021Y0198563D01*
X0218091Y0198681D01*
X0218165Y0198796D01*
X0218242Y0198910D01*
X0218322Y0199021D01*
X0218405Y0199129D01*
X0218492Y0199235D01*
X0218581Y0199339D01*
X0218674Y0199440D01*
X0218769Y0199538D01*
X0218867Y0199633D01*
X0218968Y0199726D01*
X0219072Y0199815D01*
X0219178Y0199902D01*
X0219286Y0199985D01*
X0219397Y0200065D01*
X0219511Y0200142D01*
X0219626Y0200216D01*
X0219743Y0200286D01*
X0219863Y0200352D01*
X0219984Y0200416D01*
X0220108Y0200475D01*
X0220232Y0200531D01*
X0220359Y0200584D01*
X0220487Y0200632D01*
X0220616Y0200677D01*
X0220747Y0200718D01*
X0220878Y0200756D01*
X0221011Y0200789D01*
X0221145Y0200819D01*
X0221279Y0200845D01*
X0221414Y0200866D01*
X0221550Y0200884D01*
X0221686Y0200898D01*
X0221822Y0200908D01*
X0221959Y0200914D01*
X0222096Y0200916D01*
X0222233Y0200914D01*
X0222370Y0200908D01*
X0222506Y0200898D01*
X0222642Y0200884D01*
X0222778Y0200866D01*
X0222913Y0200845D01*
X0223047Y0200819D01*
X0223181Y0200789D01*
X0223314Y0200756D01*
X0223445Y0200718D01*
X0223576Y0200677D01*
X0223705Y0200632D01*
X0223833Y0200584D01*
X0223960Y0200531D01*
X0224084Y0200475D01*
X0224208Y0200416D01*
X0224329Y0200352D01*
X0224448Y0200286D01*
X0224566Y0200216D01*
X0224681Y0200142D01*
X0224795Y0200065D01*
X0224906Y0199985D01*
X0225014Y0199902D01*
X0225120Y0199815D01*
X0225224Y0199726D01*
X0225325Y0199633D01*
X0225423Y0199538D01*
X0225518Y0199440D01*
X0225611Y0199339D01*
X0225700Y0199235D01*
X0225787Y0199129D01*
X0225870Y0199021D01*
X0225950Y0198910D01*
X0226027Y0198796D01*
X0226101Y0198681D01*
X0226171Y0198563D01*
X0226237Y0198444D01*
X0226301Y0198323D01*
X0226360Y0198199D01*
X0226416Y0198075D01*
X0226469Y0197948D01*
X0226517Y0197820D01*
X0226562Y0197691D01*
X0226603Y0197560D01*
X0226641Y0197429D01*
X0226674Y0197296D01*
X0226704Y0197162D01*
X0226730Y0197028D01*
X0226751Y0196893D01*
X0226769Y0196757D01*
X0226783Y0196621D01*
X0226793Y0196485D01*
X0226799Y0196348D01*
X0226801Y0196211D01*
X0226799Y0196074D01*
X0226793Y0195937D01*
X0226783Y0195801D01*
X0226769Y0195665D01*
X0226751Y0195529D01*
X0226730Y0195394D01*
X0226704Y0195260D01*
X0226674Y0195126D01*
X0226641Y0194993D01*
X0226603Y0194862D01*
X0226562Y0194731D01*
X0226517Y0194602D01*
X0226469Y0194474D01*
X0226416Y0194347D01*
X0226360Y0194223D01*
X0226301Y0194099D01*
X0226237Y0193978D01*
X0226171Y0193858D01*
X0226101Y0193741D01*
X0226027Y0193626D01*
X0225950Y0193512D01*
X0225870Y0193401D01*
X0225787Y0193293D01*
X0225700Y0193187D01*
X0225611Y0193083D01*
X0225518Y0192982D01*
X0225423Y0192884D01*
X0225325Y0192789D01*
X0225224Y0192696D01*
X0225120Y0192607D01*
X0225014Y0192520D01*
X0224906Y0192437D01*
X0224795Y0192357D01*
X0224681Y0192280D01*
X0224566Y0192206D01*
X0224449Y0192136D01*
X0224329Y0192070D01*
X0224208Y0192006D01*
X0224084Y0191947D01*
X0223960Y0191891D01*
X0223833Y0191838D01*
X0223705Y0191790D01*
X0223576Y0191745D01*
X0223445Y0191704D01*
X0223314Y0191666D01*
X0223181Y0191633D01*
X0223047Y0191603D01*
X0222913Y0191577D01*
X0222778Y0191556D01*
X0222642Y0191538D01*
X0222506Y0191524D01*
X0222370Y0191514D01*
X0222233Y0191508D01*
X0222096Y0191506D01*
X0221959Y0191508D01*
X0221822Y0191514D01*
X0221686Y0191524D01*
X0221550Y0191538D01*
X0221414Y0191556D01*
X0221279Y0191577D01*
X0221145Y0191603D01*
X0221011Y0191633D01*
X0220878Y0191666D01*
X0220747Y0191704D01*
X0220616Y0191745D01*
X0220487Y0191790D01*
X0220359Y0191838D01*
X0220232Y0191891D01*
X0220108Y0191947D01*
X0219984Y0192006D01*
X0219863Y0192070D01*
X0219743Y0192136D01*
X0219626Y0192206D01*
X0219511Y0192280D01*
X0219397Y0192357D01*
X0219286Y0192437D01*
X0219178Y0192520D01*
X0219072Y0192607D01*
X0218968Y0192696D01*
X0218867Y0192789D01*
X0218769Y0192884D01*
X0218674Y0192982D01*
X0218581Y0193083D01*
X0218492Y0193187D01*
X0218405Y0193293D01*
X0218322Y0193401D01*
X0218242Y0193512D01*
X0218165Y0193626D01*
X0218091Y0193741D01*
X0218021Y0193858D01*
X0217955Y0193978D01*
X0217891Y0194099D01*
X0217832Y0194223D01*
X0217776Y0194347D01*
X0217723Y0194474D01*
X0217675Y0194602D01*
X0217630Y0194731D01*
X0217589Y0194862D01*
X0217551Y0194993D01*
X0217518Y0195126D01*
X0217488Y0195260D01*
X0217462Y0195394D01*
X0217441Y0195529D01*
X0217423Y0195665D01*
X0217409Y0195801D01*
X0217399Y0195937D01*
X0217393Y0196074D01*
X0217391Y0196211D01*
X0176643Y0219833D02*
X0176645Y0219970D01*
X0176651Y0220107D01*
X0176661Y0220243D01*
X0176675Y0220379D01*
X0176693Y0220515D01*
X0176714Y0220650D01*
X0176740Y0220784D01*
X0176770Y0220918D01*
X0176803Y0221051D01*
X0176841Y0221182D01*
X0176882Y0221313D01*
X0176927Y0221442D01*
X0176975Y0221570D01*
X0177028Y0221697D01*
X0177084Y0221821D01*
X0177143Y0221945D01*
X0177207Y0222066D01*
X0177273Y0222185D01*
X0177343Y0222303D01*
X0177417Y0222418D01*
X0177494Y0222532D01*
X0177574Y0222643D01*
X0177657Y0222751D01*
X0177744Y0222857D01*
X0177833Y0222961D01*
X0177926Y0223062D01*
X0178021Y0223160D01*
X0178119Y0223255D01*
X0178220Y0223348D01*
X0178324Y0223437D01*
X0178430Y0223524D01*
X0178538Y0223607D01*
X0178649Y0223687D01*
X0178763Y0223764D01*
X0178878Y0223838D01*
X0178995Y0223908D01*
X0179115Y0223974D01*
X0179236Y0224038D01*
X0179360Y0224097D01*
X0179484Y0224153D01*
X0179611Y0224206D01*
X0179739Y0224254D01*
X0179868Y0224299D01*
X0179999Y0224340D01*
X0180130Y0224378D01*
X0180263Y0224411D01*
X0180397Y0224441D01*
X0180531Y0224467D01*
X0180666Y0224488D01*
X0180802Y0224506D01*
X0180938Y0224520D01*
X0181074Y0224530D01*
X0181211Y0224536D01*
X0181348Y0224538D01*
X0181485Y0224536D01*
X0181622Y0224530D01*
X0181758Y0224520D01*
X0181894Y0224506D01*
X0182030Y0224488D01*
X0182165Y0224467D01*
X0182299Y0224441D01*
X0182433Y0224411D01*
X0182566Y0224378D01*
X0182697Y0224340D01*
X0182828Y0224299D01*
X0182957Y0224254D01*
X0183085Y0224206D01*
X0183212Y0224153D01*
X0183336Y0224097D01*
X0183460Y0224038D01*
X0183581Y0223974D01*
X0183700Y0223908D01*
X0183818Y0223838D01*
X0183933Y0223764D01*
X0184047Y0223687D01*
X0184158Y0223607D01*
X0184266Y0223524D01*
X0184372Y0223437D01*
X0184476Y0223348D01*
X0184577Y0223255D01*
X0184675Y0223160D01*
X0184770Y0223062D01*
X0184863Y0222961D01*
X0184952Y0222857D01*
X0185039Y0222751D01*
X0185122Y0222643D01*
X0185202Y0222532D01*
X0185279Y0222418D01*
X0185353Y0222303D01*
X0185423Y0222185D01*
X0185489Y0222066D01*
X0185553Y0221945D01*
X0185612Y0221821D01*
X0185668Y0221697D01*
X0185721Y0221570D01*
X0185769Y0221442D01*
X0185814Y0221313D01*
X0185855Y0221182D01*
X0185893Y0221051D01*
X0185926Y0220918D01*
X0185956Y0220784D01*
X0185982Y0220650D01*
X0186003Y0220515D01*
X0186021Y0220379D01*
X0186035Y0220243D01*
X0186045Y0220107D01*
X0186051Y0219970D01*
X0186053Y0219833D01*
X0186051Y0219696D01*
X0186045Y0219559D01*
X0186035Y0219423D01*
X0186021Y0219287D01*
X0186003Y0219151D01*
X0185982Y0219016D01*
X0185956Y0218882D01*
X0185926Y0218748D01*
X0185893Y0218615D01*
X0185855Y0218484D01*
X0185814Y0218353D01*
X0185769Y0218224D01*
X0185721Y0218096D01*
X0185668Y0217969D01*
X0185612Y0217845D01*
X0185553Y0217721D01*
X0185489Y0217600D01*
X0185423Y0217480D01*
X0185353Y0217363D01*
X0185279Y0217248D01*
X0185202Y0217134D01*
X0185122Y0217023D01*
X0185039Y0216915D01*
X0184952Y0216809D01*
X0184863Y0216705D01*
X0184770Y0216604D01*
X0184675Y0216506D01*
X0184577Y0216411D01*
X0184476Y0216318D01*
X0184372Y0216229D01*
X0184266Y0216142D01*
X0184158Y0216059D01*
X0184047Y0215979D01*
X0183933Y0215902D01*
X0183818Y0215828D01*
X0183701Y0215758D01*
X0183581Y0215692D01*
X0183460Y0215628D01*
X0183336Y0215569D01*
X0183212Y0215513D01*
X0183085Y0215460D01*
X0182957Y0215412D01*
X0182828Y0215367D01*
X0182697Y0215326D01*
X0182566Y0215288D01*
X0182433Y0215255D01*
X0182299Y0215225D01*
X0182165Y0215199D01*
X0182030Y0215178D01*
X0181894Y0215160D01*
X0181758Y0215146D01*
X0181622Y0215136D01*
X0181485Y0215130D01*
X0181348Y0215128D01*
X0181211Y0215130D01*
X0181074Y0215136D01*
X0180938Y0215146D01*
X0180802Y0215160D01*
X0180666Y0215178D01*
X0180531Y0215199D01*
X0180397Y0215225D01*
X0180263Y0215255D01*
X0180130Y0215288D01*
X0179999Y0215326D01*
X0179868Y0215367D01*
X0179739Y0215412D01*
X0179611Y0215460D01*
X0179484Y0215513D01*
X0179360Y0215569D01*
X0179236Y0215628D01*
X0179115Y0215692D01*
X0178995Y0215758D01*
X0178878Y0215828D01*
X0178763Y0215902D01*
X0178649Y0215979D01*
X0178538Y0216059D01*
X0178430Y0216142D01*
X0178324Y0216229D01*
X0178220Y0216318D01*
X0178119Y0216411D01*
X0178021Y0216506D01*
X0177926Y0216604D01*
X0177833Y0216705D01*
X0177744Y0216809D01*
X0177657Y0216915D01*
X0177574Y0217023D01*
X0177494Y0217134D01*
X0177417Y0217248D01*
X0177343Y0217363D01*
X0177273Y0217480D01*
X0177207Y0217600D01*
X0177143Y0217721D01*
X0177084Y0217845D01*
X0177028Y0217969D01*
X0176975Y0218096D01*
X0176927Y0218224D01*
X0176882Y0218353D01*
X0176841Y0218484D01*
X0176803Y0218615D01*
X0176770Y0218748D01*
X0176740Y0218882D01*
X0176714Y0219016D01*
X0176693Y0219151D01*
X0176675Y0219287D01*
X0176661Y0219423D01*
X0176651Y0219559D01*
X0176645Y0219696D01*
X0176643Y0219833D01*
X0304006Y0196211D02*
X0304008Y0196348D01*
X0304014Y0196485D01*
X0304024Y0196621D01*
X0304038Y0196757D01*
X0304056Y0196893D01*
X0304077Y0197028D01*
X0304103Y0197162D01*
X0304133Y0197296D01*
X0304166Y0197429D01*
X0304204Y0197560D01*
X0304245Y0197691D01*
X0304290Y0197820D01*
X0304338Y0197948D01*
X0304391Y0198075D01*
X0304447Y0198199D01*
X0304506Y0198323D01*
X0304570Y0198444D01*
X0304636Y0198563D01*
X0304706Y0198681D01*
X0304780Y0198796D01*
X0304857Y0198910D01*
X0304937Y0199021D01*
X0305020Y0199129D01*
X0305107Y0199235D01*
X0305196Y0199339D01*
X0305289Y0199440D01*
X0305384Y0199538D01*
X0305482Y0199633D01*
X0305583Y0199726D01*
X0305687Y0199815D01*
X0305793Y0199902D01*
X0305901Y0199985D01*
X0306012Y0200065D01*
X0306126Y0200142D01*
X0306241Y0200216D01*
X0306358Y0200286D01*
X0306478Y0200352D01*
X0306599Y0200416D01*
X0306723Y0200475D01*
X0306847Y0200531D01*
X0306974Y0200584D01*
X0307102Y0200632D01*
X0307231Y0200677D01*
X0307362Y0200718D01*
X0307493Y0200756D01*
X0307626Y0200789D01*
X0307760Y0200819D01*
X0307894Y0200845D01*
X0308029Y0200866D01*
X0308165Y0200884D01*
X0308301Y0200898D01*
X0308437Y0200908D01*
X0308574Y0200914D01*
X0308711Y0200916D01*
X0308848Y0200914D01*
X0308985Y0200908D01*
X0309121Y0200898D01*
X0309257Y0200884D01*
X0309393Y0200866D01*
X0309528Y0200845D01*
X0309662Y0200819D01*
X0309796Y0200789D01*
X0309929Y0200756D01*
X0310060Y0200718D01*
X0310191Y0200677D01*
X0310320Y0200632D01*
X0310448Y0200584D01*
X0310575Y0200531D01*
X0310699Y0200475D01*
X0310823Y0200416D01*
X0310944Y0200352D01*
X0311063Y0200286D01*
X0311181Y0200216D01*
X0311296Y0200142D01*
X0311410Y0200065D01*
X0311521Y0199985D01*
X0311629Y0199902D01*
X0311735Y0199815D01*
X0311839Y0199726D01*
X0311940Y0199633D01*
X0312038Y0199538D01*
X0312133Y0199440D01*
X0312226Y0199339D01*
X0312315Y0199235D01*
X0312402Y0199129D01*
X0312485Y0199021D01*
X0312565Y0198910D01*
X0312642Y0198796D01*
X0312716Y0198681D01*
X0312786Y0198563D01*
X0312852Y0198444D01*
X0312916Y0198323D01*
X0312975Y0198199D01*
X0313031Y0198075D01*
X0313084Y0197948D01*
X0313132Y0197820D01*
X0313177Y0197691D01*
X0313218Y0197560D01*
X0313256Y0197429D01*
X0313289Y0197296D01*
X0313319Y0197162D01*
X0313345Y0197028D01*
X0313366Y0196893D01*
X0313384Y0196757D01*
X0313398Y0196621D01*
X0313408Y0196485D01*
X0313414Y0196348D01*
X0313416Y0196211D01*
X0313414Y0196074D01*
X0313408Y0195937D01*
X0313398Y0195801D01*
X0313384Y0195665D01*
X0313366Y0195529D01*
X0313345Y0195394D01*
X0313319Y0195260D01*
X0313289Y0195126D01*
X0313256Y0194993D01*
X0313218Y0194862D01*
X0313177Y0194731D01*
X0313132Y0194602D01*
X0313084Y0194474D01*
X0313031Y0194347D01*
X0312975Y0194223D01*
X0312916Y0194099D01*
X0312852Y0193978D01*
X0312786Y0193858D01*
X0312716Y0193741D01*
X0312642Y0193626D01*
X0312565Y0193512D01*
X0312485Y0193401D01*
X0312402Y0193293D01*
X0312315Y0193187D01*
X0312226Y0193083D01*
X0312133Y0192982D01*
X0312038Y0192884D01*
X0311940Y0192789D01*
X0311839Y0192696D01*
X0311735Y0192607D01*
X0311629Y0192520D01*
X0311521Y0192437D01*
X0311410Y0192357D01*
X0311296Y0192280D01*
X0311181Y0192206D01*
X0311064Y0192136D01*
X0310944Y0192070D01*
X0310823Y0192006D01*
X0310699Y0191947D01*
X0310575Y0191891D01*
X0310448Y0191838D01*
X0310320Y0191790D01*
X0310191Y0191745D01*
X0310060Y0191704D01*
X0309929Y0191666D01*
X0309796Y0191633D01*
X0309662Y0191603D01*
X0309528Y0191577D01*
X0309393Y0191556D01*
X0309257Y0191538D01*
X0309121Y0191524D01*
X0308985Y0191514D01*
X0308848Y0191508D01*
X0308711Y0191506D01*
X0308574Y0191508D01*
X0308437Y0191514D01*
X0308301Y0191524D01*
X0308165Y0191538D01*
X0308029Y0191556D01*
X0307894Y0191577D01*
X0307760Y0191603D01*
X0307626Y0191633D01*
X0307493Y0191666D01*
X0307362Y0191704D01*
X0307231Y0191745D01*
X0307102Y0191790D01*
X0306974Y0191838D01*
X0306847Y0191891D01*
X0306723Y0191947D01*
X0306599Y0192006D01*
X0306478Y0192070D01*
X0306358Y0192136D01*
X0306241Y0192206D01*
X0306126Y0192280D01*
X0306012Y0192357D01*
X0305901Y0192437D01*
X0305793Y0192520D01*
X0305687Y0192607D01*
X0305583Y0192696D01*
X0305482Y0192789D01*
X0305384Y0192884D01*
X0305289Y0192982D01*
X0305196Y0193083D01*
X0305107Y0193187D01*
X0305020Y0193293D01*
X0304937Y0193401D01*
X0304857Y0193512D01*
X0304780Y0193626D01*
X0304706Y0193741D01*
X0304636Y0193858D01*
X0304570Y0193978D01*
X0304506Y0194099D01*
X0304447Y0194223D01*
X0304391Y0194347D01*
X0304338Y0194474D01*
X0304290Y0194602D01*
X0304245Y0194731D01*
X0304204Y0194862D01*
X0304166Y0194993D01*
X0304133Y0195126D01*
X0304103Y0195260D01*
X0304077Y0195394D01*
X0304056Y0195529D01*
X0304038Y0195665D01*
X0304024Y0195801D01*
X0304014Y0195937D01*
X0304008Y0196074D01*
X0304006Y0196211D01*
X0304006Y0109596D02*
X0304008Y0109733D01*
X0304014Y0109870D01*
X0304024Y0110006D01*
X0304038Y0110142D01*
X0304056Y0110278D01*
X0304077Y0110413D01*
X0304103Y0110547D01*
X0304133Y0110681D01*
X0304166Y0110814D01*
X0304204Y0110945D01*
X0304245Y0111076D01*
X0304290Y0111205D01*
X0304338Y0111333D01*
X0304391Y0111460D01*
X0304447Y0111584D01*
X0304506Y0111708D01*
X0304570Y0111829D01*
X0304636Y0111948D01*
X0304706Y0112066D01*
X0304780Y0112181D01*
X0304857Y0112295D01*
X0304937Y0112406D01*
X0305020Y0112514D01*
X0305107Y0112620D01*
X0305196Y0112724D01*
X0305289Y0112825D01*
X0305384Y0112923D01*
X0305482Y0113018D01*
X0305583Y0113111D01*
X0305687Y0113200D01*
X0305793Y0113287D01*
X0305901Y0113370D01*
X0306012Y0113450D01*
X0306126Y0113527D01*
X0306241Y0113601D01*
X0306358Y0113671D01*
X0306478Y0113737D01*
X0306599Y0113801D01*
X0306723Y0113860D01*
X0306847Y0113916D01*
X0306974Y0113969D01*
X0307102Y0114017D01*
X0307231Y0114062D01*
X0307362Y0114103D01*
X0307493Y0114141D01*
X0307626Y0114174D01*
X0307760Y0114204D01*
X0307894Y0114230D01*
X0308029Y0114251D01*
X0308165Y0114269D01*
X0308301Y0114283D01*
X0308437Y0114293D01*
X0308574Y0114299D01*
X0308711Y0114301D01*
X0308848Y0114299D01*
X0308985Y0114293D01*
X0309121Y0114283D01*
X0309257Y0114269D01*
X0309393Y0114251D01*
X0309528Y0114230D01*
X0309662Y0114204D01*
X0309796Y0114174D01*
X0309929Y0114141D01*
X0310060Y0114103D01*
X0310191Y0114062D01*
X0310320Y0114017D01*
X0310448Y0113969D01*
X0310575Y0113916D01*
X0310699Y0113860D01*
X0310823Y0113801D01*
X0310944Y0113737D01*
X0311063Y0113671D01*
X0311181Y0113601D01*
X0311296Y0113527D01*
X0311410Y0113450D01*
X0311521Y0113370D01*
X0311629Y0113287D01*
X0311735Y0113200D01*
X0311839Y0113111D01*
X0311940Y0113018D01*
X0312038Y0112923D01*
X0312133Y0112825D01*
X0312226Y0112724D01*
X0312315Y0112620D01*
X0312402Y0112514D01*
X0312485Y0112406D01*
X0312565Y0112295D01*
X0312642Y0112181D01*
X0312716Y0112066D01*
X0312786Y0111948D01*
X0312852Y0111829D01*
X0312916Y0111708D01*
X0312975Y0111584D01*
X0313031Y0111460D01*
X0313084Y0111333D01*
X0313132Y0111205D01*
X0313177Y0111076D01*
X0313218Y0110945D01*
X0313256Y0110814D01*
X0313289Y0110681D01*
X0313319Y0110547D01*
X0313345Y0110413D01*
X0313366Y0110278D01*
X0313384Y0110142D01*
X0313398Y0110006D01*
X0313408Y0109870D01*
X0313414Y0109733D01*
X0313416Y0109596D01*
X0313414Y0109459D01*
X0313408Y0109322D01*
X0313398Y0109186D01*
X0313384Y0109050D01*
X0313366Y0108914D01*
X0313345Y0108779D01*
X0313319Y0108645D01*
X0313289Y0108511D01*
X0313256Y0108378D01*
X0313218Y0108247D01*
X0313177Y0108116D01*
X0313132Y0107987D01*
X0313084Y0107859D01*
X0313031Y0107732D01*
X0312975Y0107608D01*
X0312916Y0107484D01*
X0312852Y0107363D01*
X0312786Y0107243D01*
X0312716Y0107126D01*
X0312642Y0107011D01*
X0312565Y0106897D01*
X0312485Y0106786D01*
X0312402Y0106678D01*
X0312315Y0106572D01*
X0312226Y0106468D01*
X0312133Y0106367D01*
X0312038Y0106269D01*
X0311940Y0106174D01*
X0311839Y0106081D01*
X0311735Y0105992D01*
X0311629Y0105905D01*
X0311521Y0105822D01*
X0311410Y0105742D01*
X0311296Y0105665D01*
X0311181Y0105591D01*
X0311064Y0105521D01*
X0310944Y0105455D01*
X0310823Y0105391D01*
X0310699Y0105332D01*
X0310575Y0105276D01*
X0310448Y0105223D01*
X0310320Y0105175D01*
X0310191Y0105130D01*
X0310060Y0105089D01*
X0309929Y0105051D01*
X0309796Y0105018D01*
X0309662Y0104988D01*
X0309528Y0104962D01*
X0309393Y0104941D01*
X0309257Y0104923D01*
X0309121Y0104909D01*
X0308985Y0104899D01*
X0308848Y0104893D01*
X0308711Y0104891D01*
X0308574Y0104893D01*
X0308437Y0104899D01*
X0308301Y0104909D01*
X0308165Y0104923D01*
X0308029Y0104941D01*
X0307894Y0104962D01*
X0307760Y0104988D01*
X0307626Y0105018D01*
X0307493Y0105051D01*
X0307362Y0105089D01*
X0307231Y0105130D01*
X0307102Y0105175D01*
X0306974Y0105223D01*
X0306847Y0105276D01*
X0306723Y0105332D01*
X0306599Y0105391D01*
X0306478Y0105455D01*
X0306358Y0105521D01*
X0306241Y0105591D01*
X0306126Y0105665D01*
X0306012Y0105742D01*
X0305901Y0105822D01*
X0305793Y0105905D01*
X0305687Y0105992D01*
X0305583Y0106081D01*
X0305482Y0106174D01*
X0305384Y0106269D01*
X0305289Y0106367D01*
X0305196Y0106468D01*
X0305107Y0106572D01*
X0305020Y0106678D01*
X0304937Y0106786D01*
X0304857Y0106897D01*
X0304780Y0107011D01*
X0304706Y0107126D01*
X0304636Y0107243D01*
X0304570Y0107363D01*
X0304506Y0107484D01*
X0304447Y0107608D01*
X0304391Y0107732D01*
X0304338Y0107859D01*
X0304290Y0107987D01*
X0304245Y0108116D01*
X0304204Y0108247D01*
X0304166Y0108378D01*
X0304133Y0108511D01*
X0304103Y0108645D01*
X0304077Y0108779D01*
X0304056Y0108914D01*
X0304038Y0109050D01*
X0304024Y0109186D01*
X0304014Y0109322D01*
X0304008Y0109459D01*
X0304006Y0109596D01*
X0394557Y0219833D02*
X0394559Y0219970D01*
X0394565Y0220107D01*
X0394575Y0220243D01*
X0394589Y0220379D01*
X0394607Y0220515D01*
X0394628Y0220650D01*
X0394654Y0220784D01*
X0394684Y0220918D01*
X0394717Y0221051D01*
X0394755Y0221182D01*
X0394796Y0221313D01*
X0394841Y0221442D01*
X0394889Y0221570D01*
X0394942Y0221697D01*
X0394998Y0221821D01*
X0395057Y0221945D01*
X0395121Y0222066D01*
X0395187Y0222185D01*
X0395257Y0222303D01*
X0395331Y0222418D01*
X0395408Y0222532D01*
X0395488Y0222643D01*
X0395571Y0222751D01*
X0395658Y0222857D01*
X0395747Y0222961D01*
X0395840Y0223062D01*
X0395935Y0223160D01*
X0396033Y0223255D01*
X0396134Y0223348D01*
X0396238Y0223437D01*
X0396344Y0223524D01*
X0396452Y0223607D01*
X0396563Y0223687D01*
X0396677Y0223764D01*
X0396792Y0223838D01*
X0396909Y0223908D01*
X0397029Y0223974D01*
X0397150Y0224038D01*
X0397274Y0224097D01*
X0397398Y0224153D01*
X0397525Y0224206D01*
X0397653Y0224254D01*
X0397782Y0224299D01*
X0397913Y0224340D01*
X0398044Y0224378D01*
X0398177Y0224411D01*
X0398311Y0224441D01*
X0398445Y0224467D01*
X0398580Y0224488D01*
X0398716Y0224506D01*
X0398852Y0224520D01*
X0398988Y0224530D01*
X0399125Y0224536D01*
X0399262Y0224538D01*
X0399399Y0224536D01*
X0399536Y0224530D01*
X0399672Y0224520D01*
X0399808Y0224506D01*
X0399944Y0224488D01*
X0400079Y0224467D01*
X0400213Y0224441D01*
X0400347Y0224411D01*
X0400480Y0224378D01*
X0400611Y0224340D01*
X0400742Y0224299D01*
X0400871Y0224254D01*
X0400999Y0224206D01*
X0401126Y0224153D01*
X0401250Y0224097D01*
X0401374Y0224038D01*
X0401495Y0223974D01*
X0401614Y0223908D01*
X0401732Y0223838D01*
X0401847Y0223764D01*
X0401961Y0223687D01*
X0402072Y0223607D01*
X0402180Y0223524D01*
X0402286Y0223437D01*
X0402390Y0223348D01*
X0402491Y0223255D01*
X0402589Y0223160D01*
X0402684Y0223062D01*
X0402777Y0222961D01*
X0402866Y0222857D01*
X0402953Y0222751D01*
X0403036Y0222643D01*
X0403116Y0222532D01*
X0403193Y0222418D01*
X0403267Y0222303D01*
X0403337Y0222185D01*
X0403403Y0222066D01*
X0403467Y0221945D01*
X0403526Y0221821D01*
X0403582Y0221697D01*
X0403635Y0221570D01*
X0403683Y0221442D01*
X0403728Y0221313D01*
X0403769Y0221182D01*
X0403807Y0221051D01*
X0403840Y0220918D01*
X0403870Y0220784D01*
X0403896Y0220650D01*
X0403917Y0220515D01*
X0403935Y0220379D01*
X0403949Y0220243D01*
X0403959Y0220107D01*
X0403965Y0219970D01*
X0403967Y0219833D01*
X0403965Y0219696D01*
X0403959Y0219559D01*
X0403949Y0219423D01*
X0403935Y0219287D01*
X0403917Y0219151D01*
X0403896Y0219016D01*
X0403870Y0218882D01*
X0403840Y0218748D01*
X0403807Y0218615D01*
X0403769Y0218484D01*
X0403728Y0218353D01*
X0403683Y0218224D01*
X0403635Y0218096D01*
X0403582Y0217969D01*
X0403526Y0217845D01*
X0403467Y0217721D01*
X0403403Y0217600D01*
X0403337Y0217480D01*
X0403267Y0217363D01*
X0403193Y0217248D01*
X0403116Y0217134D01*
X0403036Y0217023D01*
X0402953Y0216915D01*
X0402866Y0216809D01*
X0402777Y0216705D01*
X0402684Y0216604D01*
X0402589Y0216506D01*
X0402491Y0216411D01*
X0402390Y0216318D01*
X0402286Y0216229D01*
X0402180Y0216142D01*
X0402072Y0216059D01*
X0401961Y0215979D01*
X0401847Y0215902D01*
X0401732Y0215828D01*
X0401615Y0215758D01*
X0401495Y0215692D01*
X0401374Y0215628D01*
X0401250Y0215569D01*
X0401126Y0215513D01*
X0400999Y0215460D01*
X0400871Y0215412D01*
X0400742Y0215367D01*
X0400611Y0215326D01*
X0400480Y0215288D01*
X0400347Y0215255D01*
X0400213Y0215225D01*
X0400079Y0215199D01*
X0399944Y0215178D01*
X0399808Y0215160D01*
X0399672Y0215146D01*
X0399536Y0215136D01*
X0399399Y0215130D01*
X0399262Y0215128D01*
X0399125Y0215130D01*
X0398988Y0215136D01*
X0398852Y0215146D01*
X0398716Y0215160D01*
X0398580Y0215178D01*
X0398445Y0215199D01*
X0398311Y0215225D01*
X0398177Y0215255D01*
X0398044Y0215288D01*
X0397913Y0215326D01*
X0397782Y0215367D01*
X0397653Y0215412D01*
X0397525Y0215460D01*
X0397398Y0215513D01*
X0397274Y0215569D01*
X0397150Y0215628D01*
X0397029Y0215692D01*
X0396909Y0215758D01*
X0396792Y0215828D01*
X0396677Y0215902D01*
X0396563Y0215979D01*
X0396452Y0216059D01*
X0396344Y0216142D01*
X0396238Y0216229D01*
X0396134Y0216318D01*
X0396033Y0216411D01*
X0395935Y0216506D01*
X0395840Y0216604D01*
X0395747Y0216705D01*
X0395658Y0216809D01*
X0395571Y0216915D01*
X0395488Y0217023D01*
X0395408Y0217134D01*
X0395331Y0217248D01*
X0395257Y0217363D01*
X0395187Y0217480D01*
X0395121Y0217600D01*
X0395057Y0217721D01*
X0394998Y0217845D01*
X0394942Y0217969D01*
X0394889Y0218096D01*
X0394841Y0218224D01*
X0394796Y0218353D01*
X0394755Y0218484D01*
X0394717Y0218615D01*
X0394684Y0218748D01*
X0394654Y0218882D01*
X0394628Y0219016D01*
X0394607Y0219151D01*
X0394589Y0219287D01*
X0394575Y0219423D01*
X0394565Y0219559D01*
X0394559Y0219696D01*
X0394557Y0219833D01*
D11*
X0393868Y0235797D02*
X0393868Y0242096D01*
X0405679Y0242096D01*
X0405679Y0235797D01*
X0393868Y0235797D01*
X0383711Y0237825D02*
X0383711Y0277982D01*
X0362844Y0277982D01*
X0362844Y0237825D01*
X0383711Y0237825D01*
X0397195Y0251329D02*
X0403494Y0251329D01*
X0403494Y0263140D01*
X0397195Y0263140D01*
X0397195Y0251329D01*
X0397195Y0269872D02*
X0397195Y0273317D01*
X0403494Y0273317D02*
X0403494Y0269872D01*
X0402018Y0302018D02*
X0395719Y0302018D01*
X0395719Y0313829D01*
X0402018Y0313829D01*
X0402018Y0302018D01*
X0392175Y0302018D02*
X0392175Y0313829D01*
X0385876Y0313829D01*
X0385876Y0302018D01*
X0392175Y0302018D01*
X0385089Y0305876D02*
X0385089Y0315719D01*
X0394931Y0315719D01*
X0361703Y0298356D02*
X0361703Y0292451D01*
X0349104Y0292451D01*
X0349104Y0298356D01*
X0361703Y0298356D01*
X0353671Y0287372D02*
X0353671Y0281073D01*
X0341860Y0281073D01*
X0341860Y0287372D01*
X0353671Y0287372D01*
X0344813Y0290915D02*
X0344813Y0297215D01*
X0333002Y0297215D01*
X0333002Y0290915D01*
X0344813Y0290915D01*
X0344931Y0302018D02*
X0338632Y0302018D01*
X0338632Y0313829D01*
X0344931Y0313829D01*
X0344931Y0302018D01*
X0345719Y0305876D02*
X0345719Y0315719D01*
X0335876Y0315719D01*
X0335089Y0313829D02*
X0328789Y0313829D01*
X0328789Y0302018D01*
X0335089Y0302018D01*
X0335089Y0313829D01*
X0333002Y0276545D02*
X0333002Y0270246D01*
X0344813Y0270246D01*
X0344813Y0276545D01*
X0333002Y0276545D01*
X0329065Y0265600D02*
X0329065Y0245915D01*
X0329400Y0241112D02*
X0329400Y0234813D01*
X0341211Y0234813D01*
X0341211Y0241112D01*
X0329400Y0241112D01*
X0344813Y0245915D02*
X0344813Y0265600D01*
X0348967Y0238533D02*
X0355266Y0238533D01*
X0355266Y0226722D01*
X0348967Y0226722D01*
X0348967Y0238533D01*
X0294429Y0235797D02*
X0294429Y0242096D01*
X0282618Y0242096D01*
X0282618Y0235797D01*
X0294429Y0235797D01*
X0292244Y0251329D02*
X0285945Y0251329D01*
X0285945Y0263140D01*
X0292244Y0263140D01*
X0292244Y0251329D01*
X0292244Y0269872D02*
X0292244Y0273317D01*
X0285945Y0273317D02*
X0285945Y0269872D01*
X0272461Y0277982D02*
X0251594Y0277982D01*
X0251594Y0237825D01*
X0272461Y0237825D01*
X0272461Y0277982D01*
X0250453Y0292451D02*
X0250453Y0298356D01*
X0237854Y0298356D01*
X0237854Y0292451D01*
X0250453Y0292451D01*
X0242421Y0287372D02*
X0242421Y0281073D01*
X0230610Y0281073D01*
X0230610Y0287372D01*
X0242421Y0287372D01*
X0233563Y0290915D02*
X0233563Y0297215D01*
X0221752Y0297215D01*
X0221752Y0290915D01*
X0233563Y0290915D01*
X0233681Y0302018D02*
X0227382Y0302018D01*
X0227382Y0313829D01*
X0233681Y0313829D01*
X0233681Y0302018D01*
X0234469Y0305876D02*
X0234469Y0315719D01*
X0224626Y0315719D01*
X0223839Y0313829D02*
X0217539Y0313829D01*
X0217539Y0302018D01*
X0223839Y0302018D01*
X0223839Y0313829D01*
X0221752Y0276545D02*
X0221752Y0270246D01*
X0233563Y0270246D01*
X0233563Y0276545D01*
X0221752Y0276545D01*
X0217815Y0265600D02*
X0217815Y0245915D01*
X0218150Y0241112D02*
X0218150Y0234813D01*
X0229961Y0234813D01*
X0229961Y0241112D01*
X0218150Y0241112D01*
X0233563Y0245915D02*
X0233563Y0265600D01*
X0237717Y0238533D02*
X0244016Y0238533D01*
X0244016Y0226722D01*
X0237717Y0226722D01*
X0237717Y0238533D01*
X0180679Y0235797D02*
X0180679Y0242096D01*
X0168868Y0242096D01*
X0168868Y0235797D01*
X0180679Y0235797D01*
X0178494Y0251329D02*
X0172195Y0251329D01*
X0172195Y0263140D01*
X0178494Y0263140D01*
X0178494Y0251329D01*
X0178494Y0269872D02*
X0178494Y0273317D01*
X0172195Y0273317D02*
X0172195Y0269872D01*
X0158711Y0277982D02*
X0137844Y0277982D01*
X0137844Y0237825D01*
X0158711Y0237825D01*
X0158711Y0277982D01*
X0136703Y0292451D02*
X0136703Y0298356D01*
X0124104Y0298356D01*
X0124104Y0292451D01*
X0136703Y0292451D01*
X0128671Y0287372D02*
X0128671Y0281073D01*
X0116860Y0281073D01*
X0116860Y0287372D01*
X0128671Y0287372D01*
X0119813Y0290915D02*
X0119813Y0297215D01*
X0108002Y0297215D01*
X0108002Y0290915D01*
X0119813Y0290915D01*
X0119931Y0302018D02*
X0113632Y0302018D01*
X0113632Y0313829D01*
X0119931Y0313829D01*
X0119931Y0302018D01*
X0120719Y0305876D02*
X0120719Y0315719D01*
X0110876Y0315719D01*
X0110089Y0313829D02*
X0103789Y0313829D01*
X0103789Y0302018D01*
X0110089Y0302018D01*
X0110089Y0313829D01*
X0108002Y0276545D02*
X0108002Y0270246D01*
X0119813Y0270246D01*
X0119813Y0276545D01*
X0108002Y0276545D01*
X0104065Y0265600D02*
X0104065Y0245915D01*
X0104400Y0241112D02*
X0104400Y0234813D01*
X0116211Y0234813D01*
X0116211Y0241112D01*
X0104400Y0241112D01*
X0119813Y0245915D02*
X0119813Y0265600D01*
X0123967Y0238533D02*
X0130266Y0238533D01*
X0130266Y0226722D01*
X0123967Y0226722D01*
X0123967Y0238533D01*
X0160876Y0302018D02*
X0167175Y0302018D01*
X0167175Y0313829D01*
X0160876Y0313829D01*
X0160876Y0302018D01*
X0160089Y0305876D02*
X0160089Y0315719D01*
X0169931Y0315719D01*
X0170719Y0313829D02*
X0177018Y0313829D01*
X0177018Y0302018D01*
X0170719Y0302018D01*
X0170719Y0313829D01*
X0169931Y0355089D02*
X0160089Y0355089D01*
X0160089Y0364931D01*
X0120719Y0364931D02*
X0120719Y0355089D01*
X0110876Y0355089D01*
X0110089Y0356978D02*
X0103789Y0356978D01*
X0103789Y0368789D01*
X0110089Y0368789D01*
X0110089Y0356978D01*
X0113632Y0356978D02*
X0119931Y0356978D01*
X0119931Y0368789D01*
X0113632Y0368789D01*
X0113632Y0356978D01*
X0217539Y0356978D02*
X0223839Y0356978D01*
X0223839Y0368789D01*
X0217539Y0368789D01*
X0217539Y0356978D01*
X0224626Y0355089D02*
X0234469Y0355089D01*
X0234469Y0364931D01*
X0233681Y0368789D02*
X0227382Y0368789D01*
X0227382Y0356978D01*
X0233681Y0356978D01*
X0233681Y0368789D01*
X0273839Y0364931D02*
X0273839Y0355089D01*
X0283681Y0355089D01*
X0283681Y0315719D02*
X0273839Y0315719D01*
X0273839Y0305876D01*
X0274626Y0302018D02*
X0280925Y0302018D01*
X0280925Y0313829D01*
X0274626Y0313829D01*
X0274626Y0302018D01*
X0284469Y0302018D02*
X0284469Y0313829D01*
X0290768Y0313829D01*
X0290768Y0302018D01*
X0284469Y0302018D01*
X0328789Y0356978D02*
X0335089Y0356978D01*
X0335089Y0368789D01*
X0328789Y0368789D01*
X0328789Y0356978D01*
X0335876Y0355089D02*
X0345719Y0355089D01*
X0345719Y0364931D01*
X0344931Y0368789D02*
X0338632Y0368789D01*
X0338632Y0356978D01*
X0344931Y0356978D01*
X0344931Y0368789D01*
X0385089Y0364931D02*
X0385089Y0355089D01*
X0394931Y0355089D01*
X0271841Y0157559D02*
X0263967Y0157559D01*
X0263967Y0156575D01*
X0271841Y0156575D02*
X0271841Y0157559D01*
X0271841Y0146732D02*
X0271841Y0145748D01*
X0263967Y0145748D01*
X0263967Y0146732D01*
D12*
X0238154Y0320404D02*
X0238156Y0320467D01*
X0238162Y0320529D01*
X0238172Y0320591D01*
X0238185Y0320653D01*
X0238203Y0320713D01*
X0238224Y0320772D01*
X0238249Y0320830D01*
X0238278Y0320886D01*
X0238310Y0320940D01*
X0238345Y0320992D01*
X0238383Y0321041D01*
X0238425Y0321089D01*
X0238469Y0321133D01*
X0238517Y0321175D01*
X0238566Y0321213D01*
X0238618Y0321248D01*
X0238672Y0321280D01*
X0238728Y0321309D01*
X0238786Y0321334D01*
X0238845Y0321355D01*
X0238905Y0321373D01*
X0238967Y0321386D01*
X0239029Y0321396D01*
X0239091Y0321402D01*
X0239154Y0321404D01*
X0239217Y0321402D01*
X0239279Y0321396D01*
X0239341Y0321386D01*
X0239403Y0321373D01*
X0239463Y0321355D01*
X0239522Y0321334D01*
X0239580Y0321309D01*
X0239636Y0321280D01*
X0239690Y0321248D01*
X0239742Y0321213D01*
X0239791Y0321175D01*
X0239839Y0321133D01*
X0239883Y0321089D01*
X0239925Y0321041D01*
X0239963Y0320992D01*
X0239998Y0320940D01*
X0240030Y0320886D01*
X0240059Y0320830D01*
X0240084Y0320772D01*
X0240105Y0320713D01*
X0240123Y0320653D01*
X0240136Y0320591D01*
X0240146Y0320529D01*
X0240152Y0320467D01*
X0240154Y0320404D01*
X0240152Y0320341D01*
X0240146Y0320279D01*
X0240136Y0320217D01*
X0240123Y0320155D01*
X0240105Y0320095D01*
X0240084Y0320036D01*
X0240059Y0319978D01*
X0240030Y0319922D01*
X0239998Y0319868D01*
X0239963Y0319816D01*
X0239925Y0319767D01*
X0239883Y0319719D01*
X0239839Y0319675D01*
X0239791Y0319633D01*
X0239742Y0319595D01*
X0239690Y0319560D01*
X0239636Y0319528D01*
X0239580Y0319499D01*
X0239522Y0319474D01*
X0239463Y0319453D01*
X0239403Y0319435D01*
X0239341Y0319422D01*
X0239279Y0319412D01*
X0239217Y0319406D01*
X0239154Y0319404D01*
X0239091Y0319406D01*
X0239029Y0319412D01*
X0238967Y0319422D01*
X0238905Y0319435D01*
X0238845Y0319453D01*
X0238786Y0319474D01*
X0238728Y0319499D01*
X0238672Y0319528D01*
X0238618Y0319560D01*
X0238566Y0319595D01*
X0238517Y0319633D01*
X0238469Y0319675D01*
X0238425Y0319719D01*
X0238383Y0319767D01*
X0238345Y0319816D01*
X0238310Y0319868D01*
X0238278Y0319922D01*
X0238249Y0319978D01*
X0238224Y0320036D01*
X0238203Y0320095D01*
X0238185Y0320155D01*
X0238172Y0320217D01*
X0238162Y0320279D01*
X0238156Y0320341D01*
X0238154Y0320404D01*
X0349404Y0320404D02*
X0349406Y0320467D01*
X0349412Y0320529D01*
X0349422Y0320591D01*
X0349435Y0320653D01*
X0349453Y0320713D01*
X0349474Y0320772D01*
X0349499Y0320830D01*
X0349528Y0320886D01*
X0349560Y0320940D01*
X0349595Y0320992D01*
X0349633Y0321041D01*
X0349675Y0321089D01*
X0349719Y0321133D01*
X0349767Y0321175D01*
X0349816Y0321213D01*
X0349868Y0321248D01*
X0349922Y0321280D01*
X0349978Y0321309D01*
X0350036Y0321334D01*
X0350095Y0321355D01*
X0350155Y0321373D01*
X0350217Y0321386D01*
X0350279Y0321396D01*
X0350341Y0321402D01*
X0350404Y0321404D01*
X0350467Y0321402D01*
X0350529Y0321396D01*
X0350591Y0321386D01*
X0350653Y0321373D01*
X0350713Y0321355D01*
X0350772Y0321334D01*
X0350830Y0321309D01*
X0350886Y0321280D01*
X0350940Y0321248D01*
X0350992Y0321213D01*
X0351041Y0321175D01*
X0351089Y0321133D01*
X0351133Y0321089D01*
X0351175Y0321041D01*
X0351213Y0320992D01*
X0351248Y0320940D01*
X0351280Y0320886D01*
X0351309Y0320830D01*
X0351334Y0320772D01*
X0351355Y0320713D01*
X0351373Y0320653D01*
X0351386Y0320591D01*
X0351396Y0320529D01*
X0351402Y0320467D01*
X0351404Y0320404D01*
X0351402Y0320341D01*
X0351396Y0320279D01*
X0351386Y0320217D01*
X0351373Y0320155D01*
X0351355Y0320095D01*
X0351334Y0320036D01*
X0351309Y0319978D01*
X0351280Y0319922D01*
X0351248Y0319868D01*
X0351213Y0319816D01*
X0351175Y0319767D01*
X0351133Y0319719D01*
X0351089Y0319675D01*
X0351041Y0319633D01*
X0350992Y0319595D01*
X0350940Y0319560D01*
X0350886Y0319528D01*
X0350830Y0319499D01*
X0350772Y0319474D01*
X0350713Y0319453D01*
X0350653Y0319435D01*
X0350591Y0319422D01*
X0350529Y0319412D01*
X0350467Y0319406D01*
X0350404Y0319404D01*
X0350341Y0319406D01*
X0350279Y0319412D01*
X0350217Y0319422D01*
X0350155Y0319435D01*
X0350095Y0319453D01*
X0350036Y0319474D01*
X0349978Y0319499D01*
X0349922Y0319528D01*
X0349868Y0319560D01*
X0349816Y0319595D01*
X0349767Y0319633D01*
X0349719Y0319675D01*
X0349675Y0319719D01*
X0349633Y0319767D01*
X0349595Y0319816D01*
X0349560Y0319868D01*
X0349528Y0319922D01*
X0349499Y0319978D01*
X0349474Y0320036D01*
X0349453Y0320095D01*
X0349435Y0320155D01*
X0349422Y0320217D01*
X0349412Y0320279D01*
X0349406Y0320341D01*
X0349404Y0320404D01*
X0124404Y0320404D02*
X0124406Y0320467D01*
X0124412Y0320529D01*
X0124422Y0320591D01*
X0124435Y0320653D01*
X0124453Y0320713D01*
X0124474Y0320772D01*
X0124499Y0320830D01*
X0124528Y0320886D01*
X0124560Y0320940D01*
X0124595Y0320992D01*
X0124633Y0321041D01*
X0124675Y0321089D01*
X0124719Y0321133D01*
X0124767Y0321175D01*
X0124816Y0321213D01*
X0124868Y0321248D01*
X0124922Y0321280D01*
X0124978Y0321309D01*
X0125036Y0321334D01*
X0125095Y0321355D01*
X0125155Y0321373D01*
X0125217Y0321386D01*
X0125279Y0321396D01*
X0125341Y0321402D01*
X0125404Y0321404D01*
X0125467Y0321402D01*
X0125529Y0321396D01*
X0125591Y0321386D01*
X0125653Y0321373D01*
X0125713Y0321355D01*
X0125772Y0321334D01*
X0125830Y0321309D01*
X0125886Y0321280D01*
X0125940Y0321248D01*
X0125992Y0321213D01*
X0126041Y0321175D01*
X0126089Y0321133D01*
X0126133Y0321089D01*
X0126175Y0321041D01*
X0126213Y0320992D01*
X0126248Y0320940D01*
X0126280Y0320886D01*
X0126309Y0320830D01*
X0126334Y0320772D01*
X0126355Y0320713D01*
X0126373Y0320653D01*
X0126386Y0320591D01*
X0126396Y0320529D01*
X0126402Y0320467D01*
X0126404Y0320404D01*
X0126402Y0320341D01*
X0126396Y0320279D01*
X0126386Y0320217D01*
X0126373Y0320155D01*
X0126355Y0320095D01*
X0126334Y0320036D01*
X0126309Y0319978D01*
X0126280Y0319922D01*
X0126248Y0319868D01*
X0126213Y0319816D01*
X0126175Y0319767D01*
X0126133Y0319719D01*
X0126089Y0319675D01*
X0126041Y0319633D01*
X0125992Y0319595D01*
X0125940Y0319560D01*
X0125886Y0319528D01*
X0125830Y0319499D01*
X0125772Y0319474D01*
X0125713Y0319453D01*
X0125653Y0319435D01*
X0125591Y0319422D01*
X0125529Y0319412D01*
X0125467Y0319406D01*
X0125404Y0319404D01*
X0125341Y0319406D01*
X0125279Y0319412D01*
X0125217Y0319422D01*
X0125155Y0319435D01*
X0125095Y0319453D01*
X0125036Y0319474D01*
X0124978Y0319499D01*
X0124922Y0319528D01*
X0124868Y0319560D01*
X0124816Y0319595D01*
X0124767Y0319633D01*
X0124719Y0319675D01*
X0124675Y0319719D01*
X0124633Y0319767D01*
X0124595Y0319816D01*
X0124560Y0319868D01*
X0124528Y0319922D01*
X0124499Y0319978D01*
X0124474Y0320036D01*
X0124453Y0320095D01*
X0124435Y0320155D01*
X0124422Y0320217D01*
X0124412Y0320279D01*
X0124406Y0320341D01*
X0124404Y0320404D01*
D13*
X0139617Y0240187D02*
X0139619Y0240243D01*
X0139625Y0240298D01*
X0139635Y0240352D01*
X0139648Y0240406D01*
X0139666Y0240459D01*
X0139687Y0240510D01*
X0139711Y0240560D01*
X0139739Y0240608D01*
X0139771Y0240654D01*
X0139805Y0240698D01*
X0139843Y0240739D01*
X0139883Y0240777D01*
X0139926Y0240812D01*
X0139971Y0240844D01*
X0140019Y0240873D01*
X0140068Y0240899D01*
X0140119Y0240921D01*
X0140171Y0240939D01*
X0140225Y0240953D01*
X0140280Y0240964D01*
X0140335Y0240971D01*
X0140390Y0240974D01*
X0140446Y0240973D01*
X0140501Y0240968D01*
X0140556Y0240959D01*
X0140610Y0240947D01*
X0140663Y0240930D01*
X0140715Y0240910D01*
X0140765Y0240886D01*
X0140813Y0240859D01*
X0140860Y0240829D01*
X0140904Y0240795D01*
X0140946Y0240758D01*
X0140984Y0240718D01*
X0141021Y0240676D01*
X0141054Y0240631D01*
X0141083Y0240585D01*
X0141110Y0240536D01*
X0141132Y0240485D01*
X0141152Y0240433D01*
X0141167Y0240379D01*
X0141179Y0240325D01*
X0141187Y0240270D01*
X0141191Y0240215D01*
X0141191Y0240159D01*
X0141187Y0240104D01*
X0141179Y0240049D01*
X0141167Y0239995D01*
X0141152Y0239941D01*
X0141132Y0239889D01*
X0141110Y0239838D01*
X0141083Y0239789D01*
X0141054Y0239743D01*
X0141021Y0239698D01*
X0140984Y0239656D01*
X0140946Y0239616D01*
X0140904Y0239579D01*
X0140860Y0239545D01*
X0140813Y0239515D01*
X0140765Y0239488D01*
X0140715Y0239464D01*
X0140663Y0239444D01*
X0140610Y0239427D01*
X0140556Y0239415D01*
X0140501Y0239406D01*
X0140446Y0239401D01*
X0140390Y0239400D01*
X0140335Y0239403D01*
X0140280Y0239410D01*
X0140225Y0239421D01*
X0140171Y0239435D01*
X0140119Y0239453D01*
X0140068Y0239475D01*
X0140019Y0239501D01*
X0139971Y0239530D01*
X0139926Y0239562D01*
X0139883Y0239597D01*
X0139843Y0239635D01*
X0139805Y0239676D01*
X0139771Y0239720D01*
X0139739Y0239766D01*
X0139711Y0239814D01*
X0139687Y0239864D01*
X0139666Y0239915D01*
X0139648Y0239968D01*
X0139635Y0240022D01*
X0139625Y0240076D01*
X0139619Y0240131D01*
X0139617Y0240187D01*
X0253367Y0240187D02*
X0253369Y0240243D01*
X0253375Y0240298D01*
X0253385Y0240352D01*
X0253398Y0240406D01*
X0253416Y0240459D01*
X0253437Y0240510D01*
X0253461Y0240560D01*
X0253489Y0240608D01*
X0253521Y0240654D01*
X0253555Y0240698D01*
X0253593Y0240739D01*
X0253633Y0240777D01*
X0253676Y0240812D01*
X0253721Y0240844D01*
X0253769Y0240873D01*
X0253818Y0240899D01*
X0253869Y0240921D01*
X0253921Y0240939D01*
X0253975Y0240953D01*
X0254030Y0240964D01*
X0254085Y0240971D01*
X0254140Y0240974D01*
X0254196Y0240973D01*
X0254251Y0240968D01*
X0254306Y0240959D01*
X0254360Y0240947D01*
X0254413Y0240930D01*
X0254465Y0240910D01*
X0254515Y0240886D01*
X0254563Y0240859D01*
X0254610Y0240829D01*
X0254654Y0240795D01*
X0254696Y0240758D01*
X0254734Y0240718D01*
X0254771Y0240676D01*
X0254804Y0240631D01*
X0254833Y0240585D01*
X0254860Y0240536D01*
X0254882Y0240485D01*
X0254902Y0240433D01*
X0254917Y0240379D01*
X0254929Y0240325D01*
X0254937Y0240270D01*
X0254941Y0240215D01*
X0254941Y0240159D01*
X0254937Y0240104D01*
X0254929Y0240049D01*
X0254917Y0239995D01*
X0254902Y0239941D01*
X0254882Y0239889D01*
X0254860Y0239838D01*
X0254833Y0239789D01*
X0254804Y0239743D01*
X0254771Y0239698D01*
X0254734Y0239656D01*
X0254696Y0239616D01*
X0254654Y0239579D01*
X0254610Y0239545D01*
X0254563Y0239515D01*
X0254515Y0239488D01*
X0254465Y0239464D01*
X0254413Y0239444D01*
X0254360Y0239427D01*
X0254306Y0239415D01*
X0254251Y0239406D01*
X0254196Y0239401D01*
X0254140Y0239400D01*
X0254085Y0239403D01*
X0254030Y0239410D01*
X0253975Y0239421D01*
X0253921Y0239435D01*
X0253869Y0239453D01*
X0253818Y0239475D01*
X0253769Y0239501D01*
X0253721Y0239530D01*
X0253676Y0239562D01*
X0253633Y0239597D01*
X0253593Y0239635D01*
X0253555Y0239676D01*
X0253521Y0239720D01*
X0253489Y0239766D01*
X0253461Y0239814D01*
X0253437Y0239864D01*
X0253416Y0239915D01*
X0253398Y0239968D01*
X0253385Y0240022D01*
X0253375Y0240076D01*
X0253369Y0240131D01*
X0253367Y0240187D01*
X0364617Y0240187D02*
X0364619Y0240243D01*
X0364625Y0240298D01*
X0364635Y0240352D01*
X0364648Y0240406D01*
X0364666Y0240459D01*
X0364687Y0240510D01*
X0364711Y0240560D01*
X0364739Y0240608D01*
X0364771Y0240654D01*
X0364805Y0240698D01*
X0364843Y0240739D01*
X0364883Y0240777D01*
X0364926Y0240812D01*
X0364971Y0240844D01*
X0365019Y0240873D01*
X0365068Y0240899D01*
X0365119Y0240921D01*
X0365171Y0240939D01*
X0365225Y0240953D01*
X0365280Y0240964D01*
X0365335Y0240971D01*
X0365390Y0240974D01*
X0365446Y0240973D01*
X0365501Y0240968D01*
X0365556Y0240959D01*
X0365610Y0240947D01*
X0365663Y0240930D01*
X0365715Y0240910D01*
X0365765Y0240886D01*
X0365813Y0240859D01*
X0365860Y0240829D01*
X0365904Y0240795D01*
X0365946Y0240758D01*
X0365984Y0240718D01*
X0366021Y0240676D01*
X0366054Y0240631D01*
X0366083Y0240585D01*
X0366110Y0240536D01*
X0366132Y0240485D01*
X0366152Y0240433D01*
X0366167Y0240379D01*
X0366179Y0240325D01*
X0366187Y0240270D01*
X0366191Y0240215D01*
X0366191Y0240159D01*
X0366187Y0240104D01*
X0366179Y0240049D01*
X0366167Y0239995D01*
X0366152Y0239941D01*
X0366132Y0239889D01*
X0366110Y0239838D01*
X0366083Y0239789D01*
X0366054Y0239743D01*
X0366021Y0239698D01*
X0365984Y0239656D01*
X0365946Y0239616D01*
X0365904Y0239579D01*
X0365860Y0239545D01*
X0365813Y0239515D01*
X0365765Y0239488D01*
X0365715Y0239464D01*
X0365663Y0239444D01*
X0365610Y0239427D01*
X0365556Y0239415D01*
X0365501Y0239406D01*
X0365446Y0239401D01*
X0365390Y0239400D01*
X0365335Y0239403D01*
X0365280Y0239410D01*
X0365225Y0239421D01*
X0365171Y0239435D01*
X0365119Y0239453D01*
X0365068Y0239475D01*
X0365019Y0239501D01*
X0364971Y0239530D01*
X0364926Y0239562D01*
X0364883Y0239597D01*
X0364843Y0239635D01*
X0364805Y0239676D01*
X0364771Y0239720D01*
X0364739Y0239766D01*
X0364711Y0239814D01*
X0364687Y0239864D01*
X0364666Y0239915D01*
X0364648Y0239968D01*
X0364635Y0240022D01*
X0364625Y0240076D01*
X0364619Y0240131D01*
X0364617Y0240187D01*
D14*
X0275436Y0160843D02*
X0275436Y0158643D01*
X0274459Y0158643D01*
X0273174Y0158643D02*
X0273174Y0160843D01*
X0273785Y0160843D02*
X0272563Y0160843D01*
X0271647Y0160354D02*
X0271645Y0160311D01*
X0271640Y0160269D01*
X0271630Y0160227D01*
X0271618Y0160187D01*
X0271601Y0160147D01*
X0271581Y0160110D01*
X0271559Y0160074D01*
X0271533Y0160040D01*
X0271504Y0160008D01*
X0271472Y0159979D01*
X0271438Y0159953D01*
X0271403Y0159931D01*
X0271365Y0159911D01*
X0271325Y0159894D01*
X0271285Y0159882D01*
X0271243Y0159872D01*
X0271201Y0159867D01*
X0271158Y0159865D01*
X0271115Y0159867D01*
X0271073Y0159872D01*
X0271031Y0159882D01*
X0270991Y0159894D01*
X0270951Y0159911D01*
X0270914Y0159931D01*
X0270878Y0159953D01*
X0270844Y0159979D01*
X0270812Y0160008D01*
X0270783Y0160040D01*
X0270757Y0160074D01*
X0270735Y0160110D01*
X0270715Y0160147D01*
X0270698Y0160187D01*
X0270686Y0160227D01*
X0270676Y0160269D01*
X0270671Y0160311D01*
X0270669Y0160354D01*
X0270671Y0160397D01*
X0270676Y0160439D01*
X0270686Y0160481D01*
X0270698Y0160521D01*
X0270715Y0160561D01*
X0270735Y0160599D01*
X0270757Y0160634D01*
X0270783Y0160668D01*
X0270812Y0160700D01*
X0270844Y0160729D01*
X0270878Y0160755D01*
X0270914Y0160777D01*
X0270951Y0160797D01*
X0270991Y0160814D01*
X0271031Y0160826D01*
X0271073Y0160836D01*
X0271115Y0160841D01*
X0271158Y0160843D01*
X0271201Y0160841D01*
X0271243Y0160836D01*
X0271285Y0160826D01*
X0271325Y0160814D01*
X0271365Y0160797D01*
X0271403Y0160777D01*
X0271438Y0160755D01*
X0271472Y0160729D01*
X0271504Y0160700D01*
X0271533Y0160668D01*
X0271559Y0160634D01*
X0271581Y0160599D01*
X0271601Y0160561D01*
X0271618Y0160521D01*
X0271630Y0160481D01*
X0271640Y0160439D01*
X0271645Y0160397D01*
X0271647Y0160354D01*
X0271769Y0159254D02*
X0271767Y0159206D01*
X0271761Y0159158D01*
X0271752Y0159111D01*
X0271739Y0159065D01*
X0271722Y0159020D01*
X0271702Y0158977D01*
X0271679Y0158935D01*
X0271652Y0158895D01*
X0271623Y0158857D01*
X0271590Y0158822D01*
X0271555Y0158789D01*
X0271517Y0158760D01*
X0271477Y0158733D01*
X0271435Y0158710D01*
X0271392Y0158690D01*
X0271347Y0158673D01*
X0271301Y0158660D01*
X0271254Y0158651D01*
X0271206Y0158645D01*
X0271158Y0158643D01*
X0271110Y0158645D01*
X0271062Y0158651D01*
X0271015Y0158660D01*
X0270969Y0158673D01*
X0270924Y0158690D01*
X0270881Y0158710D01*
X0270839Y0158733D01*
X0270799Y0158760D01*
X0270761Y0158789D01*
X0270726Y0158822D01*
X0270693Y0158857D01*
X0270664Y0158895D01*
X0270637Y0158935D01*
X0270614Y0158977D01*
X0270594Y0159020D01*
X0270577Y0159065D01*
X0270564Y0159111D01*
X0270555Y0159158D01*
X0270549Y0159206D01*
X0270547Y0159254D01*
X0270549Y0159302D01*
X0270555Y0159350D01*
X0270564Y0159397D01*
X0270577Y0159443D01*
X0270594Y0159488D01*
X0270614Y0159531D01*
X0270637Y0159573D01*
X0270664Y0159613D01*
X0270693Y0159651D01*
X0270726Y0159686D01*
X0270761Y0159719D01*
X0270799Y0159748D01*
X0270839Y0159775D01*
X0270881Y0159798D01*
X0270924Y0159818D01*
X0270969Y0159835D01*
X0271015Y0159848D01*
X0271062Y0159857D01*
X0271110Y0159863D01*
X0271158Y0159865D01*
X0271206Y0159863D01*
X0271254Y0159857D01*
X0271301Y0159848D01*
X0271347Y0159835D01*
X0271392Y0159818D01*
X0271435Y0159798D01*
X0271477Y0159775D01*
X0271517Y0159748D01*
X0271555Y0159719D01*
X0271590Y0159686D01*
X0271623Y0159651D01*
X0271652Y0159613D01*
X0271679Y0159573D01*
X0271702Y0159531D01*
X0271722Y0159488D01*
X0271739Y0159443D01*
X0271752Y0159397D01*
X0271761Y0159350D01*
X0271767Y0159302D01*
X0271769Y0159254D01*
X0269609Y0158643D02*
X0268998Y0158643D01*
X0268950Y0158645D01*
X0268902Y0158651D01*
X0268855Y0158660D01*
X0268809Y0158673D01*
X0268764Y0158690D01*
X0268721Y0158710D01*
X0268679Y0158733D01*
X0268639Y0158760D01*
X0268601Y0158789D01*
X0268566Y0158822D01*
X0268533Y0158857D01*
X0268504Y0158895D01*
X0268477Y0158935D01*
X0268454Y0158977D01*
X0268434Y0159020D01*
X0268417Y0159065D01*
X0268404Y0159111D01*
X0268395Y0159158D01*
X0268389Y0159206D01*
X0268387Y0159254D01*
X0268389Y0159302D01*
X0268395Y0159350D01*
X0268404Y0159397D01*
X0268417Y0159443D01*
X0268434Y0159488D01*
X0268454Y0159531D01*
X0268477Y0159573D01*
X0268504Y0159613D01*
X0268533Y0159651D01*
X0268566Y0159686D01*
X0268601Y0159719D01*
X0268639Y0159748D01*
X0268679Y0159775D01*
X0268721Y0159798D01*
X0268764Y0159818D01*
X0268809Y0159835D01*
X0268855Y0159848D01*
X0268902Y0159857D01*
X0268950Y0159863D01*
X0268998Y0159865D01*
X0268875Y0159866D02*
X0269364Y0159866D01*
X0268875Y0159865D02*
X0268832Y0159867D01*
X0268790Y0159872D01*
X0268748Y0159882D01*
X0268708Y0159894D01*
X0268668Y0159911D01*
X0268631Y0159931D01*
X0268595Y0159953D01*
X0268561Y0159979D01*
X0268529Y0160008D01*
X0268500Y0160040D01*
X0268474Y0160074D01*
X0268452Y0160110D01*
X0268432Y0160147D01*
X0268415Y0160187D01*
X0268403Y0160227D01*
X0268393Y0160269D01*
X0268388Y0160311D01*
X0268386Y0160354D01*
X0268388Y0160397D01*
X0268393Y0160439D01*
X0268403Y0160481D01*
X0268415Y0160521D01*
X0268432Y0160561D01*
X0268452Y0160599D01*
X0268474Y0160634D01*
X0268500Y0160668D01*
X0268529Y0160700D01*
X0268561Y0160729D01*
X0268595Y0160755D01*
X0268631Y0160777D01*
X0268668Y0160797D01*
X0268708Y0160814D01*
X0268748Y0160826D01*
X0268790Y0160836D01*
X0268832Y0160841D01*
X0268875Y0160843D01*
X0269609Y0160843D01*
X0267449Y0160843D02*
X0266715Y0160843D01*
X0266672Y0160841D01*
X0266630Y0160836D01*
X0266588Y0160826D01*
X0266548Y0160814D01*
X0266508Y0160797D01*
X0266471Y0160777D01*
X0266435Y0160755D01*
X0266401Y0160729D01*
X0266369Y0160700D01*
X0266340Y0160668D01*
X0266314Y0160634D01*
X0266292Y0160599D01*
X0266272Y0160561D01*
X0266255Y0160521D01*
X0266243Y0160481D01*
X0266233Y0160439D01*
X0266228Y0160397D01*
X0266226Y0160354D01*
X0266228Y0160311D01*
X0266233Y0160269D01*
X0266243Y0160227D01*
X0266255Y0160187D01*
X0266272Y0160147D01*
X0266292Y0160110D01*
X0266314Y0160074D01*
X0266340Y0160040D01*
X0266369Y0160008D01*
X0266401Y0159979D01*
X0266435Y0159953D01*
X0266471Y0159931D01*
X0266508Y0159911D01*
X0266548Y0159894D01*
X0266588Y0159882D01*
X0266630Y0159872D01*
X0266672Y0159867D01*
X0266715Y0159865D01*
X0266715Y0159866D02*
X0267204Y0159866D01*
X0266838Y0159865D02*
X0266790Y0159863D01*
X0266742Y0159857D01*
X0266695Y0159848D01*
X0266649Y0159835D01*
X0266604Y0159818D01*
X0266561Y0159798D01*
X0266519Y0159775D01*
X0266479Y0159748D01*
X0266441Y0159719D01*
X0266406Y0159686D01*
X0266373Y0159651D01*
X0266344Y0159613D01*
X0266317Y0159573D01*
X0266294Y0159531D01*
X0266274Y0159488D01*
X0266257Y0159443D01*
X0266244Y0159397D01*
X0266235Y0159350D01*
X0266229Y0159302D01*
X0266227Y0159254D01*
X0266229Y0159206D01*
X0266235Y0159158D01*
X0266244Y0159111D01*
X0266257Y0159065D01*
X0266274Y0159020D01*
X0266294Y0158977D01*
X0266317Y0158935D01*
X0266344Y0158895D01*
X0266373Y0158857D01*
X0266406Y0158822D01*
X0266441Y0158789D01*
X0266479Y0158760D01*
X0266519Y0158733D01*
X0266561Y0158710D01*
X0266604Y0158690D01*
X0266649Y0158673D01*
X0266695Y0158660D01*
X0266742Y0158651D01*
X0266790Y0158645D01*
X0266838Y0158643D01*
X0267449Y0158643D01*
X0265289Y0158643D02*
X0264555Y0158643D01*
X0264512Y0158645D01*
X0264470Y0158650D01*
X0264428Y0158660D01*
X0264388Y0158672D01*
X0264348Y0158689D01*
X0264311Y0158709D01*
X0264275Y0158731D01*
X0264241Y0158757D01*
X0264209Y0158786D01*
X0264180Y0158818D01*
X0264154Y0158852D01*
X0264132Y0158887D01*
X0264112Y0158925D01*
X0264095Y0158965D01*
X0264083Y0159005D01*
X0264073Y0159047D01*
X0264068Y0159089D01*
X0264066Y0159132D01*
X0264067Y0159132D02*
X0264067Y0159377D01*
X0264066Y0159377D02*
X0264068Y0159420D01*
X0264073Y0159462D01*
X0264083Y0159504D01*
X0264095Y0159544D01*
X0264112Y0159584D01*
X0264132Y0159622D01*
X0264154Y0159657D01*
X0264180Y0159691D01*
X0264209Y0159723D01*
X0264241Y0159752D01*
X0264275Y0159778D01*
X0264311Y0159800D01*
X0264348Y0159820D01*
X0264388Y0159837D01*
X0264428Y0159849D01*
X0264470Y0159859D01*
X0264512Y0159864D01*
X0264555Y0159866D01*
X0265289Y0159866D01*
X0265289Y0160843D01*
X0264067Y0160843D01*
X0256806Y0153602D02*
X0252352Y0158056D01*
X0244001Y0149705D01*
X0248455Y0145251D01*
X0256806Y0153602D01*
X0257352Y0153056D02*
X0249001Y0144705D01*
X0253455Y0140251D01*
X0261806Y0148602D01*
X0257352Y0153056D01*
X0264311Y0144664D02*
X0264372Y0144662D01*
X0264434Y0144656D01*
X0264494Y0144647D01*
X0264554Y0144633D01*
X0264613Y0144616D01*
X0264671Y0144595D01*
X0264727Y0144571D01*
X0264782Y0144543D01*
X0264835Y0144512D01*
X0264886Y0144477D01*
X0264934Y0144440D01*
X0264980Y0144399D01*
X0265024Y0144355D01*
X0265065Y0144309D01*
X0265102Y0144261D01*
X0265137Y0144210D01*
X0265168Y0144157D01*
X0265196Y0144102D01*
X0265220Y0144046D01*
X0265241Y0143988D01*
X0265258Y0143929D01*
X0265272Y0143869D01*
X0265281Y0143809D01*
X0265287Y0143747D01*
X0265289Y0143686D01*
X0265289Y0143075D01*
X0265289Y0143686D02*
X0264555Y0143686D01*
X0264512Y0143684D01*
X0264470Y0143679D01*
X0264428Y0143669D01*
X0264388Y0143657D01*
X0264348Y0143640D01*
X0264311Y0143620D01*
X0264275Y0143598D01*
X0264241Y0143572D01*
X0264209Y0143543D01*
X0264180Y0143511D01*
X0264154Y0143477D01*
X0264132Y0143442D01*
X0264112Y0143404D01*
X0264095Y0143364D01*
X0264083Y0143324D01*
X0264073Y0143282D01*
X0264068Y0143240D01*
X0264066Y0143197D01*
X0264067Y0143197D02*
X0264067Y0143075D01*
X0264069Y0143027D01*
X0264075Y0142979D01*
X0264084Y0142932D01*
X0264097Y0142886D01*
X0264114Y0142841D01*
X0264134Y0142798D01*
X0264157Y0142756D01*
X0264184Y0142716D01*
X0264213Y0142678D01*
X0264246Y0142643D01*
X0264281Y0142610D01*
X0264319Y0142581D01*
X0264359Y0142554D01*
X0264401Y0142531D01*
X0264444Y0142511D01*
X0264489Y0142494D01*
X0264535Y0142481D01*
X0264582Y0142472D01*
X0264630Y0142466D01*
X0264678Y0142464D01*
X0264726Y0142466D01*
X0264774Y0142472D01*
X0264821Y0142481D01*
X0264867Y0142494D01*
X0264912Y0142511D01*
X0264955Y0142531D01*
X0264997Y0142554D01*
X0265037Y0142581D01*
X0265075Y0142610D01*
X0265110Y0142643D01*
X0265143Y0142678D01*
X0265172Y0142716D01*
X0265199Y0142756D01*
X0265222Y0142798D01*
X0265242Y0142841D01*
X0265259Y0142886D01*
X0265272Y0142932D01*
X0265281Y0142979D01*
X0265287Y0143027D01*
X0265289Y0143075D01*
X0266388Y0143380D02*
X0266694Y0143564D01*
X0266999Y0143747D01*
X0267182Y0142831D02*
X0267131Y0142803D01*
X0267079Y0142777D01*
X0267025Y0142755D01*
X0266970Y0142736D01*
X0266914Y0142721D01*
X0266857Y0142709D01*
X0266800Y0142700D01*
X0266742Y0142695D01*
X0266684Y0142693D01*
X0266625Y0142695D01*
X0266568Y0142700D01*
X0266510Y0142709D01*
X0266694Y0142464D02*
X0266694Y0144664D01*
X0266877Y0144419D02*
X0266912Y0144411D01*
X0266947Y0144399D01*
X0266981Y0144383D01*
X0267012Y0144364D01*
X0267042Y0144343D01*
X0267069Y0144318D01*
X0267094Y0144291D01*
X0267116Y0144261D01*
X0267134Y0144229D01*
X0267150Y0144196D01*
X0267162Y0144161D01*
X0267170Y0144125D01*
X0267175Y0144089D01*
X0267176Y0144052D01*
X0267173Y0144015D01*
X0267167Y0143979D01*
X0267157Y0143944D01*
X0267143Y0143909D01*
X0267127Y0143877D01*
X0267107Y0143846D01*
X0267084Y0143817D01*
X0267058Y0143791D01*
X0267029Y0143768D01*
X0266999Y0143747D01*
X0266877Y0144419D02*
X0266819Y0144428D01*
X0266762Y0144433D01*
X0266703Y0144435D01*
X0266645Y0144433D01*
X0266587Y0144428D01*
X0266530Y0144419D01*
X0266473Y0144407D01*
X0266417Y0144392D01*
X0266362Y0144373D01*
X0266308Y0144351D01*
X0266256Y0144325D01*
X0266205Y0144297D01*
X0266388Y0143380D02*
X0266358Y0143359D01*
X0266329Y0143336D01*
X0266303Y0143310D01*
X0266280Y0143281D01*
X0266260Y0143250D01*
X0266244Y0143218D01*
X0266230Y0143183D01*
X0266220Y0143148D01*
X0266214Y0143112D01*
X0266211Y0143075D01*
X0266212Y0143038D01*
X0266217Y0143002D01*
X0266225Y0142966D01*
X0266237Y0142931D01*
X0266253Y0142898D01*
X0266271Y0142866D01*
X0266293Y0142836D01*
X0266318Y0142809D01*
X0266345Y0142784D01*
X0266375Y0142763D01*
X0266406Y0142744D01*
X0266440Y0142728D01*
X0266475Y0142716D01*
X0266510Y0142708D01*
X0268171Y0143075D02*
X0268171Y0144664D01*
X0269393Y0144664D02*
X0269393Y0143075D01*
X0269391Y0143027D01*
X0269385Y0142979D01*
X0269376Y0142932D01*
X0269363Y0142886D01*
X0269346Y0142841D01*
X0269326Y0142798D01*
X0269303Y0142756D01*
X0269276Y0142716D01*
X0269247Y0142678D01*
X0269214Y0142643D01*
X0269179Y0142610D01*
X0269141Y0142581D01*
X0269101Y0142554D01*
X0269059Y0142531D01*
X0269016Y0142511D01*
X0268971Y0142494D01*
X0268925Y0142481D01*
X0268878Y0142472D01*
X0268830Y0142466D01*
X0268782Y0142464D01*
X0268734Y0142466D01*
X0268686Y0142472D01*
X0268639Y0142481D01*
X0268593Y0142494D01*
X0268548Y0142511D01*
X0268505Y0142531D01*
X0268463Y0142554D01*
X0268423Y0142581D01*
X0268385Y0142610D01*
X0268350Y0142643D01*
X0268317Y0142678D01*
X0268288Y0142716D01*
X0268261Y0142756D01*
X0268238Y0142798D01*
X0268218Y0142841D01*
X0268201Y0142886D01*
X0268188Y0142932D01*
X0268179Y0142979D01*
X0268173Y0143027D01*
X0268171Y0143075D01*
X0277254Y0138248D02*
X0283553Y0138248D01*
X0283553Y0150059D01*
X0277254Y0150059D01*
X0277254Y0138248D01*
D15*
X0278104Y0137679D02*
X0278104Y0136657D01*
X0278106Y0136595D01*
X0278111Y0136534D01*
X0278121Y0136473D01*
X0278134Y0136412D01*
X0278150Y0136353D01*
X0278170Y0136295D01*
X0278194Y0136238D01*
X0278221Y0136182D01*
X0278251Y0136128D01*
X0278285Y0136076D01*
X0278321Y0136027D01*
X0278361Y0135979D01*
X0278403Y0135934D01*
X0278448Y0135892D01*
X0278496Y0135852D01*
X0278545Y0135816D01*
X0278597Y0135782D01*
X0278651Y0135752D01*
X0278707Y0135725D01*
X0278764Y0135701D01*
X0278822Y0135681D01*
X0278881Y0135665D01*
X0278942Y0135652D01*
X0279003Y0135642D01*
X0279064Y0135637D01*
X0279126Y0135635D01*
X0281681Y0135635D01*
X0281743Y0135637D01*
X0281804Y0135642D01*
X0281865Y0135652D01*
X0281926Y0135665D01*
X0281985Y0135681D01*
X0282043Y0135701D01*
X0282100Y0135725D01*
X0282156Y0135752D01*
X0282210Y0135782D01*
X0282262Y0135816D01*
X0282311Y0135852D01*
X0282359Y0135892D01*
X0282404Y0135934D01*
X0282446Y0135979D01*
X0282485Y0136027D01*
X0282522Y0136076D01*
X0282556Y0136128D01*
X0282586Y0136182D01*
X0282613Y0136238D01*
X0282637Y0136295D01*
X0282657Y0136353D01*
X0282673Y0136412D01*
X0282686Y0136473D01*
X0282696Y0136534D01*
X0282701Y0136595D01*
X0282703Y0136657D01*
X0282704Y0136657D02*
X0282704Y0137679D01*
X0280660Y0141570D02*
X0280707Y0141617D01*
X0280757Y0141661D01*
X0280809Y0141703D01*
X0280863Y0141742D01*
X0280919Y0141777D01*
X0280977Y0141810D01*
X0281037Y0141840D01*
X0281098Y0141866D01*
X0281161Y0141889D01*
X0281225Y0141908D01*
X0281289Y0141924D01*
X0281355Y0141937D01*
X0281421Y0141946D01*
X0281487Y0141951D01*
X0281554Y0141953D01*
X0280659Y0141570D02*
X0278104Y0139398D01*
X0278104Y0141954D01*
X0278104Y0145176D02*
X0282704Y0146454D01*
X0282704Y0143898D01*
X0282192Y0143898D01*
X0283854Y0144354D02*
X0286409Y0144354D01*
X0284237Y0146909D01*
X0285004Y0148953D02*
X0285078Y0148951D01*
X0285152Y0148946D01*
X0285226Y0148936D01*
X0285299Y0148923D01*
X0285372Y0148907D01*
X0285443Y0148886D01*
X0285513Y0148862D01*
X0285582Y0148835D01*
X0285650Y0148804D01*
X0285716Y0148770D01*
X0285780Y0148733D01*
X0285842Y0148692D01*
X0285903Y0148648D01*
X0285960Y0148602D01*
X0286016Y0148552D01*
X0286069Y0148500D01*
X0286119Y0148445D01*
X0286166Y0148388D01*
X0286210Y0148328D01*
X0286252Y0148266D01*
X0286290Y0148203D01*
X0286325Y0148137D01*
X0286356Y0148070D01*
X0286384Y0148001D01*
X0286409Y0147931D01*
X0284237Y0146910D02*
X0284190Y0146957D01*
X0284146Y0147007D01*
X0284104Y0147059D01*
X0284065Y0147113D01*
X0284030Y0147169D01*
X0283997Y0147227D01*
X0283967Y0147287D01*
X0283941Y0147348D01*
X0283918Y0147411D01*
X0283899Y0147475D01*
X0283883Y0147539D01*
X0283870Y0147605D01*
X0283861Y0147671D01*
X0283856Y0147737D01*
X0283854Y0147804D01*
X0283856Y0147871D01*
X0283862Y0147938D01*
X0283871Y0148004D01*
X0283885Y0148069D01*
X0283902Y0148134D01*
X0283923Y0148197D01*
X0283948Y0148259D01*
X0283976Y0148320D01*
X0284008Y0148379D01*
X0284043Y0148436D01*
X0284082Y0148491D01*
X0284123Y0148543D01*
X0284168Y0148593D01*
X0284215Y0148640D01*
X0284265Y0148685D01*
X0284317Y0148726D01*
X0284372Y0148765D01*
X0284429Y0148800D01*
X0284488Y0148832D01*
X0284549Y0148860D01*
X0284611Y0148885D01*
X0284674Y0148906D01*
X0284739Y0148923D01*
X0284804Y0148937D01*
X0284870Y0148946D01*
X0284937Y0148952D01*
X0285004Y0148954D01*
X0288128Y0148954D02*
X0289150Y0148954D01*
X0289150Y0148953D02*
X0289212Y0148951D01*
X0289273Y0148946D01*
X0289334Y0148936D01*
X0289395Y0148923D01*
X0289454Y0148907D01*
X0289512Y0148887D01*
X0289569Y0148863D01*
X0289625Y0148836D01*
X0289679Y0148806D01*
X0289731Y0148772D01*
X0289780Y0148736D01*
X0289828Y0148696D01*
X0289873Y0148654D01*
X0289915Y0148609D01*
X0289955Y0148561D01*
X0289991Y0148512D01*
X0290025Y0148460D01*
X0290055Y0148406D01*
X0290082Y0148350D01*
X0290106Y0148293D01*
X0290126Y0148235D01*
X0290142Y0148176D01*
X0290155Y0148115D01*
X0290165Y0148054D01*
X0290170Y0147993D01*
X0290172Y0147931D01*
X0290172Y0145376D01*
X0290170Y0145314D01*
X0290165Y0145253D01*
X0290155Y0145192D01*
X0290142Y0145131D01*
X0290126Y0145072D01*
X0290106Y0145014D01*
X0290082Y0144957D01*
X0290055Y0144901D01*
X0290025Y0144847D01*
X0289991Y0144795D01*
X0289955Y0144746D01*
X0289915Y0144698D01*
X0289873Y0144653D01*
X0289828Y0144611D01*
X0289780Y0144571D01*
X0289731Y0144535D01*
X0289679Y0144501D01*
X0289625Y0144471D01*
X0289569Y0144444D01*
X0289512Y0144420D01*
X0289454Y0144400D01*
X0289395Y0144384D01*
X0289334Y0144371D01*
X0289273Y0144361D01*
X0289212Y0144356D01*
X0289150Y0144354D01*
X0288128Y0144354D01*
X0281909Y0145631D02*
X0281909Y0146909D01*
X0280376Y0146909D01*
X0281909Y0146909D02*
X0281907Y0146998D01*
X0281901Y0147087D01*
X0281892Y0147176D01*
X0281878Y0147264D01*
X0281861Y0147351D01*
X0281839Y0147438D01*
X0281814Y0147524D01*
X0281786Y0147608D01*
X0281753Y0147691D01*
X0281717Y0147773D01*
X0281678Y0147853D01*
X0281635Y0147931D01*
X0281589Y0148007D01*
X0281539Y0148081D01*
X0281487Y0148153D01*
X0281431Y0148223D01*
X0281372Y0148290D01*
X0281310Y0148354D01*
X0281246Y0148416D01*
X0281179Y0148475D01*
X0281109Y0148531D01*
X0281037Y0148583D01*
X0280963Y0148633D01*
X0280887Y0148679D01*
X0280809Y0148722D01*
X0280729Y0148761D01*
X0280647Y0148797D01*
X0280564Y0148830D01*
X0280480Y0148858D01*
X0280394Y0148883D01*
X0280307Y0148905D01*
X0280220Y0148922D01*
X0280132Y0148936D01*
X0280043Y0148945D01*
X0279954Y0148951D01*
X0279865Y0148953D01*
X0280376Y0146909D02*
X0280314Y0146907D01*
X0280253Y0146902D01*
X0280192Y0146892D01*
X0280131Y0146879D01*
X0280072Y0146863D01*
X0280014Y0146843D01*
X0279957Y0146819D01*
X0279901Y0146792D01*
X0279847Y0146762D01*
X0279795Y0146728D01*
X0279746Y0146692D01*
X0279698Y0146652D01*
X0279653Y0146610D01*
X0279611Y0146565D01*
X0279571Y0146517D01*
X0279535Y0146468D01*
X0279501Y0146416D01*
X0279471Y0146362D01*
X0279444Y0146306D01*
X0279420Y0146249D01*
X0279400Y0146191D01*
X0279384Y0146132D01*
X0279371Y0146071D01*
X0279361Y0146010D01*
X0279356Y0145949D01*
X0279354Y0145887D01*
X0279354Y0145631D01*
X0279353Y0145631D02*
X0279355Y0145561D01*
X0279361Y0145490D01*
X0279370Y0145421D01*
X0279384Y0145352D01*
X0279401Y0145283D01*
X0279422Y0145216D01*
X0279447Y0145150D01*
X0279475Y0145086D01*
X0279507Y0145023D01*
X0279542Y0144962D01*
X0279581Y0144903D01*
X0279622Y0144846D01*
X0279667Y0144792D01*
X0279715Y0144740D01*
X0279765Y0144691D01*
X0279819Y0144644D01*
X0279874Y0144601D01*
X0279932Y0144561D01*
X0279992Y0144524D01*
X0280054Y0144491D01*
X0280118Y0144461D01*
X0280183Y0144434D01*
X0280249Y0144411D01*
X0280317Y0144392D01*
X0280386Y0144377D01*
X0280455Y0144365D01*
X0280525Y0144357D01*
X0280596Y0144353D01*
X0280666Y0144353D01*
X0280737Y0144357D01*
X0280807Y0144365D01*
X0280876Y0144377D01*
X0280945Y0144392D01*
X0281013Y0144411D01*
X0281079Y0144434D01*
X0281144Y0144461D01*
X0281208Y0144491D01*
X0281270Y0144524D01*
X0281330Y0144561D01*
X0281388Y0144601D01*
X0281443Y0144644D01*
X0281497Y0144691D01*
X0281547Y0144740D01*
X0281595Y0144792D01*
X0281640Y0144846D01*
X0281681Y0144903D01*
X0281720Y0144962D01*
X0281755Y0145023D01*
X0281787Y0145086D01*
X0281815Y0145150D01*
X0281840Y0145216D01*
X0281861Y0145283D01*
X0281878Y0145352D01*
X0281892Y0145421D01*
X0281901Y0145490D01*
X0281907Y0145561D01*
X0281909Y0145631D01*
X0281554Y0141954D02*
X0281621Y0141952D01*
X0281688Y0141946D01*
X0281754Y0141937D01*
X0281819Y0141923D01*
X0281884Y0141906D01*
X0281947Y0141885D01*
X0282009Y0141860D01*
X0282070Y0141832D01*
X0282129Y0141800D01*
X0282186Y0141765D01*
X0282241Y0141726D01*
X0282293Y0141685D01*
X0282343Y0141640D01*
X0282390Y0141593D01*
X0282435Y0141543D01*
X0282476Y0141491D01*
X0282515Y0141436D01*
X0282550Y0141379D01*
X0282582Y0141320D01*
X0282610Y0141259D01*
X0282635Y0141197D01*
X0282656Y0141134D01*
X0282673Y0141069D01*
X0282687Y0141004D01*
X0282696Y0140938D01*
X0282702Y0140871D01*
X0282704Y0140804D01*
X0282703Y0140804D02*
X0282701Y0140730D01*
X0282696Y0140656D01*
X0282686Y0140582D01*
X0282673Y0140509D01*
X0282657Y0140436D01*
X0282636Y0140365D01*
X0282612Y0140295D01*
X0282585Y0140226D01*
X0282554Y0140158D01*
X0282520Y0140092D01*
X0282483Y0140028D01*
X0282442Y0139966D01*
X0282398Y0139906D01*
X0282352Y0139848D01*
X0282302Y0139792D01*
X0282250Y0139739D01*
X0282195Y0139689D01*
X0282138Y0139642D01*
X0282078Y0139598D01*
X0282016Y0139556D01*
X0281953Y0139518D01*
X0281887Y0139483D01*
X0281820Y0139452D01*
X0281751Y0139424D01*
X0281681Y0139399D01*
X0250172Y0155376D02*
X0250172Y0157931D01*
X0250170Y0157993D01*
X0250165Y0158054D01*
X0250155Y0158115D01*
X0250142Y0158176D01*
X0250126Y0158235D01*
X0250106Y0158293D01*
X0250082Y0158350D01*
X0250055Y0158406D01*
X0250025Y0158460D01*
X0249991Y0158512D01*
X0249955Y0158561D01*
X0249915Y0158609D01*
X0249873Y0158654D01*
X0249828Y0158696D01*
X0249780Y0158736D01*
X0249731Y0158772D01*
X0249679Y0158806D01*
X0249625Y0158836D01*
X0249569Y0158863D01*
X0249512Y0158887D01*
X0249454Y0158907D01*
X0249395Y0158923D01*
X0249334Y0158936D01*
X0249273Y0158946D01*
X0249212Y0158951D01*
X0249150Y0158953D01*
X0249150Y0158954D02*
X0248128Y0158954D01*
X0246409Y0158954D02*
X0244876Y0158954D01*
X0244876Y0158953D02*
X0244813Y0158951D01*
X0244750Y0158945D01*
X0244688Y0158936D01*
X0244627Y0158922D01*
X0244566Y0158905D01*
X0244507Y0158884D01*
X0244449Y0158859D01*
X0244392Y0158831D01*
X0244338Y0158800D01*
X0244286Y0158765D01*
X0244235Y0158727D01*
X0244187Y0158686D01*
X0244142Y0158642D01*
X0244100Y0158596D01*
X0244060Y0158547D01*
X0244024Y0158496D01*
X0243991Y0158442D01*
X0243961Y0158387D01*
X0243935Y0158329D01*
X0243912Y0158271D01*
X0243893Y0158211D01*
X0243878Y0158150D01*
X0243866Y0158088D01*
X0243858Y0158025D01*
X0243854Y0157962D01*
X0243854Y0157900D01*
X0243858Y0157837D01*
X0243866Y0157774D01*
X0243878Y0157712D01*
X0243893Y0157651D01*
X0243912Y0157591D01*
X0243935Y0157533D01*
X0243961Y0157475D01*
X0243991Y0157420D01*
X0244024Y0157366D01*
X0244060Y0157315D01*
X0244100Y0157266D01*
X0244142Y0157220D01*
X0244187Y0157176D01*
X0244235Y0157135D01*
X0244286Y0157097D01*
X0244338Y0157062D01*
X0244392Y0157031D01*
X0244449Y0157003D01*
X0244507Y0156978D01*
X0244566Y0156957D01*
X0244627Y0156940D01*
X0244688Y0156926D01*
X0244750Y0156917D01*
X0244813Y0156911D01*
X0244876Y0156909D01*
X0245898Y0156909D01*
X0245131Y0156909D02*
X0245061Y0156907D01*
X0244990Y0156901D01*
X0244921Y0156892D01*
X0244852Y0156878D01*
X0244783Y0156861D01*
X0244716Y0156840D01*
X0244650Y0156815D01*
X0244586Y0156787D01*
X0244523Y0156755D01*
X0244462Y0156720D01*
X0244403Y0156681D01*
X0244346Y0156640D01*
X0244292Y0156595D01*
X0244240Y0156547D01*
X0244191Y0156497D01*
X0244144Y0156443D01*
X0244101Y0156388D01*
X0244061Y0156330D01*
X0244024Y0156270D01*
X0243991Y0156208D01*
X0243961Y0156144D01*
X0243934Y0156079D01*
X0243911Y0156013D01*
X0243892Y0155945D01*
X0243877Y0155876D01*
X0243865Y0155807D01*
X0243857Y0155737D01*
X0243853Y0155666D01*
X0243853Y0155596D01*
X0243857Y0155525D01*
X0243865Y0155455D01*
X0243877Y0155386D01*
X0243892Y0155317D01*
X0243911Y0155249D01*
X0243934Y0155183D01*
X0243961Y0155118D01*
X0243991Y0155054D01*
X0244024Y0154992D01*
X0244061Y0154932D01*
X0244101Y0154874D01*
X0244144Y0154819D01*
X0244191Y0154765D01*
X0244240Y0154715D01*
X0244292Y0154667D01*
X0244346Y0154622D01*
X0244403Y0154581D01*
X0244462Y0154542D01*
X0244523Y0154507D01*
X0244586Y0154475D01*
X0244650Y0154447D01*
X0244716Y0154422D01*
X0244783Y0154401D01*
X0244852Y0154384D01*
X0244921Y0154370D01*
X0244990Y0154361D01*
X0245061Y0154355D01*
X0245131Y0154353D01*
X0245131Y0154354D02*
X0246409Y0154354D01*
X0248128Y0154354D02*
X0249150Y0154354D01*
X0249212Y0154356D01*
X0249273Y0154361D01*
X0249334Y0154371D01*
X0249395Y0154384D01*
X0249454Y0154400D01*
X0249512Y0154420D01*
X0249569Y0154444D01*
X0249625Y0154471D01*
X0249679Y0154501D01*
X0249731Y0154535D01*
X0249780Y0154571D01*
X0249828Y0154611D01*
X0249873Y0154653D01*
X0249915Y0154698D01*
X0249955Y0154746D01*
X0249991Y0154795D01*
X0250025Y0154847D01*
X0250055Y0154901D01*
X0250082Y0154957D01*
X0250106Y0155014D01*
X0250126Y0155072D01*
X0250142Y0155131D01*
X0250155Y0155192D01*
X0250165Y0155253D01*
X0250170Y0155314D01*
X0250172Y0155376D01*
X0241909Y0155376D02*
X0240887Y0158954D01*
X0240120Y0156398D02*
X0240120Y0154354D01*
X0239354Y0155376D02*
X0241909Y0155376D01*
X0252876Y0174354D02*
X0255431Y0174354D01*
X0255493Y0174356D01*
X0255554Y0174361D01*
X0255615Y0174371D01*
X0255676Y0174384D01*
X0255735Y0174400D01*
X0255793Y0174420D01*
X0255850Y0174444D01*
X0255906Y0174471D01*
X0255960Y0174501D01*
X0256012Y0174535D01*
X0256061Y0174571D01*
X0256109Y0174611D01*
X0256154Y0174653D01*
X0256196Y0174698D01*
X0256235Y0174746D01*
X0256272Y0174795D01*
X0256306Y0174847D01*
X0256336Y0174901D01*
X0256363Y0174957D01*
X0256387Y0175014D01*
X0256407Y0175072D01*
X0256423Y0175131D01*
X0256436Y0175192D01*
X0256446Y0175253D01*
X0256451Y0175314D01*
X0256453Y0175376D01*
X0256454Y0175376D02*
X0256454Y0176398D01*
X0256454Y0178117D02*
X0256454Y0179650D01*
X0256453Y0179650D02*
X0256451Y0179713D01*
X0256445Y0179776D01*
X0256436Y0179838D01*
X0256422Y0179899D01*
X0256405Y0179960D01*
X0256384Y0180019D01*
X0256359Y0180077D01*
X0256331Y0180134D01*
X0256300Y0180188D01*
X0256265Y0180240D01*
X0256227Y0180291D01*
X0256186Y0180339D01*
X0256142Y0180384D01*
X0256096Y0180426D01*
X0256047Y0180466D01*
X0255996Y0180502D01*
X0255942Y0180535D01*
X0255887Y0180565D01*
X0255829Y0180591D01*
X0255771Y0180614D01*
X0255711Y0180633D01*
X0255650Y0180648D01*
X0255588Y0180660D01*
X0255525Y0180668D01*
X0255462Y0180672D01*
X0255400Y0180672D01*
X0255337Y0180668D01*
X0255274Y0180660D01*
X0255212Y0180648D01*
X0255151Y0180633D01*
X0255091Y0180614D01*
X0255033Y0180591D01*
X0254975Y0180565D01*
X0254920Y0180535D01*
X0254866Y0180502D01*
X0254815Y0180466D01*
X0254766Y0180426D01*
X0254720Y0180384D01*
X0254676Y0180339D01*
X0254635Y0180291D01*
X0254597Y0180240D01*
X0254562Y0180188D01*
X0254531Y0180134D01*
X0254503Y0180077D01*
X0254478Y0180019D01*
X0254457Y0179960D01*
X0254440Y0179899D01*
X0254426Y0179838D01*
X0254417Y0179776D01*
X0254411Y0179713D01*
X0254409Y0179650D01*
X0254409Y0178628D01*
X0254409Y0179394D02*
X0254407Y0179464D01*
X0254401Y0179535D01*
X0254392Y0179604D01*
X0254378Y0179673D01*
X0254361Y0179742D01*
X0254340Y0179809D01*
X0254315Y0179875D01*
X0254287Y0179939D01*
X0254255Y0180002D01*
X0254220Y0180063D01*
X0254181Y0180122D01*
X0254140Y0180179D01*
X0254095Y0180233D01*
X0254047Y0180285D01*
X0253997Y0180334D01*
X0253943Y0180381D01*
X0253888Y0180424D01*
X0253830Y0180464D01*
X0253770Y0180501D01*
X0253708Y0180534D01*
X0253644Y0180564D01*
X0253579Y0180591D01*
X0253513Y0180614D01*
X0253445Y0180633D01*
X0253376Y0180648D01*
X0253307Y0180660D01*
X0253237Y0180668D01*
X0253166Y0180672D01*
X0253096Y0180672D01*
X0253025Y0180668D01*
X0252955Y0180660D01*
X0252886Y0180648D01*
X0252817Y0180633D01*
X0252749Y0180614D01*
X0252683Y0180591D01*
X0252618Y0180564D01*
X0252554Y0180534D01*
X0252492Y0180501D01*
X0252432Y0180464D01*
X0252374Y0180424D01*
X0252319Y0180381D01*
X0252265Y0180334D01*
X0252215Y0180285D01*
X0252167Y0180233D01*
X0252122Y0180179D01*
X0252081Y0180122D01*
X0252042Y0180063D01*
X0252007Y0180002D01*
X0251975Y0179939D01*
X0251947Y0179875D01*
X0251922Y0179809D01*
X0251901Y0179742D01*
X0251884Y0179673D01*
X0251870Y0179604D01*
X0251861Y0179535D01*
X0251855Y0179464D01*
X0251853Y0179394D01*
X0251854Y0179394D02*
X0251854Y0178117D01*
X0251854Y0176398D02*
X0251854Y0175376D01*
X0251856Y0175314D01*
X0251861Y0175253D01*
X0251871Y0175192D01*
X0251884Y0175131D01*
X0251900Y0175072D01*
X0251920Y0175014D01*
X0251944Y0174957D01*
X0251971Y0174901D01*
X0252001Y0174847D01*
X0252035Y0174795D01*
X0252071Y0174746D01*
X0252111Y0174698D01*
X0252153Y0174653D01*
X0252198Y0174611D01*
X0252246Y0174571D01*
X0252295Y0174535D01*
X0252347Y0174501D01*
X0252401Y0174471D01*
X0252457Y0174444D01*
X0252514Y0174420D01*
X0252572Y0174400D01*
X0252631Y0174384D01*
X0252692Y0174371D01*
X0252753Y0174361D01*
X0252814Y0174356D01*
X0252876Y0174354D01*
X0251854Y0182617D02*
X0251854Y0185172D01*
X0251854Y0182617D02*
X0254409Y0184789D01*
X0256453Y0184022D02*
X0256451Y0183948D01*
X0256446Y0183874D01*
X0256436Y0183800D01*
X0256423Y0183727D01*
X0256407Y0183654D01*
X0256386Y0183583D01*
X0256362Y0183513D01*
X0256335Y0183444D01*
X0256304Y0183376D01*
X0256270Y0183310D01*
X0256233Y0183246D01*
X0256192Y0183184D01*
X0256148Y0183124D01*
X0256102Y0183066D01*
X0256052Y0183010D01*
X0256000Y0182957D01*
X0255945Y0182907D01*
X0255888Y0182860D01*
X0255828Y0182816D01*
X0255766Y0182774D01*
X0255703Y0182736D01*
X0255637Y0182701D01*
X0255570Y0182670D01*
X0255501Y0182642D01*
X0255431Y0182617D01*
X0254410Y0184789D02*
X0254457Y0184836D01*
X0254507Y0184880D01*
X0254559Y0184922D01*
X0254613Y0184961D01*
X0254669Y0184996D01*
X0254727Y0185029D01*
X0254787Y0185059D01*
X0254848Y0185085D01*
X0254911Y0185108D01*
X0254975Y0185127D01*
X0255039Y0185143D01*
X0255105Y0185156D01*
X0255171Y0185165D01*
X0255237Y0185170D01*
X0255304Y0185172D01*
X0255371Y0185170D01*
X0255438Y0185164D01*
X0255504Y0185155D01*
X0255569Y0185141D01*
X0255634Y0185124D01*
X0255697Y0185103D01*
X0255759Y0185078D01*
X0255820Y0185050D01*
X0255879Y0185018D01*
X0255936Y0184983D01*
X0255991Y0184944D01*
X0256043Y0184903D01*
X0256093Y0184858D01*
X0256140Y0184811D01*
X0256185Y0184761D01*
X0256226Y0184709D01*
X0256265Y0184654D01*
X0256300Y0184597D01*
X0256332Y0184538D01*
X0256360Y0184477D01*
X0256385Y0184415D01*
X0256406Y0184352D01*
X0256423Y0184287D01*
X0256437Y0184222D01*
X0256446Y0184156D01*
X0256452Y0184089D01*
X0256454Y0184022D01*
X0256681Y0193104D02*
X0254126Y0193104D01*
X0254064Y0193106D01*
X0254003Y0193111D01*
X0253942Y0193121D01*
X0253881Y0193134D01*
X0253822Y0193150D01*
X0253764Y0193170D01*
X0253707Y0193194D01*
X0253651Y0193221D01*
X0253597Y0193251D01*
X0253545Y0193285D01*
X0253496Y0193321D01*
X0253448Y0193361D01*
X0253403Y0193403D01*
X0253361Y0193448D01*
X0253321Y0193496D01*
X0253285Y0193545D01*
X0253251Y0193597D01*
X0253221Y0193651D01*
X0253194Y0193707D01*
X0253170Y0193764D01*
X0253150Y0193822D01*
X0253134Y0193881D01*
X0253121Y0193942D01*
X0253111Y0194003D01*
X0253106Y0194064D01*
X0253104Y0194126D01*
X0253104Y0195148D01*
X0253104Y0196867D02*
X0253104Y0198144D01*
X0253103Y0198144D02*
X0253105Y0198214D01*
X0253111Y0198285D01*
X0253120Y0198354D01*
X0253134Y0198423D01*
X0253151Y0198492D01*
X0253172Y0198559D01*
X0253197Y0198625D01*
X0253225Y0198689D01*
X0253257Y0198752D01*
X0253292Y0198813D01*
X0253331Y0198872D01*
X0253372Y0198929D01*
X0253417Y0198983D01*
X0253465Y0199035D01*
X0253515Y0199084D01*
X0253569Y0199131D01*
X0253624Y0199174D01*
X0253682Y0199214D01*
X0253742Y0199251D01*
X0253804Y0199284D01*
X0253868Y0199314D01*
X0253933Y0199341D01*
X0253999Y0199364D01*
X0254067Y0199383D01*
X0254136Y0199398D01*
X0254205Y0199410D01*
X0254275Y0199418D01*
X0254346Y0199422D01*
X0254416Y0199422D01*
X0254487Y0199418D01*
X0254557Y0199410D01*
X0254626Y0199398D01*
X0254695Y0199383D01*
X0254763Y0199364D01*
X0254829Y0199341D01*
X0254894Y0199314D01*
X0254958Y0199284D01*
X0255020Y0199251D01*
X0255080Y0199214D01*
X0255138Y0199174D01*
X0255193Y0199131D01*
X0255247Y0199084D01*
X0255297Y0199035D01*
X0255345Y0198983D01*
X0255390Y0198929D01*
X0255431Y0198872D01*
X0255470Y0198813D01*
X0255505Y0198752D01*
X0255537Y0198689D01*
X0255565Y0198625D01*
X0255590Y0198559D01*
X0255611Y0198492D01*
X0255628Y0198423D01*
X0255642Y0198354D01*
X0255651Y0198285D01*
X0255657Y0198214D01*
X0255659Y0198144D01*
X0255659Y0198400D02*
X0255659Y0197378D01*
X0255659Y0198400D02*
X0255661Y0198463D01*
X0255667Y0198526D01*
X0255676Y0198588D01*
X0255690Y0198649D01*
X0255707Y0198710D01*
X0255728Y0198769D01*
X0255753Y0198827D01*
X0255781Y0198884D01*
X0255812Y0198938D01*
X0255847Y0198990D01*
X0255885Y0199041D01*
X0255926Y0199089D01*
X0255970Y0199134D01*
X0256016Y0199176D01*
X0256065Y0199216D01*
X0256116Y0199252D01*
X0256170Y0199285D01*
X0256225Y0199315D01*
X0256283Y0199341D01*
X0256341Y0199364D01*
X0256401Y0199383D01*
X0256462Y0199398D01*
X0256524Y0199410D01*
X0256587Y0199418D01*
X0256650Y0199422D01*
X0256712Y0199422D01*
X0256775Y0199418D01*
X0256838Y0199410D01*
X0256900Y0199398D01*
X0256961Y0199383D01*
X0257021Y0199364D01*
X0257079Y0199341D01*
X0257137Y0199315D01*
X0257192Y0199285D01*
X0257246Y0199252D01*
X0257297Y0199216D01*
X0257346Y0199176D01*
X0257392Y0199134D01*
X0257436Y0199089D01*
X0257477Y0199041D01*
X0257515Y0198990D01*
X0257550Y0198938D01*
X0257581Y0198884D01*
X0257609Y0198827D01*
X0257634Y0198769D01*
X0257655Y0198710D01*
X0257672Y0198649D01*
X0257686Y0198588D01*
X0257695Y0198526D01*
X0257701Y0198463D01*
X0257703Y0198400D01*
X0257704Y0198400D02*
X0257704Y0196867D01*
X0257704Y0195148D02*
X0257704Y0194126D01*
X0257703Y0194126D02*
X0257701Y0194064D01*
X0257696Y0194003D01*
X0257686Y0193942D01*
X0257673Y0193881D01*
X0257657Y0193822D01*
X0257637Y0193764D01*
X0257613Y0193707D01*
X0257586Y0193651D01*
X0257556Y0193597D01*
X0257522Y0193545D01*
X0257485Y0193496D01*
X0257446Y0193448D01*
X0257404Y0193403D01*
X0257359Y0193361D01*
X0257311Y0193321D01*
X0257262Y0193285D01*
X0257210Y0193251D01*
X0257156Y0193221D01*
X0257100Y0193194D01*
X0257043Y0193170D01*
X0256985Y0193150D01*
X0256926Y0193134D01*
X0256865Y0193121D01*
X0256804Y0193111D01*
X0256743Y0193106D01*
X0256681Y0193104D01*
X0261854Y0194126D02*
X0261854Y0195148D01*
X0261854Y0194126D02*
X0261856Y0194064D01*
X0261861Y0194003D01*
X0261871Y0193942D01*
X0261884Y0193881D01*
X0261900Y0193822D01*
X0261920Y0193764D01*
X0261944Y0193707D01*
X0261971Y0193651D01*
X0262001Y0193597D01*
X0262035Y0193545D01*
X0262071Y0193496D01*
X0262111Y0193448D01*
X0262153Y0193403D01*
X0262198Y0193361D01*
X0262246Y0193321D01*
X0262295Y0193285D01*
X0262347Y0193251D01*
X0262401Y0193221D01*
X0262457Y0193194D01*
X0262514Y0193170D01*
X0262572Y0193150D01*
X0262631Y0193134D01*
X0262692Y0193121D01*
X0262753Y0193111D01*
X0262814Y0193106D01*
X0262876Y0193104D01*
X0265431Y0193104D01*
X0265493Y0193106D01*
X0265554Y0193111D01*
X0265615Y0193121D01*
X0265676Y0193134D01*
X0265735Y0193150D01*
X0265793Y0193170D01*
X0265850Y0193194D01*
X0265906Y0193221D01*
X0265960Y0193251D01*
X0266012Y0193285D01*
X0266061Y0193321D01*
X0266109Y0193361D01*
X0266154Y0193403D01*
X0266196Y0193448D01*
X0266235Y0193496D01*
X0266272Y0193545D01*
X0266306Y0193597D01*
X0266336Y0193651D01*
X0266363Y0193707D01*
X0266387Y0193764D01*
X0266407Y0193822D01*
X0266423Y0193881D01*
X0266436Y0193942D01*
X0266446Y0194003D01*
X0266451Y0194064D01*
X0266453Y0194126D01*
X0266454Y0194126D02*
X0266454Y0195148D01*
X0266454Y0196867D02*
X0266454Y0198400D01*
X0266453Y0198400D02*
X0266451Y0198463D01*
X0266445Y0198526D01*
X0266436Y0198588D01*
X0266422Y0198649D01*
X0266405Y0198710D01*
X0266384Y0198769D01*
X0266359Y0198827D01*
X0266331Y0198884D01*
X0266300Y0198938D01*
X0266265Y0198990D01*
X0266227Y0199041D01*
X0266186Y0199089D01*
X0266142Y0199134D01*
X0266096Y0199176D01*
X0266047Y0199216D01*
X0265996Y0199252D01*
X0265942Y0199285D01*
X0265887Y0199315D01*
X0265829Y0199341D01*
X0265771Y0199364D01*
X0265711Y0199383D01*
X0265650Y0199398D01*
X0265588Y0199410D01*
X0265525Y0199418D01*
X0265462Y0199422D01*
X0265400Y0199422D01*
X0265337Y0199418D01*
X0265274Y0199410D01*
X0265212Y0199398D01*
X0265151Y0199383D01*
X0265091Y0199364D01*
X0265033Y0199341D01*
X0264975Y0199315D01*
X0264920Y0199285D01*
X0264866Y0199252D01*
X0264815Y0199216D01*
X0264766Y0199176D01*
X0264720Y0199134D01*
X0264676Y0199089D01*
X0264635Y0199041D01*
X0264597Y0198990D01*
X0264562Y0198938D01*
X0264531Y0198884D01*
X0264503Y0198827D01*
X0264478Y0198769D01*
X0264457Y0198710D01*
X0264440Y0198649D01*
X0264426Y0198588D01*
X0264417Y0198526D01*
X0264411Y0198463D01*
X0264409Y0198400D01*
X0264409Y0197378D01*
X0264409Y0198144D02*
X0264407Y0198214D01*
X0264401Y0198285D01*
X0264392Y0198354D01*
X0264378Y0198423D01*
X0264361Y0198492D01*
X0264340Y0198559D01*
X0264315Y0198625D01*
X0264287Y0198689D01*
X0264255Y0198752D01*
X0264220Y0198813D01*
X0264181Y0198872D01*
X0264140Y0198929D01*
X0264095Y0198983D01*
X0264047Y0199035D01*
X0263997Y0199084D01*
X0263943Y0199131D01*
X0263888Y0199174D01*
X0263830Y0199214D01*
X0263770Y0199251D01*
X0263708Y0199284D01*
X0263644Y0199314D01*
X0263579Y0199341D01*
X0263513Y0199364D01*
X0263445Y0199383D01*
X0263376Y0199398D01*
X0263307Y0199410D01*
X0263237Y0199418D01*
X0263166Y0199422D01*
X0263096Y0199422D01*
X0263025Y0199418D01*
X0262955Y0199410D01*
X0262886Y0199398D01*
X0262817Y0199383D01*
X0262749Y0199364D01*
X0262683Y0199341D01*
X0262618Y0199314D01*
X0262554Y0199284D01*
X0262492Y0199251D01*
X0262432Y0199214D01*
X0262374Y0199174D01*
X0262319Y0199131D01*
X0262265Y0199084D01*
X0262215Y0199035D01*
X0262167Y0198983D01*
X0262122Y0198929D01*
X0262081Y0198872D01*
X0262042Y0198813D01*
X0262007Y0198752D01*
X0261975Y0198689D01*
X0261947Y0198625D01*
X0261922Y0198559D01*
X0261901Y0198492D01*
X0261884Y0198423D01*
X0261870Y0198354D01*
X0261861Y0198285D01*
X0261855Y0198214D01*
X0261853Y0198144D01*
X0261854Y0198144D02*
X0261854Y0196867D01*
X0261854Y0201367D02*
X0261854Y0202644D01*
X0261853Y0202644D02*
X0261855Y0202714D01*
X0261861Y0202785D01*
X0261870Y0202854D01*
X0261884Y0202923D01*
X0261901Y0202992D01*
X0261922Y0203059D01*
X0261947Y0203125D01*
X0261975Y0203189D01*
X0262007Y0203252D01*
X0262042Y0203313D01*
X0262081Y0203372D01*
X0262122Y0203429D01*
X0262167Y0203483D01*
X0262215Y0203535D01*
X0262265Y0203584D01*
X0262319Y0203631D01*
X0262374Y0203674D01*
X0262432Y0203714D01*
X0262492Y0203751D01*
X0262554Y0203784D01*
X0262618Y0203814D01*
X0262683Y0203841D01*
X0262749Y0203864D01*
X0262817Y0203883D01*
X0262886Y0203898D01*
X0262955Y0203910D01*
X0263025Y0203918D01*
X0263096Y0203922D01*
X0263166Y0203922D01*
X0263237Y0203918D01*
X0263307Y0203910D01*
X0263376Y0203898D01*
X0263445Y0203883D01*
X0263513Y0203864D01*
X0263579Y0203841D01*
X0263644Y0203814D01*
X0263708Y0203784D01*
X0263770Y0203751D01*
X0263830Y0203714D01*
X0263888Y0203674D01*
X0263943Y0203631D01*
X0263997Y0203584D01*
X0264047Y0203535D01*
X0264095Y0203483D01*
X0264140Y0203429D01*
X0264181Y0203372D01*
X0264220Y0203313D01*
X0264255Y0203252D01*
X0264287Y0203189D01*
X0264315Y0203125D01*
X0264340Y0203059D01*
X0264361Y0202992D01*
X0264378Y0202923D01*
X0264392Y0202854D01*
X0264401Y0202785D01*
X0264407Y0202714D01*
X0264409Y0202644D01*
X0264409Y0202900D02*
X0264409Y0201878D01*
X0264409Y0202900D02*
X0264411Y0202963D01*
X0264417Y0203026D01*
X0264426Y0203088D01*
X0264440Y0203149D01*
X0264457Y0203210D01*
X0264478Y0203269D01*
X0264503Y0203327D01*
X0264531Y0203384D01*
X0264562Y0203438D01*
X0264597Y0203490D01*
X0264635Y0203541D01*
X0264676Y0203589D01*
X0264720Y0203634D01*
X0264766Y0203676D01*
X0264815Y0203716D01*
X0264866Y0203752D01*
X0264920Y0203785D01*
X0264975Y0203815D01*
X0265033Y0203841D01*
X0265091Y0203864D01*
X0265151Y0203883D01*
X0265212Y0203898D01*
X0265274Y0203910D01*
X0265337Y0203918D01*
X0265400Y0203922D01*
X0265462Y0203922D01*
X0265525Y0203918D01*
X0265588Y0203910D01*
X0265650Y0203898D01*
X0265711Y0203883D01*
X0265771Y0203864D01*
X0265829Y0203841D01*
X0265887Y0203815D01*
X0265942Y0203785D01*
X0265996Y0203752D01*
X0266047Y0203716D01*
X0266096Y0203676D01*
X0266142Y0203634D01*
X0266186Y0203589D01*
X0266227Y0203541D01*
X0266265Y0203490D01*
X0266300Y0203438D01*
X0266331Y0203384D01*
X0266359Y0203327D01*
X0266384Y0203269D01*
X0266405Y0203210D01*
X0266422Y0203149D01*
X0266436Y0203088D01*
X0266445Y0203026D01*
X0266451Y0202963D01*
X0266453Y0202900D01*
X0266454Y0202900D02*
X0266454Y0201367D01*
X0270604Y0201650D02*
X0270604Y0200117D01*
X0270604Y0201650D02*
X0270606Y0201712D01*
X0270611Y0201773D01*
X0270621Y0201834D01*
X0270634Y0201895D01*
X0270650Y0201954D01*
X0270670Y0202012D01*
X0270694Y0202069D01*
X0270721Y0202125D01*
X0270751Y0202179D01*
X0270785Y0202231D01*
X0270821Y0202280D01*
X0270861Y0202328D01*
X0270903Y0202373D01*
X0270948Y0202415D01*
X0270996Y0202455D01*
X0271045Y0202491D01*
X0271097Y0202525D01*
X0271151Y0202555D01*
X0271207Y0202582D01*
X0271264Y0202606D01*
X0271322Y0202626D01*
X0271381Y0202642D01*
X0271442Y0202655D01*
X0271503Y0202665D01*
X0271564Y0202670D01*
X0271626Y0202672D01*
X0272137Y0202672D01*
X0272199Y0202670D01*
X0272260Y0202665D01*
X0272321Y0202655D01*
X0272382Y0202642D01*
X0272441Y0202626D01*
X0272499Y0202606D01*
X0272556Y0202582D01*
X0272612Y0202555D01*
X0272666Y0202525D01*
X0272718Y0202491D01*
X0272767Y0202455D01*
X0272815Y0202415D01*
X0272860Y0202373D01*
X0272902Y0202328D01*
X0272942Y0202280D01*
X0272978Y0202231D01*
X0273012Y0202179D01*
X0273042Y0202125D01*
X0273069Y0202069D01*
X0273093Y0202012D01*
X0273113Y0201954D01*
X0273129Y0201895D01*
X0273142Y0201834D01*
X0273152Y0201773D01*
X0273157Y0201712D01*
X0273159Y0201650D01*
X0273159Y0200117D01*
X0275204Y0200117D01*
X0275204Y0202672D01*
X0275204Y0197150D02*
X0275204Y0195617D01*
X0275204Y0193898D02*
X0275204Y0192876D01*
X0275203Y0192876D02*
X0275201Y0192814D01*
X0275196Y0192753D01*
X0275186Y0192692D01*
X0275173Y0192631D01*
X0275157Y0192572D01*
X0275137Y0192514D01*
X0275113Y0192457D01*
X0275086Y0192401D01*
X0275056Y0192347D01*
X0275022Y0192295D01*
X0274985Y0192246D01*
X0274946Y0192198D01*
X0274904Y0192153D01*
X0274859Y0192111D01*
X0274811Y0192071D01*
X0274762Y0192035D01*
X0274710Y0192001D01*
X0274656Y0191971D01*
X0274600Y0191944D01*
X0274543Y0191920D01*
X0274485Y0191900D01*
X0274426Y0191884D01*
X0274365Y0191871D01*
X0274304Y0191861D01*
X0274243Y0191856D01*
X0274181Y0191854D01*
X0271626Y0191854D01*
X0271564Y0191856D01*
X0271503Y0191861D01*
X0271442Y0191871D01*
X0271381Y0191884D01*
X0271322Y0191900D01*
X0271264Y0191920D01*
X0271207Y0191944D01*
X0271151Y0191971D01*
X0271097Y0192001D01*
X0271045Y0192035D01*
X0270996Y0192071D01*
X0270948Y0192111D01*
X0270903Y0192153D01*
X0270861Y0192198D01*
X0270821Y0192246D01*
X0270785Y0192295D01*
X0270751Y0192347D01*
X0270721Y0192401D01*
X0270694Y0192457D01*
X0270670Y0192514D01*
X0270650Y0192572D01*
X0270634Y0192631D01*
X0270621Y0192692D01*
X0270611Y0192753D01*
X0270606Y0192814D01*
X0270604Y0192876D01*
X0270604Y0193898D01*
X0270604Y0195617D02*
X0270604Y0196894D01*
X0270603Y0196894D02*
X0270605Y0196964D01*
X0270611Y0197035D01*
X0270620Y0197104D01*
X0270634Y0197173D01*
X0270651Y0197242D01*
X0270672Y0197309D01*
X0270697Y0197375D01*
X0270725Y0197439D01*
X0270757Y0197502D01*
X0270792Y0197563D01*
X0270831Y0197622D01*
X0270872Y0197679D01*
X0270917Y0197733D01*
X0270965Y0197785D01*
X0271015Y0197834D01*
X0271069Y0197881D01*
X0271124Y0197924D01*
X0271182Y0197964D01*
X0271242Y0198001D01*
X0271304Y0198034D01*
X0271368Y0198064D01*
X0271433Y0198091D01*
X0271499Y0198114D01*
X0271567Y0198133D01*
X0271636Y0198148D01*
X0271705Y0198160D01*
X0271775Y0198168D01*
X0271846Y0198172D01*
X0271916Y0198172D01*
X0271987Y0198168D01*
X0272057Y0198160D01*
X0272126Y0198148D01*
X0272195Y0198133D01*
X0272263Y0198114D01*
X0272329Y0198091D01*
X0272394Y0198064D01*
X0272458Y0198034D01*
X0272520Y0198001D01*
X0272580Y0197964D01*
X0272638Y0197924D01*
X0272693Y0197881D01*
X0272747Y0197834D01*
X0272797Y0197785D01*
X0272845Y0197733D01*
X0272890Y0197679D01*
X0272931Y0197622D01*
X0272970Y0197563D01*
X0273005Y0197502D01*
X0273037Y0197439D01*
X0273065Y0197375D01*
X0273090Y0197309D01*
X0273111Y0197242D01*
X0273128Y0197173D01*
X0273142Y0197104D01*
X0273151Y0197035D01*
X0273157Y0196964D01*
X0273159Y0196894D01*
X0273159Y0197150D02*
X0273159Y0196128D01*
X0273159Y0197150D02*
X0273161Y0197213D01*
X0273167Y0197276D01*
X0273176Y0197338D01*
X0273190Y0197399D01*
X0273207Y0197460D01*
X0273228Y0197519D01*
X0273253Y0197577D01*
X0273281Y0197634D01*
X0273312Y0197688D01*
X0273347Y0197740D01*
X0273385Y0197791D01*
X0273426Y0197839D01*
X0273470Y0197884D01*
X0273516Y0197926D01*
X0273565Y0197966D01*
X0273616Y0198002D01*
X0273670Y0198035D01*
X0273725Y0198065D01*
X0273783Y0198091D01*
X0273841Y0198114D01*
X0273901Y0198133D01*
X0273962Y0198148D01*
X0274024Y0198160D01*
X0274087Y0198168D01*
X0274150Y0198172D01*
X0274212Y0198172D01*
X0274275Y0198168D01*
X0274338Y0198160D01*
X0274400Y0198148D01*
X0274461Y0198133D01*
X0274521Y0198114D01*
X0274579Y0198091D01*
X0274637Y0198065D01*
X0274692Y0198035D01*
X0274746Y0198002D01*
X0274797Y0197966D01*
X0274846Y0197926D01*
X0274892Y0197884D01*
X0274936Y0197839D01*
X0274977Y0197791D01*
X0275015Y0197740D01*
X0275050Y0197688D01*
X0275081Y0197634D01*
X0275109Y0197577D01*
X0275134Y0197519D01*
X0275155Y0197460D01*
X0275172Y0197399D01*
X0275186Y0197338D01*
X0275195Y0197276D01*
X0275201Y0197213D01*
X0275203Y0197150D01*
X0255659Y0201367D02*
X0254381Y0201367D01*
X0254381Y0201366D02*
X0254311Y0201368D01*
X0254240Y0201374D01*
X0254171Y0201383D01*
X0254102Y0201397D01*
X0254033Y0201414D01*
X0253966Y0201435D01*
X0253900Y0201460D01*
X0253836Y0201488D01*
X0253773Y0201520D01*
X0253712Y0201555D01*
X0253653Y0201594D01*
X0253596Y0201635D01*
X0253542Y0201680D01*
X0253490Y0201728D01*
X0253441Y0201778D01*
X0253394Y0201832D01*
X0253351Y0201887D01*
X0253311Y0201945D01*
X0253274Y0202005D01*
X0253241Y0202067D01*
X0253211Y0202131D01*
X0253184Y0202196D01*
X0253161Y0202262D01*
X0253142Y0202330D01*
X0253127Y0202399D01*
X0253115Y0202468D01*
X0253107Y0202538D01*
X0253103Y0202609D01*
X0253103Y0202679D01*
X0253107Y0202750D01*
X0253115Y0202820D01*
X0253127Y0202889D01*
X0253142Y0202958D01*
X0253161Y0203026D01*
X0253184Y0203092D01*
X0253211Y0203157D01*
X0253241Y0203221D01*
X0253274Y0203283D01*
X0253311Y0203343D01*
X0253351Y0203401D01*
X0253394Y0203456D01*
X0253441Y0203510D01*
X0253490Y0203560D01*
X0253542Y0203608D01*
X0253596Y0203653D01*
X0253653Y0203694D01*
X0253712Y0203733D01*
X0253773Y0203768D01*
X0253836Y0203800D01*
X0253900Y0203828D01*
X0253966Y0203853D01*
X0254033Y0203874D01*
X0254102Y0203891D01*
X0254171Y0203905D01*
X0254240Y0203914D01*
X0254311Y0203920D01*
X0254381Y0203922D01*
X0254637Y0203922D01*
X0254699Y0203920D01*
X0254760Y0203915D01*
X0254821Y0203905D01*
X0254882Y0203892D01*
X0254941Y0203876D01*
X0254999Y0203856D01*
X0255056Y0203832D01*
X0255112Y0203805D01*
X0255166Y0203775D01*
X0255218Y0203741D01*
X0255267Y0203705D01*
X0255315Y0203665D01*
X0255360Y0203623D01*
X0255402Y0203578D01*
X0255442Y0203530D01*
X0255478Y0203481D01*
X0255512Y0203429D01*
X0255542Y0203375D01*
X0255569Y0203319D01*
X0255593Y0203262D01*
X0255613Y0203204D01*
X0255629Y0203145D01*
X0255642Y0203084D01*
X0255652Y0203023D01*
X0255657Y0202962D01*
X0255659Y0202900D01*
X0255659Y0201367D01*
X0255748Y0201369D01*
X0255837Y0201375D01*
X0255926Y0201384D01*
X0256014Y0201398D01*
X0256101Y0201415D01*
X0256188Y0201437D01*
X0256274Y0201462D01*
X0256358Y0201490D01*
X0256441Y0201523D01*
X0256523Y0201559D01*
X0256603Y0201598D01*
X0256681Y0201641D01*
X0256757Y0201687D01*
X0256831Y0201737D01*
X0256903Y0201789D01*
X0256973Y0201845D01*
X0257040Y0201904D01*
X0257104Y0201966D01*
X0257166Y0202030D01*
X0257225Y0202097D01*
X0257281Y0202167D01*
X0257333Y0202239D01*
X0257383Y0202313D01*
X0257429Y0202389D01*
X0257472Y0202467D01*
X0257511Y0202547D01*
X0257547Y0202629D01*
X0257580Y0202712D01*
X0257608Y0202796D01*
X0257633Y0202882D01*
X0257655Y0202969D01*
X0257672Y0203056D01*
X0257686Y0203144D01*
X0257695Y0203233D01*
X0257701Y0203322D01*
X0257703Y0203411D01*
D16*
X0276969Y0198784D02*
X0277803Y0198784D01*
X0277803Y0198118D01*
X0277303Y0198118D01*
X0277303Y0198117D02*
X0277268Y0198115D01*
X0277234Y0198110D01*
X0277200Y0198101D01*
X0277168Y0198088D01*
X0277137Y0198072D01*
X0277107Y0198053D01*
X0277080Y0198031D01*
X0277056Y0198007D01*
X0277034Y0197980D01*
X0277015Y0197951D01*
X0276999Y0197919D01*
X0276986Y0197887D01*
X0276977Y0197853D01*
X0276972Y0197819D01*
X0276970Y0197784D01*
X0276969Y0197784D02*
X0276969Y0197618D01*
X0276970Y0197618D02*
X0276972Y0197583D01*
X0276977Y0197549D01*
X0276986Y0197515D01*
X0276999Y0197483D01*
X0277015Y0197452D01*
X0277034Y0197422D01*
X0277056Y0197395D01*
X0277080Y0197371D01*
X0277107Y0197349D01*
X0277137Y0197330D01*
X0277168Y0197314D01*
X0277200Y0197301D01*
X0277234Y0197292D01*
X0277268Y0197287D01*
X0277303Y0197285D01*
X0277303Y0197284D02*
X0277803Y0197284D01*
X0278457Y0197701D02*
X0278457Y0198368D01*
X0278459Y0198406D01*
X0278464Y0198445D01*
X0278473Y0198482D01*
X0278485Y0198519D01*
X0278501Y0198554D01*
X0278519Y0198588D01*
X0278541Y0198619D01*
X0278566Y0198649D01*
X0278593Y0198676D01*
X0278623Y0198701D01*
X0278654Y0198723D01*
X0278688Y0198741D01*
X0278723Y0198757D01*
X0278760Y0198769D01*
X0278797Y0198778D01*
X0278836Y0198783D01*
X0278874Y0198785D01*
X0278874Y0198784D02*
X0279291Y0198784D01*
X0279291Y0197284D01*
X0278874Y0197284D01*
X0278836Y0197286D01*
X0278797Y0197291D01*
X0278760Y0197300D01*
X0278723Y0197312D01*
X0278688Y0197328D01*
X0278654Y0197346D01*
X0278623Y0197368D01*
X0278593Y0197393D01*
X0278566Y0197420D01*
X0278541Y0197450D01*
X0278519Y0197481D01*
X0278501Y0197515D01*
X0278485Y0197550D01*
X0278473Y0197587D01*
X0278464Y0197624D01*
X0278459Y0197663D01*
X0278457Y0197701D01*
X0251265Y0151950D02*
X0250205Y0150889D01*
X0250499Y0150595D02*
X0249910Y0151184D01*
X0249776Y0151908D02*
X0250070Y0152202D01*
X0249717Y0152556D01*
X0250071Y0152202D02*
X0250105Y0152239D01*
X0250136Y0152278D01*
X0250164Y0152319D01*
X0250189Y0152362D01*
X0250210Y0152407D01*
X0250229Y0152454D01*
X0250243Y0152501D01*
X0250254Y0152550D01*
X0250262Y0152599D01*
X0250266Y0152649D01*
X0250266Y0152699D01*
X0250262Y0152749D01*
X0250254Y0152798D01*
X0250243Y0152847D01*
X0250229Y0152894D01*
X0250210Y0152941D01*
X0250189Y0152986D01*
X0250164Y0153029D01*
X0250136Y0153070D01*
X0250105Y0153109D01*
X0250071Y0153146D01*
X0249245Y0152556D02*
X0249186Y0152497D01*
X0249246Y0152555D02*
X0249271Y0152579D01*
X0249300Y0152599D01*
X0249330Y0152617D01*
X0249362Y0152631D01*
X0249395Y0152642D01*
X0249429Y0152649D01*
X0249464Y0152653D01*
X0249498Y0152653D01*
X0249533Y0152649D01*
X0249567Y0152642D01*
X0249600Y0152631D01*
X0249632Y0152617D01*
X0249662Y0152599D01*
X0249691Y0152579D01*
X0249716Y0152555D01*
X0249186Y0152497D02*
X0249159Y0152468D01*
X0249136Y0152436D01*
X0249115Y0152402D01*
X0249098Y0152366D01*
X0249084Y0152329D01*
X0249074Y0152291D01*
X0249067Y0152252D01*
X0249064Y0152212D01*
X0249065Y0152172D01*
X0249070Y0152133D01*
X0249078Y0152094D01*
X0249090Y0152056D01*
X0249106Y0152020D01*
X0249125Y0151985D01*
X0249147Y0151952D01*
X0249172Y0151922D01*
X0249200Y0151893D01*
X0249231Y0151868D01*
X0249264Y0151846D01*
X0249299Y0151827D01*
X0249335Y0151811D01*
X0249373Y0151799D01*
X0249412Y0151791D01*
X0249451Y0151786D01*
X0249491Y0151785D01*
X0249530Y0151788D01*
X0249570Y0151795D01*
X0249608Y0151805D01*
X0249645Y0151819D01*
X0249681Y0151836D01*
X0249715Y0151857D01*
X0249746Y0151880D01*
X0249776Y0151907D01*
X0251265Y0151950D02*
X0251324Y0151420D01*
X0252278Y0150938D02*
X0252248Y0150965D01*
X0252217Y0150988D01*
X0252183Y0151009D01*
X0252147Y0151026D01*
X0252110Y0151040D01*
X0252072Y0151050D01*
X0252033Y0151057D01*
X0251993Y0151060D01*
X0251953Y0151059D01*
X0251914Y0151054D01*
X0251875Y0151046D01*
X0251837Y0151034D01*
X0251801Y0151018D01*
X0251766Y0150999D01*
X0251733Y0150977D01*
X0251703Y0150952D01*
X0251674Y0150923D01*
X0251649Y0150893D01*
X0251627Y0150860D01*
X0251608Y0150825D01*
X0251592Y0150789D01*
X0251580Y0150751D01*
X0251572Y0150712D01*
X0251567Y0150673D01*
X0251566Y0150633D01*
X0251569Y0150593D01*
X0251576Y0150554D01*
X0251586Y0150516D01*
X0251600Y0150479D01*
X0251617Y0150443D01*
X0251638Y0150409D01*
X0251661Y0150378D01*
X0251688Y0150348D01*
X0251983Y0150054D01*
X0251629Y0150407D02*
X0250922Y0150172D01*
X0251512Y0149582D02*
X0252572Y0150643D01*
X0252278Y0150938D01*
X0254531Y0148489D02*
X0254885Y0148135D01*
X0254531Y0148488D02*
X0254506Y0148512D01*
X0254477Y0148532D01*
X0254447Y0148550D01*
X0254415Y0148564D01*
X0254382Y0148575D01*
X0254348Y0148582D01*
X0254313Y0148586D01*
X0254279Y0148586D01*
X0254244Y0148582D01*
X0254210Y0148575D01*
X0254177Y0148564D01*
X0254145Y0148550D01*
X0254115Y0148532D01*
X0254086Y0148512D01*
X0254061Y0148488D01*
X0254037Y0148463D01*
X0254017Y0148434D01*
X0253999Y0148404D01*
X0253985Y0148372D01*
X0253974Y0148339D01*
X0253967Y0148305D01*
X0253963Y0148270D01*
X0253963Y0148236D01*
X0253967Y0148201D01*
X0253974Y0148167D01*
X0253985Y0148134D01*
X0253999Y0148102D01*
X0254017Y0148072D01*
X0254037Y0148043D01*
X0254061Y0148018D01*
X0254060Y0148018D02*
X0254296Y0147782D01*
X0254119Y0147959D02*
X0254089Y0147986D01*
X0254058Y0148009D01*
X0254024Y0148030D01*
X0253988Y0148047D01*
X0253951Y0148061D01*
X0253913Y0148071D01*
X0253873Y0148078D01*
X0253834Y0148081D01*
X0253794Y0148080D01*
X0253755Y0148075D01*
X0253716Y0148067D01*
X0253678Y0148055D01*
X0253642Y0148039D01*
X0253607Y0148020D01*
X0253574Y0147998D01*
X0253543Y0147973D01*
X0253515Y0147944D01*
X0253490Y0147914D01*
X0253468Y0147881D01*
X0253449Y0147846D01*
X0253433Y0147810D01*
X0253421Y0147772D01*
X0253413Y0147733D01*
X0253408Y0147694D01*
X0253407Y0147654D01*
X0253410Y0147614D01*
X0253417Y0147575D01*
X0253427Y0147537D01*
X0253441Y0147500D01*
X0253458Y0147464D01*
X0253479Y0147430D01*
X0253502Y0147398D01*
X0253529Y0147369D01*
X0253530Y0147369D02*
X0253824Y0147075D01*
X0254548Y0146351D02*
X0254842Y0146056D01*
X0254547Y0146351D02*
X0254520Y0146380D01*
X0254497Y0146412D01*
X0254476Y0146446D01*
X0254459Y0146482D01*
X0254445Y0146519D01*
X0254435Y0146557D01*
X0254428Y0146596D01*
X0254425Y0146636D01*
X0254426Y0146676D01*
X0254431Y0146715D01*
X0254439Y0146754D01*
X0254451Y0146792D01*
X0254467Y0146828D01*
X0254486Y0146863D01*
X0254508Y0146896D01*
X0254533Y0146926D01*
X0254561Y0146955D01*
X0254592Y0146980D01*
X0254625Y0147002D01*
X0254660Y0147021D01*
X0254696Y0147037D01*
X0254734Y0147049D01*
X0254773Y0147057D01*
X0254812Y0147062D01*
X0254852Y0147063D01*
X0254891Y0147060D01*
X0254931Y0147053D01*
X0254969Y0147043D01*
X0255006Y0147029D01*
X0255042Y0147012D01*
X0255076Y0146991D01*
X0255107Y0146968D01*
X0255137Y0146941D01*
X0255078Y0146999D02*
X0255314Y0146764D01*
X0255079Y0147000D02*
X0255055Y0147025D01*
X0255035Y0147054D01*
X0255017Y0147084D01*
X0255003Y0147116D01*
X0254992Y0147149D01*
X0254985Y0147183D01*
X0254981Y0147218D01*
X0254981Y0147252D01*
X0254985Y0147287D01*
X0254992Y0147321D01*
X0255003Y0147354D01*
X0255017Y0147386D01*
X0255035Y0147416D01*
X0255055Y0147445D01*
X0255079Y0147470D01*
X0255104Y0147494D01*
X0255133Y0147514D01*
X0255163Y0147532D01*
X0255195Y0147546D01*
X0255228Y0147557D01*
X0255262Y0147564D01*
X0255297Y0147568D01*
X0255331Y0147568D01*
X0255366Y0147564D01*
X0255400Y0147557D01*
X0255433Y0147546D01*
X0255465Y0147532D01*
X0255495Y0147514D01*
X0255524Y0147494D01*
X0255549Y0147470D01*
X0255549Y0147471D02*
X0255903Y0147117D01*
X0256621Y0146399D02*
X0256915Y0146105D01*
X0255855Y0145044D01*
X0256326Y0145516D02*
X0256032Y0145810D01*
X0255973Y0145869D02*
X0255265Y0145633D01*
X0256031Y0145810D02*
X0256004Y0145840D01*
X0255981Y0145871D01*
X0255960Y0145905D01*
X0255943Y0145941D01*
X0255929Y0145978D01*
X0255919Y0146016D01*
X0255912Y0146055D01*
X0255909Y0146095D01*
X0255910Y0146135D01*
X0255915Y0146174D01*
X0255923Y0146213D01*
X0255935Y0146251D01*
X0255951Y0146287D01*
X0255970Y0146322D01*
X0255992Y0146355D01*
X0256017Y0146385D01*
X0256046Y0146414D01*
X0256076Y0146439D01*
X0256109Y0146461D01*
X0256144Y0146480D01*
X0256180Y0146496D01*
X0256218Y0146508D01*
X0256257Y0146516D01*
X0256296Y0146521D01*
X0256336Y0146522D01*
X0256376Y0146519D01*
X0256415Y0146512D01*
X0256453Y0146502D01*
X0256490Y0146488D01*
X0256526Y0146471D01*
X0256560Y0146450D01*
X0256591Y0146427D01*
X0256621Y0146400D01*
X0278946Y0144973D02*
X0279780Y0144973D01*
X0279780Y0144306D01*
X0279280Y0144306D01*
X0279245Y0144304D01*
X0279211Y0144299D01*
X0279177Y0144290D01*
X0279145Y0144277D01*
X0279114Y0144261D01*
X0279084Y0144242D01*
X0279057Y0144220D01*
X0279033Y0144196D01*
X0279011Y0144169D01*
X0278992Y0144140D01*
X0278976Y0144108D01*
X0278963Y0144076D01*
X0278954Y0144042D01*
X0278949Y0144008D01*
X0278947Y0143973D01*
X0278946Y0143973D02*
X0278946Y0143806D01*
X0278947Y0143806D02*
X0278949Y0143771D01*
X0278954Y0143737D01*
X0278963Y0143703D01*
X0278976Y0143671D01*
X0278992Y0143640D01*
X0279011Y0143610D01*
X0279033Y0143583D01*
X0279057Y0143559D01*
X0279084Y0143537D01*
X0279114Y0143518D01*
X0279145Y0143502D01*
X0279177Y0143489D01*
X0279211Y0143480D01*
X0279245Y0143475D01*
X0279280Y0143473D01*
X0279780Y0143473D01*
X0280386Y0143473D02*
X0281220Y0143473D01*
X0280803Y0143473D02*
X0280803Y0144973D01*
X0281220Y0144639D01*
X0282235Y0144973D02*
X0282195Y0144971D01*
X0282156Y0144965D01*
X0282118Y0144956D01*
X0282080Y0144943D01*
X0282044Y0144927D01*
X0282010Y0144907D01*
X0281977Y0144884D01*
X0281947Y0144858D01*
X0281920Y0144829D01*
X0281895Y0144798D01*
X0281874Y0144765D01*
X0281856Y0144729D01*
X0281841Y0144692D01*
X0281830Y0144654D01*
X0281822Y0144615D01*
X0281818Y0144576D01*
X0281818Y0144536D01*
X0281822Y0144497D01*
X0281830Y0144458D01*
X0281841Y0144420D01*
X0281856Y0144383D01*
X0281874Y0144348D01*
X0281895Y0144314D01*
X0281920Y0144283D01*
X0281947Y0144254D01*
X0281977Y0144228D01*
X0282010Y0144205D01*
X0282044Y0144185D01*
X0282080Y0144169D01*
X0282118Y0144156D01*
X0282156Y0144147D01*
X0282195Y0144141D01*
X0282235Y0144139D01*
X0282652Y0144139D01*
X0282152Y0144139D02*
X0281818Y0143473D01*
X0282652Y0143473D02*
X0282652Y0144973D01*
X0282235Y0144973D01*
D17*
X0281927Y0188408D02*
X0280638Y0188408D01*
X0279533Y0188408D02*
X0277922Y0188408D01*
X0279341Y0188967D02*
X0271467Y0188967D01*
X0271467Y0190935D01*
X0269498Y0190935D01*
X0269498Y0194872D01*
X0271467Y0194872D01*
X0271467Y0196841D01*
X0279341Y0196841D01*
X0279341Y0194872D01*
X0281309Y0194872D01*
X0281309Y0190935D01*
X0279341Y0190935D01*
X0279341Y0188967D01*
X0279533Y0188408D02*
X0278164Y0190019D01*
X0278647Y0191307D02*
X0278706Y0191305D01*
X0278764Y0191300D01*
X0278822Y0191290D01*
X0278879Y0191278D01*
X0278935Y0191261D01*
X0278990Y0191242D01*
X0279044Y0191218D01*
X0279096Y0191192D01*
X0279146Y0191162D01*
X0279195Y0191129D01*
X0279241Y0191093D01*
X0279285Y0191054D01*
X0279326Y0191013D01*
X0279365Y0190969D01*
X0279401Y0190923D01*
X0279433Y0190874D01*
X0279463Y0190824D01*
X0279490Y0190772D01*
X0279513Y0190718D01*
X0279533Y0190663D01*
X0278164Y0190019D02*
X0278127Y0190056D01*
X0278093Y0190096D01*
X0278061Y0190138D01*
X0278033Y0190183D01*
X0278007Y0190229D01*
X0277985Y0190276D01*
X0277966Y0190325D01*
X0277950Y0190375D01*
X0277938Y0190426D01*
X0277929Y0190478D01*
X0277924Y0190530D01*
X0277922Y0190583D01*
X0277924Y0190635D01*
X0277929Y0190686D01*
X0277939Y0190737D01*
X0277951Y0190787D01*
X0277968Y0190836D01*
X0277988Y0190884D01*
X0278011Y0190930D01*
X0278037Y0190975D01*
X0278067Y0191017D01*
X0278099Y0191058D01*
X0278134Y0191096D01*
X0278172Y0191131D01*
X0278213Y0191163D01*
X0278255Y0191193D01*
X0278300Y0191219D01*
X0278346Y0191242D01*
X0278394Y0191262D01*
X0278443Y0191279D01*
X0278493Y0191291D01*
X0278544Y0191301D01*
X0278595Y0191306D01*
X0278647Y0191308D01*
X0281927Y0191308D02*
X0281927Y0188408D01*
D18*
X0278337Y0187274D02*
X0257470Y0187274D01*
X0257346Y0187272D01*
X0257223Y0187266D01*
X0257099Y0187257D01*
X0256977Y0187243D01*
X0256854Y0187226D01*
X0256732Y0187204D01*
X0256611Y0187179D01*
X0256491Y0187150D01*
X0256372Y0187118D01*
X0256253Y0187081D01*
X0256136Y0187041D01*
X0256021Y0186998D01*
X0255906Y0186950D01*
X0255794Y0186899D01*
X0255683Y0186845D01*
X0255573Y0186787D01*
X0255466Y0186726D01*
X0255360Y0186661D01*
X0255257Y0186593D01*
X0255156Y0186522D01*
X0255057Y0186448D01*
X0254960Y0186371D01*
X0254866Y0186290D01*
X0254775Y0186207D01*
X0254686Y0186121D01*
X0254600Y0186032D01*
X0254517Y0185941D01*
X0254436Y0185847D01*
X0254359Y0185750D01*
X0254285Y0185651D01*
X0254214Y0185550D01*
X0254146Y0185447D01*
X0254081Y0185341D01*
X0254020Y0185234D01*
X0253962Y0185124D01*
X0253908Y0185013D01*
X0253857Y0184901D01*
X0253809Y0184786D01*
X0253766Y0184671D01*
X0253726Y0184554D01*
X0253689Y0184435D01*
X0253657Y0184316D01*
X0253628Y0184196D01*
X0253603Y0184075D01*
X0253581Y0183953D01*
X0253564Y0183830D01*
X0253550Y0183708D01*
X0253541Y0183584D01*
X0253535Y0183461D01*
X0253533Y0183337D01*
X0253533Y0162470D01*
X0253535Y0162346D01*
X0253541Y0162223D01*
X0253550Y0162099D01*
X0253564Y0161977D01*
X0253581Y0161854D01*
X0253603Y0161732D01*
X0253628Y0161611D01*
X0253657Y0161491D01*
X0253689Y0161372D01*
X0253726Y0161253D01*
X0253766Y0161136D01*
X0253809Y0161021D01*
X0253857Y0160906D01*
X0253908Y0160794D01*
X0253962Y0160683D01*
X0254020Y0160573D01*
X0254081Y0160466D01*
X0254146Y0160360D01*
X0254214Y0160257D01*
X0254285Y0160156D01*
X0254359Y0160057D01*
X0254436Y0159960D01*
X0254517Y0159866D01*
X0254600Y0159775D01*
X0254686Y0159686D01*
X0254775Y0159600D01*
X0254866Y0159517D01*
X0254960Y0159436D01*
X0255057Y0159359D01*
X0255156Y0159285D01*
X0255257Y0159214D01*
X0255360Y0159146D01*
X0255466Y0159081D01*
X0255573Y0159020D01*
X0255683Y0158962D01*
X0255794Y0158908D01*
X0255906Y0158857D01*
X0256021Y0158809D01*
X0256136Y0158766D01*
X0256253Y0158726D01*
X0256372Y0158689D01*
X0256491Y0158657D01*
X0256611Y0158628D01*
X0256732Y0158603D01*
X0256854Y0158581D01*
X0256977Y0158564D01*
X0257099Y0158550D01*
X0257223Y0158541D01*
X0257346Y0158535D01*
X0257470Y0158533D01*
X0278337Y0158533D01*
X0278461Y0158535D01*
X0278584Y0158541D01*
X0278708Y0158550D01*
X0278830Y0158564D01*
X0278953Y0158581D01*
X0279075Y0158603D01*
X0279196Y0158628D01*
X0279316Y0158657D01*
X0279435Y0158689D01*
X0279554Y0158726D01*
X0279671Y0158766D01*
X0279786Y0158809D01*
X0279901Y0158857D01*
X0280013Y0158908D01*
X0280124Y0158962D01*
X0280234Y0159020D01*
X0280341Y0159081D01*
X0280447Y0159146D01*
X0280550Y0159214D01*
X0280651Y0159285D01*
X0280750Y0159359D01*
X0280847Y0159436D01*
X0280941Y0159517D01*
X0281032Y0159600D01*
X0281121Y0159686D01*
X0281207Y0159775D01*
X0281290Y0159866D01*
X0281371Y0159960D01*
X0281448Y0160057D01*
X0281522Y0160156D01*
X0281593Y0160257D01*
X0281661Y0160360D01*
X0281726Y0160466D01*
X0281787Y0160573D01*
X0281845Y0160683D01*
X0281899Y0160794D01*
X0281950Y0160906D01*
X0281998Y0161021D01*
X0282041Y0161136D01*
X0282081Y0161253D01*
X0282118Y0161372D01*
X0282150Y0161491D01*
X0282179Y0161611D01*
X0282204Y0161732D01*
X0282226Y0161854D01*
X0282243Y0161977D01*
X0282257Y0162099D01*
X0282266Y0162223D01*
X0282272Y0162346D01*
X0282274Y0162470D01*
X0282274Y0183337D01*
X0282272Y0183461D01*
X0282266Y0183584D01*
X0282257Y0183708D01*
X0282243Y0183830D01*
X0282226Y0183953D01*
X0282204Y0184075D01*
X0282179Y0184196D01*
X0282150Y0184316D01*
X0282118Y0184435D01*
X0282081Y0184554D01*
X0282041Y0184671D01*
X0281998Y0184786D01*
X0281950Y0184901D01*
X0281899Y0185013D01*
X0281845Y0185124D01*
X0281787Y0185234D01*
X0281726Y0185341D01*
X0281661Y0185447D01*
X0281593Y0185550D01*
X0281522Y0185651D01*
X0281448Y0185750D01*
X0281371Y0185847D01*
X0281290Y0185941D01*
X0281207Y0186032D01*
X0281121Y0186121D01*
X0281032Y0186207D01*
X0280941Y0186290D01*
X0280847Y0186371D01*
X0280750Y0186448D01*
X0280651Y0186522D01*
X0280550Y0186593D01*
X0280447Y0186661D01*
X0280341Y0186726D01*
X0280234Y0186787D01*
X0280124Y0186845D01*
X0280013Y0186899D01*
X0279901Y0186950D01*
X0279786Y0186998D01*
X0279671Y0187041D01*
X0279554Y0187081D01*
X0279435Y0187118D01*
X0279316Y0187150D01*
X0279196Y0187179D01*
X0279075Y0187204D01*
X0278953Y0187226D01*
X0278830Y0187243D01*
X0278708Y0187257D01*
X0278584Y0187266D01*
X0278461Y0187272D01*
X0278337Y0187274D01*
M02*
