G75*
%MOIN*%
%OFA0B0*%
%FSLAX25Y25*%
%IPPOS*%
%LPD*%
%AMOC8*
5,1,8,0,0,1.08239X$1,22.5*
%
%ADD10C,0.00000*%
%ADD11C,0.07400*%
%ADD12R,0.07087X0.06299*%
%ADD13R,0.05118X0.05906*%
%ADD14R,0.06299X0.07087*%
%ADD15R,0.05906X0.05118*%
%ADD16R,0.07400X0.07400*%
%ADD17R,0.01181X0.02953*%
%ADD18R,0.13780X0.09449*%
%ADD19R,0.00984X0.06102*%
%ADD20R,0.06102X0.00984*%
%ADD21R,0.01575X0.06890*%
%ADD22R,0.07087X0.03937*%
%ADD23R,0.03150X0.04724*%
%ADD24C,0.00800*%
%ADD25R,0.04724X0.03150*%
%ADD26C,0.04400*%
%ADD27C,0.02400*%
%ADD28R,0.06299X0.04921*%
%ADD29R,0.03937X0.00984*%
%ADD30R,0.00984X0.03937*%
%ADD31R,0.18504X0.13504*%
%ADD32C,0.01000*%
%ADD33OC8,0.02978*%
%ADD34C,0.05000*%
%ADD35C,0.01200*%
%ADD36C,0.00600*%
%ADD37R,0.03962X0.03962*%
D10*
X0001400Y0006400D02*
X0001400Y0285101D01*
X0218821Y0285101D01*
X0218821Y0006400D01*
X0001400Y0006400D01*
D11*
X0026400Y0033400D03*
X0036400Y0034400D03*
X0046400Y0033400D03*
X0056400Y0034400D03*
X0066400Y0033400D03*
X0076400Y0034400D03*
X0086400Y0033400D03*
X0098900Y0041900D03*
X0108900Y0040900D03*
X0118900Y0041900D03*
X0128900Y0040900D03*
X0138900Y0041900D03*
X0148900Y0040900D03*
X0158900Y0041900D03*
X0127100Y0146400D03*
X0115700Y0146400D03*
X0148900Y0199400D03*
X0158900Y0198400D03*
X0168900Y0199400D03*
X0168900Y0214400D03*
X0158900Y0213400D03*
X0148900Y0214400D03*
X0158900Y0228400D03*
X0168900Y0229400D03*
X0148900Y0229400D03*
X0128900Y0256400D03*
X0118900Y0256400D03*
X0108900Y0256400D03*
X0098900Y0256400D03*
X0088900Y0256400D03*
X0078900Y0256400D03*
X0068900Y0256400D03*
X0058900Y0256400D03*
D12*
X0103900Y0167912D03*
X0103900Y0156888D03*
X0073900Y0156912D03*
X0073900Y0145888D03*
D13*
X0122660Y0166400D03*
X0122660Y0173900D03*
X0130140Y0173900D03*
X0130140Y0166400D03*
X0082640Y0211400D03*
X0075160Y0211400D03*
G36*
X0178048Y0057219D02*
X0174429Y0060838D01*
X0178604Y0065013D01*
X0182223Y0061394D01*
X0178048Y0057219D01*
G37*
G36*
X0176267Y0044858D02*
X0172648Y0048477D01*
X0176823Y0052652D01*
X0180442Y0049033D01*
X0176267Y0044858D01*
G37*
G36*
X0170977Y0050148D02*
X0167358Y0053767D01*
X0171533Y0057942D01*
X0175152Y0054323D01*
X0170977Y0050148D01*
G37*
G36*
X0183338Y0051929D02*
X0179719Y0055548D01*
X0183894Y0059723D01*
X0187513Y0056104D01*
X0183338Y0051929D01*
G37*
D14*
G36*
X0090272Y0210281D02*
X0094725Y0214734D01*
X0099734Y0209725D01*
X0095281Y0205272D01*
X0090272Y0210281D01*
G37*
G36*
X0098066Y0218075D02*
X0102519Y0222528D01*
X0107528Y0217519D01*
X0103075Y0213066D01*
X0098066Y0218075D01*
G37*
D15*
X0108900Y0232660D03*
X0108900Y0240140D03*
X0118900Y0240140D03*
X0118900Y0232660D03*
X0128900Y0232660D03*
X0128900Y0240140D03*
X0121400Y0210140D03*
X0121400Y0202660D03*
X0121400Y0192640D03*
X0121400Y0185160D03*
X0093900Y0167640D03*
X0093900Y0160160D03*
X0083900Y0155140D03*
X0083900Y0147660D03*
D16*
X0168900Y0040900D03*
X0016400Y0034400D03*
D17*
X0082227Y0177384D03*
X0084786Y0177384D03*
X0087345Y0177384D03*
X0089904Y0177384D03*
X0092463Y0177384D03*
X0095022Y0177384D03*
X0097581Y0177384D03*
X0100140Y0177384D03*
X0102699Y0177384D03*
X0105258Y0177384D03*
X0107817Y0177384D03*
X0110376Y0177384D03*
X0110376Y0200416D03*
X0107817Y0200416D03*
X0105258Y0200416D03*
X0102699Y0200416D03*
X0100140Y0200416D03*
X0097581Y0200416D03*
X0095022Y0200416D03*
X0092463Y0200416D03*
X0089904Y0200416D03*
X0087345Y0200416D03*
X0084786Y0200416D03*
X0082227Y0200416D03*
D18*
X0096400Y0188900D03*
D19*
X0086164Y0125947D03*
X0084195Y0125947D03*
X0082227Y0125947D03*
X0080258Y0125947D03*
X0078290Y0125947D03*
X0076321Y0125947D03*
X0074353Y0125947D03*
X0072384Y0125947D03*
X0070416Y0125947D03*
X0068447Y0125947D03*
X0066479Y0125947D03*
X0064510Y0125947D03*
X0062542Y0125947D03*
X0060573Y0125947D03*
X0058605Y0125947D03*
X0056636Y0125947D03*
X0056636Y0081853D03*
X0058605Y0081853D03*
X0060573Y0081853D03*
X0062542Y0081853D03*
X0064510Y0081853D03*
X0066479Y0081853D03*
X0068447Y0081853D03*
X0070416Y0081853D03*
X0072384Y0081853D03*
X0074353Y0081853D03*
X0076321Y0081853D03*
X0078290Y0081853D03*
X0080258Y0081853D03*
X0082227Y0081853D03*
X0084195Y0081853D03*
X0086164Y0081853D03*
D20*
X0093447Y0089136D03*
X0093447Y0091105D03*
X0093447Y0093073D03*
X0093447Y0095042D03*
X0093447Y0097010D03*
X0093447Y0098979D03*
X0093447Y0100947D03*
X0093447Y0102916D03*
X0093447Y0104884D03*
X0093447Y0106853D03*
X0093447Y0108821D03*
X0093447Y0110790D03*
X0093447Y0112758D03*
X0093447Y0114727D03*
X0093447Y0116695D03*
X0093447Y0118664D03*
X0049353Y0118664D03*
X0049353Y0116695D03*
X0049353Y0114727D03*
X0049353Y0112758D03*
X0049353Y0110790D03*
X0049353Y0108821D03*
X0049353Y0106853D03*
X0049353Y0104884D03*
X0049353Y0102916D03*
X0049353Y0100947D03*
X0049353Y0098979D03*
X0049353Y0097010D03*
X0049353Y0095042D03*
X0049353Y0093073D03*
X0049353Y0091105D03*
X0049353Y0089136D03*
D21*
X0132266Y0081853D03*
X0134825Y0081853D03*
X0137384Y0081853D03*
X0139943Y0081853D03*
X0142502Y0081853D03*
X0145061Y0081853D03*
X0147620Y0081853D03*
X0150180Y0081853D03*
X0152739Y0081853D03*
X0155298Y0081853D03*
X0157857Y0081853D03*
X0160416Y0081853D03*
X0162975Y0081853D03*
X0165534Y0081853D03*
X0165534Y0110199D03*
X0162975Y0110199D03*
X0160416Y0110199D03*
X0157857Y0110199D03*
X0155298Y0110199D03*
X0152739Y0110199D03*
X0150180Y0110199D03*
X0147620Y0110199D03*
X0145061Y0110199D03*
X0142502Y0110199D03*
X0139943Y0110199D03*
X0137384Y0110199D03*
X0134825Y0110199D03*
X0132266Y0110199D03*
D22*
X0111400Y0108979D03*
X0111400Y0118821D03*
D23*
X0102424Y0127522D03*
X0095337Y0127522D03*
X0095337Y0137365D03*
X0102424Y0137365D03*
X0102424Y0080278D03*
X0095337Y0080278D03*
X0095337Y0070435D03*
X0102424Y0070435D03*
X0131420Y0068959D03*
X0138506Y0068959D03*
X0146026Y0068959D03*
X0153113Y0068959D03*
X0170632Y0117187D03*
X0177719Y0117187D03*
X0047463Y0127522D03*
X0040376Y0127522D03*
X0040376Y0137365D03*
X0047463Y0137365D03*
D24*
X0048762Y0138349D02*
X0048762Y0126538D01*
X0056636Y0126538D01*
X0058605Y0126538D02*
X0058605Y0130143D01*
X0058370Y0130709D02*
X0054668Y0134412D01*
X0058371Y0130709D02*
X0058406Y0130670D01*
X0058440Y0130630D01*
X0058470Y0130587D01*
X0058498Y0130543D01*
X0058522Y0130497D01*
X0058544Y0130449D01*
X0058563Y0130400D01*
X0058578Y0130350D01*
X0058590Y0130299D01*
X0058598Y0130247D01*
X0058603Y0130195D01*
X0058605Y0130143D01*
X0048762Y0126538D02*
X0047778Y0126538D01*
X0049353Y0112758D02*
X0063900Y0112758D01*
X0063900Y0091400D01*
X0058900Y0098900D02*
X0061400Y0101400D01*
X0061400Y0108900D01*
X0059510Y0110790D01*
X0049353Y0110790D01*
X0068900Y0073900D02*
X0068900Y0071900D01*
X0098900Y0041900D01*
X0108900Y0040900D02*
X0075900Y0073900D01*
X0073900Y0073900D01*
X0086164Y0076672D02*
X0086164Y0081262D01*
X0086164Y0076672D02*
X0086166Y0076620D01*
X0086171Y0076568D01*
X0086179Y0076516D01*
X0086191Y0076465D01*
X0086206Y0076415D01*
X0086225Y0076366D01*
X0086247Y0076318D01*
X0086271Y0076272D01*
X0086299Y0076228D01*
X0086329Y0076185D01*
X0086363Y0076145D01*
X0086398Y0076106D01*
X0086398Y0076107D02*
X0088132Y0074372D01*
X0094038Y0069451D02*
X0094038Y0089136D01*
X0095514Y0091105D02*
X0099451Y0091105D01*
X0106833Y0083723D01*
X0106833Y0079717D01*
X0111400Y0075150D01*
X0110044Y0081733D02*
X0110044Y0083957D01*
X0100928Y0093073D01*
X0095022Y0093073D01*
X0093054Y0095042D02*
X0105396Y0095042D01*
X0124097Y0076341D01*
X0137345Y0076341D01*
X0137345Y0079294D01*
X0140298Y0079294D02*
X0140298Y0074372D01*
X0135869Y0074372D01*
X0131931Y0070435D01*
X0137837Y0068959D02*
X0145711Y0068959D01*
X0145711Y0067975D02*
X0145219Y0067975D01*
X0145711Y0069943D02*
X0142758Y0072896D01*
X0142758Y0079786D01*
X0145219Y0080278D02*
X0145219Y0075357D01*
X0155061Y0075357D01*
X0155061Y0080278D01*
X0160475Y0076180D02*
X0160469Y0076088D01*
X0160459Y0075996D01*
X0160445Y0075905D01*
X0160427Y0075814D01*
X0160406Y0075724D01*
X0160381Y0075635D01*
X0160353Y0075547D01*
X0160321Y0075460D01*
X0160285Y0075375D01*
X0160246Y0075291D01*
X0160203Y0075209D01*
X0160157Y0075129D01*
X0160108Y0075051D01*
X0160055Y0074975D01*
X0160000Y0074901D01*
X0159941Y0074830D01*
X0159880Y0074761D01*
X0159815Y0074694D01*
X0159748Y0074630D01*
X0158506Y0073388D01*
X0160475Y0076180D02*
X0160475Y0081754D01*
X0162935Y0080278D02*
X0162935Y0076672D01*
X0163170Y0076107D02*
X0165888Y0073388D01*
X0163169Y0076106D02*
X0163134Y0076145D01*
X0163100Y0076185D01*
X0163070Y0076228D01*
X0163042Y0076272D01*
X0163018Y0076318D01*
X0162996Y0076366D01*
X0162977Y0076415D01*
X0162962Y0076465D01*
X0162950Y0076516D01*
X0162942Y0076568D01*
X0162937Y0076620D01*
X0162935Y0076672D01*
X0165888Y0080278D02*
X0165888Y0088152D01*
X0147187Y0088152D01*
X0147187Y0082246D01*
X0134642Y0083473D02*
X0134642Y0089870D01*
X0125534Y0098979D01*
X0094038Y0098979D01*
X0095022Y0100947D02*
X0118644Y0100947D01*
X0129237Y0111540D01*
X0129802Y0111774D02*
X0132424Y0111774D01*
X0134642Y0111774D02*
X0134642Y0116695D01*
X0128487Y0116695D01*
X0128487Y0114074D01*
X0128252Y0113508D02*
X0117660Y0102916D01*
X0095022Y0102916D01*
X0096338Y0104884D02*
X0099943Y0104884D01*
X0099943Y0110790D01*
X0094038Y0110790D01*
X0094038Y0112758D02*
X0108802Y0112758D01*
X0108802Y0108821D01*
X0111754Y0109806D02*
X0122581Y0117680D01*
X0128487Y0114074D02*
X0128485Y0114022D01*
X0128480Y0113970D01*
X0128472Y0113918D01*
X0128460Y0113867D01*
X0128445Y0113817D01*
X0128426Y0113768D01*
X0128404Y0113720D01*
X0128380Y0113674D01*
X0128352Y0113630D01*
X0128322Y0113587D01*
X0128288Y0113547D01*
X0128253Y0113508D01*
X0129236Y0111540D02*
X0129275Y0111575D01*
X0129315Y0111609D01*
X0129358Y0111639D01*
X0129402Y0111667D01*
X0129448Y0111691D01*
X0129496Y0111713D01*
X0129545Y0111732D01*
X0129595Y0111747D01*
X0129646Y0111759D01*
X0129698Y0111767D01*
X0129750Y0111772D01*
X0129802Y0111774D01*
X0140298Y0118664D02*
X0142032Y0116930D01*
X0142266Y0116364D02*
X0142266Y0109806D01*
X0145219Y0110790D02*
X0145219Y0127522D01*
X0143250Y0126538D02*
X0132424Y0126538D01*
X0142032Y0116930D02*
X0142067Y0116891D01*
X0142101Y0116851D01*
X0142131Y0116808D01*
X0142159Y0116764D01*
X0142183Y0116718D01*
X0142205Y0116670D01*
X0142224Y0116621D01*
X0142239Y0116571D01*
X0142251Y0116520D01*
X0142259Y0116468D01*
X0142264Y0116416D01*
X0142266Y0116364D01*
X0147187Y0118332D02*
X0147187Y0110790D01*
X0147187Y0118332D02*
X0147189Y0118384D01*
X0147194Y0118436D01*
X0147202Y0118488D01*
X0147214Y0118539D01*
X0147229Y0118589D01*
X0147248Y0118638D01*
X0147270Y0118686D01*
X0147294Y0118732D01*
X0147322Y0118776D01*
X0147352Y0118819D01*
X0147386Y0118859D01*
X0147421Y0118898D01*
X0147422Y0118898D02*
X0151124Y0122601D01*
X0151124Y0131128D01*
X0151359Y0131693D02*
X0156046Y0136380D01*
X0158506Y0138841D02*
X0167525Y0138841D01*
X0168091Y0138607D02*
X0168841Y0137857D01*
X0168091Y0138607D02*
X0168052Y0138642D01*
X0168012Y0138676D01*
X0167969Y0138706D01*
X0167925Y0138734D01*
X0167879Y0138758D01*
X0167831Y0138780D01*
X0167782Y0138799D01*
X0167732Y0138814D01*
X0167681Y0138826D01*
X0167629Y0138834D01*
X0167577Y0138839D01*
X0167525Y0138841D01*
X0151358Y0131694D02*
X0151323Y0131655D01*
X0151289Y0131615D01*
X0151259Y0131572D01*
X0151231Y0131528D01*
X0151207Y0131482D01*
X0151185Y0131434D01*
X0151166Y0131385D01*
X0151151Y0131335D01*
X0151139Y0131284D01*
X0151131Y0131232D01*
X0151126Y0131180D01*
X0151124Y0131128D01*
X0155061Y0108821D02*
X0155061Y0104231D01*
X0154827Y0103666D02*
X0153093Y0101931D01*
X0154827Y0103665D02*
X0154862Y0103704D01*
X0154896Y0103744D01*
X0154926Y0103787D01*
X0154954Y0103831D01*
X0154978Y0103877D01*
X0155000Y0103925D01*
X0155019Y0103974D01*
X0155034Y0104024D01*
X0155046Y0104075D01*
X0155054Y0104127D01*
X0155059Y0104179D01*
X0155061Y0104231D01*
X0165709Y0110610D02*
X0170317Y0115219D01*
X0132424Y0083723D02*
X0124057Y0083723D01*
X0110770Y0097010D01*
X0092561Y0097010D01*
X0094038Y0114727D02*
X0108802Y0114727D01*
X0108802Y0118664D01*
X0110770Y0118664D02*
X0110770Y0126538D01*
X0100928Y0119648D02*
X0097975Y0116695D01*
X0095022Y0116695D01*
X0094038Y0118664D02*
X0094038Y0137857D01*
X0111400Y0163900D02*
X0108643Y0166657D01*
X0108643Y0171558D01*
X0107817Y0172384D01*
X0107817Y0177384D01*
X0111400Y0168900D02*
X0113900Y0166400D01*
X0122660Y0166400D01*
D25*
X0112739Y0133939D03*
X0112739Y0126853D03*
X0122581Y0125081D03*
X0122581Y0117994D03*
X0133408Y0126853D03*
X0133408Y0133939D03*
X0168841Y0130455D03*
X0168841Y0137542D03*
X0167857Y0073073D03*
X0167857Y0065987D03*
D26*
X0167857Y0062561D03*
X0158998Y0073388D03*
X0156538Y0068959D03*
X0153093Y0101931D03*
X0140298Y0118664D03*
X0133408Y0137365D03*
X0122581Y0128506D03*
X0112739Y0137365D03*
X0102896Y0132443D03*
X0100928Y0119648D03*
X0100928Y0107837D03*
X0116415Y0090170D03*
X0120036Y0096418D03*
X0123950Y0103900D03*
X0111400Y0082650D03*
X0111400Y0075150D03*
X0102896Y0075357D03*
X0088132Y0074372D03*
X0055652Y0133428D03*
X0039904Y0132443D03*
X0168841Y0127030D03*
X0181144Y0117187D03*
D27*
X0120000Y0098000D02*
X0120000Y0095500D01*
X0102896Y0080357D02*
X0102896Y0070435D01*
X0102896Y0127522D02*
X0102896Y0137443D01*
X0112739Y0137365D02*
X0112739Y0133428D01*
X0039904Y0137365D02*
X0039904Y0127443D01*
D28*
X0143762Y0128034D03*
X0143762Y0136695D03*
X0158329Y0136695D03*
X0158329Y0128034D03*
D29*
X0167857Y0073782D03*
D30*
X0145711Y0068959D03*
X0170317Y0117187D03*
X0094645Y0137295D03*
X0047926Y0137495D03*
X0094567Y0070431D03*
D31*
X0021400Y0156400D03*
X0021400Y0178900D03*
X0021400Y0203900D03*
D32*
X0041400Y0203900D01*
X0048900Y0196400D01*
X0066400Y0196400D02*
X0081400Y0181400D01*
X0093900Y0181400D01*
X0093917Y0181417D01*
X0098883Y0181417D01*
X0100140Y0178731D02*
X0103370Y0181961D01*
X0112251Y0181961D01*
X0113512Y0180700D01*
X0133200Y0180700D01*
X0141400Y0188900D01*
X0141400Y0203900D01*
X0143900Y0206400D01*
X0151900Y0206400D01*
X0158900Y0213400D01*
X0156400Y0221400D02*
X0141400Y0221400D01*
X0126400Y0206400D01*
X0121400Y0202660D02*
X0121400Y0192640D01*
X0110160Y0192640D01*
X0106400Y0196400D01*
X0105258Y0197542D01*
X0105258Y0200416D01*
X0102699Y0200416D02*
X0102699Y0205154D01*
X0123900Y0226354D01*
X0123900Y0235010D01*
X0118900Y0240010D01*
X0118900Y0240140D01*
X0118900Y0256400D01*
X0108900Y0256400D02*
X0108900Y0240140D01*
X0108900Y0240010D01*
X0113400Y0235510D01*
X0113400Y0218400D01*
X0097581Y0202581D01*
X0097581Y0200416D01*
X0095022Y0200416D02*
X0095022Y0197778D01*
X0096400Y0196400D01*
X0101400Y0196400D01*
X0100140Y0197660D01*
X0100140Y0200416D01*
X0101400Y0196400D02*
X0106400Y0196400D01*
X0107817Y0200416D02*
X0107817Y0207726D01*
X0123991Y0223900D01*
X0131400Y0223900D01*
X0133900Y0226400D01*
X0133900Y0235010D01*
X0128900Y0240010D01*
X0128900Y0240140D01*
X0128900Y0256400D01*
X0128900Y0232660D02*
X0130400Y0231160D01*
X0130400Y0229400D01*
X0127400Y0231160D02*
X0128900Y0232660D01*
X0127400Y0231160D02*
X0127400Y0229400D01*
X0120400Y0229400D02*
X0120400Y0231160D01*
X0118900Y0232660D01*
X0117400Y0231160D01*
X0117400Y0229400D01*
X0110400Y0229400D02*
X0110400Y0231160D01*
X0108900Y0232660D01*
X0107400Y0231160D01*
X0107400Y0229400D01*
X0103900Y0221900D02*
X0103900Y0218900D01*
X0102797Y0217797D01*
X0103900Y0218900D02*
X0106900Y0218900D01*
X0111400Y0206400D02*
X0116400Y0206400D01*
X0111400Y0206400D02*
X0110376Y0205376D01*
X0110376Y0200416D01*
X0121400Y0210140D02*
X0119900Y0211640D01*
X0119900Y0213400D01*
X0122900Y0213400D02*
X0122900Y0211640D01*
X0121400Y0210140D01*
X0121400Y0185160D02*
X0127640Y0185160D01*
X0128900Y0183900D01*
X0130140Y0173900D02*
X0136400Y0173900D01*
X0138900Y0173900D01*
X0156400Y0191400D01*
X0166400Y0191400D01*
X0168900Y0193900D01*
X0168900Y0199400D01*
X0158900Y0198400D02*
X0139400Y0178900D01*
X0112766Y0178900D01*
X0111505Y0180161D01*
X0104129Y0180161D01*
X0102699Y0178731D01*
X0102699Y0177384D01*
X0100140Y0177384D02*
X0100140Y0178731D01*
X0097581Y0177384D02*
X0097581Y0172719D01*
X0098900Y0171400D01*
X0098900Y0143900D01*
X0113200Y0143900D01*
X0115700Y0146400D01*
X0106400Y0148900D02*
X0116400Y0158900D01*
X0123900Y0158900D01*
X0130140Y0165140D01*
X0130140Y0166400D01*
X0130140Y0173900D01*
X0122660Y0173900D02*
X0114189Y0173900D01*
X0111400Y0173900D02*
X0111400Y0168900D01*
X0111400Y0173900D02*
X0110376Y0174924D01*
X0110376Y0177384D01*
X0105258Y0177384D02*
X0105258Y0169270D01*
X0103900Y0167912D01*
X0103900Y0156888D02*
X0103900Y0154900D01*
X0105900Y0152900D01*
X0103900Y0154900D02*
X0101900Y0152900D01*
X0103900Y0148900D02*
X0106400Y0148900D01*
X0098900Y0143900D02*
X0092516Y0143900D01*
X0088900Y0140284D01*
X0085400Y0144400D02*
X0085400Y0145043D01*
X0083342Y0147101D01*
X0083900Y0147660D01*
X0083342Y0147101D02*
X0082400Y0146160D01*
X0082400Y0144400D01*
X0075900Y0143495D02*
X0075900Y0141900D01*
X0075900Y0143495D02*
X0073703Y0145692D01*
X0073900Y0145888D01*
X0073703Y0145692D02*
X0071900Y0143888D01*
X0071900Y0141900D01*
X0067400Y0157400D02*
X0068900Y0158900D01*
X0067400Y0160400D01*
X0081400Y0166400D02*
X0033900Y0166400D01*
X0021400Y0178900D01*
X0010848Y0168348D01*
X0010848Y0149110D01*
X0019600Y0140358D01*
X0019600Y0115654D01*
X0028402Y0106853D01*
X0049353Y0106853D01*
X0049353Y0108821D02*
X0028979Y0108821D01*
X0021400Y0116400D01*
X0021400Y0156400D01*
X0029600Y0164600D01*
X0083900Y0164600D01*
X0081400Y0166400D02*
X0083900Y0168900D01*
X0088900Y0171400D02*
X0088900Y0160140D01*
X0083900Y0155140D01*
X0090160Y0155140D01*
X0096400Y0148900D01*
X0096111Y0148900D01*
X0095400Y0156900D02*
X0095400Y0157877D01*
X0093509Y0159768D01*
X0093900Y0160160D01*
X0093509Y0159768D02*
X0092400Y0158660D01*
X0092400Y0156900D01*
X0093900Y0167640D02*
X0092463Y0169077D01*
X0092463Y0177384D01*
X0089904Y0177384D02*
X0089904Y0172404D01*
X0088900Y0171400D01*
X0095022Y0177384D02*
X0095022Y0180278D01*
X0093900Y0181400D01*
X0081900Y0196400D02*
X0082227Y0196727D01*
X0082227Y0200416D01*
X0087345Y0200416D02*
X0087345Y0202955D01*
X0086400Y0203900D01*
X0086354Y0203900D01*
X0083877Y0206377D01*
X0078923Y0206377D01*
X0076400Y0208900D01*
X0076400Y0210160D01*
X0075160Y0211400D01*
X0082640Y0211400D02*
X0083900Y0208900D01*
X0087100Y0205700D01*
X0087146Y0205700D01*
X0089145Y0203701D01*
X0089145Y0203655D01*
X0089904Y0202896D01*
X0089904Y0200416D01*
X0092463Y0200416D02*
X0092463Y0209963D01*
X0095003Y0210003D01*
X0077900Y0232400D02*
X0077101Y0232400D01*
X0076000Y0233500D01*
X0076400Y0233900D01*
X0076373Y0233927D01*
X0077845Y0235400D01*
X0077900Y0235400D01*
X0076373Y0233927D02*
X0074900Y0235400D01*
X0076000Y0233500D02*
X0074900Y0232400D01*
X0074900Y0239900D02*
X0076197Y0241197D01*
X0076514Y0240880D01*
X0074900Y0242493D01*
X0074900Y0242900D01*
X0076400Y0241400D02*
X0077900Y0242900D01*
X0076400Y0241400D02*
X0076197Y0241197D01*
X0076514Y0240880D02*
X0077493Y0239900D01*
X0077900Y0239900D01*
X0064600Y0239900D02*
X0063100Y0241400D01*
X0061600Y0239900D01*
X0063100Y0241400D02*
X0061600Y0242900D01*
X0063100Y0241400D02*
X0064600Y0242900D01*
X0055400Y0235400D02*
X0053900Y0233900D01*
X0053788Y0233788D01*
X0055177Y0232400D01*
X0055400Y0232400D01*
X0053900Y0233900D02*
X0052400Y0235400D01*
X0053788Y0233788D02*
X0052400Y0232400D01*
X0021400Y0203900D02*
X0008900Y0191400D01*
X0009048Y0191252D01*
X0009048Y0148364D01*
X0017800Y0139612D01*
X0017800Y0114909D01*
X0027825Y0104884D01*
X0049353Y0104884D01*
X0049353Y0093073D02*
X0040482Y0093073D01*
X0024600Y0077191D01*
X0024600Y0042600D01*
X0016400Y0034400D01*
X0026400Y0033400D02*
X0028900Y0040900D01*
X0028900Y0076400D01*
X0042100Y0089600D01*
X0042100Y0089646D01*
X0043559Y0091105D01*
X0049353Y0091105D01*
X0049353Y0089136D02*
X0046636Y0086636D01*
X0036400Y0076400D01*
X0036400Y0034400D01*
X0046400Y0033400D02*
X0046400Y0041400D01*
X0056636Y0051636D01*
X0056636Y0081853D01*
X0060573Y0081853D02*
X0060573Y0069681D01*
X0076377Y0048877D01*
X0076377Y0034423D01*
X0076400Y0034400D01*
X0086400Y0033400D02*
X0086400Y0041400D01*
X0062542Y0070258D01*
X0062542Y0081853D01*
X0070416Y0081853D02*
X0070416Y0107916D01*
X0081400Y0118900D01*
X0086400Y0118900D02*
X0086400Y0088900D01*
X0094567Y0080733D01*
X0094567Y0070431D01*
X0101098Y0063900D01*
X0146160Y0063900D01*
X0146400Y0063660D01*
X0146400Y0056400D01*
X0148900Y0053900D01*
X0148900Y0040900D01*
X0151400Y0058900D02*
X0152975Y0058900D01*
X0167857Y0073782D01*
X0177082Y0064481D02*
X0177743Y0063820D01*
X0177743Y0061116D01*
X0178326Y0061116D01*
X0177743Y0061116D02*
X0176205Y0061116D01*
X0174961Y0062360D01*
X0170011Y0057410D02*
X0171255Y0056166D01*
X0171255Y0054064D01*
X0169115Y0054064D01*
X0167890Y0055289D01*
X0171255Y0054064D02*
X0171255Y0054045D01*
X0146400Y0063660D02*
X0146400Y0068270D01*
X0145878Y0068792D01*
X0145878Y0069422D01*
X0142400Y0072900D01*
X0142400Y0086900D01*
X0145900Y0090400D01*
X0158400Y0090400D01*
X0165400Y0097400D01*
X0165400Y0110400D01*
X0170317Y0115317D01*
X0170317Y0117187D01*
X0160416Y0110199D02*
X0160416Y0097916D01*
X0156400Y0093900D01*
X0153900Y0093900D01*
X0154189Y0096689D02*
X0151689Y0096689D01*
X0148900Y0093900D01*
X0154189Y0096689D02*
X0157857Y0100357D01*
X0157857Y0110199D01*
X0145711Y0068959D02*
X0145878Y0068792D01*
X0143611Y0061111D02*
X0128900Y0046400D01*
X0128900Y0040900D01*
X0118900Y0041900D02*
X0135400Y0058900D01*
X0136400Y0058900D01*
X0086400Y0118900D02*
X0094645Y0127145D01*
X0094645Y0137295D01*
X0094445Y0137495D01*
X0047926Y0137495D01*
X0132400Y0154900D02*
X0133900Y0156400D01*
X0135400Y0154900D01*
X0133900Y0156400D02*
X0132400Y0157900D01*
X0133900Y0156400D02*
X0135400Y0157900D01*
X0156400Y0221400D02*
X0158900Y0223900D01*
X0158900Y0228400D01*
D33*
X0130400Y0229400D03*
X0127400Y0229400D03*
X0120400Y0229400D03*
X0117400Y0229400D03*
X0110400Y0229400D03*
X0107400Y0229400D03*
X0103900Y0221900D03*
X0106900Y0218900D03*
X0119900Y0213400D03*
X0122900Y0213400D03*
X0101400Y0191400D03*
X0101400Y0188900D03*
X0101400Y0186400D03*
X0098900Y0186400D03*
X0098900Y0188900D03*
X0098900Y0191400D03*
X0096400Y0191400D03*
X0096400Y0188900D03*
X0096400Y0186400D03*
X0093900Y0186400D03*
X0093900Y0188900D03*
X0093900Y0191400D03*
X0091400Y0191400D03*
X0091400Y0188900D03*
X0091400Y0186400D03*
X0098883Y0181417D03*
X0111400Y0168900D03*
X0114189Y0173900D03*
X0111400Y0163900D03*
X0105900Y0152900D03*
X0103900Y0148900D03*
X0101900Y0152900D03*
X0096111Y0148900D03*
X0095400Y0156900D03*
X0092400Y0156900D03*
X0083900Y0164600D03*
X0083900Y0168900D03*
X0068900Y0158900D03*
X0067400Y0160400D03*
X0067400Y0157400D03*
X0071900Y0141900D03*
X0075900Y0141900D03*
X0082400Y0144400D03*
X0085400Y0144400D03*
X0088900Y0140284D03*
X0081400Y0118900D03*
X0128900Y0183900D03*
X0136400Y0173900D03*
X0135400Y0157900D03*
X0133900Y0156400D03*
X0132400Y0154900D03*
X0132400Y0157900D03*
X0135400Y0154900D03*
X0148900Y0093900D03*
X0153900Y0093900D03*
X0143611Y0061111D03*
X0151400Y0058900D03*
X0136400Y0058900D03*
X0167890Y0055289D03*
X0170011Y0057410D03*
X0174961Y0062360D03*
X0177082Y0064481D03*
X0081900Y0193900D03*
X0081900Y0196400D03*
X0066400Y0196400D03*
X0048900Y0196400D03*
X0052400Y0232400D03*
X0053900Y0233900D03*
X0052400Y0235400D03*
X0055400Y0235400D03*
X0055400Y0232400D03*
X0061600Y0239900D03*
X0063100Y0241400D03*
X0064600Y0239900D03*
X0064600Y0242900D03*
X0061600Y0242900D03*
X0074900Y0242900D03*
X0076400Y0241400D03*
X0074900Y0239900D03*
X0074900Y0235400D03*
X0076400Y0233900D03*
X0077900Y0235400D03*
X0077900Y0232400D03*
X0074900Y0232400D03*
X0077900Y0239900D03*
X0077900Y0242900D03*
D34*
X0078900Y0243900D02*
X0078900Y0256400D01*
X0068900Y0256400D02*
X0068900Y0248900D01*
X0070111Y0247689D01*
X0070111Y0230813D01*
X0060600Y0221302D01*
X0060600Y0194700D01*
X0076400Y0178900D01*
X0076400Y0173100D02*
X0073998Y0173100D01*
X0054800Y0192298D01*
X0054800Y0223705D01*
X0063100Y0232005D01*
X0063100Y0241400D01*
X0056400Y0246400D02*
X0058900Y0248900D01*
X0058900Y0256400D01*
X0056400Y0246400D02*
X0056400Y0236400D01*
X0053900Y0233900D01*
X0066400Y0218900D02*
X0076400Y0228900D01*
X0076400Y0233900D01*
X0076400Y0241400D02*
X0078900Y0243900D01*
X0066400Y0218900D02*
X0066400Y0203900D01*
X0068900Y0201400D01*
X0076400Y0201400D01*
X0071912Y0158900D02*
X0068900Y0158900D01*
X0071912Y0158900D02*
X0073900Y0156912D01*
X0135400Y0154900D02*
X0135479Y0154821D01*
X0197321Y0154821D01*
X0197321Y0062321D01*
X0186400Y0051400D01*
X0186400Y0053042D01*
X0183616Y0055826D01*
X0186400Y0051400D02*
X0180150Y0045150D01*
X0180150Y0045150D01*
X0176400Y0041400D01*
X0168900Y0040900D01*
X0176545Y0048755D02*
X0180150Y0045150D01*
D35*
X0086500Y0160900D02*
X0077888Y0160900D01*
X0073900Y0156912D01*
X0086500Y0160900D02*
X0087000Y0161400D01*
X0087000Y0172187D01*
X0087345Y0172532D01*
X0087345Y0177384D01*
X0084786Y0177384D02*
X0084786Y0174786D01*
X0083100Y0173100D01*
X0076400Y0173100D01*
X0077916Y0177384D02*
X0076400Y0178900D01*
X0077916Y0177384D02*
X0082227Y0177384D01*
X0084786Y0200416D02*
X0084786Y0202782D01*
X0083784Y0203784D01*
X0078784Y0203784D01*
X0076400Y0201400D01*
X0168900Y0199400D02*
X0168900Y0214400D01*
X0168900Y0229400D01*
D36*
X0126400Y0206400D02*
X0116400Y0206400D01*
D37*
X0058900Y0098900D03*
X0063900Y0091400D03*
X0068900Y0073900D03*
X0073900Y0073900D03*
M02*
