G75*
%MOIN*%
%OFA0B0*%
%FSLAX25Y25*%
%IPPOS*%
%LPD*%
%AMOC8*
5,1,8,0,0,1.08239X$1,22.5*
%
%ADD10C,0.00000*%
%ADD11C,0.00400*%
%ADD12C,0.00800*%
%ADD13R,0.02000X0.02000*%
%ADD14R,0.06693X0.02953*%
%ADD15R,0.02953X0.05709*%
%ADD16R,0.02953X0.06693*%
%ADD17R,0.05709X0.02953*%
%ADD18R,0.02300X0.02300*%
%ADD19C,0.00500*%
%ADD20C,0.00600*%
%ADD21R,0.02559X0.05512*%
%ADD22R,0.05512X0.02559*%
%ADD23C,0.00200*%
%ADD24C,0.02000*%
%ADD25C,0.00787*%
%ADD26C,0.01969*%
D10*
X0001400Y0006400D02*
X0001400Y0285101D01*
X0218821Y0285101D01*
X0218821Y0006400D01*
X0001400Y0006400D01*
X0049353Y0081853D02*
X0049353Y0125947D01*
X0093447Y0125947D01*
X0093447Y0081853D01*
X0049353Y0081853D01*
X0052502Y0085002D02*
X0052502Y0122798D01*
X0090298Y0122798D01*
X0090298Y0085002D01*
X0052502Y0085002D01*
D11*
X0018700Y0070189D02*
X0016398Y0067887D01*
X0017165Y0067120D02*
X0014096Y0070189D01*
X0014096Y0067120D02*
X0018700Y0067120D01*
X0017933Y0065585D02*
X0018700Y0064818D01*
X0018700Y0063283D01*
X0017933Y0062516D01*
X0014863Y0062516D01*
X0014096Y0063283D01*
X0014096Y0064818D01*
X0014863Y0065585D01*
X0014096Y0060981D02*
X0014096Y0057912D01*
X0014096Y0059446D02*
X0018700Y0059446D01*
X0018700Y0056377D02*
X0017165Y0054842D01*
X0018700Y0053308D01*
X0014096Y0053308D01*
X0014863Y0051773D02*
X0015631Y0051773D01*
X0016398Y0051006D01*
X0016398Y0048704D01*
X0017165Y0047169D02*
X0017933Y0047169D01*
X0018700Y0046402D01*
X0018700Y0044867D01*
X0017933Y0044100D01*
X0016398Y0044867D02*
X0016398Y0046402D01*
X0017165Y0047169D01*
X0018700Y0048704D02*
X0014096Y0048704D01*
X0014096Y0051006D01*
X0014863Y0051773D01*
X0016398Y0051006D02*
X0017165Y0051773D01*
X0017933Y0051773D01*
X0018700Y0051006D01*
X0018700Y0048704D01*
X0014863Y0047169D02*
X0014096Y0046402D01*
X0014096Y0044867D01*
X0014863Y0044100D01*
X0015631Y0044100D01*
X0016398Y0044867D01*
X0018700Y0056377D02*
X0014096Y0056377D01*
X0064863Y0146600D02*
X0067933Y0146600D01*
X0068700Y0147367D01*
X0068700Y0148902D01*
X0067933Y0149669D01*
X0067933Y0151204D02*
X0068700Y0151971D01*
X0068700Y0153506D01*
X0067933Y0154273D01*
X0066398Y0154273D01*
X0065631Y0153506D01*
X0065631Y0152739D01*
X0066398Y0151204D01*
X0064096Y0151204D01*
X0064096Y0154273D01*
X0064863Y0149669D02*
X0064096Y0148902D01*
X0064096Y0147367D01*
X0064863Y0146600D01*
X0070802Y0147601D02*
X0070802Y0155199D01*
X0074096Y0153506D02*
X0076398Y0151204D01*
X0076398Y0154273D01*
X0076998Y0155199D02*
X0076998Y0147601D01*
X0077933Y0146600D02*
X0074863Y0146600D01*
X0074096Y0147367D01*
X0074096Y0148902D01*
X0074863Y0149669D01*
X0074096Y0153506D02*
X0078700Y0153506D01*
X0081302Y0152900D02*
X0081302Y0149900D01*
X0078700Y0148902D02*
X0078700Y0147367D01*
X0077933Y0146600D01*
X0078700Y0148902D02*
X0077933Y0149669D01*
X0086498Y0149998D02*
X0086498Y0152900D01*
X0087165Y0161600D02*
X0087165Y0163902D01*
X0086398Y0164669D01*
X0084863Y0164669D01*
X0084096Y0163902D01*
X0084096Y0161600D01*
X0088700Y0161600D01*
X0087165Y0163135D02*
X0088700Y0164669D01*
X0087933Y0166204D02*
X0087165Y0166204D01*
X0086398Y0166971D01*
X0086398Y0168506D01*
X0087165Y0169273D01*
X0087933Y0169273D01*
X0088700Y0168506D01*
X0088700Y0166971D01*
X0087933Y0166204D01*
X0086398Y0166971D02*
X0085631Y0166204D01*
X0084863Y0166204D01*
X0084096Y0166971D01*
X0084096Y0168506D01*
X0084863Y0169273D01*
X0085631Y0169273D01*
X0086398Y0168506D01*
X0100802Y0166199D02*
X0100802Y0158601D01*
X0106998Y0158601D02*
X0106998Y0166199D01*
X0109096Y0164531D02*
X0113700Y0164531D01*
X0113700Y0166065D02*
X0113700Y0162996D01*
X0112933Y0161461D02*
X0113700Y0160694D01*
X0113700Y0159159D01*
X0112933Y0158392D01*
X0109863Y0158392D01*
X0109096Y0159159D01*
X0109096Y0160694D01*
X0109863Y0161461D01*
X0110631Y0162996D02*
X0109096Y0164531D01*
X0119892Y0161204D02*
X0119892Y0156600D01*
X0119892Y0158135D02*
X0122194Y0158135D01*
X0122961Y0158902D01*
X0122961Y0160437D01*
X0122194Y0161204D01*
X0119892Y0161204D01*
X0121427Y0158135D02*
X0122961Y0156600D01*
X0124496Y0156600D02*
X0127565Y0159669D01*
X0127565Y0160437D01*
X0126798Y0161204D01*
X0125263Y0161204D01*
X0124496Y0160437D01*
X0124496Y0156600D02*
X0127565Y0156600D01*
X0134100Y0148704D02*
X0134100Y0144100D01*
X0137169Y0144100D01*
X0138704Y0144100D02*
X0141773Y0148704D01*
X0143308Y0148704D02*
X0146377Y0148704D01*
X0144842Y0148704D02*
X0144842Y0144100D01*
X0141773Y0144100D02*
X0138704Y0148704D01*
X0137169Y0148704D02*
X0134100Y0148704D01*
X0134100Y0146402D02*
X0135635Y0146402D01*
X0147912Y0143333D02*
X0150981Y0143333D01*
X0152516Y0144100D02*
X0152516Y0148704D01*
X0154818Y0148704D01*
X0155585Y0147937D01*
X0155585Y0146402D01*
X0154818Y0145635D01*
X0152516Y0145635D01*
X0157120Y0144100D02*
X0158654Y0145635D01*
X0160189Y0144100D01*
X0160189Y0148704D01*
X0161724Y0148704D02*
X0161724Y0144100D01*
X0164793Y0144100D02*
X0164793Y0148704D01*
X0163258Y0147169D01*
X0161724Y0148704D01*
X0157120Y0148704D02*
X0157120Y0144100D01*
X0170931Y0145635D02*
X0170931Y0147169D01*
X0172466Y0148704D01*
X0174001Y0147937D02*
X0174001Y0147169D01*
X0174768Y0146402D01*
X0176303Y0146402D01*
X0177070Y0145635D01*
X0177070Y0144867D01*
X0176303Y0144100D01*
X0174768Y0144100D01*
X0174001Y0144867D01*
X0172466Y0144100D02*
X0170931Y0145635D01*
X0174001Y0147937D02*
X0174768Y0148704D01*
X0176303Y0148704D01*
X0177070Y0147937D01*
X0178605Y0148704D02*
X0180139Y0148704D01*
X0179372Y0148704D02*
X0179372Y0144100D01*
X0178605Y0144100D02*
X0180139Y0144100D01*
X0181674Y0144867D02*
X0181674Y0147937D01*
X0182441Y0148704D01*
X0183976Y0148704D01*
X0184743Y0147937D01*
X0184743Y0146402D02*
X0183209Y0146402D01*
X0184743Y0146402D02*
X0184743Y0144867D01*
X0183976Y0144100D01*
X0182441Y0144100D01*
X0181674Y0144867D01*
X0190882Y0144100D02*
X0190882Y0148704D01*
X0197020Y0147937D02*
X0197020Y0144867D01*
X0197788Y0144100D01*
X0199322Y0144100D01*
X0200090Y0144867D01*
X0200090Y0146402D01*
X0198555Y0146402D01*
X0200090Y0147937D02*
X0199322Y0148704D01*
X0197788Y0148704D01*
X0197020Y0147937D01*
X0201624Y0148704D02*
X0201624Y0144100D01*
X0204693Y0144100D02*
X0201624Y0148704D01*
X0204693Y0148704D02*
X0204693Y0144100D01*
X0206228Y0144100D02*
X0206228Y0148704D01*
X0208530Y0148704D01*
X0209297Y0147937D01*
X0209297Y0144867D01*
X0208530Y0144100D01*
X0206228Y0144100D01*
X0210832Y0144100D02*
X0212367Y0145635D01*
X0212367Y0147169D01*
X0210832Y0148704D01*
X0209026Y0196600D02*
X0206724Y0196600D01*
X0206724Y0201204D01*
X0209026Y0201204D01*
X0209793Y0200437D01*
X0209793Y0197367D01*
X0209026Y0196600D01*
X0205189Y0197367D02*
X0205189Y0200437D01*
X0204422Y0201204D01*
X0202887Y0201204D01*
X0202120Y0200437D01*
X0202120Y0197367D01*
X0202887Y0196600D01*
X0204422Y0196600D01*
X0205189Y0197367D01*
X0200585Y0196600D02*
X0200585Y0201204D01*
X0199050Y0199669D01*
X0197516Y0201204D01*
X0197516Y0196600D01*
X0195981Y0195833D02*
X0192912Y0195833D01*
X0191377Y0196600D02*
X0189075Y0198902D01*
X0188308Y0198135D02*
X0191377Y0201204D01*
X0188308Y0201204D02*
X0188308Y0196600D01*
X0186773Y0196600D02*
X0185239Y0198135D01*
X0186006Y0198135D02*
X0183704Y0198135D01*
X0182169Y0198135D02*
X0182169Y0197367D01*
X0181402Y0196600D01*
X0179100Y0196600D01*
X0179100Y0201204D01*
X0181402Y0201204D01*
X0182169Y0200437D01*
X0182169Y0199669D01*
X0181402Y0198902D01*
X0179100Y0198902D01*
X0181402Y0198902D02*
X0182169Y0198135D01*
X0183704Y0196600D02*
X0183704Y0201204D01*
X0186006Y0201204D01*
X0186773Y0200437D01*
X0186773Y0198902D01*
X0186006Y0198135D01*
X0186006Y0211600D02*
X0184471Y0211600D01*
X0183704Y0212367D01*
X0183704Y0215437D01*
X0184471Y0216204D01*
X0186006Y0216204D01*
X0186773Y0215437D01*
X0186773Y0212367D01*
X0186006Y0211600D01*
X0188308Y0211600D02*
X0188308Y0216204D01*
X0189842Y0214669D01*
X0191377Y0216204D01*
X0191377Y0211600D01*
X0192912Y0210833D02*
X0195981Y0210833D01*
X0197516Y0211600D02*
X0197516Y0216204D01*
X0199050Y0214669D01*
X0200585Y0216204D01*
X0200585Y0211600D01*
X0202120Y0212367D02*
X0202887Y0211600D01*
X0204422Y0211600D01*
X0205189Y0212367D01*
X0205189Y0215437D01*
X0204422Y0216204D01*
X0202887Y0216204D01*
X0202120Y0215437D01*
X0202120Y0212367D01*
X0206724Y0211600D02*
X0209026Y0211600D01*
X0209793Y0212367D01*
X0209793Y0215437D01*
X0209026Y0216204D01*
X0206724Y0216204D01*
X0206724Y0211600D01*
X0195981Y0225833D02*
X0192912Y0225833D01*
X0191377Y0228135D02*
X0191377Y0231204D01*
X0188308Y0231204D02*
X0188308Y0228135D01*
X0189842Y0226600D01*
X0191377Y0228135D01*
X0186773Y0228902D02*
X0186006Y0228135D01*
X0183704Y0228135D01*
X0185239Y0228135D02*
X0186773Y0226600D01*
X0186773Y0228902D02*
X0186773Y0230437D01*
X0186006Y0231204D01*
X0183704Y0231204D01*
X0183704Y0226600D01*
X0182169Y0227367D02*
X0182169Y0230437D01*
X0181402Y0231204D01*
X0179100Y0231204D01*
X0179100Y0226600D01*
X0181402Y0226600D01*
X0182169Y0227367D01*
X0181402Y0216204D02*
X0179867Y0216204D01*
X0179100Y0215437D01*
X0179100Y0212367D01*
X0179867Y0211600D01*
X0181402Y0211600D01*
X0182169Y0212367D01*
X0182169Y0215437D02*
X0181402Y0216204D01*
X0197516Y0226600D02*
X0197516Y0231204D01*
X0199050Y0229669D01*
X0200585Y0231204D01*
X0200585Y0226600D01*
X0202120Y0227367D02*
X0202887Y0226600D01*
X0204422Y0226600D01*
X0205189Y0227367D01*
X0205189Y0230437D01*
X0204422Y0231204D01*
X0202887Y0231204D01*
X0202120Y0230437D01*
X0202120Y0227367D01*
X0206724Y0226600D02*
X0209026Y0226600D01*
X0209793Y0227367D01*
X0209793Y0230437D01*
X0209026Y0231204D01*
X0206724Y0231204D01*
X0206724Y0226600D01*
X0166200Y0241600D02*
X0161596Y0241600D01*
X0163898Y0241600D02*
X0163898Y0244669D01*
X0161596Y0244669D02*
X0166200Y0244669D01*
X0166200Y0246204D02*
X0166200Y0247739D01*
X0166200Y0246971D02*
X0161596Y0246971D01*
X0161596Y0246204D02*
X0161596Y0247739D01*
X0156200Y0248506D02*
X0155433Y0249273D01*
X0152363Y0249273D01*
X0151596Y0248506D01*
X0151596Y0246971D01*
X0152363Y0246204D01*
X0155433Y0246204D01*
X0156200Y0246971D01*
X0156200Y0248506D01*
X0156200Y0244669D02*
X0156200Y0241600D01*
X0151596Y0241600D01*
X0131200Y0266600D02*
X0126596Y0266600D01*
X0128898Y0266600D02*
X0128898Y0269669D01*
X0126596Y0269669D02*
X0131200Y0269669D01*
X0131967Y0271204D02*
X0131967Y0274273D01*
X0130433Y0275808D02*
X0131200Y0276575D01*
X0131200Y0278110D01*
X0130433Y0278877D01*
X0126596Y0278877D01*
X0126596Y0275808D02*
X0130433Y0275808D01*
X0121967Y0274273D02*
X0121967Y0271204D01*
X0121200Y0269669D02*
X0116596Y0269669D01*
X0118898Y0269669D02*
X0118898Y0266600D01*
X0121200Y0266600D02*
X0116596Y0266600D01*
X0111200Y0266600D02*
X0106596Y0266600D01*
X0108898Y0266600D02*
X0108898Y0269669D01*
X0106596Y0269669D02*
X0111200Y0269669D01*
X0111967Y0271204D02*
X0111967Y0274273D01*
X0111200Y0275808D02*
X0109665Y0277342D01*
X0111200Y0278877D01*
X0106596Y0278877D01*
X0106596Y0275808D02*
X0111200Y0275808D01*
X0116596Y0275808D02*
X0119665Y0275808D01*
X0121200Y0277342D01*
X0119665Y0278877D01*
X0116596Y0278877D01*
X0101967Y0274273D02*
X0101967Y0271204D01*
X0099665Y0269669D02*
X0101200Y0268135D01*
X0099665Y0266600D01*
X0096596Y0266600D01*
X0096596Y0269669D02*
X0099665Y0269669D01*
X0098898Y0275808D02*
X0098898Y0278877D01*
X0096596Y0278877D02*
X0101200Y0278877D01*
X0101200Y0275808D02*
X0096596Y0275808D01*
X0091200Y0275808D02*
X0091200Y0278110D01*
X0090433Y0278877D01*
X0087363Y0278877D01*
X0086596Y0278110D01*
X0086596Y0275808D01*
X0091200Y0275808D01*
X0091200Y0274273D02*
X0086596Y0274273D01*
X0086596Y0271204D02*
X0091200Y0274273D01*
X0091200Y0271204D02*
X0086596Y0271204D01*
X0087363Y0269669D02*
X0086596Y0268902D01*
X0086596Y0267367D01*
X0087363Y0266600D01*
X0090433Y0266600D01*
X0091200Y0267367D01*
X0091200Y0268902D01*
X0090433Y0269669D01*
X0088898Y0269669D01*
X0088898Y0268135D01*
X0081200Y0268902D02*
X0080433Y0269669D01*
X0076596Y0269669D01*
X0076596Y0266600D02*
X0080433Y0266600D01*
X0081200Y0267367D01*
X0081200Y0268902D01*
X0071200Y0268135D02*
X0069665Y0269669D01*
X0066596Y0269669D01*
X0066596Y0266600D02*
X0069665Y0266600D01*
X0071200Y0268135D01*
X0061200Y0269669D02*
X0059665Y0268135D01*
X0061200Y0266600D01*
X0056596Y0266600D01*
X0056596Y0269669D02*
X0061200Y0269669D01*
X0099096Y0241773D02*
X0099096Y0238704D01*
X0099863Y0237169D02*
X0099096Y0236402D01*
X0099096Y0234100D01*
X0103700Y0234100D01*
X0102165Y0234100D02*
X0102165Y0236402D01*
X0101398Y0237169D01*
X0099863Y0237169D01*
X0102165Y0235635D02*
X0103700Y0237169D01*
X0103700Y0238704D02*
X0102933Y0238704D01*
X0099863Y0241773D01*
X0099096Y0241773D01*
X0109096Y0241773D02*
X0109863Y0240239D01*
X0111398Y0238704D01*
X0111398Y0241006D01*
X0112165Y0241773D01*
X0112933Y0241773D01*
X0113700Y0241006D01*
X0113700Y0239471D01*
X0112933Y0238704D01*
X0111398Y0238704D01*
X0111398Y0237169D02*
X0109863Y0237169D01*
X0109096Y0236402D01*
X0109096Y0234100D01*
X0113700Y0234100D01*
X0112165Y0234100D02*
X0112165Y0236402D01*
X0111398Y0237169D01*
X0112165Y0235635D02*
X0113700Y0237169D01*
X0119096Y0236402D02*
X0119096Y0234100D01*
X0123700Y0234100D01*
X0122165Y0234100D02*
X0122165Y0236402D01*
X0121398Y0237169D01*
X0119863Y0237169D01*
X0119096Y0236402D01*
X0119096Y0238704D02*
X0121398Y0238704D01*
X0120631Y0240239D01*
X0120631Y0241006D01*
X0121398Y0241773D01*
X0122933Y0241773D01*
X0123700Y0241006D01*
X0123700Y0239471D01*
X0122933Y0238704D01*
X0123700Y0237169D02*
X0122165Y0235635D01*
X0119096Y0238704D02*
X0119096Y0241773D01*
X0099396Y0218777D02*
X0094023Y0213404D01*
X0098404Y0209023D02*
X0103777Y0214396D01*
X0104623Y0212275D02*
X0105709Y0212275D01*
X0106251Y0211732D01*
X0106251Y0210647D01*
X0107336Y0210647D01*
X0107879Y0210105D01*
X0107879Y0209020D01*
X0106794Y0207934D01*
X0105709Y0207934D01*
X0104623Y0206849D02*
X0104623Y0205764D01*
X0103538Y0204679D01*
X0102453Y0204679D01*
X0100283Y0206849D01*
X0100283Y0207934D01*
X0101368Y0209020D01*
X0102453Y0209020D01*
X0103538Y0210105D02*
X0103538Y0211190D01*
X0104623Y0212275D01*
X0106251Y0210647D02*
X0105709Y0210105D01*
X0124100Y0183704D02*
X0126402Y0183704D01*
X0127169Y0182937D01*
X0127169Y0181402D01*
X0126402Y0180635D01*
X0124100Y0180635D01*
X0125635Y0180635D02*
X0127169Y0179100D01*
X0128704Y0179100D02*
X0131773Y0179100D01*
X0130239Y0179100D02*
X0130239Y0183704D01*
X0128704Y0182169D01*
X0129665Y0182392D02*
X0129665Y0184694D01*
X0128898Y0185461D01*
X0127363Y0185461D01*
X0126596Y0184694D01*
X0126596Y0182392D01*
X0131200Y0182392D01*
X0129665Y0183927D02*
X0131200Y0185461D01*
X0128898Y0186996D02*
X0128898Y0190065D01*
X0126596Y0189298D02*
X0128898Y0186996D01*
X0131200Y0189298D02*
X0126596Y0189298D01*
X0124100Y0183704D02*
X0124100Y0179100D01*
X0126596Y0199892D02*
X0126596Y0202194D01*
X0127363Y0202961D01*
X0128898Y0202961D01*
X0129665Y0202194D01*
X0129665Y0199892D01*
X0129665Y0201427D02*
X0131200Y0202961D01*
X0130433Y0204496D02*
X0131200Y0205263D01*
X0131200Y0206798D01*
X0130433Y0207565D01*
X0129665Y0207565D01*
X0128898Y0206798D01*
X0128898Y0206031D01*
X0128898Y0206798D02*
X0128131Y0207565D01*
X0127363Y0207565D01*
X0126596Y0206798D01*
X0126596Y0205263D01*
X0127363Y0204496D01*
X0126596Y0199892D02*
X0131200Y0199892D01*
X0081773Y0216600D02*
X0078704Y0216600D01*
X0081773Y0219669D01*
X0081773Y0220437D01*
X0081006Y0221204D01*
X0079471Y0221204D01*
X0078704Y0220437D01*
X0077169Y0220437D02*
X0076402Y0221204D01*
X0074867Y0221204D01*
X0074100Y0220437D01*
X0074100Y0217367D01*
X0074867Y0216600D01*
X0076402Y0216600D01*
X0077169Y0217367D01*
X0077400Y0213998D02*
X0080400Y0213998D01*
X0080400Y0208802D02*
X0077498Y0208802D01*
X0044273Y0205437D02*
X0044273Y0202367D01*
X0043506Y0201600D01*
X0041204Y0201600D01*
X0041204Y0206204D01*
X0043506Y0206204D01*
X0044273Y0205437D01*
X0039669Y0205437D02*
X0039669Y0203902D01*
X0038902Y0203135D01*
X0036600Y0203135D01*
X0038135Y0203135D02*
X0039669Y0201600D01*
X0039669Y0205437D02*
X0038902Y0206204D01*
X0036600Y0206204D01*
X0036600Y0201600D01*
X0036600Y0181204D02*
X0039669Y0181204D01*
X0041204Y0180437D02*
X0041204Y0177367D01*
X0041971Y0176600D01*
X0043506Y0176600D01*
X0044273Y0177367D01*
X0044273Y0178902D01*
X0042739Y0178902D01*
X0044273Y0180437D02*
X0043506Y0181204D01*
X0041971Y0181204D01*
X0041204Y0180437D01*
X0038135Y0178902D02*
X0036600Y0178902D01*
X0036600Y0176600D02*
X0036600Y0181204D01*
X0036600Y0158704D02*
X0039669Y0158704D01*
X0041204Y0158704D02*
X0043506Y0158704D01*
X0044273Y0157937D01*
X0044273Y0156402D01*
X0043506Y0155635D01*
X0041204Y0155635D01*
X0042739Y0155635D02*
X0044273Y0154100D01*
X0041204Y0154100D02*
X0041204Y0158704D01*
X0038135Y0156402D02*
X0036600Y0156402D01*
X0036600Y0154100D02*
X0036600Y0158704D01*
X0097363Y0032565D02*
X0096596Y0031798D01*
X0096596Y0030263D01*
X0097363Y0029496D01*
X0097363Y0027961D02*
X0096596Y0027194D01*
X0096596Y0025659D01*
X0097363Y0024892D01*
X0100433Y0024892D01*
X0101200Y0025659D01*
X0101200Y0027194D01*
X0100433Y0027961D01*
X0101200Y0029496D02*
X0098131Y0032565D01*
X0097363Y0032565D01*
X0101200Y0032565D02*
X0101200Y0029496D01*
X0101200Y0023357D02*
X0096596Y0023357D01*
X0096596Y0020288D02*
X0101200Y0023357D01*
X0101200Y0020288D02*
X0096596Y0020288D01*
X0096596Y0018754D02*
X0097363Y0018754D01*
X0098898Y0017219D01*
X0101200Y0017219D01*
X0098898Y0017219D02*
X0097363Y0015684D01*
X0096596Y0015684D01*
X0097363Y0014150D02*
X0096596Y0013382D01*
X0096596Y0011848D01*
X0097363Y0011080D01*
X0098131Y0011080D01*
X0098898Y0011848D01*
X0098898Y0013382D01*
X0099665Y0014150D01*
X0100433Y0014150D01*
X0101200Y0013382D01*
X0101200Y0011848D01*
X0100433Y0011080D01*
X0106596Y0011848D02*
X0107363Y0011080D01*
X0108131Y0011080D01*
X0108898Y0011848D01*
X0108898Y0013382D01*
X0109665Y0014150D01*
X0110433Y0014150D01*
X0111200Y0013382D01*
X0111200Y0011848D01*
X0110433Y0011080D01*
X0106596Y0011848D02*
X0106596Y0013382D01*
X0107363Y0014150D01*
X0107363Y0015684D02*
X0108898Y0017219D01*
X0111200Y0017219D01*
X0108898Y0017219D02*
X0107363Y0018754D01*
X0106596Y0018754D01*
X0106596Y0020288D02*
X0111200Y0023357D01*
X0106596Y0023357D01*
X0107363Y0024892D02*
X0110433Y0024892D01*
X0111200Y0025659D01*
X0111200Y0027194D01*
X0110433Y0027961D01*
X0111200Y0029496D02*
X0111200Y0032565D01*
X0111200Y0031031D02*
X0106596Y0031031D01*
X0108131Y0029496D01*
X0107363Y0027961D02*
X0106596Y0027194D01*
X0106596Y0025659D01*
X0107363Y0024892D01*
X0106596Y0020288D02*
X0111200Y0020288D01*
X0116596Y0021823D02*
X0118131Y0023357D01*
X0121200Y0023357D01*
X0121200Y0024892D02*
X0116596Y0024892D01*
X0121200Y0027961D01*
X0116596Y0027961D01*
X0116596Y0029496D02*
X0121200Y0029496D01*
X0121200Y0032565D01*
X0126596Y0032565D02*
X0131200Y0032565D01*
X0128898Y0032565D02*
X0128898Y0029496D01*
X0131200Y0029496D02*
X0126596Y0029496D01*
X0126596Y0027961D02*
X0131200Y0027961D01*
X0126596Y0024892D01*
X0131200Y0024892D01*
X0131200Y0023357D02*
X0128131Y0023357D01*
X0126596Y0021823D01*
X0128131Y0020288D01*
X0131200Y0020288D01*
X0130433Y0018754D02*
X0131200Y0017986D01*
X0131200Y0016452D01*
X0130433Y0015684D01*
X0127363Y0015684D01*
X0126596Y0016452D01*
X0126596Y0017986D01*
X0127363Y0018754D01*
X0128898Y0020288D02*
X0128898Y0023357D01*
X0121200Y0020288D02*
X0118131Y0020288D01*
X0116596Y0021823D01*
X0118898Y0020288D02*
X0118898Y0023357D01*
X0117363Y0018754D02*
X0116596Y0017986D01*
X0116596Y0016452D01*
X0117363Y0015684D01*
X0120433Y0015684D01*
X0121200Y0016452D01*
X0121200Y0017986D01*
X0120433Y0018754D01*
X0107363Y0015684D02*
X0106596Y0015684D01*
X0136596Y0024892D02*
X0138898Y0024892D01*
X0138131Y0026427D01*
X0138131Y0027194D01*
X0138898Y0027961D01*
X0140433Y0027961D01*
X0141200Y0027194D01*
X0141200Y0025659D01*
X0140433Y0024892D01*
X0136596Y0024892D02*
X0136596Y0027961D01*
X0136596Y0029496D02*
X0139665Y0029496D01*
X0141200Y0031031D01*
X0139665Y0032565D01*
X0136596Y0032565D01*
X0146596Y0031798D02*
X0146596Y0030263D01*
X0147363Y0029496D01*
X0148131Y0027961D02*
X0151200Y0026427D01*
X0148131Y0024892D01*
X0148131Y0023357D02*
X0148898Y0022590D01*
X0149665Y0023357D01*
X0150433Y0023357D01*
X0151200Y0022590D01*
X0151200Y0021056D01*
X0150433Y0020288D01*
X0148898Y0021823D02*
X0148898Y0022590D01*
X0148131Y0023357D02*
X0147363Y0023357D01*
X0146596Y0022590D01*
X0146596Y0021056D01*
X0147363Y0020288D01*
X0150433Y0029496D02*
X0151200Y0030263D01*
X0151200Y0031798D01*
X0150433Y0032565D01*
X0149665Y0032565D01*
X0148898Y0031798D01*
X0148898Y0031031D01*
X0148898Y0031798D02*
X0148131Y0032565D01*
X0147363Y0032565D01*
X0146596Y0031798D01*
X0156596Y0031798D02*
X0156596Y0029496D01*
X0161200Y0029496D01*
X0161200Y0031798D01*
X0160433Y0032565D01*
X0157363Y0032565D01*
X0156596Y0031798D01*
X0156596Y0027961D02*
X0161200Y0027961D01*
X0156596Y0024892D01*
X0161200Y0024892D01*
X0160433Y0023357D02*
X0161200Y0022590D01*
X0161200Y0021056D01*
X0160433Y0020288D01*
X0157363Y0020288D01*
X0156596Y0021056D01*
X0156596Y0022590D01*
X0157363Y0023357D01*
X0158898Y0023357D02*
X0158898Y0021823D01*
X0158898Y0023357D02*
X0160433Y0023357D01*
X0166596Y0023357D02*
X0169665Y0023357D01*
X0171200Y0021823D01*
X0169665Y0020288D01*
X0166596Y0020288D01*
X0171967Y0024892D02*
X0171967Y0027961D01*
X0171200Y0029496D02*
X0166596Y0029496D01*
X0168131Y0031031D01*
X0166596Y0032565D01*
X0171200Y0032565D01*
X0173123Y0048502D02*
X0171072Y0050554D01*
X0174677Y0054298D02*
X0176798Y0052177D01*
X0179066Y0053588D02*
X0177981Y0054673D01*
X0177981Y0055758D01*
X0179066Y0056843D01*
X0180694Y0055216D01*
X0180694Y0054130D01*
X0180151Y0053588D01*
X0179066Y0053588D01*
X0180194Y0055573D02*
X0178143Y0057625D01*
X0179066Y0056843D02*
X0181236Y0056843D01*
X0182864Y0056301D01*
X0183869Y0059248D02*
X0181748Y0061369D01*
X0182882Y0063914D02*
X0181796Y0065000D01*
X0181796Y0066085D01*
X0183967Y0068255D01*
X0185052Y0068255D01*
X0186137Y0067170D01*
X0186137Y0066085D01*
X0187765Y0065542D02*
X0189935Y0063372D01*
X0189393Y0062829D01*
X0185052Y0062829D01*
X0184509Y0062287D01*
X0183967Y0063914D02*
X0182882Y0063914D01*
X0179066Y0060099D02*
X0179066Y0059014D01*
X0179066Y0060099D02*
X0177981Y0061184D01*
X0176896Y0061184D01*
X0174725Y0059014D01*
X0174725Y0057928D01*
X0175811Y0056843D01*
X0176896Y0056843D01*
D12*
X0171400Y0046400D02*
X0166400Y0046400D01*
X0163900Y0043900D01*
X0161400Y0046400D01*
X0156400Y0046400D01*
X0153900Y0043900D01*
X0151400Y0046400D01*
X0146400Y0046400D01*
X0143900Y0043900D01*
X0141400Y0046400D01*
X0136400Y0046400D01*
X0133900Y0043900D01*
X0131400Y0046400D01*
X0126400Y0046400D01*
X0123900Y0043900D01*
X0121400Y0046400D01*
X0116400Y0046400D01*
X0113900Y0043900D01*
X0111400Y0046400D01*
X0106400Y0046400D01*
X0103900Y0043900D01*
X0101400Y0046400D01*
X0096400Y0046400D01*
X0093900Y0043900D01*
X0093900Y0038900D01*
X0096400Y0036400D01*
X0101400Y0036400D01*
X0103900Y0038900D01*
X0106400Y0036400D01*
X0111400Y0036400D01*
X0113900Y0038900D01*
X0116400Y0036400D01*
X0121400Y0036400D01*
X0123900Y0038900D01*
X0126400Y0036400D01*
X0131400Y0036400D01*
X0133900Y0038900D01*
X0136400Y0036400D01*
X0141400Y0036400D01*
X0143900Y0038900D01*
X0146400Y0036400D01*
X0151400Y0036400D01*
X0153900Y0038900D01*
X0156400Y0036400D01*
X0161400Y0036400D01*
X0163900Y0038900D01*
X0166400Y0036400D01*
X0171400Y0036400D01*
X0173900Y0038900D01*
X0173900Y0043900D01*
X0171400Y0046400D01*
X0128900Y0141400D02*
X0123900Y0141400D01*
X0121400Y0143900D01*
X0118900Y0141400D01*
X0113900Y0141400D01*
X0111400Y0143900D01*
X0111400Y0148900D01*
X0113900Y0151400D01*
X0118900Y0151400D01*
X0121400Y0148900D01*
X0123900Y0151400D01*
X0128900Y0151400D01*
X0131400Y0148900D01*
X0131400Y0143900D01*
X0128900Y0141400D01*
X0146400Y0193900D02*
X0151400Y0193900D01*
X0153900Y0196400D01*
X0156400Y0193900D01*
X0161400Y0193900D01*
X0163900Y0196400D01*
X0166400Y0193900D01*
X0171400Y0193900D01*
X0173900Y0196400D01*
X0173900Y0201400D01*
X0171400Y0203900D01*
X0166400Y0203900D01*
X0163900Y0201400D01*
X0161400Y0203900D01*
X0156400Y0203900D01*
X0153900Y0201400D01*
X0151400Y0203900D01*
X0146400Y0203900D01*
X0143900Y0201400D01*
X0143900Y0196400D01*
X0146400Y0193900D01*
X0146400Y0208900D02*
X0143900Y0211400D01*
X0143900Y0216400D01*
X0146400Y0218900D01*
X0151400Y0218900D01*
X0153900Y0216400D01*
X0156400Y0218900D01*
X0161400Y0218900D01*
X0163900Y0216400D01*
X0166400Y0218900D01*
X0171400Y0218900D01*
X0173900Y0216400D01*
X0173900Y0211400D01*
X0171400Y0208900D01*
X0166400Y0208900D01*
X0163900Y0211400D01*
X0161400Y0208900D01*
X0156400Y0208900D01*
X0153900Y0211400D01*
X0151400Y0208900D01*
X0146400Y0208900D01*
X0146400Y0223900D02*
X0151400Y0223900D01*
X0153900Y0226400D01*
X0156400Y0223900D01*
X0161400Y0223900D01*
X0163900Y0226400D01*
X0166400Y0223900D01*
X0171400Y0223900D01*
X0173900Y0226400D01*
X0173900Y0231400D01*
X0171400Y0233900D01*
X0166400Y0233900D01*
X0163900Y0231400D01*
X0161400Y0233900D01*
X0156400Y0233900D01*
X0153900Y0231400D01*
X0151400Y0233900D01*
X0146400Y0233900D01*
X0143900Y0231400D01*
X0143900Y0226400D01*
X0146400Y0223900D01*
X0131400Y0251400D02*
X0126400Y0251400D01*
X0123900Y0253900D01*
X0121400Y0251400D01*
X0116400Y0251400D01*
X0113900Y0253900D01*
X0111400Y0251400D01*
X0106400Y0251400D01*
X0103900Y0253900D01*
X0101400Y0251400D01*
X0096400Y0251400D01*
X0093900Y0253900D01*
X0091400Y0251400D01*
X0086400Y0251400D01*
X0083900Y0253900D01*
X0081400Y0251400D01*
X0076400Y0251400D01*
X0073900Y0253900D01*
X0071400Y0251400D01*
X0066400Y0251400D01*
X0063900Y0253900D01*
X0061400Y0251400D01*
X0056400Y0251400D01*
X0053900Y0253900D01*
X0053900Y0258900D01*
X0056400Y0261400D01*
X0061400Y0261400D01*
X0063900Y0258900D01*
X0066400Y0261400D01*
X0071400Y0261400D01*
X0073900Y0258900D01*
X0076400Y0261400D01*
X0081400Y0261400D01*
X0083900Y0258900D01*
X0086400Y0261400D01*
X0091400Y0261400D01*
X0093900Y0258900D01*
X0096400Y0261400D01*
X0101400Y0261400D01*
X0103900Y0258900D01*
X0106400Y0261400D01*
X0111400Y0261400D01*
X0113900Y0258900D01*
X0116400Y0261400D01*
X0121400Y0261400D01*
X0123900Y0258900D01*
X0126400Y0261400D01*
X0131400Y0261400D01*
X0133900Y0258900D01*
X0133900Y0253900D01*
X0131400Y0251400D01*
X0088900Y0038900D02*
X0083900Y0038900D01*
X0081400Y0036400D01*
X0078900Y0038900D01*
X0073900Y0038900D01*
X0071400Y0036400D01*
X0068900Y0038900D01*
X0063900Y0038900D01*
X0061400Y0036400D01*
X0058900Y0038900D01*
X0053900Y0038900D01*
X0051400Y0036400D01*
X0048900Y0038900D01*
X0043900Y0038900D01*
X0041400Y0036400D01*
X0038900Y0038900D01*
X0033900Y0038900D01*
X0031400Y0036400D01*
X0028900Y0038900D01*
X0023900Y0038900D01*
X0021400Y0036400D01*
X0018900Y0038900D01*
X0013900Y0038900D01*
X0011400Y0036400D01*
X0011400Y0031400D01*
X0013900Y0028900D01*
X0018900Y0028900D01*
X0021400Y0031400D01*
X0023900Y0028900D01*
X0028900Y0028900D01*
X0031400Y0031400D01*
X0033900Y0028900D01*
X0038900Y0028900D01*
X0041400Y0031400D01*
X0043900Y0028900D01*
X0048900Y0028900D01*
X0051400Y0031400D01*
X0053900Y0028900D01*
X0058900Y0028900D01*
X0061400Y0031400D01*
X0063900Y0028900D01*
X0068900Y0028900D01*
X0071400Y0031400D01*
X0073900Y0028900D01*
X0078900Y0028900D01*
X0081400Y0031400D01*
X0083900Y0028900D01*
X0088900Y0028900D01*
X0091400Y0031400D01*
X0091400Y0036400D01*
X0088900Y0038900D01*
D13*
X0086400Y0033900D03*
X0076400Y0033900D03*
X0066400Y0033900D03*
X0056400Y0033900D03*
X0046400Y0033900D03*
X0036400Y0033900D03*
X0026400Y0033900D03*
X0016400Y0033900D03*
X0098900Y0041400D03*
X0108900Y0041400D03*
X0118900Y0041400D03*
X0128900Y0041400D03*
X0138900Y0041400D03*
X0148900Y0041400D03*
X0158900Y0041400D03*
X0168900Y0041400D03*
X0168900Y0198900D03*
X0158900Y0198900D03*
X0148900Y0198900D03*
X0148900Y0213900D03*
X0158900Y0213900D03*
X0168900Y0213900D03*
X0168900Y0228900D03*
X0158900Y0228900D03*
X0148900Y0228900D03*
X0128900Y0256400D03*
X0118900Y0256400D03*
X0108900Y0256400D03*
X0098900Y0256400D03*
X0088900Y0256400D03*
X0078900Y0256400D03*
X0068900Y0256400D03*
X0058900Y0256400D03*
D14*
X0103896Y0167623D03*
X0103904Y0157177D03*
X0073896Y0156623D03*
X0073904Y0146177D03*
D15*
X0076077Y0211405D03*
X0081777Y0211405D03*
G36*
X0178004Y0057410D02*
X0175917Y0059497D01*
X0179952Y0063532D01*
X0182039Y0061445D01*
X0178004Y0057410D01*
G37*
G36*
X0170933Y0050339D02*
X0168846Y0052426D01*
X0172881Y0056461D01*
X0174968Y0054374D01*
X0170933Y0050339D01*
G37*
G36*
X0174963Y0046308D02*
X0172876Y0048395D01*
X0176911Y0052430D01*
X0178998Y0050343D01*
X0174963Y0046308D01*
G37*
G36*
X0182034Y0053379D02*
X0179947Y0055466D01*
X0183982Y0059501D01*
X0186069Y0057414D01*
X0182034Y0053379D01*
G37*
D16*
G36*
X0091800Y0211526D02*
X0093887Y0213613D01*
X0098618Y0208882D01*
X0096531Y0206795D01*
X0091800Y0211526D01*
G37*
G36*
X0099182Y0218918D02*
X0101269Y0221005D01*
X0106000Y0216274D01*
X0103913Y0214187D01*
X0099182Y0218918D01*
G37*
D17*
X0083895Y0154277D03*
X0083895Y0148577D03*
D18*
X0116400Y0146400D03*
X0126400Y0146400D03*
D19*
X0130258Y0136302D02*
X0136557Y0136302D01*
X0136557Y0124491D01*
X0130258Y0124491D01*
X0130258Y0136302D01*
X0125731Y0127443D02*
X0125731Y0115632D01*
X0119431Y0115632D01*
X0119431Y0127443D01*
X0125731Y0127443D01*
X0115888Y0124491D02*
X0109589Y0124491D01*
X0109589Y0136302D01*
X0115888Y0136302D01*
X0115888Y0124491D01*
X0114353Y0120199D02*
X0114353Y0107601D01*
X0108447Y0107601D01*
X0108447Y0120199D01*
X0114353Y0120199D01*
X0104786Y0124372D02*
X0092975Y0124372D01*
X0092975Y0130672D01*
X0104786Y0130672D01*
X0104786Y0124372D01*
X0100928Y0123585D02*
X0091085Y0123585D01*
X0091085Y0133428D01*
X0092975Y0134215D02*
X0092975Y0140514D01*
X0104786Y0140514D01*
X0104786Y0134215D01*
X0092975Y0134215D01*
X0128821Y0106459D02*
X0168979Y0106459D01*
X0168979Y0085593D01*
X0128821Y0085593D01*
X0128821Y0106459D01*
X0141203Y0124491D02*
X0160888Y0124491D01*
X0165691Y0128093D02*
X0165691Y0139904D01*
X0171991Y0139904D01*
X0171991Y0128093D01*
X0165691Y0128093D01*
X0168270Y0120337D02*
X0168270Y0114038D01*
X0180081Y0114038D01*
X0180081Y0120337D01*
X0168270Y0120337D01*
X0160888Y0140239D02*
X0141203Y0140239D01*
X0111754Y0179845D02*
X0111754Y0197561D01*
X0080652Y0197561D01*
X0080652Y0179845D01*
X0111754Y0179845D01*
X0109143Y0195199D02*
X0109145Y0195230D01*
X0109151Y0195261D01*
X0109160Y0195291D01*
X0109174Y0195319D01*
X0109191Y0195345D01*
X0109210Y0195369D01*
X0109233Y0195391D01*
X0109259Y0195409D01*
X0109286Y0195424D01*
X0109315Y0195436D01*
X0109345Y0195444D01*
X0109376Y0195448D01*
X0109408Y0195448D01*
X0109439Y0195444D01*
X0109469Y0195436D01*
X0109498Y0195424D01*
X0109525Y0195409D01*
X0109551Y0195391D01*
X0109574Y0195369D01*
X0109593Y0195345D01*
X0109610Y0195319D01*
X0109624Y0195291D01*
X0109633Y0195261D01*
X0109639Y0195230D01*
X0109641Y0195199D01*
X0109639Y0195168D01*
X0109633Y0195137D01*
X0109624Y0195107D01*
X0109610Y0195079D01*
X0109593Y0195053D01*
X0109574Y0195029D01*
X0109551Y0195007D01*
X0109525Y0194989D01*
X0109498Y0194974D01*
X0109469Y0194962D01*
X0109439Y0194954D01*
X0109408Y0194950D01*
X0109376Y0194950D01*
X0109345Y0194954D01*
X0109315Y0194962D01*
X0109286Y0194974D01*
X0109259Y0194989D01*
X0109233Y0195007D01*
X0109210Y0195029D01*
X0109191Y0195053D01*
X0109174Y0195079D01*
X0109160Y0195107D01*
X0109151Y0195137D01*
X0109145Y0195168D01*
X0109143Y0195199D01*
X0108998Y0195199D02*
X0109000Y0195238D01*
X0109006Y0195277D01*
X0109016Y0195315D01*
X0109029Y0195352D01*
X0109046Y0195387D01*
X0109066Y0195421D01*
X0109090Y0195452D01*
X0109117Y0195481D01*
X0109146Y0195507D01*
X0109178Y0195530D01*
X0109212Y0195550D01*
X0109248Y0195566D01*
X0109285Y0195578D01*
X0109324Y0195587D01*
X0109363Y0195592D01*
X0109402Y0195593D01*
X0109441Y0195590D01*
X0109480Y0195583D01*
X0109517Y0195572D01*
X0109554Y0195558D01*
X0109589Y0195540D01*
X0109622Y0195519D01*
X0109653Y0195494D01*
X0109681Y0195467D01*
X0109706Y0195437D01*
X0109728Y0195404D01*
X0109747Y0195370D01*
X0109762Y0195334D01*
X0109774Y0195296D01*
X0109782Y0195258D01*
X0109786Y0195219D01*
X0109786Y0195179D01*
X0109782Y0195140D01*
X0109774Y0195102D01*
X0109762Y0195064D01*
X0109747Y0195028D01*
X0109728Y0194994D01*
X0109706Y0194961D01*
X0109681Y0194931D01*
X0109653Y0194904D01*
X0109622Y0194879D01*
X0109589Y0194858D01*
X0109554Y0194840D01*
X0109517Y0194826D01*
X0109480Y0194815D01*
X0109441Y0194808D01*
X0109402Y0194805D01*
X0109363Y0194806D01*
X0109324Y0194811D01*
X0109285Y0194820D01*
X0109248Y0194832D01*
X0109212Y0194848D01*
X0109178Y0194868D01*
X0109146Y0194891D01*
X0109117Y0194917D01*
X0109090Y0194946D01*
X0109066Y0194977D01*
X0109046Y0195011D01*
X0109029Y0195046D01*
X0109016Y0195083D01*
X0109006Y0195121D01*
X0109000Y0195160D01*
X0108998Y0195199D01*
X0108512Y0195199D02*
X0108514Y0195258D01*
X0108520Y0195316D01*
X0108530Y0195374D01*
X0108543Y0195431D01*
X0108561Y0195488D01*
X0108582Y0195543D01*
X0108607Y0195596D01*
X0108635Y0195647D01*
X0108666Y0195697D01*
X0108701Y0195744D01*
X0108739Y0195789D01*
X0108780Y0195832D01*
X0108824Y0195871D01*
X0108870Y0195907D01*
X0108918Y0195941D01*
X0108969Y0195971D01*
X0109022Y0195997D01*
X0109076Y0196020D01*
X0109131Y0196039D01*
X0109188Y0196055D01*
X0109246Y0196067D01*
X0109304Y0196075D01*
X0109363Y0196079D01*
X0109421Y0196079D01*
X0109480Y0196075D01*
X0109538Y0196067D01*
X0109596Y0196055D01*
X0109653Y0196039D01*
X0109708Y0196020D01*
X0109762Y0195997D01*
X0109815Y0195971D01*
X0109866Y0195941D01*
X0109914Y0195907D01*
X0109960Y0195871D01*
X0110004Y0195832D01*
X0110045Y0195789D01*
X0110083Y0195744D01*
X0110118Y0195697D01*
X0110149Y0195647D01*
X0110177Y0195596D01*
X0110202Y0195543D01*
X0110223Y0195488D01*
X0110241Y0195431D01*
X0110254Y0195374D01*
X0110264Y0195316D01*
X0110270Y0195258D01*
X0110272Y0195199D01*
X0110270Y0195140D01*
X0110264Y0195082D01*
X0110254Y0195024D01*
X0110241Y0194967D01*
X0110223Y0194910D01*
X0110202Y0194855D01*
X0110177Y0194802D01*
X0110149Y0194751D01*
X0110118Y0194701D01*
X0110083Y0194654D01*
X0110045Y0194609D01*
X0110004Y0194566D01*
X0109960Y0194527D01*
X0109914Y0194491D01*
X0109866Y0194457D01*
X0109815Y0194427D01*
X0109762Y0194401D01*
X0109708Y0194378D01*
X0109653Y0194359D01*
X0109596Y0194343D01*
X0109538Y0194331D01*
X0109480Y0194323D01*
X0109421Y0194319D01*
X0109363Y0194319D01*
X0109304Y0194323D01*
X0109246Y0194331D01*
X0109188Y0194343D01*
X0109131Y0194359D01*
X0109076Y0194378D01*
X0109022Y0194401D01*
X0108969Y0194427D01*
X0108918Y0194457D01*
X0108870Y0194491D01*
X0108824Y0194527D01*
X0108780Y0194566D01*
X0108739Y0194609D01*
X0108701Y0194654D01*
X0108666Y0194701D01*
X0108635Y0194751D01*
X0108607Y0194802D01*
X0108582Y0194855D01*
X0108561Y0194910D01*
X0108543Y0194967D01*
X0108530Y0195024D01*
X0108520Y0195082D01*
X0108514Y0195140D01*
X0108512Y0195199D01*
X0051715Y0133428D02*
X0051715Y0123585D01*
X0041872Y0123585D01*
X0038014Y0124372D02*
X0038014Y0130672D01*
X0049825Y0130672D01*
X0049825Y0124372D01*
X0038014Y0124372D01*
X0038014Y0134215D02*
X0038014Y0140514D01*
X0049825Y0140514D01*
X0049825Y0134215D01*
X0038014Y0134215D01*
X0041872Y0084215D02*
X0051715Y0084215D01*
X0051715Y0074372D01*
X0091085Y0074372D02*
X0091085Y0084215D01*
X0100928Y0084215D01*
X0104786Y0083428D02*
X0104786Y0077128D01*
X0092975Y0077128D01*
X0092975Y0083428D01*
X0104786Y0083428D01*
X0104786Y0073585D02*
X0104786Y0067286D01*
X0092975Y0067286D01*
X0092975Y0073585D01*
X0104786Y0073585D01*
X0133487Y0072109D02*
X0136931Y0072109D01*
X0136931Y0065809D02*
X0133487Y0065809D01*
X0143664Y0065809D02*
X0143664Y0072109D01*
X0155475Y0072109D01*
X0155475Y0065809D01*
X0143664Y0065809D01*
X0164707Y0063624D02*
X0164707Y0075435D01*
X0171006Y0075435D01*
X0171006Y0063624D01*
X0164707Y0063624D01*
X0166743Y0033954D02*
X0168245Y0033954D01*
X0167494Y0033954D02*
X0167494Y0030201D01*
X0166743Y0029450D01*
X0165993Y0029450D01*
X0165242Y0030201D01*
X0169846Y0029450D02*
X0172849Y0029450D01*
X0171347Y0029450D02*
X0171347Y0033954D01*
X0169846Y0032453D01*
D20*
X0096400Y0162286D02*
X0096400Y0165514D01*
X0091400Y0165514D02*
X0091400Y0162286D01*
X0118900Y0187286D02*
X0118900Y0190514D01*
X0123900Y0190514D02*
X0123900Y0187286D01*
X0124786Y0176400D02*
X0128014Y0176400D01*
X0128014Y0171400D02*
X0124786Y0171400D01*
X0124786Y0168900D02*
X0128014Y0168900D01*
X0128014Y0163900D02*
X0124786Y0163900D01*
X0123900Y0204786D02*
X0123900Y0208014D01*
X0118900Y0208014D02*
X0118900Y0204786D01*
X0116400Y0234786D02*
X0116400Y0238014D01*
X0111400Y0238014D02*
X0111400Y0234786D01*
X0106400Y0234786D02*
X0106400Y0238014D01*
X0121400Y0238014D02*
X0121400Y0234786D01*
X0126400Y0234786D02*
X0126400Y0238014D01*
X0131400Y0238014D02*
X0131400Y0234786D01*
D21*
X0129280Y0173906D03*
X0123480Y0173906D03*
X0123520Y0166394D03*
X0129320Y0166394D03*
D22*
X0121406Y0186020D03*
X0121406Y0191820D03*
X0121406Y0203520D03*
X0121406Y0209320D03*
X0118894Y0233480D03*
X0118894Y0239280D03*
X0108894Y0239280D03*
X0108894Y0233480D03*
X0128894Y0233480D03*
X0128894Y0239280D03*
X0093894Y0166780D03*
X0093894Y0160980D03*
D23*
X0079371Y0178662D02*
X0079371Y0179763D01*
X0079004Y0180130D01*
X0077536Y0180130D01*
X0077169Y0179763D01*
X0077169Y0178662D01*
X0079371Y0178662D01*
X0079371Y0180872D02*
X0077169Y0180872D01*
X0077169Y0181973D01*
X0077536Y0182340D01*
X0078270Y0182340D01*
X0078637Y0181973D01*
X0078637Y0180872D01*
X0078637Y0181606D02*
X0079371Y0182340D01*
X0078637Y0183082D02*
X0079371Y0183816D01*
X0078637Y0184549D01*
X0077169Y0184549D01*
X0077169Y0183082D02*
X0078637Y0183082D01*
X0079371Y0187501D02*
X0079371Y0188969D01*
X0079371Y0188235D02*
X0077169Y0188235D01*
X0077903Y0187501D01*
X0077536Y0189711D02*
X0077169Y0190078D01*
X0077169Y0190812D01*
X0077536Y0191179D01*
X0079004Y0189711D01*
X0079371Y0190078D01*
X0079371Y0190812D01*
X0079004Y0191179D01*
X0077536Y0191179D01*
X0077536Y0191921D02*
X0077903Y0191921D01*
X0078270Y0192288D01*
X0078270Y0193389D01*
X0079004Y0193389D02*
X0077536Y0193389D01*
X0077169Y0193022D01*
X0077169Y0192288D01*
X0077536Y0191921D01*
X0079004Y0191921D02*
X0079371Y0192288D01*
X0079371Y0193022D01*
X0079004Y0193389D01*
X0079004Y0194131D02*
X0079371Y0194131D01*
X0079004Y0194131D02*
X0077536Y0195599D01*
X0077169Y0195599D01*
X0077169Y0194131D01*
X0077536Y0196341D02*
X0077169Y0196708D01*
X0077169Y0197442D01*
X0077536Y0197809D01*
X0079004Y0196341D01*
X0079371Y0196708D01*
X0079371Y0197442D01*
X0079004Y0197809D01*
X0077536Y0197809D01*
X0077536Y0196341D02*
X0079004Y0196341D01*
X0079004Y0189711D02*
X0077536Y0189711D01*
D24*
X0085400Y0118900D02*
X0085402Y0118963D01*
X0085408Y0119025D01*
X0085418Y0119087D01*
X0085431Y0119149D01*
X0085449Y0119209D01*
X0085470Y0119268D01*
X0085495Y0119326D01*
X0085524Y0119382D01*
X0085556Y0119436D01*
X0085591Y0119488D01*
X0085629Y0119537D01*
X0085671Y0119585D01*
X0085715Y0119629D01*
X0085763Y0119671D01*
X0085812Y0119709D01*
X0085864Y0119744D01*
X0085918Y0119776D01*
X0085974Y0119805D01*
X0086032Y0119830D01*
X0086091Y0119851D01*
X0086151Y0119869D01*
X0086213Y0119882D01*
X0086275Y0119892D01*
X0086337Y0119898D01*
X0086400Y0119900D01*
X0086463Y0119898D01*
X0086525Y0119892D01*
X0086587Y0119882D01*
X0086649Y0119869D01*
X0086709Y0119851D01*
X0086768Y0119830D01*
X0086826Y0119805D01*
X0086882Y0119776D01*
X0086936Y0119744D01*
X0086988Y0119709D01*
X0087037Y0119671D01*
X0087085Y0119629D01*
X0087129Y0119585D01*
X0087171Y0119537D01*
X0087209Y0119488D01*
X0087244Y0119436D01*
X0087276Y0119382D01*
X0087305Y0119326D01*
X0087330Y0119268D01*
X0087351Y0119209D01*
X0087369Y0119149D01*
X0087382Y0119087D01*
X0087392Y0119025D01*
X0087398Y0118963D01*
X0087400Y0118900D01*
X0087398Y0118837D01*
X0087392Y0118775D01*
X0087382Y0118713D01*
X0087369Y0118651D01*
X0087351Y0118591D01*
X0087330Y0118532D01*
X0087305Y0118474D01*
X0087276Y0118418D01*
X0087244Y0118364D01*
X0087209Y0118312D01*
X0087171Y0118263D01*
X0087129Y0118215D01*
X0087085Y0118171D01*
X0087037Y0118129D01*
X0086988Y0118091D01*
X0086936Y0118056D01*
X0086882Y0118024D01*
X0086826Y0117995D01*
X0086768Y0117970D01*
X0086709Y0117949D01*
X0086649Y0117931D01*
X0086587Y0117918D01*
X0086525Y0117908D01*
X0086463Y0117902D01*
X0086400Y0117900D01*
X0086337Y0117902D01*
X0086275Y0117908D01*
X0086213Y0117918D01*
X0086151Y0117931D01*
X0086091Y0117949D01*
X0086032Y0117970D01*
X0085974Y0117995D01*
X0085918Y0118024D01*
X0085864Y0118056D01*
X0085812Y0118091D01*
X0085763Y0118129D01*
X0085715Y0118171D01*
X0085671Y0118215D01*
X0085629Y0118263D01*
X0085591Y0118312D01*
X0085556Y0118364D01*
X0085524Y0118418D01*
X0085495Y0118474D01*
X0085470Y0118532D01*
X0085449Y0118591D01*
X0085431Y0118651D01*
X0085418Y0118713D01*
X0085408Y0118775D01*
X0085402Y0118837D01*
X0085400Y0118900D01*
D25*
X0071400Y0135396D02*
X0071400Y0072404D01*
X0039904Y0103900D02*
X0102896Y0103900D01*
D26*
X0165830Y0103900D02*
X0165832Y0103956D01*
X0165838Y0104011D01*
X0165848Y0104065D01*
X0165861Y0104119D01*
X0165879Y0104172D01*
X0165900Y0104223D01*
X0165924Y0104273D01*
X0165952Y0104321D01*
X0165984Y0104367D01*
X0166018Y0104411D01*
X0166056Y0104452D01*
X0166096Y0104490D01*
X0166139Y0104525D01*
X0166184Y0104557D01*
X0166232Y0104586D01*
X0166281Y0104612D01*
X0166332Y0104634D01*
X0166384Y0104652D01*
X0166438Y0104666D01*
X0166493Y0104677D01*
X0166548Y0104684D01*
X0166603Y0104687D01*
X0166659Y0104686D01*
X0166714Y0104681D01*
X0166769Y0104672D01*
X0166823Y0104660D01*
X0166876Y0104643D01*
X0166928Y0104623D01*
X0166978Y0104599D01*
X0167026Y0104572D01*
X0167073Y0104542D01*
X0167117Y0104508D01*
X0167159Y0104471D01*
X0167197Y0104431D01*
X0167234Y0104389D01*
X0167267Y0104344D01*
X0167296Y0104298D01*
X0167323Y0104249D01*
X0167345Y0104198D01*
X0167365Y0104146D01*
X0167380Y0104092D01*
X0167392Y0104038D01*
X0167400Y0103983D01*
X0167404Y0103928D01*
X0167404Y0103872D01*
X0167400Y0103817D01*
X0167392Y0103762D01*
X0167380Y0103708D01*
X0167365Y0103654D01*
X0167345Y0103602D01*
X0167323Y0103551D01*
X0167296Y0103502D01*
X0167267Y0103456D01*
X0167234Y0103411D01*
X0167197Y0103369D01*
X0167159Y0103329D01*
X0167117Y0103292D01*
X0167073Y0103258D01*
X0167026Y0103228D01*
X0166978Y0103201D01*
X0166928Y0103177D01*
X0166876Y0103157D01*
X0166823Y0103140D01*
X0166769Y0103128D01*
X0166714Y0103119D01*
X0166659Y0103114D01*
X0166603Y0103113D01*
X0166548Y0103116D01*
X0166493Y0103123D01*
X0166438Y0103134D01*
X0166384Y0103148D01*
X0166332Y0103166D01*
X0166281Y0103188D01*
X0166232Y0103214D01*
X0166184Y0103243D01*
X0166139Y0103275D01*
X0166096Y0103310D01*
X0166056Y0103348D01*
X0166018Y0103389D01*
X0165984Y0103433D01*
X0165952Y0103479D01*
X0165924Y0103527D01*
X0165900Y0103577D01*
X0165879Y0103628D01*
X0165861Y0103681D01*
X0165848Y0103735D01*
X0165838Y0103789D01*
X0165832Y0103844D01*
X0165830Y0103900D01*
M02*
