%
M48
M72
T01C0.11417
T02C0.12520
T03C0.15748
T04C0.35433
%
T01
X100606Y34911
X17535Y117982
X17535Y312470
X100606Y395541
X295094Y395541
X378165Y312470
X378165Y117982
X295094Y34911
T02
X282890Y103022
X112811Y103022
X112811Y362864
X282890Y362864
T03
X384850Y282301
X384850Y148443
X10835Y148443
X10835Y282301
T04
X112319Y362778
X258827Y353667
X282472Y363246
X113319Y102435
M30
