G75*
%MOIN*%
%OFA0B0*%
%FSLAX25Y25*%
%IPPOS*%
%LPD*%
%AMOC8*
5,1,8,0,0,1.08239X$1,22.5*
%
%ADD10C,0.00000*%
%ADD11C,0.06000*%
%ADD12C,0.03962*%
%ADD13C,0.01200*%
%ADD14C,0.02800*%
%ADD15C,0.01600*%
%ADD16C,0.00806*%
%ADD17C,0.04000*%
%ADD18C,0.03175*%
%ADD19C,0.03569*%
D10*
X0013611Y0013008D02*
X0052981Y0013008D01*
X0052981Y0009071D01*
X0364005Y0009071D01*
X0364005Y0013008D01*
X0403375Y0013008D01*
X0403375Y0052378D01*
X0407312Y0052378D01*
X0407312Y0363402D01*
X0403375Y0363402D01*
X0403375Y0402772D01*
X0364005Y0402772D01*
X0364005Y0406709D01*
X0052981Y0406709D01*
X0052981Y0402772D01*
X0013611Y0402772D01*
X0013611Y0363402D01*
X0009674Y0363402D01*
X0009674Y0052378D01*
X0013611Y0052378D01*
X0013611Y0013008D01*
X0017351Y0020882D02*
X0017353Y0021010D01*
X0017359Y0021138D01*
X0017369Y0021265D01*
X0017383Y0021393D01*
X0017400Y0021519D01*
X0017422Y0021645D01*
X0017448Y0021771D01*
X0017477Y0021895D01*
X0017510Y0022019D01*
X0017547Y0022141D01*
X0017588Y0022262D01*
X0017633Y0022382D01*
X0017681Y0022501D01*
X0017733Y0022618D01*
X0017789Y0022733D01*
X0017848Y0022847D01*
X0017910Y0022958D01*
X0017976Y0023068D01*
X0018045Y0023175D01*
X0018118Y0023281D01*
X0018194Y0023384D01*
X0018273Y0023484D01*
X0018355Y0023583D01*
X0018440Y0023678D01*
X0018528Y0023771D01*
X0018619Y0023861D01*
X0018712Y0023948D01*
X0018809Y0024033D01*
X0018907Y0024114D01*
X0019009Y0024192D01*
X0019112Y0024267D01*
X0019218Y0024339D01*
X0019326Y0024408D01*
X0019436Y0024473D01*
X0019549Y0024534D01*
X0019663Y0024593D01*
X0019778Y0024647D01*
X0019896Y0024698D01*
X0020014Y0024746D01*
X0020135Y0024789D01*
X0020256Y0024829D01*
X0020379Y0024865D01*
X0020503Y0024898D01*
X0020628Y0024926D01*
X0020753Y0024951D01*
X0020879Y0024971D01*
X0021006Y0024988D01*
X0021134Y0025001D01*
X0021261Y0025010D01*
X0021389Y0025015D01*
X0021517Y0025016D01*
X0021645Y0025013D01*
X0021773Y0025006D01*
X0021900Y0024995D01*
X0022027Y0024980D01*
X0022154Y0024962D01*
X0022280Y0024939D01*
X0022405Y0024912D01*
X0022529Y0024882D01*
X0022652Y0024848D01*
X0022775Y0024810D01*
X0022896Y0024768D01*
X0023015Y0024722D01*
X0023133Y0024673D01*
X0023250Y0024620D01*
X0023365Y0024564D01*
X0023478Y0024504D01*
X0023589Y0024441D01*
X0023698Y0024374D01*
X0023805Y0024304D01*
X0023910Y0024230D01*
X0024012Y0024154D01*
X0024112Y0024074D01*
X0024210Y0023991D01*
X0024305Y0023905D01*
X0024397Y0023816D01*
X0024486Y0023725D01*
X0024573Y0023631D01*
X0024656Y0023534D01*
X0024737Y0023434D01*
X0024814Y0023333D01*
X0024889Y0023228D01*
X0024960Y0023122D01*
X0025027Y0023013D01*
X0025092Y0022903D01*
X0025152Y0022790D01*
X0025210Y0022676D01*
X0025263Y0022560D01*
X0025313Y0022442D01*
X0025360Y0022323D01*
X0025403Y0022202D01*
X0025442Y0022080D01*
X0025477Y0021957D01*
X0025508Y0021833D01*
X0025536Y0021708D01*
X0025559Y0021582D01*
X0025579Y0021456D01*
X0025595Y0021329D01*
X0025607Y0021202D01*
X0025615Y0021074D01*
X0025619Y0020946D01*
X0025619Y0020818D01*
X0025615Y0020690D01*
X0025607Y0020562D01*
X0025595Y0020435D01*
X0025579Y0020308D01*
X0025559Y0020182D01*
X0025536Y0020056D01*
X0025508Y0019931D01*
X0025477Y0019807D01*
X0025442Y0019684D01*
X0025403Y0019562D01*
X0025360Y0019441D01*
X0025313Y0019322D01*
X0025263Y0019204D01*
X0025210Y0019088D01*
X0025152Y0018974D01*
X0025092Y0018861D01*
X0025027Y0018751D01*
X0024960Y0018642D01*
X0024889Y0018536D01*
X0024814Y0018431D01*
X0024737Y0018330D01*
X0024656Y0018230D01*
X0024573Y0018133D01*
X0024486Y0018039D01*
X0024397Y0017948D01*
X0024305Y0017859D01*
X0024210Y0017773D01*
X0024112Y0017690D01*
X0024012Y0017610D01*
X0023910Y0017534D01*
X0023805Y0017460D01*
X0023698Y0017390D01*
X0023589Y0017323D01*
X0023478Y0017260D01*
X0023365Y0017200D01*
X0023250Y0017144D01*
X0023133Y0017091D01*
X0023015Y0017042D01*
X0022896Y0016996D01*
X0022775Y0016954D01*
X0022652Y0016916D01*
X0022529Y0016882D01*
X0022405Y0016852D01*
X0022280Y0016825D01*
X0022154Y0016802D01*
X0022027Y0016784D01*
X0021900Y0016769D01*
X0021773Y0016758D01*
X0021645Y0016751D01*
X0021517Y0016748D01*
X0021389Y0016749D01*
X0021261Y0016754D01*
X0021134Y0016763D01*
X0021006Y0016776D01*
X0020879Y0016793D01*
X0020753Y0016813D01*
X0020628Y0016838D01*
X0020503Y0016866D01*
X0020379Y0016899D01*
X0020256Y0016935D01*
X0020135Y0016975D01*
X0020014Y0017018D01*
X0019896Y0017066D01*
X0019778Y0017117D01*
X0019663Y0017171D01*
X0019549Y0017230D01*
X0019436Y0017291D01*
X0019326Y0017356D01*
X0019218Y0017425D01*
X0019112Y0017497D01*
X0019009Y0017572D01*
X0018907Y0017650D01*
X0018809Y0017731D01*
X0018712Y0017816D01*
X0018619Y0017903D01*
X0018528Y0017993D01*
X0018440Y0018086D01*
X0018355Y0018181D01*
X0018273Y0018280D01*
X0018194Y0018380D01*
X0018118Y0018483D01*
X0018045Y0018589D01*
X0017976Y0018696D01*
X0017910Y0018806D01*
X0017848Y0018917D01*
X0017789Y0019031D01*
X0017733Y0019146D01*
X0017681Y0019263D01*
X0017633Y0019382D01*
X0017588Y0019502D01*
X0017547Y0019623D01*
X0017510Y0019745D01*
X0017477Y0019869D01*
X0017448Y0019993D01*
X0017422Y0020119D01*
X0017400Y0020245D01*
X0017383Y0020371D01*
X0017369Y0020499D01*
X0017359Y0020626D01*
X0017353Y0020754D01*
X0017351Y0020882D01*
X0022469Y0109465D02*
X0022471Y0109616D01*
X0022477Y0109766D01*
X0022487Y0109917D01*
X0022501Y0110067D01*
X0022519Y0110216D01*
X0022540Y0110366D01*
X0022566Y0110514D01*
X0022596Y0110662D01*
X0022629Y0110809D01*
X0022667Y0110955D01*
X0022708Y0111100D01*
X0022753Y0111244D01*
X0022802Y0111386D01*
X0022855Y0111527D01*
X0022911Y0111667D01*
X0022971Y0111805D01*
X0023034Y0111942D01*
X0023102Y0112077D01*
X0023172Y0112210D01*
X0023246Y0112341D01*
X0023324Y0112470D01*
X0023405Y0112597D01*
X0023489Y0112722D01*
X0023577Y0112845D01*
X0023668Y0112965D01*
X0023762Y0113083D01*
X0023859Y0113198D01*
X0023959Y0113311D01*
X0024062Y0113421D01*
X0024168Y0113528D01*
X0024277Y0113633D01*
X0024388Y0113734D01*
X0024502Y0113833D01*
X0024618Y0113928D01*
X0024738Y0114021D01*
X0024859Y0114110D01*
X0024983Y0114196D01*
X0025109Y0114279D01*
X0025237Y0114358D01*
X0025367Y0114434D01*
X0025499Y0114507D01*
X0025633Y0114575D01*
X0025769Y0114641D01*
X0025907Y0114703D01*
X0026046Y0114761D01*
X0026186Y0114815D01*
X0026328Y0114866D01*
X0026471Y0114913D01*
X0026616Y0114956D01*
X0026761Y0114995D01*
X0026908Y0115031D01*
X0027055Y0115062D01*
X0027203Y0115090D01*
X0027352Y0115114D01*
X0027501Y0115134D01*
X0027651Y0115150D01*
X0027801Y0115162D01*
X0027952Y0115170D01*
X0028103Y0115174D01*
X0028253Y0115174D01*
X0028404Y0115170D01*
X0028555Y0115162D01*
X0028705Y0115150D01*
X0028855Y0115134D01*
X0029004Y0115114D01*
X0029153Y0115090D01*
X0029301Y0115062D01*
X0029448Y0115031D01*
X0029595Y0114995D01*
X0029740Y0114956D01*
X0029885Y0114913D01*
X0030028Y0114866D01*
X0030170Y0114815D01*
X0030310Y0114761D01*
X0030449Y0114703D01*
X0030587Y0114641D01*
X0030723Y0114575D01*
X0030857Y0114507D01*
X0030989Y0114434D01*
X0031119Y0114358D01*
X0031247Y0114279D01*
X0031373Y0114196D01*
X0031497Y0114110D01*
X0031618Y0114021D01*
X0031738Y0113928D01*
X0031854Y0113833D01*
X0031968Y0113734D01*
X0032079Y0113633D01*
X0032188Y0113528D01*
X0032294Y0113421D01*
X0032397Y0113311D01*
X0032497Y0113198D01*
X0032594Y0113083D01*
X0032688Y0112965D01*
X0032779Y0112845D01*
X0032867Y0112722D01*
X0032951Y0112597D01*
X0033032Y0112470D01*
X0033110Y0112341D01*
X0033184Y0112210D01*
X0033254Y0112077D01*
X0033322Y0111942D01*
X0033385Y0111805D01*
X0033445Y0111667D01*
X0033501Y0111527D01*
X0033554Y0111386D01*
X0033603Y0111244D01*
X0033648Y0111100D01*
X0033689Y0110955D01*
X0033727Y0110809D01*
X0033760Y0110662D01*
X0033790Y0110514D01*
X0033816Y0110366D01*
X0033837Y0110216D01*
X0033855Y0110067D01*
X0033869Y0109917D01*
X0033879Y0109766D01*
X0033885Y0109616D01*
X0033887Y0109465D01*
X0033885Y0109314D01*
X0033879Y0109164D01*
X0033869Y0109013D01*
X0033855Y0108863D01*
X0033837Y0108714D01*
X0033816Y0108564D01*
X0033790Y0108416D01*
X0033760Y0108268D01*
X0033727Y0108121D01*
X0033689Y0107975D01*
X0033648Y0107830D01*
X0033603Y0107686D01*
X0033554Y0107544D01*
X0033501Y0107403D01*
X0033445Y0107263D01*
X0033385Y0107125D01*
X0033322Y0106988D01*
X0033254Y0106853D01*
X0033184Y0106720D01*
X0033110Y0106589D01*
X0033032Y0106460D01*
X0032951Y0106333D01*
X0032867Y0106208D01*
X0032779Y0106085D01*
X0032688Y0105965D01*
X0032594Y0105847D01*
X0032497Y0105732D01*
X0032397Y0105619D01*
X0032294Y0105509D01*
X0032188Y0105402D01*
X0032079Y0105297D01*
X0031968Y0105196D01*
X0031854Y0105097D01*
X0031738Y0105002D01*
X0031618Y0104909D01*
X0031497Y0104820D01*
X0031373Y0104734D01*
X0031247Y0104651D01*
X0031119Y0104572D01*
X0030989Y0104496D01*
X0030857Y0104423D01*
X0030723Y0104355D01*
X0030587Y0104289D01*
X0030449Y0104227D01*
X0030310Y0104169D01*
X0030170Y0104115D01*
X0030028Y0104064D01*
X0029885Y0104017D01*
X0029740Y0103974D01*
X0029595Y0103935D01*
X0029448Y0103899D01*
X0029301Y0103868D01*
X0029153Y0103840D01*
X0029004Y0103816D01*
X0028855Y0103796D01*
X0028705Y0103780D01*
X0028555Y0103768D01*
X0028404Y0103760D01*
X0028253Y0103756D01*
X0028103Y0103756D01*
X0027952Y0103760D01*
X0027801Y0103768D01*
X0027651Y0103780D01*
X0027501Y0103796D01*
X0027352Y0103816D01*
X0027203Y0103840D01*
X0027055Y0103868D01*
X0026908Y0103899D01*
X0026761Y0103935D01*
X0026616Y0103974D01*
X0026471Y0104017D01*
X0026328Y0104064D01*
X0026186Y0104115D01*
X0026046Y0104169D01*
X0025907Y0104227D01*
X0025769Y0104289D01*
X0025633Y0104355D01*
X0025499Y0104423D01*
X0025367Y0104496D01*
X0025237Y0104572D01*
X0025109Y0104651D01*
X0024983Y0104734D01*
X0024859Y0104820D01*
X0024738Y0104909D01*
X0024618Y0105002D01*
X0024502Y0105097D01*
X0024388Y0105196D01*
X0024277Y0105297D01*
X0024168Y0105402D01*
X0024062Y0105509D01*
X0023959Y0105619D01*
X0023859Y0105732D01*
X0023762Y0105847D01*
X0023668Y0105965D01*
X0023577Y0106085D01*
X0023489Y0106208D01*
X0023405Y0106333D01*
X0023324Y0106460D01*
X0023246Y0106589D01*
X0023172Y0106720D01*
X0023102Y0106853D01*
X0023034Y0106988D01*
X0022971Y0107125D01*
X0022911Y0107263D01*
X0022855Y0107403D01*
X0022802Y0107544D01*
X0022753Y0107686D01*
X0022708Y0107830D01*
X0022667Y0107975D01*
X0022629Y0108121D01*
X0022596Y0108268D01*
X0022566Y0108416D01*
X0022540Y0108564D01*
X0022519Y0108714D01*
X0022501Y0108863D01*
X0022487Y0109013D01*
X0022477Y0109164D01*
X0022471Y0109314D01*
X0022469Y0109465D01*
X0020973Y0207890D02*
X0020975Y0208023D01*
X0020981Y0208156D01*
X0020991Y0208289D01*
X0021005Y0208421D01*
X0021023Y0208553D01*
X0021044Y0208684D01*
X0021070Y0208815D01*
X0021100Y0208945D01*
X0021133Y0209074D01*
X0021171Y0209201D01*
X0021212Y0209328D01*
X0021257Y0209453D01*
X0021305Y0209577D01*
X0021358Y0209700D01*
X0021414Y0209820D01*
X0021473Y0209939D01*
X0021536Y0210057D01*
X0021603Y0210172D01*
X0021673Y0210285D01*
X0021746Y0210396D01*
X0021823Y0210505D01*
X0021903Y0210612D01*
X0021986Y0210716D01*
X0022072Y0210817D01*
X0022161Y0210916D01*
X0022253Y0211012D01*
X0022347Y0211106D01*
X0022445Y0211196D01*
X0022545Y0211284D01*
X0022648Y0211368D01*
X0022753Y0211450D01*
X0022861Y0211528D01*
X0022971Y0211603D01*
X0023083Y0211675D01*
X0023198Y0211743D01*
X0023314Y0211808D01*
X0023432Y0211869D01*
X0023552Y0211927D01*
X0023673Y0211981D01*
X0023797Y0212031D01*
X0023921Y0212078D01*
X0024047Y0212121D01*
X0024174Y0212160D01*
X0024303Y0212196D01*
X0024432Y0212227D01*
X0024562Y0212255D01*
X0024693Y0212279D01*
X0024825Y0212299D01*
X0024957Y0212315D01*
X0025090Y0212327D01*
X0025222Y0212335D01*
X0025355Y0212339D01*
X0025489Y0212339D01*
X0025622Y0212335D01*
X0025754Y0212327D01*
X0025887Y0212315D01*
X0026019Y0212299D01*
X0026151Y0212279D01*
X0026282Y0212255D01*
X0026412Y0212227D01*
X0026541Y0212196D01*
X0026670Y0212160D01*
X0026797Y0212121D01*
X0026923Y0212078D01*
X0027047Y0212031D01*
X0027171Y0211981D01*
X0027292Y0211927D01*
X0027412Y0211869D01*
X0027530Y0211808D01*
X0027647Y0211743D01*
X0027761Y0211675D01*
X0027873Y0211603D01*
X0027983Y0211528D01*
X0028091Y0211450D01*
X0028196Y0211368D01*
X0028299Y0211284D01*
X0028399Y0211196D01*
X0028497Y0211106D01*
X0028591Y0211012D01*
X0028683Y0210916D01*
X0028772Y0210817D01*
X0028858Y0210716D01*
X0028941Y0210612D01*
X0029021Y0210505D01*
X0029098Y0210396D01*
X0029171Y0210285D01*
X0029241Y0210172D01*
X0029308Y0210057D01*
X0029371Y0209939D01*
X0029430Y0209820D01*
X0029486Y0209700D01*
X0029539Y0209577D01*
X0029587Y0209453D01*
X0029632Y0209328D01*
X0029673Y0209201D01*
X0029711Y0209074D01*
X0029744Y0208945D01*
X0029774Y0208815D01*
X0029800Y0208684D01*
X0029821Y0208553D01*
X0029839Y0208421D01*
X0029853Y0208289D01*
X0029863Y0208156D01*
X0029869Y0208023D01*
X0029871Y0207890D01*
X0029869Y0207757D01*
X0029863Y0207624D01*
X0029853Y0207491D01*
X0029839Y0207359D01*
X0029821Y0207227D01*
X0029800Y0207096D01*
X0029774Y0206965D01*
X0029744Y0206835D01*
X0029711Y0206706D01*
X0029673Y0206579D01*
X0029632Y0206452D01*
X0029587Y0206327D01*
X0029539Y0206203D01*
X0029486Y0206080D01*
X0029430Y0205960D01*
X0029371Y0205841D01*
X0029308Y0205723D01*
X0029241Y0205608D01*
X0029171Y0205495D01*
X0029098Y0205384D01*
X0029021Y0205275D01*
X0028941Y0205168D01*
X0028858Y0205064D01*
X0028772Y0204963D01*
X0028683Y0204864D01*
X0028591Y0204768D01*
X0028497Y0204674D01*
X0028399Y0204584D01*
X0028299Y0204496D01*
X0028196Y0204412D01*
X0028091Y0204330D01*
X0027983Y0204252D01*
X0027873Y0204177D01*
X0027761Y0204105D01*
X0027646Y0204037D01*
X0027530Y0203972D01*
X0027412Y0203911D01*
X0027292Y0203853D01*
X0027171Y0203799D01*
X0027047Y0203749D01*
X0026923Y0203702D01*
X0026797Y0203659D01*
X0026670Y0203620D01*
X0026541Y0203584D01*
X0026412Y0203553D01*
X0026282Y0203525D01*
X0026151Y0203501D01*
X0026019Y0203481D01*
X0025887Y0203465D01*
X0025754Y0203453D01*
X0025622Y0203445D01*
X0025489Y0203441D01*
X0025355Y0203441D01*
X0025222Y0203445D01*
X0025090Y0203453D01*
X0024957Y0203465D01*
X0024825Y0203481D01*
X0024693Y0203501D01*
X0024562Y0203525D01*
X0024432Y0203553D01*
X0024303Y0203584D01*
X0024174Y0203620D01*
X0024047Y0203659D01*
X0023921Y0203702D01*
X0023797Y0203749D01*
X0023673Y0203799D01*
X0023552Y0203853D01*
X0023432Y0203911D01*
X0023314Y0203972D01*
X0023197Y0204037D01*
X0023083Y0204105D01*
X0022971Y0204177D01*
X0022861Y0204252D01*
X0022753Y0204330D01*
X0022648Y0204412D01*
X0022545Y0204496D01*
X0022445Y0204584D01*
X0022347Y0204674D01*
X0022253Y0204768D01*
X0022161Y0204864D01*
X0022072Y0204963D01*
X0021986Y0205064D01*
X0021903Y0205168D01*
X0021823Y0205275D01*
X0021746Y0205384D01*
X0021673Y0205495D01*
X0021603Y0205608D01*
X0021536Y0205723D01*
X0021473Y0205841D01*
X0021414Y0205960D01*
X0021358Y0206080D01*
X0021305Y0206203D01*
X0021257Y0206327D01*
X0021212Y0206452D01*
X0021171Y0206579D01*
X0021133Y0206706D01*
X0021100Y0206835D01*
X0021070Y0206965D01*
X0021044Y0207096D01*
X0021023Y0207227D01*
X0021005Y0207359D01*
X0020991Y0207491D01*
X0020981Y0207624D01*
X0020975Y0207757D01*
X0020973Y0207890D01*
X0022469Y0305134D02*
X0022471Y0305285D01*
X0022477Y0305435D01*
X0022487Y0305586D01*
X0022501Y0305736D01*
X0022519Y0305885D01*
X0022540Y0306035D01*
X0022566Y0306183D01*
X0022596Y0306331D01*
X0022629Y0306478D01*
X0022667Y0306624D01*
X0022708Y0306769D01*
X0022753Y0306913D01*
X0022802Y0307055D01*
X0022855Y0307196D01*
X0022911Y0307336D01*
X0022971Y0307474D01*
X0023034Y0307611D01*
X0023102Y0307746D01*
X0023172Y0307879D01*
X0023246Y0308010D01*
X0023324Y0308139D01*
X0023405Y0308266D01*
X0023489Y0308391D01*
X0023577Y0308514D01*
X0023668Y0308634D01*
X0023762Y0308752D01*
X0023859Y0308867D01*
X0023959Y0308980D01*
X0024062Y0309090D01*
X0024168Y0309197D01*
X0024277Y0309302D01*
X0024388Y0309403D01*
X0024502Y0309502D01*
X0024618Y0309597D01*
X0024738Y0309690D01*
X0024859Y0309779D01*
X0024983Y0309865D01*
X0025109Y0309948D01*
X0025237Y0310027D01*
X0025367Y0310103D01*
X0025499Y0310176D01*
X0025633Y0310244D01*
X0025769Y0310310D01*
X0025907Y0310372D01*
X0026046Y0310430D01*
X0026186Y0310484D01*
X0026328Y0310535D01*
X0026471Y0310582D01*
X0026616Y0310625D01*
X0026761Y0310664D01*
X0026908Y0310700D01*
X0027055Y0310731D01*
X0027203Y0310759D01*
X0027352Y0310783D01*
X0027501Y0310803D01*
X0027651Y0310819D01*
X0027801Y0310831D01*
X0027952Y0310839D01*
X0028103Y0310843D01*
X0028253Y0310843D01*
X0028404Y0310839D01*
X0028555Y0310831D01*
X0028705Y0310819D01*
X0028855Y0310803D01*
X0029004Y0310783D01*
X0029153Y0310759D01*
X0029301Y0310731D01*
X0029448Y0310700D01*
X0029595Y0310664D01*
X0029740Y0310625D01*
X0029885Y0310582D01*
X0030028Y0310535D01*
X0030170Y0310484D01*
X0030310Y0310430D01*
X0030449Y0310372D01*
X0030587Y0310310D01*
X0030723Y0310244D01*
X0030857Y0310176D01*
X0030989Y0310103D01*
X0031119Y0310027D01*
X0031247Y0309948D01*
X0031373Y0309865D01*
X0031497Y0309779D01*
X0031618Y0309690D01*
X0031738Y0309597D01*
X0031854Y0309502D01*
X0031968Y0309403D01*
X0032079Y0309302D01*
X0032188Y0309197D01*
X0032294Y0309090D01*
X0032397Y0308980D01*
X0032497Y0308867D01*
X0032594Y0308752D01*
X0032688Y0308634D01*
X0032779Y0308514D01*
X0032867Y0308391D01*
X0032951Y0308266D01*
X0033032Y0308139D01*
X0033110Y0308010D01*
X0033184Y0307879D01*
X0033254Y0307746D01*
X0033322Y0307611D01*
X0033385Y0307474D01*
X0033445Y0307336D01*
X0033501Y0307196D01*
X0033554Y0307055D01*
X0033603Y0306913D01*
X0033648Y0306769D01*
X0033689Y0306624D01*
X0033727Y0306478D01*
X0033760Y0306331D01*
X0033790Y0306183D01*
X0033816Y0306035D01*
X0033837Y0305885D01*
X0033855Y0305736D01*
X0033869Y0305586D01*
X0033879Y0305435D01*
X0033885Y0305285D01*
X0033887Y0305134D01*
X0033885Y0304983D01*
X0033879Y0304833D01*
X0033869Y0304682D01*
X0033855Y0304532D01*
X0033837Y0304383D01*
X0033816Y0304233D01*
X0033790Y0304085D01*
X0033760Y0303937D01*
X0033727Y0303790D01*
X0033689Y0303644D01*
X0033648Y0303499D01*
X0033603Y0303355D01*
X0033554Y0303213D01*
X0033501Y0303072D01*
X0033445Y0302932D01*
X0033385Y0302794D01*
X0033322Y0302657D01*
X0033254Y0302522D01*
X0033184Y0302389D01*
X0033110Y0302258D01*
X0033032Y0302129D01*
X0032951Y0302002D01*
X0032867Y0301877D01*
X0032779Y0301754D01*
X0032688Y0301634D01*
X0032594Y0301516D01*
X0032497Y0301401D01*
X0032397Y0301288D01*
X0032294Y0301178D01*
X0032188Y0301071D01*
X0032079Y0300966D01*
X0031968Y0300865D01*
X0031854Y0300766D01*
X0031738Y0300671D01*
X0031618Y0300578D01*
X0031497Y0300489D01*
X0031373Y0300403D01*
X0031247Y0300320D01*
X0031119Y0300241D01*
X0030989Y0300165D01*
X0030857Y0300092D01*
X0030723Y0300024D01*
X0030587Y0299958D01*
X0030449Y0299896D01*
X0030310Y0299838D01*
X0030170Y0299784D01*
X0030028Y0299733D01*
X0029885Y0299686D01*
X0029740Y0299643D01*
X0029595Y0299604D01*
X0029448Y0299568D01*
X0029301Y0299537D01*
X0029153Y0299509D01*
X0029004Y0299485D01*
X0028855Y0299465D01*
X0028705Y0299449D01*
X0028555Y0299437D01*
X0028404Y0299429D01*
X0028253Y0299425D01*
X0028103Y0299425D01*
X0027952Y0299429D01*
X0027801Y0299437D01*
X0027651Y0299449D01*
X0027501Y0299465D01*
X0027352Y0299485D01*
X0027203Y0299509D01*
X0027055Y0299537D01*
X0026908Y0299568D01*
X0026761Y0299604D01*
X0026616Y0299643D01*
X0026471Y0299686D01*
X0026328Y0299733D01*
X0026186Y0299784D01*
X0026046Y0299838D01*
X0025907Y0299896D01*
X0025769Y0299958D01*
X0025633Y0300024D01*
X0025499Y0300092D01*
X0025367Y0300165D01*
X0025237Y0300241D01*
X0025109Y0300320D01*
X0024983Y0300403D01*
X0024859Y0300489D01*
X0024738Y0300578D01*
X0024618Y0300671D01*
X0024502Y0300766D01*
X0024388Y0300865D01*
X0024277Y0300966D01*
X0024168Y0301071D01*
X0024062Y0301178D01*
X0023959Y0301288D01*
X0023859Y0301401D01*
X0023762Y0301516D01*
X0023668Y0301634D01*
X0023577Y0301754D01*
X0023489Y0301877D01*
X0023405Y0302002D01*
X0023324Y0302129D01*
X0023246Y0302258D01*
X0023172Y0302389D01*
X0023102Y0302522D01*
X0023034Y0302657D01*
X0022971Y0302794D01*
X0022911Y0302932D01*
X0022855Y0303072D01*
X0022802Y0303213D01*
X0022753Y0303355D01*
X0022708Y0303499D01*
X0022667Y0303644D01*
X0022629Y0303790D01*
X0022596Y0303937D01*
X0022566Y0304085D01*
X0022540Y0304233D01*
X0022519Y0304383D01*
X0022501Y0304532D01*
X0022487Y0304682D01*
X0022477Y0304833D01*
X0022471Y0304983D01*
X0022469Y0305134D01*
X0105540Y0388205D02*
X0105542Y0388356D01*
X0105548Y0388506D01*
X0105558Y0388657D01*
X0105572Y0388807D01*
X0105590Y0388956D01*
X0105611Y0389106D01*
X0105637Y0389254D01*
X0105667Y0389402D01*
X0105700Y0389549D01*
X0105738Y0389695D01*
X0105779Y0389840D01*
X0105824Y0389984D01*
X0105873Y0390126D01*
X0105926Y0390267D01*
X0105982Y0390407D01*
X0106042Y0390545D01*
X0106105Y0390682D01*
X0106173Y0390817D01*
X0106243Y0390950D01*
X0106317Y0391081D01*
X0106395Y0391210D01*
X0106476Y0391337D01*
X0106560Y0391462D01*
X0106648Y0391585D01*
X0106739Y0391705D01*
X0106833Y0391823D01*
X0106930Y0391938D01*
X0107030Y0392051D01*
X0107133Y0392161D01*
X0107239Y0392268D01*
X0107348Y0392373D01*
X0107459Y0392474D01*
X0107573Y0392573D01*
X0107689Y0392668D01*
X0107809Y0392761D01*
X0107930Y0392850D01*
X0108054Y0392936D01*
X0108180Y0393019D01*
X0108308Y0393098D01*
X0108438Y0393174D01*
X0108570Y0393247D01*
X0108704Y0393315D01*
X0108840Y0393381D01*
X0108978Y0393443D01*
X0109117Y0393501D01*
X0109257Y0393555D01*
X0109399Y0393606D01*
X0109542Y0393653D01*
X0109687Y0393696D01*
X0109832Y0393735D01*
X0109979Y0393771D01*
X0110126Y0393802D01*
X0110274Y0393830D01*
X0110423Y0393854D01*
X0110572Y0393874D01*
X0110722Y0393890D01*
X0110872Y0393902D01*
X0111023Y0393910D01*
X0111174Y0393914D01*
X0111324Y0393914D01*
X0111475Y0393910D01*
X0111626Y0393902D01*
X0111776Y0393890D01*
X0111926Y0393874D01*
X0112075Y0393854D01*
X0112224Y0393830D01*
X0112372Y0393802D01*
X0112519Y0393771D01*
X0112666Y0393735D01*
X0112811Y0393696D01*
X0112956Y0393653D01*
X0113099Y0393606D01*
X0113241Y0393555D01*
X0113381Y0393501D01*
X0113520Y0393443D01*
X0113658Y0393381D01*
X0113794Y0393315D01*
X0113928Y0393247D01*
X0114060Y0393174D01*
X0114190Y0393098D01*
X0114318Y0393019D01*
X0114444Y0392936D01*
X0114568Y0392850D01*
X0114689Y0392761D01*
X0114809Y0392668D01*
X0114925Y0392573D01*
X0115039Y0392474D01*
X0115150Y0392373D01*
X0115259Y0392268D01*
X0115365Y0392161D01*
X0115468Y0392051D01*
X0115568Y0391938D01*
X0115665Y0391823D01*
X0115759Y0391705D01*
X0115850Y0391585D01*
X0115938Y0391462D01*
X0116022Y0391337D01*
X0116103Y0391210D01*
X0116181Y0391081D01*
X0116255Y0390950D01*
X0116325Y0390817D01*
X0116393Y0390682D01*
X0116456Y0390545D01*
X0116516Y0390407D01*
X0116572Y0390267D01*
X0116625Y0390126D01*
X0116674Y0389984D01*
X0116719Y0389840D01*
X0116760Y0389695D01*
X0116798Y0389549D01*
X0116831Y0389402D01*
X0116861Y0389254D01*
X0116887Y0389106D01*
X0116908Y0388956D01*
X0116926Y0388807D01*
X0116940Y0388657D01*
X0116950Y0388506D01*
X0116956Y0388356D01*
X0116958Y0388205D01*
X0116956Y0388054D01*
X0116950Y0387904D01*
X0116940Y0387753D01*
X0116926Y0387603D01*
X0116908Y0387454D01*
X0116887Y0387304D01*
X0116861Y0387156D01*
X0116831Y0387008D01*
X0116798Y0386861D01*
X0116760Y0386715D01*
X0116719Y0386570D01*
X0116674Y0386426D01*
X0116625Y0386284D01*
X0116572Y0386143D01*
X0116516Y0386003D01*
X0116456Y0385865D01*
X0116393Y0385728D01*
X0116325Y0385593D01*
X0116255Y0385460D01*
X0116181Y0385329D01*
X0116103Y0385200D01*
X0116022Y0385073D01*
X0115938Y0384948D01*
X0115850Y0384825D01*
X0115759Y0384705D01*
X0115665Y0384587D01*
X0115568Y0384472D01*
X0115468Y0384359D01*
X0115365Y0384249D01*
X0115259Y0384142D01*
X0115150Y0384037D01*
X0115039Y0383936D01*
X0114925Y0383837D01*
X0114809Y0383742D01*
X0114689Y0383649D01*
X0114568Y0383560D01*
X0114444Y0383474D01*
X0114318Y0383391D01*
X0114190Y0383312D01*
X0114060Y0383236D01*
X0113928Y0383163D01*
X0113794Y0383095D01*
X0113658Y0383029D01*
X0113520Y0382967D01*
X0113381Y0382909D01*
X0113241Y0382855D01*
X0113099Y0382804D01*
X0112956Y0382757D01*
X0112811Y0382714D01*
X0112666Y0382675D01*
X0112519Y0382639D01*
X0112372Y0382608D01*
X0112224Y0382580D01*
X0112075Y0382556D01*
X0111926Y0382536D01*
X0111776Y0382520D01*
X0111626Y0382508D01*
X0111475Y0382500D01*
X0111324Y0382496D01*
X0111174Y0382496D01*
X0111023Y0382500D01*
X0110872Y0382508D01*
X0110722Y0382520D01*
X0110572Y0382536D01*
X0110423Y0382556D01*
X0110274Y0382580D01*
X0110126Y0382608D01*
X0109979Y0382639D01*
X0109832Y0382675D01*
X0109687Y0382714D01*
X0109542Y0382757D01*
X0109399Y0382804D01*
X0109257Y0382855D01*
X0109117Y0382909D01*
X0108978Y0382967D01*
X0108840Y0383029D01*
X0108704Y0383095D01*
X0108570Y0383163D01*
X0108438Y0383236D01*
X0108308Y0383312D01*
X0108180Y0383391D01*
X0108054Y0383474D01*
X0107930Y0383560D01*
X0107809Y0383649D01*
X0107689Y0383742D01*
X0107573Y0383837D01*
X0107459Y0383936D01*
X0107348Y0384037D01*
X0107239Y0384142D01*
X0107133Y0384249D01*
X0107030Y0384359D01*
X0106930Y0384472D01*
X0106833Y0384587D01*
X0106739Y0384705D01*
X0106648Y0384825D01*
X0106560Y0384948D01*
X0106476Y0385073D01*
X0106395Y0385200D01*
X0106317Y0385329D01*
X0106243Y0385460D01*
X0106173Y0385593D01*
X0106105Y0385728D01*
X0106042Y0385865D01*
X0105982Y0386003D01*
X0105926Y0386143D01*
X0105873Y0386284D01*
X0105824Y0386426D01*
X0105779Y0386570D01*
X0105738Y0386715D01*
X0105700Y0386861D01*
X0105667Y0387008D01*
X0105637Y0387156D01*
X0105611Y0387304D01*
X0105590Y0387454D01*
X0105572Y0387603D01*
X0105558Y0387753D01*
X0105548Y0387904D01*
X0105542Y0388054D01*
X0105540Y0388205D01*
X0017351Y0394898D02*
X0017353Y0395026D01*
X0017359Y0395154D01*
X0017369Y0395281D01*
X0017383Y0395409D01*
X0017400Y0395535D01*
X0017422Y0395661D01*
X0017448Y0395787D01*
X0017477Y0395911D01*
X0017510Y0396035D01*
X0017547Y0396157D01*
X0017588Y0396278D01*
X0017633Y0396398D01*
X0017681Y0396517D01*
X0017733Y0396634D01*
X0017789Y0396749D01*
X0017848Y0396863D01*
X0017910Y0396974D01*
X0017976Y0397084D01*
X0018045Y0397191D01*
X0018118Y0397297D01*
X0018194Y0397400D01*
X0018273Y0397500D01*
X0018355Y0397599D01*
X0018440Y0397694D01*
X0018528Y0397787D01*
X0018619Y0397877D01*
X0018712Y0397964D01*
X0018809Y0398049D01*
X0018907Y0398130D01*
X0019009Y0398208D01*
X0019112Y0398283D01*
X0019218Y0398355D01*
X0019326Y0398424D01*
X0019436Y0398489D01*
X0019549Y0398550D01*
X0019663Y0398609D01*
X0019778Y0398663D01*
X0019896Y0398714D01*
X0020014Y0398762D01*
X0020135Y0398805D01*
X0020256Y0398845D01*
X0020379Y0398881D01*
X0020503Y0398914D01*
X0020628Y0398942D01*
X0020753Y0398967D01*
X0020879Y0398987D01*
X0021006Y0399004D01*
X0021134Y0399017D01*
X0021261Y0399026D01*
X0021389Y0399031D01*
X0021517Y0399032D01*
X0021645Y0399029D01*
X0021773Y0399022D01*
X0021900Y0399011D01*
X0022027Y0398996D01*
X0022154Y0398978D01*
X0022280Y0398955D01*
X0022405Y0398928D01*
X0022529Y0398898D01*
X0022652Y0398864D01*
X0022775Y0398826D01*
X0022896Y0398784D01*
X0023015Y0398738D01*
X0023133Y0398689D01*
X0023250Y0398636D01*
X0023365Y0398580D01*
X0023478Y0398520D01*
X0023589Y0398457D01*
X0023698Y0398390D01*
X0023805Y0398320D01*
X0023910Y0398246D01*
X0024012Y0398170D01*
X0024112Y0398090D01*
X0024210Y0398007D01*
X0024305Y0397921D01*
X0024397Y0397832D01*
X0024486Y0397741D01*
X0024573Y0397647D01*
X0024656Y0397550D01*
X0024737Y0397450D01*
X0024814Y0397349D01*
X0024889Y0397244D01*
X0024960Y0397138D01*
X0025027Y0397029D01*
X0025092Y0396919D01*
X0025152Y0396806D01*
X0025210Y0396692D01*
X0025263Y0396576D01*
X0025313Y0396458D01*
X0025360Y0396339D01*
X0025403Y0396218D01*
X0025442Y0396096D01*
X0025477Y0395973D01*
X0025508Y0395849D01*
X0025536Y0395724D01*
X0025559Y0395598D01*
X0025579Y0395472D01*
X0025595Y0395345D01*
X0025607Y0395218D01*
X0025615Y0395090D01*
X0025619Y0394962D01*
X0025619Y0394834D01*
X0025615Y0394706D01*
X0025607Y0394578D01*
X0025595Y0394451D01*
X0025579Y0394324D01*
X0025559Y0394198D01*
X0025536Y0394072D01*
X0025508Y0393947D01*
X0025477Y0393823D01*
X0025442Y0393700D01*
X0025403Y0393578D01*
X0025360Y0393457D01*
X0025313Y0393338D01*
X0025263Y0393220D01*
X0025210Y0393104D01*
X0025152Y0392990D01*
X0025092Y0392877D01*
X0025027Y0392767D01*
X0024960Y0392658D01*
X0024889Y0392552D01*
X0024814Y0392447D01*
X0024737Y0392346D01*
X0024656Y0392246D01*
X0024573Y0392149D01*
X0024486Y0392055D01*
X0024397Y0391964D01*
X0024305Y0391875D01*
X0024210Y0391789D01*
X0024112Y0391706D01*
X0024012Y0391626D01*
X0023910Y0391550D01*
X0023805Y0391476D01*
X0023698Y0391406D01*
X0023589Y0391339D01*
X0023478Y0391276D01*
X0023365Y0391216D01*
X0023250Y0391160D01*
X0023133Y0391107D01*
X0023015Y0391058D01*
X0022896Y0391012D01*
X0022775Y0390970D01*
X0022652Y0390932D01*
X0022529Y0390898D01*
X0022405Y0390868D01*
X0022280Y0390841D01*
X0022154Y0390818D01*
X0022027Y0390800D01*
X0021900Y0390785D01*
X0021773Y0390774D01*
X0021645Y0390767D01*
X0021517Y0390764D01*
X0021389Y0390765D01*
X0021261Y0390770D01*
X0021134Y0390779D01*
X0021006Y0390792D01*
X0020879Y0390809D01*
X0020753Y0390829D01*
X0020628Y0390854D01*
X0020503Y0390882D01*
X0020379Y0390915D01*
X0020256Y0390951D01*
X0020135Y0390991D01*
X0020014Y0391034D01*
X0019896Y0391082D01*
X0019778Y0391133D01*
X0019663Y0391187D01*
X0019549Y0391246D01*
X0019436Y0391307D01*
X0019326Y0391372D01*
X0019218Y0391441D01*
X0019112Y0391513D01*
X0019009Y0391588D01*
X0018907Y0391666D01*
X0018809Y0391747D01*
X0018712Y0391832D01*
X0018619Y0391919D01*
X0018528Y0392009D01*
X0018440Y0392102D01*
X0018355Y0392197D01*
X0018273Y0392296D01*
X0018194Y0392396D01*
X0018118Y0392499D01*
X0018045Y0392605D01*
X0017976Y0392712D01*
X0017910Y0392822D01*
X0017848Y0392933D01*
X0017789Y0393047D01*
X0017733Y0393162D01*
X0017681Y0393279D01*
X0017633Y0393398D01*
X0017588Y0393518D01*
X0017547Y0393639D01*
X0017510Y0393761D01*
X0017477Y0393885D01*
X0017448Y0394009D01*
X0017422Y0394135D01*
X0017400Y0394261D01*
X0017383Y0394387D01*
X0017369Y0394515D01*
X0017359Y0394642D01*
X0017353Y0394770D01*
X0017351Y0394898D01*
X0300028Y0388205D02*
X0300030Y0388356D01*
X0300036Y0388506D01*
X0300046Y0388657D01*
X0300060Y0388807D01*
X0300078Y0388956D01*
X0300099Y0389106D01*
X0300125Y0389254D01*
X0300155Y0389402D01*
X0300188Y0389549D01*
X0300226Y0389695D01*
X0300267Y0389840D01*
X0300312Y0389984D01*
X0300361Y0390126D01*
X0300414Y0390267D01*
X0300470Y0390407D01*
X0300530Y0390545D01*
X0300593Y0390682D01*
X0300661Y0390817D01*
X0300731Y0390950D01*
X0300805Y0391081D01*
X0300883Y0391210D01*
X0300964Y0391337D01*
X0301048Y0391462D01*
X0301136Y0391585D01*
X0301227Y0391705D01*
X0301321Y0391823D01*
X0301418Y0391938D01*
X0301518Y0392051D01*
X0301621Y0392161D01*
X0301727Y0392268D01*
X0301836Y0392373D01*
X0301947Y0392474D01*
X0302061Y0392573D01*
X0302177Y0392668D01*
X0302297Y0392761D01*
X0302418Y0392850D01*
X0302542Y0392936D01*
X0302668Y0393019D01*
X0302796Y0393098D01*
X0302926Y0393174D01*
X0303058Y0393247D01*
X0303192Y0393315D01*
X0303328Y0393381D01*
X0303466Y0393443D01*
X0303605Y0393501D01*
X0303745Y0393555D01*
X0303887Y0393606D01*
X0304030Y0393653D01*
X0304175Y0393696D01*
X0304320Y0393735D01*
X0304467Y0393771D01*
X0304614Y0393802D01*
X0304762Y0393830D01*
X0304911Y0393854D01*
X0305060Y0393874D01*
X0305210Y0393890D01*
X0305360Y0393902D01*
X0305511Y0393910D01*
X0305662Y0393914D01*
X0305812Y0393914D01*
X0305963Y0393910D01*
X0306114Y0393902D01*
X0306264Y0393890D01*
X0306414Y0393874D01*
X0306563Y0393854D01*
X0306712Y0393830D01*
X0306860Y0393802D01*
X0307007Y0393771D01*
X0307154Y0393735D01*
X0307299Y0393696D01*
X0307444Y0393653D01*
X0307587Y0393606D01*
X0307729Y0393555D01*
X0307869Y0393501D01*
X0308008Y0393443D01*
X0308146Y0393381D01*
X0308282Y0393315D01*
X0308416Y0393247D01*
X0308548Y0393174D01*
X0308678Y0393098D01*
X0308806Y0393019D01*
X0308932Y0392936D01*
X0309056Y0392850D01*
X0309177Y0392761D01*
X0309297Y0392668D01*
X0309413Y0392573D01*
X0309527Y0392474D01*
X0309638Y0392373D01*
X0309747Y0392268D01*
X0309853Y0392161D01*
X0309956Y0392051D01*
X0310056Y0391938D01*
X0310153Y0391823D01*
X0310247Y0391705D01*
X0310338Y0391585D01*
X0310426Y0391462D01*
X0310510Y0391337D01*
X0310591Y0391210D01*
X0310669Y0391081D01*
X0310743Y0390950D01*
X0310813Y0390817D01*
X0310881Y0390682D01*
X0310944Y0390545D01*
X0311004Y0390407D01*
X0311060Y0390267D01*
X0311113Y0390126D01*
X0311162Y0389984D01*
X0311207Y0389840D01*
X0311248Y0389695D01*
X0311286Y0389549D01*
X0311319Y0389402D01*
X0311349Y0389254D01*
X0311375Y0389106D01*
X0311396Y0388956D01*
X0311414Y0388807D01*
X0311428Y0388657D01*
X0311438Y0388506D01*
X0311444Y0388356D01*
X0311446Y0388205D01*
X0311444Y0388054D01*
X0311438Y0387904D01*
X0311428Y0387753D01*
X0311414Y0387603D01*
X0311396Y0387454D01*
X0311375Y0387304D01*
X0311349Y0387156D01*
X0311319Y0387008D01*
X0311286Y0386861D01*
X0311248Y0386715D01*
X0311207Y0386570D01*
X0311162Y0386426D01*
X0311113Y0386284D01*
X0311060Y0386143D01*
X0311004Y0386003D01*
X0310944Y0385865D01*
X0310881Y0385728D01*
X0310813Y0385593D01*
X0310743Y0385460D01*
X0310669Y0385329D01*
X0310591Y0385200D01*
X0310510Y0385073D01*
X0310426Y0384948D01*
X0310338Y0384825D01*
X0310247Y0384705D01*
X0310153Y0384587D01*
X0310056Y0384472D01*
X0309956Y0384359D01*
X0309853Y0384249D01*
X0309747Y0384142D01*
X0309638Y0384037D01*
X0309527Y0383936D01*
X0309413Y0383837D01*
X0309297Y0383742D01*
X0309177Y0383649D01*
X0309056Y0383560D01*
X0308932Y0383474D01*
X0308806Y0383391D01*
X0308678Y0383312D01*
X0308548Y0383236D01*
X0308416Y0383163D01*
X0308282Y0383095D01*
X0308146Y0383029D01*
X0308008Y0382967D01*
X0307869Y0382909D01*
X0307729Y0382855D01*
X0307587Y0382804D01*
X0307444Y0382757D01*
X0307299Y0382714D01*
X0307154Y0382675D01*
X0307007Y0382639D01*
X0306860Y0382608D01*
X0306712Y0382580D01*
X0306563Y0382556D01*
X0306414Y0382536D01*
X0306264Y0382520D01*
X0306114Y0382508D01*
X0305963Y0382500D01*
X0305812Y0382496D01*
X0305662Y0382496D01*
X0305511Y0382500D01*
X0305360Y0382508D01*
X0305210Y0382520D01*
X0305060Y0382536D01*
X0304911Y0382556D01*
X0304762Y0382580D01*
X0304614Y0382608D01*
X0304467Y0382639D01*
X0304320Y0382675D01*
X0304175Y0382714D01*
X0304030Y0382757D01*
X0303887Y0382804D01*
X0303745Y0382855D01*
X0303605Y0382909D01*
X0303466Y0382967D01*
X0303328Y0383029D01*
X0303192Y0383095D01*
X0303058Y0383163D01*
X0302926Y0383236D01*
X0302796Y0383312D01*
X0302668Y0383391D01*
X0302542Y0383474D01*
X0302418Y0383560D01*
X0302297Y0383649D01*
X0302177Y0383742D01*
X0302061Y0383837D01*
X0301947Y0383936D01*
X0301836Y0384037D01*
X0301727Y0384142D01*
X0301621Y0384249D01*
X0301518Y0384359D01*
X0301418Y0384472D01*
X0301321Y0384587D01*
X0301227Y0384705D01*
X0301136Y0384825D01*
X0301048Y0384948D01*
X0300964Y0385073D01*
X0300883Y0385200D01*
X0300805Y0385329D01*
X0300731Y0385460D01*
X0300661Y0385593D01*
X0300593Y0385728D01*
X0300530Y0385865D01*
X0300470Y0386003D01*
X0300414Y0386143D01*
X0300361Y0386284D01*
X0300312Y0386426D01*
X0300267Y0386570D01*
X0300226Y0386715D01*
X0300188Y0386861D01*
X0300155Y0387008D01*
X0300125Y0387156D01*
X0300099Y0387304D01*
X0300078Y0387454D01*
X0300060Y0387603D01*
X0300046Y0387753D01*
X0300036Y0387904D01*
X0300030Y0388054D01*
X0300028Y0388205D01*
X0383099Y0305134D02*
X0383101Y0305285D01*
X0383107Y0305435D01*
X0383117Y0305586D01*
X0383131Y0305736D01*
X0383149Y0305885D01*
X0383170Y0306035D01*
X0383196Y0306183D01*
X0383226Y0306331D01*
X0383259Y0306478D01*
X0383297Y0306624D01*
X0383338Y0306769D01*
X0383383Y0306913D01*
X0383432Y0307055D01*
X0383485Y0307196D01*
X0383541Y0307336D01*
X0383601Y0307474D01*
X0383664Y0307611D01*
X0383732Y0307746D01*
X0383802Y0307879D01*
X0383876Y0308010D01*
X0383954Y0308139D01*
X0384035Y0308266D01*
X0384119Y0308391D01*
X0384207Y0308514D01*
X0384298Y0308634D01*
X0384392Y0308752D01*
X0384489Y0308867D01*
X0384589Y0308980D01*
X0384692Y0309090D01*
X0384798Y0309197D01*
X0384907Y0309302D01*
X0385018Y0309403D01*
X0385132Y0309502D01*
X0385248Y0309597D01*
X0385368Y0309690D01*
X0385489Y0309779D01*
X0385613Y0309865D01*
X0385739Y0309948D01*
X0385867Y0310027D01*
X0385997Y0310103D01*
X0386129Y0310176D01*
X0386263Y0310244D01*
X0386399Y0310310D01*
X0386537Y0310372D01*
X0386676Y0310430D01*
X0386816Y0310484D01*
X0386958Y0310535D01*
X0387101Y0310582D01*
X0387246Y0310625D01*
X0387391Y0310664D01*
X0387538Y0310700D01*
X0387685Y0310731D01*
X0387833Y0310759D01*
X0387982Y0310783D01*
X0388131Y0310803D01*
X0388281Y0310819D01*
X0388431Y0310831D01*
X0388582Y0310839D01*
X0388733Y0310843D01*
X0388883Y0310843D01*
X0389034Y0310839D01*
X0389185Y0310831D01*
X0389335Y0310819D01*
X0389485Y0310803D01*
X0389634Y0310783D01*
X0389783Y0310759D01*
X0389931Y0310731D01*
X0390078Y0310700D01*
X0390225Y0310664D01*
X0390370Y0310625D01*
X0390515Y0310582D01*
X0390658Y0310535D01*
X0390800Y0310484D01*
X0390940Y0310430D01*
X0391079Y0310372D01*
X0391217Y0310310D01*
X0391353Y0310244D01*
X0391487Y0310176D01*
X0391619Y0310103D01*
X0391749Y0310027D01*
X0391877Y0309948D01*
X0392003Y0309865D01*
X0392127Y0309779D01*
X0392248Y0309690D01*
X0392368Y0309597D01*
X0392484Y0309502D01*
X0392598Y0309403D01*
X0392709Y0309302D01*
X0392818Y0309197D01*
X0392924Y0309090D01*
X0393027Y0308980D01*
X0393127Y0308867D01*
X0393224Y0308752D01*
X0393318Y0308634D01*
X0393409Y0308514D01*
X0393497Y0308391D01*
X0393581Y0308266D01*
X0393662Y0308139D01*
X0393740Y0308010D01*
X0393814Y0307879D01*
X0393884Y0307746D01*
X0393952Y0307611D01*
X0394015Y0307474D01*
X0394075Y0307336D01*
X0394131Y0307196D01*
X0394184Y0307055D01*
X0394233Y0306913D01*
X0394278Y0306769D01*
X0394319Y0306624D01*
X0394357Y0306478D01*
X0394390Y0306331D01*
X0394420Y0306183D01*
X0394446Y0306035D01*
X0394467Y0305885D01*
X0394485Y0305736D01*
X0394499Y0305586D01*
X0394509Y0305435D01*
X0394515Y0305285D01*
X0394517Y0305134D01*
X0394515Y0304983D01*
X0394509Y0304833D01*
X0394499Y0304682D01*
X0394485Y0304532D01*
X0394467Y0304383D01*
X0394446Y0304233D01*
X0394420Y0304085D01*
X0394390Y0303937D01*
X0394357Y0303790D01*
X0394319Y0303644D01*
X0394278Y0303499D01*
X0394233Y0303355D01*
X0394184Y0303213D01*
X0394131Y0303072D01*
X0394075Y0302932D01*
X0394015Y0302794D01*
X0393952Y0302657D01*
X0393884Y0302522D01*
X0393814Y0302389D01*
X0393740Y0302258D01*
X0393662Y0302129D01*
X0393581Y0302002D01*
X0393497Y0301877D01*
X0393409Y0301754D01*
X0393318Y0301634D01*
X0393224Y0301516D01*
X0393127Y0301401D01*
X0393027Y0301288D01*
X0392924Y0301178D01*
X0392818Y0301071D01*
X0392709Y0300966D01*
X0392598Y0300865D01*
X0392484Y0300766D01*
X0392368Y0300671D01*
X0392248Y0300578D01*
X0392127Y0300489D01*
X0392003Y0300403D01*
X0391877Y0300320D01*
X0391749Y0300241D01*
X0391619Y0300165D01*
X0391487Y0300092D01*
X0391353Y0300024D01*
X0391217Y0299958D01*
X0391079Y0299896D01*
X0390940Y0299838D01*
X0390800Y0299784D01*
X0390658Y0299733D01*
X0390515Y0299686D01*
X0390370Y0299643D01*
X0390225Y0299604D01*
X0390078Y0299568D01*
X0389931Y0299537D01*
X0389783Y0299509D01*
X0389634Y0299485D01*
X0389485Y0299465D01*
X0389335Y0299449D01*
X0389185Y0299437D01*
X0389034Y0299429D01*
X0388883Y0299425D01*
X0388733Y0299425D01*
X0388582Y0299429D01*
X0388431Y0299437D01*
X0388281Y0299449D01*
X0388131Y0299465D01*
X0387982Y0299485D01*
X0387833Y0299509D01*
X0387685Y0299537D01*
X0387538Y0299568D01*
X0387391Y0299604D01*
X0387246Y0299643D01*
X0387101Y0299686D01*
X0386958Y0299733D01*
X0386816Y0299784D01*
X0386676Y0299838D01*
X0386537Y0299896D01*
X0386399Y0299958D01*
X0386263Y0300024D01*
X0386129Y0300092D01*
X0385997Y0300165D01*
X0385867Y0300241D01*
X0385739Y0300320D01*
X0385613Y0300403D01*
X0385489Y0300489D01*
X0385368Y0300578D01*
X0385248Y0300671D01*
X0385132Y0300766D01*
X0385018Y0300865D01*
X0384907Y0300966D01*
X0384798Y0301071D01*
X0384692Y0301178D01*
X0384589Y0301288D01*
X0384489Y0301401D01*
X0384392Y0301516D01*
X0384298Y0301634D01*
X0384207Y0301754D01*
X0384119Y0301877D01*
X0384035Y0302002D01*
X0383954Y0302129D01*
X0383876Y0302258D01*
X0383802Y0302389D01*
X0383732Y0302522D01*
X0383664Y0302657D01*
X0383601Y0302794D01*
X0383541Y0302932D01*
X0383485Y0303072D01*
X0383432Y0303213D01*
X0383383Y0303355D01*
X0383338Y0303499D01*
X0383297Y0303644D01*
X0383259Y0303790D01*
X0383226Y0303937D01*
X0383196Y0304085D01*
X0383170Y0304233D01*
X0383149Y0304383D01*
X0383131Y0304532D01*
X0383117Y0304682D01*
X0383107Y0304833D01*
X0383101Y0304983D01*
X0383099Y0305134D01*
X0391367Y0394898D02*
X0391369Y0395026D01*
X0391375Y0395154D01*
X0391385Y0395281D01*
X0391399Y0395409D01*
X0391416Y0395535D01*
X0391438Y0395661D01*
X0391464Y0395787D01*
X0391493Y0395911D01*
X0391526Y0396035D01*
X0391563Y0396157D01*
X0391604Y0396278D01*
X0391649Y0396398D01*
X0391697Y0396517D01*
X0391749Y0396634D01*
X0391805Y0396749D01*
X0391864Y0396863D01*
X0391926Y0396974D01*
X0391992Y0397084D01*
X0392061Y0397191D01*
X0392134Y0397297D01*
X0392210Y0397400D01*
X0392289Y0397500D01*
X0392371Y0397599D01*
X0392456Y0397694D01*
X0392544Y0397787D01*
X0392635Y0397877D01*
X0392728Y0397964D01*
X0392825Y0398049D01*
X0392923Y0398130D01*
X0393025Y0398208D01*
X0393128Y0398283D01*
X0393234Y0398355D01*
X0393342Y0398424D01*
X0393452Y0398489D01*
X0393565Y0398550D01*
X0393679Y0398609D01*
X0393794Y0398663D01*
X0393912Y0398714D01*
X0394030Y0398762D01*
X0394151Y0398805D01*
X0394272Y0398845D01*
X0394395Y0398881D01*
X0394519Y0398914D01*
X0394644Y0398942D01*
X0394769Y0398967D01*
X0394895Y0398987D01*
X0395022Y0399004D01*
X0395150Y0399017D01*
X0395277Y0399026D01*
X0395405Y0399031D01*
X0395533Y0399032D01*
X0395661Y0399029D01*
X0395789Y0399022D01*
X0395916Y0399011D01*
X0396043Y0398996D01*
X0396170Y0398978D01*
X0396296Y0398955D01*
X0396421Y0398928D01*
X0396545Y0398898D01*
X0396668Y0398864D01*
X0396791Y0398826D01*
X0396912Y0398784D01*
X0397031Y0398738D01*
X0397149Y0398689D01*
X0397266Y0398636D01*
X0397381Y0398580D01*
X0397494Y0398520D01*
X0397605Y0398457D01*
X0397714Y0398390D01*
X0397821Y0398320D01*
X0397926Y0398246D01*
X0398028Y0398170D01*
X0398128Y0398090D01*
X0398226Y0398007D01*
X0398321Y0397921D01*
X0398413Y0397832D01*
X0398502Y0397741D01*
X0398589Y0397647D01*
X0398672Y0397550D01*
X0398753Y0397450D01*
X0398830Y0397349D01*
X0398905Y0397244D01*
X0398976Y0397138D01*
X0399043Y0397029D01*
X0399108Y0396919D01*
X0399168Y0396806D01*
X0399226Y0396692D01*
X0399279Y0396576D01*
X0399329Y0396458D01*
X0399376Y0396339D01*
X0399419Y0396218D01*
X0399458Y0396096D01*
X0399493Y0395973D01*
X0399524Y0395849D01*
X0399552Y0395724D01*
X0399575Y0395598D01*
X0399595Y0395472D01*
X0399611Y0395345D01*
X0399623Y0395218D01*
X0399631Y0395090D01*
X0399635Y0394962D01*
X0399635Y0394834D01*
X0399631Y0394706D01*
X0399623Y0394578D01*
X0399611Y0394451D01*
X0399595Y0394324D01*
X0399575Y0394198D01*
X0399552Y0394072D01*
X0399524Y0393947D01*
X0399493Y0393823D01*
X0399458Y0393700D01*
X0399419Y0393578D01*
X0399376Y0393457D01*
X0399329Y0393338D01*
X0399279Y0393220D01*
X0399226Y0393104D01*
X0399168Y0392990D01*
X0399108Y0392877D01*
X0399043Y0392767D01*
X0398976Y0392658D01*
X0398905Y0392552D01*
X0398830Y0392447D01*
X0398753Y0392346D01*
X0398672Y0392246D01*
X0398589Y0392149D01*
X0398502Y0392055D01*
X0398413Y0391964D01*
X0398321Y0391875D01*
X0398226Y0391789D01*
X0398128Y0391706D01*
X0398028Y0391626D01*
X0397926Y0391550D01*
X0397821Y0391476D01*
X0397714Y0391406D01*
X0397605Y0391339D01*
X0397494Y0391276D01*
X0397381Y0391216D01*
X0397266Y0391160D01*
X0397149Y0391107D01*
X0397031Y0391058D01*
X0396912Y0391012D01*
X0396791Y0390970D01*
X0396668Y0390932D01*
X0396545Y0390898D01*
X0396421Y0390868D01*
X0396296Y0390841D01*
X0396170Y0390818D01*
X0396043Y0390800D01*
X0395916Y0390785D01*
X0395789Y0390774D01*
X0395661Y0390767D01*
X0395533Y0390764D01*
X0395405Y0390765D01*
X0395277Y0390770D01*
X0395150Y0390779D01*
X0395022Y0390792D01*
X0394895Y0390809D01*
X0394769Y0390829D01*
X0394644Y0390854D01*
X0394519Y0390882D01*
X0394395Y0390915D01*
X0394272Y0390951D01*
X0394151Y0390991D01*
X0394030Y0391034D01*
X0393912Y0391082D01*
X0393794Y0391133D01*
X0393679Y0391187D01*
X0393565Y0391246D01*
X0393452Y0391307D01*
X0393342Y0391372D01*
X0393234Y0391441D01*
X0393128Y0391513D01*
X0393025Y0391588D01*
X0392923Y0391666D01*
X0392825Y0391747D01*
X0392728Y0391832D01*
X0392635Y0391919D01*
X0392544Y0392009D01*
X0392456Y0392102D01*
X0392371Y0392197D01*
X0392289Y0392296D01*
X0392210Y0392396D01*
X0392134Y0392499D01*
X0392061Y0392605D01*
X0391992Y0392712D01*
X0391926Y0392822D01*
X0391864Y0392933D01*
X0391805Y0393047D01*
X0391749Y0393162D01*
X0391697Y0393279D01*
X0391649Y0393398D01*
X0391604Y0393518D01*
X0391563Y0393639D01*
X0391526Y0393761D01*
X0391493Y0393885D01*
X0391464Y0394009D01*
X0391438Y0394135D01*
X0391416Y0394261D01*
X0391399Y0394387D01*
X0391385Y0394515D01*
X0391375Y0394642D01*
X0391369Y0394770D01*
X0391367Y0394898D01*
X0387115Y0207890D02*
X0387117Y0208023D01*
X0387123Y0208156D01*
X0387133Y0208289D01*
X0387147Y0208421D01*
X0387165Y0208553D01*
X0387186Y0208684D01*
X0387212Y0208815D01*
X0387242Y0208945D01*
X0387275Y0209074D01*
X0387313Y0209201D01*
X0387354Y0209328D01*
X0387399Y0209453D01*
X0387447Y0209577D01*
X0387500Y0209700D01*
X0387556Y0209820D01*
X0387615Y0209939D01*
X0387678Y0210057D01*
X0387745Y0210172D01*
X0387815Y0210285D01*
X0387888Y0210396D01*
X0387965Y0210505D01*
X0388045Y0210612D01*
X0388128Y0210716D01*
X0388214Y0210817D01*
X0388303Y0210916D01*
X0388395Y0211012D01*
X0388489Y0211106D01*
X0388587Y0211196D01*
X0388687Y0211284D01*
X0388790Y0211368D01*
X0388895Y0211450D01*
X0389003Y0211528D01*
X0389113Y0211603D01*
X0389225Y0211675D01*
X0389340Y0211743D01*
X0389456Y0211808D01*
X0389574Y0211869D01*
X0389694Y0211927D01*
X0389815Y0211981D01*
X0389939Y0212031D01*
X0390063Y0212078D01*
X0390189Y0212121D01*
X0390316Y0212160D01*
X0390445Y0212196D01*
X0390574Y0212227D01*
X0390704Y0212255D01*
X0390835Y0212279D01*
X0390967Y0212299D01*
X0391099Y0212315D01*
X0391232Y0212327D01*
X0391364Y0212335D01*
X0391497Y0212339D01*
X0391631Y0212339D01*
X0391764Y0212335D01*
X0391896Y0212327D01*
X0392029Y0212315D01*
X0392161Y0212299D01*
X0392293Y0212279D01*
X0392424Y0212255D01*
X0392554Y0212227D01*
X0392683Y0212196D01*
X0392812Y0212160D01*
X0392939Y0212121D01*
X0393065Y0212078D01*
X0393189Y0212031D01*
X0393313Y0211981D01*
X0393434Y0211927D01*
X0393554Y0211869D01*
X0393672Y0211808D01*
X0393789Y0211743D01*
X0393903Y0211675D01*
X0394015Y0211603D01*
X0394125Y0211528D01*
X0394233Y0211450D01*
X0394338Y0211368D01*
X0394441Y0211284D01*
X0394541Y0211196D01*
X0394639Y0211106D01*
X0394733Y0211012D01*
X0394825Y0210916D01*
X0394914Y0210817D01*
X0395000Y0210716D01*
X0395083Y0210612D01*
X0395163Y0210505D01*
X0395240Y0210396D01*
X0395313Y0210285D01*
X0395383Y0210172D01*
X0395450Y0210057D01*
X0395513Y0209939D01*
X0395572Y0209820D01*
X0395628Y0209700D01*
X0395681Y0209577D01*
X0395729Y0209453D01*
X0395774Y0209328D01*
X0395815Y0209201D01*
X0395853Y0209074D01*
X0395886Y0208945D01*
X0395916Y0208815D01*
X0395942Y0208684D01*
X0395963Y0208553D01*
X0395981Y0208421D01*
X0395995Y0208289D01*
X0396005Y0208156D01*
X0396011Y0208023D01*
X0396013Y0207890D01*
X0396011Y0207757D01*
X0396005Y0207624D01*
X0395995Y0207491D01*
X0395981Y0207359D01*
X0395963Y0207227D01*
X0395942Y0207096D01*
X0395916Y0206965D01*
X0395886Y0206835D01*
X0395853Y0206706D01*
X0395815Y0206579D01*
X0395774Y0206452D01*
X0395729Y0206327D01*
X0395681Y0206203D01*
X0395628Y0206080D01*
X0395572Y0205960D01*
X0395513Y0205841D01*
X0395450Y0205723D01*
X0395383Y0205608D01*
X0395313Y0205495D01*
X0395240Y0205384D01*
X0395163Y0205275D01*
X0395083Y0205168D01*
X0395000Y0205064D01*
X0394914Y0204963D01*
X0394825Y0204864D01*
X0394733Y0204768D01*
X0394639Y0204674D01*
X0394541Y0204584D01*
X0394441Y0204496D01*
X0394338Y0204412D01*
X0394233Y0204330D01*
X0394125Y0204252D01*
X0394015Y0204177D01*
X0393903Y0204105D01*
X0393788Y0204037D01*
X0393672Y0203972D01*
X0393554Y0203911D01*
X0393434Y0203853D01*
X0393313Y0203799D01*
X0393189Y0203749D01*
X0393065Y0203702D01*
X0392939Y0203659D01*
X0392812Y0203620D01*
X0392683Y0203584D01*
X0392554Y0203553D01*
X0392424Y0203525D01*
X0392293Y0203501D01*
X0392161Y0203481D01*
X0392029Y0203465D01*
X0391896Y0203453D01*
X0391764Y0203445D01*
X0391631Y0203441D01*
X0391497Y0203441D01*
X0391364Y0203445D01*
X0391232Y0203453D01*
X0391099Y0203465D01*
X0390967Y0203481D01*
X0390835Y0203501D01*
X0390704Y0203525D01*
X0390574Y0203553D01*
X0390445Y0203584D01*
X0390316Y0203620D01*
X0390189Y0203659D01*
X0390063Y0203702D01*
X0389939Y0203749D01*
X0389815Y0203799D01*
X0389694Y0203853D01*
X0389574Y0203911D01*
X0389456Y0203972D01*
X0389339Y0204037D01*
X0389225Y0204105D01*
X0389113Y0204177D01*
X0389003Y0204252D01*
X0388895Y0204330D01*
X0388790Y0204412D01*
X0388687Y0204496D01*
X0388587Y0204584D01*
X0388489Y0204674D01*
X0388395Y0204768D01*
X0388303Y0204864D01*
X0388214Y0204963D01*
X0388128Y0205064D01*
X0388045Y0205168D01*
X0387965Y0205275D01*
X0387888Y0205384D01*
X0387815Y0205495D01*
X0387745Y0205608D01*
X0387678Y0205723D01*
X0387615Y0205841D01*
X0387556Y0205960D01*
X0387500Y0206080D01*
X0387447Y0206203D01*
X0387399Y0206327D01*
X0387354Y0206452D01*
X0387313Y0206579D01*
X0387275Y0206706D01*
X0387242Y0206835D01*
X0387212Y0206965D01*
X0387186Y0207096D01*
X0387165Y0207227D01*
X0387147Y0207359D01*
X0387133Y0207491D01*
X0387123Y0207624D01*
X0387117Y0207757D01*
X0387115Y0207890D01*
X0383099Y0110646D02*
X0383101Y0110797D01*
X0383107Y0110947D01*
X0383117Y0111098D01*
X0383131Y0111248D01*
X0383149Y0111397D01*
X0383170Y0111547D01*
X0383196Y0111695D01*
X0383226Y0111843D01*
X0383259Y0111990D01*
X0383297Y0112136D01*
X0383338Y0112281D01*
X0383383Y0112425D01*
X0383432Y0112567D01*
X0383485Y0112708D01*
X0383541Y0112848D01*
X0383601Y0112986D01*
X0383664Y0113123D01*
X0383732Y0113258D01*
X0383802Y0113391D01*
X0383876Y0113522D01*
X0383954Y0113651D01*
X0384035Y0113778D01*
X0384119Y0113903D01*
X0384207Y0114026D01*
X0384298Y0114146D01*
X0384392Y0114264D01*
X0384489Y0114379D01*
X0384589Y0114492D01*
X0384692Y0114602D01*
X0384798Y0114709D01*
X0384907Y0114814D01*
X0385018Y0114915D01*
X0385132Y0115014D01*
X0385248Y0115109D01*
X0385368Y0115202D01*
X0385489Y0115291D01*
X0385613Y0115377D01*
X0385739Y0115460D01*
X0385867Y0115539D01*
X0385997Y0115615D01*
X0386129Y0115688D01*
X0386263Y0115756D01*
X0386399Y0115822D01*
X0386537Y0115884D01*
X0386676Y0115942D01*
X0386816Y0115996D01*
X0386958Y0116047D01*
X0387101Y0116094D01*
X0387246Y0116137D01*
X0387391Y0116176D01*
X0387538Y0116212D01*
X0387685Y0116243D01*
X0387833Y0116271D01*
X0387982Y0116295D01*
X0388131Y0116315D01*
X0388281Y0116331D01*
X0388431Y0116343D01*
X0388582Y0116351D01*
X0388733Y0116355D01*
X0388883Y0116355D01*
X0389034Y0116351D01*
X0389185Y0116343D01*
X0389335Y0116331D01*
X0389485Y0116315D01*
X0389634Y0116295D01*
X0389783Y0116271D01*
X0389931Y0116243D01*
X0390078Y0116212D01*
X0390225Y0116176D01*
X0390370Y0116137D01*
X0390515Y0116094D01*
X0390658Y0116047D01*
X0390800Y0115996D01*
X0390940Y0115942D01*
X0391079Y0115884D01*
X0391217Y0115822D01*
X0391353Y0115756D01*
X0391487Y0115688D01*
X0391619Y0115615D01*
X0391749Y0115539D01*
X0391877Y0115460D01*
X0392003Y0115377D01*
X0392127Y0115291D01*
X0392248Y0115202D01*
X0392368Y0115109D01*
X0392484Y0115014D01*
X0392598Y0114915D01*
X0392709Y0114814D01*
X0392818Y0114709D01*
X0392924Y0114602D01*
X0393027Y0114492D01*
X0393127Y0114379D01*
X0393224Y0114264D01*
X0393318Y0114146D01*
X0393409Y0114026D01*
X0393497Y0113903D01*
X0393581Y0113778D01*
X0393662Y0113651D01*
X0393740Y0113522D01*
X0393814Y0113391D01*
X0393884Y0113258D01*
X0393952Y0113123D01*
X0394015Y0112986D01*
X0394075Y0112848D01*
X0394131Y0112708D01*
X0394184Y0112567D01*
X0394233Y0112425D01*
X0394278Y0112281D01*
X0394319Y0112136D01*
X0394357Y0111990D01*
X0394390Y0111843D01*
X0394420Y0111695D01*
X0394446Y0111547D01*
X0394467Y0111397D01*
X0394485Y0111248D01*
X0394499Y0111098D01*
X0394509Y0110947D01*
X0394515Y0110797D01*
X0394517Y0110646D01*
X0394515Y0110495D01*
X0394509Y0110345D01*
X0394499Y0110194D01*
X0394485Y0110044D01*
X0394467Y0109895D01*
X0394446Y0109745D01*
X0394420Y0109597D01*
X0394390Y0109449D01*
X0394357Y0109302D01*
X0394319Y0109156D01*
X0394278Y0109011D01*
X0394233Y0108867D01*
X0394184Y0108725D01*
X0394131Y0108584D01*
X0394075Y0108444D01*
X0394015Y0108306D01*
X0393952Y0108169D01*
X0393884Y0108034D01*
X0393814Y0107901D01*
X0393740Y0107770D01*
X0393662Y0107641D01*
X0393581Y0107514D01*
X0393497Y0107389D01*
X0393409Y0107266D01*
X0393318Y0107146D01*
X0393224Y0107028D01*
X0393127Y0106913D01*
X0393027Y0106800D01*
X0392924Y0106690D01*
X0392818Y0106583D01*
X0392709Y0106478D01*
X0392598Y0106377D01*
X0392484Y0106278D01*
X0392368Y0106183D01*
X0392248Y0106090D01*
X0392127Y0106001D01*
X0392003Y0105915D01*
X0391877Y0105832D01*
X0391749Y0105753D01*
X0391619Y0105677D01*
X0391487Y0105604D01*
X0391353Y0105536D01*
X0391217Y0105470D01*
X0391079Y0105408D01*
X0390940Y0105350D01*
X0390800Y0105296D01*
X0390658Y0105245D01*
X0390515Y0105198D01*
X0390370Y0105155D01*
X0390225Y0105116D01*
X0390078Y0105080D01*
X0389931Y0105049D01*
X0389783Y0105021D01*
X0389634Y0104997D01*
X0389485Y0104977D01*
X0389335Y0104961D01*
X0389185Y0104949D01*
X0389034Y0104941D01*
X0388883Y0104937D01*
X0388733Y0104937D01*
X0388582Y0104941D01*
X0388431Y0104949D01*
X0388281Y0104961D01*
X0388131Y0104977D01*
X0387982Y0104997D01*
X0387833Y0105021D01*
X0387685Y0105049D01*
X0387538Y0105080D01*
X0387391Y0105116D01*
X0387246Y0105155D01*
X0387101Y0105198D01*
X0386958Y0105245D01*
X0386816Y0105296D01*
X0386676Y0105350D01*
X0386537Y0105408D01*
X0386399Y0105470D01*
X0386263Y0105536D01*
X0386129Y0105604D01*
X0385997Y0105677D01*
X0385867Y0105753D01*
X0385739Y0105832D01*
X0385613Y0105915D01*
X0385489Y0106001D01*
X0385368Y0106090D01*
X0385248Y0106183D01*
X0385132Y0106278D01*
X0385018Y0106377D01*
X0384907Y0106478D01*
X0384798Y0106583D01*
X0384692Y0106690D01*
X0384589Y0106800D01*
X0384489Y0106913D01*
X0384392Y0107028D01*
X0384298Y0107146D01*
X0384207Y0107266D01*
X0384119Y0107389D01*
X0384035Y0107514D01*
X0383954Y0107641D01*
X0383876Y0107770D01*
X0383802Y0107901D01*
X0383732Y0108034D01*
X0383664Y0108169D01*
X0383601Y0108306D01*
X0383541Y0108444D01*
X0383485Y0108584D01*
X0383432Y0108725D01*
X0383383Y0108867D01*
X0383338Y0109011D01*
X0383297Y0109156D01*
X0383259Y0109302D01*
X0383226Y0109449D01*
X0383196Y0109597D01*
X0383170Y0109745D01*
X0383149Y0109895D01*
X0383131Y0110044D01*
X0383117Y0110194D01*
X0383107Y0110345D01*
X0383101Y0110495D01*
X0383099Y0110646D01*
X0300028Y0027575D02*
X0300030Y0027726D01*
X0300036Y0027876D01*
X0300046Y0028027D01*
X0300060Y0028177D01*
X0300078Y0028326D01*
X0300099Y0028476D01*
X0300125Y0028624D01*
X0300155Y0028772D01*
X0300188Y0028919D01*
X0300226Y0029065D01*
X0300267Y0029210D01*
X0300312Y0029354D01*
X0300361Y0029496D01*
X0300414Y0029637D01*
X0300470Y0029777D01*
X0300530Y0029915D01*
X0300593Y0030052D01*
X0300661Y0030187D01*
X0300731Y0030320D01*
X0300805Y0030451D01*
X0300883Y0030580D01*
X0300964Y0030707D01*
X0301048Y0030832D01*
X0301136Y0030955D01*
X0301227Y0031075D01*
X0301321Y0031193D01*
X0301418Y0031308D01*
X0301518Y0031421D01*
X0301621Y0031531D01*
X0301727Y0031638D01*
X0301836Y0031743D01*
X0301947Y0031844D01*
X0302061Y0031943D01*
X0302177Y0032038D01*
X0302297Y0032131D01*
X0302418Y0032220D01*
X0302542Y0032306D01*
X0302668Y0032389D01*
X0302796Y0032468D01*
X0302926Y0032544D01*
X0303058Y0032617D01*
X0303192Y0032685D01*
X0303328Y0032751D01*
X0303466Y0032813D01*
X0303605Y0032871D01*
X0303745Y0032925D01*
X0303887Y0032976D01*
X0304030Y0033023D01*
X0304175Y0033066D01*
X0304320Y0033105D01*
X0304467Y0033141D01*
X0304614Y0033172D01*
X0304762Y0033200D01*
X0304911Y0033224D01*
X0305060Y0033244D01*
X0305210Y0033260D01*
X0305360Y0033272D01*
X0305511Y0033280D01*
X0305662Y0033284D01*
X0305812Y0033284D01*
X0305963Y0033280D01*
X0306114Y0033272D01*
X0306264Y0033260D01*
X0306414Y0033244D01*
X0306563Y0033224D01*
X0306712Y0033200D01*
X0306860Y0033172D01*
X0307007Y0033141D01*
X0307154Y0033105D01*
X0307299Y0033066D01*
X0307444Y0033023D01*
X0307587Y0032976D01*
X0307729Y0032925D01*
X0307869Y0032871D01*
X0308008Y0032813D01*
X0308146Y0032751D01*
X0308282Y0032685D01*
X0308416Y0032617D01*
X0308548Y0032544D01*
X0308678Y0032468D01*
X0308806Y0032389D01*
X0308932Y0032306D01*
X0309056Y0032220D01*
X0309177Y0032131D01*
X0309297Y0032038D01*
X0309413Y0031943D01*
X0309527Y0031844D01*
X0309638Y0031743D01*
X0309747Y0031638D01*
X0309853Y0031531D01*
X0309956Y0031421D01*
X0310056Y0031308D01*
X0310153Y0031193D01*
X0310247Y0031075D01*
X0310338Y0030955D01*
X0310426Y0030832D01*
X0310510Y0030707D01*
X0310591Y0030580D01*
X0310669Y0030451D01*
X0310743Y0030320D01*
X0310813Y0030187D01*
X0310881Y0030052D01*
X0310944Y0029915D01*
X0311004Y0029777D01*
X0311060Y0029637D01*
X0311113Y0029496D01*
X0311162Y0029354D01*
X0311207Y0029210D01*
X0311248Y0029065D01*
X0311286Y0028919D01*
X0311319Y0028772D01*
X0311349Y0028624D01*
X0311375Y0028476D01*
X0311396Y0028326D01*
X0311414Y0028177D01*
X0311428Y0028027D01*
X0311438Y0027876D01*
X0311444Y0027726D01*
X0311446Y0027575D01*
X0311444Y0027424D01*
X0311438Y0027274D01*
X0311428Y0027123D01*
X0311414Y0026973D01*
X0311396Y0026824D01*
X0311375Y0026674D01*
X0311349Y0026526D01*
X0311319Y0026378D01*
X0311286Y0026231D01*
X0311248Y0026085D01*
X0311207Y0025940D01*
X0311162Y0025796D01*
X0311113Y0025654D01*
X0311060Y0025513D01*
X0311004Y0025373D01*
X0310944Y0025235D01*
X0310881Y0025098D01*
X0310813Y0024963D01*
X0310743Y0024830D01*
X0310669Y0024699D01*
X0310591Y0024570D01*
X0310510Y0024443D01*
X0310426Y0024318D01*
X0310338Y0024195D01*
X0310247Y0024075D01*
X0310153Y0023957D01*
X0310056Y0023842D01*
X0309956Y0023729D01*
X0309853Y0023619D01*
X0309747Y0023512D01*
X0309638Y0023407D01*
X0309527Y0023306D01*
X0309413Y0023207D01*
X0309297Y0023112D01*
X0309177Y0023019D01*
X0309056Y0022930D01*
X0308932Y0022844D01*
X0308806Y0022761D01*
X0308678Y0022682D01*
X0308548Y0022606D01*
X0308416Y0022533D01*
X0308282Y0022465D01*
X0308146Y0022399D01*
X0308008Y0022337D01*
X0307869Y0022279D01*
X0307729Y0022225D01*
X0307587Y0022174D01*
X0307444Y0022127D01*
X0307299Y0022084D01*
X0307154Y0022045D01*
X0307007Y0022009D01*
X0306860Y0021978D01*
X0306712Y0021950D01*
X0306563Y0021926D01*
X0306414Y0021906D01*
X0306264Y0021890D01*
X0306114Y0021878D01*
X0305963Y0021870D01*
X0305812Y0021866D01*
X0305662Y0021866D01*
X0305511Y0021870D01*
X0305360Y0021878D01*
X0305210Y0021890D01*
X0305060Y0021906D01*
X0304911Y0021926D01*
X0304762Y0021950D01*
X0304614Y0021978D01*
X0304467Y0022009D01*
X0304320Y0022045D01*
X0304175Y0022084D01*
X0304030Y0022127D01*
X0303887Y0022174D01*
X0303745Y0022225D01*
X0303605Y0022279D01*
X0303466Y0022337D01*
X0303328Y0022399D01*
X0303192Y0022465D01*
X0303058Y0022533D01*
X0302926Y0022606D01*
X0302796Y0022682D01*
X0302668Y0022761D01*
X0302542Y0022844D01*
X0302418Y0022930D01*
X0302297Y0023019D01*
X0302177Y0023112D01*
X0302061Y0023207D01*
X0301947Y0023306D01*
X0301836Y0023407D01*
X0301727Y0023512D01*
X0301621Y0023619D01*
X0301518Y0023729D01*
X0301418Y0023842D01*
X0301321Y0023957D01*
X0301227Y0024075D01*
X0301136Y0024195D01*
X0301048Y0024318D01*
X0300964Y0024443D01*
X0300883Y0024570D01*
X0300805Y0024699D01*
X0300731Y0024830D01*
X0300661Y0024963D01*
X0300593Y0025098D01*
X0300530Y0025235D01*
X0300470Y0025373D01*
X0300414Y0025513D01*
X0300361Y0025654D01*
X0300312Y0025796D01*
X0300267Y0025940D01*
X0300226Y0026085D01*
X0300188Y0026231D01*
X0300155Y0026378D01*
X0300125Y0026526D01*
X0300099Y0026674D01*
X0300078Y0026824D01*
X0300060Y0026973D01*
X0300046Y0027123D01*
X0300036Y0027274D01*
X0300030Y0027424D01*
X0300028Y0027575D01*
X0391367Y0020882D02*
X0391369Y0021010D01*
X0391375Y0021138D01*
X0391385Y0021265D01*
X0391399Y0021393D01*
X0391416Y0021519D01*
X0391438Y0021645D01*
X0391464Y0021771D01*
X0391493Y0021895D01*
X0391526Y0022019D01*
X0391563Y0022141D01*
X0391604Y0022262D01*
X0391649Y0022382D01*
X0391697Y0022501D01*
X0391749Y0022618D01*
X0391805Y0022733D01*
X0391864Y0022847D01*
X0391926Y0022958D01*
X0391992Y0023068D01*
X0392061Y0023175D01*
X0392134Y0023281D01*
X0392210Y0023384D01*
X0392289Y0023484D01*
X0392371Y0023583D01*
X0392456Y0023678D01*
X0392544Y0023771D01*
X0392635Y0023861D01*
X0392728Y0023948D01*
X0392825Y0024033D01*
X0392923Y0024114D01*
X0393025Y0024192D01*
X0393128Y0024267D01*
X0393234Y0024339D01*
X0393342Y0024408D01*
X0393452Y0024473D01*
X0393565Y0024534D01*
X0393679Y0024593D01*
X0393794Y0024647D01*
X0393912Y0024698D01*
X0394030Y0024746D01*
X0394151Y0024789D01*
X0394272Y0024829D01*
X0394395Y0024865D01*
X0394519Y0024898D01*
X0394644Y0024926D01*
X0394769Y0024951D01*
X0394895Y0024971D01*
X0395022Y0024988D01*
X0395150Y0025001D01*
X0395277Y0025010D01*
X0395405Y0025015D01*
X0395533Y0025016D01*
X0395661Y0025013D01*
X0395789Y0025006D01*
X0395916Y0024995D01*
X0396043Y0024980D01*
X0396170Y0024962D01*
X0396296Y0024939D01*
X0396421Y0024912D01*
X0396545Y0024882D01*
X0396668Y0024848D01*
X0396791Y0024810D01*
X0396912Y0024768D01*
X0397031Y0024722D01*
X0397149Y0024673D01*
X0397266Y0024620D01*
X0397381Y0024564D01*
X0397494Y0024504D01*
X0397605Y0024441D01*
X0397714Y0024374D01*
X0397821Y0024304D01*
X0397926Y0024230D01*
X0398028Y0024154D01*
X0398128Y0024074D01*
X0398226Y0023991D01*
X0398321Y0023905D01*
X0398413Y0023816D01*
X0398502Y0023725D01*
X0398589Y0023631D01*
X0398672Y0023534D01*
X0398753Y0023434D01*
X0398830Y0023333D01*
X0398905Y0023228D01*
X0398976Y0023122D01*
X0399043Y0023013D01*
X0399108Y0022903D01*
X0399168Y0022790D01*
X0399226Y0022676D01*
X0399279Y0022560D01*
X0399329Y0022442D01*
X0399376Y0022323D01*
X0399419Y0022202D01*
X0399458Y0022080D01*
X0399493Y0021957D01*
X0399524Y0021833D01*
X0399552Y0021708D01*
X0399575Y0021582D01*
X0399595Y0021456D01*
X0399611Y0021329D01*
X0399623Y0021202D01*
X0399631Y0021074D01*
X0399635Y0020946D01*
X0399635Y0020818D01*
X0399631Y0020690D01*
X0399623Y0020562D01*
X0399611Y0020435D01*
X0399595Y0020308D01*
X0399575Y0020182D01*
X0399552Y0020056D01*
X0399524Y0019931D01*
X0399493Y0019807D01*
X0399458Y0019684D01*
X0399419Y0019562D01*
X0399376Y0019441D01*
X0399329Y0019322D01*
X0399279Y0019204D01*
X0399226Y0019088D01*
X0399168Y0018974D01*
X0399108Y0018861D01*
X0399043Y0018751D01*
X0398976Y0018642D01*
X0398905Y0018536D01*
X0398830Y0018431D01*
X0398753Y0018330D01*
X0398672Y0018230D01*
X0398589Y0018133D01*
X0398502Y0018039D01*
X0398413Y0017948D01*
X0398321Y0017859D01*
X0398226Y0017773D01*
X0398128Y0017690D01*
X0398028Y0017610D01*
X0397926Y0017534D01*
X0397821Y0017460D01*
X0397714Y0017390D01*
X0397605Y0017323D01*
X0397494Y0017260D01*
X0397381Y0017200D01*
X0397266Y0017144D01*
X0397149Y0017091D01*
X0397031Y0017042D01*
X0396912Y0016996D01*
X0396791Y0016954D01*
X0396668Y0016916D01*
X0396545Y0016882D01*
X0396421Y0016852D01*
X0396296Y0016825D01*
X0396170Y0016802D01*
X0396043Y0016784D01*
X0395916Y0016769D01*
X0395789Y0016758D01*
X0395661Y0016751D01*
X0395533Y0016748D01*
X0395405Y0016749D01*
X0395277Y0016754D01*
X0395150Y0016763D01*
X0395022Y0016776D01*
X0394895Y0016793D01*
X0394769Y0016813D01*
X0394644Y0016838D01*
X0394519Y0016866D01*
X0394395Y0016899D01*
X0394272Y0016935D01*
X0394151Y0016975D01*
X0394030Y0017018D01*
X0393912Y0017066D01*
X0393794Y0017117D01*
X0393679Y0017171D01*
X0393565Y0017230D01*
X0393452Y0017291D01*
X0393342Y0017356D01*
X0393234Y0017425D01*
X0393128Y0017497D01*
X0393025Y0017572D01*
X0392923Y0017650D01*
X0392825Y0017731D01*
X0392728Y0017816D01*
X0392635Y0017903D01*
X0392544Y0017993D01*
X0392456Y0018086D01*
X0392371Y0018181D01*
X0392289Y0018280D01*
X0392210Y0018380D01*
X0392134Y0018483D01*
X0392061Y0018589D01*
X0391992Y0018696D01*
X0391926Y0018806D01*
X0391864Y0018917D01*
X0391805Y0019031D01*
X0391749Y0019146D01*
X0391697Y0019263D01*
X0391649Y0019382D01*
X0391604Y0019502D01*
X0391563Y0019623D01*
X0391526Y0019745D01*
X0391493Y0019869D01*
X0391464Y0019993D01*
X0391438Y0020119D01*
X0391416Y0020245D01*
X0391399Y0020371D01*
X0391385Y0020499D01*
X0391375Y0020626D01*
X0391369Y0020754D01*
X0391367Y0020882D01*
X0133099Y0027575D02*
X0133101Y0027726D01*
X0133107Y0027876D01*
X0133117Y0028027D01*
X0133131Y0028177D01*
X0133149Y0028326D01*
X0133170Y0028476D01*
X0133196Y0028624D01*
X0133226Y0028772D01*
X0133259Y0028919D01*
X0133297Y0029065D01*
X0133338Y0029210D01*
X0133383Y0029354D01*
X0133432Y0029496D01*
X0133485Y0029637D01*
X0133541Y0029777D01*
X0133601Y0029915D01*
X0133664Y0030052D01*
X0133732Y0030187D01*
X0133802Y0030320D01*
X0133876Y0030451D01*
X0133954Y0030580D01*
X0134035Y0030707D01*
X0134119Y0030832D01*
X0134207Y0030955D01*
X0134298Y0031075D01*
X0134392Y0031193D01*
X0134489Y0031308D01*
X0134589Y0031421D01*
X0134692Y0031531D01*
X0134798Y0031638D01*
X0134907Y0031743D01*
X0135018Y0031844D01*
X0135132Y0031943D01*
X0135248Y0032038D01*
X0135368Y0032131D01*
X0135489Y0032220D01*
X0135613Y0032306D01*
X0135739Y0032389D01*
X0135867Y0032468D01*
X0135997Y0032544D01*
X0136129Y0032617D01*
X0136263Y0032685D01*
X0136399Y0032751D01*
X0136537Y0032813D01*
X0136676Y0032871D01*
X0136816Y0032925D01*
X0136958Y0032976D01*
X0137101Y0033023D01*
X0137246Y0033066D01*
X0137391Y0033105D01*
X0137538Y0033141D01*
X0137685Y0033172D01*
X0137833Y0033200D01*
X0137982Y0033224D01*
X0138131Y0033244D01*
X0138281Y0033260D01*
X0138431Y0033272D01*
X0138582Y0033280D01*
X0138733Y0033284D01*
X0138883Y0033284D01*
X0139034Y0033280D01*
X0139185Y0033272D01*
X0139335Y0033260D01*
X0139485Y0033244D01*
X0139634Y0033224D01*
X0139783Y0033200D01*
X0139931Y0033172D01*
X0140078Y0033141D01*
X0140225Y0033105D01*
X0140370Y0033066D01*
X0140515Y0033023D01*
X0140658Y0032976D01*
X0140800Y0032925D01*
X0140940Y0032871D01*
X0141079Y0032813D01*
X0141217Y0032751D01*
X0141353Y0032685D01*
X0141487Y0032617D01*
X0141619Y0032544D01*
X0141749Y0032468D01*
X0141877Y0032389D01*
X0142003Y0032306D01*
X0142127Y0032220D01*
X0142248Y0032131D01*
X0142368Y0032038D01*
X0142484Y0031943D01*
X0142598Y0031844D01*
X0142709Y0031743D01*
X0142818Y0031638D01*
X0142924Y0031531D01*
X0143027Y0031421D01*
X0143127Y0031308D01*
X0143224Y0031193D01*
X0143318Y0031075D01*
X0143409Y0030955D01*
X0143497Y0030832D01*
X0143581Y0030707D01*
X0143662Y0030580D01*
X0143740Y0030451D01*
X0143814Y0030320D01*
X0143884Y0030187D01*
X0143952Y0030052D01*
X0144015Y0029915D01*
X0144075Y0029777D01*
X0144131Y0029637D01*
X0144184Y0029496D01*
X0144233Y0029354D01*
X0144278Y0029210D01*
X0144319Y0029065D01*
X0144357Y0028919D01*
X0144390Y0028772D01*
X0144420Y0028624D01*
X0144446Y0028476D01*
X0144467Y0028326D01*
X0144485Y0028177D01*
X0144499Y0028027D01*
X0144509Y0027876D01*
X0144515Y0027726D01*
X0144517Y0027575D01*
X0144515Y0027424D01*
X0144509Y0027274D01*
X0144499Y0027123D01*
X0144485Y0026973D01*
X0144467Y0026824D01*
X0144446Y0026674D01*
X0144420Y0026526D01*
X0144390Y0026378D01*
X0144357Y0026231D01*
X0144319Y0026085D01*
X0144278Y0025940D01*
X0144233Y0025796D01*
X0144184Y0025654D01*
X0144131Y0025513D01*
X0144075Y0025373D01*
X0144015Y0025235D01*
X0143952Y0025098D01*
X0143884Y0024963D01*
X0143814Y0024830D01*
X0143740Y0024699D01*
X0143662Y0024570D01*
X0143581Y0024443D01*
X0143497Y0024318D01*
X0143409Y0024195D01*
X0143318Y0024075D01*
X0143224Y0023957D01*
X0143127Y0023842D01*
X0143027Y0023729D01*
X0142924Y0023619D01*
X0142818Y0023512D01*
X0142709Y0023407D01*
X0142598Y0023306D01*
X0142484Y0023207D01*
X0142368Y0023112D01*
X0142248Y0023019D01*
X0142127Y0022930D01*
X0142003Y0022844D01*
X0141877Y0022761D01*
X0141749Y0022682D01*
X0141619Y0022606D01*
X0141487Y0022533D01*
X0141353Y0022465D01*
X0141217Y0022399D01*
X0141079Y0022337D01*
X0140940Y0022279D01*
X0140800Y0022225D01*
X0140658Y0022174D01*
X0140515Y0022127D01*
X0140370Y0022084D01*
X0140225Y0022045D01*
X0140078Y0022009D01*
X0139931Y0021978D01*
X0139783Y0021950D01*
X0139634Y0021926D01*
X0139485Y0021906D01*
X0139335Y0021890D01*
X0139185Y0021878D01*
X0139034Y0021870D01*
X0138883Y0021866D01*
X0138733Y0021866D01*
X0138582Y0021870D01*
X0138431Y0021878D01*
X0138281Y0021890D01*
X0138131Y0021906D01*
X0137982Y0021926D01*
X0137833Y0021950D01*
X0137685Y0021978D01*
X0137538Y0022009D01*
X0137391Y0022045D01*
X0137246Y0022084D01*
X0137101Y0022127D01*
X0136958Y0022174D01*
X0136816Y0022225D01*
X0136676Y0022279D01*
X0136537Y0022337D01*
X0136399Y0022399D01*
X0136263Y0022465D01*
X0136129Y0022533D01*
X0135997Y0022606D01*
X0135867Y0022682D01*
X0135739Y0022761D01*
X0135613Y0022844D01*
X0135489Y0022930D01*
X0135368Y0023019D01*
X0135248Y0023112D01*
X0135132Y0023207D01*
X0135018Y0023306D01*
X0134907Y0023407D01*
X0134798Y0023512D01*
X0134692Y0023619D01*
X0134589Y0023729D01*
X0134489Y0023842D01*
X0134392Y0023957D01*
X0134298Y0024075D01*
X0134207Y0024195D01*
X0134119Y0024318D01*
X0134035Y0024443D01*
X0133954Y0024570D01*
X0133876Y0024699D01*
X0133802Y0024830D01*
X0133732Y0024963D01*
X0133664Y0025098D01*
X0133601Y0025235D01*
X0133541Y0025373D01*
X0133485Y0025513D01*
X0133432Y0025654D01*
X0133383Y0025796D01*
X0133338Y0025940D01*
X0133297Y0026085D01*
X0133259Y0026231D01*
X0133226Y0026378D01*
X0133196Y0026526D01*
X0133170Y0026674D01*
X0133149Y0026824D01*
X0133131Y0026973D01*
X0133117Y0027123D01*
X0133107Y0027274D01*
X0133101Y0027424D01*
X0133099Y0027575D01*
D11*
X0177863Y0035055D03*
X0187863Y0035055D03*
X0197863Y0035055D03*
X0207863Y0035055D03*
X0217863Y0035055D03*
X0227863Y0035055D03*
X0237863Y0035055D03*
X0247863Y0035055D03*
X0089477Y0041315D03*
X0079477Y0041315D03*
X0079477Y0051315D03*
X0079477Y0061315D03*
X0089477Y0061315D03*
X0089477Y0051315D03*
X0089477Y0071315D03*
X0079477Y0071315D03*
D12*
X0088414Y0099622D03*
X0064792Y0132693D03*
X0013611Y0131118D03*
X0013611Y0138992D03*
X0013611Y0146866D03*
X0013611Y0154740D03*
X0013611Y0162614D03*
X0013611Y0170488D03*
X0013611Y0178362D03*
X0013611Y0186236D03*
X0013611Y0225606D03*
X0013611Y0233480D03*
X0013611Y0241354D03*
X0013611Y0249228D03*
X0013611Y0257102D03*
X0013611Y0264976D03*
X0013611Y0272850D03*
X0013611Y0280724D03*
X0013611Y0288598D03*
X0013611Y0327969D03*
X0013611Y0335843D03*
X0013611Y0343717D03*
X0013611Y0351591D03*
X0021485Y0371276D03*
X0021485Y0379150D03*
X0021485Y0387024D03*
X0029359Y0394898D03*
X0037233Y0394898D03*
X0045107Y0394898D03*
X0064792Y0402772D03*
X0072666Y0402772D03*
X0080540Y0402772D03*
X0088414Y0402772D03*
X0127784Y0402772D03*
X0135658Y0402772D03*
X0143532Y0402772D03*
X0151406Y0402772D03*
X0159280Y0402772D03*
X0167154Y0402772D03*
X0175028Y0402772D03*
X0182902Y0402772D03*
X0190776Y0402772D03*
X0198650Y0402772D03*
X0206524Y0402772D03*
X0214398Y0402772D03*
X0222272Y0402772D03*
X0230146Y0402772D03*
X0238020Y0402772D03*
X0245894Y0402772D03*
X0253769Y0402772D03*
X0261643Y0402772D03*
X0269517Y0402772D03*
X0277391Y0402772D03*
X0285265Y0402772D03*
X0324635Y0402772D03*
X0332509Y0402772D03*
X0340383Y0402772D03*
X0348257Y0402772D03*
X0356131Y0402772D03*
X0371879Y0394898D03*
X0379753Y0394898D03*
X0387627Y0394898D03*
X0395501Y0387024D03*
X0395501Y0379150D03*
X0395501Y0371276D03*
X0403375Y0343717D03*
X0403375Y0335843D03*
X0403375Y0327969D03*
X0403375Y0288598D03*
X0403375Y0280724D03*
X0403375Y0272850D03*
X0403375Y0264976D03*
X0403375Y0257102D03*
X0403375Y0249228D03*
X0403375Y0241354D03*
X0403375Y0233480D03*
X0403375Y0225606D03*
X0403375Y0186236D03*
X0403375Y0178362D03*
X0403375Y0170488D03*
X0403375Y0162614D03*
X0403375Y0154740D03*
X0403375Y0146866D03*
X0403375Y0138992D03*
X0403375Y0131118D03*
X0403375Y0091748D03*
X0403375Y0083874D03*
X0403375Y0076000D03*
X0403375Y0068126D03*
X0403375Y0060252D03*
X0395501Y0044504D03*
X0395501Y0036630D03*
X0395501Y0028756D03*
X0387627Y0020882D03*
X0379753Y0020882D03*
X0371879Y0020882D03*
X0356131Y0013008D03*
X0348257Y0013008D03*
X0340383Y0013008D03*
X0332509Y0013008D03*
X0324635Y0013008D03*
X0337627Y0028756D03*
X0351406Y0028756D03*
X0294474Y0040460D03*
X0290174Y0040460D03*
X0285674Y0040460D03*
X0285265Y0013008D03*
X0277391Y0013008D03*
X0269517Y0013008D03*
X0261643Y0013008D03*
X0253769Y0013008D03*
X0245894Y0013008D03*
X0238020Y0013008D03*
X0230146Y0013008D03*
X0222272Y0013008D03*
X0214398Y0013008D03*
X0206524Y0013008D03*
X0198650Y0013008D03*
X0190776Y0013008D03*
X0182902Y0013008D03*
X0175028Y0013008D03*
X0167154Y0013008D03*
X0159280Y0013008D03*
X0151406Y0013008D03*
X0143532Y0013008D03*
X0135658Y0013008D03*
X0127784Y0013008D03*
X0158099Y0049228D03*
X0172666Y0044110D03*
X0180540Y0057496D03*
X0190776Y0060646D03*
X0199044Y0060646D03*
X0208887Y0062220D03*
X0207312Y0079543D03*
X0214005Y0080724D03*
X0226997Y0064976D03*
X0230146Y0049228D03*
X0243532Y0069701D03*
X0265580Y0068126D03*
X0226209Y0099622D03*
X0221091Y0103953D03*
X0217154Y0103953D03*
X0195501Y0102378D03*
X0193926Y0114583D03*
X0225422Y0127181D03*
X0225028Y0137024D03*
X0185265Y0078756D03*
X0153769Y0078756D03*
X0140776Y0069701D03*
X0140383Y0061039D03*
X0126209Y0053559D03*
X0088414Y0013008D03*
X0080540Y0013008D03*
X0072666Y0013008D03*
X0064792Y0013008D03*
X0045107Y0020882D03*
X0037233Y0020882D03*
X0029359Y0020882D03*
X0021485Y0028756D03*
X0021485Y0036630D03*
X0021485Y0044504D03*
X0013611Y0060252D03*
X0013611Y0068126D03*
X0013611Y0076000D03*
X0013611Y0083874D03*
X0013611Y0091748D03*
X0130934Y0124425D03*
X0143532Y0124031D03*
X0171091Y0028756D03*
X0190776Y0025606D03*
X0328572Y0205921D03*
X0310068Y0290961D03*
X0305343Y0290961D03*
X0300225Y0290961D03*
X0295107Y0290961D03*
X0285265Y0304346D03*
X0304950Y0308283D03*
X0305514Y0326394D03*
X0297640Y0326394D03*
D13*
X0296640Y0327533D02*
X0379753Y0327533D01*
X0379753Y0327969D02*
X0379753Y0217732D01*
X0289202Y0221669D01*
X0289202Y0320094D01*
X0297076Y0327969D01*
X0379753Y0327969D01*
X0379753Y0326335D02*
X0295442Y0326335D01*
X0294243Y0325136D02*
X0379753Y0325136D01*
X0379753Y0323938D02*
X0293045Y0323938D01*
X0291846Y0322739D02*
X0379753Y0322739D01*
X0379753Y0321541D02*
X0290648Y0321541D01*
X0289449Y0320342D02*
X0379753Y0320342D01*
X0379753Y0319144D02*
X0289202Y0319144D01*
X0289202Y0317945D02*
X0379753Y0317945D01*
X0379753Y0316747D02*
X0289202Y0316747D01*
X0289202Y0315548D02*
X0379753Y0315548D01*
X0379753Y0314350D02*
X0289202Y0314350D01*
X0289202Y0313151D02*
X0379753Y0313151D01*
X0379753Y0311953D02*
X0289202Y0311953D01*
X0289202Y0310754D02*
X0302356Y0310754D01*
X0301914Y0310312D02*
X0301369Y0308996D01*
X0301369Y0307571D01*
X0301914Y0306255D01*
X0302921Y0305248D01*
X0304237Y0304702D01*
X0305662Y0304702D01*
X0306978Y0305248D01*
X0307986Y0306255D01*
X0308531Y0307571D01*
X0308531Y0308996D01*
X0307986Y0310312D01*
X0306978Y0311319D01*
X0305662Y0311865D01*
X0304237Y0311865D01*
X0302921Y0311319D01*
X0301914Y0310312D01*
X0301600Y0309556D02*
X0289202Y0309556D01*
X0289202Y0308357D02*
X0301369Y0308357D01*
X0301539Y0307159D02*
X0289202Y0307159D01*
X0289202Y0305960D02*
X0302208Y0305960D01*
X0304094Y0304762D02*
X0289202Y0304762D01*
X0289202Y0303563D02*
X0379753Y0303563D01*
X0379753Y0302365D02*
X0289202Y0302365D01*
X0289202Y0301166D02*
X0379753Y0301166D01*
X0379200Y0301166D02*
X0367800Y0301166D01*
X0367800Y0301534D02*
X0370200Y0303934D01*
X0377400Y0303934D01*
X0379200Y0301534D01*
X0379200Y0223534D01*
X0377400Y0197134D01*
X0375000Y0194734D01*
X0354600Y0194734D01*
X0352200Y0197134D01*
X0352200Y0266734D01*
X0367800Y0282334D01*
X0367800Y0301534D01*
X0368631Y0302365D02*
X0378577Y0302365D01*
X0377678Y0303563D02*
X0369829Y0303563D01*
X0367800Y0299968D02*
X0379200Y0299968D01*
X0379753Y0299968D02*
X0289202Y0299968D01*
X0289202Y0298769D02*
X0379753Y0298769D01*
X0379200Y0298769D02*
X0367800Y0298769D01*
X0367800Y0297571D02*
X0379200Y0297571D01*
X0379753Y0297571D02*
X0289202Y0297571D01*
X0289202Y0296372D02*
X0379753Y0296372D01*
X0379200Y0296372D02*
X0367800Y0296372D01*
X0367800Y0295174D02*
X0379200Y0295174D01*
X0379753Y0295174D02*
X0289202Y0295174D01*
X0289202Y0293975D02*
X0379753Y0293975D01*
X0379200Y0293975D02*
X0367800Y0293975D01*
X0367800Y0292777D02*
X0379200Y0292777D01*
X0379753Y0292777D02*
X0289202Y0292777D01*
X0289202Y0291578D02*
X0379753Y0291578D01*
X0379200Y0291578D02*
X0367800Y0291578D01*
X0367800Y0290380D02*
X0379200Y0290380D01*
X0379753Y0290380D02*
X0289202Y0290380D01*
X0289202Y0289181D02*
X0379753Y0289181D01*
X0379200Y0289181D02*
X0367800Y0289181D01*
X0367800Y0287983D02*
X0379200Y0287983D01*
X0379753Y0287983D02*
X0289202Y0287983D01*
X0289202Y0286784D02*
X0379753Y0286784D01*
X0379200Y0286784D02*
X0367800Y0286784D01*
X0367800Y0285586D02*
X0379200Y0285586D01*
X0379753Y0285586D02*
X0289202Y0285586D01*
X0289202Y0284387D02*
X0379753Y0284387D01*
X0379200Y0284387D02*
X0367800Y0284387D01*
X0367800Y0283188D02*
X0379200Y0283188D01*
X0379753Y0283188D02*
X0289202Y0283188D01*
X0289202Y0281990D02*
X0379753Y0281990D01*
X0379200Y0281990D02*
X0367456Y0281990D01*
X0366258Y0280791D02*
X0379200Y0280791D01*
X0379753Y0280791D02*
X0289202Y0280791D01*
X0289202Y0279593D02*
X0379753Y0279593D01*
X0379200Y0279593D02*
X0365059Y0279593D01*
X0363861Y0278394D02*
X0379200Y0278394D01*
X0379753Y0278394D02*
X0289202Y0278394D01*
X0289202Y0277196D02*
X0379753Y0277196D01*
X0379200Y0277196D02*
X0362662Y0277196D01*
X0361464Y0275997D02*
X0379200Y0275997D01*
X0379753Y0275997D02*
X0289202Y0275997D01*
X0289202Y0274799D02*
X0379753Y0274799D01*
X0379200Y0274799D02*
X0360265Y0274799D01*
X0359067Y0273600D02*
X0379200Y0273600D01*
X0379753Y0273600D02*
X0289202Y0273600D01*
X0289202Y0272402D02*
X0379753Y0272402D01*
X0379200Y0272402D02*
X0357868Y0272402D01*
X0356670Y0271203D02*
X0379200Y0271203D01*
X0379753Y0271203D02*
X0289202Y0271203D01*
X0289202Y0270005D02*
X0379753Y0270005D01*
X0379200Y0270005D02*
X0355471Y0270005D01*
X0354272Y0268806D02*
X0379200Y0268806D01*
X0379753Y0268806D02*
X0289202Y0268806D01*
X0289202Y0267608D02*
X0379753Y0267608D01*
X0379200Y0267608D02*
X0353074Y0267608D01*
X0352200Y0266409D02*
X0379200Y0266409D01*
X0379753Y0266409D02*
X0289202Y0266409D01*
X0289202Y0265211D02*
X0379753Y0265211D01*
X0379200Y0265211D02*
X0352200Y0265211D01*
X0352200Y0264012D02*
X0379200Y0264012D01*
X0379753Y0264012D02*
X0289202Y0264012D01*
X0289202Y0262814D02*
X0379753Y0262814D01*
X0379200Y0262814D02*
X0352200Y0262814D01*
X0352200Y0261615D02*
X0379200Y0261615D01*
X0379753Y0261615D02*
X0289202Y0261615D01*
X0289202Y0260417D02*
X0379753Y0260417D01*
X0379200Y0260417D02*
X0352200Y0260417D01*
X0352200Y0259218D02*
X0379200Y0259218D01*
X0379753Y0259218D02*
X0289202Y0259218D01*
X0289202Y0258020D02*
X0379753Y0258020D01*
X0379200Y0258020D02*
X0352200Y0258020D01*
X0352200Y0256821D02*
X0379200Y0256821D01*
X0379753Y0256821D02*
X0289202Y0256821D01*
X0289202Y0255623D02*
X0379753Y0255623D01*
X0379200Y0255623D02*
X0352200Y0255623D01*
X0352200Y0254424D02*
X0379200Y0254424D01*
X0379753Y0254424D02*
X0289202Y0254424D01*
X0289202Y0253226D02*
X0379753Y0253226D01*
X0379200Y0253226D02*
X0352200Y0253226D01*
X0352200Y0252027D02*
X0379200Y0252027D01*
X0379753Y0252027D02*
X0289202Y0252027D01*
X0289202Y0250829D02*
X0379753Y0250829D01*
X0379200Y0250829D02*
X0352200Y0250829D01*
X0352200Y0249630D02*
X0379200Y0249630D01*
X0379753Y0249630D02*
X0289202Y0249630D01*
X0289202Y0248432D02*
X0379753Y0248432D01*
X0379200Y0248432D02*
X0352200Y0248432D01*
X0352200Y0247233D02*
X0379200Y0247233D01*
X0379753Y0247233D02*
X0289202Y0247233D01*
X0289202Y0246035D02*
X0379753Y0246035D01*
X0379200Y0246035D02*
X0352200Y0246035D01*
X0352200Y0244836D02*
X0379200Y0244836D01*
X0379753Y0244836D02*
X0289202Y0244836D01*
X0289202Y0243638D02*
X0379753Y0243638D01*
X0379200Y0243638D02*
X0352200Y0243638D01*
X0352200Y0242439D02*
X0379200Y0242439D01*
X0379753Y0242439D02*
X0289202Y0242439D01*
X0289202Y0241241D02*
X0379753Y0241241D01*
X0379200Y0241241D02*
X0352200Y0241241D01*
X0352200Y0240042D02*
X0379200Y0240042D01*
X0379753Y0240042D02*
X0289202Y0240042D01*
X0289202Y0238844D02*
X0379753Y0238844D01*
X0379200Y0238844D02*
X0352200Y0238844D01*
X0352200Y0237645D02*
X0379200Y0237645D01*
X0379753Y0237645D02*
X0289202Y0237645D01*
X0289202Y0236447D02*
X0379753Y0236447D01*
X0379200Y0236447D02*
X0352200Y0236447D01*
X0352200Y0235248D02*
X0379200Y0235248D01*
X0379753Y0235248D02*
X0289202Y0235248D01*
X0289202Y0234050D02*
X0379753Y0234050D01*
X0379200Y0234050D02*
X0352200Y0234050D01*
X0352200Y0232851D02*
X0379200Y0232851D01*
X0379753Y0232851D02*
X0289202Y0232851D01*
X0289202Y0231652D02*
X0379753Y0231652D01*
X0379200Y0231652D02*
X0352200Y0231652D01*
X0352200Y0230454D02*
X0379200Y0230454D01*
X0379753Y0230454D02*
X0289202Y0230454D01*
X0289202Y0229255D02*
X0379753Y0229255D01*
X0379200Y0229255D02*
X0352200Y0229255D01*
X0352200Y0228057D02*
X0379200Y0228057D01*
X0379753Y0228057D02*
X0289202Y0228057D01*
X0289202Y0226858D02*
X0379753Y0226858D01*
X0379200Y0226858D02*
X0352200Y0226858D01*
X0352200Y0225660D02*
X0379200Y0225660D01*
X0379753Y0225660D02*
X0289202Y0225660D01*
X0289202Y0224461D02*
X0379753Y0224461D01*
X0379300Y0224461D02*
X0290733Y0224461D01*
X0290893Y0224627D02*
X0379300Y0224627D01*
X0379300Y0221134D01*
X0257400Y0098734D01*
X0229718Y0098734D01*
X0229791Y0098910D01*
X0229791Y0100334D01*
X0229245Y0101651D01*
X0228238Y0102658D01*
X0226922Y0103203D01*
X0225497Y0103203D01*
X0224181Y0102658D01*
X0223174Y0101651D01*
X0222628Y0100334D01*
X0222628Y0098910D01*
X0222701Y0098734D01*
X0168937Y0098734D01*
X0290893Y0224627D01*
X0289572Y0223263D02*
X0379300Y0223263D01*
X0379182Y0223263D02*
X0352200Y0223263D01*
X0352200Y0224461D02*
X0379200Y0224461D01*
X0379753Y0223263D02*
X0289202Y0223263D01*
X0289202Y0222064D02*
X0379753Y0222064D01*
X0379300Y0222064D02*
X0288411Y0222064D01*
X0287250Y0220866D02*
X0379033Y0220866D01*
X0379018Y0220866D02*
X0352200Y0220866D01*
X0352200Y0222064D02*
X0379100Y0222064D01*
X0379274Y0221323D02*
X0379274Y0109723D01*
X0374474Y0106123D01*
X0318074Y0106123D01*
X0296474Y0085723D01*
X0296474Y0043160D01*
X0290474Y0043160D01*
X0290474Y0060523D01*
X0278474Y0072523D01*
X0278474Y0124123D01*
X0278574Y0143323D01*
X0356474Y0221323D01*
X0379274Y0221323D01*
X0379274Y0220866D02*
X0356018Y0220866D01*
X0354821Y0219667D02*
X0379274Y0219667D01*
X0378936Y0219667D02*
X0352200Y0219667D01*
X0352200Y0218469D02*
X0378855Y0218469D01*
X0379274Y0218469D02*
X0353624Y0218469D01*
X0352427Y0217270D02*
X0379274Y0217270D01*
X0378773Y0217270D02*
X0352200Y0217270D01*
X0352200Y0216072D02*
X0378691Y0216072D01*
X0379274Y0216072D02*
X0351230Y0216072D01*
X0352200Y0214873D02*
X0378610Y0214873D01*
X0379274Y0214873D02*
X0350033Y0214873D01*
X0348836Y0213675D02*
X0379274Y0213675D01*
X0378528Y0213675D02*
X0352200Y0213675D01*
X0352200Y0212476D02*
X0378446Y0212476D01*
X0379274Y0212476D02*
X0347639Y0212476D01*
X0346442Y0211278D02*
X0379274Y0211278D01*
X0378364Y0211278D02*
X0352200Y0211278D01*
X0352200Y0210079D02*
X0378283Y0210079D01*
X0379274Y0210079D02*
X0345245Y0210079D01*
X0344048Y0208881D02*
X0379274Y0208881D01*
X0378201Y0208881D02*
X0352200Y0208881D01*
X0352200Y0207682D02*
X0378119Y0207682D01*
X0379274Y0207682D02*
X0342851Y0207682D01*
X0341654Y0206484D02*
X0379274Y0206484D01*
X0379274Y0205285D02*
X0340457Y0205285D01*
X0339260Y0204087D02*
X0379274Y0204087D01*
X0379274Y0202888D02*
X0338063Y0202888D01*
X0336866Y0201690D02*
X0379274Y0201690D01*
X0379274Y0200491D02*
X0335669Y0200491D01*
X0334472Y0199293D02*
X0379274Y0199293D01*
X0379274Y0198094D02*
X0333275Y0198094D01*
X0332078Y0196896D02*
X0379274Y0196896D01*
X0379274Y0195697D02*
X0330881Y0195697D01*
X0329684Y0194499D02*
X0379274Y0194499D01*
X0379274Y0193300D02*
X0328487Y0193300D01*
X0327290Y0192102D02*
X0379274Y0192102D01*
X0379274Y0190903D02*
X0326093Y0190903D01*
X0324896Y0189705D02*
X0379274Y0189705D01*
X0379274Y0188506D02*
X0323699Y0188506D01*
X0322502Y0187308D02*
X0379274Y0187308D01*
X0379274Y0186109D02*
X0321305Y0186109D01*
X0320108Y0184911D02*
X0379274Y0184911D01*
X0379274Y0183712D02*
X0318911Y0183712D01*
X0317714Y0182514D02*
X0379274Y0182514D01*
X0379274Y0181315D02*
X0316517Y0181315D01*
X0315321Y0180117D02*
X0379274Y0180117D01*
X0379274Y0178918D02*
X0314124Y0178918D01*
X0312927Y0177719D02*
X0379274Y0177719D01*
X0379274Y0176521D02*
X0311730Y0176521D01*
X0310533Y0175322D02*
X0379274Y0175322D01*
X0379274Y0174124D02*
X0309336Y0174124D01*
X0308139Y0172925D02*
X0379274Y0172925D01*
X0379274Y0171727D02*
X0306942Y0171727D01*
X0305745Y0170528D02*
X0379274Y0170528D01*
X0379274Y0169330D02*
X0304548Y0169330D01*
X0303351Y0168131D02*
X0379274Y0168131D01*
X0379274Y0166933D02*
X0302154Y0166933D01*
X0300957Y0165734D02*
X0379274Y0165734D01*
X0379274Y0164536D02*
X0299760Y0164536D01*
X0298563Y0163337D02*
X0379274Y0163337D01*
X0379274Y0162139D02*
X0297366Y0162139D01*
X0296169Y0160940D02*
X0379274Y0160940D01*
X0379274Y0159742D02*
X0294972Y0159742D01*
X0293775Y0158543D02*
X0379274Y0158543D01*
X0379274Y0157345D02*
X0292578Y0157345D01*
X0291381Y0156146D02*
X0379274Y0156146D01*
X0379274Y0154948D02*
X0290184Y0154948D01*
X0288987Y0153749D02*
X0379274Y0153749D01*
X0379274Y0152551D02*
X0287790Y0152551D01*
X0286593Y0151352D02*
X0379274Y0151352D01*
X0379274Y0150154D02*
X0285396Y0150154D01*
X0284199Y0148955D02*
X0379274Y0148955D01*
X0379274Y0147757D02*
X0283002Y0147757D01*
X0281805Y0146558D02*
X0379274Y0146558D01*
X0379274Y0145360D02*
X0280608Y0145360D01*
X0279411Y0144161D02*
X0379274Y0144161D01*
X0379274Y0142963D02*
X0278572Y0142963D01*
X0278566Y0141764D02*
X0379274Y0141764D01*
X0379274Y0140566D02*
X0278560Y0140566D01*
X0278553Y0139367D02*
X0379274Y0139367D01*
X0379274Y0138169D02*
X0278547Y0138169D01*
X0278541Y0136970D02*
X0379274Y0136970D01*
X0379274Y0135772D02*
X0278535Y0135772D01*
X0278528Y0134573D02*
X0379274Y0134573D01*
X0379274Y0133375D02*
X0278522Y0133375D01*
X0278516Y0132176D02*
X0379274Y0132176D01*
X0379274Y0130978D02*
X0278510Y0130978D01*
X0278503Y0129779D02*
X0379274Y0129779D01*
X0379274Y0128581D02*
X0278497Y0128581D01*
X0278491Y0127382D02*
X0379274Y0127382D01*
X0379274Y0126184D02*
X0278485Y0126184D01*
X0278478Y0124985D02*
X0379274Y0124985D01*
X0379274Y0123786D02*
X0278474Y0123786D01*
X0278474Y0122588D02*
X0379274Y0122588D01*
X0379274Y0121389D02*
X0278474Y0121389D01*
X0278474Y0120191D02*
X0379274Y0120191D01*
X0379274Y0118992D02*
X0278474Y0118992D01*
X0277576Y0118992D02*
X0188562Y0118992D01*
X0187401Y0117794D02*
X0276382Y0117794D01*
X0275189Y0116595D02*
X0186240Y0116595D01*
X0185079Y0115397D02*
X0273995Y0115397D01*
X0272801Y0114198D02*
X0183918Y0114198D01*
X0182757Y0113000D02*
X0271608Y0113000D01*
X0270414Y0111801D02*
X0181596Y0111801D01*
X0180435Y0110603D02*
X0205181Y0110603D01*
X0204607Y0110365D02*
X0203655Y0109413D01*
X0203140Y0108169D01*
X0203140Y0106823D01*
X0203655Y0105579D01*
X0204607Y0104627D01*
X0205851Y0104112D01*
X0207198Y0104112D01*
X0208441Y0104627D01*
X0209393Y0105579D01*
X0209909Y0106823D01*
X0209909Y0108169D01*
X0209393Y0109413D01*
X0208441Y0110365D01*
X0207198Y0110880D01*
X0205851Y0110880D01*
X0204607Y0110365D01*
X0203652Y0109404D02*
X0179274Y0109404D01*
X0178113Y0108206D02*
X0203155Y0108206D01*
X0203140Y0107007D02*
X0176952Y0107007D01*
X0175791Y0105809D02*
X0194426Y0105809D01*
X0194788Y0105959D02*
X0193472Y0105414D01*
X0192465Y0104406D01*
X0191920Y0103090D01*
X0191920Y0101666D01*
X0192465Y0100349D01*
X0193472Y0099342D01*
X0194788Y0098797D01*
X0196213Y0098797D01*
X0197529Y0099342D01*
X0198537Y0100349D01*
X0199082Y0101666D01*
X0199082Y0103090D01*
X0198537Y0104406D01*
X0197529Y0105414D01*
X0196213Y0105959D01*
X0194788Y0105959D01*
X0196576Y0105809D02*
X0203560Y0105809D01*
X0204648Y0104610D02*
X0198333Y0104610D01*
X0198949Y0103412D02*
X0262059Y0103412D01*
X0263252Y0104610D02*
X0208401Y0104610D01*
X0209489Y0105809D02*
X0264446Y0105809D01*
X0265640Y0107007D02*
X0209909Y0107007D01*
X0209893Y0108206D02*
X0266833Y0108206D01*
X0268027Y0109404D02*
X0209397Y0109404D01*
X0207867Y0110603D02*
X0269221Y0110603D01*
X0278474Y0110603D02*
X0379274Y0110603D01*
X0379274Y0111801D02*
X0278474Y0111801D01*
X0278474Y0113000D02*
X0379274Y0113000D01*
X0379274Y0114198D02*
X0278474Y0114198D01*
X0278474Y0115397D02*
X0379274Y0115397D01*
X0379274Y0116595D02*
X0278474Y0116595D01*
X0278474Y0117794D02*
X0379274Y0117794D01*
X0378849Y0109404D02*
X0278474Y0109404D01*
X0278474Y0108206D02*
X0377251Y0108206D01*
X0375653Y0107007D02*
X0278474Y0107007D01*
X0278474Y0105809D02*
X0317742Y0105809D01*
X0316473Y0104610D02*
X0278474Y0104610D01*
X0278474Y0103412D02*
X0315203Y0103412D01*
X0313934Y0102213D02*
X0278474Y0102213D01*
X0278474Y0101015D02*
X0312665Y0101015D01*
X0311396Y0099816D02*
X0278474Y0099816D01*
X0278474Y0098618D02*
X0310127Y0098618D01*
X0308858Y0097419D02*
X0278474Y0097419D01*
X0278474Y0096221D02*
X0307589Y0096221D01*
X0306320Y0095022D02*
X0278474Y0095022D01*
X0278474Y0093824D02*
X0305051Y0093824D01*
X0303782Y0092625D02*
X0278474Y0092625D01*
X0278474Y0091427D02*
X0302513Y0091427D01*
X0301244Y0090228D02*
X0278474Y0090228D01*
X0278474Y0089030D02*
X0299975Y0089030D01*
X0298706Y0087831D02*
X0278474Y0087831D01*
X0278474Y0086633D02*
X0297437Y0086633D01*
X0296474Y0085434D02*
X0278474Y0085434D01*
X0278474Y0084236D02*
X0296474Y0084236D01*
X0296474Y0083037D02*
X0278474Y0083037D01*
X0278474Y0081839D02*
X0296474Y0081839D01*
X0296474Y0080640D02*
X0278474Y0080640D01*
X0278474Y0079442D02*
X0296474Y0079442D01*
X0296474Y0078243D02*
X0278474Y0078243D01*
X0278474Y0077045D02*
X0296474Y0077045D01*
X0296474Y0075846D02*
X0278474Y0075846D01*
X0278474Y0074648D02*
X0296474Y0074648D01*
X0296474Y0073449D02*
X0278474Y0073449D01*
X0278746Y0072250D02*
X0296474Y0072250D01*
X0296474Y0071052D02*
X0279945Y0071052D01*
X0281143Y0069853D02*
X0296474Y0069853D01*
X0296474Y0068655D02*
X0282342Y0068655D01*
X0283540Y0067456D02*
X0296474Y0067456D01*
X0296474Y0066258D02*
X0284739Y0066258D01*
X0285937Y0065059D02*
X0296474Y0065059D01*
X0296474Y0063861D02*
X0287136Y0063861D01*
X0288334Y0062662D02*
X0296474Y0062662D01*
X0296474Y0061464D02*
X0289533Y0061464D01*
X0290474Y0060265D02*
X0296474Y0060265D01*
X0296474Y0059067D02*
X0290474Y0059067D01*
X0290474Y0057868D02*
X0296474Y0057868D01*
X0296474Y0056670D02*
X0290474Y0056670D01*
X0290474Y0055471D02*
X0296474Y0055471D01*
X0296474Y0054273D02*
X0290474Y0054273D01*
X0290474Y0053074D02*
X0296474Y0053074D01*
X0296474Y0051876D02*
X0290474Y0051876D01*
X0290474Y0050677D02*
X0296474Y0050677D01*
X0296474Y0049479D02*
X0290474Y0049479D01*
X0290474Y0048280D02*
X0296474Y0048280D01*
X0296474Y0047082D02*
X0290474Y0047082D01*
X0290474Y0045883D02*
X0296474Y0045883D01*
X0296474Y0044685D02*
X0290474Y0044685D01*
X0290474Y0043486D02*
X0296474Y0043486D01*
X0269517Y0068126D02*
X0265580Y0068126D01*
X0258478Y0099816D02*
X0229791Y0099816D01*
X0229509Y0101015D02*
X0259672Y0101015D01*
X0260865Y0102213D02*
X0228683Y0102213D01*
X0223736Y0102213D02*
X0199082Y0102213D01*
X0198812Y0101015D02*
X0222910Y0101015D01*
X0222628Y0099816D02*
X0198004Y0099816D01*
X0192998Y0099816D02*
X0169986Y0099816D01*
X0171147Y0101015D02*
X0192189Y0101015D01*
X0191920Y0102213D02*
X0172308Y0102213D01*
X0173469Y0103412D02*
X0192053Y0103412D01*
X0192669Y0104610D02*
X0174630Y0104610D01*
X0189723Y0120191D02*
X0278769Y0120191D01*
X0279963Y0121389D02*
X0190884Y0121389D01*
X0192045Y0122588D02*
X0281157Y0122588D01*
X0282350Y0123786D02*
X0193206Y0123786D01*
X0194367Y0124985D02*
X0283544Y0124985D01*
X0284738Y0126184D02*
X0195528Y0126184D01*
X0196689Y0127382D02*
X0285931Y0127382D01*
X0287125Y0128581D02*
X0197850Y0128581D01*
X0199011Y0129779D02*
X0288318Y0129779D01*
X0289512Y0130978D02*
X0200172Y0130978D01*
X0201333Y0132176D02*
X0290706Y0132176D01*
X0291899Y0133375D02*
X0202494Y0133375D01*
X0203655Y0134573D02*
X0293093Y0134573D01*
X0294286Y0135772D02*
X0204816Y0135772D01*
X0205977Y0136970D02*
X0295480Y0136970D01*
X0296674Y0138169D02*
X0207139Y0138169D01*
X0208300Y0139367D02*
X0297867Y0139367D01*
X0299061Y0140566D02*
X0209461Y0140566D01*
X0210622Y0141764D02*
X0300255Y0141764D01*
X0301448Y0142963D02*
X0211783Y0142963D01*
X0212944Y0144161D02*
X0302642Y0144161D01*
X0303835Y0145360D02*
X0214105Y0145360D01*
X0215266Y0146558D02*
X0305029Y0146558D01*
X0306223Y0147757D02*
X0216427Y0147757D01*
X0217588Y0148955D02*
X0307416Y0148955D01*
X0308610Y0150154D02*
X0218749Y0150154D01*
X0219910Y0151352D02*
X0309803Y0151352D01*
X0310997Y0152551D02*
X0221071Y0152551D01*
X0222232Y0153749D02*
X0312191Y0153749D01*
X0313384Y0154948D02*
X0223393Y0154948D01*
X0224554Y0156146D02*
X0314578Y0156146D01*
X0315772Y0157345D02*
X0225715Y0157345D01*
X0226876Y0158543D02*
X0316965Y0158543D01*
X0318159Y0159742D02*
X0228037Y0159742D01*
X0229198Y0160940D02*
X0319352Y0160940D01*
X0320546Y0162139D02*
X0230359Y0162139D01*
X0231520Y0163337D02*
X0321740Y0163337D01*
X0322933Y0164536D02*
X0232681Y0164536D01*
X0233842Y0165734D02*
X0324127Y0165734D01*
X0325320Y0166933D02*
X0235003Y0166933D01*
X0236164Y0168131D02*
X0326514Y0168131D01*
X0327708Y0169330D02*
X0237325Y0169330D01*
X0238486Y0170528D02*
X0328901Y0170528D01*
X0330095Y0171727D02*
X0239647Y0171727D01*
X0240808Y0172925D02*
X0331289Y0172925D01*
X0332482Y0174124D02*
X0241969Y0174124D01*
X0243130Y0175322D02*
X0333676Y0175322D01*
X0334869Y0176521D02*
X0244292Y0176521D01*
X0245453Y0177719D02*
X0336063Y0177719D01*
X0337257Y0178918D02*
X0246614Y0178918D01*
X0247775Y0180117D02*
X0338450Y0180117D01*
X0339644Y0181315D02*
X0248936Y0181315D01*
X0250097Y0182514D02*
X0340837Y0182514D01*
X0342031Y0183712D02*
X0251258Y0183712D01*
X0252419Y0184911D02*
X0343225Y0184911D01*
X0344418Y0186109D02*
X0253580Y0186109D01*
X0254741Y0187308D02*
X0345612Y0187308D01*
X0346806Y0188506D02*
X0255902Y0188506D01*
X0257063Y0189705D02*
X0347999Y0189705D01*
X0349193Y0190903D02*
X0258224Y0190903D01*
X0259385Y0192102D02*
X0350386Y0192102D01*
X0351580Y0193300D02*
X0260546Y0193300D01*
X0261707Y0194499D02*
X0352774Y0194499D01*
X0353637Y0195697D02*
X0375963Y0195697D01*
X0377162Y0196896D02*
X0352438Y0196896D01*
X0352200Y0198094D02*
X0377465Y0198094D01*
X0377547Y0199293D02*
X0352200Y0199293D01*
X0352200Y0200491D02*
X0377629Y0200491D01*
X0377711Y0201690D02*
X0352200Y0201690D01*
X0352200Y0202888D02*
X0377792Y0202888D01*
X0377874Y0204087D02*
X0352200Y0204087D01*
X0352200Y0205285D02*
X0377956Y0205285D01*
X0378037Y0206484D02*
X0352200Y0206484D01*
X0358742Y0200491D02*
X0267512Y0200491D01*
X0266351Y0199293D02*
X0357548Y0199293D01*
X0356354Y0198094D02*
X0265190Y0198094D01*
X0264029Y0196896D02*
X0355161Y0196896D01*
X0353967Y0195697D02*
X0262868Y0195697D01*
X0268673Y0201690D02*
X0359935Y0201690D01*
X0361129Y0202888D02*
X0330603Y0202888D01*
X0330600Y0202885D02*
X0331608Y0203893D01*
X0332153Y0205209D01*
X0332153Y0206634D01*
X0331608Y0207950D01*
X0330600Y0208957D01*
X0329284Y0209502D01*
X0327859Y0209502D01*
X0326543Y0208957D01*
X0325536Y0207950D01*
X0324991Y0206634D01*
X0324991Y0205209D01*
X0325536Y0203893D01*
X0326543Y0202885D01*
X0327859Y0202340D01*
X0329284Y0202340D01*
X0330600Y0202885D01*
X0331688Y0204087D02*
X0362323Y0204087D01*
X0363516Y0205285D02*
X0332153Y0205285D01*
X0332153Y0206484D02*
X0364710Y0206484D01*
X0365903Y0207682D02*
X0331718Y0207682D01*
X0330677Y0208881D02*
X0367097Y0208881D01*
X0368291Y0210079D02*
X0276800Y0210079D01*
X0275639Y0208881D02*
X0326467Y0208881D01*
X0325425Y0207682D02*
X0274478Y0207682D01*
X0273317Y0206484D02*
X0324991Y0206484D01*
X0324991Y0205285D02*
X0272156Y0205285D01*
X0270995Y0204087D02*
X0325455Y0204087D01*
X0326540Y0202888D02*
X0269834Y0202888D01*
X0277961Y0211278D02*
X0369484Y0211278D01*
X0370678Y0212476D02*
X0279122Y0212476D01*
X0280283Y0213675D02*
X0371871Y0213675D01*
X0373065Y0214873D02*
X0281444Y0214873D01*
X0282606Y0216072D02*
X0374259Y0216072D01*
X0375452Y0217270D02*
X0283767Y0217270D01*
X0284928Y0218469D02*
X0376646Y0218469D01*
X0377840Y0219667D02*
X0286089Y0219667D01*
X0307680Y0220866D02*
X0379753Y0220866D01*
X0379753Y0219667D02*
X0335245Y0219667D01*
X0362811Y0218469D02*
X0379753Y0218469D01*
X0379753Y0304762D02*
X0305805Y0304762D01*
X0307691Y0305960D02*
X0379753Y0305960D01*
X0379753Y0307159D02*
X0308360Y0307159D01*
X0308531Y0308357D02*
X0379753Y0308357D01*
X0379753Y0309556D02*
X0308299Y0309556D01*
X0307543Y0310754D02*
X0379753Y0310754D01*
X0177025Y0295707D02*
X0177025Y0192425D01*
X0173425Y0188825D01*
X0112225Y0188825D01*
X0091225Y0168025D01*
X0090625Y0119525D01*
X0084625Y0119525D01*
X0084625Y0140825D01*
X0072625Y0152825D01*
X0072625Y0206825D01*
X0072725Y0226025D01*
X0143425Y0296025D01*
X0145825Y0298107D01*
X0174625Y0298107D01*
X0177025Y0295707D01*
X0177025Y0295174D02*
X0142565Y0295174D01*
X0141355Y0293975D02*
X0177025Y0293975D01*
X0177025Y0292777D02*
X0140144Y0292777D01*
X0138934Y0291578D02*
X0177025Y0291578D01*
X0177025Y0290380D02*
X0137723Y0290380D01*
X0136513Y0289181D02*
X0177025Y0289181D01*
X0177025Y0287983D02*
X0135302Y0287983D01*
X0134092Y0286784D02*
X0177025Y0286784D01*
X0177025Y0285586D02*
X0132881Y0285586D01*
X0131671Y0284387D02*
X0177025Y0284387D01*
X0177025Y0283188D02*
X0130460Y0283188D01*
X0129250Y0281990D02*
X0177025Y0281990D01*
X0177025Y0280791D02*
X0128039Y0280791D01*
X0126829Y0279593D02*
X0177025Y0279593D01*
X0177025Y0278394D02*
X0125618Y0278394D01*
X0124408Y0277196D02*
X0177025Y0277196D01*
X0177025Y0275997D02*
X0123197Y0275997D01*
X0121987Y0274799D02*
X0177025Y0274799D01*
X0177025Y0273600D02*
X0120776Y0273600D01*
X0119566Y0272402D02*
X0177025Y0272402D01*
X0177025Y0271203D02*
X0118355Y0271203D01*
X0117145Y0270005D02*
X0177025Y0270005D01*
X0177025Y0268806D02*
X0115934Y0268806D01*
X0114724Y0267608D02*
X0177025Y0267608D01*
X0177025Y0266409D02*
X0113513Y0266409D01*
X0112303Y0265211D02*
X0177025Y0265211D01*
X0177025Y0264012D02*
X0111092Y0264012D01*
X0109882Y0262814D02*
X0177025Y0262814D01*
X0177025Y0261615D02*
X0108671Y0261615D01*
X0107461Y0260417D02*
X0177025Y0260417D01*
X0177025Y0259218D02*
X0106250Y0259218D01*
X0105040Y0258020D02*
X0177025Y0258020D01*
X0177025Y0256821D02*
X0103829Y0256821D01*
X0102619Y0255623D02*
X0177025Y0255623D01*
X0177025Y0254424D02*
X0101408Y0254424D01*
X0100198Y0253226D02*
X0177025Y0253226D01*
X0177025Y0252027D02*
X0098987Y0252027D01*
X0097777Y0250829D02*
X0177025Y0250829D01*
X0177025Y0249630D02*
X0096566Y0249630D01*
X0095356Y0248432D02*
X0177025Y0248432D01*
X0177025Y0247233D02*
X0094145Y0247233D01*
X0092935Y0246035D02*
X0177025Y0246035D01*
X0177025Y0244836D02*
X0091724Y0244836D01*
X0090514Y0243638D02*
X0177025Y0243638D01*
X0177025Y0242439D02*
X0089303Y0242439D01*
X0088093Y0241241D02*
X0177025Y0241241D01*
X0177025Y0240042D02*
X0086882Y0240042D01*
X0085672Y0238844D02*
X0177025Y0238844D01*
X0177025Y0237645D02*
X0084461Y0237645D01*
X0083251Y0236447D02*
X0177025Y0236447D01*
X0177025Y0235248D02*
X0082040Y0235248D01*
X0080830Y0234050D02*
X0177025Y0234050D01*
X0177025Y0232851D02*
X0079619Y0232851D01*
X0078409Y0231652D02*
X0177025Y0231652D01*
X0177025Y0230454D02*
X0077198Y0230454D01*
X0075988Y0229255D02*
X0177025Y0229255D01*
X0177025Y0228057D02*
X0074777Y0228057D01*
X0073567Y0226858D02*
X0177025Y0226858D01*
X0177025Y0225660D02*
X0072723Y0225660D01*
X0072717Y0224461D02*
X0177025Y0224461D01*
X0177025Y0223263D02*
X0072711Y0223263D01*
X0072705Y0222064D02*
X0177025Y0222064D01*
X0177025Y0220866D02*
X0072698Y0220866D01*
X0072692Y0219667D02*
X0177025Y0219667D01*
X0177025Y0218469D02*
X0072686Y0218469D01*
X0072680Y0217270D02*
X0177025Y0217270D01*
X0177025Y0216072D02*
X0072673Y0216072D01*
X0072667Y0214873D02*
X0177025Y0214873D01*
X0177025Y0213675D02*
X0072661Y0213675D01*
X0072655Y0212476D02*
X0177025Y0212476D01*
X0177025Y0211278D02*
X0072648Y0211278D01*
X0072642Y0210079D02*
X0177025Y0210079D01*
X0177025Y0208881D02*
X0072636Y0208881D01*
X0072630Y0207682D02*
X0177025Y0207682D01*
X0177025Y0206484D02*
X0072625Y0206484D01*
X0072625Y0205285D02*
X0177025Y0205285D01*
X0177025Y0204087D02*
X0072625Y0204087D01*
X0072625Y0202888D02*
X0177025Y0202888D01*
X0177025Y0201690D02*
X0072625Y0201690D01*
X0072625Y0200491D02*
X0177025Y0200491D01*
X0177025Y0199293D02*
X0072625Y0199293D01*
X0072625Y0198094D02*
X0177025Y0198094D01*
X0177025Y0196896D02*
X0072625Y0196896D01*
X0072625Y0195697D02*
X0177025Y0195697D01*
X0177025Y0194499D02*
X0072625Y0194499D01*
X0072625Y0193300D02*
X0177025Y0193300D01*
X0176702Y0192102D02*
X0072625Y0192102D01*
X0072625Y0190903D02*
X0175503Y0190903D01*
X0174305Y0189705D02*
X0072625Y0189705D01*
X0072625Y0188506D02*
X0111903Y0188506D01*
X0110693Y0187308D02*
X0072625Y0187308D01*
X0072625Y0186109D02*
X0109483Y0186109D01*
X0108273Y0184911D02*
X0072625Y0184911D01*
X0072625Y0183712D02*
X0107063Y0183712D01*
X0105853Y0182514D02*
X0072625Y0182514D01*
X0072625Y0181315D02*
X0104643Y0181315D01*
X0103433Y0180117D02*
X0072625Y0180117D01*
X0072625Y0178918D02*
X0102223Y0178918D01*
X0101013Y0177719D02*
X0072625Y0177719D01*
X0072625Y0176521D02*
X0099803Y0176521D01*
X0098593Y0175322D02*
X0072625Y0175322D01*
X0072625Y0174124D02*
X0097383Y0174124D01*
X0096173Y0172925D02*
X0072625Y0172925D01*
X0072625Y0171727D02*
X0094963Y0171727D01*
X0093752Y0170528D02*
X0072625Y0170528D01*
X0072625Y0169330D02*
X0092542Y0169330D01*
X0091332Y0168131D02*
X0072625Y0168131D01*
X0072625Y0166933D02*
X0091212Y0166933D01*
X0091197Y0165734D02*
X0072625Y0165734D01*
X0072625Y0164536D02*
X0091182Y0164536D01*
X0091167Y0163337D02*
X0072625Y0163337D01*
X0072625Y0162139D02*
X0091152Y0162139D01*
X0091138Y0160940D02*
X0072625Y0160940D01*
X0072625Y0159742D02*
X0091123Y0159742D01*
X0091108Y0158543D02*
X0072625Y0158543D01*
X0072625Y0157345D02*
X0091093Y0157345D01*
X0091078Y0156146D02*
X0072625Y0156146D01*
X0072625Y0154948D02*
X0091063Y0154948D01*
X0091049Y0153749D02*
X0072625Y0153749D01*
X0072900Y0152551D02*
X0091034Y0152551D01*
X0091019Y0151352D02*
X0074098Y0151352D01*
X0075297Y0150154D02*
X0091004Y0150154D01*
X0090989Y0148955D02*
X0076495Y0148955D01*
X0077694Y0147757D02*
X0090974Y0147757D01*
X0090960Y0146558D02*
X0078892Y0146558D01*
X0080091Y0145360D02*
X0090945Y0145360D01*
X0090930Y0144161D02*
X0081289Y0144161D01*
X0082488Y0142963D02*
X0090915Y0142963D01*
X0090900Y0141764D02*
X0083686Y0141764D01*
X0084625Y0140566D02*
X0090885Y0140566D01*
X0090871Y0139367D02*
X0084625Y0139367D01*
X0084625Y0138169D02*
X0090856Y0138169D01*
X0090841Y0136970D02*
X0084625Y0136970D01*
X0084625Y0135772D02*
X0090826Y0135772D01*
X0090811Y0134573D02*
X0084625Y0134573D01*
X0084625Y0133375D02*
X0090797Y0133375D01*
X0090782Y0132176D02*
X0084625Y0132176D01*
X0084625Y0130978D02*
X0090767Y0130978D01*
X0090752Y0129779D02*
X0084625Y0129779D01*
X0084625Y0128581D02*
X0090737Y0128581D01*
X0090722Y0127382D02*
X0084625Y0127382D01*
X0084625Y0126184D02*
X0090708Y0126184D01*
X0090693Y0124985D02*
X0084625Y0124985D01*
X0084625Y0123786D02*
X0090678Y0123786D01*
X0090663Y0122588D02*
X0084625Y0122588D01*
X0084625Y0121389D02*
X0090648Y0121389D01*
X0090633Y0120191D02*
X0084625Y0120191D01*
X0143825Y0296372D02*
X0176360Y0296372D01*
X0175162Y0297571D02*
X0145207Y0297571D01*
D14*
X0149521Y0294613D03*
X0154321Y0294613D03*
X0159105Y0294629D03*
X0163905Y0294629D03*
X0168705Y0294629D03*
X0168705Y0289829D03*
X0168705Y0285029D03*
X0163905Y0289829D03*
X0159105Y0289829D03*
X0154321Y0289813D03*
X0149521Y0289813D03*
X0142321Y0289813D03*
X0142321Y0285013D03*
X0137521Y0285013D03*
X0137505Y0280229D03*
X0132721Y0280213D03*
X0132721Y0275413D03*
X0137505Y0275429D03*
X0142305Y0275429D03*
X0142305Y0270629D03*
X0137505Y0270629D03*
X0132721Y0270613D03*
X0127921Y0270613D03*
X0127921Y0275413D03*
X0123121Y0270613D03*
X0142305Y0280229D03*
X0168705Y0280229D03*
X0173505Y0280229D03*
X0173505Y0285029D03*
X0173505Y0289829D03*
X0173505Y0294629D03*
X0099025Y0224825D03*
X0099025Y0220025D03*
X0099025Y0215225D03*
X0099025Y0210425D03*
X0094225Y0210425D03*
X0089425Y0210425D03*
X0084625Y0210425D03*
X0079825Y0210425D03*
X0075025Y0210425D03*
X0075025Y0215225D03*
X0075025Y0220025D03*
X0075025Y0224825D03*
X0079825Y0224825D03*
X0079825Y0220025D03*
X0079825Y0215225D03*
X0084625Y0215225D03*
X0084625Y0220025D03*
X0084625Y0224825D03*
X0089425Y0224825D03*
X0089425Y0220025D03*
X0089425Y0215225D03*
X0094225Y0215225D03*
X0094225Y0220025D03*
X0094225Y0224825D03*
X0094225Y0205625D03*
X0094225Y0200825D03*
X0094225Y0196025D03*
X0094225Y0191225D03*
X0094225Y0186425D03*
X0094225Y0181625D03*
X0089425Y0181625D03*
X0084625Y0181625D03*
X0079825Y0181625D03*
X0075025Y0181625D03*
X0075025Y0186425D03*
X0079825Y0186425D03*
X0084625Y0186425D03*
X0089425Y0186425D03*
X0089425Y0191225D03*
X0089425Y0196025D03*
X0089425Y0200825D03*
X0089425Y0205625D03*
X0099025Y0205625D03*
X0099025Y0200825D03*
X0099025Y0196025D03*
X0099025Y0191225D03*
X0099025Y0186425D03*
X0099025Y0181625D03*
X0094225Y0176825D03*
X0089425Y0176825D03*
X0089425Y0172025D03*
X0084625Y0172025D03*
X0079825Y0172025D03*
X0075025Y0172025D03*
X0075025Y0176825D03*
X0079825Y0176825D03*
X0084625Y0176825D03*
X0082225Y0157625D03*
X0082225Y0152825D03*
X0077425Y0152825D03*
X0077425Y0157625D03*
X0087025Y0157625D03*
X0087025Y0152825D03*
X0087025Y0148025D03*
X0087025Y0143225D03*
X0087025Y0138425D03*
X0087025Y0133625D03*
X0082225Y0148025D03*
X0080137Y0115534D03*
X0080137Y0113134D03*
X0080137Y0105934D03*
X0080137Y0103234D03*
X0055899Y0081203D03*
X0052299Y0081203D03*
X0100833Y0071103D03*
X0100833Y0067503D03*
X0102222Y0040133D03*
X0102222Y0036533D03*
X0148125Y0198225D03*
X0148125Y0203025D03*
X0148125Y0207825D03*
X0148125Y0212625D03*
X0152925Y0212625D03*
X0152925Y0207825D03*
X0152925Y0203025D03*
X0152925Y0198225D03*
X0157725Y0198225D03*
X0157725Y0203025D03*
X0157725Y0207825D03*
X0157725Y0212625D03*
X0162525Y0212625D03*
X0162525Y0207825D03*
X0162525Y0203025D03*
X0162525Y0198225D03*
X0167325Y0198225D03*
X0167325Y0203025D03*
X0167325Y0207825D03*
X0167325Y0212625D03*
X0172125Y0212625D03*
X0172125Y0207825D03*
X0172125Y0203025D03*
X0172125Y0198225D03*
X0280736Y0142177D03*
X0280736Y0137377D03*
X0280736Y0132577D03*
X0280736Y0127777D03*
X0285536Y0127777D03*
X0290336Y0127777D03*
X0295136Y0127777D03*
X0295136Y0122977D03*
X0295136Y0118177D03*
X0295136Y0113377D03*
X0295136Y0108577D03*
X0295136Y0103777D03*
X0290688Y0103625D03*
X0285888Y0103625D03*
X0281088Y0103625D03*
X0281088Y0098825D03*
X0281088Y0094025D03*
X0281088Y0089225D03*
X0285888Y0089225D03*
X0290688Y0089225D03*
X0295136Y0089377D03*
X0295136Y0094177D03*
X0290688Y0094025D03*
X0285888Y0094025D03*
X0285888Y0098825D03*
X0290688Y0098825D03*
X0295136Y0098977D03*
X0299936Y0098977D03*
X0299936Y0094177D03*
X0304736Y0098977D03*
X0304736Y0103777D03*
X0299936Y0103777D03*
X0299936Y0108577D03*
X0299936Y0113377D03*
X0299936Y0118177D03*
X0299936Y0122977D03*
X0299936Y0127777D03*
X0304736Y0127777D03*
X0304736Y0122977D03*
X0304736Y0118177D03*
X0304736Y0113377D03*
X0304736Y0108577D03*
X0304736Y0132577D03*
X0299936Y0132577D03*
X0295136Y0132577D03*
X0290336Y0132577D03*
X0285536Y0132577D03*
X0285536Y0137377D03*
X0285536Y0142177D03*
X0290336Y0142177D03*
X0290336Y0137377D03*
X0295136Y0137377D03*
X0295136Y0142177D03*
X0299936Y0142177D03*
X0299936Y0137377D03*
X0304736Y0137377D03*
X0304736Y0142177D03*
X0351936Y0129677D03*
X0351936Y0124877D03*
X0351936Y0120077D03*
X0356736Y0120077D03*
X0356736Y0124877D03*
X0356736Y0129677D03*
X0361536Y0129677D03*
X0361536Y0124877D03*
X0361536Y0120077D03*
X0366336Y0120077D03*
X0366336Y0124877D03*
X0366336Y0129677D03*
X0371136Y0129677D03*
X0371136Y0124877D03*
X0371136Y0120077D03*
X0371136Y0115277D03*
X0366336Y0115277D03*
X0361536Y0115277D03*
X0356736Y0115277D03*
X0351936Y0115277D03*
X0375936Y0115277D03*
X0375936Y0120077D03*
X0375936Y0124877D03*
X0375936Y0129677D03*
X0376200Y0200734D03*
X0376200Y0205534D03*
X0376200Y0210334D03*
X0376200Y0215134D03*
X0376200Y0219934D03*
X0376200Y0224734D03*
X0376200Y0229534D03*
X0376200Y0234334D03*
X0376200Y0239134D03*
X0376200Y0243934D03*
X0376200Y0248734D03*
X0376200Y0253534D03*
X0376200Y0258334D03*
X0376200Y0263134D03*
X0376200Y0267934D03*
X0376200Y0272734D03*
X0376200Y0277534D03*
X0376200Y0282334D03*
X0371400Y0282334D03*
X0371400Y0277534D03*
X0371400Y0272734D03*
X0366600Y0272734D03*
X0366600Y0267934D03*
X0371400Y0267934D03*
X0371400Y0263134D03*
X0366600Y0263134D03*
X0366600Y0258334D03*
X0371400Y0258334D03*
X0371400Y0253534D03*
X0366600Y0253534D03*
X0366600Y0248734D03*
X0371400Y0248734D03*
X0371400Y0243934D03*
X0366600Y0243934D03*
X0366600Y0239134D03*
X0371400Y0239134D03*
X0371400Y0234334D03*
X0366600Y0234334D03*
X0366600Y0229534D03*
X0371400Y0229534D03*
X0371400Y0224734D03*
X0366600Y0224734D03*
X0366600Y0219934D03*
X0371400Y0219934D03*
X0371400Y0215134D03*
X0366600Y0215134D03*
X0361800Y0215134D03*
X0357000Y0215134D03*
X0357000Y0210334D03*
X0361800Y0210334D03*
X0366600Y0210334D03*
X0371400Y0210334D03*
X0371400Y0205534D03*
X0371400Y0200734D03*
X0293236Y0075877D03*
X0288436Y0075877D03*
X0283636Y0075877D03*
X0283636Y0071077D03*
X0288436Y0071077D03*
X0288436Y0066277D03*
X0293236Y0066277D03*
X0293236Y0071077D03*
D15*
X0290620Y0072285D02*
X0292874Y0067815D01*
X0296474Y0067476D02*
X0144570Y0067476D01*
X0144469Y0067233D02*
X0145132Y0068834D01*
X0145132Y0070567D01*
X0144469Y0072168D01*
X0143244Y0073394D01*
X0141643Y0074057D01*
X0139910Y0074057D01*
X0138309Y0073394D01*
X0137084Y0072168D01*
X0136420Y0070567D01*
X0136420Y0068834D01*
X0137084Y0067233D01*
X0138309Y0066008D01*
X0139910Y0065345D01*
X0141643Y0065345D01*
X0143244Y0066008D01*
X0144469Y0067233D01*
X0145132Y0069074D02*
X0296474Y0069074D01*
X0296474Y0070673D02*
X0145089Y0070673D01*
X0144366Y0072271D02*
X0296474Y0072271D01*
X0296474Y0073870D02*
X0142094Y0073870D01*
X0139459Y0073870D02*
X0084237Y0073870D01*
X0084264Y0073870D02*
X0109741Y0073870D01*
X0109356Y0075468D02*
X0082961Y0075468D01*
X0082925Y0075468D02*
X0150896Y0075468D01*
X0151301Y0075063D02*
X0152902Y0074400D01*
X0154635Y0074400D01*
X0156236Y0075063D01*
X0157461Y0076288D01*
X0158124Y0077889D01*
X0158124Y0079622D01*
X0157461Y0081223D01*
X0156236Y0082449D01*
X0154635Y0083112D01*
X0152902Y0083112D01*
X0151301Y0082449D01*
X0150076Y0081223D01*
X0149413Y0079622D01*
X0149413Y0077889D01*
X0150076Y0076288D01*
X0151301Y0075063D01*
X0149753Y0077067D02*
X0073744Y0077067D01*
X0073140Y0078665D02*
X0149413Y0078665D01*
X0149678Y0080264D02*
X0072536Y0080264D01*
X0071931Y0081862D02*
X0150715Y0081862D01*
X0156822Y0081862D02*
X0203558Y0081862D01*
X0203619Y0082011D02*
X0202956Y0080410D01*
X0202956Y0078677D01*
X0203619Y0077076D01*
X0204844Y0075851D01*
X0206445Y0075187D01*
X0208178Y0075187D01*
X0209779Y0075851D01*
X0211005Y0077076D01*
X0211148Y0077421D01*
X0211537Y0077032D01*
X0213138Y0076369D01*
X0214871Y0076369D01*
X0216472Y0077032D01*
X0217697Y0078257D01*
X0218361Y0079858D01*
X0218361Y0081591D01*
X0217697Y0083192D01*
X0216472Y0084417D01*
X0214871Y0085080D01*
X0213138Y0085080D01*
X0211537Y0084417D01*
X0210312Y0083192D01*
X0210169Y0082846D01*
X0209779Y0083236D01*
X0208178Y0083899D01*
X0206445Y0083899D01*
X0204844Y0083236D01*
X0203619Y0082011D01*
X0202956Y0080264D02*
X0157859Y0080264D01*
X0158124Y0078665D02*
X0202961Y0078665D01*
X0203628Y0077067D02*
X0157784Y0077067D01*
X0156641Y0075468D02*
X0205767Y0075468D01*
X0208857Y0075468D02*
X0296474Y0075468D01*
X0296474Y0077067D02*
X0233158Y0077067D01*
X0233672Y0077581D02*
X0234305Y0079110D01*
X0234305Y0080764D01*
X0233672Y0082293D01*
X0232502Y0083463D01*
X0230974Y0084096D01*
X0229319Y0084096D01*
X0227791Y0083463D01*
X0226621Y0082293D01*
X0225987Y0080764D01*
X0225987Y0079110D01*
X0226621Y0077581D01*
X0227791Y0076411D01*
X0229319Y0075778D01*
X0230974Y0075778D01*
X0232502Y0076411D01*
X0233672Y0077581D01*
X0234121Y0078665D02*
X0296474Y0078665D01*
X0296474Y0080264D02*
X0234305Y0080264D01*
X0233851Y0081862D02*
X0296474Y0081862D01*
X0296474Y0083461D02*
X0232504Y0083461D01*
X0227789Y0083461D02*
X0217428Y0083461D01*
X0218248Y0081862D02*
X0226442Y0081862D01*
X0225987Y0080264D02*
X0218361Y0080264D01*
X0217867Y0078665D02*
X0226171Y0078665D01*
X0227135Y0077067D02*
X0216507Y0077067D01*
X0211502Y0077067D02*
X0210996Y0077067D01*
X0210581Y0083461D02*
X0209236Y0083461D01*
X0205387Y0083461D02*
X0071327Y0083461D01*
X0070723Y0085059D02*
X0213088Y0085059D01*
X0214922Y0085059D02*
X0296474Y0085059D01*
X0296474Y0086658D02*
X0070119Y0086658D01*
X0069515Y0088256D02*
X0296474Y0088256D01*
X0296474Y0089855D02*
X0068911Y0089855D01*
X0068307Y0091453D02*
X0296474Y0091453D01*
X0296474Y0091723D02*
X0296474Y0038860D01*
X0256918Y0038598D01*
X0232769Y0052766D01*
X0232614Y0052921D01*
X0232242Y0053075D01*
X0227391Y0055921D01*
X0186839Y0055921D01*
X0163217Y0049228D01*
X0163217Y0034661D01*
X0142540Y0034778D01*
X0140416Y0035658D01*
X0137200Y0035658D01*
X0135176Y0034820D01*
X0116959Y0034923D01*
X0093890Y0038127D01*
X0094034Y0038270D01*
X0094852Y0040246D01*
X0094852Y0042384D01*
X0094034Y0044360D01*
X0092522Y0045871D01*
X0090546Y0046690D01*
X0088408Y0046690D01*
X0086433Y0045871D01*
X0085780Y0045219D01*
X0084344Y0049019D01*
X0084852Y0050246D01*
X0084852Y0052384D01*
X0084034Y0054360D01*
X0082522Y0055871D01*
X0081611Y0056249D01*
X0077863Y0066166D01*
X0078408Y0065940D01*
X0080546Y0065940D01*
X0082522Y0066758D01*
X0084034Y0068270D01*
X0084852Y0070246D01*
X0084852Y0072384D01*
X0084034Y0074360D01*
X0082522Y0075871D01*
X0080546Y0076690D01*
X0078408Y0076690D01*
X0076433Y0075871D01*
X0074921Y0074360D01*
X0074840Y0074165D01*
X0061800Y0108671D01*
X0077536Y0108671D01*
X0076937Y0108072D01*
X0076362Y0106685D01*
X0076362Y0105183D01*
X0076610Y0104584D01*
X0076362Y0103985D01*
X0076362Y0102483D01*
X0076937Y0101096D01*
X0077999Y0100034D01*
X0079386Y0099459D01*
X0080888Y0099459D01*
X0082275Y0100034D01*
X0083337Y0101096D01*
X0083912Y0102483D01*
X0083912Y0103985D01*
X0083664Y0104584D01*
X0083912Y0105183D01*
X0083912Y0106685D01*
X0083337Y0108072D01*
X0082738Y0108671D01*
X0202509Y0108671D01*
X0202365Y0108323D01*
X0202365Y0106669D01*
X0202999Y0105140D01*
X0204168Y0103970D01*
X0205697Y0103337D01*
X0207352Y0103337D01*
X0208880Y0103970D01*
X0210050Y0105140D01*
X0210683Y0106669D01*
X0210683Y0108323D01*
X0210540Y0108671D01*
X0284137Y0108671D01*
X0296474Y0091723D01*
X0295506Y0093052D02*
X0067703Y0093052D01*
X0067099Y0094650D02*
X0294343Y0094650D01*
X0293402Y0094650D02*
X0230935Y0094650D01*
X0229373Y0093052D02*
X0291803Y0093052D01*
X0290205Y0091453D02*
X0227894Y0091453D01*
X0228074Y0091723D02*
X0223274Y0084523D01*
X0283274Y0084523D01*
X0315674Y0116923D01*
X0315674Y0120523D01*
X0291674Y0144523D01*
X0279674Y0144523D01*
X0228074Y0091723D01*
X0226829Y0089855D02*
X0288606Y0089855D01*
X0287008Y0088256D02*
X0225763Y0088256D01*
X0224697Y0086658D02*
X0285409Y0086658D01*
X0283811Y0085059D02*
X0223632Y0085059D01*
X0225343Y0095266D02*
X0227076Y0095266D01*
X0228677Y0095929D01*
X0229902Y0097155D01*
X0230565Y0098756D01*
X0230565Y0100488D01*
X0229902Y0102089D01*
X0228677Y0103315D01*
X0227076Y0103978D01*
X0225343Y0103978D01*
X0223742Y0103315D01*
X0222517Y0102089D01*
X0221854Y0100488D01*
X0221854Y0098756D01*
X0222517Y0097155D01*
X0223742Y0095929D01*
X0225343Y0095266D01*
X0223422Y0096249D02*
X0091201Y0096249D01*
X0091237Y0096249D02*
X0104350Y0096249D01*
X0103965Y0097848D02*
X0092421Y0097848D01*
X0092394Y0097848D02*
X0222230Y0097848D01*
X0221854Y0099446D02*
X0198729Y0099446D01*
X0199194Y0099911D02*
X0199857Y0101512D01*
X0199857Y0103244D01*
X0199194Y0104845D01*
X0197968Y0106071D01*
X0196367Y0106734D01*
X0194634Y0106734D01*
X0193033Y0106071D01*
X0191808Y0104845D01*
X0191145Y0103244D01*
X0191145Y0101512D01*
X0191808Y0099911D01*
X0193033Y0098685D01*
X0194634Y0098022D01*
X0196367Y0098022D01*
X0197968Y0098685D01*
X0199194Y0099911D01*
X0199663Y0101045D02*
X0222084Y0101045D01*
X0223070Y0102643D02*
X0199857Y0102643D01*
X0199444Y0104242D02*
X0203897Y0104242D01*
X0202709Y0105840D02*
X0198199Y0105840D01*
X0202365Y0107439D02*
X0083600Y0107439D01*
X0083627Y0107439D02*
X0101655Y0107439D01*
X0101270Y0109037D02*
X0082408Y0109037D01*
X0082290Y0109155D02*
X0080893Y0109734D01*
X0079381Y0109734D01*
X0077984Y0109155D01*
X0076916Y0108086D01*
X0076337Y0106690D01*
X0076337Y0105178D01*
X0076583Y0104584D01*
X0076337Y0103990D01*
X0076337Y0102478D01*
X0076916Y0101081D01*
X0077984Y0100012D01*
X0079381Y0099434D01*
X0080893Y0099434D01*
X0082290Y0100012D01*
X0083358Y0101081D01*
X0083937Y0102478D01*
X0083937Y0103990D01*
X0083691Y0104584D01*
X0083937Y0105178D01*
X0083937Y0106690D01*
X0083358Y0108086D01*
X0082290Y0109155D01*
X0083912Y0105840D02*
X0192803Y0105840D01*
X0191558Y0104242D02*
X0083805Y0104242D01*
X0083833Y0104242D02*
X0102425Y0104242D01*
X0102040Y0105840D02*
X0083937Y0105840D01*
X0083937Y0102643D02*
X0085239Y0102643D01*
X0085275Y0102643D02*
X0083912Y0102643D01*
X0084700Y0102104D02*
X0084033Y0100494D01*
X0084033Y0098751D01*
X0084700Y0097140D01*
X0085932Y0095908D01*
X0087543Y0095241D01*
X0089286Y0095241D01*
X0090896Y0095908D01*
X0092128Y0097140D01*
X0092795Y0098751D01*
X0092795Y0100494D01*
X0092128Y0102104D01*
X0090896Y0103336D01*
X0089286Y0104003D01*
X0087543Y0104003D01*
X0085932Y0103336D01*
X0084700Y0102104D01*
X0084721Y0102089D02*
X0084058Y0100488D01*
X0084058Y0098756D01*
X0084721Y0097155D01*
X0085947Y0095929D01*
X0087548Y0095266D01*
X0089281Y0095266D01*
X0090882Y0095929D01*
X0092107Y0097155D01*
X0092770Y0098756D01*
X0092770Y0100488D01*
X0092107Y0102089D01*
X0090882Y0103315D01*
X0089281Y0103978D01*
X0087548Y0103978D01*
X0085947Y0103315D01*
X0084721Y0102089D01*
X0084289Y0101045D02*
X0083286Y0101045D01*
X0083322Y0101045D02*
X0084261Y0101045D01*
X0084058Y0099446D02*
X0065286Y0099446D01*
X0064682Y0101045D02*
X0076988Y0101045D01*
X0076952Y0101045D02*
X0037151Y0101045D01*
X0037144Y0102643D02*
X0076337Y0102643D01*
X0076362Y0102643D02*
X0064078Y0102643D01*
X0063474Y0104242D02*
X0076469Y0104242D01*
X0076441Y0104242D02*
X0037136Y0104242D01*
X0037128Y0105840D02*
X0076337Y0105840D01*
X0076362Y0105840D02*
X0062870Y0105840D01*
X0062266Y0107439D02*
X0076674Y0107439D01*
X0076647Y0107439D02*
X0037120Y0107439D01*
X0037112Y0109037D02*
X0077866Y0109037D01*
X0079352Y0099446D02*
X0037159Y0099446D01*
X0037167Y0097848D02*
X0084407Y0097848D01*
X0084434Y0097848D02*
X0065890Y0097848D01*
X0066494Y0096249D02*
X0085627Y0096249D01*
X0085591Y0096249D02*
X0037175Y0096249D01*
X0037183Y0094650D02*
X0104735Y0094650D01*
X0105120Y0093052D02*
X0037191Y0093052D01*
X0037199Y0091453D02*
X0105505Y0091453D01*
X0105890Y0089855D02*
X0037206Y0089855D01*
X0037214Y0088256D02*
X0106275Y0088256D01*
X0106660Y0086658D02*
X0037222Y0086658D01*
X0037230Y0085059D02*
X0107045Y0085059D01*
X0107430Y0083461D02*
X0037238Y0083461D01*
X0037246Y0081862D02*
X0107815Y0081862D01*
X0108200Y0080264D02*
X0037254Y0080264D01*
X0037262Y0078665D02*
X0108586Y0078665D01*
X0108971Y0077067D02*
X0037269Y0077067D01*
X0037277Y0075468D02*
X0075994Y0075468D01*
X0076029Y0075468D02*
X0074348Y0075468D01*
X0074899Y0074374D02*
X0074077Y0072389D01*
X0074077Y0070241D01*
X0074899Y0068256D01*
X0076418Y0066737D01*
X0078403Y0065915D01*
X0080551Y0065915D01*
X0082536Y0066737D01*
X0084055Y0068256D01*
X0084877Y0070241D01*
X0084877Y0072389D01*
X0084055Y0074374D01*
X0082536Y0075893D01*
X0080551Y0076715D01*
X0078403Y0076715D01*
X0076418Y0075893D01*
X0074899Y0074374D01*
X0074691Y0073870D02*
X0037285Y0073870D01*
X0037293Y0072271D02*
X0074077Y0072271D01*
X0074077Y0070673D02*
X0037301Y0070673D01*
X0037309Y0069074D02*
X0074560Y0069074D01*
X0075680Y0067476D02*
X0037317Y0067476D01*
X0037324Y0065877D02*
X0086403Y0065877D01*
X0086418Y0065893D02*
X0084899Y0064374D01*
X0084077Y0062389D01*
X0084077Y0060241D01*
X0084899Y0058256D01*
X0086418Y0056737D01*
X0088403Y0055915D01*
X0090551Y0055915D01*
X0092536Y0056737D01*
X0094055Y0058256D01*
X0094877Y0060241D01*
X0094877Y0062389D01*
X0094055Y0064374D01*
X0092536Y0065893D01*
X0090551Y0066715D01*
X0088403Y0066715D01*
X0086418Y0065893D01*
X0086433Y0065871D02*
X0084921Y0064360D01*
X0084102Y0062384D01*
X0084102Y0060246D01*
X0084921Y0058270D01*
X0086433Y0056758D01*
X0088408Y0055940D01*
X0090546Y0055940D01*
X0092522Y0056758D01*
X0094034Y0058270D01*
X0094852Y0060246D01*
X0094852Y0062384D01*
X0094034Y0064360D01*
X0092522Y0065871D01*
X0090546Y0066690D01*
X0088408Y0066690D01*
X0086433Y0065871D01*
X0086447Y0065877D02*
X0077972Y0065877D01*
X0078577Y0064279D02*
X0084887Y0064279D01*
X0084860Y0064279D02*
X0037332Y0064279D01*
X0037340Y0062680D02*
X0084198Y0062680D01*
X0084225Y0062680D02*
X0079181Y0062680D01*
X0079477Y0061315D02*
X0089477Y0051315D01*
X0079477Y0041315D01*
X0084077Y0041900D02*
X0037442Y0041900D01*
X0037435Y0043498D02*
X0084537Y0043498D01*
X0084899Y0044374D02*
X0084077Y0042389D01*
X0084077Y0040241D01*
X0084899Y0038256D01*
X0086418Y0036737D01*
X0088403Y0035915D01*
X0090551Y0035915D01*
X0092536Y0036737D01*
X0094055Y0038256D01*
X0094877Y0040241D01*
X0094877Y0042389D01*
X0094055Y0044374D01*
X0092536Y0045893D01*
X0090551Y0046715D01*
X0088403Y0046715D01*
X0086418Y0045893D01*
X0084899Y0044374D01*
X0085622Y0045097D02*
X0037427Y0045097D01*
X0037419Y0046695D02*
X0076519Y0046695D01*
X0076418Y0046737D02*
X0078403Y0045915D01*
X0080551Y0045915D01*
X0082536Y0046737D01*
X0084055Y0048256D01*
X0084877Y0050241D01*
X0084877Y0052389D01*
X0084055Y0054374D01*
X0082536Y0055893D01*
X0080551Y0056715D01*
X0078403Y0056715D01*
X0076418Y0055893D01*
X0074899Y0054374D01*
X0074077Y0052389D01*
X0074077Y0050241D01*
X0074899Y0048256D01*
X0076418Y0046737D01*
X0074884Y0048294D02*
X0037411Y0048294D01*
X0037403Y0049892D02*
X0074222Y0049892D01*
X0074077Y0051491D02*
X0037395Y0051491D01*
X0037387Y0053089D02*
X0074367Y0053089D01*
X0075213Y0054688D02*
X0037380Y0054688D01*
X0037372Y0056286D02*
X0077368Y0056286D01*
X0080993Y0057885D02*
X0085306Y0057885D01*
X0085271Y0057885D02*
X0037364Y0057885D01*
X0037356Y0059483D02*
X0084391Y0059483D01*
X0084418Y0059483D02*
X0080389Y0059483D01*
X0079785Y0061082D02*
X0084102Y0061082D01*
X0084077Y0061082D02*
X0037348Y0061082D01*
X0037450Y0040301D02*
X0084077Y0040301D01*
X0084714Y0038703D02*
X0037458Y0038703D01*
X0037463Y0037723D02*
X0039863Y0034838D01*
X0119122Y0034923D01*
X0090663Y0153071D01*
X0093000Y0233997D01*
X0123847Y0257619D01*
X0115973Y0264976D01*
X0037233Y0264976D01*
X0037233Y0192140D01*
X0036703Y0192140D01*
X0037463Y0037723D01*
X0037978Y0037104D02*
X0086051Y0037104D01*
X0092903Y0037104D02*
X0118597Y0037104D01*
X0118982Y0035506D02*
X0039307Y0035506D01*
X0082435Y0046695D02*
X0088355Y0046695D01*
X0090599Y0046695D02*
X0116286Y0046695D01*
X0116671Y0045097D02*
X0093332Y0045097D01*
X0093297Y0045097D02*
X0163217Y0045097D01*
X0163217Y0046695D02*
X0085222Y0046695D01*
X0084618Y0048294D02*
X0163217Y0048294D01*
X0165560Y0049892D02*
X0084705Y0049892D01*
X0084733Y0049892D02*
X0115516Y0049892D01*
X0115901Y0048294D02*
X0084071Y0048294D01*
X0084852Y0051491D02*
X0171202Y0051491D01*
X0176844Y0053089D02*
X0084560Y0053089D01*
X0084587Y0053089D02*
X0114746Y0053089D01*
X0115131Y0051491D02*
X0084877Y0051491D01*
X0083741Y0054688D02*
X0114361Y0054688D01*
X0113976Y0056286D02*
X0091448Y0056286D01*
X0091382Y0056286D02*
X0240663Y0056286D01*
X0241130Y0056093D02*
X0242785Y0056093D01*
X0244313Y0056726D01*
X0245483Y0057896D01*
X0246117Y0059425D01*
X0246117Y0061079D01*
X0245483Y0062608D01*
X0244313Y0063778D01*
X0242785Y0064411D01*
X0241130Y0064411D01*
X0239602Y0063778D01*
X0238432Y0062608D01*
X0237798Y0061079D01*
X0237798Y0059425D01*
X0238432Y0057896D01*
X0239602Y0056726D01*
X0241130Y0056093D01*
X0243251Y0056286D02*
X0296474Y0056286D01*
X0296474Y0054688D02*
X0229493Y0054688D01*
X0232218Y0053089D02*
X0296474Y0053089D01*
X0296474Y0051491D02*
X0234943Y0051491D01*
X0237667Y0049892D02*
X0296474Y0049892D01*
X0296474Y0048294D02*
X0274658Y0048294D01*
X0274242Y0048466D02*
X0272665Y0048466D01*
X0271209Y0047863D01*
X0270095Y0046748D01*
X0269491Y0045292D01*
X0269491Y0043716D01*
X0270095Y0042260D01*
X0271209Y0041145D01*
X0272665Y0040542D01*
X0274242Y0040542D01*
X0275698Y0041145D01*
X0276813Y0042260D01*
X0277416Y0043716D01*
X0277416Y0045292D01*
X0276813Y0046748D01*
X0275698Y0047863D01*
X0274242Y0048466D01*
X0272249Y0048294D02*
X0240392Y0048294D01*
X0243117Y0046695D02*
X0270073Y0046695D01*
X0269491Y0045097D02*
X0245842Y0045097D01*
X0248566Y0043498D02*
X0269581Y0043498D01*
X0270454Y0041900D02*
X0251291Y0041900D01*
X0254016Y0040301D02*
X0296474Y0040301D01*
X0296474Y0041900D02*
X0276453Y0041900D01*
X0277326Y0043498D02*
X0296474Y0043498D01*
X0296474Y0045097D02*
X0277416Y0045097D01*
X0276835Y0046695D02*
X0296474Y0046695D01*
X0296474Y0057885D02*
X0276690Y0057885D01*
X0276813Y0058008D02*
X0275698Y0056893D01*
X0274242Y0056290D01*
X0272665Y0056290D01*
X0271209Y0056893D01*
X0270095Y0058008D01*
X0269491Y0059464D01*
X0269491Y0061040D01*
X0270095Y0062496D01*
X0271209Y0063611D01*
X0272665Y0064214D01*
X0274242Y0064214D01*
X0275698Y0063611D01*
X0276813Y0062496D01*
X0277416Y0061040D01*
X0277416Y0059464D01*
X0276813Y0058008D01*
X0277416Y0059483D02*
X0296474Y0059483D01*
X0296474Y0061082D02*
X0277398Y0061082D01*
X0276629Y0062680D02*
X0296474Y0062680D01*
X0296474Y0064279D02*
X0243104Y0064279D01*
X0240811Y0064279D02*
X0212749Y0064279D01*
X0212579Y0064688D02*
X0211354Y0065913D01*
X0209753Y0066576D01*
X0208020Y0066576D01*
X0206419Y0065913D01*
X0205194Y0064688D01*
X0204531Y0063087D01*
X0204531Y0061354D01*
X0205194Y0059753D01*
X0206419Y0058528D01*
X0208020Y0057865D01*
X0209753Y0057865D01*
X0211354Y0058528D01*
X0212579Y0059753D01*
X0213243Y0061354D01*
X0213243Y0063087D01*
X0212579Y0064688D01*
X0211390Y0065877D02*
X0296474Y0065877D01*
X0287474Y0071415D02*
X0286420Y0071085D01*
X0270278Y0062680D02*
X0245411Y0062680D01*
X0246115Y0061082D02*
X0269509Y0061082D01*
X0269491Y0059483D02*
X0246117Y0059483D01*
X0245472Y0057885D02*
X0270217Y0057885D01*
X0272681Y0038703D02*
X0256741Y0038703D01*
X0238443Y0057885D02*
X0209802Y0057885D01*
X0207971Y0057885D02*
X0202443Y0057885D01*
X0202737Y0058178D02*
X0203400Y0059779D01*
X0203400Y0061512D01*
X0202737Y0063113D01*
X0201512Y0064338D01*
X0199911Y0065002D01*
X0198178Y0065002D01*
X0196577Y0064338D01*
X0195351Y0063113D01*
X0194910Y0062048D01*
X0194469Y0063113D01*
X0193244Y0064338D01*
X0191643Y0065002D01*
X0189910Y0065002D01*
X0188309Y0064338D01*
X0187084Y0063113D01*
X0186420Y0061512D01*
X0186420Y0059779D01*
X0187084Y0058178D01*
X0188309Y0056953D01*
X0189910Y0056290D01*
X0191643Y0056290D01*
X0193244Y0056953D01*
X0194469Y0058178D01*
X0194910Y0059243D01*
X0195351Y0058178D01*
X0196577Y0056953D01*
X0198178Y0056290D01*
X0199911Y0056290D01*
X0201512Y0056953D01*
X0202737Y0058178D01*
X0203277Y0059483D02*
X0205464Y0059483D01*
X0204643Y0061082D02*
X0203400Y0061082D01*
X0202916Y0062680D02*
X0204531Y0062680D01*
X0205024Y0064279D02*
X0201571Y0064279D01*
X0196517Y0064279D02*
X0193303Y0064279D01*
X0194648Y0062680D02*
X0195172Y0062680D01*
X0195645Y0057885D02*
X0194176Y0057885D01*
X0187377Y0057885D02*
X0093648Y0057885D01*
X0093684Y0057885D02*
X0113591Y0057885D01*
X0113206Y0059483D02*
X0094563Y0059483D01*
X0094536Y0059483D02*
X0186543Y0059483D01*
X0186420Y0061082D02*
X0094852Y0061082D01*
X0094877Y0061082D02*
X0112821Y0061082D01*
X0112436Y0062680D02*
X0094757Y0062680D01*
X0094729Y0062680D02*
X0186904Y0062680D01*
X0188249Y0064279D02*
X0094067Y0064279D01*
X0094094Y0064279D02*
X0112051Y0064279D01*
X0111666Y0065877D02*
X0092552Y0065877D01*
X0092508Y0065877D02*
X0138625Y0065877D01*
X0136983Y0067476D02*
X0083239Y0067476D01*
X0083275Y0067476D02*
X0111281Y0067476D01*
X0110896Y0069074D02*
X0084394Y0069074D01*
X0084367Y0069074D02*
X0136420Y0069074D01*
X0136464Y0070673D02*
X0084852Y0070673D01*
X0084877Y0070673D02*
X0110511Y0070673D01*
X0110126Y0072271D02*
X0084877Y0072271D01*
X0084852Y0072271D02*
X0137187Y0072271D01*
X0142928Y0065877D02*
X0206383Y0065877D01*
X0213243Y0062680D02*
X0238504Y0062680D01*
X0237799Y0061082D02*
X0213130Y0061082D01*
X0212310Y0059483D02*
X0237798Y0059483D01*
X0232497Y0096249D02*
X0295000Y0096249D01*
X0293179Y0096249D02*
X0228997Y0096249D01*
X0230189Y0097848D02*
X0292016Y0097848D01*
X0290852Y0099446D02*
X0230565Y0099446D01*
X0230335Y0101045D02*
X0289688Y0101045D01*
X0288525Y0102643D02*
X0229349Y0102643D01*
X0234059Y0097848D02*
X0296599Y0097848D01*
X0298197Y0099446D02*
X0235622Y0099446D01*
X0237184Y0101045D02*
X0299796Y0101045D01*
X0301394Y0102643D02*
X0238746Y0102643D01*
X0240308Y0104242D02*
X0302993Y0104242D01*
X0304591Y0105840D02*
X0241870Y0105840D01*
X0243433Y0107439D02*
X0306190Y0107439D01*
X0307788Y0109037D02*
X0244995Y0109037D01*
X0246557Y0110636D02*
X0309387Y0110636D01*
X0310985Y0112234D02*
X0248119Y0112234D01*
X0249681Y0113833D02*
X0312584Y0113833D01*
X0314182Y0115431D02*
X0251243Y0115431D01*
X0252806Y0117030D02*
X0315674Y0117030D01*
X0315674Y0118628D02*
X0254368Y0118628D01*
X0255930Y0120227D02*
X0315674Y0120227D01*
X0314372Y0121825D02*
X0257492Y0121825D01*
X0259054Y0123424D02*
X0312773Y0123424D01*
X0311175Y0125022D02*
X0260617Y0125022D01*
X0262179Y0126621D02*
X0309576Y0126621D01*
X0307978Y0128219D02*
X0263741Y0128219D01*
X0265303Y0129818D02*
X0306379Y0129818D01*
X0304781Y0131416D02*
X0266865Y0131416D01*
X0268427Y0133015D02*
X0303182Y0133015D01*
X0301584Y0134613D02*
X0269990Y0134613D01*
X0271552Y0136212D02*
X0299985Y0136212D01*
X0298387Y0137810D02*
X0273114Y0137810D01*
X0274676Y0139409D02*
X0296788Y0139409D01*
X0295190Y0141007D02*
X0276238Y0141007D01*
X0277801Y0142606D02*
X0293591Y0142606D01*
X0291993Y0144204D02*
X0279363Y0144204D01*
X0285034Y0107439D02*
X0210683Y0107439D01*
X0210340Y0105840D02*
X0286198Y0105840D01*
X0287361Y0104242D02*
X0209152Y0104242D01*
X0192273Y0099446D02*
X0092770Y0099446D01*
X0092795Y0099446D02*
X0103580Y0099446D01*
X0103195Y0101045D02*
X0092567Y0101045D01*
X0092540Y0101045D02*
X0191338Y0101045D01*
X0191145Y0102643D02*
X0091553Y0102643D01*
X0091589Y0102643D02*
X0102810Y0102643D01*
X0100885Y0110636D02*
X0037104Y0110636D01*
X0037096Y0112234D02*
X0100500Y0112234D01*
X0100115Y0113833D02*
X0037088Y0113833D01*
X0037081Y0115431D02*
X0099730Y0115431D01*
X0099344Y0117030D02*
X0037073Y0117030D01*
X0037065Y0118628D02*
X0098959Y0118628D01*
X0098574Y0120227D02*
X0037057Y0120227D01*
X0037049Y0121825D02*
X0098189Y0121825D01*
X0097804Y0123424D02*
X0037041Y0123424D01*
X0037033Y0125022D02*
X0097419Y0125022D01*
X0097034Y0126621D02*
X0037026Y0126621D01*
X0037018Y0128219D02*
X0096649Y0128219D01*
X0096264Y0129818D02*
X0068113Y0129818D01*
X0068506Y0130211D02*
X0069173Y0131821D01*
X0069173Y0133564D01*
X0068506Y0135175D01*
X0067274Y0136407D01*
X0065664Y0137074D01*
X0063921Y0137074D01*
X0062310Y0136407D01*
X0061078Y0135175D01*
X0060411Y0133564D01*
X0060411Y0131821D01*
X0061078Y0130211D01*
X0062310Y0128979D01*
X0063921Y0128312D01*
X0065664Y0128312D01*
X0067274Y0128979D01*
X0068506Y0130211D01*
X0069005Y0131416D02*
X0095879Y0131416D01*
X0095494Y0133015D02*
X0069173Y0133015D01*
X0068739Y0134613D02*
X0095109Y0134613D01*
X0094724Y0136212D02*
X0067469Y0136212D01*
X0062115Y0136212D02*
X0036978Y0136212D01*
X0036970Y0137810D02*
X0094339Y0137810D01*
X0093954Y0139409D02*
X0036963Y0139409D01*
X0036955Y0141007D02*
X0093569Y0141007D01*
X0093184Y0142606D02*
X0036947Y0142606D01*
X0036939Y0144204D02*
X0092799Y0144204D01*
X0092414Y0145803D02*
X0036931Y0145803D01*
X0036923Y0147401D02*
X0092029Y0147401D01*
X0091644Y0149000D02*
X0036915Y0149000D01*
X0036908Y0150598D02*
X0091259Y0150598D01*
X0090873Y0152197D02*
X0036900Y0152197D01*
X0036892Y0153795D02*
X0090684Y0153795D01*
X0090730Y0155394D02*
X0036884Y0155394D01*
X0036876Y0156992D02*
X0090776Y0156992D01*
X0090822Y0158591D02*
X0036868Y0158591D01*
X0036860Y0160189D02*
X0090869Y0160189D01*
X0090915Y0161788D02*
X0036853Y0161788D01*
X0036845Y0163386D02*
X0090961Y0163386D01*
X0091007Y0164985D02*
X0036837Y0164985D01*
X0036829Y0166584D02*
X0091053Y0166584D01*
X0091099Y0168182D02*
X0036821Y0168182D01*
X0036813Y0169781D02*
X0091146Y0169781D01*
X0091192Y0171379D02*
X0036805Y0171379D01*
X0036797Y0172978D02*
X0091238Y0172978D01*
X0091284Y0174576D02*
X0036790Y0174576D01*
X0036782Y0176175D02*
X0091330Y0176175D01*
X0091376Y0177773D02*
X0036774Y0177773D01*
X0036766Y0179372D02*
X0091423Y0179372D01*
X0091469Y0180970D02*
X0036758Y0180970D01*
X0036750Y0182569D02*
X0091515Y0182569D01*
X0091561Y0184167D02*
X0036742Y0184167D01*
X0036735Y0185766D02*
X0091607Y0185766D01*
X0091653Y0187364D02*
X0036727Y0187364D01*
X0036719Y0188963D02*
X0091699Y0188963D01*
X0091746Y0190561D02*
X0036711Y0190561D01*
X0037233Y0192160D02*
X0091792Y0192160D01*
X0091838Y0193758D02*
X0037233Y0193758D01*
X0037233Y0195357D02*
X0091884Y0195357D01*
X0091930Y0196955D02*
X0037233Y0196955D01*
X0037233Y0198554D02*
X0091976Y0198554D01*
X0092023Y0200152D02*
X0037233Y0200152D01*
X0037233Y0201751D02*
X0092069Y0201751D01*
X0092115Y0203349D02*
X0037233Y0203349D01*
X0037233Y0204948D02*
X0092161Y0204948D01*
X0092207Y0206546D02*
X0037233Y0206546D01*
X0037233Y0208145D02*
X0092253Y0208145D01*
X0092300Y0209743D02*
X0037233Y0209743D01*
X0037233Y0211342D02*
X0092346Y0211342D01*
X0092392Y0212940D02*
X0037233Y0212940D01*
X0037233Y0214539D02*
X0092438Y0214539D01*
X0092484Y0216137D02*
X0037233Y0216137D01*
X0037233Y0217736D02*
X0092530Y0217736D01*
X0092577Y0219334D02*
X0037233Y0219334D01*
X0037233Y0220933D02*
X0092623Y0220933D01*
X0092669Y0222531D02*
X0037233Y0222531D01*
X0037233Y0224130D02*
X0092715Y0224130D01*
X0092761Y0225728D02*
X0037233Y0225728D01*
X0037233Y0227327D02*
X0092807Y0227327D01*
X0092854Y0228925D02*
X0037233Y0228925D01*
X0037233Y0230524D02*
X0092900Y0230524D01*
X0092946Y0232122D02*
X0037233Y0232122D01*
X0037233Y0233721D02*
X0092992Y0233721D01*
X0094727Y0235319D02*
X0037233Y0235319D01*
X0037233Y0236918D02*
X0096815Y0236918D01*
X0098902Y0238517D02*
X0037233Y0238517D01*
X0037233Y0240115D02*
X0100990Y0240115D01*
X0103077Y0241714D02*
X0037233Y0241714D01*
X0037233Y0243312D02*
X0105164Y0243312D01*
X0107252Y0244911D02*
X0037233Y0244911D01*
X0037233Y0246509D02*
X0109339Y0246509D01*
X0111427Y0248108D02*
X0037233Y0248108D01*
X0037233Y0249706D02*
X0113514Y0249706D01*
X0115602Y0251305D02*
X0037233Y0251305D01*
X0037233Y0252903D02*
X0117689Y0252903D01*
X0119777Y0254502D02*
X0037233Y0254502D01*
X0037233Y0256100D02*
X0121864Y0256100D01*
X0123762Y0257699D02*
X0037233Y0257699D01*
X0037233Y0259297D02*
X0122051Y0259297D01*
X0120340Y0260896D02*
X0037233Y0260896D01*
X0037233Y0262494D02*
X0118630Y0262494D01*
X0116919Y0264093D02*
X0037233Y0264093D01*
X0135658Y0355528D02*
X0202587Y0355528D01*
X0084409Y0154033D02*
X0086663Y0149563D01*
X0060845Y0134613D02*
X0036986Y0134613D01*
X0036994Y0133015D02*
X0060411Y0133015D01*
X0060579Y0131416D02*
X0037002Y0131416D01*
X0037010Y0129818D02*
X0061471Y0129818D01*
X0080922Y0099446D02*
X0084033Y0099446D01*
X0089477Y0071315D02*
X0079477Y0061315D01*
X0081586Y0056286D02*
X0087507Y0056286D01*
X0087573Y0056286D02*
X0081597Y0056286D01*
X0083706Y0054688D02*
X0182486Y0054688D01*
X0163217Y0043498D02*
X0094391Y0043498D01*
X0094418Y0043498D02*
X0117056Y0043498D01*
X0117441Y0041900D02*
X0094877Y0041900D01*
X0094852Y0041900D02*
X0163217Y0041900D01*
X0163217Y0040301D02*
X0094852Y0040301D01*
X0094877Y0040301D02*
X0117827Y0040301D01*
X0118212Y0038703D02*
X0094240Y0038703D01*
X0094213Y0038703D02*
X0163217Y0038703D01*
X0163217Y0037104D02*
X0101254Y0037104D01*
X0112763Y0035506D02*
X0136831Y0035506D01*
X0140784Y0035506D02*
X0163217Y0035506D01*
D16*
X0179753Y0057102D02*
X0179753Y0057496D01*
X0180540Y0057496D01*
X0185265Y0078756D02*
X0184871Y0083087D01*
X0183296Y0079150D01*
X0191564Y0114583D02*
X0193926Y0114583D01*
X0217154Y0103953D02*
X0217154Y0101197D01*
X0220698Y0103559D02*
X0222272Y0103559D01*
X0221091Y0103953D02*
X0220698Y0103559D01*
X0225422Y0127181D02*
X0226603Y0127575D01*
X0226603Y0128756D01*
X0226603Y0136630D02*
X0225422Y0136630D01*
X0225028Y0137024D01*
X0162430Y0126394D02*
X0152981Y0114976D01*
X0123847Y0114583D01*
X0123454Y0126394D01*
X0162430Y0126394D01*
X0161984Y0125855D02*
X0123471Y0125855D01*
X0123498Y0125051D02*
X0161318Y0125051D01*
X0160652Y0124246D02*
X0123525Y0124246D01*
X0123552Y0123441D02*
X0159986Y0123441D01*
X0159320Y0122636D02*
X0123579Y0122636D01*
X0123606Y0121831D02*
X0158654Y0121831D01*
X0157988Y0121027D02*
X0123632Y0121027D01*
X0123659Y0120222D02*
X0157322Y0120222D01*
X0156656Y0119417D02*
X0123686Y0119417D01*
X0123713Y0118612D02*
X0155990Y0118612D01*
X0155324Y0117807D02*
X0123740Y0117807D01*
X0123767Y0117003D02*
X0154658Y0117003D01*
X0153992Y0116198D02*
X0123793Y0116198D01*
X0123820Y0115393D02*
X0153326Y0115393D01*
X0143532Y0124031D02*
X0143139Y0123638D01*
X0141957Y0123638D01*
X0131721Y0123638D02*
X0131721Y0123244D01*
X0131721Y0123638D02*
X0130934Y0124425D01*
X0124248Y0114588D02*
X0123847Y0114588D01*
X0126209Y0053559D02*
X0127391Y0053559D01*
X0127391Y0053165D01*
X0226997Y0064976D02*
X0227784Y0064189D01*
X0243532Y0069701D02*
X0243532Y0070488D01*
X0328572Y0040567D02*
X0328572Y0024819D01*
X0360068Y0024819D01*
X0360068Y0036630D01*
X0379753Y0052378D01*
X0379753Y0119307D01*
X0371879Y0119307D01*
X0371879Y0052378D01*
X0356131Y0040567D01*
X0328572Y0040567D01*
X0328572Y0040546D02*
X0364962Y0040546D01*
X0365968Y0041350D02*
X0357175Y0041350D01*
X0358248Y0042155D02*
X0366974Y0042155D01*
X0367980Y0042960D02*
X0359321Y0042960D01*
X0360394Y0043765D02*
X0368986Y0043765D01*
X0369992Y0044570D02*
X0361468Y0044570D01*
X0362541Y0045374D02*
X0370998Y0045374D01*
X0372004Y0046179D02*
X0363614Y0046179D01*
X0364687Y0046984D02*
X0373010Y0046984D01*
X0374016Y0047789D02*
X0365760Y0047789D01*
X0366833Y0048594D02*
X0375022Y0048594D01*
X0376028Y0049398D02*
X0367906Y0049398D01*
X0368979Y0050203D02*
X0377034Y0050203D01*
X0378040Y0051008D02*
X0370052Y0051008D01*
X0371125Y0051813D02*
X0379046Y0051813D01*
X0379753Y0052618D02*
X0371879Y0052618D01*
X0371879Y0053422D02*
X0379753Y0053422D01*
X0379753Y0054227D02*
X0371879Y0054227D01*
X0371879Y0055032D02*
X0379753Y0055032D01*
X0379753Y0055837D02*
X0371879Y0055837D01*
X0371879Y0056642D02*
X0379753Y0056642D01*
X0379753Y0057447D02*
X0371879Y0057447D01*
X0371879Y0058251D02*
X0379753Y0058251D01*
X0379753Y0059056D02*
X0371879Y0059056D01*
X0371879Y0059861D02*
X0379753Y0059861D01*
X0379753Y0060666D02*
X0371879Y0060666D01*
X0371879Y0061471D02*
X0379753Y0061471D01*
X0379753Y0062275D02*
X0371879Y0062275D01*
X0371879Y0063080D02*
X0379753Y0063080D01*
X0379753Y0063885D02*
X0371879Y0063885D01*
X0371879Y0064690D02*
X0379753Y0064690D01*
X0379753Y0065495D02*
X0371879Y0065495D01*
X0371879Y0066299D02*
X0379753Y0066299D01*
X0379753Y0067104D02*
X0371879Y0067104D01*
X0371879Y0067909D02*
X0379753Y0067909D01*
X0379753Y0068714D02*
X0371879Y0068714D01*
X0371879Y0069519D02*
X0379753Y0069519D01*
X0379753Y0070324D02*
X0371879Y0070324D01*
X0371879Y0071128D02*
X0379753Y0071128D01*
X0379753Y0071933D02*
X0371879Y0071933D01*
X0371879Y0072738D02*
X0379753Y0072738D01*
X0379753Y0073543D02*
X0371879Y0073543D01*
X0371879Y0074348D02*
X0379753Y0074348D01*
X0379753Y0075152D02*
X0371879Y0075152D01*
X0371879Y0075957D02*
X0379753Y0075957D01*
X0379753Y0076762D02*
X0371879Y0076762D01*
X0371879Y0077567D02*
X0379753Y0077567D01*
X0379753Y0078372D02*
X0371879Y0078372D01*
X0371879Y0079176D02*
X0379753Y0079176D01*
X0379753Y0079981D02*
X0371879Y0079981D01*
X0371879Y0080786D02*
X0379753Y0080786D01*
X0379753Y0081591D02*
X0371879Y0081591D01*
X0371879Y0082396D02*
X0379753Y0082396D01*
X0379753Y0083200D02*
X0371879Y0083200D01*
X0371879Y0084005D02*
X0379753Y0084005D01*
X0379753Y0084810D02*
X0371879Y0084810D01*
X0371879Y0085615D02*
X0379753Y0085615D01*
X0379753Y0086420D02*
X0371879Y0086420D01*
X0371879Y0087225D02*
X0379753Y0087225D01*
X0379753Y0088029D02*
X0371879Y0088029D01*
X0371879Y0088834D02*
X0379753Y0088834D01*
X0379753Y0089639D02*
X0371879Y0089639D01*
X0371879Y0090444D02*
X0379753Y0090444D01*
X0379753Y0091249D02*
X0371879Y0091249D01*
X0371879Y0092053D02*
X0379753Y0092053D01*
X0379753Y0092858D02*
X0371879Y0092858D01*
X0371879Y0093663D02*
X0379753Y0093663D01*
X0379753Y0094468D02*
X0371879Y0094468D01*
X0371879Y0095273D02*
X0379753Y0095273D01*
X0379753Y0096077D02*
X0371879Y0096077D01*
X0371879Y0096882D02*
X0379753Y0096882D01*
X0379753Y0097687D02*
X0371879Y0097687D01*
X0371879Y0098492D02*
X0379753Y0098492D01*
X0379753Y0099297D02*
X0371879Y0099297D01*
X0371879Y0100102D02*
X0379753Y0100102D01*
X0379753Y0100906D02*
X0371879Y0100906D01*
X0371879Y0101711D02*
X0379753Y0101711D01*
X0379753Y0102516D02*
X0371879Y0102516D01*
X0371879Y0103321D02*
X0379753Y0103321D01*
X0379753Y0104126D02*
X0371879Y0104126D01*
X0371879Y0104930D02*
X0379753Y0104930D01*
X0379753Y0105735D02*
X0371879Y0105735D01*
X0371879Y0106540D02*
X0379753Y0106540D01*
X0379753Y0107345D02*
X0371879Y0107345D01*
X0371879Y0108150D02*
X0379753Y0108150D01*
X0379753Y0108954D02*
X0371879Y0108954D01*
X0371879Y0109759D02*
X0379753Y0109759D01*
X0379753Y0110564D02*
X0371879Y0110564D01*
X0371879Y0111369D02*
X0379753Y0111369D01*
X0379753Y0112174D02*
X0371879Y0112174D01*
X0371879Y0112978D02*
X0379753Y0112978D01*
X0379753Y0113783D02*
X0371879Y0113783D01*
X0371879Y0114588D02*
X0379753Y0114588D01*
X0379753Y0115393D02*
X0371879Y0115393D01*
X0371879Y0116198D02*
X0379753Y0116198D01*
X0379753Y0117003D02*
X0371879Y0117003D01*
X0371879Y0117807D02*
X0379753Y0117807D01*
X0379753Y0118612D02*
X0371879Y0118612D01*
X0363956Y0039741D02*
X0328572Y0039741D01*
X0328572Y0038936D02*
X0362950Y0038936D01*
X0361944Y0038131D02*
X0328572Y0038131D01*
X0328572Y0037326D02*
X0360938Y0037326D01*
X0360068Y0036521D02*
X0328572Y0036521D01*
X0328572Y0035717D02*
X0360068Y0035717D01*
X0360068Y0034912D02*
X0328572Y0034912D01*
X0328572Y0034107D02*
X0360068Y0034107D01*
X0360068Y0033302D02*
X0328572Y0033302D01*
X0328572Y0032497D02*
X0360068Y0032497D01*
X0360068Y0031693D02*
X0328572Y0031693D01*
X0328572Y0030888D02*
X0360068Y0030888D01*
X0360068Y0030083D02*
X0328572Y0030083D01*
X0328572Y0029278D02*
X0360068Y0029278D01*
X0360068Y0028473D02*
X0328572Y0028473D01*
X0328572Y0027669D02*
X0360068Y0027669D01*
X0360068Y0026864D02*
X0328572Y0026864D01*
X0328572Y0026059D02*
X0360068Y0026059D01*
X0360068Y0025254D02*
X0328572Y0025254D01*
X0337627Y0028756D02*
X0340383Y0028756D01*
X0349438Y0028756D02*
X0351406Y0028756D01*
D17*
X0169123Y0135843D02*
X0152587Y0118126D01*
X0169123Y0135843D02*
X0169123Y0196472D01*
D18*
X0273454Y0060252D03*
X0273454Y0044504D03*
D19*
X0241957Y0060252D03*
X0230146Y0079937D03*
X0206524Y0107496D03*
X0202587Y0355528D03*
X0135658Y0355528D03*
M02*
