%
M48
M72
T01C0.01181
T02C0.08661
%
T01
X55334Y658838
X55334Y660806
X58419Y707306
X58483Y709231
X107499Y693326
X107499Y690964
X109861Y690964
X109861Y693326
X257657Y659861
X257657Y657893
X260742Y706361
X260806Y708287
X266948Y23641
X269310Y23641
X269310Y21279
X266948Y21279
T02
X13011Y263798
X44507Y263798
X280728Y263798
X312224Y263798
X312224Y1083090
X280728Y1083090
X44507Y1083090
X13011Y1083090
M30
