%
M48
M72
T01C0.01181
T02C0.01200
T03C0.01378
T04C0.02400
T05C0.03750
T06C0.04000
T07C0.05000
T08C0.11417
T09C0.11811
%
T01
X156885Y153078
X168952Y148748
X176315Y148748
X193620Y142739
X193620Y139983
X191120Y133483
X191120Y131383
X220759Y152891
X223122Y152891
X231465Y148918
X233620Y142639
X233620Y139883
X233520Y134483
X233520Y132283
X228481Y132664
X259130Y152891
X261492Y152891
X268920Y133683
X268920Y131583
T02
X271820Y139883
X271820Y142639
T03
X281620Y140933
X284120Y144394
X281870Y153433
X279370Y153433
X276870Y172183
X276870Y174683
X265120Y172183
X261870Y168183
X246620Y172472
X242870Y169683
X245370Y162183
X239120Y162183
X226620Y169683
X221523Y172280
X225370Y175933
X231620Y175933
X211620Y158433
X209120Y158433
X207870Y170933
X207870Y175894
X198427Y208433
X192870Y208433
X176620Y207183
X171620Y207183
X173831Y234683
X176620Y238433
X173831Y263867
X176620Y268433
X170620Y315683
X168620Y315683
X166620Y315683
X220620Y315683
X222620Y315683
X224620Y315683
X275370Y260933
X275370Y250933
X267870Y240933
X265011Y255933
X295620Y225933
X295620Y223433
X295620Y220933
X295620Y218433
X298120Y218433
X298120Y220933
X298120Y223433
X298120Y225933
X300620Y225933
X303120Y225933
X305620Y225933
X321620Y234683
X321620Y236683
X321620Y238683
X323620Y238683
X323620Y236683
X323620Y234683
X325620Y234683
X325620Y236683
X325620Y238683
X311870Y199683
X309370Y199683
X306870Y199683
X304370Y199683
X301870Y199683
X301870Y197183
X299370Y197183
X299370Y199683
X304370Y197183
X302620Y189683
X302620Y187683
X300620Y187683
X298620Y187683
X298620Y189683
X300620Y189683
X300620Y180933
X298120Y180933
X298120Y178433
X300620Y178433
X303120Y178433
X303120Y180933
X303120Y163433
X303120Y160933
X300620Y160933
X298120Y160933
X298120Y163433
X300620Y163433
X316870Y159683
X319370Y162183
X242870Y142155
X241620Y145933
X180620Y140399
X178620Y140399
X165694Y153078
X78511Y285077
X76011Y285077
X73620Y303933
X73620Y306433
X104761Y298827
X107261Y298827
X312870Y310933
X312870Y313433
X331620Y320933
X331620Y323433
X334229Y344790
X336729Y344790
X361729Y316040
X364229Y316040
T04
X293264Y235970
X280961Y245813
X265213Y220715
X252418Y237447
X236070Y222683
X232156Y215201
X228535Y208954
X223520Y201433
X223520Y193933
X215016Y194140
X200252Y193156
X213048Y226620
X213048Y238431
X215016Y251226
X224859Y256148
X234701Y247289
X245528Y256148
X271119Y192171
X268658Y187742
X279977Y181344
X167772Y252211
X152024Y251226
T05
X153620Y322195
X163620Y322195
X163620Y332195
X153620Y332195
X153620Y342195
X153620Y352195
X163620Y352195
X163620Y342195
X173620Y342195
X173620Y352195
X183620Y352195
X193620Y352195
X193620Y342195
X183620Y342195
X183620Y332195
X193620Y332195
X203620Y332195
X203620Y342195
X203620Y352195
X213620Y352195
X223620Y352195
X223620Y342195
X213620Y342195
X213620Y332195
X223620Y332195
X233620Y332195
X233620Y342195
X233620Y352195
X243620Y352195
X253620Y352195
X253620Y342195
X243620Y342195
X243620Y332195
X253620Y332195
X263620Y332195
X273620Y332195
X273620Y342195
X273620Y352195
X263620Y352195
X263620Y342195
X283620Y342195
X283620Y352195
X293620Y352195
X303620Y352195
X303620Y342195
X293620Y342195
X293620Y332195
X303620Y332195
X313620Y332195
X313620Y342195
X313620Y352195
X323620Y353195
X323620Y343195
X323620Y333195
X323620Y323195
X313620Y322195
X303620Y322195
X293620Y322195
X283620Y322195
X283620Y332195
X273620Y322195
X263620Y322195
X253620Y322195
X243620Y322195
X233620Y322195
X223620Y322195
X213620Y322195
X203620Y322195
X193620Y322195
X183620Y322195
X173620Y322195
X173620Y332195
X143620Y332195
X133620Y332195
X133620Y342195
X133620Y352195
X143620Y352195
X143620Y342195
X123620Y342195
X123620Y352195
X113620Y352195
X103620Y352195
X103620Y342195
X113620Y342195
X113620Y332195
X103620Y332195
X93620Y332195
X93620Y342195
X93620Y352195
X83620Y352195
X83620Y342195
X73620Y343195
X73620Y353195
X73620Y333195
X73620Y323195
X83620Y322195
X83620Y332195
X93620Y322195
X103620Y322195
X113620Y322195
X123620Y322195
X123620Y332195
X133620Y322195
X143620Y322195
T06
X141120Y183283
X151120Y182283
X161120Y183283
X171120Y182283
X181120Y183283
X191120Y182283
X131120Y182283
X121120Y183283
T07
X52431Y275423
X52431Y291171
X102195Y52431
X117943Y52431
X350620Y299683
X365620Y289683
T08
X43108Y41171
X354132Y41171
X354132Y352195
X43108Y352195
T09
X54400Y316762
X134570Y243293
X134600Y146083
X54400Y76604
X76604Y54400
X306640Y146053
X316762Y54400
X306640Y243313
M30
