G75*
%MOIN*%
%OFA0B0*%
%FSLAX25Y25*%
%IPPOS*%
%LPD*%
%AMOC8*
5,1,8,0,0,1.08239X$1,22.5*
%
%ADD10C,0.01000*%
%ADD11R,0.05906X0.05118*%
%ADD12R,0.08661X0.02362*%
%ADD13R,0.05118X0.05906*%
%ADD14R,0.02756X0.01200*%
%ADD15R,0.04200X0.08600*%
%ADD16C,0.05200*%
%ADD17R,0.04724X0.04724*%
%ADD18R,0.06299X0.05906*%
%ADD19C,0.07400*%
%ADD20C,0.07800*%
%ADD21C,0.10050*%
%ADD22C,0.02781*%
%ADD23C,0.02400*%
%ADD24C,0.01200*%
%ADD25C,0.01600*%
%ADD26C,0.05000*%
%ADD27C,0.03200*%
D10*
X0003120Y0003962D02*
X0239341Y0003962D01*
X0239341Y0141757D01*
X0003120Y0141757D01*
X0003120Y0003962D01*
D11*
X0067334Y0021505D03*
X0067334Y0028985D03*
X0069262Y0040380D03*
X0069262Y0047860D03*
X0100070Y0044865D03*
X0100070Y0037384D03*
X0100412Y0028089D03*
X0100412Y0020608D03*
X0119095Y0068413D03*
X0119095Y0075893D03*
X0119180Y0084404D03*
X0119180Y0091884D03*
X0096427Y0106521D03*
X0088160Y0106521D03*
X0088160Y0114002D03*
X0096427Y0114002D03*
X0052206Y0091945D03*
X0052206Y0084464D03*
X0052240Y0076219D03*
X0052240Y0068739D03*
X0037061Y0117313D03*
X0037061Y0124794D03*
X0202453Y0126112D03*
X0202453Y0118632D03*
X0202720Y0093056D03*
X0202720Y0085576D03*
X0202607Y0059670D03*
X0202607Y0052189D03*
X0202399Y0028532D03*
X0202399Y0021051D03*
D12*
X0160517Y0087914D03*
X0160517Y0092914D03*
X0160517Y0097914D03*
X0160517Y0102914D03*
X0140044Y0102914D03*
X0140044Y0097914D03*
X0140044Y0092914D03*
X0140044Y0087914D03*
D13*
X0146571Y0068511D03*
X0154052Y0068511D03*
D14*
X0088414Y0035473D03*
X0088414Y0033505D03*
X0088414Y0031536D03*
X0088414Y0029568D03*
X0088414Y0027599D03*
X0077587Y0027599D03*
X0077587Y0029568D03*
X0077587Y0031536D03*
X0077587Y0033505D03*
X0077587Y0035473D03*
D15*
X0083001Y0031536D03*
D16*
X0018600Y0069979D02*
X0013400Y0069979D01*
X0013400Y0079979D02*
X0018600Y0079979D01*
X0018600Y0089979D02*
X0013400Y0089979D01*
D17*
X0092447Y0084502D03*
X0092447Y0076628D03*
D18*
X0079356Y0080565D03*
D19*
X0110601Y0106718D03*
X0110601Y0116718D03*
X0073986Y0113805D03*
X0063986Y0113805D03*
X0015327Y0114786D03*
X0015327Y0124786D03*
X0014931Y0029317D03*
X0014931Y0019317D03*
X0227401Y0018613D03*
X0227401Y0028613D03*
X0227386Y0050137D03*
X0227386Y0060137D03*
X0227398Y0083640D03*
X0227398Y0093640D03*
X0227291Y0116399D03*
X0227291Y0126399D03*
D20*
X0131860Y0074004D02*
X0131860Y0066204D01*
X0065490Y0076798D02*
X0065490Y0084598D01*
X0040916Y0085102D02*
X0040916Y0092902D01*
X0052727Y0049201D02*
X0052727Y0041401D01*
D21*
X0144439Y0032609D02*
X0144439Y0022559D01*
X0159439Y0022559D02*
X0159439Y0032609D01*
D22*
X0120111Y0065426D03*
X0117872Y0065440D03*
X0101214Y0076056D03*
X0098851Y0076056D03*
X0109420Y0098450D03*
X0111782Y0098450D03*
X0127136Y0098450D03*
X0129498Y0098450D03*
X0140190Y0084323D03*
X0140190Y0081961D03*
X0089727Y0103400D03*
X0087365Y0103400D03*
X0053113Y0065605D03*
X0050480Y0065554D03*
X0075168Y0047663D03*
X0077530Y0047663D03*
X0082917Y0033873D03*
X0082917Y0031511D03*
X0082917Y0029149D03*
X0068081Y0018135D03*
X0065719Y0018135D03*
X0098790Y0016954D03*
X0101152Y0016954D03*
X0101152Y0047663D03*
X0098790Y0047663D03*
D23*
X0100070Y0046581D02*
X0100070Y0044865D01*
X0100070Y0046581D02*
X0101152Y0047663D01*
X0117872Y0065440D02*
X0119095Y0066663D01*
X0119095Y0068413D01*
X0053113Y0067866D02*
X0053113Y0065605D01*
X0053113Y0067866D02*
X0052240Y0068739D01*
X0067334Y0021505D02*
X0068081Y0020758D01*
X0068081Y0018135D01*
X0098790Y0018986D02*
X0098790Y0016954D01*
X0099915Y0018191D02*
X0099915Y0019658D01*
X0100412Y0020608D02*
X0098790Y0018986D01*
X0099915Y0018191D02*
X0101152Y0016954D01*
X0191500Y0027459D02*
X0197908Y0021051D01*
X0202399Y0021051D01*
X0202607Y0052189D02*
X0191612Y0052189D01*
X0191500Y0052078D01*
X0191901Y0085090D02*
X0191500Y0085491D01*
X0191901Y0085090D02*
X0201798Y0085090D01*
X0202284Y0085576D01*
X0202720Y0085576D01*
X0202324Y0118503D02*
X0191644Y0118503D01*
X0202324Y0118503D02*
X0202453Y0118632D01*
D24*
X0140044Y0087914D02*
X0140044Y0084469D01*
X0140190Y0084323D01*
X0110601Y0099631D02*
X0109420Y0098450D01*
X0110601Y0099631D02*
X0110601Y0106718D01*
X0102333Y0111443D02*
X0098790Y0107899D01*
X0097805Y0107899D01*
X0096427Y0106521D01*
X0102333Y0111443D02*
X0102333Y0114986D01*
X0104065Y0116718D01*
X0110601Y0116718D01*
X0098279Y0076628D02*
X0092447Y0076628D01*
X0098279Y0076628D02*
X0098851Y0076056D01*
X0060105Y0052679D02*
X0052727Y0045301D01*
X0063357Y0034671D01*
X0072805Y0034671D01*
X0073971Y0033505D01*
X0077587Y0033505D01*
X0077587Y0035473D02*
X0072681Y0040380D01*
X0069262Y0040380D01*
X0069885Y0031536D02*
X0067334Y0028985D01*
X0068720Y0027599D01*
X0077587Y0027599D01*
X0077587Y0029568D02*
X0067917Y0029568D01*
X0067334Y0028985D01*
X0069885Y0031536D02*
X0077587Y0031536D01*
X0088414Y0031536D02*
X0096965Y0031536D01*
X0100412Y0028089D01*
X0099923Y0027599D01*
X0088414Y0027599D01*
X0088414Y0029568D02*
X0098933Y0029568D01*
X0100412Y0028089D01*
X0098159Y0035473D02*
X0088414Y0035473D01*
X0098159Y0035473D02*
X0100070Y0037384D01*
X0060105Y0052679D02*
X0150269Y0052679D01*
D25*
X0154052Y0056462D01*
X0154052Y0068511D01*
X0154108Y0068454D01*
X0167062Y0068454D01*
X0171330Y0072722D01*
X0171330Y0089333D01*
X0167748Y0092914D01*
X0160517Y0092914D01*
X0160519Y0097912D02*
X0160517Y0097914D01*
X0160519Y0097912D02*
X0167975Y0097912D01*
X0172018Y0101954D01*
X0172018Y0118529D01*
X0165754Y0124794D01*
X0119577Y0124794D01*
X0119180Y0124396D01*
X0119180Y0091884D01*
X0119180Y0084404D02*
X0119180Y0075978D01*
X0119095Y0075893D01*
X0126071Y0075893D01*
X0131860Y0070104D01*
X0133454Y0068511D01*
X0146571Y0068511D01*
X0124928Y0084404D02*
X0133383Y0092859D01*
X0139989Y0092859D01*
X0140044Y0092914D01*
X0140044Y0097914D02*
X0139508Y0098450D01*
X0129498Y0098450D01*
X0127136Y0098450D01*
X0109420Y0098450D02*
X0095472Y0084502D01*
X0092447Y0084502D01*
X0084404Y0092545D01*
X0053908Y0092545D01*
X0053308Y0091945D01*
X0052206Y0091945D01*
X0053908Y0092545D02*
X0040916Y0092545D01*
X0040916Y0089002D01*
X0040916Y0113459D01*
X0037061Y0117313D01*
X0037061Y0124786D02*
X0037061Y0124794D01*
X0119577Y0124794D01*
X0096427Y0114002D02*
X0074183Y0114002D01*
X0073986Y0113805D01*
X0088160Y0114002D02*
X0096427Y0114002D01*
X0088160Y0106521D02*
X0088160Y0104195D01*
X0087365Y0103400D01*
X0119180Y0084404D02*
X0124928Y0084404D01*
X0079356Y0080565D02*
X0079224Y0080698D01*
X0065490Y0080698D01*
X0065357Y0080565D01*
X0052596Y0080565D01*
X0052206Y0080956D01*
X0052206Y0076253D01*
X0041159Y0076253D01*
X0035010Y0070104D01*
X0016125Y0070104D01*
X0016000Y0069979D01*
X0016000Y0079979D02*
X0028350Y0079979D01*
X0040916Y0089002D01*
X0052206Y0084464D02*
X0052206Y0080956D01*
X0052206Y0076253D02*
X0052240Y0076219D01*
X0069262Y0047860D02*
X0069459Y0047663D01*
X0075168Y0047663D01*
X0037061Y0124786D02*
X0015327Y0124786D01*
X0202453Y0126112D02*
X0203921Y0126399D01*
X0227291Y0126399D01*
X0227398Y0093640D02*
X0226814Y0093056D01*
X0202720Y0093056D01*
X0203075Y0060137D02*
X0227386Y0060137D01*
X0203075Y0060137D02*
X0202607Y0059670D01*
X0202399Y0028532D02*
X0227320Y0028532D01*
X0227401Y0028613D01*
D26*
X0191500Y0027459D02*
X0191389Y0027571D01*
X0190943Y0027571D01*
X0190930Y0027584D01*
X0159439Y0027584D01*
X0144439Y0027584D02*
X0143935Y0028089D01*
X0100412Y0028089D01*
X0067334Y0028985D02*
X0067334Y0029317D01*
X0014931Y0029317D01*
D27*
X0191500Y0027459D02*
X0191500Y0052078D01*
X0191500Y0085491D01*
X0191500Y0118360D01*
X0191644Y0118503D01*
M02*
