G75*
%MOIN*%
%OFA0B0*%
%FSLAX25Y25*%
%IPPOS*%
%LPD*%
%AMOC8*
5,1,8,0,0,1.08239X$1,22.5*
%
%ADD10C,0.01000*%
%ADD11C,0.06000*%
%ADD12C,0.08200*%
%ADD13C,0.08600*%
%ADD14C,0.10850*%
%ADD15C,0.03581*%
D10*
X0003120Y0003962D02*
X0239341Y0003962D01*
X0239341Y0141757D01*
X0003120Y0141757D01*
X0003120Y0003962D01*
D11*
X0013400Y0069979D02*
X0018600Y0069979D01*
X0018600Y0079979D02*
X0013400Y0079979D01*
X0013400Y0089979D02*
X0018600Y0089979D01*
D12*
X0015327Y0114786D03*
X0015327Y0124786D03*
X0063986Y0113805D03*
X0073986Y0113805D03*
X0110601Y0116718D03*
X0110601Y0106718D03*
X0227291Y0116399D03*
X0227291Y0126399D03*
X0227398Y0093640D03*
X0227398Y0083640D03*
X0227386Y0060137D03*
X0227386Y0050137D03*
X0227401Y0028613D03*
X0227401Y0018613D03*
X0014931Y0019317D03*
X0014931Y0029317D03*
D13*
X0052727Y0041401D02*
X0052727Y0049201D01*
X0065490Y0076798D02*
X0065490Y0084598D01*
X0040916Y0085102D02*
X0040916Y0092902D01*
X0131860Y0074004D02*
X0131860Y0066204D01*
D14*
X0144439Y0032609D02*
X0144439Y0022559D01*
X0159439Y0022559D02*
X0159439Y0032609D01*
D15*
X0120111Y0065426D03*
X0117872Y0065440D03*
X0101214Y0076056D03*
X0098851Y0076056D03*
X0109420Y0098450D03*
X0111782Y0098450D03*
X0127136Y0098450D03*
X0129498Y0098450D03*
X0140190Y0084323D03*
X0140190Y0081961D03*
X0089727Y0103400D03*
X0087365Y0103400D03*
X0053113Y0065605D03*
X0050480Y0065554D03*
X0075168Y0047663D03*
X0077530Y0047663D03*
X0082917Y0033873D03*
X0082917Y0031511D03*
X0082917Y0029149D03*
X0068081Y0018135D03*
X0065719Y0018135D03*
X0098790Y0016954D03*
X0101152Y0016954D03*
X0101152Y0047663D03*
X0098790Y0047663D03*
M02*
