G75*
%MOIN*%
%OFA0B0*%
%FSLAX25Y25*%
%IPPOS*%
%LPD*%
%AMOC8*
5,1,8,0,0,1.08239X$1,22.5*
%
%ADD10C,0.00004*%
%ADD11OC8,0.07400*%
%ADD12R,0.07400X0.07400*%
%ADD13C,0.07400*%
%ADD14R,0.04724X0.02362*%
%ADD15R,0.04724X0.03150*%
%ADD16R,0.03150X0.04724*%
%ADD17R,0.02756X0.03543*%
%ADD18R,0.02402X0.04016*%
%ADD19R,0.15394X0.15000*%
%ADD20R,0.10630X0.07087*%
%ADD21R,0.06102X0.00984*%
%ADD22R,0.00984X0.06102*%
%ADD23R,0.06890X0.01575*%
%ADD24R,0.03937X0.07087*%
%ADD25C,0.00800*%
%ADD26C,0.04400*%
%ADD27C,0.02400*%
%ADD28R,0.04921X0.06299*%
%ADD29R,0.00984X0.03937*%
%ADD30R,0.03937X0.00984*%
%ADD31R,0.05512X0.04724*%
%ADD32R,0.04724X0.05512*%
%ADD33C,0.01200*%
%ADD34C,0.02978*%
%ADD35R,0.02978X0.02978*%
%ADD36C,0.00787*%
%ADD37C,0.11811*%
%ADD38C,0.02000*%
%ADD39C,0.01000*%
%ADD40C,0.01600*%
D10*
X0007306Y0019117D02*
X0046676Y0019117D01*
X0046676Y0015180D01*
X0357699Y0015180D01*
X0357699Y0019117D01*
X0397069Y0019117D01*
X0397069Y0058487D01*
X0401006Y0058487D01*
X0401006Y0369510D01*
X0397069Y0369510D01*
X0397069Y0408880D01*
X0357699Y0408880D01*
X0357699Y0412817D01*
X0046676Y0412817D01*
X0046676Y0408880D01*
X0007306Y0408880D01*
X0007306Y0369510D01*
X0003369Y0369510D01*
X0003369Y0058487D01*
X0007306Y0058487D01*
X0007306Y0019117D01*
X0011046Y0026991D02*
X0011048Y0027119D01*
X0011054Y0027247D01*
X0011064Y0027374D01*
X0011078Y0027502D01*
X0011095Y0027628D01*
X0011117Y0027754D01*
X0011143Y0027880D01*
X0011172Y0028004D01*
X0011205Y0028128D01*
X0011242Y0028250D01*
X0011283Y0028371D01*
X0011328Y0028491D01*
X0011376Y0028610D01*
X0011428Y0028727D01*
X0011484Y0028842D01*
X0011543Y0028956D01*
X0011605Y0029067D01*
X0011671Y0029177D01*
X0011740Y0029284D01*
X0011813Y0029390D01*
X0011889Y0029493D01*
X0011968Y0029593D01*
X0012050Y0029692D01*
X0012135Y0029787D01*
X0012223Y0029880D01*
X0012314Y0029970D01*
X0012407Y0030057D01*
X0012504Y0030142D01*
X0012602Y0030223D01*
X0012704Y0030301D01*
X0012807Y0030376D01*
X0012913Y0030448D01*
X0013021Y0030517D01*
X0013131Y0030582D01*
X0013244Y0030643D01*
X0013358Y0030702D01*
X0013473Y0030756D01*
X0013591Y0030807D01*
X0013709Y0030855D01*
X0013830Y0030898D01*
X0013951Y0030938D01*
X0014074Y0030974D01*
X0014198Y0031007D01*
X0014323Y0031035D01*
X0014448Y0031060D01*
X0014574Y0031080D01*
X0014701Y0031097D01*
X0014829Y0031110D01*
X0014956Y0031119D01*
X0015084Y0031124D01*
X0015212Y0031125D01*
X0015340Y0031122D01*
X0015468Y0031115D01*
X0015595Y0031104D01*
X0015722Y0031089D01*
X0015849Y0031071D01*
X0015975Y0031048D01*
X0016100Y0031021D01*
X0016224Y0030991D01*
X0016347Y0030957D01*
X0016470Y0030919D01*
X0016591Y0030877D01*
X0016710Y0030831D01*
X0016828Y0030782D01*
X0016945Y0030729D01*
X0017060Y0030673D01*
X0017173Y0030613D01*
X0017284Y0030550D01*
X0017393Y0030483D01*
X0017500Y0030413D01*
X0017605Y0030339D01*
X0017707Y0030263D01*
X0017807Y0030183D01*
X0017905Y0030100D01*
X0018000Y0030014D01*
X0018092Y0029925D01*
X0018181Y0029834D01*
X0018268Y0029740D01*
X0018351Y0029643D01*
X0018432Y0029543D01*
X0018509Y0029442D01*
X0018584Y0029337D01*
X0018655Y0029231D01*
X0018722Y0029122D01*
X0018787Y0029012D01*
X0018847Y0028899D01*
X0018905Y0028785D01*
X0018958Y0028669D01*
X0019008Y0028551D01*
X0019055Y0028432D01*
X0019098Y0028311D01*
X0019137Y0028189D01*
X0019172Y0028066D01*
X0019203Y0027942D01*
X0019231Y0027817D01*
X0019254Y0027691D01*
X0019274Y0027565D01*
X0019290Y0027438D01*
X0019302Y0027311D01*
X0019310Y0027183D01*
X0019314Y0027055D01*
X0019314Y0026927D01*
X0019310Y0026799D01*
X0019302Y0026671D01*
X0019290Y0026544D01*
X0019274Y0026417D01*
X0019254Y0026291D01*
X0019231Y0026165D01*
X0019203Y0026040D01*
X0019172Y0025916D01*
X0019137Y0025793D01*
X0019098Y0025671D01*
X0019055Y0025550D01*
X0019008Y0025431D01*
X0018958Y0025313D01*
X0018905Y0025197D01*
X0018847Y0025083D01*
X0018787Y0024970D01*
X0018722Y0024860D01*
X0018655Y0024751D01*
X0018584Y0024645D01*
X0018509Y0024540D01*
X0018432Y0024439D01*
X0018351Y0024339D01*
X0018268Y0024242D01*
X0018181Y0024148D01*
X0018092Y0024057D01*
X0018000Y0023968D01*
X0017905Y0023882D01*
X0017807Y0023799D01*
X0017707Y0023719D01*
X0017605Y0023643D01*
X0017500Y0023569D01*
X0017393Y0023499D01*
X0017284Y0023432D01*
X0017173Y0023369D01*
X0017060Y0023309D01*
X0016945Y0023253D01*
X0016828Y0023200D01*
X0016710Y0023151D01*
X0016591Y0023105D01*
X0016470Y0023063D01*
X0016347Y0023025D01*
X0016224Y0022991D01*
X0016100Y0022961D01*
X0015975Y0022934D01*
X0015849Y0022911D01*
X0015722Y0022893D01*
X0015595Y0022878D01*
X0015468Y0022867D01*
X0015340Y0022860D01*
X0015212Y0022857D01*
X0015084Y0022858D01*
X0014956Y0022863D01*
X0014829Y0022872D01*
X0014701Y0022885D01*
X0014574Y0022902D01*
X0014448Y0022922D01*
X0014323Y0022947D01*
X0014198Y0022975D01*
X0014074Y0023008D01*
X0013951Y0023044D01*
X0013830Y0023084D01*
X0013709Y0023127D01*
X0013591Y0023175D01*
X0013473Y0023226D01*
X0013358Y0023280D01*
X0013244Y0023339D01*
X0013131Y0023400D01*
X0013021Y0023465D01*
X0012913Y0023534D01*
X0012807Y0023606D01*
X0012704Y0023681D01*
X0012602Y0023759D01*
X0012504Y0023840D01*
X0012407Y0023925D01*
X0012314Y0024012D01*
X0012223Y0024102D01*
X0012135Y0024195D01*
X0012050Y0024290D01*
X0011968Y0024389D01*
X0011889Y0024489D01*
X0011813Y0024592D01*
X0011740Y0024698D01*
X0011671Y0024805D01*
X0011605Y0024915D01*
X0011543Y0025026D01*
X0011484Y0025140D01*
X0011428Y0025255D01*
X0011376Y0025372D01*
X0011328Y0025491D01*
X0011283Y0025611D01*
X0011242Y0025732D01*
X0011205Y0025854D01*
X0011172Y0025978D01*
X0011143Y0026102D01*
X0011117Y0026228D01*
X0011095Y0026354D01*
X0011078Y0026480D01*
X0011064Y0026608D01*
X0011054Y0026735D01*
X0011048Y0026863D01*
X0011046Y0026991D01*
X0034176Y0058487D02*
X0034180Y0058794D01*
X0034191Y0059100D01*
X0034210Y0059407D01*
X0034236Y0059712D01*
X0034270Y0060017D01*
X0034311Y0060321D01*
X0034360Y0060624D01*
X0034416Y0060926D01*
X0034480Y0061226D01*
X0034551Y0061524D01*
X0034629Y0061821D01*
X0034714Y0062116D01*
X0034807Y0062408D01*
X0034907Y0062698D01*
X0035014Y0062986D01*
X0035128Y0063271D01*
X0035248Y0063553D01*
X0035376Y0063831D01*
X0035511Y0064107D01*
X0035652Y0064379D01*
X0035800Y0064648D01*
X0035954Y0064913D01*
X0036115Y0065174D01*
X0036283Y0065432D01*
X0036456Y0065685D01*
X0036636Y0065933D01*
X0036822Y0066177D01*
X0037013Y0066417D01*
X0037211Y0066652D01*
X0037414Y0066881D01*
X0037623Y0067106D01*
X0037837Y0067326D01*
X0038057Y0067540D01*
X0038282Y0067749D01*
X0038511Y0067952D01*
X0038746Y0068150D01*
X0038986Y0068341D01*
X0039230Y0068527D01*
X0039478Y0068707D01*
X0039731Y0068880D01*
X0039989Y0069048D01*
X0040250Y0069209D01*
X0040515Y0069363D01*
X0040784Y0069511D01*
X0041056Y0069652D01*
X0041332Y0069787D01*
X0041610Y0069915D01*
X0041892Y0070035D01*
X0042177Y0070149D01*
X0042465Y0070256D01*
X0042755Y0070356D01*
X0043047Y0070449D01*
X0043342Y0070534D01*
X0043639Y0070612D01*
X0043937Y0070683D01*
X0044237Y0070747D01*
X0044539Y0070803D01*
X0044842Y0070852D01*
X0045146Y0070893D01*
X0045451Y0070927D01*
X0045756Y0070953D01*
X0046063Y0070972D01*
X0046369Y0070983D01*
X0046676Y0070987D01*
X0046983Y0070983D01*
X0047289Y0070972D01*
X0047596Y0070953D01*
X0047901Y0070927D01*
X0048206Y0070893D01*
X0048510Y0070852D01*
X0048813Y0070803D01*
X0049115Y0070747D01*
X0049415Y0070683D01*
X0049713Y0070612D01*
X0050010Y0070534D01*
X0050305Y0070449D01*
X0050597Y0070356D01*
X0050887Y0070256D01*
X0051175Y0070149D01*
X0051460Y0070035D01*
X0051742Y0069915D01*
X0052020Y0069787D01*
X0052296Y0069652D01*
X0052568Y0069511D01*
X0052837Y0069363D01*
X0053102Y0069209D01*
X0053363Y0069048D01*
X0053621Y0068880D01*
X0053874Y0068707D01*
X0054122Y0068527D01*
X0054366Y0068341D01*
X0054606Y0068150D01*
X0054841Y0067952D01*
X0055070Y0067749D01*
X0055295Y0067540D01*
X0055515Y0067326D01*
X0055729Y0067106D01*
X0055938Y0066881D01*
X0056141Y0066652D01*
X0056339Y0066417D01*
X0056530Y0066177D01*
X0056716Y0065933D01*
X0056896Y0065685D01*
X0057069Y0065432D01*
X0057237Y0065174D01*
X0057398Y0064913D01*
X0057552Y0064648D01*
X0057700Y0064379D01*
X0057841Y0064107D01*
X0057976Y0063831D01*
X0058104Y0063553D01*
X0058224Y0063271D01*
X0058338Y0062986D01*
X0058445Y0062698D01*
X0058545Y0062408D01*
X0058638Y0062116D01*
X0058723Y0061821D01*
X0058801Y0061524D01*
X0058872Y0061226D01*
X0058936Y0060926D01*
X0058992Y0060624D01*
X0059041Y0060321D01*
X0059082Y0060017D01*
X0059116Y0059712D01*
X0059142Y0059407D01*
X0059161Y0059100D01*
X0059172Y0058794D01*
X0059176Y0058487D01*
X0059172Y0058180D01*
X0059161Y0057874D01*
X0059142Y0057567D01*
X0059116Y0057262D01*
X0059082Y0056957D01*
X0059041Y0056653D01*
X0058992Y0056350D01*
X0058936Y0056048D01*
X0058872Y0055748D01*
X0058801Y0055450D01*
X0058723Y0055153D01*
X0058638Y0054858D01*
X0058545Y0054566D01*
X0058445Y0054276D01*
X0058338Y0053988D01*
X0058224Y0053703D01*
X0058104Y0053421D01*
X0057976Y0053143D01*
X0057841Y0052867D01*
X0057700Y0052595D01*
X0057552Y0052326D01*
X0057398Y0052061D01*
X0057237Y0051800D01*
X0057069Y0051542D01*
X0056896Y0051289D01*
X0056716Y0051041D01*
X0056530Y0050797D01*
X0056339Y0050557D01*
X0056141Y0050322D01*
X0055938Y0050093D01*
X0055729Y0049868D01*
X0055515Y0049648D01*
X0055295Y0049434D01*
X0055070Y0049225D01*
X0054841Y0049022D01*
X0054606Y0048824D01*
X0054366Y0048633D01*
X0054122Y0048447D01*
X0053874Y0048267D01*
X0053621Y0048094D01*
X0053363Y0047926D01*
X0053102Y0047765D01*
X0052837Y0047611D01*
X0052568Y0047463D01*
X0052296Y0047322D01*
X0052020Y0047187D01*
X0051742Y0047059D01*
X0051460Y0046939D01*
X0051175Y0046825D01*
X0050887Y0046718D01*
X0050597Y0046618D01*
X0050305Y0046525D01*
X0050010Y0046440D01*
X0049713Y0046362D01*
X0049415Y0046291D01*
X0049115Y0046227D01*
X0048813Y0046171D01*
X0048510Y0046122D01*
X0048206Y0046081D01*
X0047901Y0046047D01*
X0047596Y0046021D01*
X0047289Y0046002D01*
X0046983Y0045991D01*
X0046676Y0045987D01*
X0046369Y0045991D01*
X0046063Y0046002D01*
X0045756Y0046021D01*
X0045451Y0046047D01*
X0045146Y0046081D01*
X0044842Y0046122D01*
X0044539Y0046171D01*
X0044237Y0046227D01*
X0043937Y0046291D01*
X0043639Y0046362D01*
X0043342Y0046440D01*
X0043047Y0046525D01*
X0042755Y0046618D01*
X0042465Y0046718D01*
X0042177Y0046825D01*
X0041892Y0046939D01*
X0041610Y0047059D01*
X0041332Y0047187D01*
X0041056Y0047322D01*
X0040784Y0047463D01*
X0040515Y0047611D01*
X0040250Y0047765D01*
X0039989Y0047926D01*
X0039731Y0048094D01*
X0039478Y0048267D01*
X0039230Y0048447D01*
X0038986Y0048633D01*
X0038746Y0048824D01*
X0038511Y0049022D01*
X0038282Y0049225D01*
X0038057Y0049434D01*
X0037837Y0049648D01*
X0037623Y0049868D01*
X0037414Y0050093D01*
X0037211Y0050322D01*
X0037013Y0050557D01*
X0036822Y0050797D01*
X0036636Y0051041D01*
X0036456Y0051289D01*
X0036283Y0051542D01*
X0036115Y0051800D01*
X0035954Y0052061D01*
X0035800Y0052326D01*
X0035652Y0052595D01*
X0035511Y0052867D01*
X0035376Y0053143D01*
X0035248Y0053421D01*
X0035128Y0053703D01*
X0035014Y0053988D01*
X0034907Y0054276D01*
X0034807Y0054566D01*
X0034714Y0054858D01*
X0034629Y0055153D01*
X0034551Y0055450D01*
X0034480Y0055748D01*
X0034416Y0056048D01*
X0034360Y0056350D01*
X0034311Y0056653D01*
X0034270Y0056957D01*
X0034236Y0057262D01*
X0034210Y0057567D01*
X0034191Y0057874D01*
X0034180Y0058180D01*
X0034176Y0058487D01*
X0016163Y0115573D02*
X0016165Y0115724D01*
X0016171Y0115874D01*
X0016181Y0116025D01*
X0016195Y0116175D01*
X0016213Y0116324D01*
X0016234Y0116474D01*
X0016260Y0116622D01*
X0016290Y0116770D01*
X0016323Y0116917D01*
X0016361Y0117063D01*
X0016402Y0117208D01*
X0016447Y0117352D01*
X0016496Y0117494D01*
X0016549Y0117635D01*
X0016605Y0117775D01*
X0016665Y0117913D01*
X0016728Y0118050D01*
X0016796Y0118185D01*
X0016866Y0118318D01*
X0016940Y0118449D01*
X0017018Y0118578D01*
X0017099Y0118705D01*
X0017183Y0118830D01*
X0017271Y0118953D01*
X0017362Y0119073D01*
X0017456Y0119191D01*
X0017553Y0119306D01*
X0017653Y0119419D01*
X0017756Y0119529D01*
X0017862Y0119636D01*
X0017971Y0119741D01*
X0018082Y0119842D01*
X0018196Y0119941D01*
X0018312Y0120036D01*
X0018432Y0120129D01*
X0018553Y0120218D01*
X0018677Y0120304D01*
X0018803Y0120387D01*
X0018931Y0120466D01*
X0019061Y0120542D01*
X0019193Y0120615D01*
X0019327Y0120683D01*
X0019463Y0120749D01*
X0019601Y0120811D01*
X0019740Y0120869D01*
X0019880Y0120923D01*
X0020022Y0120974D01*
X0020165Y0121021D01*
X0020310Y0121064D01*
X0020455Y0121103D01*
X0020602Y0121139D01*
X0020749Y0121170D01*
X0020897Y0121198D01*
X0021046Y0121222D01*
X0021195Y0121242D01*
X0021345Y0121258D01*
X0021495Y0121270D01*
X0021646Y0121278D01*
X0021797Y0121282D01*
X0021947Y0121282D01*
X0022098Y0121278D01*
X0022249Y0121270D01*
X0022399Y0121258D01*
X0022549Y0121242D01*
X0022698Y0121222D01*
X0022847Y0121198D01*
X0022995Y0121170D01*
X0023142Y0121139D01*
X0023289Y0121103D01*
X0023434Y0121064D01*
X0023579Y0121021D01*
X0023722Y0120974D01*
X0023864Y0120923D01*
X0024004Y0120869D01*
X0024143Y0120811D01*
X0024281Y0120749D01*
X0024417Y0120683D01*
X0024551Y0120615D01*
X0024683Y0120542D01*
X0024813Y0120466D01*
X0024941Y0120387D01*
X0025067Y0120304D01*
X0025191Y0120218D01*
X0025312Y0120129D01*
X0025432Y0120036D01*
X0025548Y0119941D01*
X0025662Y0119842D01*
X0025773Y0119741D01*
X0025882Y0119636D01*
X0025988Y0119529D01*
X0026091Y0119419D01*
X0026191Y0119306D01*
X0026288Y0119191D01*
X0026382Y0119073D01*
X0026473Y0118953D01*
X0026561Y0118830D01*
X0026645Y0118705D01*
X0026726Y0118578D01*
X0026804Y0118449D01*
X0026878Y0118318D01*
X0026948Y0118185D01*
X0027016Y0118050D01*
X0027079Y0117913D01*
X0027139Y0117775D01*
X0027195Y0117635D01*
X0027248Y0117494D01*
X0027297Y0117352D01*
X0027342Y0117208D01*
X0027383Y0117063D01*
X0027421Y0116917D01*
X0027454Y0116770D01*
X0027484Y0116622D01*
X0027510Y0116474D01*
X0027531Y0116324D01*
X0027549Y0116175D01*
X0027563Y0116025D01*
X0027573Y0115874D01*
X0027579Y0115724D01*
X0027581Y0115573D01*
X0027579Y0115422D01*
X0027573Y0115272D01*
X0027563Y0115121D01*
X0027549Y0114971D01*
X0027531Y0114822D01*
X0027510Y0114672D01*
X0027484Y0114524D01*
X0027454Y0114376D01*
X0027421Y0114229D01*
X0027383Y0114083D01*
X0027342Y0113938D01*
X0027297Y0113794D01*
X0027248Y0113652D01*
X0027195Y0113511D01*
X0027139Y0113371D01*
X0027079Y0113233D01*
X0027016Y0113096D01*
X0026948Y0112961D01*
X0026878Y0112828D01*
X0026804Y0112697D01*
X0026726Y0112568D01*
X0026645Y0112441D01*
X0026561Y0112316D01*
X0026473Y0112193D01*
X0026382Y0112073D01*
X0026288Y0111955D01*
X0026191Y0111840D01*
X0026091Y0111727D01*
X0025988Y0111617D01*
X0025882Y0111510D01*
X0025773Y0111405D01*
X0025662Y0111304D01*
X0025548Y0111205D01*
X0025432Y0111110D01*
X0025312Y0111017D01*
X0025191Y0110928D01*
X0025067Y0110842D01*
X0024941Y0110759D01*
X0024813Y0110680D01*
X0024683Y0110604D01*
X0024551Y0110531D01*
X0024417Y0110463D01*
X0024281Y0110397D01*
X0024143Y0110335D01*
X0024004Y0110277D01*
X0023864Y0110223D01*
X0023722Y0110172D01*
X0023579Y0110125D01*
X0023434Y0110082D01*
X0023289Y0110043D01*
X0023142Y0110007D01*
X0022995Y0109976D01*
X0022847Y0109948D01*
X0022698Y0109924D01*
X0022549Y0109904D01*
X0022399Y0109888D01*
X0022249Y0109876D01*
X0022098Y0109868D01*
X0021947Y0109864D01*
X0021797Y0109864D01*
X0021646Y0109868D01*
X0021495Y0109876D01*
X0021345Y0109888D01*
X0021195Y0109904D01*
X0021046Y0109924D01*
X0020897Y0109948D01*
X0020749Y0109976D01*
X0020602Y0110007D01*
X0020455Y0110043D01*
X0020310Y0110082D01*
X0020165Y0110125D01*
X0020022Y0110172D01*
X0019880Y0110223D01*
X0019740Y0110277D01*
X0019601Y0110335D01*
X0019463Y0110397D01*
X0019327Y0110463D01*
X0019193Y0110531D01*
X0019061Y0110604D01*
X0018931Y0110680D01*
X0018803Y0110759D01*
X0018677Y0110842D01*
X0018553Y0110928D01*
X0018432Y0111017D01*
X0018312Y0111110D01*
X0018196Y0111205D01*
X0018082Y0111304D01*
X0017971Y0111405D01*
X0017862Y0111510D01*
X0017756Y0111617D01*
X0017653Y0111727D01*
X0017553Y0111840D01*
X0017456Y0111955D01*
X0017362Y0112073D01*
X0017271Y0112193D01*
X0017183Y0112316D01*
X0017099Y0112441D01*
X0017018Y0112568D01*
X0016940Y0112697D01*
X0016866Y0112828D01*
X0016796Y0112961D01*
X0016728Y0113096D01*
X0016665Y0113233D01*
X0016605Y0113371D01*
X0016549Y0113511D01*
X0016496Y0113652D01*
X0016447Y0113794D01*
X0016402Y0113938D01*
X0016361Y0114083D01*
X0016323Y0114229D01*
X0016290Y0114376D01*
X0016260Y0114524D01*
X0016234Y0114672D01*
X0016213Y0114822D01*
X0016195Y0114971D01*
X0016181Y0115121D01*
X0016171Y0115272D01*
X0016165Y0115422D01*
X0016163Y0115573D01*
X0014668Y0213998D02*
X0014670Y0214131D01*
X0014676Y0214264D01*
X0014686Y0214397D01*
X0014700Y0214529D01*
X0014718Y0214661D01*
X0014739Y0214792D01*
X0014765Y0214923D01*
X0014795Y0215053D01*
X0014828Y0215182D01*
X0014866Y0215309D01*
X0014907Y0215436D01*
X0014952Y0215561D01*
X0015000Y0215685D01*
X0015053Y0215808D01*
X0015109Y0215928D01*
X0015168Y0216047D01*
X0015231Y0216165D01*
X0015298Y0216280D01*
X0015368Y0216393D01*
X0015441Y0216504D01*
X0015518Y0216613D01*
X0015598Y0216720D01*
X0015681Y0216824D01*
X0015767Y0216925D01*
X0015856Y0217024D01*
X0015948Y0217120D01*
X0016042Y0217214D01*
X0016140Y0217304D01*
X0016240Y0217392D01*
X0016343Y0217476D01*
X0016448Y0217558D01*
X0016556Y0217636D01*
X0016666Y0217711D01*
X0016778Y0217783D01*
X0016893Y0217851D01*
X0017009Y0217916D01*
X0017127Y0217977D01*
X0017247Y0218035D01*
X0017368Y0218089D01*
X0017492Y0218139D01*
X0017616Y0218186D01*
X0017742Y0218229D01*
X0017869Y0218268D01*
X0017998Y0218304D01*
X0018127Y0218335D01*
X0018257Y0218363D01*
X0018388Y0218387D01*
X0018520Y0218407D01*
X0018652Y0218423D01*
X0018785Y0218435D01*
X0018917Y0218443D01*
X0019050Y0218447D01*
X0019184Y0218447D01*
X0019317Y0218443D01*
X0019449Y0218435D01*
X0019582Y0218423D01*
X0019714Y0218407D01*
X0019846Y0218387D01*
X0019977Y0218363D01*
X0020107Y0218335D01*
X0020236Y0218304D01*
X0020365Y0218268D01*
X0020492Y0218229D01*
X0020618Y0218186D01*
X0020742Y0218139D01*
X0020866Y0218089D01*
X0020987Y0218035D01*
X0021107Y0217977D01*
X0021225Y0217916D01*
X0021342Y0217851D01*
X0021456Y0217783D01*
X0021568Y0217711D01*
X0021678Y0217636D01*
X0021786Y0217558D01*
X0021891Y0217476D01*
X0021994Y0217392D01*
X0022094Y0217304D01*
X0022192Y0217214D01*
X0022286Y0217120D01*
X0022378Y0217024D01*
X0022467Y0216925D01*
X0022553Y0216824D01*
X0022636Y0216720D01*
X0022716Y0216613D01*
X0022793Y0216504D01*
X0022866Y0216393D01*
X0022936Y0216280D01*
X0023003Y0216165D01*
X0023066Y0216047D01*
X0023125Y0215928D01*
X0023181Y0215808D01*
X0023234Y0215685D01*
X0023282Y0215561D01*
X0023327Y0215436D01*
X0023368Y0215309D01*
X0023406Y0215182D01*
X0023439Y0215053D01*
X0023469Y0214923D01*
X0023495Y0214792D01*
X0023516Y0214661D01*
X0023534Y0214529D01*
X0023548Y0214397D01*
X0023558Y0214264D01*
X0023564Y0214131D01*
X0023566Y0213998D01*
X0023564Y0213865D01*
X0023558Y0213732D01*
X0023548Y0213599D01*
X0023534Y0213467D01*
X0023516Y0213335D01*
X0023495Y0213204D01*
X0023469Y0213073D01*
X0023439Y0212943D01*
X0023406Y0212814D01*
X0023368Y0212687D01*
X0023327Y0212560D01*
X0023282Y0212435D01*
X0023234Y0212311D01*
X0023181Y0212188D01*
X0023125Y0212068D01*
X0023066Y0211949D01*
X0023003Y0211831D01*
X0022936Y0211716D01*
X0022866Y0211603D01*
X0022793Y0211492D01*
X0022716Y0211383D01*
X0022636Y0211276D01*
X0022553Y0211172D01*
X0022467Y0211071D01*
X0022378Y0210972D01*
X0022286Y0210876D01*
X0022192Y0210782D01*
X0022094Y0210692D01*
X0021994Y0210604D01*
X0021891Y0210520D01*
X0021786Y0210438D01*
X0021678Y0210360D01*
X0021568Y0210285D01*
X0021456Y0210213D01*
X0021341Y0210145D01*
X0021225Y0210080D01*
X0021107Y0210019D01*
X0020987Y0209961D01*
X0020866Y0209907D01*
X0020742Y0209857D01*
X0020618Y0209810D01*
X0020492Y0209767D01*
X0020365Y0209728D01*
X0020236Y0209692D01*
X0020107Y0209661D01*
X0019977Y0209633D01*
X0019846Y0209609D01*
X0019714Y0209589D01*
X0019582Y0209573D01*
X0019449Y0209561D01*
X0019317Y0209553D01*
X0019184Y0209549D01*
X0019050Y0209549D01*
X0018917Y0209553D01*
X0018785Y0209561D01*
X0018652Y0209573D01*
X0018520Y0209589D01*
X0018388Y0209609D01*
X0018257Y0209633D01*
X0018127Y0209661D01*
X0017998Y0209692D01*
X0017869Y0209728D01*
X0017742Y0209767D01*
X0017616Y0209810D01*
X0017492Y0209857D01*
X0017368Y0209907D01*
X0017247Y0209961D01*
X0017127Y0210019D01*
X0017009Y0210080D01*
X0016892Y0210145D01*
X0016778Y0210213D01*
X0016666Y0210285D01*
X0016556Y0210360D01*
X0016448Y0210438D01*
X0016343Y0210520D01*
X0016240Y0210604D01*
X0016140Y0210692D01*
X0016042Y0210782D01*
X0015948Y0210876D01*
X0015856Y0210972D01*
X0015767Y0211071D01*
X0015681Y0211172D01*
X0015598Y0211276D01*
X0015518Y0211383D01*
X0015441Y0211492D01*
X0015368Y0211603D01*
X0015298Y0211716D01*
X0015231Y0211831D01*
X0015168Y0211949D01*
X0015109Y0212068D01*
X0015053Y0212188D01*
X0015000Y0212311D01*
X0014952Y0212435D01*
X0014907Y0212560D01*
X0014866Y0212687D01*
X0014828Y0212814D01*
X0014795Y0212943D01*
X0014765Y0213073D01*
X0014739Y0213204D01*
X0014718Y0213335D01*
X0014700Y0213467D01*
X0014686Y0213599D01*
X0014676Y0213732D01*
X0014670Y0213865D01*
X0014668Y0213998D01*
X0016163Y0311243D02*
X0016165Y0311394D01*
X0016171Y0311544D01*
X0016181Y0311695D01*
X0016195Y0311845D01*
X0016213Y0311994D01*
X0016234Y0312144D01*
X0016260Y0312292D01*
X0016290Y0312440D01*
X0016323Y0312587D01*
X0016361Y0312733D01*
X0016402Y0312878D01*
X0016447Y0313022D01*
X0016496Y0313164D01*
X0016549Y0313305D01*
X0016605Y0313445D01*
X0016665Y0313583D01*
X0016728Y0313720D01*
X0016796Y0313855D01*
X0016866Y0313988D01*
X0016940Y0314119D01*
X0017018Y0314248D01*
X0017099Y0314375D01*
X0017183Y0314500D01*
X0017271Y0314623D01*
X0017362Y0314743D01*
X0017456Y0314861D01*
X0017553Y0314976D01*
X0017653Y0315089D01*
X0017756Y0315199D01*
X0017862Y0315306D01*
X0017971Y0315411D01*
X0018082Y0315512D01*
X0018196Y0315611D01*
X0018312Y0315706D01*
X0018432Y0315799D01*
X0018553Y0315888D01*
X0018677Y0315974D01*
X0018803Y0316057D01*
X0018931Y0316136D01*
X0019061Y0316212D01*
X0019193Y0316285D01*
X0019327Y0316353D01*
X0019463Y0316419D01*
X0019601Y0316481D01*
X0019740Y0316539D01*
X0019880Y0316593D01*
X0020022Y0316644D01*
X0020165Y0316691D01*
X0020310Y0316734D01*
X0020455Y0316773D01*
X0020602Y0316809D01*
X0020749Y0316840D01*
X0020897Y0316868D01*
X0021046Y0316892D01*
X0021195Y0316912D01*
X0021345Y0316928D01*
X0021495Y0316940D01*
X0021646Y0316948D01*
X0021797Y0316952D01*
X0021947Y0316952D01*
X0022098Y0316948D01*
X0022249Y0316940D01*
X0022399Y0316928D01*
X0022549Y0316912D01*
X0022698Y0316892D01*
X0022847Y0316868D01*
X0022995Y0316840D01*
X0023142Y0316809D01*
X0023289Y0316773D01*
X0023434Y0316734D01*
X0023579Y0316691D01*
X0023722Y0316644D01*
X0023864Y0316593D01*
X0024004Y0316539D01*
X0024143Y0316481D01*
X0024281Y0316419D01*
X0024417Y0316353D01*
X0024551Y0316285D01*
X0024683Y0316212D01*
X0024813Y0316136D01*
X0024941Y0316057D01*
X0025067Y0315974D01*
X0025191Y0315888D01*
X0025312Y0315799D01*
X0025432Y0315706D01*
X0025548Y0315611D01*
X0025662Y0315512D01*
X0025773Y0315411D01*
X0025882Y0315306D01*
X0025988Y0315199D01*
X0026091Y0315089D01*
X0026191Y0314976D01*
X0026288Y0314861D01*
X0026382Y0314743D01*
X0026473Y0314623D01*
X0026561Y0314500D01*
X0026645Y0314375D01*
X0026726Y0314248D01*
X0026804Y0314119D01*
X0026878Y0313988D01*
X0026948Y0313855D01*
X0027016Y0313720D01*
X0027079Y0313583D01*
X0027139Y0313445D01*
X0027195Y0313305D01*
X0027248Y0313164D01*
X0027297Y0313022D01*
X0027342Y0312878D01*
X0027383Y0312733D01*
X0027421Y0312587D01*
X0027454Y0312440D01*
X0027484Y0312292D01*
X0027510Y0312144D01*
X0027531Y0311994D01*
X0027549Y0311845D01*
X0027563Y0311695D01*
X0027573Y0311544D01*
X0027579Y0311394D01*
X0027581Y0311243D01*
X0027579Y0311092D01*
X0027573Y0310942D01*
X0027563Y0310791D01*
X0027549Y0310641D01*
X0027531Y0310492D01*
X0027510Y0310342D01*
X0027484Y0310194D01*
X0027454Y0310046D01*
X0027421Y0309899D01*
X0027383Y0309753D01*
X0027342Y0309608D01*
X0027297Y0309464D01*
X0027248Y0309322D01*
X0027195Y0309181D01*
X0027139Y0309041D01*
X0027079Y0308903D01*
X0027016Y0308766D01*
X0026948Y0308631D01*
X0026878Y0308498D01*
X0026804Y0308367D01*
X0026726Y0308238D01*
X0026645Y0308111D01*
X0026561Y0307986D01*
X0026473Y0307863D01*
X0026382Y0307743D01*
X0026288Y0307625D01*
X0026191Y0307510D01*
X0026091Y0307397D01*
X0025988Y0307287D01*
X0025882Y0307180D01*
X0025773Y0307075D01*
X0025662Y0306974D01*
X0025548Y0306875D01*
X0025432Y0306780D01*
X0025312Y0306687D01*
X0025191Y0306598D01*
X0025067Y0306512D01*
X0024941Y0306429D01*
X0024813Y0306350D01*
X0024683Y0306274D01*
X0024551Y0306201D01*
X0024417Y0306133D01*
X0024281Y0306067D01*
X0024143Y0306005D01*
X0024004Y0305947D01*
X0023864Y0305893D01*
X0023722Y0305842D01*
X0023579Y0305795D01*
X0023434Y0305752D01*
X0023289Y0305713D01*
X0023142Y0305677D01*
X0022995Y0305646D01*
X0022847Y0305618D01*
X0022698Y0305594D01*
X0022549Y0305574D01*
X0022399Y0305558D01*
X0022249Y0305546D01*
X0022098Y0305538D01*
X0021947Y0305534D01*
X0021797Y0305534D01*
X0021646Y0305538D01*
X0021495Y0305546D01*
X0021345Y0305558D01*
X0021195Y0305574D01*
X0021046Y0305594D01*
X0020897Y0305618D01*
X0020749Y0305646D01*
X0020602Y0305677D01*
X0020455Y0305713D01*
X0020310Y0305752D01*
X0020165Y0305795D01*
X0020022Y0305842D01*
X0019880Y0305893D01*
X0019740Y0305947D01*
X0019601Y0306005D01*
X0019463Y0306067D01*
X0019327Y0306133D01*
X0019193Y0306201D01*
X0019061Y0306274D01*
X0018931Y0306350D01*
X0018803Y0306429D01*
X0018677Y0306512D01*
X0018553Y0306598D01*
X0018432Y0306687D01*
X0018312Y0306780D01*
X0018196Y0306875D01*
X0018082Y0306974D01*
X0017971Y0307075D01*
X0017862Y0307180D01*
X0017756Y0307287D01*
X0017653Y0307397D01*
X0017553Y0307510D01*
X0017456Y0307625D01*
X0017362Y0307743D01*
X0017271Y0307863D01*
X0017183Y0307986D01*
X0017099Y0308111D01*
X0017018Y0308238D01*
X0016940Y0308367D01*
X0016866Y0308498D01*
X0016796Y0308631D01*
X0016728Y0308766D01*
X0016665Y0308903D01*
X0016605Y0309041D01*
X0016549Y0309181D01*
X0016496Y0309322D01*
X0016447Y0309464D01*
X0016402Y0309608D01*
X0016361Y0309753D01*
X0016323Y0309899D01*
X0016290Y0310046D01*
X0016260Y0310194D01*
X0016234Y0310342D01*
X0016213Y0310492D01*
X0016195Y0310641D01*
X0016181Y0310791D01*
X0016171Y0310942D01*
X0016165Y0311092D01*
X0016163Y0311243D01*
X0034176Y0369510D02*
X0034180Y0369817D01*
X0034191Y0370123D01*
X0034210Y0370430D01*
X0034236Y0370735D01*
X0034270Y0371040D01*
X0034311Y0371344D01*
X0034360Y0371647D01*
X0034416Y0371949D01*
X0034480Y0372249D01*
X0034551Y0372547D01*
X0034629Y0372844D01*
X0034714Y0373139D01*
X0034807Y0373431D01*
X0034907Y0373721D01*
X0035014Y0374009D01*
X0035128Y0374294D01*
X0035248Y0374576D01*
X0035376Y0374854D01*
X0035511Y0375130D01*
X0035652Y0375402D01*
X0035800Y0375671D01*
X0035954Y0375936D01*
X0036115Y0376197D01*
X0036283Y0376455D01*
X0036456Y0376708D01*
X0036636Y0376956D01*
X0036822Y0377200D01*
X0037013Y0377440D01*
X0037211Y0377675D01*
X0037414Y0377904D01*
X0037623Y0378129D01*
X0037837Y0378349D01*
X0038057Y0378563D01*
X0038282Y0378772D01*
X0038511Y0378975D01*
X0038746Y0379173D01*
X0038986Y0379364D01*
X0039230Y0379550D01*
X0039478Y0379730D01*
X0039731Y0379903D01*
X0039989Y0380071D01*
X0040250Y0380232D01*
X0040515Y0380386D01*
X0040784Y0380534D01*
X0041056Y0380675D01*
X0041332Y0380810D01*
X0041610Y0380938D01*
X0041892Y0381058D01*
X0042177Y0381172D01*
X0042465Y0381279D01*
X0042755Y0381379D01*
X0043047Y0381472D01*
X0043342Y0381557D01*
X0043639Y0381635D01*
X0043937Y0381706D01*
X0044237Y0381770D01*
X0044539Y0381826D01*
X0044842Y0381875D01*
X0045146Y0381916D01*
X0045451Y0381950D01*
X0045756Y0381976D01*
X0046063Y0381995D01*
X0046369Y0382006D01*
X0046676Y0382010D01*
X0046983Y0382006D01*
X0047289Y0381995D01*
X0047596Y0381976D01*
X0047901Y0381950D01*
X0048206Y0381916D01*
X0048510Y0381875D01*
X0048813Y0381826D01*
X0049115Y0381770D01*
X0049415Y0381706D01*
X0049713Y0381635D01*
X0050010Y0381557D01*
X0050305Y0381472D01*
X0050597Y0381379D01*
X0050887Y0381279D01*
X0051175Y0381172D01*
X0051460Y0381058D01*
X0051742Y0380938D01*
X0052020Y0380810D01*
X0052296Y0380675D01*
X0052568Y0380534D01*
X0052837Y0380386D01*
X0053102Y0380232D01*
X0053363Y0380071D01*
X0053621Y0379903D01*
X0053874Y0379730D01*
X0054122Y0379550D01*
X0054366Y0379364D01*
X0054606Y0379173D01*
X0054841Y0378975D01*
X0055070Y0378772D01*
X0055295Y0378563D01*
X0055515Y0378349D01*
X0055729Y0378129D01*
X0055938Y0377904D01*
X0056141Y0377675D01*
X0056339Y0377440D01*
X0056530Y0377200D01*
X0056716Y0376956D01*
X0056896Y0376708D01*
X0057069Y0376455D01*
X0057237Y0376197D01*
X0057398Y0375936D01*
X0057552Y0375671D01*
X0057700Y0375402D01*
X0057841Y0375130D01*
X0057976Y0374854D01*
X0058104Y0374576D01*
X0058224Y0374294D01*
X0058338Y0374009D01*
X0058445Y0373721D01*
X0058545Y0373431D01*
X0058638Y0373139D01*
X0058723Y0372844D01*
X0058801Y0372547D01*
X0058872Y0372249D01*
X0058936Y0371949D01*
X0058992Y0371647D01*
X0059041Y0371344D01*
X0059082Y0371040D01*
X0059116Y0370735D01*
X0059142Y0370430D01*
X0059161Y0370123D01*
X0059172Y0369817D01*
X0059176Y0369510D01*
X0059172Y0369203D01*
X0059161Y0368897D01*
X0059142Y0368590D01*
X0059116Y0368285D01*
X0059082Y0367980D01*
X0059041Y0367676D01*
X0058992Y0367373D01*
X0058936Y0367071D01*
X0058872Y0366771D01*
X0058801Y0366473D01*
X0058723Y0366176D01*
X0058638Y0365881D01*
X0058545Y0365589D01*
X0058445Y0365299D01*
X0058338Y0365011D01*
X0058224Y0364726D01*
X0058104Y0364444D01*
X0057976Y0364166D01*
X0057841Y0363890D01*
X0057700Y0363618D01*
X0057552Y0363349D01*
X0057398Y0363084D01*
X0057237Y0362823D01*
X0057069Y0362565D01*
X0056896Y0362312D01*
X0056716Y0362064D01*
X0056530Y0361820D01*
X0056339Y0361580D01*
X0056141Y0361345D01*
X0055938Y0361116D01*
X0055729Y0360891D01*
X0055515Y0360671D01*
X0055295Y0360457D01*
X0055070Y0360248D01*
X0054841Y0360045D01*
X0054606Y0359847D01*
X0054366Y0359656D01*
X0054122Y0359470D01*
X0053874Y0359290D01*
X0053621Y0359117D01*
X0053363Y0358949D01*
X0053102Y0358788D01*
X0052837Y0358634D01*
X0052568Y0358486D01*
X0052296Y0358345D01*
X0052020Y0358210D01*
X0051742Y0358082D01*
X0051460Y0357962D01*
X0051175Y0357848D01*
X0050887Y0357741D01*
X0050597Y0357641D01*
X0050305Y0357548D01*
X0050010Y0357463D01*
X0049713Y0357385D01*
X0049415Y0357314D01*
X0049115Y0357250D01*
X0048813Y0357194D01*
X0048510Y0357145D01*
X0048206Y0357104D01*
X0047901Y0357070D01*
X0047596Y0357044D01*
X0047289Y0357025D01*
X0046983Y0357014D01*
X0046676Y0357010D01*
X0046369Y0357014D01*
X0046063Y0357025D01*
X0045756Y0357044D01*
X0045451Y0357070D01*
X0045146Y0357104D01*
X0044842Y0357145D01*
X0044539Y0357194D01*
X0044237Y0357250D01*
X0043937Y0357314D01*
X0043639Y0357385D01*
X0043342Y0357463D01*
X0043047Y0357548D01*
X0042755Y0357641D01*
X0042465Y0357741D01*
X0042177Y0357848D01*
X0041892Y0357962D01*
X0041610Y0358082D01*
X0041332Y0358210D01*
X0041056Y0358345D01*
X0040784Y0358486D01*
X0040515Y0358634D01*
X0040250Y0358788D01*
X0039989Y0358949D01*
X0039731Y0359117D01*
X0039478Y0359290D01*
X0039230Y0359470D01*
X0038986Y0359656D01*
X0038746Y0359847D01*
X0038511Y0360045D01*
X0038282Y0360248D01*
X0038057Y0360457D01*
X0037837Y0360671D01*
X0037623Y0360891D01*
X0037414Y0361116D01*
X0037211Y0361345D01*
X0037013Y0361580D01*
X0036822Y0361820D01*
X0036636Y0362064D01*
X0036456Y0362312D01*
X0036283Y0362565D01*
X0036115Y0362823D01*
X0035954Y0363084D01*
X0035800Y0363349D01*
X0035652Y0363618D01*
X0035511Y0363890D01*
X0035376Y0364166D01*
X0035248Y0364444D01*
X0035128Y0364726D01*
X0035014Y0365011D01*
X0034907Y0365299D01*
X0034807Y0365589D01*
X0034714Y0365881D01*
X0034629Y0366176D01*
X0034551Y0366473D01*
X0034480Y0366771D01*
X0034416Y0367071D01*
X0034360Y0367373D01*
X0034311Y0367676D01*
X0034270Y0367980D01*
X0034236Y0368285D01*
X0034210Y0368590D01*
X0034191Y0368897D01*
X0034180Y0369203D01*
X0034176Y0369510D01*
X0011046Y0401006D02*
X0011048Y0401134D01*
X0011054Y0401262D01*
X0011064Y0401389D01*
X0011078Y0401517D01*
X0011095Y0401643D01*
X0011117Y0401769D01*
X0011143Y0401895D01*
X0011172Y0402019D01*
X0011205Y0402143D01*
X0011242Y0402265D01*
X0011283Y0402386D01*
X0011328Y0402506D01*
X0011376Y0402625D01*
X0011428Y0402742D01*
X0011484Y0402857D01*
X0011543Y0402971D01*
X0011605Y0403082D01*
X0011671Y0403192D01*
X0011740Y0403299D01*
X0011813Y0403405D01*
X0011889Y0403508D01*
X0011968Y0403608D01*
X0012050Y0403707D01*
X0012135Y0403802D01*
X0012223Y0403895D01*
X0012314Y0403985D01*
X0012407Y0404072D01*
X0012504Y0404157D01*
X0012602Y0404238D01*
X0012704Y0404316D01*
X0012807Y0404391D01*
X0012913Y0404463D01*
X0013021Y0404532D01*
X0013131Y0404597D01*
X0013244Y0404658D01*
X0013358Y0404717D01*
X0013473Y0404771D01*
X0013591Y0404822D01*
X0013709Y0404870D01*
X0013830Y0404913D01*
X0013951Y0404953D01*
X0014074Y0404989D01*
X0014198Y0405022D01*
X0014323Y0405050D01*
X0014448Y0405075D01*
X0014574Y0405095D01*
X0014701Y0405112D01*
X0014829Y0405125D01*
X0014956Y0405134D01*
X0015084Y0405139D01*
X0015212Y0405140D01*
X0015340Y0405137D01*
X0015468Y0405130D01*
X0015595Y0405119D01*
X0015722Y0405104D01*
X0015849Y0405086D01*
X0015975Y0405063D01*
X0016100Y0405036D01*
X0016224Y0405006D01*
X0016347Y0404972D01*
X0016470Y0404934D01*
X0016591Y0404892D01*
X0016710Y0404846D01*
X0016828Y0404797D01*
X0016945Y0404744D01*
X0017060Y0404688D01*
X0017173Y0404628D01*
X0017284Y0404565D01*
X0017393Y0404498D01*
X0017500Y0404428D01*
X0017605Y0404354D01*
X0017707Y0404278D01*
X0017807Y0404198D01*
X0017905Y0404115D01*
X0018000Y0404029D01*
X0018092Y0403940D01*
X0018181Y0403849D01*
X0018268Y0403755D01*
X0018351Y0403658D01*
X0018432Y0403558D01*
X0018509Y0403457D01*
X0018584Y0403352D01*
X0018655Y0403246D01*
X0018722Y0403137D01*
X0018787Y0403027D01*
X0018847Y0402914D01*
X0018905Y0402800D01*
X0018958Y0402684D01*
X0019008Y0402566D01*
X0019055Y0402447D01*
X0019098Y0402326D01*
X0019137Y0402204D01*
X0019172Y0402081D01*
X0019203Y0401957D01*
X0019231Y0401832D01*
X0019254Y0401706D01*
X0019274Y0401580D01*
X0019290Y0401453D01*
X0019302Y0401326D01*
X0019310Y0401198D01*
X0019314Y0401070D01*
X0019314Y0400942D01*
X0019310Y0400814D01*
X0019302Y0400686D01*
X0019290Y0400559D01*
X0019274Y0400432D01*
X0019254Y0400306D01*
X0019231Y0400180D01*
X0019203Y0400055D01*
X0019172Y0399931D01*
X0019137Y0399808D01*
X0019098Y0399686D01*
X0019055Y0399565D01*
X0019008Y0399446D01*
X0018958Y0399328D01*
X0018905Y0399212D01*
X0018847Y0399098D01*
X0018787Y0398985D01*
X0018722Y0398875D01*
X0018655Y0398766D01*
X0018584Y0398660D01*
X0018509Y0398555D01*
X0018432Y0398454D01*
X0018351Y0398354D01*
X0018268Y0398257D01*
X0018181Y0398163D01*
X0018092Y0398072D01*
X0018000Y0397983D01*
X0017905Y0397897D01*
X0017807Y0397814D01*
X0017707Y0397734D01*
X0017605Y0397658D01*
X0017500Y0397584D01*
X0017393Y0397514D01*
X0017284Y0397447D01*
X0017173Y0397384D01*
X0017060Y0397324D01*
X0016945Y0397268D01*
X0016828Y0397215D01*
X0016710Y0397166D01*
X0016591Y0397120D01*
X0016470Y0397078D01*
X0016347Y0397040D01*
X0016224Y0397006D01*
X0016100Y0396976D01*
X0015975Y0396949D01*
X0015849Y0396926D01*
X0015722Y0396908D01*
X0015595Y0396893D01*
X0015468Y0396882D01*
X0015340Y0396875D01*
X0015212Y0396872D01*
X0015084Y0396873D01*
X0014956Y0396878D01*
X0014829Y0396887D01*
X0014701Y0396900D01*
X0014574Y0396917D01*
X0014448Y0396937D01*
X0014323Y0396962D01*
X0014198Y0396990D01*
X0014074Y0397023D01*
X0013951Y0397059D01*
X0013830Y0397099D01*
X0013709Y0397142D01*
X0013591Y0397190D01*
X0013473Y0397241D01*
X0013358Y0397295D01*
X0013244Y0397354D01*
X0013131Y0397415D01*
X0013021Y0397480D01*
X0012913Y0397549D01*
X0012807Y0397621D01*
X0012704Y0397696D01*
X0012602Y0397774D01*
X0012504Y0397855D01*
X0012407Y0397940D01*
X0012314Y0398027D01*
X0012223Y0398117D01*
X0012135Y0398210D01*
X0012050Y0398305D01*
X0011968Y0398404D01*
X0011889Y0398504D01*
X0011813Y0398607D01*
X0011740Y0398713D01*
X0011671Y0398820D01*
X0011605Y0398930D01*
X0011543Y0399041D01*
X0011484Y0399155D01*
X0011428Y0399270D01*
X0011376Y0399387D01*
X0011328Y0399506D01*
X0011283Y0399626D01*
X0011242Y0399747D01*
X0011205Y0399869D01*
X0011172Y0399993D01*
X0011143Y0400117D01*
X0011117Y0400243D01*
X0011095Y0400369D01*
X0011078Y0400495D01*
X0011064Y0400623D01*
X0011054Y0400750D01*
X0011048Y0400878D01*
X0011046Y0401006D01*
X0099234Y0394313D02*
X0099236Y0394464D01*
X0099242Y0394614D01*
X0099252Y0394765D01*
X0099266Y0394915D01*
X0099284Y0395064D01*
X0099305Y0395214D01*
X0099331Y0395362D01*
X0099361Y0395510D01*
X0099394Y0395657D01*
X0099432Y0395803D01*
X0099473Y0395948D01*
X0099518Y0396092D01*
X0099567Y0396234D01*
X0099620Y0396375D01*
X0099676Y0396515D01*
X0099736Y0396653D01*
X0099799Y0396790D01*
X0099867Y0396925D01*
X0099937Y0397058D01*
X0100011Y0397189D01*
X0100089Y0397318D01*
X0100170Y0397445D01*
X0100254Y0397570D01*
X0100342Y0397693D01*
X0100433Y0397813D01*
X0100527Y0397931D01*
X0100624Y0398046D01*
X0100724Y0398159D01*
X0100827Y0398269D01*
X0100933Y0398376D01*
X0101042Y0398481D01*
X0101153Y0398582D01*
X0101267Y0398681D01*
X0101383Y0398776D01*
X0101503Y0398869D01*
X0101624Y0398958D01*
X0101748Y0399044D01*
X0101874Y0399127D01*
X0102002Y0399206D01*
X0102132Y0399282D01*
X0102264Y0399355D01*
X0102398Y0399423D01*
X0102534Y0399489D01*
X0102672Y0399551D01*
X0102811Y0399609D01*
X0102951Y0399663D01*
X0103093Y0399714D01*
X0103236Y0399761D01*
X0103381Y0399804D01*
X0103526Y0399843D01*
X0103673Y0399879D01*
X0103820Y0399910D01*
X0103968Y0399938D01*
X0104117Y0399962D01*
X0104266Y0399982D01*
X0104416Y0399998D01*
X0104566Y0400010D01*
X0104717Y0400018D01*
X0104868Y0400022D01*
X0105018Y0400022D01*
X0105169Y0400018D01*
X0105320Y0400010D01*
X0105470Y0399998D01*
X0105620Y0399982D01*
X0105769Y0399962D01*
X0105918Y0399938D01*
X0106066Y0399910D01*
X0106213Y0399879D01*
X0106360Y0399843D01*
X0106505Y0399804D01*
X0106650Y0399761D01*
X0106793Y0399714D01*
X0106935Y0399663D01*
X0107075Y0399609D01*
X0107214Y0399551D01*
X0107352Y0399489D01*
X0107488Y0399423D01*
X0107622Y0399355D01*
X0107754Y0399282D01*
X0107884Y0399206D01*
X0108012Y0399127D01*
X0108138Y0399044D01*
X0108262Y0398958D01*
X0108383Y0398869D01*
X0108503Y0398776D01*
X0108619Y0398681D01*
X0108733Y0398582D01*
X0108844Y0398481D01*
X0108953Y0398376D01*
X0109059Y0398269D01*
X0109162Y0398159D01*
X0109262Y0398046D01*
X0109359Y0397931D01*
X0109453Y0397813D01*
X0109544Y0397693D01*
X0109632Y0397570D01*
X0109716Y0397445D01*
X0109797Y0397318D01*
X0109875Y0397189D01*
X0109949Y0397058D01*
X0110019Y0396925D01*
X0110087Y0396790D01*
X0110150Y0396653D01*
X0110210Y0396515D01*
X0110266Y0396375D01*
X0110319Y0396234D01*
X0110368Y0396092D01*
X0110413Y0395948D01*
X0110454Y0395803D01*
X0110492Y0395657D01*
X0110525Y0395510D01*
X0110555Y0395362D01*
X0110581Y0395214D01*
X0110602Y0395064D01*
X0110620Y0394915D01*
X0110634Y0394765D01*
X0110644Y0394614D01*
X0110650Y0394464D01*
X0110652Y0394313D01*
X0110650Y0394162D01*
X0110644Y0394012D01*
X0110634Y0393861D01*
X0110620Y0393711D01*
X0110602Y0393562D01*
X0110581Y0393412D01*
X0110555Y0393264D01*
X0110525Y0393116D01*
X0110492Y0392969D01*
X0110454Y0392823D01*
X0110413Y0392678D01*
X0110368Y0392534D01*
X0110319Y0392392D01*
X0110266Y0392251D01*
X0110210Y0392111D01*
X0110150Y0391973D01*
X0110087Y0391836D01*
X0110019Y0391701D01*
X0109949Y0391568D01*
X0109875Y0391437D01*
X0109797Y0391308D01*
X0109716Y0391181D01*
X0109632Y0391056D01*
X0109544Y0390933D01*
X0109453Y0390813D01*
X0109359Y0390695D01*
X0109262Y0390580D01*
X0109162Y0390467D01*
X0109059Y0390357D01*
X0108953Y0390250D01*
X0108844Y0390145D01*
X0108733Y0390044D01*
X0108619Y0389945D01*
X0108503Y0389850D01*
X0108383Y0389757D01*
X0108262Y0389668D01*
X0108138Y0389582D01*
X0108012Y0389499D01*
X0107884Y0389420D01*
X0107754Y0389344D01*
X0107622Y0389271D01*
X0107488Y0389203D01*
X0107352Y0389137D01*
X0107214Y0389075D01*
X0107075Y0389017D01*
X0106935Y0388963D01*
X0106793Y0388912D01*
X0106650Y0388865D01*
X0106505Y0388822D01*
X0106360Y0388783D01*
X0106213Y0388747D01*
X0106066Y0388716D01*
X0105918Y0388688D01*
X0105769Y0388664D01*
X0105620Y0388644D01*
X0105470Y0388628D01*
X0105320Y0388616D01*
X0105169Y0388608D01*
X0105018Y0388604D01*
X0104868Y0388604D01*
X0104717Y0388608D01*
X0104566Y0388616D01*
X0104416Y0388628D01*
X0104266Y0388644D01*
X0104117Y0388664D01*
X0103968Y0388688D01*
X0103820Y0388716D01*
X0103673Y0388747D01*
X0103526Y0388783D01*
X0103381Y0388822D01*
X0103236Y0388865D01*
X0103093Y0388912D01*
X0102951Y0388963D01*
X0102811Y0389017D01*
X0102672Y0389075D01*
X0102534Y0389137D01*
X0102398Y0389203D01*
X0102264Y0389271D01*
X0102132Y0389344D01*
X0102002Y0389420D01*
X0101874Y0389499D01*
X0101748Y0389582D01*
X0101624Y0389668D01*
X0101503Y0389757D01*
X0101383Y0389850D01*
X0101267Y0389945D01*
X0101153Y0390044D01*
X0101042Y0390145D01*
X0100933Y0390250D01*
X0100827Y0390357D01*
X0100724Y0390467D01*
X0100624Y0390580D01*
X0100527Y0390695D01*
X0100433Y0390813D01*
X0100342Y0390933D01*
X0100254Y0391056D01*
X0100170Y0391181D01*
X0100089Y0391308D01*
X0100011Y0391437D01*
X0099937Y0391568D01*
X0099867Y0391701D01*
X0099799Y0391836D01*
X0099736Y0391973D01*
X0099676Y0392111D01*
X0099620Y0392251D01*
X0099567Y0392392D01*
X0099518Y0392534D01*
X0099473Y0392678D01*
X0099432Y0392823D01*
X0099394Y0392969D01*
X0099361Y0393116D01*
X0099331Y0393264D01*
X0099305Y0393412D01*
X0099284Y0393562D01*
X0099266Y0393711D01*
X0099252Y0393861D01*
X0099242Y0394012D01*
X0099236Y0394162D01*
X0099234Y0394313D01*
X0293722Y0394313D02*
X0293724Y0394464D01*
X0293730Y0394614D01*
X0293740Y0394765D01*
X0293754Y0394915D01*
X0293772Y0395064D01*
X0293793Y0395214D01*
X0293819Y0395362D01*
X0293849Y0395510D01*
X0293882Y0395657D01*
X0293920Y0395803D01*
X0293961Y0395948D01*
X0294006Y0396092D01*
X0294055Y0396234D01*
X0294108Y0396375D01*
X0294164Y0396515D01*
X0294224Y0396653D01*
X0294287Y0396790D01*
X0294355Y0396925D01*
X0294425Y0397058D01*
X0294499Y0397189D01*
X0294577Y0397318D01*
X0294658Y0397445D01*
X0294742Y0397570D01*
X0294830Y0397693D01*
X0294921Y0397813D01*
X0295015Y0397931D01*
X0295112Y0398046D01*
X0295212Y0398159D01*
X0295315Y0398269D01*
X0295421Y0398376D01*
X0295530Y0398481D01*
X0295641Y0398582D01*
X0295755Y0398681D01*
X0295871Y0398776D01*
X0295991Y0398869D01*
X0296112Y0398958D01*
X0296236Y0399044D01*
X0296362Y0399127D01*
X0296490Y0399206D01*
X0296620Y0399282D01*
X0296752Y0399355D01*
X0296886Y0399423D01*
X0297022Y0399489D01*
X0297160Y0399551D01*
X0297299Y0399609D01*
X0297439Y0399663D01*
X0297581Y0399714D01*
X0297724Y0399761D01*
X0297869Y0399804D01*
X0298014Y0399843D01*
X0298161Y0399879D01*
X0298308Y0399910D01*
X0298456Y0399938D01*
X0298605Y0399962D01*
X0298754Y0399982D01*
X0298904Y0399998D01*
X0299054Y0400010D01*
X0299205Y0400018D01*
X0299356Y0400022D01*
X0299506Y0400022D01*
X0299657Y0400018D01*
X0299808Y0400010D01*
X0299958Y0399998D01*
X0300108Y0399982D01*
X0300257Y0399962D01*
X0300406Y0399938D01*
X0300554Y0399910D01*
X0300701Y0399879D01*
X0300848Y0399843D01*
X0300993Y0399804D01*
X0301138Y0399761D01*
X0301281Y0399714D01*
X0301423Y0399663D01*
X0301563Y0399609D01*
X0301702Y0399551D01*
X0301840Y0399489D01*
X0301976Y0399423D01*
X0302110Y0399355D01*
X0302242Y0399282D01*
X0302372Y0399206D01*
X0302500Y0399127D01*
X0302626Y0399044D01*
X0302750Y0398958D01*
X0302871Y0398869D01*
X0302991Y0398776D01*
X0303107Y0398681D01*
X0303221Y0398582D01*
X0303332Y0398481D01*
X0303441Y0398376D01*
X0303547Y0398269D01*
X0303650Y0398159D01*
X0303750Y0398046D01*
X0303847Y0397931D01*
X0303941Y0397813D01*
X0304032Y0397693D01*
X0304120Y0397570D01*
X0304204Y0397445D01*
X0304285Y0397318D01*
X0304363Y0397189D01*
X0304437Y0397058D01*
X0304507Y0396925D01*
X0304575Y0396790D01*
X0304638Y0396653D01*
X0304698Y0396515D01*
X0304754Y0396375D01*
X0304807Y0396234D01*
X0304856Y0396092D01*
X0304901Y0395948D01*
X0304942Y0395803D01*
X0304980Y0395657D01*
X0305013Y0395510D01*
X0305043Y0395362D01*
X0305069Y0395214D01*
X0305090Y0395064D01*
X0305108Y0394915D01*
X0305122Y0394765D01*
X0305132Y0394614D01*
X0305138Y0394464D01*
X0305140Y0394313D01*
X0305138Y0394162D01*
X0305132Y0394012D01*
X0305122Y0393861D01*
X0305108Y0393711D01*
X0305090Y0393562D01*
X0305069Y0393412D01*
X0305043Y0393264D01*
X0305013Y0393116D01*
X0304980Y0392969D01*
X0304942Y0392823D01*
X0304901Y0392678D01*
X0304856Y0392534D01*
X0304807Y0392392D01*
X0304754Y0392251D01*
X0304698Y0392111D01*
X0304638Y0391973D01*
X0304575Y0391836D01*
X0304507Y0391701D01*
X0304437Y0391568D01*
X0304363Y0391437D01*
X0304285Y0391308D01*
X0304204Y0391181D01*
X0304120Y0391056D01*
X0304032Y0390933D01*
X0303941Y0390813D01*
X0303847Y0390695D01*
X0303750Y0390580D01*
X0303650Y0390467D01*
X0303547Y0390357D01*
X0303441Y0390250D01*
X0303332Y0390145D01*
X0303221Y0390044D01*
X0303107Y0389945D01*
X0302991Y0389850D01*
X0302871Y0389757D01*
X0302750Y0389668D01*
X0302626Y0389582D01*
X0302500Y0389499D01*
X0302372Y0389420D01*
X0302242Y0389344D01*
X0302110Y0389271D01*
X0301976Y0389203D01*
X0301840Y0389137D01*
X0301702Y0389075D01*
X0301563Y0389017D01*
X0301423Y0388963D01*
X0301281Y0388912D01*
X0301138Y0388865D01*
X0300993Y0388822D01*
X0300848Y0388783D01*
X0300701Y0388747D01*
X0300554Y0388716D01*
X0300406Y0388688D01*
X0300257Y0388664D01*
X0300108Y0388644D01*
X0299958Y0388628D01*
X0299808Y0388616D01*
X0299657Y0388608D01*
X0299506Y0388604D01*
X0299356Y0388604D01*
X0299205Y0388608D01*
X0299054Y0388616D01*
X0298904Y0388628D01*
X0298754Y0388644D01*
X0298605Y0388664D01*
X0298456Y0388688D01*
X0298308Y0388716D01*
X0298161Y0388747D01*
X0298014Y0388783D01*
X0297869Y0388822D01*
X0297724Y0388865D01*
X0297581Y0388912D01*
X0297439Y0388963D01*
X0297299Y0389017D01*
X0297160Y0389075D01*
X0297022Y0389137D01*
X0296886Y0389203D01*
X0296752Y0389271D01*
X0296620Y0389344D01*
X0296490Y0389420D01*
X0296362Y0389499D01*
X0296236Y0389582D01*
X0296112Y0389668D01*
X0295991Y0389757D01*
X0295871Y0389850D01*
X0295755Y0389945D01*
X0295641Y0390044D01*
X0295530Y0390145D01*
X0295421Y0390250D01*
X0295315Y0390357D01*
X0295212Y0390467D01*
X0295112Y0390580D01*
X0295015Y0390695D01*
X0294921Y0390813D01*
X0294830Y0390933D01*
X0294742Y0391056D01*
X0294658Y0391181D01*
X0294577Y0391308D01*
X0294499Y0391437D01*
X0294425Y0391568D01*
X0294355Y0391701D01*
X0294287Y0391836D01*
X0294224Y0391973D01*
X0294164Y0392111D01*
X0294108Y0392251D01*
X0294055Y0392392D01*
X0294006Y0392534D01*
X0293961Y0392678D01*
X0293920Y0392823D01*
X0293882Y0392969D01*
X0293849Y0393116D01*
X0293819Y0393264D01*
X0293793Y0393412D01*
X0293772Y0393562D01*
X0293754Y0393711D01*
X0293740Y0393861D01*
X0293730Y0394012D01*
X0293724Y0394162D01*
X0293722Y0394313D01*
X0345199Y0369510D02*
X0345203Y0369817D01*
X0345214Y0370123D01*
X0345233Y0370430D01*
X0345259Y0370735D01*
X0345293Y0371040D01*
X0345334Y0371344D01*
X0345383Y0371647D01*
X0345439Y0371949D01*
X0345503Y0372249D01*
X0345574Y0372547D01*
X0345652Y0372844D01*
X0345737Y0373139D01*
X0345830Y0373431D01*
X0345930Y0373721D01*
X0346037Y0374009D01*
X0346151Y0374294D01*
X0346271Y0374576D01*
X0346399Y0374854D01*
X0346534Y0375130D01*
X0346675Y0375402D01*
X0346823Y0375671D01*
X0346977Y0375936D01*
X0347138Y0376197D01*
X0347306Y0376455D01*
X0347479Y0376708D01*
X0347659Y0376956D01*
X0347845Y0377200D01*
X0348036Y0377440D01*
X0348234Y0377675D01*
X0348437Y0377904D01*
X0348646Y0378129D01*
X0348860Y0378349D01*
X0349080Y0378563D01*
X0349305Y0378772D01*
X0349534Y0378975D01*
X0349769Y0379173D01*
X0350009Y0379364D01*
X0350253Y0379550D01*
X0350501Y0379730D01*
X0350754Y0379903D01*
X0351012Y0380071D01*
X0351273Y0380232D01*
X0351538Y0380386D01*
X0351807Y0380534D01*
X0352079Y0380675D01*
X0352355Y0380810D01*
X0352633Y0380938D01*
X0352915Y0381058D01*
X0353200Y0381172D01*
X0353488Y0381279D01*
X0353778Y0381379D01*
X0354070Y0381472D01*
X0354365Y0381557D01*
X0354662Y0381635D01*
X0354960Y0381706D01*
X0355260Y0381770D01*
X0355562Y0381826D01*
X0355865Y0381875D01*
X0356169Y0381916D01*
X0356474Y0381950D01*
X0356779Y0381976D01*
X0357086Y0381995D01*
X0357392Y0382006D01*
X0357699Y0382010D01*
X0358006Y0382006D01*
X0358312Y0381995D01*
X0358619Y0381976D01*
X0358924Y0381950D01*
X0359229Y0381916D01*
X0359533Y0381875D01*
X0359836Y0381826D01*
X0360138Y0381770D01*
X0360438Y0381706D01*
X0360736Y0381635D01*
X0361033Y0381557D01*
X0361328Y0381472D01*
X0361620Y0381379D01*
X0361910Y0381279D01*
X0362198Y0381172D01*
X0362483Y0381058D01*
X0362765Y0380938D01*
X0363043Y0380810D01*
X0363319Y0380675D01*
X0363591Y0380534D01*
X0363860Y0380386D01*
X0364125Y0380232D01*
X0364386Y0380071D01*
X0364644Y0379903D01*
X0364897Y0379730D01*
X0365145Y0379550D01*
X0365389Y0379364D01*
X0365629Y0379173D01*
X0365864Y0378975D01*
X0366093Y0378772D01*
X0366318Y0378563D01*
X0366538Y0378349D01*
X0366752Y0378129D01*
X0366961Y0377904D01*
X0367164Y0377675D01*
X0367362Y0377440D01*
X0367553Y0377200D01*
X0367739Y0376956D01*
X0367919Y0376708D01*
X0368092Y0376455D01*
X0368260Y0376197D01*
X0368421Y0375936D01*
X0368575Y0375671D01*
X0368723Y0375402D01*
X0368864Y0375130D01*
X0368999Y0374854D01*
X0369127Y0374576D01*
X0369247Y0374294D01*
X0369361Y0374009D01*
X0369468Y0373721D01*
X0369568Y0373431D01*
X0369661Y0373139D01*
X0369746Y0372844D01*
X0369824Y0372547D01*
X0369895Y0372249D01*
X0369959Y0371949D01*
X0370015Y0371647D01*
X0370064Y0371344D01*
X0370105Y0371040D01*
X0370139Y0370735D01*
X0370165Y0370430D01*
X0370184Y0370123D01*
X0370195Y0369817D01*
X0370199Y0369510D01*
X0370195Y0369203D01*
X0370184Y0368897D01*
X0370165Y0368590D01*
X0370139Y0368285D01*
X0370105Y0367980D01*
X0370064Y0367676D01*
X0370015Y0367373D01*
X0369959Y0367071D01*
X0369895Y0366771D01*
X0369824Y0366473D01*
X0369746Y0366176D01*
X0369661Y0365881D01*
X0369568Y0365589D01*
X0369468Y0365299D01*
X0369361Y0365011D01*
X0369247Y0364726D01*
X0369127Y0364444D01*
X0368999Y0364166D01*
X0368864Y0363890D01*
X0368723Y0363618D01*
X0368575Y0363349D01*
X0368421Y0363084D01*
X0368260Y0362823D01*
X0368092Y0362565D01*
X0367919Y0362312D01*
X0367739Y0362064D01*
X0367553Y0361820D01*
X0367362Y0361580D01*
X0367164Y0361345D01*
X0366961Y0361116D01*
X0366752Y0360891D01*
X0366538Y0360671D01*
X0366318Y0360457D01*
X0366093Y0360248D01*
X0365864Y0360045D01*
X0365629Y0359847D01*
X0365389Y0359656D01*
X0365145Y0359470D01*
X0364897Y0359290D01*
X0364644Y0359117D01*
X0364386Y0358949D01*
X0364125Y0358788D01*
X0363860Y0358634D01*
X0363591Y0358486D01*
X0363319Y0358345D01*
X0363043Y0358210D01*
X0362765Y0358082D01*
X0362483Y0357962D01*
X0362198Y0357848D01*
X0361910Y0357741D01*
X0361620Y0357641D01*
X0361328Y0357548D01*
X0361033Y0357463D01*
X0360736Y0357385D01*
X0360438Y0357314D01*
X0360138Y0357250D01*
X0359836Y0357194D01*
X0359533Y0357145D01*
X0359229Y0357104D01*
X0358924Y0357070D01*
X0358619Y0357044D01*
X0358312Y0357025D01*
X0358006Y0357014D01*
X0357699Y0357010D01*
X0357392Y0357014D01*
X0357086Y0357025D01*
X0356779Y0357044D01*
X0356474Y0357070D01*
X0356169Y0357104D01*
X0355865Y0357145D01*
X0355562Y0357194D01*
X0355260Y0357250D01*
X0354960Y0357314D01*
X0354662Y0357385D01*
X0354365Y0357463D01*
X0354070Y0357548D01*
X0353778Y0357641D01*
X0353488Y0357741D01*
X0353200Y0357848D01*
X0352915Y0357962D01*
X0352633Y0358082D01*
X0352355Y0358210D01*
X0352079Y0358345D01*
X0351807Y0358486D01*
X0351538Y0358634D01*
X0351273Y0358788D01*
X0351012Y0358949D01*
X0350754Y0359117D01*
X0350501Y0359290D01*
X0350253Y0359470D01*
X0350009Y0359656D01*
X0349769Y0359847D01*
X0349534Y0360045D01*
X0349305Y0360248D01*
X0349080Y0360457D01*
X0348860Y0360671D01*
X0348646Y0360891D01*
X0348437Y0361116D01*
X0348234Y0361345D01*
X0348036Y0361580D01*
X0347845Y0361820D01*
X0347659Y0362064D01*
X0347479Y0362312D01*
X0347306Y0362565D01*
X0347138Y0362823D01*
X0346977Y0363084D01*
X0346823Y0363349D01*
X0346675Y0363618D01*
X0346534Y0363890D01*
X0346399Y0364166D01*
X0346271Y0364444D01*
X0346151Y0364726D01*
X0346037Y0365011D01*
X0345930Y0365299D01*
X0345830Y0365589D01*
X0345737Y0365881D01*
X0345652Y0366176D01*
X0345574Y0366473D01*
X0345503Y0366771D01*
X0345439Y0367071D01*
X0345383Y0367373D01*
X0345334Y0367676D01*
X0345293Y0367980D01*
X0345259Y0368285D01*
X0345233Y0368590D01*
X0345214Y0368897D01*
X0345203Y0369203D01*
X0345199Y0369510D01*
X0385061Y0401006D02*
X0385063Y0401134D01*
X0385069Y0401262D01*
X0385079Y0401389D01*
X0385093Y0401517D01*
X0385110Y0401643D01*
X0385132Y0401769D01*
X0385158Y0401895D01*
X0385187Y0402019D01*
X0385220Y0402143D01*
X0385257Y0402265D01*
X0385298Y0402386D01*
X0385343Y0402506D01*
X0385391Y0402625D01*
X0385443Y0402742D01*
X0385499Y0402857D01*
X0385558Y0402971D01*
X0385620Y0403082D01*
X0385686Y0403192D01*
X0385755Y0403299D01*
X0385828Y0403405D01*
X0385904Y0403508D01*
X0385983Y0403608D01*
X0386065Y0403707D01*
X0386150Y0403802D01*
X0386238Y0403895D01*
X0386329Y0403985D01*
X0386422Y0404072D01*
X0386519Y0404157D01*
X0386617Y0404238D01*
X0386719Y0404316D01*
X0386822Y0404391D01*
X0386928Y0404463D01*
X0387036Y0404532D01*
X0387146Y0404597D01*
X0387259Y0404658D01*
X0387373Y0404717D01*
X0387488Y0404771D01*
X0387606Y0404822D01*
X0387724Y0404870D01*
X0387845Y0404913D01*
X0387966Y0404953D01*
X0388089Y0404989D01*
X0388213Y0405022D01*
X0388338Y0405050D01*
X0388463Y0405075D01*
X0388589Y0405095D01*
X0388716Y0405112D01*
X0388844Y0405125D01*
X0388971Y0405134D01*
X0389099Y0405139D01*
X0389227Y0405140D01*
X0389355Y0405137D01*
X0389483Y0405130D01*
X0389610Y0405119D01*
X0389737Y0405104D01*
X0389864Y0405086D01*
X0389990Y0405063D01*
X0390115Y0405036D01*
X0390239Y0405006D01*
X0390362Y0404972D01*
X0390485Y0404934D01*
X0390606Y0404892D01*
X0390725Y0404846D01*
X0390843Y0404797D01*
X0390960Y0404744D01*
X0391075Y0404688D01*
X0391188Y0404628D01*
X0391299Y0404565D01*
X0391408Y0404498D01*
X0391515Y0404428D01*
X0391620Y0404354D01*
X0391722Y0404278D01*
X0391822Y0404198D01*
X0391920Y0404115D01*
X0392015Y0404029D01*
X0392107Y0403940D01*
X0392196Y0403849D01*
X0392283Y0403755D01*
X0392366Y0403658D01*
X0392447Y0403558D01*
X0392524Y0403457D01*
X0392599Y0403352D01*
X0392670Y0403246D01*
X0392737Y0403137D01*
X0392802Y0403027D01*
X0392862Y0402914D01*
X0392920Y0402800D01*
X0392973Y0402684D01*
X0393023Y0402566D01*
X0393070Y0402447D01*
X0393113Y0402326D01*
X0393152Y0402204D01*
X0393187Y0402081D01*
X0393218Y0401957D01*
X0393246Y0401832D01*
X0393269Y0401706D01*
X0393289Y0401580D01*
X0393305Y0401453D01*
X0393317Y0401326D01*
X0393325Y0401198D01*
X0393329Y0401070D01*
X0393329Y0400942D01*
X0393325Y0400814D01*
X0393317Y0400686D01*
X0393305Y0400559D01*
X0393289Y0400432D01*
X0393269Y0400306D01*
X0393246Y0400180D01*
X0393218Y0400055D01*
X0393187Y0399931D01*
X0393152Y0399808D01*
X0393113Y0399686D01*
X0393070Y0399565D01*
X0393023Y0399446D01*
X0392973Y0399328D01*
X0392920Y0399212D01*
X0392862Y0399098D01*
X0392802Y0398985D01*
X0392737Y0398875D01*
X0392670Y0398766D01*
X0392599Y0398660D01*
X0392524Y0398555D01*
X0392447Y0398454D01*
X0392366Y0398354D01*
X0392283Y0398257D01*
X0392196Y0398163D01*
X0392107Y0398072D01*
X0392015Y0397983D01*
X0391920Y0397897D01*
X0391822Y0397814D01*
X0391722Y0397734D01*
X0391620Y0397658D01*
X0391515Y0397584D01*
X0391408Y0397514D01*
X0391299Y0397447D01*
X0391188Y0397384D01*
X0391075Y0397324D01*
X0390960Y0397268D01*
X0390843Y0397215D01*
X0390725Y0397166D01*
X0390606Y0397120D01*
X0390485Y0397078D01*
X0390362Y0397040D01*
X0390239Y0397006D01*
X0390115Y0396976D01*
X0389990Y0396949D01*
X0389864Y0396926D01*
X0389737Y0396908D01*
X0389610Y0396893D01*
X0389483Y0396882D01*
X0389355Y0396875D01*
X0389227Y0396872D01*
X0389099Y0396873D01*
X0388971Y0396878D01*
X0388844Y0396887D01*
X0388716Y0396900D01*
X0388589Y0396917D01*
X0388463Y0396937D01*
X0388338Y0396962D01*
X0388213Y0396990D01*
X0388089Y0397023D01*
X0387966Y0397059D01*
X0387845Y0397099D01*
X0387724Y0397142D01*
X0387606Y0397190D01*
X0387488Y0397241D01*
X0387373Y0397295D01*
X0387259Y0397354D01*
X0387146Y0397415D01*
X0387036Y0397480D01*
X0386928Y0397549D01*
X0386822Y0397621D01*
X0386719Y0397696D01*
X0386617Y0397774D01*
X0386519Y0397855D01*
X0386422Y0397940D01*
X0386329Y0398027D01*
X0386238Y0398117D01*
X0386150Y0398210D01*
X0386065Y0398305D01*
X0385983Y0398404D01*
X0385904Y0398504D01*
X0385828Y0398607D01*
X0385755Y0398713D01*
X0385686Y0398820D01*
X0385620Y0398930D01*
X0385558Y0399041D01*
X0385499Y0399155D01*
X0385443Y0399270D01*
X0385391Y0399387D01*
X0385343Y0399506D01*
X0385298Y0399626D01*
X0385257Y0399747D01*
X0385220Y0399869D01*
X0385187Y0399993D01*
X0385158Y0400117D01*
X0385132Y0400243D01*
X0385110Y0400369D01*
X0385093Y0400495D01*
X0385079Y0400623D01*
X0385069Y0400750D01*
X0385063Y0400878D01*
X0385061Y0401006D01*
X0376793Y0311243D02*
X0376795Y0311394D01*
X0376801Y0311544D01*
X0376811Y0311695D01*
X0376825Y0311845D01*
X0376843Y0311994D01*
X0376864Y0312144D01*
X0376890Y0312292D01*
X0376920Y0312440D01*
X0376953Y0312587D01*
X0376991Y0312733D01*
X0377032Y0312878D01*
X0377077Y0313022D01*
X0377126Y0313164D01*
X0377179Y0313305D01*
X0377235Y0313445D01*
X0377295Y0313583D01*
X0377358Y0313720D01*
X0377426Y0313855D01*
X0377496Y0313988D01*
X0377570Y0314119D01*
X0377648Y0314248D01*
X0377729Y0314375D01*
X0377813Y0314500D01*
X0377901Y0314623D01*
X0377992Y0314743D01*
X0378086Y0314861D01*
X0378183Y0314976D01*
X0378283Y0315089D01*
X0378386Y0315199D01*
X0378492Y0315306D01*
X0378601Y0315411D01*
X0378712Y0315512D01*
X0378826Y0315611D01*
X0378942Y0315706D01*
X0379062Y0315799D01*
X0379183Y0315888D01*
X0379307Y0315974D01*
X0379433Y0316057D01*
X0379561Y0316136D01*
X0379691Y0316212D01*
X0379823Y0316285D01*
X0379957Y0316353D01*
X0380093Y0316419D01*
X0380231Y0316481D01*
X0380370Y0316539D01*
X0380510Y0316593D01*
X0380652Y0316644D01*
X0380795Y0316691D01*
X0380940Y0316734D01*
X0381085Y0316773D01*
X0381232Y0316809D01*
X0381379Y0316840D01*
X0381527Y0316868D01*
X0381676Y0316892D01*
X0381825Y0316912D01*
X0381975Y0316928D01*
X0382125Y0316940D01*
X0382276Y0316948D01*
X0382427Y0316952D01*
X0382577Y0316952D01*
X0382728Y0316948D01*
X0382879Y0316940D01*
X0383029Y0316928D01*
X0383179Y0316912D01*
X0383328Y0316892D01*
X0383477Y0316868D01*
X0383625Y0316840D01*
X0383772Y0316809D01*
X0383919Y0316773D01*
X0384064Y0316734D01*
X0384209Y0316691D01*
X0384352Y0316644D01*
X0384494Y0316593D01*
X0384634Y0316539D01*
X0384773Y0316481D01*
X0384911Y0316419D01*
X0385047Y0316353D01*
X0385181Y0316285D01*
X0385313Y0316212D01*
X0385443Y0316136D01*
X0385571Y0316057D01*
X0385697Y0315974D01*
X0385821Y0315888D01*
X0385942Y0315799D01*
X0386062Y0315706D01*
X0386178Y0315611D01*
X0386292Y0315512D01*
X0386403Y0315411D01*
X0386512Y0315306D01*
X0386618Y0315199D01*
X0386721Y0315089D01*
X0386821Y0314976D01*
X0386918Y0314861D01*
X0387012Y0314743D01*
X0387103Y0314623D01*
X0387191Y0314500D01*
X0387275Y0314375D01*
X0387356Y0314248D01*
X0387434Y0314119D01*
X0387508Y0313988D01*
X0387578Y0313855D01*
X0387646Y0313720D01*
X0387709Y0313583D01*
X0387769Y0313445D01*
X0387825Y0313305D01*
X0387878Y0313164D01*
X0387927Y0313022D01*
X0387972Y0312878D01*
X0388013Y0312733D01*
X0388051Y0312587D01*
X0388084Y0312440D01*
X0388114Y0312292D01*
X0388140Y0312144D01*
X0388161Y0311994D01*
X0388179Y0311845D01*
X0388193Y0311695D01*
X0388203Y0311544D01*
X0388209Y0311394D01*
X0388211Y0311243D01*
X0388209Y0311092D01*
X0388203Y0310942D01*
X0388193Y0310791D01*
X0388179Y0310641D01*
X0388161Y0310492D01*
X0388140Y0310342D01*
X0388114Y0310194D01*
X0388084Y0310046D01*
X0388051Y0309899D01*
X0388013Y0309753D01*
X0387972Y0309608D01*
X0387927Y0309464D01*
X0387878Y0309322D01*
X0387825Y0309181D01*
X0387769Y0309041D01*
X0387709Y0308903D01*
X0387646Y0308766D01*
X0387578Y0308631D01*
X0387508Y0308498D01*
X0387434Y0308367D01*
X0387356Y0308238D01*
X0387275Y0308111D01*
X0387191Y0307986D01*
X0387103Y0307863D01*
X0387012Y0307743D01*
X0386918Y0307625D01*
X0386821Y0307510D01*
X0386721Y0307397D01*
X0386618Y0307287D01*
X0386512Y0307180D01*
X0386403Y0307075D01*
X0386292Y0306974D01*
X0386178Y0306875D01*
X0386062Y0306780D01*
X0385942Y0306687D01*
X0385821Y0306598D01*
X0385697Y0306512D01*
X0385571Y0306429D01*
X0385443Y0306350D01*
X0385313Y0306274D01*
X0385181Y0306201D01*
X0385047Y0306133D01*
X0384911Y0306067D01*
X0384773Y0306005D01*
X0384634Y0305947D01*
X0384494Y0305893D01*
X0384352Y0305842D01*
X0384209Y0305795D01*
X0384064Y0305752D01*
X0383919Y0305713D01*
X0383772Y0305677D01*
X0383625Y0305646D01*
X0383477Y0305618D01*
X0383328Y0305594D01*
X0383179Y0305574D01*
X0383029Y0305558D01*
X0382879Y0305546D01*
X0382728Y0305538D01*
X0382577Y0305534D01*
X0382427Y0305534D01*
X0382276Y0305538D01*
X0382125Y0305546D01*
X0381975Y0305558D01*
X0381825Y0305574D01*
X0381676Y0305594D01*
X0381527Y0305618D01*
X0381379Y0305646D01*
X0381232Y0305677D01*
X0381085Y0305713D01*
X0380940Y0305752D01*
X0380795Y0305795D01*
X0380652Y0305842D01*
X0380510Y0305893D01*
X0380370Y0305947D01*
X0380231Y0306005D01*
X0380093Y0306067D01*
X0379957Y0306133D01*
X0379823Y0306201D01*
X0379691Y0306274D01*
X0379561Y0306350D01*
X0379433Y0306429D01*
X0379307Y0306512D01*
X0379183Y0306598D01*
X0379062Y0306687D01*
X0378942Y0306780D01*
X0378826Y0306875D01*
X0378712Y0306974D01*
X0378601Y0307075D01*
X0378492Y0307180D01*
X0378386Y0307287D01*
X0378283Y0307397D01*
X0378183Y0307510D01*
X0378086Y0307625D01*
X0377992Y0307743D01*
X0377901Y0307863D01*
X0377813Y0307986D01*
X0377729Y0308111D01*
X0377648Y0308238D01*
X0377570Y0308367D01*
X0377496Y0308498D01*
X0377426Y0308631D01*
X0377358Y0308766D01*
X0377295Y0308903D01*
X0377235Y0309041D01*
X0377179Y0309181D01*
X0377126Y0309322D01*
X0377077Y0309464D01*
X0377032Y0309608D01*
X0376991Y0309753D01*
X0376953Y0309899D01*
X0376920Y0310046D01*
X0376890Y0310194D01*
X0376864Y0310342D01*
X0376843Y0310492D01*
X0376825Y0310641D01*
X0376811Y0310791D01*
X0376801Y0310942D01*
X0376795Y0311092D01*
X0376793Y0311243D01*
X0380809Y0213998D02*
X0380811Y0214131D01*
X0380817Y0214264D01*
X0380827Y0214397D01*
X0380841Y0214529D01*
X0380859Y0214661D01*
X0380880Y0214792D01*
X0380906Y0214923D01*
X0380936Y0215053D01*
X0380969Y0215182D01*
X0381007Y0215309D01*
X0381048Y0215436D01*
X0381093Y0215561D01*
X0381141Y0215685D01*
X0381194Y0215808D01*
X0381250Y0215928D01*
X0381309Y0216047D01*
X0381372Y0216165D01*
X0381439Y0216280D01*
X0381509Y0216393D01*
X0381582Y0216504D01*
X0381659Y0216613D01*
X0381739Y0216720D01*
X0381822Y0216824D01*
X0381908Y0216925D01*
X0381997Y0217024D01*
X0382089Y0217120D01*
X0382183Y0217214D01*
X0382281Y0217304D01*
X0382381Y0217392D01*
X0382484Y0217476D01*
X0382589Y0217558D01*
X0382697Y0217636D01*
X0382807Y0217711D01*
X0382919Y0217783D01*
X0383034Y0217851D01*
X0383150Y0217916D01*
X0383268Y0217977D01*
X0383388Y0218035D01*
X0383509Y0218089D01*
X0383633Y0218139D01*
X0383757Y0218186D01*
X0383883Y0218229D01*
X0384010Y0218268D01*
X0384139Y0218304D01*
X0384268Y0218335D01*
X0384398Y0218363D01*
X0384529Y0218387D01*
X0384661Y0218407D01*
X0384793Y0218423D01*
X0384926Y0218435D01*
X0385058Y0218443D01*
X0385191Y0218447D01*
X0385325Y0218447D01*
X0385458Y0218443D01*
X0385590Y0218435D01*
X0385723Y0218423D01*
X0385855Y0218407D01*
X0385987Y0218387D01*
X0386118Y0218363D01*
X0386248Y0218335D01*
X0386377Y0218304D01*
X0386506Y0218268D01*
X0386633Y0218229D01*
X0386759Y0218186D01*
X0386883Y0218139D01*
X0387007Y0218089D01*
X0387128Y0218035D01*
X0387248Y0217977D01*
X0387366Y0217916D01*
X0387483Y0217851D01*
X0387597Y0217783D01*
X0387709Y0217711D01*
X0387819Y0217636D01*
X0387927Y0217558D01*
X0388032Y0217476D01*
X0388135Y0217392D01*
X0388235Y0217304D01*
X0388333Y0217214D01*
X0388427Y0217120D01*
X0388519Y0217024D01*
X0388608Y0216925D01*
X0388694Y0216824D01*
X0388777Y0216720D01*
X0388857Y0216613D01*
X0388934Y0216504D01*
X0389007Y0216393D01*
X0389077Y0216280D01*
X0389144Y0216165D01*
X0389207Y0216047D01*
X0389266Y0215928D01*
X0389322Y0215808D01*
X0389375Y0215685D01*
X0389423Y0215561D01*
X0389468Y0215436D01*
X0389509Y0215309D01*
X0389547Y0215182D01*
X0389580Y0215053D01*
X0389610Y0214923D01*
X0389636Y0214792D01*
X0389657Y0214661D01*
X0389675Y0214529D01*
X0389689Y0214397D01*
X0389699Y0214264D01*
X0389705Y0214131D01*
X0389707Y0213998D01*
X0389705Y0213865D01*
X0389699Y0213732D01*
X0389689Y0213599D01*
X0389675Y0213467D01*
X0389657Y0213335D01*
X0389636Y0213204D01*
X0389610Y0213073D01*
X0389580Y0212943D01*
X0389547Y0212814D01*
X0389509Y0212687D01*
X0389468Y0212560D01*
X0389423Y0212435D01*
X0389375Y0212311D01*
X0389322Y0212188D01*
X0389266Y0212068D01*
X0389207Y0211949D01*
X0389144Y0211831D01*
X0389077Y0211716D01*
X0389007Y0211603D01*
X0388934Y0211492D01*
X0388857Y0211383D01*
X0388777Y0211276D01*
X0388694Y0211172D01*
X0388608Y0211071D01*
X0388519Y0210972D01*
X0388427Y0210876D01*
X0388333Y0210782D01*
X0388235Y0210692D01*
X0388135Y0210604D01*
X0388032Y0210520D01*
X0387927Y0210438D01*
X0387819Y0210360D01*
X0387709Y0210285D01*
X0387597Y0210213D01*
X0387482Y0210145D01*
X0387366Y0210080D01*
X0387248Y0210019D01*
X0387128Y0209961D01*
X0387007Y0209907D01*
X0386883Y0209857D01*
X0386759Y0209810D01*
X0386633Y0209767D01*
X0386506Y0209728D01*
X0386377Y0209692D01*
X0386248Y0209661D01*
X0386118Y0209633D01*
X0385987Y0209609D01*
X0385855Y0209589D01*
X0385723Y0209573D01*
X0385590Y0209561D01*
X0385458Y0209553D01*
X0385325Y0209549D01*
X0385191Y0209549D01*
X0385058Y0209553D01*
X0384926Y0209561D01*
X0384793Y0209573D01*
X0384661Y0209589D01*
X0384529Y0209609D01*
X0384398Y0209633D01*
X0384268Y0209661D01*
X0384139Y0209692D01*
X0384010Y0209728D01*
X0383883Y0209767D01*
X0383757Y0209810D01*
X0383633Y0209857D01*
X0383509Y0209907D01*
X0383388Y0209961D01*
X0383268Y0210019D01*
X0383150Y0210080D01*
X0383033Y0210145D01*
X0382919Y0210213D01*
X0382807Y0210285D01*
X0382697Y0210360D01*
X0382589Y0210438D01*
X0382484Y0210520D01*
X0382381Y0210604D01*
X0382281Y0210692D01*
X0382183Y0210782D01*
X0382089Y0210876D01*
X0381997Y0210972D01*
X0381908Y0211071D01*
X0381822Y0211172D01*
X0381739Y0211276D01*
X0381659Y0211383D01*
X0381582Y0211492D01*
X0381509Y0211603D01*
X0381439Y0211716D01*
X0381372Y0211831D01*
X0381309Y0211949D01*
X0381250Y0212068D01*
X0381194Y0212188D01*
X0381141Y0212311D01*
X0381093Y0212435D01*
X0381048Y0212560D01*
X0381007Y0212687D01*
X0380969Y0212814D01*
X0380936Y0212943D01*
X0380906Y0213073D01*
X0380880Y0213204D01*
X0380859Y0213335D01*
X0380841Y0213467D01*
X0380827Y0213599D01*
X0380817Y0213732D01*
X0380811Y0213865D01*
X0380809Y0213998D01*
X0376793Y0116754D02*
X0376795Y0116905D01*
X0376801Y0117055D01*
X0376811Y0117206D01*
X0376825Y0117356D01*
X0376843Y0117505D01*
X0376864Y0117655D01*
X0376890Y0117803D01*
X0376920Y0117951D01*
X0376953Y0118098D01*
X0376991Y0118244D01*
X0377032Y0118389D01*
X0377077Y0118533D01*
X0377126Y0118675D01*
X0377179Y0118816D01*
X0377235Y0118956D01*
X0377295Y0119094D01*
X0377358Y0119231D01*
X0377426Y0119366D01*
X0377496Y0119499D01*
X0377570Y0119630D01*
X0377648Y0119759D01*
X0377729Y0119886D01*
X0377813Y0120011D01*
X0377901Y0120134D01*
X0377992Y0120254D01*
X0378086Y0120372D01*
X0378183Y0120487D01*
X0378283Y0120600D01*
X0378386Y0120710D01*
X0378492Y0120817D01*
X0378601Y0120922D01*
X0378712Y0121023D01*
X0378826Y0121122D01*
X0378942Y0121217D01*
X0379062Y0121310D01*
X0379183Y0121399D01*
X0379307Y0121485D01*
X0379433Y0121568D01*
X0379561Y0121647D01*
X0379691Y0121723D01*
X0379823Y0121796D01*
X0379957Y0121864D01*
X0380093Y0121930D01*
X0380231Y0121992D01*
X0380370Y0122050D01*
X0380510Y0122104D01*
X0380652Y0122155D01*
X0380795Y0122202D01*
X0380940Y0122245D01*
X0381085Y0122284D01*
X0381232Y0122320D01*
X0381379Y0122351D01*
X0381527Y0122379D01*
X0381676Y0122403D01*
X0381825Y0122423D01*
X0381975Y0122439D01*
X0382125Y0122451D01*
X0382276Y0122459D01*
X0382427Y0122463D01*
X0382577Y0122463D01*
X0382728Y0122459D01*
X0382879Y0122451D01*
X0383029Y0122439D01*
X0383179Y0122423D01*
X0383328Y0122403D01*
X0383477Y0122379D01*
X0383625Y0122351D01*
X0383772Y0122320D01*
X0383919Y0122284D01*
X0384064Y0122245D01*
X0384209Y0122202D01*
X0384352Y0122155D01*
X0384494Y0122104D01*
X0384634Y0122050D01*
X0384773Y0121992D01*
X0384911Y0121930D01*
X0385047Y0121864D01*
X0385181Y0121796D01*
X0385313Y0121723D01*
X0385443Y0121647D01*
X0385571Y0121568D01*
X0385697Y0121485D01*
X0385821Y0121399D01*
X0385942Y0121310D01*
X0386062Y0121217D01*
X0386178Y0121122D01*
X0386292Y0121023D01*
X0386403Y0120922D01*
X0386512Y0120817D01*
X0386618Y0120710D01*
X0386721Y0120600D01*
X0386821Y0120487D01*
X0386918Y0120372D01*
X0387012Y0120254D01*
X0387103Y0120134D01*
X0387191Y0120011D01*
X0387275Y0119886D01*
X0387356Y0119759D01*
X0387434Y0119630D01*
X0387508Y0119499D01*
X0387578Y0119366D01*
X0387646Y0119231D01*
X0387709Y0119094D01*
X0387769Y0118956D01*
X0387825Y0118816D01*
X0387878Y0118675D01*
X0387927Y0118533D01*
X0387972Y0118389D01*
X0388013Y0118244D01*
X0388051Y0118098D01*
X0388084Y0117951D01*
X0388114Y0117803D01*
X0388140Y0117655D01*
X0388161Y0117505D01*
X0388179Y0117356D01*
X0388193Y0117206D01*
X0388203Y0117055D01*
X0388209Y0116905D01*
X0388211Y0116754D01*
X0388209Y0116603D01*
X0388203Y0116453D01*
X0388193Y0116302D01*
X0388179Y0116152D01*
X0388161Y0116003D01*
X0388140Y0115853D01*
X0388114Y0115705D01*
X0388084Y0115557D01*
X0388051Y0115410D01*
X0388013Y0115264D01*
X0387972Y0115119D01*
X0387927Y0114975D01*
X0387878Y0114833D01*
X0387825Y0114692D01*
X0387769Y0114552D01*
X0387709Y0114414D01*
X0387646Y0114277D01*
X0387578Y0114142D01*
X0387508Y0114009D01*
X0387434Y0113878D01*
X0387356Y0113749D01*
X0387275Y0113622D01*
X0387191Y0113497D01*
X0387103Y0113374D01*
X0387012Y0113254D01*
X0386918Y0113136D01*
X0386821Y0113021D01*
X0386721Y0112908D01*
X0386618Y0112798D01*
X0386512Y0112691D01*
X0386403Y0112586D01*
X0386292Y0112485D01*
X0386178Y0112386D01*
X0386062Y0112291D01*
X0385942Y0112198D01*
X0385821Y0112109D01*
X0385697Y0112023D01*
X0385571Y0111940D01*
X0385443Y0111861D01*
X0385313Y0111785D01*
X0385181Y0111712D01*
X0385047Y0111644D01*
X0384911Y0111578D01*
X0384773Y0111516D01*
X0384634Y0111458D01*
X0384494Y0111404D01*
X0384352Y0111353D01*
X0384209Y0111306D01*
X0384064Y0111263D01*
X0383919Y0111224D01*
X0383772Y0111188D01*
X0383625Y0111157D01*
X0383477Y0111129D01*
X0383328Y0111105D01*
X0383179Y0111085D01*
X0383029Y0111069D01*
X0382879Y0111057D01*
X0382728Y0111049D01*
X0382577Y0111045D01*
X0382427Y0111045D01*
X0382276Y0111049D01*
X0382125Y0111057D01*
X0381975Y0111069D01*
X0381825Y0111085D01*
X0381676Y0111105D01*
X0381527Y0111129D01*
X0381379Y0111157D01*
X0381232Y0111188D01*
X0381085Y0111224D01*
X0380940Y0111263D01*
X0380795Y0111306D01*
X0380652Y0111353D01*
X0380510Y0111404D01*
X0380370Y0111458D01*
X0380231Y0111516D01*
X0380093Y0111578D01*
X0379957Y0111644D01*
X0379823Y0111712D01*
X0379691Y0111785D01*
X0379561Y0111861D01*
X0379433Y0111940D01*
X0379307Y0112023D01*
X0379183Y0112109D01*
X0379062Y0112198D01*
X0378942Y0112291D01*
X0378826Y0112386D01*
X0378712Y0112485D01*
X0378601Y0112586D01*
X0378492Y0112691D01*
X0378386Y0112798D01*
X0378283Y0112908D01*
X0378183Y0113021D01*
X0378086Y0113136D01*
X0377992Y0113254D01*
X0377901Y0113374D01*
X0377813Y0113497D01*
X0377729Y0113622D01*
X0377648Y0113749D01*
X0377570Y0113878D01*
X0377496Y0114009D01*
X0377426Y0114142D01*
X0377358Y0114277D01*
X0377295Y0114414D01*
X0377235Y0114552D01*
X0377179Y0114692D01*
X0377126Y0114833D01*
X0377077Y0114975D01*
X0377032Y0115119D01*
X0376991Y0115264D01*
X0376953Y0115410D01*
X0376920Y0115557D01*
X0376890Y0115705D01*
X0376864Y0115853D01*
X0376843Y0116003D01*
X0376825Y0116152D01*
X0376811Y0116302D01*
X0376801Y0116453D01*
X0376795Y0116603D01*
X0376793Y0116754D01*
X0345199Y0058487D02*
X0345203Y0058794D01*
X0345214Y0059100D01*
X0345233Y0059407D01*
X0345259Y0059712D01*
X0345293Y0060017D01*
X0345334Y0060321D01*
X0345383Y0060624D01*
X0345439Y0060926D01*
X0345503Y0061226D01*
X0345574Y0061524D01*
X0345652Y0061821D01*
X0345737Y0062116D01*
X0345830Y0062408D01*
X0345930Y0062698D01*
X0346037Y0062986D01*
X0346151Y0063271D01*
X0346271Y0063553D01*
X0346399Y0063831D01*
X0346534Y0064107D01*
X0346675Y0064379D01*
X0346823Y0064648D01*
X0346977Y0064913D01*
X0347138Y0065174D01*
X0347306Y0065432D01*
X0347479Y0065685D01*
X0347659Y0065933D01*
X0347845Y0066177D01*
X0348036Y0066417D01*
X0348234Y0066652D01*
X0348437Y0066881D01*
X0348646Y0067106D01*
X0348860Y0067326D01*
X0349080Y0067540D01*
X0349305Y0067749D01*
X0349534Y0067952D01*
X0349769Y0068150D01*
X0350009Y0068341D01*
X0350253Y0068527D01*
X0350501Y0068707D01*
X0350754Y0068880D01*
X0351012Y0069048D01*
X0351273Y0069209D01*
X0351538Y0069363D01*
X0351807Y0069511D01*
X0352079Y0069652D01*
X0352355Y0069787D01*
X0352633Y0069915D01*
X0352915Y0070035D01*
X0353200Y0070149D01*
X0353488Y0070256D01*
X0353778Y0070356D01*
X0354070Y0070449D01*
X0354365Y0070534D01*
X0354662Y0070612D01*
X0354960Y0070683D01*
X0355260Y0070747D01*
X0355562Y0070803D01*
X0355865Y0070852D01*
X0356169Y0070893D01*
X0356474Y0070927D01*
X0356779Y0070953D01*
X0357086Y0070972D01*
X0357392Y0070983D01*
X0357699Y0070987D01*
X0358006Y0070983D01*
X0358312Y0070972D01*
X0358619Y0070953D01*
X0358924Y0070927D01*
X0359229Y0070893D01*
X0359533Y0070852D01*
X0359836Y0070803D01*
X0360138Y0070747D01*
X0360438Y0070683D01*
X0360736Y0070612D01*
X0361033Y0070534D01*
X0361328Y0070449D01*
X0361620Y0070356D01*
X0361910Y0070256D01*
X0362198Y0070149D01*
X0362483Y0070035D01*
X0362765Y0069915D01*
X0363043Y0069787D01*
X0363319Y0069652D01*
X0363591Y0069511D01*
X0363860Y0069363D01*
X0364125Y0069209D01*
X0364386Y0069048D01*
X0364644Y0068880D01*
X0364897Y0068707D01*
X0365145Y0068527D01*
X0365389Y0068341D01*
X0365629Y0068150D01*
X0365864Y0067952D01*
X0366093Y0067749D01*
X0366318Y0067540D01*
X0366538Y0067326D01*
X0366752Y0067106D01*
X0366961Y0066881D01*
X0367164Y0066652D01*
X0367362Y0066417D01*
X0367553Y0066177D01*
X0367739Y0065933D01*
X0367919Y0065685D01*
X0368092Y0065432D01*
X0368260Y0065174D01*
X0368421Y0064913D01*
X0368575Y0064648D01*
X0368723Y0064379D01*
X0368864Y0064107D01*
X0368999Y0063831D01*
X0369127Y0063553D01*
X0369247Y0063271D01*
X0369361Y0062986D01*
X0369468Y0062698D01*
X0369568Y0062408D01*
X0369661Y0062116D01*
X0369746Y0061821D01*
X0369824Y0061524D01*
X0369895Y0061226D01*
X0369959Y0060926D01*
X0370015Y0060624D01*
X0370064Y0060321D01*
X0370105Y0060017D01*
X0370139Y0059712D01*
X0370165Y0059407D01*
X0370184Y0059100D01*
X0370195Y0058794D01*
X0370199Y0058487D01*
X0370195Y0058180D01*
X0370184Y0057874D01*
X0370165Y0057567D01*
X0370139Y0057262D01*
X0370105Y0056957D01*
X0370064Y0056653D01*
X0370015Y0056350D01*
X0369959Y0056048D01*
X0369895Y0055748D01*
X0369824Y0055450D01*
X0369746Y0055153D01*
X0369661Y0054858D01*
X0369568Y0054566D01*
X0369468Y0054276D01*
X0369361Y0053988D01*
X0369247Y0053703D01*
X0369127Y0053421D01*
X0368999Y0053143D01*
X0368864Y0052867D01*
X0368723Y0052595D01*
X0368575Y0052326D01*
X0368421Y0052061D01*
X0368260Y0051800D01*
X0368092Y0051542D01*
X0367919Y0051289D01*
X0367739Y0051041D01*
X0367553Y0050797D01*
X0367362Y0050557D01*
X0367164Y0050322D01*
X0366961Y0050093D01*
X0366752Y0049868D01*
X0366538Y0049648D01*
X0366318Y0049434D01*
X0366093Y0049225D01*
X0365864Y0049022D01*
X0365629Y0048824D01*
X0365389Y0048633D01*
X0365145Y0048447D01*
X0364897Y0048267D01*
X0364644Y0048094D01*
X0364386Y0047926D01*
X0364125Y0047765D01*
X0363860Y0047611D01*
X0363591Y0047463D01*
X0363319Y0047322D01*
X0363043Y0047187D01*
X0362765Y0047059D01*
X0362483Y0046939D01*
X0362198Y0046825D01*
X0361910Y0046718D01*
X0361620Y0046618D01*
X0361328Y0046525D01*
X0361033Y0046440D01*
X0360736Y0046362D01*
X0360438Y0046291D01*
X0360138Y0046227D01*
X0359836Y0046171D01*
X0359533Y0046122D01*
X0359229Y0046081D01*
X0358924Y0046047D01*
X0358619Y0046021D01*
X0358312Y0046002D01*
X0358006Y0045991D01*
X0357699Y0045987D01*
X0357392Y0045991D01*
X0357086Y0046002D01*
X0356779Y0046021D01*
X0356474Y0046047D01*
X0356169Y0046081D01*
X0355865Y0046122D01*
X0355562Y0046171D01*
X0355260Y0046227D01*
X0354960Y0046291D01*
X0354662Y0046362D01*
X0354365Y0046440D01*
X0354070Y0046525D01*
X0353778Y0046618D01*
X0353488Y0046718D01*
X0353200Y0046825D01*
X0352915Y0046939D01*
X0352633Y0047059D01*
X0352355Y0047187D01*
X0352079Y0047322D01*
X0351807Y0047463D01*
X0351538Y0047611D01*
X0351273Y0047765D01*
X0351012Y0047926D01*
X0350754Y0048094D01*
X0350501Y0048267D01*
X0350253Y0048447D01*
X0350009Y0048633D01*
X0349769Y0048824D01*
X0349534Y0049022D01*
X0349305Y0049225D01*
X0349080Y0049434D01*
X0348860Y0049648D01*
X0348646Y0049868D01*
X0348437Y0050093D01*
X0348234Y0050322D01*
X0348036Y0050557D01*
X0347845Y0050797D01*
X0347659Y0051041D01*
X0347479Y0051289D01*
X0347306Y0051542D01*
X0347138Y0051800D01*
X0346977Y0052061D01*
X0346823Y0052326D01*
X0346675Y0052595D01*
X0346534Y0052867D01*
X0346399Y0053143D01*
X0346271Y0053421D01*
X0346151Y0053703D01*
X0346037Y0053988D01*
X0345930Y0054276D01*
X0345830Y0054566D01*
X0345737Y0054858D01*
X0345652Y0055153D01*
X0345574Y0055450D01*
X0345503Y0055748D01*
X0345439Y0056048D01*
X0345383Y0056350D01*
X0345334Y0056653D01*
X0345293Y0056957D01*
X0345259Y0057262D01*
X0345233Y0057567D01*
X0345214Y0057874D01*
X0345203Y0058180D01*
X0345199Y0058487D01*
X0293722Y0033683D02*
X0293724Y0033834D01*
X0293730Y0033984D01*
X0293740Y0034135D01*
X0293754Y0034285D01*
X0293772Y0034434D01*
X0293793Y0034584D01*
X0293819Y0034732D01*
X0293849Y0034880D01*
X0293882Y0035027D01*
X0293920Y0035173D01*
X0293961Y0035318D01*
X0294006Y0035462D01*
X0294055Y0035604D01*
X0294108Y0035745D01*
X0294164Y0035885D01*
X0294224Y0036023D01*
X0294287Y0036160D01*
X0294355Y0036295D01*
X0294425Y0036428D01*
X0294499Y0036559D01*
X0294577Y0036688D01*
X0294658Y0036815D01*
X0294742Y0036940D01*
X0294830Y0037063D01*
X0294921Y0037183D01*
X0295015Y0037301D01*
X0295112Y0037416D01*
X0295212Y0037529D01*
X0295315Y0037639D01*
X0295421Y0037746D01*
X0295530Y0037851D01*
X0295641Y0037952D01*
X0295755Y0038051D01*
X0295871Y0038146D01*
X0295991Y0038239D01*
X0296112Y0038328D01*
X0296236Y0038414D01*
X0296362Y0038497D01*
X0296490Y0038576D01*
X0296620Y0038652D01*
X0296752Y0038725D01*
X0296886Y0038793D01*
X0297022Y0038859D01*
X0297160Y0038921D01*
X0297299Y0038979D01*
X0297439Y0039033D01*
X0297581Y0039084D01*
X0297724Y0039131D01*
X0297869Y0039174D01*
X0298014Y0039213D01*
X0298161Y0039249D01*
X0298308Y0039280D01*
X0298456Y0039308D01*
X0298605Y0039332D01*
X0298754Y0039352D01*
X0298904Y0039368D01*
X0299054Y0039380D01*
X0299205Y0039388D01*
X0299356Y0039392D01*
X0299506Y0039392D01*
X0299657Y0039388D01*
X0299808Y0039380D01*
X0299958Y0039368D01*
X0300108Y0039352D01*
X0300257Y0039332D01*
X0300406Y0039308D01*
X0300554Y0039280D01*
X0300701Y0039249D01*
X0300848Y0039213D01*
X0300993Y0039174D01*
X0301138Y0039131D01*
X0301281Y0039084D01*
X0301423Y0039033D01*
X0301563Y0038979D01*
X0301702Y0038921D01*
X0301840Y0038859D01*
X0301976Y0038793D01*
X0302110Y0038725D01*
X0302242Y0038652D01*
X0302372Y0038576D01*
X0302500Y0038497D01*
X0302626Y0038414D01*
X0302750Y0038328D01*
X0302871Y0038239D01*
X0302991Y0038146D01*
X0303107Y0038051D01*
X0303221Y0037952D01*
X0303332Y0037851D01*
X0303441Y0037746D01*
X0303547Y0037639D01*
X0303650Y0037529D01*
X0303750Y0037416D01*
X0303847Y0037301D01*
X0303941Y0037183D01*
X0304032Y0037063D01*
X0304120Y0036940D01*
X0304204Y0036815D01*
X0304285Y0036688D01*
X0304363Y0036559D01*
X0304437Y0036428D01*
X0304507Y0036295D01*
X0304575Y0036160D01*
X0304638Y0036023D01*
X0304698Y0035885D01*
X0304754Y0035745D01*
X0304807Y0035604D01*
X0304856Y0035462D01*
X0304901Y0035318D01*
X0304942Y0035173D01*
X0304980Y0035027D01*
X0305013Y0034880D01*
X0305043Y0034732D01*
X0305069Y0034584D01*
X0305090Y0034434D01*
X0305108Y0034285D01*
X0305122Y0034135D01*
X0305132Y0033984D01*
X0305138Y0033834D01*
X0305140Y0033683D01*
X0305138Y0033532D01*
X0305132Y0033382D01*
X0305122Y0033231D01*
X0305108Y0033081D01*
X0305090Y0032932D01*
X0305069Y0032782D01*
X0305043Y0032634D01*
X0305013Y0032486D01*
X0304980Y0032339D01*
X0304942Y0032193D01*
X0304901Y0032048D01*
X0304856Y0031904D01*
X0304807Y0031762D01*
X0304754Y0031621D01*
X0304698Y0031481D01*
X0304638Y0031343D01*
X0304575Y0031206D01*
X0304507Y0031071D01*
X0304437Y0030938D01*
X0304363Y0030807D01*
X0304285Y0030678D01*
X0304204Y0030551D01*
X0304120Y0030426D01*
X0304032Y0030303D01*
X0303941Y0030183D01*
X0303847Y0030065D01*
X0303750Y0029950D01*
X0303650Y0029837D01*
X0303547Y0029727D01*
X0303441Y0029620D01*
X0303332Y0029515D01*
X0303221Y0029414D01*
X0303107Y0029315D01*
X0302991Y0029220D01*
X0302871Y0029127D01*
X0302750Y0029038D01*
X0302626Y0028952D01*
X0302500Y0028869D01*
X0302372Y0028790D01*
X0302242Y0028714D01*
X0302110Y0028641D01*
X0301976Y0028573D01*
X0301840Y0028507D01*
X0301702Y0028445D01*
X0301563Y0028387D01*
X0301423Y0028333D01*
X0301281Y0028282D01*
X0301138Y0028235D01*
X0300993Y0028192D01*
X0300848Y0028153D01*
X0300701Y0028117D01*
X0300554Y0028086D01*
X0300406Y0028058D01*
X0300257Y0028034D01*
X0300108Y0028014D01*
X0299958Y0027998D01*
X0299808Y0027986D01*
X0299657Y0027978D01*
X0299506Y0027974D01*
X0299356Y0027974D01*
X0299205Y0027978D01*
X0299054Y0027986D01*
X0298904Y0027998D01*
X0298754Y0028014D01*
X0298605Y0028034D01*
X0298456Y0028058D01*
X0298308Y0028086D01*
X0298161Y0028117D01*
X0298014Y0028153D01*
X0297869Y0028192D01*
X0297724Y0028235D01*
X0297581Y0028282D01*
X0297439Y0028333D01*
X0297299Y0028387D01*
X0297160Y0028445D01*
X0297022Y0028507D01*
X0296886Y0028573D01*
X0296752Y0028641D01*
X0296620Y0028714D01*
X0296490Y0028790D01*
X0296362Y0028869D01*
X0296236Y0028952D01*
X0296112Y0029038D01*
X0295991Y0029127D01*
X0295871Y0029220D01*
X0295755Y0029315D01*
X0295641Y0029414D01*
X0295530Y0029515D01*
X0295421Y0029620D01*
X0295315Y0029727D01*
X0295212Y0029837D01*
X0295112Y0029950D01*
X0295015Y0030065D01*
X0294921Y0030183D01*
X0294830Y0030303D01*
X0294742Y0030426D01*
X0294658Y0030551D01*
X0294577Y0030678D01*
X0294499Y0030807D01*
X0294425Y0030938D01*
X0294355Y0031071D01*
X0294287Y0031206D01*
X0294224Y0031343D01*
X0294164Y0031481D01*
X0294108Y0031621D01*
X0294055Y0031762D01*
X0294006Y0031904D01*
X0293961Y0032048D01*
X0293920Y0032193D01*
X0293882Y0032339D01*
X0293849Y0032486D01*
X0293819Y0032634D01*
X0293793Y0032782D01*
X0293772Y0032932D01*
X0293754Y0033081D01*
X0293740Y0033231D01*
X0293730Y0033382D01*
X0293724Y0033532D01*
X0293722Y0033683D01*
X0385061Y0026991D02*
X0385063Y0027119D01*
X0385069Y0027247D01*
X0385079Y0027374D01*
X0385093Y0027502D01*
X0385110Y0027628D01*
X0385132Y0027754D01*
X0385158Y0027880D01*
X0385187Y0028004D01*
X0385220Y0028128D01*
X0385257Y0028250D01*
X0385298Y0028371D01*
X0385343Y0028491D01*
X0385391Y0028610D01*
X0385443Y0028727D01*
X0385499Y0028842D01*
X0385558Y0028956D01*
X0385620Y0029067D01*
X0385686Y0029177D01*
X0385755Y0029284D01*
X0385828Y0029390D01*
X0385904Y0029493D01*
X0385983Y0029593D01*
X0386065Y0029692D01*
X0386150Y0029787D01*
X0386238Y0029880D01*
X0386329Y0029970D01*
X0386422Y0030057D01*
X0386519Y0030142D01*
X0386617Y0030223D01*
X0386719Y0030301D01*
X0386822Y0030376D01*
X0386928Y0030448D01*
X0387036Y0030517D01*
X0387146Y0030582D01*
X0387259Y0030643D01*
X0387373Y0030702D01*
X0387488Y0030756D01*
X0387606Y0030807D01*
X0387724Y0030855D01*
X0387845Y0030898D01*
X0387966Y0030938D01*
X0388089Y0030974D01*
X0388213Y0031007D01*
X0388338Y0031035D01*
X0388463Y0031060D01*
X0388589Y0031080D01*
X0388716Y0031097D01*
X0388844Y0031110D01*
X0388971Y0031119D01*
X0389099Y0031124D01*
X0389227Y0031125D01*
X0389355Y0031122D01*
X0389483Y0031115D01*
X0389610Y0031104D01*
X0389737Y0031089D01*
X0389864Y0031071D01*
X0389990Y0031048D01*
X0390115Y0031021D01*
X0390239Y0030991D01*
X0390362Y0030957D01*
X0390485Y0030919D01*
X0390606Y0030877D01*
X0390725Y0030831D01*
X0390843Y0030782D01*
X0390960Y0030729D01*
X0391075Y0030673D01*
X0391188Y0030613D01*
X0391299Y0030550D01*
X0391408Y0030483D01*
X0391515Y0030413D01*
X0391620Y0030339D01*
X0391722Y0030263D01*
X0391822Y0030183D01*
X0391920Y0030100D01*
X0392015Y0030014D01*
X0392107Y0029925D01*
X0392196Y0029834D01*
X0392283Y0029740D01*
X0392366Y0029643D01*
X0392447Y0029543D01*
X0392524Y0029442D01*
X0392599Y0029337D01*
X0392670Y0029231D01*
X0392737Y0029122D01*
X0392802Y0029012D01*
X0392862Y0028899D01*
X0392920Y0028785D01*
X0392973Y0028669D01*
X0393023Y0028551D01*
X0393070Y0028432D01*
X0393113Y0028311D01*
X0393152Y0028189D01*
X0393187Y0028066D01*
X0393218Y0027942D01*
X0393246Y0027817D01*
X0393269Y0027691D01*
X0393289Y0027565D01*
X0393305Y0027438D01*
X0393317Y0027311D01*
X0393325Y0027183D01*
X0393329Y0027055D01*
X0393329Y0026927D01*
X0393325Y0026799D01*
X0393317Y0026671D01*
X0393305Y0026544D01*
X0393289Y0026417D01*
X0393269Y0026291D01*
X0393246Y0026165D01*
X0393218Y0026040D01*
X0393187Y0025916D01*
X0393152Y0025793D01*
X0393113Y0025671D01*
X0393070Y0025550D01*
X0393023Y0025431D01*
X0392973Y0025313D01*
X0392920Y0025197D01*
X0392862Y0025083D01*
X0392802Y0024970D01*
X0392737Y0024860D01*
X0392670Y0024751D01*
X0392599Y0024645D01*
X0392524Y0024540D01*
X0392447Y0024439D01*
X0392366Y0024339D01*
X0392283Y0024242D01*
X0392196Y0024148D01*
X0392107Y0024057D01*
X0392015Y0023968D01*
X0391920Y0023882D01*
X0391822Y0023799D01*
X0391722Y0023719D01*
X0391620Y0023643D01*
X0391515Y0023569D01*
X0391408Y0023499D01*
X0391299Y0023432D01*
X0391188Y0023369D01*
X0391075Y0023309D01*
X0390960Y0023253D01*
X0390843Y0023200D01*
X0390725Y0023151D01*
X0390606Y0023105D01*
X0390485Y0023063D01*
X0390362Y0023025D01*
X0390239Y0022991D01*
X0390115Y0022961D01*
X0389990Y0022934D01*
X0389864Y0022911D01*
X0389737Y0022893D01*
X0389610Y0022878D01*
X0389483Y0022867D01*
X0389355Y0022860D01*
X0389227Y0022857D01*
X0389099Y0022858D01*
X0388971Y0022863D01*
X0388844Y0022872D01*
X0388716Y0022885D01*
X0388589Y0022902D01*
X0388463Y0022922D01*
X0388338Y0022947D01*
X0388213Y0022975D01*
X0388089Y0023008D01*
X0387966Y0023044D01*
X0387845Y0023084D01*
X0387724Y0023127D01*
X0387606Y0023175D01*
X0387488Y0023226D01*
X0387373Y0023280D01*
X0387259Y0023339D01*
X0387146Y0023400D01*
X0387036Y0023465D01*
X0386928Y0023534D01*
X0386822Y0023606D01*
X0386719Y0023681D01*
X0386617Y0023759D01*
X0386519Y0023840D01*
X0386422Y0023925D01*
X0386329Y0024012D01*
X0386238Y0024102D01*
X0386150Y0024195D01*
X0386065Y0024290D01*
X0385983Y0024389D01*
X0385904Y0024489D01*
X0385828Y0024592D01*
X0385755Y0024698D01*
X0385686Y0024805D01*
X0385620Y0024915D01*
X0385558Y0025026D01*
X0385499Y0025140D01*
X0385443Y0025255D01*
X0385391Y0025372D01*
X0385343Y0025491D01*
X0385298Y0025611D01*
X0385257Y0025732D01*
X0385220Y0025854D01*
X0385187Y0025978D01*
X0385158Y0026102D01*
X0385132Y0026228D01*
X0385110Y0026354D01*
X0385093Y0026480D01*
X0385079Y0026608D01*
X0385069Y0026735D01*
X0385063Y0026863D01*
X0385061Y0026991D01*
X0126793Y0033683D02*
X0126795Y0033834D01*
X0126801Y0033984D01*
X0126811Y0034135D01*
X0126825Y0034285D01*
X0126843Y0034434D01*
X0126864Y0034584D01*
X0126890Y0034732D01*
X0126920Y0034880D01*
X0126953Y0035027D01*
X0126991Y0035173D01*
X0127032Y0035318D01*
X0127077Y0035462D01*
X0127126Y0035604D01*
X0127179Y0035745D01*
X0127235Y0035885D01*
X0127295Y0036023D01*
X0127358Y0036160D01*
X0127426Y0036295D01*
X0127496Y0036428D01*
X0127570Y0036559D01*
X0127648Y0036688D01*
X0127729Y0036815D01*
X0127813Y0036940D01*
X0127901Y0037063D01*
X0127992Y0037183D01*
X0128086Y0037301D01*
X0128183Y0037416D01*
X0128283Y0037529D01*
X0128386Y0037639D01*
X0128492Y0037746D01*
X0128601Y0037851D01*
X0128712Y0037952D01*
X0128826Y0038051D01*
X0128942Y0038146D01*
X0129062Y0038239D01*
X0129183Y0038328D01*
X0129307Y0038414D01*
X0129433Y0038497D01*
X0129561Y0038576D01*
X0129691Y0038652D01*
X0129823Y0038725D01*
X0129957Y0038793D01*
X0130093Y0038859D01*
X0130231Y0038921D01*
X0130370Y0038979D01*
X0130510Y0039033D01*
X0130652Y0039084D01*
X0130795Y0039131D01*
X0130940Y0039174D01*
X0131085Y0039213D01*
X0131232Y0039249D01*
X0131379Y0039280D01*
X0131527Y0039308D01*
X0131676Y0039332D01*
X0131825Y0039352D01*
X0131975Y0039368D01*
X0132125Y0039380D01*
X0132276Y0039388D01*
X0132427Y0039392D01*
X0132577Y0039392D01*
X0132728Y0039388D01*
X0132879Y0039380D01*
X0133029Y0039368D01*
X0133179Y0039352D01*
X0133328Y0039332D01*
X0133477Y0039308D01*
X0133625Y0039280D01*
X0133772Y0039249D01*
X0133919Y0039213D01*
X0134064Y0039174D01*
X0134209Y0039131D01*
X0134352Y0039084D01*
X0134494Y0039033D01*
X0134634Y0038979D01*
X0134773Y0038921D01*
X0134911Y0038859D01*
X0135047Y0038793D01*
X0135181Y0038725D01*
X0135313Y0038652D01*
X0135443Y0038576D01*
X0135571Y0038497D01*
X0135697Y0038414D01*
X0135821Y0038328D01*
X0135942Y0038239D01*
X0136062Y0038146D01*
X0136178Y0038051D01*
X0136292Y0037952D01*
X0136403Y0037851D01*
X0136512Y0037746D01*
X0136618Y0037639D01*
X0136721Y0037529D01*
X0136821Y0037416D01*
X0136918Y0037301D01*
X0137012Y0037183D01*
X0137103Y0037063D01*
X0137191Y0036940D01*
X0137275Y0036815D01*
X0137356Y0036688D01*
X0137434Y0036559D01*
X0137508Y0036428D01*
X0137578Y0036295D01*
X0137646Y0036160D01*
X0137709Y0036023D01*
X0137769Y0035885D01*
X0137825Y0035745D01*
X0137878Y0035604D01*
X0137927Y0035462D01*
X0137972Y0035318D01*
X0138013Y0035173D01*
X0138051Y0035027D01*
X0138084Y0034880D01*
X0138114Y0034732D01*
X0138140Y0034584D01*
X0138161Y0034434D01*
X0138179Y0034285D01*
X0138193Y0034135D01*
X0138203Y0033984D01*
X0138209Y0033834D01*
X0138211Y0033683D01*
X0138209Y0033532D01*
X0138203Y0033382D01*
X0138193Y0033231D01*
X0138179Y0033081D01*
X0138161Y0032932D01*
X0138140Y0032782D01*
X0138114Y0032634D01*
X0138084Y0032486D01*
X0138051Y0032339D01*
X0138013Y0032193D01*
X0137972Y0032048D01*
X0137927Y0031904D01*
X0137878Y0031762D01*
X0137825Y0031621D01*
X0137769Y0031481D01*
X0137709Y0031343D01*
X0137646Y0031206D01*
X0137578Y0031071D01*
X0137508Y0030938D01*
X0137434Y0030807D01*
X0137356Y0030678D01*
X0137275Y0030551D01*
X0137191Y0030426D01*
X0137103Y0030303D01*
X0137012Y0030183D01*
X0136918Y0030065D01*
X0136821Y0029950D01*
X0136721Y0029837D01*
X0136618Y0029727D01*
X0136512Y0029620D01*
X0136403Y0029515D01*
X0136292Y0029414D01*
X0136178Y0029315D01*
X0136062Y0029220D01*
X0135942Y0029127D01*
X0135821Y0029038D01*
X0135697Y0028952D01*
X0135571Y0028869D01*
X0135443Y0028790D01*
X0135313Y0028714D01*
X0135181Y0028641D01*
X0135047Y0028573D01*
X0134911Y0028507D01*
X0134773Y0028445D01*
X0134634Y0028387D01*
X0134494Y0028333D01*
X0134352Y0028282D01*
X0134209Y0028235D01*
X0134064Y0028192D01*
X0133919Y0028153D01*
X0133772Y0028117D01*
X0133625Y0028086D01*
X0133477Y0028058D01*
X0133328Y0028034D01*
X0133179Y0028014D01*
X0133029Y0027998D01*
X0132879Y0027986D01*
X0132728Y0027978D01*
X0132577Y0027974D01*
X0132427Y0027974D01*
X0132276Y0027978D01*
X0132125Y0027986D01*
X0131975Y0027998D01*
X0131825Y0028014D01*
X0131676Y0028034D01*
X0131527Y0028058D01*
X0131379Y0028086D01*
X0131232Y0028117D01*
X0131085Y0028153D01*
X0130940Y0028192D01*
X0130795Y0028235D01*
X0130652Y0028282D01*
X0130510Y0028333D01*
X0130370Y0028387D01*
X0130231Y0028445D01*
X0130093Y0028507D01*
X0129957Y0028573D01*
X0129823Y0028641D01*
X0129691Y0028714D01*
X0129561Y0028790D01*
X0129433Y0028869D01*
X0129307Y0028952D01*
X0129183Y0029038D01*
X0129062Y0029127D01*
X0128942Y0029220D01*
X0128826Y0029315D01*
X0128712Y0029414D01*
X0128601Y0029515D01*
X0128492Y0029620D01*
X0128386Y0029727D01*
X0128283Y0029837D01*
X0128183Y0029950D01*
X0128086Y0030065D01*
X0127992Y0030183D01*
X0127901Y0030303D01*
X0127813Y0030426D01*
X0127729Y0030551D01*
X0127648Y0030678D01*
X0127570Y0030807D01*
X0127496Y0030938D01*
X0127426Y0031071D01*
X0127358Y0031206D01*
X0127295Y0031343D01*
X0127235Y0031481D01*
X0127179Y0031621D01*
X0127126Y0031762D01*
X0127077Y0031904D01*
X0127032Y0032048D01*
X0126991Y0032193D01*
X0126953Y0032339D01*
X0126920Y0032486D01*
X0126890Y0032634D01*
X0126864Y0032782D01*
X0126843Y0032932D01*
X0126825Y0033081D01*
X0126811Y0033231D01*
X0126801Y0033382D01*
X0126795Y0033532D01*
X0126793Y0033683D01*
D11*
X0094983Y0047424D03*
X0094983Y0057424D03*
X0094983Y0067424D03*
X0094983Y0077424D03*
X0084983Y0077424D03*
X0084983Y0067424D03*
X0084983Y0057424D03*
X0084983Y0047424D03*
X0087187Y0339510D03*
X0087187Y0349510D03*
X0087187Y0359510D03*
X0097187Y0359510D03*
X0097187Y0349510D03*
X0097187Y0339510D03*
X0107187Y0339510D03*
X0107187Y0349510D03*
X0107187Y0359510D03*
X0117187Y0359510D03*
X0117187Y0349510D03*
X0117187Y0339510D03*
X0127187Y0339510D03*
X0127187Y0349510D03*
X0127187Y0359510D03*
X0127187Y0369510D03*
X0117187Y0369510D03*
X0107187Y0369510D03*
X0097187Y0369510D03*
X0087187Y0369510D03*
X0077187Y0370510D03*
X0077187Y0360510D03*
X0077187Y0350510D03*
X0077187Y0340510D03*
X0137187Y0339510D03*
X0137187Y0349510D03*
X0137187Y0359510D03*
X0147187Y0359510D03*
X0147187Y0349510D03*
X0147187Y0339510D03*
X0157187Y0339510D03*
X0157187Y0349510D03*
X0157187Y0359510D03*
X0167187Y0359510D03*
X0167187Y0349510D03*
X0167187Y0339510D03*
X0177187Y0339510D03*
X0177187Y0349510D03*
X0177187Y0359510D03*
X0177187Y0369510D03*
X0167187Y0369510D03*
X0157187Y0369510D03*
X0147187Y0369510D03*
X0137187Y0369510D03*
X0187187Y0369510D03*
X0197187Y0369510D03*
X0197187Y0359510D03*
X0187187Y0359510D03*
X0187187Y0349510D03*
X0187187Y0339510D03*
X0197187Y0339510D03*
X0197187Y0349510D03*
X0207187Y0349510D03*
X0207187Y0339510D03*
X0217187Y0339510D03*
X0217187Y0349510D03*
X0217187Y0359510D03*
X0207187Y0359510D03*
X0207187Y0369510D03*
X0217187Y0369510D03*
X0227187Y0369510D03*
X0237187Y0369510D03*
X0247187Y0369510D03*
X0247187Y0359510D03*
X0237187Y0359510D03*
X0227187Y0359510D03*
X0227187Y0349510D03*
X0227187Y0339510D03*
X0237187Y0339510D03*
X0237187Y0349510D03*
X0247187Y0349510D03*
X0247187Y0339510D03*
X0257187Y0339510D03*
X0257187Y0349510D03*
X0257187Y0359510D03*
X0267187Y0359510D03*
X0267187Y0349510D03*
X0267187Y0339510D03*
X0277187Y0339510D03*
X0277187Y0349510D03*
X0277187Y0359510D03*
X0287187Y0359510D03*
X0287187Y0349510D03*
X0287187Y0339510D03*
X0297187Y0339510D03*
X0297187Y0349510D03*
X0297187Y0359510D03*
X0307187Y0359510D03*
X0307187Y0349510D03*
X0307187Y0339510D03*
X0317187Y0339510D03*
X0317187Y0349510D03*
X0317187Y0359510D03*
X0317187Y0369510D03*
X0307187Y0369510D03*
X0297187Y0369510D03*
X0287187Y0369510D03*
X0277187Y0369510D03*
X0267187Y0369510D03*
X0257187Y0369510D03*
X0327187Y0370510D03*
X0327187Y0360510D03*
X0327187Y0350510D03*
X0327187Y0340510D03*
D12*
X0355231Y0158880D03*
X0241557Y0041164D03*
D13*
X0231557Y0041164D03*
X0221557Y0041164D03*
X0211557Y0041164D03*
X0201557Y0041164D03*
X0191557Y0041164D03*
X0181557Y0041164D03*
X0171557Y0041164D03*
X0356231Y0168880D03*
X0355231Y0178880D03*
X0356231Y0188880D03*
X0355231Y0198880D03*
X0356231Y0208880D03*
X0355231Y0218880D03*
X0356231Y0228880D03*
D14*
X0184136Y0160937D03*
X0184136Y0153457D03*
X0173506Y0153457D03*
X0173506Y0157197D03*
X0173506Y0160937D03*
X0173113Y0136626D03*
X0173113Y0132886D03*
X0173113Y0129146D03*
X0183743Y0129146D03*
X0183743Y0136626D03*
D15*
X0189678Y0136430D03*
X0196428Y0136430D03*
X0196428Y0129343D03*
X0189678Y0129343D03*
X0172178Y0122680D03*
X0172178Y0115593D03*
X0190321Y0153654D03*
X0197071Y0153654D03*
X0197071Y0160741D03*
X0190321Y0160741D03*
X0171571Y0165404D03*
X0171571Y0172491D03*
X0259274Y0154628D03*
X0259274Y0147542D03*
X0269117Y0147542D03*
X0269117Y0154628D03*
X0269117Y0202502D03*
X0269117Y0209589D03*
X0259274Y0209589D03*
X0259274Y0202502D03*
X0316361Y0202502D03*
X0316361Y0209589D03*
X0326203Y0209589D03*
X0326203Y0202502D03*
X0327680Y0238585D03*
X0327680Y0245672D03*
X0327680Y0253191D03*
X0327680Y0260278D03*
X0355731Y0273447D03*
X0355731Y0280534D03*
X0298644Y0304943D03*
X0298644Y0312030D03*
X0294707Y0318723D03*
X0294707Y0325809D03*
X0290770Y0312030D03*
X0290770Y0304943D03*
X0277089Y0272680D03*
X0277089Y0265593D03*
X0074117Y0187620D03*
X0074117Y0180534D03*
X0074117Y0171872D03*
X0074117Y0164786D03*
X0074117Y0156124D03*
X0074117Y0149038D03*
D16*
X0065849Y0150613D03*
X0058762Y0150613D03*
X0058762Y0172266D03*
X0065849Y0172266D03*
X0065849Y0180140D03*
X0058762Y0180140D03*
X0058762Y0188014D03*
X0065849Y0188014D03*
X0232109Y0190376D03*
X0239195Y0190376D03*
X0239195Y0178565D03*
X0232109Y0178565D03*
X0262699Y0219904D03*
X0269786Y0219904D03*
X0271557Y0229746D03*
X0278644Y0229746D03*
X0269786Y0240573D03*
X0262699Y0240573D03*
X0266183Y0276006D03*
X0259097Y0276006D03*
X0323565Y0275022D03*
X0330652Y0275022D03*
D17*
X0064865Y0164195D03*
X0059746Y0164195D03*
X0062306Y0156715D03*
D18*
X0082365Y0149451D03*
X0087365Y0149451D03*
X0092365Y0149451D03*
X0097365Y0149451D03*
X0097365Y0171459D03*
X0092365Y0171459D03*
X0087365Y0171459D03*
X0082365Y0171459D03*
D19*
X0089865Y0158723D03*
D20*
X0111636Y0150219D03*
X0111636Y0167542D03*
D21*
X0270691Y0167739D03*
X0270691Y0169707D03*
X0270691Y0171676D03*
X0270691Y0173644D03*
X0270691Y0175613D03*
X0270691Y0177581D03*
X0270691Y0179550D03*
X0270691Y0181518D03*
X0270691Y0183487D03*
X0270691Y0185455D03*
X0270691Y0187424D03*
X0270691Y0189392D03*
X0270691Y0191361D03*
X0270691Y0193329D03*
X0270691Y0165770D03*
X0270691Y0163802D03*
X0314786Y0163802D03*
X0314786Y0165770D03*
X0314786Y0167739D03*
X0314786Y0169707D03*
X0314786Y0171676D03*
X0314786Y0173644D03*
X0314786Y0175613D03*
X0314786Y0177581D03*
X0314786Y0179550D03*
X0314786Y0181518D03*
X0314786Y0183487D03*
X0314786Y0185455D03*
X0314786Y0187424D03*
X0314786Y0189392D03*
X0314786Y0191361D03*
X0314786Y0193329D03*
D22*
X0307502Y0200613D03*
X0305534Y0200613D03*
X0303565Y0200613D03*
X0301597Y0200613D03*
X0299628Y0200613D03*
X0297660Y0200613D03*
X0295691Y0200613D03*
X0293723Y0200613D03*
X0291754Y0200613D03*
X0289786Y0200613D03*
X0287817Y0200613D03*
X0285849Y0200613D03*
X0283880Y0200613D03*
X0281912Y0200613D03*
X0279943Y0200613D03*
X0277975Y0200613D03*
X0277975Y0156518D03*
X0279943Y0156518D03*
X0281912Y0156518D03*
X0283880Y0156518D03*
X0285849Y0156518D03*
X0287817Y0156518D03*
X0289786Y0156518D03*
X0291754Y0156518D03*
X0293723Y0156518D03*
X0295691Y0156518D03*
X0297660Y0156518D03*
X0299628Y0156518D03*
X0301597Y0156518D03*
X0303565Y0156518D03*
X0305534Y0156518D03*
X0307502Y0156518D03*
D23*
X0314786Y0239431D03*
X0314786Y0241991D03*
X0314786Y0244550D03*
X0314786Y0247109D03*
X0314786Y0249668D03*
X0314786Y0252227D03*
X0314786Y0254786D03*
X0314786Y0257345D03*
X0314786Y0259904D03*
X0314786Y0262463D03*
X0314786Y0265022D03*
X0314786Y0267581D03*
X0314786Y0270140D03*
X0314786Y0272699D03*
X0286439Y0272699D03*
X0286439Y0270140D03*
X0286439Y0267581D03*
X0286439Y0265022D03*
X0286439Y0262463D03*
X0286439Y0259904D03*
X0286439Y0257345D03*
X0286439Y0254786D03*
X0286439Y0252227D03*
X0286439Y0249668D03*
X0286439Y0247109D03*
X0286439Y0244550D03*
X0286439Y0241991D03*
X0286439Y0239431D03*
D24*
X0287660Y0218565D03*
X0277817Y0218565D03*
D25*
X0277975Y0217935D02*
X0270101Y0217935D01*
X0277975Y0215967D02*
X0281912Y0215967D01*
X0281912Y0201203D01*
X0283880Y0201203D02*
X0283880Y0215967D01*
X0287817Y0215967D01*
X0286833Y0218920D02*
X0278959Y0229746D01*
X0279943Y0235652D02*
X0282565Y0235652D01*
X0283130Y0235418D02*
X0293723Y0224825D01*
X0293723Y0202187D01*
X0295691Y0202187D02*
X0295691Y0225809D01*
X0285099Y0236402D01*
X0284865Y0236968D02*
X0284865Y0239589D01*
X0284865Y0241807D02*
X0279943Y0241807D01*
X0279943Y0235652D01*
X0282565Y0235652D02*
X0282617Y0235650D01*
X0282669Y0235645D01*
X0282721Y0235637D01*
X0282772Y0235625D01*
X0282822Y0235610D01*
X0282871Y0235591D01*
X0282919Y0235569D01*
X0282965Y0235545D01*
X0283009Y0235517D01*
X0283052Y0235487D01*
X0283092Y0235453D01*
X0283131Y0235418D01*
X0285099Y0236402D02*
X0285064Y0236441D01*
X0285030Y0236481D01*
X0285000Y0236524D01*
X0284972Y0236568D01*
X0284948Y0236614D01*
X0284926Y0236662D01*
X0284907Y0236711D01*
X0284892Y0236761D01*
X0284880Y0236812D01*
X0284872Y0236864D01*
X0284867Y0236916D01*
X0284865Y0236968D01*
X0279709Y0249197D02*
X0279748Y0249232D01*
X0279788Y0249266D01*
X0279831Y0249296D01*
X0279875Y0249324D01*
X0279921Y0249348D01*
X0279969Y0249370D01*
X0280018Y0249389D01*
X0280068Y0249404D01*
X0280119Y0249416D01*
X0280171Y0249424D01*
X0280223Y0249429D01*
X0280275Y0249431D01*
X0286833Y0249431D01*
X0285849Y0252384D02*
X0269117Y0252384D01*
X0270101Y0250416D02*
X0270101Y0239589D01*
X0277975Y0247463D02*
X0279709Y0249197D01*
X0278306Y0254353D02*
X0285849Y0254353D01*
X0278306Y0254353D02*
X0278254Y0254355D01*
X0278202Y0254360D01*
X0278150Y0254368D01*
X0278099Y0254380D01*
X0278049Y0254395D01*
X0278000Y0254414D01*
X0277952Y0254436D01*
X0277906Y0254460D01*
X0277862Y0254488D01*
X0277819Y0254518D01*
X0277779Y0254552D01*
X0277740Y0254587D01*
X0274038Y0258290D01*
X0265511Y0258290D01*
X0264945Y0258524D02*
X0260258Y0263211D01*
X0257798Y0265672D02*
X0257798Y0274691D01*
X0258032Y0275256D02*
X0258782Y0276006D01*
X0258032Y0275257D02*
X0257997Y0275218D01*
X0257963Y0275178D01*
X0257933Y0275135D01*
X0257905Y0275091D01*
X0257881Y0275045D01*
X0257859Y0274997D01*
X0257840Y0274948D01*
X0257825Y0274898D01*
X0257813Y0274847D01*
X0257805Y0274795D01*
X0257800Y0274743D01*
X0257798Y0274691D01*
X0253369Y0280928D02*
X0273054Y0280928D01*
X0273054Y0269117D01*
X0276991Y0265180D01*
X0276991Y0265573D02*
X0279746Y0265573D01*
X0281321Y0267148D01*
X0281321Y0271479D01*
X0282896Y0273054D01*
X0286046Y0273054D01*
X0286439Y0267581D02*
X0293172Y0267581D01*
X0296676Y0271085D01*
X0296676Y0280928D01*
X0302581Y0280928D02*
X0302581Y0276991D01*
X0298276Y0272685D01*
X0298276Y0270422D01*
X0293447Y0265594D01*
X0287011Y0265594D01*
X0286439Y0265022D01*
X0287817Y0262227D02*
X0292407Y0262227D01*
X0292973Y0261992D02*
X0294707Y0260258D01*
X0292973Y0261993D02*
X0292934Y0262028D01*
X0292894Y0262062D01*
X0292851Y0262092D01*
X0292807Y0262120D01*
X0292761Y0262144D01*
X0292713Y0262166D01*
X0292664Y0262185D01*
X0292614Y0262200D01*
X0292563Y0262212D01*
X0292511Y0262220D01*
X0292459Y0262225D01*
X0292407Y0262227D01*
X0308487Y0254353D02*
X0308487Y0273054D01*
X0316361Y0273054D01*
X0316361Y0270101D02*
X0319966Y0270101D01*
X0320532Y0270335D02*
X0323250Y0273054D01*
X0322687Y0274998D02*
X0322687Y0278538D01*
X0316361Y0284865D01*
X0249431Y0284865D01*
X0249431Y0213101D01*
X0236790Y0213101D01*
X0197187Y0173498D01*
X0197071Y0160741D01*
X0229746Y0154943D02*
X0229746Y0107699D01*
X0223967Y0101920D01*
X0217901Y0101920D01*
X0171557Y0055576D01*
X0171557Y0041164D01*
X0180534Y0042739D02*
X0180534Y0052581D01*
X0225072Y0097120D01*
X0279602Y0097120D01*
X0297660Y0115177D01*
X0297660Y0156518D01*
X0299628Y0156518D02*
X0299628Y0114883D01*
X0280265Y0095520D01*
X0236958Y0095520D01*
X0227484Y0086046D01*
X0223841Y0086046D01*
X0217935Y0086046D02*
X0201557Y0069668D01*
X0201557Y0041164D01*
X0192345Y0041951D02*
X0191557Y0041164D01*
X0192345Y0041951D02*
X0192345Y0060455D01*
X0192345Y0070298D02*
X0195988Y0070298D01*
X0205404Y0079714D01*
X0205404Y0087159D01*
X0218564Y0100320D01*
X0278277Y0100320D01*
X0293723Y0115766D01*
X0293723Y0156518D01*
X0295691Y0156518D02*
X0295691Y0115472D01*
X0278939Y0098720D01*
X0224410Y0098720D01*
X0211736Y0086046D01*
X0208093Y0086046D01*
X0211557Y0067857D02*
X0211557Y0041164D01*
X0221557Y0041164D02*
X0221557Y0039117D01*
X0229746Y0030928D01*
X0247463Y0030928D01*
X0251400Y0034865D01*
X0251400Y0091231D01*
X0251400Y0101920D02*
X0251400Y0103009D01*
X0251400Y0101920D02*
X0277614Y0101920D01*
X0291754Y0116060D01*
X0291754Y0156518D01*
X0287817Y0156518D02*
X0287817Y0140180D01*
X0275022Y0127384D01*
X0265180Y0127384D01*
X0270101Y0154943D02*
X0270101Y0155928D01*
X0270101Y0163802D01*
X0270101Y0165770D02*
X0266495Y0165770D01*
X0265929Y0165536D02*
X0262227Y0161833D01*
X0265929Y0165536D02*
X0265968Y0165571D01*
X0266008Y0165605D01*
X0266051Y0165635D01*
X0266095Y0165663D01*
X0266141Y0165687D01*
X0266189Y0165709D01*
X0266238Y0165728D01*
X0266288Y0165743D01*
X0266339Y0165755D01*
X0266391Y0165763D01*
X0266443Y0165768D01*
X0266495Y0165770D01*
X0270101Y0155928D02*
X0258290Y0155928D01*
X0253369Y0154943D02*
X0253369Y0198250D01*
X0269117Y0198250D01*
X0269117Y0202187D01*
X0274554Y0201187D02*
X0274554Y0196632D01*
X0275687Y0195498D01*
X0309687Y0195498D01*
X0315687Y0201498D01*
X0316687Y0201998D01*
X0319966Y0193329D02*
X0320018Y0193331D01*
X0320070Y0193336D01*
X0320122Y0193344D01*
X0320173Y0193356D01*
X0320223Y0193371D01*
X0320272Y0193390D01*
X0320320Y0193412D01*
X0320366Y0193436D01*
X0320410Y0193464D01*
X0320453Y0193494D01*
X0320493Y0193528D01*
X0320532Y0193563D01*
X0322266Y0195298D01*
X0319966Y0193329D02*
X0315376Y0193329D01*
X0307502Y0201203D02*
X0327187Y0201203D01*
X0328172Y0202187D02*
X0332109Y0202187D01*
X0336046Y0206124D01*
X0336046Y0249431D01*
X0328172Y0249431D01*
X0328664Y0252384D02*
X0328664Y0252876D01*
X0327680Y0252876D02*
X0327680Y0245002D01*
X0322266Y0243034D02*
X0322266Y0247463D01*
X0317345Y0247463D01*
X0316853Y0249924D02*
X0323743Y0249924D01*
X0326695Y0252876D01*
X0321282Y0252384D02*
X0321282Y0262227D01*
X0316361Y0262227D01*
X0320458Y0267640D02*
X0320550Y0267634D01*
X0320642Y0267624D01*
X0320733Y0267610D01*
X0320824Y0267592D01*
X0320914Y0267571D01*
X0321003Y0267546D01*
X0321091Y0267518D01*
X0321178Y0267486D01*
X0321263Y0267450D01*
X0321347Y0267411D01*
X0321429Y0267368D01*
X0321509Y0267322D01*
X0321587Y0267273D01*
X0321663Y0267220D01*
X0321737Y0267165D01*
X0321808Y0267106D01*
X0321877Y0267045D01*
X0321944Y0266980D01*
X0322008Y0266913D01*
X0322008Y0266914D02*
X0323250Y0265672D01*
X0320458Y0267640D02*
X0314884Y0267640D01*
X0319966Y0270101D02*
X0320018Y0270103D01*
X0320070Y0270108D01*
X0320122Y0270116D01*
X0320173Y0270128D01*
X0320223Y0270143D01*
X0320272Y0270162D01*
X0320320Y0270184D01*
X0320366Y0270208D01*
X0320410Y0270236D01*
X0320453Y0270266D01*
X0320493Y0270300D01*
X0320532Y0270335D01*
X0314392Y0254353D02*
X0308487Y0254353D01*
X0316361Y0252384D02*
X0321282Y0252384D01*
X0320298Y0244510D02*
X0317345Y0244510D01*
X0320298Y0244510D02*
X0320298Y0231262D01*
X0301597Y0212561D01*
X0301597Y0200219D01*
X0299628Y0199727D02*
X0299628Y0217935D01*
X0312916Y0231223D01*
X0312916Y0239589D01*
X0313166Y0241807D02*
X0306768Y0241807D01*
X0297660Y0232699D01*
X0297660Y0201203D01*
X0303565Y0202187D02*
X0303565Y0208093D01*
X0312681Y0217209D01*
X0314906Y0217209D01*
X0312916Y0213998D02*
X0316922Y0213998D01*
X0321489Y0218565D01*
X0312916Y0213998D02*
X0305534Y0206617D01*
X0305534Y0202680D01*
X0291754Y0203503D02*
X0291754Y0207109D01*
X0285849Y0207109D01*
X0285849Y0201203D01*
X0279943Y0202187D02*
X0279943Y0205140D01*
X0276991Y0208093D01*
X0277975Y0201203D02*
X0258782Y0201203D01*
X0253369Y0198250D02*
X0253369Y0280928D01*
X0251754Y0304943D02*
X0217187Y0339510D01*
X0222087Y0337681D02*
X0222087Y0341540D01*
X0219217Y0344410D01*
X0212087Y0344410D01*
X0207187Y0339510D01*
X0222087Y0337681D02*
X0253225Y0306543D01*
X0284890Y0306543D01*
X0286833Y0308487D01*
X0295101Y0308487D01*
X0298644Y0304943D01*
X0298644Y0296676D01*
X0302581Y0292739D01*
X0302581Y0288802D01*
X0296676Y0288802D02*
X0296676Y0292739D01*
X0290770Y0298644D01*
X0290770Y0304943D01*
X0251754Y0304943D01*
X0290770Y0312030D02*
X0294707Y0315967D01*
X0294707Y0318329D01*
X0294707Y0318723D01*
X0294707Y0315967D02*
X0298644Y0312030D01*
X0265511Y0258290D02*
X0265459Y0258292D01*
X0265407Y0258297D01*
X0265355Y0258305D01*
X0265304Y0258317D01*
X0265254Y0258332D01*
X0265205Y0258351D01*
X0265157Y0258373D01*
X0265111Y0258397D01*
X0265067Y0258425D01*
X0265024Y0258455D01*
X0264984Y0258489D01*
X0264945Y0258524D01*
X0322266Y0243034D02*
X0326203Y0239097D01*
X0347857Y0221872D02*
X0354865Y0228880D01*
X0356231Y0228880D01*
X0355731Y0229380D01*
X0355731Y0251400D01*
X0355731Y0263211D02*
X0355731Y0273447D01*
X0355731Y0280534D02*
X0355731Y0284865D01*
X0347857Y0221872D02*
X0347857Y0213998D01*
X0346257Y0212398D01*
X0346257Y0181361D01*
X0343057Y0178161D01*
X0343057Y0164806D01*
X0339569Y0161318D01*
X0323397Y0161318D01*
X0321898Y0162817D01*
X0321898Y0166161D01*
X0318628Y0169431D01*
X0315062Y0169431D01*
X0314786Y0169707D01*
X0314786Y0167739D02*
X0315062Y0167462D01*
X0318334Y0167462D01*
X0320298Y0165499D01*
X0320298Y0160553D01*
X0321132Y0159718D01*
X0340232Y0159718D01*
X0344657Y0164143D01*
X0344657Y0177499D01*
X0347857Y0180699D01*
X0347857Y0211506D01*
X0355231Y0218880D01*
X0356231Y0188880D02*
X0356231Y0186810D01*
X0346257Y0176836D01*
X0346257Y0163480D01*
X0340895Y0158118D01*
X0320469Y0158118D01*
X0314786Y0163802D01*
X0311143Y0154918D02*
X0342269Y0154918D01*
X0350331Y0162980D01*
X0350331Y0163077D01*
X0351034Y0163780D01*
X0351131Y0163780D01*
X0356231Y0168880D01*
X0355231Y0158880D02*
X0348493Y0158880D01*
X0342931Y0153318D01*
X0311805Y0153318D01*
X0309154Y0150667D01*
X0305850Y0150667D01*
X0303842Y0152676D01*
X0303842Y0156242D01*
X0303565Y0156518D01*
X0301597Y0156518D02*
X0301597Y0114589D01*
X0280928Y0093920D01*
X0237620Y0093920D01*
X0211557Y0067857D01*
X0231557Y0083920D02*
X0231557Y0041164D01*
X0231557Y0083920D02*
X0233683Y0086046D01*
X0305810Y0152970D02*
X0306513Y0152267D01*
X0308492Y0152267D01*
X0311143Y0154918D01*
X0307502Y0156518D02*
X0341557Y0156518D01*
X0347857Y0162817D01*
X0347857Y0174628D01*
X0352109Y0178880D01*
X0355231Y0178880D01*
X0305810Y0156242D02*
X0305810Y0152970D01*
X0305810Y0156242D02*
X0305534Y0156518D01*
X0270691Y0191361D02*
X0266164Y0191361D01*
X0265180Y0190376D01*
X0265180Y0182502D01*
X0261243Y0178565D01*
X0259274Y0178565D01*
X0247463Y0178565D02*
X0239195Y0178565D01*
X0232109Y0178565D02*
X0227778Y0178565D01*
X0227778Y0190376D02*
X0232109Y0190376D01*
X0239195Y0190376D02*
X0247463Y0190376D01*
X0259274Y0190376D02*
X0262227Y0193329D01*
X0270691Y0193329D01*
X0118744Y0185252D02*
X0086127Y0185252D01*
X0086446Y0184454D02*
X0118786Y0184454D01*
X0118828Y0183655D02*
X0086766Y0183655D01*
X0087085Y0182856D02*
X0118870Y0182856D01*
X0118912Y0182058D02*
X0087405Y0182058D01*
X0087724Y0181259D02*
X0118954Y0181259D01*
X0118996Y0180461D02*
X0088043Y0180461D01*
X0088363Y0179662D02*
X0119038Y0179662D01*
X0119080Y0178864D02*
X0088682Y0178864D01*
X0089002Y0178065D02*
X0119122Y0178065D01*
X0119164Y0177267D02*
X0089321Y0177267D01*
X0089640Y0176468D02*
X0119206Y0176468D01*
X0119248Y0175670D02*
X0089960Y0175670D01*
X0090279Y0174871D02*
X0119290Y0174871D01*
X0119332Y0174073D02*
X0090599Y0174073D01*
X0090918Y0173274D02*
X0119374Y0173274D01*
X0119416Y0172476D02*
X0091237Y0172476D01*
X0091557Y0171677D02*
X0119458Y0171677D01*
X0119500Y0170879D02*
X0091876Y0170879D01*
X0091951Y0170691D02*
X0084077Y0190376D01*
X0075660Y0193182D01*
X0075389Y0193453D01*
X0073245Y0197055D01*
X0074353Y0198162D01*
X0075435Y0200774D01*
X0075435Y0203601D01*
X0074353Y0206212D01*
X0072354Y0208211D01*
X0072266Y0208248D01*
X0072266Y0375416D01*
X0111636Y0375416D01*
X0111636Y0371991D01*
X0109217Y0374410D01*
X0105158Y0374410D01*
X0102287Y0371540D01*
X0102287Y0367481D01*
X0105158Y0364610D01*
X0109217Y0364610D01*
X0111636Y0367029D01*
X0111636Y0351991D01*
X0109217Y0354410D01*
X0105158Y0354410D01*
X0102287Y0351540D01*
X0102287Y0347481D01*
X0105158Y0344610D01*
X0109217Y0344610D01*
X0111636Y0347029D01*
X0111636Y0320298D01*
X0119510Y0170691D01*
X0091951Y0170691D01*
X0087896Y0170879D02*
X0097739Y0170879D01*
X0097739Y0170298D02*
X0087896Y0170298D01*
X0087896Y0178172D01*
X0097739Y0178172D01*
X0097739Y0170298D01*
X0097739Y0171677D02*
X0087896Y0171677D01*
X0087365Y0171459D02*
X0087270Y0171459D01*
X0084062Y0174667D01*
X0080667Y0174667D01*
X0077872Y0171872D01*
X0074117Y0171872D01*
X0074117Y0164786D02*
X0075691Y0164786D01*
X0082365Y0171459D01*
X0087896Y0172476D02*
X0097739Y0172476D01*
X0097739Y0173274D02*
X0087896Y0173274D01*
X0087896Y0174073D02*
X0097739Y0174073D01*
X0097739Y0174871D02*
X0087896Y0174871D01*
X0087896Y0175670D02*
X0097739Y0175670D01*
X0097739Y0176468D02*
X0087896Y0176468D01*
X0087896Y0177267D02*
X0097739Y0177267D01*
X0097739Y0178065D02*
X0087896Y0178065D01*
X0085808Y0186051D02*
X0118702Y0186051D01*
X0118660Y0186849D02*
X0085488Y0186849D01*
X0085169Y0187648D02*
X0118618Y0187648D01*
X0118576Y0188446D02*
X0084849Y0188446D01*
X0084530Y0189245D02*
X0118534Y0189245D01*
X0118492Y0190043D02*
X0084210Y0190043D01*
X0082682Y0190842D02*
X0118450Y0190842D01*
X0118408Y0191640D02*
X0080286Y0191640D01*
X0077890Y0192439D02*
X0118366Y0192439D01*
X0118324Y0193237D02*
X0075605Y0193237D01*
X0075042Y0194036D02*
X0118282Y0194036D01*
X0118240Y0194834D02*
X0074567Y0194834D01*
X0074092Y0195633D02*
X0118198Y0195633D01*
X0118155Y0196431D02*
X0073617Y0196431D01*
X0073420Y0197230D02*
X0118113Y0197230D01*
X0118071Y0198028D02*
X0074219Y0198028D01*
X0074628Y0198827D02*
X0118029Y0198827D01*
X0117987Y0199625D02*
X0074959Y0199625D01*
X0075290Y0200424D02*
X0117945Y0200424D01*
X0117903Y0201222D02*
X0075435Y0201222D01*
X0075435Y0202021D02*
X0117861Y0202021D01*
X0117819Y0202819D02*
X0075435Y0202819D01*
X0075428Y0203618D02*
X0117777Y0203618D01*
X0117735Y0204416D02*
X0075097Y0204416D01*
X0074766Y0205215D02*
X0117693Y0205215D01*
X0117651Y0206013D02*
X0074435Y0206013D01*
X0073753Y0206812D02*
X0117609Y0206812D01*
X0117567Y0207610D02*
X0072955Y0207610D01*
X0072266Y0208409D02*
X0117525Y0208409D01*
X0117483Y0209207D02*
X0072266Y0209207D01*
X0072266Y0210006D02*
X0117441Y0210006D01*
X0117399Y0210804D02*
X0072266Y0210804D01*
X0072266Y0211603D02*
X0117357Y0211603D01*
X0117315Y0212401D02*
X0072266Y0212401D01*
X0072266Y0213200D02*
X0117273Y0213200D01*
X0117231Y0213998D02*
X0072266Y0213998D01*
X0072266Y0214797D02*
X0117189Y0214797D01*
X0117147Y0215595D02*
X0072266Y0215595D01*
X0072266Y0216394D02*
X0117105Y0216394D01*
X0117063Y0217192D02*
X0072266Y0217192D01*
X0072266Y0217991D02*
X0117021Y0217991D01*
X0116979Y0218789D02*
X0072266Y0218789D01*
X0072266Y0219588D02*
X0116937Y0219588D01*
X0116895Y0220387D02*
X0072266Y0220387D01*
X0072266Y0221185D02*
X0116853Y0221185D01*
X0116811Y0221984D02*
X0072266Y0221984D01*
X0072266Y0222782D02*
X0116769Y0222782D01*
X0116727Y0223581D02*
X0072266Y0223581D01*
X0072266Y0224379D02*
X0116685Y0224379D01*
X0116643Y0225178D02*
X0072266Y0225178D01*
X0072266Y0225976D02*
X0116601Y0225976D01*
X0116558Y0226775D02*
X0072266Y0226775D01*
X0072266Y0227573D02*
X0116516Y0227573D01*
X0116474Y0228372D02*
X0072266Y0228372D01*
X0072266Y0229170D02*
X0116432Y0229170D01*
X0116390Y0229969D02*
X0072266Y0229969D01*
X0072266Y0230767D02*
X0116348Y0230767D01*
X0116306Y0231566D02*
X0072266Y0231566D01*
X0072266Y0232364D02*
X0116264Y0232364D01*
X0116222Y0233163D02*
X0072266Y0233163D01*
X0072266Y0233961D02*
X0116180Y0233961D01*
X0116138Y0234760D02*
X0072266Y0234760D01*
X0072266Y0235558D02*
X0116096Y0235558D01*
X0116054Y0236357D02*
X0072266Y0236357D01*
X0072266Y0237155D02*
X0116012Y0237155D01*
X0115970Y0237954D02*
X0072266Y0237954D01*
X0072266Y0238752D02*
X0115928Y0238752D01*
X0115886Y0239551D02*
X0072266Y0239551D01*
X0072266Y0240349D02*
X0115844Y0240349D01*
X0115802Y0241148D02*
X0072266Y0241148D01*
X0072266Y0241946D02*
X0115760Y0241946D01*
X0115718Y0242745D02*
X0072266Y0242745D01*
X0072266Y0243543D02*
X0115676Y0243543D01*
X0115634Y0244342D02*
X0072266Y0244342D01*
X0072266Y0245140D02*
X0115592Y0245140D01*
X0115550Y0245939D02*
X0072266Y0245939D01*
X0072266Y0246737D02*
X0115508Y0246737D01*
X0115466Y0247536D02*
X0072266Y0247536D01*
X0072266Y0248334D02*
X0115424Y0248334D01*
X0115382Y0249133D02*
X0072266Y0249133D01*
X0072266Y0249931D02*
X0115340Y0249931D01*
X0115298Y0250730D02*
X0072266Y0250730D01*
X0072266Y0251528D02*
X0115256Y0251528D01*
X0115214Y0252327D02*
X0072266Y0252327D01*
X0072266Y0253125D02*
X0115172Y0253125D01*
X0115130Y0253924D02*
X0072266Y0253924D01*
X0072266Y0254723D02*
X0115088Y0254723D01*
X0115046Y0255521D02*
X0072266Y0255521D01*
X0072266Y0256320D02*
X0115003Y0256320D01*
X0114961Y0257118D02*
X0072266Y0257118D01*
X0072266Y0257917D02*
X0114919Y0257917D01*
X0114877Y0258715D02*
X0072266Y0258715D01*
X0072266Y0259514D02*
X0114835Y0259514D01*
X0114793Y0260312D02*
X0072266Y0260312D01*
X0072266Y0261111D02*
X0114751Y0261111D01*
X0114709Y0261909D02*
X0072266Y0261909D01*
X0072266Y0262708D02*
X0114667Y0262708D01*
X0114625Y0263506D02*
X0072266Y0263506D01*
X0072266Y0264305D02*
X0114583Y0264305D01*
X0114541Y0265103D02*
X0072266Y0265103D01*
X0072266Y0265902D02*
X0114499Y0265902D01*
X0114457Y0266700D02*
X0072266Y0266700D01*
X0072266Y0267499D02*
X0114415Y0267499D01*
X0114373Y0268297D02*
X0072266Y0268297D01*
X0072266Y0269096D02*
X0114331Y0269096D01*
X0114289Y0269894D02*
X0072266Y0269894D01*
X0072266Y0270693D02*
X0114247Y0270693D01*
X0114205Y0271491D02*
X0072266Y0271491D01*
X0072266Y0272290D02*
X0114163Y0272290D01*
X0114121Y0273088D02*
X0072266Y0273088D01*
X0072266Y0273887D02*
X0114079Y0273887D01*
X0114037Y0274685D02*
X0072266Y0274685D01*
X0072266Y0275484D02*
X0113995Y0275484D01*
X0113953Y0276282D02*
X0072266Y0276282D01*
X0072266Y0277081D02*
X0113911Y0277081D01*
X0113869Y0277879D02*
X0072266Y0277879D01*
X0072266Y0278678D02*
X0113827Y0278678D01*
X0113785Y0279476D02*
X0072266Y0279476D01*
X0072266Y0280275D02*
X0113743Y0280275D01*
X0113701Y0281073D02*
X0072266Y0281073D01*
X0072266Y0281872D02*
X0113659Y0281872D01*
X0113617Y0282670D02*
X0072266Y0282670D01*
X0072266Y0283469D02*
X0113575Y0283469D01*
X0113533Y0284267D02*
X0072266Y0284267D01*
X0072266Y0285066D02*
X0113491Y0285066D01*
X0113448Y0285864D02*
X0072266Y0285864D01*
X0072266Y0286663D02*
X0113406Y0286663D01*
X0113364Y0287461D02*
X0072266Y0287461D01*
X0072266Y0288260D02*
X0113322Y0288260D01*
X0113280Y0289058D02*
X0072266Y0289058D01*
X0072266Y0289857D02*
X0113238Y0289857D01*
X0113196Y0290656D02*
X0072266Y0290656D01*
X0072266Y0291454D02*
X0113154Y0291454D01*
X0113112Y0292253D02*
X0072266Y0292253D01*
X0072266Y0293051D02*
X0113070Y0293051D01*
X0113028Y0293850D02*
X0072266Y0293850D01*
X0072266Y0294648D02*
X0112986Y0294648D01*
X0112944Y0295447D02*
X0072266Y0295447D01*
X0072266Y0296245D02*
X0112902Y0296245D01*
X0112860Y0297044D02*
X0072266Y0297044D01*
X0072266Y0297842D02*
X0112818Y0297842D01*
X0112776Y0298641D02*
X0072266Y0298641D01*
X0072266Y0299439D02*
X0112734Y0299439D01*
X0112692Y0300238D02*
X0072266Y0300238D01*
X0072266Y0301036D02*
X0112650Y0301036D01*
X0112608Y0301835D02*
X0072266Y0301835D01*
X0072266Y0302633D02*
X0112566Y0302633D01*
X0112524Y0303432D02*
X0072266Y0303432D01*
X0072266Y0304230D02*
X0112482Y0304230D01*
X0112440Y0305029D02*
X0072266Y0305029D01*
X0072266Y0305827D02*
X0112398Y0305827D01*
X0112356Y0306626D02*
X0072266Y0306626D01*
X0072266Y0307424D02*
X0112314Y0307424D01*
X0112272Y0308223D02*
X0072266Y0308223D01*
X0072266Y0309021D02*
X0112230Y0309021D01*
X0112188Y0309820D02*
X0072266Y0309820D01*
X0072266Y0310618D02*
X0112146Y0310618D01*
X0112104Y0311417D02*
X0072266Y0311417D01*
X0072266Y0312215D02*
X0112062Y0312215D01*
X0112020Y0313014D02*
X0072266Y0313014D01*
X0072266Y0313812D02*
X0111978Y0313812D01*
X0111936Y0314611D02*
X0072266Y0314611D01*
X0072266Y0315409D02*
X0111893Y0315409D01*
X0111851Y0316208D02*
X0072266Y0316208D01*
X0072266Y0317006D02*
X0111809Y0317006D01*
X0111767Y0317805D02*
X0072266Y0317805D01*
X0072266Y0318603D02*
X0111725Y0318603D01*
X0111683Y0319402D02*
X0072266Y0319402D01*
X0072266Y0320200D02*
X0111641Y0320200D01*
X0111636Y0320999D02*
X0072266Y0320999D01*
X0072266Y0321797D02*
X0111636Y0321797D01*
X0111636Y0322596D02*
X0072266Y0322596D01*
X0072266Y0323394D02*
X0111636Y0323394D01*
X0111636Y0324193D02*
X0072266Y0324193D01*
X0072266Y0324991D02*
X0111636Y0324991D01*
X0111636Y0325790D02*
X0072266Y0325790D01*
X0072266Y0326589D02*
X0111636Y0326589D01*
X0111636Y0327387D02*
X0072266Y0327387D01*
X0072266Y0328186D02*
X0111636Y0328186D01*
X0111636Y0328984D02*
X0072266Y0328984D01*
X0072266Y0329783D02*
X0111636Y0329783D01*
X0111636Y0330581D02*
X0072266Y0330581D01*
X0072266Y0331380D02*
X0111636Y0331380D01*
X0111636Y0332178D02*
X0072266Y0332178D01*
X0072266Y0332977D02*
X0111636Y0332977D01*
X0111636Y0333775D02*
X0072266Y0333775D01*
X0072266Y0334574D02*
X0111636Y0334574D01*
X0111636Y0335372D02*
X0099979Y0335372D01*
X0099217Y0334610D02*
X0102087Y0337481D01*
X0102087Y0341540D01*
X0099217Y0344410D01*
X0095158Y0344410D01*
X0092287Y0341540D01*
X0092287Y0337481D01*
X0095158Y0334610D01*
X0099217Y0334610D01*
X0100777Y0336171D02*
X0111636Y0336171D01*
X0111636Y0336969D02*
X0101576Y0336969D01*
X0102087Y0337768D02*
X0111636Y0337768D01*
X0111636Y0338566D02*
X0102087Y0338566D01*
X0102087Y0339365D02*
X0111636Y0339365D01*
X0111636Y0340163D02*
X0102087Y0340163D01*
X0102087Y0340962D02*
X0111636Y0340962D01*
X0111636Y0341760D02*
X0101867Y0341760D01*
X0101069Y0342559D02*
X0111636Y0342559D01*
X0111636Y0343357D02*
X0100270Y0343357D01*
X0099471Y0344156D02*
X0111636Y0344156D01*
X0111636Y0344954D02*
X0109561Y0344954D01*
X0110360Y0345753D02*
X0111636Y0345753D01*
X0111636Y0346551D02*
X0111158Y0346551D01*
X0104814Y0344954D02*
X0089561Y0344954D01*
X0089217Y0344610D02*
X0092087Y0347481D01*
X0092087Y0351540D01*
X0089217Y0354410D01*
X0085158Y0354410D01*
X0082287Y0351540D01*
X0082287Y0347481D01*
X0085158Y0344610D01*
X0089217Y0344610D01*
X0090360Y0345753D02*
X0104015Y0345753D01*
X0103217Y0346551D02*
X0091158Y0346551D01*
X0091957Y0347350D02*
X0102418Y0347350D01*
X0102287Y0348148D02*
X0092087Y0348148D01*
X0092087Y0348947D02*
X0102287Y0348947D01*
X0102287Y0349745D02*
X0092087Y0349745D01*
X0092087Y0350544D02*
X0102287Y0350544D01*
X0102287Y0351342D02*
X0092087Y0351342D01*
X0091486Y0352141D02*
X0102888Y0352141D01*
X0103687Y0352939D02*
X0090688Y0352939D01*
X0089889Y0353738D02*
X0104485Y0353738D01*
X0101539Y0356932D02*
X0111636Y0356932D01*
X0111636Y0357730D02*
X0102087Y0357730D01*
X0102087Y0357481D02*
X0099217Y0354610D01*
X0095158Y0354610D01*
X0092287Y0357481D01*
X0092287Y0361540D01*
X0095158Y0364410D01*
X0099217Y0364410D01*
X0102087Y0361540D01*
X0102087Y0357481D01*
X0102087Y0358529D02*
X0111636Y0358529D01*
X0111636Y0359327D02*
X0102087Y0359327D01*
X0102087Y0360126D02*
X0111636Y0360126D01*
X0111636Y0360925D02*
X0102087Y0360925D01*
X0101904Y0361723D02*
X0111636Y0361723D01*
X0111636Y0362522D02*
X0101106Y0362522D01*
X0100307Y0363320D02*
X0111636Y0363320D01*
X0111636Y0364119D02*
X0099509Y0364119D01*
X0102455Y0367313D02*
X0091919Y0367313D01*
X0092087Y0367481D02*
X0089217Y0364610D01*
X0085158Y0364610D01*
X0082287Y0367481D01*
X0082287Y0371540D01*
X0085158Y0374410D01*
X0089217Y0374410D01*
X0092087Y0371540D01*
X0092087Y0367481D01*
X0092087Y0368111D02*
X0102287Y0368111D01*
X0102287Y0368910D02*
X0092087Y0368910D01*
X0092087Y0369708D02*
X0102287Y0369708D01*
X0102287Y0370507D02*
X0092087Y0370507D01*
X0092087Y0371305D02*
X0102287Y0371305D01*
X0102851Y0372104D02*
X0091524Y0372104D01*
X0090725Y0372902D02*
X0103650Y0372902D01*
X0104448Y0373701D02*
X0089927Y0373701D01*
X0084448Y0373701D02*
X0072266Y0373701D01*
X0072266Y0374499D02*
X0111636Y0374499D01*
X0111636Y0373701D02*
X0109927Y0373701D01*
X0110725Y0372902D02*
X0111636Y0372902D01*
X0111636Y0372104D02*
X0111524Y0372104D01*
X0111636Y0375298D02*
X0072266Y0375298D01*
X0072266Y0372902D02*
X0083650Y0372902D01*
X0082851Y0372104D02*
X0072266Y0372104D01*
X0072266Y0371305D02*
X0082287Y0371305D01*
X0082287Y0370507D02*
X0072266Y0370507D01*
X0072266Y0369708D02*
X0082287Y0369708D01*
X0082287Y0368910D02*
X0072266Y0368910D01*
X0072266Y0368111D02*
X0082287Y0368111D01*
X0082455Y0367313D02*
X0072266Y0367313D01*
X0072266Y0366514D02*
X0083254Y0366514D01*
X0084052Y0365716D02*
X0072266Y0365716D01*
X0072266Y0364917D02*
X0074665Y0364917D01*
X0075158Y0365410D02*
X0072287Y0362540D01*
X0072287Y0358481D01*
X0075158Y0355610D01*
X0079217Y0355610D01*
X0082087Y0358481D01*
X0082087Y0362540D01*
X0079217Y0365410D01*
X0075158Y0365410D01*
X0073866Y0364119D02*
X0072266Y0364119D01*
X0072266Y0363320D02*
X0073068Y0363320D01*
X0072287Y0362522D02*
X0072266Y0362522D01*
X0072266Y0361723D02*
X0072287Y0361723D01*
X0072266Y0360925D02*
X0072287Y0360925D01*
X0072266Y0360126D02*
X0072287Y0360126D01*
X0072266Y0359327D02*
X0072287Y0359327D01*
X0072266Y0358529D02*
X0072287Y0358529D01*
X0072266Y0357730D02*
X0073038Y0357730D01*
X0072266Y0356932D02*
X0073836Y0356932D01*
X0074635Y0356133D02*
X0072266Y0356133D01*
X0072266Y0355335D02*
X0094433Y0355335D01*
X0093635Y0356133D02*
X0079740Y0356133D01*
X0080539Y0356932D02*
X0092836Y0356932D01*
X0092287Y0357730D02*
X0081337Y0357730D01*
X0082087Y0358529D02*
X0092287Y0358529D01*
X0092287Y0359327D02*
X0082087Y0359327D01*
X0082087Y0360126D02*
X0092287Y0360126D01*
X0092287Y0360925D02*
X0082087Y0360925D01*
X0082087Y0361723D02*
X0092471Y0361723D01*
X0093269Y0362522D02*
X0082087Y0362522D01*
X0081307Y0363320D02*
X0094068Y0363320D01*
X0094866Y0364119D02*
X0080509Y0364119D01*
X0079710Y0364917D02*
X0084851Y0364917D01*
X0089524Y0364917D02*
X0104851Y0364917D01*
X0104052Y0365716D02*
X0090322Y0365716D01*
X0091121Y0366514D02*
X0103254Y0366514D01*
X0109524Y0364917D02*
X0111636Y0364917D01*
X0111636Y0365716D02*
X0110322Y0365716D01*
X0111121Y0366514D02*
X0111636Y0366514D01*
X0111636Y0356133D02*
X0100740Y0356133D01*
X0099942Y0355335D02*
X0111636Y0355335D01*
X0111636Y0354536D02*
X0072266Y0354536D01*
X0072266Y0353738D02*
X0084485Y0353738D01*
X0083687Y0352939D02*
X0072266Y0352939D01*
X0072266Y0352141D02*
X0082888Y0352141D01*
X0082287Y0351342D02*
X0072266Y0351342D01*
X0072266Y0350544D02*
X0082287Y0350544D01*
X0082287Y0349745D02*
X0072266Y0349745D01*
X0072266Y0348947D02*
X0082287Y0348947D01*
X0082287Y0348148D02*
X0072266Y0348148D01*
X0072266Y0347350D02*
X0082418Y0347350D01*
X0083217Y0346551D02*
X0072266Y0346551D01*
X0072266Y0345753D02*
X0084015Y0345753D01*
X0084814Y0344954D02*
X0079673Y0344954D01*
X0079217Y0345410D02*
X0075158Y0345410D01*
X0072287Y0342540D01*
X0072287Y0338481D01*
X0075158Y0335610D01*
X0079217Y0335610D01*
X0082087Y0338481D01*
X0082087Y0342540D01*
X0079217Y0345410D01*
X0080471Y0344156D02*
X0094903Y0344156D01*
X0094105Y0343357D02*
X0081270Y0343357D01*
X0082069Y0342559D02*
X0093306Y0342559D01*
X0092508Y0341760D02*
X0082087Y0341760D01*
X0082087Y0340962D02*
X0092287Y0340962D01*
X0092287Y0340163D02*
X0082087Y0340163D01*
X0082087Y0339365D02*
X0092287Y0339365D01*
X0092287Y0338566D02*
X0082087Y0338566D01*
X0081374Y0337768D02*
X0092287Y0337768D01*
X0092799Y0336969D02*
X0080576Y0336969D01*
X0079777Y0336171D02*
X0093597Y0336171D01*
X0094396Y0335372D02*
X0072266Y0335372D01*
X0072266Y0336171D02*
X0074597Y0336171D01*
X0073799Y0336969D02*
X0072266Y0336969D01*
X0072266Y0337768D02*
X0073000Y0337768D01*
X0072287Y0338566D02*
X0072266Y0338566D01*
X0072266Y0339365D02*
X0072287Y0339365D01*
X0072266Y0340163D02*
X0072287Y0340163D01*
X0072266Y0340962D02*
X0072287Y0340962D01*
X0072266Y0341760D02*
X0072287Y0341760D01*
X0072266Y0342559D02*
X0072306Y0342559D01*
X0072266Y0343357D02*
X0073105Y0343357D01*
X0073903Y0344156D02*
X0072266Y0344156D01*
X0072266Y0344954D02*
X0074702Y0344954D01*
X0109889Y0353738D02*
X0111636Y0353738D01*
X0111636Y0352939D02*
X0110688Y0352939D01*
X0111486Y0352141D02*
X0111636Y0352141D01*
X0068329Y0202187D02*
X0074117Y0192463D01*
X0074117Y0187620D01*
X0066243Y0187620D01*
X0065849Y0188014D01*
X0058762Y0188014D02*
X0058762Y0180140D01*
X0058762Y0172266D01*
X0058762Y0165180D01*
X0059746Y0164195D01*
X0058565Y0164195D01*
X0057384Y0165376D01*
X0058762Y0172266D02*
X0055416Y0172266D01*
X0056400Y0180140D02*
X0058762Y0180140D01*
X0065849Y0180140D02*
X0066243Y0180534D01*
X0074117Y0180534D01*
X0065849Y0180140D02*
X0065849Y0172266D01*
X0064865Y0171282D01*
X0064865Y0164195D01*
X0062306Y0156715D02*
X0061518Y0156715D01*
X0057384Y0152581D01*
X0057384Y0151991D01*
X0058762Y0150613D01*
X0065849Y0150613D02*
X0071361Y0156124D01*
X0074117Y0156124D01*
X0082975Y0152581D02*
X0082975Y0144707D01*
X0096754Y0144707D01*
X0096754Y0152581D01*
X0082975Y0152581D01*
X0082975Y0152513D02*
X0096754Y0152513D01*
X0096754Y0151715D02*
X0082975Y0151715D01*
X0082975Y0150916D02*
X0096754Y0150916D01*
X0096754Y0150118D02*
X0082975Y0150118D01*
X0082975Y0149319D02*
X0096754Y0149319D01*
X0096754Y0148520D02*
X0082975Y0148520D01*
X0082975Y0147722D02*
X0096754Y0147722D01*
X0096754Y0146923D02*
X0082975Y0146923D01*
X0082975Y0146125D02*
X0096754Y0146125D01*
X0096754Y0145326D02*
X0082975Y0145326D01*
X0084674Y0143729D02*
X0119510Y0143729D01*
X0119510Y0142931D02*
X0083876Y0142931D01*
X0083077Y0142132D02*
X0119510Y0142132D01*
X0119510Y0141334D02*
X0082279Y0141334D01*
X0081480Y0140535D02*
X0119510Y0140535D01*
X0119510Y0139737D02*
X0080682Y0139737D01*
X0079883Y0138938D02*
X0119510Y0138938D01*
X0119510Y0138140D02*
X0079085Y0138140D01*
X0078286Y0137341D02*
X0119510Y0137341D01*
X0119510Y0136543D02*
X0077488Y0136543D01*
X0076689Y0135744D02*
X0119510Y0135744D01*
X0119510Y0134946D02*
X0076203Y0134946D01*
X0076203Y0135258D02*
X0076203Y0044707D01*
X0080770Y0044707D01*
X0080083Y0045394D01*
X0080083Y0049453D01*
X0082953Y0052324D01*
X0087012Y0052324D01*
X0089883Y0049453D01*
X0089883Y0045394D01*
X0089196Y0044707D01*
X0119510Y0044707D01*
X0119510Y0147069D01*
X0088014Y0147069D01*
X0076203Y0135258D01*
X0076203Y0134147D02*
X0119510Y0134147D01*
X0119510Y0133349D02*
X0076203Y0133349D01*
X0076203Y0132550D02*
X0119510Y0132550D01*
X0119510Y0131752D02*
X0076203Y0131752D01*
X0076203Y0130953D02*
X0119510Y0130953D01*
X0119510Y0130155D02*
X0076203Y0130155D01*
X0076203Y0129356D02*
X0119510Y0129356D01*
X0119510Y0128558D02*
X0076203Y0128558D01*
X0076203Y0127759D02*
X0119510Y0127759D01*
X0119510Y0126961D02*
X0076203Y0126961D01*
X0076203Y0126162D02*
X0119510Y0126162D01*
X0119510Y0125364D02*
X0076203Y0125364D01*
X0076203Y0124565D02*
X0119510Y0124565D01*
X0119510Y0123767D02*
X0076203Y0123767D01*
X0076203Y0122968D02*
X0119510Y0122968D01*
X0119510Y0122170D02*
X0076203Y0122170D01*
X0076203Y0121371D02*
X0119510Y0121371D01*
X0119510Y0120573D02*
X0076203Y0120573D01*
X0076203Y0119774D02*
X0119510Y0119774D01*
X0119510Y0118976D02*
X0076203Y0118976D01*
X0076203Y0118177D02*
X0119510Y0118177D01*
X0119510Y0117379D02*
X0076203Y0117379D01*
X0076203Y0116580D02*
X0119510Y0116580D01*
X0119510Y0115782D02*
X0076203Y0115782D01*
X0076203Y0114983D02*
X0119510Y0114983D01*
X0119510Y0114185D02*
X0076203Y0114185D01*
X0076203Y0113386D02*
X0119510Y0113386D01*
X0119510Y0112587D02*
X0076203Y0112587D01*
X0076203Y0111789D02*
X0119510Y0111789D01*
X0119510Y0110990D02*
X0076203Y0110990D01*
X0076203Y0110192D02*
X0119510Y0110192D01*
X0119510Y0109393D02*
X0076203Y0109393D01*
X0076203Y0108595D02*
X0119510Y0108595D01*
X0119510Y0107796D02*
X0076203Y0107796D01*
X0076203Y0106998D02*
X0119510Y0106998D01*
X0119510Y0106199D02*
X0076203Y0106199D01*
X0076203Y0105401D02*
X0119510Y0105401D01*
X0119510Y0104602D02*
X0076203Y0104602D01*
X0076203Y0103804D02*
X0119510Y0103804D01*
X0119510Y0103005D02*
X0076203Y0103005D01*
X0076203Y0102207D02*
X0119510Y0102207D01*
X0119510Y0101408D02*
X0076203Y0101408D01*
X0076203Y0100610D02*
X0119510Y0100610D01*
X0119510Y0099811D02*
X0076203Y0099811D01*
X0076203Y0099013D02*
X0119510Y0099013D01*
X0119510Y0098214D02*
X0076203Y0098214D01*
X0076203Y0097416D02*
X0119510Y0097416D01*
X0119510Y0096617D02*
X0076203Y0096617D01*
X0076203Y0095819D02*
X0119510Y0095819D01*
X0119510Y0095020D02*
X0076203Y0095020D01*
X0076203Y0094222D02*
X0119510Y0094222D01*
X0119510Y0093423D02*
X0076203Y0093423D01*
X0076203Y0092625D02*
X0119510Y0092625D01*
X0119510Y0091826D02*
X0076203Y0091826D01*
X0076203Y0091028D02*
X0119510Y0091028D01*
X0119510Y0090229D02*
X0076203Y0090229D01*
X0076203Y0089431D02*
X0119510Y0089431D01*
X0119510Y0088632D02*
X0076203Y0088632D01*
X0076203Y0087834D02*
X0119510Y0087834D01*
X0119510Y0087035D02*
X0076203Y0087035D01*
X0076203Y0086237D02*
X0119510Y0086237D01*
X0119510Y0085438D02*
X0076203Y0085438D01*
X0076203Y0084640D02*
X0119510Y0084640D01*
X0119510Y0083841D02*
X0076203Y0083841D01*
X0076203Y0083043D02*
X0119510Y0083043D01*
X0119510Y0082244D02*
X0097092Y0082244D01*
X0097012Y0082324D02*
X0092953Y0082324D01*
X0090083Y0079453D01*
X0090083Y0075394D01*
X0092953Y0072524D01*
X0097012Y0072524D01*
X0099883Y0075394D01*
X0099883Y0079453D01*
X0097012Y0082324D01*
X0097890Y0081446D02*
X0119510Y0081446D01*
X0119510Y0080647D02*
X0098689Y0080647D01*
X0099487Y0079849D02*
X0119510Y0079849D01*
X0119510Y0079050D02*
X0099883Y0079050D01*
X0099883Y0078252D02*
X0119510Y0078252D01*
X0119510Y0077453D02*
X0099883Y0077453D01*
X0099883Y0076654D02*
X0119510Y0076654D01*
X0119510Y0075856D02*
X0099883Y0075856D01*
X0099546Y0075057D02*
X0119510Y0075057D01*
X0119510Y0074259D02*
X0098748Y0074259D01*
X0097949Y0073460D02*
X0119510Y0073460D01*
X0119510Y0072662D02*
X0097151Y0072662D01*
X0092815Y0072662D02*
X0076203Y0072662D01*
X0076203Y0073460D02*
X0092016Y0073460D01*
X0091218Y0074259D02*
X0076203Y0074259D01*
X0076203Y0075057D02*
X0090419Y0075057D01*
X0090083Y0075856D02*
X0076203Y0075856D01*
X0076203Y0076654D02*
X0090083Y0076654D01*
X0090083Y0077453D02*
X0076203Y0077453D01*
X0076203Y0078252D02*
X0090083Y0078252D01*
X0090083Y0079050D02*
X0076203Y0079050D01*
X0076203Y0079849D02*
X0090478Y0079849D01*
X0091276Y0080647D02*
X0076203Y0080647D01*
X0076203Y0081446D02*
X0092075Y0081446D01*
X0092873Y0082244D02*
X0076203Y0082244D01*
X0082953Y0072324D02*
X0080083Y0069453D01*
X0080083Y0065394D01*
X0082953Y0062524D01*
X0087012Y0062524D01*
X0089883Y0065394D01*
X0089883Y0069453D01*
X0087012Y0072324D01*
X0082953Y0072324D01*
X0082493Y0071863D02*
X0076203Y0071863D01*
X0076203Y0071065D02*
X0081694Y0071065D01*
X0080896Y0070266D02*
X0076203Y0070266D01*
X0076203Y0069468D02*
X0080097Y0069468D01*
X0080083Y0068669D02*
X0076203Y0068669D01*
X0076203Y0067871D02*
X0080083Y0067871D01*
X0080083Y0067072D02*
X0076203Y0067072D01*
X0076203Y0066274D02*
X0080083Y0066274D01*
X0080083Y0065475D02*
X0076203Y0065475D01*
X0076203Y0064677D02*
X0080800Y0064677D01*
X0081598Y0063878D02*
X0076203Y0063878D01*
X0076203Y0063080D02*
X0082397Y0063080D01*
X0076203Y0062281D02*
X0092911Y0062281D01*
X0092953Y0062324D02*
X0090083Y0059453D01*
X0090083Y0055394D01*
X0092953Y0052524D01*
X0097012Y0052524D01*
X0099883Y0055394D01*
X0099883Y0059453D01*
X0097012Y0062324D01*
X0092953Y0062324D01*
X0092112Y0061483D02*
X0076203Y0061483D01*
X0076203Y0060684D02*
X0091314Y0060684D01*
X0090515Y0059886D02*
X0076203Y0059886D01*
X0076203Y0059087D02*
X0090083Y0059087D01*
X0090083Y0058289D02*
X0076203Y0058289D01*
X0076203Y0057490D02*
X0090083Y0057490D01*
X0090083Y0056692D02*
X0076203Y0056692D01*
X0076203Y0055893D02*
X0090083Y0055893D01*
X0090382Y0055095D02*
X0076203Y0055095D01*
X0076203Y0054296D02*
X0091180Y0054296D01*
X0091979Y0053498D02*
X0076203Y0053498D01*
X0076203Y0052699D02*
X0092778Y0052699D01*
X0089831Y0049505D02*
X0119510Y0049505D01*
X0119510Y0048707D02*
X0089883Y0048707D01*
X0089883Y0047908D02*
X0119510Y0047908D01*
X0119510Y0047110D02*
X0089883Y0047110D01*
X0089883Y0046311D02*
X0119510Y0046311D01*
X0119510Y0045513D02*
X0089883Y0045513D01*
X0089203Y0044714D02*
X0119510Y0044714D01*
X0119510Y0050304D02*
X0089032Y0050304D01*
X0088234Y0051102D02*
X0119510Y0051102D01*
X0119510Y0051901D02*
X0087435Y0051901D01*
X0082530Y0051901D02*
X0076203Y0051901D01*
X0076203Y0051102D02*
X0081732Y0051102D01*
X0080933Y0050304D02*
X0076203Y0050304D01*
X0076203Y0049505D02*
X0080135Y0049505D01*
X0080083Y0048707D02*
X0076203Y0048707D01*
X0076203Y0047908D02*
X0080083Y0047908D01*
X0080083Y0047110D02*
X0076203Y0047110D01*
X0076203Y0046311D02*
X0080083Y0046311D01*
X0080083Y0045513D02*
X0076203Y0045513D01*
X0076203Y0044714D02*
X0080763Y0044714D01*
X0097188Y0052699D02*
X0119510Y0052699D01*
X0119510Y0053498D02*
X0097986Y0053498D01*
X0098785Y0054296D02*
X0119510Y0054296D01*
X0119510Y0055095D02*
X0099583Y0055095D01*
X0099883Y0055893D02*
X0119510Y0055893D01*
X0119510Y0056692D02*
X0099883Y0056692D01*
X0099883Y0057490D02*
X0119510Y0057490D01*
X0119510Y0058289D02*
X0099883Y0058289D01*
X0099883Y0059087D02*
X0119510Y0059087D01*
X0119510Y0059886D02*
X0099450Y0059886D01*
X0098652Y0060684D02*
X0119510Y0060684D01*
X0119510Y0061483D02*
X0097853Y0061483D01*
X0097055Y0062281D02*
X0119510Y0062281D01*
X0119510Y0063080D02*
X0087568Y0063080D01*
X0088367Y0063878D02*
X0119510Y0063878D01*
X0119510Y0064677D02*
X0089166Y0064677D01*
X0089883Y0065475D02*
X0119510Y0065475D01*
X0119510Y0066274D02*
X0089883Y0066274D01*
X0089883Y0067072D02*
X0119510Y0067072D01*
X0119510Y0067871D02*
X0089883Y0067871D01*
X0089883Y0068669D02*
X0119510Y0068669D01*
X0119510Y0069468D02*
X0089868Y0069468D01*
X0089070Y0070266D02*
X0119510Y0070266D01*
X0119510Y0071065D02*
X0088271Y0071065D01*
X0087473Y0071863D02*
X0119510Y0071863D01*
X0119510Y0144528D02*
X0085473Y0144528D01*
X0086271Y0145326D02*
X0119510Y0145326D01*
X0119510Y0146125D02*
X0087070Y0146125D01*
X0087868Y0146923D02*
X0119510Y0146923D01*
X0058762Y0188014D02*
X0056400Y0188014D01*
D26*
X0259274Y0219904D03*
X0264195Y0210061D03*
X0276991Y0208093D03*
X0288802Y0208093D03*
X0300220Y0227202D03*
X0292739Y0231115D03*
X0306468Y0223580D03*
X0313989Y0218565D03*
X0321489Y0218565D03*
X0321282Y0210061D03*
X0322266Y0195298D03*
X0277975Y0247463D03*
X0268132Y0229746D03*
X0259274Y0240573D03*
X0269609Y0276006D03*
X0277089Y0276105D03*
X0294707Y0260258D03*
X0323250Y0266164D03*
X0327680Y0263703D03*
X0334077Y0275022D03*
X0263211Y0162817D03*
X0264195Y0147069D03*
D27*
X0259274Y0147069D02*
X0269195Y0147069D01*
X0269117Y0210061D02*
X0259195Y0210061D01*
X0259274Y0219904D02*
X0263211Y0219904D01*
X0298639Y0227165D02*
X0301139Y0227165D01*
X0316282Y0210061D02*
X0326203Y0210061D01*
X0198430Y0150804D02*
X0197071Y0152162D01*
X0197071Y0153654D01*
X0197071Y0151945D01*
X0195930Y0150804D01*
X0190321Y0153654D02*
X0190124Y0153457D01*
X0184136Y0153457D01*
X0178821Y0153447D02*
X0178821Y0160947D01*
X0173516Y0160947D01*
X0173506Y0160937D02*
X0173506Y0163469D01*
X0171571Y0165404D01*
X0171571Y0172491D02*
X0171571Y0174195D01*
X0172930Y0175554D01*
X0170430Y0175554D02*
X0170430Y0173829D01*
X0171571Y0172491D01*
X0173506Y0157197D02*
X0168821Y0157197D01*
X0168821Y0154697D01*
X0173506Y0153457D02*
X0178811Y0153457D01*
X0178821Y0153447D01*
X0184136Y0160937D02*
X0190124Y0160937D01*
X0190321Y0160741D01*
X0197071Y0160741D01*
X0197081Y0160947D01*
X0196428Y0136430D02*
X0189678Y0136430D01*
X0189481Y0136626D01*
X0183743Y0136626D01*
X0178428Y0136636D02*
X0173113Y0136636D01*
X0173113Y0132886D02*
X0168428Y0132886D01*
X0168428Y0130386D01*
X0173113Y0129146D02*
X0173113Y0123811D01*
X0173122Y0129136D02*
X0178428Y0129136D01*
X0178428Y0136636D01*
X0183743Y0129146D02*
X0189481Y0129146D01*
X0189678Y0129343D01*
X0195569Y0128484D02*
X0195569Y0126280D01*
X0196428Y0127921D02*
X0198069Y0126280D01*
X0196428Y0127921D02*
X0196428Y0129343D01*
X0195569Y0128484D01*
X0173319Y0114452D02*
X0172178Y0115593D01*
X0172178Y0113888D01*
X0170819Y0112530D01*
X0173319Y0112530D02*
X0173319Y0114452D01*
D28*
X0259943Y0250928D03*
X0268605Y0250928D03*
X0268605Y0265494D03*
X0259943Y0265494D03*
D29*
X0322857Y0275022D03*
D30*
X0327680Y0252876D03*
X0326208Y0201732D03*
X0277089Y0265278D03*
X0259343Y0201810D03*
X0259143Y0155091D03*
D31*
X0355731Y0251400D03*
X0355731Y0263211D03*
D32*
X0259274Y0190376D03*
X0259274Y0178565D03*
X0247463Y0178565D03*
X0247463Y0190376D03*
D33*
X0253369Y0154943D02*
X0229746Y0154943D01*
X0214941Y0154943D01*
X0196428Y0136430D01*
X0253369Y0154943D02*
X0257306Y0154943D01*
D34*
X0227778Y0178565D03*
X0227778Y0190376D03*
X0168821Y0157197D03*
X0168821Y0154697D03*
X0168428Y0132886D03*
X0168428Y0130386D03*
X0208093Y0086046D03*
X0217935Y0086046D03*
X0223841Y0086046D03*
X0233683Y0086046D03*
X0251400Y0091231D03*
X0251400Y0103009D03*
X0192345Y0070298D03*
X0192345Y0060455D03*
X0057384Y0165376D03*
X0055416Y0172266D03*
X0056400Y0180140D03*
X0056400Y0188014D03*
X0296676Y0280928D03*
X0302581Y0280928D03*
X0302581Y0288802D03*
X0296676Y0288802D03*
X0294707Y0328172D03*
X0355731Y0284865D03*
D35*
X0198430Y0150804D03*
X0195930Y0150804D03*
X0195569Y0126280D03*
X0198069Y0126280D03*
X0173319Y0112530D03*
X0170819Y0112530D03*
X0170430Y0175554D03*
X0172930Y0175554D03*
D36*
X0089865Y0158723D02*
X0080180Y0149038D01*
X0074117Y0149038D01*
X0074117Y0156124D02*
X0074117Y0164786D01*
D37*
X0068329Y0202187D03*
X0265180Y0127384D03*
D38*
X0173113Y0136626D02*
X0173113Y0136636D01*
D39*
X0173113Y0129146D02*
X0173122Y0129136D01*
X0173113Y0123811D02*
X0172178Y0122680D01*
X0173506Y0160937D02*
X0173516Y0160947D01*
D40*
X0171571Y0165404D02*
X0162199Y0165404D01*
X0160849Y0166754D01*
X0160849Y0318329D01*
X0149038Y0330140D01*
X0103762Y0330140D01*
X0160849Y0166754D02*
X0160849Y0125416D01*
X0163585Y0122680D01*
X0172178Y0122680D01*
M02*
