G75*
%MOIN*%
%OFA0B0*%
%FSLAX25Y25*%
%IPPOS*%
%LPD*%
%AMOC8*
5,1,8,0,0,1.08239X$1,22.5*
%
%ADD10C,0.00004*%
D10*
X0007306Y0019117D02*
X0046676Y0019117D01*
X0046676Y0015180D01*
X0357699Y0015180D01*
X0357699Y0019117D01*
X0397069Y0019117D01*
X0397069Y0058487D01*
X0401006Y0058487D01*
X0401006Y0369510D01*
X0397069Y0369510D01*
X0397069Y0408880D01*
X0357699Y0408880D01*
X0357699Y0412817D01*
X0046676Y0412817D01*
X0046676Y0408880D01*
X0007306Y0408880D01*
X0007306Y0369510D01*
X0003369Y0369510D01*
X0003369Y0058487D01*
X0007306Y0058487D01*
X0007306Y0019117D01*
X0011046Y0026991D02*
X0011048Y0027119D01*
X0011054Y0027247D01*
X0011064Y0027374D01*
X0011078Y0027502D01*
X0011095Y0027628D01*
X0011117Y0027754D01*
X0011143Y0027880D01*
X0011172Y0028004D01*
X0011205Y0028128D01*
X0011242Y0028250D01*
X0011283Y0028371D01*
X0011328Y0028491D01*
X0011376Y0028610D01*
X0011428Y0028727D01*
X0011484Y0028842D01*
X0011543Y0028956D01*
X0011605Y0029067D01*
X0011671Y0029177D01*
X0011740Y0029284D01*
X0011813Y0029390D01*
X0011889Y0029493D01*
X0011968Y0029593D01*
X0012050Y0029692D01*
X0012135Y0029787D01*
X0012223Y0029880D01*
X0012314Y0029970D01*
X0012407Y0030057D01*
X0012504Y0030142D01*
X0012602Y0030223D01*
X0012704Y0030301D01*
X0012807Y0030376D01*
X0012913Y0030448D01*
X0013021Y0030517D01*
X0013131Y0030582D01*
X0013244Y0030643D01*
X0013358Y0030702D01*
X0013473Y0030756D01*
X0013591Y0030807D01*
X0013709Y0030855D01*
X0013830Y0030898D01*
X0013951Y0030938D01*
X0014074Y0030974D01*
X0014198Y0031007D01*
X0014323Y0031035D01*
X0014448Y0031060D01*
X0014574Y0031080D01*
X0014701Y0031097D01*
X0014829Y0031110D01*
X0014956Y0031119D01*
X0015084Y0031124D01*
X0015212Y0031125D01*
X0015340Y0031122D01*
X0015468Y0031115D01*
X0015595Y0031104D01*
X0015722Y0031089D01*
X0015849Y0031071D01*
X0015975Y0031048D01*
X0016100Y0031021D01*
X0016224Y0030991D01*
X0016347Y0030957D01*
X0016470Y0030919D01*
X0016591Y0030877D01*
X0016710Y0030831D01*
X0016828Y0030782D01*
X0016945Y0030729D01*
X0017060Y0030673D01*
X0017173Y0030613D01*
X0017284Y0030550D01*
X0017393Y0030483D01*
X0017500Y0030413D01*
X0017605Y0030339D01*
X0017707Y0030263D01*
X0017807Y0030183D01*
X0017905Y0030100D01*
X0018000Y0030014D01*
X0018092Y0029925D01*
X0018181Y0029834D01*
X0018268Y0029740D01*
X0018351Y0029643D01*
X0018432Y0029543D01*
X0018509Y0029442D01*
X0018584Y0029337D01*
X0018655Y0029231D01*
X0018722Y0029122D01*
X0018787Y0029012D01*
X0018847Y0028899D01*
X0018905Y0028785D01*
X0018958Y0028669D01*
X0019008Y0028551D01*
X0019055Y0028432D01*
X0019098Y0028311D01*
X0019137Y0028189D01*
X0019172Y0028066D01*
X0019203Y0027942D01*
X0019231Y0027817D01*
X0019254Y0027691D01*
X0019274Y0027565D01*
X0019290Y0027438D01*
X0019302Y0027311D01*
X0019310Y0027183D01*
X0019314Y0027055D01*
X0019314Y0026927D01*
X0019310Y0026799D01*
X0019302Y0026671D01*
X0019290Y0026544D01*
X0019274Y0026417D01*
X0019254Y0026291D01*
X0019231Y0026165D01*
X0019203Y0026040D01*
X0019172Y0025916D01*
X0019137Y0025793D01*
X0019098Y0025671D01*
X0019055Y0025550D01*
X0019008Y0025431D01*
X0018958Y0025313D01*
X0018905Y0025197D01*
X0018847Y0025083D01*
X0018787Y0024970D01*
X0018722Y0024860D01*
X0018655Y0024751D01*
X0018584Y0024645D01*
X0018509Y0024540D01*
X0018432Y0024439D01*
X0018351Y0024339D01*
X0018268Y0024242D01*
X0018181Y0024148D01*
X0018092Y0024057D01*
X0018000Y0023968D01*
X0017905Y0023882D01*
X0017807Y0023799D01*
X0017707Y0023719D01*
X0017605Y0023643D01*
X0017500Y0023569D01*
X0017393Y0023499D01*
X0017284Y0023432D01*
X0017173Y0023369D01*
X0017060Y0023309D01*
X0016945Y0023253D01*
X0016828Y0023200D01*
X0016710Y0023151D01*
X0016591Y0023105D01*
X0016470Y0023063D01*
X0016347Y0023025D01*
X0016224Y0022991D01*
X0016100Y0022961D01*
X0015975Y0022934D01*
X0015849Y0022911D01*
X0015722Y0022893D01*
X0015595Y0022878D01*
X0015468Y0022867D01*
X0015340Y0022860D01*
X0015212Y0022857D01*
X0015084Y0022858D01*
X0014956Y0022863D01*
X0014829Y0022872D01*
X0014701Y0022885D01*
X0014574Y0022902D01*
X0014448Y0022922D01*
X0014323Y0022947D01*
X0014198Y0022975D01*
X0014074Y0023008D01*
X0013951Y0023044D01*
X0013830Y0023084D01*
X0013709Y0023127D01*
X0013591Y0023175D01*
X0013473Y0023226D01*
X0013358Y0023280D01*
X0013244Y0023339D01*
X0013131Y0023400D01*
X0013021Y0023465D01*
X0012913Y0023534D01*
X0012807Y0023606D01*
X0012704Y0023681D01*
X0012602Y0023759D01*
X0012504Y0023840D01*
X0012407Y0023925D01*
X0012314Y0024012D01*
X0012223Y0024102D01*
X0012135Y0024195D01*
X0012050Y0024290D01*
X0011968Y0024389D01*
X0011889Y0024489D01*
X0011813Y0024592D01*
X0011740Y0024698D01*
X0011671Y0024805D01*
X0011605Y0024915D01*
X0011543Y0025026D01*
X0011484Y0025140D01*
X0011428Y0025255D01*
X0011376Y0025372D01*
X0011328Y0025491D01*
X0011283Y0025611D01*
X0011242Y0025732D01*
X0011205Y0025854D01*
X0011172Y0025978D01*
X0011143Y0026102D01*
X0011117Y0026228D01*
X0011095Y0026354D01*
X0011078Y0026480D01*
X0011064Y0026608D01*
X0011054Y0026735D01*
X0011048Y0026863D01*
X0011046Y0026991D01*
X0034176Y0058487D02*
X0034180Y0058794D01*
X0034191Y0059100D01*
X0034210Y0059407D01*
X0034236Y0059712D01*
X0034270Y0060017D01*
X0034311Y0060321D01*
X0034360Y0060624D01*
X0034416Y0060926D01*
X0034480Y0061226D01*
X0034551Y0061524D01*
X0034629Y0061821D01*
X0034714Y0062116D01*
X0034807Y0062408D01*
X0034907Y0062698D01*
X0035014Y0062986D01*
X0035128Y0063271D01*
X0035248Y0063553D01*
X0035376Y0063831D01*
X0035511Y0064107D01*
X0035652Y0064379D01*
X0035800Y0064648D01*
X0035954Y0064913D01*
X0036115Y0065174D01*
X0036283Y0065432D01*
X0036456Y0065685D01*
X0036636Y0065933D01*
X0036822Y0066177D01*
X0037013Y0066417D01*
X0037211Y0066652D01*
X0037414Y0066881D01*
X0037623Y0067106D01*
X0037837Y0067326D01*
X0038057Y0067540D01*
X0038282Y0067749D01*
X0038511Y0067952D01*
X0038746Y0068150D01*
X0038986Y0068341D01*
X0039230Y0068527D01*
X0039478Y0068707D01*
X0039731Y0068880D01*
X0039989Y0069048D01*
X0040250Y0069209D01*
X0040515Y0069363D01*
X0040784Y0069511D01*
X0041056Y0069652D01*
X0041332Y0069787D01*
X0041610Y0069915D01*
X0041892Y0070035D01*
X0042177Y0070149D01*
X0042465Y0070256D01*
X0042755Y0070356D01*
X0043047Y0070449D01*
X0043342Y0070534D01*
X0043639Y0070612D01*
X0043937Y0070683D01*
X0044237Y0070747D01*
X0044539Y0070803D01*
X0044842Y0070852D01*
X0045146Y0070893D01*
X0045451Y0070927D01*
X0045756Y0070953D01*
X0046063Y0070972D01*
X0046369Y0070983D01*
X0046676Y0070987D01*
X0046983Y0070983D01*
X0047289Y0070972D01*
X0047596Y0070953D01*
X0047901Y0070927D01*
X0048206Y0070893D01*
X0048510Y0070852D01*
X0048813Y0070803D01*
X0049115Y0070747D01*
X0049415Y0070683D01*
X0049713Y0070612D01*
X0050010Y0070534D01*
X0050305Y0070449D01*
X0050597Y0070356D01*
X0050887Y0070256D01*
X0051175Y0070149D01*
X0051460Y0070035D01*
X0051742Y0069915D01*
X0052020Y0069787D01*
X0052296Y0069652D01*
X0052568Y0069511D01*
X0052837Y0069363D01*
X0053102Y0069209D01*
X0053363Y0069048D01*
X0053621Y0068880D01*
X0053874Y0068707D01*
X0054122Y0068527D01*
X0054366Y0068341D01*
X0054606Y0068150D01*
X0054841Y0067952D01*
X0055070Y0067749D01*
X0055295Y0067540D01*
X0055515Y0067326D01*
X0055729Y0067106D01*
X0055938Y0066881D01*
X0056141Y0066652D01*
X0056339Y0066417D01*
X0056530Y0066177D01*
X0056716Y0065933D01*
X0056896Y0065685D01*
X0057069Y0065432D01*
X0057237Y0065174D01*
X0057398Y0064913D01*
X0057552Y0064648D01*
X0057700Y0064379D01*
X0057841Y0064107D01*
X0057976Y0063831D01*
X0058104Y0063553D01*
X0058224Y0063271D01*
X0058338Y0062986D01*
X0058445Y0062698D01*
X0058545Y0062408D01*
X0058638Y0062116D01*
X0058723Y0061821D01*
X0058801Y0061524D01*
X0058872Y0061226D01*
X0058936Y0060926D01*
X0058992Y0060624D01*
X0059041Y0060321D01*
X0059082Y0060017D01*
X0059116Y0059712D01*
X0059142Y0059407D01*
X0059161Y0059100D01*
X0059172Y0058794D01*
X0059176Y0058487D01*
X0059172Y0058180D01*
X0059161Y0057874D01*
X0059142Y0057567D01*
X0059116Y0057262D01*
X0059082Y0056957D01*
X0059041Y0056653D01*
X0058992Y0056350D01*
X0058936Y0056048D01*
X0058872Y0055748D01*
X0058801Y0055450D01*
X0058723Y0055153D01*
X0058638Y0054858D01*
X0058545Y0054566D01*
X0058445Y0054276D01*
X0058338Y0053988D01*
X0058224Y0053703D01*
X0058104Y0053421D01*
X0057976Y0053143D01*
X0057841Y0052867D01*
X0057700Y0052595D01*
X0057552Y0052326D01*
X0057398Y0052061D01*
X0057237Y0051800D01*
X0057069Y0051542D01*
X0056896Y0051289D01*
X0056716Y0051041D01*
X0056530Y0050797D01*
X0056339Y0050557D01*
X0056141Y0050322D01*
X0055938Y0050093D01*
X0055729Y0049868D01*
X0055515Y0049648D01*
X0055295Y0049434D01*
X0055070Y0049225D01*
X0054841Y0049022D01*
X0054606Y0048824D01*
X0054366Y0048633D01*
X0054122Y0048447D01*
X0053874Y0048267D01*
X0053621Y0048094D01*
X0053363Y0047926D01*
X0053102Y0047765D01*
X0052837Y0047611D01*
X0052568Y0047463D01*
X0052296Y0047322D01*
X0052020Y0047187D01*
X0051742Y0047059D01*
X0051460Y0046939D01*
X0051175Y0046825D01*
X0050887Y0046718D01*
X0050597Y0046618D01*
X0050305Y0046525D01*
X0050010Y0046440D01*
X0049713Y0046362D01*
X0049415Y0046291D01*
X0049115Y0046227D01*
X0048813Y0046171D01*
X0048510Y0046122D01*
X0048206Y0046081D01*
X0047901Y0046047D01*
X0047596Y0046021D01*
X0047289Y0046002D01*
X0046983Y0045991D01*
X0046676Y0045987D01*
X0046369Y0045991D01*
X0046063Y0046002D01*
X0045756Y0046021D01*
X0045451Y0046047D01*
X0045146Y0046081D01*
X0044842Y0046122D01*
X0044539Y0046171D01*
X0044237Y0046227D01*
X0043937Y0046291D01*
X0043639Y0046362D01*
X0043342Y0046440D01*
X0043047Y0046525D01*
X0042755Y0046618D01*
X0042465Y0046718D01*
X0042177Y0046825D01*
X0041892Y0046939D01*
X0041610Y0047059D01*
X0041332Y0047187D01*
X0041056Y0047322D01*
X0040784Y0047463D01*
X0040515Y0047611D01*
X0040250Y0047765D01*
X0039989Y0047926D01*
X0039731Y0048094D01*
X0039478Y0048267D01*
X0039230Y0048447D01*
X0038986Y0048633D01*
X0038746Y0048824D01*
X0038511Y0049022D01*
X0038282Y0049225D01*
X0038057Y0049434D01*
X0037837Y0049648D01*
X0037623Y0049868D01*
X0037414Y0050093D01*
X0037211Y0050322D01*
X0037013Y0050557D01*
X0036822Y0050797D01*
X0036636Y0051041D01*
X0036456Y0051289D01*
X0036283Y0051542D01*
X0036115Y0051800D01*
X0035954Y0052061D01*
X0035800Y0052326D01*
X0035652Y0052595D01*
X0035511Y0052867D01*
X0035376Y0053143D01*
X0035248Y0053421D01*
X0035128Y0053703D01*
X0035014Y0053988D01*
X0034907Y0054276D01*
X0034807Y0054566D01*
X0034714Y0054858D01*
X0034629Y0055153D01*
X0034551Y0055450D01*
X0034480Y0055748D01*
X0034416Y0056048D01*
X0034360Y0056350D01*
X0034311Y0056653D01*
X0034270Y0056957D01*
X0034236Y0057262D01*
X0034210Y0057567D01*
X0034191Y0057874D01*
X0034180Y0058180D01*
X0034176Y0058487D01*
X0016163Y0115573D02*
X0016165Y0115724D01*
X0016171Y0115874D01*
X0016181Y0116025D01*
X0016195Y0116175D01*
X0016213Y0116324D01*
X0016234Y0116474D01*
X0016260Y0116622D01*
X0016290Y0116770D01*
X0016323Y0116917D01*
X0016361Y0117063D01*
X0016402Y0117208D01*
X0016447Y0117352D01*
X0016496Y0117494D01*
X0016549Y0117635D01*
X0016605Y0117775D01*
X0016665Y0117913D01*
X0016728Y0118050D01*
X0016796Y0118185D01*
X0016866Y0118318D01*
X0016940Y0118449D01*
X0017018Y0118578D01*
X0017099Y0118705D01*
X0017183Y0118830D01*
X0017271Y0118953D01*
X0017362Y0119073D01*
X0017456Y0119191D01*
X0017553Y0119306D01*
X0017653Y0119419D01*
X0017756Y0119529D01*
X0017862Y0119636D01*
X0017971Y0119741D01*
X0018082Y0119842D01*
X0018196Y0119941D01*
X0018312Y0120036D01*
X0018432Y0120129D01*
X0018553Y0120218D01*
X0018677Y0120304D01*
X0018803Y0120387D01*
X0018931Y0120466D01*
X0019061Y0120542D01*
X0019193Y0120615D01*
X0019327Y0120683D01*
X0019463Y0120749D01*
X0019601Y0120811D01*
X0019740Y0120869D01*
X0019880Y0120923D01*
X0020022Y0120974D01*
X0020165Y0121021D01*
X0020310Y0121064D01*
X0020455Y0121103D01*
X0020602Y0121139D01*
X0020749Y0121170D01*
X0020897Y0121198D01*
X0021046Y0121222D01*
X0021195Y0121242D01*
X0021345Y0121258D01*
X0021495Y0121270D01*
X0021646Y0121278D01*
X0021797Y0121282D01*
X0021947Y0121282D01*
X0022098Y0121278D01*
X0022249Y0121270D01*
X0022399Y0121258D01*
X0022549Y0121242D01*
X0022698Y0121222D01*
X0022847Y0121198D01*
X0022995Y0121170D01*
X0023142Y0121139D01*
X0023289Y0121103D01*
X0023434Y0121064D01*
X0023579Y0121021D01*
X0023722Y0120974D01*
X0023864Y0120923D01*
X0024004Y0120869D01*
X0024143Y0120811D01*
X0024281Y0120749D01*
X0024417Y0120683D01*
X0024551Y0120615D01*
X0024683Y0120542D01*
X0024813Y0120466D01*
X0024941Y0120387D01*
X0025067Y0120304D01*
X0025191Y0120218D01*
X0025312Y0120129D01*
X0025432Y0120036D01*
X0025548Y0119941D01*
X0025662Y0119842D01*
X0025773Y0119741D01*
X0025882Y0119636D01*
X0025988Y0119529D01*
X0026091Y0119419D01*
X0026191Y0119306D01*
X0026288Y0119191D01*
X0026382Y0119073D01*
X0026473Y0118953D01*
X0026561Y0118830D01*
X0026645Y0118705D01*
X0026726Y0118578D01*
X0026804Y0118449D01*
X0026878Y0118318D01*
X0026948Y0118185D01*
X0027016Y0118050D01*
X0027079Y0117913D01*
X0027139Y0117775D01*
X0027195Y0117635D01*
X0027248Y0117494D01*
X0027297Y0117352D01*
X0027342Y0117208D01*
X0027383Y0117063D01*
X0027421Y0116917D01*
X0027454Y0116770D01*
X0027484Y0116622D01*
X0027510Y0116474D01*
X0027531Y0116324D01*
X0027549Y0116175D01*
X0027563Y0116025D01*
X0027573Y0115874D01*
X0027579Y0115724D01*
X0027581Y0115573D01*
X0027579Y0115422D01*
X0027573Y0115272D01*
X0027563Y0115121D01*
X0027549Y0114971D01*
X0027531Y0114822D01*
X0027510Y0114672D01*
X0027484Y0114524D01*
X0027454Y0114376D01*
X0027421Y0114229D01*
X0027383Y0114083D01*
X0027342Y0113938D01*
X0027297Y0113794D01*
X0027248Y0113652D01*
X0027195Y0113511D01*
X0027139Y0113371D01*
X0027079Y0113233D01*
X0027016Y0113096D01*
X0026948Y0112961D01*
X0026878Y0112828D01*
X0026804Y0112697D01*
X0026726Y0112568D01*
X0026645Y0112441D01*
X0026561Y0112316D01*
X0026473Y0112193D01*
X0026382Y0112073D01*
X0026288Y0111955D01*
X0026191Y0111840D01*
X0026091Y0111727D01*
X0025988Y0111617D01*
X0025882Y0111510D01*
X0025773Y0111405D01*
X0025662Y0111304D01*
X0025548Y0111205D01*
X0025432Y0111110D01*
X0025312Y0111017D01*
X0025191Y0110928D01*
X0025067Y0110842D01*
X0024941Y0110759D01*
X0024813Y0110680D01*
X0024683Y0110604D01*
X0024551Y0110531D01*
X0024417Y0110463D01*
X0024281Y0110397D01*
X0024143Y0110335D01*
X0024004Y0110277D01*
X0023864Y0110223D01*
X0023722Y0110172D01*
X0023579Y0110125D01*
X0023434Y0110082D01*
X0023289Y0110043D01*
X0023142Y0110007D01*
X0022995Y0109976D01*
X0022847Y0109948D01*
X0022698Y0109924D01*
X0022549Y0109904D01*
X0022399Y0109888D01*
X0022249Y0109876D01*
X0022098Y0109868D01*
X0021947Y0109864D01*
X0021797Y0109864D01*
X0021646Y0109868D01*
X0021495Y0109876D01*
X0021345Y0109888D01*
X0021195Y0109904D01*
X0021046Y0109924D01*
X0020897Y0109948D01*
X0020749Y0109976D01*
X0020602Y0110007D01*
X0020455Y0110043D01*
X0020310Y0110082D01*
X0020165Y0110125D01*
X0020022Y0110172D01*
X0019880Y0110223D01*
X0019740Y0110277D01*
X0019601Y0110335D01*
X0019463Y0110397D01*
X0019327Y0110463D01*
X0019193Y0110531D01*
X0019061Y0110604D01*
X0018931Y0110680D01*
X0018803Y0110759D01*
X0018677Y0110842D01*
X0018553Y0110928D01*
X0018432Y0111017D01*
X0018312Y0111110D01*
X0018196Y0111205D01*
X0018082Y0111304D01*
X0017971Y0111405D01*
X0017862Y0111510D01*
X0017756Y0111617D01*
X0017653Y0111727D01*
X0017553Y0111840D01*
X0017456Y0111955D01*
X0017362Y0112073D01*
X0017271Y0112193D01*
X0017183Y0112316D01*
X0017099Y0112441D01*
X0017018Y0112568D01*
X0016940Y0112697D01*
X0016866Y0112828D01*
X0016796Y0112961D01*
X0016728Y0113096D01*
X0016665Y0113233D01*
X0016605Y0113371D01*
X0016549Y0113511D01*
X0016496Y0113652D01*
X0016447Y0113794D01*
X0016402Y0113938D01*
X0016361Y0114083D01*
X0016323Y0114229D01*
X0016290Y0114376D01*
X0016260Y0114524D01*
X0016234Y0114672D01*
X0016213Y0114822D01*
X0016195Y0114971D01*
X0016181Y0115121D01*
X0016171Y0115272D01*
X0016165Y0115422D01*
X0016163Y0115573D01*
X0014668Y0213998D02*
X0014670Y0214131D01*
X0014676Y0214264D01*
X0014686Y0214397D01*
X0014700Y0214529D01*
X0014718Y0214661D01*
X0014739Y0214792D01*
X0014765Y0214923D01*
X0014795Y0215053D01*
X0014828Y0215182D01*
X0014866Y0215309D01*
X0014907Y0215436D01*
X0014952Y0215561D01*
X0015000Y0215685D01*
X0015053Y0215808D01*
X0015109Y0215928D01*
X0015168Y0216047D01*
X0015231Y0216165D01*
X0015298Y0216280D01*
X0015368Y0216393D01*
X0015441Y0216504D01*
X0015518Y0216613D01*
X0015598Y0216720D01*
X0015681Y0216824D01*
X0015767Y0216925D01*
X0015856Y0217024D01*
X0015948Y0217120D01*
X0016042Y0217214D01*
X0016140Y0217304D01*
X0016240Y0217392D01*
X0016343Y0217476D01*
X0016448Y0217558D01*
X0016556Y0217636D01*
X0016666Y0217711D01*
X0016778Y0217783D01*
X0016893Y0217851D01*
X0017009Y0217916D01*
X0017127Y0217977D01*
X0017247Y0218035D01*
X0017368Y0218089D01*
X0017492Y0218139D01*
X0017616Y0218186D01*
X0017742Y0218229D01*
X0017869Y0218268D01*
X0017998Y0218304D01*
X0018127Y0218335D01*
X0018257Y0218363D01*
X0018388Y0218387D01*
X0018520Y0218407D01*
X0018652Y0218423D01*
X0018785Y0218435D01*
X0018917Y0218443D01*
X0019050Y0218447D01*
X0019184Y0218447D01*
X0019317Y0218443D01*
X0019449Y0218435D01*
X0019582Y0218423D01*
X0019714Y0218407D01*
X0019846Y0218387D01*
X0019977Y0218363D01*
X0020107Y0218335D01*
X0020236Y0218304D01*
X0020365Y0218268D01*
X0020492Y0218229D01*
X0020618Y0218186D01*
X0020742Y0218139D01*
X0020866Y0218089D01*
X0020987Y0218035D01*
X0021107Y0217977D01*
X0021225Y0217916D01*
X0021342Y0217851D01*
X0021456Y0217783D01*
X0021568Y0217711D01*
X0021678Y0217636D01*
X0021786Y0217558D01*
X0021891Y0217476D01*
X0021994Y0217392D01*
X0022094Y0217304D01*
X0022192Y0217214D01*
X0022286Y0217120D01*
X0022378Y0217024D01*
X0022467Y0216925D01*
X0022553Y0216824D01*
X0022636Y0216720D01*
X0022716Y0216613D01*
X0022793Y0216504D01*
X0022866Y0216393D01*
X0022936Y0216280D01*
X0023003Y0216165D01*
X0023066Y0216047D01*
X0023125Y0215928D01*
X0023181Y0215808D01*
X0023234Y0215685D01*
X0023282Y0215561D01*
X0023327Y0215436D01*
X0023368Y0215309D01*
X0023406Y0215182D01*
X0023439Y0215053D01*
X0023469Y0214923D01*
X0023495Y0214792D01*
X0023516Y0214661D01*
X0023534Y0214529D01*
X0023548Y0214397D01*
X0023558Y0214264D01*
X0023564Y0214131D01*
X0023566Y0213998D01*
X0023564Y0213865D01*
X0023558Y0213732D01*
X0023548Y0213599D01*
X0023534Y0213467D01*
X0023516Y0213335D01*
X0023495Y0213204D01*
X0023469Y0213073D01*
X0023439Y0212943D01*
X0023406Y0212814D01*
X0023368Y0212687D01*
X0023327Y0212560D01*
X0023282Y0212435D01*
X0023234Y0212311D01*
X0023181Y0212188D01*
X0023125Y0212068D01*
X0023066Y0211949D01*
X0023003Y0211831D01*
X0022936Y0211716D01*
X0022866Y0211603D01*
X0022793Y0211492D01*
X0022716Y0211383D01*
X0022636Y0211276D01*
X0022553Y0211172D01*
X0022467Y0211071D01*
X0022378Y0210972D01*
X0022286Y0210876D01*
X0022192Y0210782D01*
X0022094Y0210692D01*
X0021994Y0210604D01*
X0021891Y0210520D01*
X0021786Y0210438D01*
X0021678Y0210360D01*
X0021568Y0210285D01*
X0021456Y0210213D01*
X0021341Y0210145D01*
X0021225Y0210080D01*
X0021107Y0210019D01*
X0020987Y0209961D01*
X0020866Y0209907D01*
X0020742Y0209857D01*
X0020618Y0209810D01*
X0020492Y0209767D01*
X0020365Y0209728D01*
X0020236Y0209692D01*
X0020107Y0209661D01*
X0019977Y0209633D01*
X0019846Y0209609D01*
X0019714Y0209589D01*
X0019582Y0209573D01*
X0019449Y0209561D01*
X0019317Y0209553D01*
X0019184Y0209549D01*
X0019050Y0209549D01*
X0018917Y0209553D01*
X0018785Y0209561D01*
X0018652Y0209573D01*
X0018520Y0209589D01*
X0018388Y0209609D01*
X0018257Y0209633D01*
X0018127Y0209661D01*
X0017998Y0209692D01*
X0017869Y0209728D01*
X0017742Y0209767D01*
X0017616Y0209810D01*
X0017492Y0209857D01*
X0017368Y0209907D01*
X0017247Y0209961D01*
X0017127Y0210019D01*
X0017009Y0210080D01*
X0016892Y0210145D01*
X0016778Y0210213D01*
X0016666Y0210285D01*
X0016556Y0210360D01*
X0016448Y0210438D01*
X0016343Y0210520D01*
X0016240Y0210604D01*
X0016140Y0210692D01*
X0016042Y0210782D01*
X0015948Y0210876D01*
X0015856Y0210972D01*
X0015767Y0211071D01*
X0015681Y0211172D01*
X0015598Y0211276D01*
X0015518Y0211383D01*
X0015441Y0211492D01*
X0015368Y0211603D01*
X0015298Y0211716D01*
X0015231Y0211831D01*
X0015168Y0211949D01*
X0015109Y0212068D01*
X0015053Y0212188D01*
X0015000Y0212311D01*
X0014952Y0212435D01*
X0014907Y0212560D01*
X0014866Y0212687D01*
X0014828Y0212814D01*
X0014795Y0212943D01*
X0014765Y0213073D01*
X0014739Y0213204D01*
X0014718Y0213335D01*
X0014700Y0213467D01*
X0014686Y0213599D01*
X0014676Y0213732D01*
X0014670Y0213865D01*
X0014668Y0213998D01*
X0016163Y0311243D02*
X0016165Y0311394D01*
X0016171Y0311544D01*
X0016181Y0311695D01*
X0016195Y0311845D01*
X0016213Y0311994D01*
X0016234Y0312144D01*
X0016260Y0312292D01*
X0016290Y0312440D01*
X0016323Y0312587D01*
X0016361Y0312733D01*
X0016402Y0312878D01*
X0016447Y0313022D01*
X0016496Y0313164D01*
X0016549Y0313305D01*
X0016605Y0313445D01*
X0016665Y0313583D01*
X0016728Y0313720D01*
X0016796Y0313855D01*
X0016866Y0313988D01*
X0016940Y0314119D01*
X0017018Y0314248D01*
X0017099Y0314375D01*
X0017183Y0314500D01*
X0017271Y0314623D01*
X0017362Y0314743D01*
X0017456Y0314861D01*
X0017553Y0314976D01*
X0017653Y0315089D01*
X0017756Y0315199D01*
X0017862Y0315306D01*
X0017971Y0315411D01*
X0018082Y0315512D01*
X0018196Y0315611D01*
X0018312Y0315706D01*
X0018432Y0315799D01*
X0018553Y0315888D01*
X0018677Y0315974D01*
X0018803Y0316057D01*
X0018931Y0316136D01*
X0019061Y0316212D01*
X0019193Y0316285D01*
X0019327Y0316353D01*
X0019463Y0316419D01*
X0019601Y0316481D01*
X0019740Y0316539D01*
X0019880Y0316593D01*
X0020022Y0316644D01*
X0020165Y0316691D01*
X0020310Y0316734D01*
X0020455Y0316773D01*
X0020602Y0316809D01*
X0020749Y0316840D01*
X0020897Y0316868D01*
X0021046Y0316892D01*
X0021195Y0316912D01*
X0021345Y0316928D01*
X0021495Y0316940D01*
X0021646Y0316948D01*
X0021797Y0316952D01*
X0021947Y0316952D01*
X0022098Y0316948D01*
X0022249Y0316940D01*
X0022399Y0316928D01*
X0022549Y0316912D01*
X0022698Y0316892D01*
X0022847Y0316868D01*
X0022995Y0316840D01*
X0023142Y0316809D01*
X0023289Y0316773D01*
X0023434Y0316734D01*
X0023579Y0316691D01*
X0023722Y0316644D01*
X0023864Y0316593D01*
X0024004Y0316539D01*
X0024143Y0316481D01*
X0024281Y0316419D01*
X0024417Y0316353D01*
X0024551Y0316285D01*
X0024683Y0316212D01*
X0024813Y0316136D01*
X0024941Y0316057D01*
X0025067Y0315974D01*
X0025191Y0315888D01*
X0025312Y0315799D01*
X0025432Y0315706D01*
X0025548Y0315611D01*
X0025662Y0315512D01*
X0025773Y0315411D01*
X0025882Y0315306D01*
X0025988Y0315199D01*
X0026091Y0315089D01*
X0026191Y0314976D01*
X0026288Y0314861D01*
X0026382Y0314743D01*
X0026473Y0314623D01*
X0026561Y0314500D01*
X0026645Y0314375D01*
X0026726Y0314248D01*
X0026804Y0314119D01*
X0026878Y0313988D01*
X0026948Y0313855D01*
X0027016Y0313720D01*
X0027079Y0313583D01*
X0027139Y0313445D01*
X0027195Y0313305D01*
X0027248Y0313164D01*
X0027297Y0313022D01*
X0027342Y0312878D01*
X0027383Y0312733D01*
X0027421Y0312587D01*
X0027454Y0312440D01*
X0027484Y0312292D01*
X0027510Y0312144D01*
X0027531Y0311994D01*
X0027549Y0311845D01*
X0027563Y0311695D01*
X0027573Y0311544D01*
X0027579Y0311394D01*
X0027581Y0311243D01*
X0027579Y0311092D01*
X0027573Y0310942D01*
X0027563Y0310791D01*
X0027549Y0310641D01*
X0027531Y0310492D01*
X0027510Y0310342D01*
X0027484Y0310194D01*
X0027454Y0310046D01*
X0027421Y0309899D01*
X0027383Y0309753D01*
X0027342Y0309608D01*
X0027297Y0309464D01*
X0027248Y0309322D01*
X0027195Y0309181D01*
X0027139Y0309041D01*
X0027079Y0308903D01*
X0027016Y0308766D01*
X0026948Y0308631D01*
X0026878Y0308498D01*
X0026804Y0308367D01*
X0026726Y0308238D01*
X0026645Y0308111D01*
X0026561Y0307986D01*
X0026473Y0307863D01*
X0026382Y0307743D01*
X0026288Y0307625D01*
X0026191Y0307510D01*
X0026091Y0307397D01*
X0025988Y0307287D01*
X0025882Y0307180D01*
X0025773Y0307075D01*
X0025662Y0306974D01*
X0025548Y0306875D01*
X0025432Y0306780D01*
X0025312Y0306687D01*
X0025191Y0306598D01*
X0025067Y0306512D01*
X0024941Y0306429D01*
X0024813Y0306350D01*
X0024683Y0306274D01*
X0024551Y0306201D01*
X0024417Y0306133D01*
X0024281Y0306067D01*
X0024143Y0306005D01*
X0024004Y0305947D01*
X0023864Y0305893D01*
X0023722Y0305842D01*
X0023579Y0305795D01*
X0023434Y0305752D01*
X0023289Y0305713D01*
X0023142Y0305677D01*
X0022995Y0305646D01*
X0022847Y0305618D01*
X0022698Y0305594D01*
X0022549Y0305574D01*
X0022399Y0305558D01*
X0022249Y0305546D01*
X0022098Y0305538D01*
X0021947Y0305534D01*
X0021797Y0305534D01*
X0021646Y0305538D01*
X0021495Y0305546D01*
X0021345Y0305558D01*
X0021195Y0305574D01*
X0021046Y0305594D01*
X0020897Y0305618D01*
X0020749Y0305646D01*
X0020602Y0305677D01*
X0020455Y0305713D01*
X0020310Y0305752D01*
X0020165Y0305795D01*
X0020022Y0305842D01*
X0019880Y0305893D01*
X0019740Y0305947D01*
X0019601Y0306005D01*
X0019463Y0306067D01*
X0019327Y0306133D01*
X0019193Y0306201D01*
X0019061Y0306274D01*
X0018931Y0306350D01*
X0018803Y0306429D01*
X0018677Y0306512D01*
X0018553Y0306598D01*
X0018432Y0306687D01*
X0018312Y0306780D01*
X0018196Y0306875D01*
X0018082Y0306974D01*
X0017971Y0307075D01*
X0017862Y0307180D01*
X0017756Y0307287D01*
X0017653Y0307397D01*
X0017553Y0307510D01*
X0017456Y0307625D01*
X0017362Y0307743D01*
X0017271Y0307863D01*
X0017183Y0307986D01*
X0017099Y0308111D01*
X0017018Y0308238D01*
X0016940Y0308367D01*
X0016866Y0308498D01*
X0016796Y0308631D01*
X0016728Y0308766D01*
X0016665Y0308903D01*
X0016605Y0309041D01*
X0016549Y0309181D01*
X0016496Y0309322D01*
X0016447Y0309464D01*
X0016402Y0309608D01*
X0016361Y0309753D01*
X0016323Y0309899D01*
X0016290Y0310046D01*
X0016260Y0310194D01*
X0016234Y0310342D01*
X0016213Y0310492D01*
X0016195Y0310641D01*
X0016181Y0310791D01*
X0016171Y0310942D01*
X0016165Y0311092D01*
X0016163Y0311243D01*
X0034176Y0369510D02*
X0034180Y0369817D01*
X0034191Y0370123D01*
X0034210Y0370430D01*
X0034236Y0370735D01*
X0034270Y0371040D01*
X0034311Y0371344D01*
X0034360Y0371647D01*
X0034416Y0371949D01*
X0034480Y0372249D01*
X0034551Y0372547D01*
X0034629Y0372844D01*
X0034714Y0373139D01*
X0034807Y0373431D01*
X0034907Y0373721D01*
X0035014Y0374009D01*
X0035128Y0374294D01*
X0035248Y0374576D01*
X0035376Y0374854D01*
X0035511Y0375130D01*
X0035652Y0375402D01*
X0035800Y0375671D01*
X0035954Y0375936D01*
X0036115Y0376197D01*
X0036283Y0376455D01*
X0036456Y0376708D01*
X0036636Y0376956D01*
X0036822Y0377200D01*
X0037013Y0377440D01*
X0037211Y0377675D01*
X0037414Y0377904D01*
X0037623Y0378129D01*
X0037837Y0378349D01*
X0038057Y0378563D01*
X0038282Y0378772D01*
X0038511Y0378975D01*
X0038746Y0379173D01*
X0038986Y0379364D01*
X0039230Y0379550D01*
X0039478Y0379730D01*
X0039731Y0379903D01*
X0039989Y0380071D01*
X0040250Y0380232D01*
X0040515Y0380386D01*
X0040784Y0380534D01*
X0041056Y0380675D01*
X0041332Y0380810D01*
X0041610Y0380938D01*
X0041892Y0381058D01*
X0042177Y0381172D01*
X0042465Y0381279D01*
X0042755Y0381379D01*
X0043047Y0381472D01*
X0043342Y0381557D01*
X0043639Y0381635D01*
X0043937Y0381706D01*
X0044237Y0381770D01*
X0044539Y0381826D01*
X0044842Y0381875D01*
X0045146Y0381916D01*
X0045451Y0381950D01*
X0045756Y0381976D01*
X0046063Y0381995D01*
X0046369Y0382006D01*
X0046676Y0382010D01*
X0046983Y0382006D01*
X0047289Y0381995D01*
X0047596Y0381976D01*
X0047901Y0381950D01*
X0048206Y0381916D01*
X0048510Y0381875D01*
X0048813Y0381826D01*
X0049115Y0381770D01*
X0049415Y0381706D01*
X0049713Y0381635D01*
X0050010Y0381557D01*
X0050305Y0381472D01*
X0050597Y0381379D01*
X0050887Y0381279D01*
X0051175Y0381172D01*
X0051460Y0381058D01*
X0051742Y0380938D01*
X0052020Y0380810D01*
X0052296Y0380675D01*
X0052568Y0380534D01*
X0052837Y0380386D01*
X0053102Y0380232D01*
X0053363Y0380071D01*
X0053621Y0379903D01*
X0053874Y0379730D01*
X0054122Y0379550D01*
X0054366Y0379364D01*
X0054606Y0379173D01*
X0054841Y0378975D01*
X0055070Y0378772D01*
X0055295Y0378563D01*
X0055515Y0378349D01*
X0055729Y0378129D01*
X0055938Y0377904D01*
X0056141Y0377675D01*
X0056339Y0377440D01*
X0056530Y0377200D01*
X0056716Y0376956D01*
X0056896Y0376708D01*
X0057069Y0376455D01*
X0057237Y0376197D01*
X0057398Y0375936D01*
X0057552Y0375671D01*
X0057700Y0375402D01*
X0057841Y0375130D01*
X0057976Y0374854D01*
X0058104Y0374576D01*
X0058224Y0374294D01*
X0058338Y0374009D01*
X0058445Y0373721D01*
X0058545Y0373431D01*
X0058638Y0373139D01*
X0058723Y0372844D01*
X0058801Y0372547D01*
X0058872Y0372249D01*
X0058936Y0371949D01*
X0058992Y0371647D01*
X0059041Y0371344D01*
X0059082Y0371040D01*
X0059116Y0370735D01*
X0059142Y0370430D01*
X0059161Y0370123D01*
X0059172Y0369817D01*
X0059176Y0369510D01*
X0059172Y0369203D01*
X0059161Y0368897D01*
X0059142Y0368590D01*
X0059116Y0368285D01*
X0059082Y0367980D01*
X0059041Y0367676D01*
X0058992Y0367373D01*
X0058936Y0367071D01*
X0058872Y0366771D01*
X0058801Y0366473D01*
X0058723Y0366176D01*
X0058638Y0365881D01*
X0058545Y0365589D01*
X0058445Y0365299D01*
X0058338Y0365011D01*
X0058224Y0364726D01*
X0058104Y0364444D01*
X0057976Y0364166D01*
X0057841Y0363890D01*
X0057700Y0363618D01*
X0057552Y0363349D01*
X0057398Y0363084D01*
X0057237Y0362823D01*
X0057069Y0362565D01*
X0056896Y0362312D01*
X0056716Y0362064D01*
X0056530Y0361820D01*
X0056339Y0361580D01*
X0056141Y0361345D01*
X0055938Y0361116D01*
X0055729Y0360891D01*
X0055515Y0360671D01*
X0055295Y0360457D01*
X0055070Y0360248D01*
X0054841Y0360045D01*
X0054606Y0359847D01*
X0054366Y0359656D01*
X0054122Y0359470D01*
X0053874Y0359290D01*
X0053621Y0359117D01*
X0053363Y0358949D01*
X0053102Y0358788D01*
X0052837Y0358634D01*
X0052568Y0358486D01*
X0052296Y0358345D01*
X0052020Y0358210D01*
X0051742Y0358082D01*
X0051460Y0357962D01*
X0051175Y0357848D01*
X0050887Y0357741D01*
X0050597Y0357641D01*
X0050305Y0357548D01*
X0050010Y0357463D01*
X0049713Y0357385D01*
X0049415Y0357314D01*
X0049115Y0357250D01*
X0048813Y0357194D01*
X0048510Y0357145D01*
X0048206Y0357104D01*
X0047901Y0357070D01*
X0047596Y0357044D01*
X0047289Y0357025D01*
X0046983Y0357014D01*
X0046676Y0357010D01*
X0046369Y0357014D01*
X0046063Y0357025D01*
X0045756Y0357044D01*
X0045451Y0357070D01*
X0045146Y0357104D01*
X0044842Y0357145D01*
X0044539Y0357194D01*
X0044237Y0357250D01*
X0043937Y0357314D01*
X0043639Y0357385D01*
X0043342Y0357463D01*
X0043047Y0357548D01*
X0042755Y0357641D01*
X0042465Y0357741D01*
X0042177Y0357848D01*
X0041892Y0357962D01*
X0041610Y0358082D01*
X0041332Y0358210D01*
X0041056Y0358345D01*
X0040784Y0358486D01*
X0040515Y0358634D01*
X0040250Y0358788D01*
X0039989Y0358949D01*
X0039731Y0359117D01*
X0039478Y0359290D01*
X0039230Y0359470D01*
X0038986Y0359656D01*
X0038746Y0359847D01*
X0038511Y0360045D01*
X0038282Y0360248D01*
X0038057Y0360457D01*
X0037837Y0360671D01*
X0037623Y0360891D01*
X0037414Y0361116D01*
X0037211Y0361345D01*
X0037013Y0361580D01*
X0036822Y0361820D01*
X0036636Y0362064D01*
X0036456Y0362312D01*
X0036283Y0362565D01*
X0036115Y0362823D01*
X0035954Y0363084D01*
X0035800Y0363349D01*
X0035652Y0363618D01*
X0035511Y0363890D01*
X0035376Y0364166D01*
X0035248Y0364444D01*
X0035128Y0364726D01*
X0035014Y0365011D01*
X0034907Y0365299D01*
X0034807Y0365589D01*
X0034714Y0365881D01*
X0034629Y0366176D01*
X0034551Y0366473D01*
X0034480Y0366771D01*
X0034416Y0367071D01*
X0034360Y0367373D01*
X0034311Y0367676D01*
X0034270Y0367980D01*
X0034236Y0368285D01*
X0034210Y0368590D01*
X0034191Y0368897D01*
X0034180Y0369203D01*
X0034176Y0369510D01*
X0011046Y0401006D02*
X0011048Y0401134D01*
X0011054Y0401262D01*
X0011064Y0401389D01*
X0011078Y0401517D01*
X0011095Y0401643D01*
X0011117Y0401769D01*
X0011143Y0401895D01*
X0011172Y0402019D01*
X0011205Y0402143D01*
X0011242Y0402265D01*
X0011283Y0402386D01*
X0011328Y0402506D01*
X0011376Y0402625D01*
X0011428Y0402742D01*
X0011484Y0402857D01*
X0011543Y0402971D01*
X0011605Y0403082D01*
X0011671Y0403192D01*
X0011740Y0403299D01*
X0011813Y0403405D01*
X0011889Y0403508D01*
X0011968Y0403608D01*
X0012050Y0403707D01*
X0012135Y0403802D01*
X0012223Y0403895D01*
X0012314Y0403985D01*
X0012407Y0404072D01*
X0012504Y0404157D01*
X0012602Y0404238D01*
X0012704Y0404316D01*
X0012807Y0404391D01*
X0012913Y0404463D01*
X0013021Y0404532D01*
X0013131Y0404597D01*
X0013244Y0404658D01*
X0013358Y0404717D01*
X0013473Y0404771D01*
X0013591Y0404822D01*
X0013709Y0404870D01*
X0013830Y0404913D01*
X0013951Y0404953D01*
X0014074Y0404989D01*
X0014198Y0405022D01*
X0014323Y0405050D01*
X0014448Y0405075D01*
X0014574Y0405095D01*
X0014701Y0405112D01*
X0014829Y0405125D01*
X0014956Y0405134D01*
X0015084Y0405139D01*
X0015212Y0405140D01*
X0015340Y0405137D01*
X0015468Y0405130D01*
X0015595Y0405119D01*
X0015722Y0405104D01*
X0015849Y0405086D01*
X0015975Y0405063D01*
X0016100Y0405036D01*
X0016224Y0405006D01*
X0016347Y0404972D01*
X0016470Y0404934D01*
X0016591Y0404892D01*
X0016710Y0404846D01*
X0016828Y0404797D01*
X0016945Y0404744D01*
X0017060Y0404688D01*
X0017173Y0404628D01*
X0017284Y0404565D01*
X0017393Y0404498D01*
X0017500Y0404428D01*
X0017605Y0404354D01*
X0017707Y0404278D01*
X0017807Y0404198D01*
X0017905Y0404115D01*
X0018000Y0404029D01*
X0018092Y0403940D01*
X0018181Y0403849D01*
X0018268Y0403755D01*
X0018351Y0403658D01*
X0018432Y0403558D01*
X0018509Y0403457D01*
X0018584Y0403352D01*
X0018655Y0403246D01*
X0018722Y0403137D01*
X0018787Y0403027D01*
X0018847Y0402914D01*
X0018905Y0402800D01*
X0018958Y0402684D01*
X0019008Y0402566D01*
X0019055Y0402447D01*
X0019098Y0402326D01*
X0019137Y0402204D01*
X0019172Y0402081D01*
X0019203Y0401957D01*
X0019231Y0401832D01*
X0019254Y0401706D01*
X0019274Y0401580D01*
X0019290Y0401453D01*
X0019302Y0401326D01*
X0019310Y0401198D01*
X0019314Y0401070D01*
X0019314Y0400942D01*
X0019310Y0400814D01*
X0019302Y0400686D01*
X0019290Y0400559D01*
X0019274Y0400432D01*
X0019254Y0400306D01*
X0019231Y0400180D01*
X0019203Y0400055D01*
X0019172Y0399931D01*
X0019137Y0399808D01*
X0019098Y0399686D01*
X0019055Y0399565D01*
X0019008Y0399446D01*
X0018958Y0399328D01*
X0018905Y0399212D01*
X0018847Y0399098D01*
X0018787Y0398985D01*
X0018722Y0398875D01*
X0018655Y0398766D01*
X0018584Y0398660D01*
X0018509Y0398555D01*
X0018432Y0398454D01*
X0018351Y0398354D01*
X0018268Y0398257D01*
X0018181Y0398163D01*
X0018092Y0398072D01*
X0018000Y0397983D01*
X0017905Y0397897D01*
X0017807Y0397814D01*
X0017707Y0397734D01*
X0017605Y0397658D01*
X0017500Y0397584D01*
X0017393Y0397514D01*
X0017284Y0397447D01*
X0017173Y0397384D01*
X0017060Y0397324D01*
X0016945Y0397268D01*
X0016828Y0397215D01*
X0016710Y0397166D01*
X0016591Y0397120D01*
X0016470Y0397078D01*
X0016347Y0397040D01*
X0016224Y0397006D01*
X0016100Y0396976D01*
X0015975Y0396949D01*
X0015849Y0396926D01*
X0015722Y0396908D01*
X0015595Y0396893D01*
X0015468Y0396882D01*
X0015340Y0396875D01*
X0015212Y0396872D01*
X0015084Y0396873D01*
X0014956Y0396878D01*
X0014829Y0396887D01*
X0014701Y0396900D01*
X0014574Y0396917D01*
X0014448Y0396937D01*
X0014323Y0396962D01*
X0014198Y0396990D01*
X0014074Y0397023D01*
X0013951Y0397059D01*
X0013830Y0397099D01*
X0013709Y0397142D01*
X0013591Y0397190D01*
X0013473Y0397241D01*
X0013358Y0397295D01*
X0013244Y0397354D01*
X0013131Y0397415D01*
X0013021Y0397480D01*
X0012913Y0397549D01*
X0012807Y0397621D01*
X0012704Y0397696D01*
X0012602Y0397774D01*
X0012504Y0397855D01*
X0012407Y0397940D01*
X0012314Y0398027D01*
X0012223Y0398117D01*
X0012135Y0398210D01*
X0012050Y0398305D01*
X0011968Y0398404D01*
X0011889Y0398504D01*
X0011813Y0398607D01*
X0011740Y0398713D01*
X0011671Y0398820D01*
X0011605Y0398930D01*
X0011543Y0399041D01*
X0011484Y0399155D01*
X0011428Y0399270D01*
X0011376Y0399387D01*
X0011328Y0399506D01*
X0011283Y0399626D01*
X0011242Y0399747D01*
X0011205Y0399869D01*
X0011172Y0399993D01*
X0011143Y0400117D01*
X0011117Y0400243D01*
X0011095Y0400369D01*
X0011078Y0400495D01*
X0011064Y0400623D01*
X0011054Y0400750D01*
X0011048Y0400878D01*
X0011046Y0401006D01*
X0099234Y0394313D02*
X0099236Y0394464D01*
X0099242Y0394614D01*
X0099252Y0394765D01*
X0099266Y0394915D01*
X0099284Y0395064D01*
X0099305Y0395214D01*
X0099331Y0395362D01*
X0099361Y0395510D01*
X0099394Y0395657D01*
X0099432Y0395803D01*
X0099473Y0395948D01*
X0099518Y0396092D01*
X0099567Y0396234D01*
X0099620Y0396375D01*
X0099676Y0396515D01*
X0099736Y0396653D01*
X0099799Y0396790D01*
X0099867Y0396925D01*
X0099937Y0397058D01*
X0100011Y0397189D01*
X0100089Y0397318D01*
X0100170Y0397445D01*
X0100254Y0397570D01*
X0100342Y0397693D01*
X0100433Y0397813D01*
X0100527Y0397931D01*
X0100624Y0398046D01*
X0100724Y0398159D01*
X0100827Y0398269D01*
X0100933Y0398376D01*
X0101042Y0398481D01*
X0101153Y0398582D01*
X0101267Y0398681D01*
X0101383Y0398776D01*
X0101503Y0398869D01*
X0101624Y0398958D01*
X0101748Y0399044D01*
X0101874Y0399127D01*
X0102002Y0399206D01*
X0102132Y0399282D01*
X0102264Y0399355D01*
X0102398Y0399423D01*
X0102534Y0399489D01*
X0102672Y0399551D01*
X0102811Y0399609D01*
X0102951Y0399663D01*
X0103093Y0399714D01*
X0103236Y0399761D01*
X0103381Y0399804D01*
X0103526Y0399843D01*
X0103673Y0399879D01*
X0103820Y0399910D01*
X0103968Y0399938D01*
X0104117Y0399962D01*
X0104266Y0399982D01*
X0104416Y0399998D01*
X0104566Y0400010D01*
X0104717Y0400018D01*
X0104868Y0400022D01*
X0105018Y0400022D01*
X0105169Y0400018D01*
X0105320Y0400010D01*
X0105470Y0399998D01*
X0105620Y0399982D01*
X0105769Y0399962D01*
X0105918Y0399938D01*
X0106066Y0399910D01*
X0106213Y0399879D01*
X0106360Y0399843D01*
X0106505Y0399804D01*
X0106650Y0399761D01*
X0106793Y0399714D01*
X0106935Y0399663D01*
X0107075Y0399609D01*
X0107214Y0399551D01*
X0107352Y0399489D01*
X0107488Y0399423D01*
X0107622Y0399355D01*
X0107754Y0399282D01*
X0107884Y0399206D01*
X0108012Y0399127D01*
X0108138Y0399044D01*
X0108262Y0398958D01*
X0108383Y0398869D01*
X0108503Y0398776D01*
X0108619Y0398681D01*
X0108733Y0398582D01*
X0108844Y0398481D01*
X0108953Y0398376D01*
X0109059Y0398269D01*
X0109162Y0398159D01*
X0109262Y0398046D01*
X0109359Y0397931D01*
X0109453Y0397813D01*
X0109544Y0397693D01*
X0109632Y0397570D01*
X0109716Y0397445D01*
X0109797Y0397318D01*
X0109875Y0397189D01*
X0109949Y0397058D01*
X0110019Y0396925D01*
X0110087Y0396790D01*
X0110150Y0396653D01*
X0110210Y0396515D01*
X0110266Y0396375D01*
X0110319Y0396234D01*
X0110368Y0396092D01*
X0110413Y0395948D01*
X0110454Y0395803D01*
X0110492Y0395657D01*
X0110525Y0395510D01*
X0110555Y0395362D01*
X0110581Y0395214D01*
X0110602Y0395064D01*
X0110620Y0394915D01*
X0110634Y0394765D01*
X0110644Y0394614D01*
X0110650Y0394464D01*
X0110652Y0394313D01*
X0110650Y0394162D01*
X0110644Y0394012D01*
X0110634Y0393861D01*
X0110620Y0393711D01*
X0110602Y0393562D01*
X0110581Y0393412D01*
X0110555Y0393264D01*
X0110525Y0393116D01*
X0110492Y0392969D01*
X0110454Y0392823D01*
X0110413Y0392678D01*
X0110368Y0392534D01*
X0110319Y0392392D01*
X0110266Y0392251D01*
X0110210Y0392111D01*
X0110150Y0391973D01*
X0110087Y0391836D01*
X0110019Y0391701D01*
X0109949Y0391568D01*
X0109875Y0391437D01*
X0109797Y0391308D01*
X0109716Y0391181D01*
X0109632Y0391056D01*
X0109544Y0390933D01*
X0109453Y0390813D01*
X0109359Y0390695D01*
X0109262Y0390580D01*
X0109162Y0390467D01*
X0109059Y0390357D01*
X0108953Y0390250D01*
X0108844Y0390145D01*
X0108733Y0390044D01*
X0108619Y0389945D01*
X0108503Y0389850D01*
X0108383Y0389757D01*
X0108262Y0389668D01*
X0108138Y0389582D01*
X0108012Y0389499D01*
X0107884Y0389420D01*
X0107754Y0389344D01*
X0107622Y0389271D01*
X0107488Y0389203D01*
X0107352Y0389137D01*
X0107214Y0389075D01*
X0107075Y0389017D01*
X0106935Y0388963D01*
X0106793Y0388912D01*
X0106650Y0388865D01*
X0106505Y0388822D01*
X0106360Y0388783D01*
X0106213Y0388747D01*
X0106066Y0388716D01*
X0105918Y0388688D01*
X0105769Y0388664D01*
X0105620Y0388644D01*
X0105470Y0388628D01*
X0105320Y0388616D01*
X0105169Y0388608D01*
X0105018Y0388604D01*
X0104868Y0388604D01*
X0104717Y0388608D01*
X0104566Y0388616D01*
X0104416Y0388628D01*
X0104266Y0388644D01*
X0104117Y0388664D01*
X0103968Y0388688D01*
X0103820Y0388716D01*
X0103673Y0388747D01*
X0103526Y0388783D01*
X0103381Y0388822D01*
X0103236Y0388865D01*
X0103093Y0388912D01*
X0102951Y0388963D01*
X0102811Y0389017D01*
X0102672Y0389075D01*
X0102534Y0389137D01*
X0102398Y0389203D01*
X0102264Y0389271D01*
X0102132Y0389344D01*
X0102002Y0389420D01*
X0101874Y0389499D01*
X0101748Y0389582D01*
X0101624Y0389668D01*
X0101503Y0389757D01*
X0101383Y0389850D01*
X0101267Y0389945D01*
X0101153Y0390044D01*
X0101042Y0390145D01*
X0100933Y0390250D01*
X0100827Y0390357D01*
X0100724Y0390467D01*
X0100624Y0390580D01*
X0100527Y0390695D01*
X0100433Y0390813D01*
X0100342Y0390933D01*
X0100254Y0391056D01*
X0100170Y0391181D01*
X0100089Y0391308D01*
X0100011Y0391437D01*
X0099937Y0391568D01*
X0099867Y0391701D01*
X0099799Y0391836D01*
X0099736Y0391973D01*
X0099676Y0392111D01*
X0099620Y0392251D01*
X0099567Y0392392D01*
X0099518Y0392534D01*
X0099473Y0392678D01*
X0099432Y0392823D01*
X0099394Y0392969D01*
X0099361Y0393116D01*
X0099331Y0393264D01*
X0099305Y0393412D01*
X0099284Y0393562D01*
X0099266Y0393711D01*
X0099252Y0393861D01*
X0099242Y0394012D01*
X0099236Y0394162D01*
X0099234Y0394313D01*
X0293722Y0394313D02*
X0293724Y0394464D01*
X0293730Y0394614D01*
X0293740Y0394765D01*
X0293754Y0394915D01*
X0293772Y0395064D01*
X0293793Y0395214D01*
X0293819Y0395362D01*
X0293849Y0395510D01*
X0293882Y0395657D01*
X0293920Y0395803D01*
X0293961Y0395948D01*
X0294006Y0396092D01*
X0294055Y0396234D01*
X0294108Y0396375D01*
X0294164Y0396515D01*
X0294224Y0396653D01*
X0294287Y0396790D01*
X0294355Y0396925D01*
X0294425Y0397058D01*
X0294499Y0397189D01*
X0294577Y0397318D01*
X0294658Y0397445D01*
X0294742Y0397570D01*
X0294830Y0397693D01*
X0294921Y0397813D01*
X0295015Y0397931D01*
X0295112Y0398046D01*
X0295212Y0398159D01*
X0295315Y0398269D01*
X0295421Y0398376D01*
X0295530Y0398481D01*
X0295641Y0398582D01*
X0295755Y0398681D01*
X0295871Y0398776D01*
X0295991Y0398869D01*
X0296112Y0398958D01*
X0296236Y0399044D01*
X0296362Y0399127D01*
X0296490Y0399206D01*
X0296620Y0399282D01*
X0296752Y0399355D01*
X0296886Y0399423D01*
X0297022Y0399489D01*
X0297160Y0399551D01*
X0297299Y0399609D01*
X0297439Y0399663D01*
X0297581Y0399714D01*
X0297724Y0399761D01*
X0297869Y0399804D01*
X0298014Y0399843D01*
X0298161Y0399879D01*
X0298308Y0399910D01*
X0298456Y0399938D01*
X0298605Y0399962D01*
X0298754Y0399982D01*
X0298904Y0399998D01*
X0299054Y0400010D01*
X0299205Y0400018D01*
X0299356Y0400022D01*
X0299506Y0400022D01*
X0299657Y0400018D01*
X0299808Y0400010D01*
X0299958Y0399998D01*
X0300108Y0399982D01*
X0300257Y0399962D01*
X0300406Y0399938D01*
X0300554Y0399910D01*
X0300701Y0399879D01*
X0300848Y0399843D01*
X0300993Y0399804D01*
X0301138Y0399761D01*
X0301281Y0399714D01*
X0301423Y0399663D01*
X0301563Y0399609D01*
X0301702Y0399551D01*
X0301840Y0399489D01*
X0301976Y0399423D01*
X0302110Y0399355D01*
X0302242Y0399282D01*
X0302372Y0399206D01*
X0302500Y0399127D01*
X0302626Y0399044D01*
X0302750Y0398958D01*
X0302871Y0398869D01*
X0302991Y0398776D01*
X0303107Y0398681D01*
X0303221Y0398582D01*
X0303332Y0398481D01*
X0303441Y0398376D01*
X0303547Y0398269D01*
X0303650Y0398159D01*
X0303750Y0398046D01*
X0303847Y0397931D01*
X0303941Y0397813D01*
X0304032Y0397693D01*
X0304120Y0397570D01*
X0304204Y0397445D01*
X0304285Y0397318D01*
X0304363Y0397189D01*
X0304437Y0397058D01*
X0304507Y0396925D01*
X0304575Y0396790D01*
X0304638Y0396653D01*
X0304698Y0396515D01*
X0304754Y0396375D01*
X0304807Y0396234D01*
X0304856Y0396092D01*
X0304901Y0395948D01*
X0304942Y0395803D01*
X0304980Y0395657D01*
X0305013Y0395510D01*
X0305043Y0395362D01*
X0305069Y0395214D01*
X0305090Y0395064D01*
X0305108Y0394915D01*
X0305122Y0394765D01*
X0305132Y0394614D01*
X0305138Y0394464D01*
X0305140Y0394313D01*
X0305138Y0394162D01*
X0305132Y0394012D01*
X0305122Y0393861D01*
X0305108Y0393711D01*
X0305090Y0393562D01*
X0305069Y0393412D01*
X0305043Y0393264D01*
X0305013Y0393116D01*
X0304980Y0392969D01*
X0304942Y0392823D01*
X0304901Y0392678D01*
X0304856Y0392534D01*
X0304807Y0392392D01*
X0304754Y0392251D01*
X0304698Y0392111D01*
X0304638Y0391973D01*
X0304575Y0391836D01*
X0304507Y0391701D01*
X0304437Y0391568D01*
X0304363Y0391437D01*
X0304285Y0391308D01*
X0304204Y0391181D01*
X0304120Y0391056D01*
X0304032Y0390933D01*
X0303941Y0390813D01*
X0303847Y0390695D01*
X0303750Y0390580D01*
X0303650Y0390467D01*
X0303547Y0390357D01*
X0303441Y0390250D01*
X0303332Y0390145D01*
X0303221Y0390044D01*
X0303107Y0389945D01*
X0302991Y0389850D01*
X0302871Y0389757D01*
X0302750Y0389668D01*
X0302626Y0389582D01*
X0302500Y0389499D01*
X0302372Y0389420D01*
X0302242Y0389344D01*
X0302110Y0389271D01*
X0301976Y0389203D01*
X0301840Y0389137D01*
X0301702Y0389075D01*
X0301563Y0389017D01*
X0301423Y0388963D01*
X0301281Y0388912D01*
X0301138Y0388865D01*
X0300993Y0388822D01*
X0300848Y0388783D01*
X0300701Y0388747D01*
X0300554Y0388716D01*
X0300406Y0388688D01*
X0300257Y0388664D01*
X0300108Y0388644D01*
X0299958Y0388628D01*
X0299808Y0388616D01*
X0299657Y0388608D01*
X0299506Y0388604D01*
X0299356Y0388604D01*
X0299205Y0388608D01*
X0299054Y0388616D01*
X0298904Y0388628D01*
X0298754Y0388644D01*
X0298605Y0388664D01*
X0298456Y0388688D01*
X0298308Y0388716D01*
X0298161Y0388747D01*
X0298014Y0388783D01*
X0297869Y0388822D01*
X0297724Y0388865D01*
X0297581Y0388912D01*
X0297439Y0388963D01*
X0297299Y0389017D01*
X0297160Y0389075D01*
X0297022Y0389137D01*
X0296886Y0389203D01*
X0296752Y0389271D01*
X0296620Y0389344D01*
X0296490Y0389420D01*
X0296362Y0389499D01*
X0296236Y0389582D01*
X0296112Y0389668D01*
X0295991Y0389757D01*
X0295871Y0389850D01*
X0295755Y0389945D01*
X0295641Y0390044D01*
X0295530Y0390145D01*
X0295421Y0390250D01*
X0295315Y0390357D01*
X0295212Y0390467D01*
X0295112Y0390580D01*
X0295015Y0390695D01*
X0294921Y0390813D01*
X0294830Y0390933D01*
X0294742Y0391056D01*
X0294658Y0391181D01*
X0294577Y0391308D01*
X0294499Y0391437D01*
X0294425Y0391568D01*
X0294355Y0391701D01*
X0294287Y0391836D01*
X0294224Y0391973D01*
X0294164Y0392111D01*
X0294108Y0392251D01*
X0294055Y0392392D01*
X0294006Y0392534D01*
X0293961Y0392678D01*
X0293920Y0392823D01*
X0293882Y0392969D01*
X0293849Y0393116D01*
X0293819Y0393264D01*
X0293793Y0393412D01*
X0293772Y0393562D01*
X0293754Y0393711D01*
X0293740Y0393861D01*
X0293730Y0394012D01*
X0293724Y0394162D01*
X0293722Y0394313D01*
X0345199Y0369510D02*
X0345203Y0369817D01*
X0345214Y0370123D01*
X0345233Y0370430D01*
X0345259Y0370735D01*
X0345293Y0371040D01*
X0345334Y0371344D01*
X0345383Y0371647D01*
X0345439Y0371949D01*
X0345503Y0372249D01*
X0345574Y0372547D01*
X0345652Y0372844D01*
X0345737Y0373139D01*
X0345830Y0373431D01*
X0345930Y0373721D01*
X0346037Y0374009D01*
X0346151Y0374294D01*
X0346271Y0374576D01*
X0346399Y0374854D01*
X0346534Y0375130D01*
X0346675Y0375402D01*
X0346823Y0375671D01*
X0346977Y0375936D01*
X0347138Y0376197D01*
X0347306Y0376455D01*
X0347479Y0376708D01*
X0347659Y0376956D01*
X0347845Y0377200D01*
X0348036Y0377440D01*
X0348234Y0377675D01*
X0348437Y0377904D01*
X0348646Y0378129D01*
X0348860Y0378349D01*
X0349080Y0378563D01*
X0349305Y0378772D01*
X0349534Y0378975D01*
X0349769Y0379173D01*
X0350009Y0379364D01*
X0350253Y0379550D01*
X0350501Y0379730D01*
X0350754Y0379903D01*
X0351012Y0380071D01*
X0351273Y0380232D01*
X0351538Y0380386D01*
X0351807Y0380534D01*
X0352079Y0380675D01*
X0352355Y0380810D01*
X0352633Y0380938D01*
X0352915Y0381058D01*
X0353200Y0381172D01*
X0353488Y0381279D01*
X0353778Y0381379D01*
X0354070Y0381472D01*
X0354365Y0381557D01*
X0354662Y0381635D01*
X0354960Y0381706D01*
X0355260Y0381770D01*
X0355562Y0381826D01*
X0355865Y0381875D01*
X0356169Y0381916D01*
X0356474Y0381950D01*
X0356779Y0381976D01*
X0357086Y0381995D01*
X0357392Y0382006D01*
X0357699Y0382010D01*
X0358006Y0382006D01*
X0358312Y0381995D01*
X0358619Y0381976D01*
X0358924Y0381950D01*
X0359229Y0381916D01*
X0359533Y0381875D01*
X0359836Y0381826D01*
X0360138Y0381770D01*
X0360438Y0381706D01*
X0360736Y0381635D01*
X0361033Y0381557D01*
X0361328Y0381472D01*
X0361620Y0381379D01*
X0361910Y0381279D01*
X0362198Y0381172D01*
X0362483Y0381058D01*
X0362765Y0380938D01*
X0363043Y0380810D01*
X0363319Y0380675D01*
X0363591Y0380534D01*
X0363860Y0380386D01*
X0364125Y0380232D01*
X0364386Y0380071D01*
X0364644Y0379903D01*
X0364897Y0379730D01*
X0365145Y0379550D01*
X0365389Y0379364D01*
X0365629Y0379173D01*
X0365864Y0378975D01*
X0366093Y0378772D01*
X0366318Y0378563D01*
X0366538Y0378349D01*
X0366752Y0378129D01*
X0366961Y0377904D01*
X0367164Y0377675D01*
X0367362Y0377440D01*
X0367553Y0377200D01*
X0367739Y0376956D01*
X0367919Y0376708D01*
X0368092Y0376455D01*
X0368260Y0376197D01*
X0368421Y0375936D01*
X0368575Y0375671D01*
X0368723Y0375402D01*
X0368864Y0375130D01*
X0368999Y0374854D01*
X0369127Y0374576D01*
X0369247Y0374294D01*
X0369361Y0374009D01*
X0369468Y0373721D01*
X0369568Y0373431D01*
X0369661Y0373139D01*
X0369746Y0372844D01*
X0369824Y0372547D01*
X0369895Y0372249D01*
X0369959Y0371949D01*
X0370015Y0371647D01*
X0370064Y0371344D01*
X0370105Y0371040D01*
X0370139Y0370735D01*
X0370165Y0370430D01*
X0370184Y0370123D01*
X0370195Y0369817D01*
X0370199Y0369510D01*
X0370195Y0369203D01*
X0370184Y0368897D01*
X0370165Y0368590D01*
X0370139Y0368285D01*
X0370105Y0367980D01*
X0370064Y0367676D01*
X0370015Y0367373D01*
X0369959Y0367071D01*
X0369895Y0366771D01*
X0369824Y0366473D01*
X0369746Y0366176D01*
X0369661Y0365881D01*
X0369568Y0365589D01*
X0369468Y0365299D01*
X0369361Y0365011D01*
X0369247Y0364726D01*
X0369127Y0364444D01*
X0368999Y0364166D01*
X0368864Y0363890D01*
X0368723Y0363618D01*
X0368575Y0363349D01*
X0368421Y0363084D01*
X0368260Y0362823D01*
X0368092Y0362565D01*
X0367919Y0362312D01*
X0367739Y0362064D01*
X0367553Y0361820D01*
X0367362Y0361580D01*
X0367164Y0361345D01*
X0366961Y0361116D01*
X0366752Y0360891D01*
X0366538Y0360671D01*
X0366318Y0360457D01*
X0366093Y0360248D01*
X0365864Y0360045D01*
X0365629Y0359847D01*
X0365389Y0359656D01*
X0365145Y0359470D01*
X0364897Y0359290D01*
X0364644Y0359117D01*
X0364386Y0358949D01*
X0364125Y0358788D01*
X0363860Y0358634D01*
X0363591Y0358486D01*
X0363319Y0358345D01*
X0363043Y0358210D01*
X0362765Y0358082D01*
X0362483Y0357962D01*
X0362198Y0357848D01*
X0361910Y0357741D01*
X0361620Y0357641D01*
X0361328Y0357548D01*
X0361033Y0357463D01*
X0360736Y0357385D01*
X0360438Y0357314D01*
X0360138Y0357250D01*
X0359836Y0357194D01*
X0359533Y0357145D01*
X0359229Y0357104D01*
X0358924Y0357070D01*
X0358619Y0357044D01*
X0358312Y0357025D01*
X0358006Y0357014D01*
X0357699Y0357010D01*
X0357392Y0357014D01*
X0357086Y0357025D01*
X0356779Y0357044D01*
X0356474Y0357070D01*
X0356169Y0357104D01*
X0355865Y0357145D01*
X0355562Y0357194D01*
X0355260Y0357250D01*
X0354960Y0357314D01*
X0354662Y0357385D01*
X0354365Y0357463D01*
X0354070Y0357548D01*
X0353778Y0357641D01*
X0353488Y0357741D01*
X0353200Y0357848D01*
X0352915Y0357962D01*
X0352633Y0358082D01*
X0352355Y0358210D01*
X0352079Y0358345D01*
X0351807Y0358486D01*
X0351538Y0358634D01*
X0351273Y0358788D01*
X0351012Y0358949D01*
X0350754Y0359117D01*
X0350501Y0359290D01*
X0350253Y0359470D01*
X0350009Y0359656D01*
X0349769Y0359847D01*
X0349534Y0360045D01*
X0349305Y0360248D01*
X0349080Y0360457D01*
X0348860Y0360671D01*
X0348646Y0360891D01*
X0348437Y0361116D01*
X0348234Y0361345D01*
X0348036Y0361580D01*
X0347845Y0361820D01*
X0347659Y0362064D01*
X0347479Y0362312D01*
X0347306Y0362565D01*
X0347138Y0362823D01*
X0346977Y0363084D01*
X0346823Y0363349D01*
X0346675Y0363618D01*
X0346534Y0363890D01*
X0346399Y0364166D01*
X0346271Y0364444D01*
X0346151Y0364726D01*
X0346037Y0365011D01*
X0345930Y0365299D01*
X0345830Y0365589D01*
X0345737Y0365881D01*
X0345652Y0366176D01*
X0345574Y0366473D01*
X0345503Y0366771D01*
X0345439Y0367071D01*
X0345383Y0367373D01*
X0345334Y0367676D01*
X0345293Y0367980D01*
X0345259Y0368285D01*
X0345233Y0368590D01*
X0345214Y0368897D01*
X0345203Y0369203D01*
X0345199Y0369510D01*
X0385061Y0401006D02*
X0385063Y0401134D01*
X0385069Y0401262D01*
X0385079Y0401389D01*
X0385093Y0401517D01*
X0385110Y0401643D01*
X0385132Y0401769D01*
X0385158Y0401895D01*
X0385187Y0402019D01*
X0385220Y0402143D01*
X0385257Y0402265D01*
X0385298Y0402386D01*
X0385343Y0402506D01*
X0385391Y0402625D01*
X0385443Y0402742D01*
X0385499Y0402857D01*
X0385558Y0402971D01*
X0385620Y0403082D01*
X0385686Y0403192D01*
X0385755Y0403299D01*
X0385828Y0403405D01*
X0385904Y0403508D01*
X0385983Y0403608D01*
X0386065Y0403707D01*
X0386150Y0403802D01*
X0386238Y0403895D01*
X0386329Y0403985D01*
X0386422Y0404072D01*
X0386519Y0404157D01*
X0386617Y0404238D01*
X0386719Y0404316D01*
X0386822Y0404391D01*
X0386928Y0404463D01*
X0387036Y0404532D01*
X0387146Y0404597D01*
X0387259Y0404658D01*
X0387373Y0404717D01*
X0387488Y0404771D01*
X0387606Y0404822D01*
X0387724Y0404870D01*
X0387845Y0404913D01*
X0387966Y0404953D01*
X0388089Y0404989D01*
X0388213Y0405022D01*
X0388338Y0405050D01*
X0388463Y0405075D01*
X0388589Y0405095D01*
X0388716Y0405112D01*
X0388844Y0405125D01*
X0388971Y0405134D01*
X0389099Y0405139D01*
X0389227Y0405140D01*
X0389355Y0405137D01*
X0389483Y0405130D01*
X0389610Y0405119D01*
X0389737Y0405104D01*
X0389864Y0405086D01*
X0389990Y0405063D01*
X0390115Y0405036D01*
X0390239Y0405006D01*
X0390362Y0404972D01*
X0390485Y0404934D01*
X0390606Y0404892D01*
X0390725Y0404846D01*
X0390843Y0404797D01*
X0390960Y0404744D01*
X0391075Y0404688D01*
X0391188Y0404628D01*
X0391299Y0404565D01*
X0391408Y0404498D01*
X0391515Y0404428D01*
X0391620Y0404354D01*
X0391722Y0404278D01*
X0391822Y0404198D01*
X0391920Y0404115D01*
X0392015Y0404029D01*
X0392107Y0403940D01*
X0392196Y0403849D01*
X0392283Y0403755D01*
X0392366Y0403658D01*
X0392447Y0403558D01*
X0392524Y0403457D01*
X0392599Y0403352D01*
X0392670Y0403246D01*
X0392737Y0403137D01*
X0392802Y0403027D01*
X0392862Y0402914D01*
X0392920Y0402800D01*
X0392973Y0402684D01*
X0393023Y0402566D01*
X0393070Y0402447D01*
X0393113Y0402326D01*
X0393152Y0402204D01*
X0393187Y0402081D01*
X0393218Y0401957D01*
X0393246Y0401832D01*
X0393269Y0401706D01*
X0393289Y0401580D01*
X0393305Y0401453D01*
X0393317Y0401326D01*
X0393325Y0401198D01*
X0393329Y0401070D01*
X0393329Y0400942D01*
X0393325Y0400814D01*
X0393317Y0400686D01*
X0393305Y0400559D01*
X0393289Y0400432D01*
X0393269Y0400306D01*
X0393246Y0400180D01*
X0393218Y0400055D01*
X0393187Y0399931D01*
X0393152Y0399808D01*
X0393113Y0399686D01*
X0393070Y0399565D01*
X0393023Y0399446D01*
X0392973Y0399328D01*
X0392920Y0399212D01*
X0392862Y0399098D01*
X0392802Y0398985D01*
X0392737Y0398875D01*
X0392670Y0398766D01*
X0392599Y0398660D01*
X0392524Y0398555D01*
X0392447Y0398454D01*
X0392366Y0398354D01*
X0392283Y0398257D01*
X0392196Y0398163D01*
X0392107Y0398072D01*
X0392015Y0397983D01*
X0391920Y0397897D01*
X0391822Y0397814D01*
X0391722Y0397734D01*
X0391620Y0397658D01*
X0391515Y0397584D01*
X0391408Y0397514D01*
X0391299Y0397447D01*
X0391188Y0397384D01*
X0391075Y0397324D01*
X0390960Y0397268D01*
X0390843Y0397215D01*
X0390725Y0397166D01*
X0390606Y0397120D01*
X0390485Y0397078D01*
X0390362Y0397040D01*
X0390239Y0397006D01*
X0390115Y0396976D01*
X0389990Y0396949D01*
X0389864Y0396926D01*
X0389737Y0396908D01*
X0389610Y0396893D01*
X0389483Y0396882D01*
X0389355Y0396875D01*
X0389227Y0396872D01*
X0389099Y0396873D01*
X0388971Y0396878D01*
X0388844Y0396887D01*
X0388716Y0396900D01*
X0388589Y0396917D01*
X0388463Y0396937D01*
X0388338Y0396962D01*
X0388213Y0396990D01*
X0388089Y0397023D01*
X0387966Y0397059D01*
X0387845Y0397099D01*
X0387724Y0397142D01*
X0387606Y0397190D01*
X0387488Y0397241D01*
X0387373Y0397295D01*
X0387259Y0397354D01*
X0387146Y0397415D01*
X0387036Y0397480D01*
X0386928Y0397549D01*
X0386822Y0397621D01*
X0386719Y0397696D01*
X0386617Y0397774D01*
X0386519Y0397855D01*
X0386422Y0397940D01*
X0386329Y0398027D01*
X0386238Y0398117D01*
X0386150Y0398210D01*
X0386065Y0398305D01*
X0385983Y0398404D01*
X0385904Y0398504D01*
X0385828Y0398607D01*
X0385755Y0398713D01*
X0385686Y0398820D01*
X0385620Y0398930D01*
X0385558Y0399041D01*
X0385499Y0399155D01*
X0385443Y0399270D01*
X0385391Y0399387D01*
X0385343Y0399506D01*
X0385298Y0399626D01*
X0385257Y0399747D01*
X0385220Y0399869D01*
X0385187Y0399993D01*
X0385158Y0400117D01*
X0385132Y0400243D01*
X0385110Y0400369D01*
X0385093Y0400495D01*
X0385079Y0400623D01*
X0385069Y0400750D01*
X0385063Y0400878D01*
X0385061Y0401006D01*
X0376793Y0311243D02*
X0376795Y0311394D01*
X0376801Y0311544D01*
X0376811Y0311695D01*
X0376825Y0311845D01*
X0376843Y0311994D01*
X0376864Y0312144D01*
X0376890Y0312292D01*
X0376920Y0312440D01*
X0376953Y0312587D01*
X0376991Y0312733D01*
X0377032Y0312878D01*
X0377077Y0313022D01*
X0377126Y0313164D01*
X0377179Y0313305D01*
X0377235Y0313445D01*
X0377295Y0313583D01*
X0377358Y0313720D01*
X0377426Y0313855D01*
X0377496Y0313988D01*
X0377570Y0314119D01*
X0377648Y0314248D01*
X0377729Y0314375D01*
X0377813Y0314500D01*
X0377901Y0314623D01*
X0377992Y0314743D01*
X0378086Y0314861D01*
X0378183Y0314976D01*
X0378283Y0315089D01*
X0378386Y0315199D01*
X0378492Y0315306D01*
X0378601Y0315411D01*
X0378712Y0315512D01*
X0378826Y0315611D01*
X0378942Y0315706D01*
X0379062Y0315799D01*
X0379183Y0315888D01*
X0379307Y0315974D01*
X0379433Y0316057D01*
X0379561Y0316136D01*
X0379691Y0316212D01*
X0379823Y0316285D01*
X0379957Y0316353D01*
X0380093Y0316419D01*
X0380231Y0316481D01*
X0380370Y0316539D01*
X0380510Y0316593D01*
X0380652Y0316644D01*
X0380795Y0316691D01*
X0380940Y0316734D01*
X0381085Y0316773D01*
X0381232Y0316809D01*
X0381379Y0316840D01*
X0381527Y0316868D01*
X0381676Y0316892D01*
X0381825Y0316912D01*
X0381975Y0316928D01*
X0382125Y0316940D01*
X0382276Y0316948D01*
X0382427Y0316952D01*
X0382577Y0316952D01*
X0382728Y0316948D01*
X0382879Y0316940D01*
X0383029Y0316928D01*
X0383179Y0316912D01*
X0383328Y0316892D01*
X0383477Y0316868D01*
X0383625Y0316840D01*
X0383772Y0316809D01*
X0383919Y0316773D01*
X0384064Y0316734D01*
X0384209Y0316691D01*
X0384352Y0316644D01*
X0384494Y0316593D01*
X0384634Y0316539D01*
X0384773Y0316481D01*
X0384911Y0316419D01*
X0385047Y0316353D01*
X0385181Y0316285D01*
X0385313Y0316212D01*
X0385443Y0316136D01*
X0385571Y0316057D01*
X0385697Y0315974D01*
X0385821Y0315888D01*
X0385942Y0315799D01*
X0386062Y0315706D01*
X0386178Y0315611D01*
X0386292Y0315512D01*
X0386403Y0315411D01*
X0386512Y0315306D01*
X0386618Y0315199D01*
X0386721Y0315089D01*
X0386821Y0314976D01*
X0386918Y0314861D01*
X0387012Y0314743D01*
X0387103Y0314623D01*
X0387191Y0314500D01*
X0387275Y0314375D01*
X0387356Y0314248D01*
X0387434Y0314119D01*
X0387508Y0313988D01*
X0387578Y0313855D01*
X0387646Y0313720D01*
X0387709Y0313583D01*
X0387769Y0313445D01*
X0387825Y0313305D01*
X0387878Y0313164D01*
X0387927Y0313022D01*
X0387972Y0312878D01*
X0388013Y0312733D01*
X0388051Y0312587D01*
X0388084Y0312440D01*
X0388114Y0312292D01*
X0388140Y0312144D01*
X0388161Y0311994D01*
X0388179Y0311845D01*
X0388193Y0311695D01*
X0388203Y0311544D01*
X0388209Y0311394D01*
X0388211Y0311243D01*
X0388209Y0311092D01*
X0388203Y0310942D01*
X0388193Y0310791D01*
X0388179Y0310641D01*
X0388161Y0310492D01*
X0388140Y0310342D01*
X0388114Y0310194D01*
X0388084Y0310046D01*
X0388051Y0309899D01*
X0388013Y0309753D01*
X0387972Y0309608D01*
X0387927Y0309464D01*
X0387878Y0309322D01*
X0387825Y0309181D01*
X0387769Y0309041D01*
X0387709Y0308903D01*
X0387646Y0308766D01*
X0387578Y0308631D01*
X0387508Y0308498D01*
X0387434Y0308367D01*
X0387356Y0308238D01*
X0387275Y0308111D01*
X0387191Y0307986D01*
X0387103Y0307863D01*
X0387012Y0307743D01*
X0386918Y0307625D01*
X0386821Y0307510D01*
X0386721Y0307397D01*
X0386618Y0307287D01*
X0386512Y0307180D01*
X0386403Y0307075D01*
X0386292Y0306974D01*
X0386178Y0306875D01*
X0386062Y0306780D01*
X0385942Y0306687D01*
X0385821Y0306598D01*
X0385697Y0306512D01*
X0385571Y0306429D01*
X0385443Y0306350D01*
X0385313Y0306274D01*
X0385181Y0306201D01*
X0385047Y0306133D01*
X0384911Y0306067D01*
X0384773Y0306005D01*
X0384634Y0305947D01*
X0384494Y0305893D01*
X0384352Y0305842D01*
X0384209Y0305795D01*
X0384064Y0305752D01*
X0383919Y0305713D01*
X0383772Y0305677D01*
X0383625Y0305646D01*
X0383477Y0305618D01*
X0383328Y0305594D01*
X0383179Y0305574D01*
X0383029Y0305558D01*
X0382879Y0305546D01*
X0382728Y0305538D01*
X0382577Y0305534D01*
X0382427Y0305534D01*
X0382276Y0305538D01*
X0382125Y0305546D01*
X0381975Y0305558D01*
X0381825Y0305574D01*
X0381676Y0305594D01*
X0381527Y0305618D01*
X0381379Y0305646D01*
X0381232Y0305677D01*
X0381085Y0305713D01*
X0380940Y0305752D01*
X0380795Y0305795D01*
X0380652Y0305842D01*
X0380510Y0305893D01*
X0380370Y0305947D01*
X0380231Y0306005D01*
X0380093Y0306067D01*
X0379957Y0306133D01*
X0379823Y0306201D01*
X0379691Y0306274D01*
X0379561Y0306350D01*
X0379433Y0306429D01*
X0379307Y0306512D01*
X0379183Y0306598D01*
X0379062Y0306687D01*
X0378942Y0306780D01*
X0378826Y0306875D01*
X0378712Y0306974D01*
X0378601Y0307075D01*
X0378492Y0307180D01*
X0378386Y0307287D01*
X0378283Y0307397D01*
X0378183Y0307510D01*
X0378086Y0307625D01*
X0377992Y0307743D01*
X0377901Y0307863D01*
X0377813Y0307986D01*
X0377729Y0308111D01*
X0377648Y0308238D01*
X0377570Y0308367D01*
X0377496Y0308498D01*
X0377426Y0308631D01*
X0377358Y0308766D01*
X0377295Y0308903D01*
X0377235Y0309041D01*
X0377179Y0309181D01*
X0377126Y0309322D01*
X0377077Y0309464D01*
X0377032Y0309608D01*
X0376991Y0309753D01*
X0376953Y0309899D01*
X0376920Y0310046D01*
X0376890Y0310194D01*
X0376864Y0310342D01*
X0376843Y0310492D01*
X0376825Y0310641D01*
X0376811Y0310791D01*
X0376801Y0310942D01*
X0376795Y0311092D01*
X0376793Y0311243D01*
X0380809Y0213998D02*
X0380811Y0214131D01*
X0380817Y0214264D01*
X0380827Y0214397D01*
X0380841Y0214529D01*
X0380859Y0214661D01*
X0380880Y0214792D01*
X0380906Y0214923D01*
X0380936Y0215053D01*
X0380969Y0215182D01*
X0381007Y0215309D01*
X0381048Y0215436D01*
X0381093Y0215561D01*
X0381141Y0215685D01*
X0381194Y0215808D01*
X0381250Y0215928D01*
X0381309Y0216047D01*
X0381372Y0216165D01*
X0381439Y0216280D01*
X0381509Y0216393D01*
X0381582Y0216504D01*
X0381659Y0216613D01*
X0381739Y0216720D01*
X0381822Y0216824D01*
X0381908Y0216925D01*
X0381997Y0217024D01*
X0382089Y0217120D01*
X0382183Y0217214D01*
X0382281Y0217304D01*
X0382381Y0217392D01*
X0382484Y0217476D01*
X0382589Y0217558D01*
X0382697Y0217636D01*
X0382807Y0217711D01*
X0382919Y0217783D01*
X0383034Y0217851D01*
X0383150Y0217916D01*
X0383268Y0217977D01*
X0383388Y0218035D01*
X0383509Y0218089D01*
X0383633Y0218139D01*
X0383757Y0218186D01*
X0383883Y0218229D01*
X0384010Y0218268D01*
X0384139Y0218304D01*
X0384268Y0218335D01*
X0384398Y0218363D01*
X0384529Y0218387D01*
X0384661Y0218407D01*
X0384793Y0218423D01*
X0384926Y0218435D01*
X0385058Y0218443D01*
X0385191Y0218447D01*
X0385325Y0218447D01*
X0385458Y0218443D01*
X0385590Y0218435D01*
X0385723Y0218423D01*
X0385855Y0218407D01*
X0385987Y0218387D01*
X0386118Y0218363D01*
X0386248Y0218335D01*
X0386377Y0218304D01*
X0386506Y0218268D01*
X0386633Y0218229D01*
X0386759Y0218186D01*
X0386883Y0218139D01*
X0387007Y0218089D01*
X0387128Y0218035D01*
X0387248Y0217977D01*
X0387366Y0217916D01*
X0387483Y0217851D01*
X0387597Y0217783D01*
X0387709Y0217711D01*
X0387819Y0217636D01*
X0387927Y0217558D01*
X0388032Y0217476D01*
X0388135Y0217392D01*
X0388235Y0217304D01*
X0388333Y0217214D01*
X0388427Y0217120D01*
X0388519Y0217024D01*
X0388608Y0216925D01*
X0388694Y0216824D01*
X0388777Y0216720D01*
X0388857Y0216613D01*
X0388934Y0216504D01*
X0389007Y0216393D01*
X0389077Y0216280D01*
X0389144Y0216165D01*
X0389207Y0216047D01*
X0389266Y0215928D01*
X0389322Y0215808D01*
X0389375Y0215685D01*
X0389423Y0215561D01*
X0389468Y0215436D01*
X0389509Y0215309D01*
X0389547Y0215182D01*
X0389580Y0215053D01*
X0389610Y0214923D01*
X0389636Y0214792D01*
X0389657Y0214661D01*
X0389675Y0214529D01*
X0389689Y0214397D01*
X0389699Y0214264D01*
X0389705Y0214131D01*
X0389707Y0213998D01*
X0389705Y0213865D01*
X0389699Y0213732D01*
X0389689Y0213599D01*
X0389675Y0213467D01*
X0389657Y0213335D01*
X0389636Y0213204D01*
X0389610Y0213073D01*
X0389580Y0212943D01*
X0389547Y0212814D01*
X0389509Y0212687D01*
X0389468Y0212560D01*
X0389423Y0212435D01*
X0389375Y0212311D01*
X0389322Y0212188D01*
X0389266Y0212068D01*
X0389207Y0211949D01*
X0389144Y0211831D01*
X0389077Y0211716D01*
X0389007Y0211603D01*
X0388934Y0211492D01*
X0388857Y0211383D01*
X0388777Y0211276D01*
X0388694Y0211172D01*
X0388608Y0211071D01*
X0388519Y0210972D01*
X0388427Y0210876D01*
X0388333Y0210782D01*
X0388235Y0210692D01*
X0388135Y0210604D01*
X0388032Y0210520D01*
X0387927Y0210438D01*
X0387819Y0210360D01*
X0387709Y0210285D01*
X0387597Y0210213D01*
X0387482Y0210145D01*
X0387366Y0210080D01*
X0387248Y0210019D01*
X0387128Y0209961D01*
X0387007Y0209907D01*
X0386883Y0209857D01*
X0386759Y0209810D01*
X0386633Y0209767D01*
X0386506Y0209728D01*
X0386377Y0209692D01*
X0386248Y0209661D01*
X0386118Y0209633D01*
X0385987Y0209609D01*
X0385855Y0209589D01*
X0385723Y0209573D01*
X0385590Y0209561D01*
X0385458Y0209553D01*
X0385325Y0209549D01*
X0385191Y0209549D01*
X0385058Y0209553D01*
X0384926Y0209561D01*
X0384793Y0209573D01*
X0384661Y0209589D01*
X0384529Y0209609D01*
X0384398Y0209633D01*
X0384268Y0209661D01*
X0384139Y0209692D01*
X0384010Y0209728D01*
X0383883Y0209767D01*
X0383757Y0209810D01*
X0383633Y0209857D01*
X0383509Y0209907D01*
X0383388Y0209961D01*
X0383268Y0210019D01*
X0383150Y0210080D01*
X0383033Y0210145D01*
X0382919Y0210213D01*
X0382807Y0210285D01*
X0382697Y0210360D01*
X0382589Y0210438D01*
X0382484Y0210520D01*
X0382381Y0210604D01*
X0382281Y0210692D01*
X0382183Y0210782D01*
X0382089Y0210876D01*
X0381997Y0210972D01*
X0381908Y0211071D01*
X0381822Y0211172D01*
X0381739Y0211276D01*
X0381659Y0211383D01*
X0381582Y0211492D01*
X0381509Y0211603D01*
X0381439Y0211716D01*
X0381372Y0211831D01*
X0381309Y0211949D01*
X0381250Y0212068D01*
X0381194Y0212188D01*
X0381141Y0212311D01*
X0381093Y0212435D01*
X0381048Y0212560D01*
X0381007Y0212687D01*
X0380969Y0212814D01*
X0380936Y0212943D01*
X0380906Y0213073D01*
X0380880Y0213204D01*
X0380859Y0213335D01*
X0380841Y0213467D01*
X0380827Y0213599D01*
X0380817Y0213732D01*
X0380811Y0213865D01*
X0380809Y0213998D01*
X0376793Y0116754D02*
X0376795Y0116905D01*
X0376801Y0117055D01*
X0376811Y0117206D01*
X0376825Y0117356D01*
X0376843Y0117505D01*
X0376864Y0117655D01*
X0376890Y0117803D01*
X0376920Y0117951D01*
X0376953Y0118098D01*
X0376991Y0118244D01*
X0377032Y0118389D01*
X0377077Y0118533D01*
X0377126Y0118675D01*
X0377179Y0118816D01*
X0377235Y0118956D01*
X0377295Y0119094D01*
X0377358Y0119231D01*
X0377426Y0119366D01*
X0377496Y0119499D01*
X0377570Y0119630D01*
X0377648Y0119759D01*
X0377729Y0119886D01*
X0377813Y0120011D01*
X0377901Y0120134D01*
X0377992Y0120254D01*
X0378086Y0120372D01*
X0378183Y0120487D01*
X0378283Y0120600D01*
X0378386Y0120710D01*
X0378492Y0120817D01*
X0378601Y0120922D01*
X0378712Y0121023D01*
X0378826Y0121122D01*
X0378942Y0121217D01*
X0379062Y0121310D01*
X0379183Y0121399D01*
X0379307Y0121485D01*
X0379433Y0121568D01*
X0379561Y0121647D01*
X0379691Y0121723D01*
X0379823Y0121796D01*
X0379957Y0121864D01*
X0380093Y0121930D01*
X0380231Y0121992D01*
X0380370Y0122050D01*
X0380510Y0122104D01*
X0380652Y0122155D01*
X0380795Y0122202D01*
X0380940Y0122245D01*
X0381085Y0122284D01*
X0381232Y0122320D01*
X0381379Y0122351D01*
X0381527Y0122379D01*
X0381676Y0122403D01*
X0381825Y0122423D01*
X0381975Y0122439D01*
X0382125Y0122451D01*
X0382276Y0122459D01*
X0382427Y0122463D01*
X0382577Y0122463D01*
X0382728Y0122459D01*
X0382879Y0122451D01*
X0383029Y0122439D01*
X0383179Y0122423D01*
X0383328Y0122403D01*
X0383477Y0122379D01*
X0383625Y0122351D01*
X0383772Y0122320D01*
X0383919Y0122284D01*
X0384064Y0122245D01*
X0384209Y0122202D01*
X0384352Y0122155D01*
X0384494Y0122104D01*
X0384634Y0122050D01*
X0384773Y0121992D01*
X0384911Y0121930D01*
X0385047Y0121864D01*
X0385181Y0121796D01*
X0385313Y0121723D01*
X0385443Y0121647D01*
X0385571Y0121568D01*
X0385697Y0121485D01*
X0385821Y0121399D01*
X0385942Y0121310D01*
X0386062Y0121217D01*
X0386178Y0121122D01*
X0386292Y0121023D01*
X0386403Y0120922D01*
X0386512Y0120817D01*
X0386618Y0120710D01*
X0386721Y0120600D01*
X0386821Y0120487D01*
X0386918Y0120372D01*
X0387012Y0120254D01*
X0387103Y0120134D01*
X0387191Y0120011D01*
X0387275Y0119886D01*
X0387356Y0119759D01*
X0387434Y0119630D01*
X0387508Y0119499D01*
X0387578Y0119366D01*
X0387646Y0119231D01*
X0387709Y0119094D01*
X0387769Y0118956D01*
X0387825Y0118816D01*
X0387878Y0118675D01*
X0387927Y0118533D01*
X0387972Y0118389D01*
X0388013Y0118244D01*
X0388051Y0118098D01*
X0388084Y0117951D01*
X0388114Y0117803D01*
X0388140Y0117655D01*
X0388161Y0117505D01*
X0388179Y0117356D01*
X0388193Y0117206D01*
X0388203Y0117055D01*
X0388209Y0116905D01*
X0388211Y0116754D01*
X0388209Y0116603D01*
X0388203Y0116453D01*
X0388193Y0116302D01*
X0388179Y0116152D01*
X0388161Y0116003D01*
X0388140Y0115853D01*
X0388114Y0115705D01*
X0388084Y0115557D01*
X0388051Y0115410D01*
X0388013Y0115264D01*
X0387972Y0115119D01*
X0387927Y0114975D01*
X0387878Y0114833D01*
X0387825Y0114692D01*
X0387769Y0114552D01*
X0387709Y0114414D01*
X0387646Y0114277D01*
X0387578Y0114142D01*
X0387508Y0114009D01*
X0387434Y0113878D01*
X0387356Y0113749D01*
X0387275Y0113622D01*
X0387191Y0113497D01*
X0387103Y0113374D01*
X0387012Y0113254D01*
X0386918Y0113136D01*
X0386821Y0113021D01*
X0386721Y0112908D01*
X0386618Y0112798D01*
X0386512Y0112691D01*
X0386403Y0112586D01*
X0386292Y0112485D01*
X0386178Y0112386D01*
X0386062Y0112291D01*
X0385942Y0112198D01*
X0385821Y0112109D01*
X0385697Y0112023D01*
X0385571Y0111940D01*
X0385443Y0111861D01*
X0385313Y0111785D01*
X0385181Y0111712D01*
X0385047Y0111644D01*
X0384911Y0111578D01*
X0384773Y0111516D01*
X0384634Y0111458D01*
X0384494Y0111404D01*
X0384352Y0111353D01*
X0384209Y0111306D01*
X0384064Y0111263D01*
X0383919Y0111224D01*
X0383772Y0111188D01*
X0383625Y0111157D01*
X0383477Y0111129D01*
X0383328Y0111105D01*
X0383179Y0111085D01*
X0383029Y0111069D01*
X0382879Y0111057D01*
X0382728Y0111049D01*
X0382577Y0111045D01*
X0382427Y0111045D01*
X0382276Y0111049D01*
X0382125Y0111057D01*
X0381975Y0111069D01*
X0381825Y0111085D01*
X0381676Y0111105D01*
X0381527Y0111129D01*
X0381379Y0111157D01*
X0381232Y0111188D01*
X0381085Y0111224D01*
X0380940Y0111263D01*
X0380795Y0111306D01*
X0380652Y0111353D01*
X0380510Y0111404D01*
X0380370Y0111458D01*
X0380231Y0111516D01*
X0380093Y0111578D01*
X0379957Y0111644D01*
X0379823Y0111712D01*
X0379691Y0111785D01*
X0379561Y0111861D01*
X0379433Y0111940D01*
X0379307Y0112023D01*
X0379183Y0112109D01*
X0379062Y0112198D01*
X0378942Y0112291D01*
X0378826Y0112386D01*
X0378712Y0112485D01*
X0378601Y0112586D01*
X0378492Y0112691D01*
X0378386Y0112798D01*
X0378283Y0112908D01*
X0378183Y0113021D01*
X0378086Y0113136D01*
X0377992Y0113254D01*
X0377901Y0113374D01*
X0377813Y0113497D01*
X0377729Y0113622D01*
X0377648Y0113749D01*
X0377570Y0113878D01*
X0377496Y0114009D01*
X0377426Y0114142D01*
X0377358Y0114277D01*
X0377295Y0114414D01*
X0377235Y0114552D01*
X0377179Y0114692D01*
X0377126Y0114833D01*
X0377077Y0114975D01*
X0377032Y0115119D01*
X0376991Y0115264D01*
X0376953Y0115410D01*
X0376920Y0115557D01*
X0376890Y0115705D01*
X0376864Y0115853D01*
X0376843Y0116003D01*
X0376825Y0116152D01*
X0376811Y0116302D01*
X0376801Y0116453D01*
X0376795Y0116603D01*
X0376793Y0116754D01*
X0345199Y0058487D02*
X0345203Y0058794D01*
X0345214Y0059100D01*
X0345233Y0059407D01*
X0345259Y0059712D01*
X0345293Y0060017D01*
X0345334Y0060321D01*
X0345383Y0060624D01*
X0345439Y0060926D01*
X0345503Y0061226D01*
X0345574Y0061524D01*
X0345652Y0061821D01*
X0345737Y0062116D01*
X0345830Y0062408D01*
X0345930Y0062698D01*
X0346037Y0062986D01*
X0346151Y0063271D01*
X0346271Y0063553D01*
X0346399Y0063831D01*
X0346534Y0064107D01*
X0346675Y0064379D01*
X0346823Y0064648D01*
X0346977Y0064913D01*
X0347138Y0065174D01*
X0347306Y0065432D01*
X0347479Y0065685D01*
X0347659Y0065933D01*
X0347845Y0066177D01*
X0348036Y0066417D01*
X0348234Y0066652D01*
X0348437Y0066881D01*
X0348646Y0067106D01*
X0348860Y0067326D01*
X0349080Y0067540D01*
X0349305Y0067749D01*
X0349534Y0067952D01*
X0349769Y0068150D01*
X0350009Y0068341D01*
X0350253Y0068527D01*
X0350501Y0068707D01*
X0350754Y0068880D01*
X0351012Y0069048D01*
X0351273Y0069209D01*
X0351538Y0069363D01*
X0351807Y0069511D01*
X0352079Y0069652D01*
X0352355Y0069787D01*
X0352633Y0069915D01*
X0352915Y0070035D01*
X0353200Y0070149D01*
X0353488Y0070256D01*
X0353778Y0070356D01*
X0354070Y0070449D01*
X0354365Y0070534D01*
X0354662Y0070612D01*
X0354960Y0070683D01*
X0355260Y0070747D01*
X0355562Y0070803D01*
X0355865Y0070852D01*
X0356169Y0070893D01*
X0356474Y0070927D01*
X0356779Y0070953D01*
X0357086Y0070972D01*
X0357392Y0070983D01*
X0357699Y0070987D01*
X0358006Y0070983D01*
X0358312Y0070972D01*
X0358619Y0070953D01*
X0358924Y0070927D01*
X0359229Y0070893D01*
X0359533Y0070852D01*
X0359836Y0070803D01*
X0360138Y0070747D01*
X0360438Y0070683D01*
X0360736Y0070612D01*
X0361033Y0070534D01*
X0361328Y0070449D01*
X0361620Y0070356D01*
X0361910Y0070256D01*
X0362198Y0070149D01*
X0362483Y0070035D01*
X0362765Y0069915D01*
X0363043Y0069787D01*
X0363319Y0069652D01*
X0363591Y0069511D01*
X0363860Y0069363D01*
X0364125Y0069209D01*
X0364386Y0069048D01*
X0364644Y0068880D01*
X0364897Y0068707D01*
X0365145Y0068527D01*
X0365389Y0068341D01*
X0365629Y0068150D01*
X0365864Y0067952D01*
X0366093Y0067749D01*
X0366318Y0067540D01*
X0366538Y0067326D01*
X0366752Y0067106D01*
X0366961Y0066881D01*
X0367164Y0066652D01*
X0367362Y0066417D01*
X0367553Y0066177D01*
X0367739Y0065933D01*
X0367919Y0065685D01*
X0368092Y0065432D01*
X0368260Y0065174D01*
X0368421Y0064913D01*
X0368575Y0064648D01*
X0368723Y0064379D01*
X0368864Y0064107D01*
X0368999Y0063831D01*
X0369127Y0063553D01*
X0369247Y0063271D01*
X0369361Y0062986D01*
X0369468Y0062698D01*
X0369568Y0062408D01*
X0369661Y0062116D01*
X0369746Y0061821D01*
X0369824Y0061524D01*
X0369895Y0061226D01*
X0369959Y0060926D01*
X0370015Y0060624D01*
X0370064Y0060321D01*
X0370105Y0060017D01*
X0370139Y0059712D01*
X0370165Y0059407D01*
X0370184Y0059100D01*
X0370195Y0058794D01*
X0370199Y0058487D01*
X0370195Y0058180D01*
X0370184Y0057874D01*
X0370165Y0057567D01*
X0370139Y0057262D01*
X0370105Y0056957D01*
X0370064Y0056653D01*
X0370015Y0056350D01*
X0369959Y0056048D01*
X0369895Y0055748D01*
X0369824Y0055450D01*
X0369746Y0055153D01*
X0369661Y0054858D01*
X0369568Y0054566D01*
X0369468Y0054276D01*
X0369361Y0053988D01*
X0369247Y0053703D01*
X0369127Y0053421D01*
X0368999Y0053143D01*
X0368864Y0052867D01*
X0368723Y0052595D01*
X0368575Y0052326D01*
X0368421Y0052061D01*
X0368260Y0051800D01*
X0368092Y0051542D01*
X0367919Y0051289D01*
X0367739Y0051041D01*
X0367553Y0050797D01*
X0367362Y0050557D01*
X0367164Y0050322D01*
X0366961Y0050093D01*
X0366752Y0049868D01*
X0366538Y0049648D01*
X0366318Y0049434D01*
X0366093Y0049225D01*
X0365864Y0049022D01*
X0365629Y0048824D01*
X0365389Y0048633D01*
X0365145Y0048447D01*
X0364897Y0048267D01*
X0364644Y0048094D01*
X0364386Y0047926D01*
X0364125Y0047765D01*
X0363860Y0047611D01*
X0363591Y0047463D01*
X0363319Y0047322D01*
X0363043Y0047187D01*
X0362765Y0047059D01*
X0362483Y0046939D01*
X0362198Y0046825D01*
X0361910Y0046718D01*
X0361620Y0046618D01*
X0361328Y0046525D01*
X0361033Y0046440D01*
X0360736Y0046362D01*
X0360438Y0046291D01*
X0360138Y0046227D01*
X0359836Y0046171D01*
X0359533Y0046122D01*
X0359229Y0046081D01*
X0358924Y0046047D01*
X0358619Y0046021D01*
X0358312Y0046002D01*
X0358006Y0045991D01*
X0357699Y0045987D01*
X0357392Y0045991D01*
X0357086Y0046002D01*
X0356779Y0046021D01*
X0356474Y0046047D01*
X0356169Y0046081D01*
X0355865Y0046122D01*
X0355562Y0046171D01*
X0355260Y0046227D01*
X0354960Y0046291D01*
X0354662Y0046362D01*
X0354365Y0046440D01*
X0354070Y0046525D01*
X0353778Y0046618D01*
X0353488Y0046718D01*
X0353200Y0046825D01*
X0352915Y0046939D01*
X0352633Y0047059D01*
X0352355Y0047187D01*
X0352079Y0047322D01*
X0351807Y0047463D01*
X0351538Y0047611D01*
X0351273Y0047765D01*
X0351012Y0047926D01*
X0350754Y0048094D01*
X0350501Y0048267D01*
X0350253Y0048447D01*
X0350009Y0048633D01*
X0349769Y0048824D01*
X0349534Y0049022D01*
X0349305Y0049225D01*
X0349080Y0049434D01*
X0348860Y0049648D01*
X0348646Y0049868D01*
X0348437Y0050093D01*
X0348234Y0050322D01*
X0348036Y0050557D01*
X0347845Y0050797D01*
X0347659Y0051041D01*
X0347479Y0051289D01*
X0347306Y0051542D01*
X0347138Y0051800D01*
X0346977Y0052061D01*
X0346823Y0052326D01*
X0346675Y0052595D01*
X0346534Y0052867D01*
X0346399Y0053143D01*
X0346271Y0053421D01*
X0346151Y0053703D01*
X0346037Y0053988D01*
X0345930Y0054276D01*
X0345830Y0054566D01*
X0345737Y0054858D01*
X0345652Y0055153D01*
X0345574Y0055450D01*
X0345503Y0055748D01*
X0345439Y0056048D01*
X0345383Y0056350D01*
X0345334Y0056653D01*
X0345293Y0056957D01*
X0345259Y0057262D01*
X0345233Y0057567D01*
X0345214Y0057874D01*
X0345203Y0058180D01*
X0345199Y0058487D01*
X0293722Y0033683D02*
X0293724Y0033834D01*
X0293730Y0033984D01*
X0293740Y0034135D01*
X0293754Y0034285D01*
X0293772Y0034434D01*
X0293793Y0034584D01*
X0293819Y0034732D01*
X0293849Y0034880D01*
X0293882Y0035027D01*
X0293920Y0035173D01*
X0293961Y0035318D01*
X0294006Y0035462D01*
X0294055Y0035604D01*
X0294108Y0035745D01*
X0294164Y0035885D01*
X0294224Y0036023D01*
X0294287Y0036160D01*
X0294355Y0036295D01*
X0294425Y0036428D01*
X0294499Y0036559D01*
X0294577Y0036688D01*
X0294658Y0036815D01*
X0294742Y0036940D01*
X0294830Y0037063D01*
X0294921Y0037183D01*
X0295015Y0037301D01*
X0295112Y0037416D01*
X0295212Y0037529D01*
X0295315Y0037639D01*
X0295421Y0037746D01*
X0295530Y0037851D01*
X0295641Y0037952D01*
X0295755Y0038051D01*
X0295871Y0038146D01*
X0295991Y0038239D01*
X0296112Y0038328D01*
X0296236Y0038414D01*
X0296362Y0038497D01*
X0296490Y0038576D01*
X0296620Y0038652D01*
X0296752Y0038725D01*
X0296886Y0038793D01*
X0297022Y0038859D01*
X0297160Y0038921D01*
X0297299Y0038979D01*
X0297439Y0039033D01*
X0297581Y0039084D01*
X0297724Y0039131D01*
X0297869Y0039174D01*
X0298014Y0039213D01*
X0298161Y0039249D01*
X0298308Y0039280D01*
X0298456Y0039308D01*
X0298605Y0039332D01*
X0298754Y0039352D01*
X0298904Y0039368D01*
X0299054Y0039380D01*
X0299205Y0039388D01*
X0299356Y0039392D01*
X0299506Y0039392D01*
X0299657Y0039388D01*
X0299808Y0039380D01*
X0299958Y0039368D01*
X0300108Y0039352D01*
X0300257Y0039332D01*
X0300406Y0039308D01*
X0300554Y0039280D01*
X0300701Y0039249D01*
X0300848Y0039213D01*
X0300993Y0039174D01*
X0301138Y0039131D01*
X0301281Y0039084D01*
X0301423Y0039033D01*
X0301563Y0038979D01*
X0301702Y0038921D01*
X0301840Y0038859D01*
X0301976Y0038793D01*
X0302110Y0038725D01*
X0302242Y0038652D01*
X0302372Y0038576D01*
X0302500Y0038497D01*
X0302626Y0038414D01*
X0302750Y0038328D01*
X0302871Y0038239D01*
X0302991Y0038146D01*
X0303107Y0038051D01*
X0303221Y0037952D01*
X0303332Y0037851D01*
X0303441Y0037746D01*
X0303547Y0037639D01*
X0303650Y0037529D01*
X0303750Y0037416D01*
X0303847Y0037301D01*
X0303941Y0037183D01*
X0304032Y0037063D01*
X0304120Y0036940D01*
X0304204Y0036815D01*
X0304285Y0036688D01*
X0304363Y0036559D01*
X0304437Y0036428D01*
X0304507Y0036295D01*
X0304575Y0036160D01*
X0304638Y0036023D01*
X0304698Y0035885D01*
X0304754Y0035745D01*
X0304807Y0035604D01*
X0304856Y0035462D01*
X0304901Y0035318D01*
X0304942Y0035173D01*
X0304980Y0035027D01*
X0305013Y0034880D01*
X0305043Y0034732D01*
X0305069Y0034584D01*
X0305090Y0034434D01*
X0305108Y0034285D01*
X0305122Y0034135D01*
X0305132Y0033984D01*
X0305138Y0033834D01*
X0305140Y0033683D01*
X0305138Y0033532D01*
X0305132Y0033382D01*
X0305122Y0033231D01*
X0305108Y0033081D01*
X0305090Y0032932D01*
X0305069Y0032782D01*
X0305043Y0032634D01*
X0305013Y0032486D01*
X0304980Y0032339D01*
X0304942Y0032193D01*
X0304901Y0032048D01*
X0304856Y0031904D01*
X0304807Y0031762D01*
X0304754Y0031621D01*
X0304698Y0031481D01*
X0304638Y0031343D01*
X0304575Y0031206D01*
X0304507Y0031071D01*
X0304437Y0030938D01*
X0304363Y0030807D01*
X0304285Y0030678D01*
X0304204Y0030551D01*
X0304120Y0030426D01*
X0304032Y0030303D01*
X0303941Y0030183D01*
X0303847Y0030065D01*
X0303750Y0029950D01*
X0303650Y0029837D01*
X0303547Y0029727D01*
X0303441Y0029620D01*
X0303332Y0029515D01*
X0303221Y0029414D01*
X0303107Y0029315D01*
X0302991Y0029220D01*
X0302871Y0029127D01*
X0302750Y0029038D01*
X0302626Y0028952D01*
X0302500Y0028869D01*
X0302372Y0028790D01*
X0302242Y0028714D01*
X0302110Y0028641D01*
X0301976Y0028573D01*
X0301840Y0028507D01*
X0301702Y0028445D01*
X0301563Y0028387D01*
X0301423Y0028333D01*
X0301281Y0028282D01*
X0301138Y0028235D01*
X0300993Y0028192D01*
X0300848Y0028153D01*
X0300701Y0028117D01*
X0300554Y0028086D01*
X0300406Y0028058D01*
X0300257Y0028034D01*
X0300108Y0028014D01*
X0299958Y0027998D01*
X0299808Y0027986D01*
X0299657Y0027978D01*
X0299506Y0027974D01*
X0299356Y0027974D01*
X0299205Y0027978D01*
X0299054Y0027986D01*
X0298904Y0027998D01*
X0298754Y0028014D01*
X0298605Y0028034D01*
X0298456Y0028058D01*
X0298308Y0028086D01*
X0298161Y0028117D01*
X0298014Y0028153D01*
X0297869Y0028192D01*
X0297724Y0028235D01*
X0297581Y0028282D01*
X0297439Y0028333D01*
X0297299Y0028387D01*
X0297160Y0028445D01*
X0297022Y0028507D01*
X0296886Y0028573D01*
X0296752Y0028641D01*
X0296620Y0028714D01*
X0296490Y0028790D01*
X0296362Y0028869D01*
X0296236Y0028952D01*
X0296112Y0029038D01*
X0295991Y0029127D01*
X0295871Y0029220D01*
X0295755Y0029315D01*
X0295641Y0029414D01*
X0295530Y0029515D01*
X0295421Y0029620D01*
X0295315Y0029727D01*
X0295212Y0029837D01*
X0295112Y0029950D01*
X0295015Y0030065D01*
X0294921Y0030183D01*
X0294830Y0030303D01*
X0294742Y0030426D01*
X0294658Y0030551D01*
X0294577Y0030678D01*
X0294499Y0030807D01*
X0294425Y0030938D01*
X0294355Y0031071D01*
X0294287Y0031206D01*
X0294224Y0031343D01*
X0294164Y0031481D01*
X0294108Y0031621D01*
X0294055Y0031762D01*
X0294006Y0031904D01*
X0293961Y0032048D01*
X0293920Y0032193D01*
X0293882Y0032339D01*
X0293849Y0032486D01*
X0293819Y0032634D01*
X0293793Y0032782D01*
X0293772Y0032932D01*
X0293754Y0033081D01*
X0293740Y0033231D01*
X0293730Y0033382D01*
X0293724Y0033532D01*
X0293722Y0033683D01*
X0385061Y0026991D02*
X0385063Y0027119D01*
X0385069Y0027247D01*
X0385079Y0027374D01*
X0385093Y0027502D01*
X0385110Y0027628D01*
X0385132Y0027754D01*
X0385158Y0027880D01*
X0385187Y0028004D01*
X0385220Y0028128D01*
X0385257Y0028250D01*
X0385298Y0028371D01*
X0385343Y0028491D01*
X0385391Y0028610D01*
X0385443Y0028727D01*
X0385499Y0028842D01*
X0385558Y0028956D01*
X0385620Y0029067D01*
X0385686Y0029177D01*
X0385755Y0029284D01*
X0385828Y0029390D01*
X0385904Y0029493D01*
X0385983Y0029593D01*
X0386065Y0029692D01*
X0386150Y0029787D01*
X0386238Y0029880D01*
X0386329Y0029970D01*
X0386422Y0030057D01*
X0386519Y0030142D01*
X0386617Y0030223D01*
X0386719Y0030301D01*
X0386822Y0030376D01*
X0386928Y0030448D01*
X0387036Y0030517D01*
X0387146Y0030582D01*
X0387259Y0030643D01*
X0387373Y0030702D01*
X0387488Y0030756D01*
X0387606Y0030807D01*
X0387724Y0030855D01*
X0387845Y0030898D01*
X0387966Y0030938D01*
X0388089Y0030974D01*
X0388213Y0031007D01*
X0388338Y0031035D01*
X0388463Y0031060D01*
X0388589Y0031080D01*
X0388716Y0031097D01*
X0388844Y0031110D01*
X0388971Y0031119D01*
X0389099Y0031124D01*
X0389227Y0031125D01*
X0389355Y0031122D01*
X0389483Y0031115D01*
X0389610Y0031104D01*
X0389737Y0031089D01*
X0389864Y0031071D01*
X0389990Y0031048D01*
X0390115Y0031021D01*
X0390239Y0030991D01*
X0390362Y0030957D01*
X0390485Y0030919D01*
X0390606Y0030877D01*
X0390725Y0030831D01*
X0390843Y0030782D01*
X0390960Y0030729D01*
X0391075Y0030673D01*
X0391188Y0030613D01*
X0391299Y0030550D01*
X0391408Y0030483D01*
X0391515Y0030413D01*
X0391620Y0030339D01*
X0391722Y0030263D01*
X0391822Y0030183D01*
X0391920Y0030100D01*
X0392015Y0030014D01*
X0392107Y0029925D01*
X0392196Y0029834D01*
X0392283Y0029740D01*
X0392366Y0029643D01*
X0392447Y0029543D01*
X0392524Y0029442D01*
X0392599Y0029337D01*
X0392670Y0029231D01*
X0392737Y0029122D01*
X0392802Y0029012D01*
X0392862Y0028899D01*
X0392920Y0028785D01*
X0392973Y0028669D01*
X0393023Y0028551D01*
X0393070Y0028432D01*
X0393113Y0028311D01*
X0393152Y0028189D01*
X0393187Y0028066D01*
X0393218Y0027942D01*
X0393246Y0027817D01*
X0393269Y0027691D01*
X0393289Y0027565D01*
X0393305Y0027438D01*
X0393317Y0027311D01*
X0393325Y0027183D01*
X0393329Y0027055D01*
X0393329Y0026927D01*
X0393325Y0026799D01*
X0393317Y0026671D01*
X0393305Y0026544D01*
X0393289Y0026417D01*
X0393269Y0026291D01*
X0393246Y0026165D01*
X0393218Y0026040D01*
X0393187Y0025916D01*
X0393152Y0025793D01*
X0393113Y0025671D01*
X0393070Y0025550D01*
X0393023Y0025431D01*
X0392973Y0025313D01*
X0392920Y0025197D01*
X0392862Y0025083D01*
X0392802Y0024970D01*
X0392737Y0024860D01*
X0392670Y0024751D01*
X0392599Y0024645D01*
X0392524Y0024540D01*
X0392447Y0024439D01*
X0392366Y0024339D01*
X0392283Y0024242D01*
X0392196Y0024148D01*
X0392107Y0024057D01*
X0392015Y0023968D01*
X0391920Y0023882D01*
X0391822Y0023799D01*
X0391722Y0023719D01*
X0391620Y0023643D01*
X0391515Y0023569D01*
X0391408Y0023499D01*
X0391299Y0023432D01*
X0391188Y0023369D01*
X0391075Y0023309D01*
X0390960Y0023253D01*
X0390843Y0023200D01*
X0390725Y0023151D01*
X0390606Y0023105D01*
X0390485Y0023063D01*
X0390362Y0023025D01*
X0390239Y0022991D01*
X0390115Y0022961D01*
X0389990Y0022934D01*
X0389864Y0022911D01*
X0389737Y0022893D01*
X0389610Y0022878D01*
X0389483Y0022867D01*
X0389355Y0022860D01*
X0389227Y0022857D01*
X0389099Y0022858D01*
X0388971Y0022863D01*
X0388844Y0022872D01*
X0388716Y0022885D01*
X0388589Y0022902D01*
X0388463Y0022922D01*
X0388338Y0022947D01*
X0388213Y0022975D01*
X0388089Y0023008D01*
X0387966Y0023044D01*
X0387845Y0023084D01*
X0387724Y0023127D01*
X0387606Y0023175D01*
X0387488Y0023226D01*
X0387373Y0023280D01*
X0387259Y0023339D01*
X0387146Y0023400D01*
X0387036Y0023465D01*
X0386928Y0023534D01*
X0386822Y0023606D01*
X0386719Y0023681D01*
X0386617Y0023759D01*
X0386519Y0023840D01*
X0386422Y0023925D01*
X0386329Y0024012D01*
X0386238Y0024102D01*
X0386150Y0024195D01*
X0386065Y0024290D01*
X0385983Y0024389D01*
X0385904Y0024489D01*
X0385828Y0024592D01*
X0385755Y0024698D01*
X0385686Y0024805D01*
X0385620Y0024915D01*
X0385558Y0025026D01*
X0385499Y0025140D01*
X0385443Y0025255D01*
X0385391Y0025372D01*
X0385343Y0025491D01*
X0385298Y0025611D01*
X0385257Y0025732D01*
X0385220Y0025854D01*
X0385187Y0025978D01*
X0385158Y0026102D01*
X0385132Y0026228D01*
X0385110Y0026354D01*
X0385093Y0026480D01*
X0385079Y0026608D01*
X0385069Y0026735D01*
X0385063Y0026863D01*
X0385061Y0026991D01*
X0126793Y0033683D02*
X0126795Y0033834D01*
X0126801Y0033984D01*
X0126811Y0034135D01*
X0126825Y0034285D01*
X0126843Y0034434D01*
X0126864Y0034584D01*
X0126890Y0034732D01*
X0126920Y0034880D01*
X0126953Y0035027D01*
X0126991Y0035173D01*
X0127032Y0035318D01*
X0127077Y0035462D01*
X0127126Y0035604D01*
X0127179Y0035745D01*
X0127235Y0035885D01*
X0127295Y0036023D01*
X0127358Y0036160D01*
X0127426Y0036295D01*
X0127496Y0036428D01*
X0127570Y0036559D01*
X0127648Y0036688D01*
X0127729Y0036815D01*
X0127813Y0036940D01*
X0127901Y0037063D01*
X0127992Y0037183D01*
X0128086Y0037301D01*
X0128183Y0037416D01*
X0128283Y0037529D01*
X0128386Y0037639D01*
X0128492Y0037746D01*
X0128601Y0037851D01*
X0128712Y0037952D01*
X0128826Y0038051D01*
X0128942Y0038146D01*
X0129062Y0038239D01*
X0129183Y0038328D01*
X0129307Y0038414D01*
X0129433Y0038497D01*
X0129561Y0038576D01*
X0129691Y0038652D01*
X0129823Y0038725D01*
X0129957Y0038793D01*
X0130093Y0038859D01*
X0130231Y0038921D01*
X0130370Y0038979D01*
X0130510Y0039033D01*
X0130652Y0039084D01*
X0130795Y0039131D01*
X0130940Y0039174D01*
X0131085Y0039213D01*
X0131232Y0039249D01*
X0131379Y0039280D01*
X0131527Y0039308D01*
X0131676Y0039332D01*
X0131825Y0039352D01*
X0131975Y0039368D01*
X0132125Y0039380D01*
X0132276Y0039388D01*
X0132427Y0039392D01*
X0132577Y0039392D01*
X0132728Y0039388D01*
X0132879Y0039380D01*
X0133029Y0039368D01*
X0133179Y0039352D01*
X0133328Y0039332D01*
X0133477Y0039308D01*
X0133625Y0039280D01*
X0133772Y0039249D01*
X0133919Y0039213D01*
X0134064Y0039174D01*
X0134209Y0039131D01*
X0134352Y0039084D01*
X0134494Y0039033D01*
X0134634Y0038979D01*
X0134773Y0038921D01*
X0134911Y0038859D01*
X0135047Y0038793D01*
X0135181Y0038725D01*
X0135313Y0038652D01*
X0135443Y0038576D01*
X0135571Y0038497D01*
X0135697Y0038414D01*
X0135821Y0038328D01*
X0135942Y0038239D01*
X0136062Y0038146D01*
X0136178Y0038051D01*
X0136292Y0037952D01*
X0136403Y0037851D01*
X0136512Y0037746D01*
X0136618Y0037639D01*
X0136721Y0037529D01*
X0136821Y0037416D01*
X0136918Y0037301D01*
X0137012Y0037183D01*
X0137103Y0037063D01*
X0137191Y0036940D01*
X0137275Y0036815D01*
X0137356Y0036688D01*
X0137434Y0036559D01*
X0137508Y0036428D01*
X0137578Y0036295D01*
X0137646Y0036160D01*
X0137709Y0036023D01*
X0137769Y0035885D01*
X0137825Y0035745D01*
X0137878Y0035604D01*
X0137927Y0035462D01*
X0137972Y0035318D01*
X0138013Y0035173D01*
X0138051Y0035027D01*
X0138084Y0034880D01*
X0138114Y0034732D01*
X0138140Y0034584D01*
X0138161Y0034434D01*
X0138179Y0034285D01*
X0138193Y0034135D01*
X0138203Y0033984D01*
X0138209Y0033834D01*
X0138211Y0033683D01*
X0138209Y0033532D01*
X0138203Y0033382D01*
X0138193Y0033231D01*
X0138179Y0033081D01*
X0138161Y0032932D01*
X0138140Y0032782D01*
X0138114Y0032634D01*
X0138084Y0032486D01*
X0138051Y0032339D01*
X0138013Y0032193D01*
X0137972Y0032048D01*
X0137927Y0031904D01*
X0137878Y0031762D01*
X0137825Y0031621D01*
X0137769Y0031481D01*
X0137709Y0031343D01*
X0137646Y0031206D01*
X0137578Y0031071D01*
X0137508Y0030938D01*
X0137434Y0030807D01*
X0137356Y0030678D01*
X0137275Y0030551D01*
X0137191Y0030426D01*
X0137103Y0030303D01*
X0137012Y0030183D01*
X0136918Y0030065D01*
X0136821Y0029950D01*
X0136721Y0029837D01*
X0136618Y0029727D01*
X0136512Y0029620D01*
X0136403Y0029515D01*
X0136292Y0029414D01*
X0136178Y0029315D01*
X0136062Y0029220D01*
X0135942Y0029127D01*
X0135821Y0029038D01*
X0135697Y0028952D01*
X0135571Y0028869D01*
X0135443Y0028790D01*
X0135313Y0028714D01*
X0135181Y0028641D01*
X0135047Y0028573D01*
X0134911Y0028507D01*
X0134773Y0028445D01*
X0134634Y0028387D01*
X0134494Y0028333D01*
X0134352Y0028282D01*
X0134209Y0028235D01*
X0134064Y0028192D01*
X0133919Y0028153D01*
X0133772Y0028117D01*
X0133625Y0028086D01*
X0133477Y0028058D01*
X0133328Y0028034D01*
X0133179Y0028014D01*
X0133029Y0027998D01*
X0132879Y0027986D01*
X0132728Y0027978D01*
X0132577Y0027974D01*
X0132427Y0027974D01*
X0132276Y0027978D01*
X0132125Y0027986D01*
X0131975Y0027998D01*
X0131825Y0028014D01*
X0131676Y0028034D01*
X0131527Y0028058D01*
X0131379Y0028086D01*
X0131232Y0028117D01*
X0131085Y0028153D01*
X0130940Y0028192D01*
X0130795Y0028235D01*
X0130652Y0028282D01*
X0130510Y0028333D01*
X0130370Y0028387D01*
X0130231Y0028445D01*
X0130093Y0028507D01*
X0129957Y0028573D01*
X0129823Y0028641D01*
X0129691Y0028714D01*
X0129561Y0028790D01*
X0129433Y0028869D01*
X0129307Y0028952D01*
X0129183Y0029038D01*
X0129062Y0029127D01*
X0128942Y0029220D01*
X0128826Y0029315D01*
X0128712Y0029414D01*
X0128601Y0029515D01*
X0128492Y0029620D01*
X0128386Y0029727D01*
X0128283Y0029837D01*
X0128183Y0029950D01*
X0128086Y0030065D01*
X0127992Y0030183D01*
X0127901Y0030303D01*
X0127813Y0030426D01*
X0127729Y0030551D01*
X0127648Y0030678D01*
X0127570Y0030807D01*
X0127496Y0030938D01*
X0127426Y0031071D01*
X0127358Y0031206D01*
X0127295Y0031343D01*
X0127235Y0031481D01*
X0127179Y0031621D01*
X0127126Y0031762D01*
X0127077Y0031904D01*
X0127032Y0032048D01*
X0126991Y0032193D01*
X0126953Y0032339D01*
X0126920Y0032486D01*
X0126890Y0032634D01*
X0126864Y0032782D01*
X0126843Y0032932D01*
X0126825Y0033081D01*
X0126811Y0033231D01*
X0126801Y0033382D01*
X0126795Y0033532D01*
X0126793Y0033683D01*
M02*
