G75*
%MOIN*%
%OFA0B0*%
%FSLAX25Y25*%
%IPPOS*%
%LPD*%
%AMOC8*
5,1,8,0,0,1.08239X$1,22.5*
%
%ADD10C,0.00000*%
%ADD11C,0.15417*%
%ADD12C,0.05750*%
%ADD13C,0.11100*%
%ADD14C,0.06000*%
%ADD15C,0.11811*%
%ADD16C,0.05000*%
%ADD17C,0.05906*%
%ADD18C,0.10000*%
%ADD19C,0.00800*%
%ADD20C,0.01600*%
%ADD21C,0.02000*%
%ADD22C,0.03569*%
%ADD23C,0.01000*%
%ADD24C,0.00600*%
D10*
X0001000Y0002000D02*
X0001000Y0789402D01*
X0985252Y0789402D01*
X0985252Y0002000D01*
X0001000Y0002000D01*
D11*
X0140764Y0043339D03*
X0451787Y0043339D03*
X0534465Y0043339D03*
X0845488Y0043339D03*
X0845488Y0354362D03*
X0845488Y0437039D03*
X0534465Y0437039D03*
X0451787Y0437039D03*
X0451787Y0354362D03*
X0534465Y0354362D03*
X0140764Y0354362D03*
X0140764Y0437039D03*
X0140764Y0748063D03*
X0451787Y0748063D03*
X0534465Y0748063D03*
X0845488Y0748063D03*
D12*
X0814976Y0749063D03*
X0814976Y0739063D03*
X0814976Y0729063D03*
X0804976Y0728063D03*
X0794976Y0728063D03*
X0784976Y0728063D03*
X0774976Y0728063D03*
X0764976Y0728063D03*
X0754976Y0728063D03*
X0744976Y0728063D03*
X0734976Y0728063D03*
X0724976Y0728063D03*
X0714976Y0728063D03*
X0704976Y0728063D03*
X0694976Y0728063D03*
X0684976Y0728063D03*
X0674976Y0728063D03*
X0664976Y0728063D03*
X0654976Y0728063D03*
X0644976Y0728063D03*
X0634976Y0728063D03*
X0624976Y0728063D03*
X0614976Y0728063D03*
X0604976Y0728063D03*
X0594976Y0728063D03*
X0584976Y0728063D03*
X0574976Y0728063D03*
X0574976Y0738063D03*
X0574976Y0748063D03*
X0584976Y0748063D03*
X0584976Y0738063D03*
X0594976Y0738063D03*
X0594976Y0748063D03*
X0604976Y0748063D03*
X0604976Y0738063D03*
X0614976Y0738063D03*
X0614976Y0748063D03*
X0624976Y0748063D03*
X0624976Y0738063D03*
X0634976Y0738063D03*
X0634976Y0748063D03*
X0644976Y0748063D03*
X0644976Y0738063D03*
X0654976Y0738063D03*
X0654976Y0748063D03*
X0664976Y0748063D03*
X0664976Y0738063D03*
X0674976Y0738063D03*
X0674976Y0748063D03*
X0684976Y0748063D03*
X0684976Y0738063D03*
X0694976Y0738063D03*
X0694976Y0748063D03*
X0704976Y0748063D03*
X0704976Y0738063D03*
X0714976Y0738063D03*
X0714976Y0748063D03*
X0724976Y0748063D03*
X0724976Y0738063D03*
X0734976Y0738063D03*
X0734976Y0748063D03*
X0744976Y0748063D03*
X0744976Y0738063D03*
X0754976Y0738063D03*
X0754976Y0748063D03*
X0764976Y0748063D03*
X0764976Y0738063D03*
X0774976Y0738063D03*
X0774976Y0748063D03*
X0784976Y0748063D03*
X0784976Y0738063D03*
X0794976Y0738063D03*
X0794976Y0748063D03*
X0804976Y0748063D03*
X0804976Y0738063D03*
X0804976Y0718063D03*
X0794976Y0718063D03*
X0784976Y0718063D03*
X0774976Y0718063D03*
X0764976Y0718063D03*
X0754976Y0718063D03*
X0744976Y0718063D03*
X0734976Y0718063D03*
X0724976Y0718063D03*
X0714976Y0718063D03*
X0704976Y0718063D03*
X0694976Y0718063D03*
X0684976Y0718063D03*
X0674976Y0718063D03*
X0664976Y0718063D03*
X0654976Y0718063D03*
X0644976Y0718063D03*
X0634976Y0718063D03*
X0624976Y0718063D03*
X0614976Y0718063D03*
X0604976Y0718063D03*
X0594976Y0718063D03*
X0584976Y0718063D03*
X0574976Y0718063D03*
X0564976Y0719063D03*
X0564976Y0729063D03*
X0564976Y0739063D03*
X0564976Y0749063D03*
X0421276Y0749063D03*
X0421276Y0739063D03*
X0421276Y0729063D03*
X0411276Y0728063D03*
X0411276Y0738063D03*
X0411276Y0748063D03*
X0401276Y0748063D03*
X0401276Y0738063D03*
X0401276Y0728063D03*
X0391276Y0728063D03*
X0391276Y0738063D03*
X0391276Y0748063D03*
X0381276Y0748063D03*
X0381276Y0738063D03*
X0381276Y0728063D03*
X0371276Y0728063D03*
X0371276Y0738063D03*
X0371276Y0748063D03*
X0361276Y0748063D03*
X0361276Y0738063D03*
X0361276Y0728063D03*
X0351276Y0728063D03*
X0351276Y0738063D03*
X0351276Y0748063D03*
X0341276Y0748063D03*
X0341276Y0738063D03*
X0341276Y0728063D03*
X0331276Y0728063D03*
X0331276Y0738063D03*
X0331276Y0748063D03*
X0321276Y0748063D03*
X0321276Y0738063D03*
X0321276Y0728063D03*
X0311276Y0728063D03*
X0311276Y0738063D03*
X0311276Y0748063D03*
X0301276Y0748063D03*
X0301276Y0738063D03*
X0301276Y0728063D03*
X0291276Y0728063D03*
X0291276Y0738063D03*
X0291276Y0748063D03*
X0281276Y0748063D03*
X0281276Y0738063D03*
X0281276Y0728063D03*
X0271276Y0728063D03*
X0271276Y0738063D03*
X0271276Y0748063D03*
X0261276Y0748063D03*
X0261276Y0738063D03*
X0261276Y0728063D03*
X0251276Y0728063D03*
X0251276Y0738063D03*
X0251276Y0748063D03*
X0241276Y0748063D03*
X0241276Y0738063D03*
X0241276Y0728063D03*
X0231276Y0728063D03*
X0231276Y0738063D03*
X0231276Y0748063D03*
X0221276Y0748063D03*
X0221276Y0738063D03*
X0221276Y0728063D03*
X0211276Y0728063D03*
X0211276Y0738063D03*
X0211276Y0748063D03*
X0201276Y0748063D03*
X0201276Y0738063D03*
X0201276Y0728063D03*
X0191276Y0728063D03*
X0191276Y0738063D03*
X0191276Y0748063D03*
X0181276Y0748063D03*
X0181276Y0738063D03*
X0181276Y0728063D03*
X0171276Y0729063D03*
X0171276Y0739063D03*
X0171276Y0749063D03*
X0171276Y0719063D03*
X0181276Y0718063D03*
X0191276Y0718063D03*
X0201276Y0718063D03*
X0211276Y0718063D03*
X0221276Y0718063D03*
X0231276Y0718063D03*
X0241276Y0718063D03*
X0251276Y0718063D03*
X0261276Y0718063D03*
X0271276Y0718063D03*
X0281276Y0718063D03*
X0291276Y0718063D03*
X0301276Y0718063D03*
X0311276Y0718063D03*
X0321276Y0718063D03*
X0331276Y0718063D03*
X0341276Y0718063D03*
X0351276Y0718063D03*
X0361276Y0718063D03*
X0371276Y0718063D03*
X0381276Y0718063D03*
X0391276Y0718063D03*
X0401276Y0718063D03*
X0411276Y0718063D03*
X0421276Y0719063D03*
X0814976Y0719063D03*
X0814976Y0355362D03*
X0814976Y0345362D03*
X0814976Y0335362D03*
X0814976Y0325362D03*
X0804976Y0324362D03*
X0794976Y0324362D03*
X0784976Y0324362D03*
X0774976Y0324362D03*
X0764976Y0324362D03*
X0754976Y0324362D03*
X0744976Y0324362D03*
X0734976Y0324362D03*
X0724976Y0324362D03*
X0714976Y0324362D03*
X0704976Y0324362D03*
X0694976Y0324362D03*
X0684976Y0324362D03*
X0674976Y0324362D03*
X0664976Y0324362D03*
X0654976Y0324362D03*
X0644976Y0324362D03*
X0634976Y0324362D03*
X0624976Y0324362D03*
X0614976Y0324362D03*
X0604976Y0324362D03*
X0594976Y0324362D03*
X0584976Y0324362D03*
X0574976Y0324362D03*
X0574976Y0334362D03*
X0574976Y0344362D03*
X0574976Y0354362D03*
X0584976Y0354362D03*
X0584976Y0344362D03*
X0584976Y0334362D03*
X0594976Y0334362D03*
X0594976Y0344362D03*
X0594976Y0354362D03*
X0604976Y0354362D03*
X0604976Y0344362D03*
X0604976Y0334362D03*
X0614976Y0334362D03*
X0614976Y0344362D03*
X0614976Y0354362D03*
X0624976Y0354362D03*
X0624976Y0344362D03*
X0624976Y0334362D03*
X0634976Y0334362D03*
X0634976Y0344362D03*
X0634976Y0354362D03*
X0644976Y0354362D03*
X0644976Y0344362D03*
X0644976Y0334362D03*
X0654976Y0334362D03*
X0654976Y0344362D03*
X0654976Y0354362D03*
X0664976Y0354362D03*
X0664976Y0344362D03*
X0664976Y0334362D03*
X0674976Y0334362D03*
X0674976Y0344362D03*
X0674976Y0354362D03*
X0684976Y0354362D03*
X0684976Y0344362D03*
X0684976Y0334362D03*
X0694976Y0334362D03*
X0694976Y0344362D03*
X0694976Y0354362D03*
X0704976Y0354362D03*
X0704976Y0344362D03*
X0704976Y0334362D03*
X0714976Y0334362D03*
X0714976Y0344362D03*
X0714976Y0354362D03*
X0724976Y0354362D03*
X0724976Y0344362D03*
X0724976Y0334362D03*
X0734976Y0334362D03*
X0734976Y0344362D03*
X0734976Y0354362D03*
X0744976Y0354362D03*
X0744976Y0344362D03*
X0744976Y0334362D03*
X0754976Y0334362D03*
X0754976Y0344362D03*
X0754976Y0354362D03*
X0764976Y0354362D03*
X0764976Y0344362D03*
X0764976Y0334362D03*
X0774976Y0334362D03*
X0774976Y0344362D03*
X0774976Y0354362D03*
X0784976Y0354362D03*
X0784976Y0344362D03*
X0784976Y0334362D03*
X0794976Y0334362D03*
X0794976Y0344362D03*
X0794976Y0354362D03*
X0804976Y0354362D03*
X0804976Y0344362D03*
X0804976Y0334362D03*
X0564976Y0335362D03*
X0564976Y0325362D03*
X0564976Y0345362D03*
X0564976Y0355362D03*
X0421276Y0355362D03*
X0421276Y0345362D03*
X0421276Y0335362D03*
X0421276Y0325362D03*
X0411276Y0324362D03*
X0411276Y0334362D03*
X0411276Y0344362D03*
X0411276Y0354362D03*
X0401276Y0354362D03*
X0401276Y0344362D03*
X0401276Y0334362D03*
X0401276Y0324362D03*
X0391276Y0324362D03*
X0391276Y0334362D03*
X0391276Y0344362D03*
X0391276Y0354362D03*
X0381276Y0354362D03*
X0381276Y0344362D03*
X0381276Y0334362D03*
X0381276Y0324362D03*
X0371276Y0324362D03*
X0371276Y0334362D03*
X0371276Y0344362D03*
X0371276Y0354362D03*
X0361276Y0354362D03*
X0361276Y0344362D03*
X0361276Y0334362D03*
X0361276Y0324362D03*
X0351276Y0324362D03*
X0351276Y0334362D03*
X0351276Y0344362D03*
X0351276Y0354362D03*
X0341276Y0354362D03*
X0341276Y0344362D03*
X0341276Y0334362D03*
X0341276Y0324362D03*
X0331276Y0324362D03*
X0331276Y0334362D03*
X0331276Y0344362D03*
X0331276Y0354362D03*
X0321276Y0354362D03*
X0321276Y0344362D03*
X0321276Y0334362D03*
X0321276Y0324362D03*
X0311276Y0324362D03*
X0311276Y0334362D03*
X0311276Y0344362D03*
X0311276Y0354362D03*
X0301276Y0354362D03*
X0301276Y0344362D03*
X0301276Y0334362D03*
X0301276Y0324362D03*
X0291276Y0324362D03*
X0291276Y0334362D03*
X0291276Y0344362D03*
X0291276Y0354362D03*
X0281276Y0354362D03*
X0281276Y0344362D03*
X0281276Y0334362D03*
X0281276Y0324362D03*
X0271276Y0324362D03*
X0271276Y0334362D03*
X0271276Y0344362D03*
X0271276Y0354362D03*
X0261276Y0354362D03*
X0261276Y0344362D03*
X0261276Y0334362D03*
X0261276Y0324362D03*
X0251276Y0324362D03*
X0251276Y0334362D03*
X0251276Y0344362D03*
X0251276Y0354362D03*
X0241276Y0354362D03*
X0241276Y0344362D03*
X0241276Y0334362D03*
X0241276Y0324362D03*
X0231276Y0324362D03*
X0231276Y0334362D03*
X0231276Y0344362D03*
X0231276Y0354362D03*
X0221276Y0354362D03*
X0221276Y0344362D03*
X0221276Y0334362D03*
X0221276Y0324362D03*
X0211276Y0324362D03*
X0211276Y0334362D03*
X0211276Y0344362D03*
X0211276Y0354362D03*
X0201276Y0354362D03*
X0201276Y0344362D03*
X0201276Y0334362D03*
X0201276Y0324362D03*
X0191276Y0324362D03*
X0191276Y0334362D03*
X0191276Y0344362D03*
X0191276Y0354362D03*
X0181276Y0354362D03*
X0181276Y0344362D03*
X0181276Y0334362D03*
X0181276Y0324362D03*
X0171276Y0325362D03*
X0171276Y0335362D03*
X0171276Y0345362D03*
X0171276Y0355362D03*
D13*
X0089590Y0614184D03*
X0069890Y0614184D03*
X0069890Y0641784D03*
X0089590Y0641784D03*
X0089590Y0704735D03*
X0069890Y0704735D03*
X0069890Y0732335D03*
X0089590Y0732335D03*
X0896662Y0732335D03*
X0916362Y0732335D03*
X0916362Y0704735D03*
X0896662Y0704735D03*
X0896662Y0641784D03*
X0916362Y0641784D03*
X0916362Y0614184D03*
X0896662Y0614184D03*
D14*
X0945382Y0324835D03*
X0946382Y0314835D03*
X0945382Y0304835D03*
X0946382Y0294835D03*
X0945382Y0284835D03*
X0957193Y0294835D03*
X0958193Y0304835D03*
X0957193Y0314835D03*
X0958193Y0324835D03*
X0969004Y0324835D03*
X0970004Y0314835D03*
X0969004Y0304835D03*
X0970004Y0294835D03*
X0969004Y0284835D03*
X0958193Y0284835D03*
X0957193Y0274835D03*
X0958193Y0264835D03*
X0957193Y0254835D03*
X0946382Y0254835D03*
X0945382Y0264835D03*
X0946382Y0274835D03*
X0970004Y0274835D03*
X0969004Y0264835D03*
X0970004Y0254835D03*
X0969004Y0244835D03*
X0970004Y0234835D03*
X0969004Y0224835D03*
X0970004Y0214835D03*
X0958193Y0224835D03*
X0957193Y0234835D03*
X0958193Y0244835D03*
X0945382Y0244835D03*
X0946382Y0234835D03*
X0945382Y0224835D03*
X0946382Y0214835D03*
X0957193Y0214835D03*
X0958193Y0204835D03*
X0957193Y0194835D03*
X0958193Y0184835D03*
X0957193Y0174835D03*
X0946382Y0174835D03*
X0945382Y0184835D03*
X0946382Y0194835D03*
X0945382Y0204835D03*
X0969004Y0204835D03*
X0970004Y0194835D03*
X0969004Y0184835D03*
X0970004Y0174835D03*
X0969004Y0164835D03*
X0970004Y0154835D03*
X0969004Y0144835D03*
X0970004Y0134835D03*
X0958193Y0144835D03*
X0957193Y0154835D03*
X0958193Y0164835D03*
X0945382Y0164835D03*
X0946382Y0154835D03*
X0945382Y0144835D03*
X0946382Y0134835D03*
X0957193Y0134835D03*
X0040870Y0134835D03*
X0039870Y0144835D03*
X0040870Y0154835D03*
X0039870Y0164835D03*
X0040870Y0174835D03*
X0039870Y0184835D03*
X0040870Y0194835D03*
X0039870Y0204835D03*
X0040870Y0214835D03*
X0039870Y0224835D03*
X0040870Y0234835D03*
X0039870Y0244835D03*
X0040870Y0254835D03*
X0039870Y0264835D03*
X0040870Y0274835D03*
X0039870Y0284835D03*
X0040870Y0294835D03*
X0039870Y0304835D03*
X0040870Y0314835D03*
X0039870Y0324835D03*
X0029059Y0324835D03*
X0016248Y0324835D03*
X0017248Y0314835D03*
X0016248Y0304835D03*
X0017248Y0294835D03*
X0016248Y0284835D03*
X0029059Y0284835D03*
X0028059Y0294835D03*
X0029059Y0304835D03*
X0028059Y0314835D03*
X0028059Y0274835D03*
X0029059Y0264835D03*
X0028059Y0254835D03*
X0017248Y0254835D03*
X0016248Y0264835D03*
X0017248Y0274835D03*
X0016248Y0244835D03*
X0017248Y0234835D03*
X0016248Y0224835D03*
X0017248Y0214835D03*
X0028059Y0214835D03*
X0029059Y0224835D03*
X0028059Y0234835D03*
X0029059Y0244835D03*
X0029059Y0204835D03*
X0028059Y0194835D03*
X0029059Y0184835D03*
X0028059Y0174835D03*
X0017248Y0174835D03*
X0016248Y0184835D03*
X0017248Y0194835D03*
X0016248Y0204835D03*
X0016248Y0164835D03*
X0017248Y0154835D03*
X0016248Y0144835D03*
X0017248Y0134835D03*
X0028059Y0134835D03*
X0029059Y0144835D03*
X0028059Y0154835D03*
X0029059Y0164835D03*
D15*
X0237220Y0600425D03*
X0221472Y0616173D03*
X0221472Y0663417D03*
X0237220Y0671291D03*
X0552181Y0616173D03*
X0611236Y0616173D03*
X0638795Y0600425D03*
X0638795Y0631921D03*
D16*
X0638795Y0663417D01*
X0646669Y0639795D02*
X0650606Y0639795D01*
X0650606Y0588614D01*
X0646669Y0588614D01*
X0646669Y0545307D01*
X0556118Y0545307D01*
X0638795Y0600425D02*
X0638795Y0631921D01*
X0249031Y0659480D02*
X0249031Y0600425D01*
X0237220Y0600425D02*
X0237220Y0671291D01*
X0249031Y0663417D02*
X0249031Y0659480D01*
X0249031Y0663417D01*
D17*
X0249031Y0659480D03*
X0249031Y0600425D03*
X0556118Y0545307D03*
X0646669Y0588614D03*
X0646669Y0639795D03*
D18*
X0615173Y0616173D02*
X0611236Y0616173D01*
X0552181Y0616173D01*
X0221472Y0616173D02*
X0221472Y0663417D01*
D19*
X0281276Y0718063D02*
X0281276Y0360125D01*
X0277201Y0356050D01*
X0277201Y0332674D01*
X0281276Y0328599D01*
X0281276Y0324362D01*
X0287201Y0329973D02*
X0292339Y0324835D01*
X0287201Y0329973D02*
X0287201Y0356050D01*
X0291276Y0360125D01*
X0291276Y0718063D01*
X0301276Y0718063D02*
X0301276Y0360125D01*
X0297201Y0356050D01*
X0297201Y0332674D01*
X0301276Y0328599D01*
X0301276Y0324362D01*
X0311276Y0324362D02*
X0311276Y0328599D01*
X0307201Y0332674D01*
X0307201Y0356050D01*
X0311276Y0360125D01*
X0311276Y0718063D01*
X0305351Y0719751D02*
X0305351Y0352674D01*
X0301276Y0348599D01*
X0301276Y0344362D01*
X0291276Y0354362D02*
X0291276Y0357862D01*
X0295351Y0361937D01*
X0295351Y0739751D01*
X0291276Y0743826D01*
X0291276Y0748063D01*
X0301276Y0748063D01*
X0301276Y0738063D02*
X0301276Y0733826D01*
X0297201Y0729751D01*
X0297201Y0726375D01*
X0301438Y0722138D01*
X0302964Y0722138D01*
X0305351Y0719751D01*
X0674976Y0718063D02*
X0674976Y0360125D01*
X0670901Y0356050D01*
X0670901Y0332674D01*
X0674228Y0329347D01*
X0674228Y0320898D01*
X0684976Y0324362D02*
X0684976Y0328599D01*
X0680901Y0332674D01*
X0680901Y0356050D01*
X0684976Y0360125D01*
X0684976Y0718063D01*
X0694976Y0718063D02*
X0694976Y0360125D01*
X0690901Y0356050D01*
X0690901Y0332674D01*
X0694976Y0328599D01*
X0694976Y0324362D01*
X0704976Y0324362D02*
X0704976Y0328599D01*
X0700901Y0332674D01*
X0700901Y0356050D01*
X0704976Y0360125D01*
X0704976Y0718063D01*
X0699051Y0729751D02*
X0699051Y0352674D01*
X0694976Y0348599D01*
X0694976Y0344362D01*
X0684976Y0354362D02*
X0684976Y0357862D01*
X0689051Y0361937D01*
X0689051Y0739751D01*
X0684976Y0743826D01*
X0684976Y0748063D01*
X0694976Y0738063D02*
X0694976Y0733826D01*
X0699051Y0729751D01*
D20*
X0734976Y0728063D02*
X0734976Y0360691D01*
X0730501Y0356216D01*
X0730501Y0342509D01*
X0734976Y0338034D01*
X0734976Y0334362D01*
X0750501Y0342509D02*
X0754976Y0338034D01*
X0754976Y0324362D01*
X0750501Y0342509D02*
X0750501Y0356216D01*
X0754976Y0360691D01*
X0754976Y0728063D01*
X0774976Y0728063D02*
X0774976Y0360691D01*
X0770501Y0356216D01*
X0770501Y0342509D01*
X0774976Y0338034D01*
X0774976Y0324362D01*
X0385751Y0336953D02*
X0385751Y0207801D01*
X0386827Y0206724D01*
X0386827Y0204835D01*
X0381276Y0214598D02*
X0381276Y0324362D01*
X0381276Y0338034D01*
X0376801Y0342509D01*
X0376801Y0356216D01*
X0381276Y0360691D01*
X0381276Y0728063D01*
X0361276Y0728063D02*
X0361276Y0360691D01*
X0356801Y0356216D01*
X0356801Y0342509D01*
X0361276Y0338034D01*
X0361276Y0324362D01*
X0361276Y0234283D01*
X0365751Y0227801D02*
X0365751Y0336953D01*
X0361276Y0341428D01*
X0361276Y0354362D01*
X0381276Y0354362D02*
X0381276Y0344362D01*
X0381276Y0341428D01*
X0385751Y0336953D01*
X0345751Y0336953D02*
X0345751Y0247801D01*
X0347457Y0246094D01*
X0347457Y0244835D01*
X0341276Y0254835D02*
X0341276Y0324362D01*
X0341276Y0338034D01*
X0336801Y0342509D01*
X0336801Y0356216D01*
X0341276Y0360691D01*
X0341276Y0728063D01*
X0341276Y0344362D02*
X0341276Y0341428D01*
X0345751Y0336953D01*
X0312024Y0324362D02*
X0312024Y0264835D01*
X0301276Y0273654D02*
X0301276Y0324362D01*
X0311276Y0324362D02*
X0312024Y0324362D01*
X0291276Y0324362D02*
X0291276Y0284835D01*
X0281276Y0294835D02*
X0281276Y0324362D01*
X0365751Y0227801D02*
X0367142Y0226409D01*
X0367142Y0224835D01*
X0040870Y0254835D02*
X0017248Y0254835D01*
X0016248Y0264835D02*
X0039870Y0264835D01*
X0040870Y0273654D02*
X0040870Y0274835D01*
X0016748Y0274835D01*
X0016748Y0273654D01*
X0040870Y0273654D01*
X0040870Y0274835D01*
X0039870Y0284835D02*
X0016248Y0284835D01*
X0017248Y0294835D02*
X0040870Y0294835D01*
X0039870Y0244835D02*
X0016248Y0244835D01*
X0017248Y0234835D02*
X0017248Y0234283D01*
X0017248Y0214835D02*
X0017248Y0214598D01*
D21*
X0381276Y0214598D01*
X0367142Y0224835D02*
X0016248Y0224835D01*
X0017248Y0234283D02*
X0361276Y0234283D01*
X0347457Y0244835D02*
X0039870Y0244835D01*
X0040870Y0254835D02*
X0341276Y0254835D01*
X0312024Y0264835D02*
X0039870Y0264835D01*
X0040870Y0273654D02*
X0301276Y0273654D01*
X0291276Y0284835D02*
X0039870Y0284835D01*
X0040870Y0294835D02*
X0281276Y0294835D01*
X0386827Y0204835D02*
X0016248Y0204835D01*
X0890764Y0204835D02*
X0890764Y0320898D01*
X0894701Y0324835D02*
X0894701Y0214598D01*
X0969504Y0214598D01*
X0969004Y0222472D02*
X0898638Y0222472D01*
X0898638Y0328772D01*
X0902575Y0332709D02*
X0902575Y0234283D01*
X0970004Y0234283D01*
X0973441Y0246094D02*
X0906512Y0246094D01*
X0906512Y0336646D01*
X0910449Y0340583D02*
X0910449Y0254835D01*
X0970004Y0254835D01*
X0969504Y0265780D02*
X0914386Y0265780D01*
X0914386Y0344520D01*
X0918323Y0348457D02*
X0918323Y0273654D01*
X0918323Y0274835D02*
X0970004Y0274835D01*
X0970004Y0293339D02*
X0926197Y0293339D01*
X0926197Y0356331D01*
X0922260Y0352394D02*
X0922260Y0285465D01*
X0941945Y0285465D01*
X0945382Y0285465D01*
X0969004Y0204835D02*
X0890764Y0204835D01*
D22*
X0890764Y0320898D03*
X0894701Y0324835D03*
X0898638Y0328772D03*
X0902575Y0332709D03*
X0906512Y0336646D03*
X0910449Y0340583D03*
X0914386Y0344520D03*
X0918323Y0348457D03*
X0922260Y0352394D03*
X0926197Y0356331D03*
D23*
X0970004Y0294835D02*
X0970004Y0293339D01*
X0945382Y0285465D02*
X0945382Y0284835D01*
X0918323Y0274835D02*
X0918323Y0273654D01*
X0910449Y0254835D02*
X0910449Y0253969D01*
X0970004Y0234835D02*
X0970004Y0234283D01*
X0969004Y0224835D02*
X0969004Y0222472D01*
D24*
X0969004Y0284835D02*
X0968374Y0285465D01*
X0941945Y0285465D01*
M02*
