%
M48
M72
T01C0.01969
T02C0.03750
T03C0.03937
T04C0.04000
T05C0.07400
T06C0.07874
T07C0.11417
%
T01
X890764Y320898
X894701Y324835
X898638Y328772
X902575Y332709
X906512Y336646
X910449Y340583
X914386Y344520
X918323Y348457
X922260Y352394
X926197Y356331
T02
X814976Y355362
X814976Y345362
X814976Y335362
X814976Y325362
X804976Y324362
X794976Y324362
X784976Y324362
X774976Y324362
X764976Y324362
X754976Y324362
X744976Y324362
X734976Y324362
X724976Y324362
X714976Y324362
X704976Y324362
X694976Y324362
X684976Y324362
X674976Y324362
X664976Y324362
X654976Y324362
X644976Y324362
X634976Y324362
X624976Y324362
X614976Y324362
X604976Y324362
X594976Y324362
X584976Y324362
X574976Y324362
X574976Y334362
X574976Y344362
X574976Y354362
X584976Y354362
X584976Y344362
X584976Y334362
X594976Y334362
X594976Y344362
X594976Y354362
X604976Y354362
X604976Y344362
X604976Y334362
X614976Y334362
X614976Y344362
X614976Y354362
X624976Y354362
X624976Y344362
X624976Y334362
X634976Y334362
X634976Y344362
X634976Y354362
X644976Y354362
X644976Y344362
X644976Y334362
X654976Y334362
X654976Y344362
X654976Y354362
X664976Y354362
X664976Y344362
X664976Y334362
X674976Y334362
X674976Y344362
X674976Y354362
X684976Y354362
X684976Y344362
X684976Y334362
X694976Y334362
X694976Y344362
X694976Y354362
X704976Y354362
X704976Y344362
X704976Y334362
X714976Y334362
X714976Y344362
X714976Y354362
X724976Y354362
X724976Y344362
X724976Y334362
X734976Y334362
X734976Y344362
X734976Y354362
X744976Y354362
X744976Y344362
X744976Y334362
X754976Y334362
X754976Y344362
X754976Y354362
X764976Y354362
X764976Y344362
X764976Y334362
X774976Y334362
X774976Y344362
X774976Y354362
X784976Y354362
X784976Y344362
X784976Y334362
X794976Y334362
X794976Y344362
X794976Y354362
X804976Y354362
X804976Y344362
X804976Y334362
X564976Y335362
X564976Y325362
X564976Y345362
X564976Y355362
X421276Y355362
X421276Y345362
X421276Y335362
X421276Y325362
X411276Y324362
X411276Y334362
X411276Y344362
X411276Y354362
X401276Y354362
X401276Y344362
X401276Y334362
X401276Y324362
X391276Y324362
X391276Y334362
X391276Y344362
X391276Y354362
X381276Y354362
X381276Y344362
X381276Y334362
X381276Y324362
X371276Y324362
X371276Y334362
X371276Y344362
X371276Y354362
X361276Y354362
X361276Y344362
X361276Y334362
X361276Y324362
X351276Y324362
X351276Y334362
X351276Y344362
X351276Y354362
X341276Y354362
X341276Y344362
X341276Y334362
X341276Y324362
X331276Y324362
X331276Y334362
X331276Y344362
X331276Y354362
X321276Y354362
X321276Y344362
X321276Y334362
X321276Y324362
X311276Y324362
X311276Y334362
X311276Y344362
X311276Y354362
X301276Y354362
X301276Y344362
X301276Y334362
X301276Y324362
X291276Y324362
X291276Y334362
X291276Y344362
X291276Y354362
X281276Y354362
X281276Y344362
X281276Y334362
X281276Y324362
X271276Y324362
X271276Y334362
X271276Y344362
X271276Y354362
X261276Y354362
X261276Y344362
X261276Y334362
X261276Y324362
X251276Y324362
X251276Y334362
X251276Y344362
X251276Y354362
X241276Y354362
X241276Y344362
X241276Y334362
X241276Y324362
X231276Y324362
X231276Y334362
X231276Y344362
X231276Y354362
X221276Y354362
X221276Y344362
X221276Y334362
X221276Y324362
X211276Y324362
X211276Y334362
X211276Y344362
X211276Y354362
X201276Y354362
X201276Y344362
X201276Y334362
X201276Y324362
X191276Y324362
X191276Y334362
X191276Y344362
X191276Y354362
X181276Y354362
X181276Y344362
X181276Y334362
X181276Y324362
X171276Y325362
X171276Y335362
X171276Y345362
X171276Y355362
X181276Y718063
X191276Y718063
X201276Y718063
X211276Y718063
X221276Y718063
X231276Y718063
X241276Y718063
X251276Y718063
X261276Y718063
X271276Y718063
X281276Y718063
X291276Y718063
X301276Y718063
X311276Y718063
X321276Y718063
X331276Y718063
X341276Y718063
X351276Y718063
X361276Y718063
X371276Y718063
X381276Y718063
X391276Y718063
X401276Y718063
X411276Y718063
X421276Y719063
X421276Y729063
X421276Y739063
X421276Y749063
X411276Y748063
X411276Y738063
X411276Y728063
X401276Y728063
X401276Y738063
X401276Y748063
X391276Y748063
X391276Y738063
X391276Y728063
X381276Y728063
X381276Y738063
X381276Y748063
X371276Y748063
X371276Y738063
X371276Y728063
X361276Y728063
X361276Y738063
X361276Y748063
X351276Y748063
X351276Y738063
X351276Y728063
X341276Y728063
X341276Y738063
X341276Y748063
X331276Y748063
X331276Y738063
X331276Y728063
X321276Y728063
X321276Y738063
X321276Y748063
X311276Y748063
X311276Y738063
X311276Y728063
X301276Y728063
X301276Y738063
X301276Y748063
X291276Y748063
X291276Y738063
X291276Y728063
X281276Y728063
X281276Y738063
X281276Y748063
X271276Y748063
X271276Y738063
X271276Y728063
X261276Y728063
X261276Y738063
X261276Y748063
X251276Y748063
X251276Y738063
X251276Y728063
X241276Y728063
X241276Y738063
X241276Y748063
X231276Y748063
X231276Y738063
X231276Y728063
X221276Y728063
X221276Y738063
X221276Y748063
X211276Y748063
X211276Y738063
X211276Y728063
X201276Y728063
X201276Y738063
X201276Y748063
X191276Y748063
X191276Y738063
X191276Y728063
X181276Y728063
X181276Y738063
X181276Y748063
X171276Y749063
X171276Y739063
X171276Y729063
X171276Y719063
X564976Y719063
X574976Y718063
X584976Y718063
X594976Y718063
X604976Y718063
X614976Y718063
X624976Y718063
X634976Y718063
X644976Y718063
X654976Y718063
X664976Y718063
X674976Y718063
X684976Y718063
X694976Y718063
X704976Y718063
X714976Y718063
X724976Y718063
X734976Y718063
X744976Y718063
X754976Y718063
X764976Y718063
X774976Y718063
X784976Y718063
X794976Y718063
X804976Y718063
X814976Y719063
X814976Y729063
X814976Y739063
X814976Y749063
X804976Y748063
X794976Y748063
X784976Y748063
X774976Y748063
X764976Y748063
X754976Y748063
X744976Y748063
X734976Y748063
X724976Y748063
X714976Y748063
X704976Y748063
X694976Y748063
X684976Y748063
X674976Y748063
X664976Y748063
X654976Y748063
X644976Y748063
X634976Y748063
X624976Y748063
X614976Y748063
X604976Y748063
X594976Y748063
X584976Y748063
X574976Y748063
X574976Y738063
X574976Y728063
X584976Y728063
X584976Y738063
X594976Y738063
X594976Y728063
X604976Y728063
X604976Y738063
X614976Y738063
X614976Y728063
X624976Y728063
X624976Y738063
X634976Y738063
X634976Y728063
X644976Y728063
X644976Y738063
X654976Y738063
X654976Y728063
X664976Y728063
X664976Y738063
X674976Y738063
X674976Y728063
X684976Y728063
X684976Y738063
X694976Y738063
X694976Y728063
X704976Y728063
X704976Y738063
X714976Y738063
X714976Y728063
X724976Y728063
X724976Y738063
X734976Y738063
X734976Y728063
X744976Y728063
X744976Y738063
X754976Y738063
X754976Y728063
X764976Y728063
X764976Y738063
X774976Y738063
X774976Y728063
X784976Y728063
X784976Y738063
X794976Y738063
X794976Y728063
X804976Y728063
X804976Y738063
X564976Y739063
X564976Y749063
X564976Y729063
T03
X646669Y639795
X646669Y588614
X556118Y545307
X249031Y600425
X249031Y659480
T04
X39870Y324835
X40870Y314835
X39870Y304835
X40870Y294835
X39870Y284835
X40870Y274835
X39870Y264835
X40870Y254835
X39870Y244835
X40870Y234835
X39870Y224835
X40870Y214835
X39870Y204835
X40870Y194835
X39870Y184835
X40870Y174835
X39870Y164835
X40870Y154835
X39870Y144835
X40870Y134835
X28059Y134835
X29059Y144835
X28059Y154835
X29059Y164835
X16248Y164835
X17248Y154835
X16248Y144835
X17248Y134835
X17248Y174835
X16248Y184835
X17248Y194835
X16248Y204835
X29059Y204835
X28059Y194835
X29059Y184835
X28059Y174835
X28059Y214835
X29059Y224835
X28059Y234835
X29059Y244835
X16248Y244835
X17248Y234835
X16248Y224835
X17248Y214835
X17248Y254835
X16248Y264835
X17248Y274835
X28059Y274835
X29059Y264835
X28059Y254835
X29059Y284835
X28059Y294835
X29059Y304835
X28059Y314835
X17248Y314835
X16248Y304835
X17248Y294835
X16248Y284835
X16248Y324835
X29059Y324835
X945382Y324835
X946382Y314835
X945382Y304835
X946382Y294835
X945382Y284835
X957193Y294835
X958193Y304835
X957193Y314835
X958193Y324835
X969004Y324835
X970004Y314835
X969004Y304835
X970004Y294835
X969004Y284835
X958193Y284835
X957193Y274835
X958193Y264835
X957193Y254835
X946382Y254835
X945382Y264835
X946382Y274835
X970004Y274835
X969004Y264835
X970004Y254835
X969004Y244835
X970004Y234835
X969004Y224835
X970004Y214835
X958193Y224835
X957193Y234835
X958193Y244835
X945382Y244835
X946382Y234835
X945382Y224835
X946382Y214835
X957193Y214835
X958193Y204835
X957193Y194835
X958193Y184835
X957193Y174835
X946382Y174835
X945382Y184835
X946382Y194835
X945382Y204835
X969004Y204835
X970004Y194835
X969004Y184835
X970004Y174835
X969004Y164835
X970004Y154835
X969004Y144835
X970004Y134835
X958193Y144835
X957193Y154835
X958193Y164835
X945382Y164835
X946382Y154835
X945382Y144835
X946382Y134835
X957193Y134835
T05
X916362Y614184
X896662Y614184
X896662Y641784
X916362Y641784
X916362Y704735
X896662Y704735
X896662Y732335
X916362Y732335
X89590Y732335
X69890Y732335
X69890Y704735
X89590Y704735
X89590Y641784
X69890Y641784
X69890Y614184
X89590Y614184
T06
X221472Y616173
X237220Y600425
X221472Y663417
X237220Y671291
X552181Y616173
X611236Y616173
X638795Y600425
X638795Y631921
T07
X140764Y43339
X451787Y43339
X534465Y43339
X845488Y43339
X845488Y354362
X845488Y437039
X534465Y437039
X451787Y437039
X451787Y354362
X534465Y354362
X140764Y354362
X140764Y437039
X140764Y748063
X451787Y748063
X534465Y748063
X845488Y748063
M30
