G75*
%MOIN*%
%OFA0B0*%
%FSLAX25Y25*%
%IPPOS*%
%LPD*%
%AMOC8*
5,1,8,0,0,1.08239X$1,22.5*
%
%ADD10C,0.00000*%
%ADD11C,0.29528*%
%ADD12OC8,0.07400*%
%ADD13C,0.15000*%
%ADD14R,0.07400X0.07400*%
%ADD15C,0.07400*%
%ADD16C,0.00600*%
%ADD17C,0.03937*%
%ADD18C,0.01000*%
%ADD19C,0.10000*%
%ADD20C,0.05000*%
%ADD21C,0.11811*%
%ADD22C,0.05906*%
%ADD23C,0.00800*%
%ADD24C,0.02000*%
%ADD25C,0.03569*%
D10*
X0001000Y0002000D02*
X0001000Y0789402D01*
X0985252Y0789402D01*
X0985252Y0002000D01*
X0001000Y0002000D01*
D11*
X0140764Y0043339D03*
X0451787Y0043339D03*
X0534465Y0043339D03*
X0845488Y0043339D03*
X0845488Y0354362D03*
X0845488Y0437039D03*
X0534465Y0437039D03*
X0451787Y0437039D03*
X0451787Y0354362D03*
X0534465Y0354362D03*
X0140764Y0354362D03*
X0140764Y0437039D03*
X0140764Y0748063D03*
X0451787Y0748063D03*
X0534465Y0748063D03*
X0845488Y0748063D03*
D12*
X0814976Y0749063D03*
X0814976Y0739063D03*
X0814976Y0729063D03*
X0804976Y0728063D03*
X0794976Y0728063D03*
X0784976Y0728063D03*
X0774976Y0728063D03*
X0764976Y0728063D03*
X0754976Y0728063D03*
X0744976Y0728063D03*
X0734976Y0728063D03*
X0724976Y0728063D03*
X0714976Y0728063D03*
X0704976Y0728063D03*
X0694976Y0728063D03*
X0684976Y0728063D03*
X0674976Y0728063D03*
X0664976Y0728063D03*
X0654976Y0728063D03*
X0644976Y0728063D03*
X0634976Y0728063D03*
X0624976Y0728063D03*
X0614976Y0728063D03*
X0604976Y0728063D03*
X0594976Y0728063D03*
X0584976Y0728063D03*
X0574976Y0728063D03*
X0574976Y0738063D03*
X0574976Y0748063D03*
X0584976Y0748063D03*
X0584976Y0738063D03*
X0594976Y0738063D03*
X0594976Y0748063D03*
X0604976Y0748063D03*
X0604976Y0738063D03*
X0614976Y0738063D03*
X0614976Y0748063D03*
X0624976Y0748063D03*
X0624976Y0738063D03*
X0634976Y0738063D03*
X0634976Y0748063D03*
X0644976Y0748063D03*
X0644976Y0738063D03*
X0654976Y0738063D03*
X0654976Y0748063D03*
X0664976Y0748063D03*
X0664976Y0738063D03*
X0674976Y0738063D03*
X0674976Y0748063D03*
X0684976Y0748063D03*
X0684976Y0738063D03*
X0694976Y0738063D03*
X0694976Y0748063D03*
X0704976Y0748063D03*
X0704976Y0738063D03*
X0714976Y0738063D03*
X0714976Y0748063D03*
X0724976Y0748063D03*
X0724976Y0738063D03*
X0734976Y0738063D03*
X0734976Y0748063D03*
X0744976Y0748063D03*
X0744976Y0738063D03*
X0754976Y0738063D03*
X0754976Y0748063D03*
X0764976Y0748063D03*
X0764976Y0738063D03*
X0774976Y0738063D03*
X0774976Y0748063D03*
X0784976Y0748063D03*
X0784976Y0738063D03*
X0794976Y0738063D03*
X0794976Y0748063D03*
X0804976Y0748063D03*
X0804976Y0738063D03*
X0804976Y0718063D03*
X0794976Y0718063D03*
X0784976Y0718063D03*
X0774976Y0718063D03*
X0764976Y0718063D03*
X0754976Y0718063D03*
X0744976Y0718063D03*
X0734976Y0718063D03*
X0724976Y0718063D03*
X0714976Y0718063D03*
X0704976Y0718063D03*
X0694976Y0718063D03*
X0684976Y0718063D03*
X0674976Y0718063D03*
X0664976Y0718063D03*
X0654976Y0718063D03*
X0644976Y0718063D03*
X0634976Y0718063D03*
X0624976Y0718063D03*
X0614976Y0718063D03*
X0604976Y0718063D03*
X0594976Y0718063D03*
X0584976Y0718063D03*
X0574976Y0718063D03*
X0564976Y0719063D03*
X0564976Y0729063D03*
X0564976Y0739063D03*
X0564976Y0749063D03*
X0421276Y0749063D03*
X0421276Y0739063D03*
X0421276Y0729063D03*
X0411276Y0728063D03*
X0411276Y0738063D03*
X0411276Y0748063D03*
X0401276Y0748063D03*
X0401276Y0738063D03*
X0401276Y0728063D03*
X0391276Y0728063D03*
X0391276Y0738063D03*
X0391276Y0748063D03*
X0381276Y0748063D03*
X0381276Y0738063D03*
X0381276Y0728063D03*
X0371276Y0728063D03*
X0371276Y0738063D03*
X0371276Y0748063D03*
X0361276Y0748063D03*
X0361276Y0738063D03*
X0361276Y0728063D03*
X0351276Y0728063D03*
X0351276Y0738063D03*
X0351276Y0748063D03*
X0341276Y0748063D03*
X0341276Y0738063D03*
X0341276Y0728063D03*
X0331276Y0728063D03*
X0331276Y0738063D03*
X0331276Y0748063D03*
X0321276Y0748063D03*
X0321276Y0738063D03*
X0321276Y0728063D03*
X0311276Y0728063D03*
X0311276Y0738063D03*
X0311276Y0748063D03*
X0301276Y0748063D03*
X0301276Y0738063D03*
X0301276Y0728063D03*
X0291276Y0728063D03*
X0291276Y0738063D03*
X0291276Y0748063D03*
X0281276Y0748063D03*
X0281276Y0738063D03*
X0281276Y0728063D03*
X0271276Y0728063D03*
X0271276Y0738063D03*
X0271276Y0748063D03*
X0261276Y0748063D03*
X0261276Y0738063D03*
X0261276Y0728063D03*
X0251276Y0728063D03*
X0251276Y0738063D03*
X0251276Y0748063D03*
X0241276Y0748063D03*
X0241276Y0738063D03*
X0241276Y0728063D03*
X0231276Y0728063D03*
X0231276Y0738063D03*
X0231276Y0748063D03*
X0221276Y0748063D03*
X0221276Y0738063D03*
X0221276Y0728063D03*
X0211276Y0728063D03*
X0211276Y0738063D03*
X0211276Y0748063D03*
X0201276Y0748063D03*
X0201276Y0738063D03*
X0201276Y0728063D03*
X0191276Y0728063D03*
X0191276Y0738063D03*
X0191276Y0748063D03*
X0181276Y0748063D03*
X0181276Y0738063D03*
X0181276Y0728063D03*
X0171276Y0729063D03*
X0171276Y0739063D03*
X0171276Y0749063D03*
X0171276Y0719063D03*
X0181276Y0718063D03*
X0191276Y0718063D03*
X0201276Y0718063D03*
X0211276Y0718063D03*
X0221276Y0718063D03*
X0231276Y0718063D03*
X0241276Y0718063D03*
X0251276Y0718063D03*
X0261276Y0718063D03*
X0271276Y0718063D03*
X0281276Y0718063D03*
X0291276Y0718063D03*
X0301276Y0718063D03*
X0311276Y0718063D03*
X0321276Y0718063D03*
X0331276Y0718063D03*
X0341276Y0718063D03*
X0351276Y0718063D03*
X0361276Y0718063D03*
X0371276Y0718063D03*
X0381276Y0718063D03*
X0391276Y0718063D03*
X0401276Y0718063D03*
X0411276Y0718063D03*
X0421276Y0719063D03*
X0814976Y0719063D03*
X0814976Y0355362D03*
X0814976Y0345362D03*
X0814976Y0335362D03*
X0814976Y0325362D03*
X0804976Y0324362D03*
X0794976Y0324362D03*
X0784976Y0324362D03*
X0774976Y0324362D03*
X0764976Y0324362D03*
X0754976Y0324362D03*
X0744976Y0324362D03*
X0734976Y0324362D03*
X0724976Y0324362D03*
X0714976Y0324362D03*
X0704976Y0324362D03*
X0694976Y0324362D03*
X0684976Y0324362D03*
X0674976Y0324362D03*
X0664976Y0324362D03*
X0654976Y0324362D03*
X0644976Y0324362D03*
X0634976Y0324362D03*
X0624976Y0324362D03*
X0614976Y0324362D03*
X0604976Y0324362D03*
X0594976Y0324362D03*
X0584976Y0324362D03*
X0574976Y0324362D03*
X0574976Y0334362D03*
X0574976Y0344362D03*
X0574976Y0354362D03*
X0584976Y0354362D03*
X0584976Y0344362D03*
X0584976Y0334362D03*
X0594976Y0334362D03*
X0594976Y0344362D03*
X0594976Y0354362D03*
X0604976Y0354362D03*
X0604976Y0344362D03*
X0604976Y0334362D03*
X0614976Y0334362D03*
X0614976Y0344362D03*
X0614976Y0354362D03*
X0624976Y0354362D03*
X0624976Y0344362D03*
X0624976Y0334362D03*
X0634976Y0334362D03*
X0634976Y0344362D03*
X0634976Y0354362D03*
X0644976Y0354362D03*
X0644976Y0344362D03*
X0644976Y0334362D03*
X0654976Y0334362D03*
X0654976Y0344362D03*
X0654976Y0354362D03*
X0664976Y0354362D03*
X0664976Y0344362D03*
X0664976Y0334362D03*
X0674976Y0334362D03*
X0674976Y0344362D03*
X0674976Y0354362D03*
X0684976Y0354362D03*
X0684976Y0344362D03*
X0684976Y0334362D03*
X0694976Y0334362D03*
X0694976Y0344362D03*
X0694976Y0354362D03*
X0704976Y0354362D03*
X0704976Y0344362D03*
X0704976Y0334362D03*
X0714976Y0334362D03*
X0714976Y0344362D03*
X0714976Y0354362D03*
X0724976Y0354362D03*
X0724976Y0344362D03*
X0724976Y0334362D03*
X0734976Y0334362D03*
X0734976Y0344362D03*
X0734976Y0354362D03*
X0744976Y0354362D03*
X0744976Y0344362D03*
X0744976Y0334362D03*
X0754976Y0334362D03*
X0754976Y0344362D03*
X0754976Y0354362D03*
X0764976Y0354362D03*
X0764976Y0344362D03*
X0764976Y0334362D03*
X0774976Y0334362D03*
X0774976Y0344362D03*
X0774976Y0354362D03*
X0784976Y0354362D03*
X0784976Y0344362D03*
X0784976Y0334362D03*
X0794976Y0334362D03*
X0794976Y0344362D03*
X0794976Y0354362D03*
X0804976Y0354362D03*
X0804976Y0344362D03*
X0804976Y0334362D03*
X0564976Y0335362D03*
X0564976Y0325362D03*
X0564976Y0345362D03*
X0564976Y0355362D03*
X0421276Y0355362D03*
X0421276Y0345362D03*
X0421276Y0335362D03*
X0421276Y0325362D03*
X0411276Y0324362D03*
X0411276Y0334362D03*
X0411276Y0344362D03*
X0411276Y0354362D03*
X0401276Y0354362D03*
X0401276Y0344362D03*
X0401276Y0334362D03*
X0401276Y0324362D03*
X0391276Y0324362D03*
X0391276Y0334362D03*
X0391276Y0344362D03*
X0391276Y0354362D03*
X0381276Y0354362D03*
X0381276Y0344362D03*
X0381276Y0334362D03*
X0381276Y0324362D03*
X0371276Y0324362D03*
X0371276Y0334362D03*
X0371276Y0344362D03*
X0371276Y0354362D03*
X0361276Y0354362D03*
X0361276Y0344362D03*
X0361276Y0334362D03*
X0361276Y0324362D03*
X0351276Y0324362D03*
X0351276Y0334362D03*
X0351276Y0344362D03*
X0351276Y0354362D03*
X0341276Y0354362D03*
X0341276Y0344362D03*
X0341276Y0334362D03*
X0341276Y0324362D03*
X0331276Y0324362D03*
X0331276Y0334362D03*
X0331276Y0344362D03*
X0331276Y0354362D03*
X0321276Y0354362D03*
X0321276Y0344362D03*
X0321276Y0334362D03*
X0321276Y0324362D03*
X0311276Y0324362D03*
X0311276Y0334362D03*
X0311276Y0344362D03*
X0311276Y0354362D03*
X0301276Y0354362D03*
X0301276Y0344362D03*
X0301276Y0334362D03*
X0301276Y0324362D03*
X0291276Y0324362D03*
X0291276Y0334362D03*
X0291276Y0344362D03*
X0291276Y0354362D03*
X0281276Y0354362D03*
X0281276Y0344362D03*
X0281276Y0334362D03*
X0281276Y0324362D03*
X0271276Y0324362D03*
X0271276Y0334362D03*
X0271276Y0344362D03*
X0271276Y0354362D03*
X0261276Y0354362D03*
X0261276Y0344362D03*
X0261276Y0334362D03*
X0261276Y0324362D03*
X0251276Y0324362D03*
X0251276Y0334362D03*
X0251276Y0344362D03*
X0251276Y0354362D03*
X0241276Y0354362D03*
X0241276Y0344362D03*
X0241276Y0334362D03*
X0241276Y0324362D03*
X0231276Y0324362D03*
X0231276Y0334362D03*
X0231276Y0344362D03*
X0231276Y0354362D03*
X0221276Y0354362D03*
X0221276Y0344362D03*
X0221276Y0334362D03*
X0221276Y0324362D03*
X0211276Y0324362D03*
X0211276Y0334362D03*
X0211276Y0344362D03*
X0211276Y0354362D03*
X0201276Y0354362D03*
X0201276Y0344362D03*
X0201276Y0334362D03*
X0201276Y0324362D03*
X0191276Y0324362D03*
X0191276Y0334362D03*
X0191276Y0344362D03*
X0191276Y0354362D03*
X0181276Y0354362D03*
X0181276Y0344362D03*
X0181276Y0334362D03*
X0181276Y0324362D03*
X0171276Y0325362D03*
X0171276Y0335362D03*
X0171276Y0345362D03*
X0171276Y0355362D03*
D13*
X0089590Y0614184D03*
X0069890Y0614184D03*
X0069890Y0641784D03*
X0089590Y0641784D03*
X0089590Y0704735D03*
X0069890Y0704735D03*
X0069890Y0732335D03*
X0089590Y0732335D03*
X0896662Y0732335D03*
X0916362Y0732335D03*
X0916362Y0704735D03*
X0896662Y0704735D03*
X0896662Y0641784D03*
X0916362Y0641784D03*
X0916362Y0614184D03*
X0896662Y0614184D03*
D14*
X0945382Y0324835D03*
X0958193Y0324835D03*
X0969004Y0324835D03*
X0039870Y0324835D03*
X0029059Y0324835D03*
X0016248Y0324835D03*
D15*
X0017248Y0314835D03*
X0016248Y0304835D03*
X0017248Y0294835D03*
X0016248Y0284835D03*
X0029059Y0284835D03*
X0028059Y0294835D03*
X0029059Y0304835D03*
X0028059Y0314835D03*
X0040870Y0314835D03*
X0039870Y0304835D03*
X0040870Y0294835D03*
X0039870Y0284835D03*
X0040870Y0274835D03*
X0039870Y0264835D03*
X0040870Y0254835D03*
X0039870Y0244835D03*
X0040870Y0234835D03*
X0039870Y0224835D03*
X0040870Y0214835D03*
X0039870Y0204835D03*
X0040870Y0194835D03*
X0039870Y0184835D03*
X0040870Y0174835D03*
X0039870Y0164835D03*
X0040870Y0154835D03*
X0039870Y0144835D03*
X0040870Y0134835D03*
X0028059Y0134835D03*
X0029059Y0144835D03*
X0028059Y0154835D03*
X0029059Y0164835D03*
X0016248Y0164835D03*
X0017248Y0154835D03*
X0016248Y0144835D03*
X0017248Y0134835D03*
X0017248Y0174835D03*
X0016248Y0184835D03*
X0017248Y0194835D03*
X0016248Y0204835D03*
X0029059Y0204835D03*
X0028059Y0194835D03*
X0029059Y0184835D03*
X0028059Y0174835D03*
X0028059Y0214835D03*
X0029059Y0224835D03*
X0028059Y0234835D03*
X0029059Y0244835D03*
X0016248Y0244835D03*
X0017248Y0234835D03*
X0016248Y0224835D03*
X0017248Y0214835D03*
X0017248Y0254835D03*
X0016248Y0264835D03*
X0017248Y0274835D03*
X0028059Y0274835D03*
X0029059Y0264835D03*
X0028059Y0254835D03*
X0945382Y0264835D03*
X0946382Y0274835D03*
X0957193Y0274835D03*
X0958193Y0264835D03*
X0957193Y0254835D03*
X0946382Y0254835D03*
X0945382Y0244835D03*
X0946382Y0234835D03*
X0945382Y0224835D03*
X0946382Y0214835D03*
X0957193Y0214835D03*
X0958193Y0224835D03*
X0957193Y0234835D03*
X0958193Y0244835D03*
X0969004Y0244835D03*
X0970004Y0234835D03*
X0969004Y0224835D03*
X0970004Y0214835D03*
X0969004Y0204835D03*
X0970004Y0194835D03*
X0969004Y0184835D03*
X0970004Y0174835D03*
X0958193Y0184835D03*
X0957193Y0194835D03*
X0958193Y0204835D03*
X0945382Y0204835D03*
X0946382Y0194835D03*
X0945382Y0184835D03*
X0946382Y0174835D03*
X0957193Y0174835D03*
X0958193Y0164835D03*
X0957193Y0154835D03*
X0958193Y0144835D03*
X0957193Y0134835D03*
X0946382Y0134835D03*
X0945382Y0144835D03*
X0946382Y0154835D03*
X0945382Y0164835D03*
X0969004Y0164835D03*
X0970004Y0154835D03*
X0969004Y0144835D03*
X0970004Y0134835D03*
X0970004Y0254835D03*
X0969004Y0264835D03*
X0970004Y0274835D03*
X0969004Y0284835D03*
X0970004Y0294835D03*
X0969004Y0304835D03*
X0970004Y0314835D03*
X0958193Y0304835D03*
X0957193Y0314835D03*
X0946382Y0314835D03*
X0945382Y0304835D03*
X0946382Y0294835D03*
X0945382Y0284835D03*
X0957193Y0294835D03*
X0958193Y0284835D03*
D16*
X0599425Y0326984D02*
X0597047Y0329362D01*
X0595276Y0329362D01*
X0595276Y0324662D01*
X0594676Y0324662D01*
X0594676Y0324062D01*
X0589976Y0324062D01*
X0589976Y0322291D01*
X0591370Y0320898D01*
X0588300Y0320898D01*
X0589776Y0322374D01*
X0589776Y0326350D01*
X0586965Y0329162D01*
X0582988Y0329162D01*
X0580176Y0326350D01*
X0580176Y0322374D01*
X0581653Y0320898D01*
X0578583Y0320898D01*
X0579976Y0322291D01*
X0579976Y0324062D01*
X0575276Y0324062D01*
X0575276Y0324662D01*
X0574676Y0324662D01*
X0574676Y0324062D01*
X0569976Y0324062D01*
X0569976Y0322291D01*
X0571370Y0320898D01*
X0567300Y0320898D01*
X0569776Y0323374D01*
X0569776Y0327350D01*
X0566965Y0330162D01*
X0563992Y0330162D01*
X0563992Y0330362D01*
X0564676Y0330362D01*
X0564676Y0335062D01*
X0565276Y0335062D01*
X0565276Y0330362D01*
X0567047Y0330362D01*
X0569976Y0333291D01*
X0569976Y0335062D01*
X0565276Y0335062D01*
X0565276Y0335662D01*
X0564676Y0335662D01*
X0564676Y0340362D01*
X0563992Y0340362D01*
X0563992Y0340562D01*
X0566965Y0340562D01*
X0569776Y0343374D01*
X0569776Y0347350D01*
X0566965Y0350162D01*
X0563992Y0350162D01*
X0563992Y0350362D01*
X0564676Y0350362D01*
X0564676Y0355062D01*
X0565276Y0355062D01*
X0565276Y0350362D01*
X0567047Y0350362D01*
X0569976Y0353291D01*
X0569976Y0355062D01*
X0565276Y0355062D01*
X0565276Y0355662D01*
X0564676Y0355662D01*
X0564676Y0360362D01*
X0563992Y0360362D01*
X0563992Y0627984D01*
X0209661Y0627984D01*
X0206055Y0346654D01*
X0203347Y0349362D01*
X0201576Y0349362D01*
X0201576Y0344662D01*
X0200976Y0344662D01*
X0200976Y0349362D01*
X0199205Y0349362D01*
X0196276Y0346433D01*
X0196276Y0344662D01*
X0200976Y0344662D01*
X0200976Y0344062D01*
X0201576Y0344062D01*
X0201576Y0339362D01*
X0203347Y0339362D01*
X0205995Y0342011D01*
X0205924Y0336502D01*
X0203264Y0339162D01*
X0199287Y0339162D01*
X0196476Y0336350D01*
X0196476Y0332374D01*
X0199287Y0329562D01*
X0203264Y0329562D01*
X0205869Y0332167D01*
X0205801Y0326907D01*
X0203347Y0329362D01*
X0201576Y0329362D01*
X0201576Y0324662D01*
X0200976Y0324662D01*
X0200976Y0329362D01*
X0199205Y0329362D01*
X0196276Y0326433D01*
X0196276Y0324662D01*
X0200976Y0324662D01*
X0200976Y0324062D01*
X0196276Y0324062D01*
X0196276Y0322291D01*
X0197669Y0320898D01*
X0194599Y0320898D01*
X0196076Y0322374D01*
X0196076Y0326350D01*
X0193264Y0329162D01*
X0189287Y0329162D01*
X0186476Y0326350D01*
X0186476Y0322374D01*
X0187952Y0320898D01*
X0184882Y0320898D01*
X0186276Y0322291D01*
X0186276Y0324062D01*
X0181576Y0324062D01*
X0181576Y0324662D01*
X0186276Y0324662D01*
X0186276Y0326433D01*
X0183347Y0329362D01*
X0181576Y0329362D01*
X0181576Y0324662D01*
X0180976Y0324662D01*
X0180976Y0329362D01*
X0179205Y0329362D01*
X0176276Y0326433D01*
X0176276Y0324662D01*
X0180976Y0324662D01*
X0180976Y0324062D01*
X0176276Y0324062D01*
X0176276Y0322291D01*
X0177669Y0320898D01*
X0173599Y0320898D01*
X0176076Y0323374D01*
X0176076Y0327350D01*
X0173264Y0330162D01*
X0169287Y0330162D01*
X0166476Y0327350D01*
X0166476Y0323374D01*
X0168952Y0320898D01*
X0166354Y0320898D01*
X0166354Y0333212D01*
X0169205Y0330362D01*
X0170976Y0330362D01*
X0170976Y0335062D01*
X0171576Y0335062D01*
X0171576Y0335662D01*
X0176276Y0335662D01*
X0176276Y0337433D01*
X0173347Y0340362D01*
X0171576Y0340362D01*
X0171576Y0335662D01*
X0170976Y0335662D01*
X0170976Y0340362D01*
X0169205Y0340362D01*
X0166354Y0337512D01*
X0166354Y0353212D01*
X0169205Y0350362D01*
X0170976Y0350362D01*
X0170976Y0355062D01*
X0171576Y0355062D01*
X0171576Y0355662D01*
X0176276Y0355662D01*
X0176276Y0357433D01*
X0173347Y0360362D01*
X0171576Y0360362D01*
X0171576Y0355662D01*
X0170976Y0355662D01*
X0170976Y0360362D01*
X0169205Y0360362D01*
X0166354Y0357512D01*
X0166354Y0604362D01*
X0060055Y0604362D01*
X0060055Y0651606D01*
X0166354Y0651606D01*
X0166354Y0726913D01*
X0169205Y0724063D01*
X0170976Y0724063D01*
X0170976Y0728763D01*
X0171576Y0728763D01*
X0171576Y0729363D01*
X0176276Y0729363D01*
X0176276Y0731134D01*
X0173347Y0734063D01*
X0171576Y0734063D01*
X0171576Y0729363D01*
X0170976Y0729363D01*
X0170976Y0734063D01*
X0169205Y0734063D01*
X0166354Y0731213D01*
X0166354Y0746913D01*
X0169205Y0744063D01*
X0170976Y0744063D01*
X0170976Y0748763D01*
X0171576Y0748763D01*
X0171576Y0749363D01*
X0176276Y0749363D01*
X0176276Y0751134D01*
X0173441Y0753969D01*
X0205724Y0753969D01*
X0205724Y0750402D01*
X0203264Y0752863D01*
X0199287Y0752863D01*
X0196476Y0750051D01*
X0196476Y0746075D01*
X0199287Y0743263D01*
X0203264Y0743263D01*
X0205724Y0745724D01*
X0205724Y0740685D01*
X0203347Y0743063D01*
X0201576Y0743063D01*
X0201576Y0738363D01*
X0200976Y0738363D01*
X0200976Y0743063D01*
X0199205Y0743063D01*
X0196276Y0740134D01*
X0196276Y0738363D01*
X0200976Y0738363D01*
X0200976Y0737763D01*
X0201576Y0737763D01*
X0201576Y0733063D01*
X0203347Y0733063D01*
X0205724Y0735441D01*
X0205724Y0730402D01*
X0203264Y0732863D01*
X0199287Y0732863D01*
X0196476Y0730051D01*
X0196476Y0726075D01*
X0199287Y0723263D01*
X0203264Y0723263D01*
X0205724Y0725724D01*
X0205724Y0720685D01*
X0203347Y0723063D01*
X0201576Y0723063D01*
X0201576Y0718363D01*
X0200976Y0718363D01*
X0200976Y0723063D01*
X0199205Y0723063D01*
X0196276Y0720134D01*
X0196276Y0718363D01*
X0200976Y0718363D01*
X0200976Y0717763D01*
X0201576Y0717763D01*
X0201576Y0713063D01*
X0203347Y0713063D01*
X0205724Y0715441D01*
X0205724Y0651606D01*
X0563992Y0651606D01*
X0563992Y0714263D01*
X0566965Y0714263D01*
X0569776Y0717075D01*
X0569776Y0721051D01*
X0566965Y0723863D01*
X0563992Y0723863D01*
X0563992Y0724063D01*
X0564676Y0724063D01*
X0564676Y0728763D01*
X0565276Y0728763D01*
X0565276Y0724063D01*
X0567047Y0724063D01*
X0569976Y0726992D01*
X0569976Y0728763D01*
X0565276Y0728763D01*
X0565276Y0729363D01*
X0564676Y0729363D01*
X0564676Y0734063D01*
X0563992Y0734063D01*
X0563992Y0734263D01*
X0566965Y0734263D01*
X0569776Y0737075D01*
X0569776Y0741051D01*
X0566965Y0743863D01*
X0563992Y0743863D01*
X0563992Y0744063D01*
X0564676Y0744063D01*
X0564676Y0748763D01*
X0565276Y0748763D01*
X0565276Y0744063D01*
X0567047Y0744063D01*
X0569976Y0746992D01*
X0569976Y0748763D01*
X0565276Y0748763D01*
X0565276Y0749363D01*
X0569976Y0749363D01*
X0569976Y0751134D01*
X0567142Y0753969D01*
X0599425Y0753969D01*
X0599425Y0750402D01*
X0596965Y0752863D01*
X0592988Y0752863D01*
X0590176Y0750051D01*
X0590176Y0746075D01*
X0592988Y0743263D01*
X0596965Y0743263D01*
X0599425Y0745724D01*
X0599425Y0740685D01*
X0597047Y0743063D01*
X0595276Y0743063D01*
X0595276Y0738363D01*
X0594676Y0738363D01*
X0594676Y0737763D01*
X0589976Y0737763D01*
X0589976Y0735992D01*
X0592905Y0733063D01*
X0594676Y0733063D01*
X0594676Y0737763D01*
X0595276Y0737763D01*
X0595276Y0733063D01*
X0597047Y0733063D01*
X0599425Y0735441D01*
X0599425Y0730402D01*
X0596965Y0732863D01*
X0592988Y0732863D01*
X0590176Y0730051D01*
X0590176Y0726075D01*
X0592988Y0723263D01*
X0596965Y0723263D01*
X0599425Y0725724D01*
X0599425Y0720685D01*
X0597047Y0723063D01*
X0595276Y0723063D01*
X0595276Y0718363D01*
X0594676Y0718363D01*
X0594676Y0717763D01*
X0589976Y0717763D01*
X0589976Y0715992D01*
X0592905Y0713063D01*
X0594676Y0713063D01*
X0594676Y0717763D01*
X0595276Y0717763D01*
X0595276Y0713063D01*
X0597047Y0713063D01*
X0599425Y0715441D01*
X0599425Y0356702D01*
X0596965Y0359162D01*
X0592988Y0359162D01*
X0590176Y0356350D01*
X0590176Y0352374D01*
X0592988Y0349562D01*
X0596965Y0349562D01*
X0599425Y0352023D01*
X0599425Y0346984D01*
X0597047Y0349362D01*
X0595276Y0349362D01*
X0595276Y0344662D01*
X0594676Y0344662D01*
X0594676Y0344062D01*
X0589976Y0344062D01*
X0589976Y0342291D01*
X0592905Y0339362D01*
X0594676Y0339362D01*
X0594676Y0344062D01*
X0595276Y0344062D01*
X0595276Y0339362D01*
X0597047Y0339362D01*
X0599425Y0341740D01*
X0599425Y0336702D01*
X0596965Y0339162D01*
X0592988Y0339162D01*
X0590176Y0336350D01*
X0590176Y0332374D01*
X0592988Y0329562D01*
X0596965Y0329562D01*
X0599425Y0332023D01*
X0599425Y0326984D01*
X0599425Y0327470D02*
X0598939Y0327470D01*
X0599425Y0328069D02*
X0598341Y0328069D01*
X0597742Y0328668D02*
X0599425Y0328668D01*
X0599425Y0329266D02*
X0597144Y0329266D01*
X0597267Y0329865D02*
X0599425Y0329865D01*
X0599425Y0330463D02*
X0597865Y0330463D01*
X0598464Y0331062D02*
X0599425Y0331062D01*
X0599425Y0331660D02*
X0599062Y0331660D01*
X0595276Y0329266D02*
X0594676Y0329266D01*
X0594676Y0329362D02*
X0592905Y0329362D01*
X0589976Y0326433D01*
X0589976Y0324662D01*
X0594676Y0324662D01*
X0594676Y0329362D01*
X0594676Y0328668D02*
X0595276Y0328668D01*
X0595276Y0328069D02*
X0594676Y0328069D01*
X0594676Y0327470D02*
X0595276Y0327470D01*
X0595276Y0326872D02*
X0594676Y0326872D01*
X0594676Y0326273D02*
X0595276Y0326273D01*
X0595276Y0325675D02*
X0594676Y0325675D01*
X0594676Y0325076D02*
X0595276Y0325076D01*
X0594676Y0324478D02*
X0589776Y0324478D01*
X0589776Y0325076D02*
X0589976Y0325076D01*
X0589976Y0325675D02*
X0589776Y0325675D01*
X0589776Y0326273D02*
X0589976Y0326273D01*
X0590415Y0326872D02*
X0589255Y0326872D01*
X0588656Y0327470D02*
X0591014Y0327470D01*
X0591612Y0328069D02*
X0588058Y0328069D01*
X0587459Y0328668D02*
X0592211Y0328668D01*
X0592809Y0329266D02*
X0577144Y0329266D01*
X0577047Y0329362D02*
X0575276Y0329362D01*
X0575276Y0324662D01*
X0579976Y0324662D01*
X0579976Y0326433D01*
X0577047Y0329362D01*
X0576965Y0329562D02*
X0579776Y0332374D01*
X0579776Y0336350D01*
X0576965Y0339162D01*
X0572988Y0339162D01*
X0570176Y0336350D01*
X0570176Y0332374D01*
X0572988Y0329562D01*
X0576965Y0329562D01*
X0577267Y0329865D02*
X0582403Y0329865D01*
X0582905Y0329362D02*
X0579976Y0332291D01*
X0579976Y0334062D01*
X0584676Y0334062D01*
X0584676Y0334662D01*
X0579976Y0334662D01*
X0579976Y0336433D01*
X0582905Y0339362D01*
X0584676Y0339362D01*
X0584676Y0334662D01*
X0585276Y0334662D01*
X0585276Y0339362D01*
X0587047Y0339362D01*
X0589976Y0336433D01*
X0589976Y0334662D01*
X0585276Y0334662D01*
X0585276Y0334062D01*
X0585276Y0329362D01*
X0587047Y0329362D01*
X0589976Y0332291D01*
X0589976Y0334062D01*
X0585276Y0334062D01*
X0584676Y0334062D01*
X0584676Y0329362D01*
X0582905Y0329362D01*
X0582493Y0328668D02*
X0577742Y0328668D01*
X0578341Y0328069D02*
X0581895Y0328069D01*
X0581296Y0327470D02*
X0578939Y0327470D01*
X0579538Y0326872D02*
X0580698Y0326872D01*
X0580176Y0326273D02*
X0579976Y0326273D01*
X0579976Y0325675D02*
X0580176Y0325675D01*
X0580176Y0325076D02*
X0579976Y0325076D01*
X0580176Y0324478D02*
X0575276Y0324478D01*
X0575276Y0325076D02*
X0574676Y0325076D01*
X0574676Y0324662D02*
X0574676Y0329362D01*
X0572905Y0329362D01*
X0569976Y0326433D01*
X0569976Y0324662D01*
X0574676Y0324662D01*
X0574676Y0324478D02*
X0569776Y0324478D01*
X0569776Y0325076D02*
X0569976Y0325076D01*
X0569976Y0325675D02*
X0569776Y0325675D01*
X0569776Y0326273D02*
X0569976Y0326273D01*
X0569776Y0326872D02*
X0570415Y0326872D01*
X0571014Y0327470D02*
X0569656Y0327470D01*
X0569058Y0328069D02*
X0571612Y0328069D01*
X0572211Y0328668D02*
X0568459Y0328668D01*
X0567861Y0329266D02*
X0572809Y0329266D01*
X0572686Y0329865D02*
X0567262Y0329865D01*
X0567148Y0330463D02*
X0572087Y0330463D01*
X0571489Y0331062D02*
X0567747Y0331062D01*
X0568345Y0331660D02*
X0570890Y0331660D01*
X0570292Y0332259D02*
X0568944Y0332259D01*
X0569542Y0332857D02*
X0570176Y0332857D01*
X0570176Y0333456D02*
X0569976Y0333456D01*
X0569976Y0334054D02*
X0570176Y0334054D01*
X0570176Y0334653D02*
X0569976Y0334653D01*
X0570176Y0335251D02*
X0565276Y0335251D01*
X0565276Y0335662D02*
X0569976Y0335662D01*
X0569976Y0337433D01*
X0567047Y0340362D01*
X0565276Y0340362D01*
X0565276Y0335662D01*
X0565276Y0335850D02*
X0564676Y0335850D01*
X0564676Y0336448D02*
X0565276Y0336448D01*
X0565276Y0337047D02*
X0564676Y0337047D01*
X0564676Y0337645D02*
X0565276Y0337645D01*
X0565276Y0338244D02*
X0564676Y0338244D01*
X0564676Y0338842D02*
X0565276Y0338842D01*
X0565276Y0339441D02*
X0564676Y0339441D01*
X0564676Y0340039D02*
X0565276Y0340039D01*
X0567040Y0340638D02*
X0571630Y0340638D01*
X0571031Y0341236D02*
X0567639Y0341236D01*
X0568237Y0341835D02*
X0570433Y0341835D01*
X0569976Y0342291D02*
X0572905Y0339362D01*
X0574676Y0339362D01*
X0574676Y0344062D01*
X0569976Y0344062D01*
X0569976Y0342291D01*
X0569976Y0342433D02*
X0568836Y0342433D01*
X0569434Y0343032D02*
X0569976Y0343032D01*
X0569976Y0343630D02*
X0569776Y0343630D01*
X0569776Y0344229D02*
X0574676Y0344229D01*
X0574676Y0344062D02*
X0574676Y0344662D01*
X0569976Y0344662D01*
X0569976Y0346433D01*
X0572905Y0349362D01*
X0574676Y0349362D01*
X0574676Y0344662D01*
X0575276Y0344662D01*
X0575276Y0349362D01*
X0577047Y0349362D01*
X0579976Y0346433D01*
X0579976Y0344662D01*
X0575276Y0344662D01*
X0575276Y0344062D01*
X0575276Y0339362D01*
X0577047Y0339362D01*
X0579976Y0342291D01*
X0579976Y0344062D01*
X0575276Y0344062D01*
X0574676Y0344062D01*
X0574676Y0343630D02*
X0575276Y0343630D01*
X0575276Y0343032D02*
X0574676Y0343032D01*
X0574676Y0342433D02*
X0575276Y0342433D01*
X0575276Y0341835D02*
X0574676Y0341835D01*
X0574676Y0341236D02*
X0575276Y0341236D01*
X0575276Y0340638D02*
X0574676Y0340638D01*
X0574676Y0340039D02*
X0575276Y0340039D01*
X0575276Y0339441D02*
X0574676Y0339441D01*
X0572827Y0339441D02*
X0567969Y0339441D01*
X0567370Y0340039D02*
X0572228Y0340039D01*
X0572668Y0338842D02*
X0568567Y0338842D01*
X0569166Y0338244D02*
X0572070Y0338244D01*
X0571471Y0337645D02*
X0569764Y0337645D01*
X0569976Y0337047D02*
X0570873Y0337047D01*
X0570274Y0336448D02*
X0569976Y0336448D01*
X0569976Y0335850D02*
X0570176Y0335850D01*
X0565276Y0334653D02*
X0564676Y0334653D01*
X0564676Y0334054D02*
X0565276Y0334054D01*
X0565276Y0333456D02*
X0564676Y0333456D01*
X0564676Y0332857D02*
X0565276Y0332857D01*
X0565276Y0332259D02*
X0564676Y0332259D01*
X0564676Y0331660D02*
X0565276Y0331660D01*
X0565276Y0331062D02*
X0564676Y0331062D01*
X0564676Y0330463D02*
X0565276Y0330463D01*
X0569776Y0323879D02*
X0569976Y0323879D01*
X0569976Y0323281D02*
X0569683Y0323281D01*
X0569976Y0322682D02*
X0569085Y0322682D01*
X0568486Y0322084D02*
X0570184Y0322084D01*
X0570782Y0321485D02*
X0567888Y0321485D01*
X0574676Y0325675D02*
X0575276Y0325675D01*
X0575276Y0326273D02*
X0574676Y0326273D01*
X0574676Y0326872D02*
X0575276Y0326872D01*
X0575276Y0327470D02*
X0574676Y0327470D01*
X0574676Y0328069D02*
X0575276Y0328069D01*
X0575276Y0328668D02*
X0574676Y0328668D01*
X0574676Y0329266D02*
X0575276Y0329266D01*
X0577865Y0330463D02*
X0581804Y0330463D01*
X0581206Y0331062D02*
X0578464Y0331062D01*
X0579062Y0331660D02*
X0580607Y0331660D01*
X0580009Y0332259D02*
X0579661Y0332259D01*
X0579776Y0332857D02*
X0579976Y0332857D01*
X0579976Y0333456D02*
X0579776Y0333456D01*
X0579776Y0334054D02*
X0579976Y0334054D01*
X0579776Y0334653D02*
X0584676Y0334653D01*
X0584676Y0335251D02*
X0585276Y0335251D01*
X0585276Y0334653D02*
X0590176Y0334653D01*
X0590176Y0335251D02*
X0589976Y0335251D01*
X0589976Y0335850D02*
X0590176Y0335850D01*
X0590274Y0336448D02*
X0589961Y0336448D01*
X0589363Y0337047D02*
X0590873Y0337047D01*
X0591471Y0337645D02*
X0588764Y0337645D01*
X0588166Y0338244D02*
X0592070Y0338244D01*
X0592668Y0338842D02*
X0587567Y0338842D01*
X0586965Y0339562D02*
X0589776Y0342374D01*
X0589776Y0346350D01*
X0586965Y0349162D01*
X0582988Y0349162D01*
X0580176Y0346350D01*
X0580176Y0342374D01*
X0582988Y0339562D01*
X0586965Y0339562D01*
X0587442Y0340039D02*
X0592228Y0340039D01*
X0591630Y0340638D02*
X0588040Y0340638D01*
X0588639Y0341236D02*
X0591031Y0341236D01*
X0590433Y0341835D02*
X0589237Y0341835D01*
X0589776Y0342433D02*
X0589976Y0342433D01*
X0589976Y0343032D02*
X0589776Y0343032D01*
X0589776Y0343630D02*
X0589976Y0343630D01*
X0589776Y0344229D02*
X0594676Y0344229D01*
X0594676Y0344662D02*
X0589976Y0344662D01*
X0589976Y0346433D01*
X0592905Y0349362D01*
X0594676Y0349362D01*
X0594676Y0344662D01*
X0594676Y0344827D02*
X0595276Y0344827D01*
X0595276Y0345426D02*
X0594676Y0345426D01*
X0594676Y0346024D02*
X0595276Y0346024D01*
X0595276Y0346623D02*
X0594676Y0346623D01*
X0594676Y0347221D02*
X0595276Y0347221D01*
X0595276Y0347820D02*
X0594676Y0347820D01*
X0594676Y0348418D02*
X0595276Y0348418D01*
X0595276Y0349017D02*
X0594676Y0349017D01*
X0592935Y0349615D02*
X0587301Y0349615D01*
X0587047Y0349362D02*
X0589976Y0352291D01*
X0589976Y0354062D01*
X0585276Y0354062D01*
X0585276Y0349362D01*
X0587047Y0349362D01*
X0587110Y0349017D02*
X0592560Y0349017D01*
X0591962Y0348418D02*
X0587708Y0348418D01*
X0588307Y0347820D02*
X0591363Y0347820D01*
X0590764Y0347221D02*
X0588905Y0347221D01*
X0589504Y0346623D02*
X0590166Y0346623D01*
X0589976Y0346024D02*
X0589776Y0346024D01*
X0589776Y0345426D02*
X0589976Y0345426D01*
X0589976Y0344827D02*
X0589776Y0344827D01*
X0594676Y0343630D02*
X0595276Y0343630D01*
X0595276Y0343032D02*
X0594676Y0343032D01*
X0594676Y0342433D02*
X0595276Y0342433D01*
X0595276Y0341835D02*
X0594676Y0341835D01*
X0594676Y0341236D02*
X0595276Y0341236D01*
X0595276Y0340638D02*
X0594676Y0340638D01*
X0594676Y0340039D02*
X0595276Y0340039D01*
X0595276Y0339441D02*
X0594676Y0339441D01*
X0592827Y0339441D02*
X0577126Y0339441D01*
X0577285Y0338842D02*
X0582385Y0338842D01*
X0581787Y0338244D02*
X0577883Y0338244D01*
X0578482Y0337645D02*
X0581188Y0337645D01*
X0580590Y0337047D02*
X0579080Y0337047D01*
X0579679Y0336448D02*
X0579991Y0336448D01*
X0579976Y0335850D02*
X0579776Y0335850D01*
X0579776Y0335251D02*
X0579976Y0335251D01*
X0584676Y0335850D02*
X0585276Y0335850D01*
X0585276Y0336448D02*
X0584676Y0336448D01*
X0584676Y0337047D02*
X0585276Y0337047D01*
X0585276Y0337645D02*
X0584676Y0337645D01*
X0584676Y0338244D02*
X0585276Y0338244D01*
X0585276Y0338842D02*
X0584676Y0338842D01*
X0582511Y0340039D02*
X0577724Y0340039D01*
X0578323Y0340638D02*
X0581913Y0340638D01*
X0581314Y0341236D02*
X0578921Y0341236D01*
X0579520Y0341835D02*
X0580716Y0341835D01*
X0580176Y0342433D02*
X0579976Y0342433D01*
X0579976Y0343032D02*
X0580176Y0343032D01*
X0580176Y0343630D02*
X0579976Y0343630D01*
X0580176Y0344229D02*
X0575276Y0344229D01*
X0575276Y0344827D02*
X0574676Y0344827D01*
X0574676Y0345426D02*
X0575276Y0345426D01*
X0575276Y0346024D02*
X0574676Y0346024D01*
X0574676Y0346623D02*
X0575276Y0346623D01*
X0575276Y0347221D02*
X0574676Y0347221D01*
X0574676Y0347820D02*
X0575276Y0347820D01*
X0575276Y0348418D02*
X0574676Y0348418D01*
X0574676Y0349017D02*
X0575276Y0349017D01*
X0576965Y0349562D02*
X0579776Y0352374D01*
X0579776Y0356350D01*
X0576965Y0359162D01*
X0572988Y0359162D01*
X0570176Y0356350D01*
X0570176Y0352374D01*
X0572988Y0349562D01*
X0576965Y0349562D01*
X0577018Y0349615D02*
X0582652Y0349615D01*
X0582905Y0349362D02*
X0584676Y0349362D01*
X0584676Y0354062D01*
X0579976Y0354062D01*
X0579976Y0352291D01*
X0582905Y0349362D01*
X0582843Y0349017D02*
X0577393Y0349017D01*
X0577991Y0348418D02*
X0582244Y0348418D01*
X0581646Y0347820D02*
X0578590Y0347820D01*
X0579188Y0347221D02*
X0581047Y0347221D01*
X0580449Y0346623D02*
X0579787Y0346623D01*
X0579976Y0346024D02*
X0580176Y0346024D01*
X0580176Y0345426D02*
X0579976Y0345426D01*
X0579976Y0344827D02*
X0580176Y0344827D01*
X0582054Y0350214D02*
X0577616Y0350214D01*
X0578215Y0350812D02*
X0581455Y0350812D01*
X0580857Y0351411D02*
X0578813Y0351411D01*
X0579412Y0352009D02*
X0580258Y0352009D01*
X0579976Y0352608D02*
X0579776Y0352608D01*
X0579776Y0353206D02*
X0579976Y0353206D01*
X0579976Y0353805D02*
X0579776Y0353805D01*
X0579776Y0354404D02*
X0584676Y0354404D01*
X0584676Y0354662D02*
X0584676Y0354062D01*
X0585276Y0354062D01*
X0585276Y0354662D01*
X0584676Y0354662D01*
X0579976Y0354662D01*
X0579976Y0356433D01*
X0582905Y0359362D01*
X0584676Y0359362D01*
X0584676Y0354662D01*
X0584676Y0355002D02*
X0585276Y0355002D01*
X0585276Y0354662D02*
X0585276Y0359362D01*
X0587047Y0359362D01*
X0589976Y0356433D01*
X0589976Y0354662D01*
X0585276Y0354662D01*
X0585276Y0354404D02*
X0590176Y0354404D01*
X0590176Y0355002D02*
X0589976Y0355002D01*
X0589976Y0355601D02*
X0590176Y0355601D01*
X0590176Y0356199D02*
X0589976Y0356199D01*
X0589612Y0356798D02*
X0590624Y0356798D01*
X0591222Y0357396D02*
X0589014Y0357396D01*
X0588415Y0357995D02*
X0591821Y0357995D01*
X0592419Y0358593D02*
X0587817Y0358593D01*
X0587218Y0359192D02*
X0599425Y0359192D01*
X0599425Y0359790D02*
X0567620Y0359790D01*
X0567047Y0360362D02*
X0565276Y0360362D01*
X0565276Y0355662D01*
X0569976Y0355662D01*
X0569976Y0357433D01*
X0567047Y0360362D01*
X0568218Y0359192D02*
X0582735Y0359192D01*
X0582136Y0358593D02*
X0577534Y0358593D01*
X0578132Y0357995D02*
X0581538Y0357995D01*
X0580939Y0357396D02*
X0578731Y0357396D01*
X0579329Y0356798D02*
X0580341Y0356798D01*
X0579976Y0356199D02*
X0579776Y0356199D01*
X0579776Y0355601D02*
X0579976Y0355601D01*
X0579976Y0355002D02*
X0579776Y0355002D01*
X0584676Y0355601D02*
X0585276Y0355601D01*
X0585276Y0356199D02*
X0584676Y0356199D01*
X0584676Y0356798D02*
X0585276Y0356798D01*
X0585276Y0357396D02*
X0584676Y0357396D01*
X0584676Y0357995D02*
X0585276Y0357995D01*
X0585276Y0358593D02*
X0584676Y0358593D01*
X0584676Y0359192D02*
X0585276Y0359192D01*
X0585276Y0353805D02*
X0584676Y0353805D01*
X0584676Y0353206D02*
X0585276Y0353206D01*
X0585276Y0352608D02*
X0584676Y0352608D01*
X0584676Y0352009D02*
X0585276Y0352009D01*
X0585276Y0351411D02*
X0584676Y0351411D01*
X0584676Y0350812D02*
X0585276Y0350812D01*
X0585276Y0350214D02*
X0584676Y0350214D01*
X0584676Y0349615D02*
X0585276Y0349615D01*
X0587899Y0350214D02*
X0592336Y0350214D01*
X0591738Y0350812D02*
X0588498Y0350812D01*
X0589096Y0351411D02*
X0591139Y0351411D01*
X0590541Y0352009D02*
X0589695Y0352009D01*
X0589976Y0352608D02*
X0590176Y0352608D01*
X0590176Y0353206D02*
X0589976Y0353206D01*
X0589976Y0353805D02*
X0590176Y0353805D01*
X0597018Y0349615D02*
X0599425Y0349615D01*
X0599425Y0349017D02*
X0597393Y0349017D01*
X0597991Y0348418D02*
X0599425Y0348418D01*
X0599425Y0347820D02*
X0598590Y0347820D01*
X0599188Y0347221D02*
X0599425Y0347221D01*
X0599425Y0350214D02*
X0597616Y0350214D01*
X0598215Y0350812D02*
X0599425Y0350812D01*
X0599425Y0351411D02*
X0598813Y0351411D01*
X0599412Y0352009D02*
X0599425Y0352009D01*
X0599329Y0356798D02*
X0599425Y0356798D01*
X0599425Y0357396D02*
X0598731Y0357396D01*
X0598132Y0357995D02*
X0599425Y0357995D01*
X0599425Y0358593D02*
X0597534Y0358593D01*
X0599425Y0360389D02*
X0563992Y0360389D01*
X0563992Y0360987D02*
X0599425Y0360987D01*
X0599425Y0361586D02*
X0563992Y0361586D01*
X0563992Y0362184D02*
X0599425Y0362184D01*
X0599425Y0362783D02*
X0563992Y0362783D01*
X0563992Y0363381D02*
X0599425Y0363381D01*
X0599425Y0363980D02*
X0563992Y0363980D01*
X0563992Y0364578D02*
X0599425Y0364578D01*
X0599425Y0365177D02*
X0563992Y0365177D01*
X0563992Y0365775D02*
X0599425Y0365775D01*
X0599425Y0366374D02*
X0563992Y0366374D01*
X0563992Y0366972D02*
X0599425Y0366972D01*
X0599425Y0367571D02*
X0563992Y0367571D01*
X0563992Y0368169D02*
X0599425Y0368169D01*
X0599425Y0368768D02*
X0563992Y0368768D01*
X0563992Y0369366D02*
X0599425Y0369366D01*
X0599425Y0369965D02*
X0563992Y0369965D01*
X0563992Y0370563D02*
X0599425Y0370563D01*
X0599425Y0371162D02*
X0563992Y0371162D01*
X0563992Y0371760D02*
X0599425Y0371760D01*
X0599425Y0372359D02*
X0563992Y0372359D01*
X0563992Y0372957D02*
X0599425Y0372957D01*
X0599425Y0373556D02*
X0563992Y0373556D01*
X0563992Y0374154D02*
X0599425Y0374154D01*
X0599425Y0374753D02*
X0563992Y0374753D01*
X0563992Y0375351D02*
X0599425Y0375351D01*
X0599425Y0375950D02*
X0563992Y0375950D01*
X0563992Y0376548D02*
X0599425Y0376548D01*
X0599425Y0377147D02*
X0563992Y0377147D01*
X0563992Y0377745D02*
X0599425Y0377745D01*
X0599425Y0378344D02*
X0563992Y0378344D01*
X0563992Y0378942D02*
X0599425Y0378942D01*
X0599425Y0379541D02*
X0563992Y0379541D01*
X0563992Y0380139D02*
X0599425Y0380139D01*
X0599425Y0380738D02*
X0563992Y0380738D01*
X0563992Y0381337D02*
X0599425Y0381337D01*
X0599425Y0381935D02*
X0563992Y0381935D01*
X0563992Y0382534D02*
X0599425Y0382534D01*
X0599425Y0383132D02*
X0563992Y0383132D01*
X0563992Y0383731D02*
X0599425Y0383731D01*
X0599425Y0384329D02*
X0563992Y0384329D01*
X0563992Y0384928D02*
X0599425Y0384928D01*
X0599425Y0385526D02*
X0563992Y0385526D01*
X0563992Y0386125D02*
X0599425Y0386125D01*
X0599425Y0386723D02*
X0563992Y0386723D01*
X0563992Y0387322D02*
X0599425Y0387322D01*
X0599425Y0387920D02*
X0563992Y0387920D01*
X0563992Y0388519D02*
X0599425Y0388519D01*
X0599425Y0389117D02*
X0563992Y0389117D01*
X0563992Y0389716D02*
X0599425Y0389716D01*
X0599425Y0390314D02*
X0563992Y0390314D01*
X0563992Y0390913D02*
X0599425Y0390913D01*
X0599425Y0391511D02*
X0563992Y0391511D01*
X0563992Y0392110D02*
X0599425Y0392110D01*
X0599425Y0392708D02*
X0563992Y0392708D01*
X0563992Y0393307D02*
X0599425Y0393307D01*
X0599425Y0393905D02*
X0563992Y0393905D01*
X0563992Y0394504D02*
X0599425Y0394504D01*
X0599425Y0395102D02*
X0563992Y0395102D01*
X0563992Y0395701D02*
X0599425Y0395701D01*
X0599425Y0396299D02*
X0563992Y0396299D01*
X0563992Y0396898D02*
X0599425Y0396898D01*
X0599425Y0397496D02*
X0563992Y0397496D01*
X0563992Y0398095D02*
X0599425Y0398095D01*
X0599425Y0398693D02*
X0563992Y0398693D01*
X0563992Y0399292D02*
X0599425Y0399292D01*
X0599425Y0399890D02*
X0563992Y0399890D01*
X0563992Y0400489D02*
X0599425Y0400489D01*
X0599425Y0401087D02*
X0563992Y0401087D01*
X0563992Y0401686D02*
X0599425Y0401686D01*
X0599425Y0402284D02*
X0563992Y0402284D01*
X0563992Y0402883D02*
X0599425Y0402883D01*
X0599425Y0403481D02*
X0563992Y0403481D01*
X0563992Y0404080D02*
X0599425Y0404080D01*
X0599425Y0404678D02*
X0563992Y0404678D01*
X0563992Y0405277D02*
X0599425Y0405277D01*
X0599425Y0405875D02*
X0563992Y0405875D01*
X0563992Y0406474D02*
X0599425Y0406474D01*
X0599425Y0407073D02*
X0563992Y0407073D01*
X0563992Y0407671D02*
X0599425Y0407671D01*
X0599425Y0408270D02*
X0563992Y0408270D01*
X0563992Y0408868D02*
X0599425Y0408868D01*
X0599425Y0409467D02*
X0563992Y0409467D01*
X0563992Y0410065D02*
X0599425Y0410065D01*
X0599425Y0410664D02*
X0563992Y0410664D01*
X0563992Y0411262D02*
X0599425Y0411262D01*
X0599425Y0411861D02*
X0563992Y0411861D01*
X0563992Y0412459D02*
X0599425Y0412459D01*
X0599425Y0413058D02*
X0563992Y0413058D01*
X0563992Y0413656D02*
X0599425Y0413656D01*
X0599425Y0414255D02*
X0563992Y0414255D01*
X0563992Y0414853D02*
X0599425Y0414853D01*
X0599425Y0415452D02*
X0563992Y0415452D01*
X0563992Y0416050D02*
X0599425Y0416050D01*
X0599425Y0416649D02*
X0563992Y0416649D01*
X0563992Y0417247D02*
X0599425Y0417247D01*
X0599425Y0417846D02*
X0563992Y0417846D01*
X0563992Y0418444D02*
X0599425Y0418444D01*
X0599425Y0419043D02*
X0563992Y0419043D01*
X0563992Y0419641D02*
X0599425Y0419641D01*
X0599425Y0420240D02*
X0563992Y0420240D01*
X0563992Y0420838D02*
X0599425Y0420838D01*
X0599425Y0421437D02*
X0563992Y0421437D01*
X0563992Y0422035D02*
X0599425Y0422035D01*
X0599425Y0422634D02*
X0563992Y0422634D01*
X0563992Y0423232D02*
X0599425Y0423232D01*
X0599425Y0423831D02*
X0563992Y0423831D01*
X0563992Y0424429D02*
X0599425Y0424429D01*
X0599425Y0425028D02*
X0563992Y0425028D01*
X0563992Y0425626D02*
X0599425Y0425626D01*
X0599425Y0426225D02*
X0563992Y0426225D01*
X0563992Y0426823D02*
X0599425Y0426823D01*
X0599425Y0427422D02*
X0563992Y0427422D01*
X0563992Y0428020D02*
X0599425Y0428020D01*
X0599425Y0428619D02*
X0563992Y0428619D01*
X0563992Y0429217D02*
X0599425Y0429217D01*
X0599425Y0429816D02*
X0563992Y0429816D01*
X0563992Y0430414D02*
X0599425Y0430414D01*
X0599425Y0431013D02*
X0563992Y0431013D01*
X0563992Y0431611D02*
X0599425Y0431611D01*
X0599425Y0432210D02*
X0563992Y0432210D01*
X0563992Y0432808D02*
X0599425Y0432808D01*
X0599425Y0433407D02*
X0563992Y0433407D01*
X0563992Y0434006D02*
X0599425Y0434006D01*
X0599425Y0434604D02*
X0563992Y0434604D01*
X0563992Y0435203D02*
X0599425Y0435203D01*
X0599425Y0435801D02*
X0563992Y0435801D01*
X0563992Y0436400D02*
X0599425Y0436400D01*
X0599425Y0436998D02*
X0563992Y0436998D01*
X0563992Y0437597D02*
X0599425Y0437597D01*
X0599425Y0438195D02*
X0563992Y0438195D01*
X0563992Y0438794D02*
X0599425Y0438794D01*
X0599425Y0439392D02*
X0563992Y0439392D01*
X0563992Y0439991D02*
X0599425Y0439991D01*
X0599425Y0440589D02*
X0563992Y0440589D01*
X0563992Y0441188D02*
X0599425Y0441188D01*
X0599425Y0441786D02*
X0563992Y0441786D01*
X0563992Y0442385D02*
X0599425Y0442385D01*
X0599425Y0442983D02*
X0563992Y0442983D01*
X0563992Y0443582D02*
X0599425Y0443582D01*
X0599425Y0444180D02*
X0563992Y0444180D01*
X0563992Y0444779D02*
X0599425Y0444779D01*
X0599425Y0445377D02*
X0563992Y0445377D01*
X0563992Y0445976D02*
X0599425Y0445976D01*
X0599425Y0446574D02*
X0563992Y0446574D01*
X0563992Y0447173D02*
X0599425Y0447173D01*
X0599425Y0447771D02*
X0563992Y0447771D01*
X0563992Y0448370D02*
X0599425Y0448370D01*
X0599425Y0448968D02*
X0563992Y0448968D01*
X0563992Y0449567D02*
X0599425Y0449567D01*
X0599425Y0450165D02*
X0563992Y0450165D01*
X0563992Y0450764D02*
X0599425Y0450764D01*
X0599425Y0451362D02*
X0563992Y0451362D01*
X0563992Y0451961D02*
X0599425Y0451961D01*
X0599425Y0452559D02*
X0563992Y0452559D01*
X0563992Y0453158D02*
X0599425Y0453158D01*
X0599425Y0453756D02*
X0563992Y0453756D01*
X0563992Y0454355D02*
X0599425Y0454355D01*
X0599425Y0454953D02*
X0563992Y0454953D01*
X0563992Y0455552D02*
X0599425Y0455552D01*
X0599425Y0456150D02*
X0563992Y0456150D01*
X0563992Y0456749D02*
X0599425Y0456749D01*
X0599425Y0457347D02*
X0563992Y0457347D01*
X0563992Y0457946D02*
X0599425Y0457946D01*
X0599425Y0458544D02*
X0563992Y0458544D01*
X0563992Y0459143D02*
X0599425Y0459143D01*
X0599425Y0459741D02*
X0563992Y0459741D01*
X0563992Y0460340D02*
X0599425Y0460340D01*
X0599425Y0460939D02*
X0563992Y0460939D01*
X0563992Y0461537D02*
X0599425Y0461537D01*
X0599425Y0462136D02*
X0563992Y0462136D01*
X0563992Y0462734D02*
X0599425Y0462734D01*
X0599425Y0463333D02*
X0563992Y0463333D01*
X0563992Y0463931D02*
X0599425Y0463931D01*
X0599425Y0464530D02*
X0563992Y0464530D01*
X0563992Y0465128D02*
X0599425Y0465128D01*
X0599425Y0465727D02*
X0563992Y0465727D01*
X0563992Y0466325D02*
X0599425Y0466325D01*
X0599425Y0466924D02*
X0563992Y0466924D01*
X0563992Y0467522D02*
X0599425Y0467522D01*
X0599425Y0468121D02*
X0563992Y0468121D01*
X0563992Y0468719D02*
X0599425Y0468719D01*
X0599425Y0469318D02*
X0563992Y0469318D01*
X0563992Y0469916D02*
X0599425Y0469916D01*
X0599425Y0470515D02*
X0563992Y0470515D01*
X0563992Y0471113D02*
X0599425Y0471113D01*
X0599425Y0471712D02*
X0563992Y0471712D01*
X0563992Y0472310D02*
X0599425Y0472310D01*
X0599425Y0472909D02*
X0563992Y0472909D01*
X0563992Y0473507D02*
X0599425Y0473507D01*
X0599425Y0474106D02*
X0563992Y0474106D01*
X0563992Y0474704D02*
X0599425Y0474704D01*
X0599425Y0475303D02*
X0563992Y0475303D01*
X0563992Y0475901D02*
X0599425Y0475901D01*
X0599425Y0476500D02*
X0563992Y0476500D01*
X0563992Y0477098D02*
X0599425Y0477098D01*
X0599425Y0477697D02*
X0563992Y0477697D01*
X0563992Y0478295D02*
X0599425Y0478295D01*
X0599425Y0478894D02*
X0563992Y0478894D01*
X0563992Y0479492D02*
X0599425Y0479492D01*
X0599425Y0480091D02*
X0563992Y0480091D01*
X0563992Y0480689D02*
X0599425Y0480689D01*
X0599425Y0481288D02*
X0563992Y0481288D01*
X0563992Y0481886D02*
X0599425Y0481886D01*
X0599425Y0482485D02*
X0563992Y0482485D01*
X0563992Y0483083D02*
X0599425Y0483083D01*
X0599425Y0483682D02*
X0563992Y0483682D01*
X0563992Y0484280D02*
X0599425Y0484280D01*
X0599425Y0484879D02*
X0563992Y0484879D01*
X0563992Y0485477D02*
X0599425Y0485477D01*
X0599425Y0486076D02*
X0563992Y0486076D01*
X0563992Y0486675D02*
X0599425Y0486675D01*
X0599425Y0487273D02*
X0563992Y0487273D01*
X0563992Y0487872D02*
X0599425Y0487872D01*
X0599425Y0488470D02*
X0563992Y0488470D01*
X0563992Y0489069D02*
X0599425Y0489069D01*
X0599425Y0489667D02*
X0563992Y0489667D01*
X0563992Y0490266D02*
X0599425Y0490266D01*
X0599425Y0490864D02*
X0563992Y0490864D01*
X0563992Y0491463D02*
X0599425Y0491463D01*
X0599425Y0492061D02*
X0563992Y0492061D01*
X0563992Y0492660D02*
X0599425Y0492660D01*
X0599425Y0493258D02*
X0563992Y0493258D01*
X0563992Y0493857D02*
X0599425Y0493857D01*
X0599425Y0494455D02*
X0563992Y0494455D01*
X0563992Y0495054D02*
X0599425Y0495054D01*
X0599425Y0495652D02*
X0563992Y0495652D01*
X0563992Y0496251D02*
X0599425Y0496251D01*
X0599425Y0496849D02*
X0563992Y0496849D01*
X0563992Y0497448D02*
X0599425Y0497448D01*
X0599425Y0498046D02*
X0563992Y0498046D01*
X0563992Y0498645D02*
X0599425Y0498645D01*
X0599425Y0499243D02*
X0563992Y0499243D01*
X0563992Y0499842D02*
X0599425Y0499842D01*
X0599425Y0500440D02*
X0563992Y0500440D01*
X0563992Y0501039D02*
X0599425Y0501039D01*
X0599425Y0501637D02*
X0563992Y0501637D01*
X0563992Y0502236D02*
X0599425Y0502236D01*
X0599425Y0502834D02*
X0563992Y0502834D01*
X0563992Y0503433D02*
X0599425Y0503433D01*
X0599425Y0504031D02*
X0563992Y0504031D01*
X0563992Y0504630D02*
X0599425Y0504630D01*
X0599425Y0505228D02*
X0563992Y0505228D01*
X0563992Y0505827D02*
X0599425Y0505827D01*
X0599425Y0506425D02*
X0563992Y0506425D01*
X0563992Y0507024D02*
X0599425Y0507024D01*
X0599425Y0507622D02*
X0563992Y0507622D01*
X0563992Y0508221D02*
X0599425Y0508221D01*
X0599425Y0508819D02*
X0563992Y0508819D01*
X0563992Y0509418D02*
X0599425Y0509418D01*
X0599425Y0510016D02*
X0563992Y0510016D01*
X0563992Y0510615D02*
X0599425Y0510615D01*
X0599425Y0511213D02*
X0563992Y0511213D01*
X0563992Y0511812D02*
X0599425Y0511812D01*
X0599425Y0512410D02*
X0563992Y0512410D01*
X0563992Y0513009D02*
X0599425Y0513009D01*
X0599425Y0513608D02*
X0563992Y0513608D01*
X0563992Y0514206D02*
X0599425Y0514206D01*
X0599425Y0514805D02*
X0563992Y0514805D01*
X0563992Y0515403D02*
X0599425Y0515403D01*
X0599425Y0516002D02*
X0563992Y0516002D01*
X0563992Y0516600D02*
X0599425Y0516600D01*
X0599425Y0517199D02*
X0563992Y0517199D01*
X0563992Y0517797D02*
X0599425Y0517797D01*
X0599425Y0518396D02*
X0563992Y0518396D01*
X0563992Y0518994D02*
X0599425Y0518994D01*
X0599425Y0519593D02*
X0563992Y0519593D01*
X0563992Y0520191D02*
X0599425Y0520191D01*
X0599425Y0520790D02*
X0563992Y0520790D01*
X0563992Y0521388D02*
X0599425Y0521388D01*
X0599425Y0521987D02*
X0563992Y0521987D01*
X0563992Y0522585D02*
X0599425Y0522585D01*
X0599425Y0523184D02*
X0563992Y0523184D01*
X0563992Y0523782D02*
X0599425Y0523782D01*
X0599425Y0524381D02*
X0563992Y0524381D01*
X0563992Y0524979D02*
X0599425Y0524979D01*
X0599425Y0525578D02*
X0563992Y0525578D01*
X0563992Y0526176D02*
X0599425Y0526176D01*
X0599425Y0526775D02*
X0563992Y0526775D01*
X0563992Y0527373D02*
X0599425Y0527373D01*
X0599425Y0527972D02*
X0563992Y0527972D01*
X0563992Y0528570D02*
X0599425Y0528570D01*
X0599425Y0529169D02*
X0563992Y0529169D01*
X0563992Y0529767D02*
X0599425Y0529767D01*
X0599425Y0530366D02*
X0563992Y0530366D01*
X0563992Y0530964D02*
X0599425Y0530964D01*
X0599425Y0531563D02*
X0563992Y0531563D01*
X0563992Y0532161D02*
X0599425Y0532161D01*
X0599425Y0532760D02*
X0563992Y0532760D01*
X0563992Y0533358D02*
X0599425Y0533358D01*
X0599425Y0533957D02*
X0563992Y0533957D01*
X0563992Y0534555D02*
X0599425Y0534555D01*
X0599425Y0535154D02*
X0563992Y0535154D01*
X0563992Y0535752D02*
X0599425Y0535752D01*
X0599425Y0536351D02*
X0563992Y0536351D01*
X0563992Y0536949D02*
X0599425Y0536949D01*
X0599425Y0537548D02*
X0563992Y0537548D01*
X0563992Y0538146D02*
X0599425Y0538146D01*
X0599425Y0538745D02*
X0563992Y0538745D01*
X0563992Y0539344D02*
X0599425Y0539344D01*
X0599425Y0539942D02*
X0563992Y0539942D01*
X0563992Y0540541D02*
X0599425Y0540541D01*
X0599425Y0541139D02*
X0563992Y0541139D01*
X0563992Y0541738D02*
X0599425Y0541738D01*
X0599425Y0542336D02*
X0563992Y0542336D01*
X0563992Y0542935D02*
X0599425Y0542935D01*
X0599425Y0543533D02*
X0563992Y0543533D01*
X0563992Y0544132D02*
X0599425Y0544132D01*
X0599425Y0544730D02*
X0563992Y0544730D01*
X0563992Y0545329D02*
X0599425Y0545329D01*
X0599425Y0545927D02*
X0563992Y0545927D01*
X0563992Y0546526D02*
X0599425Y0546526D01*
X0599425Y0547124D02*
X0563992Y0547124D01*
X0563992Y0547723D02*
X0599425Y0547723D01*
X0599425Y0548321D02*
X0563992Y0548321D01*
X0563992Y0548920D02*
X0599425Y0548920D01*
X0599425Y0549518D02*
X0563992Y0549518D01*
X0563992Y0550117D02*
X0599425Y0550117D01*
X0599425Y0550715D02*
X0563992Y0550715D01*
X0563992Y0551314D02*
X0599425Y0551314D01*
X0599425Y0551912D02*
X0563992Y0551912D01*
X0563992Y0552511D02*
X0599425Y0552511D01*
X0599425Y0553109D02*
X0563992Y0553109D01*
X0563992Y0553708D02*
X0599425Y0553708D01*
X0599425Y0554306D02*
X0563992Y0554306D01*
X0563992Y0554905D02*
X0599425Y0554905D01*
X0599425Y0555503D02*
X0563992Y0555503D01*
X0563992Y0556102D02*
X0599425Y0556102D01*
X0599425Y0556700D02*
X0563992Y0556700D01*
X0563992Y0557299D02*
X0599425Y0557299D01*
X0599425Y0557897D02*
X0563992Y0557897D01*
X0563992Y0558496D02*
X0599425Y0558496D01*
X0599425Y0559094D02*
X0563992Y0559094D01*
X0563992Y0559693D02*
X0599425Y0559693D01*
X0599425Y0560291D02*
X0563992Y0560291D01*
X0563992Y0560890D02*
X0599425Y0560890D01*
X0599425Y0561488D02*
X0563992Y0561488D01*
X0563992Y0562087D02*
X0599425Y0562087D01*
X0599425Y0562685D02*
X0563992Y0562685D01*
X0563992Y0563284D02*
X0599425Y0563284D01*
X0599425Y0563882D02*
X0563992Y0563882D01*
X0563992Y0564481D02*
X0599425Y0564481D01*
X0599425Y0565079D02*
X0563992Y0565079D01*
X0563992Y0565678D02*
X0599425Y0565678D01*
X0599425Y0566277D02*
X0563992Y0566277D01*
X0563992Y0566875D02*
X0599425Y0566875D01*
X0599425Y0567474D02*
X0563992Y0567474D01*
X0563992Y0568072D02*
X0599425Y0568072D01*
X0599425Y0568671D02*
X0563992Y0568671D01*
X0563992Y0569269D02*
X0599425Y0569269D01*
X0599425Y0569868D02*
X0563992Y0569868D01*
X0563992Y0570466D02*
X0599425Y0570466D01*
X0599425Y0571065D02*
X0563992Y0571065D01*
X0563992Y0571663D02*
X0599425Y0571663D01*
X0599425Y0572262D02*
X0563992Y0572262D01*
X0563992Y0572860D02*
X0599425Y0572860D01*
X0599425Y0573459D02*
X0563992Y0573459D01*
X0563992Y0574057D02*
X0599425Y0574057D01*
X0599425Y0574656D02*
X0563992Y0574656D01*
X0563992Y0575254D02*
X0599425Y0575254D01*
X0599425Y0575853D02*
X0563992Y0575853D01*
X0563992Y0576451D02*
X0599425Y0576451D01*
X0599425Y0577050D02*
X0563992Y0577050D01*
X0563992Y0577648D02*
X0599425Y0577648D01*
X0599425Y0578247D02*
X0563992Y0578247D01*
X0563992Y0578845D02*
X0599425Y0578845D01*
X0599425Y0579444D02*
X0563992Y0579444D01*
X0563992Y0580042D02*
X0599425Y0580042D01*
X0599425Y0580641D02*
X0563992Y0580641D01*
X0563992Y0581239D02*
X0599425Y0581239D01*
X0599425Y0581838D02*
X0563992Y0581838D01*
X0563992Y0582436D02*
X0599425Y0582436D01*
X0599425Y0583035D02*
X0563992Y0583035D01*
X0563992Y0583633D02*
X0599425Y0583633D01*
X0599425Y0584232D02*
X0563992Y0584232D01*
X0563992Y0584830D02*
X0599425Y0584830D01*
X0599425Y0585429D02*
X0563992Y0585429D01*
X0563992Y0586027D02*
X0599425Y0586027D01*
X0599425Y0586626D02*
X0563992Y0586626D01*
X0563992Y0587224D02*
X0599425Y0587224D01*
X0599425Y0587823D02*
X0563992Y0587823D01*
X0563992Y0588421D02*
X0599425Y0588421D01*
X0599425Y0589020D02*
X0563992Y0589020D01*
X0563992Y0589618D02*
X0599425Y0589618D01*
X0599425Y0590217D02*
X0563992Y0590217D01*
X0563992Y0590815D02*
X0599425Y0590815D01*
X0599425Y0591414D02*
X0563992Y0591414D01*
X0563992Y0592013D02*
X0599425Y0592013D01*
X0599425Y0592611D02*
X0563992Y0592611D01*
X0563992Y0593210D02*
X0599425Y0593210D01*
X0599425Y0593808D02*
X0563992Y0593808D01*
X0563992Y0594407D02*
X0599425Y0594407D01*
X0599425Y0595005D02*
X0563992Y0595005D01*
X0563992Y0595604D02*
X0599425Y0595604D01*
X0599425Y0596202D02*
X0563992Y0596202D01*
X0563992Y0596801D02*
X0599425Y0596801D01*
X0599425Y0597399D02*
X0563992Y0597399D01*
X0563992Y0597998D02*
X0599425Y0597998D01*
X0599425Y0598596D02*
X0563992Y0598596D01*
X0563992Y0599195D02*
X0599425Y0599195D01*
X0599425Y0599793D02*
X0563992Y0599793D01*
X0563992Y0600392D02*
X0599425Y0600392D01*
X0599425Y0600990D02*
X0563992Y0600990D01*
X0563992Y0601589D02*
X0599425Y0601589D01*
X0599425Y0602187D02*
X0563992Y0602187D01*
X0563992Y0602786D02*
X0599425Y0602786D01*
X0599425Y0603384D02*
X0563992Y0603384D01*
X0563992Y0603983D02*
X0599425Y0603983D01*
X0599425Y0604581D02*
X0563992Y0604581D01*
X0563992Y0605180D02*
X0599425Y0605180D01*
X0599425Y0605778D02*
X0563992Y0605778D01*
X0563992Y0606377D02*
X0599425Y0606377D01*
X0599425Y0606975D02*
X0563992Y0606975D01*
X0563992Y0607574D02*
X0599425Y0607574D01*
X0599425Y0608172D02*
X0563992Y0608172D01*
X0563992Y0608771D02*
X0599425Y0608771D01*
X0599425Y0609369D02*
X0563992Y0609369D01*
X0563992Y0609968D02*
X0599425Y0609968D01*
X0599425Y0610566D02*
X0563992Y0610566D01*
X0563992Y0611165D02*
X0599425Y0611165D01*
X0599425Y0611763D02*
X0563992Y0611763D01*
X0563992Y0612362D02*
X0599425Y0612362D01*
X0599425Y0612960D02*
X0563992Y0612960D01*
X0563992Y0613559D02*
X0599425Y0613559D01*
X0599425Y0614157D02*
X0563992Y0614157D01*
X0563992Y0614756D02*
X0599425Y0614756D01*
X0599425Y0615354D02*
X0563992Y0615354D01*
X0563992Y0615953D02*
X0599425Y0615953D01*
X0599425Y0616551D02*
X0563992Y0616551D01*
X0563992Y0617150D02*
X0599425Y0617150D01*
X0599425Y0617748D02*
X0563992Y0617748D01*
X0563992Y0618347D02*
X0599425Y0618347D01*
X0599425Y0618946D02*
X0563992Y0618946D01*
X0563992Y0619544D02*
X0599425Y0619544D01*
X0599425Y0620143D02*
X0563992Y0620143D01*
X0563992Y0620741D02*
X0599425Y0620741D01*
X0599425Y0621340D02*
X0563992Y0621340D01*
X0563992Y0621938D02*
X0599425Y0621938D01*
X0599425Y0622537D02*
X0563992Y0622537D01*
X0563992Y0623135D02*
X0599425Y0623135D01*
X0599425Y0623734D02*
X0563992Y0623734D01*
X0563992Y0624332D02*
X0599425Y0624332D01*
X0599425Y0624931D02*
X0563992Y0624931D01*
X0563992Y0625529D02*
X0599425Y0625529D01*
X0599425Y0626128D02*
X0563992Y0626128D01*
X0563992Y0626726D02*
X0599425Y0626726D01*
X0599425Y0627325D02*
X0563992Y0627325D01*
X0563992Y0627923D02*
X0599425Y0627923D01*
X0599425Y0628522D02*
X0060055Y0628522D01*
X0060055Y0629120D02*
X0599425Y0629120D01*
X0599425Y0629719D02*
X0060055Y0629719D01*
X0060055Y0630317D02*
X0599425Y0630317D01*
X0599425Y0630916D02*
X0060055Y0630916D01*
X0060055Y0631514D02*
X0599425Y0631514D01*
X0599425Y0632113D02*
X0060055Y0632113D01*
X0060055Y0632711D02*
X0599425Y0632711D01*
X0599425Y0633310D02*
X0091964Y0633310D01*
X0092425Y0633433D02*
X0093491Y0633875D01*
X0094490Y0634452D01*
X0095405Y0635154D01*
X0096221Y0635970D01*
X0096923Y0636885D01*
X0097500Y0637884D01*
X0097941Y0638950D01*
X0098240Y0640064D01*
X0098390Y0641207D01*
X0098390Y0641484D01*
X0089890Y0641484D01*
X0089890Y0632984D01*
X0090167Y0632984D01*
X0091311Y0633135D01*
X0092425Y0633433D01*
X0093549Y0633908D02*
X0599425Y0633908D01*
X0599425Y0634507D02*
X0094562Y0634507D01*
X0095342Y0635105D02*
X0599425Y0635105D01*
X0599425Y0635704D02*
X0095955Y0635704D01*
X0096476Y0636302D02*
X0599425Y0636302D01*
X0599425Y0636901D02*
X0096932Y0636901D01*
X0097278Y0637499D02*
X0599425Y0637499D01*
X0599425Y0638098D02*
X0097588Y0638098D01*
X0097836Y0638696D02*
X0599425Y0638696D01*
X0599425Y0639295D02*
X0098034Y0639295D01*
X0098194Y0639893D02*
X0599425Y0639893D01*
X0599425Y0640492D02*
X0098296Y0640492D01*
X0098375Y0641090D02*
X0599425Y0641090D01*
X0599425Y0641689D02*
X0089890Y0641689D01*
X0089890Y0641484D02*
X0089890Y0642084D01*
X0098390Y0642084D01*
X0098390Y0642361D01*
X0098240Y0643505D01*
X0097941Y0644619D01*
X0097500Y0645685D01*
X0096923Y0646684D01*
X0096221Y0647599D01*
X0095405Y0648415D01*
X0094490Y0649117D01*
X0093491Y0649694D01*
X0092425Y0650135D01*
X0091311Y0650434D01*
X0090167Y0650584D01*
X0089890Y0650584D01*
X0089890Y0642084D01*
X0089290Y0642084D01*
X0089290Y0641484D01*
X0089890Y0641484D01*
X0089890Y0641090D02*
X0089290Y0641090D01*
X0089290Y0641484D02*
X0089290Y0632984D01*
X0089013Y0632984D01*
X0087870Y0633135D01*
X0086755Y0633433D01*
X0085690Y0633875D01*
X0084691Y0634452D01*
X0083775Y0635154D01*
X0082960Y0635970D01*
X0082258Y0636885D01*
X0081681Y0637884D01*
X0081239Y0638950D01*
X0080941Y0640064D01*
X0080790Y0641207D01*
X0080790Y0641484D01*
X0089290Y0641484D01*
X0089290Y0641689D02*
X0070190Y0641689D01*
X0070190Y0641484D02*
X0070190Y0642084D01*
X0078690Y0642084D01*
X0078690Y0642361D01*
X0078540Y0643505D01*
X0078241Y0644619D01*
X0077800Y0645685D01*
X0077223Y0646684D01*
X0076521Y0647599D01*
X0075705Y0648415D01*
X0074790Y0649117D01*
X0073791Y0649694D01*
X0072725Y0650135D01*
X0071611Y0650434D01*
X0070467Y0650584D01*
X0070190Y0650584D01*
X0070190Y0642084D01*
X0069590Y0642084D01*
X0069590Y0641484D01*
X0070190Y0641484D01*
X0070190Y0632984D01*
X0070467Y0632984D01*
X0071611Y0633135D01*
X0072725Y0633433D01*
X0073791Y0633875D01*
X0074790Y0634452D01*
X0075705Y0635154D01*
X0076521Y0635970D01*
X0077223Y0636885D01*
X0077800Y0637884D01*
X0078241Y0638950D01*
X0078540Y0640064D01*
X0078690Y0641207D01*
X0078690Y0641484D01*
X0070190Y0641484D01*
X0070190Y0641090D02*
X0069590Y0641090D01*
X0069590Y0641484D02*
X0069590Y0632984D01*
X0069313Y0632984D01*
X0068170Y0633135D01*
X0067055Y0633433D01*
X0065990Y0633875D01*
X0064991Y0634452D01*
X0064075Y0635154D01*
X0063260Y0635970D01*
X0062558Y0636885D01*
X0061981Y0637884D01*
X0061539Y0638950D01*
X0061241Y0640064D01*
X0061090Y0641207D01*
X0061090Y0641484D01*
X0069590Y0641484D01*
X0069590Y0641689D02*
X0060055Y0641689D01*
X0060055Y0642287D02*
X0061090Y0642287D01*
X0061090Y0642361D02*
X0061090Y0642084D01*
X0069590Y0642084D01*
X0069590Y0650584D01*
X0069313Y0650584D01*
X0068170Y0650434D01*
X0067055Y0650135D01*
X0065990Y0649694D01*
X0064991Y0649117D01*
X0064075Y0648415D01*
X0063260Y0647599D01*
X0062558Y0646684D01*
X0061981Y0645685D01*
X0061539Y0644619D01*
X0061241Y0643505D01*
X0061090Y0642361D01*
X0061159Y0642886D02*
X0060055Y0642886D01*
X0060055Y0643484D02*
X0061238Y0643484D01*
X0061396Y0644083D02*
X0060055Y0644083D01*
X0060055Y0644681D02*
X0061565Y0644681D01*
X0061813Y0645280D02*
X0060055Y0645280D01*
X0060055Y0645879D02*
X0062093Y0645879D01*
X0062438Y0646477D02*
X0060055Y0646477D01*
X0060055Y0647076D02*
X0062858Y0647076D01*
X0063335Y0647674D02*
X0060055Y0647674D01*
X0060055Y0648273D02*
X0063933Y0648273D01*
X0064670Y0648871D02*
X0060055Y0648871D01*
X0060055Y0649470D02*
X0065602Y0649470D01*
X0066894Y0650068D02*
X0060055Y0650068D01*
X0060055Y0650667D02*
X0599425Y0650667D01*
X0599425Y0651265D02*
X0060055Y0651265D01*
X0069590Y0650068D02*
X0070190Y0650068D01*
X0070190Y0649470D02*
X0069590Y0649470D01*
X0069590Y0648871D02*
X0070190Y0648871D01*
X0070190Y0648273D02*
X0069590Y0648273D01*
X0069590Y0647674D02*
X0070190Y0647674D01*
X0070190Y0647076D02*
X0069590Y0647076D01*
X0069590Y0646477D02*
X0070190Y0646477D01*
X0070190Y0645879D02*
X0069590Y0645879D01*
X0069590Y0645280D02*
X0070190Y0645280D01*
X0070190Y0644681D02*
X0069590Y0644681D01*
X0069590Y0644083D02*
X0070190Y0644083D01*
X0070190Y0643484D02*
X0069590Y0643484D01*
X0069590Y0642886D02*
X0070190Y0642886D01*
X0070190Y0642287D02*
X0069590Y0642287D01*
X0069590Y0640492D02*
X0070190Y0640492D01*
X0070190Y0639893D02*
X0069590Y0639893D01*
X0069590Y0639295D02*
X0070190Y0639295D01*
X0070190Y0638696D02*
X0069590Y0638696D01*
X0069590Y0638098D02*
X0070190Y0638098D01*
X0070190Y0637499D02*
X0069590Y0637499D01*
X0069590Y0636901D02*
X0070190Y0636901D01*
X0070190Y0636302D02*
X0069590Y0636302D01*
X0069590Y0635704D02*
X0070190Y0635704D01*
X0070190Y0635105D02*
X0069590Y0635105D01*
X0069590Y0634507D02*
X0070190Y0634507D01*
X0070190Y0633908D02*
X0069590Y0633908D01*
X0069590Y0633310D02*
X0070190Y0633310D01*
X0072264Y0633310D02*
X0087217Y0633310D01*
X0085632Y0633908D02*
X0073849Y0633908D01*
X0074862Y0634507D02*
X0084619Y0634507D01*
X0083839Y0635105D02*
X0075642Y0635105D01*
X0076255Y0635704D02*
X0083225Y0635704D01*
X0082704Y0636302D02*
X0076776Y0636302D01*
X0077232Y0636901D02*
X0082248Y0636901D01*
X0081903Y0637499D02*
X0077578Y0637499D01*
X0077888Y0638098D02*
X0081592Y0638098D01*
X0081344Y0638696D02*
X0078136Y0638696D01*
X0078334Y0639295D02*
X0081147Y0639295D01*
X0080986Y0639893D02*
X0078494Y0639893D01*
X0078596Y0640492D02*
X0080884Y0640492D01*
X0080806Y0641090D02*
X0078675Y0641090D01*
X0078690Y0642287D02*
X0080790Y0642287D01*
X0080790Y0642361D02*
X0080790Y0642084D01*
X0089290Y0642084D01*
X0089290Y0650584D01*
X0089013Y0650584D01*
X0087870Y0650434D01*
X0086755Y0650135D01*
X0085690Y0649694D01*
X0084691Y0649117D01*
X0083775Y0648415D01*
X0082960Y0647599D01*
X0082258Y0646684D01*
X0081681Y0645685D01*
X0081239Y0644619D01*
X0080941Y0643505D01*
X0080790Y0642361D01*
X0080859Y0642886D02*
X0078621Y0642886D01*
X0078542Y0643484D02*
X0080938Y0643484D01*
X0081096Y0644083D02*
X0078385Y0644083D01*
X0078215Y0644681D02*
X0081265Y0644681D01*
X0081513Y0645280D02*
X0077967Y0645280D01*
X0077688Y0645879D02*
X0081793Y0645879D01*
X0082138Y0646477D02*
X0077342Y0646477D01*
X0076922Y0647076D02*
X0082558Y0647076D01*
X0083035Y0647674D02*
X0076445Y0647674D01*
X0075847Y0648273D02*
X0083633Y0648273D01*
X0084370Y0648871D02*
X0075110Y0648871D01*
X0074179Y0649470D02*
X0085302Y0649470D01*
X0086594Y0650068D02*
X0072887Y0650068D01*
X0061106Y0641090D02*
X0060055Y0641090D01*
X0060055Y0640492D02*
X0061184Y0640492D01*
X0061286Y0639893D02*
X0060055Y0639893D01*
X0060055Y0639295D02*
X0061447Y0639295D01*
X0061644Y0638696D02*
X0060055Y0638696D01*
X0060055Y0638098D02*
X0061892Y0638098D01*
X0062203Y0637499D02*
X0060055Y0637499D01*
X0060055Y0636901D02*
X0062548Y0636901D01*
X0063004Y0636302D02*
X0060055Y0636302D01*
X0060055Y0635704D02*
X0063525Y0635704D01*
X0064139Y0635105D02*
X0060055Y0635105D01*
X0060055Y0634507D02*
X0064919Y0634507D01*
X0065932Y0633908D02*
X0060055Y0633908D01*
X0060055Y0633310D02*
X0067517Y0633310D01*
X0060055Y0627923D02*
X0209661Y0627923D01*
X0209653Y0627325D02*
X0060055Y0627325D01*
X0060055Y0626726D02*
X0209645Y0626726D01*
X0209638Y0626128D02*
X0060055Y0626128D01*
X0060055Y0625529D02*
X0209630Y0625529D01*
X0209622Y0624931D02*
X0060055Y0624931D01*
X0060055Y0624332D02*
X0209615Y0624332D01*
X0209607Y0623734D02*
X0060055Y0623734D01*
X0060055Y0623135D02*
X0209599Y0623135D01*
X0209592Y0622537D02*
X0092419Y0622537D01*
X0092425Y0622535D02*
X0091311Y0622834D01*
X0090167Y0622984D01*
X0089890Y0622984D01*
X0089890Y0614484D01*
X0098390Y0614484D01*
X0098390Y0614761D01*
X0098240Y0615905D01*
X0097941Y0617019D01*
X0097500Y0618085D01*
X0096923Y0619084D01*
X0096221Y0619999D01*
X0095405Y0620815D01*
X0094490Y0621517D01*
X0093491Y0622094D01*
X0092425Y0622535D01*
X0093760Y0621938D02*
X0209584Y0621938D01*
X0209576Y0621340D02*
X0094721Y0621340D01*
X0095478Y0620741D02*
X0209569Y0620741D01*
X0209561Y0620143D02*
X0096077Y0620143D01*
X0096570Y0619544D02*
X0209553Y0619544D01*
X0209546Y0618946D02*
X0097003Y0618946D01*
X0097348Y0618347D02*
X0209538Y0618347D01*
X0209530Y0617748D02*
X0097639Y0617748D01*
X0097887Y0617150D02*
X0209523Y0617150D01*
X0209515Y0616551D02*
X0098066Y0616551D01*
X0098227Y0615953D02*
X0209507Y0615953D01*
X0209500Y0615354D02*
X0098312Y0615354D01*
X0098390Y0614756D02*
X0209492Y0614756D01*
X0209484Y0614157D02*
X0089890Y0614157D01*
X0089890Y0613884D02*
X0089890Y0614484D01*
X0089290Y0614484D01*
X0089290Y0613884D01*
X0089890Y0613884D01*
X0089890Y0605384D01*
X0090167Y0605384D01*
X0091311Y0605535D01*
X0092425Y0605833D01*
X0093491Y0606275D01*
X0094490Y0606852D01*
X0095405Y0607554D01*
X0096221Y0608370D01*
X0096923Y0609285D01*
X0097500Y0610284D01*
X0097941Y0611350D01*
X0098240Y0612464D01*
X0098390Y0613607D01*
X0098390Y0613884D01*
X0089890Y0613884D01*
X0089890Y0613559D02*
X0089290Y0613559D01*
X0089290Y0613884D02*
X0089290Y0605384D01*
X0089013Y0605384D01*
X0087870Y0605535D01*
X0086755Y0605833D01*
X0085690Y0606275D01*
X0084691Y0606852D01*
X0083775Y0607554D01*
X0082960Y0608370D01*
X0082258Y0609285D01*
X0081681Y0610284D01*
X0081239Y0611350D01*
X0080941Y0612464D01*
X0080790Y0613607D01*
X0080790Y0613884D01*
X0089290Y0613884D01*
X0089290Y0614157D02*
X0070190Y0614157D01*
X0070190Y0613884D02*
X0070190Y0614484D01*
X0078690Y0614484D01*
X0078690Y0614761D01*
X0078540Y0615905D01*
X0078241Y0617019D01*
X0077800Y0618085D01*
X0077223Y0619084D01*
X0076521Y0619999D01*
X0075705Y0620815D01*
X0074790Y0621517D01*
X0073791Y0622094D01*
X0072725Y0622535D01*
X0071611Y0622834D01*
X0070467Y0622984D01*
X0070190Y0622984D01*
X0070190Y0614484D01*
X0069590Y0614484D01*
X0069590Y0613884D01*
X0070190Y0613884D01*
X0070190Y0605384D01*
X0070467Y0605384D01*
X0071611Y0605535D01*
X0072725Y0605833D01*
X0073791Y0606275D01*
X0074790Y0606852D01*
X0075705Y0607554D01*
X0076521Y0608370D01*
X0077223Y0609285D01*
X0077800Y0610284D01*
X0078241Y0611350D01*
X0078540Y0612464D01*
X0078690Y0613607D01*
X0078690Y0613884D01*
X0070190Y0613884D01*
X0070190Y0613559D02*
X0069590Y0613559D01*
X0069590Y0613884D02*
X0069590Y0605384D01*
X0069313Y0605384D01*
X0068170Y0605535D01*
X0067055Y0605833D01*
X0065990Y0606275D01*
X0064991Y0606852D01*
X0064075Y0607554D01*
X0063260Y0608370D01*
X0062558Y0609285D01*
X0061981Y0610284D01*
X0061539Y0611350D01*
X0061241Y0612464D01*
X0061090Y0613607D01*
X0061090Y0613884D01*
X0069590Y0613884D01*
X0069590Y0614157D02*
X0060055Y0614157D01*
X0060055Y0613559D02*
X0061097Y0613559D01*
X0061175Y0612960D02*
X0060055Y0612960D01*
X0060055Y0612362D02*
X0061268Y0612362D01*
X0061428Y0611763D02*
X0060055Y0611763D01*
X0060055Y0611165D02*
X0061616Y0611165D01*
X0061864Y0610566D02*
X0060055Y0610566D01*
X0060055Y0609968D02*
X0062163Y0609968D01*
X0062509Y0609369D02*
X0060055Y0609369D01*
X0060055Y0608771D02*
X0062952Y0608771D01*
X0063457Y0608172D02*
X0060055Y0608172D01*
X0060055Y0607574D02*
X0064056Y0607574D01*
X0064829Y0606975D02*
X0060055Y0606975D01*
X0060055Y0606377D02*
X0065813Y0606377D01*
X0067261Y0605778D02*
X0060055Y0605778D01*
X0060055Y0605180D02*
X0209369Y0605180D01*
X0209377Y0605778D02*
X0092219Y0605778D01*
X0093667Y0606377D02*
X0209384Y0606377D01*
X0209392Y0606975D02*
X0094651Y0606975D01*
X0095425Y0607574D02*
X0209400Y0607574D01*
X0209407Y0608172D02*
X0096023Y0608172D01*
X0096528Y0608771D02*
X0209415Y0608771D01*
X0209423Y0609369D02*
X0096972Y0609369D01*
X0097317Y0609968D02*
X0209430Y0609968D01*
X0209438Y0610566D02*
X0097617Y0610566D01*
X0097865Y0611165D02*
X0209446Y0611165D01*
X0209453Y0611763D02*
X0098052Y0611763D01*
X0098212Y0612362D02*
X0209461Y0612362D01*
X0209469Y0612960D02*
X0098305Y0612960D01*
X0098384Y0613559D02*
X0209476Y0613559D01*
X0209361Y0604581D02*
X0060055Y0604581D01*
X0069590Y0605778D02*
X0070190Y0605778D01*
X0070190Y0606377D02*
X0069590Y0606377D01*
X0069590Y0606975D02*
X0070190Y0606975D01*
X0070190Y0607574D02*
X0069590Y0607574D01*
X0069590Y0608172D02*
X0070190Y0608172D01*
X0070190Y0608771D02*
X0069590Y0608771D01*
X0069590Y0609369D02*
X0070190Y0609369D01*
X0070190Y0609968D02*
X0069590Y0609968D01*
X0069590Y0610566D02*
X0070190Y0610566D01*
X0070190Y0611165D02*
X0069590Y0611165D01*
X0069590Y0611763D02*
X0070190Y0611763D01*
X0070190Y0612362D02*
X0069590Y0612362D01*
X0069590Y0612960D02*
X0070190Y0612960D01*
X0069590Y0614484D02*
X0061090Y0614484D01*
X0061090Y0614761D01*
X0061241Y0615905D01*
X0061539Y0617019D01*
X0061981Y0618085D01*
X0062558Y0619084D01*
X0063260Y0619999D01*
X0064075Y0620815D01*
X0064991Y0621517D01*
X0065990Y0622094D01*
X0067055Y0622535D01*
X0068170Y0622834D01*
X0069313Y0622984D01*
X0069590Y0622984D01*
X0069590Y0614484D01*
X0069590Y0614756D02*
X0070190Y0614756D01*
X0070190Y0615354D02*
X0069590Y0615354D01*
X0069590Y0615953D02*
X0070190Y0615953D01*
X0070190Y0616551D02*
X0069590Y0616551D01*
X0069590Y0617150D02*
X0070190Y0617150D01*
X0070190Y0617748D02*
X0069590Y0617748D01*
X0069590Y0618347D02*
X0070190Y0618347D01*
X0070190Y0618946D02*
X0069590Y0618946D01*
X0069590Y0619544D02*
X0070190Y0619544D01*
X0070190Y0620143D02*
X0069590Y0620143D01*
X0069590Y0620741D02*
X0070190Y0620741D01*
X0070190Y0621340D02*
X0069590Y0621340D01*
X0069590Y0621938D02*
X0070190Y0621938D01*
X0070190Y0622537D02*
X0069590Y0622537D01*
X0067061Y0622537D02*
X0060055Y0622537D01*
X0060055Y0621938D02*
X0065720Y0621938D01*
X0064760Y0621340D02*
X0060055Y0621340D01*
X0060055Y0620741D02*
X0064002Y0620741D01*
X0063403Y0620143D02*
X0060055Y0620143D01*
X0060055Y0619544D02*
X0062911Y0619544D01*
X0062478Y0618946D02*
X0060055Y0618946D01*
X0060055Y0618347D02*
X0062132Y0618347D01*
X0061841Y0617748D02*
X0060055Y0617748D01*
X0060055Y0617150D02*
X0061594Y0617150D01*
X0061414Y0616551D02*
X0060055Y0616551D01*
X0060055Y0615953D02*
X0061254Y0615953D01*
X0061168Y0615354D02*
X0060055Y0615354D01*
X0060055Y0614756D02*
X0061090Y0614756D01*
X0072719Y0622537D02*
X0086761Y0622537D01*
X0086755Y0622535D02*
X0085690Y0622094D01*
X0084691Y0621517D01*
X0083775Y0620815D01*
X0082960Y0619999D01*
X0082258Y0619084D01*
X0081681Y0618085D01*
X0081239Y0617019D01*
X0080941Y0615905D01*
X0080790Y0614761D01*
X0080790Y0614484D01*
X0089290Y0614484D01*
X0089290Y0622984D01*
X0089013Y0622984D01*
X0087870Y0622834D01*
X0086755Y0622535D01*
X0085420Y0621938D02*
X0074060Y0621938D01*
X0075021Y0621340D02*
X0084460Y0621340D01*
X0083702Y0620741D02*
X0075778Y0620741D01*
X0076377Y0620143D02*
X0083103Y0620143D01*
X0082611Y0619544D02*
X0076870Y0619544D01*
X0077303Y0618946D02*
X0082178Y0618946D01*
X0081832Y0618347D02*
X0077648Y0618347D01*
X0077939Y0617748D02*
X0081541Y0617748D01*
X0081294Y0617150D02*
X0078187Y0617150D01*
X0078366Y0616551D02*
X0081114Y0616551D01*
X0080954Y0615953D02*
X0078527Y0615953D01*
X0078612Y0615354D02*
X0080868Y0615354D01*
X0080790Y0614756D02*
X0078690Y0614756D01*
X0078684Y0613559D02*
X0080797Y0613559D01*
X0080875Y0612960D02*
X0078605Y0612960D01*
X0078512Y0612362D02*
X0080968Y0612362D01*
X0081128Y0611763D02*
X0078352Y0611763D01*
X0078165Y0611165D02*
X0081316Y0611165D01*
X0081564Y0610566D02*
X0077917Y0610566D01*
X0077617Y0609968D02*
X0081863Y0609968D01*
X0082209Y0609369D02*
X0077272Y0609369D01*
X0076828Y0608771D02*
X0082652Y0608771D01*
X0083157Y0608172D02*
X0076323Y0608172D01*
X0075725Y0607574D02*
X0083756Y0607574D01*
X0084529Y0606975D02*
X0074951Y0606975D01*
X0073967Y0606377D02*
X0085513Y0606377D01*
X0086961Y0605778D02*
X0072519Y0605778D01*
X0089290Y0605778D02*
X0089890Y0605778D01*
X0089890Y0606377D02*
X0089290Y0606377D01*
X0089290Y0606975D02*
X0089890Y0606975D01*
X0089890Y0607574D02*
X0089290Y0607574D01*
X0089290Y0608172D02*
X0089890Y0608172D01*
X0089890Y0608771D02*
X0089290Y0608771D01*
X0089290Y0609369D02*
X0089890Y0609369D01*
X0089890Y0609968D02*
X0089290Y0609968D01*
X0089290Y0610566D02*
X0089890Y0610566D01*
X0089890Y0611165D02*
X0089290Y0611165D01*
X0089290Y0611763D02*
X0089890Y0611763D01*
X0089890Y0612362D02*
X0089290Y0612362D01*
X0089290Y0612960D02*
X0089890Y0612960D01*
X0089890Y0614756D02*
X0089290Y0614756D01*
X0089290Y0615354D02*
X0089890Y0615354D01*
X0089890Y0615953D02*
X0089290Y0615953D01*
X0089290Y0616551D02*
X0089890Y0616551D01*
X0089890Y0617150D02*
X0089290Y0617150D01*
X0089290Y0617748D02*
X0089890Y0617748D01*
X0089890Y0618347D02*
X0089290Y0618347D01*
X0089290Y0618946D02*
X0089890Y0618946D01*
X0089890Y0619544D02*
X0089290Y0619544D01*
X0089290Y0620143D02*
X0089890Y0620143D01*
X0089890Y0620741D02*
X0089290Y0620741D01*
X0089290Y0621340D02*
X0089890Y0621340D01*
X0089890Y0621938D02*
X0089290Y0621938D01*
X0089290Y0622537D02*
X0089890Y0622537D01*
X0089890Y0633310D02*
X0089290Y0633310D01*
X0089290Y0633908D02*
X0089890Y0633908D01*
X0089890Y0634507D02*
X0089290Y0634507D01*
X0089290Y0635105D02*
X0089890Y0635105D01*
X0089890Y0635704D02*
X0089290Y0635704D01*
X0089290Y0636302D02*
X0089890Y0636302D01*
X0089890Y0636901D02*
X0089290Y0636901D01*
X0089290Y0637499D02*
X0089890Y0637499D01*
X0089890Y0638098D02*
X0089290Y0638098D01*
X0089290Y0638696D02*
X0089890Y0638696D01*
X0089890Y0639295D02*
X0089290Y0639295D01*
X0089290Y0639893D02*
X0089890Y0639893D01*
X0089890Y0640492D02*
X0089290Y0640492D01*
X0089290Y0642287D02*
X0089890Y0642287D01*
X0089890Y0642886D02*
X0089290Y0642886D01*
X0089290Y0643484D02*
X0089890Y0643484D01*
X0089890Y0644083D02*
X0089290Y0644083D01*
X0089290Y0644681D02*
X0089890Y0644681D01*
X0089890Y0645280D02*
X0089290Y0645280D01*
X0089290Y0645879D02*
X0089890Y0645879D01*
X0089890Y0646477D02*
X0089290Y0646477D01*
X0089290Y0647076D02*
X0089890Y0647076D01*
X0089890Y0647674D02*
X0089290Y0647674D01*
X0089290Y0648273D02*
X0089890Y0648273D01*
X0089890Y0648871D02*
X0089290Y0648871D01*
X0089290Y0649470D02*
X0089890Y0649470D01*
X0089890Y0650068D02*
X0089290Y0650068D01*
X0092587Y0650068D02*
X0599425Y0650068D01*
X0599425Y0649470D02*
X0093879Y0649470D01*
X0094810Y0648871D02*
X0599425Y0648871D01*
X0599425Y0648273D02*
X0095547Y0648273D01*
X0096145Y0647674D02*
X0599425Y0647674D01*
X0599425Y0647076D02*
X0096622Y0647076D01*
X0097042Y0646477D02*
X0599425Y0646477D01*
X0599425Y0645879D02*
X0097388Y0645879D01*
X0097667Y0645280D02*
X0599425Y0645280D01*
X0599425Y0644681D02*
X0097915Y0644681D01*
X0098085Y0644083D02*
X0599425Y0644083D01*
X0599425Y0643484D02*
X0098242Y0643484D01*
X0098321Y0642886D02*
X0599425Y0642886D01*
X0599425Y0642287D02*
X0098390Y0642287D01*
X0166354Y0651864D02*
X0205724Y0651864D01*
X0205724Y0652462D02*
X0166354Y0652462D01*
X0166354Y0653061D02*
X0205724Y0653061D01*
X0205724Y0653659D02*
X0166354Y0653659D01*
X0166354Y0654258D02*
X0205724Y0654258D01*
X0205724Y0654856D02*
X0166354Y0654856D01*
X0166354Y0655455D02*
X0205724Y0655455D01*
X0205724Y0656053D02*
X0166354Y0656053D01*
X0166354Y0656652D02*
X0205724Y0656652D01*
X0205724Y0657250D02*
X0166354Y0657250D01*
X0166354Y0657849D02*
X0205724Y0657849D01*
X0205724Y0658447D02*
X0166354Y0658447D01*
X0166354Y0659046D02*
X0205724Y0659046D01*
X0205724Y0659644D02*
X0166354Y0659644D01*
X0166354Y0660243D02*
X0205724Y0660243D01*
X0205724Y0660841D02*
X0166354Y0660841D01*
X0166354Y0661440D02*
X0205724Y0661440D01*
X0205724Y0662038D02*
X0166354Y0662038D01*
X0166354Y0662637D02*
X0205724Y0662637D01*
X0205724Y0663235D02*
X0166354Y0663235D01*
X0166354Y0663834D02*
X0205724Y0663834D01*
X0205724Y0664432D02*
X0166354Y0664432D01*
X0166354Y0665031D02*
X0205724Y0665031D01*
X0205724Y0665629D02*
X0166354Y0665629D01*
X0166354Y0666228D02*
X0205724Y0666228D01*
X0205724Y0666826D02*
X0166354Y0666826D01*
X0166354Y0667425D02*
X0205724Y0667425D01*
X0205724Y0668023D02*
X0166354Y0668023D01*
X0166354Y0668622D02*
X0205724Y0668622D01*
X0205724Y0669220D02*
X0166354Y0669220D01*
X0166354Y0669819D02*
X0205724Y0669819D01*
X0205724Y0670417D02*
X0166354Y0670417D01*
X0166354Y0671016D02*
X0205724Y0671016D01*
X0205724Y0671615D02*
X0166354Y0671615D01*
X0166354Y0672213D02*
X0205724Y0672213D01*
X0205724Y0672812D02*
X0166354Y0672812D01*
X0166354Y0673410D02*
X0205724Y0673410D01*
X0205724Y0674009D02*
X0166354Y0674009D01*
X0166354Y0674607D02*
X0205724Y0674607D01*
X0205724Y0675206D02*
X0166354Y0675206D01*
X0166354Y0675804D02*
X0205724Y0675804D01*
X0205724Y0676403D02*
X0166354Y0676403D01*
X0166354Y0677001D02*
X0205724Y0677001D01*
X0205724Y0677600D02*
X0166354Y0677600D01*
X0166354Y0678198D02*
X0205724Y0678198D01*
X0205724Y0678797D02*
X0166354Y0678797D01*
X0166354Y0679395D02*
X0205724Y0679395D01*
X0205724Y0679994D02*
X0166354Y0679994D01*
X0166354Y0680592D02*
X0205724Y0680592D01*
X0205724Y0681191D02*
X0166354Y0681191D01*
X0166354Y0681789D02*
X0205724Y0681789D01*
X0205724Y0682388D02*
X0166354Y0682388D01*
X0166354Y0682986D02*
X0205724Y0682986D01*
X0205724Y0683585D02*
X0166354Y0683585D01*
X0166354Y0684183D02*
X0205724Y0684183D01*
X0205724Y0684782D02*
X0166354Y0684782D01*
X0166354Y0685380D02*
X0205724Y0685380D01*
X0205724Y0685979D02*
X0166354Y0685979D01*
X0166354Y0686577D02*
X0205724Y0686577D01*
X0205724Y0687176D02*
X0166354Y0687176D01*
X0166354Y0687774D02*
X0205724Y0687774D01*
X0205724Y0688373D02*
X0166354Y0688373D01*
X0166354Y0688971D02*
X0205724Y0688971D01*
X0205724Y0689570D02*
X0166354Y0689570D01*
X0166354Y0690168D02*
X0205724Y0690168D01*
X0205724Y0690767D02*
X0166354Y0690767D01*
X0166354Y0691365D02*
X0205724Y0691365D01*
X0205724Y0691964D02*
X0166354Y0691964D01*
X0166354Y0692562D02*
X0205724Y0692562D01*
X0205724Y0693161D02*
X0166354Y0693161D01*
X0166354Y0693759D02*
X0205724Y0693759D01*
X0205724Y0694358D02*
X0166354Y0694358D01*
X0166354Y0694956D02*
X0205724Y0694956D01*
X0205724Y0695555D02*
X0166354Y0695555D01*
X0166354Y0696153D02*
X0205724Y0696153D01*
X0205724Y0696752D02*
X0166354Y0696752D01*
X0166354Y0697350D02*
X0205724Y0697350D01*
X0205724Y0697949D02*
X0166354Y0697949D01*
X0166354Y0698548D02*
X0205724Y0698548D01*
X0205724Y0699146D02*
X0166354Y0699146D01*
X0166354Y0699745D02*
X0205724Y0699745D01*
X0205724Y0700343D02*
X0166354Y0700343D01*
X0166354Y0700942D02*
X0205724Y0700942D01*
X0205724Y0701540D02*
X0166354Y0701540D01*
X0166354Y0702139D02*
X0205724Y0702139D01*
X0205724Y0702737D02*
X0166354Y0702737D01*
X0166354Y0703336D02*
X0205724Y0703336D01*
X0205724Y0703934D02*
X0166354Y0703934D01*
X0166354Y0704533D02*
X0205724Y0704533D01*
X0205724Y0705131D02*
X0166354Y0705131D01*
X0166354Y0705730D02*
X0205724Y0705730D01*
X0205724Y0706328D02*
X0166354Y0706328D01*
X0166354Y0706927D02*
X0205724Y0706927D01*
X0205724Y0707525D02*
X0166354Y0707525D01*
X0166354Y0708124D02*
X0205724Y0708124D01*
X0205724Y0708722D02*
X0166354Y0708722D01*
X0166354Y0709321D02*
X0205724Y0709321D01*
X0205724Y0709919D02*
X0166354Y0709919D01*
X0166354Y0710518D02*
X0205724Y0710518D01*
X0205724Y0711116D02*
X0166354Y0711116D01*
X0166354Y0711715D02*
X0205724Y0711715D01*
X0205724Y0712313D02*
X0166354Y0712313D01*
X0166354Y0712912D02*
X0205724Y0712912D01*
X0205724Y0713510D02*
X0203794Y0713510D01*
X0204392Y0714109D02*
X0205724Y0714109D01*
X0205724Y0714707D02*
X0204991Y0714707D01*
X0205589Y0715306D02*
X0205724Y0715306D01*
X0201576Y0715306D02*
X0200976Y0715306D01*
X0200976Y0715904D02*
X0201576Y0715904D01*
X0201576Y0716503D02*
X0200976Y0716503D01*
X0200976Y0717101D02*
X0201576Y0717101D01*
X0201576Y0717700D02*
X0200976Y0717700D01*
X0200976Y0717763D02*
X0200976Y0713063D01*
X0199205Y0713063D01*
X0196276Y0715992D01*
X0196276Y0717763D01*
X0200976Y0717763D01*
X0200976Y0718298D02*
X0196076Y0718298D01*
X0196076Y0717700D02*
X0196276Y0717700D01*
X0196276Y0717101D02*
X0196076Y0717101D01*
X0196076Y0716503D02*
X0196276Y0716503D01*
X0196076Y0716075D02*
X0193264Y0713263D01*
X0189287Y0713263D01*
X0186476Y0716075D01*
X0186476Y0720051D01*
X0189287Y0722863D01*
X0193264Y0722863D01*
X0196076Y0720051D01*
X0196076Y0716075D01*
X0195905Y0715904D02*
X0196363Y0715904D01*
X0196962Y0715306D02*
X0195307Y0715306D01*
X0194708Y0714707D02*
X0197560Y0714707D01*
X0198159Y0714109D02*
X0194110Y0714109D01*
X0193511Y0713510D02*
X0198757Y0713510D01*
X0200976Y0713510D02*
X0201576Y0713510D01*
X0201576Y0714109D02*
X0200976Y0714109D01*
X0200976Y0714707D02*
X0201576Y0714707D01*
X0201576Y0718897D02*
X0200976Y0718897D01*
X0200976Y0719495D02*
X0201576Y0719495D01*
X0201576Y0720094D02*
X0200976Y0720094D01*
X0200976Y0720692D02*
X0201576Y0720692D01*
X0201576Y0721291D02*
X0200976Y0721291D01*
X0200976Y0721889D02*
X0201576Y0721889D01*
X0201576Y0722488D02*
X0200976Y0722488D01*
X0198630Y0722488D02*
X0193639Y0722488D01*
X0193347Y0723063D02*
X0196276Y0725992D01*
X0196276Y0727763D01*
X0191576Y0727763D01*
X0191576Y0728363D01*
X0196276Y0728363D01*
X0196276Y0730134D01*
X0193347Y0733063D01*
X0191576Y0733063D01*
X0191576Y0728363D01*
X0190976Y0728363D01*
X0190976Y0733063D01*
X0189205Y0733063D01*
X0186276Y0730134D01*
X0186276Y0728363D01*
X0190976Y0728363D01*
X0190976Y0727763D01*
X0191576Y0727763D01*
X0191576Y0723063D01*
X0193347Y0723063D01*
X0193370Y0723086D02*
X0205724Y0723086D01*
X0205724Y0722488D02*
X0203922Y0722488D01*
X0204520Y0721889D02*
X0205724Y0721889D01*
X0205724Y0721291D02*
X0205119Y0721291D01*
X0205717Y0720692D02*
X0205724Y0720692D01*
X0205724Y0723685D02*
X0203686Y0723685D01*
X0204284Y0724284D02*
X0205724Y0724284D01*
X0205724Y0724882D02*
X0204883Y0724882D01*
X0205481Y0725481D02*
X0205724Y0725481D01*
X0205724Y0730867D02*
X0205260Y0730867D01*
X0205724Y0731466D02*
X0204661Y0731466D01*
X0204063Y0732064D02*
X0205724Y0732064D01*
X0205724Y0732663D02*
X0203464Y0732663D01*
X0203545Y0733261D02*
X0205724Y0733261D01*
X0205724Y0733860D02*
X0204143Y0733860D01*
X0204742Y0734458D02*
X0205724Y0734458D01*
X0205724Y0735057D02*
X0205340Y0735057D01*
X0201576Y0735057D02*
X0200976Y0735057D01*
X0200976Y0735655D02*
X0201576Y0735655D01*
X0201576Y0736254D02*
X0200976Y0736254D01*
X0200976Y0736852D02*
X0201576Y0736852D01*
X0201576Y0737451D02*
X0200976Y0737451D01*
X0200976Y0737763D02*
X0200976Y0733063D01*
X0199205Y0733063D01*
X0196276Y0735992D01*
X0196276Y0737763D01*
X0200976Y0737763D01*
X0200976Y0738049D02*
X0196076Y0738049D01*
X0196076Y0737451D02*
X0196276Y0737451D01*
X0196276Y0736852D02*
X0196076Y0736852D01*
X0196076Y0736254D02*
X0196276Y0736254D01*
X0196076Y0736075D02*
X0193264Y0733263D01*
X0189287Y0733263D01*
X0186476Y0736075D01*
X0186476Y0740051D01*
X0189287Y0742863D01*
X0193264Y0742863D01*
X0196076Y0740051D01*
X0196076Y0736075D01*
X0195656Y0735655D02*
X0196612Y0735655D01*
X0197211Y0735057D02*
X0195058Y0735057D01*
X0194459Y0734458D02*
X0197809Y0734458D01*
X0198408Y0733860D02*
X0193860Y0733860D01*
X0193747Y0732663D02*
X0199087Y0732663D01*
X0199006Y0733261D02*
X0183545Y0733261D01*
X0183347Y0733063D02*
X0186276Y0735992D01*
X0186276Y0737763D01*
X0181576Y0737763D01*
X0181576Y0738363D01*
X0186276Y0738363D01*
X0186276Y0740134D01*
X0183347Y0743063D01*
X0181576Y0743063D01*
X0181576Y0738363D01*
X0180976Y0738363D01*
X0180976Y0743063D01*
X0179205Y0743063D01*
X0176276Y0740134D01*
X0176276Y0738363D01*
X0180976Y0738363D01*
X0180976Y0737763D01*
X0181576Y0737763D01*
X0181576Y0733063D01*
X0183347Y0733063D01*
X0183264Y0732863D02*
X0179287Y0732863D01*
X0176476Y0730051D01*
X0176476Y0726075D01*
X0179287Y0723263D01*
X0183264Y0723263D01*
X0186076Y0726075D01*
X0186076Y0730051D01*
X0183264Y0732863D01*
X0183464Y0732663D02*
X0188804Y0732663D01*
X0188206Y0732064D02*
X0184063Y0732064D01*
X0184661Y0731466D02*
X0187607Y0731466D01*
X0187009Y0730867D02*
X0185260Y0730867D01*
X0185858Y0730269D02*
X0186410Y0730269D01*
X0186276Y0729670D02*
X0186076Y0729670D01*
X0186076Y0729072D02*
X0186276Y0729072D01*
X0186276Y0728473D02*
X0186076Y0728473D01*
X0186076Y0727875D02*
X0190976Y0727875D01*
X0190976Y0727763D02*
X0186276Y0727763D01*
X0186276Y0725992D01*
X0189205Y0723063D01*
X0190976Y0723063D01*
X0190976Y0727763D01*
X0190976Y0727276D02*
X0191576Y0727276D01*
X0191576Y0726678D02*
X0190976Y0726678D01*
X0190976Y0726079D02*
X0191576Y0726079D01*
X0191576Y0725481D02*
X0190976Y0725481D01*
X0190976Y0724882D02*
X0191576Y0724882D01*
X0191576Y0724284D02*
X0190976Y0724284D01*
X0190976Y0723685D02*
X0191576Y0723685D01*
X0191576Y0723086D02*
X0190976Y0723086D01*
X0189181Y0723086D02*
X0174040Y0723086D01*
X0174639Y0722488D02*
X0178630Y0722488D01*
X0179205Y0723063D02*
X0176276Y0720134D01*
X0176276Y0718363D01*
X0180976Y0718363D01*
X0180976Y0723063D01*
X0179205Y0723063D01*
X0178865Y0723685D02*
X0173442Y0723685D01*
X0173264Y0723863D02*
X0169287Y0723863D01*
X0166476Y0721051D01*
X0166476Y0717075D01*
X0169287Y0714263D01*
X0173264Y0714263D01*
X0176076Y0717075D01*
X0176076Y0721051D01*
X0173264Y0723863D01*
X0173347Y0724063D02*
X0176276Y0726992D01*
X0176276Y0728763D01*
X0171576Y0728763D01*
X0171576Y0724063D01*
X0173347Y0724063D01*
X0173567Y0724284D02*
X0178267Y0724284D01*
X0177668Y0724882D02*
X0174166Y0724882D01*
X0174764Y0725481D02*
X0177070Y0725481D01*
X0176476Y0726079D02*
X0175363Y0726079D01*
X0175961Y0726678D02*
X0176476Y0726678D01*
X0176476Y0727276D02*
X0176276Y0727276D01*
X0176276Y0727875D02*
X0176476Y0727875D01*
X0176476Y0728473D02*
X0176276Y0728473D01*
X0176476Y0729072D02*
X0171576Y0729072D01*
X0171576Y0729670D02*
X0170976Y0729670D01*
X0170976Y0730269D02*
X0171576Y0730269D01*
X0171576Y0730867D02*
X0170976Y0730867D01*
X0170976Y0731466D02*
X0171576Y0731466D01*
X0171576Y0732064D02*
X0170976Y0732064D01*
X0170976Y0732663D02*
X0171576Y0732663D01*
X0171576Y0733261D02*
X0170976Y0733261D01*
X0170976Y0733860D02*
X0171576Y0733860D01*
X0173264Y0734263D02*
X0176076Y0737075D01*
X0176076Y0741051D01*
X0173264Y0743863D01*
X0169287Y0743863D01*
X0166476Y0741051D01*
X0166476Y0737075D01*
X0169287Y0734263D01*
X0173264Y0734263D01*
X0173459Y0734458D02*
X0177809Y0734458D01*
X0177211Y0735057D02*
X0174058Y0735057D01*
X0174656Y0735655D02*
X0176612Y0735655D01*
X0176276Y0735992D02*
X0179205Y0733063D01*
X0180976Y0733063D01*
X0180976Y0737763D01*
X0176276Y0737763D01*
X0176276Y0735992D01*
X0176276Y0736254D02*
X0175255Y0736254D01*
X0175853Y0736852D02*
X0176276Y0736852D01*
X0176276Y0737451D02*
X0176076Y0737451D01*
X0176076Y0738049D02*
X0180976Y0738049D01*
X0180976Y0737451D02*
X0181576Y0737451D01*
X0181576Y0738049D02*
X0186476Y0738049D01*
X0186476Y0737451D02*
X0186276Y0737451D01*
X0186276Y0736852D02*
X0186476Y0736852D01*
X0186476Y0736254D02*
X0186276Y0736254D01*
X0185939Y0735655D02*
X0186895Y0735655D01*
X0187494Y0735057D02*
X0185340Y0735057D01*
X0184742Y0734458D02*
X0188092Y0734458D01*
X0188691Y0733860D02*
X0184143Y0733860D01*
X0181576Y0733860D02*
X0180976Y0733860D01*
X0180976Y0734458D02*
X0181576Y0734458D01*
X0181576Y0735057D02*
X0180976Y0735057D01*
X0180976Y0735655D02*
X0181576Y0735655D01*
X0181576Y0736254D02*
X0180976Y0736254D01*
X0180976Y0736852D02*
X0181576Y0736852D01*
X0181576Y0738648D02*
X0180976Y0738648D01*
X0180976Y0739246D02*
X0181576Y0739246D01*
X0181576Y0739845D02*
X0180976Y0739845D01*
X0180976Y0740443D02*
X0181576Y0740443D01*
X0181576Y0741042D02*
X0180976Y0741042D01*
X0180976Y0741640D02*
X0181576Y0741640D01*
X0181576Y0742239D02*
X0180976Y0742239D01*
X0180976Y0742837D02*
X0181576Y0742837D01*
X0183264Y0743263D02*
X0186076Y0746075D01*
X0186076Y0750051D01*
X0183264Y0752863D01*
X0179287Y0752863D01*
X0176476Y0750051D01*
X0176476Y0746075D01*
X0179287Y0743263D01*
X0183264Y0743263D01*
X0183437Y0743436D02*
X0188832Y0743436D01*
X0189205Y0743063D02*
X0190976Y0743063D01*
X0190976Y0747763D01*
X0191576Y0747763D01*
X0191576Y0748363D01*
X0196276Y0748363D01*
X0196276Y0750134D01*
X0193347Y0753063D01*
X0191576Y0753063D01*
X0191576Y0748363D01*
X0190976Y0748363D01*
X0190976Y0753063D01*
X0189205Y0753063D01*
X0186276Y0750134D01*
X0186276Y0748363D01*
X0190976Y0748363D01*
X0190976Y0747763D01*
X0186276Y0747763D01*
X0186276Y0745992D01*
X0189205Y0743063D01*
X0189262Y0742837D02*
X0183572Y0742837D01*
X0184171Y0742239D02*
X0188663Y0742239D01*
X0188065Y0741640D02*
X0184769Y0741640D01*
X0185368Y0741042D02*
X0187466Y0741042D01*
X0186868Y0740443D02*
X0185966Y0740443D01*
X0186276Y0739845D02*
X0186476Y0739845D01*
X0186476Y0739246D02*
X0186276Y0739246D01*
X0186276Y0738648D02*
X0186476Y0738648D01*
X0188233Y0744034D02*
X0184035Y0744034D01*
X0184634Y0744633D02*
X0187635Y0744633D01*
X0187036Y0745231D02*
X0185232Y0745231D01*
X0185831Y0745830D02*
X0186438Y0745830D01*
X0186276Y0746428D02*
X0186076Y0746428D01*
X0186076Y0747027D02*
X0186276Y0747027D01*
X0186276Y0747625D02*
X0186076Y0747625D01*
X0186076Y0748224D02*
X0190976Y0748224D01*
X0190976Y0748822D02*
X0191576Y0748822D01*
X0191576Y0748224D02*
X0196476Y0748224D01*
X0196276Y0747763D02*
X0191576Y0747763D01*
X0191576Y0743063D01*
X0193347Y0743063D01*
X0196276Y0745992D01*
X0196276Y0747763D01*
X0196276Y0747625D02*
X0196476Y0747625D01*
X0196476Y0747027D02*
X0196276Y0747027D01*
X0196276Y0746428D02*
X0196476Y0746428D01*
X0196720Y0745830D02*
X0196114Y0745830D01*
X0195515Y0745231D02*
X0197319Y0745231D01*
X0197917Y0744633D02*
X0194917Y0744633D01*
X0194318Y0744034D02*
X0198516Y0744034D01*
X0199114Y0743436D02*
X0193720Y0743436D01*
X0193289Y0742837D02*
X0198979Y0742837D01*
X0198380Y0742239D02*
X0193888Y0742239D01*
X0194486Y0741640D02*
X0197782Y0741640D01*
X0197183Y0741042D02*
X0195085Y0741042D01*
X0195683Y0740443D02*
X0196585Y0740443D01*
X0196276Y0739845D02*
X0196076Y0739845D01*
X0196076Y0739246D02*
X0196276Y0739246D01*
X0196276Y0738648D02*
X0196076Y0738648D01*
X0200976Y0738648D02*
X0201576Y0738648D01*
X0201576Y0739246D02*
X0200976Y0739246D01*
X0200976Y0739845D02*
X0201576Y0739845D01*
X0201576Y0740443D02*
X0200976Y0740443D01*
X0200976Y0741042D02*
X0201576Y0741042D01*
X0201576Y0741640D02*
X0200976Y0741640D01*
X0200976Y0742239D02*
X0201576Y0742239D01*
X0201576Y0742837D02*
X0200976Y0742837D01*
X0203437Y0743436D02*
X0205724Y0743436D01*
X0205724Y0744034D02*
X0204035Y0744034D01*
X0204634Y0744633D02*
X0205724Y0744633D01*
X0205724Y0745231D02*
X0205232Y0745231D01*
X0205724Y0742837D02*
X0203572Y0742837D01*
X0204171Y0742239D02*
X0205724Y0742239D01*
X0205724Y0741640D02*
X0204769Y0741640D01*
X0205368Y0741042D02*
X0205724Y0741042D01*
X0201576Y0734458D02*
X0200976Y0734458D01*
X0200976Y0733860D02*
X0201576Y0733860D01*
X0201576Y0733261D02*
X0200976Y0733261D01*
X0198489Y0732064D02*
X0194345Y0732064D01*
X0194944Y0731466D02*
X0197890Y0731466D01*
X0197292Y0730867D02*
X0195542Y0730867D01*
X0196141Y0730269D02*
X0196693Y0730269D01*
X0196476Y0729670D02*
X0196276Y0729670D01*
X0196276Y0729072D02*
X0196476Y0729072D01*
X0196476Y0728473D02*
X0196276Y0728473D01*
X0196476Y0727875D02*
X0191576Y0727875D01*
X0191576Y0728473D02*
X0190976Y0728473D01*
X0190976Y0729072D02*
X0191576Y0729072D01*
X0191576Y0729670D02*
X0190976Y0729670D01*
X0190976Y0730269D02*
X0191576Y0730269D01*
X0191576Y0730867D02*
X0190976Y0730867D01*
X0190976Y0731466D02*
X0191576Y0731466D01*
X0191576Y0732064D02*
X0190976Y0732064D01*
X0190976Y0732663D02*
X0191576Y0732663D01*
X0196276Y0727276D02*
X0196476Y0727276D01*
X0196476Y0726678D02*
X0196276Y0726678D01*
X0196276Y0726079D02*
X0196476Y0726079D01*
X0197070Y0725481D02*
X0195764Y0725481D01*
X0195166Y0724882D02*
X0197668Y0724882D01*
X0198267Y0724284D02*
X0194567Y0724284D01*
X0193969Y0723685D02*
X0198865Y0723685D01*
X0198031Y0721889D02*
X0194237Y0721889D01*
X0194836Y0721291D02*
X0197432Y0721291D01*
X0196834Y0720692D02*
X0195434Y0720692D01*
X0196033Y0720094D02*
X0196276Y0720094D01*
X0196276Y0719495D02*
X0196076Y0719495D01*
X0196076Y0718897D02*
X0196276Y0718897D01*
X0188912Y0722488D02*
X0183922Y0722488D01*
X0183347Y0723063D02*
X0181576Y0723063D01*
X0181576Y0718363D01*
X0186276Y0718363D01*
X0186276Y0720134D01*
X0183347Y0723063D01*
X0183686Y0723685D02*
X0188583Y0723685D01*
X0187984Y0724284D02*
X0184284Y0724284D01*
X0184883Y0724882D02*
X0187386Y0724882D01*
X0186787Y0725481D02*
X0185481Y0725481D01*
X0186076Y0726079D02*
X0186276Y0726079D01*
X0186276Y0726678D02*
X0186076Y0726678D01*
X0186076Y0727276D02*
X0186276Y0727276D01*
X0184520Y0721889D02*
X0188314Y0721889D01*
X0187715Y0721291D02*
X0185119Y0721291D01*
X0185717Y0720692D02*
X0187117Y0720692D01*
X0186518Y0720094D02*
X0186276Y0720094D01*
X0186276Y0719495D02*
X0186476Y0719495D01*
X0186476Y0718897D02*
X0186276Y0718897D01*
X0186476Y0718298D02*
X0181576Y0718298D01*
X0181576Y0718363D02*
X0181576Y0717763D01*
X0186276Y0717763D01*
X0186276Y0715992D01*
X0183347Y0713063D01*
X0181576Y0713063D01*
X0181576Y0717763D01*
X0180976Y0717763D01*
X0180976Y0713063D01*
X0179205Y0713063D01*
X0176276Y0715992D01*
X0176276Y0717763D01*
X0180976Y0717763D01*
X0180976Y0718363D01*
X0181576Y0718363D01*
X0181576Y0718897D02*
X0180976Y0718897D01*
X0180976Y0719495D02*
X0181576Y0719495D01*
X0181576Y0720094D02*
X0180976Y0720094D01*
X0180976Y0720692D02*
X0181576Y0720692D01*
X0181576Y0721291D02*
X0180976Y0721291D01*
X0180976Y0721889D02*
X0181576Y0721889D01*
X0181576Y0722488D02*
X0180976Y0722488D01*
X0178031Y0721889D02*
X0175237Y0721889D01*
X0175836Y0721291D02*
X0177432Y0721291D01*
X0176834Y0720692D02*
X0176076Y0720692D01*
X0176076Y0720094D02*
X0176276Y0720094D01*
X0176276Y0719495D02*
X0176076Y0719495D01*
X0176076Y0718897D02*
X0176276Y0718897D01*
X0176076Y0718298D02*
X0180976Y0718298D01*
X0180976Y0717700D02*
X0181576Y0717700D01*
X0181576Y0717101D02*
X0180976Y0717101D01*
X0180976Y0716503D02*
X0181576Y0716503D01*
X0181576Y0715904D02*
X0180976Y0715904D01*
X0180976Y0715306D02*
X0181576Y0715306D01*
X0181576Y0714707D02*
X0180976Y0714707D01*
X0180976Y0714109D02*
X0181576Y0714109D01*
X0181576Y0713510D02*
X0180976Y0713510D01*
X0178757Y0713510D02*
X0166354Y0713510D01*
X0166354Y0714109D02*
X0178159Y0714109D01*
X0177560Y0714707D02*
X0173708Y0714707D01*
X0174307Y0715306D02*
X0176962Y0715306D01*
X0176363Y0715904D02*
X0174905Y0715904D01*
X0175504Y0716503D02*
X0176276Y0716503D01*
X0176276Y0717101D02*
X0176076Y0717101D01*
X0176076Y0717700D02*
X0176276Y0717700D01*
X0168843Y0714707D02*
X0166354Y0714707D01*
X0166354Y0715306D02*
X0168245Y0715306D01*
X0167646Y0715904D02*
X0166354Y0715904D01*
X0166354Y0716503D02*
X0167048Y0716503D01*
X0166476Y0717101D02*
X0166354Y0717101D01*
X0166354Y0717700D02*
X0166476Y0717700D01*
X0166476Y0718298D02*
X0166354Y0718298D01*
X0166354Y0718897D02*
X0166476Y0718897D01*
X0166476Y0719495D02*
X0166354Y0719495D01*
X0166354Y0720094D02*
X0166476Y0720094D01*
X0166476Y0720692D02*
X0166354Y0720692D01*
X0166354Y0721291D02*
X0166715Y0721291D01*
X0166354Y0721889D02*
X0167314Y0721889D01*
X0167912Y0722488D02*
X0166354Y0722488D01*
X0166354Y0723086D02*
X0168511Y0723086D01*
X0169109Y0723685D02*
X0166354Y0723685D01*
X0166354Y0724284D02*
X0168984Y0724284D01*
X0168386Y0724882D02*
X0166354Y0724882D01*
X0166354Y0725481D02*
X0167787Y0725481D01*
X0167188Y0726079D02*
X0166354Y0726079D01*
X0166354Y0726678D02*
X0166590Y0726678D01*
X0170976Y0726678D02*
X0171576Y0726678D01*
X0171576Y0727276D02*
X0170976Y0727276D01*
X0170976Y0727875D02*
X0171576Y0727875D01*
X0171576Y0728473D02*
X0170976Y0728473D01*
X0170976Y0726079D02*
X0171576Y0726079D01*
X0171576Y0725481D02*
X0170976Y0725481D01*
X0170976Y0724882D02*
X0171576Y0724882D01*
X0171576Y0724284D02*
X0170976Y0724284D01*
X0176276Y0729670D02*
X0176476Y0729670D01*
X0176276Y0730269D02*
X0176693Y0730269D01*
X0176276Y0730867D02*
X0177292Y0730867D01*
X0177890Y0731466D02*
X0175944Y0731466D01*
X0175345Y0732064D02*
X0178489Y0732064D01*
X0179087Y0732663D02*
X0174747Y0732663D01*
X0174148Y0733261D02*
X0179006Y0733261D01*
X0178408Y0733860D02*
X0173550Y0733860D01*
X0169092Y0734458D02*
X0166354Y0734458D01*
X0166354Y0733860D02*
X0169001Y0733860D01*
X0168403Y0733261D02*
X0166354Y0733261D01*
X0166354Y0732663D02*
X0167804Y0732663D01*
X0167206Y0732064D02*
X0166354Y0732064D01*
X0166354Y0731466D02*
X0166607Y0731466D01*
X0166354Y0735057D02*
X0168494Y0735057D01*
X0167895Y0735655D02*
X0166354Y0735655D01*
X0166354Y0736254D02*
X0167297Y0736254D01*
X0166698Y0736852D02*
X0166354Y0736852D01*
X0166354Y0737451D02*
X0166476Y0737451D01*
X0166476Y0738049D02*
X0166354Y0738049D01*
X0166354Y0738648D02*
X0166476Y0738648D01*
X0166476Y0739246D02*
X0166354Y0739246D01*
X0166354Y0739845D02*
X0166476Y0739845D01*
X0166476Y0740443D02*
X0166354Y0740443D01*
X0166354Y0741042D02*
X0166476Y0741042D01*
X0166354Y0741640D02*
X0167065Y0741640D01*
X0167663Y0742239D02*
X0166354Y0742239D01*
X0166354Y0742837D02*
X0168262Y0742837D01*
X0168860Y0743436D02*
X0166354Y0743436D01*
X0166354Y0744034D02*
X0178516Y0744034D01*
X0179114Y0743436D02*
X0173691Y0743436D01*
X0173347Y0744063D02*
X0176276Y0746992D01*
X0176276Y0748763D01*
X0171576Y0748763D01*
X0171576Y0744063D01*
X0173347Y0744063D01*
X0173917Y0744633D02*
X0177917Y0744633D01*
X0177319Y0745231D02*
X0174515Y0745231D01*
X0175114Y0745830D02*
X0176720Y0745830D01*
X0176476Y0746428D02*
X0175712Y0746428D01*
X0176276Y0747027D02*
X0176476Y0747027D01*
X0176476Y0747625D02*
X0176276Y0747625D01*
X0176276Y0748224D02*
X0176476Y0748224D01*
X0176476Y0748822D02*
X0171576Y0748822D01*
X0171576Y0748224D02*
X0170976Y0748224D01*
X0170976Y0747625D02*
X0171576Y0747625D01*
X0171576Y0747027D02*
X0170976Y0747027D01*
X0170976Y0746428D02*
X0171576Y0746428D01*
X0171576Y0745830D02*
X0170976Y0745830D01*
X0170976Y0745231D02*
X0171576Y0745231D01*
X0171576Y0744633D02*
X0170976Y0744633D01*
X0168635Y0744633D02*
X0166354Y0744633D01*
X0166354Y0745231D02*
X0168036Y0745231D01*
X0167438Y0745830D02*
X0166354Y0745830D01*
X0166354Y0746428D02*
X0166839Y0746428D01*
X0174289Y0742837D02*
X0178979Y0742837D01*
X0178380Y0742239D02*
X0174888Y0742239D01*
X0175486Y0741640D02*
X0177782Y0741640D01*
X0177183Y0741042D02*
X0176076Y0741042D01*
X0176076Y0740443D02*
X0176585Y0740443D01*
X0176276Y0739845D02*
X0176076Y0739845D01*
X0176076Y0739246D02*
X0176276Y0739246D01*
X0176276Y0738648D02*
X0176076Y0738648D01*
X0180976Y0733261D02*
X0181576Y0733261D01*
X0190976Y0743436D02*
X0191576Y0743436D01*
X0191576Y0744034D02*
X0190976Y0744034D01*
X0190976Y0744633D02*
X0191576Y0744633D01*
X0191576Y0745231D02*
X0190976Y0745231D01*
X0190976Y0745830D02*
X0191576Y0745830D01*
X0191576Y0746428D02*
X0190976Y0746428D01*
X0190976Y0747027D02*
X0191576Y0747027D01*
X0191576Y0747625D02*
X0190976Y0747625D01*
X0190976Y0749421D02*
X0191576Y0749421D01*
X0191576Y0750019D02*
X0190976Y0750019D01*
X0190976Y0750618D02*
X0191576Y0750618D01*
X0191576Y0751217D02*
X0190976Y0751217D01*
X0190976Y0751815D02*
X0191576Y0751815D01*
X0191576Y0752414D02*
X0190976Y0752414D01*
X0190976Y0753012D02*
X0191576Y0753012D01*
X0193398Y0753012D02*
X0205724Y0753012D01*
X0205724Y0752414D02*
X0203713Y0752414D01*
X0204312Y0751815D02*
X0205724Y0751815D01*
X0205724Y0751217D02*
X0204910Y0751217D01*
X0205509Y0750618D02*
X0205724Y0750618D01*
X0205724Y0753611D02*
X0173799Y0753611D01*
X0174398Y0753012D02*
X0189154Y0753012D01*
X0188555Y0752414D02*
X0183713Y0752414D01*
X0184312Y0751815D02*
X0187957Y0751815D01*
X0187358Y0751217D02*
X0184910Y0751217D01*
X0185509Y0750618D02*
X0186760Y0750618D01*
X0186276Y0750019D02*
X0186076Y0750019D01*
X0186076Y0749421D02*
X0186276Y0749421D01*
X0186276Y0748822D02*
X0186076Y0748822D01*
X0178838Y0752414D02*
X0174996Y0752414D01*
X0175595Y0751815D02*
X0178239Y0751815D01*
X0177641Y0751217D02*
X0176193Y0751217D01*
X0176276Y0750618D02*
X0177042Y0750618D01*
X0176476Y0750019D02*
X0176276Y0750019D01*
X0176276Y0749421D02*
X0176476Y0749421D01*
X0193996Y0752414D02*
X0198838Y0752414D01*
X0198239Y0751815D02*
X0194595Y0751815D01*
X0195193Y0751217D02*
X0197641Y0751217D01*
X0197042Y0750618D02*
X0195792Y0750618D01*
X0196276Y0750019D02*
X0196476Y0750019D01*
X0196476Y0749421D02*
X0196276Y0749421D01*
X0196276Y0748822D02*
X0196476Y0748822D01*
X0186476Y0717700D02*
X0186276Y0717700D01*
X0186276Y0717101D02*
X0186476Y0717101D01*
X0186476Y0716503D02*
X0186276Y0716503D01*
X0186188Y0715904D02*
X0186646Y0715904D01*
X0187245Y0715306D02*
X0185589Y0715306D01*
X0184991Y0714707D02*
X0187843Y0714707D01*
X0188442Y0714109D02*
X0184392Y0714109D01*
X0183794Y0713510D02*
X0189040Y0713510D01*
X0209354Y0603983D02*
X0166354Y0603983D01*
X0166354Y0603384D02*
X0209346Y0603384D01*
X0209338Y0602786D02*
X0166354Y0602786D01*
X0166354Y0602187D02*
X0209331Y0602187D01*
X0209323Y0601589D02*
X0166354Y0601589D01*
X0166354Y0600990D02*
X0209315Y0600990D01*
X0209308Y0600392D02*
X0166354Y0600392D01*
X0166354Y0599793D02*
X0209300Y0599793D01*
X0209292Y0599195D02*
X0166354Y0599195D01*
X0166354Y0598596D02*
X0209285Y0598596D01*
X0209277Y0597998D02*
X0166354Y0597998D01*
X0166354Y0597399D02*
X0209269Y0597399D01*
X0209262Y0596801D02*
X0166354Y0596801D01*
X0166354Y0596202D02*
X0209254Y0596202D01*
X0209246Y0595604D02*
X0166354Y0595604D01*
X0166354Y0595005D02*
X0209239Y0595005D01*
X0209231Y0594407D02*
X0166354Y0594407D01*
X0166354Y0593808D02*
X0209223Y0593808D01*
X0209216Y0593210D02*
X0166354Y0593210D01*
X0166354Y0592611D02*
X0209208Y0592611D01*
X0209200Y0592013D02*
X0166354Y0592013D01*
X0166354Y0591414D02*
X0209193Y0591414D01*
X0209185Y0590815D02*
X0166354Y0590815D01*
X0166354Y0590217D02*
X0209177Y0590217D01*
X0209170Y0589618D02*
X0166354Y0589618D01*
X0166354Y0589020D02*
X0209162Y0589020D01*
X0209154Y0588421D02*
X0166354Y0588421D01*
X0166354Y0587823D02*
X0209147Y0587823D01*
X0209139Y0587224D02*
X0166354Y0587224D01*
X0166354Y0586626D02*
X0209131Y0586626D01*
X0209124Y0586027D02*
X0166354Y0586027D01*
X0166354Y0585429D02*
X0209116Y0585429D01*
X0209108Y0584830D02*
X0166354Y0584830D01*
X0166354Y0584232D02*
X0209100Y0584232D01*
X0209093Y0583633D02*
X0166354Y0583633D01*
X0166354Y0583035D02*
X0209085Y0583035D01*
X0209077Y0582436D02*
X0166354Y0582436D01*
X0166354Y0581838D02*
X0209070Y0581838D01*
X0209062Y0581239D02*
X0166354Y0581239D01*
X0166354Y0580641D02*
X0209054Y0580641D01*
X0209047Y0580042D02*
X0166354Y0580042D01*
X0166354Y0579444D02*
X0209039Y0579444D01*
X0209031Y0578845D02*
X0166354Y0578845D01*
X0166354Y0578247D02*
X0209024Y0578247D01*
X0209016Y0577648D02*
X0166354Y0577648D01*
X0166354Y0577050D02*
X0209008Y0577050D01*
X0209001Y0576451D02*
X0166354Y0576451D01*
X0166354Y0575853D02*
X0208993Y0575853D01*
X0208985Y0575254D02*
X0166354Y0575254D01*
X0166354Y0574656D02*
X0208978Y0574656D01*
X0208970Y0574057D02*
X0166354Y0574057D01*
X0166354Y0573459D02*
X0208962Y0573459D01*
X0208955Y0572860D02*
X0166354Y0572860D01*
X0166354Y0572262D02*
X0208947Y0572262D01*
X0208939Y0571663D02*
X0166354Y0571663D01*
X0166354Y0571065D02*
X0208932Y0571065D01*
X0208924Y0570466D02*
X0166354Y0570466D01*
X0166354Y0569868D02*
X0208916Y0569868D01*
X0208909Y0569269D02*
X0166354Y0569269D01*
X0166354Y0568671D02*
X0208901Y0568671D01*
X0208893Y0568072D02*
X0166354Y0568072D01*
X0166354Y0567474D02*
X0208886Y0567474D01*
X0208878Y0566875D02*
X0166354Y0566875D01*
X0166354Y0566277D02*
X0208870Y0566277D01*
X0208863Y0565678D02*
X0166354Y0565678D01*
X0166354Y0565079D02*
X0208855Y0565079D01*
X0208847Y0564481D02*
X0166354Y0564481D01*
X0166354Y0563882D02*
X0208840Y0563882D01*
X0208832Y0563284D02*
X0166354Y0563284D01*
X0166354Y0562685D02*
X0208824Y0562685D01*
X0208817Y0562087D02*
X0166354Y0562087D01*
X0166354Y0561488D02*
X0208809Y0561488D01*
X0208801Y0560890D02*
X0166354Y0560890D01*
X0166354Y0560291D02*
X0208794Y0560291D01*
X0208786Y0559693D02*
X0166354Y0559693D01*
X0166354Y0559094D02*
X0208778Y0559094D01*
X0208771Y0558496D02*
X0166354Y0558496D01*
X0166354Y0557897D02*
X0208763Y0557897D01*
X0208755Y0557299D02*
X0166354Y0557299D01*
X0166354Y0556700D02*
X0208748Y0556700D01*
X0208740Y0556102D02*
X0166354Y0556102D01*
X0166354Y0555503D02*
X0208732Y0555503D01*
X0208725Y0554905D02*
X0166354Y0554905D01*
X0166354Y0554306D02*
X0208717Y0554306D01*
X0208709Y0553708D02*
X0166354Y0553708D01*
X0166354Y0553109D02*
X0208701Y0553109D01*
X0208694Y0552511D02*
X0166354Y0552511D01*
X0166354Y0551912D02*
X0208686Y0551912D01*
X0208678Y0551314D02*
X0166354Y0551314D01*
X0166354Y0550715D02*
X0208671Y0550715D01*
X0208663Y0550117D02*
X0166354Y0550117D01*
X0166354Y0549518D02*
X0208655Y0549518D01*
X0208648Y0548920D02*
X0166354Y0548920D01*
X0166354Y0548321D02*
X0208640Y0548321D01*
X0208632Y0547723D02*
X0166354Y0547723D01*
X0166354Y0547124D02*
X0208625Y0547124D01*
X0208617Y0546526D02*
X0166354Y0546526D01*
X0166354Y0545927D02*
X0208609Y0545927D01*
X0208602Y0545329D02*
X0166354Y0545329D01*
X0166354Y0544730D02*
X0208594Y0544730D01*
X0208586Y0544132D02*
X0166354Y0544132D01*
X0166354Y0543533D02*
X0208579Y0543533D01*
X0208571Y0542935D02*
X0166354Y0542935D01*
X0166354Y0542336D02*
X0208563Y0542336D01*
X0208556Y0541738D02*
X0166354Y0541738D01*
X0166354Y0541139D02*
X0208548Y0541139D01*
X0208540Y0540541D02*
X0166354Y0540541D01*
X0166354Y0539942D02*
X0208533Y0539942D01*
X0208525Y0539344D02*
X0166354Y0539344D01*
X0166354Y0538745D02*
X0208517Y0538745D01*
X0208510Y0538146D02*
X0166354Y0538146D01*
X0166354Y0537548D02*
X0208502Y0537548D01*
X0208494Y0536949D02*
X0166354Y0536949D01*
X0166354Y0536351D02*
X0208487Y0536351D01*
X0208479Y0535752D02*
X0166354Y0535752D01*
X0166354Y0535154D02*
X0208471Y0535154D01*
X0208464Y0534555D02*
X0166354Y0534555D01*
X0166354Y0533957D02*
X0208456Y0533957D01*
X0208448Y0533358D02*
X0166354Y0533358D01*
X0166354Y0532760D02*
X0208441Y0532760D01*
X0208433Y0532161D02*
X0166354Y0532161D01*
X0166354Y0531563D02*
X0208425Y0531563D01*
X0208418Y0530964D02*
X0166354Y0530964D01*
X0166354Y0530366D02*
X0208410Y0530366D01*
X0208402Y0529767D02*
X0166354Y0529767D01*
X0166354Y0529169D02*
X0208395Y0529169D01*
X0208387Y0528570D02*
X0166354Y0528570D01*
X0166354Y0527972D02*
X0208379Y0527972D01*
X0208372Y0527373D02*
X0166354Y0527373D01*
X0166354Y0526775D02*
X0208364Y0526775D01*
X0208356Y0526176D02*
X0166354Y0526176D01*
X0166354Y0525578D02*
X0208349Y0525578D01*
X0208341Y0524979D02*
X0166354Y0524979D01*
X0166354Y0524381D02*
X0208333Y0524381D01*
X0208325Y0523782D02*
X0166354Y0523782D01*
X0166354Y0523184D02*
X0208318Y0523184D01*
X0208310Y0522585D02*
X0166354Y0522585D01*
X0166354Y0521987D02*
X0208302Y0521987D01*
X0208295Y0521388D02*
X0166354Y0521388D01*
X0166354Y0520790D02*
X0208287Y0520790D01*
X0208279Y0520191D02*
X0166354Y0520191D01*
X0166354Y0519593D02*
X0208272Y0519593D01*
X0208264Y0518994D02*
X0166354Y0518994D01*
X0166354Y0518396D02*
X0208256Y0518396D01*
X0208249Y0517797D02*
X0166354Y0517797D01*
X0166354Y0517199D02*
X0208241Y0517199D01*
X0208233Y0516600D02*
X0166354Y0516600D01*
X0166354Y0516002D02*
X0208226Y0516002D01*
X0208218Y0515403D02*
X0166354Y0515403D01*
X0166354Y0514805D02*
X0208210Y0514805D01*
X0208203Y0514206D02*
X0166354Y0514206D01*
X0166354Y0513608D02*
X0208195Y0513608D01*
X0208187Y0513009D02*
X0166354Y0513009D01*
X0166354Y0512410D02*
X0208180Y0512410D01*
X0208172Y0511812D02*
X0166354Y0511812D01*
X0166354Y0511213D02*
X0208164Y0511213D01*
X0208157Y0510615D02*
X0166354Y0510615D01*
X0166354Y0510016D02*
X0208149Y0510016D01*
X0208141Y0509418D02*
X0166354Y0509418D01*
X0166354Y0508819D02*
X0208134Y0508819D01*
X0208126Y0508221D02*
X0166354Y0508221D01*
X0166354Y0507622D02*
X0208118Y0507622D01*
X0208111Y0507024D02*
X0166354Y0507024D01*
X0166354Y0506425D02*
X0208103Y0506425D01*
X0208095Y0505827D02*
X0166354Y0505827D01*
X0166354Y0505228D02*
X0208088Y0505228D01*
X0208080Y0504630D02*
X0166354Y0504630D01*
X0166354Y0504031D02*
X0208072Y0504031D01*
X0208065Y0503433D02*
X0166354Y0503433D01*
X0166354Y0502834D02*
X0208057Y0502834D01*
X0208049Y0502236D02*
X0166354Y0502236D01*
X0166354Y0501637D02*
X0208042Y0501637D01*
X0208034Y0501039D02*
X0166354Y0501039D01*
X0166354Y0500440D02*
X0208026Y0500440D01*
X0208019Y0499842D02*
X0166354Y0499842D01*
X0166354Y0499243D02*
X0208011Y0499243D01*
X0208003Y0498645D02*
X0166354Y0498645D01*
X0166354Y0498046D02*
X0207996Y0498046D01*
X0207988Y0497448D02*
X0166354Y0497448D01*
X0166354Y0496849D02*
X0207980Y0496849D01*
X0207973Y0496251D02*
X0166354Y0496251D01*
X0166354Y0495652D02*
X0207965Y0495652D01*
X0207957Y0495054D02*
X0166354Y0495054D01*
X0166354Y0494455D02*
X0207950Y0494455D01*
X0207942Y0493857D02*
X0166354Y0493857D01*
X0166354Y0493258D02*
X0207934Y0493258D01*
X0207926Y0492660D02*
X0166354Y0492660D01*
X0166354Y0492061D02*
X0207919Y0492061D01*
X0207911Y0491463D02*
X0166354Y0491463D01*
X0166354Y0490864D02*
X0207903Y0490864D01*
X0207896Y0490266D02*
X0166354Y0490266D01*
X0166354Y0489667D02*
X0207888Y0489667D01*
X0207880Y0489069D02*
X0166354Y0489069D01*
X0166354Y0488470D02*
X0207873Y0488470D01*
X0207865Y0487872D02*
X0166354Y0487872D01*
X0166354Y0487273D02*
X0207857Y0487273D01*
X0207850Y0486675D02*
X0166354Y0486675D01*
X0166354Y0486076D02*
X0207842Y0486076D01*
X0207834Y0485477D02*
X0166354Y0485477D01*
X0166354Y0484879D02*
X0207827Y0484879D01*
X0207819Y0484280D02*
X0166354Y0484280D01*
X0166354Y0483682D02*
X0207811Y0483682D01*
X0207804Y0483083D02*
X0166354Y0483083D01*
X0166354Y0482485D02*
X0207796Y0482485D01*
X0207788Y0481886D02*
X0166354Y0481886D01*
X0166354Y0481288D02*
X0207781Y0481288D01*
X0207773Y0480689D02*
X0166354Y0480689D01*
X0166354Y0480091D02*
X0207765Y0480091D01*
X0207758Y0479492D02*
X0166354Y0479492D01*
X0166354Y0478894D02*
X0207750Y0478894D01*
X0207742Y0478295D02*
X0166354Y0478295D01*
X0166354Y0477697D02*
X0207735Y0477697D01*
X0207727Y0477098D02*
X0166354Y0477098D01*
X0166354Y0476500D02*
X0207719Y0476500D01*
X0207712Y0475901D02*
X0166354Y0475901D01*
X0166354Y0475303D02*
X0207704Y0475303D01*
X0207696Y0474704D02*
X0166354Y0474704D01*
X0166354Y0474106D02*
X0207689Y0474106D01*
X0207681Y0473507D02*
X0166354Y0473507D01*
X0166354Y0472909D02*
X0207673Y0472909D01*
X0207666Y0472310D02*
X0166354Y0472310D01*
X0166354Y0471712D02*
X0207658Y0471712D01*
X0207650Y0471113D02*
X0166354Y0471113D01*
X0166354Y0470515D02*
X0207643Y0470515D01*
X0207635Y0469916D02*
X0166354Y0469916D01*
X0166354Y0469318D02*
X0207627Y0469318D01*
X0207620Y0468719D02*
X0166354Y0468719D01*
X0166354Y0468121D02*
X0207612Y0468121D01*
X0207604Y0467522D02*
X0166354Y0467522D01*
X0166354Y0466924D02*
X0207597Y0466924D01*
X0207589Y0466325D02*
X0166354Y0466325D01*
X0166354Y0465727D02*
X0207581Y0465727D01*
X0207574Y0465128D02*
X0166354Y0465128D01*
X0166354Y0464530D02*
X0207566Y0464530D01*
X0207558Y0463931D02*
X0166354Y0463931D01*
X0166354Y0463333D02*
X0207551Y0463333D01*
X0207543Y0462734D02*
X0166354Y0462734D01*
X0166354Y0462136D02*
X0207535Y0462136D01*
X0207527Y0461537D02*
X0166354Y0461537D01*
X0166354Y0460939D02*
X0207520Y0460939D01*
X0207512Y0460340D02*
X0166354Y0460340D01*
X0166354Y0459741D02*
X0207504Y0459741D01*
X0207497Y0459143D02*
X0166354Y0459143D01*
X0166354Y0458544D02*
X0207489Y0458544D01*
X0207481Y0457946D02*
X0166354Y0457946D01*
X0166354Y0457347D02*
X0207474Y0457347D01*
X0207466Y0456749D02*
X0166354Y0456749D01*
X0166354Y0456150D02*
X0207458Y0456150D01*
X0207451Y0455552D02*
X0166354Y0455552D01*
X0166354Y0454953D02*
X0207443Y0454953D01*
X0207435Y0454355D02*
X0166354Y0454355D01*
X0166354Y0453756D02*
X0207428Y0453756D01*
X0207420Y0453158D02*
X0166354Y0453158D01*
X0166354Y0452559D02*
X0207412Y0452559D01*
X0207405Y0451961D02*
X0166354Y0451961D01*
X0166354Y0451362D02*
X0207397Y0451362D01*
X0207389Y0450764D02*
X0166354Y0450764D01*
X0166354Y0450165D02*
X0207382Y0450165D01*
X0207374Y0449567D02*
X0166354Y0449567D01*
X0166354Y0448968D02*
X0207366Y0448968D01*
X0207359Y0448370D02*
X0166354Y0448370D01*
X0166354Y0447771D02*
X0207351Y0447771D01*
X0207343Y0447173D02*
X0166354Y0447173D01*
X0166354Y0446574D02*
X0207336Y0446574D01*
X0207328Y0445976D02*
X0166354Y0445976D01*
X0166354Y0445377D02*
X0207320Y0445377D01*
X0207313Y0444779D02*
X0166354Y0444779D01*
X0166354Y0444180D02*
X0207305Y0444180D01*
X0207297Y0443582D02*
X0166354Y0443582D01*
X0166354Y0442983D02*
X0207290Y0442983D01*
X0207282Y0442385D02*
X0166354Y0442385D01*
X0166354Y0441786D02*
X0207274Y0441786D01*
X0207267Y0441188D02*
X0166354Y0441188D01*
X0166354Y0440589D02*
X0207259Y0440589D01*
X0207251Y0439991D02*
X0166354Y0439991D01*
X0166354Y0439392D02*
X0207244Y0439392D01*
X0207236Y0438794D02*
X0166354Y0438794D01*
X0166354Y0438195D02*
X0207228Y0438195D01*
X0207221Y0437597D02*
X0166354Y0437597D01*
X0166354Y0436998D02*
X0207213Y0436998D01*
X0207205Y0436400D02*
X0166354Y0436400D01*
X0166354Y0435801D02*
X0207198Y0435801D01*
X0207190Y0435203D02*
X0166354Y0435203D01*
X0166354Y0434604D02*
X0207182Y0434604D01*
X0207175Y0434006D02*
X0166354Y0434006D01*
X0166354Y0433407D02*
X0207167Y0433407D01*
X0207159Y0432808D02*
X0166354Y0432808D01*
X0166354Y0432210D02*
X0207151Y0432210D01*
X0207144Y0431611D02*
X0166354Y0431611D01*
X0166354Y0431013D02*
X0207136Y0431013D01*
X0207128Y0430414D02*
X0166354Y0430414D01*
X0166354Y0429816D02*
X0207121Y0429816D01*
X0207113Y0429217D02*
X0166354Y0429217D01*
X0166354Y0428619D02*
X0207105Y0428619D01*
X0207098Y0428020D02*
X0166354Y0428020D01*
X0166354Y0427422D02*
X0207090Y0427422D01*
X0207082Y0426823D02*
X0166354Y0426823D01*
X0166354Y0426225D02*
X0207075Y0426225D01*
X0207067Y0425626D02*
X0166354Y0425626D01*
X0166354Y0425028D02*
X0207059Y0425028D01*
X0207052Y0424429D02*
X0166354Y0424429D01*
X0166354Y0423831D02*
X0207044Y0423831D01*
X0207036Y0423232D02*
X0166354Y0423232D01*
X0166354Y0422634D02*
X0207029Y0422634D01*
X0207021Y0422035D02*
X0166354Y0422035D01*
X0166354Y0421437D02*
X0207013Y0421437D01*
X0207006Y0420838D02*
X0166354Y0420838D01*
X0166354Y0420240D02*
X0206998Y0420240D01*
X0206990Y0419641D02*
X0166354Y0419641D01*
X0166354Y0419043D02*
X0206983Y0419043D01*
X0206975Y0418444D02*
X0166354Y0418444D01*
X0166354Y0417846D02*
X0206967Y0417846D01*
X0206960Y0417247D02*
X0166354Y0417247D01*
X0166354Y0416649D02*
X0206952Y0416649D01*
X0206944Y0416050D02*
X0166354Y0416050D01*
X0166354Y0415452D02*
X0206937Y0415452D01*
X0206929Y0414853D02*
X0166354Y0414853D01*
X0166354Y0414255D02*
X0206921Y0414255D01*
X0206914Y0413656D02*
X0166354Y0413656D01*
X0166354Y0413058D02*
X0206906Y0413058D01*
X0206898Y0412459D02*
X0166354Y0412459D01*
X0166354Y0411861D02*
X0206891Y0411861D01*
X0206883Y0411262D02*
X0166354Y0411262D01*
X0166354Y0410664D02*
X0206875Y0410664D01*
X0206868Y0410065D02*
X0166354Y0410065D01*
X0166354Y0409467D02*
X0206860Y0409467D01*
X0206852Y0408868D02*
X0166354Y0408868D01*
X0166354Y0408270D02*
X0206845Y0408270D01*
X0206837Y0407671D02*
X0166354Y0407671D01*
X0166354Y0407073D02*
X0206829Y0407073D01*
X0206822Y0406474D02*
X0166354Y0406474D01*
X0166354Y0405875D02*
X0206814Y0405875D01*
X0206806Y0405277D02*
X0166354Y0405277D01*
X0166354Y0404678D02*
X0206799Y0404678D01*
X0206791Y0404080D02*
X0166354Y0404080D01*
X0166354Y0403481D02*
X0206783Y0403481D01*
X0206776Y0402883D02*
X0166354Y0402883D01*
X0166354Y0402284D02*
X0206768Y0402284D01*
X0206760Y0401686D02*
X0166354Y0401686D01*
X0166354Y0401087D02*
X0206752Y0401087D01*
X0206745Y0400489D02*
X0166354Y0400489D01*
X0166354Y0399890D02*
X0206737Y0399890D01*
X0206729Y0399292D02*
X0166354Y0399292D01*
X0166354Y0398693D02*
X0206722Y0398693D01*
X0206714Y0398095D02*
X0166354Y0398095D01*
X0166354Y0397496D02*
X0206706Y0397496D01*
X0206699Y0396898D02*
X0166354Y0396898D01*
X0166354Y0396299D02*
X0206691Y0396299D01*
X0206683Y0395701D02*
X0166354Y0395701D01*
X0166354Y0395102D02*
X0206676Y0395102D01*
X0206668Y0394504D02*
X0166354Y0394504D01*
X0166354Y0393905D02*
X0206660Y0393905D01*
X0206653Y0393307D02*
X0166354Y0393307D01*
X0166354Y0392708D02*
X0206645Y0392708D01*
X0206637Y0392110D02*
X0166354Y0392110D01*
X0166354Y0391511D02*
X0206630Y0391511D01*
X0206622Y0390913D02*
X0166354Y0390913D01*
X0166354Y0390314D02*
X0206614Y0390314D01*
X0206607Y0389716D02*
X0166354Y0389716D01*
X0166354Y0389117D02*
X0206599Y0389117D01*
X0206591Y0388519D02*
X0166354Y0388519D01*
X0166354Y0387920D02*
X0206584Y0387920D01*
X0206576Y0387322D02*
X0166354Y0387322D01*
X0166354Y0386723D02*
X0206568Y0386723D01*
X0206561Y0386125D02*
X0166354Y0386125D01*
X0166354Y0385526D02*
X0206553Y0385526D01*
X0206545Y0384928D02*
X0166354Y0384928D01*
X0166354Y0384329D02*
X0206538Y0384329D01*
X0206530Y0383731D02*
X0166354Y0383731D01*
X0166354Y0383132D02*
X0206522Y0383132D01*
X0206515Y0382534D02*
X0166354Y0382534D01*
X0166354Y0381935D02*
X0206507Y0381935D01*
X0206499Y0381337D02*
X0166354Y0381337D01*
X0166354Y0380738D02*
X0206492Y0380738D01*
X0206484Y0380139D02*
X0166354Y0380139D01*
X0166354Y0379541D02*
X0206476Y0379541D01*
X0206469Y0378942D02*
X0166354Y0378942D01*
X0166354Y0378344D02*
X0206461Y0378344D01*
X0206453Y0377745D02*
X0166354Y0377745D01*
X0166354Y0377147D02*
X0206446Y0377147D01*
X0206438Y0376548D02*
X0166354Y0376548D01*
X0166354Y0375950D02*
X0206430Y0375950D01*
X0206423Y0375351D02*
X0166354Y0375351D01*
X0166354Y0374753D02*
X0206415Y0374753D01*
X0206407Y0374154D02*
X0166354Y0374154D01*
X0166354Y0373556D02*
X0206400Y0373556D01*
X0206392Y0372957D02*
X0166354Y0372957D01*
X0166354Y0372359D02*
X0206384Y0372359D01*
X0206376Y0371760D02*
X0166354Y0371760D01*
X0166354Y0371162D02*
X0206369Y0371162D01*
X0206361Y0370563D02*
X0166354Y0370563D01*
X0166354Y0369965D02*
X0206353Y0369965D01*
X0206346Y0369366D02*
X0166354Y0369366D01*
X0166354Y0368768D02*
X0206338Y0368768D01*
X0206330Y0368169D02*
X0166354Y0368169D01*
X0166354Y0367571D02*
X0206323Y0367571D01*
X0206315Y0366972D02*
X0166354Y0366972D01*
X0166354Y0366374D02*
X0206307Y0366374D01*
X0206300Y0365775D02*
X0166354Y0365775D01*
X0166354Y0365177D02*
X0206292Y0365177D01*
X0206284Y0364578D02*
X0166354Y0364578D01*
X0166354Y0363980D02*
X0206277Y0363980D01*
X0206269Y0363381D02*
X0166354Y0363381D01*
X0166354Y0362783D02*
X0206261Y0362783D01*
X0206254Y0362184D02*
X0166354Y0362184D01*
X0166354Y0361586D02*
X0206246Y0361586D01*
X0206238Y0360987D02*
X0166354Y0360987D01*
X0166354Y0360389D02*
X0206231Y0360389D01*
X0206223Y0359790D02*
X0173919Y0359790D01*
X0174517Y0359192D02*
X0189034Y0359192D01*
X0189205Y0359362D02*
X0186276Y0356433D01*
X0186276Y0354662D01*
X0190976Y0354662D01*
X0190976Y0359362D01*
X0189205Y0359362D01*
X0188435Y0358593D02*
X0183833Y0358593D01*
X0183264Y0359162D02*
X0179287Y0359162D01*
X0176476Y0356350D01*
X0176476Y0352374D01*
X0179287Y0349562D01*
X0183264Y0349562D01*
X0186076Y0352374D01*
X0186076Y0356350D01*
X0183264Y0359162D01*
X0184431Y0357995D02*
X0187837Y0357995D01*
X0187238Y0357396D02*
X0185030Y0357396D01*
X0185628Y0356798D02*
X0186640Y0356798D01*
X0186276Y0356199D02*
X0186076Y0356199D01*
X0186076Y0355601D02*
X0186276Y0355601D01*
X0186276Y0355002D02*
X0186076Y0355002D01*
X0186076Y0354404D02*
X0190976Y0354404D01*
X0190976Y0354662D02*
X0190976Y0354062D01*
X0191576Y0354062D01*
X0191576Y0354662D01*
X0196276Y0354662D01*
X0196276Y0356433D01*
X0193347Y0359362D01*
X0191576Y0359362D01*
X0191576Y0354662D01*
X0190976Y0354662D01*
X0190976Y0355002D02*
X0191576Y0355002D01*
X0191576Y0354404D02*
X0196476Y0354404D01*
X0196276Y0354062D02*
X0191576Y0354062D01*
X0191576Y0349362D01*
X0193347Y0349362D01*
X0196276Y0352291D01*
X0196276Y0354062D01*
X0196276Y0353805D02*
X0196476Y0353805D01*
X0196476Y0353206D02*
X0196276Y0353206D01*
X0196276Y0352608D02*
X0196476Y0352608D01*
X0196476Y0352374D02*
X0199287Y0349562D01*
X0203264Y0349562D01*
X0206076Y0352374D01*
X0206076Y0356350D01*
X0203264Y0359162D01*
X0199287Y0359162D01*
X0196476Y0356350D01*
X0196476Y0352374D01*
X0196840Y0352009D02*
X0195994Y0352009D01*
X0195395Y0351411D02*
X0197439Y0351411D01*
X0198037Y0350812D02*
X0194797Y0350812D01*
X0194198Y0350214D02*
X0198636Y0350214D01*
X0199234Y0349615D02*
X0193600Y0349615D01*
X0193264Y0349162D02*
X0189287Y0349162D01*
X0186476Y0346350D01*
X0186476Y0342374D01*
X0189287Y0339562D01*
X0193264Y0339562D01*
X0196076Y0342374D01*
X0196076Y0346350D01*
X0193264Y0349162D01*
X0193409Y0349017D02*
X0198859Y0349017D01*
X0198261Y0348418D02*
X0194008Y0348418D01*
X0194606Y0347820D02*
X0197662Y0347820D01*
X0197064Y0347221D02*
X0195205Y0347221D01*
X0195803Y0346623D02*
X0196465Y0346623D01*
X0196276Y0346024D02*
X0196076Y0346024D01*
X0196076Y0345426D02*
X0196276Y0345426D01*
X0196276Y0344827D02*
X0196076Y0344827D01*
X0196076Y0344229D02*
X0200976Y0344229D01*
X0200976Y0344062D02*
X0196276Y0344062D01*
X0196276Y0342291D01*
X0199205Y0339362D01*
X0200976Y0339362D01*
X0200976Y0344062D01*
X0200976Y0343630D02*
X0201576Y0343630D01*
X0201576Y0343032D02*
X0200976Y0343032D01*
X0200976Y0342433D02*
X0201576Y0342433D01*
X0201576Y0341835D02*
X0200976Y0341835D01*
X0200976Y0341236D02*
X0201576Y0341236D01*
X0201576Y0340638D02*
X0200976Y0340638D01*
X0200976Y0340039D02*
X0201576Y0340039D01*
X0201576Y0339441D02*
X0200976Y0339441D01*
X0199126Y0339441D02*
X0183425Y0339441D01*
X0183347Y0339362D02*
X0186276Y0342291D01*
X0186276Y0344062D01*
X0181576Y0344062D01*
X0181576Y0344662D01*
X0186276Y0344662D01*
X0186276Y0346433D01*
X0183347Y0349362D01*
X0181576Y0349362D01*
X0181576Y0344662D01*
X0180976Y0344662D01*
X0180976Y0349362D01*
X0179205Y0349362D01*
X0176276Y0346433D01*
X0176276Y0344662D01*
X0180976Y0344662D01*
X0180976Y0344062D01*
X0181576Y0344062D01*
X0181576Y0339362D01*
X0183347Y0339362D01*
X0183264Y0339162D02*
X0179287Y0339162D01*
X0176476Y0336350D01*
X0176476Y0332374D01*
X0179287Y0329562D01*
X0183264Y0329562D01*
X0186076Y0332374D01*
X0186076Y0336350D01*
X0183264Y0339162D01*
X0183584Y0338842D02*
X0188685Y0338842D01*
X0189205Y0339362D02*
X0186276Y0336433D01*
X0186276Y0334662D01*
X0190976Y0334662D01*
X0190976Y0339362D01*
X0189205Y0339362D01*
X0188810Y0340039D02*
X0184024Y0340039D01*
X0184622Y0340638D02*
X0188212Y0340638D01*
X0187613Y0341236D02*
X0185221Y0341236D01*
X0185819Y0341835D02*
X0187015Y0341835D01*
X0186476Y0342433D02*
X0186276Y0342433D01*
X0186276Y0343032D02*
X0186476Y0343032D01*
X0186476Y0343630D02*
X0186276Y0343630D01*
X0186476Y0344229D02*
X0181576Y0344229D01*
X0181576Y0344827D02*
X0180976Y0344827D01*
X0180976Y0344229D02*
X0176076Y0344229D01*
X0176276Y0344062D02*
X0176276Y0342291D01*
X0179205Y0339362D01*
X0180976Y0339362D01*
X0180976Y0344062D01*
X0176276Y0344062D01*
X0176276Y0343630D02*
X0176076Y0343630D01*
X0176076Y0343374D02*
X0173264Y0340562D01*
X0169287Y0340562D01*
X0166476Y0343374D01*
X0166476Y0347350D01*
X0169287Y0350162D01*
X0173264Y0350162D01*
X0176076Y0347350D01*
X0176076Y0343374D01*
X0176276Y0343032D02*
X0175733Y0343032D01*
X0176276Y0342433D02*
X0175135Y0342433D01*
X0174536Y0341835D02*
X0176732Y0341835D01*
X0177330Y0341236D02*
X0173938Y0341236D01*
X0173339Y0340638D02*
X0177929Y0340638D01*
X0178527Y0340039D02*
X0173670Y0340039D01*
X0174268Y0339441D02*
X0179126Y0339441D01*
X0178967Y0338842D02*
X0174867Y0338842D01*
X0175465Y0338244D02*
X0178369Y0338244D01*
X0177770Y0337645D02*
X0176064Y0337645D01*
X0176276Y0337047D02*
X0177172Y0337047D01*
X0176573Y0336448D02*
X0176276Y0336448D01*
X0176276Y0335850D02*
X0176476Y0335850D01*
X0176476Y0335251D02*
X0171576Y0335251D01*
X0171576Y0335062D02*
X0176276Y0335062D01*
X0176276Y0333291D01*
X0173347Y0330362D01*
X0171576Y0330362D01*
X0171576Y0335062D01*
X0171576Y0334653D02*
X0170976Y0334653D01*
X0170976Y0334054D02*
X0171576Y0334054D01*
X0171576Y0333456D02*
X0170976Y0333456D01*
X0170976Y0332857D02*
X0171576Y0332857D01*
X0171576Y0332259D02*
X0170976Y0332259D01*
X0170976Y0331660D02*
X0171576Y0331660D01*
X0171576Y0331062D02*
X0170976Y0331062D01*
X0170976Y0330463D02*
X0171576Y0330463D01*
X0173447Y0330463D02*
X0178387Y0330463D01*
X0178985Y0329865D02*
X0173561Y0329865D01*
X0174160Y0329266D02*
X0179108Y0329266D01*
X0178510Y0328668D02*
X0174758Y0328668D01*
X0175357Y0328069D02*
X0177911Y0328069D01*
X0177313Y0327470D02*
X0175955Y0327470D01*
X0176076Y0326872D02*
X0176714Y0326872D01*
X0176276Y0326273D02*
X0176076Y0326273D01*
X0176076Y0325675D02*
X0176276Y0325675D01*
X0176276Y0325076D02*
X0176076Y0325076D01*
X0176076Y0324478D02*
X0180976Y0324478D01*
X0180976Y0325076D02*
X0181576Y0325076D01*
X0181576Y0324478D02*
X0186476Y0324478D01*
X0186476Y0325076D02*
X0186276Y0325076D01*
X0186276Y0325675D02*
X0186476Y0325675D01*
X0186476Y0326273D02*
X0186276Y0326273D01*
X0185837Y0326872D02*
X0186997Y0326872D01*
X0187596Y0327470D02*
X0185238Y0327470D01*
X0184640Y0328069D02*
X0188194Y0328069D01*
X0188793Y0328668D02*
X0184041Y0328668D01*
X0183443Y0329266D02*
X0199108Y0329266D01*
X0198985Y0329865D02*
X0193849Y0329865D01*
X0193347Y0329362D02*
X0196276Y0332291D01*
X0196276Y0334062D01*
X0191576Y0334062D01*
X0191576Y0334662D01*
X0196276Y0334662D01*
X0196276Y0336433D01*
X0193347Y0339362D01*
X0191576Y0339362D01*
X0191576Y0334662D01*
X0190976Y0334662D01*
X0190976Y0334062D01*
X0191576Y0334062D01*
X0191576Y0329362D01*
X0193347Y0329362D01*
X0193758Y0328668D02*
X0198510Y0328668D01*
X0197911Y0328069D02*
X0194357Y0328069D01*
X0194955Y0327470D02*
X0197313Y0327470D01*
X0196714Y0326872D02*
X0195554Y0326872D01*
X0196076Y0326273D02*
X0196276Y0326273D01*
X0196276Y0325675D02*
X0196076Y0325675D01*
X0196076Y0325076D02*
X0196276Y0325076D01*
X0196076Y0324478D02*
X0200976Y0324478D01*
X0200976Y0325076D02*
X0201576Y0325076D01*
X0201576Y0325675D02*
X0200976Y0325675D01*
X0200976Y0326273D02*
X0201576Y0326273D01*
X0201576Y0326872D02*
X0200976Y0326872D01*
X0200976Y0327470D02*
X0201576Y0327470D01*
X0201576Y0328069D02*
X0200976Y0328069D01*
X0200976Y0328668D02*
X0201576Y0328668D01*
X0201576Y0329266D02*
X0200976Y0329266D01*
X0203443Y0329266D02*
X0205832Y0329266D01*
X0205824Y0328668D02*
X0204041Y0328668D01*
X0204640Y0328069D02*
X0205816Y0328069D01*
X0205809Y0327470D02*
X0205238Y0327470D01*
X0205839Y0329865D02*
X0203566Y0329865D01*
X0204165Y0330463D02*
X0205847Y0330463D01*
X0205855Y0331062D02*
X0204763Y0331062D01*
X0205362Y0331660D02*
X0205862Y0331660D01*
X0205931Y0337047D02*
X0205379Y0337047D01*
X0205939Y0337645D02*
X0204781Y0337645D01*
X0204182Y0338244D02*
X0205947Y0338244D01*
X0205954Y0338842D02*
X0203584Y0338842D01*
X0203425Y0339441D02*
X0205962Y0339441D01*
X0205970Y0340039D02*
X0204024Y0340039D01*
X0204622Y0340638D02*
X0205977Y0340638D01*
X0205985Y0341236D02*
X0205221Y0341236D01*
X0205819Y0341835D02*
X0205993Y0341835D01*
X0201576Y0344827D02*
X0200976Y0344827D01*
X0200976Y0345426D02*
X0201576Y0345426D01*
X0201576Y0346024D02*
X0200976Y0346024D01*
X0200976Y0346623D02*
X0201576Y0346623D01*
X0201576Y0347221D02*
X0200976Y0347221D01*
X0200976Y0347820D02*
X0201576Y0347820D01*
X0201576Y0348418D02*
X0200976Y0348418D01*
X0200976Y0349017D02*
X0201576Y0349017D01*
X0203317Y0349615D02*
X0206093Y0349615D01*
X0206085Y0349017D02*
X0203692Y0349017D01*
X0204290Y0348418D02*
X0206077Y0348418D01*
X0206070Y0347820D02*
X0204889Y0347820D01*
X0205487Y0347221D02*
X0206062Y0347221D01*
X0206100Y0350214D02*
X0203916Y0350214D01*
X0204514Y0350812D02*
X0206108Y0350812D01*
X0206116Y0351411D02*
X0205113Y0351411D01*
X0205711Y0352009D02*
X0206123Y0352009D01*
X0206131Y0352608D02*
X0206076Y0352608D01*
X0206076Y0353206D02*
X0206139Y0353206D01*
X0206146Y0353805D02*
X0206076Y0353805D01*
X0206076Y0354404D02*
X0206154Y0354404D01*
X0206162Y0355002D02*
X0206076Y0355002D01*
X0206076Y0355601D02*
X0206169Y0355601D01*
X0206177Y0356199D02*
X0206076Y0356199D01*
X0206185Y0356798D02*
X0205628Y0356798D01*
X0206192Y0357396D02*
X0205030Y0357396D01*
X0204431Y0357995D02*
X0206200Y0357995D01*
X0206208Y0358593D02*
X0203833Y0358593D01*
X0206215Y0359192D02*
X0193517Y0359192D01*
X0194116Y0358593D02*
X0198718Y0358593D01*
X0198120Y0357995D02*
X0194714Y0357995D01*
X0195313Y0357396D02*
X0197521Y0357396D01*
X0196923Y0356798D02*
X0195911Y0356798D01*
X0196276Y0356199D02*
X0196476Y0356199D01*
X0196476Y0355601D02*
X0196276Y0355601D01*
X0196276Y0355002D02*
X0196476Y0355002D01*
X0191576Y0355601D02*
X0190976Y0355601D01*
X0190976Y0356199D02*
X0191576Y0356199D01*
X0191576Y0356798D02*
X0190976Y0356798D01*
X0190976Y0357396D02*
X0191576Y0357396D01*
X0191576Y0357995D02*
X0190976Y0357995D01*
X0190976Y0358593D02*
X0191576Y0358593D01*
X0191576Y0359192D02*
X0190976Y0359192D01*
X0190976Y0354062D02*
X0186276Y0354062D01*
X0186276Y0352291D01*
X0189205Y0349362D01*
X0190976Y0349362D01*
X0190976Y0354062D01*
X0190976Y0353805D02*
X0191576Y0353805D01*
X0191576Y0353206D02*
X0190976Y0353206D01*
X0190976Y0352608D02*
X0191576Y0352608D01*
X0191576Y0352009D02*
X0190976Y0352009D01*
X0190976Y0351411D02*
X0191576Y0351411D01*
X0191576Y0350812D02*
X0190976Y0350812D01*
X0190976Y0350214D02*
X0191576Y0350214D01*
X0191576Y0349615D02*
X0190976Y0349615D01*
X0189142Y0349017D02*
X0183692Y0349017D01*
X0183317Y0349615D02*
X0188951Y0349615D01*
X0188353Y0350214D02*
X0183916Y0350214D01*
X0184514Y0350812D02*
X0187754Y0350812D01*
X0187156Y0351411D02*
X0185113Y0351411D01*
X0185711Y0352009D02*
X0186557Y0352009D01*
X0186276Y0352608D02*
X0186076Y0352608D01*
X0186076Y0353206D02*
X0186276Y0353206D01*
X0186276Y0353805D02*
X0186076Y0353805D01*
X0184290Y0348418D02*
X0188544Y0348418D01*
X0187945Y0347820D02*
X0184889Y0347820D01*
X0185487Y0347221D02*
X0187347Y0347221D01*
X0186748Y0346623D02*
X0186086Y0346623D01*
X0186276Y0346024D02*
X0186476Y0346024D01*
X0186476Y0345426D02*
X0186276Y0345426D01*
X0186276Y0344827D02*
X0186476Y0344827D01*
X0181576Y0345426D02*
X0180976Y0345426D01*
X0180976Y0346024D02*
X0181576Y0346024D01*
X0181576Y0346623D02*
X0180976Y0346623D01*
X0180976Y0347221D02*
X0181576Y0347221D01*
X0181576Y0347820D02*
X0180976Y0347820D01*
X0180976Y0348418D02*
X0181576Y0348418D01*
X0181576Y0349017D02*
X0180976Y0349017D01*
X0179234Y0349615D02*
X0173811Y0349615D01*
X0174409Y0349017D02*
X0178859Y0349017D01*
X0178261Y0348418D02*
X0175008Y0348418D01*
X0175606Y0347820D02*
X0177662Y0347820D01*
X0177064Y0347221D02*
X0176076Y0347221D01*
X0176076Y0346623D02*
X0176465Y0346623D01*
X0176276Y0346024D02*
X0176076Y0346024D01*
X0176076Y0345426D02*
X0176276Y0345426D01*
X0176276Y0344827D02*
X0176076Y0344827D01*
X0180976Y0343630D02*
X0181576Y0343630D01*
X0181576Y0343032D02*
X0180976Y0343032D01*
X0180976Y0342433D02*
X0181576Y0342433D01*
X0181576Y0341835D02*
X0180976Y0341835D01*
X0180976Y0341236D02*
X0181576Y0341236D01*
X0181576Y0340638D02*
X0180976Y0340638D01*
X0180976Y0340039D02*
X0181576Y0340039D01*
X0181576Y0339441D02*
X0180976Y0339441D01*
X0184182Y0338244D02*
X0188086Y0338244D01*
X0187488Y0337645D02*
X0184781Y0337645D01*
X0185379Y0337047D02*
X0186889Y0337047D01*
X0186291Y0336448D02*
X0185978Y0336448D01*
X0186076Y0335850D02*
X0186276Y0335850D01*
X0186276Y0335251D02*
X0186076Y0335251D01*
X0186076Y0334653D02*
X0190976Y0334653D01*
X0190976Y0334062D02*
X0186276Y0334062D01*
X0186276Y0332291D01*
X0189205Y0329362D01*
X0190976Y0329362D01*
X0190976Y0334062D01*
X0190976Y0334054D02*
X0191576Y0334054D01*
X0191576Y0333456D02*
X0190976Y0333456D01*
X0190976Y0332857D02*
X0191576Y0332857D01*
X0191576Y0332259D02*
X0190976Y0332259D01*
X0190976Y0331660D02*
X0191576Y0331660D01*
X0191576Y0331062D02*
X0190976Y0331062D01*
X0190976Y0330463D02*
X0191576Y0330463D01*
X0191576Y0329865D02*
X0190976Y0329865D01*
X0188702Y0329865D02*
X0183566Y0329865D01*
X0184165Y0330463D02*
X0188104Y0330463D01*
X0187505Y0331062D02*
X0184763Y0331062D01*
X0185362Y0331660D02*
X0186907Y0331660D01*
X0186308Y0332259D02*
X0185960Y0332259D01*
X0186076Y0332857D02*
X0186276Y0332857D01*
X0186276Y0333456D02*
X0186076Y0333456D01*
X0186076Y0334054D02*
X0186276Y0334054D01*
X0190976Y0335251D02*
X0191576Y0335251D01*
X0191576Y0334653D02*
X0196476Y0334653D01*
X0196476Y0335251D02*
X0196276Y0335251D01*
X0196276Y0335850D02*
X0196476Y0335850D01*
X0196573Y0336448D02*
X0196261Y0336448D01*
X0195662Y0337047D02*
X0197172Y0337047D01*
X0197770Y0337645D02*
X0195064Y0337645D01*
X0194465Y0338244D02*
X0198369Y0338244D01*
X0198967Y0338842D02*
X0193867Y0338842D01*
X0193741Y0340039D02*
X0198527Y0340039D01*
X0197929Y0340638D02*
X0194339Y0340638D01*
X0194938Y0341236D02*
X0197330Y0341236D01*
X0196732Y0341835D02*
X0195536Y0341835D01*
X0196076Y0342433D02*
X0196276Y0342433D01*
X0196276Y0343032D02*
X0196076Y0343032D01*
X0196076Y0343630D02*
X0196276Y0343630D01*
X0191576Y0338842D02*
X0190976Y0338842D01*
X0190976Y0338244D02*
X0191576Y0338244D01*
X0191576Y0337645D02*
X0190976Y0337645D01*
X0190976Y0337047D02*
X0191576Y0337047D01*
X0191576Y0336448D02*
X0190976Y0336448D01*
X0190976Y0335850D02*
X0191576Y0335850D01*
X0196276Y0334054D02*
X0196476Y0334054D01*
X0196476Y0333456D02*
X0196276Y0333456D01*
X0196276Y0332857D02*
X0196476Y0332857D01*
X0196591Y0332259D02*
X0196243Y0332259D01*
X0195645Y0331660D02*
X0197189Y0331660D01*
X0197788Y0331062D02*
X0195046Y0331062D01*
X0194447Y0330463D02*
X0198387Y0330463D01*
X0196276Y0323879D02*
X0196076Y0323879D01*
X0196076Y0323281D02*
X0196276Y0323281D01*
X0196276Y0322682D02*
X0196076Y0322682D01*
X0195785Y0322084D02*
X0196483Y0322084D01*
X0197081Y0321485D02*
X0195187Y0321485D01*
X0187364Y0321485D02*
X0185470Y0321485D01*
X0186068Y0322084D02*
X0186766Y0322084D01*
X0186476Y0322682D02*
X0186276Y0322682D01*
X0186276Y0323281D02*
X0186476Y0323281D01*
X0186476Y0323879D02*
X0186276Y0323879D01*
X0181576Y0325675D02*
X0180976Y0325675D01*
X0180976Y0326273D02*
X0181576Y0326273D01*
X0181576Y0326872D02*
X0180976Y0326872D01*
X0180976Y0327470D02*
X0181576Y0327470D01*
X0181576Y0328069D02*
X0180976Y0328069D01*
X0180976Y0328668D02*
X0181576Y0328668D01*
X0181576Y0329266D02*
X0180976Y0329266D01*
X0177788Y0331062D02*
X0174046Y0331062D01*
X0174645Y0331660D02*
X0177189Y0331660D01*
X0176591Y0332259D02*
X0175243Y0332259D01*
X0175842Y0332857D02*
X0176476Y0332857D01*
X0176476Y0333456D02*
X0176276Y0333456D01*
X0176276Y0334054D02*
X0176476Y0334054D01*
X0176476Y0334653D02*
X0176276Y0334653D01*
X0171576Y0335850D02*
X0170976Y0335850D01*
X0170976Y0336448D02*
X0171576Y0336448D01*
X0171576Y0337047D02*
X0170976Y0337047D01*
X0170976Y0337645D02*
X0171576Y0337645D01*
X0171576Y0338244D02*
X0170976Y0338244D01*
X0170976Y0338842D02*
X0171576Y0338842D01*
X0171576Y0339441D02*
X0170976Y0339441D01*
X0170976Y0340039D02*
X0171576Y0340039D01*
X0169212Y0340638D02*
X0166354Y0340638D01*
X0166354Y0341236D02*
X0168613Y0341236D01*
X0168015Y0341835D02*
X0166354Y0341835D01*
X0166354Y0342433D02*
X0167416Y0342433D01*
X0166818Y0343032D02*
X0166354Y0343032D01*
X0166354Y0343630D02*
X0166476Y0343630D01*
X0166476Y0344229D02*
X0166354Y0344229D01*
X0166354Y0344827D02*
X0166476Y0344827D01*
X0166476Y0345426D02*
X0166354Y0345426D01*
X0166354Y0346024D02*
X0166476Y0346024D01*
X0166476Y0346623D02*
X0166354Y0346623D01*
X0166354Y0347221D02*
X0166476Y0347221D01*
X0166354Y0347820D02*
X0166945Y0347820D01*
X0166354Y0348418D02*
X0167544Y0348418D01*
X0168142Y0349017D02*
X0166354Y0349017D01*
X0166354Y0349615D02*
X0168741Y0349615D01*
X0168754Y0350812D02*
X0166354Y0350812D01*
X0166354Y0350214D02*
X0178636Y0350214D01*
X0178037Y0350812D02*
X0173797Y0350812D01*
X0173347Y0350362D02*
X0176276Y0353291D01*
X0176276Y0355062D01*
X0171576Y0355062D01*
X0171576Y0350362D01*
X0173347Y0350362D01*
X0174395Y0351411D02*
X0177439Y0351411D01*
X0176840Y0352009D02*
X0174994Y0352009D01*
X0175592Y0352608D02*
X0176476Y0352608D01*
X0176476Y0353206D02*
X0176191Y0353206D01*
X0176276Y0353805D02*
X0176476Y0353805D01*
X0176476Y0354404D02*
X0176276Y0354404D01*
X0176276Y0355002D02*
X0176476Y0355002D01*
X0176476Y0355601D02*
X0171576Y0355601D01*
X0171576Y0356199D02*
X0170976Y0356199D01*
X0170976Y0356798D02*
X0171576Y0356798D01*
X0171576Y0357396D02*
X0170976Y0357396D01*
X0170976Y0357995D02*
X0171576Y0357995D01*
X0171576Y0358593D02*
X0170976Y0358593D01*
X0170976Y0359192D02*
X0171576Y0359192D01*
X0171576Y0359790D02*
X0170976Y0359790D01*
X0168632Y0359790D02*
X0166354Y0359790D01*
X0166354Y0359192D02*
X0168034Y0359192D01*
X0167435Y0358593D02*
X0166354Y0358593D01*
X0166354Y0357995D02*
X0166837Y0357995D01*
X0166360Y0353206D02*
X0166354Y0353206D01*
X0166354Y0352608D02*
X0166959Y0352608D01*
X0167557Y0352009D02*
X0166354Y0352009D01*
X0166354Y0351411D02*
X0168156Y0351411D01*
X0170976Y0351411D02*
X0171576Y0351411D01*
X0171576Y0352009D02*
X0170976Y0352009D01*
X0170976Y0352608D02*
X0171576Y0352608D01*
X0171576Y0353206D02*
X0170976Y0353206D01*
X0170976Y0353805D02*
X0171576Y0353805D01*
X0171576Y0354404D02*
X0170976Y0354404D01*
X0170976Y0355002D02*
X0171576Y0355002D01*
X0171576Y0350812D02*
X0170976Y0350812D01*
X0176276Y0356199D02*
X0176476Y0356199D01*
X0176276Y0356798D02*
X0176923Y0356798D01*
X0177521Y0357396D02*
X0176276Y0357396D01*
X0175714Y0357995D02*
X0178120Y0357995D01*
X0178718Y0358593D02*
X0175116Y0358593D01*
X0168882Y0340039D02*
X0166354Y0340039D01*
X0166354Y0339441D02*
X0168283Y0339441D01*
X0167685Y0338842D02*
X0166354Y0338842D01*
X0166354Y0338244D02*
X0167086Y0338244D01*
X0166488Y0337645D02*
X0166354Y0337645D01*
X0166354Y0332857D02*
X0166710Y0332857D01*
X0166354Y0332259D02*
X0167308Y0332259D01*
X0167907Y0331660D02*
X0166354Y0331660D01*
X0166354Y0331062D02*
X0168505Y0331062D01*
X0169104Y0330463D02*
X0166354Y0330463D01*
X0166354Y0329865D02*
X0168990Y0329865D01*
X0168391Y0329266D02*
X0166354Y0329266D01*
X0166354Y0328668D02*
X0167793Y0328668D01*
X0167194Y0328069D02*
X0166354Y0328069D01*
X0166354Y0327470D02*
X0166596Y0327470D01*
X0166476Y0326872D02*
X0166354Y0326872D01*
X0166354Y0326273D02*
X0166476Y0326273D01*
X0166476Y0325675D02*
X0166354Y0325675D01*
X0166354Y0325076D02*
X0166476Y0325076D01*
X0166476Y0324478D02*
X0166354Y0324478D01*
X0166354Y0323879D02*
X0166476Y0323879D01*
X0166569Y0323281D02*
X0166354Y0323281D01*
X0166354Y0322682D02*
X0167167Y0322682D01*
X0167766Y0322084D02*
X0166354Y0322084D01*
X0166354Y0321485D02*
X0168364Y0321485D01*
X0174187Y0321485D02*
X0177081Y0321485D01*
X0176483Y0322084D02*
X0174785Y0322084D01*
X0175384Y0322682D02*
X0176276Y0322682D01*
X0176276Y0323281D02*
X0175983Y0323281D01*
X0176076Y0323879D02*
X0176276Y0323879D01*
X0563992Y0350214D02*
X0572336Y0350214D01*
X0571738Y0350812D02*
X0567498Y0350812D01*
X0568096Y0351411D02*
X0571139Y0351411D01*
X0570541Y0352009D02*
X0568695Y0352009D01*
X0569293Y0352608D02*
X0570176Y0352608D01*
X0570176Y0353206D02*
X0569892Y0353206D01*
X0569976Y0353805D02*
X0570176Y0353805D01*
X0570176Y0354404D02*
X0569976Y0354404D01*
X0569976Y0355002D02*
X0570176Y0355002D01*
X0570176Y0355601D02*
X0565276Y0355601D01*
X0565276Y0356199D02*
X0564676Y0356199D01*
X0564676Y0356798D02*
X0565276Y0356798D01*
X0565276Y0357396D02*
X0564676Y0357396D01*
X0564676Y0357995D02*
X0565276Y0357995D01*
X0565276Y0358593D02*
X0564676Y0358593D01*
X0564676Y0359192D02*
X0565276Y0359192D01*
X0565276Y0359790D02*
X0564676Y0359790D01*
X0568817Y0358593D02*
X0572419Y0358593D01*
X0571821Y0357995D02*
X0569415Y0357995D01*
X0569976Y0357396D02*
X0571222Y0357396D01*
X0570624Y0356798D02*
X0569976Y0356798D01*
X0569976Y0356199D02*
X0570176Y0356199D01*
X0565276Y0355002D02*
X0564676Y0355002D01*
X0564676Y0354404D02*
X0565276Y0354404D01*
X0565276Y0353805D02*
X0564676Y0353805D01*
X0564676Y0353206D02*
X0565276Y0353206D01*
X0565276Y0352608D02*
X0564676Y0352608D01*
X0564676Y0352009D02*
X0565276Y0352009D01*
X0565276Y0351411D02*
X0564676Y0351411D01*
X0564676Y0350812D02*
X0565276Y0350812D01*
X0567511Y0349615D02*
X0572935Y0349615D01*
X0572560Y0349017D02*
X0568110Y0349017D01*
X0568708Y0348418D02*
X0571962Y0348418D01*
X0571363Y0347820D02*
X0569307Y0347820D01*
X0569776Y0347221D02*
X0570764Y0347221D01*
X0570166Y0346623D02*
X0569776Y0346623D01*
X0569776Y0346024D02*
X0569976Y0346024D01*
X0569976Y0345426D02*
X0569776Y0345426D01*
X0569776Y0344827D02*
X0569976Y0344827D01*
X0584676Y0334054D02*
X0585276Y0334054D01*
X0585276Y0333456D02*
X0584676Y0333456D01*
X0584676Y0332857D02*
X0585276Y0332857D01*
X0585276Y0332259D02*
X0584676Y0332259D01*
X0584676Y0331660D02*
X0585276Y0331660D01*
X0585276Y0331062D02*
X0584676Y0331062D01*
X0584676Y0330463D02*
X0585276Y0330463D01*
X0585276Y0329865D02*
X0584676Y0329865D01*
X0587550Y0329865D02*
X0592686Y0329865D01*
X0592087Y0330463D02*
X0588148Y0330463D01*
X0588747Y0331062D02*
X0591489Y0331062D01*
X0590890Y0331660D02*
X0589345Y0331660D01*
X0589944Y0332259D02*
X0590292Y0332259D01*
X0590176Y0332857D02*
X0589976Y0332857D01*
X0589976Y0333456D02*
X0590176Y0333456D01*
X0590176Y0334054D02*
X0589976Y0334054D01*
X0597285Y0338842D02*
X0599425Y0338842D01*
X0599425Y0338244D02*
X0597883Y0338244D01*
X0598482Y0337645D02*
X0599425Y0337645D01*
X0599425Y0337047D02*
X0599080Y0337047D01*
X0599425Y0339441D02*
X0597126Y0339441D01*
X0597724Y0340039D02*
X0599425Y0340039D01*
X0599425Y0340638D02*
X0598323Y0340638D01*
X0598921Y0341236D02*
X0599425Y0341236D01*
X0589976Y0323879D02*
X0589776Y0323879D01*
X0589776Y0323281D02*
X0589976Y0323281D01*
X0589976Y0322682D02*
X0589776Y0322682D01*
X0589486Y0322084D02*
X0590184Y0322084D01*
X0590782Y0321485D02*
X0588888Y0321485D01*
X0581065Y0321485D02*
X0579171Y0321485D01*
X0579769Y0322084D02*
X0580466Y0322084D01*
X0580176Y0322682D02*
X0579976Y0322682D01*
X0579976Y0323281D02*
X0580176Y0323281D01*
X0580176Y0323879D02*
X0579976Y0323879D01*
X0563992Y0651864D02*
X0599425Y0651864D01*
X0599425Y0652462D02*
X0563992Y0652462D01*
X0563992Y0653061D02*
X0599425Y0653061D01*
X0599425Y0653659D02*
X0563992Y0653659D01*
X0563992Y0654258D02*
X0599425Y0654258D01*
X0599425Y0654856D02*
X0563992Y0654856D01*
X0563992Y0655455D02*
X0599425Y0655455D01*
X0599425Y0656053D02*
X0563992Y0656053D01*
X0563992Y0656652D02*
X0599425Y0656652D01*
X0599425Y0657250D02*
X0563992Y0657250D01*
X0563992Y0657849D02*
X0599425Y0657849D01*
X0599425Y0658447D02*
X0563992Y0658447D01*
X0563992Y0659046D02*
X0599425Y0659046D01*
X0599425Y0659644D02*
X0563992Y0659644D01*
X0563992Y0660243D02*
X0599425Y0660243D01*
X0599425Y0660841D02*
X0563992Y0660841D01*
X0563992Y0661440D02*
X0599425Y0661440D01*
X0599425Y0662038D02*
X0563992Y0662038D01*
X0563992Y0662637D02*
X0599425Y0662637D01*
X0599425Y0663235D02*
X0563992Y0663235D01*
X0563992Y0663834D02*
X0599425Y0663834D01*
X0599425Y0664432D02*
X0563992Y0664432D01*
X0563992Y0665031D02*
X0599425Y0665031D01*
X0599425Y0665629D02*
X0563992Y0665629D01*
X0563992Y0666228D02*
X0599425Y0666228D01*
X0599425Y0666826D02*
X0563992Y0666826D01*
X0563992Y0667425D02*
X0599425Y0667425D01*
X0599425Y0668023D02*
X0563992Y0668023D01*
X0563992Y0668622D02*
X0599425Y0668622D01*
X0599425Y0669220D02*
X0563992Y0669220D01*
X0563992Y0669819D02*
X0599425Y0669819D01*
X0599425Y0670417D02*
X0563992Y0670417D01*
X0563992Y0671016D02*
X0599425Y0671016D01*
X0599425Y0671615D02*
X0563992Y0671615D01*
X0563992Y0672213D02*
X0599425Y0672213D01*
X0599425Y0672812D02*
X0563992Y0672812D01*
X0563992Y0673410D02*
X0599425Y0673410D01*
X0599425Y0674009D02*
X0563992Y0674009D01*
X0563992Y0674607D02*
X0599425Y0674607D01*
X0599425Y0675206D02*
X0563992Y0675206D01*
X0563992Y0675804D02*
X0599425Y0675804D01*
X0599425Y0676403D02*
X0563992Y0676403D01*
X0563992Y0677001D02*
X0599425Y0677001D01*
X0599425Y0677600D02*
X0563992Y0677600D01*
X0563992Y0678198D02*
X0599425Y0678198D01*
X0599425Y0678797D02*
X0563992Y0678797D01*
X0563992Y0679395D02*
X0599425Y0679395D01*
X0599425Y0679994D02*
X0563992Y0679994D01*
X0563992Y0680592D02*
X0599425Y0680592D01*
X0599425Y0681191D02*
X0563992Y0681191D01*
X0563992Y0681789D02*
X0599425Y0681789D01*
X0599425Y0682388D02*
X0563992Y0682388D01*
X0563992Y0682986D02*
X0599425Y0682986D01*
X0599425Y0683585D02*
X0563992Y0683585D01*
X0563992Y0684183D02*
X0599425Y0684183D01*
X0599425Y0684782D02*
X0563992Y0684782D01*
X0563992Y0685380D02*
X0599425Y0685380D01*
X0599425Y0685979D02*
X0563992Y0685979D01*
X0563992Y0686577D02*
X0599425Y0686577D01*
X0599425Y0687176D02*
X0563992Y0687176D01*
X0563992Y0687774D02*
X0599425Y0687774D01*
X0599425Y0688373D02*
X0563992Y0688373D01*
X0563992Y0688971D02*
X0599425Y0688971D01*
X0599425Y0689570D02*
X0563992Y0689570D01*
X0563992Y0690168D02*
X0599425Y0690168D01*
X0599425Y0690767D02*
X0563992Y0690767D01*
X0563992Y0691365D02*
X0599425Y0691365D01*
X0599425Y0691964D02*
X0563992Y0691964D01*
X0563992Y0692562D02*
X0599425Y0692562D01*
X0599425Y0693161D02*
X0563992Y0693161D01*
X0563992Y0693759D02*
X0599425Y0693759D01*
X0599425Y0694358D02*
X0563992Y0694358D01*
X0563992Y0694956D02*
X0599425Y0694956D01*
X0599425Y0695555D02*
X0563992Y0695555D01*
X0563992Y0696153D02*
X0599425Y0696153D01*
X0599425Y0696752D02*
X0563992Y0696752D01*
X0563992Y0697350D02*
X0599425Y0697350D01*
X0599425Y0697949D02*
X0563992Y0697949D01*
X0563992Y0698548D02*
X0599425Y0698548D01*
X0599425Y0699146D02*
X0563992Y0699146D01*
X0563992Y0699745D02*
X0599425Y0699745D01*
X0599425Y0700343D02*
X0563992Y0700343D01*
X0563992Y0700942D02*
X0599425Y0700942D01*
X0599425Y0701540D02*
X0563992Y0701540D01*
X0563992Y0702139D02*
X0599425Y0702139D01*
X0599425Y0702737D02*
X0563992Y0702737D01*
X0563992Y0703336D02*
X0599425Y0703336D01*
X0599425Y0703934D02*
X0563992Y0703934D01*
X0563992Y0704533D02*
X0599425Y0704533D01*
X0599425Y0705131D02*
X0563992Y0705131D01*
X0563992Y0705730D02*
X0599425Y0705730D01*
X0599425Y0706328D02*
X0563992Y0706328D01*
X0563992Y0706927D02*
X0599425Y0706927D01*
X0599425Y0707525D02*
X0563992Y0707525D01*
X0563992Y0708124D02*
X0599425Y0708124D01*
X0599425Y0708722D02*
X0563992Y0708722D01*
X0563992Y0709321D02*
X0599425Y0709321D01*
X0599425Y0709919D02*
X0563992Y0709919D01*
X0563992Y0710518D02*
X0599425Y0710518D01*
X0599425Y0711116D02*
X0563992Y0711116D01*
X0563992Y0711715D02*
X0599425Y0711715D01*
X0599425Y0712313D02*
X0563992Y0712313D01*
X0563992Y0712912D02*
X0599425Y0712912D01*
X0599425Y0713510D02*
X0597495Y0713510D01*
X0598093Y0714109D02*
X0599425Y0714109D01*
X0599425Y0714707D02*
X0598692Y0714707D01*
X0599290Y0715306D02*
X0599425Y0715306D01*
X0595276Y0715306D02*
X0594676Y0715306D01*
X0594676Y0715904D02*
X0595276Y0715904D01*
X0595276Y0716503D02*
X0594676Y0716503D01*
X0594676Y0717101D02*
X0595276Y0717101D01*
X0595276Y0717700D02*
X0594676Y0717700D01*
X0594676Y0718298D02*
X0589776Y0718298D01*
X0589976Y0718363D02*
X0594676Y0718363D01*
X0594676Y0723063D01*
X0592905Y0723063D01*
X0589976Y0720134D01*
X0589976Y0718363D01*
X0589976Y0718897D02*
X0589776Y0718897D01*
X0589776Y0719495D02*
X0589976Y0719495D01*
X0589776Y0720051D02*
X0586965Y0722863D01*
X0582988Y0722863D01*
X0580176Y0720051D01*
X0580176Y0716075D01*
X0582988Y0713263D01*
X0586965Y0713263D01*
X0589776Y0716075D01*
X0589776Y0720051D01*
X0589734Y0720094D02*
X0589976Y0720094D01*
X0590535Y0720692D02*
X0589135Y0720692D01*
X0588537Y0721291D02*
X0591133Y0721291D01*
X0591732Y0721889D02*
X0587938Y0721889D01*
X0587340Y0722488D02*
X0592330Y0722488D01*
X0592566Y0723685D02*
X0587669Y0723685D01*
X0587071Y0723086D02*
X0599425Y0723086D01*
X0599425Y0722488D02*
X0597622Y0722488D01*
X0598221Y0721889D02*
X0599425Y0721889D01*
X0599425Y0721291D02*
X0598819Y0721291D01*
X0599418Y0720692D02*
X0599425Y0720692D01*
X0599425Y0723685D02*
X0597387Y0723685D01*
X0597985Y0724284D02*
X0599425Y0724284D01*
X0599425Y0724882D02*
X0598584Y0724882D01*
X0599182Y0725481D02*
X0599425Y0725481D01*
X0595276Y0722488D02*
X0594676Y0722488D01*
X0594676Y0721889D02*
X0595276Y0721889D01*
X0595276Y0721291D02*
X0594676Y0721291D01*
X0594676Y0720692D02*
X0595276Y0720692D01*
X0595276Y0720094D02*
X0594676Y0720094D01*
X0594676Y0719495D02*
X0595276Y0719495D01*
X0595276Y0718897D02*
X0594676Y0718897D01*
X0594676Y0714707D02*
X0595276Y0714707D01*
X0595276Y0714109D02*
X0594676Y0714109D01*
X0594676Y0713510D02*
X0595276Y0713510D01*
X0592458Y0713510D02*
X0587212Y0713510D01*
X0587810Y0714109D02*
X0591859Y0714109D01*
X0591261Y0714707D02*
X0588409Y0714707D01*
X0589007Y0715306D02*
X0590662Y0715306D01*
X0590064Y0715904D02*
X0589606Y0715904D01*
X0589776Y0716503D02*
X0589976Y0716503D01*
X0589976Y0717101D02*
X0589776Y0717101D01*
X0589776Y0717700D02*
X0589976Y0717700D01*
X0587047Y0723063D02*
X0589976Y0725992D01*
X0589976Y0727763D01*
X0585276Y0727763D01*
X0585276Y0723063D01*
X0587047Y0723063D01*
X0588268Y0724284D02*
X0591968Y0724284D01*
X0591369Y0724882D02*
X0588866Y0724882D01*
X0589465Y0725481D02*
X0590771Y0725481D01*
X0590176Y0726079D02*
X0589976Y0726079D01*
X0589976Y0726678D02*
X0590176Y0726678D01*
X0590176Y0727276D02*
X0589976Y0727276D01*
X0590176Y0727875D02*
X0585276Y0727875D01*
X0585276Y0727763D02*
X0585276Y0728363D01*
X0584676Y0728363D01*
X0584676Y0727763D01*
X0579976Y0727763D01*
X0579976Y0725992D01*
X0582905Y0723063D01*
X0584676Y0723063D01*
X0584676Y0727763D01*
X0585276Y0727763D01*
X0585276Y0727276D02*
X0584676Y0727276D01*
X0584676Y0726678D02*
X0585276Y0726678D01*
X0585276Y0726079D02*
X0584676Y0726079D01*
X0584676Y0725481D02*
X0585276Y0725481D01*
X0585276Y0724882D02*
X0584676Y0724882D01*
X0584676Y0724284D02*
X0585276Y0724284D01*
X0585276Y0723685D02*
X0584676Y0723685D01*
X0584676Y0723086D02*
X0585276Y0723086D01*
X0582882Y0723086D02*
X0567741Y0723086D01*
X0568340Y0722488D02*
X0572330Y0722488D01*
X0572905Y0723063D02*
X0569976Y0720134D01*
X0569976Y0718363D01*
X0574676Y0718363D01*
X0574676Y0717763D01*
X0569976Y0717763D01*
X0569976Y0715992D01*
X0572905Y0713063D01*
X0574676Y0713063D01*
X0574676Y0717763D01*
X0575276Y0717763D01*
X0575276Y0713063D01*
X0577047Y0713063D01*
X0579976Y0715992D01*
X0579976Y0717763D01*
X0575276Y0717763D01*
X0575276Y0718363D01*
X0574676Y0718363D01*
X0574676Y0723063D01*
X0572905Y0723063D01*
X0572988Y0723263D02*
X0576965Y0723263D01*
X0579776Y0726075D01*
X0579776Y0730051D01*
X0576965Y0732863D01*
X0572988Y0732863D01*
X0570176Y0730051D01*
X0570176Y0726075D01*
X0572988Y0723263D01*
X0572566Y0723685D02*
X0567143Y0723685D01*
X0567268Y0724284D02*
X0571968Y0724284D01*
X0571369Y0724882D02*
X0567866Y0724882D01*
X0568465Y0725481D02*
X0570771Y0725481D01*
X0570176Y0726079D02*
X0569063Y0726079D01*
X0569662Y0726678D02*
X0570176Y0726678D01*
X0570176Y0727276D02*
X0569976Y0727276D01*
X0569976Y0727875D02*
X0570176Y0727875D01*
X0570176Y0728473D02*
X0569976Y0728473D01*
X0570176Y0729072D02*
X0565276Y0729072D01*
X0565276Y0729363D02*
X0569976Y0729363D01*
X0569976Y0731134D01*
X0567047Y0734063D01*
X0565276Y0734063D01*
X0565276Y0729363D01*
X0565276Y0729670D02*
X0564676Y0729670D01*
X0564676Y0730269D02*
X0565276Y0730269D01*
X0565276Y0730867D02*
X0564676Y0730867D01*
X0564676Y0731466D02*
X0565276Y0731466D01*
X0565276Y0732064D02*
X0564676Y0732064D01*
X0564676Y0732663D02*
X0565276Y0732663D01*
X0565276Y0733261D02*
X0564676Y0733261D01*
X0564676Y0733860D02*
X0565276Y0733860D01*
X0567251Y0733860D02*
X0572109Y0733860D01*
X0572707Y0733261D02*
X0567849Y0733261D01*
X0568448Y0732663D02*
X0572788Y0732663D01*
X0572905Y0733063D02*
X0574676Y0733063D01*
X0574676Y0737763D01*
X0569976Y0737763D01*
X0569976Y0735992D01*
X0572905Y0733063D01*
X0572189Y0732064D02*
X0569046Y0732064D01*
X0569645Y0731466D02*
X0571591Y0731466D01*
X0570992Y0730867D02*
X0569976Y0730867D01*
X0569976Y0730269D02*
X0570394Y0730269D01*
X0570176Y0729670D02*
X0569976Y0729670D01*
X0565276Y0728473D02*
X0564676Y0728473D01*
X0564676Y0727875D02*
X0565276Y0727875D01*
X0565276Y0727276D02*
X0564676Y0727276D01*
X0564676Y0726678D02*
X0565276Y0726678D01*
X0565276Y0726079D02*
X0564676Y0726079D01*
X0564676Y0725481D02*
X0565276Y0725481D01*
X0565276Y0724882D02*
X0564676Y0724882D01*
X0564676Y0724284D02*
X0565276Y0724284D01*
X0568938Y0721889D02*
X0571732Y0721889D01*
X0571133Y0721291D02*
X0569537Y0721291D01*
X0569776Y0720692D02*
X0570535Y0720692D01*
X0569976Y0720094D02*
X0569776Y0720094D01*
X0569776Y0719495D02*
X0569976Y0719495D01*
X0569976Y0718897D02*
X0569776Y0718897D01*
X0569776Y0718298D02*
X0574676Y0718298D01*
X0574676Y0717700D02*
X0575276Y0717700D01*
X0575276Y0718298D02*
X0580176Y0718298D01*
X0579976Y0718363D02*
X0579976Y0720134D01*
X0577047Y0723063D01*
X0575276Y0723063D01*
X0575276Y0718363D01*
X0579976Y0718363D01*
X0579976Y0718897D02*
X0580176Y0718897D01*
X0580176Y0719495D02*
X0579976Y0719495D01*
X0579976Y0720094D02*
X0580219Y0720094D01*
X0580818Y0720692D02*
X0579418Y0720692D01*
X0578819Y0721291D02*
X0581416Y0721291D01*
X0582015Y0721889D02*
X0578221Y0721889D01*
X0577622Y0722488D02*
X0582613Y0722488D01*
X0582283Y0723685D02*
X0577387Y0723685D01*
X0577985Y0724284D02*
X0581685Y0724284D01*
X0581086Y0724882D02*
X0578584Y0724882D01*
X0579182Y0725481D02*
X0580488Y0725481D01*
X0579976Y0726079D02*
X0579776Y0726079D01*
X0579776Y0726678D02*
X0579976Y0726678D01*
X0579976Y0727276D02*
X0579776Y0727276D01*
X0579776Y0727875D02*
X0584676Y0727875D01*
X0584676Y0728363D02*
X0579976Y0728363D01*
X0579976Y0730134D01*
X0582905Y0733063D01*
X0584676Y0733063D01*
X0584676Y0728363D01*
X0584676Y0728473D02*
X0585276Y0728473D01*
X0585276Y0728363D02*
X0585276Y0733063D01*
X0587047Y0733063D01*
X0589976Y0730134D01*
X0589976Y0728363D01*
X0585276Y0728363D01*
X0585276Y0729072D02*
X0584676Y0729072D01*
X0584676Y0729670D02*
X0585276Y0729670D01*
X0585276Y0730269D02*
X0584676Y0730269D01*
X0584676Y0730867D02*
X0585276Y0730867D01*
X0585276Y0731466D02*
X0584676Y0731466D01*
X0584676Y0732064D02*
X0585276Y0732064D01*
X0585276Y0732663D02*
X0584676Y0732663D01*
X0582988Y0733263D02*
X0586965Y0733263D01*
X0589776Y0736075D01*
X0589776Y0740051D01*
X0586965Y0742863D01*
X0582988Y0742863D01*
X0580176Y0740051D01*
X0580176Y0736075D01*
X0582988Y0733263D01*
X0582505Y0732663D02*
X0577165Y0732663D01*
X0577047Y0733063D02*
X0579976Y0735992D01*
X0579976Y0737763D01*
X0575276Y0737763D01*
X0575276Y0733063D01*
X0577047Y0733063D01*
X0577246Y0733261D02*
X0592707Y0733261D01*
X0592788Y0732663D02*
X0587448Y0732663D01*
X0588046Y0732064D02*
X0592189Y0732064D01*
X0591591Y0731466D02*
X0588645Y0731466D01*
X0589243Y0730867D02*
X0590992Y0730867D01*
X0590394Y0730269D02*
X0589842Y0730269D01*
X0589976Y0729670D02*
X0590176Y0729670D01*
X0590176Y0729072D02*
X0589976Y0729072D01*
X0589976Y0728473D02*
X0590176Y0728473D01*
X0592109Y0733860D02*
X0587561Y0733860D01*
X0588160Y0734458D02*
X0591510Y0734458D01*
X0590912Y0735057D02*
X0588758Y0735057D01*
X0589357Y0735655D02*
X0590313Y0735655D01*
X0589976Y0736254D02*
X0589776Y0736254D01*
X0589776Y0736852D02*
X0589976Y0736852D01*
X0589976Y0737451D02*
X0589776Y0737451D01*
X0589776Y0738049D02*
X0594676Y0738049D01*
X0594676Y0738363D02*
X0589976Y0738363D01*
X0589976Y0740134D01*
X0592905Y0743063D01*
X0594676Y0743063D01*
X0594676Y0738363D01*
X0594676Y0738648D02*
X0595276Y0738648D01*
X0595276Y0739246D02*
X0594676Y0739246D01*
X0594676Y0739845D02*
X0595276Y0739845D01*
X0595276Y0740443D02*
X0594676Y0740443D01*
X0594676Y0741042D02*
X0595276Y0741042D01*
X0595276Y0741640D02*
X0594676Y0741640D01*
X0594676Y0742239D02*
X0595276Y0742239D01*
X0595276Y0742837D02*
X0594676Y0742837D01*
X0592815Y0743436D02*
X0587420Y0743436D01*
X0587047Y0743063D02*
X0589976Y0745992D01*
X0589976Y0747763D01*
X0585276Y0747763D01*
X0585276Y0743063D01*
X0587047Y0743063D01*
X0586990Y0742837D02*
X0592680Y0742837D01*
X0592081Y0742239D02*
X0587589Y0742239D01*
X0588187Y0741640D02*
X0591483Y0741640D01*
X0590884Y0741042D02*
X0588786Y0741042D01*
X0589384Y0740443D02*
X0590286Y0740443D01*
X0589976Y0739845D02*
X0589776Y0739845D01*
X0589776Y0739246D02*
X0589976Y0739246D01*
X0589976Y0738648D02*
X0589776Y0738648D01*
X0594676Y0737451D02*
X0595276Y0737451D01*
X0595276Y0736852D02*
X0594676Y0736852D01*
X0594676Y0736254D02*
X0595276Y0736254D01*
X0595276Y0735655D02*
X0594676Y0735655D01*
X0594676Y0735057D02*
X0595276Y0735057D01*
X0595276Y0734458D02*
X0594676Y0734458D01*
X0594676Y0733860D02*
X0595276Y0733860D01*
X0595276Y0733261D02*
X0594676Y0733261D01*
X0597165Y0732663D02*
X0599425Y0732663D01*
X0599425Y0733261D02*
X0597246Y0733261D01*
X0597844Y0733860D02*
X0599425Y0733860D01*
X0599425Y0734458D02*
X0598443Y0734458D01*
X0599041Y0735057D02*
X0599425Y0735057D01*
X0599425Y0732064D02*
X0597763Y0732064D01*
X0598362Y0731466D02*
X0599425Y0731466D01*
X0599425Y0730867D02*
X0598960Y0730867D01*
X0599069Y0741042D02*
X0599425Y0741042D01*
X0599425Y0741640D02*
X0598470Y0741640D01*
X0597872Y0742239D02*
X0599425Y0742239D01*
X0599425Y0742837D02*
X0597273Y0742837D01*
X0597137Y0743436D02*
X0599425Y0743436D01*
X0599425Y0744034D02*
X0597736Y0744034D01*
X0598334Y0744633D02*
X0599425Y0744633D01*
X0599425Y0745231D02*
X0598933Y0745231D01*
X0599210Y0750618D02*
X0599425Y0750618D01*
X0599425Y0751217D02*
X0598611Y0751217D01*
X0598013Y0751815D02*
X0599425Y0751815D01*
X0599425Y0752414D02*
X0597414Y0752414D01*
X0599425Y0753012D02*
X0587098Y0753012D01*
X0587047Y0753063D02*
X0585276Y0753063D01*
X0585276Y0748363D01*
X0584676Y0748363D01*
X0584676Y0747763D01*
X0579976Y0747763D01*
X0579976Y0745992D01*
X0582905Y0743063D01*
X0584676Y0743063D01*
X0584676Y0747763D01*
X0585276Y0747763D01*
X0585276Y0748363D01*
X0589976Y0748363D01*
X0589976Y0750134D01*
X0587047Y0753063D01*
X0587697Y0752414D02*
X0592539Y0752414D01*
X0591940Y0751815D02*
X0588295Y0751815D01*
X0588894Y0751217D02*
X0591342Y0751217D01*
X0590743Y0750618D02*
X0589492Y0750618D01*
X0589976Y0750019D02*
X0590176Y0750019D01*
X0590176Y0749421D02*
X0589976Y0749421D01*
X0589976Y0748822D02*
X0590176Y0748822D01*
X0590176Y0748224D02*
X0585276Y0748224D01*
X0585276Y0748822D02*
X0584676Y0748822D01*
X0584676Y0748363D02*
X0584676Y0753063D01*
X0582905Y0753063D01*
X0579976Y0750134D01*
X0579976Y0748363D01*
X0584676Y0748363D01*
X0584676Y0748224D02*
X0579776Y0748224D01*
X0579776Y0748822D02*
X0579976Y0748822D01*
X0579976Y0749421D02*
X0579776Y0749421D01*
X0579776Y0750019D02*
X0579976Y0750019D01*
X0579776Y0750051D02*
X0576965Y0752863D01*
X0572988Y0752863D01*
X0570176Y0750051D01*
X0570176Y0746075D01*
X0572988Y0743263D01*
X0576965Y0743263D01*
X0579776Y0746075D01*
X0579776Y0750051D01*
X0579210Y0750618D02*
X0580460Y0750618D01*
X0581059Y0751217D02*
X0578611Y0751217D01*
X0578013Y0751815D02*
X0581657Y0751815D01*
X0582256Y0752414D02*
X0577414Y0752414D01*
X0572539Y0752414D02*
X0568697Y0752414D01*
X0568098Y0753012D02*
X0582854Y0753012D01*
X0584676Y0753012D02*
X0585276Y0753012D01*
X0585276Y0752414D02*
X0584676Y0752414D01*
X0584676Y0751815D02*
X0585276Y0751815D01*
X0585276Y0751217D02*
X0584676Y0751217D01*
X0584676Y0750618D02*
X0585276Y0750618D01*
X0585276Y0750019D02*
X0584676Y0750019D01*
X0584676Y0749421D02*
X0585276Y0749421D01*
X0585276Y0747625D02*
X0584676Y0747625D01*
X0584676Y0747027D02*
X0585276Y0747027D01*
X0585276Y0746428D02*
X0584676Y0746428D01*
X0584676Y0745830D02*
X0585276Y0745830D01*
X0585276Y0745231D02*
X0584676Y0745231D01*
X0584676Y0744633D02*
X0585276Y0744633D01*
X0585276Y0744034D02*
X0584676Y0744034D01*
X0584676Y0743436D02*
X0585276Y0743436D01*
X0582963Y0742837D02*
X0577273Y0742837D01*
X0577047Y0743063D02*
X0579976Y0740134D01*
X0579976Y0738363D01*
X0575276Y0738363D01*
X0574676Y0738363D01*
X0574676Y0737763D01*
X0575276Y0737763D01*
X0575276Y0738363D01*
X0575276Y0743063D01*
X0577047Y0743063D01*
X0577137Y0743436D02*
X0582532Y0743436D01*
X0581934Y0744034D02*
X0577736Y0744034D01*
X0578334Y0744633D02*
X0581335Y0744633D01*
X0580737Y0745231D02*
X0578933Y0745231D01*
X0579532Y0745830D02*
X0580138Y0745830D01*
X0579976Y0746428D02*
X0579776Y0746428D01*
X0579776Y0747027D02*
X0579976Y0747027D01*
X0579976Y0747625D02*
X0579776Y0747625D01*
X0577872Y0742239D02*
X0582364Y0742239D01*
X0581766Y0741640D02*
X0578470Y0741640D01*
X0579069Y0741042D02*
X0581167Y0741042D01*
X0580568Y0740443D02*
X0579667Y0740443D01*
X0579976Y0739845D02*
X0580176Y0739845D01*
X0580176Y0739246D02*
X0579976Y0739246D01*
X0579976Y0738648D02*
X0580176Y0738648D01*
X0580176Y0738049D02*
X0575276Y0738049D01*
X0575276Y0737451D02*
X0574676Y0737451D01*
X0574676Y0738049D02*
X0569776Y0738049D01*
X0569976Y0738363D02*
X0574676Y0738363D01*
X0574676Y0743063D01*
X0572905Y0743063D01*
X0569976Y0740134D01*
X0569976Y0738363D01*
X0569976Y0738648D02*
X0569776Y0738648D01*
X0569776Y0739246D02*
X0569976Y0739246D01*
X0569976Y0739845D02*
X0569776Y0739845D01*
X0569776Y0740443D02*
X0570286Y0740443D01*
X0569776Y0741042D02*
X0570884Y0741042D01*
X0571483Y0741640D02*
X0569187Y0741640D01*
X0568589Y0742239D02*
X0572081Y0742239D01*
X0572680Y0742837D02*
X0567990Y0742837D01*
X0567392Y0743436D02*
X0572815Y0743436D01*
X0572217Y0744034D02*
X0563992Y0744034D01*
X0564676Y0744633D02*
X0565276Y0744633D01*
X0565276Y0745231D02*
X0564676Y0745231D01*
X0564676Y0745830D02*
X0565276Y0745830D01*
X0565276Y0746428D02*
X0564676Y0746428D01*
X0564676Y0747027D02*
X0565276Y0747027D01*
X0565276Y0747625D02*
X0564676Y0747625D01*
X0564676Y0748224D02*
X0565276Y0748224D01*
X0565276Y0748822D02*
X0570176Y0748822D01*
X0570176Y0748224D02*
X0569976Y0748224D01*
X0569976Y0747625D02*
X0570176Y0747625D01*
X0570176Y0747027D02*
X0569976Y0747027D01*
X0570176Y0746428D02*
X0569413Y0746428D01*
X0568814Y0745830D02*
X0570421Y0745830D01*
X0571020Y0745231D02*
X0568216Y0745231D01*
X0567617Y0744633D02*
X0571618Y0744633D01*
X0574676Y0742837D02*
X0575276Y0742837D01*
X0575276Y0742239D02*
X0574676Y0742239D01*
X0574676Y0741640D02*
X0575276Y0741640D01*
X0575276Y0741042D02*
X0574676Y0741042D01*
X0574676Y0740443D02*
X0575276Y0740443D01*
X0575276Y0739845D02*
X0574676Y0739845D01*
X0574676Y0739246D02*
X0575276Y0739246D01*
X0575276Y0738648D02*
X0574676Y0738648D01*
X0574676Y0736852D02*
X0575276Y0736852D01*
X0575276Y0736254D02*
X0574676Y0736254D01*
X0574676Y0735655D02*
X0575276Y0735655D01*
X0575276Y0735057D02*
X0574676Y0735057D01*
X0574676Y0734458D02*
X0575276Y0734458D01*
X0575276Y0733860D02*
X0574676Y0733860D01*
X0574676Y0733261D02*
X0575276Y0733261D01*
X0577844Y0733860D02*
X0582391Y0733860D01*
X0581793Y0734458D02*
X0578443Y0734458D01*
X0579041Y0735057D02*
X0581194Y0735057D01*
X0580596Y0735655D02*
X0579640Y0735655D01*
X0579976Y0736254D02*
X0580176Y0736254D01*
X0580176Y0736852D02*
X0579976Y0736852D01*
X0579976Y0737451D02*
X0580176Y0737451D01*
X0581906Y0732064D02*
X0577763Y0732064D01*
X0578362Y0731466D02*
X0581308Y0731466D01*
X0580709Y0730867D02*
X0578960Y0730867D01*
X0579559Y0730269D02*
X0580111Y0730269D01*
X0579976Y0729670D02*
X0579776Y0729670D01*
X0579776Y0729072D02*
X0579976Y0729072D01*
X0579976Y0728473D02*
X0579776Y0728473D01*
X0575276Y0722488D02*
X0574676Y0722488D01*
X0574676Y0721889D02*
X0575276Y0721889D01*
X0575276Y0721291D02*
X0574676Y0721291D01*
X0574676Y0720692D02*
X0575276Y0720692D01*
X0575276Y0720094D02*
X0574676Y0720094D01*
X0574676Y0719495D02*
X0575276Y0719495D01*
X0575276Y0718897D02*
X0574676Y0718897D01*
X0574676Y0717101D02*
X0575276Y0717101D01*
X0575276Y0716503D02*
X0574676Y0716503D01*
X0574676Y0715904D02*
X0575276Y0715904D01*
X0575276Y0715306D02*
X0574676Y0715306D01*
X0574676Y0714707D02*
X0575276Y0714707D01*
X0575276Y0714109D02*
X0574676Y0714109D01*
X0574676Y0713510D02*
X0575276Y0713510D01*
X0577495Y0713510D02*
X0582741Y0713510D01*
X0582142Y0714109D02*
X0578093Y0714109D01*
X0578692Y0714707D02*
X0581544Y0714707D01*
X0580945Y0715306D02*
X0579290Y0715306D01*
X0579889Y0715904D02*
X0580347Y0715904D01*
X0580176Y0716503D02*
X0579976Y0716503D01*
X0579976Y0717101D02*
X0580176Y0717101D01*
X0580176Y0717700D02*
X0579976Y0717700D01*
X0572458Y0713510D02*
X0563992Y0713510D01*
X0563992Y0714109D02*
X0571859Y0714109D01*
X0571261Y0714707D02*
X0567409Y0714707D01*
X0568007Y0715306D02*
X0570662Y0715306D01*
X0570064Y0715904D02*
X0568606Y0715904D01*
X0569204Y0716503D02*
X0569976Y0716503D01*
X0569976Y0717101D02*
X0569776Y0717101D01*
X0569776Y0717700D02*
X0569976Y0717700D01*
X0571510Y0734458D02*
X0567160Y0734458D01*
X0567758Y0735057D02*
X0570912Y0735057D01*
X0570313Y0735655D02*
X0568357Y0735655D01*
X0568955Y0736254D02*
X0569976Y0736254D01*
X0569976Y0736852D02*
X0569554Y0736852D01*
X0569776Y0737451D02*
X0569976Y0737451D01*
X0569976Y0749421D02*
X0570176Y0749421D01*
X0570176Y0750019D02*
X0569976Y0750019D01*
X0569976Y0750618D02*
X0570743Y0750618D01*
X0571342Y0751217D02*
X0569894Y0751217D01*
X0569295Y0751815D02*
X0571940Y0751815D01*
X0567500Y0753611D02*
X0599425Y0753611D01*
X0590176Y0747625D02*
X0589976Y0747625D01*
X0589976Y0747027D02*
X0590176Y0747027D01*
X0590176Y0746428D02*
X0589976Y0746428D01*
X0589814Y0745830D02*
X0590421Y0745830D01*
X0591020Y0745231D02*
X0589216Y0745231D01*
X0588617Y0744633D02*
X0591618Y0744633D01*
X0592217Y0744034D02*
X0588019Y0744034D01*
D17*
X0623047Y0304835D02*
X0229346Y0304835D01*
X0016248Y0304835D01*
X0623047Y0304835D02*
X0965567Y0304835D01*
D18*
X0965567Y0305150D01*
X0969004Y0305150D01*
X0969004Y0324835D01*
X0958193Y0324835D01*
X0958193Y0304835D01*
X0946382Y0314835D02*
X0970004Y0314835D01*
X0958193Y0324835D02*
X0945382Y0324835D01*
X0945382Y0304835D01*
X0774976Y0324362D02*
X0774976Y0337291D01*
X0769976Y0342291D01*
X0769976Y0377498D01*
X0768717Y0383890D01*
X0774976Y0379953D02*
X0774976Y0344362D01*
X0754976Y0344362D02*
X0754976Y0387827D01*
X0752969Y0391556D02*
X0752969Y0391764D01*
X0752969Y0391556D02*
X0749976Y0388564D01*
X0749976Y0342291D01*
X0754976Y0337291D01*
X0754976Y0324362D01*
X0734976Y0324362D02*
X0734976Y0334362D01*
X0734976Y0337291D01*
X0729976Y0342291D01*
X0729976Y0393246D01*
X0730346Y0399490D01*
X0733283Y0399638D01*
X0734976Y0395701D02*
X0734976Y0344362D01*
X0709976Y0356433D02*
X0709976Y0329362D01*
X0704976Y0324362D01*
X0699976Y0332291D02*
X0699976Y0405701D01*
X0701787Y0407512D01*
X0709661Y0403575D02*
X0709661Y0356748D01*
X0709976Y0356433D01*
X0682102Y0358559D02*
X0682102Y0411449D01*
X0670291Y0415386D02*
X0669976Y0415071D01*
X0669976Y0342291D01*
X0670240Y0342027D01*
X0670240Y0336697D01*
X0669976Y0336433D01*
X0669976Y0332291D01*
X0674976Y0327291D01*
X0674976Y0324362D01*
X0684976Y0324362D02*
X0684976Y0327291D01*
X0689976Y0332291D01*
X0689976Y0336433D01*
X0687047Y0339362D01*
X0682905Y0339362D01*
X0679976Y0342291D01*
X0679976Y0356433D01*
X0682102Y0358559D01*
X0699976Y0332291D02*
X0694976Y0327291D01*
X0694976Y0324362D01*
X0241276Y0718063D02*
X0232929Y0726409D01*
X0231276Y0726409D01*
X0221276Y0736409D01*
X0221276Y0738063D01*
X0231276Y0748063D01*
X0233283Y0746094D02*
X0233283Y0746055D01*
X0241276Y0738063D01*
X0231276Y0728063D01*
X0231276Y0726409D01*
X0229622Y0726409D01*
X0221276Y0718063D01*
X0232929Y0726409D02*
X0233283Y0726409D01*
X0221472Y0738063D02*
X0221276Y0738063D01*
X0221472Y0738063D02*
X0221472Y0738220D01*
X0221433Y0738220D01*
X0211276Y0728063D01*
X0221118Y0738220D02*
X0221433Y0738220D01*
X0221118Y0738220D02*
X0211276Y0748063D01*
X0040870Y0324835D02*
X0039870Y0324835D01*
X0028559Y0324835D01*
X0028559Y0314835D01*
X0029059Y0314835D01*
X0029059Y0304835D01*
X0029059Y0314835D02*
X0039870Y0314835D01*
X0040870Y0314835D01*
X0040870Y0324835D01*
X0039870Y0314835D02*
X0039870Y0304835D01*
X0028559Y0314835D02*
X0028059Y0314835D01*
X0017248Y0314835D01*
X0017248Y0316961D01*
X0016748Y0316961D01*
X0016748Y0324835D01*
X0016248Y0324835D01*
X0028559Y0324835D01*
X0016748Y0316961D02*
X0016748Y0304835D01*
X0016248Y0304835D01*
D19*
X0221472Y0372079D02*
X0233283Y0360268D01*
X0221472Y0372079D02*
X0221472Y0616173D01*
X0552181Y0616173D01*
X0611236Y0616173D02*
X0896662Y0616173D01*
X0896662Y0641784D01*
X0918323Y0641784D01*
X0918323Y0612236D01*
X0894701Y0612236D01*
X0625476Y0601933D02*
X0625476Y0353862D01*
X0624976Y0324362D02*
X0624976Y0304835D01*
X0623047Y0304835D01*
X0625476Y0601933D02*
X0611236Y0616173D01*
X0611236Y0710888D01*
X0614476Y0714128D01*
X0614476Y0717839D01*
X0615173Y0718535D01*
X0221276Y0718063D02*
X0221276Y0663417D01*
X0221472Y0663417D01*
D20*
X0237220Y0671291D02*
X0237220Y0712118D01*
X0231276Y0718063D01*
X0251276Y0748063D02*
X0251276Y0659480D01*
X0249031Y0659480D01*
X0249031Y0600425D02*
X0251276Y0600425D01*
X0251276Y0537433D01*
X0251276Y0545307D01*
X0556118Y0545307D01*
X0634976Y0600425D02*
X0638795Y0600425D01*
X0634976Y0600425D02*
X0634976Y0354362D01*
X0644976Y0324362D02*
X0646669Y0324362D01*
X0646669Y0588614D01*
X0638795Y0631921D02*
X0823848Y0631921D01*
X0896662Y0704735D01*
X0896662Y0726409D01*
X0894701Y0726409D01*
X0894701Y0730346D01*
X0922260Y0730346D01*
X0922260Y0704735D01*
X0916362Y0704735D01*
X0898638Y0704735D01*
X0898638Y0702787D01*
X0646669Y0748063D02*
X0646669Y0639795D01*
X0638795Y0631921D02*
X0638795Y0704244D01*
X0624976Y0718063D01*
X0644976Y0748063D02*
X0646669Y0748063D01*
X0251276Y0537433D02*
X0251276Y0334362D01*
X0231276Y0324362D02*
X0231276Y0304835D01*
X0229346Y0304835D01*
X0241276Y0354362D02*
X0241276Y0356522D01*
X0241583Y0356830D01*
X0241583Y0596062D01*
X0237220Y0600425D01*
X0017248Y0294835D02*
X0970004Y0294835D01*
X0969004Y0284835D02*
X0016248Y0284835D01*
X0012811Y0274835D02*
X0012811Y0273654D01*
X0012811Y0274835D02*
X0970004Y0274835D01*
X0973441Y0265780D02*
X0973441Y0264835D01*
X0016248Y0264835D01*
X0017248Y0254835D02*
X0970004Y0254835D01*
X0973441Y0246094D02*
X0973441Y0244835D01*
X0016248Y0244835D01*
X0017248Y0234835D02*
X0970004Y0234835D01*
X0969004Y0224835D02*
X0016248Y0224835D01*
X0016349Y0214835D02*
X0012811Y0211297D01*
X0016349Y0214835D02*
X0970004Y0214835D01*
X0969004Y0204835D02*
X0016248Y0204835D01*
X0016349Y0174835D02*
X0012811Y0171297D01*
X0016349Y0174835D02*
X0970004Y0174835D01*
X0969004Y0164835D02*
X0016248Y0164835D01*
D21*
X0237220Y0600425D03*
X0221472Y0616173D03*
X0221472Y0663417D03*
X0237220Y0671291D03*
X0552181Y0616173D03*
X0611236Y0616173D03*
X0638795Y0600425D03*
X0638795Y0631921D03*
D22*
X0646669Y0639795D03*
X0646669Y0588614D03*
X0556118Y0545307D03*
X0249031Y0600425D03*
X0249031Y0659480D03*
D23*
X0604976Y0728063D02*
X0608047Y0728063D01*
X0612947Y0723163D01*
X0614483Y0723163D01*
X0619110Y0718535D01*
X0615173Y0718535D02*
X0623047Y0726409D01*
X0623047Y0728240D01*
X0625154Y0728240D01*
X0624976Y0728063D01*
X0634976Y0718063D01*
X0624976Y0728063D02*
X0624976Y0728417D01*
X0615154Y0738240D01*
X0624976Y0748063D01*
X0634976Y0738063D01*
X0625154Y0728240D01*
X0615154Y0738240D02*
X0614976Y0738063D01*
X0604976Y0728063D01*
X0614976Y0738063D02*
X0604976Y0748063D01*
X0615173Y0718535D02*
X0614976Y0718339D01*
X0614976Y0718063D01*
X0236376Y0353239D02*
X0233283Y0356331D01*
X0231276Y0354362D02*
X0221453Y0344539D01*
X0211630Y0354362D01*
X0211276Y0354362D01*
X0221276Y0344362D02*
X0221630Y0344362D01*
X0231453Y0334539D01*
X0241276Y0344362D01*
X0241276Y0347433D01*
X0236376Y0352333D01*
X0236376Y0353239D01*
X0221453Y0344539D02*
X0221276Y0344362D01*
X0213598Y0336685D01*
X0213598Y0336646D01*
X0211276Y0336646D01*
X0211276Y0334362D01*
X0221276Y0324362D01*
X0231276Y0334362D01*
X0241276Y0324362D01*
X0231276Y0334362D02*
X0231453Y0334539D01*
X0291276Y0354362D02*
X0301276Y0354362D01*
X0604976Y0354362D02*
X0614976Y0344362D01*
X0604976Y0334362D01*
X0614976Y0324362D01*
X0623323Y0332709D01*
X0626984Y0332709D01*
X0626984Y0334539D01*
X0625154Y0334539D01*
X0624976Y0334362D01*
X0634976Y0324362D01*
X0625154Y0334539D02*
X0627122Y0336508D01*
X0622831Y0336508D01*
X0614976Y0344362D01*
X0624976Y0354362D01*
X0625476Y0353862D01*
X0634976Y0344362D01*
X0627122Y0336508D01*
X0684976Y0354362D02*
X0694976Y0354362D01*
D24*
X0734976Y0395701D02*
X0906512Y0395701D01*
X0906512Y0336646D01*
X0910449Y0340583D02*
X0910449Y0399638D01*
X0733283Y0399638D01*
X0752969Y0391764D02*
X0902575Y0391764D01*
X0902575Y0332709D01*
X0898638Y0328772D02*
X0898638Y0387827D01*
X0754976Y0387827D01*
X0768717Y0383890D02*
X0894701Y0383890D01*
X0894701Y0324835D01*
X0890764Y0320898D02*
X0890764Y0379953D01*
X0774976Y0379953D01*
X0709661Y0403575D02*
X0914386Y0403575D01*
X0914386Y0344520D01*
X0918323Y0348457D02*
X0918323Y0407512D01*
X0701787Y0407512D01*
X0682102Y0411449D02*
X0922260Y0411449D01*
X0922260Y0352394D01*
X0926197Y0356331D02*
X0926197Y0415386D01*
X0670291Y0415386D01*
D25*
X0890764Y0320898D03*
X0894701Y0324835D03*
X0898638Y0328772D03*
X0902575Y0332709D03*
X0906512Y0336646D03*
X0910449Y0340583D03*
X0914386Y0344520D03*
X0918323Y0348457D03*
X0922260Y0352394D03*
X0926197Y0356331D03*
M02*
